<svg width="512" height="512" xmlns="http://www.w3.org/2000/svg">
 <!-- Created with Method Draw - http://github.com/duopixel/Method-Draw/ -->

 <g>
  <title>background</title>
  <rect fill="none" id="canvas_background" height="514" width="514" y="-1" x="-1"/>
  <g display="none" overflow="visible" y="0" x="0" height="100%" width="100%" id="canvasGrid">
   <rect fill="url(#gridpattern)" stroke-width="0" y="0" x="0" height="100%" width="100%"/>
  </g>
 </g>
 <g>
  <title>Layer 1</title>
  <!-- Created with Method Draw - http://github.com/duopixel/Method-Draw/ -->
  <g stroke="null" id="svg_153">
   <g stroke="null" transform="matrix(1.0002162611292877,0,0,1.0002162611292877,-122.88117048612098,-127.71253364573238) " id="svg_150">
    <title stroke="null" transform="translate(0,-0.9997838139533997) translate(0,-0.9997838139533997) translate(0,-0.9997838139533997) translate(-0.9997838139533997,0) translate(0.9997838139533997,0) translate(0,0.9997838139533997) translate(-0.9997838139533997,0) translate(0,0.9997838139533997) translate(0,0.9997838139533997) translate(0,0.9997838139533997) translate(0,0.9997838139533997) translate(0,0.9997838139533997) translate(0,-0.9997838139533997) translate(0,-0.9997838139533997) translate(0,-0.9997838139533997) translate(0,-0.9997838139533997) translate(0,-0.9997838139533997) translate(0,-0.9997838139533997) translate(0,-0.9997838139533997) translate(0,-0.9997838139533997) translate(0,-0.9997838139533997) translate(0,-0.9997838139533997) translate(0,-0.9997838139533997) translate(0,-0.9997838139533997) translate(0,-0.9997838139533997) translate(0,-0.9997838139533997) translate(0,-0.9997838139533997) translate(0,-0.9997838139533997) translate(0,-0.9997838139533997) translate(0.9997838139533997,0) translate(-0.9997838139533997,0) translate(-1.001732349395752,-1.4210854715202004e-14) translate(-1.4210854715202004e-14,26.198213577270508) translate(-15.699094772338867,-21.97873306274414) translate(-1907.9998779296875,-1961.9998779296875) translate(2047.9998779296875,0) translate(0,2103.999755859375) ">background</title>
    <rect stroke="null" x="121.299389" y="131.222385" width="514" height="402" id="svg_148" fill="none"/>
    <g stroke="null" id="svg_147" display="none">
     <rect stroke="null" id="svg_151" width="512" height="512" x="122.299389" y="132.222385" stroke-width="0" fill="url(#gridpattern)"/>
    </g>
   </g>
   <g stroke="null" transform="matrix(1.0002162611292877,0,0,1.0002162611292877,-122.88117048612098,-127.71253364573238) " id="svg_152">
    <title stroke="null" transform="translate(0,-0.9997838139533997) translate(0,-0.9997838139533997) translate(0,-0.9997838139533997) translate(-0.9997838139533997,0) translate(0.9997838139533997,0) translate(0,0.9997838139533997) translate(-0.9997838139533997,0) translate(0,0.9997838139533997) translate(0,0.9997838139533997) translate(0,0.9997838139533997) translate(0,0.9997838139533997) translate(0,0.9997838139533997) translate(0,-0.9997838139533997) translate(0,-0.9997838139533997) translate(0,-0.9997838139533997) translate(0,-0.9997838139533997) translate(0,-0.9997838139533997) translate(0,-0.9997838139533997) translate(0,-0.9997838139533997) translate(0,-0.9997838139533997) translate(0,-0.9997838139533997) translate(0,-0.9997838139533997) translate(0,-0.9997838139533997) translate(0,-0.9997838139533997) translate(0,-0.9997838139533997) translate(0,-0.9997838139533997) translate(0,-0.9997838139533997) translate(0,-0.9997838139533997) translate(0,-0.9997838139533997) translate(0.9997838139533997,0) translate(-0.9997838139533997,0) translate(-1.001732349395752,-1.4210854715202004e-14) translate(-1.4210854715202004e-14,26.198213577270508) translate(-15.699094772338867,-21.97873306274414) translate(-1907.9998779296875,-1961.9998779296875) translate(2047.9998779296875,0) translate(0,2103.999755859375) ">Layer 1</title>
    <g stroke="null" id="svg_94">
     <g stroke="null" id="svg_110" transform="matrix(0.724688990722112,0,0,0.724688990722112,-1398.2854478560055,-1075.4586792319876) ">
      <g stroke="null" id="svg_145">
       <path stroke="null" d="m2355.830935,1861.639179c-7.677,-36.192 -29.611,-60.868 -39.482,-65.803c-22.209,-11.104 -29.611,6.58 -39.482,6.58s-17.273,-17.685 -39.482,-6.58c-9.87,4.935 -31.805,29.611 -39.482,65.803s78.964,6.58 78.964,6.58s86.641,29.612 78.964,-6.58z" fill="#FFD24F" id="svg_146"/>
      </g>
      <g stroke="null" id="svg_143">
       <ellipse stroke="null" cx="2276.866933" cy="1913.909178" rx="151.347" ry="55.933" fill="#FFBE1E" id="svg_144"/>
      </g>
      <g stroke="null" id="svg_141">
       <path stroke="null" d="m2187.817935,1954.406179c-9.864,-2.468 -16.326,2.805 -16.326,13.161c0,13.709 13.265,47.296 27.21,26.321s-10.884,-39.482 -10.884,-39.482z" fill="#FFE1B2" id="svg_142"/>
      </g>
      <g stroke="null" id="svg_139">
       <path stroke="null" d="m2364.240935,1954.406179c10.767,-2.468 17.821,2.805 17.821,13.161c0,13.709 -14.479,47.296 -29.701,26.321s11.88,-39.482 11.88,-39.482z" fill="#FFE1B2" id="svg_140"/>
      </g>
      <g stroke="null" id="svg_137">
       <path stroke="null" d="m2204.573935,2074.060179c14.716,-9.475 13.07,-37.675 13.07,-44.255l118.446,0c0,6.58 -1.825,34.78 12.89,44.255l-72.113,80.771l-72.293,-80.771z" fill="#FFD7A3" id="svg_138"/>
      </g>
      <g stroke="null" id="svg_135">
       <path stroke="null" d="m2322.928935,2102.189179l26.051,-28.129c-14.716,-9.474 -12.89,-37.675 -12.89,-44.255l-118.446,0c8.498,24.433 64.707,66.352 105.285,72.384z" fill="#FDC88E" id="svg_136"/>
      </g>
      <g stroke="null" id="svg_133">
       <path stroke="null" d="m2428.213935,2212.765179c10.903,0 19.741,-8.838 19.741,-19.741l0,-39.208c0,-28.954 -22.562,-59.864 -50.138,-68.687l-41.168,-13.173c-22.149,16.936 -53.802,40.039 -79.782,40.039s-57.633,-23.103 -79.782,-40.039l-41.168,13.173c-27.576,8.823 -50.138,39.733 -50.138,68.687l0,39.208c0,10.903 8.838,19.741 19.741,19.741l302.694,0z" fill="#FF6953" id="svg_134"/>
      </g>
      <g stroke="null" id="svg_131">
       <path stroke="null" d="m2447.525935,2197.095179l-10.215,0l0,-13.835l10.644,0l0,-10.074l-10.644,0l0,-13.835l10.644,0l0,-5.536c0,-1.508 -0.097,-3.023 -0.217,-4.538l-10.427,0l0,-13.834l7.738,0c-1.041,-3.417 -2.337,-6.785 -3.884,-10.074l-3.854,0l0,-7.216c-3.667,-6.106 -8.144,-11.757 -13.224,-16.693l-10.684,0l0,-8.691c-4.914,-3.274 -10.146,-5.9 -15.585,-7.641l-23.681,-7.578l-8.552,0l0,-2.737l-8.935,-2.859c-0.37,0.283 -0.763,0.58 -1.139,0.866l0,4.73l-6.266,0c-5.527,4.126 -11.465,8.395 -17.643,12.487l0,11.422l-13.835,0l0,-2.902c-11.606,6.535 -23.519,11.538 -34.666,12.975l0.684,0l0,13.835l-13.835,0l0,-13.835l0.684,0c-11.148,-1.437 -23.061,-6.441 -34.667,-12.976l0,2.902l-13.835,0l0,-11.422c-6.178,-4.092 -12.116,-8.361 -17.643,-12.487l-6.266,0l0,-4.73c-0.375,-0.286 -0.769,-0.583 -1.139,-0.866l-8.935,2.859l0,2.737l-8.552,0l-23.681,7.578c-5.439,1.74 -10.671,4.366 -15.585,7.641l0,8.691l-10.683,0c-5.08,4.936 -9.557,10.586 -13.224,16.693l0,7.216l-3.854,0c-1.546,3.289 -2.842,6.656 -3.884,10.074l7.738,0l0,13.835l-10.428,0c-0.12,1.515 -0.217,3.03 -0.217,4.538l0,5.536l10.644,0l0,13.835l-10.644,0l0,10.074l10.644,0l0,13.835l-10.214,0c0.822,3.915 2.811,7.388 5.577,10.074l4.637,0l0,3.278c2.734,1.431 5.797,2.318 9.097,2.318l0.978,0l0,-5.596l13.835,0l0,5.596l10.075,0l0,-5.596l13.833,0l0,5.596l10.074,0l0,-5.596l13.835,0l0,5.596l10.074,0l0,-5.596l13.835,0l0,5.596l10.074,0l0,-5.596l13.835,0l0,5.596l10.075,0l0,-5.596l13.835,0l0,5.596l10.074,0l0,-5.596l13.835,0l0,5.596l10.074,0l0,-5.596l13.835,0l0,5.596l10.074,0l0,-5.596l13.835,0l0,5.596l10.074,0l0,-5.596l13.835,0l0,5.596l10.074,0l0,-5.596l13.835,0l0,5.596l10.074,0l0,-5.596l13.835,0l0,5.596l10.075,0l0,-5.596l13.835,0l0,5.596l0.978,0c3.3,0 6.363,-0.887 9.097,-2.318l0,-3.278l4.637,0c2.76,-2.686 4.75,-6.159 5.572,-10.074zm-307.194,0l-13.835,0l0,-13.835l13.835,0l0,13.835zm0,-23.908l-13.835,0l0,-13.835l13.835,0l0,13.835zm0,-23.909l-13.835,0l0,-13.835l13.835,0l0,13.835zm0,-23.909l-13.835,0l0,-13.835l13.835,0l0,13.835zm23.909,71.726l-13.835,0l0,-13.835l13.835,0l0,13.835zm0,-23.908l-13.835,0l0,-13.835l13.835,0l0,13.835zm0,-23.909l-13.835,0l0,-13.835l13.835,0l0,13.835zm0,-23.909l-13.835,0l0,-13.835l13.835,0l0,13.835zm0,-23.909l-13.835,0l0,-13.835l13.835,0l0,13.835zm23.909,95.635l-13.835,0l0,-13.835l13.835,0l0,13.835zm0,-23.908l-13.835,0l0,-13.835l13.835,0l0,13.835zm0,-23.909l-13.835,0l0,-13.835l13.835,0l0,13.835zm0,-23.909l-13.835,0l0,-13.835l13.835,0l0,13.835zm0,-23.909l-13.835,0l0,-13.835l13.835,0l0,13.835zm23.908,95.635l-13.835,0l0,-13.835l13.835,0l0,13.835zm0,-23.908l-13.835,0l0,-13.835l13.835,0l0,13.835zm0,-23.909l-13.835,0l0,-13.835l13.835,0l0,13.835zm0,-23.909l-13.835,0l0,-13.835l13.835,0l0,13.835zm0,-23.909l-13.835,0l0,-13.835l13.835,0l0,13.835zm23.909,95.635l-13.835,0l0,-13.835l13.835,0l0,13.835zm0,-23.908l-13.835,0l0,-13.835l13.835,0l0,13.835zm0,-23.909l-13.835,0l0,-13.835l13.835,0l0,13.835zm0,-23.909l-13.835,0l0,-13.835l13.835,0l0,13.835zm23.909,71.726l-13.835,0l0,-13.835l13.835,0l0,13.835zm0,-23.908l-13.835,0l0,-13.835l13.835,0l0,13.835zm0,-23.909l-13.835,0l0,-13.835l13.835,0l0,13.835zm0,-23.909l-13.835,0l0,-13.835l13.835,0l0,13.835zm23.908,71.726l-13.835,0l0,-13.835l13.835,0l0,13.835zm0,-23.908l-13.835,0l0,-13.835l13.835,0l0,13.835zm0,-23.909l-13.835,0l0,-13.835l13.835,0l0,13.835zm23.909,47.817l-13.835,0l0,-13.835l13.835,0l0,13.835zm0,-23.908l-13.835,0l0,-13.835l13.835,0l0,13.835zm0,-23.909l-13.835,0l0,-13.835l13.835,0l0,13.835zm0,-23.909l-13.835,0l0,-13.835l13.835,0l0,13.835zm23.909,71.726l-13.835,0l0,-13.835l13.835,0l0,13.835zm0,-23.908l-13.835,0l0,-13.835l13.835,0l0,13.835zm0,-23.909l-13.835,0l0,-13.835l13.835,0l0,13.835zm0,-23.909l-13.835,0l0,-13.835l13.835,0l0,13.835zm23.909,71.726l-13.835,0l0,-13.835l13.835,0l0,13.835zm0,-23.908l-13.835,0l0,-13.835l13.835,0l0,13.835zm0,-23.909l-13.835,0l0,-13.835l13.835,0l0,13.835zm0,-23.909l-13.835,0l0,-13.835l13.835,0l0,13.835zm0,-23.909l-13.835,0l0,-13.835l13.835,0l0,13.835zm23.908,95.635l-13.835,0l0,-13.835l13.835,0l0,13.835zm0,-23.908l-13.835,0l0,-13.835l13.835,0l0,13.835zm0,-23.909l-13.835,0l0,-13.835l13.835,0l0,13.835zm0,-23.909l-13.835,0l0,-13.835l13.835,0l0,13.835zm0,-23.909l-13.835,0l0,-13.835l13.835,0l0,13.835zm23.909,95.635l-13.835,0l0,-13.835l13.835,0l0,13.835zm0,-23.908l-13.835,0l0,-13.835l13.835,0l0,13.835zm0,-23.909l-13.835,0l0,-13.835l13.835,0l0,13.835zm0,-23.909l-13.835,0l0,-13.835l13.835,0l0,13.835zm0,-23.909l-13.835,0l0,-13.835l13.835,0l0,13.835zm23.909,95.635l-13.835,0l0,-13.835l13.835,0l0,13.835zm0,-23.908l-13.835,0l0,-13.835l13.835,0l0,13.835zm0,-23.909l-13.835,0l0,-13.835l13.835,0l0,13.835zm0,-23.909l-13.835,0l0,-13.835l13.835,0l0,13.835z" fill="#E95F43" id="svg_132"/>
      </g>
      <g stroke="null" id="svg_129">
       <path stroke="null" d="m2276.866935,2111.994179l-27.456,27.456c-2.859,2.859 -7.596,2.487 -9.975,-0.783l-48.113,-66.156l15.326,-15.326c2.475,-2.475 6.454,-2.579 9.055,-0.238l61.163,55.047z" fill="#FFBE1E" id="svg_130"/>
      </g>
      <g stroke="null" id="svg_127">
       <path stroke="null" d="m2276.866935,2111.994179l27.456,27.456c2.859,2.859 7.596,2.487 9.975,-0.783l48.113,-66.156l-15.326,-15.326c-2.475,-2.475 -6.454,-2.579 -9.055,-0.238l-61.163,55.047z" fill="#FFBE1E" id="svg_128"/>
      </g>
      <g stroke="null" id="svg_125">
       <path stroke="null" d="m2188.845935,1909.910179c-1.539,9.309 -1.623,20.502 -1.623,33.803c0,52.696 29.526,118.446 89.645,118.446s89.645,-65.75 89.645,-118.446c0,-13.302 -0.084,-24.494 -1.623,-33.803c-24.117,-8.127 -54.708,-13 -88.021,-13s-63.907,4.872 -88.023,13z" fill="#FFE1B2" id="svg_126"/>
      </g>
      <g stroke="null" id="svg_123">
       <path stroke="null" d="m2366.848935,1920.555179c-5.267,-6.759 -10.916,-13.704 -10.916,-13.704l0,6.58c1.632,59.634 -19.588,85.544 -19.588,85.544l-27.038,3.027c-21.086,2.361 -42.366,2.361 -63.452,0l-27.038,-3.027c0,0 -21.22,-25.91 -19.588,-85.544l0,-6.58c0,0 -5.649,6.944 -10.916,13.704c-1.372,5.869 -3.571,12.25 -3.571,19.254c0,52.696 31.536,128.671 92.839,128.671s91.41,-75.975 91.41,-128.671c0.001,-7.004 -0.769,-13.385 -2.142,-19.254zm-108.856,94.049l39.176,0c5.371,0 9.976,3.273 11.982,7.944c-7.233,3.172 -18.335,5.216 -30.849,5.216c-13.213,0 -24.826,-2.284 -31.995,-5.765c2.126,-4.364 6.536,-7.395 11.686,-7.395z" fill="#A7795E" id="svg_124"/>
      </g>
      <g stroke="null" id="svg_121">
       <path stroke="null" d="m2280.362935,2008.750179c0,-8.689 -8.431,-10.656 -13.983,-8.55c-10.179,3.861 -21.386,14.632 -30.845,7.971c0,0 3.29,13.903 8.841,13.903c11.104,-0.001 35.987,1.448 35.987,-13.324z" fill="#543D38" id="svg_122"/>
      </g>
      <g stroke="null" id="svg_119">
       <path stroke="null" d="m2277.701935,2008.750179c0,-8.689 8.431,-10.656 13.983,-8.55c10.179,3.861 21.386,14.632 30.845,7.971c0,0 -3.29,13.903 -8.841,13.903c-11.104,-0.001 -35.987,1.448 -35.987,-13.324z" fill="#543D38" id="svg_120"/>
      </g>
      <g stroke="null" id="svg_117">
       <path stroke="null" d="m2388.732935,2081.364179l-26.321,-8.423l0,80.969c0,3.012 -1.999,5.675 -4.923,6.395c-22.275,5.486 -50.216,8.77 -80.621,8.77s-58.346,-3.284 -80.621,-8.77c-2.925,-0.72 -4.923,-3.383 -4.923,-6.395l0,-80.969l-26.321,8.423l0,131.401l223.731,0l0,-131.401l-0.001,0z" fill="#C55F54" id="svg_118"/>
      </g>
      <g stroke="null" id="svg_115">
       <path stroke="null" d="m2185.183935,1955.257179l17.769,3.276c0,0 6.939,-38.912 10.659,-55.078c-9.705,1.937 -18.858,4.267 -27.202,7.003c-1.582,9.309 -1.668,20.502 -1.668,33.803c0.001,3.612 0.157,7.288 0.442,10.996z" fill="#543D38" id="svg_116"/>
      </g>
      <g stroke="null" id="svg_113">
       <path stroke="null" d="m2368.549935,1955.257179l-17.769,3.276c0,0 -6.939,-38.912 -10.659,-55.078c9.705,1.937 18.858,4.267 27.202,7.003c1.582,9.309 1.668,20.502 1.668,33.803c0,3.612 -0.157,7.288 -0.442,10.996z" fill="#543D38" id="svg_114"/>
      </g>
      <g stroke="null" id="svg_111">
       <path stroke="null" d="m2315.526935,1919.530179l15.789,-17.973c-16.762,-2.964 -35.121,-4.647 -54.449,-4.647c-11.763,0 -23.16,0.637 -34.079,1.781c10.322,-0.706 50.941,4.764 72.739,20.839z" fill="#543D38" id="svg_112"/>
      </g>
     </g>
     <g stroke="null" id="svg_109" transform="matrix(0.724688990722112,0,0,0.724688990722112,-1398.2854478560055,-1075.4586792319876) "/>
     <g stroke="null" id="svg_108" transform="matrix(0.724688990722112,0,0,0.724688990722112,-1398.2854478560055,-1075.4586792319876) "/>
     <g stroke="null" id="svg_107" transform="matrix(0.724688990722112,0,0,0.724688990722112,-1398.2854478560055,-1075.4586792319876) "/>
     <g stroke="null" id="svg_106" transform="matrix(0.724688990722112,0,0,0.724688990722112,-1398.2854478560055,-1075.4586792319876) "/>
     <g stroke="null" id="svg_105" transform="matrix(0.724688990722112,0,0,0.724688990722112,-1398.2854478560055,-1075.4586792319876) "/>
     <g stroke="null" id="svg_104" transform="matrix(0.724688990722112,0,0,0.724688990722112,-1398.2854478560055,-1075.4586792319876) "/>
     <g stroke="null" id="svg_103" transform="matrix(0.724688990722112,0,0,0.724688990722112,-1398.2854478560055,-1075.4586792319876) "/>
     <g stroke="null" id="svg_102" transform="matrix(0.724688990722112,0,0,0.724688990722112,-1398.2854478560055,-1075.4586792319876) "/>
     <g stroke="null" id="svg_101" transform="matrix(0.724688990722112,0,0,0.724688990722112,-1398.2854478560055,-1075.4586792319876) "/>
     <g stroke="null" id="svg_100" transform="matrix(0.724688990722112,0,0,0.724688990722112,-1398.2854478560055,-1075.4586792319876) "/>
     <g stroke="null" id="svg_99" transform="matrix(0.724688990722112,0,0,0.724688990722112,-1398.2854478560055,-1075.4586792319876) "/>
     <g stroke="null" id="svg_98" transform="matrix(0.724688990722112,0,0,0.724688990722112,-1398.2854478560055,-1075.4586792319876) "/>
     <g stroke="null" id="svg_97" transform="matrix(0.724688990722112,0,0,0.724688990722112,-1398.2854478560055,-1075.4586792319876) "/>
     <g stroke="null" id="svg_96" transform="matrix(0.724688990722112,0,0,0.724688990722112,-1398.2854478560055,-1075.4586792319876) "/>
     <g stroke="null" id="svg_95" transform="matrix(0.724688990722112,0,0,0.724688990722112,-1398.2854478560055,-1075.4586792319876) "/>
    </g>
    <g stroke="null" id="svg_87">
     <path stroke="null" d="m596.880059,446.370005l-32.55822,-23.25246c-1.4118,-1.00844 -3.10337,-1.5506 -4.84047,-1.5506l-8.91756,-0.00217c-2.20988,0 -4.33083,0.88265 -5.89011,2.44192c-7.95467,7.95684 -18.53777,12.34189 -29.79099,12.34189c-11.25322,0 -21.83416,-4.38505 -29.791,-12.34189c-1.55927,-1.55927 -3.68023,-2.44192 -5.8901,-2.44192l-8.91756,0.00217c-1.73494,0 -3.42867,0.54216 -4.84047,1.5506l-32.55823,23.25246c-20.89511,14.92694 -33.36929,39.16831 -33.36929,64.84535l0,7.8766c0,4.59975 3.73011,8.32769 8.32769,8.32769l214.07792,0c4.59975,0 8.32769,-3.72794 8.32769,-8.32769l0,-7.8766c0,-25.67704 -12.47418,-49.91841 -33.3693,-64.84535zm0,0" fill="#c55f54" id="svg_93"/>
     <path stroke="null" d="m621.921669,527.419645c4.59975,0 8.32769,-3.72794 8.32769,-8.32769l0,-7.8766c0,-25.67704 -12.47418,-49.91841 -33.3693,-64.84535l-32.55605,-23.25246c-1.41397,-1.00844 -3.10553,-1.5506 -4.84047,-1.5506l-8.91973,-0.00217c-2.2077,0 -4.32867,0.88265 -5.89011,2.44192c-7.95467,7.95684 -18.53777,12.34189 -29.79099,12.34189l0,91.07106l107.03896,0zm0,0" fill="#c55f54" id="svg_92"/>
     <path stroke="null" d="m558.297279,483.413025c-4.59758,0 -8.32768,-3.73011 -8.32768,-8.32768l0,-53.52057c0,-4.59758 3.73011,-8.32769 8.32768,-8.32769c4.59974,0 8.32769,3.73011 8.32769,8.32769l0,53.52057c0,4.59974 -3.72795,8.32768 -8.32769,8.32768zm0,0" fill="#ecb402" id="svg_91"/>
     <path stroke="null" d="m471.468139,483.413025c-4.59975,0 -8.32769,-3.73011 -8.32769,-8.32768l0,-53.52057c0,-4.59758 3.72794,-8.32769 8.32769,-8.32769c4.59975,0 8.32768,3.73011 8.32768,8.32769l0,53.52057c0,4.59974 -3.72794,8.32768 -8.32768,8.32768zm0,0" fill="#ffe100" id="svg_90"/>
     <path stroke="null" d="m594.570419,527.419645l-159.37326,0l0,-26.16715c0,-14.45201 11.71514,-26.16716 26.16715,-26.16716l107.0368,0c14.452,0 26.16931,11.71515 26.16931,26.16716l0,26.16715zm0,0" fill="#ecb402" id="svg_89"/>
     <path stroke="null" d="m514.882709,475.085335l0,52.33431l79.68771,0l0,-26.16715c0,-14.45201 -11.71731,-26.16716 -26.16931,-26.16716l-53.5184,0zm0,0" fill="#bb8901" id="svg_88"/>
    </g>
    <g stroke="null" id="svg_81">
     <path stroke="null" d="m587.342919,440.649585c-27.25836,17.79979 -62.62627,10.59503 -92.29228,-2.78756c-13.1649,14.46545 -31.79303,20.6941 -51.25743,18.62254l0,-14.57173c0,-13.82589 8.07831,-25.77322 19.76926,-31.37163c-3.7385,-7.37444 -5.78488,-15.64434 -5.78488,-24.22609l0,-80.86237c0,-31.92169 25.88044,-57.80213 57.80213,-57.80213s57.80212,25.88044 57.80212,57.80213c0.00466,109.65016 -0.03263,108.59807 0.01398,108.59807c8.16735,6.10698 13.56066,15.71379 13.9471,26.59877z" fill="#ff6953" id="svg_86"/>
     <path stroke="null" d="m527.532169,289.198695c-7.69607,-0.67964 -15.69934,-0.72439 -23.90398,0c-19.39727,1.69957 -34.19648,17.91073 -34.19648,37.26372l0,15.40613c0,25.48887 20.6596,46.14847 46.14847,46.14847s46.14847,-20.6596 46.14847,-46.14847l0,-15.40613c-0.00046,-19.34134 -14.78942,-35.56369 -34.19648,-37.26372z" fill="#ffdfba" id="svg_85"/>
     <path stroke="null" d="m495.050639,437.862025c-2.47058,2.71297 -5.66368,5.72428 -9.7005,8.5398c-0.92437,-0.43398 -4.09789,-1.94709 -4.48899,-2.15359c-11.65692,-5.67347 -20.93323,-15.42478 -26.0296,-27.74036c2.57312,-2.40998 5.51451,-4.42839 8.73091,-5.96667c8.74864,17.27584 22.32002,23.17352 31.48818,27.32082z" fill="#e85e43" id="svg_84"/>
     <path stroke="null" d="m530.520629,261.608435c-27.64107,-0.33376 -54.11537,19.37164 -58.23237,50.01562c-0.06433,0.4792 -0.18739,0.95047 -0.3636,1.40077c-3.09008,7.91796 -2.49341,13.16117 -2.49341,28.84372c0,4.7519 0.716,9.33178 2.05244,13.6441c0.17853,0.57662 0.27829,1.17469 0.27829,1.77835c0,0.27456 -0.00047,43.07097 0.00093,43.34553c0.04242,6.76518 -9.45345,8.28808 -11.49284,1.83755c-1.63011,-5.15697 -2.49248,-10.5983 -2.49248,-16.15849l0,-80.19159c0,-37.20499 36.18739,-67.5884 74.52652,-56.01585c6.47803,1.95548 4.98217,11.58233 -1.78348,11.50029z" fill="#e95f43" id="svg_83"/>
     <path stroke="null" d="m503.960089,379.965745c-2.4123,3.59445 -6.685,4.38037 -9.92285,2.64211c-14.65797,-7.86854 -24.60133,-23.49143 -24.60553,-41.26605c-0.00466,-15.86296 -0.16781,-17.32199 0.59667,-21.54062c2.34005,-12.98683 11.40194,-23.72217 23.60098,-28.32816c-4.89453,5.17888 -8.30672,11.73802 -9.61659,19.00524c-0.76915,4.24613 -0.59667,5.62172 -0.59667,22.06736c0,15.63128 7.53712,28.82694 18.67848,37.06048c3.28446,2.42676 4.14124,6.96889 1.86551,10.35964z" fill="#ffebd2" id="svg_82"/>
    </g>
    <g stroke="null" id="svg_76">
     <path stroke="null" d="m539.113619,234.796175l-47.71967,0c-21.63609,0 -39.2385,17.6024 -39.2385,39.2385l0,7.42538c0,4.10136 3.32402,7.42538 7.42538,7.42538l111.34783,0c4.09943,0 7.42538,-3.32402 7.42538,-7.42538l0,-7.42538c0,-21.6361 -17.6024,-39.2385 -39.24042,-39.2385zm0,0" fill="#ffe100" id="svg_80"/>
     <path stroke="null" d="m578.354039,274.036605l0,7.42538c0,4.09943 -3.32595,7.42538 -7.42538,7.42538l-55.67488,0l0,-54.09119l23.85984,0c21.63802,0 39.24042,17.6024 39.24042,39.24043zm0,0" fill="#ecb402" id="svg_79"/>
     <path stroke="null" d="m618.659929,281.463915l-206.80263,0c-4.0975,0 -7.42538,3.33176 -7.42538,7.42925c0,13.46624 10.9157,24.38 24.37999,24.38l172.89341,0c13.4643,0 24.37999,-10.91376 24.37999,-24.38c0,-4.09749 -3.32595,-7.42925 -7.42538,-7.42925zm0,0" fill="#ecb402" id="svg_78"/>
     <path stroke="null" d="m626.085309,288.893165c0,13.4643 -10.91569,24.38 -24.37999,24.38l-86.45154,0l0,-31.81118l103.40615,0c4.09943,0 7.42538,3.33175 7.42538,7.43118zm0,0" fill="#bb8901" id="svg_77"/>
    </g>
   </g>
  </g>
 </g>
</svg>