<?xml version="1.0" encoding="UTF-8" standalone="no"?>
<svg
   xmlns:dc="http://purl.org/dc/elements/1.1/"
   xmlns:cc="http://creativecommons.org/ns#"
   xmlns:rdf="http://www.w3.org/1999/02/22-rdf-syntax-ns#"
   xmlns:svg="http://www.w3.org/2000/svg"
   xmlns="http://www.w3.org/2000/svg"
   xmlns:sodipodi="http://sodipodi.sourceforge.net/DTD/sodipodi-0.dtd"
   xmlns:inkscape="http://www.inkscape.org/namespaces/inkscape"
   inkscape:version="1.0 (4035a4f, 2020-05-01)"
   sodipodi:docname="LOC.svg"
   id="svg851"
   version="1.1"
   height="128"
   width="128">
  <metadata
     id="metadata857">
    <rdf:RDF>
      <cc:Work
         rdf:about="">
        <dc:format>image/svg+xml</dc:format>
        <dc:type
           rdf:resource="http://purl.org/dc/dcmitype/StillImage" />
      </cc:Work>
    </rdf:RDF>
  </metadata>
  <defs
     id="defs855" />
  <sodipodi:namedview
     inkscape:current-layer="g847"
     inkscape:window-maximized="0"
     inkscape:window-y="0"
     inkscape:window-x="0"
     inkscape:cy="33.692326"
     inkscape:cx="70.399825"
     inkscape:zoom="1.9113574"
     showgrid="false"
     id="namedview853"
     inkscape:window-height="768"
     inkscape:window-width="1366"
     inkscape:pageshadow="2"
     inkscape:pageopacity="0"
     guidetolerance="10"
     gridtolerance="10"
     objecttolerance="10"
     borderopacity="1"
     bordercolor="#666666"
     pagecolor="#ffffff" />
  <g
     id="g849"
     transform="translate(-512 21.5)">
    <g
       id="g847"
       transform="translate(516 -21.1)">
      <path
         sodipodi:nodetypes="ccccccscc"
         id="path833"
         style="fill:#035000;stroke-width:0.25"
         d="M 107,27.4 C 98.68,11.2 81.6,-0.3 62,-0.3 c -1.718237,9.5727612 0.266667,16.866667 0.4,25.3 13.9,9.98e-4 25.2,10.9 25.2,24.8 2.5e-4,13.7 -11.4,25.5 -25.2,25.5 -0.133333,17.466667 -2.589024,34.93333 -0.4,52.4 17.7,-18.4 38.4,-38.7 47.3,-62.9 4.45,-12.1 3.62,-26 -2.27,-37.5 z" />
      <path
         sodipodi:nodetypes="ccccccccc"
         id="path835"
         style="fill:#023c00;stroke-width:0.25"
         d="M 15.1,64.8 C 24,89 44.3,109.3 62,127.7 62,110.23333 62,92.766667 62,75.3 48.2,75.299 36.8,63.5 36.8,49.8 36.800249,35.9 48.1,25 62,25 V -0.3 C 42.4,-0.29925 25.7,11.2 17.4,27.4 11.51,38.9 10.68,52.8 15.13,64.9 Z" />
      <circle
         id="circle837"
         style="fill:#f0f0f0;stroke-width:.25"
         r="40"
         cy="49.4"
         cx="62" />
      <path
         id="path839"
         style="fill:#c8102e;stroke-width:.25"
         d="m75 39h-5.24c0.0432 0.575 0.0678 1.16 0.0678 1.74 0 3.87-0.967 7.62-2.65 10.3-0.52 0.824-1.39 1.99-2.57 2.77v-14.8h-5.22v14.8c-1.17-0.785-2.04-1.95-2.57-2.77-1.69-2.67-2.65-6.42-2.65-10.3 0-0.584 0.0246-1.16 0.0678-1.74h-5.24c-0.0335 0.572-0.0518 1.15-0.0518 1.74 0 10.7 5.73 19.1 13 19.1 7.32 0 13-8.41 13-19.1-7.53e-4 -0.587-0.019-1.17-0.0526-1.74z" />
      <path
         id="path841"
         style="fill:#009639;stroke-width:.25"
         d="m38.5 28.5h5.22v3.48h5.22v-3.48h5.22v3.48h5.22v-3.48h5.22v3.48h5.22v-3.48h5.22v3.48h5.22v-3.48h5.22v3.48h12.6c-6.47-13.4-20.2-22.6-36-22.6s-29.6 9.23-36 22.6h12.6z" />
      <path
         id="path843"
         style="fill:#c8102e;stroke-width:.25"
         d="m85.5 66.8v3.48h-5.22v-3.48h-5.22v3.48h-5.22v-3.48h-5.22v3.48h-5.22v-3.48h-5.22v3.48h-5.22v-3.48h-5.22v3.48h-5.22v-3.48h-12.6c6.47 13.4 20.2 22.6 36 22.6 15.9 0 29.6-9.23 36-22.6h-12.6v-2.5e-4z" />
      <path
         id="path845"
         style="fill:#045f00;stroke-width:.25"
         d="m62 5.11c-18.4 0-35.4 11.9-41.7 29.2-6.34 17.5-0.786 37.5 13.5 49.3 14.3 11.8 35.1 13.4 51 3.79 15.9-9.63 24.3-28.7 20.6-46.9-3.66-17.9-18.5-32-36.5-34.8-2.28-0.357-4.58-0.534-6.89-0.534m35.7 60.4c-7.56 16.8-26.4 26.2-44.4 22.1-13.8-3.16-25.1-13.9-29-27.6-3.94-13.9 0.332-29.2 10.9-39.1 11.4-10.7 28.6-13.6 42.8-7.2 17.1 7.69 26.5 27 21.9 45.2-0.566 2.25-1.34 4.43-2.28 6.55-0.522 1.16 0.386-0.862 0 0" />
    </g>
  </g>
</svg>
