<svg width="128" height="128" version="1.1" xmlns="http://www.w3.org/2000/svg"><g transform="translate(-512 21.5)"><g transform="translate(516 -21.1)"><path d="m107 27.4c-8.32-16.2-25-27.7-44.6-27.7v25.3c13.9 9.98e-4 25.2 10.9 25.2 24.8 2.5e-4 13.7-11.4 25.5-25.2 25.5v52.4c17.7-18.4 38-38.7 46.9-62.9 4.45-12.1 3.62-26-2.27-37.5z" style="fill:#035000;stroke-width:.25"/><path d="m15.1 64.8c8.9 24.2 29.2 44.5 46.9 62.9v-52.4c-13.8-1e-3 -25.2-11.8-25.2-25.5 2.49e-4 -13.9 11.3-24.8 25.2-24.8v-25.3c-19.6 7.5e-4 -36.3 11.5-44.6 27.7-5.89 11.5-6.72 25.4-2.27 37.5z" style="fill:#023c00;stroke-width:.25"/><circle cx="62" cy="49.4" r="40" style="fill:#f0f0f0;stroke-width:.25"/><path d="m75 39h-5.24c0.0432 0.575 0.0678 1.16 0.0678 1.74 0 3.87-0.967 7.62-2.65 10.3-0.52 0.824-1.39 1.99-2.57 2.77v-14.8h-5.22v14.8c-1.17-0.785-2.04-1.95-2.57-2.77-1.69-2.67-2.65-6.42-2.65-10.3 0-0.584 0.0246-1.16 0.0678-1.74h-5.24c-0.0335 0.572-0.0518 1.15-0.0518 1.74 0 10.7 5.73 19.1 13 19.1 7.32 0 13-8.41 13-19.1-7.53e-4 -0.587-0.019-1.17-0.0526-1.74z" style="fill:#c8102e;stroke-width:.25"/><path d="m38.5 28.5h5.22v3.48h5.22v-3.48h5.22v3.48h5.22v-3.48h5.22v3.48h5.22v-3.48h5.22v3.48h5.22v-3.48h5.22v3.48h12.6c-6.47-13.4-20.2-22.6-36-22.6s-29.6 9.23-36 22.6h12.6z" style="fill:#009639;stroke-width:.25"/><path d="m85.5 66.8v3.48h-5.22v-3.48h-5.22v3.48h-5.22v-3.48h-5.22v3.48h-5.22v-3.48h-5.22v3.48h-5.22v-3.48h-5.22v3.48h-5.22v-3.48h-12.6c6.47 13.4 20.2 22.6 36 22.6 15.9 0 29.6-9.23 36-22.6h-12.6v-2.5e-4z" style="fill:#c8102e;stroke-width:.25"/><path d="m62 5.11c-18.4 0-35.4 11.9-41.7 29.2-6.34 17.5-0.786 37.5 13.5 49.3 14.3 11.8 35.1 13.4 51 3.79 15.9-9.63 24.3-28.7 20.6-46.9-3.66-17.9-18.5-32-36.5-34.8-2.28-0.357-4.58-0.534-6.89-0.534m35.7 60.4c-7.56 16.8-26.4 26.2-44.4 22.1-13.8-3.16-25.1-13.9-29-27.6-3.94-13.9 0.332-29.2 10.9-39.1 11.4-10.7 28.6-13.6 42.8-7.2 17.1 7.69 26.5 27 21.9 45.2-0.566 2.25-1.34 4.43-2.28 6.55-0.522 1.16 0.386-0.862 0 0" style="fill:#045f00;stroke-width:.25"/></g></g></svg>
