<svg width="512" height="512" version="1.1" xmlns="http://www.w3.org/2000/svg" xmlns:xlink="http://www.w3.org/1999/xlink"><defs><linearGradient id="a" x1="10.6" x2="10.8" y1=".0687" y2="21.8" gradientTransform="matrix(23.4 0 0 23.4 5.12 37.6)" gradientUnits="userSpaceOnUse"><stop style="stop-color:#138e2a" offset="0"/><stop style="stop-color:#1e9939" offset=".22"/><stop style="stop-color:#f9f9f9" offset=".435"/><stop style="stop-color:#fff" offset=".46"/><stop style="stop-color:#f9f9f9" offset=".487"/><stop style="stop-color:#da0000" offset=".725"/><stop style="stop-color:#c10000" offset="1"/></linearGradient></defs><path d="m422 149c-50.9-40-99.5-40-149-3.3-50.9 37.7-142 7.97-153-52.9-4.73-27.7-12.4-24.3-28-12.6-21.9 16.4-42.1 23.2-61.2-3.51-5.25-7.26-11.1-6-18.2-0.797-6.91 5.11-8.67 10-6.65 18.1 8.76 35.4 13.8 72.5 43.2 98.7 7.26 6.37 10.9 15 5.98 20.9-32 38.7 0.586 56.5 24.6 75.6 13.6 10.8 22.8 19.7 24.7 39.4 1.17 11.9 5.23 40.4 24.3 36.4 40.8-8.53 47.3 20.4 64.5 44 23.1 31.7 58.3 57.9 96.4 55.9 31.1-1.55 52.6-22 76.5 22 12.8 23.7 64.4 13.4 98.3 20.3 21.9 4.48 9.33-23.7 21.7-30.6 2.06-1.2 4.01-2.69 5.93-4.08 9.42-6.72 17.9-33.9 16.2-44.8-1.5-9.72-7.19-12.9-14.3-18.1-21.8-15.7-47.6-31.5-16.7-62.4 6.07-6.07 8.88-19.1-0.797-21.4-33.8-7.64-18.3-35.7-24.3-54.4-8.55-27 14.5-49.3 15.5-82.8 6.19-28.9-29.1-26.5-45.9-39.8z" style="fill:url(#a)"/><g transform="matrix(.987 0 0 .987 -.0128 -.0128)"><title>background</title><rect id="canvas_background" x="-1" y="-1" width="514" height="514" fill="none"/><g id="canvasGrid" x="0" y="0" width="100%" height="100%" display="none" overflow="visible"><rect width="100%" height="100%" fill="url(#gridpattern)" stroke-width="0"/></g></g><g transform="matrix(1.13 0 0 1.13 -1669 -1716)" stroke="null"><title transform="translate(1471 1550)">background</title><rect x="1470" y="1549" width="514" height="402" fill="none"/><g display="none"><rect x="1471" y="1550" width="512" height="512" fill="url(#gridpattern)" stroke="null" stroke-width="0"/></g></g><g transform="matrix(27.2 0 0 27.2 514 -204)"><g transform="matrix(.916 0 0 .916 -26.2 -2.51)"><path d="m19 11c-2.76 0-5 2.27-5 5.06 0 3.85 4.33 7.6 4.51 7.76 0.141 0.118 0.314 0.179 0.488 0.179s0.347-0.061 0.488-0.18c0.184-0.158 4.51-3.9 4.51-7.76 0-2.79-2.24-5.06-5-5.06z" fill="#f44336" style="fill:#9a4121"/><path d="m19 18c-1.1 0-2-0.896-2-2 0-1.1 0.897-2 2-2s2 0.897 2 2c0 1.1-0.897 2-2 2z" fill="#fff"/><path d="m19 14c-1.1 0-2 0.897-2 2 0 1.1 0.897 2 2 2z" fill="#dedede"/><path d="m19 11c-2.76 0-5 2.27-5 5.06 0 3.85 4.33 7.6 4.51 7.76 0.141 0.118 0.314 0.179 0.488 0.179v-6c-1.1 0-2-0.896-2-2 0-1.1 0.897-2 2-2z" fill="#d43a2f" style="fill:#7e3a1a"/></g></g></svg>
