<?xml version="1.0" encoding="UTF-8" standalone="no"?>
<svg
   xmlns:dc="http://purl.org/dc/elements/1.1/"
   xmlns:cc="http://creativecommons.org/ns#"
   xmlns:rdf="http://www.w3.org/1999/02/22-rdf-syntax-ns#"
   xmlns:svg="http://www.w3.org/2000/svg"
   xmlns="http://www.w3.org/2000/svg"
   xmlns:sodipodi="http://sodipodi.sourceforge.net/DTD/sodipodi-0.dtd"
   xmlns:inkscape="http://www.inkscape.org/namespaces/inkscape"
   inkscape:version="1.0 (4035a4f, 2020-05-01)"
   sodipodi:docname="LOC.svg"
   id="svg882"
   version="1.1"
   height="512"
   width="512">
  <metadata
     id="metadata886">
    <rdf:RDF>
      <cc:Work
         rdf:about="">
        <dc:format>image/svg+xml</dc:format>
        <dc:type
           rdf:resource="http://purl.org/dc/dcmitype/StillImage" />
      </cc:Work>
    </rdf:RDF>
  </metadata>
  <sodipodi:namedview
     inkscape:current-layer="g1577"
     inkscape:window-maximized="0"
     inkscape:window-y="0"
     inkscape:window-x="0"
     inkscape:cy="487.13879"
     inkscape:cx="-559.62036"
     inkscape:zoom="0.13944615"
     showgrid="false"
     id="namedview884"
     inkscape:window-height="768"
     inkscape:window-width="1366"
     inkscape:pageshadow="2"
     inkscape:pageopacity="0"
     guidetolerance="10"
     gridtolerance="10"
     objecttolerance="10"
     borderopacity="1"
     bordercolor="#666666"
     pagecolor="#ffffff" />
  <defs
     id="defs848">
    <linearGradient
       gradientUnits="userSpaceOnUse"
       gradientTransform="matrix(23.4,0,0,23.4,912.73563,279.44967)"
       y2="21.8"
       y1=".0687"
       x2="10.8"
       x1="10.6"
       id="a">
      <stop
         id="stop833"
         offset="0"
         style="stop-color:#138e2a" />
      <stop
         id="stop835"
         offset=".22"
         style="stop-color:#1e9939" />
      <stop
         id="stop837"
         offset=".435"
         style="stop-color:#f9f9f9" />
      <stop
         id="stop839"
         offset=".46"
         style="stop-color:#fff" />
      <stop
         id="stop841"
         offset=".487"
         style="stop-color:#f9f9f9" />
      <stop
         id="stop843"
         offset=".725"
         style="stop-color:#da0000" />
      <stop
         id="stop845"
         offset="1"
         style="stop-color:#c10000" />
    </linearGradient>
  </defs>
  <g
     transform="translate(-511.86722,21.454336)"
     id="g1577">
    <g
       transform="translate(516.30829,-21.111479)"
       id="g1586">
      <path
         id="path1504"
         d="M 434.44,110.654 C 401.18,45.876 334.359,0.003 255.98,0 v 101.329 c 55.478,0.004 100.593,43.67 100.594,99.15 10e-4,54.805 -45.49,102.048 -100.594,102.052 V 512 C 326.625,438.383 407.933,357.458 443.509,260.572 461.297,212.121 457.979,156.5 434.44,110.654 Z"
         style="fill:#035000;fill-opacity:1" />
      <path
         id="path1506"
         d="M 68.492,260.572 C 104.066,357.458 185.374,438.383 256.02,512 V 302.531 C 200.916,302.527 155.425,255.284 155.426,200.479 155.427,145 200.542,101.333 256.02,101.329 V 0 C 177.641,0.003 110.82,45.876 77.56,110.654 54.021,156.5 50.703,212.121 68.492,260.572 Z"
         style="fill:#023c00;fill-opacity:1" />
      <circle
         id="circle1508"
         r="160"
         cy="198.77299"
         cx="256"
         style="fill:#f0f0f0" />
      <path
         id="path1510"
         d="m 307.967,157.034 h -20.933 c 0.173,2.3 0.271,4.621 0.271,6.956 0,15.477 -3.868,30.479 -10.612,41.158 -2.081,3.294 -5.577,7.946 -10.257,11.084 v -59.198 h -20.869 v 59.198 c -4.679,-3.137 -8.176,-7.79 -10.257,-11.084 -6.745,-10.679 -10.612,-25.681 -10.612,-41.158 0,-2.335 0.098,-4.656 0.271,-6.956 h -20.933 c -0.134,2.289 -0.207,4.608 -0.207,6.956 0,42.911 22.917,76.523 52.174,76.523 29.257,0 52.174,-33.613 52.174,-76.523 -0.003,-2.348 -0.076,-4.667 -0.21,-6.956 z"
         style="fill:#c8102e;fill-opacity:1" />
      <path
         id="path1512"
         d="m 162.086,115.294 h 20.87 v 13.913 h 20.869 v -13.913 h 20.869 v 13.913 h 20.869 v -13.913 h 20.869 v 13.913 h 20.869 v -13.913 h 20.869 v 13.913 h 20.869 v -13.913 h 20.869 v 13.913 h 50.21 C 374.243,75.687 319.434,38.773 256,38.773 c -63.434,0 -118.243,36.914 -144.124,90.433 h 50.21 z"
         style="fill:#009639;fill-opacity:1" />
      <path
         id="path1514"
         d="M 349.913,268.337 V 282.25 H 329.044 V 268.337 H 308.175 V 282.25 H 287.306 V 268.337 H 266.437 V 282.25 H 245.568 V 268.337 H 224.699 V 282.25 H 203.83 v -13.913 h -20.869 v 13.913 h -20.87 v -13.913 h -50.21 c 25.879,53.519 80.689,90.436 144.123,90.436 63.434,0 118.243,-36.916 144.124,-90.435 h -50.211 v -0.001 z"
         style="fill:#c8102e;fill-opacity:1" />
      <path
         id="path1516"
         d="m 255.928,21.707 c -73.745,0 -141.451,47.552 -166.61,116.806 -25.343,69.773 -3.142,149.836 53.974,197.071 57.236,47.338 140.369,53.625 203.978,15.148 63.626,-38.49 97.228,-114.681 82.271,-187.573 C 414.888,91.771 355.517,35.121 283.472,23.843 274.361,22.416 265.141,21.707 255.928,21.707 M 398.59,263.184 C 368.349,330.193 292.858,367.986 221.111,351.583 165.896,338.962 120.727,295.819 105.333,241.388 89.584,185.73 106.661,124.584 148.75,84.963 194.284,42.096 262.922,30.392 320.071,56.164 c 68.228,30.767 105.971,108.144 87.651,180.844 -2.263,8.978 -5.352,17.731 -9.132,26.176 -2.088,4.626 1.542,-3.445 0,0"
         style="fill:#045f00;fill-opacity:1" />
    </g>
    <g
       id="g1518">
</g>
    <g
       id="g1520">
</g>
    <g
       id="g1522">
</g>
    <g
       id="g1524">
</g>
    <g
       id="g1526">
</g>
    <g
       id="g1528">
</g>
    <g
       id="g1530">
</g>
    <g
       id="g1532">
</g>
    <g
       id="g1534">
</g>
    <g
       id="g1536">
</g>
    <g
       id="g1538">
</g>
    <g
       id="g1540">
</g>
    <g
       id="g1542">
</g>
    <g
       id="g1544">
</g>
    <g
       id="g1546">
</g>
  </g>
</svg>
