<?xml version="1.0" encoding="UTF-8" standalone="no"?>
<svg
   xmlns:dc="http://purl.org/dc/elements/1.1/"
   xmlns:cc="http://creativecommons.org/ns#"
   xmlns:rdf="http://www.w3.org/1999/02/22-rdf-syntax-ns#"
   xmlns:svg="http://www.w3.org/2000/svg"
   xmlns="http://www.w3.org/2000/svg"
   xmlns:sodipodi="http://sodipodi.sourceforge.net/DTD/sodipodi-0.dtd"
   xmlns:inkscape="http://www.inkscape.org/namespaces/inkscape"
   inkscape:version="1.0 (4035a4f, 2020-05-01)"
   sodipodi:docname="card mellii.svg"
   id="svg906"
   version="1.1"
   height="512"
   width="512">
  <metadata
     id="metadata912">
    <rdf:RDF>
      <cc:Work
         rdf:about="">
        <dc:format>image/svg+xml</dc:format>
        <dc:type
           rdf:resource="http://purl.org/dc/dcmitype/StillImage" />
        <dc:title></dc:title>
      </cc:Work>
    </rdf:RDF>
  </metadata>
  <defs
     id="defs910" />
  <sodipodi:namedview
     inkscape:current-layer="svg906"
     inkscape:window-maximized="0"
     inkscape:window-y="0"
     inkscape:window-x="0"
     inkscape:cy="256.29111"
     inkscape:cx="481.37043"
     inkscape:zoom="0.9689649"
     showgrid="false"
     id="namedview908"
     inkscape:window-height="768"
     inkscape:window-width="1366"
     inkscape:pageshadow="2"
     inkscape:pageopacity="0"
     guidetolerance="10"
     gridtolerance="10"
     objecttolerance="10"
     borderopacity="1"
     bordercolor="#666666"
     pagecolor="#ffffff" />
  <!-- Created with Method Draw - http://github.com/duopixel/Method-Draw/ -->
  <g
     transform="matrix(1.0099595,0,0,1.0099595,-1.9745479,48.613064)"
     id="g904">
    <title
       id="title841">Layer 1</title>
    <!-- Created with Method Draw - http://github.com/duopixel/Method-Draw/ -->
    <g
       id="svg_113"
       stroke="null">
      <g
         id="svg_110"
         transform="matrix(1.0079983,0,0,1.0079983,-351.95462,-682.45014)"
         stroke="null">
        <title
           id="title843"
           transform="translate(0,-3.9682607650756836) translate(0,10.91271686553955) translate(0,-0.9920651912689209) translate(0,-0.9920651912689209) translate(0,-0.9920651912689209) translate(0,-0.9920651912689209) translate(0,-0.9920651912689209) translate(0,9.92065143585205) translate(0,-9.92065143585205) translate(0,-9.92065143585205) translate(0,-9.92065143585205) translate(0,-9.92065143585205) translate(0,-9.92065143585205) translate(0,-9.92065143585205) translate(0,-9.92065143585205) translate(0,-9.92065143585205) translate(0,-9.92065143585205) translate(0,-9.92065143585205) translate(0,-9.92065143585205) translate(0,-9.92065143585205) translate(0,-9.92065143585205) translate(-0.9920651912689209,1.1368683772161603e-13) translate(-0.9939836263656616,12.92178726196289) translate(-51.38731002807617,41.10984802246094) translate(-1646.9998779296875,-1367.9998779296875) translate(2047.9998779296875,0) translate(0,2047.9998779296875) "
           stroke="null">background</title>
        <rect
           fill="none"
           id="svg_108"
           height="514"
           width="514"
           y="615.96796"
           x="346.62665"
           stroke="null" />
        <g
           display="none"
           id="svg_107"
           stroke="null">
          <rect
             fill="url(#gridpattern)"
             stroke-width="0"
             y="616.96796"
             x="347.62665"
             height="512"
             width="512"
             id="svg_111"
             stroke="null" />
        </g>
      </g>
      <g
         id="svg_112"
         transform="matrix(1.0079983,0,0,1.0079983,-351.95462,-682.45014)"
         stroke="null">
        <title
           id="title849"
           transform="translate(0,-3.9682607650756836) translate(0,10.91271686553955) translate(0,-0.9920651912689209) translate(0,-0.9920651912689209) translate(0,-0.9920651912689209) translate(0,-0.9920651912689209) translate(0,-0.9920651912689209) translate(0,9.92065143585205) translate(0,-9.92065143585205) translate(0,-9.92065143585205) translate(0,-9.92065143585205) translate(0,-9.92065143585205) translate(0,-9.92065143585205) translate(0,-9.92065143585205) translate(0,-9.92065143585205) translate(0,-9.92065143585205) translate(0,-9.92065143585205) translate(0,-9.92065143585205) translate(0,-9.92065143585205) translate(0,-9.92065143585205) translate(0,-9.92065143585205) translate(-0.9920651912689209,1.1368683772161603e-13) translate(-0.9939836263656616,12.92178726196289) translate(-51.38731002807617,41.10984802246094) translate(-1646.9998779296875,-1367.9998779296875) translate(2047.9998779296875,0) translate(0,2047.9998779296875) "
           stroke="null">Layer 1</title>
        <g
           id="svg_81"
           stroke="null">
          <g
             transform="matrix(0.96688621,0,0,0.96688621,-1580.7173,-1836.7942)"
             id="svg_82"
             stroke="null">
            <g
               id="svg_104"
               stroke="null">
              <g
                 id="svg_105"
                 stroke="null">
                <path
                   id="svg_106"
                   fill="#7dd5f4"
                   d="m 2470.1935,3001.0829 h -422 c -24.813,0 -45,-20.187 -45,-45 v -300 c 0,-24.813 20.187,-45 45,-45 h 422 c 24.813,0 45,20.187 45,45 v 300 c 0,24.813 -20.187,45 -45,45 z"
                   stroke="null" />
              </g>
            </g>
            <path
               id="svg_103"
               fill="#4793ff"
               d="m 2470.1935,2611.0829 h -210.075 v 390 h 210.075 c 24.813,0 45,-20.187 45,-45 v -300 c 0,-24.813 -20.187,-45 -45,-45 z"
               stroke="null" />
            <g
               id="svg_93"
               stroke="null">
              <g
                 id="svg_101"
                 stroke="null">
                <path
                   id="svg_102"
                   fill="#001737"
                   d="m 2448.6565,2760.0829 h -122 c -8.284,0 -15,-6.716 -15,-15 0,-8.284 6.716,-15 15,-15 h 122 c 8.284,0 15,6.716 15,15 0,8.284 -6.716,15 -15,15 z"
                   stroke="null" />
              </g>
              <g
                 id="svg_98"
                 stroke="null">
                <path
                   id="svg_100"
                   fill="#001737"
                   d="m 2451.6313,2819.6872 h -122 c -8.284,0 -15,-6.716 -15,-15 0,-8.284 6.716,-15 15,-15 h 122 c 8.284,0 15,6.716 15,15 0,8.284 -6.716,15 -15,15 z"
                   stroke="null" />
                <path
                   id="svg_99"
                   fill="#001737"
                   d="m 2266.4462,2701.0059 h -122 c -8.284,0 -15,-6.716 -15,-15 0,-8.284 6.716,-15 15,-15 h 122 c 8.284,0 15,6.716 15,15 0,8.284 -6.716,15 -15,15 z"
                   stroke="null" />
              </g>
              <g
                 id="svg_96"
                 stroke="null">
                <path
                   id="svg_97"
                   fill="#001737"
                   d="m 2400.6565,2880.0839 h -74 c -8.284,0 -15,-6.716 -15,-15 0,-8.284 6.716,-15 15,-15 h 74 c 8.284,0 15,6.716 15,15 0,8.284 -6.716,15 -15,15 z"
                   stroke="null" />
              </g>
              <g
                 id="svg_94"
                 stroke="null">
                <path
                   id="svg_95"
                   fill="#001737"
                   d="m 2448.5365,2941.0839 h -41.88 c -8.284,0 -15,-6.716 -15,-15 0,-8.284 6.716,-15 15,-15 h 41.88 c 8.284,0 15,6.716 15,15 0,8.284 -6.716,15 -15,15 z"
                   stroke="null" />
              </g>
            </g>
            <g
               id="svg_90"
               stroke="null">
              <g
                 id="svg_92"
                 stroke="null" />
              <g
                 id="svg_91"
                 stroke="null" />
            </g>
            <g
               id="svg_86"
               stroke="null">
              <g
                 id="svg_87"
                 stroke="null">
                <g
                   id="svg_88"
                   stroke="null">
                  <path
                     id="svg_89"
                     fill="#ffffff"
                     d="m 2221.1935,2941.0829 h -180 c -8.284,0 -15,-6.716 -15,-15 v -180 c 0,-8.284 6.716,-15 15,-15 h 180 c 8.284,0 15,6.716 15,15 v 180 c 0,8.284 -6.716,15 -15,15 z"
                     stroke="null" />
                </g>
              </g>
            </g>
            <g
               id="svg_85"
               stroke="null" />
            <g
               id="svg_84"
               stroke="null" />
            <path
               id="svg_83"
               fill="#001737"
               d="m 2440.2345,2671.0829 h -180.116 v 30 h 180.116 c 8.284,0 15,-6.716 15,-15 0,-8.284 -6.716,-15 -15,-15 z"
               stroke="null" />
          </g>
        </g>
        <g
           id="svg_76"
           stroke="null">
          <path
             id="svg_80"
             fill="#666666"
             d="m 525.95805,857.94313 c 0,12.98755 -4.65756,24.22946 -13.8454,33.41881 -9.18785,9.18784 -20.43126,13.8454 -33.41881,13.8454 h -0.0225 c -12.97108,-0.004 -24.207,-4.66205 -33.39485,-13.8454 -9.18935,-9.18935 -13.8454,-20.43126 -13.8454,-33.41881 0,-12.98305 4.65605,-24.22645 13.8454,-33.4143 9.18336,-9.18486 20.41927,-13.84091 33.39485,-13.84541 h 0.0225 c 12.98306,0 24.22646,4.65756 33.41881,13.84541 9.18784,9.18785 13.8454,20.43125 13.8454,33.4143 z m 0,0"
             stroke="null" />
          <path
             id="svg_79"
             fill="#666666"
             d="m 561.79171,973.16628 c 0,10.24632 -3.25924,18.54188 -9.67891,24.65165 -6.34481,6.03787 -14.73619,9.09647 -24.93909,9.09647 h -94.48648 c -10.2029,0 -18.59428,-3.0586 -24.9346,-9.09647 -6.42416,-6.11426 -9.67891,-14.40832 -9.67891,-24.65165 0,-3.94043 0.13025,-7.83894 0.39075,-11.58773 0.26499,-3.83264 0.80096,-8.00363 1.59144,-12.40368 0.79647,-4.43597 1.82051,-8.62942 3.04665,-12.46206 1.27256,-3.96737 2.99425,-7.88086 5.12466,-11.62966 2.21275,-3.89102 4.81175,-7.28051 7.72516,-10.07115 3.05413,-2.92089 6.78796,-5.26688 11.10416,-6.9766 4.30124,-1.70073 9.06958,-2.56307 14.17178,-2.56307 2.00165,0 3.94043,0.81893 7.67725,3.25325 2.33851,1.52557 5.03333,3.26223 8.00812,5.16358 2.56906,1.63786 6.04838,3.1739 10.34961,4.56174 3.78024,1.22315 7.61737,1.90584 11.40809,2.02411 0.41769,0.015 0.83539,0.0225 1.25309,0.0225 4.20991,0 8.46773,-0.69018 12.66567,-2.04657 4.30123,-1.38784 7.78504,-2.92389 10.35261,-4.56174 3.00622,-1.92081 5.70105,-3.65598 8.00512,-5.15909 3.73982,-2.43881 5.6756,-3.25774 7.68174,-3.25774 5.09771,0 9.86605,0.86234 14.17028,2.56307 4.31621,1.70972 8.05004,4.06021 11.10117,6.9766 2.9179,2.79064 5.51691,6.18013 7.72816,10.07116 2.1319,3.75179 3.85659,7.66228 5.12466,11.62516 1.22764,3.83713 2.25466,8.03058 3.05113,12.46955 0.78599,4.40454 1.32346,8.57552 1.58695,12.39768 0.265,3.73683 0.39525,7.63533 0.39974,11.59073 z m 0,0"
             stroke="null" />
          <path
             id="svg_78"
             fill="#4c4c4c"
             d="m 478.69384,905.20734 h -0.0225 v -94.52392 h 0.0225 c 12.98306,0 24.22646,4.65756 33.41881,13.84541 9.18784,9.18785 13.8454,20.43125 13.8454,33.4143 0,12.98755 -4.65756,24.22946 -13.8454,33.41881 -9.18785,9.18784 -20.43126,13.8454 -33.41881,13.8454 z m 0,0"
             stroke="null" />
          <path
             id="svg_77"
             fill="#4c4c4c"
             d="m 561.79171,973.16628 c 0,10.24632 -3.25924,18.54188 -9.67891,24.65165 -6.34481,6.03787 -14.73619,9.09647 -24.93909,9.09647 H 478.67139 V 920.475 c 0.4177,0.015 0.83539,0.0225 1.25309,0.0225 4.20992,0 8.46773,-0.69017 12.66567,-2.04657 4.30124,-1.38783 7.78505,-2.92388 10.35261,-4.56173 3.00623,-1.92081 5.70105,-3.65598 8.00512,-5.15909 3.73982,-2.43882 5.6756,-3.25774 7.68175,-3.25774 5.0977,0 9.86604,0.86234 14.17027,2.56307 4.31621,1.70972 8.05004,4.0602 11.10118,6.9766 2.91789,2.79064 5.5169,6.18013 7.72815,10.07115 2.1319,3.75179 3.85659,7.66228 5.12466,11.62517 1.22764,3.83713 2.25467,8.03057 3.05113,12.46955 0.786,4.40454 1.32346,8.57552 1.58696,12.39768 0.26499,3.73682 0.39524,7.63533 0.39973,11.59073 z m 0,0"
             stroke="null" />
        </g>
        <g
           id="svg_56"
           stroke="null">
          <circle
             transform="matrix(0.14254015,0,0,0.14254015,-10.059161,-24.924607)"
             id="svg_75"
             fill="#f0f0f0"
             r="256"
             cy="5407.8545"
             cx="3006.7937"
             stroke="null" />
          <path
             id="svg_74"
             fill="#d80027"
             d="m 430.38147,736.39251 h -4.77424 c 0.0395,0.52469 0.0619,1.05408 0.0619,1.58647 0,3.52986 -0.88232,6.95126 -2.42047,9.3867 -0.47452,0.75118 -1.27189,1.81197 -2.33923,2.52752 v -13.50083 h -4.75956 v 13.50083 c -1.0672,-0.71555 -1.86471,-1.77619 -2.33922,-2.52752 -1.5383,-2.43544 -2.42048,-5.85683 -2.42048,-9.3867 0,-0.53239 0.0225,-1.06192 0.0619,-1.58647 h -4.77424 c -0.0306,0.52212 -0.0473,1.05095 -0.0473,1.58647 0,9.78624 5.22666,17.4519 11.89897,17.4519 6.67231,0 11.89897,-7.66566 11.89897,-17.4519 2.8e-4,-0.53552 -0.0164,-1.06435 -0.0469,-1.58647 z"
             stroke="null" />
          <path
             id="svg_73"
             fill="#6da544"
             d="m 397.11146,726.87339 h 4.75955 v 3.17309 h 4.75956 v -3.17309 h 4.75956 v 3.17309 h 4.75956 v -3.17309 h 4.75956 v 3.17309 h 4.75955 v -3.17309 h 4.75956 v 3.17309 h 4.75956 v -3.17309 h 4.75956 v 3.17309 h 11.45125 c -5.90188,-12.20586 -18.40222,-20.62499 -32.86905,-20.62499 -14.46683,0 -26.96717,8.41913 -32.86947,20.62499 h 11.45124 v -3.17309 z"
             stroke="null" />
          <path
             id="svg_72"
             fill="#d80027"
             d="m 439.94791,761.77706 v 3.17308 h -4.75956 v -3.17308 h -4.75956 v 3.17308 h -4.75956 v -3.17308 h -4.75955 v 3.17308 h -4.75956 v -3.17308 h -4.75956 v 3.17308 H 406.631 v -3.17308 h -4.75998 v 3.17308 h -4.75956 v -3.17308 h -11.45125 c 5.9023,12.20585 18.4025,20.62499 32.86947,20.62499 14.46697,0 26.96718,-8.41914 32.86948,-20.62499 z"
             stroke="null" />
          <g
             transform="matrix(0.14254015,0,0,0.14254015,-10.059161,-24.924607)"
             id="svg_71"
             stroke="null" />
          <g
             transform="matrix(0.14254015,0,0,0.14254015,-10.059161,-24.924607)"
             id="svg_70"
             stroke="null" />
          <g
             transform="matrix(0.14254015,0,0,0.14254015,-10.059161,-24.924607)"
             id="svg_69"
             stroke="null" />
          <g
             transform="matrix(0.14254015,0,0,0.14254015,-10.059161,-24.924607)"
             id="svg_68"
             stroke="null" />
          <g
             transform="matrix(0.14254015,0,0,0.14254015,-10.059161,-24.924607)"
             id="svg_67"
             stroke="null" />
          <g
             transform="matrix(0.14254015,0,0,0.14254015,-10.059161,-24.924607)"
             id="svg_66"
             stroke="null" />
          <g
             transform="matrix(0.14254015,0,0,0.14254015,-10.059161,-24.924607)"
             id="svg_65"
             stroke="null" />
          <g
             transform="matrix(0.14254015,0,0,0.14254015,-10.059161,-24.924607)"
             id="svg_64"
             stroke="null" />
          <g
             transform="matrix(0.14254015,0,0,0.14254015,-10.059161,-24.924607)"
             id="svg_63"
             stroke="null" />
          <g
             transform="matrix(0.14254015,0,0,0.14254015,-10.059161,-24.924607)"
             id="svg_62"
             stroke="null" />
          <g
             transform="matrix(0.14254015,0,0,0.14254015,-10.059161,-24.924607)"
             id="svg_61"
             stroke="null" />
          <g
             transform="matrix(0.14254015,0,0,0.14254015,-10.059161,-24.924607)"
             id="svg_60"
             stroke="null" />
          <g
             transform="matrix(0.14254015,0,0,0.14254015,-10.059161,-24.924607)"
             id="svg_59"
             stroke="null" />
          <g
             transform="matrix(0.14254015,0,0,0.14254015,-10.059161,-24.924607)"
             id="svg_58"
             stroke="null" />
          <g
             transform="matrix(0.14254015,0,0,0.14254015,-10.059161,-24.924607)"
             id="svg_57"
             stroke="null" />
        </g>
      </g>
    </g>
  </g>
</svg>
