<svg width="512" height="512" version="1.1" xmlns="http://www.w3.org/2000/svg"><g transform="matrix(1.01 0 0 1.01 -1.97 48.6)"><title>Layer 1</title><g stroke="null"><g transform="matrix(1.01 0 0 1.01 -352 -682)"><title transform="translate(348 617)">background</title><rect x="347" y="616" width="514" height="514" fill="none"/><g display="none"><rect x="348" y="617" width="512" height="512" fill="url(#gridpattern)" stroke="null" stroke-width="0"/></g></g><g transform="matrix(1.01 0 0 1.01 -352 -682)"><title transform="translate(348 617)">Layer 1</title><g transform="matrix(.967 0 0 .967 -1581 -1837)" stroke="null"><g stroke="null"><path d="m2470 3e3h-422c-24.8 0-45-20.2-45-45v-300c0-24.8 20.2-45 45-45h422c24.8 0 45 20.2 45 45v300c0 24.8-20.2 45-45 45z" fill="#7dd5f4" stroke="null"/></g><path d="m2470 2611h-210v390h210c24.8 0 45-20.2 45-45v-300c0-24.8-20.2-45-45-45z" fill="#4793ff"/><path d="m2449 2760h-122c-8.28 0-15-6.72-15-15s6.72-15 15-15h122c8.28 0 15 6.72 15 15s-6.72 15-15 15z" fill="#001737" stroke="null"/><g fill="#001737"><path d="m2452 2820h-122c-8.28 0-15-6.72-15-15s6.72-15 15-15h122c8.28 0 15 6.72 15 15s-6.72 15-15 15z"/><path d="m2266 2701h-122c-8.28 0-15-6.72-15-15s6.72-15 15-15h122c8.28 0 15 6.72 15 15s-6.72 15-15 15z"/></g><path d="m2401 2880h-74c-8.28 0-15-6.72-15-15s6.72-15 15-15h74c8.28 0 15 6.72 15 15s-6.72 15-15 15z" fill="#001737" stroke="null"/><path d="m2449 2941h-41.9c-8.28 0-15-6.72-15-15s6.72-15 15-15h41.9c8.28 0 15 6.72 15 15s-6.72 15-15 15z" fill="#001737" stroke="null"/><g stroke="null"><g stroke="null"><path d="m2221 2941h-180c-8.28 0-15-6.72-15-15v-180c0-8.28 6.72-15 15-15h180c8.28 0 15 6.72 15 15v180c0 8.28-6.72 15-15 15z" fill="#fff" stroke="null"/></g></g><path d="m2440 2671h-180v30h180c8.28 0 15-6.72 15-15s-6.72-15-15-15z" fill="#001737"/></g><path d="m526 858c0 13-4.66 24.2-13.8 33.4-9.19 9.19-20.4 13.8-33.4 13.8h-0.0225c-13-4e-3 -24.2-4.66-33.4-13.8-9.19-9.19-13.8-20.4-13.8-33.4 0-13 4.66-24.2 13.8-33.4 9.18-9.18 20.4-13.8 33.4-13.8h0.0225c13 0 24.2 4.66 33.4 13.8 9.19 9.19 13.8 20.4 13.8 33.4z" fill="#666"/><path d="m562 973c0 10.2-3.26 18.5-9.68 24.7-6.34 6.04-14.7 9.1-24.9 9.1h-94.5c-10.2 0-18.6-3.06-24.9-9.1-6.42-6.11-9.68-14.4-9.68-24.7 0-3.94 0.13-7.84 0.391-11.6 0.265-3.83 0.801-8 1.59-12.4 0.796-4.44 1.82-8.63 3.05-12.5 1.27-3.97 2.99-7.88 5.12-11.6 2.21-3.89 4.81-7.28 7.73-10.1 3.05-2.92 6.79-5.27 11.1-6.98 4.3-1.7 9.07-2.56 14.2-2.56 2 0 3.94 0.819 7.68 3.25 2.34 1.53 5.03 3.26 8.01 5.16 2.57 1.64 6.05 3.17 10.3 4.56 3.78 1.22 7.62 1.91 11.4 2.02 0.418 0.015 0.835 0.0225 1.25 0.0225 4.21 0 8.47-0.69 12.7-2.05 4.3-1.39 7.79-2.92 10.4-4.56 3.01-1.92 5.7-3.66 8.01-5.16 3.74-2.44 5.68-3.26 7.68-3.26 5.1 0 9.87 0.862 14.2 2.56 4.32 1.71 8.05 4.06 11.1 6.98 2.92 2.79 5.52 6.18 7.73 10.1 2.13 3.75 3.86 7.66 5.12 11.6 1.23 3.84 2.25 8.03 3.05 12.5 0.786 4.4 1.32 8.58 1.59 12.4 0.265 3.74 0.395 7.64 0.4 11.6z" fill="#666"/><path d="m479 905h-0.0225v-94.5h0.0225c13 0 24.2 4.66 33.4 13.8 9.19 9.19 13.8 20.4 13.8 33.4 0 13-4.66 24.2-13.8 33.4-9.19 9.19-20.4 13.8-33.4 13.8z" fill="#4c4c4c"/><path d="m562 973c0 10.2-3.26 18.5-9.68 24.7-6.34 6.04-14.7 9.1-24.9 9.1h-48.5v-86.4c0.418 0.015 0.835 0.0225 1.25 0.0225 4.21 0 8.47-0.69 12.7-2.05 4.3-1.39 7.79-2.92 10.4-4.56 3.01-1.92 5.7-3.66 8.01-5.16 3.74-2.44 5.68-3.26 7.68-3.26 5.1 0 9.87 0.862 14.2 2.56 4.32 1.71 8.05 4.06 11.1 6.98 2.92 2.79 5.52 6.18 7.73 10.1 2.13 3.75 3.86 7.66 5.12 11.6 1.23 3.84 2.25 8.03 3.05 12.5 0.786 4.4 1.32 8.58 1.59 12.4 0.265 3.74 0.395 7.64 0.4 11.6z" fill="#4c4c4c"/><circle transform="matrix(.143 0 0 .143 -10.1 -24.9)" cx="3007" cy="5408" r="256" fill="#f0f0f0"/><path d="m430 736h-4.77c0.0395 0.525 0.0619 1.05 0.0619 1.59 0 3.53-0.882 6.95-2.42 9.39-0.475 0.751-1.27 1.81-2.34 2.53v-13.5h-4.76v13.5c-1.07-0.716-1.86-1.78-2.34-2.53-1.54-2.44-2.42-5.86-2.42-9.39 0-0.532 0.0225-1.06 0.0619-1.59h-4.77c-0.0306 0.522-0.0473 1.05-0.0473 1.59 0 9.79 5.23 17.5 11.9 17.5s11.9-7.67 11.9-17.5c2.8e-4 -0.536-0.0164-1.06-0.0469-1.59z" fill="#d80027"/><path d="m397 727h4.76v3.17h4.76v-3.17h4.76v3.17h4.76v-3.17h4.76v3.17h4.76v-3.17h4.76v3.17h4.76v-3.17h4.76v3.17h11.5c-5.9-12.2-18.4-20.6-32.9-20.6s-27 8.42-32.9 20.6h11.5v-3.17z" fill="#6da544"/><path d="m440 762v3.17h-4.76v-3.17h-4.76v3.17h-4.76v-3.17h-4.76v3.17h-4.76v-3.17h-4.76v3.17h-4.76v-3.17h-4.76v3.17h-4.76v-3.17h-11.5c5.9 12.2 18.4 20.6 32.9 20.6s27-8.42 32.9-20.6z" fill="#d80027"/></g></g></g></svg>
