<?xml version="1.0" encoding="UTF-8" standalone="no"?>
<svg
   xmlns:dc="http://purl.org/dc/elements/1.1/"
   xmlns:cc="http://creativecommons.org/ns#"
   xmlns:rdf="http://www.w3.org/1999/02/22-rdf-syntax-ns#"
   xmlns:svg="http://www.w3.org/2000/svg"
   xmlns="http://www.w3.org/2000/svg"
   xmlns:sodipodi="http://sodipodi.sourceforge.net/DTD/sodipodi-0.dtd"
   xmlns:inkscape="http://www.inkscape.org/namespaces/inkscape"
   inkscape:version="1.0 (4035a4f, 2020-05-01)"
   sodipodi:docname="NN.svg"
   id="svg873"
   version="1.1"
   height="128"
   width="128">
  <metadata
     id="metadata879">
    <rdf:RDF>
      <cc:Work
         rdf:about="">
        <dc:format>image/svg+xml</dc:format>
        <dc:type
           rdf:resource="http://purl.org/dc/dcmitype/StillImage" />
        <dc:title></dc:title>
      </cc:Work>
    </rdf:RDF>
  </metadata>
  <defs
     id="defs877">
    <clipPath
       id="clipPath1108"
       clipPathUnits="userSpaceOnUse">
      <rect
         y="-168.96622"
         x="-755.59283"
         height="647.9505"
         width="775.29974"
         id="rect1110"
         style="opacity:1;fill:#cccccc;fill-opacity:1;stroke-width:11.4002;stroke-linecap:round;stroke-linejoin:round;paint-order:markers fill stroke" />
    </clipPath>
    <clipPath
       id="clipPath1112"
       clipPathUnits="userSpaceOnUse">
      <rect
         y="-168.96622"
         x="-755.59283"
         height="647.9505"
         width="775.29974"
         id="rect1114"
         style="opacity:1;fill:#cccccc;fill-opacity:1;stroke-width:11.4002;stroke-linecap:round;stroke-linejoin:round;paint-order:markers fill stroke" />
    </clipPath>
    <clipPath
       id="clipPath1116"
       clipPathUnits="userSpaceOnUse">
      <rect
         y="12.981631"
         x="68.631767"
         height="17.980186"
         width="21.51404"
         id="rect1118"
         style="opacity:1;fill:#cccccc;fill-opacity:1;stroke-width:0.316348;stroke-linecap:round;stroke-linejoin:round;paint-order:markers fill stroke" />
    </clipPath>
    <clipPath
       id="clipPath1120"
       clipPathUnits="userSpaceOnUse">
      <rect
         y="12.981631"
         x="68.631767"
         height="17.980186"
         width="21.51404"
         id="rect1122"
         style="opacity:1;fill:#cccccc;fill-opacity:1;stroke-width:0.316348;stroke-linecap:round;stroke-linejoin:round;paint-order:markers fill stroke" />
    </clipPath>
    <clipPath
       id="clipPath1124"
       clipPathUnits="userSpaceOnUse">
      <rect
         y="12.981631"
         x="68.631767"
         height="17.980186"
         width="21.51404"
         id="rect1126"
         style="opacity:1;fill:#cccccc;fill-opacity:1;stroke-width:0.316348;stroke-linecap:round;stroke-linejoin:round;paint-order:markers fill stroke" />
    </clipPath>
    <clipPath
       id="clipPath1128"
       clipPathUnits="userSpaceOnUse">
      <rect
         y="12.981631"
         x="68.631767"
         height="17.980186"
         width="21.51404"
         id="rect1130"
         style="opacity:1;fill:#cccccc;fill-opacity:1;stroke-width:0.316348;stroke-linecap:round;stroke-linejoin:round;paint-order:markers fill stroke" />
    </clipPath>
    <clipPath
       id="clipPath1132"
       clipPathUnits="userSpaceOnUse">
      <rect
         y="12.981631"
         x="68.631767"
         height="17.980186"
         width="21.51404"
         id="rect1134"
         style="opacity:1;fill:#cccccc;fill-opacity:1;stroke-width:0.316348;stroke-linecap:round;stroke-linejoin:round;paint-order:markers fill stroke" />
    </clipPath>
    <clipPath
       id="clipPath1136"
       clipPathUnits="userSpaceOnUse">
      <rect
         y="12.981631"
         x="68.631767"
         height="17.980186"
         width="21.51404"
         id="rect1138"
         style="opacity:1;fill:#cccccc;fill-opacity:1;stroke-width:0.316348;stroke-linecap:round;stroke-linejoin:round;paint-order:markers fill stroke" />
    </clipPath>
    <clipPath
       id="clipPath1140"
       clipPathUnits="userSpaceOnUse">
      <rect
         y="12.981631"
         x="68.631767"
         height="17.980186"
         width="21.51404"
         id="rect1142"
         style="opacity:1;fill:#cccccc;fill-opacity:1;stroke-width:0.316348;stroke-linecap:round;stroke-linejoin:round;paint-order:markers fill stroke" />
    </clipPath>
    <clipPath
       id="clipPath1144"
       clipPathUnits="userSpaceOnUse">
      <rect
         y="12.981631"
         x="68.631767"
         height="17.980186"
         width="21.51404"
         id="rect1146"
         style="opacity:1;fill:#cccccc;fill-opacity:1;stroke-width:0.316348;stroke-linecap:round;stroke-linejoin:round;paint-order:markers fill stroke" />
    </clipPath>
    <clipPath
       id="clipPath1148"
       clipPathUnits="userSpaceOnUse">
      <rect
         y="12.981631"
         x="68.631767"
         height="17.980186"
         width="21.51404"
         id="rect1150"
         style="opacity:1;fill:#cccccc;fill-opacity:1;stroke-width:0.316348;stroke-linecap:round;stroke-linejoin:round;paint-order:markers fill stroke" />
    </clipPath>
    <clipPath
       id="clipPath1152"
       clipPathUnits="userSpaceOnUse">
      <rect
         y="12.981631"
         x="68.631767"
         height="17.980186"
         width="21.51404"
         id="rect1154"
         style="opacity:1;fill:#cccccc;fill-opacity:1;stroke-width:0.316348;stroke-linecap:round;stroke-linejoin:round;paint-order:markers fill stroke" />
    </clipPath>
    <clipPath
       id="clipPath1156"
       clipPathUnits="userSpaceOnUse">
      <rect
         y="12.981631"
         x="68.631767"
         height="17.980186"
         width="21.51404"
         id="rect1158"
         style="opacity:1;fill:#cccccc;fill-opacity:1;stroke-width:0.316348;stroke-linecap:round;stroke-linejoin:round;paint-order:markers fill stroke" />
    </clipPath>
    <clipPath
       id="clipPath1160"
       clipPathUnits="userSpaceOnUse">
      <rect
         y="12.981631"
         x="68.631767"
         height="17.980186"
         width="21.51404"
         id="rect1162"
         style="opacity:1;fill:#cccccc;fill-opacity:1;stroke-width:0.316348;stroke-linecap:round;stroke-linejoin:round;paint-order:markers fill stroke" />
    </clipPath>
  </defs>
  <sodipodi:namedview
     inkscape:current-layer="g969"
     inkscape:window-maximized="0"
     inkscape:window-y="0"
     inkscape:window-x="0"
     inkscape:cy="71.383306"
     inkscape:cx="15.996356"
     inkscape:zoom="1.8503563"
     inkscape:showpageshadow="false"
     showgrid="false"
     id="namedview875"
     inkscape:window-height="768"
     inkscape:window-width="1366"
     inkscape:pageshadow="2"
     inkscape:pageopacity="0"
     guidetolerance="10"
     gridtolerance="10"
     objecttolerance="10"
     borderopacity="1"
     bordercolor="#666666"
     pagecolor="#ffffff" />
  <g
     id="g871">
    <title
       id="title841">Layer 1</title>
    <g
       id="g869"
       stroke="null">
      <g
         id="g851"
         transform="matrix(1.01,0,0,1.01,-75.9,-25.1)">
        <title
           id="title843"
           transform="translate(73.7 -34.1)">background</title>
        <rect
           id="rect845"
           fill="none"
           height="514"
           width="514"
           y="-35.099998"
           x="72.699997" />
        <g
           id="g849"
           display="none">
          <rect
             id="rect847"
             stroke-width="0"
             stroke="null"
             fill="url(#gridpattern)"
             height="512"
             width="512"
             y="-34.099998"
             x="73.699997" />
        </g>
      </g>
      <g
         id="g867"
         transform="matrix(1.01,0,0,1.01,-75.9,-25.1)">
        <title
           id="title853"
           transform="translate(73.7 -34.1)">Layer 1</title>
        <g
           transform="matrix(7.9207921,0,0,7.9207921,-488.32282,-93.690582)"
           id="g969">
          <g
             id="g1023"
             stroke="null"
             transform="matrix(0.02774932,0,0,0.02774932,73.556792,17.283771)">
            <title
               id="title993">Layer 1</title>
            <g
               transform="translate(578.11009,13.930364)"
               id="g1092">
              <g
                 id="g1166" />
            </g>
          </g>
          <g
             id="g1214">
            <path
               transform="matrix(0.02774932,0,0,0.02774932,89.598953,17.670329)"
               clip-path="url(#clipPath1112)"
               id="path995"
               fill="#5f99d7"
               d="m -178.10091,679.09542 c 0,38.32196 -31.08635,69.40831 -69.40831,69.40831 H -503.4356 c -38.32196,0 -69.40831,-31.08635 -69.40831,-69.40831 V 149.82358 c 0,-38.32196 31.08635,-69.408308 69.40831,-69.408308 h 255.92638 c 38.32196,0 69.40831,31.086348 69.40831,69.408308 z"
               style="stroke-width:1.33993;fill:#cba677;fill-opacity:1" />
            <path
               transform="matrix(0.02774932,0,0,0.02774932,89.598953,17.670329)"
               clip-path="url(#clipPath1108)"
               id="path999"
               fill="#dff6fd"
               d="m -218.29877,679.09542 c 0,16.07915 -13.06431,29.21045 -29.21045,29.21045 H -503.4356 c -16.07914,0 -29.21044,-13.06431 -29.21044,-29.21045 V 149.82358 c 0,-16.07914 13.0643,-29.21045 29.21044,-29.21045 h 16.61511 c 3.59101,0 6.80684,2.22429 8.06637,5.58751 l 3.95279,10.51844 c 4.35477,11.60378 15.40918,19.29497 27.87052,19.29497 h 143.37237 c 12.38095,0 23.44876,-7.67779 27.87052,-19.29497 l 3.95279,-10.51844 c 1.26221,-3.36322 4.47536,-5.58751 8.06637,-5.58751 h 16.61512 c 16.07914,0 29.21044,13.06431 29.21044,29.21045 v 529.27184 z"
               style="stroke-width:1.33993;fill:#cba677;fill-opacity:1" />
            <g
               id="layer1"
               inkscape:label="Layer 1"
               transform="matrix(0.06582462,0,0,0.06582462,57.8306,23.865288)">
              <path
                 id="path11271"
                 style="fill:none;fill-opacity:1;stroke:#035000;stroke-width:6.77213;stroke-miterlimit:4;stroke-dasharray:none;stroke-opacity:1"
                 d="m 324.61897,-1.3304576 c 19.57615,-0.1659908 40.11434,9.8540425 48.69,28.0823506 7.00804,14.305031 3.4648,32.370783 -7.5473,43.658916 -3.1393,2.37221 -5.64645,5.655979 -4.92225,9.770982 -0.16649,3.530422 0.35085,7.158952 -0.29211,10.622028 -4.18244,3.633501 -9.60387,-2.662057 -14.197,-3.61113 -4.70398,-3.225711 -9.9899,-0.611585 -15.04408,-0.189607 -20.59603,2.432491 -43.36454,-6.421323 -53.9629,-24.868838 -8.02833,-13.595907 -6.27032,-31.859053 3.85648,-43.913343 10.34698,-12.9443511 27.08365,-19.6023861 43.41916,-19.5513586 z" />
              <g
                 id="g11279"
                 transform="matrix(0.82933445,0,0,0.82933445,77.313115,-24.227263)">
                <g
                   style="font-style:normal;font-variant:normal;font-weight:normal;font-stretch:normal;font-size:35.2511px;line-height:1.45;font-family:Aviny;-inkscape-font-specification:Aviny;text-align:end;text-anchor:end;white-space:pre;shape-inside:url(#rect3271);fill:#035000;fill-opacity:1;stroke:#035000;stroke-width:0.425717;stroke-miterlimit:4;stroke-dasharray:none;stroke-opacity:1"
                   id="g11275"
                   transform="matrix(2.6001613,0,0,2.6001613,9046.603,-3001.8834)"
                   aria-label="пе"
                   inkscape:export-xdpi="91.790001"
                   inkscape:export-ydpi="91.790001">
                  <path
                     d="m -3349.2946,1180.9828 c 0.4071,3.1453 -1.4939,6.1785 -4.1099,7.7976 -4.1083,2.7756 -9.2568,3.3485 -14.0975,3.1924 -4.2287,-0.2299 -8.7035,-1.5956 -11.5241,-4.9229 -1.5656,-1.8972 -1.9308,-4.7815 -0.5234,-6.8688 1.8649,-2.8974 5.3879,-3.9804 8.6029,-4.5352 2.806,-0.4702 5.7391,-0.4354 8.4696,0.4222 0.8829,1.201 -1.6956,1.1788 -2.4838,1.2608 -3.6275,0.3927 -7.5363,0.6461 -10.5839,2.8799 -1.4265,1.0153 -1.6883,3.1803 -0.3319,4.3747 2.0672,2.3021 5.3586,2.6569 8.2657,2.9018 4.1678,0.2862 8.527,-0.1002 12.3093,-1.9894 1.5201,-0.8492 2.7558,-2.4729 2.5731,-4.2876 0.1226,-1.232 1.6798,-2.5128 2.8189,-1.6203 0.4019,0.348 0.5359,0.8917 0.615,1.3948 z"
                     style="font-style:normal;font-variant:normal;font-weight:normal;font-stretch:normal;font-size:35.2511px;font-family:Aviny;-inkscape-font-specification:Aviny;fill:#035000;fill-opacity:1;stroke:#035000;stroke-width:0.549587;stroke-miterlimit:4;stroke-dasharray:none;stroke-opacity:1"
                     id="path11273" />
                </g>
                <path
                   id="path11277"
                   style="fill:#035000;fill-opacity:1;stroke:none;stroke-width:1.99257;stroke-linecap:round;stroke-linejoin:round;stroke-miterlimit:4;stroke-dasharray:none;stroke-opacity:1;paint-order:markers fill stroke"
                   d="m 306.12885,110.25678 a 9.413273,9.413273 0 0 1 -9.40789,9.41421 9.413273,9.413273 0 0 1 -9.42365,-9.41421 9.413273,9.413273 0 0 1 9.42365,-9.41263 9.413273,9.413273 0 0 1 9.40789,9.41263 z"
                   inkscape:export-xdpi="91.790001"
                   inkscape:export-ydpi="91.790001" />
              </g>
            </g>
            <path
               id="path881"
               fill="#bce4f8"
               d="m 76.192302,14.970657 h 6.026 v 2.781231 h -6.026 z"
               style="fill:#f3ba00;fill-opacity:1;stroke-width:0.231769"
               clip-path="url(#clipPath1160)" />
            <path
               id="path883"
               fill="#e4f5fd"
               d="m 76.192302,14.970657 v 2.317693 h 4.867154 a 0.69530772,0.69530772 0 0 0 0.695307,-0.695308 v -1.622385 z"
               style="fill:#ffc300;fill-opacity:1;stroke-width:0.231769"
               clip-path="url(#clipPath1156)" />
            <path
               id="path901"
               fill="#896f65"
               d="m 83.608917,18.678965 h -8.807231 l -2.549462,2.317693 h 13.906155 z"
               style="fill:#035000;fill-opacity:1;stroke-width:0.231769"
               clip-path="url(#clipPath1152)" />
            <path
               id="path903"
               fill="#594139"
               d="m 77.814686,20.996658 v 0.463538 a 1.3906155,1.3906155 0 0 0 2.781231,0 v -0.463538 z"
               style="fill:#034300;fill-opacity:1;stroke-width:0.231769"
               clip-path="url(#clipPath1148)" />
            <path
               id="path905"
               fill="#4b352f"
               d="m 75.033455,20.996658 v 0.463538 a 1.3906155,1.3906155 0 0 0 2.781231,0 v -0.463538 z"
               style="fill:#022e00;fill-opacity:1;stroke-width:0.231769"
               clip-path="url(#clipPath1144)" />
            <path
               id="path907"
               fill="#594139"
               d="m 72.252224,20.996658 v 0.463538 a 1.3906155,1.3906155 0 0 0 2.781231,0 v -0.463538 z"
               style="fill:#034300;fill-opacity:1;stroke-width:0.231769"
               clip-path="url(#clipPath1140)" />
            <path
               id="path909"
               fill="#594139"
               d="m 83.377148,20.996658 v 0.463538 a 1.3906155,1.3906155 0 0 0 2.781231,0 v -0.463538 z"
               style="fill:#034300;fill-opacity:1;stroke-width:0.231769"
               clip-path="url(#clipPath1136)" />
            <path
               id="path911"
               fill="#4b352f"
               d="m 80.595917,20.996658 v 0.463538 a 1.3906155,1.3906155 0 0 0 2.781231,0 v -0.463538 z"
               style="fill:#022e00;fill-opacity:1;stroke-width:0.231769"
               clip-path="url(#clipPath1132)" />
            <path
               id="path913"
               fill="#594139"
               d="m 77.119147,18.678965 -2.085692,2.317693 h 2.781231 l 0.927077,-2.317693 z"
               style="fill:#023b00;fill-opacity:1;stroke-width:0.231769"
               clip-path="url(#clipPath1128)" />
            <path
               id="path915"
               fill="#594139"
               d="M 81.291457,18.678965 H 79.66884 l 0.927077,2.317693 h 2.781231 z"
               style="fill:#023b00;fill-opacity:1;stroke-width:0.231769"
               clip-path="url(#clipPath1124)" />
            <path
               id="path917"
               fill="#cccccc"
               d="m 76.424071,17.751888 h 0.463538 v 0.927077 h -0.463538 z"
               style="fill:#666666;stroke-width:0.231769"
               clip-path="url(#clipPath1120)" />
            <path
               id="path919"
               fill="#cccccc"
               d="m 81.522994,17.751888 h 0.463539 v 0.927077 h -0.463539 z"
               style="fill:#666666;stroke-width:0.231769"
               clip-path="url(#clipPath1116)" />
          </g>
        </g>
      </g>
    </g>
  </g>
</svg>
