<?xml version="1.0" encoding="UTF-8" standalone="no"?>
<svg
   xmlns:dc="http://purl.org/dc/elements/1.1/"
   xmlns:cc="http://creativecommons.org/ns#"
   xmlns:rdf="http://www.w3.org/1999/02/22-rdf-syntax-ns#"
   xmlns:svg="http://www.w3.org/2000/svg"
   xmlns="http://www.w3.org/2000/svg"
   xmlns:sodipodi="http://sodipodi.sourceforge.net/DTD/sodipodi-0.dtd"
   xmlns:inkscape="http://www.inkscape.org/namespaces/inkscape"
   inkscape:version="1.0 (4035a4f, 2020-05-01)"
   sodipodi:docname="NN.svg"
   id="svg945"
   version="1.1"
   height="128"
   width="128">
  <metadata
     id="metadata949">
    <rdf:RDF>
      <cc:Work
         rdf:about="">
        <dc:format>image/svg+xml</dc:format>
        <dc:type
           rdf:resource="http://purl.org/dc/dcmitype/StillImage" />
      </cc:Work>
    </rdf:RDF>
  </metadata>
  <sodipodi:namedview
     inkscape:current-layer="svg945"
     inkscape:window-maximized="0"
     inkscape:window-y="0"
     inkscape:window-x="0"
     inkscape:cy="160.18068"
     inkscape:cx="221.72001"
     inkscape:zoom="0.57400252"
     showgrid="false"
     id="namedview947"
     inkscape:window-height="768"
     inkscape:window-width="1366"
     inkscape:pageshadow="2"
     inkscape:pageopacity="0"
     guidetolerance="10"
     gridtolerance="10"
     objecttolerance="10"
     borderopacity="1"
     bordercolor="#666666"
     pagecolor="#ffffff" />
  <defs
     id="defs875">
    <clipPath
       id="clipPath1108">
      <rect
         id="rect833"
         style="fill:#ccc;paint-order:markers fill stroke;stroke-linecap:round;stroke-linejoin:round;stroke-width:11.4"
         height="648"
         width="775"
         y="-169"
         x="-756" />
    </clipPath>
    <clipPath
       id="clipPath1112">
      <rect
         id="rect836"
         style="fill:#ccc;paint-order:markers fill stroke;stroke-linecap:round;stroke-linejoin:round;stroke-width:11.4"
         height="648"
         width="775"
         y="-169"
         x="-756" />
    </clipPath>
    <clipPath
       id="clipPath1116">
      <rect
         id="rect839"
         style="fill:#ccc;paint-order:markers fill stroke;stroke-linecap:round;stroke-linejoin:round;stroke-width:.316"
         height="18"
         width="21.5"
         y="13"
         x="68.6" />
    </clipPath>
    <clipPath
       id="clipPath1120">
      <rect
         id="rect842"
         style="fill:#ccc;paint-order:markers fill stroke;stroke-linecap:round;stroke-linejoin:round;stroke-width:.316"
         height="18"
         width="21.5"
         y="13"
         x="68.6" />
    </clipPath>
    <clipPath
       id="clipPath1124">
      <rect
         id="rect845"
         style="fill:#ccc;paint-order:markers fill stroke;stroke-linecap:round;stroke-linejoin:round;stroke-width:.316"
         height="18"
         width="21.5"
         y="13"
         x="68.6" />
    </clipPath>
    <clipPath
       id="clipPath1128">
      <rect
         id="rect848"
         style="fill:#ccc;paint-order:markers fill stroke;stroke-linecap:round;stroke-linejoin:round;stroke-width:.316"
         height="18"
         width="21.5"
         y="13"
         x="68.6" />
    </clipPath>
    <clipPath
       id="clipPath1132">
      <rect
         id="rect851"
         style="fill:#ccc;paint-order:markers fill stroke;stroke-linecap:round;stroke-linejoin:round;stroke-width:.316"
         height="18"
         width="21.5"
         y="13"
         x="68.6" />
    </clipPath>
    <clipPath
       id="clipPath1136">
      <rect
         id="rect854"
         style="fill:#ccc;paint-order:markers fill stroke;stroke-linecap:round;stroke-linejoin:round;stroke-width:.316"
         height="18"
         width="21.5"
         y="13"
         x="68.6" />
    </clipPath>
    <clipPath
       id="clipPath1140">
      <rect
         id="rect857"
         style="fill:#ccc;paint-order:markers fill stroke;stroke-linecap:round;stroke-linejoin:round;stroke-width:.316"
         height="18"
         width="21.5"
         y="13"
         x="68.6" />
    </clipPath>
    <clipPath
       id="clipPath1144">
      <rect
         id="rect860"
         style="fill:#ccc;paint-order:markers fill stroke;stroke-linecap:round;stroke-linejoin:round;stroke-width:.316"
         height="18"
         width="21.5"
         y="13"
         x="68.6" />
    </clipPath>
    <clipPath
       id="clipPath1148">
      <rect
         id="rect863"
         style="fill:#ccc;paint-order:markers fill stroke;stroke-linecap:round;stroke-linejoin:round;stroke-width:.316"
         height="18"
         width="21.5"
         y="13"
         x="68.6" />
    </clipPath>
    <clipPath
       id="clipPath1152">
      <rect
         id="rect866"
         style="fill:#ccc;paint-order:markers fill stroke;stroke-linecap:round;stroke-linejoin:round;stroke-width:.316"
         height="18"
         width="21.5"
         y="13"
         x="68.6" />
    </clipPath>
    <clipPath
       id="clipPath1156">
      <rect
         id="rect869"
         style="fill:#ccc;paint-order:markers fill stroke;stroke-linecap:round;stroke-linejoin:round;stroke-width:.316"
         height="18"
         width="21.5"
         y="13"
         x="68.6" />
    </clipPath>
    <clipPath
       id="clipPath1160">
      <rect
         id="rect872"
         style="fill:#ccc;paint-order:markers fill stroke;stroke-linecap:round;stroke-linejoin:round;stroke-width:.316"
         height="18"
         width="21.5"
         y="13"
         x="68.6" />
    </clipPath>
  </defs>
  <g
     id="g939"
     transform="matrix(1.01,0,0,1.01,-75.9,-25.1)">
    <title
       id="title889"
       transform="translate(73.7 -34.1)">Layer 1</title>
    <g
       id="g937"
       transform="matrix(7.92,0,0,7.92,-488,-93.7)">
      <g
         id="g895"
         stroke="null"
         transform="matrix(0.0277,0,0,0.0277,73.6,17.3)">
        <title
           id="title891">Layer 1</title>
        <g
           id="g893"
           transform="translate(578,13.9)" />
      </g>
      <path
         id="path897"
         style="fill:#cba677;stroke-width:1.34"
         fill="#5f99d7"
         clip-path="url(#clipPath1112)"
         d="m -178,679 c 0,38.3 -31.1,69.4 -69.4,69.4 h -256 c -38.3,0 -69.4,-31.1 -69.4,-69.4 V 150 c 0,-38.3 31.1,-69.4 69.4,-69.4 h 256 c 38.3,0 69.4,31.1 69.4,69.4 z"
         transform="matrix(0.0277,0,0,0.0277,89.6,17.7)" />
      <path
         id="path899"
         style="fill:#cba677;stroke-width:1.34"
         fill="#dff6fd"
         clip-path="url(#clipPath1108)"
         d="m -218,679 c 0,16.1 -13.1,29.2 -29.2,29.2 h -256 c -16.1,0 -29.2,-13.1 -29.2,-29.2 V 150 c 0,-16.1 13.1,-29.2 29.2,-29.2 h 16.6 c 3.59,0 6.81,2.22 8.07,5.59 l 3.95,10.5 c 4.35,11.6 15.4,19.3 27.9,19.3 h 143 c 12.4,0 23.4,-7.68 27.9,-19.3 l 3.95,-10.5 c 1.26,-3.36 4.48,-5.59 8.07,-5.59 h 16.6 c 16.1,0 29.2,13.1 29.2,29.2 v 529 z"
         transform="matrix(0.0277,0,0,0.0277,89.6,17.7)" />
      <g
         id="g911"
         transform="matrix(0.0658,0,0,0.0658,57.8,23.9)">
        <path
           id="path901"
           style="fill:none;stroke:#035000;stroke-width:6.77"
           d="m 325,-1.33 c 19.6,-0.166 40.1,9.85 48.7,28.1 7.01,14.3 3.46,32.4 -7.55,43.7 -3.14,2.37 -5.65,5.66 -4.92,9.77 -0.166,3.53 0.351,7.16 -0.292,10.6 -4.18,3.63 -9.6,-2.66 -14.2,-3.61 -4.7,-3.23 -9.99,-0.612 -15,-0.19 -20.6,2.43 -43.4,-6.42 -54,-24.9 -8.03,-13.6 -6.27,-31.9 3.86,-43.9 10.3,-12.9 27.1,-19.6 43.4,-19.6 z" />
        <g
           id="g909"
           transform="matrix(0.829,0,0,0.829,77.3,-24.2)">
          <g
             id="g905"
             aria-label="пе"
             style="white-space:pre;shape-inside:url(#rect3271);fill:#035000;stroke:#035000;stroke-width:0.426"
             transform="matrix(2.6,0,0,2.6,9047,-3000)">
            <path
               id="path903"
               style="fill:#035000;stroke:#035000;stroke-width:0.55"
               d="m -3349,1181 c 0.407,3.15 -1.49,6.18 -4.11,7.8 -4.11,2.78 -9.26,3.35 -14.1,3.19 -4.23,-0.23 -8.7,-1.6 -11.5,-4.92 -1.57,-1.9 -1.93,-4.78 -0.523,-6.87 1.86,-2.9 5.39,-3.98 8.6,-4.54 2.81,-0.47 5.74,-0.435 8.47,0.422 0.883,1.2 -1.7,1.18 -2.48,1.26 -3.63,0.393 -7.54,0.646 -10.6,2.88 -1.43,1.02 -1.69,3.18 -0.332,4.37 2.07,2.3 5.36,2.66 8.27,2.9 4.17,0.286 8.53,-0.1 12.3,-1.99 1.52,-0.849 2.76,-2.47 2.57,-4.29 0.123,-1.23 1.68,-2.51 2.82,-1.62 0.402,0.348 0.536,0.892 0.615,1.39 z" />
          </g>
          <path
             id="path907"
             style="fill:#035000;stroke:none;paint-order:markers fill stroke"
             d="m 306,110 a 9.41,9.41 0 0 1 -9.41,9.41 9.41,9.41 0 0 1 -9.42,-9.41 9.41,9.41 0 0 1 9.42,-9.41 9.41,9.41 0 0 1 9.41,9.41 z" />
        </g>
      </g>
      <path
         id="path913"
         style="fill:#f3ba00;stroke-width:0.232"
         fill="#bce4f8"
         clip-path="url(#clipPath1160)"
         d="m 76.2,15 h 6.03 v 2.78 H 76.2 Z" />
      <path
         id="path915"
         style="fill:#ffc300;stroke-width:0.232"
         fill="#e4f5fd"
         clip-path="url(#clipPath1156)"
         d="m 76.2,15 v 2.32 h 4.87 a 0.695,0.695 0 0 0 0.695,-0.695 v -1.62 z" />
      <path
         id="path917"
         style="fill:#035000;stroke-width:0.232"
         fill="#896f65"
         clip-path="url(#clipPath1152)"
         d="m 83.6,18.7 h -8.81 l -2.55,2.32 h 13.9 z" />
      <path
         id="path919"
         style="fill:#034300;stroke-width:0.232"
         fill="#594139"
         clip-path="url(#clipPath1148)"
         d="m 77.8,21 v 0.464 a 1.39,1.39 0 0 0 2.78,0 V 21 Z" />
      <path
         id="path921"
         style="fill:#022e00;stroke-width:0.232"
         fill="#4b352f"
         clip-path="url(#clipPath1144)"
         d="m 75,21 v 0.464 a 1.39,1.39 0 0 0 2.78,0 V 21 Z" />
      <path
         id="path923"
         style="fill:#034300;stroke-width:0.232"
         fill="#594139"
         clip-path="url(#clipPath1140)"
         d="m 72.3,21 v 0.464 a 1.39,1.39 0 0 0 2.78,0 V 21 Z" />
      <path
         id="path925"
         style="fill:#034300;stroke-width:0.232"
         fill="#594139"
         clip-path="url(#clipPath1136)"
         d="m 83.4,21 v 0.464 a 1.39,1.39 0 0 0 2.78,0 V 21 Z" />
      <path
         id="path927"
         style="fill:#022e00;stroke-width:0.232"
         fill="#4b352f"
         clip-path="url(#clipPath1132)"
         d="m 80.6,21 v 0.464 a 1.39,1.39 0 0 0 2.78,0 V 21 Z" />
      <path
         id="path929"
         style="fill:#023b00;stroke-width:0.232"
         fill="#594139"
         clip-path="url(#clipPath1128)"
         d="m 77.1,18.7 -2.09,2.32 h 2.78 l 0.927,-2.32 z" />
      <path
         id="path931"
         style="fill:#023b00;stroke-width:0.232"
         fill="#594139"
         clip-path="url(#clipPath1124)"
         d="m 81.3,18.7 h -1.62 l 0.927,2.32 h 2.78 z" />
      <path
         id="path933"
         style="fill:#666666;stroke-width:0.232"
         fill="#ccc"
         clip-path="url(#clipPath1120)"
         d="m 76.4,17.8 h 0.464 v 0.927 H 76.4 Z" />
      <path
         id="path935"
         style="fill:#666666;stroke-width:0.232"
         fill="#ccc"
         clip-path="url(#clipPath1116)"
         d="m 81.5,17.8 h 0.464 v 0.927 H 81.5 Z" />
    </g>
  </g>
</svg>
