<svg width="128" height="128" version="1.1" xmlns="http://www.w3.org/2000/svg"><defs><clipPath id="clipPath1108"><rect x="-756" y="-169" width="775" height="648" style="fill:#ccc;paint-order:markers fill stroke;stroke-linecap:round;stroke-linejoin:round;stroke-width:11.4"/></clipPath><clipPath id="clipPath1112"><rect x="-756" y="-169" width="775" height="648" style="fill:#ccc;paint-order:markers fill stroke;stroke-linecap:round;stroke-linejoin:round;stroke-width:11.4"/></clipPath><clipPath id="clipPath1116"><rect x="68.6" y="13" width="21.5" height="18" style="fill:#ccc;paint-order:markers fill stroke;stroke-linecap:round;stroke-linejoin:round;stroke-width:.316"/></clipPath><clipPath id="clipPath1120"><rect x="68.6" y="13" width="21.5" height="18" style="fill:#ccc;paint-order:markers fill stroke;stroke-linecap:round;stroke-linejoin:round;stroke-width:.316"/></clipPath><clipPath id="clipPath1124"><rect x="68.6" y="13" width="21.5" height="18" style="fill:#ccc;paint-order:markers fill stroke;stroke-linecap:round;stroke-linejoin:round;stroke-width:.316"/></clipPath><clipPath id="clipPath1128"><rect x="68.6" y="13" width="21.5" height="18" style="fill:#ccc;paint-order:markers fill stroke;stroke-linecap:round;stroke-linejoin:round;stroke-width:.316"/></clipPath><clipPath id="clipPath1132"><rect x="68.6" y="13" width="21.5" height="18" style="fill:#ccc;paint-order:markers fill stroke;stroke-linecap:round;stroke-linejoin:round;stroke-width:.316"/></clipPath><clipPath id="clipPath1136"><rect x="68.6" y="13" width="21.5" height="18" style="fill:#ccc;paint-order:markers fill stroke;stroke-linecap:round;stroke-linejoin:round;stroke-width:.316"/></clipPath><clipPath id="clipPath1140"><rect x="68.6" y="13" width="21.5" height="18" style="fill:#ccc;paint-order:markers fill stroke;stroke-linecap:round;stroke-linejoin:round;stroke-width:.316"/></clipPath><clipPath id="clipPath1144"><rect x="68.6" y="13" width="21.5" height="18" style="fill:#ccc;paint-order:markers fill stroke;stroke-linecap:round;stroke-linejoin:round;stroke-width:.316"/></clipPath><clipPath id="clipPath1148"><rect x="68.6" y="13" width="21.5" height="18" style="fill:#ccc;paint-order:markers fill stroke;stroke-linecap:round;stroke-linejoin:round;stroke-width:.316"/></clipPath><clipPath id="clipPath1152"><rect x="68.6" y="13" width="21.5" height="18" style="fill:#ccc;paint-order:markers fill stroke;stroke-linecap:round;stroke-linejoin:round;stroke-width:.316"/></clipPath><clipPath id="clipPath1156"><rect x="68.6" y="13" width="21.5" height="18" style="fill:#ccc;paint-order:markers fill stroke;stroke-linecap:round;stroke-linejoin:round;stroke-width:.316"/></clipPath><clipPath id="clipPath1160"><rect x="68.6" y="13" width="21.5" height="18" style="fill:#ccc;paint-order:markers fill stroke;stroke-linecap:round;stroke-linejoin:round;stroke-width:.316"/></clipPath></defs><g><title>Layer 1</title><g stroke="null"><g transform="matrix(1.01,0,0,1.01,-75.9,-25.1)"><title transform="translate(73.7 -34.1)">background</title><rect x="72.7" y="-35.1" width="514" height="514" fill="none"/><g display="none"><rect x="73.7" y="-34.1" width="512" height="512" fill="url(#gridpattern)" stroke="null" stroke-width="0"/></g></g><g transform="matrix(1.01,0,0,1.01,-75.9,-25.1)"><title transform="translate(73.7 -34.1)">Layer 1</title><g transform="matrix(7.92 0 0 7.92 -488 -93.7)"><g transform="matrix(.0277 0 0 .0277 73.6 17.3)" stroke="null"><title>Layer 1</title><g transform="translate(578 13.9)"></g></g><path transform="matrix(.0277 0 0 .0277 89.6 17.7)" d="m-178 679c0 38.3-31.1 69.4-69.4 69.4h-256c-38.3 0-69.4-31.1-69.4-69.4v-529c0-38.3 31.1-69.4 69.4-69.4h256c38.3 0 69.4 31.1 69.4 69.4z" clip-path="url(#clipPath1112)" fill="#5f99d7" style="fill:#cba677;stroke-width:1.34"/><path transform="matrix(.0277 0 0 .0277 89.6 17.7)" d="m-218 679c0 16.1-13.1 29.2-29.2 29.2h-256c-16.1 0-29.2-13.1-29.2-29.2v-529c0-16.1 13.1-29.2 29.2-29.2h16.6c3.59 0 6.81 2.22 8.07 5.59l3.95 10.5c4.35 11.6 15.4 19.3 27.9 19.3h143c12.4 0 23.4-7.68 27.9-19.3l3.95-10.5c1.26-3.36 4.48-5.59 8.07-5.59h16.6c16.1 0 29.2 13.1 29.2 29.2v529z" clip-path="url(#clipPath1108)" fill="#dff6fd" style="fill:#cba677;stroke-width:1.34"/><g transform="matrix(.0658 0 0 .0658 57.8 23.9)"><path d="m325-1.33c19.6-0.166 40.1 9.85 48.7 28.1 7.01 14.3 3.46 32.4-7.55 43.7-3.14 2.37-5.65 5.66-4.92 9.77-0.166 3.53 0.351 7.16-0.292 10.6-4.18 3.63-9.6-2.66-14.2-3.61-4.7-3.23-9.99-0.612-15-0.19-20.6 2.43-43.4-6.42-54-24.9-8.03-13.6-6.27-31.9 3.86-43.9 10.3-12.9 27.1-19.6 43.4-19.6z" style="fill:none;stroke-width:6.77;stroke:#035000"/><g transform="matrix(.829 0 0 .829 77.3 -24.2)"><g transform="matrix(2.6 0 0 2.6 9047 -3e3)" style="fill:#035000;shape-inside:url(#rect3271);stroke-width:.426;stroke:#035000;white-space:pre" aria-label="пе"><path d="m-3349 1181c0.407 3.15-1.49 6.18-4.11 7.8-4.11 2.78-9.26 3.35-14.1 3.19-4.23-0.23-8.7-1.6-11.5-4.92-1.57-1.9-1.93-4.78-0.523-6.87 1.86-2.9 5.39-3.98 8.6-4.54 2.81-0.47 5.74-0.435 8.47 0.422 0.883 1.2-1.7 1.18-2.48 1.26-3.63 0.393-7.54 0.646-10.6 2.88-1.43 1.02-1.69 3.18-0.332 4.37 2.07 2.3 5.36 2.66 8.27 2.9 4.17 0.286 8.53-0.1 12.3-1.99 1.52-0.849 2.76-2.47 2.57-4.29 0.123-1.23 1.68-2.51 2.82-1.62 0.402 0.348 0.536 0.892 0.615 1.39z" style="fill:#035000;stroke-width:.55;stroke:#035000"/></g><path d="m306 110a9.41 9.41 0 0 1-9.41 9.41 9.41 9.41 0 0 1-9.42-9.41 9.41 9.41 0 0 1 9.42-9.41 9.41 9.41 0 0 1 9.41 9.41z" style="fill:#035000;paint-order:markers fill stroke;stroke:none"/></g></g><path d="m76.2 15h6.03v2.78h-6.03z" clip-path="url(#clipPath1160)" fill="#bce4f8" style="fill:#f3ba00;stroke-width:.232"/><path d="m76.2 15v2.32h4.87a0.695 0.695 0 0 0 0.695-0.695v-1.62z" clip-path="url(#clipPath1156)" fill="#e4f5fd" style="fill:#ffc300;stroke-width:.232"/><path d="m83.6 18.7h-8.81l-2.55 2.32h13.9z" clip-path="url(#clipPath1152)" fill="#896f65" style="fill:#035000;stroke-width:.232"/><path d="m77.8 21v0.464a1.39 1.39 0 0 0 2.78 0v-0.464z" clip-path="url(#clipPath1148)" fill="#594139" style="fill:#034300;stroke-width:.232"/><path d="m75 21v0.464a1.39 1.39 0 0 0 2.78 0v-0.464z" clip-path="url(#clipPath1144)" fill="#4b352f" style="fill:#022e00;stroke-width:.232"/><path d="m72.3 21v0.464a1.39 1.39 0 0 0 2.78 0v-0.464z" clip-path="url(#clipPath1140)" fill="#594139" style="fill:#034300;stroke-width:.232"/><path d="m83.4 21v0.464a1.39 1.39 0 0 0 2.78 0v-0.464z" clip-path="url(#clipPath1136)" fill="#594139" style="fill:#034300;stroke-width:.232"/><path d="m80.6 21v0.464a1.39 1.39 0 0 0 2.78 0v-0.464z" clip-path="url(#clipPath1132)" fill="#4b352f" style="fill:#022e00;stroke-width:.232"/><path d="m77.1 18.7-2.09 2.32h2.78l0.927-2.32z" clip-path="url(#clipPath1128)" fill="#594139" style="fill:#023b00;stroke-width:.232"/><path d="m81.3 18.7h-1.62l0.927 2.32h2.78z" clip-path="url(#clipPath1124)" fill="#594139" style="fill:#023b00;stroke-width:.232"/><path d="m76.4 17.8h0.464v0.927h-0.464z" clip-path="url(#clipPath1120)" fill="#ccc" style="fill:#666;stroke-width:.232"/><path d="m81.5 17.8h0.464v0.927h-0.464z" clip-path="url(#clipPath1116)" fill="#ccc" style="fill:#666;stroke-width:.232"/></g></g></g></g></svg>
