<svg width="512" height="400" xmlns="http://www.w3.org/2000/svg">
 <!-- Created with Method Draw - http://github.com/duopixel/Method-Draw/ -->

 <g>
  <title>background</title>
  <rect fill="none" id="canvas_background" height="402" width="514" y="-1" x="-1"/>
  <g display="none" overflow="visible" y="0" x="0" height="100%" width="100%" id="canvasGrid">
   <rect fill="url(#gridpattern)" stroke-width="0" y="0" x="0" height="100%" width="100%"/>
  </g>
 </g>
 <g>
  <title>Layer 1</title>
  <!-- Created with Method Draw - http://github.com/duopixel/Method-Draw/ -->
  <g stroke="null" id="svg_55">
   <g stroke="null" transform="matrix(1.0099437800241153,0,0,1.0099437800241153,-75.93381174015057,-25.062039431998635) " id="svg_52">
    <title stroke="null" transform="translate(0.9901541471481323,13.862157821655273) translate(9.231485366821289,-23.59157371520996) translate(-22.565853118896484,-56.414634704589844) translate(-1961.9998779296875,-2015.9998779296875) translate(2047.9998779296875,0) translate(0,2047.9998779296875) ">background</title>
    <rect stroke="null" x="72.655786" y="-35.144051" width="514" height="514" id="svg_50" fill="none"/>
    <g stroke="null" id="svg_49" display="none">
     <rect stroke="null" id="svg_53" width="512" height="512" x="73.655786" y="-34.144051" stroke-width="0" fill="url(#gridpattern)"/>
    </g>
   </g>
   <g stroke="null" transform="matrix(1.0099437800241153,0,0,1.0099437800241153,-75.93381174015057,-25.062039431998635) " id="svg_54">
    <title stroke="null" transform="translate(0.9901541471481323,13.862157821655273) translate(9.231485366821289,-23.59157371520996) translate(-22.565853118896484,-56.414634704589844) translate(-1961.9998779296875,-2015.9998779296875) translate(2047.9998779296875,0) translate(0,2047.9998779296875) ">Layer 1</title>
    <g stroke="null" id="svg_27">
     <path stroke="null" d="m561.142476,359.407709c0,12.82137 -10.41736,23.23873 -23.23873,23.23873l-426.3106,0c-12.82137,0 -23.23873,-10.41736 -23.23873,-23.23873l0,-282.07017c0,-12.82137 10.41736,-23.23873 23.23873,-23.23873l427.11193,0c12.82137,0 23.23874,10.41736 23.23874,23.23873l0,282.07017l-0.80134,0z" fill="#FFFFFF" id="svg_48"/>
     <path stroke="null" d="m541.910426,70.125519c6.41068,0 11.2187,3.20534 11.2187,9.61603l0,285.27551c0,6.41068 -4.80802,9.61603 -11.2187,9.61603l-426.3106,0c-6.41068,0 -11.2187,-3.20535 -11.2187,-9.61603l0,-285.27551c0,-6.41069 4.80802,-9.61603 11.2187,-9.61603l429.51594,0m-3.20534,-24.04007l-426.3106,0c-19.23205,0 -35.25877,14.42404 -35.25877,33.6561l0,285.27551c0,19.23205 16.02672,33.6561 35.25877,33.6561l427.11193,0c19.23206,0 35.25877,-14.42405 35.25877,-33.6561l0,-285.27551c-0.80133,-19.23206 -16.82805,-33.6561 -36.0601,-33.6561l0,0z" fill="#B8BFBE" id="svg_47"/>
     <path stroke="null" d="m501.042296,328.155619c-6.41068,0 -12.02003,-5.60936 -12.02003,-12.02004l0,-188.31389c0,-6.41068 5.60935,-12.02003 12.02003,-12.02003s12.02004,5.60935 12.02004,12.02003l0,188.31389c0,7.21202 -5.60935,12.02004 -12.02004,12.02004z" fill="#4C5654" id="svg_46"/>
     <g stroke="null" id="svg_43" transform="matrix(1.0016696234488844,0,0,1.0016696234488844,-79.95934738149509,-757.6959174972508) ">
      <circle stroke="null" cx="344.033219" cy="978.441533" r="45.599998" fill="#9FAAA9" id="svg_45"/>
      <circle stroke="null" cx="472.033219" cy="978.441533" r="45.599998" fill="#9FAAA9" id="svg_44"/>
     </g>
     <g stroke="null" id="svg_42" transform="matrix(1.0016696234488844,0,0,1.0016696234488844,-79.95934738149509,-757.6959174972508) "/>
     <g stroke="null" id="svg_41" transform="matrix(1.0016696234488844,0,0,1.0016696234488844,-79.95934738149509,-757.6959174972508) "/>
     <g stroke="null" id="svg_40" transform="matrix(1.0016696234488844,0,0,1.0016696234488844,-79.95934738149509,-757.6959174972508) "/>
     <g stroke="null" id="svg_39" transform="matrix(1.0016696234488844,0,0,1.0016696234488844,-79.95934738149509,-757.6959174972508) "/>
     <g stroke="null" id="svg_38" transform="matrix(1.0016696234488844,0,0,1.0016696234488844,-79.95934738149509,-757.6959174972508) "/>
     <g stroke="null" id="svg_37" transform="matrix(1.0016696234488844,0,0,1.0016696234488844,-79.95934738149509,-757.6959174972508) "/>
     <g stroke="null" id="svg_36" transform="matrix(1.0016696234488844,0,0,1.0016696234488844,-79.95934738149509,-757.6959174972508) "/>
     <g stroke="null" id="svg_35" transform="matrix(1.0016696234488844,0,0,1.0016696234488844,-79.95934738149509,-757.6959174972508) "/>
     <g stroke="null" id="svg_34" transform="matrix(1.0016696234488844,0,0,1.0016696234488844,-79.95934738149509,-757.6959174972508) "/>
     <g stroke="null" id="svg_33" transform="matrix(1.0016696234488844,0,0,1.0016696234488844,-79.95934738149509,-757.6959174972508) "/>
     <g stroke="null" id="svg_32" transform="matrix(1.0016696234488844,0,0,1.0016696234488844,-79.95934738149509,-757.6959174972508) "/>
     <g stroke="null" id="svg_31" transform="matrix(1.0016696234488844,0,0,1.0016696234488844,-79.95934738149509,-757.6959174972508) "/>
     <g stroke="null" id="svg_30" transform="matrix(1.0016696234488844,0,0,1.0016696234488844,-79.95934738149509,-757.6959174972508) "/>
     <g stroke="null" id="svg_29" transform="matrix(1.0016696234488844,0,0,1.0016696234488844,-79.95934738149509,-757.6959174972508) "/>
     <g stroke="null" id="svg_28" transform="matrix(1.0016696234488844,0,0,1.0016696234488844,-79.95934738149509,-757.6959174972508) "/>
    </g>
   </g>
  </g>
 </g>
</svg>