<svg width="512" height="400" version="1.1" xmlns="http://www.w3.org/2000/svg"><g><title>background</title><rect id="canvas_background" x="-1" y="-1" width="514" height="402" fill="none"/><g id="canvasGrid" x="0" y="0" width="100%" height="100%" display="none" overflow="visible"><rect width="100%" height="100%" fill="url(#gridpattern)" stroke-width="0"/></g></g><g><title>Layer 1</title><g stroke="null"><g transform="matrix(1.01 0 0 1.01 -75.9 -25.1)"><title transform="translate(73.7 -34.1)">background</title><rect x="72.7" y="-35.1" width="514" height="514" fill="none"/><g display="none"><rect x="73.7" y="-34.1" width="512" height="512" fill="url(#gridpattern)" stroke="null" stroke-width="0"/></g></g><g transform="matrix(1.01 0 0 1.01 -75.9 -25.1)"><title transform="translate(73.7 -34.1)">Layer 1</title><path d="m561 359c0 12.8-10.4 23.2-23.2 23.2h-426c-12.8 0-23.2-10.4-23.2-23.2v-282c0-12.8 10.4-23.2 23.2-23.2h427c12.8 0 23.2 10.4 23.2 23.2v282h-0.801z" fill="#fff"/><path d="m542 70.1c6.41 0 11.2 3.21 11.2 9.62v285c0 6.41-4.81 9.62-11.2 9.62h-426c-6.41 0-11.2-3.21-11.2-9.62v-285c0-6.41 4.81-9.62 11.2-9.62h430m-3.21-24h-426c-19.2 0-35.3 14.4-35.3 33.7v285c0 19.2 16 33.7 35.3 33.7h427c19.2 0 35.3-14.4 35.3-33.7v-285c-0.801-19.2-16.8-33.7-36.1-33.7z" fill="#B8BFBE"/><path d="m501 328c-6.41 0-12-5.61-12-12v-188c0-6.41 5.61-12 12-12s12 5.61 12 12v188c0 7.21-5.61 12-12 12z" fill="#4C5654"/><g transform="matrix(1 0 0 1 -80 -758)" fill="#9FAAA9"><circle cx="344" cy="978" r="45.6"/><circle cx="472" cy="978" r="45.6"/></g></g></g></g></svg>
