<svg width="512" height="512" style="vector-effect:non-scaling-stroke" version="1.1" xmlns="http://www.w3.org/2000/svg"><g stroke="null"><title>background</title><rect id="canvas_background" x="-1" y="-1" width="514" height="514" fill="none"/><g id="canvasGrid" x="0" y="0" width="100%" height="100%" display="none" overflow="visible" style="vector-effect:non-scaling-stroke"><rect width="100%" height="100%" fill="url(#gridpattern)" stroke-width="0"/></g></g><g stroke="null"><title>Layer 1</title><g transform="matrix(1.6 0 0 1.6 -236 -111)" stroke="null"><path d="m457 520c0 28.6-23.2 51.8-51.8 51.8h-191c-28.6 0-51.8-23.2-51.8-51.8v-395c0-28.6 23.2-51.8 51.8-51.8h191c28.6 0 51.8 23.2 51.8 51.8v395z" fill="#5f99d7"/><path d="m243 520v-395c0-28.6 23.2-51.8 51.8-51.8h-81.2c-28.6 0-51.8 23.2-51.8 51.8v395c0 28.6 23.2 51.8 51.8 51.8h81.2c-28.6 0-51.8-23.2-51.8-51.8z" fill="#3c87d0"/><path d="m427 520c0 12-9.75 21.8-21.8 21.8h-191c-12 0-21.8-9.75-21.8-21.8v-395c0-12 9.75-21.8 21.8-21.8h12.4c2.68 0 5.08 1.66 6.02 4.17l2.95 7.85c3.25 8.66 11.5 14.4 20.8 14.4h107c9.24 0 17.5-5.73 20.8-14.4l2.95-7.85c0.942-2.51 3.34-4.17 6.02-4.17h12.4c12 0 21.8 9.75 21.8 21.8v395z" fill="#dff6fd"/><path d="m243 520v-394c-3.62-2.51-6.48-6.1-8.1-10.4l-2.95-7.85c-0.942-2.51-3.34-4.17-6.02-4.17h-12.4c-12 0-21.8 9.75-21.8 21.8v395c0 12 9.75 21.8 21.8 21.8h34.3c-3.08-6.62-4.8-14-4.8-21.8z" fill="#c8effe"/><path d="m351 108h-79.3c-4.14 0-7.5-3.36-7.5-7.5s3.36-7.5 7.5-7.5h79.3c4.14 0 7.5 3.36 7.5 7.5s-3.36 7.5-7.5 7.5z" fill="#3c87d0" stroke="null"/><g stroke="null"><circle cx="309" cy="267" r="85.6" fill="#99e6fc" stroke="null"/></g><g stroke="null"><path d="m374 322c-15.7 18.8-39.3 30.8-65.7 30.8s-50-12-65.7-30.8c0.09-18.4 7.77-35 20-46.9l31.3-24.6h30.2l29.8 24.6c12.3 11.9 20 28.5 20 46.9z" fill="#ade194" stroke="null"/></g><path d="m354 275-29.8-24.6h-6.86l-32.8 30-17.5-8.7-4.31 3.39c-12.3 11.9-20 28.5-20 46.9 5.71 6.84 12.5 12.8 20 17.5 0.446-7.29 2.09-14.3 4.72-20.7 3.2-7.84 12-11.9 20.1-9.5 6.62 1.99 13.6 3.06 20.9 3.06 22.1 0 41.9-9.9 55.3-25.5-2.76-4.3-6-8.27-9.66-11.8z" fill="#97da7b"/><circle cx="309" cy="239" r="57.9" fill="#ffe5c2"/><path d="m281 239c0-26.8 18.2-49.3 42.9-55.9-4.79-1.28-9.85-1.98-15.1-1.98-32 0-57.9 25.9-57.9 57.9 0 32 25.9 57.9 57.9 57.9 5.2 0 10.3-0.692 15.1-1.98-24.7-6.62-42.9-29.2-42.9-55.9z" fill="#fed2a4"/><path d="m372 462h-127c-5.02 0-9.09-4.07-9.09-9.09v-27.3c0-5.02 4.07-9.09 9.09-9.09h127c5.02 0 9.09 4.07 9.09 9.09v27.3c0 5.02-4.07 9.09-9.09 9.09z" fill="#99e6fc"/></g></g></svg>
