<svg width="128" height="128" style="vector-effect:non-scaling-stroke" version="1.1" xmlns="http://www.w3.org/2000/svg"><defs><clipPath id="clipPath883"><rect x="101" y="37.8" width="416" height="351" style="fill:#034700;opacity:.481;paint-order:markers fill stroke"/></clipPath><clipPath id="clipPath887"><rect x="101" y="37.8" width="416" height="351" style="fill:#034700;opacity:.481;paint-order:markers fill stroke"/></clipPath><clipPath id="clipPath891"><rect x="101" y="37.8" width="416" height="351" style="fill:#034700;opacity:.481;paint-order:markers fill stroke"/></clipPath><clipPath id="clipPath895"><rect x="101" y="37.8" width="416" height="351" style="fill:#034700;opacity:.481;paint-order:markers fill stroke"/></clipPath><clipPath id="clipPath899"><rect x="102" y="41.5" width="416" height="351" style="fill:#034700;opacity:.481;paint-order:markers fill stroke"/></clipPath><clipPath id="clipPath903"><rect x="102" y="41.5" width="416" height="351" style="fill:#034700;opacity:.481;paint-order:markers fill stroke"/></clipPath><clipPath id="clipPath907"><rect x="101" y="37.8" width="416" height="351" style="fill:#034700;opacity:.481;paint-order:markers fill stroke"/></clipPath><clipPath id="clipPath911"><rect x="101" y="37.8" width="416" height="351" style="fill:#034700;opacity:.481;paint-order:markers fill stroke"/></clipPath><clipPath id="clipPath915"><rect x="101" y="37.8" width="416" height="351" style="fill:#034700;opacity:.481;paint-order:markers fill stroke"/></clipPath><clipPath id="clipPath919"><rect x="101" y="37.8" width="416" height="351" style="fill:#034700;opacity:.481;paint-order:markers fill stroke"/></clipPath><clipPath id="clipPath923"><rect x="101" y="37.8" width="416" height="351" style="fill:#034700;opacity:.481;paint-order:markers fill stroke"/></clipPath></defs><g transform="matrix(1.01 0 0 1.01 -6.1 -1.69)" stroke="null"><title>Layer 1</title><g transform="matrix(1.6,0,0,1.6,-236,-111)" stroke="null"><path transform="matrix(.247 0 0 .247 115 53.3)" d="m457 516c0 28.6-23.2 51.8-51.8 51.8h-191c-28.6 0-51.8-23.2-51.8-51.8v-395c0-28.6 23.2-51.8 51.8-51.8h191c28.6 0 51.8 23.2 51.8 51.8z" clip-path="url(#clipPath923)" fill="#5f99d7"/><path transform="matrix(.247 0 0 .247 115 53.3)" d="m243 516v-395c0-28.6 23.2-51.8 51.8-51.8h-81.2c-28.6 0-51.8 23.2-51.8 51.8v395c0 28.6 23.2 51.8 51.8 51.8h81.2c-28.6 0-51.8-23.2-51.8-51.8z" clip-path="url(#clipPath919)" fill="#3c87d0"/><path transform="matrix(.247 0 0 .247 115 53.3)" d="m427 516c0 12-9.75 21.8-21.8 21.8h-191c-12 0-21.8-9.75-21.8-21.8v-395c0-12 9.75-21.8 21.8-21.8h12.4c2.68 0 5.08 1.66 6.02 4.17l2.95 7.85c3.25 8.66 11.5 14.4 20.8 14.4h107c9.24 0 17.5-5.73 20.8-14.4l2.95-7.85c0.942-2.51 3.34-4.17 6.02-4.17h12.4c12 0 21.8 9.75 21.8 21.8v395z" clip-path="url(#clipPath915)" fill="#dff6fd"/><path transform="matrix(.247 0 0 .247 115 53.3)" d="m243 516v-394c-3.62-2.51-6.48-6.1-8.1-10.4l-2.95-7.85c-0.942-2.51-3.34-4.17-6.02-4.17h-12.4c-12 0-21.8 9.75-21.8 21.8v395c0 12 9.75 21.8 21.8 21.8h34.3c-3.08-6.62-4.8-14-4.8-21.8z" clip-path="url(#clipPath911)" fill="#c8effe"/><g stroke="null"><path transform="matrix(.247 0 0 .247 115 53.3)" d="m351 104h-79.3c-4.14 0-7.5-3.36-7.5-7.5 0-4.14 3.36-7.5 7.5-7.5h79.3c4.14 0 7.5 3.36 7.5 7.5 0 4.14-3.36 7.5-7.5 7.5z" clip-path="url(#clipPath907)" fill="#3c87d0"/><g transform="matrix(.247 0 0 .247 115 52.4)" clip-path="url(#clipPath903)"><circle cx="309" cy="267" r="85.6" fill="#99e6fc" stroke="null"/></g><g transform="matrix(.247 0 0 .247 115 52.4)" clip-path="url(#clipPath899)"><path d="m374 322c-15.7 18.8-39.3 30.8-65.7 30.8s-50-12-65.7-30.8c0.09-18.4 7.77-35 20-46.9l31.3-24.6h30.2l29.8 24.6c12.3 11.9 20 28.5 20 46.9z" fill="#ade194" stroke="null" style="fill:#035000"/></g></g><path transform="matrix(.247 0 0 .247 115 53.3)" d="m354 271-29.8-24.6h-6.86l-32.8 30-17.5-8.7-4.31 3.39c-12.3 11.9-20 28.5-20 46.9 5.71 6.84 12.5 12.8 20 17.5 0.446-7.29 2.09-14.3 4.72-20.7 3.2-7.84 12-11.9 20.1-9.5 6.62 1.99 13.6 3.06 20.9 3.06 22.1 0 41.9-9.9 55.3-25.5-2.76-4.3-6-8.27-9.66-11.8z" clip-path="url(#clipPath895)" fill="#97da7b" style="fill:#034700"/><circle transform="matrix(.247 0 0 .247 115 53.3)" cx="309" cy="235" r="57.9" clip-path="url(#clipPath891)" fill="#ffe5c2"/><path transform="matrix(.247 0 0 .247 115 53.3)" d="m281 235c0-26.8 18.2-49.3 42.9-55.9-4.79-1.28-9.85-1.98-15.1-1.98-32 0-57.9 25.9-57.9 57.9s25.9 57.9 57.9 57.9c5.2 0 10.3-0.692 15.1-1.98-24.7-6.62-42.9-29.2-42.9-55.9z" clip-path="url(#clipPath887)" fill="#fed2a4"/><path d="m372 458h-127c-5.02 0-9.09-4.07-9.09-9.09v-27.3c0-5.02 4.07-9.09 9.09-9.09h127c5.02 0 9.09 4.07 9.09 9.09v27.3c0 5.02-4.07 9.09-9.09 9.09z" clip-path="url(#clipPath883)" fill="#99e6fc"/></g></g></svg>
