<svg width="512" height="512" xmlns="http://www.w3.org/2000/svg" style="vector-effect: non-scaling-stroke;" stroke="null">
 <!-- Created with Method Draw - http://github.com/duopixel/Method-Draw/ -->

 <g stroke="null">
  <title stroke="null">background</title>
  <rect stroke="null" fill="none" id="canvas_background" height="514" width="514" y="-1" x="-1"/>
  <g style="vector-effect: non-scaling-stroke;" stroke="null" display="none" overflow="visible" y="0" x="0" height="100%" width="100%" id="canvasGrid">
   <rect fill="url(#gridpattern)" stroke-width="0" y="0" x="0" height="100%" width="100%"/>
  </g>
 </g>
 <g stroke="null">
  <title stroke="null">Layer 1</title>
  <g stroke="null" id="svg_24">
   <g stroke="null" transform="matrix(1.5993738588966893,0,0,1.5993738588966893,-236.26836765319206,-110.80553449815756) " id="svg_9">
    <path stroke="null" id="svg_10" fill="#5f99d7" d="m456.55627,520.117083c0,28.596 -23.182,51.778 -51.778,51.778l-191.307,0c-28.596,0 -51.778,-23.182 -51.778,-51.778l0,-394.711c0,-28.596 23.182,-51.778 51.778,-51.778l191.307,0c28.596,0 51.778,23.182 51.778,51.778l0,394.711z"/>
    <path stroke="null" id="svg_11" fill="#3c87d0" d="m242.92427,520.117083l0,-394.711c0,-28.596 23.182,-51.778 51.778,-51.778l-81.231,0c-28.596,0 -51.778,23.182 -51.778,51.778l0,394.71c0,28.596 23.182,51.778 51.778,51.778l81.231,0c-28.596,0 -51.778,-23.181 -51.778,-51.777z"/>
    <path stroke="null" id="svg_12" fill="#dff6fd" d="m426.55627,520.117083c0,12.027 -9.75,21.777 -21.777,21.777l-191.308,0c-12.028,0 -21.778,-9.75 -21.778,-21.778l0,-394.71c0,-12.028 9.75,-21.778 21.778,-21.778l12.381,0c2.68,0 5.079,1.662 6.021,4.171l2.947,7.85c3.249,8.655 11.525,14.388 20.77,14.388l107.068,0c9.245,0 17.521,-5.733 20.771,-14.388l2.947,-7.85c0.942,-2.509 3.341,-4.171 6.021,-4.171l12.382,0c12.027,0 21.777,9.75 21.777,21.777l0,394.712z"/>
    <path stroke="null" id="svg_13" fill="#c8effe" d="m242.92427,520.117083l0,-394.053c-3.615,-2.514 -6.485,-6.101 -8.104,-10.416l-2.947,-7.85c-0.942,-2.508 -3.341,-4.17 -6.021,-4.17l-12.381,0c-12.028,0 -21.778,9.75 -21.778,21.778l0,394.71c0,12.028 9.75,21.778 21.778,21.778l34.256,0c-3.075,-6.622 -4.803,-13.996 -4.803,-21.777z"/>
    <g stroke="null" id="svg_14">
     <path stroke="null" id="svg_15" fill="#3c87d0" d="m350.93027,108.286083l-79.316,0c-4.142,0 -7.5,-3.357 -7.5,-7.5s3.358,-7.5 7.5,-7.5l79.316,0c4.143,0 7.5,3.357 7.5,7.5s-3.358,7.5 -7.5,7.5z"/>
    </g>
    <g stroke="null" id="svg_7">
     <g stroke="null" id="svg_16">
      <circle stroke="null" id="svg_17" r="85.589996" fill="#99e6fc" cy="267.040083" cx="308.62427"/>
     </g>
    </g>
    <g stroke="null" id="svg_6">
     <g stroke="null" id="svg_18">
      <path stroke="null" id="svg_19" fill="#ade194" d="m374.32427,321.880083c-15.69,18.8 -39.3,30.75 -65.7,30.75s-50.01,-11.95 -65.7,-30.75c0.09,-18.41 7.77,-35.02 20.05,-46.9l31.33,-24.65l30.16,0l29.81,24.65c12.28,11.88 19.96,28.49 20.05,46.9z"/>
     </g>
    </g>
    <path stroke="null" id="svg_20" fill="#97da7b" d="m354.27427,274.980083l-29.81,-24.65l-6.864,0l-32.815,29.961l-17.505,-8.699l-4.306,3.388c-12.28,11.88 -19.96,28.49 -20.05,46.9c5.707,6.838 12.465,12.764 20.02,17.544c0.446,-7.29 2.086,-14.254 4.723,-20.706c3.204,-7.839 11.959,-11.945 20.068,-9.505c6.618,1.99 13.629,3.063 20.888,3.063c22.105,0 41.928,-9.901 55.312,-25.485c-2.762,-4.303 -6.002,-8.271 -9.661,-11.811z"/>
    <circle stroke="null" id="svg_21" r="57.915001" fill="#ffe5c2" cy="239.361083" cx="308.62427"/>
    <path stroke="null" id="svg_22" fill="#fed2a4" d="m280.76227,239.361083c0,-26.787 18.214,-49.321 42.913,-55.94c-4.793,-1.284 -9.852,-1.975 -15.051,-1.975c-31.986,0 -57.915,25.929 -57.915,57.915c0,31.985 25.929,57.915 57.915,57.915c5.199,0 10.262,-0.692 15.055,-1.976c-24.698,-6.619 -42.917,-29.152 -42.917,-55.939z"/>
    <path stroke="null" id="svg_23" fill="#99e6fc" d="m372.17827,462.128083l-127.107,0c-5.02,0 -9.09,-4.07 -9.09,-9.09l0,-27.279c0,-5.02 4.07,-9.09 9.09,-9.09l127.107,0c5.02,0 9.09,4.07 9.09,9.09l0,27.279c0,5.02 -4.07,9.09 -9.09,9.09z"/>
   </g>
  </g>
 </g>
</svg>