<?xml version="1.0" encoding="UTF-8" standalone="no"?>
<svg
   xmlns:dc="http://purl.org/dc/elements/1.1/"
   xmlns:cc="http://creativecommons.org/ns#"
   xmlns:rdf="http://www.w3.org/1999/02/22-rdf-syntax-ns#"
   xmlns:svg="http://www.w3.org/2000/svg"
   xmlns="http://www.w3.org/2000/svg"
   xmlns:sodipodi="http://sodipodi.sourceforge.net/DTD/sodipodi-0.dtd"
   xmlns:inkscape="http://www.inkscape.org/namespaces/inkscape"
   width="512"
   height="512"
   version="1.1"
   id="svg12974"
   sodipodi:docname="PLC (1).svg"
   inkscape:version="1.0 (4035a4f, 2020-05-01)">
  <metadata
     id="metadata12980">
    <rdf:RDF>
      <cc:Work
         rdf:about="">
        <dc:format>image/svg+xml</dc:format>
        <dc:type
           rdf:resource="http://purl.org/dc/dcmitype/StillImage" />
        <dc:title></dc:title>
      </cc:Work>
    </rdf:RDF>
  </metadata>
  <defs
     id="defs12978" />
  <sodipodi:namedview
     inkscape:document-rotation="0"
     pagecolor="#ffffff"
     bordercolor="#666666"
     borderopacity="1"
     objecttolerance="10"
     gridtolerance="10"
     guidetolerance="10"
     inkscape:pageopacity="0"
     inkscape:pageshadow="2"
     inkscape:window-width="1366"
     inkscape:window-height="768"
     id="namedview12976"
     showgrid="false"
     inkscape:zoom="1.1459813"
     inkscape:cx="219.8285"
     inkscape:cy="266.79538"
     inkscape:window-x="0"
     inkscape:window-y="0"
     inkscape:window-maximized="0"
     inkscape:current-layer="svg_266" />
  <!-- Created with Method Draw - http://github.com/duopixel/Method-Draw/ -->
  <g
     id="g12825">
    <title
       id="title12819">background</title>
    <rect
       fill="none"
       id="canvas_background"
       height="514"
       width="514"
       y="-1"
       x="-1" />
    <g
       display="none"
       overflow="visible"
       y="0"
       x="0"
       height="100%"
       width="100%"
       id="canvasGrid">
      <rect
         fill="url(#gridpattern)"
         stroke-width="0"
         y="0"
         x="0"
         height="100%"
         width="100%"
         id="rect12822" />
    </g>
  </g>
  <g
     id="g12972">
    <title
       id="title12827">Layer 1</title>
    <!-- Created with Method Draw - http://github.com/duopixel/Method-Draw/ -->
    <g
       stroke="null"
       id="svg_267">
      <g
         stroke="null"
         transform="matrix(1.0128601138865831,0,0,1.0128601138865831,-43.70411631121291,-293.3067001646199) "
         id="svg_264">
        <title
           stroke="null"
           transform="translate(0.9873031973838806,0) translate(-0.9873031973838806,0) translate(-6.9111223220825195,0.9873031973838806) translate(6.087339878082275,-5.684341886080802e-14) translate(-9.277348518371582,-5.154082298278809) translate(-1997.9998779296875,-1736.9998779296875) translate(2048.277587890625,0) translate(0,2047.9998779296875) "
           id="title12829">background</title>
        <rect
           stroke="null"
           x="39.176579"
           y="305.833221"
           width="514"
           height="514"
           id="svg_262"
           fill="none" />
        <g
           stroke="null"
           id="svg_261"
           display="none">
          <rect
             stroke="null"
             id="svg_265"
             width="512"
             height="512"
             x="40.176579"
             y="306.833221"
             stroke-width="0"
             fill="url(#gridpattern)" />
        </g>
      </g>
      <g
         stroke="null"
         transform="matrix(1.0128601138865831,0,0,1.0128601138865831,-43.70411631121291,-293.3067001646199) "
         id="svg_266">
        <title
           stroke="null"
           transform="translate(0.9873031973838806,0) translate(-0.9873031973838806,0) translate(-6.9111223220825195,0.9873031973838806) translate(6.087339878082275,-5.684341886080802e-14) translate(-9.277348518371582,-5.154082298278809) translate(-1997.9998779296875,-1736.9998779296875) translate(2048.277587890625,0) translate(0,2047.9998779296875) "
           id="title12835">Layer 1</title>
        <g
           transform="matrix(22.658713,0,0,22.658713,-101.60664,293.51696)"
           id="g15713">
          <path
             d="M 23.491,1.826 18.241,0.04 c -0.156,-0.054 -0.326,-0.054 -0.482,0 l -5.25,1.786 C 12.204,1.929 12,2.214 12,2.536 v 4.018 c 0,4.904 5.474,7.288 5.707,7.387 C 17.801,13.98 17.9,14 18,14 18.1,14 18.199,13.98 18.293,13.94 18.526,13.841 24,11.458 24,6.554 V 2.536 C 24,2.214 23.796,1.929 23.491,1.826 Z"
             fill="#4caf50"
             id="path15682" />
          <path
             d="m 21.286,5.618 -2.75,3.5 C 18.368,9.332 18.119,9.469 17.848,9.495 L 17.75,9.5 C 17.513,9.5 17.281,9.416 17.1,9.259 l -1.75,-1.5 C 14.93,7.4 14.881,6.768 15.242,6.349 15.601,5.93 16.233,5.882 16.651,6.241 l 0.958,0.821 2.105,-2.679 c 0.341,-0.434 0.969,-0.511 1.404,-0.168 0.434,0.34 0.51,0.969 0.168,1.403 z"
             fill="#ffffff"
             id="path15684" />
          <path
             d="m 18,0 h -0.019 c -0.075,0.002 -0.15,0.015 -0.222,0.04 l -5.25,1.786 C 12.204,1.929 12,2.214 12,2.536 v 4.018 c 0,4.904 5.474,7.288 5.707,7.387 C 17.801,13.98 17.9,14 18,14 V 9.468 C 17.95,9.481 17.899,9.49 17.848,9.495 L 17.75,9.5 C 17.513,9.5 17.281,9.416 17.1,9.259 l -1.75,-1.5 C 14.93,7.4 14.881,6.768 15.242,6.349 15.439,6.119 15.719,6 16.001,6 c 0.23,0 0.462,0.079 0.649,0.24 L 17.608,7.061 18,6.563 Z"
             fill="#429846"
             id="path15686" />
          <path
             d="m 16.001,6 c -0.282,0 -0.562,0.118 -0.76,0.349 -0.36,0.419 -0.312,1.051 0.108,1.41 l 1.75,1.5 C 17.281,9.416 17.513,9.5 17.75,9.5 L 17.848,9.495 C 17.899,9.49 17.95,9.481 18,9.468 V 6.563 L 17.608,7.061 16.65,6.241 C 16.462,6.079 16.231,6 16.001,6 Z"
             fill="#dedede"
             id="path15688" />
        </g>
        <!-- Created with Method Draw - http://github.com/duopixel/Method-Draw/ -->
        <g
           stroke="null"
           id="svg_184">
          <g
             stroke="null"
             id="svg_257"
             transform="matrix(1.0002161799403775,0,0,1.0002161799403775,-43.50722080446134,-53.45422408790151) ">
            <title
               stroke="null"
               transform="translate(0.9870898127555847,0) translate(-0.9870898127555847,0) translate(-6.909628391265869,0.9870898127555847) translate(6.086024284362793,-6.394884621840902e-14) translate(-9.27534294128418,-5.152968406677246) translate(-1997.5679931640625,-1736.62451171875) translate(2047.8348388671875,0) translate(0,2047.5572509765625) "
               id="title12837">background</title>
            <rect
               stroke="null"
               fill="none"
               id="svg_260"
               height="402"
               width="514"
               y="453.855946"
               x="82.110498" />
            <g
               stroke="null"
               display="none"
               id="svg_258">
              <rect
                 stroke="null"
                 fill="url(#gridpattern)"
                 stroke-width="0"
                 y="454.855946"
                 x="83.110498"
                 height="512"
                 width="512"
                 id="svg_259" />
            </g>
          </g>
          <g
             stroke="null"
             id="svg_185"
             transform="matrix(1.0002161799403775,0,0,1.0002161799403775,-43.50722080446134,-53.45422408790151) ">
            <title
               stroke="null"
               transform="translate(0.9870898127555847,0) translate(-0.9870898127555847,0) translate(-6.909628391265869,0.9870898127555847) translate(6.086024284362793,-6.394884621840902e-14) translate(-9.27534294128418,-5.152968406677246) translate(-1997.5679931640625,-1736.62451171875) translate(2047.8348388671875,0) translate(0,2047.5572509765625) "
               id="title12843">Layer 1</title>
            <path
               d="m 269.77045,596.28444 c -5.56343,-26.22794 -21.45876,-44.11037 -28.61217,-47.68671 -16.09461,-8.04694 -21.45876,4.76846 -28.61217,4.76846 -7.1534,0 -12.51755,-12.81613 -28.61217,-4.76846 -7.15268,3.57634 -23.04873,21.45877 -28.61217,47.68671 -5.56344,26.22795 57.22434,4.76846 57.22434,4.76846 0,0 62.78778,21.45949 57.22434,-4.76846 z"
               fill="#ffd24f"
               id="svg_256"
               stroke="null"
               style="stroke-width:0.724689" />
            <g
               stroke="null"
               id="svg_253"
               transform="matrix(0.72468899,0,0,0.72468899,-1398.2854,-1075.4587)">
              <ellipse
                 stroke="null"
                 id="svg_254"
                 fill="#ffbe1e"
                 ry="55.932999"
                 rx="151.347"
                 cy="2359.1121"
                 cx="2222.79" />
            </g>
            <g
               stroke="null"
               id="svg_251"
               transform="matrix(0.72468899,0,0,0.72468899,-1398.2854,-1075.4587)">
              <path
                 stroke="null"
                 id="svg_252"
                 fill="#ffe1b2"
                 d="m 2133.7411,2399.6092 c -9.864,-2.468 -16.326,2.805 -16.326,13.161 0,13.709 13.265,47.296 27.21,26.321 13.945,-20.975 -10.884,-39.482 -10.884,-39.482 z" />
            </g>
            <g
               stroke="null"
               id="svg_249"
               transform="matrix(0.72468899,0,0,0.72468899,-1398.2854,-1075.4587)">
              <path
                 stroke="null"
                 id="svg_250"
                 fill="#ffe1b2"
                 d="m 2310.1641,2399.6092 c 10.767,-2.468 17.821,2.805 17.821,13.161 0,13.709 -14.479,47.296 -29.701,26.321 -15.222,-20.975 11.88,-39.482 11.88,-39.482 z" />
            </g>
            <g
               stroke="null"
               id="svg_247"
               transform="matrix(0.72468899,0,0,0.72468899,-1398.2854,-1075.4587)">
              <path
                 stroke="null"
                 id="svg_248"
                 fill="#ffd7a3"
                 d="m 2150.4971,2519.2632 c 14.716,-9.475 13.07,-37.675 13.07,-44.255 h 118.446 c 0,6.58 -1.825,34.78 12.89,44.255 l -72.113,80.771 z" />
            </g>
            <g
               stroke="null"
               id="svg_245"
               transform="matrix(0.72468899,0,0,0.72468899,-1398.2854,-1075.4587)">
              <path
                 stroke="null"
                 id="svg_246"
                 fill="#fdc88e"
                 d="m 2268.8521,2547.3922 26.051,-28.129 c -14.716,-9.474 -12.89,-37.675 -12.89,-44.255 h -118.446 c 8.498,24.433 64.707,66.352 105.285,72.384 z" />
            </g>
            <g
               stroke="null"
               id="svg_243"
               transform="matrix(0.72468899,0,0,0.72468899,-1398.2854,-1075.4587)">
              <path
                 stroke="null"
                 id="svg_244"
                 fill="#FF6953"
                 d="m 2374.1371,2657.9682 c 10.903,0 19.741,-8.838 19.741,-19.741 v -39.208 c 0,-28.954 -22.562,-59.864 -50.138,-68.687 l -41.168,-13.173 c -22.149,16.936 -53.802,40.039 -79.782,40.039 -25.98,0 -57.633,-23.103 -79.782,-40.039 l -41.168,13.173 c -27.576,8.823 -50.138,39.733 -50.138,68.687 v 39.208 c 0,10.903 8.838,19.741 19.741,19.741 z"
                 style="fill:#80c904;fill-opacity:1" />
            </g>
            <g
               stroke="null"
               id="svg_241"
               transform="matrix(0.72468899,0,0,0.72468899,-1398.2854,-1075.4587)" />
            <g
               stroke="null"
               id="svg_239"
               transform="matrix(0.72468899,0,0,0.72468899,-1398.2854,-1075.4587)">
              <path
                 stroke="null"
                 id="svg_240"
                 fill="#FFBE1E"
                 d="m 2222.7901,2557.1972 -27.456,27.456 c -2.859,2.859 -7.596,2.487 -9.975,-0.783 l -48.113,-66.156 15.326,-15.326 c 2.475,-2.475 6.454,-2.579 9.055,-0.238 z"
                 style="fill:#7e3a1a;fill-opacity:1" />
            </g>
            <g
               stroke="null"
               id="svg_237"
               transform="matrix(0.72468899,0,0,0.72468899,-1398.2854,-1075.4587)">
              <path
                 stroke="null"
                 id="svg_238"
                 fill="#FFBE1E"
                 d="m 2222.7901,2557.1972 27.456,27.456 c 2.859,2.859 7.596,2.487 9.975,-0.783 l 48.113,-66.156 -15.326,-15.326 c -2.475,-2.475 -6.454,-2.579 -9.055,-0.238 z"
                 style="fill:#7e3a1a;fill-opacity:1" />
            </g>
            <g
               stroke="null"
               id="svg_235"
               transform="matrix(0.72468899,0,0,0.72468899,-1398.2854,-1075.4587)">
              <path
                 stroke="null"
                 id="svg_236"
                 fill="#ffe1b2"
                 d="m 2134.7691,2355.1132 c -1.539,9.309 -1.623,20.502 -1.623,33.803 0,52.696 29.526,118.446 89.645,118.446 60.119,0 89.645,-65.75 89.645,-118.446 0,-13.302 -0.084,-24.494 -1.623,-33.803 -24.117,-8.127 -54.708,-13 -88.021,-13 -33.313,0 -63.907,4.872 -88.023,13 z" />
            </g>
            <g
               stroke="null"
               id="svg_233"
               transform="matrix(0.72468899,0,0,0.72468899,-1398.2854,-1075.4587)">
              <path
                 stroke="null"
                 id="svg_234"
                 fill="#a7795e"
                 d="m 2312.7721,2365.7582 c -5.267,-6.759 -10.916,-13.704 -10.916,-13.704 v 6.58 c 1.632,59.634 -19.588,85.544 -19.588,85.544 l -27.038,3.027 c -21.086,2.361 -42.366,2.361 -63.452,0 l -27.038,-3.027 c 0,0 -21.22,-25.91 -19.588,-85.544 v -6.58 c 0,0 -5.649,6.944 -10.916,13.704 -1.372,5.869 -3.571,12.25 -3.571,19.254 0,52.696 31.536,128.671 92.839,128.671 61.303,0 91.41,-75.975 91.41,-128.671 0,-7.004 -0.769,-13.385 -2.142,-19.254 z m -108.856,94.049 h 39.176 c 5.371,0 9.976,3.273 11.982,7.944 -7.233,3.172 -18.335,5.216 -30.849,5.216 -13.213,0 -24.826,-2.284 -31.995,-5.765 2.126,-4.364 6.536,-7.395 11.686,-7.395 z" />
            </g>
            <g
               stroke="null"
               id="svg_231"
               transform="matrix(0.72468899,0,0,0.72468899,-1398.2854,-1075.4587)">
              <path
                 stroke="null"
                 id="svg_232"
                 fill="#543d38"
                 d="m 2226.2861,2453.9532 c 0,-8.689 -8.431,-10.656 -13.983,-8.55 -10.179,3.861 -21.386,14.632 -30.845,7.971 0,0 3.29,13.903 8.841,13.903 11.104,0 35.987,1.448 35.987,-13.324 z" />
            </g>
            <g
               stroke="null"
               id="svg_229"
               transform="matrix(0.72468899,0,0,0.72468899,-1398.2854,-1075.4587)">
              <path
                 stroke="null"
                 id="svg_230"
                 fill="#543d38"
                 d="m 2223.6251,2453.9532 c 0,-8.689 8.431,-10.656 13.983,-8.55 10.179,3.861 21.386,14.632 30.845,7.971 0,0 -3.29,13.903 -8.841,13.903 -11.104,0 -35.987,1.448 -35.987,-13.324 z" />
            </g>
            <path
               style="fill:#9a4121;fill-opacity:1;stroke-width:0.724689"
               d="m 293.61417,755.51673 -19.07454,-6.10405 v 58.67734 c 0,2.18276 -1.44865,4.11261 -3.56764,4.63439 -16.14245,3.97564 -36.39098,6.35552 -58.42515,6.35552 -22.03417,0 -42.28271,-2.37988 -58.42515,-6.35552 -2.11972,-0.52178 -3.56765,-2.45163 -3.56765,-4.63439 v -58.67734 l -19.07454,6.10405 v 95.22486 h 162.1354 v -95.22486 z"
               fill="#C55F54"
               id="svg_228"
               stroke="null" />
            <g
               stroke="null"
               id="svg_225"
               transform="matrix(0.72468899,0,0,0.72468899,-1398.2854,-1075.4587)">
              <path
                 stroke="null"
                 id="svg_226"
                 fill="#543d38"
                 d="m 2131.1071,2400.4602 17.769,3.276 c 0,0 6.939,-38.912 10.659,-55.078 -9.705,1.937 -18.858,4.267 -27.202,7.003 -1.582,9.309 -1.668,20.502 -1.668,33.803 10e-4,3.612 0.157,7.288 0.442,10.996 z" />
            </g>
            <g
               stroke="null"
               id="svg_223"
               transform="matrix(0.72468899,0,0,0.72468899,-1398.2854,-1075.4587)">
              <path
                 stroke="null"
                 id="svg_224"
                 fill="#543d38"
                 d="m 2314.4731,2400.4602 -17.769,3.276 c 0,0 -6.939,-38.912 -10.659,-55.078 9.705,1.937 18.858,4.267 27.202,7.003 1.582,9.309 1.668,20.502 1.668,33.803 0,3.612 -0.157,7.288 -0.442,10.996 z" />
            </g>
            <g
               stroke="null"
               id="svg_221"
               transform="matrix(0.72468899,0,0,0.72468899,-1398.2854,-1075.4587)">
              <path
                 stroke="null"
                 id="svg_222"
                 fill="#543d38"
                 d="m 2261.4501,2364.7332 15.789,-17.973 c -16.762,-2.964 -35.121,-4.647 -54.449,-4.647 -11.763,0 -23.16,0.637 -34.079,1.781 10.322,-0.706 50.941,4.764 72.739,20.839 z" />
            </g>
            <g
               id="svg_219"
               transform="matrix(0.72468899,0,0,0.72468899,-1398.2854,-1075.4587)"
               stroke="null" />
            <g
               id="svg_218"
               transform="matrix(0.72468899,0,0,0.72468899,-1398.2854,-1075.4587)"
               stroke="null" />
            <g
               id="svg_217"
               transform="matrix(0.72468899,0,0,0.72468899,-1398.2854,-1075.4587)"
               stroke="null" />
            <g
               id="svg_216"
               transform="matrix(0.72468899,0,0,0.72468899,-1398.2854,-1075.4587)"
               stroke="null" />
            <g
               id="svg_215"
               transform="matrix(0.72468899,0,0,0.72468899,-1398.2854,-1075.4587)"
               stroke="null" />
            <g
               id="svg_214"
               transform="matrix(0.72468899,0,0,0.72468899,-1398.2854,-1075.4587)"
               stroke="null" />
            <g
               id="svg_213"
               transform="matrix(0.72468899,0,0,0.72468899,-1398.2854,-1075.4587)"
               stroke="null" />
            <g
               id="svg_212"
               transform="matrix(0.72468899,0,0,0.72468899,-1398.2854,-1075.4587)"
               stroke="null" />
            <g
               id="svg_211"
               transform="matrix(0.72468899,0,0,0.72468899,-1398.2854,-1075.4587)"
               stroke="null" />
            <g
               id="svg_210"
               transform="matrix(0.72468899,0,0,0.72468899,-1398.2854,-1075.4587)"
               stroke="null" />
            <g
               id="svg_209"
               transform="matrix(0.72468899,0,0,0.72468899,-1398.2854,-1075.4587)"
               stroke="null" />
            <g
               id="svg_208"
               transform="matrix(0.72468899,0,0,0.72468899,-1398.2854,-1075.4587)"
               stroke="null" />
            <g
               id="svg_207"
               transform="matrix(0.72468899,0,0,0.72468899,-1398.2854,-1075.4587)"
               stroke="null" />
            <g
               id="svg_206"
               transform="matrix(0.72468899,0,0,0.72468899,-1398.2854,-1075.4587)"
               stroke="null" />
            <g
               id="svg_205"
               transform="matrix(0.72468899,0,0,0.72468899,-1398.2854,-1075.4587)"
               stroke="null" />
            <path
               style="fill:#80c904;fill-opacity:1"
               d="m 557.69117,768.08612 -32.55822,-23.25246 c -1.4118,-1.00842 -3.10337,-1.55059 -4.84047,-1.55059 l -8.91756,-0.002 c -2.20988,0 -4.33083,0.88265 -5.89011,2.44193 -7.95467,7.95684 -18.53777,12.34189 -29.79099,12.34189 -11.25322,0 -21.83416,-4.38505 -29.791,-12.34189 -1.55927,-1.55927 -3.68023,-2.44193 -5.8901,-2.44193 l -8.91756,0.002 c -1.73494,0 -3.42867,0.54217 -4.84047,1.55059 l -32.55823,23.25246 c -20.89511,14.92695 -33.36929,39.16832 -33.36929,64.84537 v 7.8766 c 0,4.59975 3.73011,8.32768 8.32769,8.32768 h 214.07792 c 4.59975,0 8.32769,-3.72794 8.32769,-8.32768 v -7.8766 c 0,-25.67704 -12.47418,-49.91841 -33.3693,-64.84537 z m 0,0"
               fill="#c55f54"
               id="svg_203"
               stroke="null" />
            <path
               style="fill:#80c904;fill-opacity:1"
               d="m 582.73278,849.13578 c 4.59975,0 8.32769,-3.72794 8.32769,-8.32769 v -7.8766 c 0,-25.67704 -12.47418,-49.91841 -33.3693,-64.84535 l -32.55605,-23.25248 c -1.41397,-1.00842 -3.10553,-1.55059 -4.84047,-1.55059 l -8.91973,-0.002 c -2.2077,0 -4.32867,0.88266 -5.89011,2.44193 -7.95467,7.95684 -18.53777,12.34189 -29.79099,12.34189 v 91.07107 z m 0,0"
               fill="#c55f54"
               id="svg_202"
               stroke="null" />
            <path
               style="fill:#9a4121;fill-opacity:1"
               d="m 519.10839,805.12916 c -4.59758,0 -8.32768,-3.73012 -8.32768,-8.3277 v -53.52057 c 0,-4.59757 3.73011,-8.32768 8.32768,-8.32768 4.59974,0 8.32769,3.73012 8.32769,8.32768 v 53.52057 c 0,4.59976 -3.72795,8.3277 -8.32769,8.3277 z m 0,0"
               fill="#ecb402"
               id="svg_201"
               stroke="null" />
            <path
               style="fill:#9a4121;fill-opacity:1"
               d="m 432.27925,805.12916 c -4.59975,0 -8.32769,-3.73012 -8.32769,-8.3277 v -53.52057 c 0,-4.59757 3.72794,-8.32768 8.32769,-8.32768 4.59975,0 8.32768,3.73012 8.32768,8.32768 v 53.52057 c 0,4.59976 -3.72794,8.3277 -8.32768,8.3277 z m 0,0"
               fill="#ffe100"
               id="svg_200"
               stroke="null" />
            <path
               style="fill:#9a4121;fill-opacity:1"
               d="M 555.38153,849.13578 H 396.00827 v -26.16716 c 0,-14.452 11.71514,-26.16715 26.16715,-26.16715 h 107.0368 c 14.452,0 26.16931,11.71515 26.16931,26.16715 z m 0,0"
               fill="#ecb402"
               id="svg_199"
               stroke="null" />
            <g
               stroke="null"
               id="svg_191">
              <path
                 stroke="null"
                 id="svg_196"
                 fill="#ff6953"
                 d="m548.154029,762.365721c-27.25836,17.79978 -62.62627,10.59503 -92.29228,-2.78756c-13.1649,14.46545 -31.79303,20.6941 -51.25743,18.62254l0,-14.57173c0,-13.82589 8.07831,-25.77322 19.76926,-31.37163c-3.7385,-7.37444 -5.78488,-15.64434 -5.78488,-24.22609l0,-80.86237c0,-31.92169 25.88044,-57.80213 57.80213,-57.80213s57.80212,25.88044 57.80212,57.80213c0.00466,109.65016 -0.03263,108.59807 0.01398,108.59807c8.16735,6.10698 13.56066,15.71379 13.9471,26.59877z"
                 style="fill:#7e3a1a;fill-opacity:1" />
              <path
                 stroke="null"
                 id="svg_195"
                 fill="#ffdfba"
                 d="m488.343279,610.914821c-7.69607,-0.67964 -15.69934,-0.72439 -23.90398,0c-19.39727,1.69957 -34.19648,17.91074 -34.19648,37.26372l0,15.40613c0,25.48888 20.6596,46.14847 46.14847,46.14847s46.14847,-20.6596 46.14847,-46.14847l0,-15.40613c-0.00046,-19.34134 -14.78942,-35.56369 -34.19648,-37.26372z" />
              <path
                 stroke="null"
                 id="svg_194"
                 fill="#e85e43"
                 d="m455.861749,759.578151c-2.47058,2.71297 -5.66368,5.72428 -9.7005,8.5398c-0.92437,-0.43398 -4.09789,-1.94709 -4.48899,-2.15359c-11.65692,-5.67347 -20.93323,-15.42478 -26.0296,-27.74036c2.57312,-2.40998 5.51451,-4.42839 8.73091,-5.96667c8.74864,17.27584 22.32002,23.17352 31.48818,27.32082z"
                 style="fill:#9a4121;fill-opacity:1" />
              <path
                 stroke="null"
                 id="svg_193"
                 fill="#e95f43"
                 d="m491.331739,583.324561c-27.64107,-0.33375 -54.11537,19.37163 -58.23237,50.01563c-0.06433,0.4792 -0.18739,0.95047 -0.3636,1.40077c-3.09008,7.91796 -2.49341,13.16117 -2.49341,28.84372c0,4.7519 0.716,9.33178 2.05244,13.6441c0.17853,0.57662 0.27829,1.17469 0.27829,1.77835c0,0.27456 -0.00047,43.07097 0.00093,43.34553c0.04242,6.76518 -9.45345,8.28807 -11.49284,1.83755c-1.63011,-5.15698 -2.49248,-10.5983 -2.49248,-16.15849l0,-80.1916c0,-37.20499 36.18739,-67.5884 74.52652,-56.01585c6.47803,1.95549 4.98217,11.58234 -1.78348,11.50029z"
                 style="fill:#9a4121;fill-opacity:1" />
              <path
                 stroke="null"
                 id="svg_192"
                 fill="#ffebd2"
                 d="m464.771199,701.681871c-2.4123,3.59445 -6.685,4.38038 -9.92285,2.64211c-14.65797,-7.86855 -24.60133,-23.49142 -24.60553,-41.26605c-0.00466,-15.86296 -0.16781,-17.32199 0.59667,-21.54062c2.34005,-12.98683 11.40194,-23.72217 23.60098,-28.32817c-4.89453,5.1789 -8.30672,11.73803 -9.61659,19.00525c-0.76915,4.24613 -0.59667,5.62172 -0.59667,22.06736c0,15.63128 7.53712,28.82694 18.67848,37.06048c3.28446,2.42676 4.14124,6.96889 1.86551,10.35964z" />
            </g>
            <g
               stroke="null"
               id="svg_186">
              <path
                 stroke="null"
                 id="svg_190"
                 fill="#ffe100"
                 d="m499.924729,557.429741l-47.71967,0c-21.63609,0 -39.2385,17.6024 -39.2385,39.2385l0,7.42538c0,4.10136 3.32402,7.42538 7.42538,7.42538l111.34783,0c4.09943,0 7.42538,-3.32402 7.42538,-7.42538l0,-7.42538c0,-21.6361 -17.6024,-39.2385 -39.24042,-39.2385zm0,0" />
              <path
                 stroke="null"
                 id="svg_189"
                 fill="#ecb402"
                 d="m539.165149,596.670161l0,7.42539c0,4.09942 -3.32595,7.42538 -7.42538,7.42538l-55.67488,0l0,-54.09119l23.85984,0c21.63802,0 39.24042,17.6024 39.24042,39.24043l0,-0.00001zm0,0" />
              <path
                 stroke="null"
                 id="svg_188"
                 fill="#ecb402"
                 d="m579.471039,604.097481l-206.80263,0c-4.0975,0 -7.42538,3.33175 -7.42538,7.42925c0,13.46624 10.9157,24.38 24.37999,24.38l172.89341,0c13.4643,0 24.37999,-10.91376 24.37999,-24.38c0,-4.09749 -3.32595,-7.42925 -7.42538,-7.42925zm0,0" />
              <path
                 stroke="null"
                 id="svg_187"
                 fill="#bb8901"
                 d="m586.896419,611.526721c0,13.4643 -10.91569,24.38 -24.37999,24.38l-86.45154,0l0,-31.81117l103.40615,0c4.09943,0 7.42538,3.33175 7.42538,7.43117zm0,0" />
            </g>
            <path
               sodipodi:nodetypes="zzssassz"
               id="path973-0-0"
               d="m 276.26084,822.43769 c -1.07282,-1.21141 5.51798,-5.42797 7.78134,-5.50537 2.26334,-0.0774 7.73423,17.07719 1.9771,18.36866 -2.46872,0.5538 -15.7432,1.64593 -25.76733,0.32334 -2.09511,-0.27642 -2.2873,-5.30788 -1.04341,-7.25386 1.67038,-2.61322 5.59992,-1.91753 8.26522,-0.99736 5.9528,2.05518 9.86655,3.68918 11.40466,1.24669 1.19971,-1.90514 -1.54473,-4.9707 -2.61758,-6.1821 z"
               style="clip-rule:evenodd;fill:#f4e8d7;fill-opacity:1;fill-rule:evenodd;stroke:none;stroke-width:0.109782px;stroke-linecap:butt;stroke-linejoin:miter;stroke-opacity:1;image-rendering:optimizeQuality;shape-rendering:geometricPrecision;text-rendering:geometricPrecision" />
            <ellipse
               transform="rotate(-1.0338854)"
               ry="4.3057723"
               rx="4.4446673"
               cy="847.38672"
               cx="260.62869"
               id="path1798-3-8"
               style="clip-rule:evenodd;fill:#f4e8d7;fill-opacity:1;fill-rule:evenodd;stroke:none;stroke-width:15.9189;stroke-linecap:round;stroke-linejoin:round;image-rendering:optimizeQuality;shape-rendering:geometricPrecision;text-rendering:geometricPrecision" />
            <path
               style="clip-rule:evenodd;fill:#f4e8d7;fill-opacity:1;fill-rule:evenodd;stroke:none;stroke-width:0.109782px;stroke-linecap:butt;stroke-linejoin:miter;stroke-opacity:1;image-rendering:optimizeQuality;shape-rendering:geometricPrecision;text-rendering:geometricPrecision"
               d="m 537.7451,821.98219 c -1.07282,-1.21141 5.51798,-5.42797 7.78134,-5.50537 2.26334,-0.0774 7.73423,17.07719 1.9771,18.36866 -2.46872,0.5538 -15.74321,1.64593 -25.76734,0.32334 -2.09511,-0.27642 -2.2873,-5.30788 -1.04341,-7.25386 1.67038,-2.61322 5.59992,-1.91753 8.26522,-0.99736 5.95281,2.05518 9.86656,3.68918 11.40467,1.24669 1.19971,-1.90514 -1.54473,-4.9707 -2.61758,-6.1821 z"
               id="path973-0-0-1"
               sodipodi:nodetypes="zzssassz" />
            <ellipse
               style="clip-rule:evenodd;fill:#f4e8d7;fill-opacity:1;fill-rule:evenodd;stroke:none;stroke-width:15.9189;stroke-linecap:round;stroke-linejoin:round;image-rendering:optimizeQuality;shape-rendering:geometricPrecision;text-rendering:geometricPrecision"
               id="path1798-3-8-0"
               cx="522.07861"
               cy="851.64935"
               rx="4.4446673"
               ry="4.3057723"
               transform="rotate(-1.0338854)" />
          </g>
        </g>
        <g
           stroke="null"
           id="svg_173" />
        <g
           id="svg_133-0"
           stroke="null"
           transform="matrix(0.54093532,0.42184316,-0.42184316,0.54093532,573.6648,86.545731)">
          <g
             transform="matrix(0.20481412,0,0,0.20481412,-223.38357,-134.00731)"
             id="svg_151-4"
             stroke="null">
            <path
               style="fill:#f0a02a;fill-opacity:1"
               id="svg_152-8"
               fill="#54d195"
               d="m 3333.4326,4407.353 h -29.964 c -53.238,0 -96.549,43.312 -96.549,96.549 v 20.701 c 0,4.199 3.403,7.604 7.604,7.604 h 29.964 c 53.238,0 96.549,-43.312 96.549,-96.549 v -20.701 c 0,-4.199 -3.404,-7.604 -7.604,-7.604 z"
               stroke="null" />
          </g>
          <g
             transform="matrix(0.20481412,0,0,0.20481412,-223.38357,-134.00731)"
             id="svg_149-7"
             stroke="null">
            <path
               style="fill:#ffc431;fill-opacity:1"
               id="svg_150-5"
               fill="#8add8a"
               d="m 3130.4906,4402.585 c -2.97,0.614 -5.289,2.935 -5.904,5.904 -3.956,19.098 1.901,38.718 15.666,52.486 0,0 0,0 0,0 10.936,10.935 25.564,16.879 40.693,16.879 3.914,0 7.866,-0.398 11.792,-1.212 2.97,-0.614 5.289,-2.935 5.904,-5.904 3.956,-19.099 -1.901,-38.72 -15.667,-52.486 -13.767,-13.765 -33.387,-19.621 -52.485,-15.667 z"
               stroke="null" />
          </g>
          <g
             transform="matrix(0.20481412,0,0,0.20481412,-223.38357,-134.00731)"
             id="svg_148-9"
             stroke="null" />
          <g
             transform="matrix(0.20481412,0,0,0.20481412,-223.38357,-134.00731)"
             id="svg_147-5"
             stroke="null" />
          <g
             transform="matrix(0.20481412,0,0,0.20481412,-223.38357,-134.00731)"
             id="svg_146-3"
             stroke="null" />
          <g
             transform="matrix(0.20481412,0,0,0.20481412,-223.38357,-134.00731)"
             id="svg_145-2"
             stroke="null" />
          <g
             transform="matrix(0.20481412,0,0,0.20481412,-223.38357,-134.00731)"
             id="svg_144-7"
             stroke="null" />
          <g
             transform="matrix(0.20481412,0,0,0.20481412,-223.38357,-134.00731)"
             id="svg_143-3"
             stroke="null" />
          <g
             transform="matrix(0.20481412,0,0,0.20481412,-223.38357,-134.00731)"
             id="svg_142-9"
             stroke="null" />
          <g
             transform="matrix(0.20481412,0,0,0.20481412,-223.38357,-134.00731)"
             id="svg_141-7"
             stroke="null" />
          <g
             transform="matrix(0.20481412,0,0,0.20481412,-223.38357,-134.00731)"
             id="svg_140-7"
             stroke="null" />
          <g
             transform="matrix(0.20481412,0,0,0.20481412,-223.38357,-134.00731)"
             id="svg_139-9"
             stroke="null" />
          <g
             transform="matrix(0.20481412,0,0,0.20481412,-223.38357,-134.00731)"
             id="svg_138-5"
             stroke="null" />
          <g
             transform="matrix(0.20481412,0,0,0.20481412,-223.38357,-134.00731)"
             id="svg_137-3"
             stroke="null" />
          <g
             transform="matrix(0.20481412,0,0,0.20481412,-223.38357,-134.00731)"
             id="svg_136-3"
             stroke="null" />
          <g
             transform="matrix(0.20481412,0,0,0.20481412,-223.38357,-134.00731)"
             id="svg_135-3"
             stroke="null" />
          <g
             transform="matrix(0.20481412,0,0,0.20481412,-223.38357,-134.00731)"
             id="svg_134-8"
             stroke="null" />
        </g>
        <g
           transform="matrix(-0.51517074,-0.45294787,0.45294787,-0.51517074,336.89466,1299.9932)"
           stroke="null"
           id="svg_133-0-5">
          <g
             stroke="null"
             id="svg_151-4-8"
             transform="matrix(0.20481412,0,0,0.20481412,-223.38357,-134.00731)">
            <path
               style="fill:#f0a02a;fill-opacity:1"
               stroke="null"
               d="m 3333.4326,4407.353 h -29.964 c -53.238,0 -96.549,43.312 -96.549,96.549 v 20.701 c 0,4.199 3.403,7.604 7.604,7.604 h 29.964 c 53.238,0 96.549,-43.312 96.549,-96.549 v -20.701 c 0,-4.199 -3.404,-7.604 -7.604,-7.604 z"
               fill="#54d195"
               id="svg_152-8-9" />
          </g>
          <g
             stroke="null"
             id="svg_149-7-6"
             transform="matrix(0.20481412,0,0,0.20481412,-223.38357,-134.00731)">
            <path
               style="fill:#ffc431;fill-opacity:1"
               stroke="null"
               d="m 3130.4906,4402.585 c -2.97,0.614 -5.289,2.935 -5.904,5.904 -3.956,19.098 1.901,38.718 15.666,52.486 0,0 0,0 0,0 10.936,10.935 25.564,16.879 40.693,16.879 3.914,0 7.866,-0.398 11.792,-1.212 2.97,-0.614 5.289,-2.935 5.904,-5.904 3.956,-19.099 -1.901,-38.72 -15.667,-52.486 -13.767,-13.765 -33.387,-19.621 -52.485,-15.667 z"
               fill="#8add8a"
               id="svg_150-5-0" />
          </g>
          <g
             stroke="null"
             id="svg_148-9-4"
             transform="matrix(0.20481412,0,0,0.20481412,-223.38357,-134.00731)" />
          <g
             stroke="null"
             id="svg_147-5-2"
             transform="matrix(0.20481412,0,0,0.20481412,-223.38357,-134.00731)" />
          <g
             stroke="null"
             id="svg_146-3-3"
             transform="matrix(0.20481412,0,0,0.20481412,-223.38357,-134.00731)" />
          <g
             stroke="null"
             id="svg_145-2-3"
             transform="matrix(0.20481412,0,0,0.20481412,-223.38357,-134.00731)" />
          <g
             stroke="null"
             id="svg_144-7-7"
             transform="matrix(0.20481412,0,0,0.20481412,-223.38357,-134.00731)" />
          <g
             stroke="null"
             id="svg_143-3-0"
             transform="matrix(0.20481412,0,0,0.20481412,-223.38357,-134.00731)" />
          <g
             stroke="null"
             id="svg_142-9-0"
             transform="matrix(0.20481412,0,0,0.20481412,-223.38357,-134.00731)" />
          <g
             stroke="null"
             id="svg_141-7-1"
             transform="matrix(0.20481412,0,0,0.20481412,-223.38357,-134.00731)" />
          <g
             stroke="null"
             id="svg_140-7-0"
             transform="matrix(0.20481412,0,0,0.20481412,-223.38357,-134.00731)" />
          <g
             stroke="null"
             id="svg_139-9-3"
             transform="matrix(0.20481412,0,0,0.20481412,-223.38357,-134.00731)" />
          <g
             stroke="null"
             id="svg_138-5-0"
             transform="matrix(0.20481412,0,0,0.20481412,-223.38357,-134.00731)" />
          <g
             stroke="null"
             id="svg_137-3-0"
             transform="matrix(0.20481412,0,0,0.20481412,-223.38357,-134.00731)" />
          <g
             stroke="null"
             id="svg_136-3-3"
             transform="matrix(0.20481412,0,0,0.20481412,-223.38357,-134.00731)" />
          <g
             stroke="null"
             id="svg_135-3-8"
             transform="matrix(0.20481412,0,0,0.20481412,-223.38357,-134.00731)" />
          <g
             stroke="null"
             id="svg_134-8-3"
             transform="matrix(0.20481412,0,0,0.20481412,-223.38357,-134.00731)" />
        </g>
        <g
           inkscape:transform-center-y="-3.3102474"
           inkscape:transform-center-x="17.702701"
           transform="matrix(-0.10110129,-0.47998621,0.47998621,-0.10110129,93.851514,976.79244)"
           stroke="null"
           id="svg_133-0-9">
          <g
             stroke="null"
             id="svg_151-4-6"
             transform="matrix(0.20481412,0,0,0.20481412,-223.38357,-134.00731)">
            <path
               stroke="null"
               d="m 3333.4326,4407.353 h -29.964 c -53.238,0 -96.549,43.312 -96.549,96.549 v 20.701 c 0,4.199 3.403,7.604 7.604,7.604 h 29.964 c 53.238,0 96.549,-43.312 96.549,-96.549 v -20.701 c 0,-4.199 -3.404,-7.604 -7.604,-7.604 z"
               fill="#54d195"
               id="svg_152-8-6"
               style="fill:#f0a02a;fill-opacity:1" />
          </g>
          <g
             stroke="null"
             id="svg_149-7-4"
             transform="matrix(0.20481412,0,0,0.20481412,-223.38357,-134.00731)">
            <path
               stroke="null"
               d="m 3130.4906,4402.585 c -2.97,0.614 -5.289,2.935 -5.904,5.904 -3.956,19.098 1.901,38.718 15.666,52.486 0,0 0,0 0,0 10.936,10.935 25.564,16.879 40.693,16.879 3.914,0 7.866,-0.398 11.792,-1.212 2.97,-0.614 5.289,-2.935 5.904,-5.904 3.956,-19.099 -1.901,-38.72 -15.667,-52.486 -13.767,-13.765 -33.387,-19.621 -52.485,-15.667 z"
               fill="#8add8a"
               id="svg_150-5-08"
               style="fill:#ffc431;fill-opacity:1" />
          </g>
          <g
             stroke="null"
             id="svg_148-9-2"
             transform="matrix(0.20481412,0,0,0.20481412,-223.38357,-134.00731)" />
          <g
             stroke="null"
             id="svg_147-5-0"
             transform="matrix(0.20481412,0,0,0.20481412,-223.38357,-134.00731)" />
          <g
             stroke="null"
             id="svg_146-3-6"
             transform="matrix(0.20481412,0,0,0.20481412,-223.38357,-134.00731)" />
          <g
             stroke="null"
             id="svg_145-2-0"
             transform="matrix(0.20481412,0,0,0.20481412,-223.38357,-134.00731)" />
          <g
             stroke="null"
             id="svg_144-7-72"
             transform="matrix(0.20481412,0,0,0.20481412,-223.38357,-134.00731)" />
          <g
             stroke="null"
             id="svg_143-3-9"
             transform="matrix(0.20481412,0,0,0.20481412,-223.38357,-134.00731)" />
          <g
             stroke="null"
             id="svg_142-9-8"
             transform="matrix(0.20481412,0,0,0.20481412,-223.38357,-134.00731)" />
          <g
             stroke="null"
             id="svg_141-7-11"
             transform="matrix(0.20481412,0,0,0.20481412,-223.38357,-134.00731)" />
          <g
             stroke="null"
             id="svg_140-7-6"
             transform="matrix(0.20481412,0,0,0.20481412,-223.38357,-134.00731)" />
          <g
             stroke="null"
             id="svg_139-9-1"
             transform="matrix(0.20481412,0,0,0.20481412,-223.38357,-134.00731)" />
          <g
             stroke="null"
             id="svg_138-5-1"
             transform="matrix(0.20481412,0,0,0.20481412,-223.38357,-134.00731)" />
          <g
             stroke="null"
             id="svg_137-3-8"
             transform="matrix(0.20481412,0,0,0.20481412,-223.38357,-134.00731)" />
          <g
             stroke="null"
             id="svg_136-3-1"
             transform="matrix(0.20481412,0,0,0.20481412,-223.38357,-134.00731)" />
          <g
             stroke="null"
             id="svg_135-3-1"
             transform="matrix(0.20481412,0,0,0.20481412,-223.38357,-134.00731)" />
          <g
             stroke="null"
             id="svg_134-8-5"
             transform="matrix(0.20481412,0,0,0.20481412,-223.38357,-134.00731)" />
        </g>
        <g
           inkscape:transform-center-y="0.44044091"
           inkscape:transform-center-x="5.0592141"
           id="svg_133-0-5-0"
           stroke="null"
           transform="matrix(0.07267719,0.48510437,-0.48510437,0.07267719,782.81156,422.81163)">
          <g
             transform="matrix(0.20481412,0,0,0.20481412,-223.38357,-134.00731)"
             id="svg_151-4-8-0"
             stroke="null">
            <path
               id="svg_152-8-9-8"
               fill="#54d195"
               d="m 3333.4326,4407.353 h -29.964 c -53.238,0 -96.549,43.312 -96.549,96.549 v 20.701 c 0,4.199 3.403,7.604 7.604,7.604 h 29.964 c 53.238,0 96.549,-43.312 96.549,-96.549 v -20.701 c 0,-4.199 -3.404,-7.604 -7.604,-7.604 z"
               stroke="null"
               style="fill:#f0a02a;fill-opacity:1" />
          </g>
          <g
             transform="matrix(0.20481412,0,0,0.20481412,-223.38357,-134.00731)"
             id="svg_149-7-6-3"
             stroke="null">
            <path
               id="svg_150-5-0-7"
               fill="#8add8a"
               d="m 3130.4906,4402.585 c -2.97,0.614 -5.289,2.935 -5.904,5.904 -3.956,19.098 1.901,38.718 15.666,52.486 0,0 0,0 0,0 10.936,10.935 25.564,16.879 40.693,16.879 3.914,0 7.866,-0.398 11.792,-1.212 2.97,-0.614 5.289,-2.935 5.904,-5.904 3.956,-19.099 -1.901,-38.72 -15.667,-52.486 -13.767,-13.765 -33.387,-19.621 -52.485,-15.667 z"
               stroke="null"
               style="fill:#ffc431;fill-opacity:1" />
          </g>
          <g
             transform="matrix(0.20481412,0,0,0.20481412,-223.38357,-134.00731)"
             id="svg_148-9-4-0"
             stroke="null" />
          <g
             transform="matrix(0.20481412,0,0,0.20481412,-223.38357,-134.00731)"
             id="svg_147-5-2-1"
             stroke="null" />
          <g
             transform="matrix(0.20481412,0,0,0.20481412,-223.38357,-134.00731)"
             id="svg_146-3-3-3"
             stroke="null" />
          <g
             transform="matrix(0.20481412,0,0,0.20481412,-223.38357,-134.00731)"
             id="svg_145-2-3-4"
             stroke="null" />
          <g
             transform="matrix(0.20481412,0,0,0.20481412,-223.38357,-134.00731)"
             id="svg_144-7-7-3"
             stroke="null" />
          <g
             transform="matrix(0.20481412,0,0,0.20481412,-223.38357,-134.00731)"
             id="svg_143-3-0-7"
             stroke="null" />
          <g
             transform="matrix(0.20481412,0,0,0.20481412,-223.38357,-134.00731)"
             id="svg_142-9-0-7"
             stroke="null" />
          <g
             transform="matrix(0.20481412,0,0,0.20481412,-223.38357,-134.00731)"
             id="svg_141-7-1-5"
             stroke="null" />
          <g
             transform="matrix(0.20481412,0,0,0.20481412,-223.38357,-134.00731)"
             id="svg_140-7-0-1"
             stroke="null" />
          <g
             transform="matrix(0.20481412,0,0,0.20481412,-223.38357,-134.00731)"
             id="svg_139-9-3-2"
             stroke="null" />
          <g
             transform="matrix(0.20481412,0,0,0.20481412,-223.38357,-134.00731)"
             id="svg_138-5-0-6"
             stroke="null" />
          <g
             transform="matrix(0.20481412,0,0,0.20481412,-223.38357,-134.00731)"
             id="svg_137-3-0-6"
             stroke="null" />
          <g
             transform="matrix(0.20481412,0,0,0.20481412,-223.38357,-134.00731)"
             id="svg_136-3-3-5"
             stroke="null" />
          <g
             transform="matrix(0.20481412,0,0,0.20481412,-223.38357,-134.00731)"
             id="svg_135-3-8-4"
             stroke="null" />
          <g
             transform="matrix(0.20481412,0,0,0.20481412,-223.38357,-134.00731)"
             id="svg_134-8-3-1"
             stroke="null" />
        </g>
        <g
           id="svg_133-0-9-7"
           stroke="null"
           transform="matrix(0.11914105,-0.37392641,0.37392641,0.11914105,52.999361,745.49428)"
           inkscape:transform-center-x="11.17904"
           inkscape:transform-center-y="-10.720328">
          <g
             transform="matrix(0.20481412,0,0,0.20481412,-223.38357,-134.00731)"
             id="svg_151-4-6-1"
             stroke="null">
            <path
               style="fill:#f0a02a;fill-opacity:1"
               id="svg_152-8-6-3"
               fill="#54d195"
               d="m 3333.4326,4407.353 h -29.964 c -53.238,0 -96.549,43.312 -96.549,96.549 v 20.701 c 0,4.199 3.403,7.604 7.604,7.604 h 29.964 c 53.238,0 96.549,-43.312 96.549,-96.549 v -20.701 c 0,-4.199 -3.404,-7.604 -7.604,-7.604 z"
               stroke="null" />
          </g>
          <g
             transform="matrix(0.20481412,0,0,0.20481412,-223.38357,-134.00731)"
             id="svg_149-7-4-4"
             stroke="null">
            <path
               style="fill:#ffc431;fill-opacity:1"
               id="svg_150-5-08-8"
               fill="#8add8a"
               d="m 3130.4906,4402.585 c -2.97,0.614 -5.289,2.935 -5.904,5.904 -3.956,19.098 1.901,38.718 15.666,52.486 0,0 0,0 0,0 10.936,10.935 25.564,16.879 40.693,16.879 3.914,0 7.866,-0.398 11.792,-1.212 2.97,-0.614 5.289,-2.935 5.904,-5.904 3.956,-19.099 -1.901,-38.72 -15.667,-52.486 -13.767,-13.765 -33.387,-19.621 -52.485,-15.667 z"
               stroke="null" />
          </g>
          <g
             transform="matrix(0.20481412,0,0,0.20481412,-223.38357,-134.00731)"
             id="svg_148-9-2-6"
             stroke="null" />
          <g
             transform="matrix(0.20481412,0,0,0.20481412,-223.38357,-134.00731)"
             id="svg_147-5-0-1"
             stroke="null" />
          <g
             transform="matrix(0.20481412,0,0,0.20481412,-223.38357,-134.00731)"
             id="svg_146-3-6-5"
             stroke="null" />
          <g
             transform="matrix(0.20481412,0,0,0.20481412,-223.38357,-134.00731)"
             id="svg_145-2-0-0"
             stroke="null" />
          <g
             transform="matrix(0.20481412,0,0,0.20481412,-223.38357,-134.00731)"
             id="svg_144-7-72-6"
             stroke="null" />
          <g
             transform="matrix(0.20481412,0,0,0.20481412,-223.38357,-134.00731)"
             id="svg_143-3-9-5"
             stroke="null" />
          <g
             transform="matrix(0.20481412,0,0,0.20481412,-223.38357,-134.00731)"
             id="svg_142-9-8-3"
             stroke="null" />
          <g
             transform="matrix(0.20481412,0,0,0.20481412,-223.38357,-134.00731)"
             id="svg_141-7-11-1"
             stroke="null" />
          <g
             transform="matrix(0.20481412,0,0,0.20481412,-223.38357,-134.00731)"
             id="svg_140-7-6-0"
             stroke="null" />
          <g
             transform="matrix(0.20481412,0,0,0.20481412,-223.38357,-134.00731)"
             id="svg_139-9-1-1"
             stroke="null" />
          <g
             transform="matrix(0.20481412,0,0,0.20481412,-223.38357,-134.00731)"
             id="svg_138-5-1-9"
             stroke="null" />
          <g
             transform="matrix(0.20481412,0,0,0.20481412,-223.38357,-134.00731)"
             id="svg_137-3-8-5"
             stroke="null" />
          <g
             transform="matrix(0.20481412,0,0,0.20481412,-223.38357,-134.00731)"
             id="svg_136-3-1-7"
             stroke="null" />
          <g
             transform="matrix(0.20481412,0,0,0.20481412,-223.38357,-134.00731)"
             id="svg_135-3-1-6"
             stroke="null" />
          <g
             transform="matrix(0.20481412,0,0,0.20481412,-223.38357,-134.00731)"
             id="svg_134-8-5-8"
             stroke="null" />
        </g>
        <g
           transform="matrix(-0.1409414,0.36626639,-0.36626639,-0.1409414,751.14003,631.98745)"
           stroke="null"
           id="svg_133-0-5-0-5"
           inkscape:transform-center-x="3.142536"
           inkscape:transform-center-y="-0.12670748">
          <g
             stroke="null"
             id="svg_151-4-8-0-4"
             transform="matrix(0.20481412,0,0,0.20481412,-223.38357,-134.00731)">
            <path
               style="fill:#f0a02a;fill-opacity:1"
               stroke="null"
               d="m 3333.4326,4407.353 h -29.964 c -53.238,0 -96.549,43.312 -96.549,96.549 v 20.701 c 0,4.199 3.403,7.604 7.604,7.604 h 29.964 c 53.238,0 96.549,-43.312 96.549,-96.549 v -20.701 c 0,-4.199 -3.404,-7.604 -7.604,-7.604 z"
               fill="#54d195"
               id="svg_152-8-9-8-7" />
          </g>
          <g
             stroke="null"
             id="svg_149-7-6-3-9"
             transform="matrix(0.20481412,0,0,0.20481412,-223.38357,-134.00731)">
            <path
               style="fill:#ffc431;fill-opacity:1"
               stroke="null"
               d="m 3130.4906,4402.585 c -2.97,0.614 -5.289,2.935 -5.904,5.904 -3.956,19.098 1.901,38.718 15.666,52.486 0,0 0,0 0,0 10.936,10.935 25.564,16.879 40.693,16.879 3.914,0 7.866,-0.398 11.792,-1.212 2.97,-0.614 5.289,-2.935 5.904,-5.904 3.956,-19.099 -1.901,-38.72 -15.667,-52.486 -13.767,-13.765 -33.387,-19.621 -52.485,-15.667 z"
               fill="#8add8a"
               id="svg_150-5-0-7-6" />
          </g>
          <g
             stroke="null"
             id="svg_148-9-4-0-6"
             transform="matrix(0.20481412,0,0,0.20481412,-223.38357,-134.00731)" />
          <g
             stroke="null"
             id="svg_147-5-2-1-6"
             transform="matrix(0.20481412,0,0,0.20481412,-223.38357,-134.00731)" />
          <g
             stroke="null"
             id="svg_146-3-3-3-6"
             transform="matrix(0.20481412,0,0,0.20481412,-223.38357,-134.00731)" />
          <g
             stroke="null"
             id="svg_145-2-3-4-7"
             transform="matrix(0.20481412,0,0,0.20481412,-223.38357,-134.00731)" />
          <g
             stroke="null"
             id="svg_144-7-7-3-0"
             transform="matrix(0.20481412,0,0,0.20481412,-223.38357,-134.00731)" />
          <g
             stroke="null"
             id="svg_143-3-0-7-4"
             transform="matrix(0.20481412,0,0,0.20481412,-223.38357,-134.00731)" />
          <g
             stroke="null"
             id="svg_142-9-0-7-1"
             transform="matrix(0.20481412,0,0,0.20481412,-223.38357,-134.00731)" />
          <g
             stroke="null"
             id="svg_141-7-1-5-0"
             transform="matrix(0.20481412,0,0,0.20481412,-223.38357,-134.00731)" />
          <g
             stroke="null"
             id="svg_140-7-0-1-8"
             transform="matrix(0.20481412,0,0,0.20481412,-223.38357,-134.00731)" />
          <g
             stroke="null"
             id="svg_139-9-3-2-1"
             transform="matrix(0.20481412,0,0,0.20481412,-223.38357,-134.00731)" />
          <g
             stroke="null"
             id="svg_138-5-0-6-4"
             transform="matrix(0.20481412,0,0,0.20481412,-223.38357,-134.00731)" />
          <g
             stroke="null"
             id="svg_137-3-0-6-8"
             transform="matrix(0.20481412,0,0,0.20481412,-223.38357,-134.00731)" />
          <g
             stroke="null"
             id="svg_136-3-3-5-8"
             transform="matrix(0.20481412,0,0,0.20481412,-223.38357,-134.00731)" />
          <g
             stroke="null"
             id="svg_135-3-8-4-4"
             transform="matrix(0.20481412,0,0,0.20481412,-223.38357,-134.00731)" />
          <g
             stroke="null"
             id="svg_134-8-3-1-5"
             transform="matrix(0.20481412,0,0,0.20481412,-223.38357,-134.00731)" />
        </g>
      </g>
    </g>
  </g>
</svg>
