<svg width="512" height="512" version="1.1" xmlns="http://www.w3.org/2000/svg"><g transform="matrix(1.01 0 0 1.01 -43.7 -293)"><path d="m431 335-119-40.5c-3.53-1.22-7.39-1.22-10.9 0l-119 40.5c-6.91 2.33-11.5 8.79-11.5 16.1v91c0 111 124 165 129 167 2.13 0.884 4.37 1.34 6.64 1.34 2.27 0 4.51-0.453 6.64-1.36 5.28-2.24 129-56.2 129-167v-91c0-7.3-4.62-13.8-11.5-16.1z" fill="#4caf50" style="stroke-width:22.7"/><path d="m381 421-62.3 79.3c-3.81 4.85-9.45 7.95-15.6 8.54l-2.22 0.113c-5.37 0-10.6-1.9-14.7-5.46l-39.7-34c-9.52-8.13-10.6-22.5-2.45-31.9 8.13-9.49 22.5-10.6 31.9-2.45l21.7 18.6 47.7-60.7c7.73-9.83 22-11.6 31.8-3.81 9.83 7.7 11.6 22 3.81 31.8z" fill="#fff" style="stroke-width:22.7"/><path d="m306 294h-0.431c-1.7 0.0453-3.4 0.34-5.03 0.906l-119 40.5c-6.91 2.33-11.5 8.79-11.5 16.1v91c0 111 124 165 129 167 2.13 0.884 4.37 1.34 6.64 1.34v-103c-1.13 0.295-2.29 0.498-3.44 0.612l-2.22 0.113c-5.37 0-10.6-1.9-14.7-5.46l-39.7-34c-9.52-8.13-10.6-22.5-2.45-31.9 4.46-5.21 10.8-7.91 17.2-7.91 5.21 0 10.5 1.79 14.7 5.44l21.7 18.6 8.88-11.3z" fill="#429846" style="stroke-width:22.7"/><path d="m261 429c-6.39 0-12.7 2.67-17.2 7.91-8.16 9.49-7.07 23.8 2.45 31.9l39.7 34c4.12 3.56 9.38 5.46 14.8 5.46l2.22-0.113c1.16-0.113 2.31-0.317 3.44-0.612v-65.8l-8.88 11.3-21.7-18.6c-4.26-3.67-9.49-5.46-14.7-5.46z" fill="#dedede" style="stroke-width:22.7"/><path d="m514 715-32.6-23.3c-1.41-1.01-3.1-1.55-4.84-1.55l-8.92-2e-3c-2.21 0-4.33 0.883-5.89 2.44-7.96 7.96-18.5 12.3-29.8 12.3-11.3 0-21.8-4.39-29.8-12.3-1.56-1.56-3.68-2.44-5.89-2.44l-8.92 2e-3c-1.74 0-3.43 0.542-4.84 1.55l-32.6 23.3c-20.9 14.9-33.4 39.2-33.4 64.9v7.88c0 4.6 3.73 8.33 8.33 8.33h214c4.6 0 8.33-3.73 8.33-8.33v-7.88c0-25.7-12.5-49.9-33.4-64.9z" fill="#c55f54" style="fill:#80c904"/><path d="m539 796c4.6 0 8.33-3.73 8.33-8.33v-7.88c0-25.7-12.5-49.9-33.4-64.9l-32.6-23.3c-1.41-1.01-3.11-1.55-4.84-1.55l-8.92-2e-3c-2.21 0-4.33 0.883-5.89 2.44-7.96 7.96-18.5 12.3-29.8 12.3v91.1z" fill="#c55f54" style="fill:#80c904"/><path d="m476 752c-4.6 0-8.33-3.73-8.33-8.33v-53.5c0-4.6 3.73-8.33 8.33-8.33 4.6 0 8.33 3.73 8.33 8.33v53.5c0 4.6-3.73 8.33-8.33 8.33z" fill="#ecb402" style="fill:#9a4121"/><path d="m389 752c-4.6 0-8.33-3.73-8.33-8.33v-53.5c0-4.6 3.73-8.33 8.33-8.33 4.6 0 8.33 3.73 8.33 8.33v53.5c0 4.6-3.73 8.33-8.33 8.33z" fill="#ffe100" style="fill:#9a4121"/><path d="m512 796h-159v-26.2c0-14.5 11.7-26.2 26.2-26.2h107c14.5 0 26.2 11.7 26.2 26.2z" fill="#ecb402" style="fill:#9a4121"/><path d="m505 709c-27.3 17.8-62.6 10.6-92.3-2.79-13.2 14.5-31.8 20.7-51.3 18.6v-14.6c0-13.8 8.08-25.8 19.8-31.4-3.74-7.38-5.79-15.6-5.79-24.2v-80.9c0-31.9 25.9-57.8 57.8-57.8 31.9 0 57.8 25.9 57.8 57.8 5e-3 110-0.0326 109 0.014 109 8.17 6.11 13.6 15.7 14 26.6z" fill="#ff6953" style="fill:#7e3a1a"/><path d="m445 558c-7.7-0.68-15.7-0.725-23.9 0-19.4 1.7-34.2 17.9-34.2 37.3v15.4c0 25.5 20.7 46.2 46.2 46.2 25.5 0 46.2-20.7 46.2-46.2v-15.4c-4.6e-4 -19.3-14.8-35.6-34.2-37.3z" fill="#ffdfba"/><path d="m412 706c-2.47 2.71-5.66 5.73-9.7 8.54-0.925-0.434-4.1-1.95-4.49-2.15-11.7-5.67-20.9-15.4-26-27.7 2.57-2.41 5.52-4.43 8.73-5.97 8.75 17.3 22.3 23.2 31.5 27.3z" fill="#e85e43" style="fill:#9a4121"/><path d="m448 530c-27.6-0.334-54.1 19.4-58.2 50-0.0643 0.479-0.187 0.951-0.364 1.4-3.09 7.92-2.49 13.2-2.49 28.8 0 4.75 0.716 9.33 2.05 13.6 0.179 0.577 0.278 1.17 0.278 1.78 0 0.275-4.7e-4 43.1 9.3e-4 43.4 0.0424 6.77-9.46 8.29-11.5 1.84-1.63-5.16-2.49-10.6-2.49-16.2v-80.2c0-37.2 36.2-67.6 74.5-56 6.48 1.96 4.98 11.6-1.78 11.5z" fill="#e95f43" style="fill:#9a4121"/><path d="m421 648c-2.41 3.6-6.69 4.38-9.92 2.64-14.7-7.87-24.6-23.5-24.6-41.3-5e-3 -15.9-0.168-17.3 0.597-21.5 2.34-13 11.4-23.7 23.6-28.3-4.9 5.18-8.31 11.7-9.62 19-0.769 4.25-0.597 5.62-0.597 22.1 0 15.6 7.54 28.8 18.7 37.1 3.29 2.43 4.14 6.97 1.87 10.4z" fill="#ffebd2"/><g transform="matrix(1 0 0 1 -43.5 -53.5)"><path d="m500 557h-47.7c-21.6 0-39.2 17.6-39.2 39.2v7.43c0 4.1 3.32 7.43 7.43 7.43h111c4.1 0 7.43-3.32 7.43-7.43v-7.43c0-21.6-17.6-39.2-39.2-39.2z" fill="#ffe100"/><path d="m539 597v7.43c0 4.1-3.33 7.43-7.43 7.43h-55.7v-54.1h23.9c21.6 0 39.2 17.6 39.2 39.2z" fill="#ecb402"/><path d="m579 604h-207c-4.1 0-7.43 3.33-7.43 7.43 0 13.5 10.9 24.4 24.4 24.4h173c13.5 0 24.4-10.9 24.4-24.4 0-4.1-3.33-7.43-7.43-7.43z" fill="#ecb402"/><path d="m587 612c0 13.5-10.9 24.4-24.4 24.4h-86.5v-31.8h103c4.1 0 7.43 3.33 7.43 7.43z" fill="#bb8901"/></g><path d="m494 769c-1.07-1.21 5.52-5.43 7.78-5.51 2.26-0.0774 7.74 17.1 1.98 18.4-2.47 0.554-15.7 1.65-25.8 0.323-2.1-0.276-2.29-5.31-1.04-7.26 1.67-2.61 5.6-1.92 8.27-0.998 5.95 2.06 9.87 3.69 11.4 1.25 1.2-1.91-1.55-4.97-2.62-6.18z" style="clip-rule:evenodd;fill-rule:evenodd;fill:#f4e8d7;image-rendering:optimizeQuality;shape-rendering:geometricPrecision"/><ellipse transform="rotate(-1.03)" cx="480" cy="798" rx="4.45" ry="4.31" style="clip-rule:evenodd;fill-rule:evenodd;fill:#f4e8d7;image-rendering:optimizeQuality;shape-rendering:geometricPrecision"/><g transform="matrix(.541 .422 -.422 .541 574 86.5)"><g transform="matrix(.205 0 0 .205 -223 -134)"><path d="m3333 4407h-30c-53.2 0-96.5 43.3-96.5 96.5v20.7c0 4.2 3.4 7.6 7.6 7.6h30c53.2 0 96.5-43.3 96.5-96.5v-20.7c0-4.2-3.4-7.6-7.6-7.6z" fill="#54d195" style="fill:#f0a02a"/></g><g transform="matrix(.205 0 0 .205 -223 -134)"><path d="m3130 4403c-2.97 0.614-5.29 2.94-5.9 5.9-3.96 19.1 1.9 38.7 15.7 52.5 10.9 10.9 25.6 16.9 40.7 16.9 3.91 0 7.87-0.398 11.8-1.21 2.97-0.614 5.29-2.94 5.9-5.9 3.96-19.1-1.9-38.7-15.7-52.5-13.8-13.8-33.4-19.6-52.5-15.7z" fill="#8add8a" style="fill:#ffc431"/></g></g><g transform="matrix(-.515 -.453 .453 -.515 337 1300)"><g transform="matrix(.205 0 0 .205 -223 -134)"><path d="m3333 4407h-30c-53.2 0-96.5 43.3-96.5 96.5v20.7c0 4.2 3.4 7.6 7.6 7.6h30c53.2 0 96.5-43.3 96.5-96.5v-20.7c0-4.2-3.4-7.6-7.6-7.6z" fill="#54d195" style="fill:#f0a02a"/></g><g transform="matrix(.205 0 0 .205 -223 -134)"><path d="m3130 4403c-2.97 0.614-5.29 2.94-5.9 5.9-3.96 19.1 1.9 38.7 15.7 52.5 10.9 10.9 25.6 16.9 40.7 16.9 3.91 0 7.87-0.398 11.8-1.21 2.97-0.614 5.29-2.94 5.9-5.9 3.96-19.1-1.9-38.7-15.7-52.5-13.8-13.8-33.4-19.6-52.5-15.7z" fill="#8add8a" style="fill:#ffc431"/></g></g><g transform="matrix(-.101 -.48 .48 -.101 93.9 977)"><g transform="matrix(.205 0 0 .205 -223 -134)"><path d="m3333 4407h-30c-53.2 0-96.5 43.3-96.5 96.5v20.7c0 4.2 3.4 7.6 7.6 7.6h30c53.2 0 96.5-43.3 96.5-96.5v-20.7c0-4.2-3.4-7.6-7.6-7.6z" fill="#54d195" style="fill:#f0a02a"/></g><g transform="matrix(.205 0 0 .205 -223 -134)"><path d="m3130 4403c-2.97 0.614-5.29 2.94-5.9 5.9-3.96 19.1 1.9 38.7 15.7 52.5 10.9 10.9 25.6 16.9 40.7 16.9 3.91 0 7.87-0.398 11.8-1.21 2.97-0.614 5.29-2.94 5.9-5.9 3.96-19.1-1.9-38.7-15.7-52.5-13.8-13.8-33.4-19.6-52.5-15.7z" fill="#8add8a" style="fill:#ffc431"/></g></g><g transform="matrix(.0727 .485 -.485 .0727 783 423)"><g transform="matrix(.205 0 0 .205 -223 -134)"><path d="m3333 4407h-30c-53.2 0-96.5 43.3-96.5 96.5v20.7c0 4.2 3.4 7.6 7.6 7.6h30c53.2 0 96.5-43.3 96.5-96.5v-20.7c0-4.2-3.4-7.6-7.6-7.6z" fill="#54d195" style="fill:#f0a02a"/></g><g transform="matrix(.205 0 0 .205 -223 -134)"><path d="m3130 4403c-2.97 0.614-5.29 2.94-5.9 5.9-3.96 19.1 1.9 38.7 15.7 52.5 10.9 10.9 25.6 16.9 40.7 16.9 3.91 0 7.87-0.398 11.8-1.21 2.97-0.614 5.29-2.94 5.9-5.9 3.96-19.1-1.9-38.7-15.7-52.5-13.8-13.8-33.4-19.6-52.5-15.7z" fill="#8add8a" style="fill:#ffc431"/></g></g><g transform="matrix(.119 -.374 .374 .119 53 745)"><g transform="matrix(.205 0 0 .205 -223 -134)"><path d="m3333 4407h-30c-53.2 0-96.5 43.3-96.5 96.5v20.7c0 4.2 3.4 7.6 7.6 7.6h30c53.2 0 96.5-43.3 96.5-96.5v-20.7c0-4.2-3.4-7.6-7.6-7.6z" fill="#54d195" style="fill:#f0a02a"/></g><g transform="matrix(.205 0 0 .205 -223 -134)"><path d="m3130 4403c-2.97 0.614-5.29 2.94-5.9 5.9-3.96 19.1 1.9 38.7 15.7 52.5 10.9 10.9 25.6 16.9 40.7 16.9 3.91 0 7.87-0.398 11.8-1.21 2.97-0.614 5.29-2.94 5.9-5.9 3.96-19.1-1.9-38.7-15.7-52.5-13.8-13.8-33.4-19.6-52.5-15.7z" fill="#8add8a" style="fill:#ffc431"/></g></g><g transform="matrix(-.141 .366 -.366 -.141 751 632)"><g transform="matrix(.205 0 0 .205 -223 -134)"><path d="m3333 4407h-30c-53.2 0-96.5 43.3-96.5 96.5v20.7c0 4.2 3.4 7.6 7.6 7.6h30c53.2 0 96.5-43.3 96.5-96.5v-20.7c0-4.2-3.4-7.6-7.6-7.6z" fill="#54d195" style="fill:#f0a02a"/></g><g transform="matrix(.205 0 0 .205 -223 -134)"><path d="m3130 4403c-2.97 0.614-5.29 2.94-5.9 5.9-3.96 19.1 1.9 38.7 15.7 52.5 10.9 10.9 25.6 16.9 40.7 16.9 3.91 0 7.87-0.398 11.8-1.21 2.97-0.614 5.29-2.94 5.9-5.9 3.96-19.1-1.9-38.7-15.7-52.5-13.8-13.8-33.4-19.6-52.5-15.7z" fill="#8add8a" style="fill:#ffc431"/></g></g><path d="m226 543c-5.56-26.2-21.5-44.1-28.6-47.7-16.1-8.05-21.5 4.77-28.6 4.77-7.15 0-12.5-12.8-28.6-4.77-7.15 3.58-23.1 21.5-28.6 47.7-5.56 26.2 57.2 4.77 57.2 4.77s62.8 21.5 57.2-4.77z" fill="#ffd24f" style="stroke-width:.725"/><g transform="matrix(.725 0 0 .725 -1442 -1129)"><ellipse cx="2223" cy="2359" rx="151" ry="55.9" fill="#ffbe1e"/></g><g transform="matrix(.725 0 0 .725 -1442 -1129)"><path d="m2134 2400c-9.86-2.47-16.3 2.8-16.3 13.2 0 13.7 13.3 47.3 27.2 26.3s-10.9-39.5-10.9-39.5z" fill="#ffe1b2"/></g><g transform="matrix(.725 0 0 .725 -1442 -1129)"><path d="m2310 2400c10.8-2.47 17.8 2.8 17.8 13.2 0 13.7-14.5 47.3-29.7 26.3s11.9-39.5 11.9-39.5z" fill="#ffe1b2"/></g><g transform="matrix(.725 0 0 .725 -1442 -1129)"><path d="m2150 2519c14.7-9.48 13.1-37.7 13.1-44.3h118c0 6.58-1.82 34.8 12.9 44.3l-72.1 80.8z" fill="#ffd7a3"/></g><g transform="matrix(.725 0 0 .725 -1442 -1129)"><path d="m2269 2547 26.1-28.1c-14.7-9.47-12.9-37.7-12.9-44.3h-118c8.5 24.4 64.7 66.4 105 72.4z" fill="#fdc88e"/></g><g transform="matrix(.725 0 0 .725 -1442 -1129)"><path d="m2374 2658c10.9 0 19.7-8.84 19.7-19.7v-39.2c0-29-22.6-59.9-50.1-68.7l-41.2-13.2c-22.1 16.9-53.8 40-79.8 40s-57.6-23.1-79.8-40l-41.2 13.2c-27.6 8.82-50.1 39.7-50.1 68.7v39.2c0 10.9 8.84 19.7 19.7 19.7z" fill="#FF6953" style="fill:#80c904"/></g><g transform="matrix(.725 0 0 .725 -1442 -1129)"><path d="m2223 2557-27.5 27.5c-2.86 2.86-7.6 2.49-9.98-0.783l-48.1-66.2 15.3-15.3c2.48-2.48 6.45-2.58 9.06-0.238z" fill="#FFBE1E" style="fill:#7e3a1a"/></g><g transform="matrix(.725 0 0 .725 -1442 -1129)"><path d="m2223 2557 27.5 27.5c2.86 2.86 7.6 2.49 9.98-0.783l48.1-66.2-15.3-15.3c-2.48-2.48-6.45-2.58-9.06-0.238z" fill="#FFBE1E" style="fill:#7e3a1a"/></g><g transform="matrix(.725 0 0 .725 -1442 -1129)"><path d="m2135 2355c-1.54 9.31-1.62 20.5-1.62 33.8 0 52.7 29.5 118 89.6 118s89.6-65.8 89.6-118c0-13.3-0.084-24.5-1.62-33.8-24.1-8.13-54.7-13-88-13s-63.9 4.87-88 13z" fill="#ffe1b2"/></g><g transform="matrix(.725 0 0 .725 -1442 -1129)"><path d="m2313 2366c-5.27-6.76-10.9-13.7-10.9-13.7v6.58c1.63 59.6-19.6 85.5-19.6 85.5l-27 3.03c-21.1 2.36-42.4 2.36-63.5 0l-27-3.03s-21.2-25.9-19.6-85.5v-6.58s-5.65 6.94-10.9 13.7c-1.37 5.87-3.57 12.2-3.57 19.3 0 52.7 31.5 129 92.8 129s91.4-76 91.4-129c0-7-0.769-13.4-2.14-19.3zm-109 94h39.2c5.37 0 9.98 3.27 12 7.94-7.23 3.17-18.3 5.22-30.8 5.22-13.2 0-24.8-2.28-32-5.76 2.13-4.36 6.54-7.4 11.7-7.4z" fill="#a7795e"/></g><g transform="matrix(.725 0 0 .725 -1442 -1129)"><path d="m2226 2454c0-8.69-8.43-10.7-14-8.55-10.2 3.86-21.4 14.6-30.8 7.97 0 0 3.29 13.9 8.84 13.9 11.1 0 36 1.45 36-13.3z" fill="#543d38"/></g><g transform="matrix(.725 0 0 .725 -1442 -1129)"><path d="m2224 2454c0-8.69 8.43-10.7 14-8.55 10.2 3.86 21.4 14.6 30.8 7.97 0 0-3.29 13.9-8.84 13.9-11.1 0-36 1.45-36-13.3z" fill="#543d38"/></g><path d="m250 702-19.1-6.11v58.7c0 2.18-1.45 4.11-3.57 4.64-16.1 3.98-36.4 6.36-58.4 6.36-22 0-42.3-2.38-58.4-6.36-2.12-0.522-3.57-2.45-3.57-4.64v-58.7l-19.1 6.11v95.2h162v-95.2z" fill="#C55F54" style="fill:#9a4121;stroke-width:.725"/><g transform="matrix(.725 0 0 .725 -1442 -1129)"><path d="m2131 2400 17.8 3.28s6.94-38.9 10.7-55.1c-9.7 1.94-18.9 4.27-27.2 7-1.58 9.31-1.67 20.5-1.67 33.8 1e-3 3.61 0.157 7.29 0.442 11z" fill="#543d38"/></g><g transform="matrix(.725 0 0 .725 -1442 -1129)"><path d="m2314 2400-17.8 3.28s-6.94-38.9-10.7-55.1c9.7 1.94 18.9 4.27 27.2 7 1.58 9.31 1.67 20.5 1.67 33.8 0 3.61-0.157 7.29-0.442 11z" fill="#543d38"/></g><g transform="matrix(.725 0 0 .725 -1442 -1129)"><path d="m2261 2365 15.8-18c-16.8-2.96-35.1-4.65-54.4-4.65-11.8 0-23.2 0.637-34.1 1.78 10.3-0.706 50.9 4.76 72.7 20.8z" fill="#543d38"/></g><path d="m233 769c-1.07-1.21 5.52-5.43 7.78-5.51 2.26-0.0774 7.74 17.1 1.98 18.4-2.47 0.554-15.7 1.65-25.8 0.323-2.1-0.276-2.29-5.31-1.04-7.26 1.67-2.61 5.6-1.92 8.27-0.998 5.95 2.06 9.87 3.69 11.4 1.25 1.2-1.91-1.55-4.97-2.62-6.18z" style="clip-rule:evenodd;fill-rule:evenodd;fill:#f4e8d7;image-rendering:optimizeQuality;shape-rendering:geometricPrecision"/><ellipse transform="rotate(-1.03)" cx="218" cy="793" rx="4.45" ry="4.31" style="clip-rule:evenodd;fill-rule:evenodd;fill:#f4e8d7;image-rendering:optimizeQuality;shape-rendering:geometricPrecision"/></g></svg>
