<svg width="512" height="512" version="1.1" xmlns="http://www.w3.org/2000/svg"><g><title>background</title><rect id="canvas_background" x="-1" y="-1" width="514" height="514" fill="none"/><g id="canvasGrid" x="0" y="0" width="100%" height="100%" display="none" overflow="visible"><rect width="100%" height="100%" fill="url(#gridpattern)" stroke-width="0"/></g></g><g><title>Layer 1</title><g stroke="null"><g transform="matrix(.362 0 0 .362 -629 -155)" stroke="null"><rect x="2524" y="601" width="300" height="70.6" fill="#EACA6F"/><path d="m2842 998h0.794c9.3 0.03 16.8 7.56 16.9 16.9v36.9c-0.03 9.3-7.56 16.8-16.9 16.9h-337c-9.3-0.03-16.8-7.56-16.9-16.9v-36.9c0.03-9.3 7.56-16.8 16.9-16.9h0.794v-265c-9.74-0.029-17.6-7.92-17.7-17.7v-35.3c0.028-9.74 7.92-17.6 17.7-17.7h335c9.74 0.028 17.6 7.92 17.7 17.7v35.3c-0.07 9.72-7.93 17.6-17.7 17.7v265h1e-3z" fill="#BFA057"/><path d="m2515 557h318c9.75 0 17.7 7.9 17.7 17.7v26.5c0 4.88-3.95 8.83-8.83 8.83h-335c-4.88 0-8.83-3.95-8.83-8.83v-26.5c0-9.75 7.9-17.7 17.7-17.7z" fill="#5496CE"/><path d="m2586 786h177c9.75 0 17.7 7.9 17.7 17.7v97.1c0 9.75-7.9 17.7-17.7 17.7h-177c-9.75 0-17.7-7.9-17.7-17.7v-97.1c0-9.75 7.9-17.7 17.7-17.7z" fill="#FAEDBD"/><path d="m2736 839h-124c-4.88 0-8.83-3.95-8.83-8.83s3.95-8.83 8.83-8.83h124c4.88 0 8.83 3.95 8.83 8.83s-3.95 8.83-8.83 8.83z" fill="#BBB084" stroke="null"/><g fill="#935847"><path d="m2568 742c-0.015 4.87-3.96 8.81-8.83 8.83h-53v-17.7h53c4.87 0.014 8.81 3.96 8.83 8.83z"/><path d="m2842 734v17.7h-97.1c-4.88 0-8.83-3.95-8.83-8.83 0-4.88 3.95-8.83 8.83-8.83h97.1v1e-3z"/><path d="m2612 990c-0.015 4.87-3.96 8.81-8.83 8.83h-97.1v-17.7h97.1c4.87 0.014 8.81 3.96 8.83 8.83z"/><path d="m2842 981v17.7h-26.5c-4.88 0-8.83-3.95-8.83-8.83s3.95-8.83 8.83-8.83h26.5v1e-3z"/></g></g><g transform="matrix(.431 0 0 .431 -377 -81.4)" stroke="null"><path d="m1587 250a16 16 0 0 1-16 16h-147a47.2 47.2 0 0 1-5.26 10.5 47.9 47.9 0 0 1-40 21.5h-48a48 48 0 1 1 0-96h48a48 48 0 0 1 45.3 32h147a16 16 0 0 1 16 16z" fill="#92563a"/><g fill="#7a432a"><path d="m1331 202v48a8 8 0 0 1-16 0v-45.3a47.9 47.9 0 0 1 16-2.73z"/><path d="m1355 258a8 8 0 0 1-8-8v-48h16v48a8 8 0 0 1-8 8z"/><path d="m1395 205v45.3a8 8 0 0 1-16 0v-48a47.6 47.6 0 0 1 16 2.74z"/></g><path d="m1507 501a111 111 0 0 1-7.56 40.3l-46.5 119a7.99 7.99 0 0 1-7.45 5.1h-181a7.99 7.99 0 0 1-7.45-5.1l-46.5-119a111 111 0 0 1 31.3-125l17.2-14.7v-40h192v40l17.2 14.7a111 111 0 0 1 38.8 84.4z" fill="#fae890"/><path d="m1507 501a111 111 0 0 1-7.56 40.3l-46.5 119a7.99 7.99 0 0 1-7.45 5.1h-181a7.99 7.99 0 0 1-7.45-5.1l-39-100c91.1-19.4 179-63.7 247-147l3.21 2.75a111 111 0 0 1 38.8 84.4z" fill="#f5df73"/><path d="m1507 501a111 111 0 0 1-7.56 40.3l-46.5 119a7.99 7.99 0 0 1-7.45 5.1h-181a7.99 7.99 0 0 1-7.45-5.1l-46.5-119a111 111 0 0 1-4.2-67.4h109a24 24 0 0 0 24-24v-152h-8a48.1 48.1 0 0 1-45.3-32h139a47.2 47.2 0 0 1-5.26 10.5 47.9 47.9 0 0 1-40 21.5h-8v152a24 24 0 0 0 24 24h109a111 111 0 0 1 3.36 27.1z" fill="#ffb531"/><path d="m1507 501a111 111 0 0 1-7.56 40.3l-46.5 119a7.99 7.99 0 0 1-7.45 5.1h-181a7.99 7.99 0 0 1-7.45-5.1l-39-100c66-14 131-41.2 187-86.7h98.8a111 111 0 0 1 3.36 27.1z" fill="#ffa912"/><path d="m1439 394h-144a12 12 0 0 0 0 24h144a12 12 0 0 0 0-24z" fill="#f5df73"/><path d="m1339 394h32v24h-32v-24z" fill="#edd561"/><path d="m1243 501a70.8 70.8 0 0 1 5.38-27.1h-17c-0.633 1.93-1.22 3.88-1.72 5.85a87.2 87.2 0 0 0 3.29 52.9l15.6 40.2 14.9-5.8-15.6-40.2a70.8 70.8 0 0 1-4.84-25.8z" fill="#ffcb73"/><path d="m1268 447 8.19-7.02-10.4-12.1-8.19 7.02c-1.37 1.17-2.72 2.4-4.01 3.65l11.1 11.5c1.06-1.02 2.16-2.03 3.28-2.99z" fill="#ffef9e"/><path d="m1250 472a71.6 71.6 0 0 1 7.89-13.2l-12.8-9.64a87.6 87.6 0 0 0-9.65 16.2 86 86 0 0 0-3.61 9.27h17c0.354-0.866 0.715-1.73 1.12-2.58z" fill="#ffef9e"/></g><path d="m436 26.9v11.3c0 5.41-1.34 10.7-3.91 15.5l-14.3 26.5c-6.28 11.7-9.57 24.7-9.57 37.9v62.6c0 7.03 5.7 12.7 12.7 12.7h73.9c7.03 0 12.7-5.7 12.7-12.7v-62.6c0-13.2-3.29-26.3-9.57-37.9l-14.3-26.5c-2.57-4.77-3.91-10.1-3.91-15.5v-11.3h-43.8z" fill="#E4E7E9"/><g transform="matrix(.364 0 0 .364 -282 -14.9)" fill="#3E4B58"><path d="m1963 520-17.4-17.3c-8.54-8.48-9.43-22-2.08-31.5 8.06-10.5 6.1-25.5-4.37-33.5-13.5-10.3-29.7-12.4-43.9-8.07v108c0 19.3 15.7 35 35 35h34c3.89-4.26 6.86-9.45 8.5-15.3 3.72-13.2-0.029-27.5-9.79-37.2z"/><path d="m2103 188c-3.9-7.23-6.76-14.9-8.55-22.9-6.18-0.298-12.4-0.299-18.6 0.012-13.6 0.681-26.2 7.65-33.9 18.9-13.7 19.7-9.56 46.6 9.32 61.4 13 10.2 30.4 12.8 45.8 6.96 8.72-3.3 18.3-3.43 27.1-0.376l16.4 5.68-37.5-69.6z"/></g><path d="m478 7.18h-41.9c-4.56 0-8.25 3.69-8.25 8.25v6.89c0 2.51 2.04 4.55 4.55 4.55h49.3c2.51 0 4.55-2.04 4.55-4.55v-6.89c3.64e-4 -4.56-3.69-8.25-8.25-8.25z" fill="#59A8ED"/><path d="m478 7.18h-10.8c4.56 0 8.25 3.69 8.25 8.25v6.89c0 2.51-2.04 4.55-4.55 4.55h10.8c2.51 0 4.55-2.04 4.55-4.55v-6.89c0-4.56-3.69-8.25-8.25-8.25z" opacity=".1"/><path d="m498 80.2-14.3-26.5c-2.57-4.77-3.91-10.1-3.91-15.5v-11.3h-43.8v10.1h30.4c0.686 0 1.24 0.556 1.24 1.24 0 5.41 1.34 10.7 3.91 15.5l14.3 26.5c6.28 11.7 9.57 24.7 9.57 37.9v62.6c0 7.03-5.7 12.7-12.7 12.7h12.2c7.03 0 12.7-5.7 12.7-12.7v-62.6c7.28e-4 -13.2-3.29-26.3-9.57-37.9z" opacity=".1"/><circle transform="matrix(.364 0 0 .364 -282 -14.9)" cx="2032" cy="398" r="32.1" fill="#FDA354"/><path d="m464 120h-12.1c-3.37 2.05-5.63 5.76-5.63 10 0 2.05 0.531 3.98 1.46 5.66h20.5c0.93-1.68 1.46-3.61 1.46-5.66 0-4.24-2.25-7.95-5.63-10z" opacity=".1"/><path d="m467 88h-18.7c-3.26 0-6.13 2.16-7.04 5.29l-1.3 4.5c-2.14 7.39-3.22 15-3.22 22.7v4.77c0 2.52 2.04 4.57 4.57 4.57h32.7c2.52 0 4.57-2.04 4.57-4.57v-4.77c0-7.7-1.09-15.4-3.22-22.7l-1.3-4.5c-0.907-3.13-3.78-5.29-7.04-5.29z" fill="#FDA354"/><path d="m475 97.8-1.3-4.5c-0.907-3.13-3.78-5.29-7.04-5.29h-6.66c3.26 0 6.13 2.16 7.04 5.29l1.3 4.5c2.14 7.39 3.22 15 3.22 22.7v4.77c0 2.52-2.04 4.57-4.57 4.57h6.66c2.52 0 4.57-2.04 4.57-4.57v-4.77c0-7.7-1.09-15.4-3.22-22.7z" opacity=".1"/><path d="m470 152 4.83-1.8c2.19-0.814 4.61-0.78 6.77 0.0946l5.75 2.32c5.98 2.41 7.79 9.99 3.56 14.9l-1.12 1.28c-2.19 2.51-5.55 3.67-8.82 3.05l-9.47-1.81c-5.04-0.961-8.37-5.79-7.47-10.8 0.58-3.27 2.85-5.99 5.96-7.15z" fill="#3E4B58"/><path d="m114 205v-14.4h-47.8v14.4l-17 17c-7.48 7.47-11.5 17.7-11.2 28.3l3.78 121c0.325 10-1.13 20-4.31 29.5v23.9c0 7.93 6.43 14.4 14.4 14.4h76.6c7.93 0 14.4-6.43 14.4-14.4v-23.9c-3.17-9.49-4.63-19.5-4.31-29.5l3.78-121c0.335-10.6-3.72-20.8-11.2-28.3l-17-17z" fill="#CFCFCF"/><rect transform="matrix(.543 0 0 .543 -894 -912)" x="1768" y="2032" width="88.1" height="17.6" fill="#BFBFBF"/><path d="m142 250c0.201-6.31-1.16-12.6-3.97-18.2l-9.19 2.06c-13 2.91-26.6 2.91-39.6 0-15.2-3.4-31.1-2.82-46.1 1.67l-3.3 1c-1.5 4.33-2.2 8.91-2.06 13.5l3.78 121c0.325 10-1.13 20-4.31 29.5v23.9c0 7.93 6.43 14.4 14.4 14.4h76.6c7.93 0 14.4-6.43 14.4-14.4v-23.9c-3.17-9.49-4.63-19.5-4.31-29.5l3.78-121z" fill="#FDB62F"/><g transform="matrix(.543 0 0 .543 -894 -912)" fill="#77A226"><path d="m1908 2164h-191l6.26 201c0.264 9.32-0.264 18.6-1.59 27.9h181c-1.32-9.22-1.85-18.5-1.59-27.9l6.26-201z"/><path d="m1777 1979h70.5c9.74 0 17.6 7.89 17.6 17.6v35.3h-106v-35.3c0-9.74 7.9-17.6 17.6-17.6z"/></g><path d="m113 235c0.239 0.43 0.43 0.861 0.718 1.29 5.09-0.277 10.1-0.966 15.1-2.06l9.19-2.06c0.627 1.33 1.19 2.68 1.67 4.07-1.88-5.31-4.92-10.1-8.9-14.1l-17-17v-14.4h-23.9v9.57l23.1 34.6z" fill="#BFBFBF"/><g transform="matrix(.543 0 0 .543 -894 -912)" fill="#CFCFCF"><path d="m1908 2133c0.176 2.73 0.176 5.46 0 8.2 0.176-2.73 0.176-5.46 0-8.2z"/><path d="m1907 2125c0.45 2 0.776 4.04 0.97 6.08-0.194-2.04-0.512-4.08-0.97-6.08z"/><path d="m1905 2117c0.705 2.12 1.23 4.23 1.76 6.35-0.529-2.12-1.15-4.23-1.76-6.35z"/></g><g transform="matrix(.543 0 0 .543 -894 -912)" fill="#FDB62F"><path d="m1908 2131c0.044 0.705 0.044 1.41 0 2.12 0.045-0.705 0.045-1.41 0-2.12z"/><path d="m1907 2123c0.044 0.679 0.044 1.35 0 2.03 0.044-0.679 0.044-1.35 0-2.03z"/><path d="m1904 2116 0.529 1.32-0.529-1.32z"/></g><g transform="matrix(.543 0 0 .543 -894 -912)" fill="#FD9133"><path d="m1903 2393h-41l-0.793 64.7c-0.194 17.9-14.7 32.3-32.6 32.3h54.3c14.6 0 26.4-11.8 26.4-26.4v-44.1c-2.86-8.62-4.98-17.5-6.35-26.4z"/><path d="m1884 2112c-9.17 2.01-18.5 3.28-27.9 3.79 5.83 9.56 8.88 20.5 8.81 31.7l0.176 16.7h42.8l-6.7 201 6.96-224c0.176-2.73 0.176-5.46 0-8.2 0.044-0.705 0.044-1.41 0-2.12-0.194-2.04-0.52-4.08-0.97-6.08 0.044-0.679 0.044-1.35 0-2.03-0.529-2.12-1.06-4.23-1.76-6.35l-0.529-1.32c-0.899-2.55-1.93-5.05-3.08-7.49l-17.9 3.79z"/></g><g transform="matrix(.543 0 0 .543 -894 -912)" fill="#77A226"><path d="m1902 2365v14c-0.088-4.67-0.176-9.34 0-14z"/><path d="m1902 2379c0 4.58 0.793 8.81 1.41 13.8-0.616-4.58-1.14-8.81-1.41-13.8z"/></g><path d="m119 262-1.53 124h22.2c-0.335-2.49-0.622-4.78-0.765-7.51v-7.61l3.06-109h-23z" fill="#5A821E"/><ellipse transform="matrix(.543 0 0 .543 -894 -912)" cx="1813" cy="2226" rx="61.7" ry="26.4" fill="#fff"/><g transform="matrix(.543 0 0 .543 -894 -912)" fill="#5A821E"><rect x="1751" y="2349" width="123" height="17.6"/><rect x="1751" y="2279" width="123" height="17.6"/><rect x="1768" y="2314" width="88.1" height="17.6"/><path d="m1848 1979h-35.3c9.74 0 17.6 7.89 17.6 17.6v35.3h35.3v-35.3c1e-3 -9.74-7.89-17.6-17.6-17.6z"/></g><g transform="matrix(1.01 0 0 1.01 -112 -157)" stroke="null"><g stroke="null"><g stroke="null"><path d="m593 315-19.9-10-19.9 10-19.9-10-19.9 10-19.9-10-19.9 10-19.9-10-19.9 10-19.9-10-19.9 10-19.9-10-19.9 10-19.9-10-19.9 10-19.9-10-19.9 10-19.9-10v353h358v-353l-19.9 10z" fill="#e6b869" stroke="null"/><path d="m593 315-19.9-10-19.9 10-19.9-10-19.9 10-19.9-10-19.9 10-19.9-10-19.9 10-19.9-10-19.9 10-19.9-10-19.9 10-19.9-10-19.9 10-19.9-10-19.9 10-19.9-10v353h358v-353l-19.9 10z" fill="#e6b869" stroke="null" style="fill:#9a4121"/><path d="m533 305v353l39.8-39.8v-313l-20 10-19.9-10z" fill="#ba8d3f" style="fill:#7e3a1a"/><path d="m613 305v353l-39.8-39.8v-313l20 10 19.9-10z" fill="#c79f5b" style="fill:#a40"/></g></g><path d="m416 414c-8.5-9.6 43.7-43 61.7-43.6 17.9-0.613 61.3 135 15.7 146-19.6 4.39-125 13-204 2.56-16.6-2.19-18.1-42.1-8.27-57.5 13.2-20.7 44.4-15.2 65.5-7.9 47.2 16.3 78.2 29.2 90.4 9.88 9.51-15.1-12.2-39.4-20.7-49z" style="clip-rule:evenodd;fill-rule:evenodd;fill:#f4e8d7;image-rendering:optimizeQuality;shape-rendering:geometricPrecision;stroke:none"/><ellipse transform="rotate(-1.03)" cx="403" cy="581" rx="35.2" ry="34.1" style="clip-rule:evenodd;fill-rule:evenodd;fill:#f4e8d7;image-rendering:optimizeQuality;shape-rendering:geometricPrecision;stroke:none"/></g><g transform="matrix(.291 0 0 .291 -356 -390)"><title transform="translate(1217 2700)">background</title><rect x="1216" y="2699" width="514" height="402" fill="none"/><g display="none"><rect x="1217" y="2700" width="512" height="512" fill="url(#gridpattern)" stroke="null" stroke-width="0"/></g></g><g transform="matrix(.291 0 0 .291 -356 -390)"><title transform="translate(1217 2700)">Layer 1</title><path d="m1479 2914c-103 68.6-217 24.8-248-95.2 103-68.6 217-24.8 248 95.2z" fill="#5f9548"/><path d="m1475 2906-79.8-30.7-27.5-61.9-12.2 5.43 22.1 49.7-21.1-8.12-22.7-51.1-12.2 5.43 17.3 38.9-21.1-8.12-15.6-35-12.2 5.43 10.1 22.8-31.4-12.1-4.8 12.5 31.4 12.1-22.8 10.1 5.43 12.2 35-15.6 21.1 8.12-38.9 17.3 5.43 12.2 51.1-22.7 21.1 8.12-49.6 22.1 5.43 12.2 61.9-27.5 79.8 30.7 4.8-12.5z" fill="#68a34f"/><path d="m1464 2949c-121-24.5-171-136-108-242 121 24.5 171 136 108 242z" fill="#7eb457"/><path d="m1433 2861 24.3-63.2-12.5-4.81-19.5 50.7-9.19-20.7 20.1-52.2-12.5-4.8-15.3 39.7-9.18-20.7 13.8-35.8-12.5-4.81-8.96 23.3-13.7-30.8-12.2 5.43 13.7 30.8-23.3-8.96-4.8 12.5 35.8 13.8 9.19 20.7-39.8-15.3-4.8 12.5 52.2 20.1 9.18 20.7-50.7-19.5-4.81 12.5 63.2 24.3 34.7 78.2 12.2-5.43-34.7-78.2z" fill="#88c25e"/><path d="m1517 2711-4.68-4.68-4.68 4.64c-10.7 10.4-23.3 18.7-37 24.5-42.1 18.5-71.9 64.2-71.9 118 0 70.1 50.9 127 114 127 62.7 0 114-56.8 114-127 0-53.6-29.8-99.3-71.9-118-13.7-5.78-26.3-14.1-37-24.4z" fill="#95573a"/><path d="m1597 2770c-36.7 98.5-117 144-173 164 20.1 28.9 52.9 46.3 88.1 46.8 62.7 0 114-56.8 114-127 0.212-30.2-9.73-59.6-28.2-83.5z" fill="#8f4d2e"/><path d="m1418 2873c-6.14 0.00979-12.3 0.418-18.4 1.22 9.1 60 55.7 106 112 106 11.1-0.013 22.2-1.84 32.7-5.4-6.75-57.1-60.7-102-126-102z" fill="#8f4d2e"/><g transform="matrix(.835 0 0 .835 -2052 -1552)" fill="#7a3b1d"><path d="m4259 5138h16v112h-16v-112z"/><path d="m4259 5266h16v32h-16v-32z"/><path d="m4259 5314h16v80h-16v-80z"/><path d="m4228 5152c-21.6 80-21.6 164 0 244l15.4-4.24c-20.8-77.2-20.8-159 0-236l-15.4-4.24z"/><path d="m4163 5274 16 0.336c0.801-37.7 12-69 22.7-83.4l-12.8-9.6c-15 20-25.2 56.4-25.9 92.6z"/><path d="m4292 5156c20.8 77.2 20.8 159 0 236l15.4 4.24c21.6-80 21.6-164 0-244l-15.4 4.24z"/><path d="m4366 5232-15.5 3.79c9.83 41.6 3.26 85.3-18.3 122l14 7.8c23.6-40.4 30.8-88.3 19.9-134z"/><path d="m4361 5215c-4-11.5-9.02-22.7-15-33.3l-14 7.8c5.52 9.8 10.1 20.1 13.8 30.7l15.1-5.22z"/></g><path d="m1236 2976-4.68 4.64 4.64 4.68c10.4 10.7 18.7 23.3 24.5 37 18.5 42.1 64.2 71.9 118 71.9 70.1 0 127-50.9 127-114s-56.8-114-127-114c-53.7 0-99.3 29.8-118 71.9-5.78 13.7-14.1 26.3-24.5 37z" fill="#a36548"/><path d="m1482 2914c-44.8 80.8-147 110-214 121 24.4 37 66.1 58.9 110 58.1 70.1 0 127-50.9 127-114-0.127-24-8.45-47.2-23.6-65.8z" fill="#95573a"/><g transform="rotate(89.7 1380 2981)"><g transform="matrix(.636 0 0 .636 -1896 -1635)" stroke="null"><path d="m5149 7137c0-28.8-23.4-52.2-52.2-52.2-37.7 0-62.7 38.7-47.9 72.8-37 18-50.3 63.8-29.4 98.6-13.5 10.6-22.1 27.1-22.1 45.5 0 29.1 21.4 53.1 49.3 57.3-9.69 33.4 15.4 66.7 50.1 66.7 28.8 0 52.2-23.4 52.2-52.2v-237h1e-3z" fill="#ffa912"/><g fill="#fbf1cf"><path d="m5081 7340c-4.14 0-7.5-3.36-7.5-7.5 0-17.1 13.9-30.9 30.9-30.9 4.14 0 7.5 3.36 7.5 7.5s-3.36 7.5-7.5 7.5c-8.79 0-15.9 7.15-15.9 15.9 0 4.14-3.36 7.5-7.5 7.5z"/><path d="m5090 7265c-4.14 0-7.5-3.36-7.5-7.5 0-8.79-7.15-15.9-15.9-15.9-4.14 0-7.5-3.36-7.5-7.5s3.36-7.5 7.5-7.5c17.1 0 30.9 13.9 30.9 30.9 0 4.14-3.36 7.5-7.5 7.5z"/><path d="m5100 7196c-1.92 0-3.84-0.732-5.3-2.2-12.1-12.1-12.1-31.7 0-43.7 2.93-2.93 7.68-2.93 10.6 0 2.93 2.93 2.93 7.68 0 10.6-6.21 6.21-6.21 16.3 0 22.5 2.93 2.93 2.93 7.68 0 10.6-1.46 1.46-3.38 2.2-5.3 2.2z"/></g><path d="m5149 7137c0-28.8 23.4-52.2 52.2-52.2 37.7 0 62.7 38.7 47.9 72.8 37 18 50.3 63.8 29.4 98.6 13.5 10.6 22.1 27.1 22.1 45.5 0 29.1-21.4 53.1-49.3 57.3 9.69 33.4-15.4 66.7-50.1 66.7-28.8 0-52.2-23.4-52.2-52.2v-237z" fill="#ffb432"/><g fill="#f5e2a2"><path d="m5218 7340c-4.14 0-7.5-3.36-7.5-7.5 0-8.79-7.15-15.9-15.9-15.9-4.14 0-7.5-3.36-7.5-7.5s3.36-7.5 7.5-7.5c17.1 0 30.9 13.9 30.9 30.9 0 4.14-3.36 7.5-7.5 7.5z"/><path d="m5209 7265c-4.14 0-7.5-3.36-7.5-7.5 0-17.1 13.9-30.9 30.9-30.9 4.14 0 7.5 3.36 7.5 7.5s-3.36 7.5-7.5 7.5c-8.79 0-15.9 7.15-15.9 15.9 0 4.14-3.36 7.5-7.5 7.5z"/><path d="m5199 7196c-1.92 0-3.84-0.732-5.3-2.2-2.93-2.93-2.93-7.68 0-10.6 3.01-3.01 4.67-7.01 4.67-11.3s-1.66-8.26-4.67-11.3c-2.93-2.93-2.93-7.68 0-10.6 2.93-2.93 7.68-2.93 10.6 0 12.1 12.1 12.1 31.7 0 43.7-1.46 1.46-3.38 2.2-5.3 2.2z"/></g></g></g><g transform="rotate(29.9 1614 2978)"><g transform="matrix(.646 0 0 .646 -2079 -1492)" stroke="null"><path d="m5716 6799c0-28.8-23.4-52.2-52.2-52.2-37.7 0-62.7 38.7-47.9 72.8-37 18-50.3 63.8-29.4 98.6-13.5 10.6-22.1 27.1-22.1 45.5 0 29.1 21.4 53.1 49.3 57.3-9.69 33.4 15.4 66.7 50.1 66.7 28.8 0 52.2-23.4 52.2-52.2v-237h1e-3z" fill="#ffa912"/><g fill="#fbf1cf"><path d="m5648 7e3c-4.14 0-7.5-3.36-7.5-7.5 0-17.1 13.9-30.9 30.9-30.9 4.14 0 7.5 3.36 7.5 7.5s-3.36 7.5-7.5 7.5c-8.79 0-15.9 7.15-15.9 15.9 0 4.14-3.36 7.5-7.5 7.5z"/><path d="m5656 6927c-4.14 0-7.5-3.36-7.5-7.5 0-8.79-7.15-15.9-15.9-15.9-4.14 0-7.5-3.36-7.5-7.5s3.36-7.5 7.5-7.5c17.1 0 30.9 13.9 30.9 30.9 0 4.14-3.36 7.5-7.5 7.5z"/><path d="m5666 6858c-1.92 0-3.84-0.732-5.3-2.2-12.1-12.1-12.1-31.7 0-43.7 2.93-2.93 7.68-2.93 10.6 0 2.93 2.93 2.93 7.68 0 10.6-6.21 6.21-6.21 16.3 0 22.5 2.93 2.93 2.93 7.68 0 10.6-1.46 1.46-3.38 2.2-5.3 2.2z"/></g><path d="m5716 6799c0-28.8 23.4-52.2 52.2-52.2 37.7 0 62.7 38.7 47.9 72.8 37 18 50.3 63.8 29.4 98.6 13.5 10.6 22.1 27.1 22.1 45.5 0 29.1-21.4 53.1-49.3 57.3 9.69 33.4-15.4 66.7-50.1 66.7-28.8 0-52.2-23.4-52.2-52.2v-237z" fill="#ffb432"/><g fill="#f5e2a2"><path d="m5784 7e3c-4.14 0-7.5-3.36-7.5-7.5 0-8.79-7.15-15.9-15.9-15.9-4.14 0-7.5-3.36-7.5-7.5s3.36-7.5 7.5-7.5c17.1 0 30.9 13.9 30.9 30.9 0 4.14-3.36 7.5-7.5 7.5z"/><path d="m5776 6927c-4.14 0-7.5-3.36-7.5-7.5 0-17.1 13.9-30.9 30.9-30.9 4.14 0 7.5 3.36 7.5 7.5s-3.36 7.5-7.5 7.5c-8.79 0-15.9 7.15-15.9 15.9 0 4.14-3.36 7.5-7.5 7.5z"/><path d="m5766 6858c-1.92 0-3.84-0.732-5.3-2.2-2.93-2.93-2.93-7.68 0-10.6 3.01-3.01 4.67-7.01 4.67-11.3s-1.66-8.26-4.67-11.3c-2.93-2.93-2.93-7.68 0-10.6 2.93-2.93 7.68-2.93 10.6 0 12.1 12.1 12.1 31.7 0 43.7-1.46 1.46-3.38 2.2-5.3 2.2z"/></g></g></g></g><g transform="rotate(-16.5 76.8 70.8)"><g transform="matrix(.299 0 0 .299 -76.8 -34.4)" fill="#333E40"><path d="m621 272h-0.035c-4.26-0.02-7.71-3.48-7.69-7.75 8e-3 -2.23 0.537-54.9 30.5-91.4 2.71-3.3 7.58-3.77 10.9-1.06 3.3 2.71 3.77 7.58 1.06 10.9-26.4 32.1-27 81.1-27 81.6-0.024 4.25-3.48 7.68-7.73 7.68z"/><path d="m684 285h-0.035c-4.26-0.02-7.71-3.48-7.69-7.75 8e-3 -2.23 0.537-54.9 30.5-91.4 2.71-3.3 7.58-3.77 10.9-1.06 3.3 2.71 3.77 7.58 1.06 10.9-26.4 32.1-27 81.1-27 81.6-0.024 4.25-3.48 7.68-7.73 7.68z"/><path d="m261 402c-4.3 0.826-4.3 6.99 0 7.81l63.3 19.9v-47.6l-63.3 19.9z"/></g><ellipse transform="matrix(-.0868 .286 -.286 -.0868 53.8 -69.8)" cx="287" cy="-174" rx="64.8" ry="60" fill="#D9D9D9"/><g transform="matrix(.299 0 0 .299 -76.8 -34.4)" fill="#F0F0F0"><path d="m496 252c-0.475 0-0.956-0.043-1.44-0.135-4.19-0.79-6.95-4.82-6.16-9.01 0.346-1.85 8.79-45.5 35.7-71.8 3.05-2.98 7.94-2.93 10.9 0.122 2.98 3.05 2.93 7.94-0.122 10.9-23.3 22.8-31.2 63.2-31.3 63.6-0.703 3.71-3.94 6.29-7.58 6.29z"/><ellipse transform="matrix(-.29 -.957 .957 -.29 74.7 296)" cx="-27" cy="337" rx="74.1" ry="68.6"/></g><path d="m52.6 47.9c-1.09 0-2.06-0.773-2.26-1.88-0.0284-0.149-2.73-14-10.8-21.9-0.911-0.891-0.927-2.35-0.0364-3.26 0.891-0.91 2.35-0.928 3.26-0.0364 9.09 8.9 12 23.7 12.1 24.3 0.235 1.25-0.59 2.46-1.84 2.69-0.144 0.0275-0.287 0.0406-0.428 0.0406z" fill="#D9D9D9"/><path d="m59.7 98.3v-27.7l12.2-23.8-2.64-9.61c-8.86 1.66-17 4.57-24.2 8.44l-12.6 8.8-7.16 22.4v21.3l8.77 20.2 11 9.64c7.14 3.88 15.3 6.79 24.2 8.44l4.43-10.6-14-27.6z" fill="#FFCE1C"/><path d="m72.9 128c-1.22-0.178-2.42-0.374-3.62-0.598-8.86-1.66-17-4.57-24.2-8.44-6.25-3.4-11.7-7.55-16.1-12.3l5.14 11.9 11 9.64c0.446 0.243 0.896 0.481 1.35 0.716 1.36 0.705 2.76 1.37 4.19 2.01 3.86 1.7 7.99 3.15 12.1 4.25 2.12 0.567 4.3 1.06 6.51 1.47l3.62-8.63z" fill="#FAA330"/><g transform="matrix(.299 0 0 .299 -76.8 -34.4)" fill="#3B484A"><path d="m365 406c0 51.4 15.9 99 43.1 138-57.5-31.3-94.7-81.4-94.7-138 0-56.6 37.3-107 94.7-138-27.1 38.9-43.1 86.6-43.1 138z"/><path d="m746 485c-24.9 38-67.7 67.6-121 82.2-23.9 6.47-49.9 9.99-77.5 9.99-20 0-39.4-1.84-57.9-5.31-40.9-43-66.1-102-66.1-166 0-64.7 25.2-123 66.1-166 18.5-3.47 37.9-5.31 57.9-5.31 63 0 118 18.3 157 48 11.6 8.77 22 18.5 30.8 29.1l11.1 174z"/></g><path d="m110 126c-7.12 1.93-14.9 2.98-23.1 2.98-5.97 0-11.8-0.55-17.3-1.59-3.02-0.565-5.96-1.28-8.81-2.12 2.56 4.09 5.51 7.89 8.81 11.4 0.691 0.13 1.39 0.252 2.09 0.366 12.7 2.08 25.9 1.61 38.4-1.76 13.1-3.55 25.6-10.6 34.1-21.4 0.79-1.02 1.53-2.06 2.23-3.12l-0.539-8.43c-7.51 11-20 19.5-35.7 23.7z" fill="#333E40"/><path d="m153 86.8c0.0654 8.41-2.61 16.7-7.23 23.7-18 27.2-60.5 25.6-75.4-5.01-2.84-5.8-4.37-12.1-4.37-18.7 0-9.16 2.95-17.8 8.24-25.2 10.3-14.5 31.2-16.6 43.9-4.2 0.201 0.197 0.401 0.395 0.599 0.599 0.201-0.204 0.401-0.401 0.599-0.599 0.04-0.04 0.0803-0.0774 0.12-0.117 6.57-6.34 17.2-5.69 23 1.32 6.6 7.91 10.5 17.8 10.6 28.2z" fill="#FFCE1C"/><path d="m153 85.7c-0.0361-1.11-0.117-2.22-0.24-3.33-0.776 6.73-3.24 13.2-6.97 18.9-7.44 11.3-20.2 20.2-36.3 24.5-3.81 1.03-7.8 1.81-12 2.31 17.3 4.79 37.3-1.08 48.2-17.6 4.2-6.36 6.78-13.8 7.18-21.4 0.0576-1.09 0.0672-2.22 0.0311-3.34z" fill="#FAA330"/><path d="m17.1 82.2c-0.0529 0.435-0.0974 0.873-0.135 1.31-0.0131 0.152-0.0233 0.305-0.0346 0.458-0.343 4.58 0.148 9.21 1.43 13.6 2.57 8.83 8.18 16.5 15.1 22.4 3.46 2.98 7.37 5.67 11.7 8-3.02-4.34-5.57-9.04-7.59-14-11.4-8.27-18.9-19.4-20.4-31.8z" fill="#333E40"/><g transform="matrix(.299 0 0 .299 -76.8 -34.4)" fill="#3B484A"><path d="m583 424c-4.27 0-7.73-3.46-7.73-7.73v-13.2c0-4.27 3.46-7.73 7.73-7.73s7.73 3.46 7.73 7.73v13.2c1e-3 4.27-3.46 7.73-7.73 7.73z"/><path d="m728 424c-4.27 0-7.73-3.46-7.73-7.73v-13.2c0-4.27 3.46-7.73 7.73-7.73s7.73 3.46 7.73 7.73v13.2c1e-3 4.27-3.46 7.73-7.73 7.73z"/><path d="m655 431c-9.24 0-17.9-3.86-23.8-10.6-2.81-3.21-2.48-8.09 0.732-10.9 3.21-2.81 8.09-2.48 10.9 0.732 2.95 3.38 7.39 5.32 12.2 5.32 4.78 0 9.21-1.94 12.2-5.32 2.81-3.21 7.69-3.54 10.9-0.732 3.21 2.81 3.54 7.69 0.733 10.9-5.89 6.73-14.6 10.6-23.8 10.6z"/></g><circle transform="matrix(.299 0 0 .299 -76.8 -34.4)" cx="649" cy="177" r="18.2" fill="#FFCE1C"/><path d="m122 17.1c-0.597 2.01-2.33 3.57-4.54 3.85-2.68 0.331-5.14-1.35-5.87-3.86-0.207 0.696-0.28 1.44-0.185 2.21 0.368 2.98 3.08 5.1 6.06 4.73 2.98-0.368 5.1-3.08 4.73-6.06-0.0364-0.298-0.103-0.585-0.185-0.865z" fill="#FAA330"/><circle transform="matrix(.299 0 0 .299 -76.8 -34.4)" cx="713" cy="190" r="18.2" fill="#FFCE1C"/><path d="m141 21c-0.597 2.01-2.33 3.57-4.54 3.85-2.68 0.331-5.14-1.35-5.87-3.86-0.207 0.696-0.28 1.44-0.185 2.21 0.368 2.98 3.08 5.1 6.06 4.73 2.98-0.368 5.1-3.08 4.73-6.06-0.0364-0.298-0.103-0.585-0.185-0.865z" fill="#FAA330"/></g></g></g></svg>
