<?xml version="1.0" encoding="UTF-8" standalone="no"?>
<svg
   xmlns:dc="http://purl.org/dc/elements/1.1/"
   xmlns:cc="http://creativecommons.org/ns#"
   xmlns:rdf="http://www.w3.org/1999/02/22-rdf-syntax-ns#"
   xmlns:svg="http://www.w3.org/2000/svg"
   xmlns="http://www.w3.org/2000/svg"
   xmlns:sodipodi="http://sodipodi.sourceforge.net/DTD/sodipodi-0.dtd"
   xmlns:inkscape="http://www.inkscape.org/namespaces/inkscape"
   width="512"
   height="512"
   version="1.1"
   id="svg14123"
   sodipodi:docname="PRD (1).svg"
   inkscape:version="1.0 (4035a4f, 2020-05-01)">
  <metadata
     id="metadata14129">
    <rdf:RDF>
      <cc:Work
         rdf:about="">
        <dc:format>image/svg+xml</dc:format>
        <dc:type
           rdf:resource="http://purl.org/dc/dcmitype/StillImage" />
      </cc:Work>
    </rdf:RDF>
  </metadata>
  <defs
     id="defs14127" />
  <sodipodi:namedview
     inkscape:document-rotation="0"
     pagecolor="#ffffff"
     bordercolor="#666666"
     borderopacity="1"
     objecttolerance="10"
     gridtolerance="10"
     guidetolerance="10"
     inkscape:pageopacity="0"
     inkscape:pageshadow="2"
     inkscape:window-width="1366"
     inkscape:window-height="723"
     id="namedview14125"
     showgrid="false"
     inkscape:zoom="0.79549027"
     inkscape:cx="416.02957"
     inkscape:cy="245.78628"
     inkscape:window-x="0"
     inkscape:window-y="23"
     inkscape:window-maximized="0"
     inkscape:current-layer="svg_5" />
  <!-- Created with Method Draw - http://github.com/duopixel/Method-Draw/ -->
  <g
     id="g13879">
    <title
       id="title13873">background</title>
    <rect
       fill="none"
       id="canvas_background"
       height="514"
       width="514"
       y="-1"
       x="-1" />
    <g
       display="none"
       overflow="visible"
       y="0"
       x="0"
       height="100%"
       width="100%"
       id="canvasGrid">
      <rect
         fill="url(#gridpattern)"
         stroke-width="0"
         y="0"
         x="0"
         height="100%"
         width="100%"
         id="rect13876" />
    </g>
  </g>
  <g
     id="g14121">
    <title
       id="title13881">Layer 1</title>
    <g
       stroke="null"
       id="svg_493">
      <g
         stroke="null"
         transform="matrix(0.36194778592898985,0,0,0.36194778592898985,-629.3348485497224,-154.51002832644406) "
         id="svg_465">
        <rect
           stroke="null"
           id="svg_466"
           fill="#EACA6F"
           height="70.621"
           width="300.138"
           y="601.095135"
           x="2523.894331" />
        <path
           stroke="null"
           id="svg_467"
           fill="#BFA057"
           d="m2841.687331,998.336135l0.794,0c9.299,0.03 16.831,7.561 16.861,16.861l0,36.899c-0.03,9.299 -7.561,16.83 -16.861,16.861l-337.037,0c-9.299,-0.03 -16.83,-7.561 -16.861,-16.861l0,-36.899c0.03,-9.299 7.561,-16.831 16.861,-16.861l0.794,0l0,-264.827c-9.739,-0.029 -17.627,-7.916 -17.655,-17.655l0,-35.31c0.028,-9.739 7.916,-17.627 17.655,-17.655l335.448,0c9.739,0.028 17.627,7.916 17.655,17.655l0,35.31c-0.07,9.721 -7.934,17.585 -17.655,17.655l0,264.827l0.001,0z" />
        <path
           stroke="null"
           id="svg_468"
           fill="#5496CE"
           d="m2515.066331,556.957135l317.793,0c9.751,0 17.655,7.904 17.655,17.655l0,26.483c0,4.875 -3.952,8.828 -8.828,8.828l-335.447,0c-4.875,0 -8.828,-3.952 -8.828,-8.828l0,-26.483c0,-9.751 7.905,-17.655 17.655,-17.655z" />
        <path
           stroke="null"
           id="svg_469"
           fill="#FAEDBD"
           d="m2585.687331,786.474135l176.552,0c9.751,0 17.655,7.904 17.655,17.655l0,97.103c0,9.751 -7.905,17.655 -17.655,17.655l-176.552,0c-9.751,0 -17.655,-7.905 -17.655,-17.655l0,-97.103c0,-9.75 7.904,-17.655 17.655,-17.655z" />
        <g
           stroke="null"
           id="svg_470">
          <path
             stroke="null"
             id="svg_471"
             fill="#BBB084"
             d="m2735.756331,839.440135l-123.586,0c-4.875,0 -8.828,-3.952 -8.828,-8.828s3.952,-8.828 8.828,-8.828l123.586,0c4.875,0 8.828,3.952 8.828,8.828s-3.953,8.828 -8.828,8.828z" />
        </g>
        <g
           stroke="null"
           id="svg_473">
          <path
             stroke="null"
             id="svg_474"
             fill="#935847"
             d="m2568.032331,742.336135c-0.015,4.869 -3.958,8.813 -8.828,8.828l-52.965,0l0,-17.655l52.966,0c4.869,0.014 8.812,3.958 8.827,8.827z" />
          <path
             stroke="null"
             id="svg_475"
             fill="#935847"
             d="m2841.687331,733.509135l0,17.655l-97.103,0c-4.875,0 -8.828,-3.952 -8.828,-8.828c0,-4.875 3.952,-8.828 8.828,-8.828l97.103,0l0,0.001z" />
          <path
             stroke="null"
             id="svg_476"
             fill="#935847"
             d="m2612.170331,989.509135c-0.015,4.869 -3.958,8.813 -8.828,8.828l-97.103,0l0,-17.655l97.103,0c4.87,0.014 8.813,3.957 8.828,8.827l0,0z" />
          <path
             stroke="null"
             id="svg_477"
             fill="#935847"
             d="m2841.687331,980.681135l0,17.655l-26.483,0c-4.875,0 -8.828,-3.952 -8.828,-8.828s3.952,-8.828 8.828,-8.828l26.483,0l0,0.001z" />
        </g>
      </g>
      <g
         stroke="null"
         transform="matrix(0.36194778592898985,0,0,0.36194778592898985,-629.3348485497224,-154.51002832644406) "
         id="svg_478" />
      <g
         stroke="null"
         transform="matrix(0.36194778592898985,0,0,0.36194778592898985,-629.3348485497224,-154.51002832644406) "
         id="svg_479" />
      <g
         stroke="null"
         transform="matrix(0.36194778592898985,0,0,0.36194778592898985,-629.3348485497224,-154.51002832644406) "
         id="svg_480" />
      <g
         stroke="null"
         transform="matrix(0.36194778592898985,0,0,0.36194778592898985,-629.3348485497224,-154.51002832644406) "
         id="svg_481" />
      <g
         stroke="null"
         transform="matrix(0.36194778592898985,0,0,0.36194778592898985,-629.3348485497224,-154.51002832644406) "
         id="svg_482" />
      <g
         stroke="null"
         transform="matrix(0.36194778592898985,0,0,0.36194778592898985,-629.3348485497224,-154.51002832644406) "
         id="svg_483" />
      <g
         stroke="null"
         transform="matrix(0.36194778592898985,0,0,0.36194778592898985,-629.3348485497224,-154.51002832644406) "
         id="svg_484" />
      <g
         stroke="null"
         transform="matrix(0.36194778592898985,0,0,0.36194778592898985,-629.3348485497224,-154.51002832644406) "
         id="svg_485" />
      <g
         stroke="null"
         transform="matrix(0.36194778592898985,0,0,0.36194778592898985,-629.3348485497224,-154.51002832644406) "
         id="svg_486" />
      <g
         stroke="null"
         transform="matrix(0.36194778592898985,0,0,0.36194778592898985,-629.3348485497224,-154.51002832644406) "
         id="svg_487" />
      <g
         stroke="null"
         transform="matrix(0.36194778592898985,0,0,0.36194778592898985,-629.3348485497224,-154.51002832644406) "
         id="svg_488" />
      <g
         stroke="null"
         transform="matrix(0.36194778592898985,0,0,0.36194778592898985,-629.3348485497224,-154.51002832644406) "
         id="svg_489" />
      <g
         stroke="null"
         transform="matrix(0.36194778592898985,0,0,0.36194778592898985,-629.3348485497224,-154.51002832644406) "
         id="svg_490" />
      <g
         stroke="null"
         transform="matrix(0.36194778592898985,0,0,0.36194778592898985,-629.3348485497224,-154.51002832644406) "
         id="svg_491" />
      <g
         stroke="null"
         transform="matrix(0.36194778592898985,0,0,0.36194778592898985,-629.3348485497224,-154.51002832644406) "
         id="svg_492" />
    </g>
    <g
       stroke="null"
       id="svg_414">
      <g
         stroke="null"
         transform="matrix(0.4314216500043516,0,0,0.4314216500043516,-376.6847382810265,-81.3588514080825) "
         id="svg_398">
        <path
           stroke="null"
           id="svg_400"
           fill="#92563a"
           d="m1587.043414,250.233167a16,16 0 0 1 -16,16l-146.74,0a47.193,47.193 0 0 1 -5.26,10.51a47.9,47.9 0 0 1 -40,21.49l-48,0a48,48 0 1 1 0,-96l48,0a47.982,47.982 0 0 1 45.26,32l146.74,0a15.979,15.979 0 0 1 16,16z" />
        <g
           stroke="null"
           id="svg_401"
           fill="#7a432a">
          <path
             stroke="null"
             id="svg_402"
             d="m1331.043414,202.233167l0,48a8,8 0 0 1 -16,0l0,-45.27a47.873,47.873 0 0 1 16,-2.73z" />
          <path
             stroke="null"
             id="svg_403"
             d="m1355.043414,258.233167a8,8 0 0 1 -8,-8l0,-48l16,0l0,48a8,8 0 0 1 -8,8z" />
          <path
             stroke="null"
             id="svg_404"
             d="m1395.043414,204.973167l0,45.26a8,8 0 0 1 -16,0l0,-48a47.628,47.628 0 0 1 16,2.74z" />
        </g>
        <path
           stroke="null"
           id="svg_405"
           fill="#fae890"
           d="m1507.043414,501.373167a110.853,110.853 0 0 1 -7.56,40.3l-46.46,119.46a7.992,7.992 0 0 1 -7.45,5.1l-181.06,0a7.992,7.992 0 0 1 -7.45,-5.1l-38.96,-100.18l-7.5,-19.28a111.174,111.174 0 0 1 31.27,-124.72l17.17,-14.72l0,-40l192,0l0,40l13.96,11.97l3.21,2.75a111.144,111.144 0 0 1 38.83,84.42z" />
        <path
           stroke="null"
           id="svg_406"
           fill="#f5df73"
           d="m1507.043414,501.373167a110.853,110.853 0 0 1 -7.56,40.3l-46.46,119.46a7.992,7.992 0 0 1 -7.45,5.1l-181.06,0a7.992,7.992 0 0 1 -7.45,-5.1l-38.96,-100.18c91.07,-19.35 179.39,-63.72 246.9,-146.75l3.21,2.75a111.144,111.144 0 0 1 38.83,84.42z" />
        <path
           stroke="null"
           id="svg_407"
           fill="#ffb531"
           d="m1507.043414,501.373167a110.853,110.853 0 0 1 -7.56,40.3l-46.46,119.46a7.992,7.992 0 0 1 -7.45,5.1l-181.06,0a7.992,7.992 0 0 1 -7.45,-5.1l-38.96,-100.18l-7.5,-19.28a111.232,111.232 0 0 1 -4.2,-67.44l108.64,0a24.006,24.006 0 0 0 24,-24l0,-152l-8,0a48.06,48.06 0 0 1 -45.27,-32l138.53,0a47.193,47.193 0 0 1 -5.26,10.51a47.9,47.9 0 0 1 -40,21.49l-8,0l0,152a24.006,24.006 0 0 0 24,24l108.64,0a111.286,111.286 0 0 1 3.36,27.14z" />
        <path
           stroke="null"
           id="svg_408"
           fill="#ffa912"
           d="m1507.043414,501.373167a110.853,110.853 0 0 1 -7.56,40.3l-46.46,119.46a7.992,7.992 0 0 1 -7.45,5.1l-181.06,0a7.992,7.992 0 0 1 -7.45,-5.1l-38.96,-100.18c66.02,-14.03 130.58,-41.2 186.83,-86.72l98.75,0a111.286,111.286 0 0 1 3.36,27.14z" />
        <path
           stroke="null"
           id="svg_409"
           fill="#f5df73"
           d="m1439.043414,394.233167l-144,0a12,12 0 0 0 0,24l144,0a12,12 0 0 0 0,-24z" />
        <path
           stroke="null"
           id="svg_410"
           fill="#edd561"
           d="m1339.043414,394.233167l32,0l0,24l-32,0l0,-24z" />
        <path
           stroke="null"
           id="svg_411"
           fill="#ffcb73"
           d="m1243.043414,501.373167a70.831,70.831 0 0 1 5.381,-27.14l-17.03,0c-0.633,1.931 -1.22,3.878 -1.715,5.85a87.225,87.225 0 0 0 3.293,52.891l15.617,40.159l14.912,-5.8l-15.618,-40.16a70.847,70.847 0 0 1 -4.84,-25.8z" />
        <path
           stroke="null"
           id="svg_412"
           fill="#ffef9e"
           d="m1267.896414,447.333167l8.193,-7.024l-10.414,-12.147l-8.19,7.021c-1.371,1.174 -2.72,2.4 -4.01,3.653l11.136,11.489c1.055,-1.025 2.159,-2.03 3.285,-2.992z" />
        <path
           stroke="null"
           id="svg_413"
           fill="#ffef9e"
           d="m1249.543414,471.658167a71.567,71.567 0 0 1 7.886,-13.214l-12.765,-9.645a87.571,87.571 0 0 0 -9.653,16.164a86,86 0 0 0 -3.613,9.27l17.03,0c0.354,-0.866 0.715,-1.727 1.115,-2.575z" />
      </g>
    </g>
    <g
       stroke="null"
       id="svg_394">
      <path
         stroke="null"
         id="svg_367"
         fill="#E4E7E9"
         d="m435.578768,26.86793l0,11.332428c0,5.413182 -1.343927,10.741595 -3.910996,15.507188l-14.267676,26.48599c-6.281241,11.660588 -9.569388,24.69821 -9.569388,37.942842l0,62.584661c0,7.033971 5.70205,12.736021 12.736021,12.736021l73.866519,0c7.033971,0 12.736021,-5.70205 12.736021,-12.736021l0,-62.584661c0,-13.244632 -3.288147,-26.282254 -9.569388,-37.942842l-14.267676,-26.48599c-2.567068,-4.765594 -3.910996,-10.094007 -3.910996,-15.507188l0,-11.332428l-43.842442,0z" />
      <g
         stroke="null"
         transform="matrix(0.3638135412670962,0,0,0.3638135412670962,-281.8419838026987,-14.855651693733876) "
         id="svg_368">
        <path
           stroke="null"
           id="svg_369"
           fill="#3E4B58"
           d="m1963.39534,520.11891l-17.392,-17.277c-8.536,-8.48 -9.428,-21.987 -2.081,-31.515c8.065,-10.46 6.104,-25.48 -4.374,-33.52l0,0c-13.468,-10.333 -29.667,-12.353 -43.871,-8.071l0,107.837c0,19.334 15.673,35.007 35.007,35.007l33.996,0c3.889,-4.259 6.856,-9.447 8.501,-15.311c3.716,-13.242 -0.029,-27.457 -9.786,-37.15z" />
        <path
           stroke="null"
           id="svg_370"
           fill="#3E4B58"
           d="m2103.20434,188.45591c-3.897,-7.234 -6.762,-14.94 -8.552,-22.896c-6.185,-0.298 -12.401,-0.299 -18.629,0.012l0,0c-13.629,0.681 -26.169,7.65 -33.945,18.862l0,0c-13.653,19.687 -9.565,46.608 9.317,61.354l0,0c13.004,10.155 30.363,12.793 45.797,6.959l0,0c8.716,-3.295 18.311,-3.427 27.115,-0.376l16.388,5.681l-37.491,-69.596z" />
      </g>
      <path
         stroke="null"
         id="svg_371"
         fill="#59A8ED"
         d="m478.44619,7.184163l-41.892402,0c-4.556765,0 -8.250927,3.694163 -8.250927,8.250927l0,6.885899c0,2.511041 2.035537,4.546942 4.546578,4.546942l49.300737,0c2.511041,0 4.546578,-2.035537 4.546578,-4.546942l0,-6.885899c0.000364,-4.556765 -3.693799,-8.250927 -8.250563,-8.250927z" />
      <path
         stroke="null"
         id="svg_372"
         opacity="0.1"
         d="m478.44619,7.184163l-10.7707,0c4.556765,0 8.250927,3.694163 8.250927,8.250927l0,6.885899c0,2.511041 -2.035537,4.546578 -4.546942,4.546578l10.7707,0c2.511041,0 4.546942,-2.035537 4.546942,-4.546578l0,-6.885899c0,-4.556765 -3.694163,-8.250927 -8.250927,-8.250927z" />
      <path
         stroke="null"
         id="svg_373"
         opacity="0.1"
         d="m497.599882,80.193536l-14.267676,-26.486353c-2.567068,-4.765594 -3.910996,-10.094007 -3.910996,-15.506825l0,-11.332428l-43.842442,0l0,10.090005l30.396985,0c0.686152,0 1.242423,0.556271 1.242423,1.242423l0,0c0,5.413182 1.343927,10.741231 3.910996,15.506825l14.267676,26.486353c6.281241,11.660588 9.569388,24.697846 9.569388,37.942842l0,62.584661c0,7.033971 -5.70205,12.736021 -12.736021,12.736021l12.202306,0c7.033971,0 12.736021,-5.70205 12.736021,-12.736021l0,-62.584661c0.000728,-13.244632 -3.287419,-26.282254 -9.56866,-37.942842z" />
      <circle
         stroke="null"
         transform="matrix(0.3638135412670962,0,0,0.3638135412670962,-281.8419838026987,-14.855651693733876) "
         id="svg_374"
         fill="#FDA354"
         r="32.139999"
         cy="397.909972"
         cx="2032.20026" />
      <path
         stroke="null"
         id="svg_375"
         opacity="0.1"
         d="m463.566944,119.908514l-12.133545,0c-3.374007,2.051545 -5.627468,5.762443 -5.627468,9.999415c0,2.054091 0.531168,3.983758 1.461439,5.661303l20.465603,0c0.930271,-1.677544 1.461439,-3.607211 1.461439,-5.661303c0,-4.237336 -2.253825,-7.948234 -5.627468,-9.999415z" />
      <path
         stroke="null"
         id="svg_376"
         fill="#FDA354"
         d="m466.870007,88.036993l-18.740036,0c-3.263771,0 -6.133896,2.157778 -7.040883,5.292759l-1.301361,4.498918c-2.138132,7.392327 -3.223388,15.049147 -3.223388,22.744167l0,4.768868c0,2.521592 2.044268,4.56586 4.56586,4.56586l32.739217,0c2.521592,0 4.56586,-2.044268 4.56586,-4.56586l0,-4.768868c0,-7.695384 -1.085256,-15.352204 -3.223388,-22.744167l-1.301361,-4.498918c-0.906623,-3.134981 -3.777112,-5.292759 -7.04052,-5.292759z" />
      <path
         stroke="null"
         id="svg_377"
         opacity="0.1"
         d="m475.212252,97.82867l-1.301361,-4.498918c-0.906987,-3.134981 -3.777112,-5.292759 -7.040883,-5.292759l-6.662154,0c3.263407,0 6.133896,2.157778 7.040883,5.292759l1.301361,4.498918c2.138132,7.392327 3.223388,15.049147 3.223388,22.744167l0,4.768868c0,2.521592 -2.044268,4.56586 -4.56586,4.56586l6.662154,0c2.521592,0 4.56586,-2.044268 4.56586,-4.56586l0,-4.768868c0,-7.69502 -1.085256,-15.35184 -3.223388,-22.744167z" />
      <path
         stroke="null"
         id="svg_378"
         fill="#3E4B58"
         d="m470.183257,151.694903l4.833991,-1.796147c2.190521,-0.813851 4.606243,-0.78038 6.773481,0.094592l5.748618,2.320403c5.975274,2.412084 7.791067,9.994322 3.556641,14.851596l-1.116544,1.280624c-2.18943,2.511769 -5.548157,3.67197 -8.821023,3.04803l-9.466065,-1.805243c-5.038818,-0.960832 -8.369167,-5.793731 -7.473458,-10.84419l0,0c0.580283,-3.272139 2.849388,-5.992373 5.964359,-7.149664z" />
      <g
         stroke="null"
         transform="matrix(0.3638135412670962,0,0,0.3638135412670962,-281.8419838026987,-14.855651693733876) "
         id="svg_379" />
      <g
         stroke="null"
         transform="matrix(0.3638135412670962,0,0,0.3638135412670962,-281.8419838026987,-14.855651693733876) "
         id="svg_380" />
      <g
         stroke="null"
         transform="matrix(0.3638135412670962,0,0,0.3638135412670962,-281.8419838026987,-14.855651693733876) "
         id="svg_381" />
      <g
         stroke="null"
         transform="matrix(0.3638135412670962,0,0,0.3638135412670962,-281.8419838026987,-14.855651693733876) "
         id="svg_382" />
      <g
         stroke="null"
         transform="matrix(0.3638135412670962,0,0,0.3638135412670962,-281.8419838026987,-14.855651693733876) "
         id="svg_383" />
      <g
         stroke="null"
         transform="matrix(0.3638135412670962,0,0,0.3638135412670962,-281.8419838026987,-14.855651693733876) "
         id="svg_384" />
      <g
         stroke="null"
         transform="matrix(0.3638135412670962,0,0,0.3638135412670962,-281.8419838026987,-14.855651693733876) "
         id="svg_385" />
      <g
         stroke="null"
         transform="matrix(0.3638135412670962,0,0,0.3638135412670962,-281.8419838026987,-14.855651693733876) "
         id="svg_386" />
      <g
         stroke="null"
         transform="matrix(0.3638135412670962,0,0,0.3638135412670962,-281.8419838026987,-14.855651693733876) "
         id="svg_387" />
      <g
         stroke="null"
         transform="matrix(0.3638135412670962,0,0,0.3638135412670962,-281.8419838026987,-14.855651693733876) "
         id="svg_388" />
      <g
         stroke="null"
         transform="matrix(0.3638135412670962,0,0,0.3638135412670962,-281.8419838026987,-14.855651693733876) "
         id="svg_389" />
      <g
         stroke="null"
         transform="matrix(0.3638135412670962,0,0,0.3638135412670962,-281.8419838026987,-14.855651693733876) "
         id="svg_390" />
      <g
         stroke="null"
         transform="matrix(0.3638135412670962,0,0,0.3638135412670962,-281.8419838026987,-14.855651693733876) "
         id="svg_391" />
      <g
         stroke="null"
         transform="matrix(0.3638135412670962,0,0,0.3638135412670962,-281.8419838026987,-14.855651693733876) "
         id="svg_392" />
      <g
         stroke="null"
         transform="matrix(0.3638135412670962,0,0,0.3638135412670962,-281.8419838026987,-14.855651693733876) "
         id="svg_393" />
    </g>
    <g
       stroke="null"
       id="svg_98">
      <path
         stroke="null"
         id="svg_46"
         fill="#CFCFCF"
         d="m113.790129,205.069992l0,-14.353744l-47.845633,0l0,14.353744l-16.984784,16.984784c-7.478408,7.473522 -11.530546,17.707276 -11.195627,28.276491l3.779644,121.431166c0.325148,9.999799 -1.133947,19.980056 -4.306178,29.472862l0,0l0,23.922545c0,7.927861 6.42534,14.353744 14.353744,14.353744l0,0l76.552035,0c7.927861,0 14.353744,-6.42534 14.353744,-14.353744l0,0l0,-23.922545l0,0c-3.17223,-9.492263 -4.631326,-19.473063 -4.306178,-29.472862l3.779644,-121.431166c0.334919,-10.569215 -3.717762,-20.802968 -11.195627,-28.276491l-16.984784,-16.984784z" />
      <rect
         stroke="null"
         transform="matrix(0.5428182928438817,0,0,0.5428182928438817,-894.0307544674238,-912.1723521702672) "
         id="svg_47"
         fill="#BFBFBF"
         height="17.628"
         width="88.142"
         y="2031.782301"
         x="1768.485027" />
      <path
         stroke="null"
         id="svg_48"
         fill="#FDB62F"
         d="m141.970541,250.331267c0.200843,-6.310805 -1.162717,-12.573843 -3.971259,-18.228924l-9.186114,2.057281c-13.042838,2.913849 -26.573127,2.913849 -39.615965,0l0,0c-15.248309,-3.396957 -31.113802,-2.822655 -46.07496,1.674594l-3.301421,1.004757c-1.497636,4.334947 -2.196243,8.908734 -2.057281,13.492291l3.779644,121.431166c0.325148,9.999799 -1.133947,19.980056 -4.306178,29.472862l0,23.922545c0,7.927861 6.42534,14.353744 14.353744,14.353744l0,0l76.552035,0c7.927861,0 14.353744,-6.42534 14.353744,-14.353744l0,0l0,-23.922545c-3.17223,-9.492263 -4.631326,-19.473063 -4.306178,-29.472862l3.780187,-121.431166z" />
      <g
         stroke="null"
         transform="matrix(0.5428182928438817,0,0,0.5428182928438817,-894.0307544674238,-912.1723521702672) "
         id="svg_49">
        <path
           stroke="null"
           id="svg_50"
           fill="#77A226"
           d="m1907.85509,2163.995358l-190.563,0l6.258,201.317c0.264,9.317 -0.264,18.633 -1.587,27.853l181.22,0c-1.322,-9.22 -1.851,-18.536 -1.587,-27.853l6.259,-201.317z" />
        <path
           stroke="null"
           id="svg_51"
           fill="#77A226"
           d="m1777.31709,1978.897358l70.514,0c9.74,0 17.628,7.889 17.628,17.628l0,35.257l0,0l-105.771,0l0,0l0,-35.257c0,-9.739 7.898,-17.628 17.629,-17.628z" />
      </g>
      <path
         stroke="null"
         id="svg_61"
         fill="#BFBFBF"
         d="m112.976445,234.925541c0.239383,0.430455 0.430455,0.861453 0.717606,1.291908c5.085665,-0.27738 10.143103,-0.966217 15.119118,-2.057281l9.186114,-2.057281c0.626955,1.325562 1.186601,2.684236 1.674594,4.066795c-1.880323,-5.310934 -4.918477,-10.133875 -8.898963,-14.114361l-16.984784,-16.984784l0,-14.354287l-23.922545,0l0,9.568801l23.10886,34.640492z" />
      <g
         stroke="null"
         transform="matrix(0.5428182928438817,0,0,0.5428182928438817,-894.0307544674238,-912.1723521702672) "
         id="svg_62">
        <path
           stroke="null"
           id="svg_63"
           fill="#CFCFCF"
           d="m1908.29609,2133.410358c0.176,2.732 0.176,5.465 0,8.197c0.176,-2.732 0.176,-5.464 0,-8.197z" />
        <path
           stroke="null"
           id="svg_64"
           fill="#CFCFCF"
           d="m1907.06209,2125.213358c0.45,2.001 0.776,4.037 0.97,6.082c-0.194,-2.045 -0.512,-4.081 -0.97,-6.082z" />
        <path
           stroke="null"
           id="svg_65"
           fill="#CFCFCF"
           d="m1904.85809,2116.839358c0.705,2.115 1.234,4.231 1.763,6.346c-0.529,-2.115 -1.146,-4.23 -1.763,-6.346z" />
      </g>
      <g
         stroke="null"
         transform="matrix(0.5428182928438817,0,0,0.5428182928438817,-894.0307544674238,-912.1723521702672) "
         id="svg_66">
        <path
           stroke="null"
           id="svg_67"
           fill="#FDB62F"
           d="m1908.03109,2131.295358c0.044,0.705 0.044,1.41 0,2.115c0.045,-0.705 0.045,-1.41 0,-2.115z" />
        <path
           stroke="null"
           id="svg_68"
           fill="#FDB62F"
           d="m1906.62109,2123.186358c0.044,0.679 0.044,1.349 0,2.027c0.044,-0.679 0.044,-1.349 0,-2.027z" />
        <path
           stroke="null"
           id="svg_69"
           fill="#FDB62F"
           d="m1904.32909,2115.517358l0.529,1.322l-0.529,-1.322z" />
      </g>
      <g
         stroke="null"
         transform="matrix(0.5428182928438817,0,0,0.5428182928438817,-894.0307544674238,-912.1723521702672) "
         id="svg_70">
        <path
           stroke="null"
           id="svg_71"
           fill="#FD9133"
           d="m1903.18409,2393.165358l-40.986,0l-0.793,64.696c-0.194,17.875 -14.737,32.26 -32.613,32.26l54.296,0c14.605,0 26.443,-11.837 26.443,-26.443l0,0l0,-44.071c-2.857,-8.62 -4.981,-17.46 -6.347,-26.442z" />
        <path
           stroke="null"
           id="svg_72"
           fill="#FD9133"
           d="m1884.32109,2111.815358c-9.167,2.01 -18.483,3.279 -27.853,3.79c5.826,9.555 8.885,20.537 8.814,31.731l0.176,16.659l42.837,0l-6.699,201.317l6.963,-223.705c0.176,-2.732 0.176,-5.465 0,-8.197c0.044,-0.705 0.044,-1.41 0,-2.115c-0.194,-2.045 -0.52,-4.081 -0.97,-6.082c0.044,-0.679 0.044,-1.349 0,-2.027c-0.529,-2.115 -1.058,-4.231 -1.763,-6.346l-0.529,-1.322c-0.899,-2.547 -1.93,-5.051 -3.085,-7.492l-17.891,3.789z" />
      </g>
      <g
         stroke="null"
         transform="matrix(0.5428182928438817,0,0,0.5428182928438817,-894.0307544674238,-912.1723521702672) "
         id="svg_73">
        <path
           stroke="null"
           id="svg_74"
           fill="#77A226"
           d="m1901.59709,2365.312358c0,4.672 0,9.343 0,14.015c-0.088,-4.672 -0.176,-9.343 0,-14.015z" />
        <path
           stroke="null"
           id="svg_75"
           fill="#77A226"
           d="m1901.77309,2379.327358c0,4.583 0.793,8.814 1.41,13.838c-0.616,-4.583 -1.145,-8.814 -1.41,-13.838z" />
      </g>
      <path
         stroke="null"
         id="svg_76"
         fill="#5A821E"
         d="m118.57453,262.483883l-1.53129,124.397668l22.247951,0c-0.334919,-2.487736 -0.62207,-4.7844 -0.765374,-7.51152l0,0c0,-2.536047 0,-5.071551 0,-7.607598l3.062038,-109.27855l-23.013324,0z" />
      <ellipse
         stroke="null"
         transform="matrix(0.5428182928438817,0,0,0.5428182928438817,-894.0307544674238,-912.1723521702672) "
         id="svg_77"
         fill="#FFFFFF"
         ry="26.443"
         rx="61.699"
         cy="2225.695301"
         cx="1812.556027" />
      <g
         stroke="null"
         transform="matrix(0.5428182928438817,0,0,0.5428182928438817,-894.0307544674238,-912.1723521702672) "
         id="svg_78">
        <rect
           stroke="null"
           id="svg_79"
           fill="#5A821E"
           height="17.628"
           width="123.399"
           y="2349.094358"
           x="1750.85609" />
        <rect
           stroke="null"
           id="svg_80"
           fill="#5A821E"
           height="17.628"
           width="123.399"
           y="2278.580358"
           x="1750.85609" />
        <rect
           stroke="null"
           id="svg_81"
           fill="#5A821E"
           height="17.628"
           width="88.142"
           y="2313.837358"
           x="1768.48509" />
        <path
           stroke="null"
           id="svg_82"
           fill="#5A821E"
           d="m1847.83009,1978.897358l-35.257,0c9.74,0 17.628,7.889 17.628,17.628l0,35.257l35.257,0l0,-35.257c0.001,-9.739 -7.888,-17.628 -17.628,-17.628z" />
      </g>
      <g
         stroke="null"
         transform="matrix(0.5428182928438817,0,0,0.5428182928438817,-894.0307544674238,-912.1723521702672) "
         id="svg_83" />
      <g
         stroke="null"
         transform="matrix(0.5428182928438817,0,0,0.5428182928438817,-894.0307544674238,-912.1723521702672) "
         id="svg_84" />
      <g
         stroke="null"
         transform="matrix(0.5428182928438817,0,0,0.5428182928438817,-894.0307544674238,-912.1723521702672) "
         id="svg_85" />
      <g
         stroke="null"
         transform="matrix(0.5428182928438817,0,0,0.5428182928438817,-894.0307544674238,-912.1723521702672) "
         id="svg_86" />
      <g
         stroke="null"
         transform="matrix(0.5428182928438817,0,0,0.5428182928438817,-894.0307544674238,-912.1723521702672) "
         id="svg_87" />
      <g
         stroke="null"
         transform="matrix(0.5428182928438817,0,0,0.5428182928438817,-894.0307544674238,-912.1723521702672) "
         id="svg_88" />
      <g
         stroke="null"
         transform="matrix(0.5428182928438817,0,0,0.5428182928438817,-894.0307544674238,-912.1723521702672) "
         id="svg_89" />
      <g
         stroke="null"
         transform="matrix(0.5428182928438817,0,0,0.5428182928438817,-894.0307544674238,-912.1723521702672) "
         id="svg_90" />
      <g
         stroke="null"
         transform="matrix(0.5428182928438817,0,0,0.5428182928438817,-894.0307544674238,-912.1723521702672) "
         id="svg_91" />
      <g
         stroke="null"
         transform="matrix(0.5428182928438817,0,0,0.5428182928438817,-894.0307544674238,-912.1723521702672) "
         id="svg_92" />
      <g
         stroke="null"
         transform="matrix(0.5428182928438817,0,0,0.5428182928438817,-894.0307544674238,-912.1723521702672) "
         id="svg_93" />
      <g
         stroke="null"
         transform="matrix(0.5428182928438817,0,0,0.5428182928438817,-894.0307544674238,-912.1723521702672) "
         id="svg_94" />
      <g
         stroke="null"
         transform="matrix(0.5428182928438817,0,0,0.5428182928438817,-894.0307544674238,-912.1723521702672) "
         id="svg_95" />
      <g
         stroke="null"
         transform="matrix(0.5428182928438817,0,0,0.5428182928438817,-894.0307544674238,-912.1723521702672) "
         id="svg_96" />
      <g
         stroke="null"
         transform="matrix(0.5428182928438817,0,0,0.5428182928438817,-894.0307544674238,-912.1723521702672) "
         id="svg_97" />
    </g>
    <g
       stroke="null"
       id="svg_41">
      <g
         stroke="null"
         transform="matrix(1.0103466267736998,0,0,1.0103466267736998,-112.17072338907518,-156.8734603549583) "
         id="svg_5">
        <g
           stroke="null"
           id="svg_6">
          <g
             stroke="null"
             id="svg_8" />
          <g
             stroke="null"
             id="svg_10" />
          <g
             stroke="null"
             id="svg_20">
            <g
               stroke="null"
               id="svg_21">
              <path
                 stroke="null"
                 id="svg_22"
                 fill="#e6b869"
                 d="m593.089848,315.3796l-19.88,-10l-19.877,10l-19.876,-10l-19.877,10l-19.876,-10l-19.874,10l-19.873,-10l-19.871,10l-19.875,-10l-19.872,10l-19.869,-10l-19.873,10l-19.874,-10l-19.872,10l-19.875,-10l-19.872,10l-19.872,-10l0,353.272l357.738,0l0,-353.272l-19.88,10z" />
            </g>
            <g
               stroke="null"
               id="svg_23">
              <path
                 stroke="null"
                 id="svg_24"
                 fill="#e6b869"
                 d="m593.089848,315.3796l-19.88,-10l-19.877,10l-19.876,-10l-19.877,10l-19.876,-10l-19.874,10l-19.873,-10l-19.871,10l-19.875,-10l-19.872,10l-19.869,-10l-19.873,10l-19.874,-10l-19.872,10l-19.875,-10l-19.872,10l-19.872,-10l0,353.272l357.738,0l0,-353.272l-19.88,10z"
                 style="fill:#9a4121;fill-opacity:1" />
            </g>
            <path
               stroke="null"
               id="svg_25"
               fill="#ba8d3f"
               d="m533.456848,305.3796l0,353.272l39.845,-39.845l0,-313.427l-19.969,10l-19.876,-10z"
               style="fill:#7e3a1a;fill-opacity:1" />
            <path
               stroke="null"
               id="svg_26"
               fill="#c79f5b"
               d="m612.969848,305.3796l0,353.272l-39.845,-39.845l0,-313.427l19.969,10l19.876,-10z"
               style="fill:#aa4400" />
          </g>
        </g>
        <path
           style="clip-rule:evenodd;fill:#f4e8d7;fill-opacity:1;fill-rule:evenodd;stroke:none;stroke-width:0.869795px;stroke-linecap:butt;stroke-linejoin:miter;stroke-opacity:1;image-rendering:optimizeQuality;shape-rendering:geometricPrecision;text-rendering:geometricPrecision"
           d="m 416.45791,414.06988 c -8.5,-9.59781 43.71865,-43.00544 61.65104,-43.61869 17.93238,-0.61324 61.27769,135.30141 15.66447,145.5338 -19.55955,4.38778 -124.73238,13.04058 -204.15299,2.56182 -16.59947,-2.19016 -18.12198,-42.05411 -8.26681,-57.472 13.23431,-20.70435 44.36784,-15.19237 65.48472,-7.9019 47.1637,16.28296 78.17212,29.22914 90.35841,9.87748 9.50531,-15.09437 -12.23881,-39.38267 -20.73884,-48.98051 z"
           id="path973-0"
           sodipodi:nodetypes="zzssassz" />
        <ellipse
           style="clip-rule:evenodd;fill:#f4e8d7;fill-opacity:1;fill-rule:evenodd;stroke:none;stroke-width:126.125;stroke-linecap:round;stroke-linejoin:round;image-rendering:optimizeQuality;shape-rendering:geometricPrecision;text-rendering:geometricPrecision"
           id="path1798-3"
           cx="402.99802"
           cy="580.75391"
           rx="35.214832"
           ry="34.114368"
           transform="rotate(-1.0338857)" />
      </g>
    </g>
    <!-- Created with Method Draw - http://github.com/duopixel/Method-Draw/ -->
    <!-- Created with Method Draw - http://github.com/duopixel/Method-Draw/ -->
    <g
       stroke="null"
       id="svg_362">
      <g
         stroke="null"
         transform="matrix(0.2913892578664238,0,0,0.2913892578664238,-356.29892508314146,-390.4657734698378) "
         id="svg_359">
        <title
           stroke="null"
           transform="translate(0,3.431835412979126) translate(0,3.431835412979126) translate(-3.431835412979126,-2.2737367544323206e-13) translate(-3.431835412979126,-2.2737367544323206e-13) translate(-43.10662078857422,880.093505859375) translate(35.922183990478516,244.27085876464844) translate(-804.6569213867188,-524.4638671875) translate(2035.9710693359375,0) translate(0,2093.02099609375) "
           id="title14025">background</title>
        <rect
           stroke="null"
           x="1216.26604"
           y="2698.785164"
           width="514"
           height="402"
           id="svg_357"
           fill="none" />
        <g
           stroke="null"
           id="svg_356"
           display="none">
          <rect
             stroke="null"
             id="svg_360"
             width="512"
             height="512"
             x="1217.26604"
             y="2699.785164"
             stroke-width="0"
             fill="url(#gridpattern)" />
        </g>
      </g>
      <g
         stroke="null"
         transform="matrix(0.2913892578664238,0,0,0.2913892578664238,-356.29892508314146,-390.4657734698378) "
         id="svg_361">
        <title
           stroke="null"
           transform="translate(0,3.431835412979126) translate(0,3.431835412979126) translate(-3.431835412979126,-2.2737367544323206e-13) translate(-3.431835412979126,-2.2737367544323206e-13) translate(-43.10662078857422,880.093505859375) translate(35.922183990478516,244.27085876464844) translate(-804.6569213867188,-524.4638671875) translate(2035.9710693359375,0) translate(0,2093.02099609375) "
           id="title14031">Layer 1</title>
        <g
           stroke="null"
           id="svg_337">
          <path
             stroke="null"
             d="m1478.62111,2914.339344c-103.23582,68.59659 -216.95443,24.84486 -247.62306,-95.23586c103.23581,-68.58028 216.95443,-24.84812 247.62306,95.23586zm0,0"
             fill="#5f9548"
             id="svg_355" />
          <path
             stroke="null"
             d="m1474.50368,2905.595524l-79.83304,-30.70451l-27.49737,-61.85927l-12.21525,5.42574l22.07163,49.65054l-21.11568,-8.12392l-22.72415,-51.12199l-12.21524,5.42574l17.30167,38.91327l-21.10915,-8.1174l-15.56922,-35.03402l-12.21525,5.43227l10.13696,22.81223l-31.44513,-12.09453l-4.80257,12.48278l31.44512,12.08801l-22.81224,10.14349l5.43227,12.21198l35.02422,-15.56922l21.10915,8.12067l-38.90674,17.29188l5.43227,12.22177l51.12199,-22.72415l21.10914,8.1174l-49.64728,22.06183l5.43226,12.21525l61.85274,-27.49409l79.83631,30.70125l4.80258,-12.473zm0,0"
             fill="#68a34f"
             id="svg_354" />
          <path
             stroke="null"
             d="m1464.40913,2948.746944c-121.49017,-24.50228 -170.97432,-135.83592 -107.75128,-242.43876c121.49344,24.50228 170.97433,135.84244 107.75128,242.43876zm0,0"
             fill="#7eb457"
             id="svg_353" />
          <path
             stroke="null"
             d="m1432.94443,2861.494694l24.29999,-63.17737l-12.473,-4.80584l-19.50394,50.70438l-9.18753,-20.6687l20.08469,-52.21822l-12.47626,-4.79606l-15.28864,39.73545l-9.18101,-20.65891l13.75847,-35.77463l-12.473,-4.80583l-8.96242,23.29837l-13.68343,-30.78282l-12.21525,5.42573l13.68669,30.78934l-23.30815,-8.95915l-4.79605,12.47626l35.78115,13.76499l9.18754,20.66544l-39.75176,-15.29516l-4.80258,12.48278l52.23128,20.09121l9.18101,20.65565l-50.7011,-19.49742l-4.80585,12.473l63.1839,24.30325l34.74038,78.15606l12.21198,-5.42574l-34.73711,-78.15606zm0,0"
             fill="#88c25e"
             id="svg_352" />
          <path
             stroke="null"
             d="m1516.70566,2710.986774l-4.67532,-4.67859l-4.67861,4.64271c-10.70791,10.38818 -23.25595,18.69155 -37.00463,24.4827c-42.07474,18.53494 -71.90814,64.22793 -71.90814,117.87519c0,70.1137 50.85446,126.95506 113.59138,126.95506c62.73691,0 113.59137,-56.84136 113.59137,-126.95506c0,-53.64726 -29.8334,-99.34025 -71.94403,-117.87519c-13.73237,-5.78463 -26.27062,-14.07495 -36.97202,-24.44682zm0,0"
             fill="#95573a"
             id="svg_351" />
          <path
             stroke="null"
             d="m1597.39026,2769.857494c-36.72405,98.53764 -117.47389,143.5879 -173.43435,163.58123c20.10426,28.88072 52.88707,46.30963 88.07442,46.82512c62.73692,0 113.59138,-56.84136 113.59138,-126.95506c0.21206,-30.19554 -9.72914,-59.58522 -28.23145,-83.45129zm0,0"
             fill="#8f4d2e"
             id="svg_350" />
          <path
             stroke="null"
             d="m1418.4845,2873.354314c-6.14026,0.00979 -12.27072,0.41762 -18.35551,1.22349c9.09946,59.97022 55.66683,105.68604 111.90135,105.68604c11.119,-0.01304 22.16623,-1.83685 32.70123,-5.39963c-6.75036,-57.05017 -60.67167,-101.5099 -126.24707,-101.5099zm0,0"
             fill="#8f4d2e"
             id="svg_349" />
          <g
             stroke="null"
             fill="#7a3b1d"
             id="svg_340"
             transform="matrix(0.8352306746648958,0,0,0.8352306746648958,-2052.3082173426806,-1551.5839202441698) ">
            <path
               stroke="null"
               d="m4259.489821,5137.863694l16,0l0,112l-16,0l0,-112zm0,0"
               id="svg_348" />
            <path
               stroke="null"
               d="m4259.489821,5265.863694l16,0l0,32l-16,0l0,-32zm0,0"
               id="svg_347" />
            <path
               stroke="null"
               d="m4259.489821,5313.863694l16,0l0,80l-16,0l0,-80zm0,0"
               id="svg_346" />
            <path
               stroke="null"
               d="m4227.771071,5151.742604c-21.57032,79.98437 -21.57032,164.25781 0,244.24219l15.4375,-4.24219c-20.83203,-77.20703 -20.83203,-158.55469 0,-235.75781l-15.4375,-4.24219zm0,0"
               id="svg_345" />
            <path
               stroke="null"
               d="m4163.169501,5273.695724l16,0.33594c0.80079,-37.69531 12,-69.03125 22.71875,-83.36719l-12.80078,-9.60156c-14.99219,20 -25.16015,56.35156 -25.91797,92.63281zm0,0"
               id="svg_344" />
            <path
               stroke="null"
               d="m4291.771071,5155.984794c20.82812,77.20312 20.82812,158.55078 0,235.75781l15.4375,4.24219c21.57031,-79.98438 21.57031,-164.25782 0,-244.24219l-15.4375,4.24219zm0,0"
               id="svg_343" />
            <path
               stroke="null"
               d="m4366.399971,5231.969164l-15.54297,3.78906c9.83204,41.57813 3.26172,85.34375 -18.34375,122.20313l13.95313,7.80469c23.60937,-40.3711 30.75,-88.29297 19.93359,-133.79688zm0,0"
               id="svg_342" />
            <path
               stroke="null"
               d="m4361.482001,5215.254324c-4,-11.52344 -9.02343,-22.66797 -15.01562,-33.29297l-13.95313,7.80469c5.51563,9.80468 10.14844,20.08203 13.83985,30.70703l15.1289,-5.21875zm0,0"
               id="svg_341" />
          </g>
          <path
             stroke="null"
             d="m1236.06816,2975.621144l-4.67533,4.6427l4.6427,4.6786c10.38818,10.70465 18.69155,23.25595 24.4827,37.00137c18.53495,42.07801 64.22467,71.9114 117.8752,71.9114c70.11043,0 126.95506,-50.85445 126.95506,-113.59137s-56.84463,-113.59137 -126.95506,-113.59137c-53.65053,0 -99.34025,29.83339 -117.8752,71.94403c-5.78136,13.74542 -14.07168,26.29345 -24.45007,37.00464zm0,0"
             fill="#a36548"
             id="svg_339" />
          <path
             stroke="null"
             d="m1481.74669,2914.460074c-44.83491,80.79224 -147.21919,109.96334 -213.81905,121.31072c24.44355,37.00464 66.12678,58.92292 110.46579,58.08442c70.11043,0 126.95506,-50.85445 126.95506,-113.59137c-0.12725,-23.98351 -8.45345,-47.20358 -23.6018,-65.80377zm0,0"
             fill="#95573a"
             id="svg_338" />
        </g>
        <g
           stroke="null"
           id="svg_324"
           transform="rotate(89.69627380371094 1379.82421875,2980.9443359375) ">
          <g
             stroke="null"
             id="svg_325"
             transform="matrix(0.6361448978875195,0,0,0.6361448978875195,-1895.9651063682104,-1634.5375585312665) ">
            <g
               stroke="null"
               id="svg_336" />
            <path
               stroke="null"
               d="m5149.439054,7137.087788c0,-28.822 -23.365,-52.187 -52.187,-52.187c-37.692,0 -62.677,38.661 -47.935,72.836c-37.013,17.987 -50.266,63.764 -29.358,98.562c-13.478,10.613 -22.142,27.064 -22.142,45.549c0,29.072 21.406,53.14 49.316,57.313c-9.689,33.444 15.449,66.726 50.118,66.726c28.822,0 52.187,-23.365 52.187,-52.187l0,-236.612l0.001,0z"
               fill="#ffa912"
               id="svg_335" />
            <g
               stroke="null"
               fill="#fbf1cf"
               id="svg_331">
              <path
                 stroke="null"
                 d="m5081.005054,7339.894788c-4.143,0 -7.5,-3.357 -7.5,-7.5c0,-17.057 13.877,-30.934 30.934,-30.934c4.143,0 7.5,3.357 7.5,7.5s-3.357,7.5 -7.5,7.5c-8.786,0 -15.934,7.148 -15.934,15.934c0,4.142 -3.357,7.5 -7.5,7.5z"
                 id="svg_334" />
              <path
                 stroke="null"
                 d="m5089.574054,7265.200788c-4.143,0 -7.5,-3.357 -7.5,-7.5c0,-8.786 -7.147,-15.934 -15.934,-15.934c-4.143,0 -7.5,-3.357 -7.5,-7.5s3.357,-7.5 7.5,-7.5c17.057,0 30.934,13.877 30.934,30.934c0,4.142 -3.358,7.5 -7.5,7.5z"
                 id="svg_333" />
              <path
                 stroke="null"
                 d="m5099.585054,7195.964788c-1.919,0 -3.839,-0.732 -5.304,-2.196c-12.061,-12.061 -12.061,-31.687 0,-43.748c2.93,-2.928 7.678,-2.928 10.607,0c2.929,2.93 2.929,7.678 0,10.607c-6.213,6.212 -6.213,16.321 0,22.533c2.929,2.93 2.929,7.678 0,10.607c-1.464,1.465 -3.384,2.197 -5.303,2.197z"
                 id="svg_332" />
            </g>
            <path
               stroke="null"
               d="m5149.439054,7137.087788c0,-28.822 23.365,-52.187 52.187,-52.187c37.692,0 62.677,38.661 47.935,72.836c37.013,17.987 50.266,63.764 29.358,98.562c13.478,10.611 22.142,27.063 22.142,45.548c0,29.072 -21.406,53.14 -49.316,57.313c9.688,33.445 -15.45,66.727 -50.119,66.727c-28.822,0 -52.187,-23.365 -52.187,-52.187l0,-236.612z"
               fill="#ffb432"
               id="svg_330" />
            <g
               stroke="null"
               fill="#f5e2a2"
               id="svg_326">
              <path
                 stroke="null"
                 d="m5217.871054,7339.894788c-4.142,0 -7.5,-3.357 -7.5,-7.5c0,-8.786 -7.147,-15.934 -15.933,-15.934c-4.143,0 -7.5,-3.357 -7.5,-7.5s3.357,-7.5 7.5,-7.5c17.057,0 30.933,13.877 30.933,30.934c0,4.142 -3.357,7.5 -7.5,7.5z"
                 id="svg_329" />
              <path
                 stroke="null"
                 d="m5209.303054,7265.200788c-4.143,0 -7.5,-3.357 -7.5,-7.5c0,-17.057 13.877,-30.934 30.934,-30.934c4.143,0 7.5,3.357 7.5,7.5s-3.357,7.5 -7.5,7.5c-8.786,0 -15.934,7.147 -15.934,15.934c0,4.142 -3.357,7.5 -7.5,7.5z"
                 id="svg_328" />
              <path
                 stroke="null"
                 d="m5199.291054,7195.964788c-1.919,0 -3.839,-0.732 -5.304,-2.196c-2.929,-2.93 -2.929,-7.678 0,-10.607c3.01,-3.009 4.667,-7.011 4.667,-11.267s-1.657,-8.258 -4.667,-11.267c-2.929,-2.93 -2.929,-7.678 0,-10.607c2.93,-2.928 7.678,-2.928 10.607,0c12.06,12.061 12.06,31.687 0,43.748c-1.464,1.464 -3.384,2.196 -5.303,2.196z"
                 id="svg_327" />
            </g>
          </g>
        </g>
        <g
           stroke="null"
           id="svg_312"
           transform="rotate(29.92963981628418 1614.4381103515645,2978.3732910156245) ">
          <g
             stroke="null"
             id="svg_313"
             transform="matrix(0.6462224717350914,0,0,0.6462224717350914,-2079.3585775678334,-1491.9593721287945) ">
            <path
               stroke="null"
               d="m5715.982831,6799.331101c0,-28.822 -23.365,-52.187 -52.187,-52.187c-37.692,0 -62.677,38.661 -47.935,72.836c-37.013,17.987 -50.266,63.764 -29.358,98.562c-13.478,10.613 -22.142,27.064 -22.142,45.549c0,29.072 21.406,53.14 49.316,57.313c-9.689,33.444 15.449,66.726 50.118,66.726c28.822,0 52.187,-23.365 52.187,-52.187l0,-236.612l0.001,0z"
               fill="#ffa912"
               id="svg_323" />
            <g
               stroke="null"
               fill="#fbf1cf"
               id="svg_319">
              <path
                 stroke="null"
                 d="m5647.548831,7002.138101c-4.143,0 -7.5,-3.357 -7.5,-7.5c0,-17.057 13.877,-30.934 30.934,-30.934c4.143,0 7.5,3.357 7.5,7.5s-3.357,7.5 -7.5,7.5c-8.786,0 -15.934,7.148 -15.934,15.934c0,4.142 -3.357,7.5 -7.5,7.5z"
                 id="svg_322" />
              <path
                 stroke="null"
                 d="m5656.117831,6927.444101c-4.143,0 -7.5,-3.357 -7.5,-7.5c0,-8.786 -7.147,-15.934 -15.934,-15.934c-4.143,0 -7.5,-3.357 -7.5,-7.5s3.357,-7.5 7.5,-7.5c17.057,0 30.934,13.877 30.934,30.934c0,4.142 -3.358,7.5 -7.5,7.5z"
                 id="svg_321" />
              <path
                 stroke="null"
                 d="m5666.128831,6858.208101c-1.919,0 -3.839,-0.732 -5.304,-2.196c-12.061,-12.061 -12.061,-31.687 0,-43.748c2.93,-2.928 7.678,-2.928 10.607,0c2.929,2.93 2.929,7.678 0,10.607c-6.213,6.212 -6.213,16.321 0,22.533c2.929,2.93 2.929,7.678 0,10.607c-1.464,1.465 -3.384,2.197 -5.303,2.197z"
                 id="svg_320" />
            </g>
            <path
               stroke="null"
               d="m5715.982831,6799.331101c0,-28.822 23.365,-52.187 52.187,-52.187c37.692,0 62.677,38.661 47.935,72.836c37.013,17.987 50.266,63.764 29.358,98.562c13.478,10.611 22.142,27.063 22.142,45.548c0,29.072 -21.406,53.14 -49.316,57.313c9.688,33.445 -15.45,66.727 -50.119,66.727c-28.822,0 -52.187,-23.365 -52.187,-52.187l0,-236.612z"
               fill="#ffb432"
               id="svg_318" />
            <g
               stroke="null"
               fill="#f5e2a2"
               id="svg_314">
              <path
                 stroke="null"
                 d="m5784.414831,7002.138101c-4.142,0 -7.5,-3.357 -7.5,-7.5c0,-8.786 -7.147,-15.934 -15.933,-15.934c-4.143,0 -7.5,-3.357 -7.5,-7.5s3.357,-7.5 7.5,-7.5c17.057,0 30.933,13.877 30.933,30.934c0,4.142 -3.357,7.5 -7.5,7.5z"
                 id="svg_317" />
              <path
                 stroke="null"
                 d="m5775.846831,6927.444101c-4.143,0 -7.5,-3.357 -7.5,-7.5c0,-17.057 13.877,-30.934 30.934,-30.934c4.143,0 7.5,3.357 7.5,7.5s-3.357,7.5 -7.5,7.5c-8.786,0 -15.934,7.147 -15.934,15.934c0,4.142 -3.357,7.5 -7.5,7.5z"
                 id="svg_316" />
              <path
                 stroke="null"
                 d="m5765.834831,6858.208101c-1.919,0 -3.839,-0.732 -5.304,-2.196c-2.929,-2.93 -2.929,-7.678 0,-10.607c3.01,-3.009 4.667,-7.011 4.667,-11.267s-1.657,-8.258 -4.667,-11.267c-2.929,-2.93 -2.929,-7.678 0,-10.607c2.93,-2.928 7.678,-2.928 10.607,0c12.06,12.061 12.06,31.687 0,43.748c-1.464,1.464 -3.384,2.196 -5.303,2.196z"
                 id="svg_315" />
            </g>
          </g>
        </g>
      </g>
    </g>
    <g
       stroke="null"
       transform="rotate(-16.509077072143555 76.75474548339845,70.8194122314453) "
       id="svg_460">
      <g
         stroke="null"
         transform="matrix(0.29867076950834015,0,0,0.29867076950834015,-76.82336408676012,-34.358943005080484) "
         id="svg_419">
        <path
           stroke="null"
           id="svg_420"
           fill="#333E40"
           d="m620.560378,271.572286c-0.012,0 -0.024,0 -0.035,0c-4.265,-0.02 -7.707,-3.485 -7.692,-7.749c0.008,-2.226 0.537,-54.924 30.501,-91.357c2.71,-3.296 7.58,-3.77 10.876,-1.059c3.296,2.71 3.77,7.579 1.06,10.876c-26.411,32.112 -26.98,81.112 -26.984,81.604c-0.024,4.25 -3.478,7.685 -7.726,7.685z" />
        <path
           stroke="null"
           id="svg_421"
           fill="#333E40"
           d="m683.873378,284.539286c-0.012,0 -0.024,0 -0.035,0c-4.265,-0.02 -7.707,-3.485 -7.692,-7.749c0.008,-2.226 0.537,-54.924 30.501,-91.357c2.711,-3.296 7.58,-3.77 10.876,-1.059c3.296,2.71 3.77,7.579 1.06,10.876c-26.411,32.112 -26.98,81.112 -26.984,81.604c-0.024,4.25 -3.478,7.685 -7.726,7.685z" />
        <path
           stroke="null"
           id="svg_422"
           fill="#333E40"
           d="m261.433378,401.765286c-4.304,0.826 -4.304,6.987 0,7.812l63.349,19.879l0,-47.581l-63.349,19.89z" />
      </g>
      <ellipse
         stroke="null"
         id="svg_423"
         fill="#D9D9D9"
         ry="60.009"
         rx="64.83"
         cy="-174.39547"
         cx="286.777729"
         transform="matrix(-0.08676385854217282,0.2857980593425307,-0.2857980593425307,-0.08676385854217282,53.76367992137064,-69.79133160662515) " />
      <g
         stroke="null"
         transform="matrix(0.29867076950834015,0,0,0.29867076950834015,-76.82336408676012,-34.358943005080484) "
         id="svg_424">
        <path
           stroke="null"
           id="svg_425"
           fill="#F0F0F0"
           d="m496.381378,252.295286c-0.475,0 -0.956,-0.043 -1.438,-0.135c-4.191,-0.79 -6.95,-4.823 -6.163,-9.014c0.346,-1.846 8.793,-45.524 35.661,-71.801c3.051,-2.984 7.944,-2.929 10.926,0.122c2.983,3.05 2.929,7.943 -0.122,10.926c-23.338,22.825 -31.203,63.204 -31.279,63.609c-0.703,3.707 -3.945,6.293 -7.585,6.293z" />
        <ellipse
           stroke="null"
           id="svg_426"
           fill="#F0F0F0"
           ry="68.56"
           rx="74.067"
           cy="337.42732"
           cx="-27.002896"
           transform="matrix(-0.2905,-0.9569,0.9569,-0.2905,74.6679,296.3123) " />
      </g>
      <path
         stroke="null"
         id="svg_427"
         fill="#D9D9D9"
         d="m52.587207,47.899843c-1.088058,0 -2.056647,-0.77296 -2.26482,-1.881327c-0.028374,-0.149335 -2.729552,-14.018411 -10.766484,-21.878829c-0.910946,-0.890935 -0.927373,-2.352331 -0.036438,-3.263277c0.890935,-0.910349 2.352032,-0.92797 3.263277,-0.036438c9.094824,8.895013 11.957583,23.699824 12.074961,24.325838c0.235054,1.252625 -0.589875,2.458359 -1.8425,2.693413c-0.143661,0.027478 -0.287023,0.040619 -0.427995,0.040619z" />
      <path
         stroke="null"
         id="svg_428"
         fill="#FFCE1C"
         d="m59.719764,98.321741l0,-27.7498l12.174119,-23.811228l-2.639055,-9.614511c-8.858874,1.657623 -17.041557,4.565183 -24.177996,8.444916l-12.573143,8.804814l-7.157944,22.442122l0,21.304783l8.772259,20.230166l10.958529,9.64169c7.136439,3.880032 15.319122,6.787592 24.177996,8.444916l4.429288,-10.567569l-13.964053,-27.570299z" />
      <path
         stroke="null"
         id="svg_429"
         fill="#FAA330"
         d="m72.872926,127.827725c-1.217083,-0.177709 -2.424908,-0.374234 -3.618396,-0.598238c-8.858874,-1.657623 -17.041557,-4.565183 -24.177996,-8.444916c-6.249387,-3.399471 -11.695649,-7.548904 -16.098653,-12.264915l5.140124,11.853944l10.958529,9.64169c0.446214,0.242521 0.896012,0.481159 1.349992,0.715914c1.362536,0.704564 2.760614,1.374184 4.192442,2.007366c3.855242,1.704514 7.991832,3.147094 12.123644,4.248592c2.124147,0.566578 4.296678,1.058788 6.51162,1.473343l3.618695,-8.63278z" />
      <g
         stroke="null"
         transform="matrix(0.29867076950834015,0,0,0.29867076950834015,-76.82336408676012,-34.358943005080484) "
         id="svg_430">
        <path
           stroke="null"
           id="svg_431"
           fill="#3B484A"
           d="m365.088378,405.666286c0,51.426 15.946,99.048 43.054,137.989c-57.471,-31.262 -94.727,-81.427 -94.727,-137.989c0,-56.552 37.256,-106.726 94.727,-137.978c-27.108,38.941 -43.054,86.564 -43.054,137.978z" />
        <path
           stroke="null"
           id="svg_432"
           fill="#3B484A"
           d="m745.982378,485.099286c-24.927,37.959 -67.661,67.557 -121.494,82.151c-23.853,6.47 -49.885,9.994 -77.51,9.994c-19.977,0 -39.375,-1.84 -57.885,-5.312c-40.915,-42.951 -66.131,-101.601 -66.131,-166.264c0,-64.654 25.217,-123.303 66.131,-166.254c18.509,-3.473 37.908,-5.312 57.885,-5.312c62.958,0 117.629,18.292 157.108,48.046c11.637,8.774 21.961,18.53 30.777,29.113l11.119,173.838z" />
      </g>
      <path
         stroke="null"
         id="svg_433"
         fill="#333E40"
         d="m109.69276,125.831111c-7.124194,1.9324 -14.899191,2.984916 -23.149971,2.984916c-5.966546,0 -11.760162,-0.549554 -17.288557,-1.586539c-3.020159,-0.565085 -5.959975,-1.278908 -8.808398,-2.123549c2.558712,4.087309 5.511073,7.892674 8.808398,11.354268c0.691124,0.129623 1.386131,0.251779 2.085618,0.365872c12.698585,2.075463 25.915065,1.609238 38.352911,-1.764248c13.082676,-3.548209 25.647755,-10.586385 34.054142,-21.414993c0.789686,-1.017571 1.53457,-2.058439 2.232564,-3.12111l-0.539399,-8.432372c-7.513063,10.953153 -20.048574,19.482593 -35.747307,23.737755z" />
      <path
         stroke="null"
         id="svg_434"
         fill="#FFCE1C"
         d="m153.213272,86.801711c0.065409,8.411166 -2.613071,16.726758 -7.233806,23.724017c-17.976695,27.224139 -60.470975,25.551284 -75.438263,-5.01289c-2.839762,-5.796901 -4.370748,-12.109009 -4.370748,-18.711126c0,-9.158142 2.947582,-17.757471 8.244508,-25.19945c10.306232,-14.485831 31.190786,-16.621626 43.907888,-4.200804c0.200707,0.197421 0.401115,0.395141 0.598835,0.598835c0.200707,-0.203693 0.401115,-0.401115 0.598835,-0.598835c0.040022,-0.040022 0.080342,-0.077356 0.120364,-0.117079c6.571653,-6.339884 17.170881,-5.691769 23.017362,1.321319c6.598832,7.914775 10.474085,17.807349 10.555025,28.196014z" />
      <path
         stroke="null"
         id="svg_435"
         fill="#FAA330"
         d="m153.189976,85.739638c-0.036139,-1.112549 -0.117378,-2.223903 -0.24043,-3.330179c-0.776245,6.725767 -3.238786,13.235595 -6.97008,18.886147c-7.444966,11.337244 -20.208363,20.1776 -36.286706,24.536102c-3.807455,1.032505 -7.802475,1.811438 -11.955492,2.314997c17.349785,4.790978 37.320406,-1.080591 48.2419,-17.620381c4.199908,-6.360791 6.783411,-13.8186 7.179747,-21.44486c0.057643,-1.094031 0.067201,-2.218228 0.031062,-3.341827z" />
      <path
         stroke="null"
         id="svg_436"
         fill="#333E40"
         d="m17.065397,82.186352c-0.052865,0.435462 -0.097367,0.872716 -0.134999,1.311463c-0.013142,0.152322 -0.023296,0.305242 -0.034646,0.457862c-0.343471,4.583402 0.148439,9.206825 1.433321,13.619088c2.570958,8.827513 8.177904,16.478861 15.086159,22.437343c3.457114,2.981332 7.370896,5.668771 11.662198,8.002883c-3.019263,-4.336998 -5.574391,-9.035388 -7.592211,-14.018411c-11.384135,-8.274972 -18.912729,-19.40464 -20.419822,-31.810229z" />
      <g
         stroke="null"
         transform="matrix(0.29867076950834015,0,0,0.29867076950834015,-76.82336408676012,-34.358943005080484) "
         id="svg_437">
        <path
           stroke="null"
           id="svg_438"
           fill="#3B484A"
           d="m582.632378,423.508286c-4.268,0 -7.726,-3.459 -7.726,-7.726l0,-13.186c0,-4.267 3.458,-7.726 7.726,-7.726s7.726,3.459 7.726,7.726l0,13.186c0.001,4.266 -3.458,7.726 -7.726,7.726z" />
        <path
           stroke="null"
           id="svg_439"
           fill="#3B484A"
           d="m728.354378,423.508286c-4.268,0 -7.726,-3.459 -7.726,-7.726l0,-13.186c0,-4.267 3.458,-7.726 7.726,-7.726c4.268,0 7.726,3.459 7.726,7.726l0,13.186c0.001,4.266 -3.458,7.726 -7.726,7.726z" />
        <path
           stroke="null"
           id="svg_440"
           fill="#3B484A"
           d="m655.494378,430.547286c-9.239,0 -17.914,-3.863 -23.8,-10.597c-2.809,-3.213 -2.481,-8.094 0.732,-10.902c3.212,-2.808 8.094,-2.48 10.901,0.732c2.953,3.378 7.387,5.315 12.166,5.315c4.78,0 9.213,-1.937 12.165,-5.315c2.809,-3.213 7.691,-3.542 10.902,-0.732c3.213,2.808 3.542,7.689 0.733,10.902c-5.886,6.734 -14.559,10.597 -23.799,10.597z" />
      </g>
      <circle
         stroke="null"
         transform="matrix(0.29867076950834015,0,0,0.29867076950834015,-76.82336408676012,-34.358943005080484) "
         id="svg_441"
         fill="#FFCE1C"
         r="18.195"
         cy="177.377261"
         cx="649.303372" />
      <path
         stroke="null"
         id="svg_442"
         fill="#FAA330"
         d="m122.312496,17.086279c-0.597342,2.007665 -2.331424,3.574492 -4.543081,3.847178c-2.680271,0.330629 -5.139228,-1.352979 -5.873958,-3.863008c-0.206979,0.696202 -0.279556,1.444671 -0.185176,2.211657c0.367664,2.978644 3.080192,5.095622 6.058835,4.728257c2.978644,-0.367664 5.095622,-3.080192 4.728257,-6.059134c-0.036438,-0.298073 -0.103041,-0.585096 -0.184877,-0.864951z" />
      <circle
         stroke="null"
         transform="matrix(0.29867076950834015,0,0,0.29867076950834015,-76.82336408676012,-34.358943005080484) "
         id="svg_443"
         fill="#FFCE1C"
         r="18.195"
         cy="190.336261"
         cx="712.618372" />
      <path
         stroke="null"
         id="svg_444"
         fill="#FAA330"
         d="m141.222238,20.959441c-0.597342,2.007665 -2.331424,3.574492 -4.543081,3.847178c-2.680271,0.330629 -5.139228,-1.352979 -5.873958,-3.863008c-0.206979,0.696202 -0.279556,1.444671 -0.185176,2.211657c0.367664,2.978644 3.080192,5.095622 6.058835,4.728257c2.978644,-0.367664 5.095622,-3.080192 4.728257,-6.059134c-0.036438,-0.298372 -0.103041,-0.585395 -0.184877,-0.864951z" />
      <g
         stroke="null"
         transform="matrix(0.29867076950834015,0,0,0.29867076950834015,-76.82336408676012,-34.358943005080484) "
         id="svg_445" />
      <g
         stroke="null"
         transform="matrix(0.29867076950834015,0,0,0.29867076950834015,-76.82336408676012,-34.358943005080484) "
         id="svg_446" />
      <g
         stroke="null"
         transform="matrix(0.29867076950834015,0,0,0.29867076950834015,-76.82336408676012,-34.358943005080484) "
         id="svg_447" />
      <g
         stroke="null"
         transform="matrix(0.29867076950834015,0,0,0.29867076950834015,-76.82336408676012,-34.358943005080484) "
         id="svg_448" />
      <g
         stroke="null"
         transform="matrix(0.29867076950834015,0,0,0.29867076950834015,-76.82336408676012,-34.358943005080484) "
         id="svg_449" />
      <g
         stroke="null"
         transform="matrix(0.29867076950834015,0,0,0.29867076950834015,-76.82336408676012,-34.358943005080484) "
         id="svg_450" />
      <g
         stroke="null"
         transform="matrix(0.29867076950834015,0,0,0.29867076950834015,-76.82336408676012,-34.358943005080484) "
         id="svg_451" />
      <g
         stroke="null"
         transform="matrix(0.29867076950834015,0,0,0.29867076950834015,-76.82336408676012,-34.358943005080484) "
         id="svg_452" />
      <g
         stroke="null"
         transform="matrix(0.29867076950834015,0,0,0.29867076950834015,-76.82336408676012,-34.358943005080484) "
         id="svg_453" />
      <g
         stroke="null"
         transform="matrix(0.29867076950834015,0,0,0.29867076950834015,-76.82336408676012,-34.358943005080484) "
         id="svg_454" />
      <g
         stroke="null"
         transform="matrix(0.29867076950834015,0,0,0.29867076950834015,-76.82336408676012,-34.358943005080484) "
         id="svg_455" />
      <g
         stroke="null"
         transform="matrix(0.29867076950834015,0,0,0.29867076950834015,-76.82336408676012,-34.358943005080484) "
         id="svg_456" />
      <g
         stroke="null"
         transform="matrix(0.29867076950834015,0,0,0.29867076950834015,-76.82336408676012,-34.358943005080484) "
         id="svg_457" />
      <g
         stroke="null"
         transform="matrix(0.29867076950834015,0,0,0.29867076950834015,-76.82336408676012,-34.358943005080484) "
         id="svg_458" />
      <g
         stroke="null"
         transform="matrix(0.29867076950834015,0,0,0.29867076950834015,-76.82336408676012,-34.358943005080484) "
         id="svg_459" />
    </g>
  </g>
</svg>
