<svg width="1080" height="1080" version="1.1" viewBox="0 0 1080 1080" xml:space="preserve" xmlns="http://www.w3.org/2000/svg"><g transform="matrix(1.3333 0 0 -1.3333 0 2800)"><g transform="scale(.1)"><g transform="matrix(.28068 0 0 .28068 -5845.1 15378)" stroke="null"><g transform="matrix(32.587 0 0 -32.587 23107 19794)"><path d="m308.77 156.1h-76.03v101.46h152.12v-101.46z" fill="#e6e9ed"/><path d="m327.79 80.004c3.4876 0 6.3411 2.8535 6.3411 6.3411v12.682c0 3.4876-2.8535 6.3411-6.3411 6.3411h-38.047c-3.4876 0-6.3411-2.8535-6.3411-6.3411v-12.682c0-3.4876 2.8535-6.3411 6.3411-6.3411z" fill="#656d78"/><path d="m232.74 301.94c0-10.526 8.4971-19.023 19.023-19.023-10.526 0-19.023-8.4971-19.023-19.023v-6.3411h152.12v6.3411c0 10.526-8.4971 19.023-19.023 19.023 10.526 0 19.023 8.4971 19.023 19.023v133.16c0 21.052-16.994 38.047-38.047 38.047h-76.03c-20.989 0-38.047-16.994-38.047-38.047v-120.48z" fill="#d89700"/><path d="m384.86 156.1h-152.12v-6.3411c0-10.526 8.4971-19.023 19.023-19.023h25.301c7.0323 0 12.682-5.6436 12.682-12.682v-12.682h38.047v12.682c0 6.9752 5.707 12.682 12.682 12.682h25.364c10.526 0 19.023 8.4971 19.023 19.023z" fill="#d89700"/><g transform="matrix(6.3411 0 0 6.3411 -93.878 -161.3)" fill="#f6bb42"><path d="m75.498 77.053v-1.998c-1e-3 0-2e-3 -1e-3 -3e-3 -1e-3h-1.994c-0.553 0-1 0.447-1 1s0.447 1 1 1h1.994c1e-3 0 2e-3 -1e-3 3e-3 -1e-3z"/><path d="m75.498 81.053v-1.998c-1e-3 0-2e-3 -1e-3 -3e-3 -1e-3h-1.994c-0.553 0-1 0.447-1 1s0.447 1 1 1h1.994c1e-3 0 2e-3 -1e-3 3e-3 -1e-3z"/><path d="m75.498 85.053v-1.998c-1e-3 0-2e-3 -1e-3 -3e-3 -1e-3h-1.994c-0.553 0-1 0.447-1 1s0.447 1 1 1h1.994c1e-3 0 2e-3 -1e-3 3e-3 -1e-3z"/><path d="m51.508 83.055v1.998c1e-3 0 2e-3 1e-3 3e-3 1e-3h1.994c0.553 0 1-0.447 1-1s-0.447-1-1-1h-1.994c-1e-3 0-2e-3 1e-3 -3e-3 1e-3z"/><path d="m51.508 79.055v1.998c1e-3 0 2e-3 1e-3 3e-3 1e-3h1.994c0.553 0 1-0.447 1-1s-0.447-1-1-1h-1.994c-1e-3 0-2e-3 1e-3 -3e-3 1e-3z"/><path d="m51.508 75.055v1.998c1e-3 0 2e-3 1e-3 3e-3 1e-3h1.994c0.553 0 1-0.447 1-1s-0.447-1-1-1h-1.994c-1e-3 0-2e-3 1e-3 -3e-3 1e-3z"/></g></g><g transform="matrix(32.587 0 0 -32.587 23107 19794)"><g transform="matrix(.1889 0 0 .1889 -697.14 -529.64)" stroke="null"><path d="m5362.4 3957c-18.14 21.2-35.7 33.74-35.7 33.74s-104.01-23.21-123.78-103.19c-0.37-1.45-0.7-2.93-1-4.42-16.95-83.56 6.5-165.92 56.92-226.87 70.18 36.48 123.88 103.19 140.83 186.75 9.46 46.62-14.36 87.22-37.27 113.99z" fill="#5b5b68"/><g fill="#40404c"><path d="m5258.9 3871.5c16.819 82.904 66.938 118.63 67.715 119.18-1.662-0.373-107.95-24.703-124.77-107.61-16.952-83.557 6.506-165.91 56.926-226.87-15.63 53.9-16.824 131.74 0.128 215.3z"/><path d="m5308.9 3910.8c-3.494 0-6.621-2.454-7.342-6.01l-35.594-175.44c-0.824-4.06 1.799-8.018 5.859-8.841 4.058-0.826 8.018 1.799 8.841 5.859l35.593 175.44c0.824 4.06-1.799 8.018-5.859 8.841-0.502 0.103-1.004 0.152-1.498 0.152z"/><path d="m5362.4 3957c-18.14 21.2-35.7 33.74-35.7 33.74s-104.01-23.21-123.78-103.19c58.4 2.39 115.71 25.93 159.48 69.45z" stroke="null"/></g><path d="m5368.1 3860.7c-59.225 61.332-17.915 163.79-17.915 163.79s103.84 37.703 163.07-23.629c59.224-61.332 83.739-143.38 74.007-221.88-78.791-6.983-159.94 20.385-219.16 81.717z" fill="#5b5b68"/><path d="m5409.9 3901.1c-58.761 60.853-59.78 122.39-59.795 123.34-0.635-1.581-40.845-102.93 17.916-163.78 59.224-61.332 140.37-88.693 219.17-81.713-53.263 17.679-118.06 60.821-177.29 122.15z" fill="#40404c"/><path d="m5404.7 3975.5c-1.888 0-3.776-0.708-5.234-2.129-2.966-2.891-3.027-7.64-0.136-10.605l79.297-81.353 26.841-27.796 25.549-27.223c2.834-3.02 7.581-3.17 10.601-0.336 3.021 2.834 3.171 7.581 0.336 10.601l-25.585 27.262c-0.024 0.026-0.049 0.052-0.074 0.078l-26.902 27.86-79.322 81.377c-1.469 1.507-3.419 2.264-5.371 2.264z" fill="#40404c"/><path d="m5228.9 4108.1c48.017 58.349 142.41 32.334 142.41 32.334s43.697-87.624-4.32-145.97c-48.016-58.349-117.79-88.23-187.89-87.597-14.114 68.67 1.781 142.89 49.797 201.24z" fill="#ffca5e"/><path d="m5268.7 4075.3c47.641 57.893 101.72 65.011 102.56 65.121-1.456 0.399-94.764 25.559-142.4-32.334-48.016-58.349-63.905-132.56-49.792-201.24 10.181 48.687 41.618 110.11 89.634 168.46z" fill="#e8a328"/></g></g></g><g transform="matrix(4.4893 0 0 -4.437 4046.4 19585)" clip-rule="evenodd" fill-rule="evenodd" image-rendering="optimizeQuality" shape-rendering="geometricPrecision" text-rendering="geometricPrecision"><g><title>background</title><rect x="-1" y="-1" width="514" height="514" fill="none"/><g x="0" y="0" width="100%" height="100%" display="none" overflow="visible"><rect width="100%" height="100%" fill="url(#gridpattern)" stroke-width="0"/></g></g><g><title>Layer 1</title><g stroke="null"><g transform="matrix(.99194 0 0 .99194 -170.14 -279.29)" stroke="null"><path d="m591.08 436.43c-105.97-7.058-211.94-7.058-317.91 0-31.779 2.116-57.418 26.877-60.365 58.59-7.348 79.078-7.348 158.15 0 237.23 2.947 31.713 28.585 56.473 60.365 58.59 105.97 7.058 211.94 7.058 317.91 0 31.779-2.116 57.418-26.877 60.365-58.59 7.348-79.078 7.348-158.16 0-237.23-2.947-31.713-28.586-56.474-60.365-58.59z" fill="#dd636e"/><path d="m286.71 740.05c1.311 22.57 9.313 41.832 20.767 52.815-11.434-0.594-22.878-1.281-34.311-2.039-31.771-2.11-57.415-26.873-60.365-58.583-7.346-79.083-7.346-158.16 0-237.24 2.951-31.709 28.595-56.472 60.365-58.583 11.434-0.758 22.878-1.445 34.311-2.039-11.454 10.983-19.456 30.244-20.767 52.815-4.867 84.288-4.867 168.57 0 252.85z" fill="#da4a54"/><ellipse cx="432.12" cy="618.58" rx="151.5" ry="119.69" fill="#f9efda"/><path d="m568.27 385.17h-0.035c6.388-4.227 11.007-10.981 12.367-18.978 3.195-18.792 3.195-37.583 0-56.375-2.261-13.298-13.497-23.212-26.978-23.662-81.002-2.703-162-2.703-243.01 0-13.481 0.45-24.717 10.364-26.978 23.662-3.195 18.792-3.195 37.583 0 56.375 1.36 7.997 5.979 14.751 12.367 18.978h-0.035c-46.169 29.259-109 46.069-88.683 85.358 20.318 39.29 74.087-23.107 106.01-18.037 31.919 5.07-12.519 84.01 25.385 84.01 37.903 0 58.797-65.97 93.442-65.97s55.539 65.97 93.442 65.97-6.535-78.941 25.385-84.01 85.689 57.327 106.01 18.037c20.316-39.29-42.515-56.099-88.684-85.358z" fill="#ffe07d"/><path d="m356.44 366.19c0.7 7.994 3.049 21.903 6.305 26.127l-0.02-7.151c-19.718 24.508-45.38 40.29-47.09 67.868-0.731-0.237-1.504-0.41199-2.339-0.54599-31.925-5.068-85.69 57.33-106 18.038-20.325-39.291 42.505-56.104 88.678-85.361h0.031c-6.387-4.224-11.003-10.982-12.362-18.976-3.194-18.79-3.194-37.581 0-56.371 2.256-13.3 13.495-23.22 26.98-23.663 17.873-0.597 35.747-1.061 53.611-1.391-4.028 5.635-6.995 15.885-7.788 25.054-1.629 18.791-1.629 37.581-1e-3 56.372z" fill="#ffd064"/><path d="m432.1 402.54c-48.998 0-97.996-3.236-146.65-9.709-4.229-0.563-7.202-4.448-6.64-8.678 0.563-4.23 4.456-7.198 8.678-6.64 95.958 12.766 193.27 12.766 289.23 0 4.228-0.56099 8.115 2.409 8.678 6.64 0.562 4.229-2.41 8.115-6.64 8.678-48.655 6.473-97.653 9.709-146.65 9.709z" fill="#f9efda"/><path d="m471.27 335.05c-8.971-6.325-19.055-6.695-27.661-1.01-4.739 3.13-8.613 7.796-11.509 13.51-2.896-5.715-6.77-10.38-11.509-13.51-8.605-5.684-18.687-5.316-27.66 1.01-9.408 6.633-10.932 14.354-10.553 19.663 1.314 18.417 28.305 35.061 39.371 41.137 0.384 1.76 0.974 3.937 1.864 6.366-3.573 6.15-10.181 12.929-22.36 15.811-4.152 0.983-6.721 5.145-5.739 9.298 0.842 3.554 4.012 5.949 7.513 5.949 0.589 0 1.187-0.067 1.786-0.209 12.525-2.964 21.293-9.194 27.258-16.215 5.539 6.563 14.119 13.091 27.318 16.215 0.599 0.142 1.197 0.209 1.787 0.209 3.499 0 6.67-2.394 7.512-5.949 0.982-4.152-1.588-8.315-5.739-9.298-12.143-2.874-18.748-9.62-22.328-15.756 0.85-2.274 1.469-4.452 1.889-6.452 11.103-6.103 38.003-22.722 39.314-41.105 0.378-5.31-1.145-13.031-10.554-19.664zm-73.478 18.56c-0.057-0.802-0.208-2.934 4.043-5.932 2.307-1.626 4.251-2.188 5.875-2.188 1.847 0 3.282 0.727 4.365 1.442 7.752 5.121 10.982 18.42 10.458 31.426-11.849-7.476-24.246-17.755-24.741-24.748zm68.618 0c-0.496 6.993-12.893 17.272-24.742 24.748-0.524-13.005 2.706-26.304 10.458-31.425 1.083-0.71499 2.518-1.443 4.366-1.443 1.625 0 3.568 0.56201 5.875 2.188 4.251 2.998 4.1 5.13 4.043 5.932z" fill="#f9efda"/><path d="m432.94 576.13c40.794 0 64.267-26.006 54.937-35.336s-19.529 8.804-27.463 8.804 3.393-15.977-4.927-19.165-15.032 18.066-23.366 18.066-15.045-21.254-23.366-18.066c-8.32 3.188 3.007 19.165-4.927 19.165s-18.133-18.133-27.463-8.804c-9.33 9.33 14.143 35.336 54.937 35.336" fill="#b3e59f"/><path d="m431.74 576.13h-0.44c-40.796 0-64.27-26.008-54.939-35.335 9.331-9.331 19.529 8.803 27.465 8.803 0.783 0 1.378-0.15499 1.822-0.44 1.675 11.371 11.48 26.972 26.092 26.972z" fill="#95d6a4"/><path d="m432.12 574.03c-38.217 0-69.199 0.61301-69.199 38.83 0 8.183 1.419 17.424 4.028 26.898 5.244 19.06 15.293 39.061 28.254 53.237 1.788 1.961 3.635 3.807 5.53 5.53 9.421 8.54 20.084 13.903 31.387 13.903 16.76 0 32.124-11.798 44.099-28.266 15.334-21.09 25.102-49.842 25.102-71.299 0-38.218-30.982-38.836-69.201-38.833z" fill="#dd636e"/><path d="m432.12 712.43c-38.22 0-69.198-61.347-69.198-99.566 0-38.22 30.978-38.834 69.198-38.834-17.898 0-32.408 0.614-32.408 38.834 1e-3 38.219 14.511 99.566 32.408 99.566z" fill="#da4a54"/><g fill="#664545"><path d="m394.87 630.63c-4.268 0-7.726-3.459-7.726-7.726v-10.036c0-4.267 3.459-7.726 7.726-7.726s7.726 3.459 7.726 7.726v10.036c0 4.267-3.458 7.726-7.726 7.726z"/><path d="m432.12 630.63c-4.268 0-7.726-3.459-7.726-7.726v-10.036c0-4.267 3.459-7.726 7.726-7.726s7.726 3.459 7.726 7.726v10.036c0 4.267-3.459 7.726-7.726 7.726z"/><path d="m469.37 630.63c-4.268 0-7.726-3.459-7.726-7.726v-10.036c0-4.267 3.459-7.726 7.726-7.726 4.268 0 7.726 3.459 7.726 7.726v10.036c0 4.267-3.458 7.726-7.726 7.726z"/><path d="m413.5 673.59c-4.268 0-7.726-3.459-7.726-7.726v-10.036c0-4.267 3.459-7.726 7.726-7.726 4.268 0 7.726 3.459 7.726 7.726v10.036c0 4.267-3.459 7.726-7.726 7.726z"/><path d="m450.75 673.59c-4.268 0-7.726-3.459-7.726-7.726v-10.036c0-4.267 3.459-7.726 7.726-7.726s7.726 3.459 7.726 7.726v10.036c1e-3 4.267-3.458 7.726-7.726 7.726z"/></g></g></g></g></g><g transform="matrix(4.8219 0 0 -5.0495 759.91 19831)" clip-rule="evenodd" fill-rule="evenodd" image-rendering="optimizeQuality" shape-rendering="geometricPrecision" text-rendering="geometricPrecision"><g><title>background</title><rect x="-1" y="-1" width="514" height="514" fill="none"/><g x="0" y="0" width="100%" height="100%" display="none" overflow="visible"><rect width="100%" height="100%" fill="url(#gridpattern)" stroke-width="0"/></g></g><g><title>Layer 1</title><g stroke="null"><g transform="matrix(8.4155 0 0 8.4155 -4.4837 -1.0394)" stroke="null"><path d="m16.859 13.036 2.138 0.855c1.103 0.441 2.279 0.668 3.466 0.668 1.449 0 2.877-0.337 4.173-0.985l0.059-0.03c1.296-0.648 2.725-0.985 4.174-0.985h0.594c1.449 0 2.877 0.337 4.173 0.985l0.059 0.03c1.296 0.648 2.725 0.985 4.174 0.985h0.283c1.003 0 1.999-0.162 2.951-0.479l3.337-1.112h-1e-3c0.767 1.567 2.068 2.854 3.727 3.591 2.736 1.216 4.5 3.93 4.5 6.924v31.076c0 3.314-2.686 6-6 6h-34c-3.314 0-6-2.686-6-6v-31.076c0-2.995 1.764-5.708 4.5-6.924 1.634-0.726 2.922-1.987 3.693-3.523z" fill="#ace54b"/><path d="m33.504 12.79c-0.668-0.149-1.352-0.231-2.041-0.231h-0.594c-1.449 0-2.877 0.337-4.173 0.985l-0.059 0.03c-1.296 0.648-2.725 0.985-4.174 0.985-1.187 0-2.363-0.227-3.466-0.667l-2.138-0.855c-0.771 1.535-2.059 2.796-3.693 3.522-2.736 1.216-4.5 3.93-4.5 6.924v17.339c12.655-4.042 22.316-14.77 24.838-28.032z" fill="#d0f669"/><path d="m46.439 12.968-3.337 1.112c-0.951 0.317-1.947 0.479-2.95 0.479h-0.283c-1.449 0-2.877-0.337-4.173-0.985l-0.059-0.03c-1.296-0.648-2.725-0.985-4.174-0.985h-0.594c-1.449 0-2.877 0.337-4.173 0.985l-0.059 0.03c-1.296 0.648-2.725 0.985-4.174 0.985-1.187 0-2.363-0.227-3.466-0.667l-2.138-0.855c0.521-1.036 0.807-2.196 0.807-3.402v-1.076h28v1.076c0 1.179 0.274 2.315 0.773 3.333z" fill="#c7e2fc"/><path d="m34.49 53.375c5.822-4.06 10.287-9.8 12.807-16.466l2.806-7.42c0.706-1.868 0.749-3.924 0.122-5.821-0.622-1.88-1.96-3.435-3.72-4.321-1.952-0.983-4.234-1.051-6.24-0.185-2.335 1.008-4.201 2.874-5.219 5.218l-0.383 0.881c-3.184 7.331-7.868 13.902-13.745 19.285-1.144 1.047-1.904 2.452-2.158 3.988-0.363 2.195 0.348 4.432 1.911 6.006 1.493 1.504 3.591 2.229 5.686 1.965 2.921-0.367 5.711-1.441 8.133-3.13z" fill="#50761e"/><path d="m19.703 53.315c0.853 0.235 1.753 0.304 2.653 0.191 2.922-0.368 5.713-1.442 8.134-3.131 5.822-4.06 10.287-9.8 12.807-16.466l2.806-7.42c0.706-1.868 0.749-3.924 0.122-5.821-0.21-0.636-0.503-1.234-0.865-1.782-1.632-0.503-3.399-0.428-4.998 0.236 0.48 1.767 0.392 3.647-0.258 5.367l-2.806 7.42c-2.521 6.665-6.986 12.406-12.807 16.466-1.736 1.21-3.661 2.105-5.689 2.65l-9e-3 -0.04c0.158 0.824 0.466 1.614 0.91 2.33z" fill="#6ea22a"/><path d="m28.842 53.375c-5.822-4.06-10.287-9.8-12.807-16.466l-2.806-7.42c-0.706-1.868-0.749-3.924-0.122-5.821 0.622-1.88 1.96-3.435 3.72-4.321 1.952-0.983 4.234-1.051 6.24-0.185 2.335 1.008 4.201 2.874 5.219 5.218l0.383 0.881c3.184 7.331 7.868 13.902 13.745 19.285 1.144 1.047 1.904 2.452 2.158 3.988 0.363 2.195-0.348 4.432-1.911 6.006-1.493 1.504-3.591 2.229-5.686 1.965-2.921-0.367-5.711-1.441-8.133-3.13z" fill="#50761e"/><path d="m43.629 53.315c-0.853 0.235-1.753 0.304-2.653 0.191-2.922-0.368-5.713-1.442-8.134-3.131-5.822-4.06-10.287-9.8-12.807-16.466l-2.806-7.42c-0.706-1.868-0.749-3.924-0.122-5.821 0.21-0.636 0.503-1.234 0.865-1.782 1.632-0.503 3.399-0.428 4.998 0.236-0.48 1.767-0.392 3.647 0.258 5.367l2.806 7.42c2.521 6.665 6.986 12.406 12.807 16.466 1.736 1.21 3.661 2.105 5.689 2.65l9e-3 -0.04c-0.158 0.824-0.466 1.614-0.91 2.33z" fill="#6ea22a"/><path d="m45.666 8.5592h-28c-1.105 0-2-0.895-2-2v-4c0-1.105 0.895-2 2-2h28c1.105 0 2 0.895 2 2v4c0 1.105-0.895 2-2 2z" fill="#758190"/><path d="m45.666 3.5592h-28c-1.105 0-2 0.895-2 2v1c0 1.105 0.895 2 2 2h28c1.105 0 2-0.895 2-2v-1c0-1.105-0.895-2-2-2z" fill="#8892a0"/><g fill="#a8b0bc" stroke="null"><path d="m18.666 3.5582h2v4.999h-2z"/><path d="m22.666 3.5582h2v4.999h-2z"/><path d="m26.666 3.5582h2v4.999h-2z"/><path d="m30.666 3.5582h2v4.999h-2z"/><path d="m34.666 3.5582h2v4.999h-2z"/><path d="m38.666 3.5582h2v4.999h-2z"/><path d="m42.666 3.5582h2v4.999h-2z"/></g><g fill="#ebf7fe"><path d="m16.86 13.036h-1e-3z"/><path d="m17.666 8.5592v1.076c0 1.206-0.286 2.366-0.806 3.402l2.138 0.855c1.102 0.44 2.278 0.667 3.465 0.667 1.449 0 2.877-0.337 4.173-0.985l0.059-0.03c1.296-0.648 2.725-0.985 4.174-0.985h0.594c0.689 0 1.373 0.082 2.041 0.231 0.263-1.384 0.446-2.797 0.549-4.231h-16.387z"/></g></g><g fill="#8cc736" stroke-opacity="null" stroke-width="null"><ellipse cx="417.76" cy="302.47" rx="9.9" ry="16.1"/><ellipse transform="rotate(-42.251 410.8 334.3)" cx="410.8" cy="334.3" rx="9.9" ry="16.1"/><ellipse transform="rotate(38.039 426.34 333.69)" cx="426.34" cy="333.69" rx="9.9" ry="16.1"/><ellipse transform="rotate(-42.251 411.41 365.82)" cx="411.41" cy="365.82" rx="9.9" ry="16.1"/><ellipse transform="rotate(38.039 426.95 365.21)" cx="426.95" cy="365.21" rx="9.9" ry="16.1"/><ellipse transform="rotate(-42.251 411.41 396.12)" cx="411.41" cy="396.12" rx="9.9" ry="16.1"/><ellipse transform="rotate(38.039 426.95 395.51)" cx="426.95" cy="395.51" rx="9.9" ry="16.1"/><ellipse transform="rotate(37.735 411.1 464.89)" cx="411.1" cy="464.89" rx="9.9" ry="16.1"/><ellipse cx="420.79" cy="430.95" rx="9.9" ry="16.1"/><ellipse transform="rotate(-32.201 425.64 465.5)" cx="425.64" cy="465.5" rx="9.9" ry="16.1"/><ellipse cx="260.62" cy="137.71" rx="9.9" ry="16.1"/><ellipse transform="rotate(-42.251 253.66 169.54)" cx="253.66" cy="169.54" rx="9.9" ry="16.1"/><ellipse transform="rotate(38.039 269.2 168.93)" cx="269.2" cy="168.93" rx="9.9" ry="16.1"/><ellipse transform="rotate(-42.251 254.27 201.05)" cx="254.27" cy="201.05" rx="9.9" ry="16.1"/><ellipse transform="rotate(38.039 269.81 200.45)" cx="269.81" cy="200.45" rx="9.9" ry="16.1"/><ellipse cx="112.77" cy="364.47" rx="9.9" ry="16.1"/><ellipse transform="rotate(-42.251 105.81 396.3)" cx="105.81" cy="396.3" rx="9.9" ry="16.1"/><ellipse transform="rotate(38.039 121.35 395.69)" cx="121.35" cy="395.69" rx="9.9" ry="16.1"/><ellipse transform="rotate(-42.251 106.41 427.81)" cx="106.41" cy="427.81" rx="9.9" ry="16.1"/><ellipse transform="rotate(38.039 121.95 427.21)" cx="121.95" cy="427.21" rx="9.9" ry="16.1"/><ellipse transform="rotate(-42.251 106.41 458.12)" cx="106.41" cy="458.12" rx="9.9" ry="16.1"/><ellipse transform="rotate(38.039 121.95 457.51)" cx="121.95" cy="457.51" rx="9.9" ry="16.1"/></g><g fill="#fff" stroke-opacity="null" stroke-width="null"><ellipse transform="rotate(-33.729 180.8 219.74)" cx="180.8" cy="219.74" rx="10.036" ry="13.01"/><ellipse transform="rotate(-33.729 230.59 267.98)" cx="230.59" cy="267.98" rx="20.153" ry="26.124"/><ellipse transform="rotate(21.278 369 227.5)" cx="369" cy="227.5" rx="25.202" ry="19.241"/><ellipse transform="rotate(21.278 336.55 251.47)" cx="336.55" cy="251.47" rx="12.018" ry="9.2039"/><ellipse transform="rotate(-38.314 93.787 273.86)" cx="93.787" cy="273.86" rx="9.0447" ry="11.725"/><ellipse transform="rotate(-39.103 96.55 317.58)" cx="96.55" cy="317.58" rx="13.686" ry="19.094"/><ellipse transform="rotate(-38.314 385.91 415.84)" cx="385.91" cy="415.84" rx="5.0997" ry="6.6108"/><ellipse transform="rotate(-38.314 391.04 444.54)" cx="391.04" cy="444.54" rx="8.3299" ry="10.798"/></g></g></g></g><g transform="matrix(.28068 0 0 .28068 1407.2 14452)"><g stroke-width="24.685"><path d="m-3053.4 7919.7c55.046 0 141.69-1.4811 246.85-3.7027-300.17-5.6775-752.39-16.045-1053.3-9.8739 330.78 4.1964 668.47 13.577 806.45 13.577z" fill="#60b7ff"/><path d="m-1753.2 7906.1c-300.91-6.1712-752.88 4.1964-1053.3 9.8739 105.4 2.2216 192.05 3.7027 246.85 3.7027 137.99 0 475.43-9.3802 806.45-13.577z" fill="#60b7ff"/><path d="m-1518.8 18583-2087 2.419v780.55l2087-2.419z" fill="#c4e2ff"/><path d="m-3605.8 19331h2086.9v-360.62h-2086.9z" fill="#b3dafe"/><path d="m-479.22 10923c-47.049 618.52-21.623 1242.8 108.24 1851 101.75 476.56 130.53 1035.8 130.53 1521.6h-4636.4c0-485.77 26.611-1045 128.36-1521.6 129.86-608.18 155.32-1232.5 108.24-1851-55.491-729.34-273.51-1433.7-267.14-2161.6 3.95-452.08 242.8-946.83 754-1014.5 272-35.99 1318.6 0 1593.6 0 274.99 0 1321.6-35.99 1593.6 0 511.17 67.662 750.02 562.44 754 1014.5 6.368 727.9-211.67 1432.2-267.14 2161.6z" fill="#fcd4d4"/><path d="m-212.06 8761.5c-4.048-452.03-242.9-946.93-754.04-1014.4-131.22-17.253-442.13-18.02-759.87-13.972 107.87 2.2973 196.44 6.5925 252.28 13.972 511.15 67.514 749.97 562.42 754.05 1014.4 6.342 727.9-211.67 1432.2-267.26 2161.6-46.95 618.5-21.575 1242.8 108.37 1851 101.78 476.64 130.46 1035.8 130.46 1521.6h507.59c0-485.77-28.683-1045-130.46-1521.6-129.94-608.11-155.32-1232.5-108.37-1851 55.591-729.43 273.61-1433.7 267.26-2161.6z" fill="#faa"/><path d="m-1361.3 19331h-2396.8c-72.155 0-130.66 58.503-130.66 130.66v777.12c0 72.155 58.503 130.66 130.66 130.66h2396.8c72.156 0 130.66-58.503 130.66-130.66v-777.12c0-72.152-58.502-130.66-130.66-130.66z" fill="#f66"/><path d="m-240.47 16812-1278.1 1800.2h-2086.5l-1267.8-1800.2-3.874-5.507v-68.399h4636.3z" fill="#fcd4d4"/><path d="m-240.47 16812h-508.8l-1276.4 1800.2h507.1z" fill="#faa"/><path d="m-240.44 14225h-4636.3v2581.5l4636.3 5.557z" fill="#0593fc"/><path d="m-749.27 16812h508.8v-2587h-508.8z" fill="#0182fc"/></g><g transform="matrix(24.685 0 0 -24.685 -8879 20370)" stroke="null"><path d="m285.51 256.86c-23.441-2.4397-41.353-14.894-40.008-27.816 1.3449-12.923 21.438-21.422 44.879-18.982 23.441 2.4397 51.188 17.681 50.025 28.859-1.1633 11.178-31.454 20.38-54.895 17.94z" fill="#5eac24"/><path d="m290.38 210.06c-23.441-2.4397-43.534 6.0591-44.879 18.982l25.943-4.7806c14.351-2.6445 29.157-1.1848 42.715 4.2113l26.246 10.446c1.1629-11.178-26.584-26.419-50.025-28.859z" fill="#4e901e"/><path d="m322.26 240.1-74.818-7.7864c-1.681-0.17491-2.9016-1.6796-2.7267-3.3602s1.6813-2.8993 3.3602-2.7267l74.818 7.7863c1.6809 0.17491 2.9016 1.6796 2.7267 3.3602-0.16349 1.5732-1.3764 2.8962-3.3602 2.7267z" fill="#47821c"/><path d="m295.13 231.75c-19.709-12.923-41.461-14.591-48.585-3.7251s3.0772 30.15 22.786 43.072c19.708 12.923 50.845 18.646 57.007 9.2474 6.1625-9.3981-11.499-35.672-31.207-48.595z" fill="#6dc82a"/><path d="m269.33 271.1c-19.709-12.923-29.91-32.207-22.786-43.072l18.403 23.585c7.9109 10.139 18.916 17.417 31.342 20.728l30.047 8.0062c-6.1625 9.3985-37.298 3.6755-57.007-9.247z" fill="#5eac24"/><path d="m313.02 267.95-20.586-13.499 9.1322-1.7384c1.6601-0.31625 2.7499-1.9176 2.4336-3.5781-0.31624-1.6601-1.9173-2.7509-3.5781-2.4336l-15.352 2.9218-11.03-7.2321 9.1322-1.7384c1.6601-0.31624 2.7499-1.9176 2.4336-3.5781-0.31624-1.6605-1.918-2.7506-3.5781-2.4336l-15.352 2.9218-16.561-10.86c-1.4134-0.92693-3.3102-0.53212-4.2368 0.88092-0.92658 1.413-0.53211 3.3102 0.88093 4.2368l16.562 10.86 3.4405 15.243c0.77517 3.0245 3.4321 2.3624 3.6583 2.3114 1.6487-0.37197 2.6834-2.01 2.3114-3.6583l-2.0469-9.0678 11.03 7.2321 3.4404 15.243c0.77619 2.9943 3.4317 2.3624 3.6583 2.3114 1.6487-0.37197 2.6834-2.01 2.3114-3.6583l-2.0469-9.0678 20.586 13.499c2.0831 1.1559 3.6493 0.0148 4.2368-0.88092 0.92726-1.414 0.53312-3.3112-0.87992-4.2378z" fill="#47821c"/><path d="m223.49 256.86c23.441-2.4397 41.353-14.894 40.008-27.816-1.3449-12.923-21.438-21.422-44.879-18.982-23.441 2.4397-51.188 17.681-50.025 28.859 1.1629 11.178 31.454 20.379 54.895 17.94z" fill="#91dc5a"/><path d="m218.62 210.06c23.441-2.4397 43.534 6.0591 44.879 18.982l-29.142-6.385c-13.822-3.0282-28.257-1.4013-41.058 4.6276l-24.703 11.634c-1.1629-11.178 26.584-26.419 50.025-28.859z" fill="#6dc82a"/><path d="m213.87 231.75c19.709-12.923 41.461-14.591 48.585-3.7251s-3.0772 30.15-22.786 43.072c-19.708 12.923-50.845 18.646-57.007 9.2474s11.498-35.672 31.207-48.595z" fill="#b6e892"/><path d="m239.67 271.1c19.709-12.923 29.91-32.207 22.786-43.072l-13.089 18.142c-9.7174 13.468-23.84 23.113-39.921 27.264l-26.783 6.9135c6.1625 9.3985 37.299 3.6755 57.007-9.247z" fill="#91dc5a"/><g transform="matrix(.33572 0 0 .33572 -463.22 -552.34)" fill="#47821c"><path d="m1926 2352.3c-0.521-5.007 3.115-9.488 8.122-10.009l222.86-23.193c5.007-0.521 9.488 3.115 10.009 8.122s-3.115 9.488-8.122 10.009l-222.86 23.193c-7.254 0.46-9.521-3.435-10.009-8.122z"/><path d="m2163.6 2323.1c-2.76-4.208-8.41-5.386-12.62-2.624l-49.331 32.347-45.728-8.703c-4.943-0.943-9.717 2.305-10.658 7.249-0.942 4.945 2.305 9.717 7.249 10.658l27.202 5.178-32.855 21.542-45.728-8.703c-4.943-0.942-9.717 2.305-10.658 7.249-0.942 4.945 2.305 9.717 7.249 10.658l27.202 5.178-61.32 40.208c-4.209 2.76-5.385 8.41-2.624 12.62 1.75 2.668 7.612 5.184 12.62 2.624l61.32-40.208-6.097 27.01c-1.108 4.911 1.974 9.789 6.885 10.897 0.676 0.152 8.587 1.858 10.897-6.885l10.248-45.405 32.855-21.542-6.097 27.01c-1.108 4.911 1.974 9.789 6.885 10.897 0.676 0.152 9.255 1.241 10.897-6.885l10.248-45.405 49.332-32.348c4.213-2.757 5.388-8.408 2.627-12.617z"/></g><path d="m317.45 160.88s3.5653-29.413-25.044-24.217c-2.6529 0.48175-5.3497-0.49821-7.1384-2.5162-6.1541-6.9407-21.907-19.266-39.066 10.352-0.81009 0.21956 37.784 28.554 37.784 28.554z" fill="#c70024"/><g transform="matrix(.33572 0 0 .33572 -463.22 -552.34)" fill="#d80027"><path d="m1952.5 2124.4s-10.62-87.611 74.597-72.136c7.903 1.435 15.935-1.484 21.263-7.495 18.331-20.674 65.255-57.388 116.36 30.835 2.413 0.654-112.55 85.054-112.55 85.054z"/><path d="m2235.4 2123s53.807-26.748 113.14-5.545c9.341 3.338 13.542 14.185 8.871 22.935-12.452 23.328-33.625 71.073-32.254 126.25 1.932 77.747-100.82 155.49-204.07 70.481 1.915-2.782 114.31-214.12 114.31-214.12z"/></g><path d="m297 157.16c-0.65768 7.0118-0.56334 17.236 3.9857 24.681 7.6014 12.441 16.753 48.234-16.162 62.529-10.85 1.4053-23.385-1.7615-35.943-12.1 0.64357-0.93296 38.377-71.884 38.377-71.884s3.7607-1.8693 9.7416-3.2259z" fill="#c70024"/><path d="m221.74 160.38s-18.064-8.9798-37.982-1.8616c-3.136 1.1206-4.5463 4.7622-2.9782 7.6997 4.1804 7.8317 11.289 23.861 10.828 42.384-0.64861 26.101 33.846 52.201 68.509 23.662-0.64324-0.93397-38.377-71.884-38.377-71.884z" fill="#ff0c38"/><path d="m212 157.16c0.65767 7.0118 0.56333 17.236-3.9857 24.681-7.6014 12.441-16.753 48.234 16.162 62.529 10.85 1.4053 23.385-1.7615 35.943-12.1-0.64358-0.93296-38.377-71.884-38.377-71.884s-3.7607-1.8693-9.7416-3.2259z" fill="#d80027"/><path d="m288.23 147.99s-21.541-27.344-49.207 18.64c0.21117 0.15611 19.134 15.207 19.134 15.207z" fill="#ff0c38"/><path d="m239.08 166.68c1.1841 0.93061 19.072 15.159 19.072 15.159l30.073-33.848s-0.98802-1.2532-2.811-2.7717h-1e-3s-23.565-5.7945-46.333 21.46z" fill="#d80027"/><path d="m220.77 147.99s21.541-27.344 49.207 18.64c-0.21117 0.15611-19.134 15.207-19.134 15.207z" fill="#ff3f62"/><path d="m223.28 150.81 27.566 31.026s18.923-15.052 19.134-15.207c-1.7702-2.9426-3.5153-5.5827-5.2315-7.9512-2.7667-2.6988-16.694-14.577-41.469-7.8676z" fill="#ff0c38"/><path d="m292.28 187.04c-5.3927-9.5227-2.8828-24.221-2.8828-24.221l-6.5626-7.0488-28.335 26.71-28.335-26.71-6.5626 7.0488s2.5098 14.698-2.8828 24.221c-6.1766 10.908-10.422 45.923 37.781 45.923s43.957-35.015 37.781-45.923z" fill="#ff3f62"/><path d="m264.77 172.8-10.273 9.6838-28.335-26.71-6.5626 7.0488s2.5098 14.698-2.8828 24.221c-6.1766 10.908-10.422 45.923 37.781 45.923 11.903 0 20.603-2.1375 26.871-5.5179-2.2755-25.062-8.7592-42.507-16.598-54.649z" fill="#ff0c38"/><path d="m292.8 142.79c-23.946 6.0812-36.251 25.509-42.078 39.046l7.6729 10.423c7.837-2.9077 14.251-6.8134 19.485-11.18 2.9892-2.4937 4.4584-6.3679 3.9259-10.224l-0.98198-7.1075 4.7001-3.4e-4c4.4439-3.4e-4 8.5021-2.5867 10.319-6.6422 1.3056-2.9144 2.2782-5.6082 2.9953-7.9142 1.1676-3.7513-2.2298-7.3677-6.0376-6.4008z" fill="#ff728b"/><path d="m259.73 165.89c-3.9914 5.48-6.9188 11.089-9.0077 15.941l7.6729 10.423c4.9438-1.834 9.3199-4.0662 13.192-6.5596-3.4834-8.111-7.5681-14.605-11.857-19.805z" fill="#ff3f62"/><path d="m263.5 195.69-7.3402-14.777-1.6632 1.5678-28.335-26.71-6.5626 7.0488s2.5098 14.698-2.8828 24.221c-6.1769 10.908-10.422 45.923 37.781 45.923 4.4936 0 8.53-0.30517 12.153-0.86582 1.3298-17.918-3.1494-36.408-3.1494-36.408z" fill="#ff728b"/><path d="m244.97 232.45c-9.5099-9.279-14.539-25.283-10.28-43.017 2.0898-8.7039 1.9381-17.257 0.72381-24.939l-9.2474-8.7173-6.5626 7.0488s2.5098 14.698-2.8828 24.221c-5.7351 10.129-9.797 41.041 28.249 45.404z" fill="#ff3f62"/><path d="m210.78 149.19c0.71743 2.3057 1.6897 4.9995 2.9953 7.9142 1.8169 4.0555 5.8754 6.6419 10.319 6.6422l4.7001 3.3e-4 -0.98198 7.1075c-0.53245 3.8557 0.93666 7.7306 3.9259 10.224 7.745 6.4612 18.058 11.921 31.768 14.615 0 0-8.6948-43.256-46.689-52.905-3.8077-0.96687-7.2049 2.6495-6.0376 6.4012z" fill="#ffa5b5"/></g><g fill="#fff" stroke="null" stroke-opacity="null" stroke-width="24.685"><circle transform="scale(1,-1)" cx="-3547.1" cy="-12113" r="481.35"/><circle transform="scale(1,-1)" cx="-2460.9" cy="-10977" r="209.82"/><circle transform="scale(1,-1)" cx="-1547.6" cy="-10014" r="160.45"/></g></g><g clip-rule="evenodd" shape-rendering="geometricPrecision"><g transform="matrix(4.5222 0 0 -3.9935 5776.9 19353)" fill-rule="evenodd" image-rendering="optimizeQuality" text-rendering="geometricPrecision"><g><title>background</title><rect x="-1" y="-1" width="514" height="514" fill="none"/><g x="0" y="0" width="100%" height="100%" display="none" overflow="visible"><rect width="100%" height="100%" fill="url(#gridpattern)" stroke-width="0"/></g></g><g><title>Layer 1</title><g stroke="null"><path d="m400.61 510.78h-289.01l-6.405-8.005a290.67 290.67 0 0 1-55.01-252.08l37.331-149.35h337.18l37.331 149.35a290.67 290.67 0 0 1-55.016 252.08z" fill="#ebebeb"/><g transform="matrix(1.5053 0 0 1.5053 -2629.3 -3428.7)" fill="#e4e4e2"><path d="m2053.6 2444.3-24.8-99.216h-206.57l-24.8 99.216a193.1 193.1 0 0 0 36.549 167.47l4.251 5.318h174.57l4.254-5.318a193.1 193.1 0 0 0 36.546-167.47z"/><path d="m2053.6 2444.3-24.8-99.216h-206.57l-24.8 99.216a193.1 193.1 0 0 0 36.549 167.47l4.251 5.318h174.57l4.254-5.318a193.1 193.1 0 0 0 36.546-167.47z"/></g><path d="m69.454 173.59h373.31l-9.0316-36.127h-355.24z" fill="#d2d2d1"/><rect transform="matrix(1.5053 0 0 1.5053 -2629.3 -3428.7)" x="1788.8" y="2281.1" width="256" height="64" rx="16" fill="#ce9c77"/><g fill="#be906e"><path d="m508.93 173.59c-31.642 0-31.642 24.084-63.283 24.084s-31.621-48.169-63.241-48.169c-31.593 0-31.593 48.169-63.185 48.169s-31.611-48.169-63.222-48.169-31.602 48.169-63.203 48.169c-31.602 0-31.6-48.169-63.202-48.169s-31.602 48.169-63.202 48.169-31.585-24.084-63.172-24.084v-0.0662a50.485 50.485 0 0 1 34.113-47.756l47.172-24.431h343.2l47.115 24.41a50.488 50.488 0 0 1 34.108 47.844z"/><path d="m400.61 65.215h-48.169a12.042 12.042 0 0 1 0-24.084h48.169a12.042 12.042 0 0 1-1e-5 24.084z"/><path d="m304.28 65.215h-12.042a12.042 12.042 0 0 1 0-24.084h12.042a12.042 12.042 0 0 1 0 24.084z"/></g><path d="m472.87 125.43v-0.6864l-45.158-23.398h-343.2l-46.505 24.084z" fill="#b28768"/><path d="m462.03 250.69-1.2042-4.841h-409.43l-1.2042 4.841a290.67 290.67 0 0 0 55.018 252.08l6.3974 8.005h289.01l6.4034-8.005a290.67 290.67 0 0 0 55.012-252.08z" fill="#ffc45b"/><path d="m462.03 250.69-1.2042-4.841h-383.2l-1.2042 4.841a290.67 290.67 0 0 0 55.018 252.08l6.3974 8.005h262.78l6.4034-8.005a290.67 290.67 0 0 0 55.012-252.08z" fill="#fdb62f"/><path d="m190.16 381.37v38.08l32.979 19.04 32.979-19.04v-38.08l48.163-3.0587-12.042-12.042-36.127-48.169v12.042l-24.084 24.084-8.8886 8.1029z" fill="#d38e14"/><path d="m117.8 424.8a12.053 12.053 0 0 1-11.043-7.2253l-5.842-13.371a222.87 222.87 0 0 1-16.117-123.21 12.042 12.042 0 1 1 23.794 3.6443 198.81 198.81 0 0 0 14.383 109.91l5.8495 13.377a12.053 12.053 0 0 1-11.031 16.87z" fill="#ffc45b"/><path d="m223.14 324.11v38.08l32.979 19.04 32.979-19.04v-38.08l-32.979-19.04z" fill="#dc9315"/><path d="m256.11 381.4v38.08l32.979 19.04 32.979-19.04v-38.08l-32.979-19.04z" fill="#ec9e15"/></g></g></g><polygon class="fil64" transform="matrix(3.7639 0 0 -3.0419 -51680 29765)" points="15583 4063 15605 4077 15544 4207 15510 4189" fill="#b2c667" image-rendering="optimizeQuality"/><polygon class="fil58" transform="matrix(3.7639 0 0 -3.0419 -51680 29765)" points="15544 4207 15530 4200 15596 4071 15605 4077" fill="#747f2f" image-rendering="optimizeQuality"/><polygon class="fil64" transform="matrix(3.7639 0 0 -3.0419 -51680 29765)" points="15562 4054 15583 4069 15502 4220 15468 4201" fill="#b2c667" image-rendering="optimizeQuality"/><polygon class="fil58" transform="matrix(3.7639 0 0 -3.0419 -51680 29765)" points="15502 4220 15488 4212 15575 4063 15583 4069" fill="#747f2f" image-rendering="optimizeQuality"/><polygon class="fil64" transform="matrix(3.7639 0 0 -3.0419 -51680 29765)" points="15549 4048 15564 4061 15491 4169 15466 4152" fill="#b2c667" image-rendering="optimizeQuality"/><polygon class="fil58" transform="matrix(3.7639 0 0 -3.0419 -51680 29765)" points="15491 4169 15480 4162 15558 4056 15564 4061" fill="#747f2f" image-rendering="optimizeQuality"/><g fill="#311e69" stroke-width="3.3837"><path class="fil16" d="m6781.2 17643s33.875-51.715 82.806-60.839c48.93-6.083-82.806 60.839-82.806 60.839z" image-rendering="optimizeQuality"/><path class="fil16" d="m7097.4 17595s0 12.169-94.097 42.589c0 0 33.874-36.507 94.097-42.589z" image-rendering="optimizeQuality"/><path class="fil16" d="m7394.8 17573s-60.223 33.464-101.63 33.464c0 0 48.932-45.633 101.63-33.464z" image-rendering="optimizeQuality"/><path class="fil16" d="m7059.8 17430s48.93-45.626 101.62-33.457c0 0-60.222 33.457-101.62 33.457z" image-rendering="optimizeQuality"/></g><path class="fil55" d="m3566.9 17464c22.583 21.295 3.7632 54.758-33.875 51.715-67.75-6.088-158.08-18.251-158.08-66.923-3.7637-63.883 109.15-63.883 191.96 15.208z" fill="#1e1240" image-rendering="optimizeQuality" stroke-width="3.3837"/><polygon class="fil77" transform="matrix(3.7639 0 0 -3.0419 -51680 29765)" points="13870 4157 13870 4902 15813 4902 15813 4157" fill="#7e3a1a" image-rendering="optimizeQuality"/><polygon class="fil85" transform="matrix(3.7639 0 0 -3.0419 -51680 29765)" points="15388 4123 15388 4847 15570 4847 15570 4123" fill="#d38048" image-rendering="optimizeQuality"/><polygon class="fil85" transform="matrix(3.7639 0 0 -3.0419 -51680 29765)" points="13779 4123 13779 4847 13961 4847 13961 4123" fill="#d38048" image-rendering="optimizeQuality"/><path class="fil86" d="m6145.1 16457c0-63.883-63.987-115.59-143.03-115.59-79.04 0-143.03 51.709-143.03 115.59l-5803.9 30.42v-416.75l52.695-124.72-52.695-94.303v-447.16l5051.2 51.709 1893.2-15.207v1016l-858.17 3.044z" fill="#ffbc80" image-rendering="optimizeQuality" stroke-width="3.3837"/><polygon class="fil86" transform="matrix(3.7639 0 0 -3.0419 -51680 29765)" points="15087 4316 15086 4295 15284 4313 15591 4309 15591 3975 13745 3975 13745 4062 13769 4097 13745 4138 13745 4332" fill="#ffbc80" image-rendering="optimizeQuality"/><path class="fil87" d="m55.149 16938s899.57 152.1 1298.5 79.09c402.74-73.003 839.35-182.51 1731.4-112.55 892.04 69.964 1362.5 398.49 2115.3 431.95 752.78 33.464 1799.1-173.39 1799.1-173.39v-508.01s-707.61 57.795-1117.9 146.01c-410.27 88.217-846.88 258.57-1306.1 94.304-462.96-164.27-666.21-234.23-993.67-176.43-331.22 57.795-383.92 103.42-767.83 66.921-383.92-36.507-1475.5-188.6-1475.5-188.6l-1279.7-12.17v349.83z" fill="#ffb675" image-rendering="optimizeQuality" stroke-width="3.3837"/><path class="fil86" d="m5215.5 15331-500.6-36.501-383.92 36.501h-1569.5c0-73.009-90.334-133.84-203.25-133.84-109.15 0-199.49 60.833-199.49 133.84h-2299.7v-541.46l391.45-155.14-391.45-76.046v-209.9l5051.2 45.631 741.49 6.083 1151.8 9.125v918.67h-1787.9z" fill="#ffbc80" image-rendering="optimizeQuality" stroke-width="3.3837"/><g fill="#e59351"><path class="fil88" d="m183.12 17300s2939.6 18.251 3620.9 0c681.27-18.251 1227-24.338 1227-24.338s-3895.6-127.76-4847.9 24.338z" image-rendering="optimizeQuality" stroke-width="3.3837"/><polygon class="fil88" transform="matrix(3.7639 0 0 -3.0419 -51680 29765)" points="15284 4313 15084 4273 15086 4295" image-rendering="optimizeQuality"/><polygon class="fil88" transform="matrix(3.7639 0 0 -3.0419 -51680 29765)" points="15591 4053 15512 4061 15591 4076" image-rendering="optimizeQuality"/><path class="fil88" d="m3800.2 17050s1494.3 39.545 2156.7 30.419c662.45-9.125 1046.4-30.419 1046.4-30.419v-91.259z" image-rendering="optimizeQuality" stroke-width="3.3837"/><polygon class="fil88" transform="matrix(3.7639 0 0 -3.0419 -51680 29765)" points="13759 4543 14423 4550 13747 4507" image-rendering="optimizeQuality"/></g><g stroke-width="3.3837"><path class="fil87" d="m55.149 15769s459.2 51.715 1151.8 0c692.56-51.714 1012.5-112.55 1324.9-79.089 312.4 33.457 643.63 258.56 809.24 255.52 165.61-3.044 1313.6-212.94 1923.4-149.06 609.75 60.84 0 249.44 312.4 349.82 312.4 103.43 846.88-27.377 989.91-158.18 143.03-130.8 436.61-307.23 436.61-307.23v-243.36l-6944.4-33.459v368.07z" fill="#ffb675" image-rendering="optimizeQuality"/><path class="fil88" d="m3661 14985s-308.64 54.759-402.74-15.206c-94.098-69.965 474.25-158.18 575.88-88.215 101.63 69.959-173.14 103.42-173.14 103.42z" fill="#e59351" image-rendering="optimizeQuality"/><path class="fil88" d="m2870.5 17084c-18.82 9.126-41.403 12.164-67.75 18.251-75.279 9.126-278.53 33.458-199.49-21.295 94.098-63.883 395.21-48.669 263.47 6.083z" fill="#e59351" image-rendering="optimizeQuality"/></g><polygon class="fil87" transform="matrix(3.7639 0 0 -3.0419 -51680 29765)" points="13745 5068 13745 4999 15591 4947 15591 5047" fill="#ffb675" image-rendering="optimizeQuality"/><polygon class="fil89" transform="matrix(3.7639 0 0 -3.0419 -51680 29765)" points="15824 4062 15824 4772 15801 4778 15801 4068" fill="#ae4c0a" image-rendering="optimizeQuality"/><polygon class="fil89" transform="matrix(3.7639 0 0 -3.0419 -51680 29765)" points="15618 4113 15618 4823 15595 4829 15595 4119" fill="#ae4c0a" image-rendering="optimizeQuality"/><path class="fil90" d="m7782.4 16636c0-60.84-7.5271-115.59-18.82-115.59-11.292-3.043-18.819 45.626-18.819 109.5l-745.25-176.43v-1006.9l647.39 179.48 240.89 33.463v994.72l-109.15-18.251z" fill="#e2934c" image-rendering="optimizeQuality" stroke-width="3.3837"/><polygon class="fil90" transform="matrix(3.7639 0 0 -3.0419 -51680 29765)" points="15827 3917 15591 3975 15591 4310 15763 4267 15762 4247 15788 4258 15827 4245" fill="#e2934c" image-rendering="optimizeQuality"/><path class="fil91" d="m7003.3 16953s116.68 173.39 165.61 112.55c52.695-60.834 109.15-158.18 222.07-66.922 112.92 91.26 173.14 425.87 271 477.59 97.863 51.715 229.6-121.68 229.6-121.68v-498.88s-90.332 39.545-143.03 115.59c-52.695 76.047-109.15 234.23-169.38 60.841-60.22-173.4-86.568-246.4-127.97-197.73-41.404 48.67-48.933 91.259-97.861 45.626-48.932-45.626-353.81-219.02-353.81-219.02v298.11z" fill="#e28c3f" image-rendering="optimizeQuality" stroke-width="3.3837"/><path class="fil90" d="m7662 15508-63.986-48.67-48.929 24.338-199.49-39.546c0-73.009-11.29-133.85-26.346-136.89-15.057-3.043-26.348 54.758-26.348 127.77l-293.58-103.43v-915.62l647.39 173.39 94.097 24.338 146.79 39.545v900.42z" fill="#e2934c" image-rendering="optimizeQuality" stroke-width="3.3837"/><polygon class="fil92" transform="matrix(3.7639 0 0 -3.0419 -51680 29765)" points="15788 4258 15762 4225 15762 4247" fill="#c36315" image-rendering="optimizeQuality"/><g stroke-width="3.3837"><path class="fil91" d="m7003.3 15809s60.221 60.835 146.79 30.414c90.334-33.457 127.97-85.172 169.37-45.628 41.403 39.547 82.806 270.74 105.39 270.74 22.583 0 169.37-173.39 244.65-97.341 79.043 76.047 0 243.35 41.403 352.86 41.402 109.51 109.15-6.088 127.97-130.81 18.819-124.72 56.459-292.02 56.459-292.02v-237.27l-892.04-219.02v371.11z" fill="#e28c3f" image-rendering="optimizeQuality"/><path class="fil92" d="m7462.5 15128s-41.402 45.627-52.694-27.382c-11.291-69.965 60.222-142.97 75.276-69.965 11.292 69.965-22.583 97.347-22.583 97.347z" fill="#c36315" image-rendering="optimizeQuality"/><path class="fil92" d="m7360.9 17169c-3.7622 6.081-3.7622 12.169-7.5261 15.207-11.292 9.125-37.64 24.338-26.348-27.377 11.292-57.796 52.694-36.501 33.874 12.17z" fill="#c36315" image-rendering="optimizeQuality"/></g><polygon class="fil91" transform="matrix(3.7639 0 0 -3.0419 -51680 29765)" points="15591 5047 15591 4978 15827 4870 15827 4968" fill="#e28c3f" image-rendering="optimizeQuality"/><polygon class="fil55" transform="matrix(3.7639 0 0 -3.0419 -51680 29765)" points="14314 4227 14314 4818 15087 4818 15087 4227" fill="#9a4121" image-rendering="optimizeQuality"/><g fill="#e59351"><polygon class="fil88" transform="matrix(3.7639 0 0 -3.0419 -51680 29765)" points="14347 4220 14248 4220 14248 4798 14355 4798" image-rendering="optimizeQuality"/><polygon class="fil88" transform="matrix(3.7639 0 0 -3.0419 -51680 29765)" points="15184 4217 15184 4254 14236 4254 14236 4167 15184 4157 15184 4180 15160 4195" image-rendering="optimizeQuality"/><polygon class="fil88" transform="matrix(3.7639 0 0 -3.0419 -51680 29765)" points="15103 4896 15066 4896 15066 4187 15153 4187 15163 4896 15140 4896 15123 4889" image-rendering="optimizeQuality"/></g><polygon class="fil55" transform="matrix(3.7639 0 0 -3.0419 -51680 29765)" points="15066 4254 15066 4272 15154 4273 15154 4254" fill="#1e1240" image-rendering="optimizeQuality"/><polygon class="fil93" transform="matrix(3.7639 0 0 -3.0419 -51680 29765)" points="15184 4180 14799 4191 15160 4195" fill="#a55f30" image-rendering="optimizeQuality"/><polygon class="fil93" transform="matrix(3.7639 0 0 -3.0419 -51680 29765)" points="14236 4211 14323 4217 14236 4227" fill="#a55f30" image-rendering="optimizeQuality"/><polygon class="fil55" transform="matrix(3.7639 0 0 -3.0419 -51680 29765)" points="14248 4254 14248 4269 14347 4269 14347 4254" fill="#1e1240" image-rendering="optimizeQuality"/><polygon class="fil88" transform="matrix(3.7639 0 0 -3.0419 -51680 29765)" points="14236 4839 14236 4875 15155 4875 15155 4789 14236 4778 14236 4801 14259 4816" fill="#e59351" image-rendering="optimizeQuality"/><polygon class="fil55" transform="matrix(3.7639 0 0 -3.0419 -51680 29765)" points="15155 4875 15066 4884 15066 4875" fill="#1e1240" image-rendering="optimizeQuality"/><polygon class="fil93" transform="matrix(3.7639 0 0 -3.0419 -51680 29765)" points="14259 4816 14502 4818 14236 4801" fill="#a55f30" image-rendering="optimizeQuality"/><path class="fil94" d="m5362.3 15198s-410.26-88.217-579.64-115.6c-173.14-27.377-402.74 48.669-786.65 0-383.92-48.671-797.95-149.06-797.95-149.06h2164.2z" fill="#d88145" image-rendering="optimizeQuality" stroke-width="3.3837"/><g fill="#a55f30" stroke-width="3.3837"><path class="fil93" d="m5211.7 16646v-1350.6l22.585 228.15s48.929 1019-22.585 1119.4z" image-rendering="optimizeQuality"/><path class="fil93" d="m2012.4 16685v-1429.7s75.278 1189.4 0 1429.7z" image-rendering="optimizeQuality"/><path class="fil93" d="m2080.1 16490v-1006.9s75.278 836.53 0 1006.9z" image-rendering="optimizeQuality"/></g><path d="m3829.1 16481c-51.996 60.89 277.86 263.63 389.91 265.44 112.05 1.812 367.41-851.82 81.414-910.57-122.63-25.199-780.38-67.375-1275.2 7.01-103.4 15.546-108.42 264.65-45.138 359.82 84.969 127.8 278.77 89.873 409.82 41.972 292.68-107 484.86-191.34 563.14-71.87 61.056 93.186-71.99 247.3-123.99 308.2z" fill="#f4e8d7" fill-rule="evenodd" image-rendering="optimizeQuality"/><ellipse transform="scale(1,-1)" cx="3792.2" cy="-15486" rx="219.94" ry="213.07" fill="#f4e8d7" fill-rule="evenodd" image-rendering="optimizeQuality"/></g></g></g></svg>
