<svg width="1080" height="1080" version="1.1" viewBox="0 0 1080 1080" xml:space="preserve" xmlns="http://www.w3.org/2000/svg" xmlns:xlink="http://www.w3.org/1999/xlink"><defs><linearGradient id="linearGradient9900"><stop stop-color="#913f1f" offset="0"/><stop stop-color="#803a18" offset="1"/></linearGradient><linearGradient id="id43" x1="22940" x2="23183" y1="12060" y2="13286" gradientUnits="userSpaceOnUse">
   <stop stop-color="#FFC444" offset="0"/>
   <stop stop-color="#FBA94A" offset=".31"/>
   <stop stop-color="#F36F56" offset="1"/>
   
  </linearGradient><style type="text/css">
   <![CDATA[
    .fil1 {fill:#898989;fill-rule:nonzero}
    .fil124 {fill:#BEB8F2;fill-rule:nonzero}
    .fil66 {fill:#BFC8D6;fill-rule:nonzero}
    .fil21 {fill:#D8DEE8;fill-rule:nonzero}
    .fil67 {fill:#E1E6ED;fill-rule:nonzero}
    .fil2 {fill:#F4F7FA;fill-rule:nonzero}
    .fil118 {fill:#F8FAFB;fill-rule:nonzero}
    .fil122 {fill:#FCFDFE;fill-rule:nonzero}
    .fil38 {fill:#FEC045;fill-rule:nonzero}
    .fil0 {fill:white;fill-rule:nonzero}
    .fil79 {fill:url(#id39)}
    .fil77 {fill:url(#id40)}
    .fil117 {fill:url(#id41)}
    .fil62 {fill:url(#id42)}
    .fil103 {fill:url(#id43)}
    .fil50 {fill:url(#id44)}
    .fil142 {fill:url(#id45)}
    .fil140 {fill:url(#id46)}
    .fil70 {fill:url(#id47)}
    .fil72 {fill:url(#id48)}
    .fil73 {fill:url(#id49)}
    .fil69 {fill:url(#id50)}
    .fil109 {fill:url(#id51)}
    .fil112 {fill:url(#id52)}
    .fil113 {fill:url(#id53)}
    .fil114 {fill:url(#id54)}
    .fil20 {fill:url(#id55)}
    .fil15 {fill:url(#id56)}
    .fil18 {fill:url(#id57)}
    .fil74 {fill:url(#id58)}
    .fil68 {fill:url(#id59)}
    .fil139 {fill:url(#id60)}
    .fil132 {fill:url(#id61)}
    .fil28 {fill:url(#id62)}
    .fil40 {fill:url(#id63)}
    .fil43 {fill:url(#id64)}
    .fil42 {fill:url(#id65)}
    .fil41 {fill:url(#id66)}
    .fil29 {fill:url(#id67)}
    .fil30 {fill:url(#id68)}
    .fil31 {fill:url(#id69)}
    .fil32 {fill:url(#id70)}
    .fil35 {fill:url(#id71)}
    .fil37 {fill:url(#id72)}
    .fil36 {fill:url(#id73)}
    .fil105 {fill:url(#id74)}
    .fil98 {fill:url(#id75)}
    .fil57 {fill:url(#id76)}
    .fil76 {fill:url(#id77)}
    .fil86 {fill:url(#id78)}
    .fil80 {fill:url(#id79)}
    .fil78 {fill:url(#id80)}
    .fil143 {fill:url(#id81)}
    .fil45 {fill:url(#id82)}
    .fil56 {fill:url(#id83)}
    .fil47 {fill:url(#id84)}
    .fil44 {fill:url(#id85)}
    .fil71 {fill:url(#id86)}
    .fil100 {fill:url(#id87)}
    .fil12 {fill:url(#id88)}
    .fil51 {fill:url(#id89)}
    .fil141 {fill:url(#id90)}
    .fil111 {fill:url(#id91)}
    .fil39 {fill:url(#id92)}
    .fil34 {fill:url(#id93)}
    .fil135 {fill:url(#id94)}
    .fil97 {fill:url(#id95)}
    .fil87 {fill:url(#id96)}
    .fil137 {fill:url(#id97)}
    .fil106 {fill:url(#id98)}
    .fil9 {fill:url(#id99)}
    .fil123 {fill:url(#id100)}
    .fil4 {fill:url(#id101)}
    .fil99 {fill:url(#id102)}
    .fil95 {fill:url(#id103)}
    .fil126 {fill:url(#id104)}
    .fil19 {fill:url(#id105)}
    .fil127 {fill:url(#id106)}
    .fil75 {fill:url(#id107)}
    .fil133 {fill:url(#id108)}
    .fil134 {fill:url(#id109)}
    .fil108 {fill:url(#id110)}
    .fil81 {fill:url(#id111)}
    .fil60 {fill:url(#id112)}
    .fil129 {fill:url(#id113)}
    .fil107 {fill:url(#id114)}
    .fil125 {fill:url(#id115)}
    .fil121 {fill:url(#id116)}
    .fil102 {fill:url(#id117)}
    .fil10 {fill:url(#id118)}
    .fil52 {fill:url(#id119)}
    .fil138 {fill:url(#id120)}
    .fil94 {fill:url(#id121)}
    .fil91 {fill:url(#id122)}
    .fil96 {fill:url(#id123)}
    .fil61 {fill:url(#id124)}
    .fil46 {fill:url(#id125)}
    .fil33 {fill:url(#id126)}
    .fil136 {fill:url(#id127)}
    .fil115 {fill:url(#id128)}
    .fil116 {fill:url(#id129)}
    .fil65 {fill:url(#id130)}
    .fil8 {fill:url(#id131)}
    .fil26 {fill:url(#id132)}
    .fil48 {fill:url(#id133)}
    .fil128 {fill:url(#id134)}
    .fil58 {fill:url(#id135)}
    .fil11 {fill:url(#id136)}
    .fil49 {fill:url(#id137)}
    .fil59 {fill:url(#id138)}
    .fil55 {fill:url(#id139)}
    .fil90 {fill:url(#id140)}
    .fil6 {fill:url(#id141)}
    .fil54 {fill:url(#id142)}
    .fil130 {fill:url(#id143)}
    .fil13 {fill:url(#id144)}
    .fil119 {fill:url(#id145)}
    .fil64 {fill:url(#id146)}
    .fil110 {fill:url(#id147)}
    .fil88 {fill:url(#id148)}
    .fil3 {fill:url(#id149)}
    .fil7 {fill:url(#id150)}
    .fil92 {fill:url(#id151)}
    .fil27 {fill:url(#id152)}
    .fil93 {fill:url(#id153)}
    .fil131 {fill:url(#id154)}
    .fil53 {fill:url(#id155)}
    .fil25 {fill:url(#id156)}
    .fil63 {fill:url(#id157)}
    .fil5 {fill:url(#id158)}
    .fil82 {fill:url(#id159)}
    .fil104 {fill:url(#id160)}
    .fil84 {fill:url(#id161)}
    .fil83 {fill:url(#id162)}
    .fil89 {fill:url(#id163)}
    .fil85 {fill:url(#id164)}
    .fil23 {fill:url(#id165)}
    .fil16 {fill:url(#id166)}
    .fil24 {fill:url(#id167)}
    .fil22 {fill:url(#id168)}
    .fil14 {fill:url(#id169)}
    .fil120 {fill:url(#id170)}
    .fil17 {fill:url(#id171)}
    .fil101 {fill:url(#id172)}
   ]]>
  </style><linearGradient id="id39" x1="29037" x2="28638" y1="12825" y2="12983" gradientUnits="userSpaceOnUse">
   <stop stop-color="#444B8C" offset="0"/>
   <stop stop-color="#26264F" offset="1"/>
   
  </linearGradient><linearGradient id="id40" x1="29596" x2="29197" y1="12629" y2="12787" gradientTransform="matrix(1.5 0 0 1.54 -33176 -10816)" gradientUnits="userSpaceOnUse" xlink:href="#id39">
  </linearGradient><linearGradient id="id41" x1="42677" x2="41136" y1="12696" y2="13371" gradientUnits="userSpaceOnUse">
   <stop stop-color="#F0BDEC" offset="0"/>
   
   <stop stop-color="#C1A9F9" offset="1"/>
  </linearGradient><linearGradient id="id42" x1="29937" x2="24800" y1="3160" y2="9822" gradientUnits="userSpaceOnUse">
   <stop stop-color="#E38DDD" offset="0"/>
   
   <stop stop-color="#9571F6" offset="1"/>
  </linearGradient><linearGradient id="id44" x1="13384" x2="13385" y1="7779" y2="7783" gradientUnits="userSpaceOnUse">
   <stop stop-color="#F4E6C3" offset="0"/>
   <stop stop-color="#F1CDC8" offset="1"/>
   
  </linearGradient><linearGradient id="id45" x1="34545" x2="35327" y1="6672" y2="7994" gradientUnits="userSpaceOnUse">
   <stop stop-color="#FFE084" offset="0"/>
   <stop stop-color="#FDD089" offset=".31"/>
   <stop stop-color="#F9A894" offset="1"/>
   
  </linearGradient><linearGradient id="id46" x1="36079" x2="37938" y1="6564" y2="9704" gradientUnits="userSpaceOnUse" xlink:href="#id43">
  </linearGradient><linearGradient id="id47" x1="22729" x2="22787" y1="10399" y2="10400" gradientUnits="userSpaceOnUse">
   <stop stop-color="#E1D6B8" offset="0"/>
   <stop stop-color="#DEBFBE" offset="1"/>
   
  </linearGradient><linearGradient id="id48" x1="22788" x2="23491" y1="10280" y2="10292" gradientUnits="userSpaceOnUse" xlink:href="#id47">
  </linearGradient><linearGradient id="id49" x1="21417" x2="23293" y1="9701" y2="9734" gradientUnits="userSpaceOnUse">
   <stop stop-color="#FFEDC7" offset="0"/>
   <stop stop-color="#FBD4CC" offset="1"/>
   
  </linearGradient><linearGradient id="id50" x1="21398" x2="24178" y1="9023" y2="9070" gradientUnits="userSpaceOnUse">
   <stop stop-color="#FCB148" offset="0"/>
   <stop stop-color="#FDBA46" offset=".0588"/>
   <stop stop-color="#FFC444" offset=".322"/>
   <stop stop-color="#FBAB4A" offset=".639"/>
   <stop stop-color="#F8924F" offset=".871"/>
   <stop stop-color="#F8924F" offset="1"/>
  </linearGradient><linearGradient id="id51" x1="20385" x2="21359" y1="11228" y2="11228" gradientUnits="userSpaceOnUse">
   <stop stop-color="#311944" offset="0"/>
   <stop stop-color="#A03976" offset="1"/>
  </linearGradient><linearGradient id="id52" x1="20650" x2="21543" y1="11313" y2="11313" gradientUnits="userSpaceOnUse" xlink:href="#id51">
  </linearGradient><linearGradient id="id53" x1="20657" x2="20786" y1="11753" y2="11753" gradientUnits="userSpaceOnUse" xlink:href="#id51">
  </linearGradient><linearGradient id="id54" x1="21500" x2="21629" y1="11747" y2="11747" gradientUnits="userSpaceOnUse" xlink:href="#id51">
  </linearGradient><linearGradient id="id55" x1="3678" x2="14731" y1="12980" y2="12980" gradientUnits="userSpaceOnUse">
   <stop stop-color="#40447E" offset="0"/>
   <stop stop-color="#3C3B6B" offset="1"/>
   
  </linearGradient><linearGradient id="id56" x1="3917" x2="11487" y1="8249" y2="8249" gradientUnits="userSpaceOnUse" xlink:href="#id55">
  </linearGradient><linearGradient id="id57" x1="3678" x2="8156" y1="9993" y2="9993" gradientUnits="userSpaceOnUse">
   <stop stop-color="#5F6397" offset="0"/>
   <stop stop-color="#5B5A87" offset="1"/>
   
  </linearGradient><linearGradient id="id58" x1="21429" x2="21429" y1="9060" y2="9060" gradientUnits="userSpaceOnUse" xlink:href="#id47">
  </linearGradient><linearGradient id="id59" x1="19404" x2="29811" y1="11685" y2="11685" gradientUnits="userSpaceOnUse">
   <stop stop-color="#EBEFF2" offset="0"/>
   <stop stop-color="#EBEFF2" offset=".49"/>
   <stop stop-color="#fff" offset="1"/>
  </linearGradient><linearGradient id="id60" x1="38990" x2="40410" y1="12788" y2="12788" gradientUnits="userSpaceOnUse">
   <stop stop-color="#FFC444" offset="0"/>
   <stop stop-color="#F36F56" offset="1"/>
   
  </linearGradient><linearGradient id="id61" x1="38298" x2="40635" y1="11459" y2="11459" gradientUnits="userSpaceOnUse" xlink:href="#id50">
  </linearGradient><linearGradient id="id62" x1="7808" x2="12412" y1="11085" y2="11085" gradientUnits="userSpaceOnUse" xlink:href="#id42">
  </linearGradient><linearGradient id="id63" x1="9276" x2="9419" y1="10655" y2="10655" gradientUnits="userSpaceOnUse">
   <stop stop-color="#ECC5EC" offset="0"/>
   
   <stop stop-color="#C7B8F8" offset="1"/>
  </linearGradient><linearGradient id="id64" x1="9411" x2="9540" y1="10652" y2="10652" gradientUnits="userSpaceOnUse" xlink:href="#id63">
  </linearGradient><linearGradient id="id65" x1="9469" x2="9665" y1="10651" y2="10651" gradientUnits="userSpaceOnUse" xlink:href="#id63">
  </linearGradient><linearGradient id="id66" x1="9525" x2="9766" y1="10649" y2="10649" gradientUnits="userSpaceOnUse" xlink:href="#id63">
  </linearGradient><linearGradient id="id67" x1="8658" x2="9603" y1="11592" y2="11592" gradientUnits="userSpaceOnUse">
   <stop stop-color="#EFD7F1" offset="0"/>
   
   <stop stop-color="#D7CFF9" offset="1"/>
  </linearGradient><linearGradient id="id68" x1="9692" x2="10594" y1="11556" y2="11556" gradientUnits="userSpaceOnUse" xlink:href="#id67">
  </linearGradient><linearGradient id="id69" x1="10674" x2="11506" y1="11523" y2="11523" gradientUnits="userSpaceOnUse" xlink:href="#id67">
  </linearGradient><linearGradient id="id70" x1="11605" x2="12396" y1="11480" y2="11480" gradientUnits="userSpaceOnUse" xlink:href="#id67">
  </linearGradient><linearGradient id="id71" x1="8569" x2="9102" y1="10561" y2="10541" gradientUnits="userSpaceOnUse">
   <stop stop-color="#FF9085" offset="0"/>
   <stop stop-color="#FB6FBB" offset="1"/>
  </linearGradient><linearGradient id="id72" x1="8602" x2="9135" y1="10808" y2="10788" gradientUnits="userSpaceOnUse" xlink:href="#id71">
  </linearGradient><linearGradient id="id73" x1="8585" x2="9118" y1="10684" y2="10665" gradientUnits="userSpaceOnUse" xlink:href="#id71">
  </linearGradient><linearGradient id="id74" x1="22258" x2="23199" y1="12111" y2="11972" gradientUnits="userSpaceOnUse" xlink:href="#id43">
  </linearGradient><linearGradient id="id75" x1="26799" x2="26886" y1="9e3" y2="8976" gradientTransform="matrix(1.5 0 0 1.54 -33176 -10816)" gradientUnits="userSpaceOnUse" xlink:href="#id60">
  </linearGradient><linearGradient id="id76" x1="12664" x2="13195" y1="4780" y2="4335" gradientUnits="userSpaceOnUse">
   <stop stop-color="#311944" offset="0"/>
   <stop stop-color="#6B3976" offset="1"/>
  </linearGradient><linearGradient id="id77" x1="26872" x2="28010" y1="10492" y2="9051" gradientUnits="userSpaceOnUse">
   <stop stop-color="#AA80F9" offset="0"/>
   <stop stop-color="#6165D7" offset="1"/>
   
  </linearGradient><linearGradient id="id78" x1="25002" x2="26649" y1="11235" y2="9150" gradientTransform="matrix(1.5 0 0 1.54 -33176 -10816)" gradientUnits="userSpaceOnUse" xlink:href="#id77">
  </linearGradient><linearGradient id="id79" x1="28763" x2="28589" y1="12894" y2="12711" gradientTransform="matrix(1.5 0 0 1.54 -32655 -8941)" gradientUnits="userSpaceOnUse" xlink:href="#id60">
  </linearGradient><linearGradient id="id80" x1="29322" x2="29148" y1="12699" y2="12515" gradientTransform="matrix(1.5 0 0 1.54 -32655 -8941)" gradientUnits="userSpaceOnUse" xlink:href="#id60">
  </linearGradient><linearGradient id="id81" x1="38987" x2="35721" y1="4563" y2="4563" gradientUnits="userSpaceOnUse" xlink:href="#id77">
  </linearGradient><linearGradient id="id82" x1="13816" x2="13044" y1="12679" y2="12679" gradientUnits="userSpaceOnUse" xlink:href="#id76">
  </linearGradient><linearGradient id="id83" x1="13834" x2="13478" y1="6424" y2="6424" gradientUnits="userSpaceOnUse" xlink:href="#id51">
  </linearGradient><linearGradient id="id84" x1="13218" x2="11562" y1="10337" y2="10337" gradientUnits="userSpaceOnUse">
   <stop stop-color="#444B8C" offset="0"/>
   <stop stop-color="#3E4177" offset="1"/>
   
  </linearGradient><linearGradient id="id85" x1="14334" x2="12997" y1="9344" y2="9344" gradientUnits="userSpaceOnUse" xlink:href="#id84">
  </linearGradient><linearGradient id="id86" x1="22722" x2="22729" y1="10400" y2="10401" gradientUnits="userSpaceOnUse" xlink:href="#id49">
  </linearGradient><linearGradient id="id87" x1="23477" x2="22716" y1="12026" y2="13311" gradientUnits="userSpaceOnUse" xlink:href="#id77">
  </linearGradient><linearGradient id="id88" x1="11004" x2="10914" y1="6754" y2="6939" gradientUnits="userSpaceOnUse">
   <stop stop-color="#FFA89F" offset="0"/>
   <stop stop-color="#FC8CCB" offset="1"/>
  </linearGradient><linearGradient id="id89" x1="10879" x2="10895" y1="5625" y2="5682" gradientUnits="userSpaceOnUse" xlink:href="#id49">
  </linearGradient><linearGradient id="id90" x1="34070" x2="35991" y1="6512" y2="9756" gradientTransform="matrix(1.82 0 0 1.77 -60760 -7986)" gradientUnits="userSpaceOnUse" xlink:href="#id43">
  </linearGradient><linearGradient id="id91" x1="20173" x2="22453" y1="11689" y2="13446" gradientUnits="userSpaceOnUse" xlink:href="#id71">
  </linearGradient><linearGradient id="id92" x1="8675" x2="9031" y1="10680" y2="10670" gradientUnits="userSpaceOnUse" xlink:href="#id71">
  </linearGradient><linearGradient id="id93" x1="8547" x2="9157" y1="10685" y2="10667" gradientUnits="userSpaceOnUse" xlink:href="#id71">
  </linearGradient><linearGradient id="id94" x1="42844" x2="42861" y1="8118" y2="8116" gradientUnits="userSpaceOnUse">
   <stop stop-color="#9086BD" offset="0"/>
   <stop stop-color="#9D8DCB" offset="1"/>
  </linearGradient><linearGradient id="id95" x1="26612" x2="26907" y1="9130" y2="8723" gradientTransform="matrix(1.5 0 0 1.54 -33176 -10816)" gradientUnits="userSpaceOnUse" xlink:href="#id76">
  </linearGradient><linearGradient id="id96" x1="28258" x2="29284" y1="12623" y2="10982" gradientTransform="matrix(1.5 0 0 1.54 -33176 -10816)" gradientUnits="userSpaceOnUse" xlink:href="#id39">
  </linearGradient><linearGradient id="id97" x1="39815" x2="39771" y1="9515" y2="8091" gradientUnits="userSpaceOnUse">
   <stop stop-color="#AB316D" offset="0"/>
   <stop stop-color="#792D3D" offset="1"/>
  </linearGradient><linearGradient id="id98" x1="23258" x2="22844" y1="11634" y2="12064" gradientUnits="userSpaceOnUse" xlink:href="#id43">
  </linearGradient><linearGradient id="id99" x1="8493" x2="8055" y1="3423" y2="4327" gradientUnits="userSpaceOnUse" xlink:href="#id88">
  </linearGradient><linearGradient id="id100" x1="43179" x2="40843" y1="7991" y2="13452" gradientUnits="userSpaceOnUse" xlink:href="#id77">
  </linearGradient><linearGradient id="id101" x1="3966" x2="4592" y1="3312" y2="5036" gradientUnits="userSpaceOnUse">
   <stop stop-color="#BD9BFB" offset="0"/>
   <stop stop-color="#7F83E1" offset="1"/>
   
  </linearGradient><linearGradient id="id102" x1="21976" x2="22742" y1="12086" y2="13244" gradientUnits="userSpaceOnUse" xlink:href="#id77">
  </linearGradient><linearGradient id="id103" x1="26599" x2="26968" y1="9027" y2="8516" gradientTransform="matrix(1.5 0 0 1.54 -33176 -10816)" gradientUnits="userSpaceOnUse" xlink:href="#id76">
  </linearGradient><linearGradient id="id104" x1="40216" x2="37594" y1="13940" y2="7092" gradientUnits="userSpaceOnUse" xlink:href="#id59">
  </linearGradient><linearGradient id="id105" x1="7626" x2="4484" y1="7394" y2="12530" gradientUnits="userSpaceOnUse">
   <stop stop-color="#FFD163" offset="0"/>
   <stop stop-color="#F68A74" offset="1"/>
   
  </linearGradient><linearGradient id="id106" x1="38308" x2="39492" y1="7496" y2="13746" gradientUnits="userSpaceOnUse" xlink:href="#id42">
  </linearGradient><linearGradient id="id107" x1="22286" x2="22650" y1="9124" y2="9130" gradientUnits="userSpaceOnUse" xlink:href="#id49">
  </linearGradient><linearGradient id="id108" x1="38602" x2="45210" y1="6643" y2="5944" gradientUnits="userSpaceOnUse" xlink:href="#id76">
  </linearGradient><linearGradient id="id109" x1="43737" x2="44772" y1="8207" y2="8097" gradientUnits="userSpaceOnUse">
   <stop stop-color="#B9B4C3" offset="0"/>
   <stop stop-color="#C9BDD2" offset="1"/>
  </linearGradient><linearGradient id="id110" x1="22333" x2="22334" y1="11709" y2="11708" gradientUnits="userSpaceOnUse">
   <stop stop-color="#D8CFB5" offset="0"/>
   <stop stop-color="#D7C7B6" offset=".31"/>
   <stop stop-color="#D5B8B9" offset="1"/>
   
  </linearGradient><linearGradient id="id111" x1="25778" x2="27594" y1="11593" y2="9293" gradientTransform="matrix(1.5 0 0 1.54 -33176 -10816)" gradientUnits="userSpaceOnUse" xlink:href="#id77">
  </linearGradient><linearGradient id="id112" x1="23797" x2="23197" y1="4062" y2="6345" gradientUnits="userSpaceOnUse" xlink:href="#id88">
  </linearGradient><linearGradient id="id113" x1="35564" x2="36370" y1="9482" y2="9968" gradientUnits="userSpaceOnUse" xlink:href="#id97">
  </linearGradient><linearGradient id="id114" x1="22328" x2="22931" y1="11831" y2="11742" gradientUnits="userSpaceOnUse" xlink:href="#id43">
  </linearGradient><linearGradient id="id115" x1="40983" x2="40172" y1="11278" y2="11294" gradientUnits="userSpaceOnUse">
   <stop stop-color="#B7C0CE" offset="0"/>
   <stop stop-color="#EBEFF2" offset="1"/>
  </linearGradient><linearGradient id="id116" x1="37137" x2="35491" y1="12243" y2="12498" gradientUnits="userSpaceOnUse" xlink:href="#id71">
  </linearGradient><linearGradient id="id117" x1="23542" x2="23457" y1="13093" y2="13235" gradientUnits="userSpaceOnUse">
   <stop stop-color="#F7DDF5" offset="0"/>
   
   <stop stop-color="#DFD4FC" offset="1"/>
  </linearGradient><linearGradient id="id118" x1="9525" x2="9154" y1="3495" y2="4259" gradientUnits="userSpaceOnUse" xlink:href="#id88">
  </linearGradient><linearGradient id="id119" x1="10757" x2="11551" y1="4948" y2="7775" gradientUnits="userSpaceOnUse" xlink:href="#id60">
  </linearGradient><linearGradient id="id120" x1="39313" x2="39791" y1="8662" y2="7096" gradientUnits="userSpaceOnUse" xlink:href="#id97">
  </linearGradient><linearGradient id="id121" x1="27030" x2="26232" y1="8893" y2="9155" gradientTransform="matrix(1.5 0 0 1.54 -33176 -10816)" gradientUnits="userSpaceOnUse" xlink:href="#id49">
  </linearGradient><linearGradient id="id122" x1="26813" x2="26493" y1="10800" y2="10905" gradientTransform="matrix(1.5 0 0 1.54 -33176 -10816)" gradientUnits="userSpaceOnUse" xlink:href="#id49">
  </linearGradient><linearGradient id="id123" x1="26986" x2="26555" y1="8852" y2="8994" gradientTransform="matrix(1.5 0 0 1.54 -33176 -10816)" gradientUnits="userSpaceOnUse" xlink:href="#id49">
  </linearGradient><linearGradient id="id124" x1="23799" x2="23133" y1="3818" y2="6353" gradientUnits="userSpaceOnUse" xlink:href="#id88">
  </linearGradient><linearGradient id="id125" x1="13110" x2="13157" y1="12302" y2="12593" gradientUnits="userSpaceOnUse" xlink:href="#id51">
  </linearGradient><linearGradient id="id126" x1="8495" x2="9207" y1="10503" y2="10850" gradientUnits="userSpaceOnUse">
   <stop stop-color="#F57E53" offset="0"/>
   <stop stop-color="#FAA14C" offset=".0588"/>
   <stop stop-color="#FFC444" offset=".322"/>
   <stop stop-color="#F9994D" offset=".71"/>
   <stop stop-color="#F36F56" offset="1"/>
   
  </linearGradient><linearGradient id="id127" x1="44768" x2="44907" y1="7653" y2="7638" gradientUnits="userSpaceOnUse" xlink:href="#id109">
  </linearGradient><linearGradient id="id128" x1="44743" x2="40559" y1="10648" y2="12480" gradientUnits="userSpaceOnUse" xlink:href="#id42">
  </linearGradient><linearGradient id="id129" x1="44242" x2="41094" y1="10516" y2="11894" gradientUnits="userSpaceOnUse" xlink:href="#id41">
  </linearGradient><linearGradient id="id130" x1="28968" x2="26828" y1="6260" y2="9036" gradientUnits="userSpaceOnUse">
   <stop stop-color="#EAA6E5" offset="0"/>
   
   <stop stop-color="#AC8EF8" offset="1"/>
  </linearGradient><linearGradient id="id131" x1="10153" x2="8240" y1="3236" y2="7182" gradientUnits="userSpaceOnUse" xlink:href="#id71">
  </linearGradient><linearGradient id="id132" x1="6830" x2="6882" y1="10731" y2="11517" gradientUnits="userSpaceOnUse" xlink:href="#id42">
  </linearGradient><linearGradient id="id133" x1="12307" x2="13379" y1="4731" y2="8548" gradientUnits="userSpaceOnUse" xlink:href="#id60">
  </linearGradient><linearGradient id="id134" x1="39185" x2="39234" y1="7276" y2="7401" gradientUnits="userSpaceOnUse" xlink:href="#id60">
  </linearGradient><linearGradient id="id135" x1="12742" x2="12911" y1="4510" y2="4934" gradientUnits="userSpaceOnUse" xlink:href="#id51">
  </linearGradient><linearGradient id="id136" x1="7912" x2="7563" y1="3380" y2="4100" gradientUnits="userSpaceOnUse" xlink:href="#id88">
  </linearGradient><linearGradient id="id137" x1="14174" x2="13962" y1="6299" y2="6986" gradientUnits="userSpaceOnUse" xlink:href="#id60">
  </linearGradient><linearGradient id="id138" x1="24022" x2="23337" y1="3759" y2="6366" gradientUnits="userSpaceOnUse" xlink:href="#id71">
  </linearGradient><linearGradient id="id139" x1="12618" x2="12678" y1="4571" y2="5075" gradientUnits="userSpaceOnUse" xlink:href="#id51">
  </linearGradient><linearGradient id="id140" x1="26533" x2="26582" y1="10850" y2="11194" gradientUnits="userSpaceOnUse">
   <stop stop-color="#311944" offset="0"/>
   <stop stop-color="#893976" offset="1"/>
  </linearGradient><linearGradient id="id141" x1="4386" x2="5224" y1="2921" y2="5228" gradientUnits="userSpaceOnUse" xlink:href="#id101">
  </linearGradient><linearGradient id="id142" x1="11992" x2="13106" y1="7295" y2="6098" gradientUnits="userSpaceOnUse" xlink:href="#id59">
  </linearGradient><linearGradient id="id143" x1="36883" x2="39430" y1="12207" y2="9446" gradientUnits="userSpaceOnUse" xlink:href="#id50">
  </linearGradient><linearGradient id="id144" x1="13190" x2="5219" y1="11584" y2="14932" gradientUnits="userSpaceOnUse" xlink:href="#id55">
  </linearGradient><linearGradient id="id145" x1="43801" x2="42866" y1="11530" y2="11939" gradientUnits="userSpaceOnUse" xlink:href="#id41">
  </linearGradient><linearGradient id="id146" x1="28015" x2="26004" y1="4627" y2="7234" gradientUnits="userSpaceOnUse" xlink:href="#id130">
  </linearGradient><linearGradient id="id147" x1="19729" x2="20536" y1="11891" y2="13245" gradientUnits="userSpaceOnUse" xlink:href="#id71">
  </linearGradient><linearGradient id="id148" x1="28097" x2="26653" y1="10934" y2="12936" gradientTransform="matrix(1.5 0 0 1.54 -33176 -10816)" gradientUnits="userSpaceOnUse" xlink:href="#id39">
  </linearGradient><linearGradient id="id149" x1="5e3" x2="6360" y1="2795" y2="6549" gradientUnits="userSpaceOnUse" xlink:href="#id77">
  </linearGradient><linearGradient id="id150" x1="6889" x2="7250" y1="3294" y2="4289" gradientUnits="userSpaceOnUse" xlink:href="#id101">
  </linearGradient><linearGradient id="id151" x1="28367" x2="27338" y1="11268" y2="9807" gradientTransform="matrix(1.5 0 0 1.54 -33176 -10816)" gradientUnits="userSpaceOnUse" xlink:href="#id39">
  </linearGradient><linearGradient id="id152" x1="8386" x2="7737" y1="11119" y2="11079" gradientUnits="userSpaceOnUse" xlink:href="#id140">
  </linearGradient><linearGradient id="id153" x1="27700" x2="28314" y1="11115" y2="9868" gradientTransform="matrix(1.5 0 0 1.54 -33176 -10816)" gradientUnits="userSpaceOnUse" xlink:href="#id140">
  </linearGradient><linearGradient id="id154" x1="37176" x2="36176" y1="10619" y2="11040" gradientUnits="userSpaceOnUse">
   <stop stop-color="#F6EDD6" offset="0"/>
   <stop stop-color="#F4DCD9" offset="1"/>
   
  </linearGradient><linearGradient id="id155" x1="13178" x2="12407" y1="5918" y2="7307" gradientUnits="userSpaceOnUse" xlink:href="#id59">
  </linearGradient><linearGradient id="id156" x1="6583" x2="6137" y1="9717" y2="9113" gradientUnits="userSpaceOnUse">
   <stop stop-color="#6165D7" offset="0"/>
   
   <stop stop-color="#AA80F9" offset="1"/>
  </linearGradient><linearGradient id="id157" x1="27984" x2="25738" y1="4639" y2="7551" gradientUnits="userSpaceOnUse" xlink:href="#id130">
  </linearGradient><linearGradient id="id158" x1="4374" x2="4480" y1="5857" y2="6148" gradientUnits="userSpaceOnUse" xlink:href="#id101">
  </linearGradient><linearGradient id="id159" x1="25815" x2="25891" y1="11040" y2="10944" gradientUnits="userSpaceOnUse">
   <stop stop-color="#E5D9FD" offset="0"/>
   <stop stop-color="#CFD0F3" offset="1"/>
   
  </linearGradient><linearGradient id="id160" x1="22923" x2="23212" y1="12687" y2="12644" gradientUnits="userSpaceOnUse" xlink:href="#id43">
  </linearGradient><linearGradient id="id161" x1="25829" x2="25874" y1="11182" y2="11125" gradientTransform="matrix(1.5 0 0 1.54 -32655 -8941)" gradientUnits="userSpaceOnUse" xlink:href="#id159">
  </linearGradient><linearGradient id="id162" x1="25677" x2="26083" y1="10546" y2="1e4" gradientUnits="userSpaceOnUse">
   <stop stop-color="#C2BCE6" offset="0"/>
   <stop stop-color="#B0B6DD" offset="1"/>
   
  </linearGradient><linearGradient id="id163" x1="26592" x2="26526" y1="11031" y2="10844" gradientTransform="matrix(1.5 0 0 1.54 -33176 -10816)" gradientUnits="userSpaceOnUse" xlink:href="#id140">
  </linearGradient><linearGradient id="id164" x1="25816" x2="25893" y1="11458" y2="11361" gradientTransform="matrix(1.5 0 0 1.54 -32655 -8941)" gradientUnits="userSpaceOnUse" xlink:href="#id162">
  </linearGradient><linearGradient id="id165" x1="7080" x2="6506" y1="8506" y2="7729" gradientUnits="userSpaceOnUse" xlink:href="#id156">
  </linearGradient><linearGradient id="id166" x1="8617" x2="6983" y1="7067" y2="9738" gradientUnits="userSpaceOnUse" xlink:href="#id60">
  </linearGradient><linearGradient id="id167" x1="7388" x2="6715" y1="9208" y2="8298" gradientUnits="userSpaceOnUse" xlink:href="#id156">
  </linearGradient><linearGradient id="id168" x1="7774" x2="7017" y1="7981" y2="6957" gradientUnits="userSpaceOnUse" xlink:href="#id156">
  </linearGradient><linearGradient id="id169" x1="4969" x2="3326" y1="9651" y2="10341" gradientUnits="userSpaceOnUse" xlink:href="#id55">
  </linearGradient><linearGradient id="id170" x1="43777" x2="43443" y1="10205" y2="10351" gradientUnits="userSpaceOnUse" xlink:href="#id41">
  </linearGradient><linearGradient id="id171" x1="4270" x2="3325" y1="9797" y2="10194" gradientUnits="userSpaceOnUse" xlink:href="#id57">
  </linearGradient><linearGradient id="id172" x1="22761" x2="22712" y1="11955" y2="12127" gradientUnits="userSpaceOnUse" xlink:href="#id42">
  </linearGradient><style type="text/css">
   <![CDATA[
    .fil59 {fill:#131417;fill-rule:nonzero}
    .fil48 {fill:#1B1C20;fill-rule:nonzero}
    .fil188 {fill:#45440B;fill-rule:nonzero}
    .fil175 {fill:#4E1802;fill-rule:nonzero}
    .fil129 {fill:#4E2808;fill-rule:nonzero}
    .fil206 {fill:#572706;fill-rule:nonzero}
    .fil189 {fill:#585A0B;fill-rule:nonzero}
    .fil174 {fill:#5B2205;fill-rule:nonzero}
    .fil207 {fill:#5C2002;fill-rule:nonzero}
    .fil126 {fill:#5E2F00;fill-rule:nonzero}
    .fil125 {fill:#632F04;fill-rule:nonzero}
    .fil128 {fill:#63320A;fill-rule:nonzero}
    .fil185 {fill:#646F1A;fill-rule:nonzero}
    .fil124 {fill:#662A00;fill-rule:nonzero}
    .fil170 {fill:#677F1C;fill-rule:nonzero}
    .fil187 {fill:#692E00;fill-rule:nonzero}
    .fil58 {fill:#6A4900;fill-rule:nonzero}
    .fil121 {fill:#6B4B15;fill-rule:nonzero}
    .fil133 {fill:#6C2E05;fill-rule:nonzero}
    .fil132 {fill:#6C2E0D;fill-rule:nonzero}
    .fil192 {fill:#6E2500;fill-rule:nonzero}
    .fil208 {fill:#6E5B2D;fill-rule:nonzero}
    .fil39 {fill:#6F2600;fill-rule:nonzero}
    .fil213 {fill:#6F2A00;fill-rule:nonzero}
    .fil217 {fill:#6F531F;fill-rule:nonzero}
    .fil105 {fill:#704112;fill-rule:nonzero}
    .fil120 {fill:#70531F;fill-rule:nonzero}
    .fil75 {fill:#727B42;fill-rule:nonzero}
    .fil123 {fill:#75430A;fill-rule:nonzero}
    .fil141 {fill:#75430B;fill-rule:nonzero}
    .fil142 {fill:#75451A;fill-rule:nonzero}
    .fil134 {fill:#77370F;fill-rule:nonzero}
    .fil140 {fill:#773B00;fill-rule:nonzero}
    .fil122 {fill:#773C00;fill-rule:nonzero}
    .fil70 {fill:#777A7E;fill-rule:nonzero}
    .fil186 {fill:#784910;fill-rule:nonzero}
    .fil215 {fill:#793A09;fill-rule:nonzero}
    .fil108 {fill:#7A3A09;fill-rule:nonzero}
    .fil118 {fill:#7E3C05;fill-rule:nonzero}
    .fil127 {fill:#7E400E;fill-rule:nonzero}
    .fil191 {fill:#7F3B05;fill-rule:nonzero}
    .fil204 {fill:#7F5E23;fill-rule:nonzero}
    .fil212 {fill:#804408;fill-rule:nonzero}
    .fil209 {fill:#806B34;fill-rule:nonzero}
    .fil201 {fill:#807250;fill-rule:nonzero}
    .fil38 {fill:#812C00;fill-rule:nonzero}
    .fil119 {fill:#813500;fill-rule:nonzero}
    .fil211 {fill:#823C00;fill-rule:nonzero}
    .fil113 {fill:#827552;fill-rule:nonzero}
    .fil65 {fill:#83964E;fill-rule:nonzero}
    .fil173 {fill:#843404;fill-rule:nonzero}
    .fil138 {fill:#845612;fill-rule:nonzero}
    .fil198 {fill:#85511E;fill-rule:nonzero}
    .fil16 {fill:#866036;fill-rule:nonzero}
    .fil139 {fill:#885E1C;fill-rule:nonzero}
    .fil116 {fill:#885F1C;fill-rule:nonzero}
    .fil7 {fill:#885F26;fill-rule:nonzero}
    .fil76 {fill:#899072;fill-rule:nonzero}
    .fil104 {fill:#8E5218;fill-rule:nonzero}
    .fil72 {fill:#8E9850;fill-rule:nonzero}
    .fil135 {fill:#8F5218;fill-rule:nonzero}
    .fil45 {fill:#8F6200;fill-rule:nonzero}
    .fil101 {fill:#934400;fill-rule:nonzero}
    .fil117 {fill:#94540E;fill-rule:nonzero}
    .fil62 {fill:#94969A;fill-rule:nonzero}
    .fil30 {fill:#953300;fill-rule:nonzero}
    .fil130 {fill:#955723;fill-rule:nonzero}
    .fil210 {fill:#955F15;fill-rule:nonzero}
    .fil202 {fill:#95855D;fill-rule:nonzero}
    .fil61 {fill:#96969A;fill-rule:nonzero}
    .fil115 {fill:#974B00;fill-rule:nonzero}
    .fil205 {fill:#976F29;fill-rule:nonzero}
    .fil34 {fill:#979FA5;fill-rule:nonzero}
    .fil33 {fill:#996900;fill-rule:nonzero}
    .fil77 {fill:#9A637D;fill-rule:nonzero}
    .fil99 {fill:#9A7A31;fill-rule:nonzero}
    .fil214 {fill:#9B490C;fill-rule:nonzero}
    .fil103 {fill:#9B4A0C;fill-rule:nonzero}
    .fil109 {fill:#9B4B1E;fill-rule:nonzero}
    .fil197 {fill:#9B7351;fill-rule:nonzero}
    .fil43 {fill:#9B9991;fill-rule:nonzero}
    .fil11 {fill:#9C6D2C;fill-rule:nonzero}
    .fil57 {fill:#9E854E;fill-rule:nonzero}
    .fil200 {fill:#9F9469;fill-rule:nonzero}
    .fil172 {fill:#A18648;fill-rule:nonzero}
    .fil193 {fill:#A2693D;fill-rule:nonzero}
    .fil131 {fill:#A56828;fill-rule:nonzero}
    .fil171 {fill:#A6B400;fill-rule:nonzero}
    .fil97 {fill:#A86D18;fill-rule:nonzero}
    .fil40 {fill:#A88C4E;fill-rule:nonzero}
    .fil136 {fill:#A9703E;fill-rule:nonzero}
    .fil195 {fill:#AA6933;fill-rule:nonzero}
    .fil95 {fill:#AA6D18;fill-rule:nonzero}
    .fil13 {fill:#AA7B44;fill-rule:nonzero}
    .fil73 {fill:#ABB18B;fill-rule:nonzero}
    .fil110 {fill:#AC5A22;fill-rule:nonzero}
    .fil100 {fill:#AC6100;fill-rule:nonzero}
    .fil28 {fill:#AD3A00;fill-rule:nonzero}
    .fil114 {fill:#AD7725;fill-rule:nonzero}
    .fil35 {fill:#AE4300;fill-rule:nonzero}
    .fil44 {fill:#AEB8BD;fill-rule:nonzero}
    .fil36 {fill:#B19688;fill-rule:nonzero}
    .fil203 {fill:#B19D6D;fill-rule:nonzero}
    .fil46 {fill:#B1B2B5;fill-rule:nonzero}
    .fil64 {fill:#B1BB61;fill-rule:nonzero}
    .fil180 {fill:#B2793D;fill-rule:nonzero}
    .fil47 {fill:#B37C32;fill-rule:nonzero}
    .fil22 {fill:#B4B0A6;fill-rule:nonzero}
    .fil102 {fill:#B56820;fill-rule:nonzero}
    .fil49 {fill:#B5B9BC;fill-rule:nonzero}
    .fil98 {fill:#B6610C;fill-rule:nonzero}
    .fil5 {fill:#B67E32;fill-rule:nonzero}
    .fil216 {fill:#B7641F;fill-rule:nonzero}
    .fil194 {fill:#B7783D;fill-rule:nonzero}
    .fil196 {fill:#B79852;fill-rule:nonzero}
    .fil1 {fill:#B8B9BC;fill-rule:nonzero}
    .fil37 {fill:#B99A88;fill-rule:nonzero}
    .fil96 {fill:#BA5600;fill-rule:nonzero}
    .fil24 {fill:#BA996D;fill-rule:nonzero}
    .fil137 {fill:#BB8646;fill-rule:nonzero}
    .fil111 {fill:#BC6200;fill-rule:nonzero}
    .fil89 {fill:#BCBEC0;fill-rule:nonzero}
    .fil66 {fill:#BCC69F;fill-rule:nonzero}
    .fil6 {fill:#BDB4A9;fill-rule:nonzero}
    .fil8 {fill:#BEC0C3;fill-rule:nonzero}
    .fil74 {fill:#BF7A99;fill-rule:nonzero}
    .fil155 {fill:#BF905C;fill-rule:nonzero}
    .fil219 {fill:#C1903A;fill-rule:nonzero}
    .fil154 {fill:#C1AC7A;fill-rule:nonzero}
    .fil184 {fill:#C29959;fill-rule:nonzero}
    .fil93 {fill:#C49A41;fill-rule:nonzero}
    .fil21 {fill:#C4BBAB;fill-rule:nonzero}
    .fil86 {fill:#C5C6C8;fill-rule:nonzero}
    .fil92 {fill:#C79B41;fill-rule:nonzero}
    .fil23 {fill:#C84400;fill-rule:nonzero}
    .fil78 {fill:#C8ABB9;fill-rule:nonzero}
    .fil20 {fill:#CBD3D8;fill-rule:nonzero}
    .fil183 {fill:#CC813D;fill-rule:nonzero}
    .fil145 {fill:#CC8500;fill-rule:nonzero}
    .fil152 {fill:#CC9D5C;fill-rule:nonzero}
    .fil179 {fill:#CD8A3D;fill-rule:nonzero}
    .fil71 {fill:#CDCFD1;fill-rule:nonzero}
    .fil29 {fill:#CE8C00;fill-rule:nonzero}
    .fil176 {fill:#CEA57F;fill-rule:nonzero}
    .fil63 {fill:#CFDC70;fill-rule:nonzero}
    .fil10 {fill:#D19039;fill-rule:nonzero}
    .fil94 {fill:#D58920;fill-rule:nonzero}
    .fil19 {fill:#D5AF7C;fill-rule:nonzero}
    .fil162 {fill:#D5B685;fill-rule:nonzero}
    .fil68 {fill:#D5DAA9;fill-rule:nonzero}
    .fil144 {fill:#D68700;fill-rule:nonzero}
    .fil106 {fill:#D68D52;fill-rule:nonzero}
    .fil149 {fill:#D69E5C;fill-rule:nonzero}
    .fil54 {fill:#D6D6D7;fill-rule:nonzero}
    .fil60 {fill:#D6D8DA;fill-rule:nonzero}
    .fil112 {fill:#D79B30;fill-rule:nonzero}
    .fil218 {fill:#D79E3D;fill-rule:nonzero}
    .fil18 {fill:#D8CEC0;fill-rule:nonzero}
    .fil85 {fill:#D9D9DB;fill-rule:nonzero}
    .fil91 {fill:#DA7A00;fill-rule:nonzero}
    .fil190 {fill:#DAB460;fill-rule:nonzero}
    .fil177 {fill:#DBB07F;fill-rule:nonzero}
    .fil160 {fill:#DBB389;fill-rule:nonzero}
    .fil151 {fill:#DBC084;fill-rule:nonzero}
    .fil79 {fill:#DCB7C8;fill-rule:nonzero}
    .fil199 {fill:#DCCC8F;fill-rule:nonzero}
    .fil165 {fill:#DEB179;fill-rule:nonzero}
    .fil182 {fill:#E0A755;fill-rule:nonzero}
    .fil81 {fill:#E1D2D9;fill-rule:nonzero}
    .fil32 {fill:#E2BA66;fill-rule:nonzero}
    .fil41 {fill:#E3BE6E;fill-rule:nonzero}
    .fil178 {fill:#E49C3D;fill-rule:nonzero}
    .fil3 {fill:#E4A459;fill-rule:nonzero}
    .fil161 {fill:#E4CC99;fill-rule:nonzero}
    .fil67 {fill:#E5ECB2;fill-rule:nonzero}
    .fil147 {fill:#E6E6E1;fill-rule:nonzero}
    .fil153 {fill:#E7C179;fill-rule:nonzero}
    .fil143 {fill:#E8A800;fill-rule:nonzero}
    .fil146 {fill:#E8AC5C;fill-rule:nonzero}
    .fil25 {fill:#E95900;fill-rule:nonzero}
    .fil157 {fill:#EAC489;fill-rule:nonzero}
    .fil17 {fill:#EAE2D8;fill-rule:nonzero}
    .fil158 {fill:#EBC6A1;fill-rule:nonzero}
    .fil164 {fill:#EBCC90;fill-rule:nonzero}
    .fil167 {fill:#EBCEA6;fill-rule:nonzero}
    .fil82 {fill:#ECD8E1;fill-rule:nonzero}
    .fil56 {fill:#ECDAD1;fill-rule:nonzero}
    .fil88 {fill:#ECEDEE;fill-rule:nonzero}
    .fil69 {fill:#ED96BB;fill-rule:nonzero}
    .fil107 {fill:#EDA95D;fill-rule:nonzero}
    .fil163 {fill:#EDBC79;fill-rule:nonzero}
    .fil27 {fill:#EEC7B2;fill-rule:nonzero}
    .fil83 {fill:#EFA921;fill-rule:nonzero}
    .fil42 {fill:#EFDAAD;fill-rule:nonzero}
    .fil150 {fill:#F1C95C;fill-rule:nonzero}
    .fil53 {fill:#F1F1EF;fill-rule:nonzero}
    .fil9 {fill:#F2E8DA;fill-rule:nonzero}
    .fil2 {fill:#F4A741;fill-rule:nonzero}
    .fil168 {fill:#F4D379;fill-rule:nonzero}
    .fil166 {fill:#F4D5A6;fill-rule:nonzero}
    .fil31 {fill:#F4E6C7;fill-rule:nonzero}
    .fil52 {fill:#F4F3F0;fill-rule:nonzero}
    .fil80 {fill:#F5C6DA;fill-rule:nonzero}
    .fil55 {fill:#F5DDD1;fill-rule:nonzero}
    .fil84 {fill:#F6D087;fill-rule:nonzero}
    .fil159 {fill:#F6D3A6;fill-rule:nonzero}
    .fil26 {fill:#F8CDB2;fill-rule:nonzero}
    .fil169 {fill:#F8E3A6;fill-rule:nonzero}
    .fil90 {fill:#F9C256;fill-rule:nonzero}
    .fil12 {fill:#F9CB8F;fill-rule:nonzero}
    .fil15 {fill:#FAD7A9;fill-rule:nonzero}
    .fil87 {fill:#FAE6BE;fill-rule:nonzero}
    .fil14 {fill:#FAEFE1;fill-rule:nonzero}
    .fil181 {fill:#FBD17D;fill-rule:nonzero}
    .fil148 {fill:#FBD991;fill-rule:nonzero}
    .fil50 {fill:#FBE1D1;fill-rule:nonzero}
    .fil156 {fill:#FCE0A3;fill-rule:nonzero}
    .fil4 {fill:#FDEFDD;fill-rule:nonzero}
    .fil51 {fill:#FEF6F1;fill-rule:nonzero}
    .fil0 {fill:white;fill-rule:nonzero}
   ]]>
  </style><linearGradient id="linearGradient7932-6"><stop stop-color="#338000" offset="0"/><stop stop-color="#80c904" offset="1"/></linearGradient><linearGradient id="linearGradient15750"><stop stop-color="#9a4121" offset="0"/><stop stop-color="#7f3a19" stop-opacity=".953" offset="1"/></linearGradient><linearGradient id="linearGradient9862" x1="724" x2="857" y1="376" y2="376" gradientTransform="matrix(-1.58 0 0 1.58 1918 167)" gradientUnits="userSpaceOnUse" xlink:href="#linearGradient7932-6"/><linearGradient id="linearGradient9870" x1="779" x2="867" y1="312" y2="312" gradientTransform="matrix(-1.58 0 0 1.58 1918 167)" gradientUnits="userSpaceOnUse" xlink:href="#linearGradient15750"/><linearGradient id="linearGradient9878" x1="702" x2="778" y1="313" y2="313" gradientTransform="matrix(-1.58 0 0 1.58 1918 167)" gradientUnits="userSpaceOnUse" xlink:href="#linearGradient15750"/><linearGradient id="linearGradient9886" x1="723" x2="821" y1="372" y2="372" gradientTransform="matrix(-1.58 0 0 1.58 1918 167)" gradientUnits="userSpaceOnUse" xlink:href="#linearGradient15750"/><linearGradient id="linearGradient9894" x1="696" x2="808" y1="143" y2="222" gradientTransform="matrix(-1.58 0 0 1.58 1918 167)" gradientUnits="userSpaceOnUse" xlink:href="#linearGradient9900"/><linearGradient id="linearGradient10227" x1="1067" x2="1159" y1="320" y2="320" gradientTransform="matrix(1.71 0 0 1.71 -1566 140)" gradientUnits="userSpaceOnUse" xlink:href="#linearGradient9900"/><linearGradient id="linearGradient10251" x1="1069" x2="1154" y1="436" y2="436" gradientTransform="matrix(1.71 0 0 1.71 -1566 140)" gradientUnits="userSpaceOnUse" xlink:href="#linearGradient7932-6"/><linearGradient id="linearGradient10259" x1="1021" x2="1100" y1="205" y2="279" gradientTransform="matrix(1.71 0 0 1.71 -1566 140)" gradientUnits="userSpaceOnUse"><stop stop-color="#803a18" offset="0"/><stop stop-color="#8a3d1c" offset="1"/></linearGradient></defs><g><g><path d="m709 523c3.64-28.9 95.4-20 111-35.4 14.2-13.9 40.9-104 56.4-101 15.5 2.96 24.1 11.5 21.5 31.4-2.63 19.9-3.64 63.6-48 105-44.3 41-145 34.1-141 0.382" fill="#974021"/><path d="m835 95.7s1.9 18.6-1.3 23.5c1.41 1.59 3.83 3.2 7.98 3.46 4.73 0.298 13.8-0.154 21.7-1.3-1.92-7.4-1.84-20.5-2-24.6l-26.3-1.06" fill="#fff"/><path d="m912 66.1c-14.3 0.252-30.3-1.53-38.2-2.56-0.228 0.75-0.401 1.57-0.457 2.53-0.294 4.56 51.8 7.67 60.9 3.83 2.43-1.03 3.66-3.37 3.95-6.27-6.79 1.11-16.1 2.28-26.2 2.46" fill="#fff"/></g><path d="m692 360c3.05 2.62 4.45 5.78 3.93 8.92-0.464 2.8-2.44 5.22-5.16 6.31-2.99 1.2-8.33 6.49-10.9 9.26l14.8 18c12.9 7.22 38.1 21 42.1 22.4 5.01 1.67 12.3 11.3 14.2 13.9 4.11 0.254 27.5 1.7 30.6 1.7 3.04 0 5.4 2.11 8.12 4.55 0.971 0.87 1.98 1.77 3.11 2.68 5.01 4.01 5.7 9.12 5.7 14 0 5.12 0.858 24.1 0.867 24.3-0.153 2.13-1.05 12.1-3.85 14.9-0.948 0.948 1.63 7.26 5.32 13.1 1.34 1.01 8.93 6.82 11.7 10.3 3.12 3.91 5.38 13.6 5.38 18.3 0 3.21 4 8.92 5.54 10.8l0.104 0.151 9.04 15.3c6.73-0.783 18.7-2.25 20.8-2.79 2.37-0.594 9.13-0.316 14 0.165-1.26-4.57-4.74-17.4-4.74-20 0-3.35-1.47-40-2.16-43.5-0.743-3.71-2.1-5.77-4.14-6.28-1.94-0.486-4.56-3.82-8.67-9.23-2.6-3.42-5.29-6.96-7.15-8.51-1.77-1.47-2.57-2.92-2.46-4.42 0.191-2.5 2.9-4.13 5.52-5.7 3.15-1.89 13.6-9.38 16.1-11.2l-1.46-58.5 0.867-0.326c0.24-0.0903 5.88-2.2 8.06-2.93 2.35-0.781 9.71-2.97 15.5-3.7 5.56-0.689 16.8 3.99 19.2 5.01 3.25-0.915 23.1-6.54 26.4-7.84 3.61-1.44 29.6-11.6 29.9-11.7 0.2-0.0644 11.8-3.7 19.7-6.57 9.21-3.35 28.5-14.7 29.8-20.9 0.78-3.89 2.57-6.14 4.01-7.94 1.4-1.76 2.51-3.14 2.51-5.65 0-6.69 9.24-10 14.4-10 3.76 0 6.93 2.7 8.3 4.07l4.96-2.48c2.44-1.02 8.94-3.94 10.6-5.58 1.9-1.9 7.08-4.01 12.1-6.06 1.28-0.524 2.52-1.03 3.62-1.5 3.76-1.61 3.66-6.42 3.59-9.93-0.01-0.446-0.018-0.868-0.018-1.26 0-3.69 1.41-14.3 1.47-14.7-0.013-0.248-0.011-10.2 0.734-14.6 0.55-3.32 2.24-5.51 3.28-6.6-2.25-3.91-11.5-19.6-17.3-24.4-5.56-4.55-14.2-19.3-19.3-28.1-1.39-2.37-2.48-4.23-3.03-5.06-2.49-3.74-11.7-12.1-16.1-12.7-5.09-0.637-28.9-7.34-29.9-7.62l-0.465-0.13-0.266-0.399c-1.44-2.16-14.1-21.2-14.7-25.1-0.49-2.94-5.09-12.1-6.82-15.4l-18.5-26.5c-1.74 1.06-3.44 1.29-4.99 1.29h-10c-1.68 2.46-6.62 9.42-9.68 10.6-2.45 0.981-12.5 8.42-16.1 11.2l-0.221 0.168-0.271 0.0642c-0.398 0.092-9.78 2.27-14.4 1.35-2.03-0.398-3.61 0.967-6.01 3.24-1.32 1.25-2.68 2.54-4.35 3.54-0.939 0.564-1.76 1.09-2.49 1.56-2.69 1.72-4.63 2.97-7.73 2.97h-29.5c-5.48 0-9.12 6.53-9.12 10.9 0 6.03-5.82 13.4-14.2 14.3-5.2 0.578-6.8 1.14-9.23 1.99-1.17 0.412-2.5 0.877-4.45 1.44-0.778 0.222-1.56 0.431-2.33 0.636-5.51 1.47-8.89 2.55-8.89 5.93 0 5.92-5.81 11.7-11.7 11.7-2.4 0-9.15 0.188-16.3 0.387-8.5 0.236-17.3 0.481-21 0.481-6.8 0-15.3 0-19.3 2.42-3.84 2.3-23.3 14.1-27.7 16.8 0.931 2.66 3.19 9.43 3.19 12.5 0 1.75-0.212 11-0.434 20.9-0.213 9.38-0.434 19.1-0.434 20.8 0 3.25-2.16 23.6-2.55 27.4l19.5 23-13.4 15.3-0.707-0.109c-0.109-0.0171-11-1.62-19.2 2.48-1.37 0.684-2.87 1.15-4.43 1.47 1.84 2.53 5.67 7.5 9.9 11.1z" fill="#ffc431" stroke="null" stroke-width=".419"/></g><g transform="matrix(.589 0 0 .589 752 67.9)"><path d="m469 94.2c-37.6-115-199-115-236 0-7.21 22.1-11.1 45.6-11.1 70.1 0 90.1 52.9 168 129 204 76.4-36.1 129-114 129-204-1e-3 -24.5-3.9-48-11.1-70.1z" fill="#dd636e"/><path d="m351 368c-76.4-36.1-129-114-129-204 0-24.5 3.89-48 11.1-70.1 18.8-57.6 68.5-86.3 118-86.3-32.5 0-65.1 28.8-77.4 86.3-4.72 22-7.28 45.6-7.28 70.1 0 90.1 34.6 168 84.7 204z" fill="#c63d4f"/><circle cx="351" cy="136" r="78.4" fill="#dfeaef"/><path d="m363 213c-3.9 0.608-7.91 0.917-12 0.917-43.3 0-78.4-35.1-78.4-78.4 0-43.3 35.1-78.4 78.4-78.4 4.08 0 8.09 0.309 12 0.917-37.6 5.77-66.4 38.3-66.4 77.5 0 39.2 28.8 71.7 66.4 77.5z" fill="#b4d0d5"/></g><g><path d="m806 387s5.7-24.6 12.2-25c6.47-0.378 21.7-2.92 21-0.104-0.673 2.82-12 3.49-12 3.49s15.4 0.758 16.1 2.39c0.735 1.63-1.66 2.65-1.66 2.65s1.69 1.65 1.5 3.44c-0.202 1.77-12.9 3.9-12.9 3.9s-1.22 25.7-17.2 22.3c-16-3.37-6.99-13.1-6.99-13.1" fill="#ff6161"/><path d="m686 441s7.12 3.03-1.79 1.36c-8.92-1.67-11.6 3.36-13.9 13.9-2.33 10.5-10.3 23.1 7.44 27.9 9.84 2.67 25.1-1.19 26.9-16.7 1.16-10.1-1.91-29.5-18.7-26.4" fill="#602f0f"/><path d="m775 827s-121 15.5-148-6.07c-26.7-21.6 38.2-151 66.1-145 28 5.54 87.3 136 81.5 152" fill="url(#linearGradient9886)"/><path d="m623 814c8.09-2.77-5.14-121-5.7-131-2.19-40.9 11.7-62.5 23.4-77.7 42.4 8.94 78.4 0.284 96.1-5.7 3.53 7.61 7.38 15.2 9.97 21.1 11.6 26.6 20.7 42.3 26 102 6.91 76.6-15.8 179-77.9 277-3.29 5.21-18.2 0.586-18.2 0.586-0.606-7.95 9.47-122 33-163 8.56-15-4.21-138-7.88-138-2.62 0.396 23.1 189-160 205l-5.71-15.5s38.4-56.9 87-73.5" fill="#ff6161"/><path d="m670 979c13.8 3.62 37.1 0.687 53.3 2.12 45-77.2 54.6-198 49.2-258-5.37-59.5-14.4-75.1-26-102-4.31-9.87-12.1-24.2-16.1-35.9-18.9 0.145-55.1 0.368-76.1 0.182-6.64 18.3-40.6 35.8-37.2 98 0.554 10.4 13.8 128 5.7 131-22.8 7.8-65 33.7-79.4 58.4 8.32 9.74 13.1 23.3 30.5 36 147-22.3 126-210 128-210 3.68-0.554 10.3 123 1.73 138-21.1 49.3-29.8 89-32.8 142" fill="url(#linearGradient9862)"/><path d="m623 814c8.09-2.77-5.14-121-5.7-131-3.34-62.2 30.6-79.8 37.2-98 6.55 0.0558 14.6 0.0745 23.1 0.0655-0.48 35.1-2.65 81.1-10.3 98-13.1 28.6-3.01 111-14.6 130-7.99 13.2-7.13 41-0.764 57.2-20.1 21.8-54.7 35.6-78.5 39.7-17.4-12.7-22.5-26.5-30.8-36.2 14.4-24.4 57.5-51.4 80.3-59.2" fill="#338000"/><path d="m641 605c6.55-8.52 12.4-15 14.3-21.8 6.32-22.6-36.8-46.9-14.2-76 9.73-12.6 62.8-24.2 76-8.13 3.25 3.94 16.3 14 17.9 21.3 3.42 15.3-6.84 32.4-6.65 52.4 0.056 6.69 4.14 16.7 8.75 26.6-17.7 5.99-53.7 14.6-96.1 5.7" fill="#f4a72c"/><path d="m731 792c-1.36 41.1 11 85.2 27.7 95.4-4.91 16.9-27.6 75.9-35.4 92.8-16.2-1.43-39.5 2.69-53.3-0.917-0.216-44.8 21.8-123 33.2-143 8.09-14.2 2.61-125-1.11-137 4.31 6.93 30.3 50.5 28.9 92.5" fill="#338000"/><path d="m676 493s10.3 53 11.1 73c2.55 64.7-5.68 163-16.4 220-4.82 25.7-28.4 43.6-54.4 41.2-19.8-1.84-44.1-8.52-68.1-26.3 0 0 51.6-26.4 52.7-70 1.11-43.6 12.2-105 23.6-125 11.5-20.4 18.1-38.3 12.9-51.7-5.17-13.4-25.5-51.4 38.4-60.8" fill="url(#linearGradient9870)"/><path d="m671 1e3c4.06-5.17 3.91-8.61 4.71-13.5 0 0 25.6-9.92 28.8-3.41 1.63 3.34-6.45 8.33-3.72 13.4 1.19 2.22 2.93 4.36 8.15 7 8.21 4.97 18.3 11.3 18.5 14.3 0.266 4.89-49.9 1.23-57.9-4.06-4.19-2.76-3.01-8.09 1.44-13.8" fill="#f9af2f"/><path d="m524 883c4.89 0.07 8.41-0.778 11.7-2.18 2.31-0.983 4.97-0.596 7.01 0.885 6.88 5 20.6 16.5 15.3 24.9-1.98 3.15-14.5 4.4-13.4 10.2 1.03 9.54 2.1 21.5-0.135 23.4-3.73 3.18-31.2-38.9-31.9-48.5-0.34-5 4.24-8.73 11.4-8.62" fill="#f8ad2f"/><path d="m691 495s20.9 11 26.5 28.1c5.54 17.2 5.54 66.4 9.43 93.7 3.88 27.3 38.9 194 41 209 2.11 15.1 41.6-2.49 41.6-2.49s-18-69.3-22.4-84.2c-4.44-15-10.5-91.4-26-112-15.5-20.4-23.8-58.9-25.5-64.4-1.66-5.54 9.97-38.5-6.1-54.6-16.1-16.1-22.2-18.5-40.3-17.3l1.96 3.83" fill="url(#linearGradient9878)"/><path d="m610 826c-18.6-2.58-40.4-9.57-62.1-25.6 0 0 51.6-26.4 52.7-70 1.11-43.6 12.2-105 23.6-125 11.5-20.4 18.1-38.3 12.9-51.7-4.4-11.4-19.8-40.7 15.2-54.9 0.866 10.8 3.65 47.6 3.96 77.8 0.368 35.8-33.8 127-35.6 166-1.21 26.8-7.26 63.8-10.9 83.9" fill="#803a18"/><path d="m678 471-0.638 24.4c-0.0883 4.03 9.67 14.5 16.1 9.49 1.88-1.46-0.489-7.03-2.18-11.2l-4.5-21.1-8.77-1.64" fill="#ff6161"/><path d="m677 457-1.56 9.37c-1.23 7.42 3.45 14.8 10.9 16.2 6.83 1.28 13.5-2.6 14.6-11.2 0.974-7.68-4.42-14.4-6.36-17.9-4.43-7.96-14.9-7.15-17.5 3.49" fill="#ff6161"/><path d="m696 469s-6.1 2.72-9.68 2.56c0 0 4.75 1.59 6.81 0.629 2.05-0.96 2.87-3.19 2.87-3.19" fill="#ffe6e6"/><path d="m641 518c3.64-28.9 95.4-20 111-35.4 14.2-13.9 40.9-104 56.4-101 15.5 2.95 24.1 11.4 21.5 31.4-2.63 19.9-3.64 63.6-48 105-44.3 41-145 34.1-141 0.382" fill="url(#linearGradient9894)"/></g><g transform="matrix(.534 -.0739 .0885 .577 750 364)" stroke-width=".387px"><path d="m-142 105s-43.3 0.409-47.7 37.6c-4.2 24.6-3.6 59.7 6.28 76.2 0 0 6.32 17.7 35.7 22.5 6.52 0.539 18.5-2.16 26.3-5.6l-10.4 4.13-13.4 51.7c3.47 0.024 5.25-1.2 8.81-1.73 2.28-0.341 6.77 3.47 8.91 2.81 2.63-0.806 6.94-3.1 9.67-3.08 3.5 0.0242 5.58 3.3 9.39 3.44 2.62 0.0972 6.96-3.44 9.28-3.13 3.7 0.493 4.59 2.03 8.42 2.06l-6.71-71.5s-0.672 1.83-2.63 4.26c1.01-1.28 1.9-2.69 2.63-4.26-12.2-15.1-31.8-17-31.8-17-27.4-1.23-37.8-23.1-37.8-23.1-12.9-28 6.33-46.2 6.33-46.2v-0.203c16.7-12.7 33.5-4.49 33.5-4.49 25.6 10.6 10.4 46.1 2.9 74.3l6e-3 0.224c14.6 7.83 26.9 16.4 26.9 16.4l0.277-69.5s0.227-45-44.8-45.9zm32.7 127c-0.247 0.125-0.505 0.245-0.762 0.367 0.255-0.119 0.509-0.242 0.762-0.367zm-1.23 0.592c-1.87 0.856-4 1.63-6.41 2.26 2.16-0.585 4.32-1.32 6.41-2.26zm-7.03 2.42c-0.133 0.0332-0.265 0.0673-0.4 0.0996 0.133-0.0333 0.267-0.0651 0.4-0.0996z" fill="#ffc431" stroke="#ffc431"/><path d="m-116 290 13.3-57.8 0.945 57.9c-2.44 0.894-5.22 2.91-7.79 2.78-2.63-0.461-3.94-1.85-6.49-2.94zm-55.8-88.4c11.3 23.2 39.1 26 60.2 17.9-9.63 8.56-23.8 8.5-23.8 8.5-21.5-0.665-35-17.4-36.4-26.4zm73.7 13.3c-4.2-4.79-10.5-6.5-16.3-7.37 12.1 5.78 16.4 12.8 16.4 12.8z" fill="#fcb431" stroke="#fcb431"/></g><g><path d="m684 443c9.15-1.25 17.1 1.3 19.2 16.8 0 0-17.1-1.54-17.9-7.19 0.768 5.65-15.3 11.7-15.3 11.7-2.13-15.5 4.82-20.1 14-21.3z" clip-rule="evenodd" fill="#602f0f" fill-rule="evenodd" image-rendering="optimizeQuality" shape-rendering="geometricPrecision" stroke-width=".179"/><path d="m697 464c0.13-0.829 0.135-1.66 0.0881-2.49-0.0881-1.58 0.149-3.96 2.56-2.93 3.51 1.49 3.51 9.96-0.368 10.8-2.88 0.638-2.61-3.32-2.28-5.39" fill="#ff6161"/><path d="m678 465c-0.503-0.666-0.899-1.4-1.25-2.16-0.671-1.44-2-3.42-3.65-1.37-2.39 2.97 1.59 10.4 5.42 9.37 2.84-0.797 0.741-4.15-0.526-5.83" fill="#ff6161"/></g><g transform="matrix(-.583 0 0 .583 915 -26.4)"><title>background</title><rect id="canvas_background" x="-1" y="-1" width="1082" height="1082" fill="none"/></g><g><g transform="matrix(1.3 0 0 1.3 51 211)" fill="#803a18" stroke-width=".787" aria-label="یزد"><path d="m651 88.1-4.14 4.14-4.19-4.16 4.14-4.16zm10.5 0.0256-4.14 4.16-4.19-4.19 4.14-4.14zm-22.8-11.3q0-1.07 0.741-1.79 0.715-0.715 1.76-0.715h2.84q0.894 0.0256 1.94 0.0256 1.05-0.0256 2.12-0.128 1.07-0.102 2.09-0.281 1.05-0.204 1.92-0.536 0.869-0.358 1.53-0.869 0.664-0.511 0.996-1.23 0.511-1.1 0.281-3.12-0.204-2.04-1.02-4.75-0.281-0.818-0.664-1.76-0.358-0.971-0.715-1.79-0.409-0.971-0.843-1.92l4.55-2.25q0 0.0256 0.23 0.536 0.255 0.485 0.613 1.33 0.358 0.843 0.792 1.97 0.434 1.1 0.818 2.35 2.38 7.33 0.588 11.4-1.81 4.11-6.44 5.42-0.69 0.204-1.76 0.332-1.07 0.102-2.2 0.153-1.12 0.0511-2.15 0.0766-1.02 0-1.58 0h-3.93q-1.05 0-1.76-0.715-0.741-0.715-0.741-1.79z"/><path d="m637 77.6q0 2.22-0.664 4.32-0.639 2.09-1.81 4.04-1.15 1.94-2.76 3.68-1.58 1.76-3.47 3.32-1.86 1.56-3.96 2.86-2.07 1.33-4.22 2.4l-2.2-4.52q1.84-0.945 3.65-2.07t3.42-2.43q1.61-1.3 2.96-2.76 1.35-1.46 2.27-3.04 0.945-1.58 1.41-3.3 0.46-1.69 0.281-3.5v0.0511q-0.179-1.46-0.562-3.12-0.358-1.69-0.818-3.3-0.434-1.61-0.869-3.01-0.409-1.43-0.715-2.38l4.8-1.48q0.971 2.96 1.89 5.06 0.945 2.07 1.92 3.4 0.996 1.3 2.07 1.92t2.35 0.613h0.128q0.536 0 0.996 0.204 0.46 0.204 0.792 0.562 0.358 0.332 0.536 0.792 0.204 0.46 0.204 0.971 0 1.07-0.741 1.79-0.715 0.69-1.79 0.69h-0.0256q-0.358 0-0.945-0.0256-0.562-0.0256-1.28-0.204-0.69-0.179-1.43-0.562-0.741-0.383-1.43-1.07zm-2.09-24.9-4.16 4.16-4.19-4.19 4.16-4.16z"/><path d="m606 79.3q-1.23 0-2.91-0.307-1.66-0.307-3.32-0.766-1.66-0.485-3.04-1.07t-2.02-1.18l2.09-4.8q0.945 0.613 2.27 1.2 1.33 0.562 2.84 0.996 1.51 0.409 3.09 0.613 1.61 0.204 3.09 0.0766 1.48-0.128 2.76-0.639 1.28-0.511 2.15-1.56 0.69-0.792 0.179-2.96-0.281-1.25-0.92-2.61-0.613-1.38-1.51-2.73-0.869-1.38-1.94-2.68-1.07-1.3-2.25-2.4-1.15-1.12-2.35-1.99-1.2-0.869-2.35-1.38l2.07-4.65q1.51 0.69 3.04 1.79 1.53 1.1 2.96 2.48 1.46 1.38 2.76 2.99 1.33 1.58 2.4 3.3 1.07 1.69 1.86 3.4 0.792 1.71 1.18 3.35 0.307 1.43 0.307 2.58 0 1.15-0.23 2.04-0.204 0.894-0.562 1.56t-0.766 1.15q-2.35 2.84-6.57 3.76-0.971 0.255-2.04 0.358-1.07 0.102-2.27 0.102z"/></g><g><path d="m260 628c-2.25 10.5-3.72 22-4.6 34 59.8 18.2 110 20.7 142 19.4 2.94-13.1 6.25-22.4 10.1-32.4 1.59-4.09 2.63-6.81 3.25-9.72-53.4 0.593-124-7.78-151-11.3" fill="#796bf9"/><path d="m389 582c38.4-2.17 90.7-20.3 101-31.1 11.1-12.2 28.3-73.1 46.5-92.3 6.94-7.31 20.7-2.77 24.5 4.28 8.35 15.4-5.51 97.1-41.1 131-20.4 19.2-74.1 41.3-110 50.1-24.5 5.92-33.6-60.8-20.2-61.5" fill="#803a18"/><path d="m270 720c0.554-0.844 83.1-8.82 102-14.7 0 0.0907-0.032 0.16-0.032 0.16 77.6 208-6.74 353-40.2 356-38.1 3.38 6.13-135 8.88-145 9.43-35.4 13.9-63.5-4.57-95.1-13.6-23.3-2.51 237-52.4 231-31.6-3.59-35.2-56.9-3.13-147 7.61-21.4-47.5-128-10.2-185" fill="url(#linearGradient10251)"/><path d="m334 820c-3.47-4.41-16.7-10.5-23.6 8.26-7.77 21.4 1.21 51.8-3.64 83.2-4.85 31.4 1.24 20.7-11.5 67.3-10.7 39.2-19.3 58.3-14 73.4 0.36 0.052 0.702 0.134 1.06 0.177 48.9 5.55 39.2-245 51.6-232" fill="#338000"/><path d="m371 706s0-0.0691 0.0322-0.16c-6.17 1.96-14.5 4.23-24.5 6.18-1.08 29.1-0.77 74 9.38 97.7 15.8 36.9 30.6 82.4 24 102-6.68 19.7-31.3 59.5-36.8 92.6-3.38 20.4-9.36 41.6-7.73 56.4 35.8-14.3 110-155 35.6-355" fill="#338000"/><path d="m255 760c-0.482-51.2-5.68-127 16-163 14-23.5 49.1-23.2 71.2-20.1 12.4 1.74 42.9 0.446 59 9.31 7.43 4.08 8.2 15 8.64 21.2 2.07 29.1 2.07 29.1-2.64 41.3-5.41 14-9.73 26.3-13.5 50.2-4.97 31.9 1.16 82.2 0.412 83.9-22.6 24.3-126 15.1-139-22.8" fill="url(#linearGradient10227)"/><path d="m260 628c-2.25 10.5-3.72 22-4.6 34 59.8 18.2 110 20.7 142 19.4 2.94-13.1 6.25-22.4 10.1-32.4 1.59-4.09 2.63-6.81 3.25-9.72-53.4 0.593-124-7.78-151-11.3" fill="#f4a72c"/><path d="m368 546s2.86-9.2-0.969-15c-3.82-5.75-12.9-9.42-19.3-4.18-2.66 2.19-3.94 4.42-4.53 6.29-0.845 2.69-0.749 4.81-2.34 7.15-0.854 1.26-2.59 6.8-2.71 8.9-0.342 5.67 3.61 14.6 3.61 14.6s24.7-8.24 26.2-17.8"/><path d="m344 555-8.87 27.6c0.0322 3.86 21 14.3 27 9.27 1.77-1.46 1.21-5.15-0.533-9.13l-10.3-21.7-7.25-6.03" fill="#ff6161"/><path d="m350 546-5.74 15c-1.5 5.1 1.32 10.5 6.38 12.1 4.04 1.31 6.7 1.44 12 1.06 4.39-0.312 6.84-4.4 7.11-10.1 0.36-7.42-1.41-14.4-2.57-18-2.64-8.34-12.7-9.58-17.1-0.0648" fill="#ff6161"/><path d="m368 560s-4.42 8.06-9.98-1.24c0 0 5.23 0.325 9.98 1.24" fill="#fff"/><path d="m350 552c-0.167-0.983-0.179-1.98-0.133-2.97 0.0935-1.89-0.211-4.73-3.09-3.48-4.18 1.81-4.68 11-0.0425 12 3.45 0.736 3.67-3.07 3.26-5.55" fill="#ff6161"/></g></g><g fill="#338000"><path d="m368 548c-0.231 0.0521-0.807 0.874-0.905 2.26-0.0425 0.632 0.0322 1.24 0.191 1.72l1.03 3c0.342 1 0.883 1.66 1.39 1.7l0.874 0.0562c1.18 0.0778 2.66-2.28 2.88-5.56 0.0546-0.831-0.0478-1.64-0.299-2.22-0.195-0.455-0.411-0.615-0.48-0.619zm3.1 10.5c-0.211 0.0291-0.428 0.0431-0.642 0.026l-0.88-0.0564c-1.28-0.0909-2.37-1.15-2.97-2.91l-1.03-3c-0.243-0.701-0.343-1.56-0.286-2.43 0.0683-1 0.339-1.93 0.766-2.64 0.524-0.883 1.28-1.35 2.06-1.29l4.68 0.325c0.857 0.0605 1.58 0.667 2.02 1.71 0.364 0.848 0.52 1.93 0.437 3.05-0.27 3.92-2 6.85-4.16 7.22"/><path d="m354 547c-0.867 0.147-1.63 1.27-1.72 2.64-0.221 3.16 1.38 5.86 3.57 6.01l1.26 0.0909c0.978 0.065 1.96-0.493 2.7-1.53l1.97-2.79c0.299-0.411 0.484-0.965 0.521-1.55 0.0478-0.658-0.0991-1.31-0.392-1.77-0.143-0.225-0.448-0.606-0.896-0.636l-6.74-0.467c-0.0886-8e-3 -0.179 0-0.266 0.0123zm3.97 10.5c-0.326 0.0521-0.66 0.0691-0.994 0.0521l-1.26-0.0907c-3.18-0.221-5.53-3.78-5.25-7.94 0.183-2.57 1.91-4.47 3.92-4.33l6.74 0.468c0.913 0.0648 1.75 0.602 2.3 1.48 0.502 0.801 0.739 1.81 0.668 2.86-0.0646 0.913-0.364 1.79-0.851 2.48l-1.97 2.79c-0.884 1.24-2.05 2.03-3.31 2.24"/><path d="m366 551c-0.276 0.0476-0.567-0.0347-0.778-0.243-0.969-0.931-1.76-0.268-1.85-0.195-0.367 0.333-0.942 0.307-1.27-0.0605-0.335-0.372-0.305-0.944 0.0618-1.28 0.727-0.658 2.56-1.45 4.31 0.23 0.359 0.351 0.372 0.918 0.0324 1.28-0.142 0.151-0.318 0.234-0.499 0.268"/></g><g><path d="m274 1059c1.07-2.79 1.63-4.74 1.94-6.51 0.693-3.84 2.78-7.29 5.96-9.56 4.84-3.45 11.6-7.36 14.2-4.76 2.87 2.87-1.21 13.2 1.39 17.1 1.13 1.71 22.3 13.3 22.7 15.6 0.592 3.94-40.3 4.82-47.2 1.16-3.6-1.92-1.04-7.6 1.07-13.1" fill="#f8ad2f"/><path d="m332 1059c1.07-2.79 1.63-4.74 1.94-6.51 0.694-3.84 2.78-7.29 5.96-9.56 4.84-3.45 11.6-7.36 14.2-4.76 2.87 2.87-1.21 13.2 1.39 17.1 1.13 1.71 22.3 13.3 22.7 15.6 0.589 3.94-40.3 4.82-47.2 1.16-3.6-1.92-1.04-7.6 1.07-13.1" fill="#f8ad2f"/><path d="m314 576c-37.6-23.1-66.9-36.2-84.5-57.9-19.3-23.7-38.8-124-86.4-100-16.4 8.14 6.29 76.4 31.2 122 14.2 25.7 53.9 55.2 83.3 80.7 20 17.3 68.4-37 56.4-44.4" fill="url(#linearGradient10259)"/><path d="m407 649c4.71-12.2 4.71-12.2 2.64-41.3-0.442-6.21-1.22-17.1-8.64-21.2-9.85-5.42-25.1-7.04-38.2-7.88 1.24 23.4 5 101 1.03 121-3.45 17.3-9.7 65.5-8.48 96.2 17.2-1.29 31.7-5.58 38.6-13 0.753-1.66-5.38-52-0.407-83.9 3.72-23.9 8.05-36.2 13.5-50.2" fill="#803a18"/><path d="m409 646c0.966-2.56 1.65-4.61 2.11-6.76-14.2 0.156-29.6-0.333-45.1-1.18 0.397 15.5 0.558 31 0.179 43.2 11.8 0.519 22.4 0.485 31.5 0.117 0-0.0291 0-0.0564 0.0322-0.0868 0.723-3.22 1.47-6.22 2.24-9.05 0-0.0228 0.0322-0.0521 0.0322-0.082 0.359-1.33 0.731-2.62 1.11-3.89 0.0769-0.273 0.166-0.541 0.244-0.81 0.753-2.5 1.53-4.92 2.34-7.25v-0.0478c0.302-0.861 0.606-1.72 0.909-2.57 0.282-0.779 0.562-1.56 0.853-2.33 0.233-0.649 0.476-1.3 0.718-1.95 0.541-1.43 1.09-2.87 1.64-4.32 0.372-0.952 0.706-1.82 1.02-2.64 0.0394-0.108 0.0769-0.217 0.118-0.32" fill="#d5870b"/></g><g transform="matrix(.531 0 0 .531 2.22 33.8)"><g><title>background</title><rect x="-1" y="-1" width="1082" height="1082" fill="none"/></g><g fill="#ffc431"><title>Layer 1</title><path d="m247 740c0.205-0.0353 20.8-3.53 37.7-10.3 9.34-3.74 17.2-4.02 24-0.882 7.87 3.65 13.9 11.9 18.3 25.3 2.75 8.26 12.3 15.3 21.5 22.2 12.1 9.05 24.7 18.4 24.7 32.4 0 12.9 1.62 55.9 22.3 69.7 8.84 5.89 20.5 9.19 31.8 12.4 15.3 4.32 28.5 8.04 33.5 17.9 5.56 11.1 15.7 29.1 19.5 35.9 13.1 0.0494 63.6 0.445 82.5 3.59 24.5 4.08 54.8 3.74 60.8-3.28 0.423-0.494 1.21-1.43 0.381-3.94-1.23-3.7-2.69-7.51-4.14-11.3-7.21-18.9-15.4-40.4 2.91-51.3 16.9-10.1 34.1-27.3 34.3-27.4l9.03-9.03v12.8c0.296 1.16 4.42 5.29 19.4 5.29 12.5 0 33.5-2.98 33.5-22.9 0-21.9 9.09-44.1 26.5-44.1h98.8c14.7 0 70.5 4.27 75.7 25.2 1.33 5.33 1.33 11.2 1.33 17 0 11.6 0.437 18.9 6.48 21.9 0.988 0.494 1.95 0.981 2.89 1.46 2.09-2.93 24.4-32.7 63.6-27.9 29.8 3.72 42.8 2.96 50.7 2.51 1.72-0.0988 3.18-0.176 4.48-0.198 2.05-2.39 4.78-13.8 4.78-30v-54.3c-7.17-7.25-32.7-33.6-37.3-44.9-2.36-5.9-9.93-12.7-17.2-19.2-5.34-4.77-10.9-9.7-14.9-14.7-2.46-3.07-6.8-7.33-11.4-11.9-13.2-13-29.7-29.1-29.7-43.2 0-4.72-3.85-13.9-7.25-22-6.15-14.6-12-28.4-6.51-36.6 1.67-2.5 5.09-5.5 12-5.5 25 0 71.1-7.42 80.9-17.3 10.3-10.3 41.4-37.9 49.8-45.4-6.8-9.78-14.2-20.4-17.6-25.6-4.98-7.47-18.8-11.8-37.9-11.8-22.7 0-26.7-20-29.9-36-2.08-10.4-2.07-10.4-16-10-3.02 0.0847-6.52 0.176-10.6 0.176-6.16 0-11-2.08-14.5-6.19-8.4-9.98-5.13-28.8-2.74-42.5 0.692-3.98 1.35-7.75 1.35-9.55 0-11.1 3.22-24.9 28.3-33.2 2.66-0.882 4.4-2.46 5.49-4.95 4.01-9.19-2.01-26.7-4.91-33.3-2.94-4.47-6.75-16.9-5-23.8 0.924-3.72 0.579-10.9 0.409-14.4-0.0565-1.16-0.0988-2.07-0.0988-2.61 0-7.34-0.219-9.08-0.289-9.43-0.0847-0.169-0.713-1.63-1.52-3.54-2.59-6.12-4.99-11.9-5.94-15.1-0.988-3.3-3.78-8.98-5.23-11.3-3.42-0.6-13.6-1.87-30.6-1.87-20.2 0-44.7-6.08-72.6-18.1-5.87-2.51-12.5-6.09-19.6-9.86-16-8.62-36-19.3-45.9-15.9-2.37 0.833-4.04 2.53-5.24 5.34-3.43 8-8.82 13.4-16 16-8.81 3.23-18.2 1.38-24.1-0.487-0.903 14-3.75 28.2-9.61 38-11.5 19.1-48.7 37.9-75.1 37.9-31 0-50.9-10.6-54.6-29-2.31-11.6-9.67-13.1-27.5-15.9-2.22-0.339-4.54-0.699-6.94-1.1-20.5-3.42-33.9-6.96-46-27.2-7.51-12.5-19.9-18.6-37.8-18.6-5.69 0-32.9 4.05-61.7 8.33-40.4 6.02-86.2 12.8-101 12.8-22.6 0-43.3-2.5-47.6-32.8-1.83-12.9-8.14-12.8-26.1-10.9-5.46 0.6-11.7 1.28-18.1 1.28-18.4 0-39.1 4.09-47.6 5.98v52.2c0 14.2-2.31 38.7-17.7 43.8-10.5 3.51-44.6 3.8-75.8 3.8-19.5 0-26.5 17.3-26.5 33.5 0 23.8-5.44 30-26.5 30-14.3 0-22.9 18.4-22.9 26.5 0 10.7-3.4 48.3-3.55 49.9-0.254 2.75-2.56 4.81-5.26 4.81-0.0423 0-0.0847 0-0.127-7e-3l4.35 3.76 4.94 3.53 11.3 2.12 12 10.6 19.8 26.1 10.6 24.7 4.94 6.35 7.06 2.12 15.5-4.23 4.94 0.706 6.35 4.23h8.47l8.47-4.23 9.88-7.76h4.23l4.23 1.41h4.23l13.4-4.23 26.1 1.41 8.47-2.82 7.76-4.23 7.06-2.82 6.35 0.706 12.7 4.23 3.53 0.706 1.41 1.41 2.12 9.88 2.12 3.53 2.12 2.82 3.53 2.82 8.47 3.53 8.47-0.706 17.6-3.53 7.76-2.82 7.06-4.94 7.76-3.53 8.47 1.41 7.06 4.23 3.53 7.06-1.41 7.06-4.23 8.47-7.06 5.65-12 7.76-6.35 7.76-6.35 5.65-8.47 1.41-16.2-1.41-20.5 10.6-8.47 2.12-28.9-0.706-8.47 2.82-5.65 5.65-2.82 7.75-1.41 8.47v7.76l3.53 19.1-0.706 6.36-12.7-3.53h-2.12l-2.12 0.699 3.53 9.89 4.94 9.17 1.41 2.12 0.706 2.12-0.706 2.12-1.41 1.4-3.53 2.82-2.12 2.83-0.706 4.23v4.23l5.65 14.1 26.1 40.9 22.6 19.8 9.88 11.3 3.53 14.1-1.41 2.12-2.12 4.94-4.94 5.65-3.53 6.35 1.41 7.76 5.65 3.53h12.4c-0.325-0.55-0.586-1.16-0.699-1.83-0.48-2.88 1.47-5.61 4.35-6.09z" fill="#ffc431" stroke="null"/></g></g><g transform="matrix(.636 0 0 .636 187 30.5)"><path d="m469 94.2c-37.6-115-199-115-236 0-7.21 22.1-11.1 45.6-11.1 70.1 0 90.1 52.9 168 129 204 76.4-36.1 129-114 129-204-1e-3 -24.5-3.9-48-11.1-70.1z" fill="#dd636e"/><path d="m351 368c-76.4-36.1-129-114-129-204 0-24.5 3.89-48 11.1-70.1 18.8-57.6 68.5-86.3 118-86.3-32.5 0-65.1 28.8-77.4 86.3-4.72 22-7.28 45.6-7.28 70.1 0 90.1 34.6 168 84.7 204z" fill="#c63d4f"/><circle cx="351" cy="136" r="78.4" fill="#dfeaef"/><path d="m363 213c-3.9 0.608-7.91 0.917-12 0.917-43.3 0-78.4-35.1-78.4-78.4 0-43.3 35.1-78.4 78.4-78.4 4.08 0 8.09 0.309 12 0.917-37.6 5.77-66.4 38.3-66.4 77.5 0 39.2 28.8 71.7 66.4 77.5z" fill="#b4d0d5"/></g><g transform="matrix(1.71 0 0 1.71 -1559 123)" fill="#803a18" stroke-width="1.05" aria-label="کردستان"><path d="m1157 124q0-0.77 0.55-1.28 0.55-0.532 1.43-0.532h1.93q1.1 0 2.29-0.0183 1.19-0.0367 2.27-0.22 1.1-0.202 1.98-0.605 0.898-0.422 1.41-1.19 0.605-0.917 0.697-2 0.11-1.08-0.22-2.35-0.202-0.752-1.01-1.91-0.788-1.17-1.96-2.49-1.17-1.34-2.62-2.73-1.45-1.39-2.95-2.6l0.422-3.76 15.1-6.45 1.41 3.34-13.1 5.52q0.898 0.77 1.96 1.72t2.11 2.11q1.39 1.54 2.29 2.95 0.898 1.39 1.39 2.66 0.495 1.27 0.66 2.4 0.165 1.12 0.073 2.11t-0.385 1.83q-0.275 0.843-0.66 1.54-1.63 2.9-5.52 3.61-0.697 0.128-1.6 0.128h-5.92q-0.88 0-1.43-0.513-0.55-0.513-0.55-1.27z"/><path d="m1156 124q0 1.6-0.477 3.1-0.458 1.5-1.3 2.9-0.825 1.39-1.98 2.64-1.14 1.27-2.49 2.38-1.34 1.12-2.84 2.05-1.49 0.953-3.03 1.72l-1.58-3.25q1.32-0.678 2.62-1.49t2.46-1.74q1.16-0.935 2.13-1.98t1.63-2.18q0.678-1.14 1.01-2.37 0.33-1.21 0.202-2.51v0.0367q-0.128-1.05-0.403-2.24-0.257-1.21-0.587-2.37-0.312-1.16-0.623-2.16-0.293-1.03-0.513-1.71l3.45-1.06q0.697 2.13 1.36 3.63 0.678 1.49 1.38 2.44 0.715 0.935 1.49 1.38 0.77 0.44 1.69 0.44h0.092q0.385 0 0.715 0.147t0.568 0.403q0.257 0.238 0.385 0.568 0.147 0.33 0.147 0.697 0 0.77-0.532 1.28-0.513 0.495-1.28 0.495h-0.018q-0.257 0-0.678-0.0183-0.403-0.0183-0.917-0.147-0.495-0.128-1.03-0.403-0.532-0.275-1.03-0.77z"/><path d="m1134 125q-0.88 0-2.09-0.22-1.19-0.22-2.38-0.55-1.19-0.348-2.18-0.77-0.99-0.422-1.45-0.843l1.5-3.45q0.678 0.44 1.63 0.862 0.953 0.403 2.04 0.715 1.08 0.293 2.22 0.44 1.16 0.147 2.22 0.055 1.06-0.0917 1.98-0.458 0.917-0.367 1.54-1.12 0.495-0.568 0.128-2.13-0.202-0.898-0.66-1.87-0.44-0.99-1.08-1.96-0.623-0.99-1.39-1.93-0.77-0.935-1.61-1.72-0.825-0.807-1.69-1.43-0.862-0.623-1.69-0.99l1.49-3.34q1.08 0.495 2.18 1.28 1.1 0.788 2.13 1.78 1.05 0.99 1.98 2.15 0.953 1.14 1.72 2.37 0.77 1.21 1.34 2.44t0.843 2.4q0.22 1.03 0.22 1.85 0 0.825-0.165 1.47-0.147 0.642-0.403 1.12-0.257 0.477-0.55 0.825-1.69 2.04-4.71 2.7-0.697 0.183-1.47 0.257-0.77 0.0733-1.63 0.0733z"/><path d="m1092 124q0-0.348 0.128-0.66 0.128-0.33 0.367-0.568 0.22-0.257 0.532-0.403t0.66-0.183q1.08 0 1.94-0.422 0.88-0.422 1.54-1.12 0.678-0.715 1.19-1.63t0.88-1.91q0.367-1.01 0.605-2.02 0.257-1.03 0.44-1.93l3.63 0.77q-0.147 0.44-0.367 1.14-0.202 0.697-0.403 1.5-0.202 0.788-0.348 1.63-0.147 0.825-0.147 1.54 0 0.495 0.092 0.972 0.092 0.458 0.312 0.825 0.22 0.367 0.605 0.587 0.385 0.22 0.972 0.22 0.935 0 1.67-0.513 0.752-0.513 1.32-1.34 0.587-0.825 1.01-1.87t0.715-2.13q0.312-1.08 0.513-2.09 0.202-1.03 0.312-1.78l3.52 0.642t-0.11 0.605q-0.092 0.587-0.238 1.45-0.128 0.843-0.238 1.82-0.11 0.953-0.11 1.71 0 0.678 0.092 1.3 0.11 0.605 0.33 1.08 0.238 0.458 0.605 0.77 0.385 0.293 0.935 0.348 0.843 0.11 1.39-0.0183 0.568-0.128 0.898-0.33 0.33-0.22 0.477-0.458 0.165-0.238 0.22-0.348h-0.018q0.257-0.403 0.348-0.917 0.11-0.513 0.11-1.1 0-1.05-0.293-2.26-0.275-1.21-0.678-2.37-0.385-1.17-0.825-2.16-0.422-1.01-0.715-1.6l3.21-1.69q0.092 0.183 0.348 0.715 0.257 0.513 0.587 1.28 0.33 0.752 0.678 1.71 0.367 0.953 0.66 2.02 0.293 1.05 0.477 2.15 0.202 1.1 0.202 2.15 0 1.58-0.44 2.86-0.44 1.27-1.32 2.16-0.88 0.898-2.22 1.39-1.32 0.477-3.1 0.458-0.715 0-1.41-0.22-0.697-0.22-1.34-0.587-0.642-0.385-1.19-0.88-0.55-0.513-0.935-1.1-1.1 1.28-2.49 2.04-1.39 0.752-2.95 0.752-0.678 0-1.41-0.183-0.715-0.165-1.38-0.513-0.66-0.348-1.21-0.862-0.532-0.513-0.825-1.19-1.1 1.16-2.49 1.83-1.39 0.678-3.34 0.715h-0.293q-0.348-0.0183-0.66-0.165-0.312-0.147-0.532-0.385-0.238-0.238-0.367-0.55-0.128-0.33-0.128-0.697z"/><path d="m1075 124q0-0.77 0.513-1.28 0.513-0.532 1.28-0.532h1.39q1.54 0 2.95-0.183 1.41-0.183 2.48-0.678 1.08-0.495 1.71-1.34 0.623-0.862 0.568-2.2-0.037-1.03-0.183-2.13-0.128-1.1-0.532-2.51l3.43-0.972q0.165 0.642 0.312 1.36 0.147 0.697 0.257 1.43t0.183 1.49q0.092 0.733 0.128 1.45 0.037 0.678 0.165 1.43 0.128 0.752 0.458 1.39 0.33 0.642 0.898 1.06 0.587 0.422 1.52 0.422 0.77 0 1.3 0.513 0.532 0.513 0.532 1.28 0 0.385-0.147 0.715-0.147 0.312-0.403 0.568-0.238 0.238-0.568 0.385-0.312 0.128-0.678 0.128-1.85 0-3.06-0.66-1.21-0.678-1.98-1.69-0.66 0.642-1.71 1.1-1.04 0.44-2.31 0.715-1.25 0.275-2.62 0.403-1.38 0.128-2.7 0.128h-1.39q-0.77 0-1.28-0.513-0.513-0.513-0.513-1.28zm9.3-18.2-2.97 2.97-3.01-2.99 2.97-2.99zm7.52 0.0183-2.97 2.99-3.01-3.01 2.97-2.97z"/><path d="m1077 125q-2.02 0-3.47-0.477-1.43-0.477-2.42-1.47-0.605-0.605-0.935-1.3-0.312-0.697-0.477-1.38-0.147-0.678-0.165-1.28-0.018-0.623-0.018-1.06v-0.348q0-0.0183 0.018-0.66 0.018-0.66 0.018-1.76 0.018-1.12 0.018-2.57t-0.018-3.06q0-1.58-0.037-3.28-0.037-1.71-0.11-3.3-0.073-1.6-0.202-2.93-0.128-1.36-0.293-2.22l3.59-0.66q0.165 0.935 0.293 2.29 0.128 1.36 0.202 2.95 0.092 1.6 0.128 3.34 0.037 1.72 0.037 3.37 0.018 1.61 0.018 3.1 0 1.49 0 2.64t-0.018 1.91q0 0.752 0 0.898v0.33q-0.018 0.807 0.055 1.43 0.073 0.605 0.495 1.01 0.825 0.862 3.12 0.88h0.165q0.367 0 0.697 0.147 0.33 0.147 0.568 0.403 0.257 0.238 0.403 0.568 0.147 0.33 0.147 0.697 0 0.77-0.532 1.28-0.532 0.513-1.28 0.513z"/><path d="m1050 138q-4.86 0-7.94-2.75-1.45-1.27-2.35-2.97-0.88-1.71-1.17-3.74-0.183-1.12-0.165-2.26 0.018-1.12 0.147-2.16 0.128-1.05 0.348-1.96 0.22-0.935 0.44-1.67 0.568-1.87 1.23-3.19 0.678-1.34 1.12-1.98l2.92 2.15q-0.238 0.33-0.55 0.953-0.312 0.605-0.642 1.43-0.312 0.807-0.605 1.8t-0.495 2.07q-0.183 1.06-0.238 2.16-0.055 1.1 0.092 2.15 0.073 0.477 0.293 1.12 0.22 0.642 0.623 1.32 0.422 0.678 1.05 1.34 0.642 0.678 1.54 1.21 0.917 0.55 2.11 0.898 1.21 0.367 2.79 0.44 0.092 0 0.073 0-0.018 0.0183-0.055 0.0183t-0.055 0 0.073-0.0183q3.89-0.165 6.27-1.54t3.23-3.92q0.477-1.58 0.495-3.17 0.037-1.6-0.22-3.06-0.238-1.47-0.678-2.73-0.422-1.28-0.843-2.22-0.422-0.953-0.733-1.49-0.312-0.55-0.33-0.55l3.04-1.94q0.055 0.0917 0.458 0.77 0.403 0.678 0.917 1.83 0.513 1.14 1.03 2.68 0.513 1.52 0.788 3.3 0.275 1.78 0.202 3.74-0.055 1.96-0.697 3.94-0.532 1.72-1.58 3.1-1.05 1.39-2.59 2.4-1.67 1.16-3.81 1.76-2.15 0.605-4.8 0.733-0.183 0-0.367 0-0.183 0.0183-0.348 0.0183zm4.42-24.4-2.99 2.99-3.01-3.01 2.99-2.99z"/></g></svg>
