<?xml version="1.0" encoding="UTF-8" standalone="no"?>
<svg
   xmlns:dc="http://purl.org/dc/elements/1.1/"
   xmlns:cc="http://creativecommons.org/ns#"
   xmlns:rdf="http://www.w3.org/1999/02/22-rdf-syntax-ns#"
   xmlns:svg="http://www.w3.org/2000/svg"
   xmlns="http://www.w3.org/2000/svg"
   xmlns:xlink="http://www.w3.org/1999/xlink"
   xmlns:sodipodi="http://sodipodi.sourceforge.net/DTD/sodipodi-0.dtd"
   xmlns:inkscape="http://www.inkscape.org/namespaces/inkscape"
   width="1080"
   height="1080"
   version="1.1"
   id="svg35614"
   sodipodi:docname="method-draw-image (66).svg"
   inkscape:version="1.0 (4035a4f, 2020-05-01)">
  <metadata
     id="metadata35620">
    <rdf:RDF>
      <cc:Work
         rdf:about="">
        <dc:format>image/svg+xml</dc:format>
        <dc:type
           rdf:resource="http://purl.org/dc/dcmitype/StillImage" />
      </cc:Work>
    </rdf:RDF>
  </metadata>
  <defs
     id="defs35618">
    <linearGradient
       inkscape:collect="always"
       id="linearGradient36187">
      <stop
         style="stop-color:#ccffaa;stop-opacity:1"
         offset="0"
         id="stop36183" />
      <stop
         id="stop36199"
         offset="0.33078182"
         style="stop-color:#80c904;stop-opacity:1" />
      <stop
         id="stop36195"
         offset="0.52132744"
         style="stop-color:#80c904;stop-opacity:1" />
      <stop
         style="stop-color:#80c904;stop-opacity:1"
         offset="1"
         id="stop36185" />
    </linearGradient>
    <linearGradient
       inkscape:collect="always"
       xlink:href="#linearGradient36187"
       id="linearGradient36189"
       x1="5210.3813"
       y1="5735.1392"
       x2="5475.5562"
       y2="5880.5244"
       gradientUnits="userSpaceOnUse" />
  </defs>
  <sodipodi:namedview
     inkscape:document-rotation="0"
     pagecolor="#ffffff"
     bordercolor="#666666"
     borderopacity="1"
     objecttolerance="10"
     gridtolerance="10"
     guidetolerance="10"
     inkscape:pageopacity="0"
     inkscape:pageshadow="2"
     inkscape:window-width="1366"
     inkscape:window-height="768"
     id="namedview35616"
     showgrid="false"
     inkscape:zoom="0.37840818"
     inkscape:cx="338.59326"
     inkscape:cy="677.56528"
     inkscape:window-x="0"
     inkscape:window-y="0"
     inkscape:window-maximized="0"
     inkscape:current-layer="g35612" />
  <g
     id="g35480">
    <title
       id="title35477">background</title>
    <rect
       x="-1"
       y="-1"
       width="1082"
       height="1082"
       id="canvas_background"
       fill="none" />
  </g>
  <g
     id="g35612">
    <title
       id="title35482">Layer 1</title>
    <g
       stroke="null"
       id="svg_278">
      <g
         stroke="null"
         id="svg_267"
         transform="matrix(2.089394580659915,0,0,2.089394580659915,-10655.25684434593,-11442.69698142557) ">
        <path
           stroke="null"
           d="m5548.236469,5735.139228c0,66.513 -1.99,133.672 -5.933,200.587c-1.566,26.58 -22.549,47.865 -49.085,50.06c-86.163,7.129 -172.746,7.139 -258.737,0.018c-26.532,-2.197 -47.511,-23.482 -49.077,-50.058c-3.937,-66.814 -5.928,-134.087 -5.928,-200.607s1.991,-133.793 5.928,-200.608c1.566,-26.576 22.546,-47.861 49.077,-50.058c85.991,-7.121 172.573,-7.111 258.737,0.018c26.535,2.195 47.518,23.481 49.085,50.06c3.942,66.916 5.933,134.075 5.933,200.588z"
           fill="#617881"
           id="svg_268" />
        <path
           stroke="null"
           d="m5209.681469,5528.475228c-3.4,68.837 -5.12,138.137 -5.12,206.664s1.72,137.828 5.12,206.664c0.917,18.533 9.529,34.583 22.108,43.711c-25.25,-3.369 -44.864,-24.096 -46.379,-49.768c-3.946,-66.817 -5.934,-134.088 -5.934,-200.607s1.988,-133.79 5.934,-200.607c1.514,-25.672 21.129,-46.399 46.379,-49.768c-12.579,9.127 -21.191,25.177 -22.108,43.711z"
           fill="#404a4a"
           id="svg_269" />
        <path
           stroke="null"
           d="m5517.333469,5735.139228c0,57.123 -1.978,115.298 -5.882,172.885c-0.649,9.642 -9.591,17.533 -20.779,18.337c-42.093,3.029 -84.825,4.564 -127.021,4.564c-42.114,0 -84.722,-1.535 -126.619,-4.554c-11.188,-0.803 -20.119,-8.684 -20.779,-18.327c-3.894,-57.535 -5.872,-115.71 -5.872,-172.905s1.978,-115.37 5.872,-172.906c0.659,-9.642 9.591,-17.523 20.779,-18.327c7.314,-0.526 14.639,-1.01 21.994,-1.442c34.758,-2.06 69.857,-3.111 104.625,-3.111c34.872,0 70.104,1.051 105.037,3.121c7.345,0.433 14.68,0.917 21.984,1.442c11.188,0.804 20.13,8.695 20.779,18.337c3.904,57.588 5.882,115.762 5.882,172.886z"
           fill="#f4e8d7"
           id="svg_270"
           style="fill-opacity:1;fill:url(#linearGradient36189)" />
        <path
           stroke="null"
           d="m5411.179469,5518.448228l-94.646,0c-4.267,0 -7.726,-3.459 -7.726,-7.726s3.459,-7.726 7.726,-7.726l94.646,0c4.267,0 7.726,3.459 7.726,7.726s-3.459,7.726 -7.726,7.726z"
           fill="#404a4a"
           id="svg_272" />
        <path
           stroke="null"
           d="m5435.886469,5518.450228c-7.004,0 -10.361,-9.008 -5.044,-13.579c2.711,-2.331 6.765,-2.48 9.642,-0.358c2.397,1.768 3.58,4.882 2.961,7.795c-0.749,3.523 -3.944,6.142 -7.559,6.142z"
           fill="#404a4a"
           id="svg_273" />
      </g>
    </g>
    <!-- Created with Method Draw - http://github.com/duopixel/Method-Draw/ -->
    <!-- Created with Method Draw - http://github.com/duopixel/Method-Draw/ -->
    <!-- Created with Method Draw - http://github.com/duopixel/Method-Draw/ -->
    <g
       stroke="null"
       id="svg_176">
      <g
         stroke="null"
         transform="matrix(-1.7518941751031574,0,0,1.7171640621817426,6819.250013570008,-7103.729627270304) "
         id="svg_174">
        <title
           stroke="null"
           transform="translate(0,1.1647111177444458) translate(0,1.1647111177444458) translate(0,1.1647111177444458) translate(0,1.1647111177444458) translate(0,1.1647111177444458) translate(0,1.1647111177444458) translate(0,1.1647111177444458) translate(0,1.1647111177444458) translate(0,1.1647111177444458) translate(-4.547473508864641e-13,-1.2689958810806274) translate(-4.547473508864641e-13,1.2689958810806274) translate(-4.547473508864641e-13,-1.2689958810806274) translate(-4.547473508864641e-13,-1.2689958810806274) translate(-4.547473508864641e-13,-1.2689958810806274) translate(-4.547473508864641e-13,-1.2689958810806274) translate(-4.547473508864641e-13,-1.2689958810806274) translate(-4.547473508864641e-13,-1.2689958810806274) translate(-4.547473508864641e-13,-1.2689958810806274) translate(-4.547473508864641e-13,-1.2689958810806274) translate(-4.547473508864641e-13,-1.2689958810806274) translate(-4.547473508864641e-13,-1.2689958810806274) translate(-4.547473508864641e-13,-1.2689958810806274) translate(-4.547473508864641e-13,-1.2689958810806274) translate(-4.547473508864641e-13,-1.2689958810806274) translate(-4.547473508864641e-13,-1.2689958810806274) translate(-4.547473508864641e-13,-1.2689958810806274) translate(-4.547473508864641e-13,1.2689958810806274) translate(-4.547473508864641e-13,1.2689958810806274) translate(-4.547473508864641e-13,1.2689958810806274) translate(-4.547473508864641e-13,1.2689958810806274) translate(-4.547473508864641e-13,1.2689958810806274) translate(-4.547473508864641e-13,1.2689958810806274) translate(-4.547473508864641e-13,1.2689958810806274) translate(-4.547473508864641e-13,1.2689958810806274) translate(-4.547473508864641e-13,1.2689958810806274) translate(-4.547473508864641e-13,1.2689958810806274) translate(-4.547473508864641e-13,1.2689958810806274) translate(-4.547473508864641e-13,1.2689958810806274) translate(-4.547473508864641e-13,1.2689958810806274) translate(-4.547473508864641e-13,1.2689958810806274) translate(-4.547473508864641e-13,1.2689958810806274) translate(-4.547473508864641e-13,1.2689958810806274) translate(-4.547473508864641e-13,1.2689958810806274) translate(-4.547473508864641e-13,1.2689958810806274) translate(-4.547473508864641e-13,1.2689958810806274) translate(-4.547473508864641e-13,1.2689958810806274) translate(-4.547473508864641e-13,1.2689958810806274) translate(-4.547473508864641e-13,1.2689958810806274) translate(-4.547473508864641e-13,1.2689958810806274) translate(-4.547473508864641e-13,1.2689958810806274) translate(-4.547473508864641e-13,1.2689958810806274) translate(-4.547473508864641e-13,1.2689958810806274) translate(-4.547473508864641e-13,1.2689958810806274) translate(-4.547473508864641e-13,1.2689958810806274) translate(-4.547473508864641e-13,1.2689958810806274) translate(-4.547473508864641e-13,1.2689958810806274) translate(-4.547473508864641e-13,1.2689958810806274) translate(-4.547473508864641e-13,1.2689958810806274) "
           id="title35491">background</title>
        <rect
           stroke="null"
           fill="none"
           id="svg_172"
           height="514"
           width="514"
           y="4239.853792"
           x="3243.925017" />
      </g>
      <g
         stroke="null"
         transform="matrix(-1.7518941751031574,0,0,1.7171640621817426,6819.250013570008,-7103.729627270304) "
         id="svg_175">
        <title
           stroke="null"
           transform="translate(0,1.1647111177444458) translate(0,1.1647111177444458) translate(0,1.1647111177444458) translate(0,1.1647111177444458) translate(0,1.1647111177444458) translate(0,1.1647111177444458) translate(0,1.1647111177444458) translate(0,1.1647111177444458) translate(0,1.1647111177444458) translate(-4.547473508864641e-13,-1.2689958810806274) translate(-4.547473508864641e-13,1.2689958810806274) translate(-4.547473508864641e-13,-1.2689958810806274) translate(-4.547473508864641e-13,-1.2689958810806274) translate(-4.547473508864641e-13,-1.2689958810806274) translate(-4.547473508864641e-13,-1.2689958810806274) translate(-4.547473508864641e-13,-1.2689958810806274) translate(-4.547473508864641e-13,-1.2689958810806274) translate(-4.547473508864641e-13,-1.2689958810806274) translate(-4.547473508864641e-13,-1.2689958810806274) translate(-4.547473508864641e-13,-1.2689958810806274) translate(-4.547473508864641e-13,-1.2689958810806274) translate(-4.547473508864641e-13,-1.2689958810806274) translate(-4.547473508864641e-13,-1.2689958810806274) translate(-4.547473508864641e-13,-1.2689958810806274) translate(-4.547473508864641e-13,-1.2689958810806274) translate(-4.547473508864641e-13,-1.2689958810806274) translate(-4.547473508864641e-13,1.2689958810806274) translate(-4.547473508864641e-13,1.2689958810806274) translate(-4.547473508864641e-13,1.2689958810806274) translate(-4.547473508864641e-13,1.2689958810806274) translate(-4.547473508864641e-13,1.2689958810806274) translate(-4.547473508864641e-13,1.2689958810806274) translate(-4.547473508864641e-13,1.2689958810806274) translate(-4.547473508864641e-13,1.2689958810806274) translate(-4.547473508864641e-13,1.2689958810806274) translate(-4.547473508864641e-13,1.2689958810806274) translate(-4.547473508864641e-13,1.2689958810806274) translate(-4.547473508864641e-13,1.2689958810806274) translate(-4.547473508864641e-13,1.2689958810806274) translate(-4.547473508864641e-13,1.2689958810806274) translate(-4.547473508864641e-13,1.2689958810806274) translate(-4.547473508864641e-13,1.2689958810806274) translate(-4.547473508864641e-13,1.2689958810806274) translate(-4.547473508864641e-13,1.2689958810806274) translate(-4.547473508864641e-13,1.2689958810806274) translate(-4.547473508864641e-13,1.2689958810806274) translate(-4.547473508864641e-13,1.2689958810806274) translate(-4.547473508864641e-13,1.2689958810806274) translate(-4.547473508864641e-13,1.2689958810806274) translate(-4.547473508864641e-13,1.2689958810806274) translate(-4.547473508864641e-13,1.2689958810806274) translate(-4.547473508864641e-13,1.2689958810806274) translate(-4.547473508864641e-13,1.2689958810806274) translate(-4.547473508864641e-13,1.2689958810806274) translate(-4.547473508864641e-13,1.2689958810806274) translate(-4.547473508864641e-13,1.2689958810806274) translate(-4.547473508864641e-13,1.2689958810806274) translate(-4.547473508864641e-13,1.2689958810806274) "
           id="title35495">Layer 1</title>
        <g
           stroke="null"
           id="svg_135">
          <path
             stroke="null"
             id="svg_165"
             fill="#ffa000"
             d="m3629.54105,4504.02799l-85.7453,-24.1157l0,-121.01526l-192.40616,0l0,248.31579l155.15913,0l0,6.20784c0,10.28526 8.33826,18.62352 18.62351,18.62352l117.94968,0l0,-110.08803c0.00076,-8.34352 -5.54856,-15.66919 -13.58086,-17.92816z" />
          <path
             stroke="null"
             id="svg_164"
             fill="#ffa000"
             d="m3543.7965,4526.51092l0,31.00011c0,10.28525 -8.33826,18.62351 -18.62351,18.62351l-18.62352,0l0,12.41568l37.24703,0l0,43.45637l0,0.03834l99.32617,0l0,-99.32617c0,-10.28525 -8.33826,-18.62351 -18.62352,-18.62351l-68.28697,0c-6.85734,-0.00075 -12.41568,5.55759 -12.41568,12.41568l0,-0.00001z" />
          <path
             stroke="null"
             id="svg_163"
             fill="#464655"
             d="m3506.51038,4600.96665c0,-65.12066 -52.79068,-117.91135 -117.91134,-117.91135c-13.01632,0 -25.50115,2.19132 -37.2087,6.08681l0,118.07147l154.80506,0c0.109,-2.08306 0.31498,-4.13831 0.31498,-6.24693z" />
          <path
             stroke="null"
             id="svg_162"
             fill="#ffa000"
             d="m3612.08272,4545.13369c-28.80653,0 -54.04457,15.12268 -68.30802,37.8424c-2.22288,3.53993 -6.17251,5.61247 -10.35291,5.61247l-26.87382,0l0,24.83135c0,10.28526 8.33826,18.62352 18.62351,18.62352l117.94969,0l0,-80.7019c-9.55532,-3.98872 -20.03603,-6.20784 -31.03845,-6.20784z" />
          <path
             stroke="null"
             id="svg_161"
             fill="#00D7FF"
             d="m3404.2111,4429.49635l7.71356,1.9282c3.91805,0.97951 7.71357,-1.98383 7.71357,-6.02216l0,-35.50451c0,-3.42866 -2.77917,-6.20783 -6.20784,-6.20783l-12.41568,0c-3.42867,0 -6.20783,2.77917 -6.20783,6.20783l0,27.5534c0,5.6974 3.87745,10.66338 9.40422,12.04507z" />
          <circle
             stroke="null"
             transform="matrix(0.7517363106755699,0,0,0.7517363106755699,-1472.8285429763157,-1739.5152479270237) "
             id="svg_160"
             fill="#464655"
             r="74.269997"
             cy="8434.453431"
             cx="6466.930964" />
          <circle
             stroke="null"
             transform="matrix(0.7517363106755699,0,0,0.7517363106755699,-1472.8285429763157,-1739.5152479270237) "
             id="svg_159"
             fill="#ffdc64"
             r="49.5"
             cy="8434.453431"
             cx="6466.930964" />
          <circle
             stroke="null"
             transform="matrix(0.7517363106755699,0,0,0.7517363106755699,-1472.8285429763157,-1739.5152479270237) "
             id="svg_158"
             fill="#ffc850"
             r="16.465"
             cy="8434.453431"
             cx="6466.930964" />
          <path
             stroke="null"
             id="svg_157"
             fill="#ffa000"
             d="m3392.43064,4476.9046c-3.27983,-0.10449 -6.5341,-0.03533 -9.76731,0.14959c-3.53091,0.20222 -6.47997,-2.64686 -6.47997,-6.18303l0,-93.3897c0,-6.85734 5.55909,-12.41568 12.41568,-12.41568l161.4053,0c3.43167,0 6.20784,-2.77992 6.20784,-6.20784s-2.77692,-6.20784 -6.20784,-6.20784l-192.4445,0c-13.71392,0 -24.83135,11.11743 -24.83135,24.83136l0,112.61987c-10.48597,5.30801 -20.2841,12.11122 -29.08092,20.37431c-2.49802,2.34918 -2.62506,6.27775 -0.27288,8.77502c2.34617,2.50102 6.27474,2.62205 8.77201,0.27588c21.69737,-20.37581 49.99047,-31.07001 79.90807,-30.21228c59.69011,1.80041 108.25003,53.17633 108.25003,114.52778l0,9.57863c0,13.71392 11.11742,24.83135 24.83135,24.83135l31.07603,0l0,-12.41568l-31.07603,0c-6.85734,0 -12.41568,-5.55909 -12.41568,-12.41567l0,-0.03909l43.49171,0l0,-12.41568l-43.63379,0c-1.50873,-66.70607 -54.76474,-122.0925 -120.14775,-124.0613z" />
          <circle
             stroke="null"
             transform="matrix(0.7517363106755699,0,0,0.7517363106755699,-1472.8285429763157,-1739.5152479270237) "
             id="svg_156"
             fill="#464655"
             r="49.5"
             cy="8467.483431"
             cx="6764.220964" />
          <circle
             stroke="null"
             transform="matrix(0.7517363106755699,0,0,0.7517363106755699,-1472.8285429763157,-1739.5152479270237) "
             id="svg_155"
             fill="#FFDC64"
             r="24.723"
             cy="8467.483431"
             cx="6764.220964" />
          <path
             stroke="null"
             id="svg_154"
             fill="#00D7FF"
             d="m3458.0512,4455.79659l85.74455,24.1157l0,-96.22224l-93.11758,0c-3.42867,0 -6.20784,2.77917 -6.20784,6.20783l0,47.97055c0,8.34428 5.54932,15.6692 13.58087,17.92816z" />
          <g
             stroke="null"
             transform="matrix(0.7517363106755699,0,0,0.7517363106755699,-1472.8285429763157,-1739.5152479270237) "
             id="svg_151">
            <path
               stroke="null"
               id="svg_153"
               fill="#00C3FF"
               d="m6541.25495,8153.675422l0,16.567l132.129,0l0,-24.775l-124.124,0c-4.43699,0.141 -8.005,3.736 -8.005,8.208z" />
            <path
               stroke="null"
               id="svg_152"
               fill="#00C3FF"
               d="m6475.18995,8153.675422l0,16.567l33.032,0l0,-16.517c0,-4.561 -3.697,-8.258 -8.25799,-8.258l-16.769,0c-4.436,0.141 -8.005,3.736 -8.005,8.208l-0.00001,0z" />
          </g>
          <g
             stroke="null"
             transform="matrix(0.7517363106755699,0,0,0.7517363106755699,-1472.8285429763157,-1739.5152479270237) "
             id="svg_150" />
          <g
             stroke="null"
             transform="matrix(0.7517363106755699,0,0,0.7517363106755699,-1472.8285429763157,-1739.5152479270237) "
             id="svg_149" />
          <g
             stroke="null"
             transform="matrix(0.7517363106755699,0,0,0.7517363106755699,-1472.8285429763157,-1739.5152479270237) "
             id="svg_148" />
          <g
             stroke="null"
             transform="matrix(0.7517363106755699,0,0,0.7517363106755699,-1472.8285429763157,-1739.5152479270237) "
             id="svg_147" />
          <g
             stroke="null"
             transform="matrix(0.7517363106755699,0,0,0.7517363106755699,-1472.8285429763157,-1739.5152479270237) "
             id="svg_146" />
          <g
             stroke="null"
             transform="matrix(0.7517363106755699,0,0,0.7517363106755699,-1472.8285429763157,-1739.5152479270237) "
             id="svg_145" />
          <g
             stroke="null"
             transform="matrix(0.7517363106755699,0,0,0.7517363106755699,-1472.8285429763157,-1739.5152479270237) "
             id="svg_144" />
          <g
             stroke="null"
             transform="matrix(0.7517363106755699,0,0,0.7517363106755699,-1472.8285429763157,-1739.5152479270237) "
             id="svg_143" />
          <g
             stroke="null"
             transform="matrix(0.7517363106755699,0,0,0.7517363106755699,-1472.8285429763157,-1739.5152479270237) "
             id="svg_142" />
          <g
             stroke="null"
             transform="matrix(0.7517363106755699,0,0,0.7517363106755699,-1472.8285429763157,-1739.5152479270237) "
             id="svg_141" />
          <g
             stroke="null"
             transform="matrix(0.7517363106755699,0,0,0.7517363106755699,-1472.8285429763157,-1739.5152479270237) "
             id="svg_140" />
          <g
             stroke="null"
             transform="matrix(0.7517363106755699,0,0,0.7517363106755699,-1472.8285429763157,-1739.5152479270237) "
             id="svg_139" />
          <g
             stroke="null"
             transform="matrix(0.7517363106755699,0,0,0.7517363106755699,-1472.8285429763157,-1739.5152479270237) "
             id="svg_138" />
          <g
             stroke="null"
             transform="matrix(0.7517363106755699,0,0,0.7517363106755699,-1472.8285429763157,-1739.5152479270237) "
             id="svg_137" />
          <g
             stroke="null"
             transform="matrix(0.7517363106755699,0,0,0.7517363106755699,-1472.8285429763157,-1739.5152479270237) "
             id="svg_136" />
        </g>
        <g
           stroke="null"
           id="svg_131">
          <g
             stroke="null"
             id="svg_132"
             transform="matrix(1.0976361575147087,0,0,1.0976361575147087,-56.26266194090215,-125.80340095676513) ">
            <g
               stroke="null"
               id="svg_133">
              <path
                 stroke="null"
                 d="m3226.27827,4305.755188c0,-2.472 -0.108,-4.919 -0.309,-7.339l8.24,-1.453l-2.778,-15.757l-8.235,1.449a87.277,87.277 0 0 0 -5.032,-13.787l7.253,-4.188l-8,-13.856l-7.272,4.2a88.792,88.792 0 0 0 -9.436,-11.226l5.405,-6.441l-12.256,-10.285l-5.4,6.435a88.092,88.092 0 0 0 -12.693,-7.352l2.865,-7.87l-15.036,-5.477l-2.859,7.855a87.471,87.471 0 0 0 -14.457,-2.541l0,-8.367l-16,0l0,8.367a87.483,87.483 0 0 0 -14.458,2.541l-2.858,-7.854l-15.036,5.471l2.865,7.875a88.053,88.053 0 0 0 -12.693,7.352l-5.4,-6.435l-12.256,10.283l5.405,6.441a88.792,88.792 0 0 0 -9.436,11.229l-7.272,-4.2l-8,13.856l7.253,4.188a87.277,87.277 0 0 0 -5.032,13.786l-8.234,-1.449l-2.779,15.757l8.24,1.453c-0.201,2.42 -0.309,4.867 -0.309,7.339s0.108,4.919 0.309,7.339l-8.24,1.453l2.779,15.757l8.234,-1.452a87.277,87.277 0 0 0 5.032,13.787l-7.253,4.188l8,13.856l7.272,-4.2a88.792,88.792 0 0 0 9.436,11.226l-5.405,6.446l12.257,10.286l5.4,-6.435a88.053,88.053 0 0 0 12.692,7.349l-2.865,7.871l15.036,5.471l2.858,-7.854a87.483,87.483 0 0 0 14.458,2.545l0,8.367l16,0l0,-8.367a87.471,87.471 0 0 0 14.457,-2.541l2.859,7.855l15.036,-5.473l-2.865,-7.87a88.092,88.092 0 0 0 12.693,-7.356l5.4,6.435l12.256,-10.283l-5.405,-6.441a88.792,88.792 0 0 0 9.436,-11.226l7.272,4.2l8,-13.856l-7.253,-4.188a87.277,87.277 0 0 0 5.032,-13.787l8.235,1.452l2.778,-15.757l-8.24,-1.453c0.201,-2.425 0.309,-4.872 0.309,-7.344zm-88,48a48,48 0 1 1 48,-48a48.055,48.055 0 0 1 -48,48z"
                 id="svg_134"
                 fill="#5b5d6e" />
            </g>
          </g>
        </g>
        <g
           stroke="null"
           id="svg_127">
          <g
             stroke="null"
             id="svg_128"
             transform="matrix(0.74668947363068,0,0,0.74668947363068,1.6764125055974546,64.41837732646377) ">
            <g
               stroke="null"
               id="svg_129">
              <path
                 stroke="null"
                 d="m4922.78372,6109.135064c0,-2.472 -0.108,-4.919 -0.309,-7.339l8.24,-1.453l-2.778,-15.757l-8.235,1.449a87.277,87.277 0 0 0 -5.032,-13.787l7.253,-4.188l-8,-13.856l-7.272,4.2a88.792,88.792 0 0 0 -9.436,-11.226l5.405,-6.441l-12.256,-10.285l-5.4,6.435a88.092,88.092 0 0 0 -12.693,-7.352l2.865,-7.87l-15.036,-5.477l-2.859,7.855a87.471,87.471 0 0 0 -14.457,-2.541l0,-8.367l-16,0l0,8.367a87.483,87.483 0 0 0 -14.458,2.541l-2.858,-7.854l-15.036,5.471l2.865,7.875a88.053,88.053 0 0 0 -12.693,7.352l-5.4,-6.435l-12.256,10.283l5.405,6.441a88.792,88.792 0 0 0 -9.436,11.229l-7.272,-4.2l-8,13.856l7.253,4.188a87.277,87.277 0 0 0 -5.032,13.786l-8.234,-1.449l-2.779,15.757l8.24,1.453c-0.201,2.42 -0.309,4.867 -0.309,7.339s0.108,4.919 0.309,7.339l-8.24,1.453l2.779,15.757l8.234,-1.452a87.277,87.277 0 0 0 5.032,13.787l-7.253,4.188l8,13.856l7.272,-4.2a88.792,88.792 0 0 0 9.436,11.226l-5.405,6.446l12.257,10.286l5.4,-6.435a88.053,88.053 0 0 0 12.692,7.349l-2.865,7.871l15.036,5.471l2.858,-7.854a87.483,87.483 0 0 0 14.458,2.545l0,8.367l16,0l0,-8.367a87.471,87.471 0 0 0 14.457,-2.541l2.859,7.855l15.036,-5.473l-2.865,-7.87a88.092,88.092 0 0 0 12.693,-7.356l5.4,6.435l12.256,-10.283l-5.405,-6.441a88.792,88.792 0 0 0 9.436,-11.226l7.272,4.2l8,-13.856l-7.253,-4.188a87.277,87.277 0 0 0 5.032,-13.787l8.235,1.452l2.778,-15.757l-8.24,-1.453c0.201,-2.425 0.309,-4.872 0.309,-7.344zm-88,48a48,48 0 1 1 48,-48a48.055,48.055 0 0 1 -48,48z"
                 id="svg_130"
                 fill="#5b5d6e" />
            </g>
          </g>
        </g>
        <g
           stroke="null"
           id="svg_108">
          <path
             stroke="null"
             d="m3744.68709,4314.79864c-16.18832,-31.52878 -48.71146,-53.8561 -86.86011,-53.85756l0,49.31889c27.00227,0.00195 48.96066,21.25508 48.96115,48.25832c0.00048,26.67471 -22.14091,49.66884 -48.96115,49.67079l0,101.95283c34.38436,-35.8309 73.95862,-75.21874 91.27418,-122.37513c8.65778,-23.58209 7.04284,-50.65396 -4.41407,-72.96814z"
             fill="#617881"
             id="svg_126" />
          <path
             stroke="null"
             d="m3566.57275,4387.76678c17.31459,47.15639 56.88885,86.54423 91.2737,122.37512l0,-101.95282c-26.82024,-0.00195 -48.96163,-22.99608 -48.96115,-49.67079c0.00048,-27.00275 21.95887,-48.25638 48.96115,-48.25832l0,-49.31889c-38.14866,0.00146 -70.6718,22.32878 -86.86012,53.85756c-11.45691,22.31417 -13.07185,49.38605 -4.41358,72.96814z"
             fill="#404a4a"
             id="svg_125" />
          <circle
             stroke="null"
             cx="10125.827108"
             cy="11801.967096"
             r="160"
             fill="#F0F0F0"
             id="svg_124"
             transform="matrix(0.4867203576139232,0,0,0.4867203576139232,-1270.6094816696466,-1386.5696960535727) " />
          <g
             stroke="null"
             id="svg_123"
             transform="matrix(0.4867203576139232,0,0,0.4867203576139232,-1270.6094816696466,-1386.5696960535727) " />
          <g
             stroke="null"
             id="svg_122"
             transform="matrix(0.4867203576139232,0,0,0.4867203576139232,-1270.6094816696466,-1386.5696960535727) " />
          <g
             stroke="null"
             id="svg_121"
             transform="matrix(0.4867203576139232,0,0,0.4867203576139232,-1270.6094816696466,-1386.5696960535727) " />
          <g
             stroke="null"
             id="svg_120"
             transform="matrix(0.4867203576139232,0,0,0.4867203576139232,-1270.6094816696466,-1386.5696960535727) " />
          <g
             stroke="null"
             id="svg_119"
             transform="matrix(0.4867203576139232,0,0,0.4867203576139232,-1270.6094816696466,-1386.5696960535727) " />
          <g
             stroke="null"
             id="svg_118"
             transform="matrix(0.4867203576139232,0,0,0.4867203576139232,-1270.6094816696466,-1386.5696960535727) " />
          <g
             stroke="null"
             id="svg_117"
             transform="matrix(0.4867203576139232,0,0,0.4867203576139232,-1270.6094816696466,-1386.5696960535727) " />
          <g
             stroke="null"
             id="svg_116"
             transform="matrix(0.4867203576139232,0,0,0.4867203576139232,-1270.6094816696466,-1386.5696960535727) " />
          <g
             stroke="null"
             id="svg_115"
             transform="matrix(0.4867203576139232,0,0,0.4867203576139232,-1270.6094816696466,-1386.5696960535727) " />
          <g
             stroke="null"
             id="svg_114"
             transform="matrix(0.4867203576139232,0,0,0.4867203576139232,-1270.6094816696466,-1386.5696960535727) " />
          <g
             stroke="null"
             id="svg_113"
             transform="matrix(0.4867203576139232,0,0,0.4867203576139232,-1270.6094816696466,-1386.5696960535727) " />
          <g
             stroke="null"
             id="svg_112"
             transform="matrix(0.4867203576139232,0,0,0.4867203576139232,-1270.6094816696466,-1386.5696960535727) " />
          <g
             stroke="null"
             id="svg_111"
             transform="matrix(0.4867203576139232,0,0,0.4867203576139232,-1270.6094816696466,-1386.5696960535727) " />
          <g
             stroke="null"
             id="svg_110"
             transform="matrix(0.4867203576139232,0,0,0.4867203576139232,-1270.6094816696466,-1386.5696960535727) " />
          <g
             stroke="null"
             id="svg_109"
             transform="matrix(0.4867203576139232,0,0,0.4867203576139232,-1270.6094816696466,-1386.5696960535727) " />
        </g>
        <g
           stroke="null"
           id="svg_88">
          <circle
             stroke="null"
             cx="15518.641465"
             cy="17713.865367"
             r="256"
             fill="#F0F0F0"
             id="svg_107"
             transform="matrix(0.2859549007976901,0,0,0.2859549007976901,-779.2065066138539,-707.2627859068286) " />
          <path
             stroke="null"
             d="m3682.20137,4339.0069l-9.57777,0c0.07921,1.0526 0.1241,2.11464 0.1241,3.18268c0,7.08139 -1.77006,13.94516 -4.8558,18.83099c-0.95194,1.50698 -2.55158,3.63505 -4.69281,5.07055l0,-27.08451l-9.54832,0l0,27.08451c-2.14094,-1.4355 -3.74086,-3.56329 -4.6928,-5.07055c-3.08603,-4.88583 -4.8558,-11.7496 -4.8558,-18.83099c0,-1.06804 0.04518,-2.13037 0.1241,-3.18268l-9.57777,0c-0.06148,1.04745 -0.09494,2.10834 -0.09494,3.18268c0,19.63252 10.4854,35.01089 23.87094,35.01089s23.87095,-15.37837 23.87095,-35.01089c0.00057,-1.07433 -0.03289,-2.13523 -0.09408,-3.18268z"
             fill="#D80027"
             id="svg_106" />
          <path
             stroke="null"
             d="m3615.45721,4319.91026l9.54832,0l0,6.36564l9.54832,0l0,-6.36564l9.54832,0l0,6.36564l9.54832,0l0,-6.36564l9.54832,0l0,6.36564l9.54832,0l0,-6.36564l9.54832,0l0,6.36564l9.54832,0l0,-6.36564l9.54832,0l0,6.36564l22.97276,0c-11.83997,-24.4866 -36.91735,-41.37653 -65.93977,-41.37653s-54.09981,16.88993 -65.94063,41.37653l22.97276,0l0,-6.36564z"
             fill="#6DA544"
             id="svg_105" />
          <path
             stroke="null"
             d="m3701.39295,4389.93175l0,6.36564l-9.54832,0l0,-6.36564l-9.54832,0l0,6.36564l-9.54832,0l0,-6.36564l-9.54832,0l0,6.36564l-9.54832,0l0,-6.36564l-9.54832,0l0,6.36564l-9.54832,0l0,-6.36564l-9.54918,0l0,6.36564l-9.54832,0l0,-6.36564l-22.97276,0c11.84082,24.4866 36.91792,41.37653 65.94063,41.37653s54.09981,-16.88993 65.94063,-41.37653l-22.97276,0z"
             fill="#D80027"
             id="svg_104" />
          <g
             stroke="null"
             id="svg_103"
             transform="matrix(0.2859549007976901,0,0,0.2859549007976901,-779.2065066138539,-707.2627859068286) " />
          <g
             stroke="null"
             id="svg_102"
             transform="matrix(0.2859549007976901,0,0,0.2859549007976901,-779.2065066138539,-707.2627859068286) " />
          <g
             stroke="null"
             id="svg_101"
             transform="matrix(0.2859549007976901,0,0,0.2859549007976901,-779.2065066138539,-707.2627859068286) " />
          <g
             stroke="null"
             id="svg_100"
             transform="matrix(0.2859549007976901,0,0,0.2859549007976901,-779.2065066138539,-707.2627859068286) " />
          <g
             stroke="null"
             id="svg_99"
             transform="matrix(0.2859549007976901,0,0,0.2859549007976901,-779.2065066138539,-707.2627859068286) " />
          <g
             stroke="null"
             id="svg_98"
             transform="matrix(0.2859549007976901,0,0,0.2859549007976901,-779.2065066138539,-707.2627859068286) " />
          <g
             stroke="null"
             id="svg_97"
             transform="matrix(0.2859549007976901,0,0,0.2859549007976901,-779.2065066138539,-707.2627859068286) " />
          <g
             stroke="null"
             id="svg_96"
             transform="matrix(0.2859549007976901,0,0,0.2859549007976901,-779.2065066138539,-707.2627859068286) " />
          <g
             stroke="null"
             id="svg_95"
             transform="matrix(0.2859549007976901,0,0,0.2859549007976901,-779.2065066138539,-707.2627859068286) " />
          <g
             stroke="null"
             id="svg_94"
             transform="matrix(0.2859549007976901,0,0,0.2859549007976901,-779.2065066138539,-707.2627859068286) " />
          <g
             stroke="null"
             id="svg_93"
             transform="matrix(0.2859549007976901,0,0,0.2859549007976901,-779.2065066138539,-707.2627859068286) " />
          <g
             stroke="null"
             id="svg_92"
             transform="matrix(0.2859549007976901,0,0,0.2859549007976901,-779.2065066138539,-707.2627859068286) " />
          <g
             stroke="null"
             id="svg_91"
             transform="matrix(0.2859549007976901,0,0,0.2859549007976901,-779.2065066138539,-707.2627859068286) " />
          <g
             stroke="null"
             id="svg_90"
             transform="matrix(0.2859549007976901,0,0,0.2859549007976901,-779.2065066138539,-707.2627859068286) " />
          <g
             stroke="null"
             id="svg_89"
             transform="matrix(0.2859549007976901,0,0,0.2859549007976901,-779.2065066138539,-707.2627859068286) " />
        </g>
      </g>
    </g>
    <!-- Created with Method Draw - http://github.com/duopixel/Method-Draw/ -->
    <g
       stroke="null"
       id="svg_471">
      <polygon
         stroke="null"
         id="svg_451"
         fill="#9a4121"
         points="982.36033217574,137.40857870910622 982.36033217574,368.3561653725192 792.00047858787,437.6402587890625 792.00047858787,206.6930725258262 " />
      <polygon
         stroke="null"
         id="svg_452"
         fill="#ad573a"
         points="601.640625,137.40857870910622 601.640625,368.3561653725192 792.00047858787,437.6402587890625 792.00047858787,206.6930725258262 " />
      <polygon
         stroke="null"
         id="svg_453"
         fill="#7e3a1a"
         points="792.00047858787,68.1244852925629 982.36033217574,137.40857870910622 792.00047858787,206.6930725258262 601.640625,137.40857870910622 " />
      <polygon
         stroke="null"
         id="svg_454"
         fill="#fcaf03"
         points="720.6157256845036,180.82686876150728 792.00047858787,152.2587966371084 792.00047858787,152.18930318244747 744.410387062846,132.5586915293079 744.410387062846,132.4663912805845 673.0255700954513,163.50574931132905 673.0255700954513,244.33730374267907 720.6157256845036,261.6584231928573 " />
      <g
         stroke="null"
         transform="matrix(-0.7435932040668063,0,0,0.7217105608418005,4012.1190172465463,-2737.4133230239418) "
         id="svg_456" />
      <g
         stroke="null"
         transform="matrix(-0.7435932040668063,0,0,0.7217105608418005,4012.1190172465463,-2737.4133230239418) "
         id="svg_457" />
      <g
         stroke="null"
         transform="matrix(-0.7435932040668063,0,0,0.7217105608418005,4012.1190172465463,-2737.4133230239418) "
         id="svg_458" />
      <g
         stroke="null"
         transform="matrix(-0.7435932040668063,0,0,0.7217105608418005,4012.1190172465463,-2737.4133230239418) "
         id="svg_459" />
      <g
         stroke="null"
         transform="matrix(-0.7435932040668063,0,0,0.7217105608418005,4012.1190172465463,-2737.4133230239418) "
         id="svg_460" />
      <g
         stroke="null"
         transform="matrix(-0.7435932040668063,0,0,0.7217105608418005,4012.1190172465463,-2737.4133230239418) "
         id="svg_461" />
      <g
         stroke="null"
         transform="matrix(-0.7435932040668063,0,0,0.7217105608418005,4012.1190172465463,-2737.4133230239418) "
         id="svg_462" />
      <g
         stroke="null"
         transform="matrix(-0.7435932040668063,0,0,0.7217105608418005,4012.1190172465463,-2737.4133230239418) "
         id="svg_463" />
      <g
         stroke="null"
         transform="matrix(-0.7435932040668063,0,0,0.7217105608418005,4012.1190172465463,-2737.4133230239418) "
         id="svg_464" />
      <g
         stroke="null"
         transform="matrix(-0.7435932040668063,0,0,0.7217105608418005,4012.1190172465463,-2737.4133230239418) "
         id="svg_465" />
      <g
         stroke="null"
         transform="matrix(-0.7435932040668063,0,0,0.7217105608418005,4012.1190172465463,-2737.4133230239418) "
         id="svg_466" />
      <g
         stroke="null"
         transform="matrix(-0.7435932040668063,0,0,0.7217105608418005,4012.1190172465463,-2737.4133230239418) "
         id="svg_467" />
      <g
         stroke="null"
         transform="matrix(-0.7435932040668063,0,0,0.7217105608418005,4012.1190172465463,-2737.4133230239418) "
         id="svg_468" />
      <g
         stroke="null"
         transform="matrix(-0.7435932040668063,0,0,0.7217105608418005,4012.1190172465463,-2737.4133230239418) "
         id="svg_469" />
      <g
         stroke="null"
         transform="matrix(-0.7435932040668063,0,0,0.7217105608418005,4012.1190172465463,-2737.4133230239418) "
         id="svg_470" />
    </g>
    <path
       style="stroke-width:0.256065"
       id="be"
       d="m 888.60547,230.72125 c -7.74535,-4.91104 21.51982,-38.22904 33.7233,-42.207 12.20313,-3.97808 68.95087,80.84206 39.62894,96.92091 -12.57273,6.89531 -83.14409,33.70046 -139.80956,42.24989 -11.84268,1.78659 -20.79573,-25.31086 -17.0791,-37.86196 4.98894,-16.85532 27.48162,-19.24183 43.44098,-18.41886 35.64542,1.83815 59.52583,4.58638 64.0637,-11.13127 3.53932,-12.2596 -16.22233,-24.64054 -23.96826,-29.55171 z"
       fill="#f4e8d7" />
    <ellipse
       transform="rotate(-17.129419)"
       style="stroke-width:0.256065"
       ry="24.403967"
       rx="25.191189"
       cy="596.13715"
       cx="777.07135"
       id="noq"
       fill="#f4e8d7" />
  </g>
</svg>
