<svg width="1080" height="1080" version="1.1" viewBox="0 0 1080 1080" xml:space="preserve" xmlns="http://www.w3.org/2000/svg" xmlns:xlink="http://www.w3.org/1999/xlink"><defs><linearGradient id="linearGradient6330"><stop stop-color="#7e3a1a" offset="0"/><stop stop-color="#9a4121" offset="1"/></linearGradient><linearGradient id="linearGradient6733" x1="-457" x2="-148" y1="206" y2="206" gradientTransform="matrix(2.37 0 0 2.37 6460 1787)" gradientUnits="userSpaceOnUse" xlink:href="#linearGradient6330"/><linearGradient id="linearGradient6741" x1="-211" x2="-85.2" y1="289" y2="289" gradientTransform="matrix(2.37 0 0 2.37 6460 1787)" gradientUnits="userSpaceOnUse" xlink:href="#linearGradient6330"/><linearGradient id="linearGradient54972-4" x1="480.76" x2="398.11" y1="251.96" y2="381.91" gradientTransform="matrix(2.3643 0 0 2.3643 -102.19 -2.4807)" gradientUnits="userSpaceOnUse"><stop style="stop-color:#338000" offset="0"/><stop style="stop-color:#80c904" offset="1"/></linearGradient><linearGradient id="linearGradient54173-8" x1="394.55" x2="475.21" y1="129.34" y2="129.34" gradientTransform="matrix(2.3643 0 0 2.3643 -102.19 -2.4807)" gradientUnits="userSpaceOnUse"><stop style="stop-color:#f0a02a" offset="0"/><stop style="stop-color:#fcb431" offset="1"/></linearGradient><linearGradient id="linearGradient6332-1" x1="29" x2="58" y1="44.406" y2="33.88" gradientUnits="userSpaceOnUse" xlink:href="#linearGradient6330"/><linearGradient id="linearGradient32332" x1="-208.26" x2="-332.5" y1="459.34" y2="129.94" gradientTransform="matrix(1.0003 0 0 1.0003 1250.2 89.812)" gradientUnits="userSpaceOnUse" xlink:href="#linearGradient6330"/><linearGradient id="linearGradient32340" x1="-566.5" x2="-329.35" y1="260.44" y2="260.44" gradientTransform="matrix(1.0003 0 0 1.0003 1250.2 89.812)" gradientUnits="userSpaceOnUse" xlink:href="#linearGradient6330"/><linearGradient id="linearGradient32376" x1="-211" x2="-85.2" y1="289" y2="289" gradientTransform="matrix(2.37,0,0,2.37,6460,1787)" gradientUnits="userSpaceOnUse" xlink:href="#linearGradient6330"/><linearGradient id="linearGradient32378" x1="-457" x2="-148" y1="206" y2="206" gradientTransform="matrix(2.37,0,0,2.37,6460,1787)" gradientUnits="userSpaceOnUse" xlink:href="#linearGradient6330"/></defs><path d="m874.18 175.92c-5.1615 11.503-22.406 15.204-34.41 15.204-8.4324-9.9928-8.9025-11.203-12.604-25.007-3.411-12.804 6.2518-23.807 20.706-23.807 23.807-0.3611 28.708 23.707 26.208 33.71z" stroke-width="0" style="paint-order:markers fill stroke"/><g transform="matrix(.671 0 0 .671 68.6 -241)"><title>background</title><rect id="canvas_background" x="-1" y="-1" width="514" height="514" fill="none"/><g id="canvasGrid" x="0" y="0" width="100%" height="100%" display="none" overflow="visible"><rect width="100%" height="100%" fill="url(#gridpattern)" stroke-width="0"/></g></g><path d="m861.74 198.85c-32.168 3.1469-90.416 122.5-113.94 145.93-46.572 46.375-137.41 76.141-138.45 94.444-1.9915 34.692 105.18 32.981 188.27-61.889 86.387-98.648 95.432-181.55 64.116-178.49" style="fill:#7e3a1a"/><path d="m870.56 896.75s2.5996 12.671 1.6115 14.64c-0.39507 0.79812-9.8206 3.8689-17.232 7.6695-3.3065 2.9036-6.5371 6.613-2.957 7.776 6.1342 1.9763 42.141 1.9991 45.523-3.9602 1.1249-1.9915 2.5691-3.5725 4.1654-4.8115-4.804-7.0767-7.5175-14.898-8.0954-21.314h-23.016" style="fill:#ff6161"/><path d="m897.51 922.87c-3.3826 5.9593-39.389 5.9365-45.523 3.9602-3.58-1.163-0.34945-4.8724 2.957-7.776-11.121 5.7161-24.848 13.082-25.327 16.882-0.7829 6.3318 64.724 6.1341 75.609 0 5.6933-3.2153 1.7101-10.102-3.5498-17.878-1.5964 1.239-3.0405 2.82-4.1654 4.8115" style="fill:#338000"/><path d="m992.27 887.95s2.5919 12.664 1.6115 14.647c-0.39502 0.79051-9.8132 3.8614-17.232 7.6696-3.314 2.896-6.5371 6.613-2.9644 7.7683 6.1418 1.9763 42.141 1.9991 45.531-3.9602 1.1249-1.9991 2.5614-3.5801 4.1576-4.8039-4.7963-7.0843-7.5098-14.906-8.0876-21.321h-23.016" style="fill:#ff6161"/><path d="m1019.2 914.08c-3.3901 5.9593-39.389 5.9365-45.531 3.9602-3.5727-1.1553-0.3494-4.8723 2.9644-7.7683-11.12 5.7084-24.848 13.074-25.319 16.875-0.79823 6.3317 64.716 6.1265 75.601 0 5.6855-3.2153 1.7103-10.102-3.5574-17.87-1.5962 1.2238-3.0327 2.8048-4.1576 4.8039" style="fill:#338000"/><path d="m1045.8 471.73c5.0471-93.015-33.879-109.73-46.641-125.05-14.381-17.49-119.79-8.2396-134.72-12.96-13.53 30.215-25.213 37.884-34.418 74.096-33.688 132.56 9.0454 492.65 9.0454 492.65s5.6401 3.1393 32.715 3.0785c21.701-0.0513 29.903-6.803 29.903-6.803s-4.5227-339.87 22.644-405.8c7.1373 38.865 0 270.33 64.868 412.61 0 0 37.96 6.2406 51.27 0 18.418-8.6349-4.0439-259.12 5.3286-431.82" style="fill:url(#linearGradient54972-4)"/><path d="m1021.4 369.08c-29.074-73.161-91.092-171.08-118.66-174.8-24.757-3.3445-55.04-2.364-69.763 39.306-7.5936 21.488 11.858 40.894 15.035 64.306 3.8462 28.367-65.157 170.63-5.8773 231.71 54.88 21.998 161.33-3.4205 190.68-36.227" style="fill:url(#linearGradient54173-8)"/><path d="m865.42 168.7 11.873 25.623c1.9307 4.2186-3.6259 19.793-12.724 17.429-2.6603-0.69172-2.7059-7.6772-2.8275-12.907l-4.8726-24.384 8.5514-5.7617" style="fill:#ff6161"/><path d="m858.02 152.22 5.9821 9.1898c4.743 7.2819 3.2152 17.308-3.9753 22.195-6.6359 4.5151-15.461 3.4813-20.614-5.146-4.5759-7.6772-1.9611-17.247-1.5278-21.838 1.0033-10.474 12.489-14.473 20.135-4.401" style="fill:#ff6161"/><path d="m839.86 168.11c-0.51707-0.81334-0.90455-1.695-1.239-2.592-0.6385-1.7254-1.9763-4.1274-4.0666-1.9306-3.0328 3.1925 0.85132 12.162 5.3588 11.288 3.3369-0.6461 1.2466-4.7127-0.0513-6.765" style="fill:#ff6161"/><path d="m854.69 170.4s-3.9297 2.1587-10.056 3.0101c0 0 2.5996 3.8538 5.298 4.5758 2.7135 0.71456 4.5834-2.5919 4.7582-7.5859" style="fill:#ffffff"/><path d="m837.16 150.3s2.3868 7.6467 7.8292 9.7218c5.4501 2.0675 7.5404 0.80575 7.5404 0.80575l-2.8885-4.3098s8.0876 5.7997 12.291 4.5835c4.196-1.2162 2.8885-10.056-1.277-14.305-4.173-4.2642-20.538-2.1207-23.495 3.5042" style="fill:#000000"/><path d="m862 161.84c-0.0521-0.96534-0.23643-1.9079-0.48633-2.8428-0.47145-1.7634-0.76013-4.5151 2.2118-3.9146 4.3174 0.86651 6.3089 10.444 2.1208 12.321-3.1088 1.391-3.7323-3.1468-3.8462-5.564" style="fill:#ff6161"/><path d="m902.7 194.28c-7.7989-1.0566-16.137-1.6723-24.369-0.73735 8.5588 13.272 26.178 41.616 32.472 59.487 1.2086 3.4281-43.988 110.86-38.751 116.33 9.1063 9.5015 47.644-77.615 48.625-72.811 7.9661 39.062 68.42 281.13 72.076 303.77 35.474-7.9052 67.43-21.975 81.553-37.755 24.832-116.48-139.22-368.42-171.61-368.28" style="fill:url(#linearGradient32332)"/><g transform="matrix(11.827 0 0 11.827 7.2994 389.26)" style="fill:none"><path d="m48.67 19.14-5.67-2.35-8.09-0.01-19.82-0.03-0.09 0.04-15 6.21v22.332c-2.4981e-5 0.40464 0.2438 0.76941 0.6177 0.9241l28.382 11.744 28.382-11.744c0.3739-0.15469 0.61772-0.51946 0.6177-0.9241v-22.332z" fill="#f0c419"/><polygon points="41.01 30.03 29 35 20 31.28 10 27.14 0 23 15 16.79 15.09 16.75 34.91 16.78 43 16.79 48.67 19.14 58 23 41.72 29.74" fill="#F9EAB0" style="fill:#7e3a1a"/><path d="m29 35v23l-28.382-11.744c-0.37383-0.15471-0.6176-0.51942-0.6176-0.924v-22.332z" fill="#F3D55B" style="fill:#9a4121"/><path d="m58 23v22.332c1e-6 0.40458-0.24377 0.76929-0.6176 0.924l-28.382 11.744v-23l12.01-4.97 0.71-0.29z" fill="#F0C419" style="fill:url(#linearGradient6332-1)"/><polygon points="48.67 19.14 20 31.28 10 27.14 34.91 16.78 43 16.79" fill="#996A5F" style="fill:#f0a02a"/><path d="m40.23 19.56h-0.01c-0.5513-0.0028-0.99638-0.45118-0.995-1.0025 0.0014-0.55131 0.44869-0.9975 1-0.9975s0.99862 0.44619 1 0.9975c0.0014 0.55131-0.4437 0.99973-0.995 1.0025z" fill="#000000"/><path d="m29 0c-7.73 0-14 3.13-14 7 0 1.72 1.23 3.28 3.28 4.5 0.69026 0.41183 1.4166 0.75994 2.17 1.04 0.04 0.01 0.07 0.03 0.11 0.04 0.22 0.09 0.45 0.17 0.68 0.25 0.55 0.18 1.14 0.35 1.75 0.49 0.2 0.05 0.4 0.1 0.61 0.14 0.08546 0.0224 0.17232 0.0391 0.26 0.05 0.32 0.07 0.65 0.12 0.98 0.17 0.58 0.1 1.18 0.17 1.8 0.22 0.27 0.02 0.55 0.04 0.83 0.06 0.5 0.03 1.01 0.04 1.53 0.04s1.03-0.01 1.53-0.04c0.28-0.02 0.56-0.04 0.83-0.06 0.62-0.05 1.22-0.12 1.8-0.22 0.33-0.05 0.66-0.1 0.98-0.17 0.08768-0.0109 0.17454-0.0276 0.26-0.05 0.21-0.04 0.41-0.09 0.61-0.14 0.61-0.14 1.2-0.31 1.75-0.49 0.23-0.08 0.46-0.16 0.68-0.25 0.04-0.01 0.07-0.03 0.11-0.04 0.74986-0.28836 1.4755-0.63613 2.17-1.04 2.05-1.22 3.28-2.78 3.28-4.5 0-3.87-6.27-7-14-7zm4.59 8.29c-1.4764 0.50464-3.0302 0.74499-4.59 0.71-1.5598 0.034986-3.1136-0.20536-4.59-0.71-0.88-0.35-1.41-0.8-1.41-1.29 0-1.11 2.69-2 6-2s6 0.89 6 2c0 0.49-0.53 0.94-1.41 1.29z" fill="#AF8066" style="fill:#fcb431"/><path d="m35 7c0 0.49-0.53 0.94-1.41 1.29-1.4764 0.50464-3.0302 0.74499-4.59 0.71-1.5598 0.034986-3.1136-0.20536-4.59-0.71-0.88-0.35-1.41-0.8-1.41-1.29 0-1.11 2.69-2 6-2s6 0.89 6 2z" fill="#59474e"/><path d="m43 7v9c-0.11582 1.5718-0.96888 2.9961-2.3 3.84-0.96623-3.4534-4.114-5.8408-7.7-5.84h-4c0.52 0 1.03-0.01 1.53-0.04 0.28-0.02 0.56-0.04 0.83-0.06 0.62-0.05 1.22-0.12 1.8-0.22 0.33-0.05 0.66-0.1 0.98-0.17 0.08768-0.0109 0.17454-0.0276 0.26-0.05 0.21-0.04 0.41-0.09 0.61-0.14 0.61-0.14 1.2-0.31 1.75-0.49 0.23-0.08 0.46-0.16 0.68-0.25 0.04-0.01 0.07-0.03 0.11-0.04 0.74986-0.28836 1.4755-0.63613 2.17-1.04 2.05-1.22 3.28-2.78 3.28-4.5z" fill="#7F5B53" style="fill:#f0a02a"/><g fill="#f29c1f"><path d="m58 38.87v2.18l-7.57 3.17c-0.12452 0.04736-0.25678 0.0711-0.39 0.07-0.47483-9.09e-4 -0.88355-0.33561-0.97807-0.80094-0.09452-0.46533 0.15122-0.93297 0.58807-1.1191z"/><path d="m58 33.88v2.17l-4.59 1.93c-0.12368 0.0514-0.25608 0.07856-0.39 0.08-0.47658 4.94e-4 -0.88693-0.33624-0.97946-0.80375-0.092529-0.46751 0.15861-0.93517 0.59946-1.1162z"/><path d="m58 28.87v2.17l-11.61 4.85c-0.12397 0.05044-0.25618 0.07756-0.39 0.08-0.40306-0.0041-0.76492-0.24795-0.92-0.62-0.1047-0.24387-0.1076-0.51946-0.0081-0.76548 0.099564-0.24602 0.29328-0.44206 0.5381-0.54452z"/></g><path d="m48.67 19.14-28.67 12.14v6.31c-0.0017 0.40444-0.24685 0.76805-0.62115 0.92127-0.3743 0.15322-0.80404 0.065893-1.0889-0.22127l-2.91-2.91c-0.23564-0.23576-0.5722-0.34047-0.9-0.28l-3.28 0.66c-0.29401 0.05827-0.59868-0.01777-0.83082-0.20736-0.23215-0.18959-0.36753-0.47292-0.36918-0.77264v-7.64l24.91-10.36 8.09 0.01z" fill="#804537" style="fill:#fcb431"/><path d="m41 22 5.3e-5 6-6.0001-2-6 2v-2.15c-2.71e-4 -1.5397-1.1678-2.8283-2.7-2.98-6.44-0.63-11.3-3.46-11.3-6.87v-9c0 1.72 1.23 3.28 3.28 4.5 0.69026 0.41183 1.4166 0.75994 2.17 1.04 0.04 0.01 0.07 0.03 0.11 0.04 0.22 0.09 0.45 0.17 0.68 0.25 0.55 0.18 1.14 0.35 1.75 0.49 0.2 0.05 0.4 0.1 0.61 0.14 0.08546 0.0224 0.17232 0.0391 0.26 0.05 0.32 0.07 0.65 0.12 0.98 0.17 0.58 0.1 1.18 0.17 1.8 0.22 0.27 0.02 0.55 0.04 0.83 0.06 0.5 0.03 1.01 0.04 1.53 0.04h4c3.586-7.82e-4 6.7338 2.3866 7.7 5.84 0.2017 0.70218 0.30271 1.4294 0.3 2.16z" fill="#CB9080" style="fill:#ffc431"/></g><g transform="matrix(.049523 -.02494 -.02494 -.049523 1122 982.17)" style="clip-rule:evenodd;fill-rule:evenodd;image-rendering:optimizeQuality;shape-rendering:geometricPrecision"><path d="m-3053.4 7919.7c55.046 0 141.69-1.4811 246.85-3.7027-300.17-5.6775-752.39-16.045-1053.3-9.8739 330.78 4.1964 668.47 13.577 806.45 13.577z" fill="#60b7ff" style="stroke-width:24.685"/><path d="m-1753.2 7906.1c-300.91-6.1712-752.88 4.1964-1053.3 9.8739 105.4 2.2216 192.05 3.7027 246.85 3.7027 137.99 0 475.43-9.3802 806.45-13.577z" fill="#60b7ff" style="stroke-width:24.685"/><path d="m-1518.8 18583-2087 2.419v780.55l2087-2.419z" fill="#c4e2ff" style="stroke-width:24.685"/><path d="m-3605.8 19331h2086.9v-360.62h-2086.9z" fill="#b3dafe" style="stroke-width:24.685"/><path d="m-479.22 10923c-47.049 618.52-21.623 1242.8 108.24 1851 101.75 476.56 130.53 1035.8 130.53 1521.6h-2319.3-2317.1c0-485.77 26.611-1045 128.36-1521.6 129.86-608.18 155.32-1232.5 108.24-1851-55.491-729.34-273.51-1433.7-267.14-2161.6 3.95-452.08 242.8-946.83 754-1014.5 272-35.99 1318.6 0 1593.6 0 274.99 0 1321.6-35.99 1593.6 0 511.17 67.662 750.02 562.44 754 1014.5 6.368 727.9-211.67 1432.2-267.14 2161.6z" fill="#fcd4d4" style="stroke-width:24.685"/><path d="m-212.06 8761.5c-4.048-452.03-242.9-946.93-754.04-1014.4-131.22-17.253-442.13-18.02-759.87-13.972 107.87 2.2973 196.44 6.5925 252.28 13.972 511.15 67.514 749.97 562.42 754.05 1014.4 6.342 727.9-211.67 1432.2-267.26 2161.6-46.95 618.5-21.575 1242.8 108.37 1851 101.78 476.64 130.46 1035.8 130.46 1521.6h507.59c0-485.77-28.683-1045-130.46-1521.6-129.94-608.11-155.32-1232.5-108.37-1851 55.591-729.43 273.61-1433.7 267.26-2161.6z" fill="#ffaaaa" style="stroke-width:24.685"/><path d="m-1361.3 19331h-2396.8c-72.155 0-130.66 58.503-130.66 130.66v777.12c0 72.155 58.503 130.66 130.66 130.66h2396.8c72.156 0 130.66-58.503 130.66-130.66v-777.12c0-72.152-58.502-130.66-130.66-130.66z" fill="#ff6666" style="stroke-width:24.685"/><path d="m-240.47 16812-1278.1 1800.2h-2086.5l-1267.8-1800.2-3.874-5.507v-68.399h4636.3z" fill="#fcd4d4" style="stroke-width:24.685"/><path d="m-240.47 16812h-508.8l-1276.4 1800.2h507.1z" fill="#ffaaaa" style="stroke-width:24.685"/><path d="m-240.44 14225h-4636.3v2581.5l4636.3 5.557z" fill="#0593fc" style="stroke-width:24.685"/><path d="m-749.27 16812h508.8v-2587h-508.8z" fill="#0182fc" style="stroke-width:24.685"/><g stroke="null"><g transform="matrix(24.685 0 0 -24.685 -8879 20370)"><path d="m285.51 256.86c-23.441-2.4397-41.353-14.894-40.008-27.816 1.3449-12.923 21.438-21.422 44.879-18.982 23.441 2.4397 51.188 17.681 50.025 28.859-1.1633 11.178-31.454 20.38-54.895 17.94z" fill="#5eac24"/><path d="m290.38 210.06c-23.441-2.4397-43.534 6.0591-44.879 18.982l25.943-4.7806c14.351-2.6445 29.157-1.1848 42.715 4.2113l26.246 10.446c1.1629-11.178-26.584-26.419-50.025-28.859z" fill="#4e901e"/><path d="m322.26 240.1-74.818-7.7864c-1.681-0.17491-2.9016-1.6796-2.7267-3.3602s1.6813-2.8993 3.3602-2.7267l74.818 7.7863c1.6809 0.17491 2.9016 1.6796 2.7267 3.3602-0.16349 1.5732-1.3764 2.8962-3.3602 2.7267z" fill="#47821c"/><path d="m295.13 231.75c-19.709-12.923-41.461-14.591-48.585-3.7251s3.0772 30.15 22.786 43.072c19.708 12.923 50.845 18.646 57.007 9.2474 6.1625-9.3981-11.499-35.672-31.207-48.595z" fill="#6dc82a"/><path d="m269.33 271.1c-19.709-12.923-29.91-32.207-22.786-43.072l18.403 23.585c7.9109 10.139 18.916 17.417 31.342 20.728l30.047 8.0062c-6.1625 9.3985-37.298 3.6755-57.007-9.247z" fill="#5eac24"/><path d="m313.02 267.95-20.586-13.499 9.1322-1.7384c1.6601-0.31625 2.7499-1.9176 2.4336-3.5781-0.31624-1.6601-1.9173-2.7509-3.5781-2.4336l-15.352 2.9218-11.03-7.2321 9.1322-1.7384c1.6601-0.31624 2.7499-1.9176 2.4336-3.5781-0.31624-1.6605-1.918-2.7506-3.5781-2.4336l-15.352 2.9218-16.561-10.86c-1.4134-0.92693-3.3102-0.53212-4.2368 0.88092-0.92658 1.413-0.53211 3.3102 0.88093 4.2368l16.562 10.86 3.4405 15.243c0.77517 3.0245 3.4321 2.3624 3.6583 2.3114 1.6487-0.37197 2.6834-2.01 2.3114-3.6583l-2.0469-9.0678 11.03 7.2321 3.4404 15.243c0.77619 2.9943 3.4317 2.3624 3.6583 2.3114 1.6487-0.37197 2.6834-2.01 2.3114-3.6583l-2.0469-9.0678 20.586 13.499c2.0831 1.1559 3.6493 0.0148 4.2368-0.88092 0.92726-1.414 0.53312-3.3112-0.87992-4.2378z" fill="#47821c"/><path d="m223.49 256.86c23.441-2.4397 41.353-14.894 40.008-27.816-1.3449-12.923-21.438-21.422-44.879-18.982-23.441 2.4397-51.188 17.681-50.025 28.859 1.1629 11.178 31.454 20.379 54.895 17.94z" fill="#91dc5a"/><path d="m218.62 210.06c23.441-2.4397 43.534 6.0591 44.879 18.982l-29.142-6.385c-13.822-3.0282-28.257-1.4013-41.058 4.6276l-24.703 11.634c-1.1629-11.178 26.584-26.419 50.025-28.859z" fill="#6dc82a"/><path d="m213.87 231.75c19.709-12.923 41.461-14.591 48.585-3.7251s-3.0772 30.15-22.786 43.072c-19.708 12.923-50.845 18.646-57.007 9.2474s11.498-35.672 31.207-48.595z" fill="#b6e892"/><path d="m239.67 271.1c19.709-12.923 29.91-32.207 22.786-43.072l-13.089 18.142c-9.7174 13.468-23.84 23.113-39.921 27.264l-26.783 6.9135c6.1625 9.3985 37.299 3.6755 57.007-9.247z" fill="#91dc5a"/><g transform="matrix(.33572 0 0 .33572 -463.22 -552.34)" fill="#47821c"><path d="m1926 2352.3c-0.521-5.007 3.115-9.488 8.122-10.009l222.86-23.193c5.007-0.521 9.488 3.115 10.009 8.122s-3.115 9.488-8.122 10.009l-222.86 23.193c-7.254 0.46-9.521-3.435-10.009-8.122z"/><path d="m2163.6 2323.1c-2.76-4.208-8.41-5.386-12.62-2.624l-49.331 32.347-45.728-8.703c-4.943-0.943-9.717 2.305-10.658 7.249-0.942 4.945 2.305 9.717 7.249 10.658l27.202 5.178-32.855 21.542-45.728-8.703c-4.943-0.942-9.717 2.305-10.658 7.249-0.942 4.945 2.305 9.717 7.249 10.658l27.202 5.178-61.32 40.208c-4.209 2.76-5.385 8.41-2.624 12.62 1.75 2.668 7.612 5.184 12.62 2.624l61.32-40.208-6.097 27.01c-1.108 4.911 1.974 9.789 6.885 10.897 0.676 0.152 8.587 1.858 10.897-6.885l10.248-45.405 32.855-21.542-6.097 27.01c-1.108 4.911 1.974 9.789 6.885 10.897 0.676 0.152 9.255 1.241 10.897-6.885l10.248-45.405 49.332-32.348c4.213-2.757 5.388-8.408 2.627-12.617z"/></g><path d="m317.45 160.88s3.5653-29.413-25.044-24.217c-2.6529 0.48175-5.3497-0.49821-7.1384-2.5162-6.1541-6.9407-21.907-19.266-39.066 10.352-0.81009 0.21956 37.784 28.554 37.784 28.554z" fill="#c70024"/><g transform="matrix(.33572 0 0 .33572 -463.22 -552.34)" fill="#d80027"><path d="m1952.5 2124.4s-10.62-87.611 74.597-72.136c7.903 1.435 15.935-1.484 21.263-7.495 18.331-20.674 65.255-57.388 116.36 30.835 2.413 0.654-112.55 85.054-112.55 85.054z"/><path d="m2235.4 2123s53.807-26.748 113.14-5.545c9.341 3.338 13.542 14.185 8.871 22.935-12.452 23.328-33.625 71.073-32.254 126.25 1.932 77.747-100.82 155.49-204.07 70.481 1.915-2.782 114.31-214.12 114.31-214.12z"/></g><path d="m297 157.16c-0.65768 7.0118-0.56334 17.236 3.9857 24.681 7.6014 12.441 16.753 48.234-16.162 62.529-10.85 1.4053-23.385-1.7615-35.943-12.1 0.64357-0.93296 38.377-71.884 38.377-71.884s3.7607-1.8693 9.7416-3.2259z" fill="#c70024"/><path d="m221.74 160.38s-18.064-8.9798-37.982-1.8616c-3.136 1.1206-4.5463 4.7622-2.9782 7.6997 4.1804 7.8317 11.289 23.861 10.828 42.384-0.64861 26.101 33.846 52.201 68.509 23.662-0.64324-0.93397-38.377-71.884-38.377-71.884z" fill="#ff0c38"/><path d="m212 157.16c0.65767 7.0118 0.56333 17.236-3.9857 24.681-7.6014 12.441-16.753 48.234 16.162 62.529 10.85 1.4053 23.385-1.7615 35.943-12.1-0.64358-0.93296-38.377-71.884-38.377-71.884s-3.7607-1.8693-9.7416-3.2259z" fill="#d80027"/><path d="m288.23 147.99s-21.541-27.344-49.207 18.64c0.21117 0.15611 19.134 15.207 19.134 15.207z" fill="#ff0c38"/><path d="m239.08 166.68c1.1841 0.93061 19.072 15.159 19.072 15.159l30.073-33.848s-0.98802-1.2532-2.811-2.7717h-1e-3s-23.565-5.7945-46.333 21.46z" fill="#d80027"/><path d="m220.77 147.99s21.541-27.344 49.207 18.64c-0.21117 0.15611-19.134 15.207-19.134 15.207z" fill="#ff3f62"/><path d="m223.28 150.81 27.566 31.026s18.923-15.052 19.134-15.207c-1.7702-2.9426-3.5153-5.5827-5.2315-7.9512-2.7667-2.6988-16.694-14.577-41.469-7.8676z" fill="#ff0c38"/><path d="m292.28 187.04c-5.3927-9.5227-2.8828-24.221-2.8828-24.221l-6.5626-7.0488-28.335 26.71-28.335-26.71-6.5626 7.0488s2.5098 14.698-2.8828 24.221c-6.1766 10.908-10.422 45.923 37.781 45.923 48.203 0 43.957-35.015 37.781-45.923z" fill="#ff3f62"/><path d="m264.77 172.8-10.273 9.6838-28.335-26.71-6.5626 7.0488s2.5098 14.698-2.8828 24.221c-6.1766 10.908-10.422 45.923 37.781 45.923 11.903 0 20.603-2.1375 26.871-5.5179-2.2755-25.062-8.7592-42.507-16.598-54.649z" fill="#ff0c38"/><path d="m292.8 142.79c-23.946 6.0812-36.251 25.509-42.078 39.046l7.6729 10.423c7.837-2.9077 14.251-6.8134 19.485-11.18 2.9892-2.4937 4.4584-6.3679 3.9259-10.224l-0.98198-7.1075 4.7001-3.4e-4c4.4439-3.4e-4 8.5021-2.5867 10.319-6.6422 1.3056-2.9144 2.2782-5.6082 2.9953-7.9142 1.1676-3.7513-2.2298-7.3677-6.0376-6.4008z" fill="#ff728b"/><path d="m259.73 165.89c-3.9914 5.48-6.9188 11.089-9.0077 15.941l7.6729 10.423c4.9438-1.834 9.3199-4.0662 13.192-6.5596-3.4834-8.111-7.5681-14.605-11.857-19.805z" fill="#ff3f62"/><path d="m263.5 195.69-7.3402-14.777-1.6632 1.5678-28.335-26.71-6.5626 7.0488s2.5098 14.698-2.8828 24.221c-6.1769 10.908-10.422 45.923 37.781 45.923 4.4936 0 8.53-0.30517 12.153-0.86582 1.3298-17.918-3.1494-36.408-3.1494-36.408z" fill="#ff728b"/><path d="m244.97 232.45c-9.5099-9.279-14.539-25.283-10.28-43.017 2.0898-8.7039 1.9381-17.257 0.72381-24.939l-9.2474-8.7173-6.5626 7.0488s2.5098 14.698-2.8828 24.221c-5.7351 10.129-9.797 41.041 28.249 45.404z" fill="#ff3f62"/><path d="m210.78 149.19c0.71743 2.3057 1.6897 4.9995 2.9953 7.9142 1.8169 4.0555 5.8754 6.6419 10.319 6.6422l4.7001 3.3e-4 -0.98198 7.1075c-0.53245 3.8557 0.93666 7.7306 3.9259 10.224 7.745 6.4612 18.058 11.921 31.768 14.615 0 0-8.6948-43.256-46.689-52.905-3.8077-0.96687-7.2049 2.6495-6.0376 6.4012z" fill="#ffa5b5"/></g><circle transform="scale(1,-1)" cx="-2460.9" cy="-10977" r="209.82" fill="#ffffff" stroke-opacity="null" stroke-width="24.685"/><circle transform="scale(1,-1)" cx="-1547.6" cy="-10014" r="160.45" fill="#ffffff" stroke-opacity="null" stroke-width="24.685"/></g></g><path d="m894.14 206.4c-31.248 8.2624-27.623 67.985-89.048 162.32-35.862 55.078-123.41 97.211-121.51 115.45 3.6106 34.555 133.88-23.289 193.7-80.469 63.086-60.298 47.268-205.33 16.856-197.3" style="fill:url(#linearGradient32340)"/><path d="m661.5 481.11c-3.5954 0.97299-13.56 12.93-10.976 14.967 2.5844 2.0219 7.6696-6.5598 10.269-7.2971 0 0-10.353 10.284-7.5632 12.77 6.6662 5.8985 10.353 1.3378 14.381-1.7178 4.0286-3.0481 3.2001-1.3834 3.2001-1.3834s-3.9374 4.2035-6.2633 6.3166c-1.0414 0.95774-0.98818 4.7127 5.3056 1.7939 4.6899-2.1816 5.5489-1.5734 13.264-6.4534 0 0 8.5361-3.679 14.26-10.816 3.1545-3.9298 3.3369-7.1299-2.9189-11.698-6.2633-4.5531-32.959 3.5193-32.959 3.5193" style="fill:#ff6161"/><g transform="matrix(.072421 -.022106 .021906 .07002 386.31 135.32)"><g stroke-width="2.37"><path d="m6250 2651c-63.7 55-160 48.2-215-15.1-0.22-0.22-0.414-0.464-0.611-0.682l-66-76.5c-0.902-1.05-1.68-2.17-2.29-3.37-1.73-3.17-2.46-6.73-2.17-10.2 0.317-4.8 2.49-9.41 6.39-12.8 22.9-19.8 50-31.6 78-35.6 9.93-1.44 19.9-1.88 29.9-1.37 40.2 2.07 79.5 19.9 108 52.8l66.1 76.5c6.73 7.78 5.88 19.5-1.93 26.3z" fill="#7e3a1a"/><g fill="#5a2a13"><path d="m6121 2627c-4.55 0-9.12-1.69-12.7-5.09l-48.2-46.3c-7.29-7-7.53-18.6-0.535-25.9 6.99-7.29 18.6-7.53 25.9-0.535l48.2 46.3c7.29 7 7.53 18.6 0.535 25.9-3.59 3.74-8.39 5.63-13.2 5.63z"/><path d="m6198 2563c-26.4 14.5-56.7 22.6-88.5 22.6-15 0-30-1.85-44.7-5.51l-5.98-1.46-92.1-22.9c-0.537-0.121-1.07-0.268-1.59-0.438-1.73-3.17-2.46-6.73-2.17-10.2 0.317-4.8 2.49-9.41 6.39-12.8 22.9-19.8 50-31.6 78-35.6 9.93-1.44 19.9-1.88 29.9-1.37 40.2 2.07 79.5 19.9 108 52.8z"/><path d="m6057 2524c7.36 12.9 11.3 27.6 11.3 42.9 0 27.6-13.3 53-34.4 69-0.22-0.22-0.414-0.464-0.611-0.682l-66-76.5c-3.37-3.9-4.85-8.8-4.46-13.6 0.317-4.8 2.49-9.41 6.39-12.8 22.9-19.8 50-31.6 78-35.6 9.93-1.44 19.9-1.88 29.9-1.37-6.24 9.85-12.9 19.4-20 28.6z"/></g><path d="m6258 2438c-20.4 82-103 132-185 112l-6.02-1.49-92-22.9c-5-1.24-9.02-4.39-11.5-8.51-2.49-4.1-3.39-9.12-2.15-14.1 7.32-29.4 22.7-54.7 43.2-74 31.6-29.9 75.4-45.8 121-41.2 7.14 0.732 14.3 1.97 21.5 3.75l98.1 24.4c10 2.49 16.1 12.6 13.6 22.6z" fill="url(#linearGradient6741)" style="fill:url(#linearGradient32376)"/><g transform="translate(-527,-4.58)" fill="#713417">
	<path d="m6583 2498c-8.94 0-16.8-6.56-18.1-15.7-1.45-10 5.49-19.3 15.5-20.7l65.1-9.42c9.99-1.46 19.3 5.49 20.7 15.5 1.45 10-5.49 19.3-15.5 20.7l-65.1 9.42c-0.888 0.13-1.77 0.192-2.64 0.192z"/>
	<path d="m6585 2528c4.27 7.44 7.39 15.5 9.24 23.9l-92-22.9c-5-1.24-9.02-4.39-11.5-8.51-2.49-4.1-3.39-9.12-2.15-14.1 7.32-29.4 22.7-54.7 43.2-74 31.6-29.9 75.4-45.8 121-41.2-13.9 51-36.6 97-67.4 137z"/>
</g><path d="m6097 2105c-41.4-159-144-286-353-286s-312 126-353 286c32.6-179 131-330 353-330s321 150 353 330z" fill="#37cc82"/></g><path d="m5743 1776c-283 0-366 245-366 484 0 111 35.3 200 93.3 264-12.7 10.1-20.8 25.6-20.8 43 0 25.1 16.8 46.2 39.7 52.8-1.99 20.2 4.75 41.1 20.2 56.6 129 129 338 129 467 0 15.5-15.5 22.2-36.4 20.2-56.6 22.9-6.58 39.7-27.7 39.7-52.8 0-17.4-8.15-33-20.8-43 58-64.2 93.3-154 93.3-264 0-238-82.8-484-366-484zm0 231c72.8 0 144 24.9 202 70 34.7 27.4 54.6 68.4 54.6 113v59c0 83-25.8 161-72.6 221-48.5 61.4-114 95.3-184 95.3-69.9 0-135-33.8-184-95.3-46.8-59.2-72.6-138-72.6-221v-59c0-44.2 19.9-85.3 54.6-113 57.1-45.1 129-70 202-70z" fill="url(#linearGradient6733)" stroke-width="2.37" style="fill:url(#linearGradient32378)"/><path d="m6086 2056c-49.8-135-153-236-342-236s-293 101-342 236c41.1-157 141-281 342-281s301 124 342 281z" fill="#b15225" stroke-width="2.37"/><g transform="matrix(2.37,0,0,2.37,5212,1776)" fill="#713417">
	<path d="m236 374c-53.7 0-81.4-26.8-82.6-28.1-3.03-3-3.05-7.9-0.042-10.9 3-3.02 7.87-3.05 10.9-0.064 0.128 0.124 7.26 6.96 21 13.2 12.7 5.76 33.8 12.2 62.3 9.98 4.26-0.322 7.97 2.86 8.29 7.12 0.324 4.26-2.86 7.97-7.12 8.29-4.39 0.334-8.63 0.489-12.7 0.489z"/>
	<path d="m213 395c-22.8 0-44.3-12.9-45.2-13.5-3.65-2.22-4.81-6.97-2.59-10.6 2.21-3.64 6.96-4.81 10.6-2.6 0.195 0.119 19.8 11.8 38.6 11.2 4.22-0.154 7.83 3.22 7.96 7.48 0.132 4.26-3.22 7.83-7.48 7.96-0.605 0.02-1.21 0.029-1.82 0.029z"/>
</g></g></svg>
