<svg width="1080" height="1080" version="1.1" viewBox="0 0 1080 1080" xml:space="preserve" xmlns="http://www.w3.org/2000/svg" xmlns:xlink="http://www.w3.org/1999/xlink"><defs><linearGradient id="linearGradient6330"><stop stop-color="#7e3a1a" offset="0"/><stop stop-color="#9a4121" offset="1"/></linearGradient><linearGradient id="linearGradient6332" x1="29" x2="58" y1="44.4" y2="33.9" gradientUnits="userSpaceOnUse" xlink:href="#linearGradient6330"/><linearGradient id="linearGradient54173" x1="406" x2="437" y1="88.6" y2="169" gradientTransform="matrix(2.37 0 0 2.37 -105 -5.23)" gradientUnits="userSpaceOnUse"><stop stop-color="#d78909" offset="0"/><stop stop-color="#fcb431" offset="1"/></linearGradient><linearGradient id="linearGradient54972" x1="484" x2="367" y1="254" y2="439" gradientTransform="matrix(2.37 0 0 2.37 -105 -5.23)" gradientUnits="userSpaceOnUse"><stop stop-color="#338000" offset="0"/><stop stop-color="#80c904" offset="1"/></linearGradient><linearGradient id="linearGradient19350" x1="429" x2="363" y1="92" y2="201" gradientTransform="matrix(2.37 0 0 2.37 -105 -5.23)" gradientUnits="userSpaceOnUse" xlink:href="#linearGradient6330"/><linearGradient id="linearGradient6733" x1="-457" x2="-148" y1="206" y2="206" gradientTransform="matrix(2.37 0 0 2.37 6460 1787)" gradientUnits="userSpaceOnUse" xlink:href="#linearGradient6330"/><linearGradient id="linearGradient6741" x1="-211" x2="-85.2" y1="289" y2="289" gradientTransform="matrix(2.37 0 0 2.37 6460 1787)" gradientUnits="userSpaceOnUse" xlink:href="#linearGradient6330"/></defs><g><path d="m873 174c-5.16 11.5-22.4 15.2-34.4 15.2-8.43-9.99-8.9-11.2-12.6-25-3.41-12.8 6.25-23.8 20.7-23.8 23.8-0.361 28.7 23.7 26.2 33.7z" stroke-width="0" style="paint-order:markers fill stroke"/><g><path d="m860 196c-32.2 3.15-90.5 123-114 146-46.6 46.4-138 76.2-139 94.6-1.99 34.7 105 33 189-62 86.5-98.8 95.6-182 64.2-179" fill="#7e3a1a"/><path d="m869 895s2.6 12.7 1.61 14.7c-0.396 0.799-9.83 3.87-17.3 7.68-3.31 2.91-6.55 6.62-2.96 7.79 6.14 1.98 42.2 2 45.6-3.97 1.13-1.99 2.57-3.58 4.17-4.82-4.81-7.09-7.53-14.9-8.11-21.3h-23" fill="#ff6161"/><path d="m896 921c-3.39 5.97-39.4 5.94-45.6 3.97-3.58-1.16-0.35-4.88 2.96-7.79-11.1 5.72-24.9 13.1-25.4 16.9-0.784 6.34 64.8 6.14 75.7 0 5.7-3.22 1.71-10.1-3.55-17.9-1.6 1.24-3.04 2.82-4.17 4.82" fill="#1f4c00"/><path d="m991 886s2.6 12.7 1.61 14.7c-0.396 0.792-9.83 3.87-17.3 7.68-3.32 2.9-6.55 6.62-2.97 7.78 6.15 1.98 42.2 2 45.6-3.97 1.13-2 2.56-3.58 4.16-4.81-4.8-7.09-7.52-14.9-8.1-21.3h-23" fill="#ff6161"/><path d="m1018 913c-3.39 5.97-39.4 5.94-45.6 3.97-3.58-1.16-0.35-4.88 2.97-7.78-11.1 5.72-24.9 13.1-25.4 16.9-0.799 6.34 64.8 6.13 75.7 0 5.69-3.22 1.71-10.1-3.56-17.9-1.6 1.23-3.04 2.81-4.16 4.81" fill="#1f4c00"/><path d="m1045 470c5.05-93.1-33.9-110-46.7-125-14.4-17.5-120-8.25-135-13-13.5 30.3-25.2 37.9-34.5 74.2-33.7 133 9.06 493 9.06 493s5.65 3.14 32.8 3.08c21.7-0.0514 29.9-6.81 29.9-6.81s-4.53-340 22.7-406c7.15 38.9 0 271 65 413 0 0 38 6.25 51.3 0 18.4-8.65-4.05-259 5.34-432" fill="url(#linearGradient54972)"/><path d="m1020 367c-29.1-73.3-91.2-171-119-175-24.8-3.35-55.1-2.37-69.9 39.4-7.6 21.5 11.9 40.9 15.1 64.4 3.85 28.4-33.5 160-32.6 195 24.7 9.91 70 17.1 115 19 55 2.33 110-3.21 126-21.3" fill="url(#linearGradient54173)"/></g></g><g fill="#ff6161"><path d="m864 166 11.9 25.7c1.93 4.22-3.63 19.8-12.7 17.5-2.66-0.693-2.71-7.69-2.83-12.9l-4.88-24.4 8.56-5.77"/><path d="m857 150 5.99 9.2c4.75 7.29 3.22 17.3-3.98 22.2-6.64 4.52-15.5 3.49-20.6-5.15-4.58-7.69-1.96-17.3-1.53-21.9 1-10.5 12.5-14.5 20.2-4.41"/><path d="m839 166c-0.518-0.814-0.906-1.7-1.24-2.6-0.639-1.73-1.98-4.13-4.07-1.93-3.04 3.2 0.852 12.2 5.37 11.3 3.34-0.647 1.25-4.72-0.0514-6.77"/></g><g><path d="m853 168s-3.93 2.16-10.1 3.01c0 0 2.6 3.86 5.3 4.58 2.72 0.715 4.59-2.6 4.76-7.6" fill="#fff"/><path d="m836 148s2.39 7.66 7.84 9.73c5.46 2.07 7.55 0.807 7.55 0.807l-2.89-4.32s8.1 5.81 12.3 4.59c4.2-1.22 2.89-10.1-1.28-14.3-4.18-4.27-20.6-2.12-23.5 3.51"/><path d="m861 159c-0.0521-0.967-0.237-1.91-0.487-2.85-0.472-1.77-0.761-4.52 2.21-3.92 4.32 0.868 6.32 10.5 2.12 12.3-3.11 1.39-3.74-3.15-3.85-5.57" fill="#ff6161"/><path d="m901 192c-7.81-1.06-16.2-1.67-24.4-0.738 8.57 13.3 26.2 41.7 32.5 59.6 1.21 3.43-44 111-38.8 116 9.12 9.51 47.7-77.7 48.7-72.9 7.98 39.1 68.5 281 72.2 304 35.5-7.92 67.5-22 81.7-37.8 24.9-117-119-360-172-369" fill="#7e3a1a"/></g><g id="025---Parcel-and-Tape" transform="matrix(11.6 0 0 11.6 12.8 405)" fill="none"><path id="Shape" d="m48.7 19.1-5.67-2.35-27.9-0.04-0.09 0.04-15 6.21v22.3c-2.5e-5 0.405 0.244 0.769 0.618 0.924l28.4 11.7 28.4-11.7c0.374-0.155 0.618-0.519 0.618-0.924v-22.3z" fill="#f0c419"/><g><polygon points="29 35 20 31.3 10 27.1 0 23 15 16.8 15.1 16.8 34.9 16.8 43 16.8 48.7 19.1 58 23 41.7 29.7 41 30" fill="#7e3a1a"/><path d="m29 35v23l-28.4-11.7c-0.374-0.155-0.618-0.519-0.618-0.924v-22.3z" fill="#9a4121"/><path d="m58 23v22.3c1e-6 0.405-0.244 0.769-0.618 0.924l-28.4 11.7v-23l12-4.97 0.71-0.29z" fill="url(#linearGradient6332)"/><polygon points="48.7 19.1 20 31.3 10 27.1 34.9 16.8 43 16.8" fill="#f0a02a"/></g><path d="m40.2 19.6h-0.01c-0.551-0.0028-0.996-0.451-0.995-1 0.0014-0.551 0.449-0.998 1-0.998s0.999 0.446 1 0.998c0.0014 0.551-0.444 1-0.995 1z" fill="#000"/><path d="m29 0c-7.73 0-14 3.13-14 7 0 1.72 1.23 3.28 3.28 4.5 0.69 0.412 1.42 0.76 2.17 1.04 0.04 0.01 0.07 0.03 0.11 0.04 0.22 0.09 0.45 0.17 0.68 0.25 0.55 0.18 1.14 0.35 1.75 0.49 0.2 0.05 0.4 0.1 0.61 0.14 0.0855 0.0224 0.172 0.0391 0.26 0.05 0.32 0.07 0.65 0.12 0.98 0.17 0.58 0.1 1.18 0.17 1.8 0.22 0.27 0.02 0.55 0.04 0.83 0.06 0.5 0.03 1.01 0.04 1.53 0.04s1.03-0.01 1.53-0.04c0.28-0.02 0.56-0.04 0.83-0.06 0.62-0.05 1.22-0.12 1.8-0.22 0.33-0.05 0.66-0.1 0.98-0.17 0.0877-0.0109 0.175-0.0276 0.26-0.05 0.21-0.04 0.41-0.09 0.61-0.14 0.61-0.14 1.2-0.31 1.75-0.49 0.23-0.08 0.46-0.16 0.68-0.25 0.04-0.01 0.07-0.03 0.11-0.04 0.75-0.288 1.48-0.636 2.17-1.04 2.05-1.22 3.28-2.78 3.28-4.5 0-3.87-6.27-7-14-7zm4.59 8.29c-1.48 0.505-3.03 0.745-4.59 0.71-1.56 0.035-3.11-0.205-4.59-0.71-0.88-0.35-1.41-0.8-1.41-1.29 0-1.11 2.69-2 6-2s6 0.89 6 2c0 0.49-0.53 0.94-1.41 1.29z" fill="#fcb431"/><path d="m35 7c0 0.49-0.53 0.94-1.41 1.29-1.48 0.505-3.03 0.745-4.59 0.71-1.56 0.035-3.11-0.205-4.59-0.71-0.88-0.35-1.41-0.8-1.41-1.29 0-1.11 2.69-2 6-2s6 0.89 6 2z" fill="#59474e"/><path d="m43 7v9c-0.116 1.57-0.969 3-2.3 3.84-0.966-3.45-4.11-5.84-7.7-5.84h-4c0.52 0 1.03-0.01 1.53-0.04 0.28-0.02 0.56-0.04 0.83-0.06 0.62-0.05 1.22-0.12 1.8-0.22 0.33-0.05 0.66-0.1 0.98-0.17 0.0877-0.0109 0.175-0.0276 0.26-0.05 0.21-0.04 0.41-0.09 0.61-0.14 0.61-0.14 1.2-0.31 1.75-0.49 0.23-0.08 0.46-0.16 0.68-0.25 0.04-0.01 0.07-0.03 0.11-0.04 0.75-0.288 1.48-0.636 2.17-1.04 2.05-1.22 3.28-2.78 3.28-4.5z" fill="#f0a02a"/><g fill="#f29c1f"><path d="m58 38.9v2.18l-7.57 3.17c-0.125 0.0474-0.257 0.0711-0.39 0.07-0.475-9.09e-4 -0.884-0.336-0.978-0.801-0.0945-0.465 0.151-0.933 0.588-1.12z"/><path d="m58 33.9v2.17l-4.59 1.93c-0.124 0.0514-0.256 0.0786-0.39 0.08-0.477 4.94e-4 -0.887-0.336-0.979-0.804-0.0925-0.468 0.159-0.935 0.599-1.12z"/><path d="m58 28.9v2.17l-11.6 4.85c-0.124 0.0504-0.256 0.0776-0.39 0.08-0.403-0.0041-0.765-0.248-0.92-0.62-0.105-0.244-0.108-0.519-0.0081-0.765 0.0996-0.246 0.293-0.442 0.538-0.545z"/></g><path d="m48.7 19.1-28.7 12.1v6.31c-0.0017 0.404-0.247 0.768-0.621 0.921-0.374 0.153-0.804 0.0659-1.09-0.221l-2.91-2.91c-0.236-0.236-0.572-0.34-0.9-0.28l-3.28 0.66c-0.294 0.0583-0.599-0.0178-0.831-0.207-0.232-0.19-0.368-0.473-0.369-0.773v-7.64l24.9-10.4 8.09 0.01z" fill="#fcb431"/><path d="m41 22 5.3e-5 6-6-2-6 2v-2.15c-2.71e-4 -1.54-1.17-2.83-2.7-2.98-6.44-0.63-11.3-3.46-11.3-6.87v-9c0 1.72 1.23 3.28 3.28 4.5 0.69 0.412 1.42 0.76 2.17 1.04 0.04 0.01 0.07 0.03 0.11 0.04 0.22 0.09 0.45 0.17 0.68 0.25 0.55 0.18 1.14 0.35 1.75 0.49 0.2 0.05 0.4 0.1 0.61 0.14 0.0855 0.0224 0.172 0.0391 0.26 0.05 0.32 0.07 0.65 0.12 0.98 0.17 0.58 0.1 1.18 0.17 1.8 0.22 0.27 0.02 0.55 0.04 0.83 0.06 0.5 0.03 1.01 0.04 1.53 0.04h4c3.59-7.82e-4 6.73 2.39 7.7 5.84 0.202 0.702 0.303 1.43 0.3 2.16z" fill="#ffc431"/></g><g transform="matrix(.671 0 0 .671 68.6 -241)"><title>background</title><rect id="canvas_background" x="-1" y="-1" width="514" height="514" fill="none"/><g id="canvasGrid" x="0" y="0" width="100%" height="100%" display="none" overflow="visible"><rect width="100%" height="100%" fill="url(#gridpattern)" stroke-width="0"/></g></g><g transform="matrix(.0496 -.025 -.025 -.0496 1121 981)" clip-rule="evenodd" fill-rule="evenodd" image-rendering="optimizeQuality" shape-rendering="geometricPrecision"><g stroke-width="24.7"><path d="m-3053 7920c55 0 142-1.48 247-3.7-300-5.68-752-16-1053-9.87 331 4.2 668 13.6 806 13.6z" fill="#60b7ff"/><path d="m-1753 7906c-301-6.17-753 4.2-1053 9.87 105 2.22 192 3.7 247 3.7 138 0 475-9.38 806-13.6z" fill="#60b7ff"/><path d="m-1519 18583-2087 2.42v781l2087-2.42z" fill="#c4e2ff"/><path d="m-3606 19331h2087v-361h-2087z" fill="#b3dafe"/><path d="m-479 10923c-47 619-21.6 1243 108 1851 102 477 131 1036 131 1522h-2319-2317c0-486 26.6-1045 128-1522 130-608 155-1232 108-1851-55.5-729-274-1434-267-2162 3.95-452 243-947 754-1014 272-36 1319 0 1594 0 275 0 1322-36 1594 0 511 67.7 750 562 754 1014 6.37 728-212 1432-267 2162z" fill="#fcd4d4"/><path d="m-212 8762c-4.05-452-243-947-754-1014-131-17.3-442-18-760-14 108 2.3 196 6.59 252 14 511 67.5 750 562 754 1014 6.34 728-212 1432-267 2162-46.9 619-21.6 1243 108 1851 102 477 130 1036 130 1522h508c0-486-28.7-1045-130-1522-130-608-155-1232-108-1851 55.6-729 274-1434 267-2162z" fill="#faa"/><path d="m-1361 19331h-2397c-72.2 0-131 58.5-131 131v777c0 72.2 58.5 131 131 131h2397c72.2 0 131-58.5 131-131v-777c0-72.2-58.5-131-131-131z" fill="#f66"/><path d="m-240 16812-1278 1800h-2087l-1268-1800-3.87-5.51v-68.4h4636z" fill="#fcd4d4"/><path d="m-240 16812h-509l-1276 1800h507z" fill="#faa"/><path d="m-240 14225h-4636v2581l4636 5.56z" fill="#0593fc"/><path d="m-749 16812h509v-2587h-509z" fill="#0182fc"/></g><g stroke="null"><g transform="matrix(24.7 0 0 -24.7 -8879 20370)"><path d="m286 257c-23.4-2.44-41.4-14.9-40-27.8 1.34-12.9 21.4-21.4 44.9-19 23.4 2.44 51.2 17.7 50 28.9-1.16 11.2-31.5 20.4-54.9 17.9z" fill="#5eac24"/><path d="m290 210c-23.4-2.44-43.5 6.06-44.9 19l25.9-4.78c14.4-2.64 29.2-1.18 42.7 4.21l26.2 10.4c1.16-11.2-26.6-26.4-50-28.9z" fill="#4e901e"/><path d="m322 240-74.8-7.79c-1.68-0.175-2.9-1.68-2.73-3.36s1.68-2.9 3.36-2.73l74.8 7.79c1.68 0.175 2.9 1.68 2.73 3.36-0.163 1.57-1.38 2.9-3.36 2.73z" fill="#47821c"/><path d="m295 232c-19.7-12.9-41.5-14.6-48.6-3.73s3.08 30.1 22.8 43.1c19.7 12.9 50.8 18.6 57 9.25 6.16-9.4-11.5-35.7-31.2-48.6z" fill="#6dc82a"/><path d="m269 271c-19.7-12.9-29.9-32.2-22.8-43.1l18.4 23.6c7.91 10.1 18.9 17.4 31.3 20.7l30 8.01c-6.16 9.4-37.3 3.68-57-9.25z" fill="#5eac24"/><path d="m313 268-20.6-13.5 9.13-1.74c1.66-0.316 2.75-1.92 2.43-3.58-0.316-1.66-1.92-2.75-3.58-2.43l-15.4 2.92-11-7.23 9.13-1.74c1.66-0.316 2.75-1.92 2.43-3.58-0.316-1.66-1.92-2.75-3.58-2.43l-15.4 2.92-16.6-10.9c-1.41-0.927-3.31-0.532-4.24 0.881-0.927 1.41-0.532 3.31 0.881 4.24l16.6 10.9 3.44 15.2c0.775 3.02 3.43 2.36 3.66 2.31 1.65-0.372 2.68-2.01 2.31-3.66l-2.05-9.07 11 7.23 3.44 15.2c0.776 2.99 3.43 2.36 3.66 2.31 1.65-0.372 2.68-2.01 2.31-3.66l-2.05-9.07 20.6 13.5c2.08 1.16 3.65 0.0148 4.24-0.881 0.927-1.41 0.533-3.31-0.88-4.24z" fill="#47821c"/><path d="m223 257c23.4-2.44 41.4-14.9 40-27.8-1.34-12.9-21.4-21.4-44.9-19-23.4 2.44-51.2 17.7-50 28.9 1.16 11.2 31.5 20.4 54.9 17.9z" fill="#91dc5a"/><path d="m219 210c23.4-2.44 43.5 6.06 44.9 19l-29.1-6.39c-13.8-3.03-28.3-1.4-41.1 4.63l-24.7 11.6c-1.16-11.2 26.6-26.4 50-28.9z" fill="#6dc82a"/><path d="m214 232c19.7-12.9 41.5-14.6 48.6-3.73s-3.08 30.1-22.8 43.1c-19.7 12.9-50.8 18.6-57 9.25s11.5-35.7 31.2-48.6z" fill="#b6e892"/><path d="m240 271c19.7-12.9 29.9-32.2 22.8-43.1l-13.1 18.1c-9.72 13.5-23.8 23.1-39.9 27.3l-26.8 6.91c6.16 9.4 37.3 3.68 57-9.25z" fill="#91dc5a"/><g transform="matrix(.336 0 0 .336 -463 -552)" fill="#47821c"><path d="m1926 2352c-0.521-5.01 3.12-9.49 8.12-10l223-23.2c5.01-0.521 9.49 3.12 10 8.12s-3.12 9.49-8.12 10l-223 23.2c-7.25 0.46-9.52-3.44-10-8.12z"/><path d="m2164 2323c-2.76-4.21-8.41-5.39-12.6-2.62l-49.3 32.3-45.7-8.7c-4.94-0.943-9.72 2.3-10.7 7.25-0.942 4.94 2.3 9.72 7.25 10.7l27.2 5.18-32.9 21.5-45.7-8.7c-4.94-0.942-9.72 2.3-10.7 7.25-0.942 4.94 2.3 9.72 7.25 10.7l27.2 5.18-61.3 40.2c-4.21 2.76-5.38 8.41-2.62 12.6 1.75 2.67 7.61 5.18 12.6 2.62l61.3-40.2-6.1 27c-1.11 4.91 1.97 9.79 6.88 10.9 0.676 0.152 8.59 1.86 10.9-6.88l10.2-45.4 32.9-21.5-6.1 27c-1.11 4.91 1.97 9.79 6.88 10.9 0.676 0.152 9.26 1.24 10.9-6.88l10.2-45.4 49.3-32.3c4.21-2.76 5.39-8.41 2.63-12.6z"/></g><path d="m317 161s3.57-29.4-25-24.2c-2.65 0.482-5.35-0.498-7.14-2.52-6.15-6.94-21.9-19.3-39.1 10.4-0.81 0.22 37.8 28.6 37.8 28.6z" fill="#c70024"/><g transform="matrix(.336 0 0 .336 -463 -552)" fill="#d80027"><path d="m1952 2124s-10.6-87.6 74.6-72.1c7.9 1.44 15.9-1.48 21.3-7.5 18.3-20.7 65.3-57.4 116 30.8 2.41 0.654-113 85.1-113 85.1z"/><path d="m2235 2123s53.8-26.7 113-5.54c9.34 3.34 13.5 14.2 8.87 22.9-12.5 23.3-33.6 71.1-32.3 126 1.93 77.7-101 155-204 70.5 1.92-2.78 114-214 114-214z"/></g><path d="m297 157c-0.658 7.01-0.563 17.2 3.99 24.7 7.6 12.4 16.8 48.2-16.2 62.5-10.9 1.41-23.4-1.76-35.9-12.1 0.644-0.933 38.4-71.9 38.4-71.9s3.76-1.87 9.74-3.23z" fill="#c70024"/><path d="m222 160s-18.1-8.98-38-1.86c-3.14 1.12-4.55 4.76-2.98 7.7 4.18 7.83 11.3 23.9 10.8 42.4-0.649 26.1 33.8 52.2 68.5 23.7-0.643-0.934-38.4-71.9-38.4-71.9z" fill="#ff0c38"/><path d="m212 157c0.658 7.01 0.563 17.2-3.99 24.7-7.6 12.4-16.8 48.2 16.2 62.5 10.9 1.41 23.4-1.76 35.9-12.1-0.644-0.933-38.4-71.9-38.4-71.9s-3.76-1.87-9.74-3.23z" fill="#d80027"/><path d="m288 148s-21.5-27.3-49.2 18.6c0.211 0.156 19.1 15.2 19.1 15.2z" fill="#ff0c38"/><path d="m239 167c1.18 0.931 19.1 15.2 19.1 15.2l30.1-33.8s-0.988-1.25-2.81-2.77h-1e-3s-23.6-5.79-46.3 21.5z" fill="#d80027"/><path d="m221 148s21.5-27.3 49.2 18.6c-0.211 0.156-19.1 15.2-19.1 15.2z" fill="#ff3f62"/><path d="m223 151 27.6 31s18.9-15.1 19.1-15.2c-1.77-2.94-3.52-5.58-5.23-7.95-2.77-2.7-16.7-14.6-41.5-7.87z" fill="#ff0c38"/><path d="m292 187c-5.39-9.52-2.88-24.2-2.88-24.2l-6.56-7.05-28.3 26.7-28.3-26.7-6.56 7.05s2.51 14.7-2.88 24.2c-6.18 10.9-10.4 45.9 37.8 45.9 48.2 0 44-35 37.8-45.9z" fill="#ff3f62"/><path d="m265 173-10.3 9.68-28.3-26.7-6.56 7.05s2.51 14.7-2.88 24.2c-6.18 10.9-10.4 45.9 37.8 45.9 11.9 0 20.6-2.14 26.9-5.52-2.28-25.1-8.76-42.5-16.6-54.6z" fill="#ff0c38"/><path d="m293 143c-23.9 6.08-36.3 25.5-42.1 39l7.67 10.4c7.84-2.91 14.3-6.81 19.5-11.2 2.99-2.49 4.46-6.37 3.93-10.2l-0.982-7.11 4.7-3.4e-4c4.44-3.4e-4 8.5-2.59 10.3-6.64 1.31-2.91 2.28-5.61 3-7.91 1.17-3.75-2.23-7.37-6.04-6.4z" fill="#ff728b"/><path d="m260 166c-3.99 5.48-6.92 11.1-9.01 15.9l7.67 10.4c4.94-1.83 9.32-4.07 13.2-6.56-3.48-8.11-7.57-14.6-11.9-19.8z" fill="#ff3f62"/><path d="m264 196-7.34-14.8-1.66 1.57-28.3-26.7-6.56 7.05s2.51 14.7-2.88 24.2c-6.18 10.9-10.4 45.9 37.8 45.9 4.49 0 8.53-0.305 12.2-0.866 1.33-17.9-3.15-36.4-3.15-36.4z" fill="#ff728b"/><path d="m245 232c-9.51-9.28-14.5-25.3-10.3-43 2.09-8.7 1.94-17.3 0.724-24.9l-9.25-8.72-6.56 7.05s2.51 14.7-2.88 24.2c-5.74 10.1-9.8 41 28.2 45.4z" fill="#ff3f62"/><path d="m211 149c0.717 2.31 1.69 5 3 7.91 1.82 4.06 5.88 6.64 10.3 6.64l4.7 3.3e-4 -0.982 7.11c-0.532 3.86 0.937 7.73 3.93 10.2 7.75 6.46 18.1 11.9 31.8 14.6 0 0-8.69-43.3-46.7-52.9-3.81-0.967-7.2 2.65-6.04 6.4z" fill="#ffa5b5"/></g><circle transform="scale(1,-1)" cx="-2461" cy="-10977" r="210" fill="#fff" stroke-opacity="null" stroke-width="24.7"/><circle transform="scale(1,-1)" cx="-1548" cy="-1e4" r="160" fill="#fff" stroke-opacity="null" stroke-width="24.7"/></g></g><path d="m893 204c-31.3 8.27-27.7 68.1-89.2 163-35.9 55.1-124 97.3-122 116 3.62 34.6 134-23.3 194-80.6 63.2-60.4 47.3-206 16.9-198" fill="url(#linearGradient19350)"/><path d="m660 479c-3.6 0.974-13.6 12.9-11 15 2.59 2.02 7.68-6.57 10.3-7.31 0 0-10.4 10.3-7.57 12.8 6.67 5.91 10.4 1.34 14.4-1.72 4.03-3.05 3.2-1.39 3.2-1.39s-3.94 4.21-6.27 6.32c-1.04 0.959-0.989 4.72 5.31 1.8 4.7-2.18 5.56-1.58 13.3-6.46 0 0 8.55-3.68 14.3-10.8 3.16-3.93 3.34-7.14-2.92-11.7-6.27-4.56-33 3.52-33 3.52" fill="#ff6161"/><g transform="matrix(.0724 -.0221 .0219 .07 384 133)"><path d="m6250 2651c-63.7 55-160 48.2-215-15.1-0.22-0.22-0.414-0.464-0.611-0.682l-66-76.5c-0.902-1.05-1.68-2.17-2.29-3.37-1.73-3.17-2.46-6.73-2.17-10.2 0.317-4.8 2.49-9.41 6.39-12.8 22.9-19.8 50-31.6 78-35.6 9.93-1.44 19.9-1.88 29.9-1.37 40.2 2.07 79.5 19.9 108 52.8l66.1 76.5c6.73 7.78 5.88 19.5-1.93 26.3z" fill="#7e3a1a" stroke-width="2.37"/><g fill="#5a2a13" stroke-width="2.37"><path d="m6121 2627c-4.55 0-9.12-1.69-12.7-5.09l-48.2-46.3c-7.29-7-7.53-18.6-0.535-25.9 6.99-7.29 18.6-7.53 25.9-0.535l48.2 46.3c7.29 7 7.53 18.6 0.535 25.9-3.59 3.74-8.39 5.63-13.2 5.63z"/><path d="m6198 2563c-26.4 14.5-56.7 22.6-88.5 22.6-15 0-30-1.85-44.7-5.51l-5.98-1.46-92.1-22.9c-0.537-0.121-1.07-0.268-1.59-0.438-1.73-3.17-2.46-6.73-2.17-10.2 0.317-4.8 2.49-9.41 6.39-12.8 22.9-19.8 50-31.6 78-35.6 9.93-1.44 19.9-1.88 29.9-1.37 40.2 2.07 79.5 19.9 108 52.8z"/><path d="m6057 2524c7.36 12.9 11.3 27.6 11.3 42.9 0 27.6-13.3 53-34.4 69-0.22-0.22-0.414-0.464-0.611-0.682l-66-76.5c-3.37-3.9-4.85-8.8-4.46-13.6 0.317-4.8 2.49-9.41 6.39-12.8 22.9-19.8 50-31.6 78-35.6 9.93-1.44 19.9-1.88 29.9-1.37-6.24 9.85-12.9 19.4-20 28.6z"/></g><path d="m6258 2438c-20.4 82-103 132-185 112l-6.02-1.49-92-22.9c-5-1.24-9.02-4.39-11.5-8.51-2.49-4.1-3.39-9.12-2.15-14.1 7.32-29.4 22.7-54.7 43.2-74 31.6-29.9 75.4-45.8 121-41.2 7.14 0.732 14.3 1.97 21.5 3.75l98.1 24.4c10 2.49 16.1 12.6 13.6 22.6z" fill="url(#linearGradient6741)" stroke-width="2.37"/><g transform="translate(-527 -4.58)" fill="#713417" stroke-width="2.37">
	<path d="m6583 2498c-8.94 0-16.8-6.56-18.1-15.7-1.45-10 5.49-19.3 15.5-20.7l65.1-9.42c9.99-1.46 19.3 5.49 20.7 15.5 1.45 10-5.49 19.3-15.5 20.7l-65.1 9.42c-0.888 0.13-1.77 0.192-2.64 0.192z"/>
	<path d="m6585 2528c4.27 7.44 7.39 15.5 9.24 23.9l-92-22.9c-5-1.24-9.02-4.39-11.5-8.51-2.49-4.1-3.39-9.12-2.15-14.1 7.32-29.4 22.7-54.7 43.2-74 31.6-29.9 75.4-45.8 121-41.2-13.9 51-36.6 97-67.4 137z"/>
</g><path d="m6097 2105c-41.4-159-144-286-353-286-209 0-312 126-353 286 32.6-179 131-330 353-330s321 150 353 330z" fill="#37cc82" stroke-width="2.37"/><g><path d="m5743 1776c-283 0-366 245-366 484 0 111 35.3 200 93.3 264-12.7 10.1-20.8 25.6-20.8 43 0 25.1 16.8 46.2 39.7 52.8-1.99 20.2 4.75 41.1 20.2 56.6 129 129 338 129 467 0 15.5-15.5 22.2-36.4 20.2-56.6 22.9-6.58 39.7-27.7 39.7-52.8 0-17.4-8.15-33-20.8-43 58-64.2 93.3-154 93.3-264 0-238-82.8-484-366-484zm0 231c72.8 0 144 24.9 202 70 34.7 27.4 54.6 68.4 54.6 113v59c0 83-25.8 161-72.6 221-48.5 61.4-114 95.3-184 95.3-69.9 0-135-33.8-184-95.3-46.8-59.2-72.6-138-72.6-221v-59c0-44.2 19.9-85.3 54.6-113 57.1-45.1 129-70 202-70z" fill="url(#linearGradient6733)" stroke-width="2.37"/><path d="m6086 2056c-49.8-135-153-236-342-236-189 0-293 101-342 236 41.1-157 141-281 342-281 201 0 301 124 342 281z" fill="#b15225" stroke-width="2.37"/><g transform="matrix(2.37 0 0 2.37 5212 1776)" fill="#713417">
	<path d="m236 374c-53.7 0-81.4-26.8-82.6-28.1-3.03-3-3.05-7.9-0.042-10.9 3-3.02 7.87-3.05 10.9-0.064 0.128 0.124 7.26 6.96 21 13.2 12.7 5.76 33.8 12.2 62.3 9.98 4.26-0.322 7.97 2.86 8.29 7.12 0.324 4.26-2.86 7.97-7.12 8.29-4.39 0.334-8.63 0.489-12.7 0.489z"/>
	<path d="m213 395c-22.8 0-44.3-12.9-45.2-13.5-3.65-2.22-4.81-6.97-2.59-10.6 2.21-3.64 6.96-4.81 10.6-2.6 0.195 0.119 19.8 11.8 38.6 11.2 4.22-0.154 7.83 3.22 7.96 7.48 0.132 4.26-3.22 7.83-7.48 7.96-0.605 0.02-1.21 0.029-1.82 0.029z"/>
</g></g></g></svg>
