<svg width="1080" height="1080" version="1.1" xmlns="http://www.w3.org/2000/svg" xmlns:xlink="http://www.w3.org/1999/xlink"><defs><linearGradient id="linearGradient42650"><stop stop-color="#9a4121" offset="0"/><stop stop-color="#7e3a1a" offset="1"/></linearGradient><linearGradient id="linearGradient73427" x1="5548" x2="5537" y1="5735" y2="5702" gradientTransform="matrix(1.01 .106 -.106 1.01 555 -645)" gradientUnits="userSpaceOnUse" xlink:href="#linearGradient42650"/><linearGradient id="linearGradient73435" x1="5459" x2="5492" y1="5718" y2="5718" gradientTransform="matrix(1.01 .106 -.106 1.01 555 -645)" gradientUnits="userSpaceOnUse" xlink:href="#linearGradient42650"/><linearGradient id="linearGradient73478" x1="5488" x2="5516" y1="5858" y2="5858" gradientTransform="matrix(1.01 .106 -.106 1.01 555 -645)" gradientUnits="userSpaceOnUse"><stop stop-color="#1e1240" offset="0"/><stop stop-color="#1e1240" stop-opacity="0" offset="1"/></linearGradient><linearGradient id="linearGradient74734" x1="5312" x2="5310" y1="5799" y2="5946" gradientTransform="matrix(1.14 0 0 1.14 -990 -783)" gradientUnits="userSpaceOnUse" xlink:href="#linearGradient42650"/><linearGradient id="linearGradient74742" x1="5209" x2="5203" y1="5802" y2="5952" gradientTransform="matrix(1.14 0 0 1.14 -990 -783)" gradientUnits="userSpaceOnUse" xlink:href="#linearGradient42650"/></defs><g stroke="null"><title>Layer 1</title><g stroke="null"><g transform="matrix(2.09 0 0 2.09 -10692 -11471)" stroke="null"><g transform="translate(278 -7.98)"><g stroke="none"><path d="m4838 5795 86-27.6 151 13.4-65 28.9-172-14.7" fill="#9a4121"/><path d="m4838 5795 16.6 174 149 12.6 6.79-172-172-14.7" fill="url(#linearGradient74742)"/><path d="m5e3 5981 56.5-26.1 15.3-175-65 28.9-6.79 172" fill="url(#linearGradient74734)"/><path d="m4890 5830 0.102-30.2 52.5 4.49-1.7 29.8" fill="#ce932c"/><path d="m4942 5804 63.3-29.3-51.1-4.53-64.7 29.3 52.5 4.49" fill="#efbd41"/><path d="m5031 5800-1.21 29.2 24.5-12.5 2.96-28.4-26.3 11.7" fill="#b56c2a"/><path d="m5031 5800-165-14.5 34.7-11.1 156 13.9-26.3 11.7" fill="#efbd41"/></g><g transform="matrix(.619 0 0 .619 4435 5446)" fill="#f4e8d7" stroke-width=".271"><path d="m810 674c-5.76-7.82 35.9-29.5 49.5-28.7 13.6 0.756 37.1 106 1.93 111-15.1 1.98-95.1 1.36-154-12-12.4-2.78-10.8-33-2.33-43.9 11.4-14.7 34.5-8.45 50-1.51 34.5 15.5 57 27.4 67.5 13.6 8.2-10.7-6.56-30.6-12.3-38.4z"/><ellipse transform="rotate(4.11)" cx="852" cy="735" rx="26.7" ry="25.9"/></g></g><g><g stroke="none"><path d="m5487 5946s-0.782 9.08-2.57 11.2c0.477 0.854 1.36 1.8 3.11 2.21 2 0.473 5.92 0.886 9.37 0.885-0.189-3.68 0.963-9.96 1.25-12l-11.2-2.34" fill="#fcb431"/><path d="m5490 5929s-0.071 9.11-1.68 11.4c0.529 0.822 1.5 1.69 3.28 1.96 2.03 0.314 5.97 0.42 9.41 0.146-0.476-3.66 0.18-10 0.309-12l-11.3-1.46" fill="#fff"/><path d="m5594 5913s6.97 5.87 7.68 8.55c0.973 0.102 2.25-0.077 3.6-1.27 1.54-1.36 4.13-4.33 6.12-7.15-3.12-1.97-7.59-6.52-9.06-7.91l-8.34 7.78" fill="#fcb431"/><path d="m5609 5925c-4.24 4.5-9.7 8.83-12.4 10.9 0.188 0.329 0.416 0.664 0.727 1.02 1.48 1.67 18.3-13.4 19.8-17.5 0.383-1.11-0.049-2.3-0.957-3.39-1.67 2.49-4.1 5.78-7.07 8.94" fill="#614cd4"/><path d="m5609 5925c2.98-3.16 5.4-6.45 7.07-8.94-0.859-1.03-2.15-1.97-3.58-2.65-0.312-0.148-0.652-0.348-1-0.57-1.98 2.82-4.58 5.79-6.12 7.15-1.35 1.19-2.63 1.39-3.6 1.27 0.025 0.061 0.033 0.119 0.043 0.178 0.185 1.13-0.666 2.85-1.82 5.25-1.44 3.7-5.35 5.94-3.44 9.25 2.75-2.1 8.21-6.43 12.4-10.9" fill="#1e1240"/><path d="m5508 5708s-31.6 16.1-30.8 22c0.748 5.92 28.7 15.9 31.6 15 2.91-0.928-0.757-37-0.757-37" fill="url(#linearGradient73435)"/><path d="m5524 5787s6.63 60.2 11.1 70.7c7.38 17.3 43 61.7 63.6 62.2 2.28 0.054 5.42-3.01 6.78-3.47 2.26-0.776 3.34-2.2 3.58-4.05 0.934-7.09-10.4-20.4-15.1-27-3.62-5.2-27.1-32-28.2-42.8-0.627-6 0.998-50.5-3.99-58.7-4.99-8.23-37.8 3.13-37.8 3.13" fill="#311e69"/><path d="m5499 5800s-23.3 55.4-23.6 75c-0.339 19.6 1.33 72.1 7.4 78.1 2.67 2.64 10.6 3.29 13.2 2.08 2.99-1.42 5.02-3.94 6.07-7.08 3.35-10.1 2.24-73.4 4.12-77.4 1.88-3.98 28.2-55.8 25.2-67.3-2.97-11.6-32.3-3.38-32.3-3.38" fill="#311e69"/><path d="m5594 5885c-3.62-5.2-27.1-32-28.2-42.8-0.581-5.56 0.77-44.1-2.99-56.3l-4.29-2.97-7.67-2.34c-2.64 0.157-5.5 0.569-8.34 1.11 2.33 7.81 7.41 24.9 9.45 32.2 2.68 9.61-3.42 19-1.51 28.2 1.91 9.21 10.7 15.1 17.3 23.1 6.55 7.91 7.79 23.3 16.5 33.2 3.96 4.48 13.6 11.4 23.3 16.6 6.53-5.43-8.07-22.3-13.5-30" fill="#1e1240"/><path d="m5504 5930c3.35-10.1 2.24-73.4 4.12-77.4 1.2-2.54 12.3-24.5 19.5-43.2-0.141-1.05-0.374-1.91-0.728-2.49-2.74-4.5-15.3-2.56-18.9 7.01-3.64 9.57-4.79 25.8-8.77 31-3.98 5.11-5.95 10.2-6.41 22.5-0.457 12.2 0.908 37.8-0.708 45.7-1.61 7.93 6.17 22.2 8.4 22.4 1.64-1.42 2.84-3.28 3.56-5.45" fill="url(#linearGradient73478)"/><path d="m5490 5809c9.52-25.2 12.1-56 11.4-64.7-0.588-8.2-3.74-31.3 9.51-38.6 23.1-12.7 55.9-2.36 61.7 17.4 1.91 6.5-4.69 23.3-9.13 33.4-2.3 5.24-2.82 11.1-1.46 16.6 2.66 10.9 6.69 29.9 6.36 44.9-8.47 4.17-49.9 10.5-78.4-9.11" fill="#9a4121"/><path d="m5398 5693c-9.83 14.6-12.4 30.2-5.66 34.7l150 101c6.7 4.49 20.1-3.73 29.9-18.4 9.83-14.6 12.4-30.2 5.66-34.7l-150-101c-6.7-4.5-20.1 3.73-29.9 18.4" fill="#70ba03"/><path d="m5427 5674c6.11 4.1 3.13 19.2-6.65 33.8-9.79 14.6-22.7 23.1-28.8 19-6.11-4.1-3.13-19.2 6.65-33.8 9.78-14.6 22.7-23.1 28.8-19" fill="#235800"/></g><path d="m5561 5766-6.25-3.12c5.58 4.2 9.83 10.5 11.5 17.5 2.66 11.3-10.2 18.9-19.9 12.9l-113-69.9c-6.45-4-14.3-2.15-18.3 4.3l-6.66 10.8 119 80.3c6.45 3.99 13.9 12.2 21 11.4 9.78-1.38 20.6-13.2 25.2-20.8 4.66-7.53 10.3-20.2 7.18-29.6-1.64-6.96-13.5-9.89-20-13.9z" fill="#338000" stroke-width=".768"/></g><g fill="#ff6161" stroke="none"><path d="m5553 5723c-5.09 19.3 5.63 40.1 3.77 53.3-1.6 11.4-22.1 37.5-19 41.9 5.78 8.04 24.1-9.35 30.8-17.9 20.5-26.1 8.66-55.7 4.49-69.5-5.5-18.2-16.2-22.6-20.1-7.87"/><path d="m5546 5819s-2.52 6.49-8.37 8.1c-5.2 1.43-9.87 0.314-10.8-3.05-0.749-2.8 7.19-3.28 8.69-5.59 1.5-2.32 2.93-6.58 6.12-5.29 3.19 1.29 6.15 3.33 4.32 5.82"/><path d="m5539 5814s-5.47 0.707-7.67 2.03c-2.2 1.32-5.51-0.104-4.96 1.56 0.55 1.66 3.62 2.35 5 1.75 1.38-0.604 3.72 2.8 5.79 1.68 2.06-1.12 4.63-7.3 1.85-7.01"/></g><g stroke="none"><path d="m5574 5730c-7.58-20.5-17.2-21.4-21.1-6.69-2.11 7.98-1.82 18.5-0.765 28.1 5.32 0.372 17.3 0.874 26.6-4.44-1.34-6.06-3.35-13.2-4.73-16.9" fill="url(#linearGradient73427)"/><path d="m5537 5693 1.67 10.6c-0.23 1.46-8.75 4.18-10.7 1.95-0.581-0.653-0.16-2.02 0.728-3.42l5.15-7.6 3.18-1.53" fill="#ff6161"/><path d="m5453 5772c-1.51-0.048-2.94-0.7-4.05-1.72-1.36-1.24-3.25-3.17-3.49-4.45-0.384-2.03 0.784-6.73 1.31-6.09 0.527 0.645 0.288 3.5 0.288 3.5s1.48-3.14 2.58-3.99c1.1-0.85 2.69 0.904 2.99 2.07 0.296 1.16 3.21 7.59 2.61 9.61-0.263 0.884-1.23 1.1-2.23 1.07" fill="#ff6161"/><path d="m5487 5965c-6.17-0.39-13-1.83-16.4-2.61-0.131 0.355-0.249 0.746-0.32 1.21-0.339 2.2 22 5.57 26.1 4.04 1.1-0.414 1.74-1.51 2-2.9-2.98 0.299-7.06 0.532-11.4 0.26" fill="#614cd4"/><path d="m5487 5965c4.33 0.272 8.41 0.039 11.4-0.26 0.247-1.32 0.149-2.91-0.244-4.45-0.087-0.333-0.15-0.722-0.203-1.14-3.44 0.274-7.38 0.168-9.41-0.147-1.78-0.274-2.75-1.14-3.28-1.96-0.037 0.052-0.075 0.102-0.111 0.149-0.75 0.864-2.62 1.3-5.2 1.95-3.77 1.25-7.98-0.332-9.32 3.26 3.37 0.782 10.2 2.22 16.4 2.61" fill="#1e1240"/></g><rect transform="rotate(122)" x="1986" y="-7602" width="24.7" height="37.1" fill="#b0c4d8" stroke-width=".759"/><g stroke-width=".759"><path d="m5406 5698 5.31 3.29 6.58-10.6-31.9-19.7-13.2 21.2 15.9 9.86c3.95-6.37 10.8-7.99 17.2-4.04z" fill="#99b4cd"/><path d="m5243 5487c-71.4 16.8-115 87.9-98.7 159 16.8 71.4 87.9 115 159 98.7 71.4-16.8 115-87.9 98.7-159-16.8-71.4-87.9-115-159-98.7zm54.6 232c-56.7 13.3-114-22.2-127-78.9-13.3-56.7 22.2-114 78.9-127 56.7-13.3 114 22.2 127 78.9 13.3 56.7-22.2 114-78.9 127z" fill="#c4d7e5"/><circle transform="rotate(-13.2)" cx="3848" cy="6674" r="106" fill="#70b7e5"/><path d="m5225 5640c-3.38-33.7 16.3-65.5 48-77.5l0.86-0.202c14.2-5.16 10.2-26-4.14-25.3-9 0.302-17.6 2.32-26 5.2-32.3 13-52.7 46-49.3 79.6 0.302 9 3.38 18.3 6.92 25.6 6.02 14 26.2 7.44 24.5-7.58-0.657 1.06-0.86 0.201-0.86 0.201z" fill="#92c5eb"/><path d="m5181 5647c-13.3-56.7 22.2-114 78.9-127 26.7-6.27 52.3-1.41 74.8 9.62-24-17-54.5-23.5-85.5-16.2-56.7 13.3-92.3 70.7-78.9 127 7.28 31 27.5 55.2 52.6 69.3-19.9-15.3-35.7-36.1-42-62.7z" fill="#4c9cd6"/><path d="m5303 5745c71.4-16.8 115-87.9 98.7-159-4.3 1.01-7.79 5.46-6.58 10.6 5.15 29.6-1.48 59.3-16.6 83.7-14.9 25.3-39.4 44.7-68.9 54.3-5.16 1.21-7.59 6.32-6.58 10.6z" fill="#b0c9db"/><path d="m5243 5487c-71.4 16.8-115 87.9-98.7 159 4.3-1.01 7.79-5.46 6.58-10.6-4.95-28.8 1.02-57.4 14.6-80.6 15.6-26.3 40.5-47.6 70.9-57.5 5.16-1.21 7.59-6.32 6.58-10.6z" fill="#e2e7f0"/></g><g><path d="m5462 5727c-0.86 0.202-2.58 0.606-3.64-0.051l-26.5-16.4c-2.12-1.32-2.73-3.89-1.42-6.02 1.32-2.12 3.89-2.73 6.02-1.41l26.5 16.4c2.12 1.32 2.73 3.89 1.41 6.02 0.203 0.86-1.52 1.26-2.38 1.47z" fill="#3c9800" stroke-width=".759"/><g stroke="none"><path d="m5532 5685s-4.62-6.38 2.03-8.65c3.58-1.22 7.66 4.75 7.66 4.75s3.23 1.42 3.83 5.07c0.609 3.71-4.06 8.96-4.06 8.96s-9.62-5.8-9.46-10.1"/><path d="m5539 5687 1.17 7.05c0.198 2.35-1.51 4.44-3.85 4.7-1.88 0.212-3.04 0.034-5.3-0.601-1.88-0.526-2.58-2.52-2.2-5.03 0.502-3.26 1.89-6.13 2.72-7.62 1.89-3.4 6.37-3.04 7.47 1.5" fill="#ff6161"/><path d="m5540 5694-1.17-7.05c-0.134-0.556-0.318-1.05-0.543-1.48-0.11 1.36-0.541 4.27-0.984 4.7-1.13 1.12-0.88-0.028-3.12-0.444-1.43-0.264-3.5 0.095-4.83 0.392-0.29 0.925-0.546 1.92-0.705 2.95-0.386 2.51 0.314 4.51 2.2 5.03 2.26 0.635 3.43 0.813 5.3 0.601 2.35-0.26 4.05-2.35 3.85-4.7" fill="#1a1a1a"/><path d="m5534 5691s-1.65 0.15-3.85-0.476c0 0-0.285 1.46 0.524 2.1 0.808 0.643 2.53 0.04 3.33-1.62" fill="#fff"/><path d="m5539 5690c0.159-0.411 0.252-0.845 0.318-1.28 0.13-0.833 0.513-2.04 1.66-1.24 1.66 1.16 1.06 5.21-1.05 5.23-1.57 0.013-1.32-1.66-0.926-2.71" fill="#ff6161"/></g></g></g></g><g stroke="null"><g transform="rotate(-1.62 -3581 -3968) matrix(2.18 0 0 2.18 -3581 -3968)" stroke="null"><title>background</title><g display="none" stroke="null"><rect x="1565" y="1858" width="512" height="512" fill="url(#gridpattern)" stroke="null" stroke-width="0"/></g></g></g></g></svg>
