<svg width="1080" height="1080" version="1.1" xmlns="http://www.w3.org/2000/svg" xmlns:xlink="http://www.w3.org/1999/xlink"><defs><linearGradient id="linearGradient42650"><stop stop-color="#9a4121" offset="0"/><stop stop-color="#7e3a1a" offset="1"/></linearGradient><linearGradient id="linearGradient13080" x1="827.03" x2="907.35" y1="375.93" y2="375.93" gradientTransform="matrix(.82386 .087198 -.087198 .82386 276 184.32)" gradientUnits="userSpaceOnUse" xlink:href="#linearGradient42650"/><linearGradient id="linearGradient13088" x1="619.27" x2="713.69" y1="373.22" y2="373.22" gradientTransform="matrix(.82386 .087198 -.087198 .82386 276 184.32)" gradientUnits="userSpaceOnUse" xlink:href="#linearGradient42650"/><linearGradient id="linearGradient1803" x1="216.26" x2="313.8" y1="89.033" y2="89.033" gradientUnits="userSpaceOnUse"><stop style="stop-color:#ffe084" offset="0"/><stop style="stop-color:#fdd089" offset=".37929"/><stop style="stop-color:#f9a894" offset=".70177"/><stop style="stop-color:#f9a894" offset="1"/></linearGradient><linearGradient id="linearGradient1813" x1="51.741" x2="499.58" y1="40.603" y2="375.79" gradientTransform="matrix(-1 0 0 1 512 0)" gradientUnits="userSpaceOnUse"><stop style="stop-color:#9a4121" offset="0"/><stop style="stop-color:#9a4121" offset=".54858"/><stop style="stop-color:#7e3a1a" offset=".7787"/><stop style="stop-color:#7e3a1a" offset="1"/></linearGradient></defs><path d="m781.56 1024.9s-0.19417 21.192-3.9464 26.437c1.2271 1.9119 3.4772 3.9272 7.6112 4.5745 4.7153 0.7374 13.879 0.9973 21.874 0.3712-1.0961-8.5069 0.45129-23.262 0.75757-27.956l-26.296-3.4265" style="fill:#fcb431"/><path d="m781.62 1069.8c-14.353-0.9283-30.203-4.2878-38.038-6.1177-0.30642 0.8253-0.57914 1.7351-0.74619 2.8181-0.79905 5.1185 51.129 13.03 60.625 9.4754 2.5553-0.9588 4.0533-3.4971 4.6591-6.7446-6.9339 0.6861-16.424 1.2159-26.5 0.5688" style="fill:#614cd4"/><path d="m781.62 1069.8c10.076 0.6471 19.566 0.1173 26.5-0.5688 0.57753-3.0693 0.35405-6.7665-0.55214-10.36-0.19932-0.7739-0.34623-1.6805-0.46847-2.6415-7.9948 0.6261-17.159 0.3661-21.874-0.3712-4.134-0.6474-6.3841-2.6626-7.6112-4.5745-0.0887 0.1192-0.17294 0.239-0.26046 0.3441-1.7466 2.0069-6.0902 3.0242-12.094 4.5138-8.7642 2.8986-18.56-0.7971-21.677 7.5402 7.8349 1.8299 23.684 5.1894 38.038 6.1176" style="fill:#1e1240"/><path d="m1022.3 987.64s16.192 13.669 17.833 19.913c2.2584 0.2711 5.2407-0.1743 8.3783-2.9441 3.5791-3.1567 9.626-10.05 14.25-16.603-7.2481-4.5837-17.622-15.197-21.04-18.422l-19.422 18.056" style="fill:#fcb431"/><path d="m1057 1016.3c-9.874 10.457-22.574 20.51-28.983 25.378 0.4384 0.7658 0.9656 1.546 1.6885 2.3704 3.434 3.8847 42.666-31.044 45.987-40.627 0.8964-2.5735-0.1058-5.3478-2.2142-7.8914-3.8996 5.7815-9.5445 13.422-16.478 20.77" style="fill:#614cd4"/><path d="m1057 1016.3c6.9338-7.3473 12.579-14.988 16.478-20.77-1.9947-2.4029-4.9845-4.5871-8.3275-6.1798-0.7256-0.34842-1.5155-0.80843-2.3324-1.3285-4.6245 6.5529-10.671 13.446-14.25 16.603-3.1376 2.7698-6.1201 3.2164-8.3783 2.9441 0.032 0.1368 0.076 0.2796 0.099 0.4156 0.4276 2.623-1.5582 6.62-4.2446 12.192-3.3636 8.5971-12.456 13.786-8.0268 21.502 6.4092-4.8679 19.109-14.921 28.983-25.378" style="fill:#1e1240"/><path d="m823.87 510.14s-73.462 37.357-71.745 51.113c1.7215 13.762 66.628 37.075 73.384 34.921 6.7599-2.1482-1.6386-86.035-1.6386-86.035" style="fill:url(#linearGradient13088)"/><path d="m859.03 693.98s15.231 140.02 25.634 164.45c17.114 40.168 99.797 143.7 147.74 144.9 5.2941 0.1315 12.608-6.9801 15.766-8.0563 5.2553-1.7975 7.7742-5.1141 8.3484-9.413 2.1928-16.488-24.233-47.454-34.974-62.933-8.4055-12.106-62.86-74.565-65.457-99.598-1.4384-13.961 2.4859-117.35-9.0765-136.5-11.571-19.155-87.981 7.1503-87.981 7.1503" style="fill:#311e69"/><path d="m807.25 683.15s-54.269 128.83-55.116 174.37c-0.85165 45.547 2.8655 167.77 16.947 181.7 6.2018 6.1407 24.736 7.6783 30.616 4.889 6.948-3.2956 11.698-9.1442 14.139-16.452 7.8179-23.444 5.4507-170.8 9.8268-180.04 4.3802-9.2422 65.663-129.56 58.804-156.5-6.859-26.942-75.217-7.9611-75.217-7.9611" style="fill:#311e69"/><path d="m1021.5 922.93c-8.4055-12.106-62.86-74.565-65.456-99.603-1.3336-12.925 1.9351-102.56-6.7634-130.94l-9.965-6.9154-17.836-5.4757c-6.1319 0.35639-12.793 1.3047-19.405 2.5489 5.3948 18.177 17.157 57.945 21.869 74.925 6.2099 22.361-8.0138 44.203-3.6109 65.629 4.4029 21.426 24.852 35.255 40.058 53.66 15.2 18.409 18.05 54.285 38.264 77.227 9.1963 10.441 31.556 26.478 54.091 38.793 15.209-12.599-18.701-51.781-31.244-69.852" style="fill:#1e1240"/><path d="m813.84 1027.7c7.8179-23.444 5.4507-170.8 9.8268-180.04 2.7975-5.9029 28.77-57.043 45.411-100.29-0.3277-2.4409-0.86451-4.437-1.6846-5.7817-6.3578-10.474-35.529-6.0094-44.019 16.23-8.4913 22.244-11.218 60.069-20.499 71.951-9.281 11.878-13.871 23.78-14.984 52.251-1.1023 28.467 1.9875 87.825-1.7938 106.26-3.7814 18.44 14.285 51.723 19.456 52.07 3.8268-3.2924 6.6105-7.6244 8.2864-12.655" style="fill:#1e1240"/><path d="m780.3 746.66c22.212-58.467 28.223-130.07 26.788-150.5-1.341-19.068-8.6-72.844 22.244-89.692 53.783-29.381 130.04-5.3094 143.49 40.707 4.4177 15.119-10.982 54.195-21.33 77.729-5.3539 12.184-6.5928 25.78-3.4487 38.706 6.1475 25.246 15.45 69.662 14.642 104.49-19.716 9.6727-116.14 24.329-182.38-21.433" style="fill:#9a4121"/><path d="m567.38 476.42c-22.898 34.022-28.841 70.091-13.283 80.567l0.0104 4e-3 349.04 234.93 3e-3 3e-3c15.569 10.467 46.744-8.6131 69.642-42.631 22.898-34.022 28.846-70.091 13.278-80.568l-349.04-234.93c-15.563-10.481-46.743 8.6084-69.646 42.625" style="fill:#70ba03"/><path d="m634.38 432.38c14.198 9.5552 7.2172 44.762-15.585 78.642-22.807 33.879-52.801 53.599-66.994 44.045-14.198-9.5552-7.2167-44.766 15.586-78.646 22.802-33.875 52.801-53.595 66.994-44.04" style="fill:#235800"/><path d="m912.62 714.59-256.18-161.84c-14.639-9.2481-32.555-5.2048-41.801 9.434l-15.413 24.397 269.53 183.93c14.639 9.2481 30.376 26.01 46.749 24.408 23.686-2.8086 44.201-26.367 57.976-44.896 15.946-21.449 27.096-54.295 17.552-76.696-61.26-37.424-16.492 70.994-78.418 41.265z" style="fill:#338000;stroke-width:1.7537"/><path d="m927.81 546.38c-11.894 44.807 12.966 93.266 8.594 124.04-3.7631 26.461-51.624 87.039-44.246 97.335 13.405 18.715 56.083-21.671 71.697-41.479 47.822-60.668 20.323-129.44 10.663-161.52-12.738-42.301-37.644-52.518-46.708-18.375" style="fill:#ff6161"/><path d="m910.48 768.84s-5.8714 15.093-19.488 18.817c-12.09 3.3041-22.945 0.69722-25.019-7.1174-1.7314-6.5108 16.737-7.596 20.232-12.972 3.4951-5.3812 6.8353-15.286 14.259-12.275 7.4199 3.0057 14.292 7.7688 10.016 13.549" style="fill:#ff6161"/><path d="m894.54 756.59s-12.727 1.6262-17.849 4.6862c-5.1168 3.0559-12.818-0.26077-11.545 3.6 1.2733 3.8608 8.4056 5.4877 11.618 4.0838 3.2024-1.4002 8.6485 6.5235 13.45 3.9251 4.7963-2.5942 10.801-16.963 4.3262-16.295" style="fill:#ff6161"/><path d="m976.81 562c-17.566-47.734-39.936-49.764-49.001-15.621-4.923 18.557-4.2949 43.01-1.8702 65.299 12.376 0.8811 40.308 2.0887 61.821-10.248-3.1005-14.103-7.7463-30.714-10.95-39.43" style="fill:url(#linearGradient13080)"/><path d="m695.6 659.64c-3.5133-0.1192-6.8262-1.6373-9.4193-4.013-3.1526-2.8971-7.5389-7.3733-8.1002-10.354-0.88692-4.7205 1.8425-15.653 3.0659-14.156 1.2228 1.5017 0.65928 8.1318 0.65928 8.1318s3.4412-7.3023 6.0132-9.2743c2.5626-1.973 6.2567 2.1107 6.9379 4.813 0.68594 2.7028 7.4502 17.665 6.043 22.362-0.61298 2.0555-2.863 2.5606-5.1998 2.4896" style="fill:#ff6161"/><path d="m738.04 564.65c-2.097 0.46769-6.2893 1.4026-8.854-0.22668l-64.098-40.721c-5.1273-3.2573-6.53-9.5466-3.2726-14.674 3.2573-5.1272 9.5466-6.5299 14.674-3.2726l64.098 40.721c5.1272 3.2573 6.5299 9.5466 3.2726 14.674 0.46771 2.097-3.7246 3.032-5.8199 3.4993z" style="fill:#3c9800;stroke-width:1.8458"/><rect transform="rotate(128.67)" x="-8.5704" y="-774.99" width="51.92" height="77.881" style="fill:#b0c4d8;stroke-width:1.5936"/><path d="m584.29 489.87 10.237 8.1927 16.385-20.474-61.424-49.158-32.772 40.95 30.713 24.578c9.8319-12.285 24.576-13.921 36.861-4.0889z" style="fill:#99b4cd;stroke-width:1.5936"/><path d="m297.68 8.5896c-152.97 16.969-262.76 154.15-245.79 307.12 16.969 152.97 154.15 262.76 307.12 245.79 152.97-16.969 262.76-154.15 245.79-307.12-16.969-152.97-154.15-262.76-307.12-245.79zm55.199 497.62c-121.64 13.493-232.2-74.991-245.7-196.63-13.493-121.64 74.991-232.21 196.63-245.7 121.64-13.493 232.2 74.991 245.7 196.63 13.493 121.64-74.991 232.21-196.63 245.7z" style="fill:#c4d7e5;stroke-width:1.5936"/><circle transform="rotate(-6.3297)" cx="294.92" cy="319.51" r="222.52" style="fill:#70b7e5;stroke-width:1.5936"/><path d="m222.47 322.91c1.4461-71.058 50.604-132.48 119.62-149.47l1.8436-0.20451c30.923-7.1612 27.858-51.6-2.2431-53.856-18.839-1.6413-37.27 0.40324-55.496 4.2896-70.652 19.032-121.45 82.504-122.9 153.56-1.6413 18.839 2.4496 38.908 7.9769 55.087 9.0048 30.719 52.829 22.126 53.039-9.6144-1.6377 2.0464-1.8423 0.2023-1.8423 0.2023z" style="fill:#92c5eb;stroke-width:1.5936"/><path d="m127.66 325.97c-13.493-121.64 74.991-232.2 196.63-245.7 57.135-6.3378 109.35 10.259 153.58 38.936-45.658-41.578-107.7-62.681-174.05-55.321-121.64 13.493-210.12 124.06-196.63 245.7 7.36 66.35 43.39 122.06 92.121 157.7-37.672-36.867-65.309-84.176-71.647-141.31z" style="fill:#4c9cd6;stroke-width:1.5936"/><path d="m359.02 561.5c152.97-16.969 262.76-154.15 245.79-307.12-9.2149 1.0222-17.612 9.4173-16.386 20.474 3.2654 63.073-18.043 123.27-55.73 170.37-37.484 48.935-93.394 83.123-157.29 95.808-11.059 1.2267-17.409 11.259-16.387 20.474z" style="fill:#b0c9db;stroke-width:1.5936"/><path d="m297.68 8.5896c-152.97 16.969-262.76 154.15-245.79 307.12 9.2149-1.0222 17.612-9.4173 16.385-20.474-3.0594-61.229 16.61-119.38 50.816-164.22 39.122-50.983 96.466-89.061 162.2-101.95 11.059-1.2267 17.408-11.259 16.386-20.474z" style="fill:#e2e7f0;stroke-width:1.5936"/><g transform="matrix(.95891 0 0 .95891 14.92 620.28)"><path d="m0.40193 360.81 37.824-277.91c3.232-23.68 24.939-42.891 48.501-42.891h333.81c23.563 0 40.043 19.211 36.832 42.891l-37.835 277.91c-3.232 23.669-24.949 42.88-48.512 42.88h-333.8c-23.551 0-40.042-19.21-36.821-42.88" style="fill:url(#linearGradient1813)"/><g transform="matrix(-1 0 0 1 512 0)"><polygon points="313.8 138.05 300.45 40.014 216.26 40.014 229.6 138.05" style="fill:url(#linearGradient1803)"/><path d="m254.99 403.69c0 37.707-30.581 68.288-68.299 68.288-37.728 0-68.309-30.581-68.309-68.288s30.581-68.288 68.309-68.288c37.717-0.01 68.299 30.582 68.299 68.288" style="fill:#415a6b"/></g><path d="m295.73 403.69c0 16.331 13.248 29.579 29.579 29.579 16.341 0 29.579-13.248 29.579-29.579s-13.237-29.579-29.579-29.579c-16.331-0.01-29.579 13.238-29.579 29.579" style="fill:#ced6e0"/><path d="m24.168 403.69c0 37.707 30.581 68.288 68.288 68.288 37.728 0 68.309-30.581 68.309-68.288s-30.581-68.288-68.309-68.288c-37.707-0.01-68.288 30.582-68.288 68.288" style="fill:#415a6b"/><path d="m62.877 403.69c0 16.331 13.248 29.579 29.589 29.579 16.341 0 29.589-13.248 29.589-29.579s-13.248-29.579-29.589-29.579c-16.341 0-29.589 13.238-29.589 29.579" style="fill:#ced6e0"/><g transform="matrix(-1 0 0 1 512 0)"><path d="m130.12 152.66h-116.9c-7.307 0-13.227-5.92-13.227-13.216s5.92-13.227 13.216-13.227h116.9c7.317 0 13.227 5.931 13.227 13.227s-5.91 13.216-13.216 13.216" style="fill:#80c904"/><path d="m168.44 217.37h-116.91c-7.307 0-13.216-5.931-13.216-13.216 0-7.307 5.92-13.227 13.216-13.227h116.91c7.317 0 13.227 5.931 13.227 13.227s-5.921 13.216-13.228 13.216" style="fill:#80c904"/><path d="m92.619 282.06h-79.392c-7.307 0-13.227-5.92-13.227-13.205 0-7.307 5.931-13.227 13.227-13.227h79.392c7.317 0 13.227 5.92 13.227 13.227-1e-3 7.296-5.91 13.205-13.227 13.205" style="fill:#80c904"/></g><path d="m236.73 192.72c-6.525-8.5491 39.204-33.309 54.244-32.727s43.001 116.94 4.2149 122.71c-16.632 2.4761-105.15 3.2904-170.96-10.328-13.754-2.8464-12.592-36.291-3.4054-48.588 12.337-16.513 38.048-10 55.269-2.6106 38.464 16.504 63.616 29.229 74.993 13.784 8.8746-12.048-7.8335-33.696-14.359-42.246z" style="clip-rule:evenodd;fill-rule:evenodd;fill:#f4e8d7;image-rendering:optimizeQuality;shape-rendering:geometricPrecision"/><ellipse transform="rotate(3.1423)" cx="241.97" cy="313.03" rx="29.54" ry="28.617" style="clip-rule:evenodd;fill-rule:evenodd;fill:#f4e8d7;image-rendering:optimizeQuality;shape-rendering:geometricPrecision"/></g><path d="m883.81 457.23s-10.817-16.369 5.974-21.305c9.0385-2.6518 18.55 12.629 18.55 12.629s7.8799 3.8736 8.973 13.034c1.117 9.2952-11.06 21.85-11.06 21.85s-23.318-15.471-22.437-26.209" style="fill:#000000"/><path d="m905.55 472.99 2.1412 31.983c-1.0651 4.1436-26.335 9.6902-31.463 2.7334-1.5045-2.0416 0.0797-5.8529 3.0175-9.6702l16.898-20.518 9.4059-4.528" style="fill:#ff6161"/><path d="m902.22 461.75 2.1485 17.672c0.23977 5.8715-4.2243 10.89-10.091 11.286-4.6877 0.3263-7.5675-0.24175-13.129-2.0634-4.6268-1.5118-6.1546-6.5447-4.9243-12.758 1.5996-8.0651 5.3632-15.04 7.5867-18.661 5.0651-8.2438 16.173-6.8907 18.409 4.5237" style="fill:#ff6161"/><path d="m904.37 479.42-2.1485-17.672c-0.27391-1.3974-0.67929-2.6391-1.1922-3.7358-0.41895 3.3793-1.8037 10.559-2.9523 11.585-2.9318 2.6566-2.1854-0.16384-7.7213-1.4385-3.5276-0.81104-8.7274-0.14042-12.059 0.4564-0.82152 2.2694-1.563 4.7055-2.0707 7.2706-1.2303 6.2134 0.29753 11.246 4.9243 12.758 5.5612 1.8217 8.441 2.3898 13.129 2.0634 5.8666-0.39636 10.331-5.4148 10.091-11.286" style="fill:#1a1a1a"/><path d="m889.89 471.86s-4.1205 0.1964-9.526-1.5929c0 0-0.86376 3.5899 1.0776 5.277 1.9414 1.6871 6.2776 0.37026 8.4484-3.6841" style="fill:#ffffff"/><path d="m900.45 468.36c0.44-1.0071 0.71808-2.0749 0.9291-3.1537 0.41398-2.0577 1.4952-5.0217 4.2523-2.9117 3.9974 3.0672 2.0733 13.075-3.1687 12.895-3.9006-0.13576-3.1163-4.2806-2.0127-6.8295" style="fill:#ff6161"/></svg>
