<svg width="1080" height="1080" clip-rule="evenodd" fill-rule="evenodd" image-rendering="optimizeQuality" shape-rendering="geometricPrecision" text-rendering="geometricPrecision" version="1.1" viewBox="0 0 11250 11250" xml:space="preserve" xmlns="http://www.w3.org/2000/svg" xmlns:xlink="http://www.w3.org/1999/xlink">
 <defs>
  <style type="text/css">
   <![CDATA[
    .fil43 {fill:none;fill-rule:nonzero}
    .fil55 {fill:#1E1240;fill-rule:nonzero}
    .fil53 {fill:#200C45;fill-rule:nonzero}
    .fil20 {fill:#2E88BF;fill-rule:nonzero}
    .fil16 {fill:#311E69;fill-rule:nonzero}
    .fil19 {fill:#4CB4D4;fill-rule:nonzero}
    .fil80 {fill:#606623;fill-rule:nonzero}
    .fil15 {fill:#614CD4;fill-rule:nonzero}
    .fil70 {fill:#647021;fill-rule:nonzero}
    .fil77 {fill:#6B1C46;fill-rule:nonzero}
    .fil34 {fill:#700E26;fill-rule:nonzero}
    .fil23 {fill:#710F2B;fill-rule:nonzero}
    .fil17 {fill:#7165E5;fill-rule:nonzero}
    .fil58 {fill:#747F2F;fill-rule:nonzero}
    .fil45 {fill:#76101F;fill-rule:nonzero}
    .fil44 {fill:#781223;fill-rule:nonzero}
    .fil52 {fill:#7AD1E5;fill-rule:nonzero}
    .fil18 {fill:#7F1D4C;fill-rule:nonzero}
    .fil42 {fill:#8E1829;fill-rule:nonzero}
    .fil41 {fill:#901A2E;fill-rule:nonzero}
    .fil59 {fill:#92A348;fill-rule:nonzero}
    .fil40 {fill:#934E4E;fill-rule:nonzero}
    .fil39 {fill:#965558;fill-rule:nonzero}
    .fil71 {fill:#9CA854;fill-rule:nonzero}
    .fil22 {fill:#A1472A;fill-rule:nonzero}
    .fil95 {fill:#A19CFF;fill-rule:nonzero}
    .fil93 {fill:#A55F30;fill-rule:nonzero}
    .fil13 {fill:#AA3766;fill-rule:nonzero}
    .fil32 {fill:#AB2336;fill-rule:nonzero}
    .fil11 {fill:#AD263D;fill-rule:nonzero}
    .fil89 {fill:#AE4C0A;fill-rule:nonzero}
    .fil38 {fill:#B06F7E;fill-rule:nonzero}
    .fil36 {fill:#B17366;fill-rule:nonzero}
    .fil69 {fill:#B1BF60;fill-rule:nonzero}
    .fil64 {fill:#B2C667;fill-rule:nonzero}
    .fil35 {fill:#B47C74;fill-rule:nonzero}
    .fil68 {fill:#B5BF79;fill-rule:nonzero}
    .fil27 {fill:#C1343F;fill-rule:nonzero}
    .fil92 {fill:#C36315;fill-rule:nonzero}
    .fil25 {fill:#C6404B;fill-rule:nonzero}
    .fil30 {fill:#C65961;fill-rule:nonzero}
    .fil67 {fill:#CDD989;fill-rule:nonzero}
    .fil75 {fill:#D0D983;fill-rule:nonzero}
    .fil85 {fill:#D38048;fill-rule:nonzero}
    .fil37 {fill:#D4A3A5;fill-rule:nonzero}
    .fil33 {fill:#D5A986;fill-rule:nonzero}
    .fil94 {fill:#D88145;fill-rule:nonzero}
    .fil31 {fill:#D8B698;fill-rule:nonzero}
    .fil66 {fill:#D93D3D;fill-rule:nonzero}
    .fil26 {fill:#D93D47;fill-rule:nonzero}
    .fil12 {fill:#D95F76;fill-rule:nonzero}
    .fil24 {fill:#DE4953;fill-rule:nonzero}
    .fil29 {fill:#DE6368;fill-rule:nonzero}
    .fil28 {fill:#DE7E74;fill-rule:nonzero}
    .fil74 {fill:#DFE994;fill-rule:nonzero}
    .fil91 {fill:#E28C3F;fill-rule:nonzero}
    .fil90 {fill:#E2934C;fill-rule:nonzero}
    .fil88 {fill:#E59351;fill-rule:nonzero}
    .fil73 {fill:#EB4949;fill-rule:nonzero}
    .fil51 {fill:#EF615E;fill-rule:nonzero}
    .fil5 {fill:#F7B93C;fill-rule:nonzero}
    .fil72 {fill:#F9F498;fill-rule:nonzero}
    .fil8 {fill:#FEFEFE;fill-rule:nonzero}
    .fil46 {fill:#FF3D62;fill-rule:nonzero}
    .fil14 {fill:#FF6161;fill-rule:nonzero}
    .fil48 {fill:#FF6272;fill-rule:nonzero}
    .fil65 {fill:#FF6C52;fill-rule:nonzero}
    .fil47 {fill:#FF7585;fill-rule:nonzero}
    .fil98 {fill:#FF8B85;fill-rule:nonzero}
    .fil50 {fill:#FF9FA7;fill-rule:nonzero}
    .fil97 {fill:#FFB03B;fill-rule:nonzero}
    .fil87 {fill:#FFB675;fill-rule:nonzero}
    .fil21 {fill:#FFB899;fill-rule:nonzero}
    .fil86 {fill:#FFBC80;fill-rule:nonzero}
    .fil61 {fill:#FFC06E;fill-rule:nonzero}
    .fil10 {fill:#FFC969;fill-rule:nonzero}
    .fil49 {fill:#FFCBBB;fill-rule:nonzero}
    .fil54 {fill:#FFCBCA;fill-rule:nonzero}
    .fil60 {fill:#FFD86C;fill-rule:nonzero}
    .fil96 {fill:#FFD96E;fill-rule:nonzero}
    .fil56 {fill:#FFD983;fill-rule:nonzero}
    .fil7 {fill:#FFE8E8;fill-rule:nonzero}
    .fil57 {fill:#FFEEA9;fill-rule:nonzero}
    .fil9 {fill:#FFEFD9;fill-rule:nonzero}
    .fil76 {fill:#FFF085;fill-rule:nonzero}
    .fil62 {fill:#FFF19F;fill-rule:nonzero}
    .fil63 {fill:#FFF2D4;fill-rule:nonzero}
    .fil6 {fill:white;fill-rule:nonzero}
    .fil0 {fill:url(#id30)}
    .fil4 {fill:url(#id31)}
    .fil2 {fill:url(#id32)}
    .fil81 {fill:url(#id33)}
    .fil1 {fill:url(#id34)}
    .fil83 {fill:url(#id35)}
    .fil79 {fill:url(#id36)}
    .fil78 {fill:url(#id37)}
    .fil3 {fill:url(#id38)}
    .fil82 {fill:url(#id39)}
    .fil84 {fill:url(#id40)}
   ]]>
  </style>
   
   
   
   
   
   
   
   
   
   
   
   
   
   
   
   
   
   
   
   
   
   
   
   
   
   
   
   
   
   
  <linearGradient id="id30" x1="261" x2="19405" y1="-405" y2="12189" gradientUnits="userSpaceOnUse">
   <stop stop-color="#fff" offset="0"/>
   <stop stop-color="#dcdcdc" offset=".439"/>
   <stop stop-color="#B8B8B8" offset="1"/>
  </linearGradient>
  <linearGradient id="id31" x1="6280" x2="8541" y1="10314" y2="11801" gradientUnits="userSpaceOnUse">
   <stop stop-color="#F2F2F2" offset="0"/>
   <stop stop-color="#AFAFAF" offset="1"/>
  </linearGradient>
  <linearGradient id="id32" x1="7218" x2="14711" y1="6311" y2="11240" gradientUnits="userSpaceOnUse" xlink:href="#id31">
  </linearGradient>
  <linearGradient id="id33" x1="15075" x2="15130" y1="3805" y2="3976" gradientUnits="userSpaceOnUse">
   <stop stop-color="#F73657" offset="0"/>
   <stop stop-color="#AD263D" offset="1"/>
  </linearGradient>
  <linearGradient id="id34" x1="8094" x2="12125" y1="-259" y2="2393" gradientTransform="translate(-1965,2759)" gradientUnits="userSpaceOnUse" xlink:href="#id31">
  </linearGradient>
  <linearGradient id="id35" x1="14859" x2="14906" y1="3878" y2="3977" gradientTransform="matrix(3.94 0 0 3.18 -50870 -9794)" gradientUnits="userSpaceOnUse" xlink:href="#id33">
  </linearGradient>
  <linearGradient id="id36" x1="14032" x2="14142" y1="3743" y2="3909" gradientTransform="matrix(3.94 0 0 3.18 -50870 -9794)" gradientUnits="userSpaceOnUse" xlink:href="#id33">
  </linearGradient>
  <linearGradient id="id37" x1="13872" x2="13955" y1="3852" y2="3978" gradientTransform="matrix(3.94 0 0 3.18 -50870 -9794)" gradientUnits="userSpaceOnUse" xlink:href="#id33">
  </linearGradient>
  <linearGradient id="id38" x1="12351" x2="19810" y1="5345" y2="10252" gradientUnits="userSpaceOnUse" xlink:href="#id31">
  </linearGradient>
  <linearGradient id="id39" x1="15144" x2="15152" y1="3952" y2="3977" gradientTransform="matrix(3.94 0 0 3.18 -50870 -9794)" gradientUnits="userSpaceOnUse" xlink:href="#id33">
  </linearGradient>
  <linearGradient id="id40" x1="14931" x2="14932" y1="3974" y2="3976" gradientTransform="matrix(3.94 0 0 3.18 -50870 -9794)" gradientUnits="userSpaceOnUse" xlink:href="#id33">
  </linearGradient>
 <linearGradient id="linearGradient42246" x1="6397" x2="8362" y1="6719" y2="8277" gradientTransform="matrix(.954 0 0 .954 -402 -296)" gradientUnits="userSpaceOnUse"><stop stop-color="#444B8C" offset="0"/><stop stop-color="#26264F" offset="1"/></linearGradient><linearGradient id="linearGradient43542" x1="6810" x2="8289" y1="5306" y2="5435" gradientTransform="matrix(.954 0 0 .954 -402 -296)" gradientUnits="userSpaceOnUse"><stop stop-color="#80c904" offset="0"/><stop stop-color="#338000" offset="1"/></linearGradient></defs>
 <g transform="translate(1355 65.6)">
  
  
  
  
  
  
  
  
  
  
  
  
  
  
  
  
  
  
  
  
  
  
  
  
  
  
  
  
  
  
  
  
  
  
  
  
  
  
  
  
  
  
  
  
  
  
  
  
  
  
  
  
  
  
  
  
  
  
  
  
  
  
  
  
  
  
  
  
  
  
  
  
  
  
  
  
  
  
  
  
  
  
  
  
  
  
  
  
  
  
  
  
  
  
  
  
  
  
  
  
  
  
  
  
  
  
  
  
  
  
  
  
  
  
  
  
  
  
  
  
  
  
  
  
  
  
  
  
  
  
  
  
  
  
  
  
  
  
  
  
  
  
  
  
  
  
  
  
  
  
  
  
  
  
  
  
  
  
  
  
  
  
  
  
  
  
  
  
  
  
  
  
  
  
  
  
  
  
  
  
  
  
  
  
  
  
  
  
  
  
  
  
  
  
  
  
  
  
  
  
  
  
  
  
  
  
  
  
  
  
  
  
  
  
  
  
  
  
  
  
  
  
  
  
  
  
  
  
  
  
  
  
  
  
  
  
  
  
  
  
  
  
  
  
  
  
  
  
  
  
  
  
  
  
  
  
  
  
  
  
  
  
  
  
  
  
  
  
  
  
  
  
  
  
  
  
  
  
  
  
  
  
  
  
  
  
  
  
  
  
  
  
  
  
  
  
  
  
  
  
  
  
  
  
  
  
  
  
  
  
  
  
  
  
  
  
  
  
  
  
  
  
  
  
  
  
  
  
  
  
  
  
  
  
  
  
  
  
  
  
  
  
  
  
  
  
  
  
  
  
  
  
  
  
  
  
  
  
  
  
  
  
  
  
  
  
  
  
  
  
  
  
  
  
  
  
  
  
  
  
  
  
  
  
  
  
  
  
  
  
  
  
  
  
  
  
  
  
  
  
  
  
  
  
  
  
  
  
  
  
  
  
  
  
  
  
  
  
  
  
  
  
  
  
  
  
  
  
  
  
  
  
  
  
  
  
  
  
  
  
  
  
  
  
  
  
  
  
  
  
  
  
  
  
  
  
  
  
  
  
  
  
  
  
  
  
  
  
  
  
  
  
  
  
  
  
  
  
  
  
  
  
  
  
  
  
  
  
  
  
  
  
  
  
  
  
  
  
  
  
  
  
  
  
  
  
  
  
  
  
  
  
  
  
  
  
  
  
  
  
  
  
  
  
  
  
  
  
  
  
  
  
  
  
  
  
  
  
  
  
  
  
  
  
  
  
  
  
  
  
  
  
  
  
  
  
  
  
  
  
  
  
  
  
  
  
  
  
  
  
  
  
  
  
  
  
  
  
  
  
  
  
  
  
  
  
  
  
  
  
  
  
  
  
  
  
  
  
  
  
  
  
  
  
  
  
  
  
  
  
  
  
  
  
  
  
  
  
  
  
  
  
  
  
  
  
  
  
  
  
  
  
  
  
  
  
  
  
  <path class="fil14" d="m5349 7877c109-1130 244-2083 466-2445 93.9-203 2067 346 2101 425 346 784-214 2469-128 2621 78.9 143 1357 358 1270 723-48.9 210-184 267-334 258-729-51.6-1263-97.2-1571-425-680-735-481-2023-481-2023s-346 893-383 1303c-30.1 340 147 1594-45.1 2071-41.3 103-421 69.9-526 69.9-267 0-413-2156-372-2575z" stroke-width="3.38"/><g stroke-width="3.38">
  
  
  <path class="fil6" d="m8360 3850c-135-231-519-398-830-456-447-97.2-1184-33.4-1405 36.4-398 131-365 838-451 1503-30.1 222-71.4 914-41.3 999 93.9 273 676 316 1045 352 774 72.9 1244 380 1383 6.07 7.51-15.2-30.1-577 82.7-1099 120-547 391-1057 222-1348z" fill="url(#linearGradient43542)"/>
  <path class="fil54" d="m8055 6216c-3.76-176-7.51-610 82.7-1017 120-547 391-1057 222-1348-116-197-410-349-691-422-63.9 66.8-132 176-184 361-132 486-485 1124-286 1582 192 437 413 1102 853 847z" fill="#338000"/>
  <path class="fil55" d="m8085 5777c-7.52-30.4-25.2 119-1127-53-684-33.8-1078-420-1139-292-222 361-357 1318-466 2445 0 15.2-3.76 36.4-3.76 57.7 184 42.5 609 125 1063 155 75.2-328 184-762 237-966-41.3 182-101 562-18.8 966 353 3.04 876 6.08 1300-69.9 93.9-574 286-1547 154-2242z" fill="url(#linearGradient42246)"/>
  
  
  
  
  
  
  
  
  
  
  
  
  
  
  
  
  
  
  
  
  
  
  
  
  
  
  
  
  
  
  
  
  
  
  
  
  
  
  
  
  
  
  
  
  
  
  
  
  
  
  
  
  
  
  
  
  
  
  
  
  
  
  
  
  
  
  
  
  
  
  
  
  
  
  
  
  
  
  
  
  
  
  
  
  
  
  
  
  
  
  
  
  
  
  
  
  
  
  
  
  
  
  
  
  
  
  
  
  
  
  
  
  
  
  
  
  
  
  
  
  
  
  
  
  
  
  
  
  
  
  
  
  
  
  
  
  
  
  
  
  
  
  
  
  
  
  
  
  
  
  
  
  
  
  
  
  
  
  
  
  
  
  
  
  
  
  
  
  
  
  
  
  
  
  
  
  
  
  
  
  
  
  
  
  
  
  
  
  
  
  
  
  
  
  
  
  
  
  
  
  
  
  
  
  
  
  
  
  
  
  
  
  
  
  
  
  
  
  
  
  
  
  
  
  
  
  
  
  
  
  
  
  
  
  
  
  
  
  
  
  
  
  
  </g><g stroke-width="3.38"><path class="fil16" d="m6819 3039s-86.4-75.9-37.6-149c48.9-72.9 195-152 297-97.2 101 54.7 86.4 121 86.4 121s71.4 24.3 86.4 91.1c11.3 66.8-30.1 219-30.1 219s-361-72.9-398-185z"/>
  <path class="fil14" d="m7161 3124 169 319c3.76 45.6-289 191-383 140-30.1-15.2-26.3-60.7-3.76-109l124-270 97.7-79z"/>
  
  <path class="fil14" d="m7071 3021 105 173c30.1 57.7-3.76 125-78.9 152-56.4 21.3-97.7 24.3-173 24.3-63.9 0-105-45.6-116-112-15-88.1 0-173 11.3-216 26.3-103 173-128 252-18.2z"/>
  
  
  <path class="fil14" d="m7078 3094c0-12.1 0-24.3-3.76-36.4-3.76-21.3-3.76-57.7 41.3-45.6 63.9 18.2 82.7 125 15 143-48.9 12.1-56.4-33.4-56.4-63.8z"/>
  
  
  
  <path class="fil96" d="m6338 9724s-856-72.7-860 42.7c0 170 74.6 729 116 914 15 66.8-26.3 134-101 164-165 66.8-428 191-436 225-11.3 75.9 958 69.9 1120-3.04 82.7-39.5 187-1176 119-1389z" fill="#ff6161"/>
  
  <path class="fil96" d="m8284 8709s-308 652-173 686c201 52.4 887 131 1116 147 82.7 6.07 154 54.7 169 121 37.6 146 116 386 154 398 86.4 30.4 338-729 293-872-22.5-75.9-1571-528-1560-477z" fill="#ff6161"/>
  
  
  
  
  
  
  
  
  
  
  
  
  
  
  
  
  
  
  
  
  
  
  
  
  
  
  
  
  
  
  
  
  
  
  
  
  
  
  
  
  
  
  
  
  
  
  
  
  
  
  
  
  
  
  
  
  
 <path class="fil14" d="m8006 3701c492-216 1229 1251 1266 1910 63.9 1066-1368 1306-2679 887-996-319-849-948 60.1-823 808 109 1413 185 1533 51.6 225-258-718-1792-180-2026z"/></g><g transform="matrix(.276 0 0 -.276 -6982 4950)" stroke="null"><g transform="matrix(32.6 0 0 -32.6 23107 19794)"><path d="m309 156h-76v101h152v-101z" fill="#e6e9ed"/><path d="m328 80c3.49 0 6.34 2.85 6.34 6.34v12.7c0 3.49-2.85 6.34-6.34 6.34h-38c-3.49 0-6.34-2.85-6.34-6.34v-12.7c0-3.49 2.85-6.34 6.34-6.34z" fill="#656d78"/><path d="m233 302c0-10.5 8.5-19 19-19-10.5 0-19-8.5-19-19v-6.34h152v6.34c0 10.5-8.5 19-19 19 10.5 0 19 8.5 19 19v133c0 21.1-17 38-38 38h-76c-21 0-38-17-38-38v-120z" fill="#d89700"/><path d="m385 156h-152v-6.34c0-10.5 8.5-19 19-19h25.3c7.03 0 12.7-5.64 12.7-12.7v-12.7h38v12.7c0 6.98 5.71 12.7 12.7 12.7h25.4c10.5 0 19 8.5 19 19z" fill="#d89700"/><g transform="matrix(6.34 0 0 6.34 -93.9 -161)" fill="#f6bb42"><path d="m75.5 77.1v-2c-1e-3 0-2e-3 -1e-3 -3e-3 -1e-3h-1.99c-0.553 0-1 0.447-1 1s0.447 1 1 1h1.99c1e-3 0 2e-3 -1e-3 3e-3 -1e-3z"/><path d="m75.5 81.1v-2c-1e-3 0-2e-3 -1e-3 -3e-3 -1e-3h-1.99c-0.553 0-1 0.447-1 1s0.447 1 1 1h1.99c1e-3 0 2e-3 -1e-3 3e-3 -1e-3z"/><path d="m75.5 85.1v-2c-1e-3 0-2e-3 -1e-3 -3e-3 -1e-3h-1.99c-0.553 0-1 0.447-1 1s0.447 1 1 1h1.99c1e-3 0 2e-3 -1e-3 3e-3 -1e-3z"/><path d="m51.5 83.1v2c1e-3 0 2e-3 1e-3 3e-3 1e-3h1.99c0.553 0 1-0.447 1-1s-0.447-1-1-1h-1.99c-1e-3 0-2e-3 1e-3 -3e-3 1e-3z"/><path d="m51.5 79.1v2c1e-3 0 2e-3 1e-3 3e-3 1e-3h1.99c0.553 0 1-0.447 1-1s-0.447-1-1-1h-1.99c-1e-3 0-2e-3 1e-3 -3e-3 1e-3z"/><path d="m51.5 75.1v2c1e-3 0 2e-3 1e-3 3e-3 1e-3h1.99c0.553 0 1-0.447 1-1s-0.447-1-1-1h-1.99c-1e-3 0-2e-3 1e-3 -3e-3 1e-3z"/></g></g><g transform="matrix(32.6 0 0 -32.6 23107 19794)"><g transform="matrix(.189 0 0 .189 -697 -530)" stroke="null"><path d="m5362 3957c-18.1 21.2-35.7 33.7-35.7 33.7s-104-23.2-124-103c-0.37-1.45-0.7-2.93-1-4.42-17-83.6 6.5-166 56.9-227 70.2 36.5 124 103 141 187 9.46 46.6-14.4 87.2-37.3 114z" fill="#5b5b68"/><path d="m5259 3872c16.8 82.9 66.9 119 67.7 119-1.66-0.373-108-24.7-125-108-17-83.6 6.51-166 56.9-227-15.6 53.9-16.8 132 0.128 215z" fill="#40404c"/><path d="m5309 3911c-3.49 0-6.62-2.45-7.34-6.01l-35.6-175c-0.824-4.06 1.8-8.02 5.86-8.84 4.06-0.826 8.02 1.8 8.84 5.86l35.6 175c0.824 4.06-1.8 8.02-5.86 8.84-0.502 0.103-1 0.152-1.5 0.152z" fill="#40404c"/><path d="m5362 3957c-18.1 21.2-35.7 33.7-35.7 33.7s-104-23.2-124-103c58.4 2.39 116 25.9 159 69.4z" fill="#40404c" stroke="null"/><path d="m5368 3861c-59.2 61.3-17.9 164-17.9 164s104 37.7 163-23.6c59.2-61.3 83.7-143 74-222-78.8-6.98-160 20.4-219 81.7z" fill="#5b5b68"/><path d="m5410 3901c-58.8 60.9-59.8 122-59.8 123-0.635-1.58-40.8-103 17.9-164 59.2-61.3 140-88.7 219-81.7-53.3 17.7-118 60.8-177 122z" fill="#40404c"/><path d="m5405 3975c-1.89 0-3.78-0.708-5.23-2.13-2.97-2.89-3.03-7.64-0.136-10.6l79.3-81.4 26.8-27.8 25.5-27.2c2.83-3.02 7.58-3.17 10.6-0.336 3.02 2.83 3.17 7.58 0.336 10.6l-25.6 27.3c-0.024 0.026-0.049 0.052-0.074 0.078l-26.9 27.9-79.3 81.4c-1.47 1.51-3.42 2.26-5.37 2.26z" fill="#40404c"/><path d="m5229 4108c48 58.3 142 32.3 142 32.3s43.7-87.6-4.32-146c-48-58.3-118-88.2-188-87.6-14.1 68.7 1.78 143 49.8 201z" fill="#ffca5e"/><path d="m5269 4075c47.6 57.9 102 65 103 65.1-1.46 0.399-94.8 25.6-142-32.3-48-58.3-63.9-133-49.8-201 10.2 48.7 41.6 110 89.6 168z" fill="#e8a328"/></g></g></g><g transform="matrix(4.42 0 0 4.37 2753 809)" clip-rule="evenodd" fill-rule="evenodd" image-rendering="optimizeQuality" shape-rendering="geometricPrecision" text-rendering="geometricPrecision"><g><title>background</title><rect x="-1" y="-1" width="514" height="514" fill="none"/><g x="0" y="0" width="100%" height="100%" display="none" overflow="visible"><rect width="100%" height="100%" fill="url(#gridpattern)" stroke-width="0"/></g></g><g><title>Layer 1</title><g stroke="null"><g transform="matrix(.992 0 0 .992 -170 -279)" stroke="null"><path d="m591 436c-106-7.06-212-7.06-318 0-31.8 2.12-57.4 26.9-60.4 58.6-7.35 79.1-7.35 158 0 237 2.95 31.7 28.6 56.5 60.4 58.6 106 7.06 212 7.06 318 0 31.8-2.12 57.4-26.9 60.4-58.6 7.35-79.1 7.35-158 0-237-2.95-31.7-28.6-56.5-60.4-58.6z" fill="#dd636e"/><path d="m287 740c1.31 22.6 9.31 41.8 20.8 52.8-11.4-0.594-22.9-1.28-34.3-2.04-31.8-2.11-57.4-26.9-60.4-58.6-7.35-79.1-7.35-158 0-237 2.95-31.7 28.6-56.5 60.4-58.6 11.4-0.758 22.9-1.44 34.3-2.04-11.5 11-19.5 30.2-20.8 52.8-4.87 84.3-4.87 169 0 253z" fill="#da4a54"/><ellipse cx="432" cy="619" rx="152" ry="120" fill="#f9efda"/><path d="m568 385h-0.035c6.39-4.23 11-11 12.4-19 3.2-18.8 3.2-37.6 0-56.4-2.26-13.3-13.5-23.2-27-23.7-81-2.7-162-2.7-243 0-13.5 0.45-24.7 10.4-27 23.7-3.2 18.8-3.2 37.6 0 56.4 1.36 8 5.98 14.8 12.4 19h-0.035c-46.2 29.3-109 46.1-88.7 85.4 20.3 39.3 74.1-23.1 106-18 31.9 5.07-12.5 84 25.4 84 37.9 0 58.8-66 93.4-66s55.5 66 93.4 66-6.54-78.9 25.4-84 85.7 57.3 106 18c20.3-39.3-42.5-56.1-88.7-85.4z" fill="#ffe07d"/><path d="m356 366c0.7 7.99 3.05 21.9 6.3 26.1l-0.02-7.15c-19.7 24.5-45.4 40.3-47.1 67.9-0.731-0.237-1.5-0.412-2.34-0.546-31.9-5.07-85.7 57.3-106 18-20.3-39.3 42.5-56.1 88.7-85.4h0.031c-6.39-4.22-11-11-12.4-19-3.19-18.8-3.19-37.6 0-56.4 2.26-13.3 13.5-23.2 27-23.7 17.9-0.597 35.7-1.06 53.6-1.39-4.03 5.64-7 15.9-7.79 25.1-1.63 18.8-1.63 37.6-1e-3 56.4z" fill="#ffd064"/><path d="m432 403c-49 0-98-3.24-147-9.71-4.23-0.563-7.2-4.45-6.64-8.68 0.563-4.23 4.46-7.2 8.68-6.64 96 12.8 193 12.8 289 0 4.23-0.561 8.12 2.41 8.68 6.64 0.562 4.23-2.41 8.12-6.64 8.68-48.7 6.47-97.7 9.71-147 9.71z" fill="#f9efda"/><path d="m471 335c-8.97-6.32-19.1-6.69-27.7-1.01-4.74 3.13-8.61 7.8-11.5 13.5-2.9-5.71-6.77-10.4-11.5-13.5-8.6-5.68-18.7-5.32-27.7 1.01-9.41 6.63-10.9 14.4-10.6 19.7 1.31 18.4 28.3 35.1 39.4 41.1 0.384 1.76 0.974 3.94 1.86 6.37-3.57 6.15-10.2 12.9-22.4 15.8-4.15 0.983-6.72 5.14-5.74 9.3 0.842 3.55 4.01 5.95 7.51 5.95 0.589 0 1.19-0.067 1.79-0.209 12.5-2.96 21.3-9.19 27.3-16.2 5.54 6.56 14.1 13.1 27.3 16.2 0.599 0.142 1.2 0.209 1.79 0.209 3.5 0 6.67-2.39 7.51-5.95 0.982-4.15-1.59-8.32-5.74-9.3-12.1-2.87-18.7-9.62-22.3-15.8 0.85-2.27 1.47-4.45 1.89-6.45 11.1-6.1 38-22.7 39.3-41.1 0.378-5.31-1.14-13-10.6-19.7zm-73.5 18.6c-0.057-0.802-0.208-2.93 4.04-5.93 2.31-1.63 4.25-2.19 5.88-2.19 1.85 0 3.28 0.727 4.36 1.44 7.75 5.12 11 18.4 10.5 31.4-11.8-7.48-24.2-17.8-24.7-24.7zm68.6 0c-0.496 6.99-12.9 17.3-24.7 24.7-0.524-13 2.71-26.3 10.5-31.4 1.08-0.715 2.52-1.44 4.37-1.44 1.62 0 3.57 0.562 5.88 2.19 4.25 3 4.1 5.13 4.04 5.93z" fill="#f9efda"/><path d="m433 576c40.8 0 64.3-26 54.9-35.3-9.33-9.33-19.5 8.8-27.5 8.8s3.39-16-4.93-19.2c-8.32-3.19-15 18.1-23.4 18.1s-15-21.3-23.4-18.1c-8.32 3.19 3.01 19.2-4.93 19.2s-18.1-18.1-27.5-8.8c-9.33 9.33 14.1 35.3 54.9 35.3" fill="#b3e59f"/><path d="m432 576h-0.44c-40.8 0-64.3-26-54.9-35.3 9.33-9.33 19.5 8.8 27.5 8.8 0.783 0 1.38-0.155 1.82-0.44 1.68 11.4 11.5 27 26.1 27z" fill="#95d6a4"/><path d="m432 574c-38.2 0-69.2 0.613-69.2 38.8 0 8.18 1.42 17.4 4.03 26.9 5.24 19.1 15.3 39.1 28.3 53.2 1.79 1.96 3.64 3.81 5.53 5.53 9.42 8.54 20.1 13.9 31.4 13.9 16.8 0 32.1-11.8 44.1-28.3 15.3-21.1 25.1-49.8 25.1-71.3 0-38.2-31-38.8-69.2-38.8z" fill="#dd636e"/><path d="m432 712c-38.2 0-69.2-61.3-69.2-99.6 0-38.2 31-38.8 69.2-38.8-17.9 0-32.4 0.614-32.4 38.8 1e-3 38.2 14.5 99.6 32.4 99.6z" fill="#da4a54"/><g fill="#664545"><path d="m395 631c-4.27 0-7.73-3.46-7.73-7.73v-10c0-4.27 3.46-7.73 7.73-7.73s7.73 3.46 7.73 7.73v10c0 4.27-3.46 7.73-7.73 7.73z"/><path d="m432 631c-4.27 0-7.73-3.46-7.73-7.73v-10c0-4.27 3.46-7.73 7.73-7.73s7.73 3.46 7.73 7.73v10c0 4.27-3.46 7.73-7.73 7.73z"/><path d="m469 631c-4.27 0-7.73-3.46-7.73-7.73v-10c0-4.27 3.46-7.73 7.73-7.73 4.27 0 7.73 3.46 7.73 7.73v10c0 4.27-3.46 7.73-7.73 7.73z"/><path d="m413 674c-4.27 0-7.73-3.46-7.73-7.73v-10c0-4.27 3.46-7.73 7.73-7.73 4.27 0 7.73 3.46 7.73 7.73v10c0 4.27-3.46 7.73-7.73 7.73z"/><path d="m451 674c-4.27 0-7.73-3.46-7.73-7.73v-10c0-4.27 3.46-7.73 7.73-7.73s7.73 3.46 7.73 7.73v10c1e-3 4.27-3.46 7.73-7.73 7.73z"/></g></g></g></g></g><g transform="matrix(4.75 0 0 4.97 -482 567)" clip-rule="evenodd" fill-rule="evenodd" image-rendering="optimizeQuality" shape-rendering="geometricPrecision" text-rendering="geometricPrecision"><g><title>background</title><rect x="-1" y="-1" width="514" height="514" fill="none"/><g x="0" y="0" width="100%" height="100%" display="none" overflow="visible"><rect width="100%" height="100%" fill="url(#gridpattern)" stroke-width="0"/></g></g><g><title>Layer 1</title><g stroke="null"><g transform="matrix(8.42 0 0 8.42 -4.48 -1.04)" stroke="null"><path d="m16.9 13 2.14 0.855c1.1 0.441 2.28 0.668 3.47 0.668 1.45 0 2.88-0.337 4.17-0.985l0.059-0.03c1.3-0.648 2.72-0.985 4.17-0.985h0.594c1.45 0 2.88 0.337 4.17 0.985l0.059 0.03c1.3 0.648 2.72 0.985 4.17 0.985h0.283c1 0 2-0.162 2.95-0.479l3.34-1.11h-1e-3c0.767 1.57 2.07 2.85 3.73 3.59 2.74 1.22 4.5 3.93 4.5 6.92v31.1c0 3.31-2.69 6-6 6h-34c-3.31 0-6-2.69-6-6v-31.1c0-3 1.76-5.71 4.5-6.92 1.63-0.726 2.92-1.99 3.69-3.52z" fill="#ace54b"/><path d="m33.5 12.8c-0.668-0.149-1.35-0.231-2.04-0.231h-0.594c-1.45 0-2.88 0.337-4.17 0.985l-0.059 0.03c-1.3 0.648-2.72 0.985-4.17 0.985-1.19 0-2.36-0.227-3.47-0.667l-2.14-0.855c-0.771 1.54-2.06 2.8-3.69 3.52-2.74 1.22-4.5 3.93-4.5 6.92v17.3c12.7-4.04 22.3-14.8 24.8-28z" fill="#d0f669"/><path d="m46.4 13-3.34 1.11c-0.951 0.317-1.95 0.479-2.95 0.479h-0.283c-1.45 0-2.88-0.337-4.17-0.985l-0.059-0.03c-1.3-0.648-2.72-0.985-4.17-0.985h-0.594c-1.45 0-2.88 0.337-4.17 0.985l-0.059 0.03c-1.3 0.648-2.72 0.985-4.17 0.985-1.19 0-2.36-0.227-3.47-0.667l-2.14-0.855c0.521-1.04 0.807-2.2 0.807-3.4v-1.08h28v1.08c0 1.18 0.274 2.32 0.773 3.33z" fill="#c7e2fc"/><path d="m34.5 53.4c5.82-4.06 10.3-9.8 12.8-16.5l2.81-7.42c0.706-1.87 0.749-3.92 0.122-5.82-0.622-1.88-1.96-3.44-3.72-4.32-1.95-0.983-4.23-1.05-6.24-0.185-2.34 1.01-4.2 2.87-5.22 5.22l-0.383 0.881c-3.18 7.33-7.87 13.9-13.7 19.3-1.14 1.05-1.9 2.45-2.16 3.99-0.363 2.2 0.348 4.43 1.91 6.01 1.49 1.5 3.59 2.23 5.69 1.96 2.92-0.367 5.71-1.44 8.13-3.13z" fill="#50761e"/><path d="m19.7 53.3c0.853 0.235 1.75 0.304 2.65 0.191 2.92-0.368 5.71-1.44 8.13-3.13 5.82-4.06 10.3-9.8 12.8-16.5l2.81-7.42c0.706-1.87 0.749-3.92 0.122-5.82-0.21-0.636-0.503-1.23-0.865-1.78-1.63-0.503-3.4-0.428-5 0.236 0.48 1.77 0.392 3.65-0.258 5.37l-2.81 7.42c-2.52 6.66-6.99 12.4-12.8 16.5-1.74 1.21-3.66 2.1-5.69 2.65l-9e-3 -0.04c0.158 0.824 0.466 1.61 0.91 2.33z" fill="#6ea22a"/><path d="m28.8 53.4c-5.82-4.06-10.3-9.8-12.8-16.5l-2.81-7.42c-0.706-1.87-0.749-3.92-0.122-5.82 0.622-1.88 1.96-3.44 3.72-4.32 1.95-0.983 4.23-1.05 6.24-0.185 2.34 1.01 4.2 2.87 5.22 5.22l0.383 0.881c3.18 7.33 7.87 13.9 13.7 19.3 1.14 1.05 1.9 2.45 2.16 3.99 0.363 2.2-0.348 4.43-1.91 6.01-1.49 1.5-3.59 2.23-5.69 1.96-2.92-0.367-5.71-1.44-8.13-3.13z" fill="#50761e"/><path d="m43.6 53.3c-0.853 0.235-1.75 0.304-2.65 0.191-2.92-0.368-5.71-1.44-8.13-3.13-5.82-4.06-10.3-9.8-12.8-16.5l-2.81-7.42c-0.706-1.87-0.749-3.92-0.122-5.82 0.21-0.636 0.503-1.23 0.865-1.78 1.63-0.503 3.4-0.428 5 0.236-0.48 1.77-0.392 3.65 0.258 5.37l2.81 7.42c2.52 6.66 6.99 12.4 12.8 16.5 1.74 1.21 3.66 2.1 5.69 2.65l9e-3 -0.04c-0.158 0.824-0.466 1.61-0.91 2.33z" fill="#6ea22a"/><path d="m45.7 8.56h-28c-1.1 0-2-0.895-2-2v-4c0-1.1 0.895-2 2-2h28c1.1 0 2 0.895 2 2v4c0 1.1-0.895 2-2 2z" fill="#758190"/><path d="m45.7 3.56h-28c-1.1 0-2 0.895-2 2v1c0 1.1 0.895 2 2 2h28c1.1 0 2-0.895 2-2v-1c0-1.1-0.895-2-2-2z" fill="#8892a0"/><path d="m18.7 3.56h2v5h-2z" fill="#a8b0bc" stroke="null"/><path d="m22.7 3.56h2v5h-2z" fill="#a8b0bc" stroke="null"/><path d="m26.7 3.56h2v5h-2z" fill="#a8b0bc" stroke="null"/><path d="m30.7 3.56h2v5h-2z" fill="#a8b0bc" stroke="null"/><path d="m34.7 3.56h2v5h-2z" fill="#a8b0bc" stroke="null"/><path d="m38.7 3.56h2v5h-2z" fill="#a8b0bc" stroke="null"/><path d="m42.7 3.56h2v5h-2z" fill="#a8b0bc" stroke="null"/><g fill="#ebf7fe"><path d="m16.9 13h-1e-3z"/><path d="m17.7 8.56v1.08c0 1.21-0.286 2.37-0.806 3.4l2.14 0.855c1.1 0.44 2.28 0.667 3.46 0.667 1.45 0 2.88-0.337 4.17-0.985l0.059-0.03c1.3-0.648 2.72-0.985 4.17-0.985h0.594c0.689 0 1.37 0.082 2.04 0.231 0.263-1.38 0.446-2.8 0.549-4.23h-16.4z"/></g></g></g><g fill="#8cc736" stroke="null" stroke-opacity="null" stroke-width="null"><ellipse cx="418" cy="302" rx="9.9" ry="16.1"/><ellipse transform="rotate(-42.3 411 334)" cx="411" cy="334" rx="9.9" ry="16.1"/><ellipse transform="rotate(38 426 334)" cx="426" cy="334" rx="9.9" ry="16.1"/><ellipse transform="rotate(-42.3 411 366)" cx="411" cy="366" rx="9.9" ry="16.1"/><ellipse transform="rotate(38 427 365)" cx="427" cy="365" rx="9.9" ry="16.1"/><ellipse transform="rotate(-42.3 411 396)" cx="411" cy="396" rx="9.9" ry="16.1"/><ellipse transform="rotate(38 427 396)" cx="427" cy="396" rx="9.9" ry="16.1"/><ellipse transform="rotate(37.7 411 465)" cx="411" cy="465" rx="9.9" ry="16.1"/><ellipse cx="421" cy="431" rx="9.9" ry="16.1"/><ellipse transform="rotate(-32.2 426 466)" cx="426" cy="466" rx="9.9" ry="16.1"/><ellipse cx="261" cy="138" rx="9.9" ry="16.1"/><ellipse transform="rotate(-42.3 254 170)" cx="254" cy="170" rx="9.9" ry="16.1"/><ellipse transform="rotate(38 269 169)" cx="269" cy="169" rx="9.9" ry="16.1"/><ellipse transform="rotate(-42.3 254 201)" cx="254" cy="201" rx="9.9" ry="16.1"/><ellipse transform="rotate(38 270 200)" cx="270" cy="200" rx="9.9" ry="16.1"/><ellipse cx="113" cy="364" rx="9.9" ry="16.1"/><ellipse transform="rotate(-42.3 106 396)" cx="106" cy="396" rx="9.9" ry="16.1"/><ellipse transform="rotate(38 121 396)" cx="121" cy="396" rx="9.9" ry="16.1"/><ellipse transform="rotate(-42.3 106 428)" cx="106" cy="428" rx="9.9" ry="16.1"/><ellipse transform="rotate(38 122 427)" cx="122" cy="427" rx="9.9" ry="16.1"/><ellipse transform="rotate(-42.3 106 458)" cx="106" cy="458" rx="9.9" ry="16.1"/><ellipse transform="rotate(38 122 458)" cx="122" cy="458" rx="9.9" ry="16.1"/></g><g fill="#fff" stroke="null" stroke-opacity="null" stroke-width="null"><ellipse transform="rotate(-33.7 181 220)" cx="181" cy="220" rx="10" ry="13"/><ellipse transform="rotate(-33.7 231 268)" cx="231" cy="268" rx="20.2" ry="26.1"/><ellipse transform="rotate(21.3 369 228)" cx="369" cy="228" rx="25.2" ry="19.2"/><ellipse transform="rotate(21.3 337 251)" cx="337" cy="251" rx="12" ry="9.2"/><ellipse transform="rotate(-38.3 93.8 274)" cx="93.8" cy="274" rx="9.04" ry="11.7"/><ellipse transform="rotate(-39.1 96.6 318)" cx="96.6" cy="318" rx="13.7" ry="19.1"/><ellipse transform="rotate(-38.3 386 416)" cx="386" cy="416" rx="5.1" ry="6.61"/><ellipse transform="rotate(-38.3 391 445)" cx="391" cy="445" rx="8.33" ry="10.8"/></g></g></g><g transform="matrix(.276 0 0 -.276 155 5861)"><g stroke-width="24.7"><path d="m-3053 7920c55 0 142-1.48 247-3.7-300-5.68-752-16-1053-9.87 331 4.2 668 13.6 806 13.6z" fill="#60b7ff"/><path d="m-1753 7906c-301-6.17-753 4.2-1053 9.87 105 2.22 192 3.7 247 3.7 138 0 475-9.38 806-13.6z" fill="#60b7ff"/><path d="m-1519 18583-2087 2.42v781l2087-2.42z" fill="#c4e2ff"/><path d="m-3606 19331h2087v-361h-2087z" fill="#b3dafe"/><path d="m-479 10923c-47 619-21.6 1243 108 1851 102 477 131 1036 131 1522h-2319-2317c0-486 26.6-1045 128-1522 130-608 155-1232 108-1851-55.5-729-274-1434-267-2162 3.95-452 243-947 754-1014 272-36 1319 0 1594 0 275 0 1322-36 1594 0 511 67.7 750 562 754 1014 6.37 728-212 1432-267 2162z" fill="#fcd4d4"/><path d="m-212 8762c-4.05-452-243-947-754-1014-131-17.3-442-18-760-14 108 2.3 196 6.59 252 14 511 67.5 750 562 754 1014 6.34 728-212 1432-267 2162-46.9 619-21.6 1243 108 1851 102 477 130 1036 130 1522h508c0-486-28.7-1045-130-1522-130-608-155-1232-108-1851 55.6-729 274-1434 267-2162z" fill="#faa"/><path d="m-1361 19331h-2397c-72.2 0-131 58.5-131 131v777c0 72.2 58.5 131 131 131h2397c72.2 0 131-58.5 131-131v-777c0-72.2-58.5-131-131-131z" fill="#f66"/><path d="m-240 16812-1278 1800h-2087l-1268-1800-3.87-5.51v-68.4h4636z" fill="#fcd4d4"/><path d="m-240 16812h-509l-1276 1800h507z" fill="#faa"/><path d="m-240 14225h-4636v2581l4636 5.56z" fill="#0593fc"/><path d="m-749 16812h509v-2587h-509z" fill="#0182fc"/></g><g transform="matrix(24.7 0 0 -24.7 -8879 20370)" stroke="null"><path d="m286 257c-23.4-2.44-41.4-14.9-40-27.8 1.34-12.9 21.4-21.4 44.9-19 23.4 2.44 51.2 17.7 50 28.9-1.16 11.2-31.5 20.4-54.9 17.9z" fill="#5eac24"/><path d="m290 210c-23.4-2.44-43.5 6.06-44.9 19l25.9-4.78c14.4-2.64 29.2-1.18 42.7 4.21l26.2 10.4c1.16-11.2-26.6-26.4-50-28.9z" fill="#4e901e"/><path d="m322 240-74.8-7.79c-1.68-0.175-2.9-1.68-2.73-3.36s1.68-2.9 3.36-2.73l74.8 7.79c1.68 0.175 2.9 1.68 2.73 3.36-0.163 1.57-1.38 2.9-3.36 2.73z" fill="#47821c"/><path d="m295 232c-19.7-12.9-41.5-14.6-48.6-3.73s3.08 30.1 22.8 43.1c19.7 12.9 50.8 18.6 57 9.25 6.16-9.4-11.5-35.7-31.2-48.6z" fill="#6dc82a"/><path d="m269 271c-19.7-12.9-29.9-32.2-22.8-43.1l18.4 23.6c7.91 10.1 18.9 17.4 31.3 20.7l30 8.01c-6.16 9.4-37.3 3.68-57-9.25z" fill="#5eac24"/><path d="m313 268-20.6-13.5 9.13-1.74c1.66-0.316 2.75-1.92 2.43-3.58-0.316-1.66-1.92-2.75-3.58-2.43l-15.4 2.92-11-7.23 9.13-1.74c1.66-0.316 2.75-1.92 2.43-3.58-0.316-1.66-1.92-2.75-3.58-2.43l-15.4 2.92-16.6-10.9c-1.41-0.927-3.31-0.532-4.24 0.881-0.927 1.41-0.532 3.31 0.881 4.24l16.6 10.9 3.44 15.2c0.775 3.02 3.43 2.36 3.66 2.31 1.65-0.372 2.68-2.01 2.31-3.66l-2.05-9.07 11 7.23 3.44 15.2c0.776 2.99 3.43 2.36 3.66 2.31 1.65-0.372 2.68-2.01 2.31-3.66l-2.05-9.07 20.6 13.5c2.08 1.16 3.65 0.0148 4.24-0.881 0.927-1.41 0.533-3.31-0.88-4.24z" fill="#47821c"/><path d="m223 257c23.4-2.44 41.4-14.9 40-27.8-1.34-12.9-21.4-21.4-44.9-19-23.4 2.44-51.2 17.7-50 28.9 1.16 11.2 31.5 20.4 54.9 17.9z" fill="#91dc5a"/><path d="m219 210c23.4-2.44 43.5 6.06 44.9 19l-29.1-6.39c-13.8-3.03-28.3-1.4-41.1 4.63l-24.7 11.6c-1.16-11.2 26.6-26.4 50-28.9z" fill="#6dc82a"/><path d="m214 232c19.7-12.9 41.5-14.6 48.6-3.73s-3.08 30.1-22.8 43.1c-19.7 12.9-50.8 18.6-57 9.25s11.5-35.7 31.2-48.6z" fill="#b6e892"/><path d="m240 271c19.7-12.9 29.9-32.2 22.8-43.1l-13.1 18.1c-9.72 13.5-23.8 23.1-39.9 27.3l-26.8 6.91c6.16 9.4 37.3 3.68 57-9.25z" fill="#91dc5a"/><g transform="matrix(.336 0 0 .336 -463 -552)" fill="#47821c"><path d="m1926 2352c-0.521-5.01 3.12-9.49 8.12-10l223-23.2c5.01-0.521 9.49 3.12 10 8.12s-3.12 9.49-8.12 10l-223 23.2c-7.25 0.46-9.52-3.44-10-8.12z"/><path d="m2164 2323c-2.76-4.21-8.41-5.39-12.6-2.62l-49.3 32.3-45.7-8.7c-4.94-0.943-9.72 2.3-10.7 7.25-0.942 4.94 2.3 9.72 7.25 10.7l27.2 5.18-32.9 21.5-45.7-8.7c-4.94-0.942-9.72 2.3-10.7 7.25-0.942 4.94 2.3 9.72 7.25 10.7l27.2 5.18-61.3 40.2c-4.21 2.76-5.38 8.41-2.62 12.6 1.75 2.67 7.61 5.18 12.6 2.62l61.3-40.2-6.1 27c-1.11 4.91 1.97 9.79 6.88 10.9 0.676 0.152 8.59 1.86 10.9-6.88l10.2-45.4 32.9-21.5-6.1 27c-1.11 4.91 1.97 9.79 6.88 10.9 0.676 0.152 9.26 1.24 10.9-6.88l10.2-45.4 49.3-32.3c4.21-2.76 5.39-8.41 2.63-12.6z"/></g><path d="m317 161s3.57-29.4-25-24.2c-2.65 0.482-5.35-0.498-7.14-2.52-6.15-6.94-21.9-19.3-39.1 10.4-0.81 0.22 37.8 28.6 37.8 28.6z" fill="#c70024"/><g transform="matrix(.336 0 0 .336 -463 -552)" fill="#d80027"><path d="m1952 2124s-10.6-87.6 74.6-72.1c7.9 1.44 15.9-1.48 21.3-7.5 18.3-20.7 65.3-57.4 116 30.8 2.41 0.654-113 85.1-113 85.1z"/><path d="m2235 2123s53.8-26.7 113-5.54c9.34 3.34 13.5 14.2 8.87 22.9-12.5 23.3-33.6 71.1-32.3 126 1.93 77.7-101 155-204 70.5 1.92-2.78 114-214 114-214z"/></g><path d="m297 157c-0.658 7.01-0.563 17.2 3.99 24.7 7.6 12.4 16.8 48.2-16.2 62.5-10.9 1.41-23.4-1.76-35.9-12.1 0.644-0.933 38.4-71.9 38.4-71.9s3.76-1.87 9.74-3.23z" fill="#c70024"/><path d="m222 160s-18.1-8.98-38-1.86c-3.14 1.12-4.55 4.76-2.98 7.7 4.18 7.83 11.3 23.9 10.8 42.4-0.649 26.1 33.8 52.2 68.5 23.7-0.643-0.934-38.4-71.9-38.4-71.9z" fill="#ff0c38"/><path d="m212 157c0.658 7.01 0.563 17.2-3.99 24.7-7.6 12.4-16.8 48.2 16.2 62.5 10.9 1.41 23.4-1.76 35.9-12.1-0.644-0.933-38.4-71.9-38.4-71.9s-3.76-1.87-9.74-3.23z" fill="#d80027"/><path d="m288 148s-21.5-27.3-49.2 18.6c0.211 0.156 19.1 15.2 19.1 15.2z" fill="#ff0c38"/><path d="m239 167c1.18 0.931 19.1 15.2 19.1 15.2l30.1-33.8s-0.988-1.25-2.81-2.77h-1e-3s-23.6-5.79-46.3 21.5z" fill="#d80027"/><path d="m221 148s21.5-27.3 49.2 18.6c-0.211 0.156-19.1 15.2-19.1 15.2z" fill="#ff3f62"/><path d="m223 151 27.6 31s18.9-15.1 19.1-15.2c-1.77-2.94-3.52-5.58-5.23-7.95-2.77-2.7-16.7-14.6-41.5-7.87z" fill="#ff0c38"/><path d="m292 187c-5.39-9.52-2.88-24.2-2.88-24.2l-6.56-7.05-28.3 26.7-28.3-26.7-6.56 7.05s2.51 14.7-2.88 24.2c-6.18 10.9-10.4 45.9 37.8 45.9 48.2 0 44-35 37.8-45.9z" fill="#ff3f62"/><path d="m265 173-10.3 9.68-28.3-26.7-6.56 7.05s2.51 14.7-2.88 24.2c-6.18 10.9-10.4 45.9 37.8 45.9 11.9 0 20.6-2.14 26.9-5.52-2.28-25.1-8.76-42.5-16.6-54.6z" fill="#ff0c38"/><path d="m293 143c-23.9 6.08-36.3 25.5-42.1 39l7.67 10.4c7.84-2.91 14.3-6.81 19.5-11.2 2.99-2.49 4.46-6.37 3.93-10.2l-0.982-7.11 4.7-3.4e-4c4.44-3.4e-4 8.5-2.59 10.3-6.64 1.31-2.91 2.28-5.61 3-7.91 1.17-3.75-2.23-7.37-6.04-6.4z" fill="#ff728b"/><path d="m260 166c-3.99 5.48-6.92 11.1-9.01 15.9l7.67 10.4c4.94-1.83 9.32-4.07 13.2-6.56-3.48-8.11-7.57-14.6-11.9-19.8z" fill="#ff3f62"/><path d="m264 196-7.34-14.8-1.66 1.57-28.3-26.7-6.56 7.05s2.51 14.7-2.88 24.2c-6.18 10.9-10.4 45.9 37.8 45.9 4.49 0 8.53-0.305 12.2-0.866 1.33-17.9-3.15-36.4-3.15-36.4z" fill="#ff728b"/><path d="m245 232c-9.51-9.28-14.5-25.3-10.3-43 2.09-8.7 1.94-17.3 0.724-24.9l-9.25-8.72-6.56 7.05s2.51 14.7-2.88 24.2c-5.74 10.1-9.8 41 28.2 45.4z" fill="#ff3f62"/><path d="m211 149c0.717 2.31 1.69 5 3 7.91 1.82 4.06 5.88 6.64 10.3 6.64l4.7 3.3e-4 -0.982 7.11c-0.532 3.86 0.937 7.73 3.93 10.2 7.75 6.46 18.1 11.9 31.8 14.6 0 0-8.69-43.3-46.7-52.9-3.81-0.967-7.2 2.65-6.04 6.4z" fill="#ffa5b5"/></g><g fill="#fff" stroke="null" stroke-opacity="null" stroke-width="24.7"><circle transform="scale(1,-1)" cx="-3547" cy="-12113" r="481"/><circle transform="scale(1,-1)" cx="-2461" cy="-10977" r="210"/><circle transform="scale(1,-1)" cx="-1548" cy="-1e4" r="160"/></g></g><g clip-rule="evenodd" shape-rendering="geometricPrecision"><g transform="matrix(4.45 0 0 3.93 4456 1037)" fill-rule="evenodd" image-rendering="optimizeQuality" text-rendering="geometricPrecision"><g><title>background</title><rect x="-1" y="-1" width="514" height="514" fill="none"/><g x="0" y="0" width="100%" height="100%" display="none" overflow="visible"><rect width="100%" height="100%" fill="url(#gridpattern)" stroke-width="0"/></g></g><g><title>Layer 1</title><g stroke="null"><path d="m401 511h-289l-6.4-8.01a291 291 0 0 1-55-252l37.3-149h337l37.3 149a291 291 0 0 1-55 252z" fill="#ebebeb"/><g transform="matrix(1.51 0 0 1.51 -2629 -3429)" fill="#e4e4e2"><path d="m2054 2444-24.8-99.2h-207l-24.8 99.2a193 193 0 0 0 36.5 167l4.25 5.32h175l4.25-5.32a193 193 0 0 0 36.5-167z"/><path d="m2054 2444-24.8-99.2h-207l-24.8 99.2a193 193 0 0 0 36.5 167l4.25 5.32h175l4.25-5.32a193 193 0 0 0 36.5-167z"/></g><path d="m69.5 174h373l-9.03-36.1h-355z" fill="#d2d2d1"/><rect transform="matrix(1.51 0 0 1.51 -2629 -3429)" x="1789" y="2281" width="256" height="64" rx="16" fill="#ce9c77"/><g fill="#be906e"><path d="m509 174c-31.6 0-31.6 24.1-63.3 24.1s-31.6-48.2-63.2-48.2c-31.6 0-31.6 48.2-63.2 48.2s-31.6-48.2-63.2-48.2c-31.6 0-31.6 48.2-63.2 48.2-31.6 0-31.6-48.2-63.2-48.2-31.6 0-31.6 48.2-63.2 48.2s-31.6-24.1-63.2-24.1v-0.0662a50.5 50.5 0 0 1 34.1-47.8l47.2-24.4h343l47.1 24.4a50.5 50.5 0 0 1 34.1 47.8z"/><path d="m401 65.2h-48.2a12 12 0 0 1 0-24.1h48.2a12 12 0 0 1-1e-5 24.1z"/><path d="m304 65.2h-12a12 12 0 0 1 0-24.1h12a12 12 0 0 1 0 24.1z"/></g><path d="m473 125v-0.686l-45.2-23.4h-343l-46.5 24.1z" fill="#b28768"/><path d="m462 251-1.2-4.84h-409l-1.2 4.84a291 291 0 0 0 55 252l6.4 8.01h289l6.4-8.01a291 291 0 0 0 55-252z" fill="#ffc45b"/><path d="m462 251-1.2-4.84h-383l-1.2 4.84a291 291 0 0 0 55 252l6.4 8.01h263l6.4-8.01a291 291 0 0 0 55-252z" fill="#fdb62f"/><path d="m190 381v38.1l33 19 33-19v-38.1l48.2-3.06-12-12-36.1-48.2v12l-24.1 24.1-8.89 8.1z" fill="#d38e14"/><path d="m118 425a12.1 12.1 0 0 1-11-7.23l-5.84-13.4a223 223 0 0 1-16.1-123 12 12 0 1 1 23.8 3.64 199 199 0 0 0 14.4 110l5.85 13.4a12.1 12.1 0 0 1-11 16.9z" fill="#ffc45b"/><path d="m223 324v38.1l33 19 33-19v-38.1l-33-19z" fill="#dc9315"/><path d="m256 381v38.1l33 19 33-19v-38.1l-33-19z" fill="#ec9e15"/></g></g></g><g fill-rule="nonzero"><polygon class="fil64" transform="matrix(3.7 0 0 2.99 -52091 -9210)" points="15510 4189 15583 4063 15605 4077 15544 4207" fill="#b2c667" image-rendering="optimizeQuality"/><polygon class="fil58" transform="matrix(3.7 0 0 2.99 -52091 -9210)" points="15605 4077 15544 4207 15530 4200 15596 4071" fill="#747f2f" image-rendering="optimizeQuality"/><polygon class="fil64" transform="matrix(3.7 0 0 2.99 -52091 -9210)" points="15468 4201 15562 4054 15583 4069 15502 4220" fill="#b2c667" image-rendering="optimizeQuality"/><polygon class="fil58" transform="matrix(3.7 0 0 2.99 -52091 -9210)" points="15583 4069 15502 4220 15488 4212 15575 4063" fill="#747f2f" image-rendering="optimizeQuality"/><polygon class="fil64" transform="matrix(3.7 0 0 2.99 -52091 -9210)" points="15466 4152 15549 4048 15564 4061 15491 4169" fill="#b2c667" image-rendering="optimizeQuality"/><polygon class="fil58" transform="matrix(3.7 0 0 2.99 -52091 -9210)" points="15564 4061 15491 4169 15480 4162 15558 4056" fill="#747f2f" image-rendering="optimizeQuality"/></g><g fill="#311e69" fill-rule="nonzero" stroke-width="3.33"><path class="fil16" d="m5444 2720s33.3 50.9 81.5 59.9c48.2 5.99-81.5-59.9-81.5-59.9z" image-rendering="optimizeQuality"/><path class="fil16" d="m5755 2768s0-12-92.6-41.9c0 0 33.3 35.9 92.6 41.9z" image-rendering="optimizeQuality"/><path class="fil16" d="m6048 2789s-59.3-32.9-100-32.9c0 0 48.2 44.9 100 32.9z" image-rendering="optimizeQuality"/><path class="fil16" d="m5718 2930s48.2 44.9 100 32.9c0 0-59.3-32.9-100-32.9z" image-rendering="optimizeQuality"/></g><g fill-rule="nonzero"><path class="fil55" d="m2281 2897c22.2-21 3.7-53.9-33.3-50.9-66.7 5.99-156 18-156 65.9-3.7 62.9 107 62.9 189-15z" fill="#1e1240" image-rendering="optimizeQuality" stroke-width="3.33"/><polygon class="fil77" transform="matrix(3.7 0 0 2.99 -52091 -9210)" points="15813 4157 13870 4157 13870 4902 15813 4902" fill="#7e3a1a" image-rendering="optimizeQuality"/><polygon class="fil85" transform="matrix(3.7 0 0 2.99 -52091 -9210)" points="15570 4123 15388 4123 15388 4847 15570 4847" fill="#d38048" image-rendering="optimizeQuality"/><polygon class="fil85" transform="matrix(3.7 0 0 2.99 -52091 -9210)" points="13961 4123 13779 4123 13779 4847 13961 4847" fill="#d38048" image-rendering="optimizeQuality"/><path class="fil86" d="m4818 3888c0 62.9-63 114-141 114-77.8 0-141-50.9-141-114l-5712-29.9v410l51.9 123-51.9 92.8v440l4971-50.9 1863 15v-1e3l-845-3z" fill="#ffbc80" image-rendering="optimizeQuality" stroke-width="3.33"/><polygon class="fil86" transform="matrix(3.7 0 0 2.99 -52091 -9210)" points="15086 4295 15284 4313 15591 4309 15591 3975 13745 3975 13745 4062 13769 4097 13745 4138 13745 4332 15087 4316" fill="#ffbc80" image-rendering="optimizeQuality"/><path class="fil87" d="m-1176 3415s885-150 1278-77.8c396 71.8 826 180 1704 111 878-68.9 1341-392 2082-425 741-32.9 1771 171 1771 171v500s-696-56.9-1100-144c-404-86.8-833-254-1285-92.8-456 162-656 231-978 174-326-56.9-378-102-756-65.9-378 35.9-1452 186-1452 186l-1259 12v-344z" fill="#ffb675" image-rendering="optimizeQuality" stroke-width="3.33"/><path class="fil86" d="m3903 5e3 -493 35.9-378-35.9h-1545c0 71.9-88.9 132-200 132-107 0-196-59.9-196-132h-2263v533l385 153-385 74.8v207l4971-44.9 1863-15v-904h-1760z" fill="#ffbc80" image-rendering="optimizeQuality" stroke-width="3.33"/></g><g fill="#e59351" fill-rule="nonzero"><path class="fil88" d="m-1050 3058s2893-18 3564 0c670 18 1208 24 1208 24s-3834 126-4771-24z" image-rendering="optimizeQuality" stroke-width="3.33"/><polygon class="fil88" transform="matrix(3.7 0 0 2.99 -52091 -9210)" points="15084 4273 15086 4295 15284 4313" image-rendering="optimizeQuality"/><polygon class="fil88" transform="matrix(3.7 0 0 2.99 -52091 -9210)" points="15512 4061 15591 4076 15591 4053" image-rendering="optimizeQuality"/><path class="fil88" d="m2510 3304s1471-38.9 2123-29.9c652 8.98 1030 29.9 1030 29.9v89.8z" image-rendering="optimizeQuality" stroke-width="3.33"/><polygon class="fil88" transform="matrix(3.7 0 0 2.99 -52091 -9210)" points="14423 4550 13747 4507 13759 4543" image-rendering="optimizeQuality"/></g><g fill-rule="nonzero"><g stroke-width="3.33"><path class="fil87" d="m-1176 4564s452-50.9 1134 0c682 50.9 996 111 1304 77.8 307-32.9 633-254 796-251 163 3 1293 210 1893 147 600-59.9 0-245 307-344 307-102 833 26.9 974 156 141 129 430 302 430 302v240l-6834 32.9v-362z" fill="#ffb675" image-rendering="optimizeQuality"/><path class="fil88" d="m2373 5337s-304-53.9-396 15c-92.6 68.9 467 156 567 86.8 100-68.9-170-102-170-102z" fill="#e59351" image-rendering="optimizeQuality"/><path class="fil88" d="m1595 3271c-18.5-8.98-40.7-12-66.7-18-74.1-8.98-274-32.9-196 21 92.6 62.9 389 47.9 259-5.99z" fill="#e59351" image-rendering="optimizeQuality"/></g><polygon class="fil87" transform="matrix(3.7 0 0 2.99 -52091 -9210)" points="15591 5047 13745 5068 13745 5e3 15591 4947" fill="#ffb675" image-rendering="optimizeQuality"/><polygon class="fil89" transform="matrix(3.7 0 0 2.99 -52091 -9210)" points="15801 4068 15824 4062 15824 4772 15801 4778" fill="#ae4c0a" image-rendering="optimizeQuality"/><polygon class="fil89" transform="matrix(3.7 0 0 2.99 -52091 -9210)" points="15595 4119 15618 4113 15618 4823 15595 4829" fill="#ae4c0a" image-rendering="optimizeQuality"/><path class="fil90" d="m6429 3711c0 59.9-7.41 114-18.5 114-11.1 2.99-18.5-44.9-18.5-108l-733 174v991l637-177 237-32.9v-979l-107 18z" fill="#e2934c" image-rendering="optimizeQuality" stroke-width="3.33"/><polygon class="fil90" transform="matrix(3.7 0 0 2.99 -52091 -9210)" points="15827 3917 15591 3975 15591 4310 15763 4267 15762 4247 15788 4258 15827 4245" fill="#e2934c" image-rendering="optimizeQuality"/><path class="fil91" d="m5663 3400s115-171 163-111c51.9 59.9 107 156 219 65.9 111-89.8 170-419 267-470 96.3-50.9 226 120 226 120v491s-88.9-38.9-141-114c-51.9-74.8-107-231-167-59.9-59.3 171-85.2 242-126 195-40.7-47.9-48.2-89.8-96.3-44.9-48.2 44.9-348 216-348 216v-293z" fill="#e28c3f" image-rendering="optimizeQuality" stroke-width="3.33"/><path class="fil90" d="m6311 4822-63 47.9-48.2-24-196 38.9c0 71.9-11.1 132-25.9 135-14.8 2.99-25.9-53.9-25.9-126l-289 102v901l637-171 92.6-24 144-38.9v-886z" fill="#e2934c" image-rendering="optimizeQuality" stroke-width="3.33"/><polygon class="fil92" transform="matrix(3.7 0 0 2.99 -52091 -9210)" points="15762 4225 15762 4247 15788 4258" fill="#c36315" image-rendering="optimizeQuality"/><g stroke-width="3.33"><path class="fil91" d="m5663 4525s59.3-59.9 144-29.9c88.9 32.9 126 83.8 167 44.9 40.7-38.9 81.5-266 104-266 22.2 0 167 171 241 95.8 77.8-74.8 0-240 40.7-347 40.7-108 107 5.99 126 129 18.5 123 55.6 287 55.6 287v234l-878 216v-365z" fill="#e28c3f" image-rendering="optimizeQuality"/><path class="fil92" d="m6115 5196s-40.7-44.9-51.9 26.9c-11.1 68.9 59.3 141 74.1 68.9 11.1-68.9-22.2-95.8-22.2-95.8z" fill="#c36315" image-rendering="optimizeQuality"/><path class="fil92" d="m6015 3187c-3.7-5.98-3.7-12-7.41-15-11.1-8.98-37-24-25.9 26.9 11.1 56.9 51.9 35.9 33.3-12z" fill="#c36315" image-rendering="optimizeQuality"/></g><polygon class="fil91" transform="matrix(3.7 0 0 2.99 -52091 -9210)" points="15827 4968 15591 5047 15591 4978 15827 4870" fill="#e28c3f" image-rendering="optimizeQuality"/><polygon class="fil55" transform="matrix(3.7 0 0 2.99 -52091 -9210)" points="15087 4227 14314 4227 14314 4818 15087 4818" fill="#9a4121" image-rendering="optimizeQuality"/></g><g fill="#e59351" fill-rule="nonzero"><polygon class="fil88" transform="matrix(3.7 0 0 2.99 -52091 -9210)" points="14355 4798 14347 4220 14248 4220 14248 4798" image-rendering="optimizeQuality"/><polygon class="fil88" transform="matrix(3.7 0 0 2.99 -52091 -9210)" points="15184 4217 15184 4254 14236 4254 14236 4167 15184 4157 15184 4180 15160 4195" image-rendering="optimizeQuality"/><polygon class="fil88" transform="matrix(3.7 0 0 2.99 -52091 -9210)" points="15103 4896 15066 4896 15066 4187 15153 4187 15163 4896 15140 4896 15123 4889" image-rendering="optimizeQuality"/></g><g fill-rule="nonzero"><polygon class="fil55" transform="matrix(3.7 0 0 2.99 -52091 -9210)" points="15154 4254 15066 4254 15066 4272 15154 4273" fill="#1e1240" image-rendering="optimizeQuality"/><polygon class="fil93" transform="matrix(3.7 0 0 2.99 -52091 -9210)" points="14799 4191 15160 4195 15184 4180" fill="#a55f30" image-rendering="optimizeQuality"/><polygon class="fil93" transform="matrix(3.7 0 0 2.99 -52091 -9210)" points="14323 4217 14236 4227 14236 4211" fill="#a55f30" image-rendering="optimizeQuality"/><polygon class="fil55" transform="matrix(3.7 0 0 2.99 -52091 -9210)" points="14347 4254 14248 4254 14248 4269 14347 4269" fill="#1e1240" image-rendering="optimizeQuality"/><polygon class="fil88" transform="matrix(3.7 0 0 2.99 -52091 -9210)" points="14236 4839 14236 4875 15155 4875 15155 4789 14236 4778 14236 4801 14259 4816" fill="#e59351" image-rendering="optimizeQuality"/><polygon class="fil55" transform="matrix(3.7 0 0 2.99 -52091 -9210)" points="15066 4884 15066 4875 15155 4875" fill="#1e1240" image-rendering="optimizeQuality"/><polygon class="fil93" transform="matrix(3.7 0 0 2.99 -52091 -9210)" points="14502 4818 14236 4801 14259 4816" fill="#a55f30" image-rendering="optimizeQuality"/><path class="fil94" d="m4048 5127s-404 86.8-570 114c-170 26.9-396-47.9-774 0-378 47.9-785 147-785 147h2130z" fill="#d88145" image-rendering="optimizeQuality" stroke-width="3.33"/></g><g fill="#a55f30" fill-rule="nonzero" stroke-width="3.33"><path class="fil93" d="m3899 3702v1329l22.2-225s48.2-1e3 -22.2-1102z" image-rendering="optimizeQuality"/><path class="fil93" d="m751 3663v1407s74.1-1171 0-1407z" image-rendering="optimizeQuality"/><path class="fil93" d="m817 3855v991s74.1-823 0-991z" image-rendering="optimizeQuality"/></g><path d="m2539 3864c-51.2-59.9 273-259 384-261 110-1.78 362 838 80.1 896-121 24.8-768 66.3-1255-6.9-102-15.3-107-260-44.4-354 83.6-126 274-88.5 403-41.3 288 105 477 188 554 70.7 60.1-91.7-70.9-243-122-303z" fill="#f4e8d7" fill-rule="evenodd" image-rendering="optimizeQuality"/><ellipse cx="2502" cy="4843" rx="216" ry="210" fill="#f4e8d7" fill-rule="evenodd" image-rendering="optimizeQuality"/></g><path d="m7180 3194-103-177c-9.48-13.6-20-25.1-31.2-34.7 9.1 36.7 22.2 116 11.9 131-26 37.9-28.6 5.93-105 12-48.5 3.89-112 29-152 46.9-0.763 26.5 0.206 54.5 4.71 82.9 10.9 69 51.9 116 117 116 78.7-0.462 118-4.61 176-24.4 73.1-24.6 109-92.5 80.4-153" fill="#1a1a1a" fill-rule="nonzero"/><g stroke-width="3.38"><path class="fil14" d="m5939 5745s-105-39.5-180-36.4c-78.9 3.04-184-39.5-177 9.11 7.52 48.6 78.9 115 135 134 56.4 18.2 109 39.5 195-3.04 90.2-42.5 26.3-103 26.3-103z"/><path class="fil14" d="m5939 5745s-271 121-383 131c-113 6.07-229-6.07-207 30.4 26.3 39.5 113 51.6 113 51.6s-30.1 54.7 45.1 103c75.2 48.6 139 72.9 203 79 48.9 6.07 500-106 473-179-30.1-75.9-139-237-241-213z"/><path class="fil6" d="m6962 3167s-48.9 15.2-128 18.2c0 0 3.76 39.5 37.6 48.6 30.1 9.11 78.9-18.2 90.2-66.8z"/></g></g>
</svg>
