<svg width="1080" height="1080" style="clip-rule:evenodd;fill-rule:evenodd;image-rendering:optimizeQuality;shape-rendering:geometricPrecision;text-rendering:geometricPrecision" version="1.1" viewBox="0 0 11250 11250" xml:space="preserve" xmlns="http://www.w3.org/2000/svg" xmlns:xlink="http://www.w3.org/1999/xlink">
 <defs>
  <style type="text/css">
   <![CDATA[
    .fil43 {fill:none;fill-rule:nonzero}
    .fil55 {fill:#1E1240;fill-rule:nonzero}
    .fil53 {fill:#200C45;fill-rule:nonzero}
    .fil20 {fill:#2E88BF;fill-rule:nonzero}
    .fil16 {fill:#311E69;fill-rule:nonzero}
    .fil19 {fill:#4CB4D4;fill-rule:nonzero}
    .fil80 {fill:#606623;fill-rule:nonzero}
    .fil15 {fill:#614CD4;fill-rule:nonzero}
    .fil70 {fill:#647021;fill-rule:nonzero}
    .fil77 {fill:#6B1C46;fill-rule:nonzero}
    .fil34 {fill:#700E26;fill-rule:nonzero}
    .fil23 {fill:#710F2B;fill-rule:nonzero}
    .fil17 {fill:#7165E5;fill-rule:nonzero}
    .fil58 {fill:#747F2F;fill-rule:nonzero}
    .fil45 {fill:#76101F;fill-rule:nonzero}
    .fil44 {fill:#781223;fill-rule:nonzero}
    .fil52 {fill:#7AD1E5;fill-rule:nonzero}
    .fil18 {fill:#7F1D4C;fill-rule:nonzero}
    .fil42 {fill:#8E1829;fill-rule:nonzero}
    .fil41 {fill:#901A2E;fill-rule:nonzero}
    .fil59 {fill:#92A348;fill-rule:nonzero}
    .fil40 {fill:#934E4E;fill-rule:nonzero}
    .fil39 {fill:#965558;fill-rule:nonzero}
    .fil71 {fill:#9CA854;fill-rule:nonzero}
    .fil22 {fill:#A1472A;fill-rule:nonzero}
    .fil95 {fill:#A19CFF;fill-rule:nonzero}
    .fil93 {fill:#A55F30;fill-rule:nonzero}
    .fil13 {fill:#AA3766;fill-rule:nonzero}
    .fil32 {fill:#AB2336;fill-rule:nonzero}
    .fil11 {fill:#AD263D;fill-rule:nonzero}
    .fil89 {fill:#AE4C0A;fill-rule:nonzero}
    .fil38 {fill:#B06F7E;fill-rule:nonzero}
    .fil36 {fill:#B17366;fill-rule:nonzero}
    .fil69 {fill:#B1BF60;fill-rule:nonzero}
    .fil64 {fill:#B2C667;fill-rule:nonzero}
    .fil35 {fill:#B47C74;fill-rule:nonzero}
    .fil68 {fill:#B5BF79;fill-rule:nonzero}
    .fil27 {fill:#C1343F;fill-rule:nonzero}
    .fil92 {fill:#C36315;fill-rule:nonzero}
    .fil25 {fill:#C6404B;fill-rule:nonzero}
    .fil30 {fill:#C65961;fill-rule:nonzero}
    .fil67 {fill:#CDD989;fill-rule:nonzero}
    .fil75 {fill:#D0D983;fill-rule:nonzero}
    .fil85 {fill:#D38048;fill-rule:nonzero}
    .fil37 {fill:#D4A3A5;fill-rule:nonzero}
    .fil33 {fill:#D5A986;fill-rule:nonzero}
    .fil94 {fill:#D88145;fill-rule:nonzero}
    .fil31 {fill:#D8B698;fill-rule:nonzero}
    .fil66 {fill:#D93D3D;fill-rule:nonzero}
    .fil26 {fill:#D93D47;fill-rule:nonzero}
    .fil12 {fill:#D95F76;fill-rule:nonzero}
    .fil24 {fill:#DE4953;fill-rule:nonzero}
    .fil29 {fill:#DE6368;fill-rule:nonzero}
    .fil28 {fill:#DE7E74;fill-rule:nonzero}
    .fil74 {fill:#DFE994;fill-rule:nonzero}
    .fil91 {fill:#E28C3F;fill-rule:nonzero}
    .fil90 {fill:#E2934C;fill-rule:nonzero}
    .fil88 {fill:#E59351;fill-rule:nonzero}
    .fil73 {fill:#EB4949;fill-rule:nonzero}
    .fil51 {fill:#EF615E;fill-rule:nonzero}
    .fil5 {fill:#F7B93C;fill-rule:nonzero}
    .fil72 {fill:#F9F498;fill-rule:nonzero}
    .fil8 {fill:#FEFEFE;fill-rule:nonzero}
    .fil46 {fill:#FF3D62;fill-rule:nonzero}
    .fil14 {fill:#FF6161;fill-rule:nonzero}
    .fil48 {fill:#FF6272;fill-rule:nonzero}
    .fil65 {fill:#FF6C52;fill-rule:nonzero}
    .fil47 {fill:#FF7585;fill-rule:nonzero}
    .fil98 {fill:#FF8B85;fill-rule:nonzero}
    .fil50 {fill:#FF9FA7;fill-rule:nonzero}
    .fil97 {fill:#FFB03B;fill-rule:nonzero}
    .fil87 {fill:#FFB675;fill-rule:nonzero}
    .fil21 {fill:#FFB899;fill-rule:nonzero}
    .fil86 {fill:#FFBC80;fill-rule:nonzero}
    .fil61 {fill:#FFC06E;fill-rule:nonzero}
    .fil10 {fill:#FFC969;fill-rule:nonzero}
    .fil49 {fill:#FFCBBB;fill-rule:nonzero}
    .fil54 {fill:#FFCBCA;fill-rule:nonzero}
    .fil60 {fill:#FFD86C;fill-rule:nonzero}
    .fil96 {fill:#FFD96E;fill-rule:nonzero}
    .fil56 {fill:#FFD983;fill-rule:nonzero}
    .fil7 {fill:#FFE8E8;fill-rule:nonzero}
    .fil57 {fill:#FFEEA9;fill-rule:nonzero}
    .fil9 {fill:#FFEFD9;fill-rule:nonzero}
    .fil76 {fill:#FFF085;fill-rule:nonzero}
    .fil62 {fill:#FFF19F;fill-rule:nonzero}
    .fil63 {fill:#FFF2D4;fill-rule:nonzero}
    .fil6 {fill:white;fill-rule:nonzero}
    .fil0 {fill:url(#id30)}
    .fil4 {fill:url(#id31)}
    .fil2 {fill:url(#id32)}
    .fil81 {fill:url(#id33)}
    .fil1 {fill:url(#id34)}
    .fil83 {fill:url(#id35)}
    .fil79 {fill:url(#id36)}
    .fil78 {fill:url(#id37)}
    .fil3 {fill:url(#id38)}
    .fil82 {fill:url(#id39)}
    .fil84 {fill:url(#id40)}
   ]]>
  </style>
   
   
   
   
   
   
   
   
   
   
   
   
   
   
   
   
   
   
   
   
   
   
   
   
   
   
   
   
   
   
  <linearGradient id="id30" x1="261.22" x2="19405" y1="-405.41" y2="12189" gradientUnits="userSpaceOnUse">
   <stop style="stop-color:white" offset="0"/>
   <stop style="stop-color:gainsboro" offset=".43922"/>
   <stop style="stop-color:#B8B8B8" offset="1"/>
  </linearGradient>
  <linearGradient id="id31" x1="6279.6" x2="8540.8" y1="10314" y2="11801" gradientUnits="userSpaceOnUse">
   <stop style="stop-color:#F2F2F2" offset="0"/>
   <stop style="stop-color:#AFAFAF" offset="1"/>
  </linearGradient>
  <linearGradient id="id32" x1="7217.7" x2="14711" y1="6311" y2="11240" gradientUnits="userSpaceOnUse" xlink:href="#id31">
  </linearGradient>
  <linearGradient id="id33" x1="15075" x2="15130" y1="3804.6" y2="3976.1" gradientUnits="userSpaceOnUse">
   <stop style="stop-color:#F73657" offset="0"/>
   <stop style="stop-color:#AD263D" offset="1"/>
  </linearGradient>
  <linearGradient id="id34" x1="8093.8" x2="12125" y1="-259.03" y2="2392.9" gradientTransform="translate(-1965,2759)" gradientUnits="userSpaceOnUse" xlink:href="#id31">
  </linearGradient>
  <linearGradient id="id35" x1="14859" x2="14906" y1="3878.1" y2="3976.6" gradientTransform="matrix(3.9404 0 0 3.1846 -50870 -9793.8)" gradientUnits="userSpaceOnUse" xlink:href="#id33">
  </linearGradient>
  <linearGradient id="id36" x1="14032" x2="14142" y1="3742.7" y2="3909.1" gradientTransform="matrix(3.9404 0 0 3.1846 -50870 -9793.8)" gradientUnits="userSpaceOnUse" xlink:href="#id33">
  </linearGradient>
  <linearGradient id="id37" x1="13872" x2="13955" y1="3851.7" y2="3977.8" gradientTransform="matrix(3.9404 0 0 3.1846 -50870 -9793.8)" gradientUnits="userSpaceOnUse" xlink:href="#id33">
  </linearGradient>
  <linearGradient id="id38" x1="12351" x2="19810" y1="5344.6" y2="10252" gradientUnits="userSpaceOnUse" xlink:href="#id31">
  </linearGradient>
  <linearGradient id="id39" x1="15144" x2="15152" y1="3952" y2="3977.4" gradientTransform="matrix(3.9404 0 0 3.1846 -50870 -9793.8)" gradientUnits="userSpaceOnUse" xlink:href="#id33">
  </linearGradient>
  <linearGradient id="id40" x1="14931" x2="14932" y1="3973.9" y2="3976.2" gradientTransform="matrix(3.9404 0 0 3.1846 -50870 -9793.8)" gradientUnits="userSpaceOnUse" xlink:href="#id33">
  </linearGradient>
 <linearGradient id="linearGradient42246" x1="6397.3" x2="8362.5" y1="6719.4" y2="8276.9" gradientTransform="matrix(.95132 0 0 .95132 -393.03 -232.3)" gradientUnits="userSpaceOnUse"><stop style="stop-color:#444B8C" offset="0"/><stop style="stop-color:#26264F" offset="1"/></linearGradient><linearGradient id="linearGradient43542" x1="6809.6" x2="8289.1" y1="5306.4" y2="5434.6" gradientTransform="matrix(.95132 0 0 .95132 -393.03 -232.3)" gradientUnits="userSpaceOnUse"><stop style="stop-color:#80c904" offset="0"/><stop style="stop-color:#338000" offset="1"/></linearGradient></defs>
 <g transform="translate(1355.4 65.584)">
  
  
  
  
  
  
  
  
  
  
  
  
  
  
  
  
  
  
  
  
  
  
  
  
  
  
  
  
  
  
  
  
  
  
  
  
  
  
  
  
  
  
  
  
  
  
  
  
  
  
  
  
  
  
  
  
  
  
  
  
  
  
  
  
  
  
  
  
  
  
  
  
  
  
  
  
  
  
  
  
  
  
  
  
  
  
  
  
  
  
  
  
  
  
  
  
  
  
  
  
  
  
  
  
  
  
  
  
  
  
  
  
  
  
  
  
  
  
  
  
  
  
  
  
  
  
  
  
  
  
  
  
  
  
  
  
  
  
  
  
  
  
  
  
  
  
  
  
  
  
  
  
  
  
  
  
  
  
  
  
  
  
  
  
  
  
  
  
  
  
  
  
  
  
  
  
  
  
  
  
  
  
  
  
  
  
  
  
  
  
  
  
  
  
  
  
  
  
  
  
  
  
  
  
  
  
  
  
  
  
  
  
  
  
  
  
  
  
  
  
  
  
  
  
  
  
  
  
  
  
  
  
  
  
  
  
  
  
  
  
  
  
  
  
  
  
  
  
  
  
  
  
  
  
  
  
  
  
  
  
  
  
  
  
  
  
  
  
  
  
  
  
  
  
  
  
  
  
  
  
  
  
  
  
  
  
  
  
  
  
  
  
  
  
  
  
  
  
  
  
  
  
  
  
  
  
  
  
  
  
  
  
  
  
  
  
  
  
  
  
  
  
  
  
  
  
  
  
  
  
  
  
  
  
  
  
  
  
  
  
  
  
  
  
  
  
  
  
  
  
  
  
  
  
  
  
  
  
  
  
  
  
  
  
  
  
  
  
  
  
  
  
  
  
  
  
  
  
  
  
  
  
  
  
  
  
  
  
  
  
  
  
  
  
  
  
  
  
  
  
  
  
  
  
  
  
  
  
  
  
  
  
  
  
  
  
  
  
  
  
  
  
  
  
  
  
  
  
  
  
  
  
  
  
  
  
  
  
  
  
  
  
  
  
  
  
  
  
  
  
  
  
  
  
  
  
  
  
  
  
  
  
  
  
  
  
  
  
  
  
  
  
  
  
  
  
  
  
  
  
  
  
  
  
  
  
  
  
  
  
  
  
  
  
  
  
  
  
  
  
  
  
  
  
  
  
  
  
  
  
  
  
  
  
  
  
  
  
  
  
  
  
  
  
  
  
  
  
  
  
  
  
  
  
  
  
  
  
  
  
  
  
  
  
  
  
  
  
  
  
  
  
  
  
  
  
  
  
  
  
  
  
  
  
  
  
  
  
  
  
  
  
  
  
  
  
  
  
  
  
  
  
  
  
  
  
  
  
  
  
  
  
  
  
  
  
  
  
  
  
  
  
  
  
  
  
  
  
  
  
  
  
  
  
  
  
  
  
  
  
  
  
  
  
  
  
  
  
  
  
  
  
  
  
  
  
  
  
  
  
  
  
  
  
  
  
  
  
  
  
  
  
  
  
  
  
  
  
  
  
  
  
  
  
  
  
  
  
  
  
  
  
  
  
  
  
  
  
  
  
  
  
  
  
  
  
  
  
  
  
  
  
  
  
  
  
  
  
  
  
  
  
  
  
  
  
  
  
  
  
  
  
  
  
  
  
  
  
  
  
  
  
  
  
  
  
  
  
  
  
  
  
  
  
  
  
  
  
  
  
  
  
  
  
  
  
  
  
  
  
  
  
  
  
  
  
  
  
  
  
  
  
  
  
  
  
  
  
  
  
  
  
  
  
  
  
  
  
  
  
  
  
  
  
  
  
  
  
  
  
  
  
  
  
  
  
  
  
  
  
  
  
  
  
  
  
  
  
  
  
  
  
  
  
  
  
  
  
  
  
  
  
  
  
  
  
  
  
  
  
  
  
  
  
  
  
  
  
  
  
  
  
  
  
  
  
  
  
  
  
  
  
  
  
  
  
  
  
  
  
  
  
  
  
  
  
  
  
  
  
  
  
  
  
  
  
  
  
  
  
  
  
  
  
  
  
  
  
  
  
  
  
  
  
  
  
  
  
  
  
  
  
  
  
  
  
  
  
  
  
  
  
  
  
  
  
  
  
  
  
  
  
  
  
  
  
  
  
  
  
  
  
  
  
  
  
  
  
  
  
  
  
  
  
  
  
  
  
  
  
  
  
  
  
  
  
  
 <path class="fil14" d="m5344.2 7920.2c108.71-1127 243.65-2078.3 464.82-2438.8 93.714-202.98 2061.7 345.37 2095.4 424.14 344.87 781.62-213.67 2463-127.45 2614.5 78.718 142.39 1353.2 357.49 1267 721.03-48.732 209.04-183.68 266.6-333.62 257.51-727.22-51.503-1259.5-96.946-1566.9-424.14-678.49-733.15-479.81-2017.7-479.81-2017.7s-344.87 890.69-382.35 1299.7c-29.989 339.31 146.19 1590.5-44.982 2066.1-41.234 103-419.84 69.679-524.8 69.679-266.15 0-412.34-2151-371.11-2569.1z" style="stroke-width:3.3699"/><path class="fil6" d="m8346.8 3903c-134.95-230.25-517.3-396.87-828.43-454.43-446.08-96.945-1180.8-33.325-1402 36.355-397.35 130.27-363.61 836.15-449.83 1499.6-29.989 221.16-71.223 911.89-41.234 996.72 93.714 272.66 674.74 315.07 1042.1 351.43 772.2 72.71 1240.8 378.69 1379.5 6.0589 7.4955-15.147-29.988-575.61 82.468-1096.7 119.95-545.32 389.85-1054.3 221.16-1345.1z" style="fill:url(#linearGradient43542);stroke-width:3.3699"/><path class="fil54" d="m8043.2 6263c-3.7471-175.71-7.4953-608.94 82.468-1014.9 119.95-545.32 389.85-1054.3 221.17-1345.1-116.21-196.92-408.59-348.4-689.73-421.11-63.725 66.65-131.2 175.71-183.68 360.52-131.2 484.73-483.56 1120.9-284.89 1578.4 191.18 436.25 412.34 1099.7 850.92 845.24z" style="fill:#338000;stroke-width:3.3699"/><path class="fil55" d="m8073.2 5825.7c-7.4983-30.295-25.101 118.8-1124.7-52.844-682.55-33.672-1075.8-418.67-1135.8-291.43-221.17 360.52-656.31 1372.4-596.48 2496.3v0c183.68 42.413 735.18 124.21 1188.8 154.51 74.97-327.19 183.68-760.41 236.16-963.39-41.232 181.77-101.21 560.46-18.742 963.39 352.36 3.0299 873.41 6.0601 1297-69.679 93.714-572.58 284.97-1543.1 153.77-2236.9z" style="fill:url(#linearGradient42246);stroke-width:3.3699"/><path class="fil96" d="m6330.1 9762.1s-854.11-72.562-857.86 42.561c0 169.66 74.408 726.94 115.64 911.74 14.995 66.65-26.239 133.3-101.21 163.6-164.94 66.65-427.33 190.86-434.83 224.19-11.246 75.739 955.88 69.681 1117.1-3.03 82.468-39.384 186.44-1173.3 119.02-1385.2z" style="fill:#ff6161;stroke-width:3.3699"/><path class="fil96" d="m8271.8 8750.3s-307.02 650.61-172.07 683.93c200.15 52.256 884.3 131.01 1113 146.16 82.468 6.0598 153.69 54.532 168.68 121.18 37.487 145.42 116.21 384.75 153.69 396.87 86.216 30.295 337.37-727.09 292.39-869.48-22.491-75.738-1567.4-526.41-1555.6-475.64z" style="fill:#ff6161;stroke-width:3.3699"/><g transform="matrix(.27555 0 0 -.27555 -6956.9 5000.2)" stroke="null"><g transform="matrix(32.587 0 0 -32.587 23107 19794)"><path d="m308.77 156.1h-76.03v101.46h152.12v-101.46z" fill="#e6e9ed"/><path d="m327.79 80.004c3.4876 0 6.3411 2.8535 6.3411 6.3411v12.682c0 3.4876-2.8535 6.3411-6.3411 6.3411h-38.047c-3.4876 0-6.3411-2.8535-6.3411-6.3411v-12.682c0-3.4876 2.8535-6.3411 6.3411-6.3411z" fill="#656d78"/><path d="m232.74 301.94c0-10.526 8.4971-19.023 19.023-19.023-10.526 0-19.023-8.4971-19.023-19.023v-6.3411h152.12v6.3411c0 10.526-8.4971 19.023-19.023 19.023 10.526 0 19.023 8.4971 19.023 19.023v133.16c0 21.052-16.994 38.047-38.047 38.047h-76.03c-20.989 0-38.047-16.994-38.047-38.047v-120.48z" fill="#d89700"/><path d="m384.86 156.1h-152.12v-6.3411c0-10.526 8.4971-19.023 19.023-19.023h25.301c7.0323 0 12.682-5.6436 12.682-12.682v-12.682h38.047v12.682c0 6.9752 5.707 12.682 12.682 12.682h25.364c10.526 0 19.023 8.4971 19.023 19.023z" fill="#d89700"/><g transform="matrix(6.3411 0 0 6.3411 -93.878 -161.3)" fill="#f6bb42"><path d="m75.498 77.053v-1.998c-1e-3 0-2e-3 -1e-3 -3e-3 -1e-3h-1.994c-0.553 0-1 0.447-1 1s0.447 1 1 1h1.994c1e-3 0 2e-3 -1e-3 3e-3 -1e-3z"/><path d="m75.498 81.053v-1.998c-1e-3 0-2e-3 -1e-3 -3e-3 -1e-3h-1.994c-0.553 0-1 0.447-1 1s0.447 1 1 1h1.994c1e-3 0 2e-3 -1e-3 3e-3 -1e-3z"/><path d="m75.498 85.053v-1.998c-1e-3 0-2e-3 -1e-3 -3e-3 -1e-3h-1.994c-0.553 0-1 0.447-1 1s0.447 1 1 1h1.994c1e-3 0 2e-3 -1e-3 3e-3 -1e-3z"/><path d="m51.508 83.055v1.998c1e-3 0 2e-3 1e-3 3e-3 1e-3h1.994c0.553 0 1-0.447 1-1s-0.447-1-1-1h-1.994c-1e-3 0-2e-3 1e-3 -3e-3 1e-3z"/><path d="m51.508 79.055v1.998c1e-3 0 2e-3 1e-3 3e-3 1e-3h1.994c0.553 0 1-0.447 1-1s-0.447-1-1-1h-1.994c-1e-3 0-2e-3 1e-3 -3e-3 1e-3z"/><path d="m51.508 75.055v1.998c1e-3 0 2e-3 1e-3 3e-3 1e-3h1.994c0.553 0 1-0.447 1-1s-0.447-1-1-1h-1.994c-1e-3 0-2e-3 1e-3 -3e-3 1e-3z"/></g></g><g transform="matrix(32.587 0 0 -32.587 23107 19794)"><g transform="matrix(.1889 0 0 .1889 -697.14 -529.64)" stroke="null"><path d="m5362.4 3957c-18.14 21.2-35.7 33.74-35.7 33.74s-104.01-23.21-123.78-103.19c-0.37-1.45-0.7-2.93-1-4.42-16.95-83.56 6.5-165.92 56.92-226.87 70.18 36.48 123.88 103.19 140.83 186.75 9.46 46.62-14.36 87.22-37.27 113.99z" fill="#5b5b68"/><path d="m5258.9 3871.5c16.819 82.904 66.938 118.63 67.715 119.18-1.662-0.373-107.95-24.703-124.77-107.61-16.952-83.557 6.506-165.91 56.926-226.87-15.63 53.9-16.824 131.74 0.128 215.3z" fill="#40404c"/><path d="m5308.9 3910.8c-3.494 0-6.621-2.454-7.342-6.01l-35.594-175.44c-0.824-4.06 1.799-8.018 5.859-8.841 4.058-0.826 8.018 1.799 8.841 5.859l35.593 175.44c0.824 4.06-1.799 8.018-5.859 8.841-0.502 0.103-1.004 0.152-1.498 0.152z" fill="#40404c"/><path d="m5362.4 3957c-18.14 21.2-35.7 33.74-35.7 33.74s-104.01-23.21-123.78-103.19c58.4 2.39 115.71 25.93 159.48 69.45z" fill="#40404c" stroke="null"/><path d="m5368.1 3860.7c-59.225 61.332-17.915 163.79-17.915 163.79s103.84 37.703 163.07-23.629c59.224-61.332 83.739-143.38 74.007-221.88-78.791-6.983-159.94 20.385-219.16 81.717z" fill="#5b5b68"/><path d="m5409.9 3901.1c-58.761 60.853-59.78 122.39-59.795 123.34-0.635-1.581-40.845-102.93 17.916-163.78 59.224-61.332 140.37-88.693 219.17-81.713-53.263 17.679-118.06 60.821-177.29 122.15z" fill="#40404c"/><path d="m5404.7 3975.5c-1.888 0-3.776-0.708-5.234-2.129-2.966-2.891-3.027-7.64-0.136-10.605l79.297-81.353 26.841-27.796 25.549-27.223c2.834-3.02 7.581-3.17 10.601-0.336 3.021 2.834 3.171 7.581 0.336 10.601l-25.585 27.262c-0.024 0.026-0.049 0.052-0.074 0.078l-26.902 27.86-79.322 81.377c-1.469 1.507-3.419 2.264-5.371 2.264z" fill="#40404c"/><path d="m5228.9 4108.1c48.017 58.349 142.41 32.334 142.41 32.334s43.697-87.624-4.32-145.97c-48.016-58.349-117.79-88.23-187.89-87.597-14.114 68.67 1.781 142.89 49.797 201.24z" fill="#ffca5e"/><path d="m5268.7 4075.3c47.641 57.893 101.72 65.011 102.56 65.121-1.456 0.399-94.764 25.559-142.4-32.334-48.016-58.349-63.905-132.56-49.792-201.24 10.181 48.687 41.618 110.11 89.634 168.46z" fill="#e8a328"/></g></g></g><g transform="matrix(4.4072 0 0 4.3559 2753.7 870.01)" style="clip-rule:evenodd;fill-rule:evenodd;image-rendering:optimizeQuality;shape-rendering:geometricPrecision;text-rendering:geometricPrecision"><g><title>background</title><rect x="-1" y="-1" width="514" height="514" fill="none"/><g x="0" y="0" width="100%" height="100%" display="none" overflow="visible"><rect width="100%" height="100%" fill="url(#gridpattern)" stroke-width="0"/></g></g><g><title>Layer 1</title><g stroke="null"><g transform="matrix(.99194 0 0 .99194 -170.14 -279.29)" stroke="null"><path d="m591.08 436.43c-105.97-7.058-211.94-7.058-317.91 0-31.779 2.116-57.418 26.877-60.365 58.59-7.348 79.078-7.348 158.15 0 237.23 2.947 31.713 28.585 56.473 60.365 58.59 105.97 7.058 211.94 7.058 317.91 0 31.779-2.116 57.418-26.877 60.365-58.59 7.348-79.078 7.348-158.16 0-237.23-2.947-31.713-28.586-56.474-60.365-58.59z" fill="#dd636e"/><path d="m286.71 740.05c1.311 22.57 9.313 41.832 20.767 52.815-11.434-0.594-22.878-1.281-34.311-2.039-31.771-2.11-57.415-26.873-60.365-58.583-7.346-79.083-7.346-158.16 0-237.24 2.951-31.709 28.595-56.472 60.365-58.583 11.434-0.758 22.878-1.445 34.311-2.039-11.454 10.983-19.456 30.244-20.767 52.815-4.867 84.288-4.867 168.57 0 252.85z" fill="#da4a54"/><ellipse cx="432.12" cy="618.58" rx="151.5" ry="119.69" fill="#f9efda"/><path d="m568.27 385.17h-0.035c6.388-4.227 11.007-10.981 12.367-18.978 3.195-18.792 3.195-37.583 0-56.375-2.261-13.298-13.497-23.212-26.978-23.662-81.002-2.703-162-2.703-243.01 0-13.481 0.45-24.717 10.364-26.978 23.662-3.195 18.792-3.195 37.583 0 56.375 1.36 7.997 5.979 14.751 12.367 18.978h-0.035c-46.169 29.259-109 46.069-88.683 85.358 20.318 39.29 74.087-23.107 106.01-18.037 31.919 5.07-12.519 84.01 25.385 84.01 37.903 0 58.797-65.97 93.442-65.97s55.539 65.97 93.442 65.97-6.535-78.941 25.385-84.01 85.689 57.327 106.01 18.037c20.316-39.29-42.515-56.099-88.684-85.358z" fill="#ffe07d"/><path d="m356.44 366.19c0.7 7.994 3.049 21.903 6.305 26.127l-0.02-7.151c-19.718 24.508-45.38 40.29-47.09 67.868-0.731-0.237-1.504-0.41199-2.339-0.54599-31.925-5.068-85.69 57.33-106 18.038-20.325-39.291 42.505-56.104 88.678-85.361h0.031c-6.387-4.224-11.003-10.982-12.362-18.976-3.194-18.79-3.194-37.581 0-56.371 2.256-13.3 13.495-23.22 26.98-23.663 17.873-0.597 35.747-1.061 53.611-1.391-4.028 5.635-6.995 15.885-7.788 25.054-1.629 18.791-1.629 37.581-1e-3 56.372z" fill="#ffd064"/><path d="m432.1 402.54c-48.998 0-97.996-3.236-146.65-9.709-4.229-0.563-7.202-4.448-6.64-8.678 0.563-4.23 4.456-7.198 8.678-6.64 95.958 12.766 193.27 12.766 289.23 0 4.228-0.56099 8.115 2.409 8.678 6.64 0.562 4.229-2.41 8.115-6.64 8.678-48.655 6.473-97.653 9.709-146.65 9.709z" fill="#f9efda"/><path d="m471.27 335.05c-8.971-6.325-19.055-6.695-27.661-1.01-4.739 3.13-8.613 7.796-11.509 13.51-2.896-5.715-6.77-10.38-11.509-13.51-8.605-5.684-18.687-5.316-27.66 1.01-9.408 6.633-10.932 14.354-10.553 19.663 1.314 18.417 28.305 35.061 39.371 41.137 0.384 1.76 0.974 3.937 1.864 6.366-3.573 6.15-10.181 12.929-22.36 15.811-4.152 0.983-6.721 5.145-5.739 9.298 0.842 3.554 4.012 5.949 7.513 5.949 0.589 0 1.187-0.067 1.786-0.209 12.525-2.964 21.293-9.194 27.258-16.215 5.539 6.563 14.119 13.091 27.318 16.215 0.599 0.142 1.197 0.209 1.787 0.209 3.499 0 6.67-2.394 7.512-5.949 0.982-4.152-1.588-8.315-5.739-9.298-12.143-2.874-18.748-9.62-22.328-15.756 0.85-2.274 1.469-4.452 1.889-6.452 11.103-6.103 38.003-22.722 39.314-41.105 0.378-5.31-1.145-13.031-10.554-19.664zm-73.478 18.56c-0.057-0.802-0.208-2.934 4.043-5.932 2.307-1.626 4.251-2.188 5.875-2.188 1.847 0 3.282 0.727 4.365 1.442 7.752 5.121 10.982 18.42 10.458 31.426-11.849-7.476-24.246-17.755-24.741-24.748zm68.618 0c-0.496 6.993-12.893 17.272-24.742 24.748-0.524-13.005 2.706-26.304 10.458-31.425 1.083-0.71499 2.518-1.443 4.366-1.443 1.625 0 3.568 0.56201 5.875 2.188 4.251 2.998 4.1 5.13 4.043 5.932z" fill="#f9efda"/><path d="m432.94 576.13c40.794 0 64.267-26.006 54.937-35.336-9.33-9.33-19.529 8.804-27.463 8.804s3.393-15.977-4.927-19.165c-8.32-3.188-15.032 18.066-23.366 18.066s-15.045-21.254-23.366-18.066c-8.32 3.188 3.007 19.165-4.927 19.165s-18.133-18.133-27.463-8.804c-9.33 9.33 14.143 35.336 54.937 35.336" fill="#b3e59f"/><path d="m431.74 576.13h-0.44c-40.796 0-64.27-26.008-54.939-35.335 9.331-9.331 19.529 8.803 27.465 8.803 0.783 0 1.378-0.15499 1.822-0.44 1.675 11.371 11.48 26.972 26.092 26.972z" fill="#95d6a4"/><path d="m432.12 574.03c-38.217 0-69.199 0.61301-69.199 38.83 0 8.183 1.419 17.424 4.028 26.898 5.244 19.06 15.293 39.061 28.254 53.237 1.788 1.961 3.635 3.807 5.53 5.53 9.421 8.54 20.084 13.903 31.387 13.903 16.76 0 32.124-11.798 44.099-28.266 15.334-21.09 25.102-49.842 25.102-71.299 0-38.218-30.982-38.836-69.201-38.833z" fill="#dd636e"/><path d="m432.12 712.43c-38.22 0-69.198-61.347-69.198-99.566 0-38.22 30.978-38.834 69.198-38.834-17.898 0-32.408 0.614-32.408 38.834 1e-3 38.219 14.511 99.566 32.408 99.566z" fill="#da4a54"/><g fill="#664545"><path d="m394.87 630.63c-4.268 0-7.726-3.459-7.726-7.726v-10.036c0-4.267 3.459-7.726 7.726-7.726s7.726 3.459 7.726 7.726v10.036c0 4.267-3.458 7.726-7.726 7.726z"/><path d="m432.12 630.63c-4.268 0-7.726-3.459-7.726-7.726v-10.036c0-4.267 3.459-7.726 7.726-7.726s7.726 3.459 7.726 7.726v10.036c0 4.267-3.459 7.726-7.726 7.726z"/><path d="m469.37 630.63c-4.268 0-7.726-3.459-7.726-7.726v-10.036c0-4.267 3.459-7.726 7.726-7.726 4.268 0 7.726 3.459 7.726 7.726v10.036c0 4.267-3.458 7.726-7.726 7.726z"/><path d="m413.5 673.59c-4.268 0-7.726-3.459-7.726-7.726v-10.036c0-4.267 3.459-7.726 7.726-7.726 4.268 0 7.726 3.459 7.726 7.726v10.036c0 4.267-3.459 7.726-7.726 7.726z"/><path d="m450.75 673.59c-4.268 0-7.726-3.459-7.726-7.726v-10.036c0-4.267 3.459-7.726 7.726-7.726s7.726 3.459 7.726 7.726v10.036c1e-3 4.267-3.458 7.726-7.726 7.726z"/></g></g></g></g></g><g transform="matrix(4.7337 0 0 4.9572 -472.68 628.5)" style="clip-rule:evenodd;fill-rule:evenodd;image-rendering:optimizeQuality;shape-rendering:geometricPrecision;text-rendering:geometricPrecision"><g><title>background</title><rect x="-1" y="-1" width="514" height="514" fill="none"/><g x="0" y="0" width="100%" height="100%" display="none" overflow="visible"><rect width="100%" height="100%" fill="url(#gridpattern)" stroke-width="0"/></g></g><g><title>Layer 1</title><g stroke="null"><g transform="matrix(8.4155 0 0 8.4155 -4.4837 -1.0394)" stroke="null"><path d="m16.859 13.036 2.138 0.855c1.103 0.441 2.279 0.668 3.466 0.668 1.449 0 2.877-0.337 4.173-0.985l0.059-0.03c1.296-0.648 2.725-0.985 4.174-0.985h0.594c1.449 0 2.877 0.337 4.173 0.985l0.059 0.03c1.296 0.648 2.725 0.985 4.174 0.985h0.283c1.003 0 1.999-0.162 2.951-0.479l3.337-1.112h-1e-3c0.767 1.567 2.068 2.854 3.727 3.591 2.736 1.216 4.5 3.93 4.5 6.924v31.076c0 3.314-2.686 6-6 6h-34c-3.314 0-6-2.686-6-6v-31.076c0-2.995 1.764-5.708 4.5-6.924 1.634-0.726 2.922-1.987 3.693-3.523z" fill="#ace54b"/><path d="m33.504 12.79c-0.668-0.149-1.352-0.231-2.041-0.231h-0.594c-1.449 0-2.877 0.337-4.173 0.985l-0.059 0.03c-1.296 0.648-2.725 0.985-4.174 0.985-1.187 0-2.363-0.227-3.466-0.667l-2.138-0.855c-0.771 1.535-2.059 2.796-3.693 3.522-2.736 1.216-4.5 3.93-4.5 6.924v17.339c12.655-4.042 22.316-14.77 24.838-28.032z" fill="#d0f669"/><path d="m46.439 12.968-3.337 1.112c-0.951 0.317-1.947 0.479-2.95 0.479h-0.283c-1.449 0-2.877-0.337-4.173-0.985l-0.059-0.03c-1.296-0.648-2.725-0.985-4.174-0.985h-0.594c-1.449 0-2.877 0.337-4.173 0.985l-0.059 0.03c-1.296 0.648-2.725 0.985-4.174 0.985-1.187 0-2.363-0.227-3.466-0.667l-2.138-0.855c0.521-1.036 0.807-2.196 0.807-3.402v-1.076h28v1.076c0 1.179 0.274 2.315 0.773 3.333z" fill="#c7e2fc"/><path d="m34.49 53.375c5.822-4.06 10.287-9.8 12.807-16.466l2.806-7.42c0.706-1.868 0.749-3.924 0.122-5.821-0.622-1.88-1.96-3.435-3.72-4.321-1.952-0.983-4.234-1.051-6.24-0.185-2.335 1.008-4.201 2.874-5.219 5.218l-0.383 0.881c-3.184 7.331-7.868 13.902-13.745 19.285-1.144 1.047-1.904 2.452-2.158 3.988-0.363 2.195 0.348 4.432 1.911 6.006 1.493 1.504 3.591 2.229 5.686 1.965 2.921-0.367 5.711-1.441 8.133-3.13z" fill="#50761e"/><path d="m19.703 53.315c0.853 0.235 1.753 0.304 2.653 0.191 2.922-0.368 5.713-1.442 8.134-3.131 5.822-4.06 10.287-9.8 12.807-16.466l2.806-7.42c0.706-1.868 0.749-3.924 0.122-5.821-0.21-0.636-0.503-1.234-0.865-1.782-1.632-0.503-3.399-0.428-4.998 0.236 0.48 1.767 0.392 3.647-0.258 5.367l-2.806 7.42c-2.521 6.665-6.986 12.406-12.807 16.466-1.736 1.21-3.661 2.105-5.689 2.65l-9e-3 -0.04c0.158 0.824 0.466 1.614 0.91 2.33z" fill="#6ea22a"/><path d="m28.842 53.375c-5.822-4.06-10.287-9.8-12.807-16.466l-2.806-7.42c-0.706-1.868-0.749-3.924-0.122-5.821 0.622-1.88 1.96-3.435 3.72-4.321 1.952-0.983 4.234-1.051 6.24-0.185 2.335 1.008 4.201 2.874 5.219 5.218l0.383 0.881c3.184 7.331 7.868 13.902 13.745 19.285 1.144 1.047 1.904 2.452 2.158 3.988 0.363 2.195-0.348 4.432-1.911 6.006-1.493 1.504-3.591 2.229-5.686 1.965-2.921-0.367-5.711-1.441-8.133-3.13z" fill="#50761e"/><path d="m43.629 53.315c-0.853 0.235-1.753 0.304-2.653 0.191-2.922-0.368-5.713-1.442-8.134-3.131-5.822-4.06-10.287-9.8-12.807-16.466l-2.806-7.42c-0.706-1.868-0.749-3.924-0.122-5.821 0.21-0.636 0.503-1.234 0.865-1.782 1.632-0.503 3.399-0.428 4.998 0.236-0.48 1.767-0.392 3.647 0.258 5.367l2.806 7.42c2.521 6.665 6.986 12.406 12.807 16.466 1.736 1.21 3.661 2.105 5.689 2.65l9e-3 -0.04c-0.158 0.824-0.466 1.614-0.91 2.33z" fill="#6ea22a"/><path d="m45.666 8.5592h-28c-1.105 0-2-0.895-2-2v-4c0-1.105 0.895-2 2-2h28c1.105 0 2 0.895 2 2v4c0 1.105-0.895 2-2 2z" fill="#758190"/><path d="m45.666 3.5592h-28c-1.105 0-2 0.895-2 2v1c0 1.105 0.895 2 2 2h28c1.105 0 2-0.895 2-2v-1c0-1.105-0.895-2-2-2z" fill="#8892a0"/><path d="m18.666 3.5582h2v4.999h-2z" fill="#a8b0bc" stroke="null"/><path d="m22.666 3.5582h2v4.999h-2z" fill="#a8b0bc" stroke="null"/><path d="m26.666 3.5582h2v4.999h-2z" fill="#a8b0bc" stroke="null"/><path d="m30.666 3.5582h2v4.999h-2z" fill="#a8b0bc" stroke="null"/><path d="m34.666 3.5582h2v4.999h-2z" fill="#a8b0bc" stroke="null"/><path d="m38.666 3.5582h2v4.999h-2z" fill="#a8b0bc" stroke="null"/><path d="m42.666 3.5582h2v4.999h-2z" fill="#a8b0bc" stroke="null"/><g fill="#ebf7fe"><path d="m16.86 13.036h-1e-3z"/><path d="m17.666 8.5592v1.076c0 1.206-0.286 2.366-0.806 3.402l2.138 0.855c1.102 0.44 2.278 0.667 3.465 0.667 1.449 0 2.877-0.337 4.173-0.985l0.059-0.03c1.296-0.648 2.725-0.985 4.174-0.985h0.594c0.689 0 1.373 0.082 2.041 0.231 0.263-1.384 0.446-2.797 0.549-4.231h-16.387z"/></g></g></g><g fill="#8cc736" stroke="null" stroke-opacity="null" stroke-width="null"><ellipse cx="417.76" cy="302.47" rx="9.9" ry="16.1"/><ellipse transform="rotate(-42.251 410.8 334.3)" cx="410.8" cy="334.3" rx="9.9" ry="16.1"/><ellipse transform="rotate(38.039 426.34 333.69)" cx="426.34" cy="333.69" rx="9.9" ry="16.1"/><ellipse transform="rotate(-42.251 411.41 365.82)" cx="411.41" cy="365.82" rx="9.9" ry="16.1"/><ellipse transform="rotate(38.039 426.95 365.21)" cx="426.95" cy="365.21" rx="9.9" ry="16.1"/><ellipse transform="rotate(-42.251 411.41 396.12)" cx="411.41" cy="396.12" rx="9.9" ry="16.1"/><ellipse transform="rotate(38.039 426.95 395.51)" cx="426.95" cy="395.51" rx="9.9" ry="16.1"/><ellipse transform="rotate(37.735 411.1 464.89)" cx="411.1" cy="464.89" rx="9.9" ry="16.1"/><ellipse cx="420.79" cy="430.95" rx="9.9" ry="16.1"/><ellipse transform="rotate(-32.201 425.64 465.5)" cx="425.64" cy="465.5" rx="9.9" ry="16.1"/><ellipse cx="260.62" cy="137.71" rx="9.9" ry="16.1"/><ellipse transform="rotate(-42.251 253.66 169.54)" cx="253.66" cy="169.54" rx="9.9" ry="16.1"/><ellipse transform="rotate(38.039 269.2 168.93)" cx="269.2" cy="168.93" rx="9.9" ry="16.1"/><ellipse transform="rotate(-42.251 254.27 201.05)" cx="254.27" cy="201.05" rx="9.9" ry="16.1"/><ellipse transform="rotate(38.039 269.81 200.45)" cx="269.81" cy="200.45" rx="9.9" ry="16.1"/><ellipse cx="112.77" cy="364.47" rx="9.9" ry="16.1"/><ellipse transform="rotate(-42.251 105.81 396.3)" cx="105.81" cy="396.3" rx="9.9" ry="16.1"/><ellipse transform="rotate(38.039 121.35 395.69)" cx="121.35" cy="395.69" rx="9.9" ry="16.1"/><ellipse transform="rotate(-42.251 106.41 427.81)" cx="106.41" cy="427.81" rx="9.9" ry="16.1"/><ellipse transform="rotate(38.039 121.95 427.21)" cx="121.95" cy="427.21" rx="9.9" ry="16.1"/><ellipse transform="rotate(-42.251 106.41 458.12)" cx="106.41" cy="458.12" rx="9.9" ry="16.1"/><ellipse transform="rotate(38.039 121.95 457.51)" cx="121.95" cy="457.51" rx="9.9" ry="16.1"/></g><g fill="#ffffff" stroke="null" stroke-opacity="null" stroke-width="null"><ellipse transform="rotate(-33.729 180.8 219.74)" cx="180.8" cy="219.74" rx="10.036" ry="13.01"/><ellipse transform="rotate(-33.729 230.59 267.98)" cx="230.59" cy="267.98" rx="20.153" ry="26.124"/><ellipse transform="rotate(21.278 369 227.5)" cx="369" cy="227.5" rx="25.202" ry="19.241"/><ellipse transform="rotate(21.278 336.55 251.47)" cx="336.55" cy="251.47" rx="12.018" ry="9.2039"/><ellipse transform="rotate(-38.314 93.787 273.86)" cx="93.787" cy="273.86" rx="9.0447" ry="11.725"/><ellipse transform="rotate(-39.103 96.55 317.58)" cx="96.55" cy="317.58" rx="13.686" ry="19.094"/><ellipse transform="rotate(-38.314 385.91 415.84)" cx="385.91" cy="415.84" rx="5.0997" ry="6.6108"/><ellipse transform="rotate(-38.314 391.04 444.54)" cx="391.04" cy="444.54" rx="8.3299" ry="10.798"/></g></g></g><g transform="matrix(.27555 0 0 -.27555 162.81 5908.7)"><path d="m-3053.4 7919.7c55.046 0 141.69-1.4811 246.85-3.7027-300.17-5.6775-752.39-16.045-1053.3-9.8739 330.78 4.1964 668.47 13.577 806.45 13.577z" fill="#60b7ff" style="stroke-width:24.685"/><path d="m-1753.2 7906.1c-300.91-6.1712-752.88 4.1964-1053.3 9.8739 105.4 2.2216 192.05 3.7027 246.85 3.7027 137.99 0 475.43-9.3802 806.45-13.577z" fill="#60b7ff" style="stroke-width:24.685"/><path d="m-1518.8 18583-2087 2.419v780.55l2087-2.419z" fill="#c4e2ff" style="stroke-width:24.685"/><path d="m-3605.8 19331h2086.9v-360.62h-2086.9z" fill="#b3dafe" style="stroke-width:24.685"/><path d="m-479.22 10923c-47.049 618.52-21.623 1242.8 108.24 1851 101.75 476.56 130.53 1035.8 130.53 1521.6h-2319.3-2317.1c0-485.77 26.611-1045 128.36-1521.6 129.86-608.18 155.32-1232.5 108.24-1851-55.491-729.34-273.51-1433.7-267.14-2161.6 3.95-452.08 242.8-946.83 754-1014.5 272-35.99 1318.6 0 1593.6 0 274.99 0 1321.6-35.99 1593.6 0 511.17 67.662 750.02 562.44 754 1014.5 6.368 727.9-211.67 1432.2-267.14 2161.6z" fill="#fcd4d4" style="stroke-width:24.685"/><path d="m-212.06 8761.5c-4.048-452.03-242.9-946.93-754.04-1014.4-131.22-17.253-442.13-18.02-759.87-13.972 107.87 2.2973 196.44 6.5925 252.28 13.972 511.15 67.514 749.97 562.42 754.05 1014.4 6.342 727.9-211.67 1432.2-267.26 2161.6-46.95 618.5-21.575 1242.8 108.37 1851 101.78 476.64 130.46 1035.8 130.46 1521.6h507.59c0-485.77-28.683-1045-130.46-1521.6-129.94-608.11-155.32-1232.5-108.37-1851 55.591-729.43 273.61-1433.7 267.26-2161.6z" fill="#ffaaaa" style="stroke-width:24.685"/><path d="m-1361.3 19331h-2396.8c-72.155 0-130.66 58.503-130.66 130.66v777.12c0 72.155 58.503 130.66 130.66 130.66h2396.8c72.156 0 130.66-58.503 130.66-130.66v-777.12c0-72.152-58.502-130.66-130.66-130.66z" fill="#ff6666" style="stroke-width:24.685"/><path d="m-240.47 16812-1278.1 1800.2h-2086.5l-1267.8-1800.2-3.874-5.507v-68.399h4636.3z" fill="#fcd4d4" style="stroke-width:24.685"/><path d="m-240.47 16812h-508.8l-1276.4 1800.2h507.1z" fill="#ffaaaa" style="stroke-width:24.685"/><path d="m-240.44 14225h-4636.3v2581.5l4636.3 5.557z" fill="#0593fc" style="stroke-width:24.685"/><path d="m-749.27 16812h508.8v-2587h-508.8z" fill="#0182fc" style="stroke-width:24.685"/><g transform="matrix(24.685 0 0 -24.685 -8879 20370)" stroke="null"><path d="m285.51 256.86c-23.441-2.4397-41.353-14.894-40.008-27.816 1.3449-12.923 21.438-21.422 44.879-18.982 23.441 2.4397 51.188 17.681 50.025 28.859-1.1633 11.178-31.454 20.38-54.895 17.94z" fill="#5eac24"/><path d="m290.38 210.06c-23.441-2.4397-43.534 6.0591-44.879 18.982l25.943-4.7806c14.351-2.6445 29.157-1.1848 42.715 4.2113l26.246 10.446c1.1629-11.178-26.584-26.419-50.025-28.859z" fill="#4e901e"/><path d="m322.26 240.1-74.818-7.7864c-1.681-0.17491-2.9016-1.6796-2.7267-3.3602s1.6813-2.8993 3.3602-2.7267l74.818 7.7863c1.6809 0.17491 2.9016 1.6796 2.7267 3.3602-0.16349 1.5732-1.3764 2.8962-3.3602 2.7267z" fill="#47821c"/><path d="m295.13 231.75c-19.709-12.923-41.461-14.591-48.585-3.7251s3.0772 30.15 22.786 43.072c19.708 12.923 50.845 18.646 57.007 9.2474 6.1625-9.3981-11.499-35.672-31.207-48.595z" fill="#6dc82a"/><path d="m269.33 271.1c-19.709-12.923-29.91-32.207-22.786-43.072l18.403 23.585c7.9109 10.139 18.916 17.417 31.342 20.728l30.047 8.0062c-6.1625 9.3985-37.298 3.6755-57.007-9.247z" fill="#5eac24"/><path d="m313.02 267.95-20.586-13.499 9.1322-1.7384c1.6601-0.31625 2.7499-1.9176 2.4336-3.5781-0.31624-1.6601-1.9173-2.7509-3.5781-2.4336l-15.352 2.9218-11.03-7.2321 9.1322-1.7384c1.6601-0.31624 2.7499-1.9176 2.4336-3.5781-0.31624-1.6605-1.918-2.7506-3.5781-2.4336l-15.352 2.9218-16.561-10.86c-1.4134-0.92693-3.3102-0.53212-4.2368 0.88092-0.92658 1.413-0.53211 3.3102 0.88093 4.2368l16.562 10.86 3.4405 15.243c0.77517 3.0245 3.4321 2.3624 3.6583 2.3114 1.6487-0.37197 2.6834-2.01 2.3114-3.6583l-2.0469-9.0678 11.03 7.2321 3.4404 15.243c0.77619 2.9943 3.4317 2.3624 3.6583 2.3114 1.6487-0.37197 2.6834-2.01 2.3114-3.6583l-2.0469-9.0678 20.586 13.499c2.0831 1.1559 3.6493 0.0148 4.2368-0.88092 0.92726-1.414 0.53312-3.3112-0.87992-4.2378z" fill="#47821c"/><path d="m223.49 256.86c23.441-2.4397 41.353-14.894 40.008-27.816-1.3449-12.923-21.438-21.422-44.879-18.982-23.441 2.4397-51.188 17.681-50.025 28.859 1.1629 11.178 31.454 20.379 54.895 17.94z" fill="#91dc5a"/><path d="m218.62 210.06c23.441-2.4397 43.534 6.0591 44.879 18.982l-29.142-6.385c-13.822-3.0282-28.257-1.4013-41.058 4.6276l-24.703 11.634c-1.1629-11.178 26.584-26.419 50.025-28.859z" fill="#6dc82a"/><path d="m213.87 231.75c19.709-12.923 41.461-14.591 48.585-3.7251s-3.0772 30.15-22.786 43.072c-19.708 12.923-50.845 18.646-57.007 9.2474s11.498-35.672 31.207-48.595z" fill="#b6e892"/><path d="m239.67 271.1c19.709-12.923 29.91-32.207 22.786-43.072l-13.089 18.142c-9.7174 13.468-23.84 23.113-39.921 27.264l-26.783 6.9135c6.1625 9.3985 37.299 3.6755 57.007-9.247z" fill="#91dc5a"/><g transform="matrix(.33572 0 0 .33572 -463.22 -552.34)" fill="#47821c"><path d="m1926 2352.3c-0.521-5.007 3.115-9.488 8.122-10.009l222.86-23.193c5.007-0.521 9.488 3.115 10.009 8.122s-3.115 9.488-8.122 10.009l-222.86 23.193c-7.254 0.46-9.521-3.435-10.009-8.122z"/><path d="m2163.6 2323.1c-2.76-4.208-8.41-5.386-12.62-2.624l-49.331 32.347-45.728-8.703c-4.943-0.943-9.717 2.305-10.658 7.249-0.942 4.945 2.305 9.717 7.249 10.658l27.202 5.178-32.855 21.542-45.728-8.703c-4.943-0.942-9.717 2.305-10.658 7.249-0.942 4.945 2.305 9.717 7.249 10.658l27.202 5.178-61.32 40.208c-4.209 2.76-5.385 8.41-2.624 12.62 1.75 2.668 7.612 5.184 12.62 2.624l61.32-40.208-6.097 27.01c-1.108 4.911 1.974 9.789 6.885 10.897 0.676 0.152 8.587 1.858 10.897-6.885l10.248-45.405 32.855-21.542-6.097 27.01c-1.108 4.911 1.974 9.789 6.885 10.897 0.676 0.152 9.255 1.241 10.897-6.885l10.248-45.405 49.332-32.348c4.213-2.757 5.388-8.408 2.627-12.617z"/></g><path d="m317.45 160.88s3.5653-29.413-25.044-24.217c-2.6529 0.48175-5.3497-0.49821-7.1384-2.5162-6.1541-6.9407-21.907-19.266-39.066 10.352-0.81009 0.21956 37.784 28.554 37.784 28.554z" fill="#c70024"/><g transform="matrix(.33572 0 0 .33572 -463.22 -552.34)" fill="#d80027"><path d="m1952.5 2124.4s-10.62-87.611 74.597-72.136c7.903 1.435 15.935-1.484 21.263-7.495 18.331-20.674 65.255-57.388 116.36 30.835 2.413 0.654-112.55 85.054-112.55 85.054z"/><path d="m2235.4 2123s53.807-26.748 113.14-5.545c9.341 3.338 13.542 14.185 8.871 22.935-12.452 23.328-33.625 71.073-32.254 126.25 1.932 77.747-100.82 155.49-204.07 70.481 1.915-2.782 114.31-214.12 114.31-214.12z"/></g><path d="m297 157.16c-0.65768 7.0118-0.56334 17.236 3.9857 24.681 7.6014 12.441 16.753 48.234-16.162 62.529-10.85 1.4053-23.385-1.7615-35.943-12.1 0.64357-0.93296 38.377-71.884 38.377-71.884s3.7607-1.8693 9.7416-3.2259z" fill="#c70024"/><path d="m221.74 160.38s-18.064-8.9798-37.982-1.8616c-3.136 1.1206-4.5463 4.7622-2.9782 7.6997 4.1804 7.8317 11.289 23.861 10.828 42.384-0.64861 26.101 33.846 52.201 68.509 23.662-0.64324-0.93397-38.377-71.884-38.377-71.884z" fill="#ff0c38"/><path d="m212 157.16c0.65767 7.0118 0.56333 17.236-3.9857 24.681-7.6014 12.441-16.753 48.234 16.162 62.529 10.85 1.4053 23.385-1.7615 35.943-12.1-0.64358-0.93296-38.377-71.884-38.377-71.884s-3.7607-1.8693-9.7416-3.2259z" fill="#d80027"/><path d="m288.23 147.99s-21.541-27.344-49.207 18.64c0.21117 0.15611 19.134 15.207 19.134 15.207z" fill="#ff0c38"/><path d="m239.08 166.68c1.1841 0.93061 19.072 15.159 19.072 15.159l30.073-33.848s-0.98802-1.2532-2.811-2.7717h-1e-3s-23.565-5.7945-46.333 21.46z" fill="#d80027"/><path d="m220.77 147.99s21.541-27.344 49.207 18.64c-0.21117 0.15611-19.134 15.207-19.134 15.207z" fill="#ff3f62"/><path d="m223.28 150.81 27.566 31.026s18.923-15.052 19.134-15.207c-1.7702-2.9426-3.5153-5.5827-5.2315-7.9512-2.7667-2.6988-16.694-14.577-41.469-7.8676z" fill="#ff0c38"/><path d="m292.28 187.04c-5.3927-9.5227-2.8828-24.221-2.8828-24.221l-6.5626-7.0488-28.335 26.71-28.335-26.71-6.5626 7.0488s2.5098 14.698-2.8828 24.221c-6.1766 10.908-10.422 45.923 37.781 45.923 48.203 0 43.957-35.015 37.781-45.923z" fill="#ff3f62"/><path d="m264.77 172.8-10.273 9.6838-28.335-26.71-6.5626 7.0488s2.5098 14.698-2.8828 24.221c-6.1766 10.908-10.422 45.923 37.781 45.923 11.903 0 20.603-2.1375 26.871-5.5179-2.2755-25.062-8.7592-42.507-16.598-54.649z" fill="#ff0c38"/><path d="m292.8 142.79c-23.946 6.0812-36.251 25.509-42.078 39.046l7.6729 10.423c7.837-2.9077 14.251-6.8134 19.485-11.18 2.9892-2.4937 4.4584-6.3679 3.9259-10.224l-0.98198-7.1075 4.7001-3.4e-4c4.4439-3.4e-4 8.5021-2.5867 10.319-6.6422 1.3056-2.9144 2.2782-5.6082 2.9953-7.9142 1.1676-3.7513-2.2298-7.3677-6.0376-6.4008z" fill="#ff728b"/><path d="m259.73 165.89c-3.9914 5.48-6.9188 11.089-9.0077 15.941l7.6729 10.423c4.9438-1.834 9.3199-4.0662 13.192-6.5596-3.4834-8.111-7.5681-14.605-11.857-19.805z" fill="#ff3f62"/><path d="m263.5 195.69-7.3402-14.777-1.6632 1.5678-28.335-26.71-6.5626 7.0488s2.5098 14.698-2.8828 24.221c-6.1769 10.908-10.422 45.923 37.781 45.923 4.4936 0 8.53-0.30517 12.153-0.86582 1.3298-17.918-3.1494-36.408-3.1494-36.408z" fill="#ff728b"/><path d="m244.97 232.45c-9.5099-9.279-14.539-25.283-10.28-43.017 2.0898-8.7039 1.9381-17.257 0.72381-24.939l-9.2474-8.7173-6.5626 7.0488s2.5098 14.698-2.8828 24.221c-5.7351 10.129-9.797 41.041 28.249 45.404z" fill="#ff3f62"/><path d="m210.78 149.19c0.71743 2.3057 1.6897 4.9995 2.9953 7.9142 1.8169 4.0555 5.8754 6.6419 10.319 6.6422l4.7001 3.3e-4 -0.98198 7.1075c-0.53245 3.8557 0.93666 7.7306 3.9259 10.224 7.745 6.4612 18.058 11.921 31.768 14.615 0 0-8.6948-43.256-46.689-52.905-3.8077-0.96687-7.2049 2.6495-6.0376 6.4012z" fill="#ffa5b5"/></g><g fill="#ffffff" stroke="null" stroke-opacity="null" stroke-width="24.685"><circle transform="scale(1,-1)" cx="-3547.1" cy="-12113" r="481.35"/><circle transform="scale(1,-1)" cx="-2460.9" cy="-10977" r="209.82"/><circle transform="scale(1,-1)" cx="-1547.6" cy="-10014" r="160.45"/></g></g><g transform="matrix(4.4396 0 0 3.9205 4452.6 1097)" style="clip-rule:evenodd;fill-rule:evenodd;image-rendering:optimizeQuality;shape-rendering:geometricPrecision;text-rendering:geometricPrecision"><g><title>background</title><rect x="-1" y="-1" width="514" height="514" fill="none"/><g x="0" y="0" width="100%" height="100%" display="none" overflow="visible"><rect width="100%" height="100%" fill="url(#gridpattern)" stroke-width="0"/></g></g><g><title>Layer 1</title><g stroke="null"><path d="m400.61 510.78h-289.01l-6.405-8.005a290.67 290.67 0 0 1-55.01-252.08l37.331-149.35h337.18l37.331 149.35a290.67 290.67 0 0 1-55.016 252.08z" fill="#ebebeb"/><g transform="matrix(1.5053 0 0 1.5053 -2629.3 -3428.7)" fill="#e4e4e2"><path d="m2053.6 2444.3-24.8-99.216h-206.57l-24.8 99.216a193.1 193.1 0 0 0 36.549 167.47l4.251 5.318h174.57l4.254-5.318a193.1 193.1 0 0 0 36.546-167.47z"/><path d="m2053.6 2444.3-24.8-99.216h-206.57l-24.8 99.216a193.1 193.1 0 0 0 36.549 167.47l4.251 5.318h174.57l4.254-5.318a193.1 193.1 0 0 0 36.546-167.47z"/></g><path d="m69.454 173.59h373.31l-9.0316-36.127h-355.24z" fill="#d2d2d1"/><rect transform="matrix(1.5053 0 0 1.5053 -2629.3 -3428.7)" x="1788.8" y="2281.1" width="256" height="64" rx="16" fill="#ce9c77"/><g fill="#be906e"><path d="m508.93 173.59c-31.642 0-31.642 24.084-63.283 24.084s-31.621-48.169-63.241-48.169c-31.593 0-31.593 48.169-63.185 48.169s-31.611-48.169-63.222-48.169c-31.611 0-31.602 48.169-63.203 48.169-31.602 0-31.6-48.169-63.202-48.169-31.602 0-31.602 48.169-63.202 48.169s-31.585-24.084-63.172-24.084v-0.0662a50.485 50.485 0 0 1 34.113-47.756l47.172-24.431h343.2l47.115 24.41a50.488 50.488 0 0 1 34.108 47.844z"/><path d="m400.61 65.215h-48.169a12.042 12.042 0 0 1 0-24.084h48.169a12.042 12.042 0 0 1-1e-5 24.084z"/><path d="m304.28 65.215h-12.042a12.042 12.042 0 0 1 0-24.084h12.042a12.042 12.042 0 0 1 0 24.084z"/></g><path d="m472.87 125.43v-0.6864l-45.158-23.398h-343.2l-46.505 24.084z" fill="#b28768"/><path d="m462.03 250.69-1.2042-4.841h-409.43l-1.2042 4.841a290.67 290.67 0 0 0 55.018 252.08l6.3974 8.005h289.01l6.4034-8.005a290.67 290.67 0 0 0 55.012-252.08z" fill="#ffc45b"/><path d="m462.03 250.69-1.2042-4.841h-383.2l-1.2042 4.841a290.67 290.67 0 0 0 55.018 252.08l6.3974 8.005h262.78l6.4034-8.005a290.67 290.67 0 0 0 55.012-252.08z" fill="#fdb62f"/><path d="m190.16 381.37v38.08l32.979 19.04 32.979-19.04v-38.08l48.163-3.0587-12.042-12.042-36.127-48.169v12.042l-24.084 24.084-8.8886 8.1029z" fill="#d38e14"/><path d="m117.8 424.8a12.053 12.053 0 0 1-11.043-7.2253l-5.842-13.371a222.87 222.87 0 0 1-16.117-123.21 12.042 12.042 0 1 1 23.794 3.6443 198.81 198.81 0 0 0 14.383 109.91l5.8495 13.377a12.053 12.053 0 0 1-11.031 16.87z" fill="#ffc45b"/><path d="m223.14 324.11v38.08l32.979 19.04 32.979-19.04v-38.08l-32.979-19.04z" fill="#dc9315"/><path d="m256.11 381.4v38.08l32.979 19.04 32.979-19.04v-38.08l-32.979-19.04z" fill="#ec9e15"/></g></g></g><polygon class="fil64" transform="matrix(3.6951 0 0 2.9863 -51954 -9124.6)" points="15605 4077 15544 4207 15510 4189 15583 4063" style="clip-rule:evenodd;fill-rule:nonzero;fill:#b2c667;image-rendering:optimizeQuality;shape-rendering:geometricPrecision"/><polygon class="fil58" transform="matrix(3.6951 0 0 2.9863 -51954 -9124.6)" points="15530 4200 15596 4071 15605 4077 15544 4207" style="clip-rule:evenodd;fill-rule:nonzero;fill:#747f2f;image-rendering:optimizeQuality;shape-rendering:geometricPrecision"/><polygon class="fil64" transform="matrix(3.6951 0 0 2.9863 -51954 -9124.6)" points="15583 4069 15502 4220 15468 4201 15562 4054" style="clip-rule:evenodd;fill-rule:nonzero;fill:#b2c667;image-rendering:optimizeQuality;shape-rendering:geometricPrecision"/><polygon class="fil58" transform="matrix(3.6951 0 0 2.9863 -51954 -9124.6)" points="15488 4212 15575 4063 15583 4069 15502 4220" style="clip-rule:evenodd;fill-rule:nonzero;fill:#747f2f;image-rendering:optimizeQuality;shape-rendering:geometricPrecision"/><polygon class="fil64" transform="matrix(3.6951 0 0 2.9863 -51954 -9124.6)" points="15564 4061 15491 4169 15466 4152 15549 4048" style="clip-rule:evenodd;fill-rule:nonzero;fill:#b2c667;image-rendering:optimizeQuality;shape-rendering:geometricPrecision"/><polygon class="fil58" transform="matrix(3.6951 0 0 2.9863 -51954 -9124.6)" points="15480 4162 15558 4056 15564 4061 15491 4169" style="clip-rule:evenodd;fill-rule:nonzero;fill:#747f2f;image-rendering:optimizeQuality;shape-rendering:geometricPrecision"/><path class="fil16" d="m5438.6 2775.9s33.255 50.77 81.292 59.727c48.036 5.9717-81.292-59.727-81.292-59.727z" style="clip-rule:evenodd;fill-rule:nonzero;fill:#311e69;image-rendering:optimizeQuality;shape-rendering:geometricPrecision;stroke-width:3.3219"/><path class="fil16" d="m5749 2823.7s0-11.946-92.377-41.81c0 0 33.255 35.84 92.377 41.81z" style="clip-rule:evenodd;fill-rule:nonzero;fill:#311e69;image-rendering:optimizeQuality;shape-rendering:geometricPrecision;stroke-width:3.3219"/><path class="fil16" d="m6040.9 2844.6s-59.122-32.852-99.769-32.852c0 0 48.038 44.799 99.769 32.852z" style="clip-rule:evenodd;fill-rule:nonzero;fill:#311e69;image-rendering:optimizeQuality;shape-rendering:geometricPrecision;stroke-width:3.3219"/><path class="fil16" d="m5712 2984.9s48.035 44.792 99.766 32.845c0 0-59.121-32.845-99.766-32.845z" style="clip-rule:evenodd;fill-rule:nonzero;fill:#311e69;image-rendering:optimizeQuality;shape-rendering:geometricPrecision;stroke-width:3.3219"/><path class="fil55" d="m2283 2952.1c22.17-20.906 3.6944-53.757-33.256-50.77-66.512 5.9767-155.19 17.917-155.19 65.699-3.6949 62.715 107.16 62.715 188.45-14.93z" style="clip-rule:evenodd;fill-rule:nonzero;fill:#1e1240;image-rendering:optimizeQuality;shape-rendering:geometricPrecision;stroke-width:3.3219"/><polygon class="fil77" transform="matrix(3.6951 0 0 2.9863 -51954 -9124.6)" points="13870 4902 15813 4902 15813 4157 13870 4157" style="clip-rule:evenodd;fill-rule:nonzero;fill:#7e3a1a;image-rendering:optimizeQuality;shape-rendering:geometricPrecision"/><polygon class="fil85" transform="matrix(3.6951 0 0 2.9863 -51954 -9124.6)" points="15388 4847 15570 4847 15570 4123 15388 4123" style="clip-rule:evenodd;fill-rule:nonzero;fill:#d38048;image-rendering:optimizeQuality;shape-rendering:geometricPrecision"/><polygon class="fil85" transform="matrix(3.6951 0 0 2.9863 -51954 -9124.6)" points="13779 4847 13961 4847 13961 4123 13779 4123" style="clip-rule:evenodd;fill-rule:nonzero;fill:#d38048;image-rendering:optimizeQuality;shape-rendering:geometricPrecision"/><path class="fil86" d="m4814.1 3940.6c0 62.715-62.817 113.48-140.41 113.48-77.596 0-140.41-50.764-140.41-113.48l-5697.8-29.864v409.13l51.731 122.44-51.731 92.579v438.99l4958.8-50.764 1858.6 14.929v-997.43l-842.48-2.9883z" style="clip-rule:evenodd;fill-rule:nonzero;fill:#ffbc80;image-rendering:optimizeQuality;shape-rendering:geometricPrecision;stroke-width:3.3219"/><polygon class="fil86" transform="matrix(3.6951 0 0 2.9863 -51954 -9124.6)" points="15591 4309 15591 3975 13745 3975 13745 4062 13769 4097 13745 4138 13745 4332 15087 4316 15086 4295 15284 4313" style="clip-rule:evenodd;fill-rule:nonzero;fill:#ffbc80;image-rendering:optimizeQuality;shape-rendering:geometricPrecision"/><path class="fil87" d="m-1164.6 3468.7s883.13-149.32 1274.8-77.644c395.37 71.668 824 179.18 1699.7 110.49 875.74-68.685 1337.6-391.2 2076.6-424.06 739.02-32.852 1766.3 170.22 1766.3 170.22v498.72s-694.68-56.738-1097.4-143.34c-402.77-86.604-831.4-253.84-1282.2-92.58-454.49 161.26-654.03 229.95-975.5 173.21-325.17-56.738-376.9-101.53-753.8-65.698-376.9 35.84-1448.5 185.15-1448.5 185.15l-1256.3 11.948v-343.43z" style="clip-rule:evenodd;fill-rule:nonzero;fill:#ffb675;image-rendering:optimizeQuality;shape-rendering:geometricPrecision;stroke-width:3.3219"/><path class="fil86" d="m3901.4 5045.5-491.45 35.834-376.9-35.834h-1540.9c0 71.674-88.683 131.4-199.54 131.4-107.16 0-195.84-59.721-195.84-131.4h-2257.7v531.57l384.29 152.31-384.29 74.656v206.06l4958.8-44.797 727.93-5.9716 1130.7-8.9584v-901.87h-1755.2z" style="clip-rule:evenodd;fill-rule:nonzero;fill:#ffbc80;image-rendering:optimizeQuality;shape-rendering:geometricPrecision;stroke-width:3.3219"/><path class="fil88" d="m-1038.9 3113.3s2885.9-17.917 3554.7 0c668.81 17.918 1204.6 23.893 1204.6 23.893s-3824.4 125.42-4759.3-23.893z" style="clip-rule:evenodd;fill-rule:nonzero;fill:#e59351;image-rendering:optimizeQuality;shape-rendering:geometricPrecision;stroke-width:3.3219"/><polygon class="fil88" transform="matrix(3.6951 0 0 2.9863 -51954 -9124.6)" points="15284 4313 15084 4273 15086 4295" style="clip-rule:evenodd;fill-rule:nonzero;fill:#e59351;image-rendering:optimizeQuality;shape-rendering:geometricPrecision"/><polygon class="fil88" transform="matrix(3.6951 0 0 2.9863 -51954 -9124.6)" points="15591 4053 15512 4061 15591 4076" style="clip-rule:evenodd;fill-rule:nonzero;fill:#e59351;image-rendering:optimizeQuality;shape-rendering:geometricPrecision"/><path class="fil88" d="m2512.1 3358.2s1466.9-38.822 2117.3-29.863c650.33 8.9583 1027.2 29.863 1027.2 29.863v89.59z" style="clip-rule:evenodd;fill-rule:nonzero;fill:#e59351;image-rendering:optimizeQuality;shape-rendering:geometricPrecision;stroke-width:3.3219"/><polygon class="fil88" transform="matrix(3.6951 0 0 2.9863 -51954 -9124.6)" points="13759 4543 14423 4550 13747 4507" style="clip-rule:evenodd;fill-rule:nonzero;fill:#e59351;image-rendering:optimizeQuality;shape-rendering:geometricPrecision"/><path class="fil87" d="m-1164.6 4615.5s450.8-50.77 1130.7 0c679.9 50.768 993.98 110.5 1300.7 77.643 306.69-32.845 631.86-253.83 794.44-250.85 162.58 2.9882 1289.6 209.05 1888.2 146.33 598.61-59.728 0-244.88 306.69-343.43 306.69-101.54 831.4 26.877 971.81 155.29 140.41 128.41 428.63 301.61 428.63 301.61v238.91l-6817.4 32.847v-361.34z" style="clip-rule:evenodd;fill-rule:nonzero;fill:#ffb675;image-rendering:optimizeQuality;shape-rendering:geometricPrecision;stroke-width:3.3219"/><path class="fil88" d="m2375.3 5385.9s-303-53.758-395.38 14.928c-92.377 68.686 465.58 155.29 565.35 86.602 99.768-68.68-169.97-101.53-169.97-101.53z" style="clip-rule:evenodd;fill-rule:nonzero;fill:#e59351;image-rendering:optimizeQuality;shape-rendering:geometricPrecision;stroke-width:3.3219"/><path class="fil88" d="m1599.4 3325.4c-18.476-8.9591-40.646-11.942-66.511-17.917-73.903-8.9592-273.44-32.846-195.84 20.906 92.377 62.715 387.98 47.779 258.66-5.9717z" style="clip-rule:evenodd;fill-rule:nonzero;fill:#e59351;image-rendering:optimizeQuality;shape-rendering:geometricPrecision;stroke-width:3.3219"/><polygon class="fil87" transform="matrix(3.6951 0 0 2.9863 -51954 -9124.6)" points="13745 4999 15591 4947 15591 5047 13745 5068" style="clip-rule:evenodd;fill-rule:nonzero;fill:#ffb675;image-rendering:optimizeQuality;shape-rendering:geometricPrecision"/><polygon class="fil89" transform="matrix(3.6951 0 0 2.9863 -51954 -9124.6)" points="15824 4772 15801 4778 15801 4068 15824 4062" style="clip-rule:evenodd;fill-rule:nonzero;fill:#ae4c0a;image-rendering:optimizeQuality;shape-rendering:geometricPrecision"/><polygon class="fil89" transform="matrix(3.6951 0 0 2.9863 -51954 -9124.6)" points="15618 4823 15595 4829 15595 4119 15618 4113" style="clip-rule:evenodd;fill-rule:nonzero;fill:#ae4c0a;image-rendering:optimizeQuality;shape-rendering:geometricPrecision"/><path class="fil90" d="m6421.5 3764.4c0 59.728-7.3894 113.48-18.476 113.48-11.086 2.9874-18.475-44.792-18.475-107.5l-731.62 173.21v988.47l635.55-176.19 236.48-32.851v-976.53l-107.16 17.917z" style="clip-rule:evenodd;fill-rule:nonzero;fill:#e2934c;image-rendering:optimizeQuality;shape-rendering:geometricPrecision;stroke-width:3.3219"/><polygon class="fil90" transform="matrix(3.6951 0 0 2.9863 -51954 -9124.6)" points="15591 4310 15763 4267 15762 4247 15788 4258 15827 4245 15827 3917 15591 3975" style="clip-rule:evenodd;fill-rule:nonzero;fill:#e2934c;image-rendering:optimizeQuality;shape-rendering:geometricPrecision"/><path class="fil91" d="m5656.6 3453.8s114.55-170.22 162.58-110.49c51.732 59.722 107.16 155.29 218.01 65.698 110.85-89.591 169.98-418.09 266.05-468.86 96.074-50.77 225.4 119.46 225.4 119.46v489.76s-88.68-38.822-140.41-113.48c-51.732-74.657-107.16-229.95-166.28-59.729-59.119 170.22-84.985 241.89-125.63 194.11-40.647-47.78-48.038-89.59-96.072-44.792-48.037 44.792-347.34 215.02-347.34 215.02v-292.66z" style="clip-rule:evenodd;fill-rule:nonzero;fill:#e28c3f;image-rendering:optimizeQuality;shape-rendering:geometricPrecision;stroke-width:3.3219"/><path class="fil90" d="m6303.2 4872.3-62.816 47.78-48.035-23.893-195.84 38.823c0 71.674-11.084 131.4-25.864 134.39-14.782 2.9873-25.866-53.757-25.866-125.43l-288.21 101.54v898.88l635.55-170.22 92.377-23.893 144.11-38.822v-883.95z" style="clip-rule:evenodd;fill-rule:nonzero;fill:#e2934c;image-rendering:optimizeQuality;shape-rendering:geometricPrecision;stroke-width:3.3219"/><polygon class="fil92" transform="matrix(3.6951 0 0 2.9863 -51954 -9124.6)" points="15788 4258 15762 4225 15762 4247" style="clip-rule:evenodd;fill-rule:nonzero;fill:#c36315;image-rendering:optimizeQuality;shape-rendering:geometricPrecision"/><path class="fil91" d="m5656.6 4576.6s59.12-59.723 144.11-29.858c88.682 32.845 125.63 83.615 166.28 44.794 40.646-38.824 81.292-265.79 103.46-265.79 22.17 0 166.28 170.22 240.18 95.561 77.598-74.657 0-238.9 40.645-346.41 40.645-107.51 107.16 5.9767 125.63 128.41 18.475 122.44 55.426 286.68 55.426 286.68v232.93l-875.73 215.02v-364.33z" style="clip-rule:evenodd;fill-rule:nonzero;fill:#e28c3f;image-rendering:optimizeQuality;shape-rendering:geometricPrecision;stroke-width:3.3219"/><path class="fil92" d="m6107.4 5245.6s-40.645-44.793-51.73 26.882c-11.084 68.686 59.121 140.35 73.9 68.686 11.085-68.686-22.17-95.567-22.17-95.567z" style="clip-rule:evenodd;fill-rule:nonzero;fill:#c36315;image-rendering:optimizeQuality;shape-rendering:geometricPrecision;stroke-width:3.3219"/><path class="fil92" d="m6007.6 3241.8c-3.6934-5.9698-3.6934-11.947-7.3884-14.929-11.085-8.9581-36.952-23.893-25.866 26.876 11.086 56.739 51.731 35.834 33.255-11.947z" style="clip-rule:evenodd;fill-rule:nonzero;fill:#c36315;image-rendering:optimizeQuality;shape-rendering:geometricPrecision;stroke-width:3.3219"/><polygon class="fil91" transform="matrix(3.6951 0 0 2.9863 -51954 -9124.6)" points="15591 4978 15827 4870 15827 4968 15591 5047" style="clip-rule:evenodd;fill-rule:nonzero;fill:#e28c3f;image-rendering:optimizeQuality;shape-rendering:geometricPrecision"/><polygon class="fil55" transform="matrix(3.6951 0 0 2.9863 -51954 -9124.6)" points="14314 4818 15087 4818 15087 4227 14314 4227" style="clip-rule:evenodd;fill-rule:nonzero;fill:#9a4121;image-rendering:optimizeQuality;shape-rendering:geometricPrecision"/><polygon class="fil88" transform="matrix(3.6951 0 0 2.9863 -51954 -9124.6)" points="14248 4220 14248 4798 14355 4798 14347 4220" style="clip-rule:evenodd;fill-rule:nonzero;fill:#e59351;image-rendering:optimizeQuality;shape-rendering:geometricPrecision"/><polygon class="fil88" transform="matrix(3.6951 0 0 2.9863 -51954 -9124.6)" points="14236 4254 14236 4167 15184 4157 15184 4180 15160 4195 15184 4217 15184 4254" style="clip-rule:evenodd;fill-rule:nonzero;fill:#e59351;image-rendering:optimizeQuality;shape-rendering:geometricPrecision"/><polygon class="fil88" transform="matrix(3.6951 0 0 2.9863 -51954 -9124.6)" points="15066 4187 15153 4187 15163 4896 15140 4896 15123 4889 15103 4896 15066 4896" style="clip-rule:evenodd;fill-rule:nonzero;fill:#e59351;image-rendering:optimizeQuality;shape-rendering:geometricPrecision"/><polygon class="fil55" transform="matrix(3.6951 0 0 2.9863 -51954 -9124.6)" points="15066 4272 15154 4273 15154 4254 15066 4254" style="clip-rule:evenodd;fill-rule:nonzero;fill:#7e3a1a;image-rendering:optimizeQuality;shape-rendering:geometricPrecision"/><polygon class="fil93" transform="matrix(3.6951 0 0 2.9863 -51954 -9124.6)" points="15184 4180 14799 4191 15160 4195" style="clip-rule:evenodd;fill-rule:nonzero;fill:#a55f30;image-rendering:optimizeQuality;shape-rendering:geometricPrecision"/><polygon class="fil93" transform="matrix(3.6951 0 0 2.9863 -51954 -9124.6)" points="14236 4211 14323 4217 14236 4227" style="clip-rule:evenodd;fill-rule:nonzero;fill:#a55f30;image-rendering:optimizeQuality;shape-rendering:geometricPrecision"/><polygon class="fil55" transform="matrix(3.6951 0 0 2.9863 -51954 -9124.6)" points="14248 4269 14347 4269 14347 4254 14248 4254" style="clip-rule:evenodd;fill-rule:nonzero;fill:#7e3a1a;image-rendering:optimizeQuality;shape-rendering:geometricPrecision"/><polygon class="fil88" transform="matrix(3.6951 0 0 2.9863 -51954 -9124.6)" points="15155 4875 15155 4789 14236 4778 14236 4801 14259 4816 14236 4839 14236 4875" style="clip-rule:evenodd;fill-rule:nonzero;fill:#e59351;image-rendering:optimizeQuality;shape-rendering:geometricPrecision"/><polygon class="fil55" transform="matrix(3.6951 0 0 2.9863 -51954 -9124.6)" points="15155 4875 15066 4884 15066 4875" style="clip-rule:evenodd;fill-rule:nonzero;fill:#1e1240;image-rendering:optimizeQuality;shape-rendering:geometricPrecision"/><polygon class="fil93" transform="matrix(3.6951 0 0 2.9863 -51954 -9124.6)" points="14259 4816 14502 4818 14236 4801" style="clip-rule:evenodd;fill-rule:nonzero;fill:#a55f30;image-rendering:optimizeQuality;shape-rendering:geometricPrecision"/><path class="fil94" d="m4045.5 5176.9s-402.76 86.604-569.04 113.48c-169.97 26.876-395.37-47.779-772.27 0-376.9 47.781-783.36 146.33-783.36 146.33h2124.7z" style="clip-rule:evenodd;fill-rule:nonzero;fill:#d88145;image-rendering:optimizeQuality;shape-rendering:geometricPrecision;stroke-width:3.3219"/><path class="fil93" d="m3897.7 3755.4v1325.9l22.172-223.98s48.034-1000.4-22.172-1099z" style="clip-rule:evenodd;fill-rule:nonzero;fill:#a55f30;image-rendering:optimizeQuality;shape-rendering:geometricPrecision;stroke-width:3.3219"/><path class="fil93" d="m756.89 3716.6v1403.6s73.901-1167.7 0-1403.6z" style="clip-rule:evenodd;fill-rule:nonzero;fill:#a55f30;image-rendering:optimizeQuality;shape-rendering:geometricPrecision;stroke-width:3.3219"/><path class="fil93" d="m823.4 3907.7v988.48s73.901-821.24 0-988.48z" style="clip-rule:evenodd;fill-rule:nonzero;fill:#a55f30;image-rendering:optimizeQuality;shape-rendering:geometricPrecision;stroke-width:3.3219"/><path d="m2540.4 3917c-51.045-59.777 272.78-258.81 382.78-260.59 110-1.7788 360.69 836.25 79.925 893.93-120.39 24.738-766.11 66.143-1251.8-6.8817-101.51-15.262-106.44-259.82-44.313-353.24 83.415-125.47 273.68-88.23 402.32-41.205 287.33 105.04 476 187.84 552.85 70.556 59.94-91.482-70.674-242.78-121.72-302.57z" style="clip-rule:evenodd;fill-rule:evenodd;fill:#f4e8d7;image-rendering:optimizeQuality;shape-rendering:geometricPrecision"/><ellipse cx="2504.1" cy="4893.3" rx="215.92" ry="209.17" style="clip-rule:evenodd;fill-rule:evenodd;fill:#f4e8d7;image-rendering:optimizeQuality;shape-rendering:geometricPrecision"/><path class="fil14" d="m7994.4 3754.5c491.06-215.1 1225.8 1248.2 1263.3 1905.6 63.724 1063.4-1364.5 1302.7-2672.7 884.63-993.36-318.1-847.17-945.22 59.977-821.01 805.94 109.06 1409.5 184.8 1529.4 51.502 224.91-257.51-715.97-1787.4-179.93-2020.7z" style="stroke-width:3.3699"/><path class="fil14" d="m5932.7 5793.4s-104.96-39.384-179.93-36.354c-78.72 3.0296-183.68-39.384-176.18 9.0886s78.72 115.12 134.95 133.3c56.228 18.177 108.71 39.384 194.92-3.0296 89.964-42.414 26.24-103 26.24-103z" style="stroke-width:3.3699"/><path class="fil14" d="m5932.7 5793.4s-269.9 121.18-382.35 130.27c-112.46 6.0591-228.66-6.0588-206.17 30.296 26.239 39.384 112.46 51.502 112.46 51.502s-29.988 54.532 44.983 103c74.971 48.473 138.7 72.709 202.42 78.768 48.731 6.0591 498.56-106.03 472.32-178.74-29.988-75.738-138.7-236.3-239.91-212.07z" style="stroke-width:3.3699"/><path d="m6892.2 2872.6s-182.12-213.17 47.36-312.62c123.54-53.462 285.24 146.57 285.24 146.57s118.55 41.115 150.12 169.12c32.142 129.87-118.54 329.28-118.54 329.28s-357.83-178.51-364.18-332.35" style="fill-rule:nonzero;fill:#000000"/><path d="m7228.2 3058 101.56 525.34c-7.8384 60.632-424.44 115.66-509.37 25.994-24.916-26.315-9.1339-83.146 25.838-142.44l256.52-328.18 125.46-80.715" style="fill-rule:nonzero;fill:#ff6161"/><path d="m7161.3 2904.4 61.467 246.87c13.698 82.851-40.809 161.85-123.32 177.76-65.908 12.85-107.75 9.845-189.81-6.238-68.27-13.326-98.766-82.024-92.214-172.3 8.541-117.19 49.683-222.7 74.867-277.96 57.376-125.8 217.29-126.09 269.01 31.87" style="fill-rule:nonzero;fill:#ff6161"/><path d="m7222.7 3151.3-61.467-246.87c-6.334-19.336-14.262-36.237-23.459-50.889-0.015 48.66-7.0599 152.92-21.553 169.47-36.921 42.819-31.281 1.509-112.03-6.8591-51.455-5.3167-124.02 13.315-170.22 27.621-7.6694 33.627-13.914 69.476-16.615 106.75-6.5512 90.278 23.944 158.98 92.214 172.3 82.065 16.083 123.9 19.088 189.81 6.238 82.509-15.909 137.02-94.912 123.32-177.76" style="fill-rule:nonzero;fill:#1a1a1a"/><path d="m7004.1 3069.5s-58.094 10.011-137.9-5.8843c0 0-5.9519 52.429 24.539 72.95 30.493 20.523 89.682-5.758 113.36-67.066" style="fill-rule:nonzero;fill:#ffffff"/><path d="m7147.7 3001.3c4.4736-15.054 6.5439-30.686 7.6451-46.356 2.2623-29.91 12.399-73.842 55.202-48.752 62.072 36.489 52.336 181.8-22.324 188.44-55.558 4.9149-51.705-55.243-40.523-93.329" style="fill-rule:nonzero;fill:#ff6161"/></g>
</svg>
