<?xml version="1.0" encoding="UTF-8" standalone="no"?>
<svg
   xmlns:dc="http://purl.org/dc/elements/1.1/"
   xmlns:cc="http://creativecommons.org/ns#"
   xmlns:rdf="http://www.w3.org/1999/02/22-rdf-syntax-ns#"
   xmlns:svg="http://www.w3.org/2000/svg"
   xmlns="http://www.w3.org/2000/svg"
   xmlns:sodipodi="http://sodipodi.sourceforge.net/DTD/sodipodi-0.dtd"
   xmlns:inkscape="http://www.inkscape.org/namespaces/inkscape"
   width="512"
   height="512"
   version="1.1"
   id="svg2555"
   sodipodi:docname="barbari.svg"
   inkscape:version="1.0 (4035a4f, 2020-05-01)">
  <metadata
     id="metadata2561">
    <rdf:RDF>
      <cc:Work
         rdf:about="">
        <dc:format>image/svg+xml</dc:format>
        <dc:type
           rdf:resource="http://purl.org/dc/dcmitype/StillImage" />
      </cc:Work>
    </rdf:RDF>
  </metadata>
  <defs
     id="defs2559" />
  <sodipodi:namedview
     inkscape:document-rotation="0"
     pagecolor="#ffffff"
     bordercolor="#666666"
     borderopacity="1"
     objecttolerance="10"
     gridtolerance="10"
     guidetolerance="10"
     inkscape:pageopacity="0"
     inkscape:pageshadow="2"
     inkscape:window-width="1366"
     inkscape:window-height="723"
     id="namedview2557"
     showgrid="false"
     inkscape:zoom="0.41890907"
     inkscape:cx="-55.601372"
     inkscape:cy="70.972986"
     inkscape:window-x="0"
     inkscape:window-y="23"
     inkscape:window-maximized="0"
     inkscape:current-layer="svg_237" />
  <!-- Created with Method Draw - http://github.com/duopixel/Method-Draw/ -->
  <g
     id="g2503"
     transform="matrix(-1,0,0,1,512,0)">
    <title
       id="title2497">background</title>
    <rect
       fill="none"
       id="canvas_background"
       height="514"
       width="514"
       y="-1"
       x="-1" />
    <g
       display="none"
       overflow="visible"
       y="0"
       x="0"
       height="100%"
       width="100%"
       id="canvasGrid">
      <rect
         fill="url(#gridpattern)"
         stroke-width="0"
         y="0"
         x="0"
         height="100%"
         width="100%"
         id="rect2500" />
    </g>
  </g>
  <g
     id="g2553"
     transform="matrix(-1,0,0,1,512,0)">
    <title
       id="title2505">Layer 1</title>
    <!-- Generator: Sketch 51.3 (57544) - http://www.bohemiancoding.com/sketch -->
    <desc
       transform="matrix(8.65847529551047,0,0,8.65847529551047,0,0) "
       id="desc2507">Created with Sketch.</desc>
    <!-- Created with Method Draw - http://github.com/duopixel/Method-Draw/ -->
    <g
       stroke="null"
       id="svg_237">
      <path
         stroke="null"
         id="svg_194"
         fill="#fddd85"
         d="M 289.52617,25.874112 H 12.936772 c -4.628158,0 -8.38117,3.537908 -8.38117,7.902835 V 294.56068 c 0,4.36493 3.753012,7.90283 8.38117,7.90283 l 142.485778,16.76234 134.10362,-16.76332 c 4.62914,0 8.38117,-3.53791 8.38117,-7.90283 V 33.776947 c 9.9e-4,-4.364926 -3.75203,-7.902835 -8.38117,-7.902835 z"
         style="fill:#9a4121;fill-opacity:1" />
      <path
         style="fill:#80c904;fill-opacity:1"
         stroke="null"
         id="svg_195"
         fill="#e5563c"
         d="M 465.53761,302.46351 H 423.6298 v -92.19679 c 0,-23.1074 -18.79944,-41.90781 -41.90781,-41.90781 h -75.43348 c -4.62914,0 -8.38117,3.75301 -8.38117,8.38117 V 302.46253 H 12.936772 c -4.628158,9.8e-4 -8.38117,3.75301 -8.38117,8.38215 v 117.34129 c 0,4.62816 3.753012,8.38117 8.38117,8.38117 h 276.589398 125.72246 83.81464 c 4.62914,0 8.38117,-3.75301 8.38117,-8.38117 v -83.81464 c 9.8e-4,-23.10838 -18.79845,-41.90782 -41.90683,-41.90782 z" />
      <circle
         stroke="null"
         transform="matrix(0.98220668,0,0,0.98220668,-82.663332,-132.09023)"
         id="svg_196"
         fill="#74757b"
         r="59.733002"
         cy="553.35895"
         cx="506.93198" />
      <circle
         stroke="null"
         transform="matrix(0.98220668,0,0,0.98220668,-82.663332,-132.09023)"
         id="svg_197"
         fill="#afb0b4"
         r="34.132999"
         cy="553.35895"
         cx="506.93198" />
      <circle
         stroke="null"
         transform="matrix(0.98220668,0,0,0.98220668,-82.663332,-132.09023)"
         id="svg_198"
         fill="#d7d8d9"
         r="25.6"
         cy="553.35895"
         cx="506.93198" />
      <circle
         stroke="null"
         transform="matrix(0.98220668,0,0,0.98220668,-82.663332,-132.09023)"
         id="svg_199"
         fill="#74757b"
         r="59.733002"
         cy="553.35895"
         cx="182.66597" />
      <circle
         stroke="null"
         transform="matrix(0.98220668,0,0,0.98220668,-82.663332,-132.09023)"
         id="svg_200"
         fill="#afb0b4"
         r="34.132999"
         cy="553.35895"
         cx="182.66597" />
      <circle
         stroke="null"
         transform="matrix(0.98220668,0,0,0.98220668,-82.663332,-132.09023)"
         id="svg_201"
         fill="#d7d8d9"
         r="25.6"
         cy="553.35895"
         cx="182.66597" />
      <path
         style="fill:#338000"
         stroke="null"
         id="svg_202"
         fill="#b83c26"
         d="m 331.43399,344.37034 h -16.76332 c -4.62914,0 -8.38117,-3.75301 -8.38117,-8.38117 0,-4.62914 3.75301,-8.38117 8.38117,-8.38117 h 16.76332 c 4.62914,0 8.38117,3.75302 8.38117,8.38117 0,4.62914 -3.75203,8.38117 -8.38117,8.38117 z" />
      <path
         stroke="null"
         id="svg_203"
         fill="#d7d8d9"
         d="m 381.72297,185.12223 h -58.67015 c -4.62914,0 -8.38117,3.75301 -8.38117,8.38117 v 83.81464 c 0,4.62914 3.75301,8.38117 8.38117,8.38117 h 75.43347 c 4.62914,0 8.38117,-3.75301 8.38117,-8.38117 v -67.05132 c 0,-13.86483 -11.28064,-25.14449 -25.14449,-25.14449 z" />
      <g
         stroke="null"
         transform="matrix(0.98220668,0,0,0.98220668,-82.663332,-132.09023)"
         id="svg_204">
        <path
           stroke="null"
           id="svg_205"
           fill="#88898e"
           d="m 413.06591,322.95896 c -4.713,0 -8.533,3.821 -8.533,8.533 v 43.378 l 51.911,-51.911 z" />
        <path
           stroke="null"
           id="svg_206"
           fill="#88898e"
           d="m 476.75691,323.26696 -72.225,72.225 v 21.333 c 0,4.713 3.821,8.533 8.533,8.533 h 7.822 l 77.493,-77.493 c -0.333,-12.458 -9.604,-22.724 -21.623,-24.598 z" />
        <path
           stroke="null"
           id="svg_207"
           fill="#88898e"
           d="m 461.42091,425.35896 h 28.445 c 4.713,0 8.533,-3.821 8.533,-8.533 v -28.445 z" />
      </g>
      <path
         stroke="null"
         id="svg_208"
         fill="#fdd042"
         d="M 21.318924,294.56068 V 33.776947 c 0,-4.364926 3.753012,-7.902835 8.38117,-7.902835 H 12.936773 c -4.628158,0 -8.38117,3.537908 -8.38117,7.902835 V 294.56068 c 0,4.36493 3.753012,7.90283 8.38117,7.90283 h 16.763321 c -4.62914,0 -8.38117,-3.5379 -8.38117,-7.90283 z"
         style="fill:#7e3a1a;fill-opacity:1" />
      <path
         stroke="null"
         id="svg_209"
         fill="#f2c127"
         d="M 205.71153,25.874112 H 105.13357 v 93.071308 c 0,5.13255 7.01099,8.62399 12.69404,5.91327 l 37.59494,-17.92954 37.59494,17.92954 c 5.67421,2.70603 12.69404,-0.76745 12.69404,-5.89141 z"
         style="fill:#ffc431;fill-opacity:1;stroke-width:0.891559" />
      <path
         stroke="null"
         id="svg_210"
         fill="#e1a527"
         d="M 121.89689,118.94464 V 25.874113 h -16.76332 v 93.071307 c 0,5.13255 7.01099,8.62399 12.69404,5.91327 l 5.22337,-2.49053 c -0.72585,-0.99777 -1.15409,-2.16029 -1.15409,-3.42352 z"
         style="fill:#fcb431;fill-opacity:1;stroke-width:0.891559" />
      <g
         stroke="null"
         transform="matrix(0.98220668,0,0,0.98220668,-82.663332,-132.09023)"
         id="svg_222" />
      <g
         stroke="null"
         transform="matrix(0.98220668,0,0,0.98220668,-82.663332,-132.09023)"
         id="svg_223" />
      <g
         stroke="null"
         transform="matrix(0.98220668,0,0,0.98220668,-82.663332,-132.09023)"
         id="svg_224" />
      <g
         stroke="null"
         transform="matrix(0.98220668,0,0,0.98220668,-82.663332,-132.09023)"
         id="svg_225" />
      <g
         stroke="null"
         transform="matrix(0.98220668,0,0,0.98220668,-82.663332,-132.09023)"
         id="svg_226" />
      <g
         stroke="null"
         transform="matrix(0.98220668,0,0,0.98220668,-82.663332,-132.09023)"
         id="svg_227" />
      <g
         stroke="null"
         transform="matrix(0.98220668,0,0,0.98220668,-82.663332,-132.09023)"
         id="svg_228" />
      <g
         stroke="null"
         transform="matrix(0.98220668,0,0,0.98220668,-82.663332,-132.09023)"
         id="svg_229" />
      <g
         stroke="null"
         transform="matrix(0.98220668,0,0,0.98220668,-82.663332,-132.09023)"
         id="svg_230" />
      <g
         stroke="null"
         transform="matrix(0.98220668,0,0,0.98220668,-82.663332,-132.09023)"
         id="svg_231" />
      <g
         stroke="null"
         transform="matrix(0.98220668,0,0,0.98220668,-82.663332,-132.09023)"
         id="svg_232" />
      <g
         stroke="null"
         transform="matrix(0.98220668,0,0,0.98220668,-82.663332,-132.09023)"
         id="svg_233" />
      <g
         stroke="null"
         transform="matrix(0.98220668,0,0,0.98220668,-82.663332,-132.09023)"
         id="svg_234" />
      <g
         stroke="null"
         transform="matrix(0.98220668,0,0,0.98220668,-82.663332,-132.09023)"
         id="svg_235" />
      <g
         stroke="null"
         transform="matrix(0.98220668,0,0,0.98220668,-82.663332,-132.09023)"
         id="svg_236" />
      <path
         style="clip-rule:evenodd;fill:#f4e8d7;fill-opacity:1;fill-rule:evenodd;stroke:none;stroke-width:0.573242px;stroke-linecap:butt;stroke-linejoin:miter;stroke-opacity:1;image-rendering:optimizeQuality;shape-rendering:geometricPrecision;text-rendering:geometricPrecision"
         d="m 141.86176,166.89245 c 5.48691,-6.42552 -29.31959,-27.81834 -41.14336,-28.00918 -11.823744,-0.19085 -38.769654,89.88491 -8.591363,96.08508 12.940843,2.6587 82.346893,7.10975 134.556123,-0.73964 10.91211,-1.64059 11.44129,-27.92686 4.76392,-37.96922 -8.96689,-13.48566 -29.41664,-9.48331 -43.24483,-4.42818 -30.88465,11.29044 -51.16355,20.19 -59.42376,7.58324 -6.44299,-9.83334 7.59637,-26.09657 13.08327,-32.5221 z"
         id="path973-0"
         sodipodi:nodetypes="zzssassz" />
      <ellipse
         style="clip-rule:evenodd;fill:#f4e8d7;fill-opacity:1;fill-rule:evenodd;stroke:none;stroke-width:83.1222;stroke-linecap:round;stroke-linejoin:round;image-rendering:optimizeQuality;shape-rendering:geometricPrecision;text-rendering:geometricPrecision"
         id="path1798-3"
         cx="-145.76393"
         cy="271.83792"
         rx="23.208427"
         ry="22.483164"
         transform="scale(-1,1)" />
    </g>
  </g>
</svg>
