<svg width="128" height="128" version="1.1" xmlns="http://www.w3.org/2000/svg"><g transform="matrix(-.253 0 0 .253 129 1.49)"><title>Layer 1</title><desc transform="scale(8.66)">Created with Sketch.</desc><path d="m290 25.9h-277c-4.63 0-8.38 3.54-8.38 7.9v261c0 4.36 3.75 7.9 8.38 7.9l142 16.8 134-16.8c4.63 0 8.38-3.54 8.38-7.9v-261c9.9e-4 -4.36-3.75-7.9-8.38-7.9z" fill="#fddd85" style="fill:#cba677"/><path d="m466 302h-41.9v-92.2c0-23.1-18.8-41.9-41.9-41.9h-75.4c-4.63 0-8.38 3.75-8.38 8.38v126h-285c-4.63 9.8e-4 -8.38 3.75-8.38 8.38v117c0 4.63 3.75 8.38 8.38 8.38h486c4.63 0 8.38-3.75 8.38-8.38v-83.8c9.8e-4 -23.1-18.8-41.9-41.9-41.9z" fill="#e5563c" style="fill:#035000"/><circle cx="415" cy="411" r="58.6" fill="#74757b" style="stroke-width:.982"/><circle cx="415" cy="411" r="33.5" fill="#afb0b4" style="stroke-width:.982"/><circle cx="415" cy="411" r="25.1" fill="#d7d8d9" style="stroke-width:.982"/><circle cx="97" cy="411" r="58.6" fill="#74757b" style="stroke-width:.982"/><circle cx="97" cy="411" r="33.5" fill="#afb0b4" style="stroke-width:.982"/><circle cx="97" cy="411" r="25.1" fill="#d7d8d9" style="stroke-width:.982"/><path d="m331 344h-16.8c-4.63 0-8.38-3.75-8.38-8.38s3.75-8.38 8.38-8.38h16.8c4.63 0 8.38 3.75 8.38 8.38s-3.75 8.38-8.38 8.38z" fill="#b83c26" style="fill:#023800"/><path d="m382 185h-58.7c-4.63 0-8.38 3.75-8.38 8.38v83.8c0 4.63 3.75 8.38 8.38 8.38h75.4c4.63 0 8.38-3.75 8.38-8.38v-67.1c0-13.9-11.3-25.1-25.1-25.1z" fill="#d7d8d9"/><g transform="matrix(.982 0 0 .982 -82.7 -132)" fill="#88898e"><path d="m413 323c-4.71 0-8.53 3.82-8.53 8.53v43.4l51.9-51.9z"/><path d="m477 323-72.2 72.2v21.3c0 4.71 3.82 8.53 8.53 8.53h7.82l77.5-77.5c-0.333-12.5-9.6-22.7-21.6-24.6z"/><path d="m461 425h28.4c4.71 0 8.53-3.82 8.53-8.53v-28.4z"/></g><path d="m21.3 295v-261c0-4.36 3.75-7.9 8.38-7.9h-16.8c-4.63 0-8.38 3.54-8.38 7.9v261c0 4.36 3.75 7.9 8.38 7.9h16.8c-4.63 0-8.38-3.54-8.38-7.9z" fill="#fdd042" style="fill:#c1955d"/><path d="m206 25.9h-101v80.5c0 5.13 7.01 8.62 12.7 5.91l37.6-17.9 37.6 17.9c5.67 2.71 12.7-0.767 12.7-5.89z" fill="#f2c127" style="fill:#ffc431;stroke-width:.892"/><path d="m122 107v-81.9l-16.8 1.27v80.6c0 5.13 7.01 8.62 12.7 5.91l5.22-2.49c-0.726-0.998-1.15-2.16-1.15-3.42z" fill="#e1a527" style="fill:#fcb431;stroke-width:.892"/></g><path d="m89.1 34.7c7.71-0.0654 15.8 3.88 19.2 11.1 2.76 5.63 1.36 12.7-2.97 17.2-1.24 0.934-2.22 2.23-1.94 3.85-0.0657 1.39 0.138 2.82-0.115 4.18-1.65 1.43-3.78-1.05-5.59-1.42-1.85-1.27-3.93-0.241-5.92-0.0747-8.11 0.958-17.1-2.53-21.3-9.79-3.16-5.35-2.47-12.5 1.52-17.3 4.07-5.1 10.7-7.72 17.1-7.7z" style="fill:none;stroke-width:2.67;stroke:#035000"/><g transform="matrix(.327 0 0 .327 -8.27 25.7)"><g transform="matrix(2.6 0 0 2.6 9047 -3e3)" style="fill:#035000;shape-inside:url(#rect3271);stroke-width:.426;stroke:#035000;white-space:pre" aria-label="пе"><path d="m-3349 1181c0.407 3.15-1.49 6.18-4.11 7.8-4.11 2.78-9.26 3.35-14.1 3.19-4.23-0.23-8.7-1.6-11.5-4.92-1.57-1.9-1.93-4.78-0.523-6.87 1.86-2.9 5.39-3.98 8.6-4.54 2.81-0.47 5.74-0.435 8.47 0.422 0.883 1.2-1.7 1.18-2.48 1.26-3.63 0.393-7.54 0.646-10.6 2.88-1.43 1.02-1.69 3.18-0.332 4.37 2.07 2.3 5.36 2.66 8.27 2.9 4.17 0.286 8.53-0.1 12.3-1.99 1.52-0.849 2.76-2.47 2.57-4.29 0.123-1.23 1.68-2.51 2.82-1.62 0.402 0.348 0.536 0.892 0.615 1.39z" style="fill:#035000;stroke-width:.55;stroke:#035000"/></g><path d="m306 110a9.41 9.41 0 0 1-9.41 9.41 9.41 9.41 0 0 1-9.42-9.41 9.41 9.41 0 0 1 9.42-9.41 9.41 9.41 0 0 1 9.41 9.41z" style="fill:#035000;paint-order:markers fill stroke"/></g></svg>
