<svg width="512" height="512" version="1.1" xmlns="http://www.w3.org/2000/svg"><g transform="matrix(-1,0,0,1,512,0)"><title>background</title><rect id="canvas_background" x="-1" y="-1" width="514" height="514" fill="none"/><g id="canvasGrid" x="0" y="0" width="100%" height="100%" display="none" overflow="visible"><rect width="100%" height="100%" fill="url(#gridpattern)" stroke-width="0"/></g></g><g transform="matrix(-1,0,0,1,512,0)"><title>Layer 1</title><desc transform="scale(8.66)">Created with Sketch.</desc><g stroke="null"><g stroke="null"><path d="m290 25.9h-277c-4.63 0-8.38 3.54-8.38 7.9v261c0 4.36 3.75 7.9 8.38 7.9l142 16.8 134-16.8c4.63 0 8.38-3.54 8.38-7.9v-261c9.9e-4 -4.36-3.75-7.9-8.38-7.9z" fill="#fddd85" style="fill:#9a4121"/><path d="m466 302h-41.9v-92.2c0-23.1-18.8-41.9-41.9-41.9h-75.4c-4.63 0-8.38 3.75-8.38 8.38v126h-285c-4.63 9.8e-4 -8.38 3.75-8.38 8.38v117c0 4.63 3.75 8.38 8.38 8.38h486c4.63 0 8.38-3.75 8.38-8.38v-83.8c9.8e-4 -23.1-18.8-41.9-41.9-41.9z" fill="#e5563c" style="fill:#80c904"/><circle transform="matrix(.982 0 0 .982 -82.7 -132)" cx="507" cy="553" r="59.7" fill="#74757b"/><circle transform="matrix(.982 0 0 .982 -82.7 -132)" cx="507" cy="553" r="34.1" fill="#afb0b4"/><circle transform="matrix(.982 0 0 .982 -82.7 -132)" cx="507" cy="553" r="25.6" fill="#d7d8d9"/><circle transform="matrix(.982 0 0 .982 -82.7 -132)" cx="183" cy="553" r="59.7" fill="#74757b"/><circle transform="matrix(.982 0 0 .982 -82.7 -132)" cx="183" cy="553" r="34.1" fill="#afb0b4"/><circle transform="matrix(.982 0 0 .982 -82.7 -132)" cx="183" cy="553" r="25.6" fill="#d7d8d9"/><path d="m331 344h-16.8c-4.63 0-8.38-3.75-8.38-8.38 0-4.63 3.75-8.38 8.38-8.38h16.8c4.63 0 8.38 3.75 8.38 8.38 0 4.63-3.75 8.38-8.38 8.38z" fill="#b83c26" style="fill:#338000"/><path d="m382 185h-58.7c-4.63 0-8.38 3.75-8.38 8.38v83.8c0 4.63 3.75 8.38 8.38 8.38h75.4c4.63 0 8.38-3.75 8.38-8.38v-67.1c0-13.9-11.3-25.1-25.1-25.1z" fill="#d7d8d9"/><g transform="matrix(.982 0 0 .982 -82.7 -132)" fill="#88898e"><path d="m413 323c-4.71 0-8.53 3.82-8.53 8.53v43.4l51.9-51.9z"/><path d="m477 323-72.2 72.2v21.3c0 4.71 3.82 8.53 8.53 8.53h7.82l77.5-77.5c-0.333-12.5-9.6-22.7-21.6-24.6z"/><path d="m461 425h28.4c4.71 0 8.53-3.82 8.53-8.53v-28.4z"/></g><path d="m21.3 295v-261c0-4.36 3.75-7.9 8.38-7.9h-16.8c-4.63 0-8.38 3.54-8.38 7.9v261c0 4.36 3.75 7.9 8.38 7.9h16.8c-4.63 0-8.38-3.54-8.38-7.9z" fill="#fdd042" style="fill:#7e3a1a"/><path d="m206 25.9h-101v93.1c0 5.13 7.01 8.62 12.7 5.91l37.6-17.9 37.6 17.9c5.67 2.71 12.7-0.767 12.7-5.89z" fill="#f2c127" style="fill:#ffc431;stroke-width:.892"/><path d="m122 119v-93.1h-16.8v93.1c0 5.13 7.01 8.62 12.7 5.91l5.22-2.49c-0.726-0.998-1.15-2.16-1.15-3.42z" fill="#e1a527" style="fill:#fcb431;stroke-width:.892"/></g><path d="m142 167c5.49-6.43-29.3-27.8-41.1-28-11.8-0.191-38.8 89.9-8.59 96.1 12.9 2.66 82.3 7.11 135-0.74 10.9-1.64 11.4-27.9 4.76-38-8.97-13.5-29.4-9.48-43.2-4.43-30.9 11.3-51.2 20.2-59.4 7.58-6.44-9.83 7.6-26.1 13.1-32.5z" style="clip-rule:evenodd;fill-rule:evenodd;fill:#f4e8d7;image-rendering:optimizeQuality;shape-rendering:geometricPrecision;stroke:none"/><ellipse transform="scale(-1,1)" cx="-146" cy="272" rx="23.2" ry="22.5" style="clip-rule:evenodd;fill-rule:evenodd;fill:#f4e8d7;image-rendering:optimizeQuality;shape-rendering:geometricPrecision;stroke:none"/></g></g></svg>
