<svg width="512" height="512" enable-background="new 0 0 512 512" version="1.1" viewBox="0 0 512 512" xmlns="http://www.w3.org/2000/svg"><g transform="matrix(-1 0 0 1 513 0)"><path d="m235 355c0 3.94-0.301 7.82-0.892 11.6-5.58 35.9-36.6 63.3-74 63.3s-68.5-27.5-74.1-63.3c-0.591-3.78-0.892-7.66-0.892-11.6 0-41.4 33.6-75 74.9-75 41.4 1e-3 74.9 33.6 74.9 75z" fill="#31446c"/><path d="m235 355c0 3.94-0.301 7.82-0.892 11.6h-148c-0.591-3.78-0.892-7.66-0.892-11.6 0-41.4 33.6-75 74.9-75 41.4 1e-3 74.9 33.6 74.9 75z" fill="#202e45"/><path d="m168 429c-2.55 0.262-5.13 0.398-7.74 0.398-41.4 0-74.9-33.5-74.9-74.9s33.5-75 74.9-75c2.62 0 5.2 0.136 7.74 0.398-37.8 3.87-67.2 35.8-67.2 74.6s29.5 70.7 67.2 74.5z" fill="#202e45"/><circle cx="160" cy="355" r="36.9" fill="#f9f6f9"/><path d="m123 355c0 20.4 16.5 36.9 36.9 36.9 2.72 0 5.37-0.291 7.92-0.853-16.6-3.62-29-18.4-29-36s12.4-32.4 29-36.1c-2.55-0.562-5.2-0.853-7.92-0.853-20.4-1e-3 -36.9 16.5-36.9 36.9z" fill="#dddaec"/></g><g transform="matrix(-1 0 0 1 513 0)"><path d="m491 355c0 3.94-0.301 7.82-0.892 11.6-5.58 35.9-36.6 63.3-74 63.3s-68.5-27.5-74.1-63.3c-0.591-3.78-0.892-7.66-0.892-11.6 0-41.4 33.6-75 74.9-75 41.4 1e-3 74.9 33.6 74.9 75z" fill="#31446c"/><path d="m491 355c0 3.94-0.301 7.82-0.892 11.6h-148c-0.591-3.78-0.892-7.66-0.892-11.6 0-41.4 33.6-75 74.9-75 41.4 1e-3 74.9 33.6 74.9 75z" fill="#202e45"/><path d="m424 429c-2.55 0.262-5.13 0.398-7.74 0.398-41.4 0-74.9-33.5-74.9-74.9s33.5-75 74.9-75c2.62 0 5.2 0.136 7.74 0.398-37.8 3.87-67.2 35.8-67.2 74.6s29.5 70.7 67.2 74.5z" fill="#202e45"/><circle cx="416" cy="355" r="36.9" fill="#f9f6f9"/><path d="m379 355c0 20.4 16.5 36.9 36.9 36.9 2.72 0 5.37-0.291 7.92-0.853-16.6-3.62-29-18.4-29-36s12.4-32.4 29-36.1c-2.55-0.562-5.2-0.853-7.92-0.853-20.4-1e-3 -36.9 16.5-36.9 36.9z" fill="#dddaec"/></g><path d="m21.4 355h63v-99.9c-11.2 1.68-21.8 5.2-31.5 10.2-25.1 13.1-44.1 36.5-51.3 64.5-3.27 12.8 6.57 25.1 19.7 25.1z" fill="#da4a54" style="fill:#80c904"/><path d="m418 287h36.4c21.3 0 38.6-17.3 38.6-38.6v-25.3h-19.4v25.3c0 10.6-8.61 19.2-19.2 19.2h-36.4v19.4z" fill="#dddaec"/><path d="m429 233h-181v121h181z" fill="#c63d4f" style="fill:#80c904"/><path d="m276 355c-13.2 0-23-12.4-19.7-25.1 11.2-43.6 50.8-75.9 97.9-75.9s86.7 32.3 97.9 75.9c3.27 12.8-6.57 25.1-19.7 25.1z" fill="#da4a54" style="fill:#80c904"/><path d="m109 141h-40.6v69.6h40.6z" fill="#da4a54" style="fill:#80c904"/><g transform="matrix(-1 0 0 1 513 0)" fill="#c63d4f" style="fill:#338000"><path d="m404 189h40.6v21.3h-40.6z" style="fill:#338000"/><path d="m104 330c-3.27 12.8 6.57 25.1 19.7 25.1h-43.2c-13.2 0-23-12.4-19.7-25.1 11.2-43.6 50.8-75.9 97.9-75.9 7.42 0 14.6 0.795 21.6 2.32-37.3 8.11-66.9 36.8-76.3 73.6z" style="fill:#338000"/><path d="m456 355h-99.7l5.96-22.9 58.3-30.5 7.74-46.6c11.2 1.68 21.8 5.2 31.5 10.2-10.2 13.5-29.6 47.8-3.74 89.7z" style="fill:#338000"/></g><path d="m64.8 211h6.71v-69.6h-6.71c-9.11 0-16.5 7.39-16.5 16.5v36.6c0 9.11 7.39 16.5 16.5 16.5z" fill="#f9f6f9"/><path d="m48.3 173v21.3c0 9.11 7.39 16.5 16.5 16.5h6.71v-21.3h-6.71c-9.11 0-16.5-7.39-16.5-16.5z" fill="#dddaec"/><path d="m380 62.9h111c11.4 0 20.7 9.28 20.7 20.7v105c0 11.4-9.28 20.7-20.7 20.7h-111c-11.4 0-20.7-9.28-20.7-20.7v-105c0-11.4 9.28-20.7 20.7-20.7z" fill="#ffc250" style="fill:#9a4121"/><path d="m480 209h11.3c11.4 0 20.7-9.28 20.7-20.7v-105c0-11.4-9.28-20.7-20.7-20.7h-11.3c11.4 0 20.7 9.28 20.7 20.7v105c-1e-3 11.4-9.28 20.7-20.7 20.7z" fill="#ebb044" style="fill:#7e3a1a"/><g transform="matrix(-1 0 0 1 513 0)"><path d="m50.9 62.9v42.7c0 4.88 3.96 8.84 8.84 8.84s8.84-3.96 8.84-8.84c0 4.88 3.96 8.84 8.84 8.84s8.84-3.96 8.84-8.84c0 4.88 3.96 8.84 8.84 8.84 4.88 0 8.84-3.96 8.84-8.84v-42.7z" fill="#f9f6f9" style="fill:#ffc431"/></g><path d="m173 169h-23.1v-60.2h23.1c7.87 0 14.2 6.38 14.2 14.2v31.7c1e-3 7.87-6.38 14.2-14.2 14.2z" fill="#c63d4f" style="fill:#80c904"/><path d="m142 108h16.7v119c0 24.3 7.9 47.9 22.3 67.4 7.6 10.3 13.3 22.1 16.6 34.9 3.27 12.8-6.56 25.1-19.7 25.1h-19.2c-40.9 0-74.1-33.2-74.1-74.1v-115c-1e-3 -31.7 25.7-57.4 57.4-57.4z" fill="#da4a54" style="fill:#80c904"/><path d="m177 330c3.27 12.8-6.56 25.1-19.7 25.1h20.9c13.2 0 23-12.4 19.7-25.1-3.27-12.8-8.97-24.6-16.6-34.9-14.4-19.5-22.3-43.1-22.3-67.4v-119h-16.7c-1.4 0-2.78 0.048-4.16 0.145v119c0 24.3 7.9 47.9 22.3 67.4 7.6 10.3 13.3 22.1 16.6 34.9z" fill="#c63d4f" style="fill:#338000"/><path d="m497 236h-77.9v-27h77.9c7.46 0 13.5 6.04 13.5 13.5s-6.04 13.5-13.5 13.5z" fill="#f9f6f9"/><path d="m479 232c-2.43 2.44-5.81 3.96-9.54 3.96h27.1c3.72 0 7.1-1.51 9.54-3.96 2.44-2.43 3.96-5.81 3.96-9.54 0-7.45-6.04-13.5-13.5-13.5h-27.1c7.45 0 13.5 6.05 13.5 13.5 0 3.73-1.51 7.1-3.95 9.54z" fill="#dddaec"/><circle transform="scale(-1,1)" cx="-168" cy="123" r="23.2" fill="#31446c"/><circle transform="scale(-1,1)" cx="-168" cy="123" r="11.9" fill="#202e45"/><path d="m259 197h156c13 0 23.6 10.6 23.6 23.6v1.83c0 13-10.6 23.6-23.6 23.6h-156c-13 0-23.6-10.6-23.6-23.6v-1.83c1e-3 -13 10.6-23.6 23.6-23.6z" fill="#31446c"/><path d="m356 246h58c13 0 23.6-10.6 23.6-23.6v-1.83c0-13-10.6-23.6-23.6-23.6h-58c13 0 23.6 10.6 23.6 23.6v1.83c0 13-10.6 23.6-23.6 23.6z" fill="#202e45"/><path d="m138 327h140v27.6h-122z" fill="#da4a54" style="fill:#80c904"/><path d="m127 140c3.48 0 6.3-2.82 6.3-6.3v-48.7l38.3-23.9c2.95-1.84 3.85-5.73 2-8.68-1.84-2.95-5.73-3.85-8.68-2l-41.3 25.8c-1.84 1.15-2.96 3.17-2.96 5.34v52.2c-1e-3 3.48 2.82 6.3 6.3 6.3z" fill="#c63d4f" style="fill:#338000"/><path d="m171 26.4c9.08 0 16.4 7.36 16.4 16.4v26.8c0 9.08-7.36 16.4-16.4 16.4-9.08 0-16.4-7.36-16.4-16.4v-26.8c0-9.08 7.36-16.4 16.4-16.4z" fill="#da4a54" style="fill:#80c904"/><path d="m187 42.8v26.8c0 5.95-3.17 11.1-7.9 14-4.73-2.89-7.9-8.08-7.9-14v-26.8c0-5.95 3.17-11.1 7.9-14 4.73 2.89 7.9 8.08 7.9 14z" fill="#f9f6f9"/><path d="m440 136c-2.02-2.37 10.8-10.2 15.1-10.3 4.35-0.0703 14.3 33.1 3.16 35.4-4.76 0.979-30.3 2.62-49.5-0.272-4.02-0.604-4.21-10.3-1.75-14 3.3-4.97 10.8-3.49 15.9-1.63 11.4 4.16 18.8 7.43 21.9 2.79 2.37-3.62-2.8-9.61-4.82-12z" style="clip-rule:evenodd;fill-rule:evenodd;fill:#f4e8d7;image-rendering:optimizeQuality;shape-rendering:geometricPrecision"/><ellipse cx="439" cy="175" rx="8.55" ry="8.28" style="clip-rule:evenodd;fill-rule:evenodd;fill:#f4e8d7;image-rendering:optimizeQuality;shape-rendering:geometricPrecision"/></svg>
