<svg width="128" height="128" enable-background="new 0 0 512 512" version="1.1" viewBox="0 0 128 128" xmlns="http://www.w3.org/2000/svg"><g transform="matrix(-.25 0 0 .25 128 9.76)"><path d="m235 355c0 3.94-0.301 7.82-0.892 11.6-5.58 35.9-36.6 63.3-74 63.3s-68.5-27.5-74.1-63.3c-0.591-3.78-0.892-7.66-0.892-11.6 0-41.4 33.6-75 74.9-75 41.4 1e-3 74.9 33.6 74.9 75z" fill="#31446c"/><path d="m235 355c0 3.94-0.301 7.82-0.892 11.6h-148c-0.591-3.78-0.892-7.66-0.892-11.6 0-41.4 33.6-75 74.9-75 41.4 1e-3 74.9 33.6 74.9 75z" fill="#202e45"/><path d="m168 429c-2.55 0.262-5.13 0.398-7.74 0.398-41.4 0-74.9-33.5-74.9-74.9s33.5-75 74.9-75c2.62 0 5.2 0.136 7.74 0.398-37.8 3.87-67.2 35.8-67.2 74.6s29.5 70.7 67.2 74.5z" fill="#202e45"/><circle cx="160" cy="355" r="36.9" fill="#f9f6f9"/><path d="m123 355c0 20.4 16.5 36.9 36.9 36.9 2.72 0 5.37-0.291 7.92-0.853-16.6-3.62-29-18.4-29-36s12.4-32.4 29-36.1c-2.55-0.562-5.2-0.853-7.92-0.853-20.4-1e-3 -36.9 16.5-36.9 36.9z" fill="#dddaec"/></g><g transform="matrix(-.25 0 0 .25 128 9.76)"><path d="m491 355c0 3.94-0.301 7.82-0.892 11.6-5.58 35.9-36.6 63.3-74 63.3s-68.5-27.5-74.1-63.3c-0.591-3.78-0.892-7.66-0.892-11.6 0-41.4 33.6-75 74.9-75 41.4 1e-3 74.9 33.6 74.9 75z" fill="#31446c"/><path d="m491 355c0 3.94-0.301 7.82-0.892 11.6h-148c-0.591-3.78-0.892-7.66-0.892-11.6 0-41.4 33.6-75 74.9-75 41.4 1e-3 74.9 33.6 74.9 75z" fill="#202e45"/><path d="m424 429c-2.55 0.262-5.13 0.398-7.74 0.398-41.4 0-74.9-33.5-74.9-74.9s33.5-75 74.9-75c2.62 0 5.2 0.136 7.74 0.398-37.8 3.87-67.2 35.8-67.2 74.6s29.5 70.7 67.2 74.5z" fill="#202e45"/><circle cx="416" cy="355" r="36.9" fill="#f9f6f9"/><path d="m379 355c0 20.4 16.5 36.9 36.9 36.9 2.72 0 5.37-0.291 7.92-0.853-16.6-3.62-29-18.4-29-36s12.4-32.4 29-36.1c-2.55-0.562-5.2-0.853-7.92-0.853-20.4-1e-3 -36.9 16.5-36.9 36.9z" fill="#dddaec"/></g><path d="m5.5 98.5h15.7v-25c-2.8 0.42-5.45 1.3-7.87 2.55-6.27 3.27-11 9.12-12.8 16.1-0.817 3.2 1.64 6.27 4.92 6.27z" fill="#da4a54" style="fill:#035000;stroke-width:.25"/><path d="m105 81.5h9.1c5.32 0 9.65-4.32 9.65-9.65v-6.32h-4.85v6.32c0 2.65-2.15 4.8-4.8 4.8h-9.1z" fill="#dddaec" style="fill:#74757b;stroke-width:.25"/><path d="m107 68h-45.2v30.2h45.2z" fill="#c63d4f" style="fill:#047100;stroke-width:.25"/><path d="m69.1 98.5c-3.3 0-5.75-3.1-4.92-6.27 2.8-10.9 12.7-19 24.5-19 11.8 0 21.7 8.07 24.5 19 0.817 3.2-1.64 6.27-4.92 6.27z" fill="#da4a54" style="fill:#035000;stroke-width:.25"/><path d="m27.4 45h-10.1v17.4h10.1z" fill="#da4a54" style="fill:#035000;stroke-width:.25"/><g transform="matrix(-.25 0 0 .25 128 9.76)" fill="#c63d4f" style="fill:#023800"><path d="m404 189h40.6v21.3h-40.6z" style="fill:#023800"/><path d="m104 330c-3.27 12.8 6.57 25.1 19.7 25.1h-43.2c-13.2 0-23-12.4-19.7-25.1 11.2-43.6 50.8-75.9 97.9-75.9 7.42 0 14.6 0.795 21.6 2.32-37.3 8.11-66.9 36.8-76.3 73.6z" style="fill:#023800"/><path d="m456 355h-99.7l5.96-22.9 58.3-30.5 7.74-46.6c11.2 1.68 21.8 5.2 31.5 10.2-10.2 13.5-29.6 47.8-3.74 89.7z" style="fill:#023800"/></g><path d="m16.3 62.5h1.68v-17.4h-1.68c-2.28 0-4.12 1.85-4.12 4.12v9.15c0 2.28 1.85 4.12 4.12 4.12z" fill="#f9f6f9" style="fill:#afb0b4;stroke-width:.25"/><path d="m12.2 53v5.32c0 2.28 1.85 4.12 4.12 4.12h1.68v-5.32h-1.68c-2.28 0-4.12-1.85-4.12-4.12z" fill="#dddaec" style="fill:#74757b;stroke-width:.25"/><path d="m43.4 52h-5.77v-15h5.77c1.97 0 3.55 1.59 3.55 3.55v7.92c2.58e-4 1.97-1.59 3.55-3.55 3.55z" fill="#c63d4f" style="fill:#035000;stroke-width:.25"/><path d="m35.6 36.8h4.17v29.7c0 6.07 1.97 12 5.57 16.8 1.9 2.57 3.32 5.52 4.15 8.72 0.817 3.2-1.64 6.27-4.92 6.27h-4.8c-10.2 0-18.5-8.3-18.5-18.5v-28.7c-2.49e-4 -7.92 6.42-14.3 14.3-14.3z" fill="#da4a54" style="fill:#035000;stroke-width:.25"/><path d="m44.4 92.2c0.817 3.2-1.64 6.27-4.92 6.27h5.22c3.3 0 5.75-3.1 4.92-6.27-0.817-3.2-2.24-6.15-4.15-8.72-3.6-4.87-5.57-10.8-5.57-16.8v-29.7h-4.17c-0.35 0-0.695 0.012-1.04 0.0362v29.7c0 6.07 1.97 12 5.57 16.8 1.9 2.57 3.32 5.52 4.15 8.72z" fill="#c63d4f" style="fill:#047100;stroke-width:.25"/><path d="m124 68.7h-19.5v-6.75h19.5c1.86 0 3.37 1.51 3.37 3.37 0 1.86-1.51 3.37-3.37 3.37z" fill="#f9f6f9" style="fill:#afb0b4;stroke-width:.25"/><path d="m120 67.7c-0.607 0.61-1.45 0.99-2.38 0.99h6.77c0.93 0 1.77-0.377 2.38-0.99 0.61-0.607 0.99-1.45 0.99-2.38 0-1.86-1.51-3.37-3.37-3.37h-6.77c1.86 0 3.37 1.51 3.37 3.37 0 0.932-0.377 1.77-0.987 2.38z" fill="#dddaec" style="fill:#74757b;stroke-width:.25"/><circle transform="scale(-1,1)" cx="-42.1" cy="40.5" r="5.8" fill="#31446c" style="stroke-width:.25"/><circle transform="scale(-1,1)" cx="-42.1" cy="40.5" r="2.97" fill="#202e45" style="stroke-width:.25"/><path d="m34.6 91.5h35v6.9h-30.5z" fill="#da4a54" style="fill:#047100;stroke-width:.25"/><path d="m31.9 44.8c0.87 0 1.57-0.705 1.57-1.57v-12.2l9.57-5.97c0.737-0.46 0.962-1.43 0.5-2.17-0.46-0.737-1.43-0.962-2.17-0.5l-10.3 6.45c-0.46 0.287-0.74 0.792-0.74 1.33v13c-2.58e-4 0.87 0.705 1.57 1.57 1.57z" fill="#c63d4f" style="fill:#338000;stroke-width:.25"/><path d="m42.9 16.4c2.27 0 4.1 1.84 4.1 4.1v6.7c0 2.27-1.84 4.1-4.1 4.1-2.27 0-4.1-1.84-4.1-4.1v-6.7c0-2.27 1.84-4.1 4.1-4.1z" fill="#da4a54" style="fill:#035000;stroke-width:.25"/><path d="m46.9 20.5v6.7c0 1.49-0.792 2.77-1.97 3.5-1.18-0.722-1.97-2.02-1.97-3.5v-6.7c0-1.49 0.792-2.77 1.97-3.5 1.18 0.722 1.97 2.02 1.97 3.5z" fill="#f9f6f9" style="stroke-width:.25"/><path d="m88.1 23.4h38.6c0.645 0 1.17 0.494 1.17 1.1v36.4c0 0.608-0.523 1.1-1.17 1.1l-19.8 5.28e-4 -18.7-5.28e-4c-0.645 0-1.17-0.494-1.17-1.1v-36.4c-1.4e-4 -0.608 0.523-1.1 1.17-1.1z" fill="#fddd85" style="fill:#cba677;stroke-width:.139"/><path d="m126 60.9v-36.4c0-0.608-0.523-1.1-1.17-1.1h2.34c0.646 0 1.17 0.494 1.17 1.1v36.4c0 0.608-0.523 1.1-1.17 1.1h-2.34c0.645 0 1.17-0.494 1.17-1.1z" fill="#fdd042" style="fill:#c1955d;stroke-width:.139"/><path d="m99.8 23.4h14.1v11.2c0 0.715-0.977 1.2-1.77 0.824l-5.24-2.5-5.24 2.5c-0.79 0.378-1.77-0.107-1.77-0.821z" fill="#f2c127" style="fill:#ffc431;stroke-width:.124"/><path d="m111 34.6v-11.4l2.34 0.178v11.2c0 0.715-0.977 1.2-1.77 0.824l-0.728-0.347c0.101-0.139 0.16-0.301 0.16-0.477z" fill="#e1a527" style="fill:#fcb431;stroke-width:.124"/><path d="m107 38.1c4.24-0.036 8.69 2.13 10.5 6.08 1.52 3.1 0.751 7.01-1.63 9.46-0.68 0.514-1.22 1.23-1.07 2.12-0.0361 0.765 0.076 1.55-0.0632 2.3-0.906 0.787-2.08-0.577-3.08-0.782-1.02-0.699-2.16-0.132-3.26-0.0411-4.46 0.527-9.39-1.39-11.7-5.39-1.74-2.95-1.36-6.9 0.835-9.51 2.24-2.8 5.87-4.25 9.41-4.24z" style="fill:none;stroke-width:1.47;stroke:#035000"/><g transform="matrix(.18 0 0 .18 52.9 33.1)"><g transform="matrix(2.6 0 0 2.6 9047 -3e3)" style="fill:#035000;shape-inside:url(#rect3271);stroke-width:.426;stroke:#035000;white-space:pre" aria-label="пе"><path d="m-3349 1181c0.407 3.15-1.49 6.18-4.11 7.8-4.11 2.78-9.26 3.35-14.1 3.19-4.23-0.23-8.7-1.6-11.5-4.92-1.57-1.9-1.93-4.78-0.523-6.87 1.86-2.9 5.39-3.98 8.6-4.54 2.81-0.47 5.74-0.435 8.47 0.422 0.883 1.2-1.7 1.18-2.48 1.26-3.63 0.393-7.54 0.646-10.6 2.88-1.43 1.02-1.69 3.18-0.332 4.37 2.07 2.3 5.36 2.66 8.27 2.9 4.17 0.286 8.53-0.1 12.3-1.99 1.52-0.849 2.76-2.47 2.57-4.29 0.123-1.23 1.68-2.51 2.82-1.62 0.402 0.348 0.536 0.892 0.615 1.39z" style="fill:#035000;stroke-width:.55;stroke:#035000"/></g><path d="m306 110a9.41 9.41 0 0 1-9.41 9.41 9.41 9.41 0 0 1-9.42-9.41 9.41 9.41 0 0 1 9.42-9.41 9.41 9.41 0 0 1 9.41 9.41z" style="fill:#035000;paint-order:markers fill stroke"/></g><path d="m89.1 71.2h14.5c3.25 0 5.9-2.65 5.9-5.9v-0.457c0-3.25-2.65-5.9-5.9-5.9h-14.5c3.25 0 5.9 2.65 5.9 5.9v0.457c0 3.25-2.65 5.9-5.9 5.9z" fill="#202e45" style="stroke-width:.25"/><path d="m64.9 59h39c3.25 0 5.9 2.65 5.9 5.9v0.457c0 3.25-2.65 5.9-5.9 5.9h-39c-3.25 0-5.9-2.65-5.9-5.9v-0.457c2.48e-4 -3.25 2.65-5.9 5.9-5.9z" fill="#31446c" style="stroke-width:.25"/></svg>
