<svg width="500" height="700" style="clip-rule:evenodd;fill-rule:evenodd;image-rendering:optimizeQuality;shape-rendering:geometricPrecision;text-rendering:geometricPrecision" version="1.1" viewBox="0 0 5208 7292" xml:space="preserve" xmlns="http://www.w3.org/2000/svg" xmlns:xlink="http://www.w3.org/1999/xlink">
 <defs>
  <style type="text/css">
   
    .fil304 {fill:#1B1B1B;fill-rule:nonzero}
    .fil292 {fill:#1C1C1C;fill-rule:nonzero}
    .fil293 {fill:#1E1E1E;fill-rule:nonzero}
    .fil288 {fill:#232020;fill-rule:nonzero}
    .fil291 {fill:#232121;fill-rule:nonzero}
    .fil289 {fill:#262323;fill-rule:nonzero}
    .fil287 {fill:#262626;fill-rule:nonzero}
    .fil280 {fill:#2D2828;fill-rule:nonzero}
    .fil290 {fill:#2D2A2A;fill-rule:nonzero}
    .fil285 {fill:#302C2C;fill-rule:nonzero}
    .fil281 {fill:#332F2F;fill-rule:nonzero}
    .fil277 {fill:#333333;fill-rule:nonzero}
    .fil438 {fill:#334363;fill-rule:nonzero}
    .fil279 {fill:#353030;fill-rule:nonzero}
    .fil320 {fill:#363C42;fill-rule:nonzero}
    .fil346 {fill:#381911;fill-rule:nonzero}
    .fil427 {fill:#391C14;fill-rule:nonzero}
    .fil286 {fill:#3A3535;fill-rule:nonzero}
    .fil441 {fill:#3A3838;fill-rule:nonzero}
    .fil299 {fill:#3A3A3A;fill-rule:nonzero}
    .fil284 {fill:#3D3737;fill-rule:nonzero}
    .fil319 {fill:#3D4041;fill-rule:nonzero}
    .fil283 {fill:#3F3A3A;fill-rule:nonzero}
    .fil323 {fill:#41517D;fill-rule:nonzero}
    .fil397 {fill:#422E26;fill-rule:nonzero}
    .fil282 {fill:#423C3C;fill-rule:nonzero}
    .fil517 {fill:#432F26;fill-rule:nonzero}
    .fil316 {fill:#464646;fill-rule:nonzero}
    .fil321 {fill:#465884;fill-rule:nonzero}
    .fil442 {fill:#494646;fill-rule:nonzero}
    .fil428 {fill:#4D362C;fill-rule:nonzero}
    .fil423 {fill:#4F372D;fill-rule:nonzero}
    .fil443 {fill:#514F4F;fill-rule:nonzero}
    .fil296 {fill:#528188;fill-rule:nonzero}
    .fil439 {fill:#536B96;fill-rule:nonzero}
    .fil294 {fill:#565353;fill-rule:nonzero}
    .fil0 {fill:#5BCEC0;fill-rule:nonzero}
    .fil233 {fill:#5F772B;fill-rule:nonzero}
    .fil509 {fill:#605049;fill-rule:nonzero}
    .fil501 {fill:#606D92;fill-rule:nonzero}
    .fil234 {fill:#60782B;fill-rule:nonzero}
    .fil235 {fill:#61792B;fill-rule:nonzero}
    .fil236 {fill:#617A2B;fill-rule:nonzero}
    .fil437 {fill:#627196;fill-rule:nonzero}
    .fil237 {fill:#627B2B;fill-rule:nonzero}
    .fil238 {fill:#637B2B;fill-rule:nonzero}
    .fil239 {fill:#637C2B;fill-rule:nonzero}
    .fil312 {fill:#646161;fill-rule:nonzero}
    .fil495 {fill:#647398;fill-rule:nonzero}
    .fil240 {fill:#647D2B;fill-rule:nonzero}
    .fil313 {fill:#656262;fill-rule:nonzero}
    .fil241 {fill:#657E2B;fill-rule:nonzero}
    .fil340 {fill:#666380;fill-rule:nonzero}
    .fil315 {fill:#666464;fill-rule:nonzero}
    .fil242 {fill:#667F2B;fill-rule:nonzero}
    .fil243 {fill:#66802B;fill-rule:nonzero}
    .fil244 {fill:#67802B;fill-rule:nonzero}
    .fil245 {fill:#67812B;fill-rule:nonzero}
    .fil301 {fill:#686868;fill-rule:nonzero}
    .fil246 {fill:#68822B;fill-rule:nonzero}
    .fil247 {fill:#69832B;fill-rule:nonzero}
    .fil248 {fill:#6A842B;fill-rule:nonzero}
    .fil444 {fill:#6B574F;fill-rule:nonzero}
    .fil103 {fill:#6B5E3D;fill-rule:nonzero}
    .fil249 {fill:#6B852B;fill-rule:nonzero}
    .fil250 {fill:#6B862B;fill-rule:nonzero}
    .fil398 {fill:#6C332E;fill-rule:nonzero}
    .fil104 {fill:#6C5F3D;fill-rule:nonzero}
    .fil251 {fill:#6C872B;fill-rule:nonzero}
    .fil105 {fill:#6D5F3E;fill-rule:nonzero}
    .fil252 {fill:#6D882B;fill-rule:nonzero}
    .fil106 {fill:#6E603E;fill-rule:nonzero}
    .fil253 {fill:#6E882C;fill-rule:nonzero}
    .fil119 {fill:#6E8A33;fill-rule:nonzero}
    .fil107 {fill:#6F613F;fill-rule:nonzero}
    .fil254 {fill:#6F892C;fill-rule:nonzero}
    .fil120 {fill:#6F8B33;fill-rule:nonzero}
    .fil108 {fill:#70613F;fill-rule:nonzero}
    .fil309 {fill:#706C6C;fill-rule:nonzero}
    .fil255 {fill:#708A2C;fill-rule:nonzero}
    .fil256 {fill:#708B2C;fill-rule:nonzero}
    .fil121 {fill:#708C33;fill-rule:nonzero}
    .fil109 {fill:#716240;fill-rule:nonzero}
    .fil257 {fill:#718C2C;fill-rule:nonzero}
    .fil122 {fill:#718D33;fill-rule:nonzero}
    .fil123 {fill:#718E33;fill-rule:nonzero}
    .fil110 {fill:#726340;fill-rule:nonzero}
    .fil258 {fill:#728D2C;fill-rule:nonzero}
    .fil124 {fill:#728F33;fill-rule:nonzero}
    .fil111 {fill:#736441;fill-rule:nonzero}
    .fil259 {fill:#738E2C;fill-rule:nonzero}
    .fil125 {fill:#739033;fill-rule:nonzero}
    .fil112 {fill:#746541;fill-rule:nonzero}
    .fil260 {fill:#748F2C;fill-rule:nonzero}
    .fil261 {fill:#74902C;fill-rule:nonzero}
    .fil126 {fill:#749133;fill-rule:nonzero}
    .fil113 {fill:#756642;fill-rule:nonzero}
    .fil262 {fill:#75902C;fill-rule:nonzero}
    .fil263 {fill:#75912C;fill-rule:nonzero}
    .fil127 {fill:#759233;fill-rule:nonzero}
    .fil114 {fill:#766642;fill-rule:nonzero}
    .fil175 {fill:#766845;fill-rule:nonzero}
    .fil264 {fill:#76922C;fill-rule:nonzero}
    .fil128 {fill:#769333;fill-rule:nonzero}
    .fil129 {fill:#769433;fill-rule:nonzero}
    .fil115 {fill:#776743;fill-rule:nonzero}
    .fil176 {fill:#776945;fill-rule:nonzero}
    .fil265 {fill:#77932C;fill-rule:nonzero}
    .fil130 {fill:#779533;fill-rule:nonzero}
    .fil116 {fill:#786843;fill-rule:nonzero}
    .fil177 {fill:#786946;fill-rule:nonzero}
    .fil266 {fill:#78942C;fill-rule:nonzero}
    .fil267 {fill:#78952C;fill-rule:nonzero}
    .fil131 {fill:#789633;fill-rule:nonzero}
    .fil117 {fill:#796844;fill-rule:nonzero}
    .fil178 {fill:#796A46;fill-rule:nonzero}
    .fil268 {fill:#79952C;fill-rule:nonzero}
    .fil132 {fill:#799733;fill-rule:nonzero}
    .fil118 {fill:#7A6944;fill-rule:nonzero}
    .fil179 {fill:#7A6B47;fill-rule:nonzero}
    .fil269 {fill:#7A962C;fill-rule:nonzero}
    .fil133 {fill:#7A9833;fill-rule:nonzero}
    .fil300 {fill:#7A9EA4;fill-rule:nonzero}
    .fil170 {fill:#7B6B47;fill-rule:nonzero}
    .fil270 {fill:#7B972C;fill-rule:nonzero}
    .fil271 {fill:#7B982C;fill-rule:nonzero}
    .fil134 {fill:#7B9933;fill-rule:nonzero}
    .fil135 {fill:#7B9A33;fill-rule:nonzero}
    .fil171 {fill:#7C6C48;fill-rule:nonzero}
    .fil272 {fill:#7C992C;fill-rule:nonzero}
    .fil273 {fill:#7C9A2C;fill-rule:nonzero}
    .fil136 {fill:#7C9B33;fill-rule:nonzero}
    .fil172 {fill:#7D6D48;fill-rule:nonzero}
    .fil220 {fill:#7D9544;fill-rule:nonzero}
    .fil274 {fill:#7D9A2C;fill-rule:nonzero}
    .fil137 {fill:#7D9C33;fill-rule:nonzero}
    .fil173 {fill:#7E6E49;fill-rule:nonzero}
    .fil221 {fill:#7E9644;fill-rule:nonzero}
    .fil275 {fill:#7E9B2C;fill-rule:nonzero}
    .fil138 {fill:#7E9D33;fill-rule:nonzero}
    .fil180 {fill:#7F6F49;fill-rule:nonzero}
    .fil311 {fill:#7F7E7E;fill-rule:nonzero}
    .fil222 {fill:#7F9744;fill-rule:nonzero}
    .fil223 {fill:#7F9844;fill-rule:nonzero}
    .fil276 {fill:#7F9C2C;fill-rule:nonzero}
    .fil139 {fill:#7F9E33;fill-rule:nonzero}
    .fil174 {fill:#80704A;fill-rule:nonzero}
    .fil224 {fill:#809944;fill-rule:nonzero}
    .fil140 {fill:#809F33;fill-rule:nonzero}
    .fil141 {fill:#80A033;fill-rule:nonzero}
    .fil225 {fill:#819A44;fill-rule:nonzero}
    .fil142 {fill:#81A133;fill-rule:nonzero}
    .fil181 {fill:#82714B;fill-rule:nonzero}
    .fil226 {fill:#829B44;fill-rule:nonzero}
    .fil322 {fill:#82A035;fill-rule:nonzero}
    .fil143 {fill:#82A233;fill-rule:nonzero}
    .fil182 {fill:#83714C;fill-rule:nonzero}
    .fil227 {fill:#839C44;fill-rule:nonzero}
    .fil144 {fill:#83A234;fill-rule:nonzero}
    .fil183 {fill:#84724C;fill-rule:nonzero}
    .fil228 {fill:#849D44;fill-rule:nonzero}
    .fil229 {fill:#849E44;fill-rule:nonzero}
    .fil145 {fill:#84A334;fill-rule:nonzero}
    .fil185 {fill:#859B4E;fill-rule:nonzero}
    .fil230 {fill:#859F44;fill-rule:nonzero}
    .fil146 {fill:#85A434;fill-rule:nonzero}
    .fil147 {fill:#85A534;fill-rule:nonzero}
    .fil186 {fill:#869C4E;fill-rule:nonzero}
    .fil445 {fill:#869E54;fill-rule:nonzero}
    .fil231 {fill:#869F44;fill-rule:nonzero}
    .fil148 {fill:#86A634;fill-rule:nonzero}
    .fil187 {fill:#879D4E;fill-rule:nonzero}
    .fil446 {fill:#879E54;fill-rule:nonzero}
    .fil232 {fill:#87A044;fill-rule:nonzero}
    .fil149 {fill:#87A734;fill-rule:nonzero}
    .fil188 {fill:#889D4E;fill-rule:nonzero}
    .fil189 {fill:#889E4E;fill-rule:nonzero}
    .fil447 {fill:#889F54;fill-rule:nonzero}
    .fil448 {fill:#88A054;fill-rule:nonzero}
    .fil150 {fill:#88A834;fill-rule:nonzero}
    .fil100 {fill:#899830;fill-rule:nonzero}
    .fil190 {fill:#899F4E;fill-rule:nonzero}
    .fil449 {fill:#89A154;fill-rule:nonzero}
    .fil151 {fill:#89A934;fill-rule:nonzero}
    .fil400 {fill:#8A6258;fill-rule:nonzero}
    .fil191 {fill:#8AA04E;fill-rule:nonzero}
    .fil192 {fill:#8AA14E;fill-rule:nonzero}
    .fil450 {fill:#8AA254;fill-rule:nonzero}
    .fil451 {fill:#8AA354;fill-rule:nonzero}
    .fil152 {fill:#8AAA34;fill-rule:nonzero}
    .fil153 {fill:#8AAB34;fill-rule:nonzero}
    .fil102 {fill:#8B9F36;fill-rule:nonzero}
    .fil193 {fill:#8BA24E;fill-rule:nonzero}
    .fil452 {fill:#8BA454;fill-rule:nonzero}
    .fil154 {fill:#8BAC34;fill-rule:nonzero}
    .fil194 {fill:#8CA24E;fill-rule:nonzero}
    .fil195 {fill:#8CA34E;fill-rule:nonzero}
    .fil453 {fill:#8CA454;fill-rule:nonzero}
    .fil454 {fill:#8CA554;fill-rule:nonzero}
    .fil155 {fill:#8CAD34;fill-rule:nonzero}
    .fil196 {fill:#8DA44E;fill-rule:nonzero}
    .fil455 {fill:#8DA654;fill-rule:nonzero}
    .fil156 {fill:#8DAE34;fill-rule:nonzero}
    .fil197 {fill:#8EA54E;fill-rule:nonzero}
    .fil456 {fill:#8EA754;fill-rule:nonzero}
    .fil157 {fill:#8EAF34;fill-rule:nonzero}
    .fil198 {fill:#8FA64E;fill-rule:nonzero}
    .fil199 {fill:#8FA74E;fill-rule:nonzero}
    .fil457 {fill:#8FA854;fill-rule:nonzero}
    .fil458 {fill:#8FA954;fill-rule:nonzero}
    .fil158 {fill:#8FB034;fill-rule:nonzero}
    .fil159 {fill:#8FB134;fill-rule:nonzero}
    .fil1 {fill:#8FE0D7;fill-rule:nonzero}
    .fil200 {fill:#90A74E;fill-rule:nonzero}
    .fil201 {fill:#90A84E;fill-rule:nonzero}
    .fil459 {fill:#90A954;fill-rule:nonzero}
    .fil460 {fill:#90AA54;fill-rule:nonzero}
    .fil160 {fill:#90B234;fill-rule:nonzero}
    .fil2 {fill:#90E1D8;fill-rule:nonzero}
    .fil202 {fill:#91A94E;fill-rule:nonzero}
    .fil461 {fill:#91AB54;fill-rule:nonzero}
    .fil161 {fill:#91B334;fill-rule:nonzero}
    .fil3 {fill:#91E1D8;fill-rule:nonzero}
    .fil493 {fill:#92A662;fill-rule:nonzero}
    .fil203 {fill:#92AA4E;fill-rule:nonzero}
    .fil462 {fill:#92AC54;fill-rule:nonzero}
    .fil162 {fill:#92B434;fill-rule:nonzero}
    .fil4 {fill:#92E1D9;fill-rule:nonzero}
    .fil494 {fill:#93A762;fill-rule:nonzero}
    .fil204 {fill:#93AB4E;fill-rule:nonzero}
    .fil463 {fill:#93AD54;fill-rule:nonzero}
    .fil163 {fill:#93B534;fill-rule:nonzero}
    .fil5 {fill:#93E2D9;fill-rule:nonzero}
    .fil512 {fill:#94A862;fill-rule:nonzero}
    .fil513 {fill:#94A962;fill-rule:nonzero}
    .fil205 {fill:#94AC4E;fill-rule:nonzero}
    .fil206 {fill:#94AD4E;fill-rule:nonzero}
    .fil464 {fill:#94AE54;fill-rule:nonzero}
    .fil465 {fill:#94AF54;fill-rule:nonzero}
    .fil164 {fill:#94B634;fill-rule:nonzero}
    .fil165 {fill:#94B734;fill-rule:nonzero}
    .fil6 {fill:#94E2D9;fill-rule:nonzero}
    .fil96 {fill:#95A534;fill-rule:nonzero}
    .fil514 {fill:#95AA62;fill-rule:nonzero}
    .fil207 {fill:#95AE4E;fill-rule:nonzero}
    .fil466 {fill:#95B054;fill-rule:nonzero}
    .fil166 {fill:#95B834;fill-rule:nonzero}
    .fil7 {fill:#95E2D9;fill-rule:nonzero}
    .fil332 {fill:#967378;fill-rule:nonzero}
    .fil310 {fill:#969292;fill-rule:nonzero}
    .fil515 {fill:#96AB62;fill-rule:nonzero}
    .fil208 {fill:#96AF4E;fill-rule:nonzero}
    .fil496 {fill:#96AF55;fill-rule:nonzero}
    .fil467 {fill:#96B154;fill-rule:nonzero}
    .fil167 {fill:#96B934;fill-rule:nonzero}
    .fil8 {fill:#96E2DA;fill-rule:nonzero}
    .fil516 {fill:#97AC62;fill-rule:nonzero}
    .fil101 {fill:#97AD3B;fill-rule:nonzero}
    .fil209 {fill:#97AF4F;fill-rule:nonzero}
    .fil497 {fill:#97B055;fill-rule:nonzero}
    .fil468 {fill:#97B155;fill-rule:nonzero}
    .fil168 {fill:#97BA34;fill-rule:nonzero}
    .fil9 {fill:#97E2DA;fill-rule:nonzero}
    .fil210 {fill:#98B04F;fill-rule:nonzero}
    .fil469 {fill:#98B255;fill-rule:nonzero}
    .fil10 {fill:#98E3DA;fill-rule:nonzero}
    .fil11 {fill:#98E3DB;fill-rule:nonzero}
    .fil211 {fill:#99B14F;fill-rule:nonzero}
    .fil212 {fill:#99B24F;fill-rule:nonzero}
    .fil498 {fill:#99B355;fill-rule:nonzero}
    .fil510 {fill:#99B455;fill-rule:nonzero}
    .fil12 {fill:#99E3DB;fill-rule:nonzero}
    .fil213 {fill:#9AB34F;fill-rule:nonzero}
    .fil499 {fill:#9AB455;fill-rule:nonzero}
    .fil511 {fill:#9AB555;fill-rule:nonzero}
    .fil13 {fill:#9AE3DB;fill-rule:nonzero}
    .fil214 {fill:#9BB44F;fill-rule:nonzero}
    .fil500 {fill:#9BB555;fill-rule:nonzero}
    .fil14 {fill:#9BE3DB;fill-rule:nonzero}
    .fil215 {fill:#9CB54F;fill-rule:nonzero}
    .fil15 {fill:#9CE4DC;fill-rule:nonzero}
    .fil216 {fill:#9DB64F;fill-rule:nonzero}
    .fil217 {fill:#9DB74F;fill-rule:nonzero}
    .fil470 {fill:#9DB955;fill-rule:nonzero}
    .fil16 {fill:#9DE4DC;fill-rule:nonzero}
    .fil218 {fill:#9EB74F;fill-rule:nonzero}
    .fil219 {fill:#9EB84F;fill-rule:nonzero}
    .fil471 {fill:#9EB955;fill-rule:nonzero}
    .fil472 {fill:#9EBA55;fill-rule:nonzero}
    .fil17 {fill:#9EE4DC;fill-rule:nonzero}
    .fil473 {fill:#9FBB55;fill-rule:nonzero}
    .fil18 {fill:#9FE5DC;fill-rule:nonzero}
    .fil474 {fill:#A0BC55;fill-rule:nonzero}
    .fil19 {fill:#A0E5DD;fill-rule:nonzero}
    .fil475 {fill:#A1BD55;fill-rule:nonzero}
    .fil476 {fill:#A1BE55;fill-rule:nonzero}
    .fil20 {fill:#A1E5DD;fill-rule:nonzero}
    .fil477 {fill:#A2BE55;fill-rule:nonzero}
    .fil21 {fill:#A2E5DE;fill-rule:nonzero}
    .fil478 {fill:#A3BF55;fill-rule:nonzero}
    .fil22 {fill:#A3E6DE;fill-rule:nonzero}
    .fil479 {fill:#A4C055;fill-rule:nonzero}
    .fil480 {fill:#A4C155;fill-rule:nonzero}
    .fil23 {fill:#A4E6DE;fill-rule:nonzero}
    .fil481 {fill:#A5C255;fill-rule:nonzero}
    .fil482 {fill:#A5C355;fill-rule:nonzero}
    .fil24 {fill:#A5E6DE;fill-rule:nonzero}
    .fil483 {fill:#A6C355;fill-rule:nonzero}
    .fil25 {fill:#A6E7DF;fill-rule:nonzero}
    .fil484 {fill:#A7C455;fill-rule:nonzero}
    .fil26 {fill:#A7E7DF;fill-rule:nonzero}
    .fil27 {fill:#A7E7E0;fill-rule:nonzero}
    .fil485 {fill:#A8C555;fill-rule:nonzero}
    .fil28 {fill:#A8E7E0;fill-rule:nonzero}
    .fil486 {fill:#A9BD6B;fill-rule:nonzero}
    .fil487 {fill:#A9BE6B;fill-rule:nonzero}
    .fil169 {fill:#A9C935;fill-rule:nonzero}
    .fil29 {fill:#A9E7E0;fill-rule:nonzero}
    .fil488 {fill:#AABF6B;fill-rule:nonzero}
    .fil30 {fill:#AAE8E0;fill-rule:nonzero}
    .fil489 {fill:#ABC06B;fill-rule:nonzero}
    .fil31 {fill:#ABE8E0;fill-rule:nonzero}
    .fil32 {fill:#ABE8E1;fill-rule:nonzero}
    .fil490 {fill:#ACC16B;fill-rule:nonzero}
    .fil429 {fill:#ACD2CD;fill-rule:nonzero}
    .fil436 {fill:#ACE8E1;fill-rule:nonzero}
    .fil33 {fill:#ACE9E1;fill-rule:nonzero}
    .fil491 {fill:#ADC26B;fill-rule:nonzero}
    .fil492 {fill:#ADC36B;fill-rule:nonzero}
    .fil430 {fill:#ADD3CD;fill-rule:nonzero}
    .fil34 {fill:#ADE9E1;fill-rule:nonzero}
    .fil431 {fill:#AED3CD;fill-rule:nonzero}
    .fil35 {fill:#AEE9E1;fill-rule:nonzero}
    .fil184 {fill:#AFCA3E;fill-rule:nonzero}
    .fil432 {fill:#AFD3CD;fill-rule:nonzero}
    .fil324 {fill:#B0B5C1;fill-rule:nonzero}
    .fil433 {fill:#B0D3CD;fill-rule:nonzero}
    .fil434 {fill:#B1D3CD;fill-rule:nonzero}
    .fil36 {fill:#B1E9E3;fill-rule:nonzero}
    .fil435 {fill:#B2D4CD;fill-rule:nonzero}
    .fil424 {fill:#B2D4CE;fill-rule:nonzero}
    .fil37 {fill:#B2EAE4;fill-rule:nonzero}
    .fil425 {fill:#B3D5CE;fill-rule:nonzero}
    .fil38 {fill:#B3EAE4;fill-rule:nonzero}
    .fil39 {fill:#B4EBE4;fill-rule:nonzero}
    .fil40 {fill:#B5EBE4;fill-rule:nonzero}
    .fil41 {fill:#B6EBE5;fill-rule:nonzero}
    .fil42 {fill:#B7EBE5;fill-rule:nonzero}
    .fil43 {fill:#B7EBE6;fill-rule:nonzero}
    .fil44 {fill:#B8EBE6;fill-rule:nonzero}
    .fil45 {fill:#B9EBE6;fill-rule:nonzero}
    .fil46 {fill:#BAECE7;fill-rule:nonzero}
    .fil99 {fill:#BBDDD9;fill-rule:nonzero}
    .fil47 {fill:#BBECE7;fill-rule:nonzero}
    .fil48 {fill:#BCEDE7;fill-rule:nonzero}
    .fil49 {fill:#BDEDE7;fill-rule:nonzero}
    .fil50 {fill:#BEEDE8;fill-rule:nonzero}
    .fil51 {fill:#BFEEE8;fill-rule:nonzero}
    .fil52 {fill:#C0EEE8;fill-rule:nonzero}
    .fil305 {fill:#C16316;fill-rule:nonzero}
    .fil53 {fill:#C1EEE9;fill-rule:nonzero}
    .fil54 {fill:#C2EEE9;fill-rule:nonzero}
    .fil55 {fill:#C3EEE9;fill-rule:nonzero}
    .fil56 {fill:#C4EFE9;fill-rule:nonzero}
    .fil57 {fill:#C4EFEA;fill-rule:nonzero}
    .fil303 {fill:#C5631B;fill-rule:nonzero}
    .fil58 {fill:#C5F0EA;fill-rule:nonzero}
    .fil306 {fill:#C66015;fill-rule:nonzero}
    .fil59 {fill:#C6F0EA;fill-rule:nonzero}
    .fil60 {fill:#C7F0EB;fill-rule:nonzero}
    .fil61 {fill:#C8F0EB;fill-rule:nonzero}
    .fil62 {fill:#C9F0EB;fill-rule:nonzero}
    .fil63 {fill:#CAF0EB;fill-rule:nonzero}
    .fil64 {fill:#CBF0EB;fill-rule:nonzero}
    .fil65 {fill:#CBF0EC;fill-rule:nonzero}
    .fil66 {fill:#CBF1EC;fill-rule:nonzero}
    .fil298 {fill:#CC5E15;fill-rule:nonzero}
    .fil67 {fill:#CCF1EC;fill-rule:nonzero}
    .fil68 {fill:#CDF1EC;fill-rule:nonzero}
    .fil69 {fill:#CDF1ED;fill-rule:nonzero}
    .fil70 {fill:#CDF2ED;fill-rule:nonzero}
    .fil426 {fill:#CE9178;fill-rule:nonzero}
    .fil71 {fill:#CEF2ED;fill-rule:nonzero}
    .fil72 {fill:#CFF2ED;fill-rule:nonzero}
    .fil73 {fill:#D0F2EE;fill-rule:nonzero}
    .fil74 {fill:#D1F2EE;fill-rule:nonzero}
    .fil98 {fill:#D4E5E3;fill-rule:nonzero}
    .fil97 {fill:#D6E5E4;fill-rule:nonzero}
    .fil302 {fill:#D76E18;fill-rule:nonzero}
    .fil317 {fill:#D78C74;fill-rule:nonzero}
    .fil399 {fill:#D8A38B;fill-rule:nonzero}
    .fil503 {fill:#D8F4F1;fill-rule:nonzero}
    .fil334 {fill:#DA9178;fill-rule:nonzero}
    .fil75 {fill:#DAF5F2;fill-rule:nonzero}
    .fil344 {fill:#DB9279;fill-rule:nonzero}
    .fil329 {fill:#DB9882;fill-rule:nonzero}
    .fil76 {fill:#DBF5F2;fill-rule:nonzero}
    .fil345 {fill:#DC957D;fill-rule:nonzero}
    .fil77 {fill:#DCF5F2;fill-rule:nonzero}
    .fil78 {fill:#DCF5F3;fill-rule:nonzero}
    .fil297 {fill:#DD6B17;fill-rule:nonzero}
    .fil504 {fill:#DD9E8A;fill-rule:nonzero}
    .fil79 {fill:#DDF5F3;fill-rule:nonzero}
    .fil80 {fill:#DDF6F3;fill-rule:nonzero}
    .fil81 {fill:#DEF6F3;fill-rule:nonzero}
    .fil393 {fill:#DF836D;fill-rule:nonzero}
    .fil392 {fill:#DF836E;fill-rule:nonzero}
    .fil391 {fill:#DF846E;fill-rule:nonzero}
    .fil390 {fill:#DF846F;fill-rule:nonzero}
    .fil389 {fill:#DF856F;fill-rule:nonzero}
    .fil388 {fill:#DF866F;fill-rule:nonzero}
    .fil387 {fill:#DF8670;fill-rule:nonzero}
    .fil386 {fill:#DF8770;fill-rule:nonzero}
    .fil385 {fill:#DF8771;fill-rule:nonzero}
    .fil331 {fill:#DF977D;fill-rule:nonzero}
    .fil343 {fill:#DF9A81;fill-rule:nonzero}
    .fil82 {fill:#DFF6F3;fill-rule:nonzero}
    .fil83 {fill:#DFF6F4;fill-rule:nonzero}
    .fil333 {fill:#E0846D;fill-rule:nonzero}
    .fil384 {fill:#E08871;fill-rule:nonzero}
    .fil383 {fill:#E08872;fill-rule:nonzero}
    .fil382 {fill:#E08972;fill-rule:nonzero}
    .fil381 {fill:#E08A73;fill-rule:nonzero}
    .fil380 {fill:#E08B74;fill-rule:nonzero}
    .fil379 {fill:#E08C74;fill-rule:nonzero}
    .fil378 {fill:#E08C75;fill-rule:nonzero}
    .fil336 {fill:#E0997F;fill-rule:nonzero}
    .fil84 {fill:#E0F7F4;fill-rule:nonzero}
    .fil377 {fill:#E18D75;fill-rule:nonzero}
    .fil376 {fill:#E18E76;fill-rule:nonzero}
    .fil375 {fill:#E18F77;fill-rule:nonzero}
    .fil374 {fill:#E19077;fill-rule:nonzero}
    .fil373 {fill:#E19078;fill-rule:nonzero}
    .fil85 {fill:#E1F7F4;fill-rule:nonzero}
    .fil372 {fill:#E29178;fill-rule:nonzero}
    .fil371 {fill:#E29279;fill-rule:nonzero}
    .fil370 {fill:#E2927A;fill-rule:nonzero}
    .fil369 {fill:#E2937A;fill-rule:nonzero}
    .fil368 {fill:#E2947B;fill-rule:nonzero}
    .fil367 {fill:#E2957B;fill-rule:nonzero}
    .fil366 {fill:#E2957C;fill-rule:nonzero}
    .fil341 {fill:#E29C81;fill-rule:nonzero}
    .fil337 {fill:#E2A087;fill-rule:nonzero}
    .fil86 {fill:#E2F7F4;fill-rule:nonzero}
    .fil87 {fill:#E2F7F5;fill-rule:nonzero}
    .fil365 {fill:#E3967C;fill-rule:nonzero}
    .fil364 {fill:#E3967D;fill-rule:nonzero}
    .fil363 {fill:#E3977D;fill-rule:nonzero}
    .fil362 {fill:#E3977E;fill-rule:nonzero}
    .fil361 {fill:#E3987E;fill-rule:nonzero}
    .fil360 {fill:#E3997F;fill-rule:nonzero}
    .fil359 {fill:#E39A7F;fill-rule:nonzero}
    .fil358 {fill:#E39A80;fill-rule:nonzero}
    .fil357 {fill:#E39B80;fill-rule:nonzero}
    .fil88 {fill:#E3F8F5;fill-rule:nonzero}
    .fil356 {fill:#E49B80;fill-rule:nonzero}
    .fil355 {fill:#E49C81;fill-rule:nonzero}
    .fil354 {fill:#E49C82;fill-rule:nonzero}
    .fil353 {fill:#E49D82;fill-rule:nonzero}
    .fil352 {fill:#E49E82;fill-rule:nonzero}
    .fil351 {fill:#E49E83;fill-rule:nonzero}
    .fil89 {fill:#E4F8F5;fill-rule:nonzero}
    .fil314 {fill:#E58E4E;fill-rule:nonzero}
    .fil421 {fill:#E59C8B;fill-rule:nonzero}
    .fil420 {fill:#E59D8B;fill-rule:nonzero}
    .fil419 {fill:#E59D8C;fill-rule:nonzero}
    .fil350 {fill:#E59E83;fill-rule:nonzero}
    .fil418 {fill:#E59E8C;fill-rule:nonzero}
    .fil417 {fill:#E59E8D;fill-rule:nonzero}
    .fil349 {fill:#E59F83;fill-rule:nonzero}
    .fil348 {fill:#E59F84;fill-rule:nonzero}
    .fil416 {fill:#E59F8D;fill-rule:nonzero}
    .fil347 {fill:#E5A084;fill-rule:nonzero}
    .fil328 {fill:#E5A185;fill-rule:nonzero}
    .fil90 {fill:#E5F8F5;fill-rule:nonzero}
    .fil415 {fill:#E6A08D;fill-rule:nonzero}
    .fil414 {fill:#E6A08E;fill-rule:nonzero}
    .fil413 {fill:#E6A18E;fill-rule:nonzero}
    .fil412 {fill:#E6A18F;fill-rule:nonzero}
    .fil411 {fill:#E6A290;fill-rule:nonzero}
    .fil410 {fill:#E6A390;fill-rule:nonzero}
    .fil409 {fill:#E6A391;fill-rule:nonzero}
    .fil91 {fill:#E6F8F5;fill-rule:nonzero}
    .fil92 {fill:#E6F8F6;fill-rule:nonzero}
    .fil93 {fill:#E6F9F6;fill-rule:nonzero}
    .fil308 {fill:#E7965A;fill-rule:nonzero}
    .fil408 {fill:#E7A491;fill-rule:nonzero}
    .fil407 {fill:#E7A591;fill-rule:nonzero}
    .fil406 {fill:#E7A592;fill-rule:nonzero}
    .fil405 {fill:#E7A692;fill-rule:nonzero}
    .fil404 {fill:#E7A693;fill-rule:nonzero}
    .fil94 {fill:#E7F9F6;fill-rule:nonzero}
    .fil342 {fill:#E87056;fill-rule:nonzero}
    .fil403 {fill:#E8A793;fill-rule:nonzero}
    .fil402 {fill:#E8A894;fill-rule:nonzero}
    .fil330 {fill:#E8AB91;fill-rule:nonzero}
    .fil95 {fill:#E8F9F7;fill-rule:nonzero}
    .fil508 {fill:#E9B099;fill-rule:nonzero}
    .fil422 {fill:#EAB49D;fill-rule:nonzero}
    .fil401 {fill:#EAE7E0;fill-rule:nonzero}
    .fil507 {fill:#ECFAF8;fill-rule:nonzero}
    .fil440 {fill:#EF3E26;fill-rule:nonzero}
    .fil335 {fill:#EF654A;fill-rule:nonzero}
    .fil295 {fill:#EF7B1B;fill-rule:nonzero}
    .fil278 {fill:#EFEFEF;fill-rule:nonzero}
    .fil505 {fill:#F25D49;fill-rule:nonzero}
    .fil339 {fill:#F45C40;fill-rule:nonzero}
    .fil307 {fill:#F4A15D;fill-rule:nonzero}
    .fil338 {fill:#F6725D;fill-rule:nonzero}
    .fil318 {fill:#FC4F32;fill-rule:nonzero}
    .fil326 {fill:#FC664D;fill-rule:nonzero}
    .fil502 {fill:#FC6B53;fill-rule:nonzero}
    .fil325 {fill:#FF6B57;fill-rule:nonzero}
    .fil327 {fill:#FF7E6D;fill-rule:nonzero}
    .fil506 {fill:#FF9384;fill-rule:nonzero}
    .fil394 {fill:white;fill-rule:nonzero}
    .fil396 {fill:url(#a)}
    .fil395 {fill:url(#b)}
   
  </style>
  <linearGradient id="a" x1="10499" x2="10581" y1="2336" y2="2087" gradientUnits="userSpaceOnUse">
   <stop style="stop-color:#5C3333" offset="0"/>
   <stop style="stop-color:#272525" offset="1"/>
  </linearGradient>
  <linearGradient id="b" x1="9683" x2="9760" y1="2254" y2="2048" gradientTransform="translate(-7354 -521)" gradientUnits="userSpaceOnUse" xlink:href="#a">
  </linearGradient>
 <linearGradient id="c" x1="10499" x2="10581" y1="2336" y2="2087" gradientTransform="translate(-7354 -521)" gradientUnits="userSpaceOnUse" xlink:href="#a"/></defs>
 
  
  
  
  
  
  
  
  
  
  
  
  
  
  
  
  
  
  
  
  
  
  
  
  
  
  
  
  
  
  
  
  
  
  
  
  
  
  
  
  
  
  
  
  
  
  
  
  
  
  
  
  
  
  
  
  
  
  
  
  
  
  
  
  
  
  
  
  
  
  
  
  
  
  
  
  
  
  
  
  
  
  
  
  
  
  
  
  
  
  
  
  
  
  
  
  
  
  
  
  
  
  
  
  
  
  
  
  
  
  
  
  
  
  
  
  
  
  
  
  
  
  
  
  
  
  
  
  
  
  
  
  
  
  
  
  
  
  
  
  
  
  
  
  
  
  
  
  
  
  
  
  
  
  
  
  
  
  
  
  
  
  
  
  
  
  
  
  
  
  
  
  
  
  
  
  
  
  
  
  
  
  
  
  
  
  
  
  
  
  
  
  
  
  
  
  
  
  
  
  
  
  
  
  
  
  
  
  
  
  
  
  
  
  
  
  
  
  
  
  
  
  
  
  
  
  
  
  
  
  
  
  
  
  
  
  
  
  
  
  
  
  
  
  
  
  
  
  
  
  
  
  
  
  
  
  
  
  
  
  
  
  
  
  
  
  
  
  
  
  
  
  
  
  
  
  
  
  
  
  
  
  
  
  
  
  
  
  
  
  
  
  
  
  
  
  
  
  
  
  
  
  
  
  
  
  
  
  
  
  
  
  
  
  
  
  
  
  
  
  
  
  
  
  
  
  
  
  
  
  
  
  
  
  
  
  
  
  
  
  
  
  
  
  
  
  
  
  
  
  
  
  
  
  
  
  
  
  
  
  
  
  
  
  
  
  
  
  
  
  
  
  
  
  
  
  
  
  
  
  
  
  
  
  
  
  
  
  
  
  
  
  
  
  
  
  
  
  
  
  
  
  
  
  
  
  
  
  
  
  
  
  
  
  
  
  
  
  
  
  
  
  
  
  
  
  
  
  
  
  
  
  
  
  
  
  
  
  
  
  
  
  
  
  
  
  
  
  
  
  
  
  
  
  
  
  
  
  
  
  
  
  
  
  
  
  
  
  
  
  
  
  
  
  
  
  
  
  
  
  
  
  
  
  
  
  
  
  
  
  
  
  
  
  
  
  
  
  
  
  
  
  
  
  
  
  
  
  
  
  
  
  
  
  
  
  
  
  
  
  
  
  
  
  
  
  
  
  
  
  
  
  
  
  
  
  
  
  
  
  
  
  
  
  
  
  
  
  
  
  
  
  
  
  
  
  
  
  
  
  
  
  
  
  
  
  
  
  
  
  
  
  
  
  
  
  
  
  
  
  
  
  
  
  
  
  
  
  
  
  
  
  
  
  
  
  
  
  
  
  
  
  
  
  
  
  
  
  
  
  
  
  
  
  
  
  
  
  
  
  
  
  
  
  
  
  
  
  
  
  
  
  
  
  
  
  
  
  
  
  
  
  
  
  
  
  
  
  
  
  
  
  
  
  
  
  
  
  
  
  
  
  
  
  
  
  
  
  
  
  
  
  
  
  
  
  
  
  
  
  
  
  
  
  
  
  
  
  
  
  
  
  
  
  
  
  
  
  
  
  
  
  
  
  
  
  
  
  
  
  
  
  
  
  
  
  
  
  
  
  
  
  
  
  
  
  
  
  
  
  
  
  
  
  
  
  
  
  
  
  
  
  
  
  
  
  
  
  
  
  
  
  
  
  
  
  
  
  
  
  
  
  
  
  
  
  
  
  
  
  
  
  
  
  
  
  
  
  
  
  
  
  
  
  
  
  
  
  
  
  
  
  
  
  
  
  
  <polygon class="fil331" transform="translate(6872 3826)" points=""/>
  <polygon class="fil331" transform="translate(6872 3826)" points=""/>
  <polygon class="fil331" transform="translate(6872 3826)" points=""/>
  
  
  
  
  
  
  
  
  
  
  
  
  
  
  
  
  
  
  
  
  
  
  
  
  
  
  
  
  
  
  
  
  
  
  
  
  
  
  
  
  
  
  
  
  
  
  
  
  
  
  
  
  
  
  
  
  
  
  
  
  
  
  
  
  
  
  
  
  
  
  
  
  
  
  
  
  
  
  
  
  
  
  
  
  
  
  
  
  
  
  
  
  
  
  
  
  
  
  
  
  
  
  
  
  
  
  
  
  
  
  
  
  
  
  
  
  
  
  
  
  
  
  
  
  
  
  
  
  
  
  
  
  
  
  
  
  
  
  
  
  
  
  
  
  
  
  
  
  
  
  
  
  
  
  
  
  
  
  
  
  
  
  
  
  
  
  
  
  
  
  
  
  
  
  
  
  
  
  
  
  
  
  
  
  
  
  
  
  
  
  
  
  
  
  
  
  <polygon class="fil398" transform="translate(6872 3826)" points=""/>
  
  
  
  
  
  
  
  
  
  
  
  
  
  
  
  
  
  
  
  
  
  
  
  
  
  
  
  
  
  
  
  
  
  
  
  
  
  
  
  
  
  
  
  
  
  
  
  
  
  
  
  
  
  
  
  
  
  
  
  
  
  
  
  
  
  
  
  
  
  
  
  
  
  
  
  
  
  
  
  
  
  
  
  
  
  
  
  
  
  
  
  
  
  
  
  
  
  
  
  
  
  
  
  
  
  
  
  
  
  
  
  
  
  
  
  
  
  
  
  
  
  
  
  
  
  
  
  
  
  
  
  
  
  
  
  
  
  
  
  
  
  
  
  
  
  
  
  
  
  
  
  
  
  
  
  
  
  
  
  
  
  
  
  
  
  
  
  
  
  
  
  <polygon class="fil503" transform="translate(6872 3826)" points=""/>
  
  
  
  
  
  
  
  
  
  
  
  
  
  
  
  
  
  
  
  
  
  
  
  
  
  
  
  
  
  
  
  
  
  
  
  
  
  
  
  
  
  
  
  
  
  
  
  
  
  
  
  
 <path class="fil317" d="m2865 2904c-417-6-722 61-722 61s38 372 30 399c-8 28 668 139 1016 0s265-430 265-430-172-25-589-30z"/><path class="fil318" d="m3356 2889 324 2198 1170 279c257-2454-1494-2477-1494-2477z" style="fill:#80c904"/><path class="fil318" d="m548 5433 848-67 848-2443c-1659 57-1696 2510-1696 2510z" style="fill:#80c904"/><path class="fil317" d="m2839 2208c-218-3-377 98-381 240l-94 639c-3 142 230 168 448 171s413-32 416-174l-13-600c3-142-158-273-376-276z"/><path class="fil318" d="m4090 3700c0-80 14-619-495-748l-3-1c-10-3-21-5-31-7-31-9-154-41-219-58-1 3-1 6-2 10-19 76-140 363-556 363-482 0-489-283-498-350-196 23-511 157-614 258-242 237-245 818-268 1662-24 881-25 819-133 2430h2867c-77-989-51-2721-48-3557z" style="fill:#80c904"/><path class="fil321" d="m3307 4009c-17 299-12 536-11 548l333-7c0-3-5-245 12-541z" style="fill:#9a4121"/><path class="fil321" d="m3528 2910c-82 141-165 399-208 910 0 4-1 7-1 11h335c2-18 3-37 5-55 66-687 206-762 208-762 12-53-327-128-338-103z" style="fill:#9a4121"/><path class="fil321" d="m1662 3063c-41 161-71 380-82 683v13h334v-2c20-589 117-769 158-819 9-44-400 76-410 125z" style="fill:#9a4121"/><path class="fil321" d="m1576 4007c-1 353 16 686 17 700l338-141c0-3-20-251-21-558h-334z" style="fill:#9a4121"/><path class="fil321" d="m3581 5364 64-971-1940-10-120 1032-269-16c-15 396-46 669-105 1859h2979c-40-509-51-1211-53-1890l-558-3z" style="fill:#9a4121"/><path class="fil323" d="m4163 6745c0-5 0-11-1-16 0 5 0 11 1 16zm-2 0c-715-156-1427-580-1427-580-354 304-1186 407-1483 426 10-184 20-333 28-460l-4 1c0 6-1 12-1 19 2-26 3-51 5-75 17-7 34-15 50-24 48 1 97 2 146 2 79 0 160-2 237-5 416-19 990-353 1034-379 1 0 1-1 2-1l48-33c38 24 77 48 115 72 306 190 753 346 1112 389 39 23 79 42 122 57 0 19 1 37 1 56h-1c0 10 0 20 1 30v7c1 27 1 53 2 80v5c1 24 1 47 2 71v15c1 23 1 45 2 67v8c1 26 1 52 2 77v2c1 24 1 47 2 71v14c1 21 1 42 2 63v11c0 6 0 12 1 17zm-2888-586m0-1v-1 1zm0-2v-1 1zm0-3v-1 1z" style="fill:#7e3a1a"/><path class="fil325" d="m4418 4753c-20-5-39-10-59-13-249-45-476 83-611 274-305 431 38 1175 612 1173 551-1 731-670 480-1120-89-159-253-270-422-314z" style="fill:#338000"/><path class="fil327" d="m4952 5525c-3-143-40-289-111-416-89-159-253-270-422-314-20-5-39-10-59-13-34-6-67-9-100-9-42 0-82 5-122 13 1 0 1-1 2-1 63-27 148-33 226-44 17 3 35 7 53 12 170 45 334 156 422 314v33c0 1 1 1 1 2v2c0 1 1 1 1 2v2c0 1 1 2 1 2v1c0 1 1 2 1 3 59 127 86 267 83 403z" style="fill:#250"/><path class="fil325" d="m1110 4748c-347-1-644 306-662 686-19 380 247 688 595 689 347 1 644-306 662-686 19-380-247-688-595-689z" style="fill:#338000"/><path class="fil327" d="m447 5500c-1-22-1-44 0-67 7-147 56-282 133-394 122-177 315-292 528-292h43c99 7 191 40 270 92-8 16-15 30-20 43-85-51-184-81-291-81h-2c-346 0-642 307-661 686v11z" style="fill:#250"/><path class="fil317" d="m3790 4058c-29 16-94 68-150 103-57 36-98 39-118 95-19 57-124 222-124 222s323-137 413-248 8-189-21-173z"/><path class="fil328" d="m1293 4904c-159-39-455-76-632 273-114 225-62 496-10 660 31 99 116 171 218 183 198 24 538 40 843 26 433-19 1037-381 1037-381l387-269c-115-93-229-187-340-286-240 30-1348-169-1503-207z"/><path class="fil328" d="m4628 4475s25-13 25-51-42-66-101-87c-59-22-110-42-110-42 58-40 31-102 10-107-22-4-107-38-154-51s-291-20-349-16-137 53-281 126-314 211-376 296c-61 85-74 234-109 324-34 90-172 198-370 241-5 1-11 2-17 3 111 99 225 193 340 286l628-437c118 18 237-106 263-110s64-45 112-65c86-37 213-35 306-60 79-21 81-97 81-97 76-6 133-43 136-89 2-46-33-65-33-65z"/><path class="fil330" d="m3946 4754c-21 0-43-2-64-7-109-24-312-178-399-250-38-32-56-88 10-140 55-41 114-79 170-107h1c1 0 1-1 2-1h3c144-73 223-122 281-126 11-1 29-1 51-1 93 0 259 7 298 17 47 13 132 46 154 51 12 2 25 22 25 47 0 18-7 38-29 55 26-21 31-47 27-68-10 30-46 41-94 41-52 0-118-13-178-28-37-9-71-13-103-13-111 0-196 47-267 87l-18 10c-91 50-170 73-170 73 2 7 10 10 23 10 36 0 107-26 162-56l18-10c71-39 149-83 252-83 30 0 62 4 96 12 122 30 233 40 292 48 18 7 40 15 63 24 59 21 101 49 101 87-2-1-2-1-5-2-11 12-31 16-55 16-39 0-88-11-124-16-66-9-179-18-274-18-45 0-86 2-116 6-77 11-400 129-337 142h2c35 0 268-102 339-112 27-4 67-6 112-6 90 0 199 7 269 17 74 11 150 32 185 42-6-9-13-14-17-17l-2-1-1-1c4 2 33 20 33 60v4c-8 22-36 28-66 28-38 0-80-10-95-14-7-2-14-2-22-2-6 0-13 0-20 1-8 1-17 1-27 1-13 0-28-1-45-5-10-2-21-3-34-3-73 0-183 31-248 52-91 29-254 97-204 109 1 0 3 1 5 1 33 0 126-54 209-81 103-33 187-50 239-50 11 0 20 1 28 2 20 4 36 5 51 5 10 0 20-1 28-1h13c8 0 14 0 20 1 37 4 31 49 26 71l-6 9c-74 22-148 38-230 38h-3c-57 0-113 13-168 26s-111 26-166 26zm572-94c1-4 2-7 3-10 3-12 4-21 4-21s0 14-7 31zm110-185m0 0c1 0 16-9 22-31-6 22-21 30-22 31z"/><path class="fil331" d="m1475 6052c-49 0-98-1-146-2-178-4-343-15-459-30-103-13-188-85-218-183-29-92-58-218-58-350 0-104 18-212 68-311 121-239 299-297 449-297 69 0 132 12 182 24 0 0 36 11 87 27h2c91 28 227 73 296 107 193 95 380 215 541 359 118 105 201 270 97 419-44 64-114 108-190 135l-3 6c310-107 593-272 624-290-44 26-618 361-1034 379-78 3-158 5-237 5zm-270-953c-163 0-340 30-416 145-159 240-41 353 169 460 32 16 84 23 149 23 359 0 1112-216 1064-257-57-48-448-284-628-337 0 0-161-35-337-35z"/><path class="fil334" d="m2123 5958 3-6c76-27 145-72 190-135 104-149 21-314-97-419-161-144-348-265-541-359-68-33-205-78-296-107 20 3 184 24 303 62 114 37 589 316 1111 639l-48 33s-1 1-2 1c-30 18-314 183-624 290zm-742-1027c-51-16-87-27-87-27h4c2 0 4 1 6 1 19 4 46 10 80 17-2 4-3 7-3 7z"/><path class="fil336" d="m4021 4852c-89 0-354-34-698-34-41 0-82-1-123-4 20-75 36-167 71-236-64 167 209 202 283 203 106 3 206 20 311 28 29 2 54 4 78 4 55 0 102-9 160-43 69-40 114-44 175-46s189-1 235-61c1 0 3-1 4-1-1 2-1 3-1 4 1-1 1-3 2-4 0-1 1-2 1-2-4 10-10 22-19 32-11 13-26 24-48 31h-3c-93 25-220 23-306 60-48 20-86 61-112 65-2 0-4 1-6 2z"/><path class="fil328" d="m4627 4994c-182-144-532-154-581-143s-335-32-723-32c-347 0-670-99-896-170s-305-154-512-151-375 132-440 244c-58 99-94 189-94 189s179 22 305 63c123 40 660 358 1227 711 505 315 1399 535 1642 307 268-252 368-784 73-1018z"/><path class="fil343" d="m3668 4402c-12 0-20-3-23-10 0 0 78-23 170-73l18-10c71-40 156-87 267-87 32 0 66 4 103 13 59 15 125 28 178 28 48 0 84-11 94-41 4 21-1 47-27 68 2 1 20 8 46 18-59-8-170-18-292-48-35-9-67-12-96-12-103 0-181 44-252 83l-18 10c-55 30-126 56-162 56z"/><path class="fil343" d="m3744 4554h-2c-63-13 260-131 337-142 30-4 71-6 116-6 95 0 208 8 274 18 36 5 85 16 124 16 24 0 44-4 55-16 2 1 2 1 5 2v1c-6 22-21 30-22 31l1 1 2 1c4 3 11 9 17 17-35-10-111-31-185-42-70-10-180-17-269-17-45 0-85 2-112 6-71 11-304 112-339 112z"/><path class="fil343" d="m3906 4707c-2 0-4 0-5-1-49-12 113-80 204-109 65-21 175-52 248-52 13 0 24 1 34 3 17 4 32 5 45 5 10 0 18-1 27-1 7 0 14-1 20-1 8 0 15 1 22 2 15 4 57 14 95 14 30 0 57-7 66-28-2 46-59 83-136 89 0 0 0 9-4 21-1 2-2 3-3 5 5-22 11-67-26-71-6-1-12-1-20-1h-13c-9 1-18 1-28 1-15 0-31-1-51-5-8-2-17-2-28-2-51 0-136 18-239 50-83 26-175 81-209 81z"/><path class="fil317" d="m1910 1517c-96 28-143 165-106 306s145 233 241 205 143-165 106-306-145-233-241-205z"/><path class="fil346" d="m2516 305v-4 4z"/><path class="fil328" d="m3545 771c-42-331-964-519-1253-77-95 206-250 592-311 979v-7s-289 1023 627 1120 1036-384 1018-989c13-340-21-771-81-1026z"/><path class="fil328" d="m2293 2237h-15c-3 0-6 0-9-1 0-1 0-2-1-2 3 0 6 0 10 1h15c26 0 51-3 75-9 0 1 1 1 1 2-25 6-50 10-76 10zm216-87c-1 0-2 0-3-1 35-32 63-71 83-116 1 0 1 0 2 1-20 45-49 84-83 116zm101-386c-1 0-2-1-3-1-17-58-48-109-88-149 0-1-1-3-1-4 42 41 74 95 91 154zm-611-38v-4c33-73 87-132 153-167-1 1-1 2-2 4-66 36-119 95-151 168z"/><path class="fil328" d="m2293 2235h-15c-3 0-6 0-10-1 0-1 0-2-1-2 3 0 7 1 10 1h15c26 0 50-3 74-9 0 1 1 1 1 2-24 6-49 9-75 9zm213-85c-1 0-2 0-3-1 35-32 64-71 84-116 1 0 1 0 2 1-20 45-49 84-83 116zm101-387c-1 0-2-1-3-1-17-55-46-105-85-144 0-1-1-3-1-4 40 40 71 92 88 149zm-608-33c0-1 0-3-1-4 32-73 85-132 151-168-1 1-1 2-2 4-65 36-117 96-148 169z"/><path class="fil347" d="m2293 2233h-15c-3 0-7 0-10-1 0-1 0-2-1-2 4 0 7 1 11 1h15c25 0 50-3 74-9 0 1 1 1 1 2-24 6-49 9-74 9zm211-84c-1 0-2 0-3-1 35-32 64-71 85-116 1 0 1 0 2 1-20 45-49 84-84 116zm102-387c-1 0-2-1-3-1-17-53-45-101-81-139 0-1-1-3-1-4 38 39 68 89 85 144zm-605-28c0-1 0-3-1-4 31-73 84-132 148-169-1 1-1 2-2 3-64 37-116 96-146 169z"/><path class="fil347" d="m2293 2230h-15c-4 0-7 0-11-1 0-1 0-2-1-2 4 0 8 1 12 1h15c25 0 49-3 73-9 0 1 1 1 1 2-24 6-48 9-74 9zm208-82c-1 0-2 0-3-1 35-32 65-71 85-116 1 0 1 0 2 1-21 45-50 84-85 116zm102-388c-1 0-2-1-3-1-16-51-43-97-78-134 0-1 0-3-1-4 37 38 65 86 81 139zm-602-22c0-1 0-3-1-4 30-73 82-132 146-169-1 1-1 2-2 3-64 37-115 97-144 170z"/><path class="fil348" d="m2293 2228h-15c-4 0-8 0-12-1 0-1 0-2-1-2 4 0 8 1 13 1h15c25 0 49-3 72-9 0 1 1 1 1 2-23 6-48 9-73 9zm205-80c-1 0-2 0-3-1 36-31 65-71 86-116 1 0 1 0 2 1-21 45-50 85-85 116zm102-388c-1 0-2-1-3-1-16-49-42-93-75-129 0-1 0-3-1-4 35 37 62 83 78 134zm-599-17c0-1 0-3-1-4 29-73 81-133 144-170-1 1-1 2-2 3-63 38-113 98-142 171z"/><path class="fil349" d="m2293 2226h-15c-4 0-8-1-13-1 0-1 0-2-1-2 4 0 9 1 13 1h15c24 0 48-3 71-9 0 1 0 1 1 2-23 6-47 9-72 9zm203-78c-1 0-2 0-3-1 36-31 66-71 86-116 1 0 1 0 2 1-21 45-50 85-86 116zm102-388c-1 0-2-1-2-1-15-47-40-89-72-124 0-1 0-3-1-4 33 36 59 80 75 129zm-596-12c0-1 0-3-1-4 29-73 79-133 142-171-1 1-1 2-1 3-62 38-112 98-140 171z"/><path class="fil349" d="m2293 2224h-15c-4 0-9-1-13-1 0-1 0-2-1-2 5 0 9 1 14 1h15c24 0 48-3 70-9 0 1 0 1 1 2-23 6-47 9-71 9zm200-77c-1 0-2 0-3-1 36-31 66-71 87-116 1 0 1 0 2 1-21 45-51 85-86 116zm102-389c-1 0-2-1-2-1-15-45-39-86-69-120 0-1 0-3-1-4 32 35 56 77 72 124zm-593-7c0-1 0-3-1-4 28-73 78-133 140-171 0 1-1 2-1 3-62 39-111 99-138 172z"/><path class="fil350" d="m2293 2221h-15c-5 0-9-1-14-1 0-1 0-2-1-2 5 0 10 1 15 1h14c24 0 47-3 70-8 0 1 0 1 1 2-23 6-46 9-70 9zm197-75c-1 0-2 0-3-1 36-31 67-71 88-116 1 0 1 0 2 1-21 45-51 85-87 116zm102-389c-1 0-2-1-2-1-15-43-37-82-66-115 0-1 0-3-1-4 30 34 54 75 69 120zm-590-2c0-1 0-3-1-4 27-73 76-134 138-172 0 1-1 2-1 3-61 39-110 100-136 173z"/><path class="fil351" d="m2293 2219h-14c-5 0-10-1-15-1 0-1 0-2-1-2 5 1 10 1 15 1h14c24 0 47-3 69-8 0 1 0 1 1 2-23 6-46 9-70 8zm195-73c-1 0-2 0-3-1 37-31 67-71 88-117 1 0 1 0 2 1-21 46-51 85-88 116zm-484-386c0-1 0-3-1-4 26-73 75-134 136-173 0 1-1 2-1 3-61 39-109 101-134 174zm587-3c-1 0-2-1-2-1-14-41-36-79-63-110v-4c29 33 51 72 66 115zm-431-184c24-17 68-36 144-36h4c19 0 36 3 53 7-16-3-32-6-48-6h-14c-49 0-96 13-138 35z"/><path class="fil352" d="m2293 2217h-14c-5 0-10-1-15-1 0-1 0-2-1-2 5 1 11 1 16 1h14c23 0 46-3 68-8 0 1 0 1 1 2-22 5-45 8-69 8zm192-72c-1 0-2 0-3-1 37-31 68-71 89-117 1 0 1 0 2 1-21 46-52 86-88 117zm-481-381c0-1 0-3-1-4 25-73 73-135 134-174 0 1-1 2-1 3-60 40-107 101-132 175zm583-8c-1 0-2 0-2-1-14-39-34-75-60-106v-4c27 32 48 69 63 110zm-440-174c3-3 7-6 12-9 42-23 89-35 138-35h14c16 1 32 3 48 6 10 3 20 6 30 11-25-8-51-13-78-15h-14c-54 0-105 15-150 42z"/><path class="fil353" d="m2293 2215h-14c-5 0-11-1-16-1v-2c5 1 11 1 16 1h14c23 0 46-3 68-8 0 1 0 1 1 2-22 5-45 8-68 8zm190-70c-1 0-2 0-3-1 37-31 68-71 90-117 1 0 1 1 2 1-21 46-52 86-89 117zm-478-376c0-1-1-3-1-4 25-74 72-135 132-175 0 1-1 2-1 3-60 40-106 102-130 176zm580-14c-1 0-2 0-2-1-13-38-33-72-57-101v-4c26 31 46 67 60 106zm-444-166 7-7c45-27 96-42 150-42h14c27 1 53 6 78 15 7 3 14 7 21 10-31-13-64-21-98-23h-14c-57 0-111 17-157 47z"/><path class="fil353" d="m2293 2213h-14c-6 0-11-1-16-1v-2c6 1 11 1 17 1h14c23 0 45-3 67-8 0 1 0 1 1 2-22 5-45 8-68 8zm187-69c-1 0-2 0-3-1 38-31 69-71 90-117 1 0 1 1 2 1-22 46-52 86-90 117zm-474-371c0-1-1-3-1-4 24-74 70-136 130-176 0 1-1 2-1 3-59 41-106 103-129 177zm577-19c-1 0-2 0-2-1-13-36-31-69-54-97v-4c24 30 44 64 57 101zm-447-160c1-2 3-3 5-6 46-30 100-47 157-47h14c35 2 68 10 98 23 6 3 12 7 17 11-35-18-74-29-116-31h-14c-59 0-115 18-162 50z"/><path class="fil354" d="m2293 2210h-14c-6 0-11-1-17-1v-2c6 1 12 1 18 1h14c23 0 45-3 67-8 0 1 0 1 1 2-22 5-44 8-67 8zm184-67c-1 0-2 0-3-1 38-31 69-71 91-117 1 0 1 1 2 1-22 46-53 86-90 117zm-471-366c0-1-1-3-1-4 23-74 69-136 129-177 0 1-1 2-1 2s1-1 2-3c47-32 103-50 162-50h14c41 2 81 13 116 31 5 4 11 7 15 11-39-23-84-38-131-40h-14c-135 0-251 96-291 231zm574-24c-1 0-2 0-2-1-12-34-30-65-52-93v-4c23 29 41 61 54 97z"/><path class="fil355" d="m2293 2208h-14c-6 0-12-1-18-1v-2c6 1 12 1 18 1h14c23 0 45-3 66-8 0 1 0 1 1 2-21 5-44 8-67 8zm182-65c-1 0-2 0-3-1 38-31 70-71 92-117 1 0 1 1 2 1-22 46-53 86-91 117zm-467-361c0-2-1-3-1-5 40-135 157-231 291-231h14c48 2 92 17 131 40l15 12c-42-29-92-47-146-50h-14c-135 0-251 97-290 233zm570-29h-2c-12-32-29-62-49-89v-4c22 27 39 59 52 93z"/><path class="fil355" d="m2293 2206h-14c-6 0-12-1-18-1v-2c6 1 12 1 19 2h14c22 0 44-3 65-8 0 1 0 1 1 2-21 5-43 8-66 8zm179-64c-1 0-2 0-3-1 39-30 71-71 93-117 1 0 1 1 2 1-22 47-54 87-92 117zm-464-355c0-2-1-3-1-5 39-136 155-233 290-233h14c54 3 104 21 146 50 5 4 10 9 14 13-45-36-100-58-160-61h-14c-135 0-252 98-289 235zm567-34h-2c-12-31-27-59-47-85v-4c20 26 37 56 49 89z"/><path class="fil356" d="m2293 2204h-14c-6 0-13-1-19-2v-2c6 1 13 1 19 2h14c22 0 44-3 65-8 0 1 0 1 1 2-21 5-43 8-65 8zm176-62c-1 0-2 0-3-1 39-30 71-71 93-117 1 0 1 1 2 1-22 47-54 87-93 117zm-460-350c0-2-1-3-1-5 37-137 154-235 289-235h14c60 3 115 25 160 61 5 5 10 10 14 15-48-43-108-70-175-73h-14c-136 0-252 100-288 238zm564-39h-2c-11-29-26-56-44-80v-4c19 25 35 54 47 85z"/><path class="fil356" d="m2293 2201h-14c-6 0-13-1-19-2v-2c7 1 13 1 20 2h14c22 0 44-3 64-8 0 1 0 1 1 2-21 5-43 8-65 8zm174-61c-1 0-2 0-3-1 39-30 72-70 94-118 1 0 1 1 2 1-22 47-54 87-93 117zm-456-345c0-2-1-3-1-5 36-138 153-238 288-238h14c67 3 127 30 175 73 5 6 10 12 15 17-49-51-115-84-189-88h-14c-136 0-253 101-287 240zm561-44h-2c-11-28-25-53-42-77v-4c18 24 33 51 44 80z"/><path class="fil357" d="m2293 2199h-14c-7 0-13-1-20-2v-2c7 1 13 1 20 2h13c22 0 43-3 64-8v2c-21 5-42 8-64 8zm171-59c-1 0-2 0-3-1 40-30 72-70 95-118 1 0 1 1 2 1-22 47-55 87-94 118zm-453-339c0-2-1-3-1-5 34-139 151-240 287-240h14c74 4 140 37 189 88 6 8 11 15 15 20-50-62-123-102-204-106h-13c-136 0-254 102-286 243zm557-49h-2c-10-26-23-51-39-73v-4c17 23 31 49 42 77z"/><path class="fil358" d="m2293 2197h-13c-7 0-14-1-20-2v-2c7 1 14 1 21 2h13c22 0 43-3 63-8v2c-21 5-42 8-64 8zm168-58c-1 0-2-1-3-1 40-30 73-70 95-118 1 0 1 1 2 1-22 47-55 88-95 118zm-449-334c0-2-1-3-1-5 33-140 150-243 286-243h13c82 4 154 44 204 106 7 11 11 17 11 17v-3c16 22 29 47 39 73h-2c-42-108-138-185-253-191h-13c-137 0-254 104-285 245z"/><path class="fil359" d="m2293 2195h-13c-7 0-14-1-21-2v-2c7 1 14 2 21 2h13c22 0 43-3 63-8v2c-20 5-42 8-63 8zm166-56c-1 0-2-1-3-1 40-30 74-70 96-118 1 0 1 1 2 1-22 47-55 88-95 118zm-445-328c0-2-1-3-1-5 31-141 149-245 285-245h13c115 6 211 83 253 191h-2c-42-106-137-183-251-188h-13c-137 0-255 105-284 248z"/><path class="fil360" d="m2293 2192h-13c-7 0-14-1-21-2v-2c7 1 14 2 22 2h13c21 0 42-3 63-7v2c-20 5-41 8-63 8zm163-55c-1 0-2-1-3-1 41-30 74-70 97-118 1 0 1 1 2 1-23 48-56 88-96 118zm-442-323c0-2-1-3-1-5 30-143 147-248 284-248h13c114 6 209 82 251 188h-2c-42-105-136-180-248-186h-13c-138 0-255 106-283 250z"/><path class="fil360" d="m2293 2190h-13c-7 0-14-1-22-2v-2c7 1 15 2 22 2h13c21 0 42-3 62-7v2c-20 5-41 7-63 7zm160-53c-1 0-2-1-3-1 41-30 75-70 98-118 1 0 1 1 2 1-23 48-56 89-97 118zm-438-317c0-2-1-3-1-5 28-144 145-250 283-250h13c113 6 206 81 248 186h-2c-42-104-135-178-246-184h-13c-138 0-256 108-282 253z"/><path class="fil360" d="m2293 2188h-13c-7 0-15-1-22-2v-2c7 1 15 2 22 2h13c21 0 42-3 62-7v2c-20 5-41 7-62 7zm158-52c-1 0-2-1-3-1 41-29 76-70 98-118 1 0 1 1 2 1-23 48-57 89-98 118zm-434-311c0-2-1-3-1-5 26-145 144-253 282-253h13c111 5 204 80 246 184h-2c-42-103-134-176-244-181h-13c-138 0-256 109-281 255z"/><path class="fil361" d="m2293 2186h-13c-8 0-15-1-22-2v-2c7 1 15 2 23 2h13c21 0 42-3 61-7v2c-20 5-41 7-62 7zm155-50c-1 0-2-1-3-1 42-29 76-70 99-119 1 0 1 1 2 1-23 48-57 89-98 118zm-430-306c0-2-1-3-1-5 24-146 142-255 281-255h13c110 5 202 79 244 181h-2c-41-101-133-174-242-179h-13c-139 0-257 111-279 258z"/><path class="fil361" d="m2293 2183h-13c-8 0-15-1-23-2v-2c8 1 15 2 23 2h13c21 0 41-3 61-7v2c-20 5-40 7-61 7zm152-49c-1 0-2-1-3-1 42-29 77-70 100-119 1 0 1 1 2 1-23 48-57 89-99 119zm-426-300c0-2-1-3-1-5 22-147 140-258 279-258h13c109 5 200 78 242 179h-2c-41-100-132-172-240-177h-13c-139 0-258 112-278 261z"/><path class="fil362" d="m2293 2181h-13c-8 0-15-1-23-2v-2c8 1 16 2 23 2h13c21 0 41-3 61-7v2c-20 5-40 7-61 7zm150-47c-1 0-2-1-3-1 42-29 78-70 101-119 1 0 1 1 2 1-23 49-58 90-100 119zm-422-294c0-2-1-3-1-5 20-149 139-261 278-261h13c108 5 198 77 240 177h-2c-41-99-131-170-238-175h-13c-140 0-258 114-276 264z"/><path class="fil363" d="m2293 2179h-13c-8 0-16-1-23-2v-2c8 1 16 2 24 2h13c21 0 41-3 60-7v2c-20 5-40 7-61 7zm147-46c-1 0-2-1-3-1 43-29 78-70 102-119 1 0 1 1 2 1-23 49-58 90-101 119zm-418-288c-1-2-1-3-1-5 18-150 137-264 276-264h13c107 5 196 76 238 175h-2c-41-98-130-168-236-173h-13c-140 0-259 115-275 267z"/><path class="fil363" d="m2293 2177h-13c-8 0-16-1-24-2v-2c8 1 16 2 24 2h13c21 0 41-3 60-7v2c-20 5-40 7-60 7zm145-45c-1 0-2-1-3-1 43-29 79-70 102-119 1 0 1 1 2 1-23 49-59 90-102 119zm-414-282c-1-2-1-3-2-5 16-151 135-267 275-267h13c106 5 195 75 236 173h-2c-41-97-129-166-234-171h-13c-141 0-259 117-273 270z"/><path class="fil364" d="m2293 2174h-13c-8 0-16-1-24-2v-2c8 1 16 2 24 2h12c21 0 41-3 60-7v2c-19 5-40 7-60 7zm142-43c-1 0-2-1-2-1 44-28 80-70 103-119 1 0 1 1 2 1-23 49-59 91-102 119zm-409-276c-1-2-1-4-2-5 14-153 133-270 273-270h13c105 5 193 74 234 171h-2c-41-96-128-164-232-169h-12c-141 0-260 119-272 273z"/><path class="fil364" d="m2293 2172h-12c-8 0-16-1-24-2v-2c8 1 16 2 25 2h12c20 0 40-3 60-7v2c-19 5-39 7-60 7zm139-42c-1 0-2-1-3-1 44-28 80-70 104-119 1 0 1 1 2 1-24 50-59 91-103 119zm-405-269c-1-2-1-4-2-5 12-154 131-273 272-273h12c104 5 191 73 232 169h-2c-40-95-127-162-229-167h-12c-142 0-261 121-270 276z"/><path class="fil365" d="m2293 2170h-12c-8 0-17-1-25-2v-2c8 1 17 2 25 2h12c20 0 40-3 59-7v2c-19 5-39 7-60 7zm137-41c-1 0-2-1-3-1 44-28 81-69 105-119 1 0 1 1 2 1-24 50-60 91-104 119zm-401-263c-1-2-1-4-2-5 9-155 128-276 270-276h12c103 5 189 73 229 167h-2c-40-94-126-160-228-165h-12c-142 0-260 121-268 277v2z"/><path class="fil366" d="m2293 2168h-12c-8 0-17-1-25-2v-2c8 1 17 2 25 3h12c20 0 40-3 59-7v2c-19 5-39 7-59 7zm134-39c-1 0-2-1-3-1 45-28 82-69 105-120 1 0 1 1 2 1-24 50-60 91-105 119zm-396-257c-1-2-1-4-2-5v-2c8-156 126-277 268-277h12c102 5 187 72 228 165h-2c-40-93-125-159-226-164h-12c-141 0-258 120-266 275v7z"/><path class="fil367" d="m2294 2165h-12c-9 0-17-1-25-3v-2c8 1 17 2 25 3h12c20 0 40-3 59-7v2c-19 5-39 7-59 7zm131-38c-1 0-2-1-3-1 45-28 82-69 106-120 1 0 1 1 2 1-24 50-61 92-105 120zm-392-250c-1-2-1-4-2-6v-7c8-154 126-275 266-275h12c101 5 186 71 226 164-1 0-1 0-2 1-40-92-124-157-224-162h-12c-139 0-256 120-264 273v13z"/><path class="fil368" d="m2294 2163h-12c-9 0-17-1-25-3v-2c8 1 17 2 26 3h12c20 0 40-3 59-7v2c-19 5-39 7-59 7zm129-37c-1 0-2-1-3-1 46-27 83-69 107-120 1 0 1 1 2 1-24 50-61 92-106 120zm-387-243c-1-2-1-4-2-6v-13c8-153 125-273 264-273h12c100 5 184 70 224 162-1 0-1 0-2 1-40-91-123-155-222-160h-12c-138 0-254 119-262 271v18z"/><path class="fil368" d="m2294 2161h-12c-9 0-17-1-26-3v-2c8 1 17 2 26 3h12c20 0 40-3 59-7v2c-19 5-39 7-59 7zm126-35c-1 0-2-1-3-1 46-27 84-69 108-120 1 0 1 1 2 1-24 51-61 92-107 120zm-382-237c-1-2-1-4-2-6v-18c7-152 124-271 262-271h12c99 5 182 69 222 160-1 0-1 0-2 1-39-90-122-154-220-159h-12c-137 0-252 118-260 268v24z"/><path class="fil368" d="m2294 2159h-12c-9 0-17-1-26-3v-2c9 1 17 2 26 3h12c20 0 40-3 59-7v2c-19 5-39 7-59 7zm124-34c-1 0-2-1-3-1 46-27 84-69 109-120 1 0 1 1 2 1-24 51-62 93-108 120zm-377-230c-1-2-2-4-2-6v-24c7-151 123-268 260-268h12c98 5 180 69 220 159-1 0-1 0-2 1-39-89-121-152-218-157h-12c-136 0-250 117-258 266 0 10-1 20 0 30z"/><path class="fil369" d="m2294 2156h-12c-9 0-17-1-26-3v-2c9 1 17 2 26 3h12c20 0 40-3 59-7v2c-19 5-39 7-59 7zm121-33c-1 0-2-1-3-1 47-27 85-69 109-120 1 0 1 1 2 1-24 51-62 93-109 120zm-373-223c-1-2-2-4-2-6v-30c7-150 122-266 258-266h12c97 5 179 68 218 157-1 0-1 0-2 1-39-88-120-151-216-156h-12c-135 0-248 116-256 264-1 12 0 24 0 35z"/><path class="fil369" d="m2294 2154h-12c-9 0-18-1-26-3v-2c9 1 17 2 26 3h12c20 0 40-3 59-7v2c-19 5-39 7-59 7zm119-32c-1 0-2-1-3-1 47-26 86-69 110-120 1 0 1 1 2 1-24 51-63 93-109 120zm-367-216-3-6c-1-12-1-23 0-35 7-148 121-264 256-264h12c96 5 177 67 216 156-1 0-1 1-2 1-38-87-119-149-214-154h-12c-134 0-246 115-254 262-1 14 0 28 1 41z"/><path class="fil369" d="m2294 2152h-12c-9 0-18-1-26-3v-2c9 1 18 2 26 3h11c20 0 40-3 59-8v2c-19 5-38 7-59 7zm116-31c-1 0-2-1-3-1 47-26 86-68 111-120 1 0 1 1 2 1-24 52-63 94-110 120zm-362-209-3-6c-1-13-1-27-1-41 7-147 120-262 254-262h12c95 5 176 67 214 154-1 0-1 1-2 1-38-87-118-148-212-153h-11c-133 0-244 114-252 260-1 16 0 32 1 47z"/><path class="fil370" d="m2294 2150h-11c-9 0-18-1-26-3v-2c9 1 18 2 27 3h11c20 0 40-3 59-8v2c-19 5-38 8-59 8zm113-30c-1 0-2-1-3-1 48-26 87-68 112-120 1 0 1 1 2 1-24 52-63 94-111 120zm-357-202-3-6c-2-15-2-31-1-47 7-146 119-260 252-260h11c95 5 174 66 212 153-1 0-1 1-2 1-38-86-117-147-211-151h-11c-132 0-242 113-249 258-1 18 0 36 2 53z"/><path class="fil371" d="m2294 2147h-11c-9 0-18-1-27-3v-2c9 1 18 2 27 3h11c20 0 40-3 59-8v2c-19 5-38 8-59 8zm111-28c-1 0-2-1-2-1 48-26 88-68 112-120 1 0 1 1 2 1-24 52-64 94-112 120zm-351-194-3-6c-2-17-3-35-2-53 7-145 118-258 249-258h11c94 5 173 66 211 151-1 0-1 1-2 1-38-85-116-146-209-150h-11c-131 0-240 112-247 256-1 20 0 40 3 59z"/><path class="fil371" d="m2294 2145h-11c-9 0-18-1-27-3v-2c9 2 18 2 27 3h11c20 0 40-3 59-8v2c-19 5-38 8-59 8zm108-27c-1 0-2-1-2-1 49-25 89-68 113-120 1 0 1 1 2 1-25 52-64 95-112 120zm-346-187-3-6c-3-19-4-39-3-59 7-144 117-256 247-256h11c93 5 171 65 209 150-1 0-1 1-2 1-37-84-115-144-207-149h-11c-130 0-238 111-245 253-1 23 0 45 4 66z"/><path class="fil372" d="m2294 2143h-11c-9 0-18-1-27-3v-2c9 2 18 3 27 3h11c20 0 40-3 59-8v2c-19 5-38 8-59 8zm106-26c-1 0-2-1-2-1 49-25 89-68 114-120 1 0 1 1 2 1-25 53-65 95-113 120zm-340-179-3-6c-4-21-5-43-4-66 7-142 116-253 245-253h11c92 5 170 64 207 149-1 0-1 1-2 1-37-84-114-143-205-148h-11c-128 0-236 110-243 251-1 25 1 49 6 72z"/><path class="fil372" d="m2294 2141h-11c-9 0-18-1-27-3v-2c9 2 18 3 27 3h11c20 0 40-3 59-8v2c-19 5-38 8-59 8zm104-25c-1 0-2-1-2-1 49-25 90-67 114-121 1 0 1 1 2 1-25 53-65 95-114 120zm-334-171c-1-2-2-4-4-7-5-23-7-47-6-72 7-141 115-251 243-251h11c91 5 168 64 205 148-1 0-1 1-2 1-37-83-113-142-204-146h-11c-127 0-234 109-241 249-1 27 1 53 7 78z"/><path class="fil372" d="m2294 2138h-11c-9 0-18-1-27-3v-2c9 2 18 3 27 3h11c20 0 40-3 59-8v2c-19 5-38 8-59 8zm101-24c-1 0-2-1-2-1 50-25 91-67 115-121 1 0 1 1 2 1-25 53-65 96-114 121zm-328-163c-1-2-3-4-4-7-6-25-8-51-7-78 7-140 114-249 241-249h11c91 4 167 63 204 146-1 0-1 1-2 1-36-82-112-141-202-145h-11c-126 0-232 108-239 247-1 30 2 58 9 85z"/><path class="fil373" d="m2294 2136h-11c-9 0-18-1-27-3v-2c9 2 18 3 27 3h11c20 0 40-3 59-8v2c-19 5-39 8-59 8zm99-23c-1 0-2-1-2-1 50-24 91-67 116-121 1 0 1 1 2 1-25 53-66 96-115 121zm-321-155c-1-2-3-4-4-7-7-27-10-55-9-85 7-139 113-247 239-247h11c90 4 166 63 202 145-1 0-1 1-2 1-36-82-111-140-200-144h-11c-125 0-230 107-237 245-2 32 2 63 11 92z"/><path class="fil374" d="m2294 2134h-11c-9 0-18-1-27-3v-2c9 2 18 3 27 3h11c20 0 40-3 59-8v2c-19 5-39 8-59 8zm96-22c-1 0-2-1-2-1 50-24 92-67 117-121 1 0 1 1 2 1-25 54-66 96-116 121zm-315-147c-1-2-3-5-4-7-8-29-12-60-11-92 7-138 112-245 237-245h11c89 4 164 62 200 144-1 0-1 1-2 1-36-81-110-139-198-143h-11c-124 0-228 106-235 243-2 35 3 68 13 98z"/><path class="fil374" d="m2294 2132h-11c-9 0-18-1-27-3v-2c9 2 18 3 27 3h11c20 0 40-3 59-8v2c-19 5-39 8-59 8zm94-21c-1 0-2-1-2-1 51-24 92-67 117-121 1 0 1 1 2 1-25 54-66 97-117 121zm-308-139c-2-2-3-5-5-7-10-31-15-64-13-98 7-136 111-243 235-243h11c89 4 163 62 198 143-1 0-1 1-2 1-35-81-109-138-197-142h-11c-123 0-226 105-233 241-2 37 4 73 16 105z"/><path class="fil375" d="m2294 2129h-11c-9 0-18-1-27-3v-2c9 2 18 3 27 3h11c20 0 40-3 59-8v2c-19 5-39 8-59 8zm92-21c-1 0-2-1-2-1 51-23 93-66 118-121 1 0 1 1 2 1-25 54-66 97-117 121zm-300-131c-2-2-3-5-5-7-12-32-17-68-16-105 7-135 110-241 233-241h11c88 4 162 62 197 142-1 0-1 1-2 1-35-80-108-137-195-141h-11c-122 0-224 104-231 238-2 40 5 78 18 112z"/><path class="fil375" d="m2294 2127h-11c-9 0-18-1-27-3v-2c9 2 18 3 27 3h10c21 0 41-3 60-9v2c-19 6-39 8-59 8zm89-20c-1 0-2-1-2-1 51-23 94-66 118-121 1 0 1 1 2 1-25 54-67 97-118 121zm-293-122c-2-2-4-5-5-7-14-34-20-72-18-112 7-134 109-238 231-238h11c87 4 160 61 195 141-1 0-1 1-2 1-34-80-107-136-194-140h-10c-121 0-222 104-229 236-2 43 6 83 22 119z"/><path class="fil376" d="m2294 2125h-10c-9 0-18-1-27-3v-2c9 2 18 3 27 3h10c21 0 41-3 60-9v2c-19 6-39 9-60 9zm87-19c-1 0-1-1-2-1 52-23 94-66 119-121 1 1 1 1 2 1-25 54-67 97-118 121zm-285-113c-2-2-4-5-6-7-16-36-24-76-22-119 7-133 108-236 229-236h10c87 4 159 61 194 140-1 0-1 1-2 1-34-79-106-135-192-139h-10c-120 0-220 103-227 234-2 46 7 89 25 126z"/><path class="fil376" d="m2294 2123h-10c-9 0-18-2-27-3v-2c9 2 18 3 27 3h10c21 0 41-3 60-9v2c-19 6-39 9-60 9zm85-18c-1-1-1-1-2-1 52-23 95-66 119-121 1 1 1 1 2 1-25 55-67 98-119 121zm-277-105c-2-2-4-5-6-7-18-37-27-81-25-126 6-131 107-234 227-234h10c86 4 158 60 192 139-1 0-1 1-2 1-34-79-105-134-190-139h-10c-119 0-218 102-224 232-2 48 8 94 29 133z"/><path class="fil376" d="m2294 2120h-10c-9 0-18-1-27-3v-2c9 2 18 3 27 3h10c21 0 41-3 60-9v2c-19 6-39 9-60 9zm83-17-2-2c52-22 95-66 120-121l2 2c-25 55-67 98-119 121zm-268-96c-2-2-4-5-6-7-21-39-31-85-29-133 6-130 106-232 224-232h10c85 4 157 60 190 139l-2 2c-33-78-104-134-189-138h-10c-117 0-216 101-222 230-3 52 10 100 33 140z"/><path class="fil377" d="m2294 2118h-10c-9 0-18-1-27-3v-2c9 2 18 3 27 3h10c21 0 41-3 61-9v2c-19 6-40 9-60 9zm81-17-2-2c53-22 96-65 120-121l2 2c-25 55-68 98-120 121zm-259-87-7-7c-23-40-36-89-33-140 6-129 105-230 222-230h10c85 4 156 60 189 138l-2 2c-33-78-103-133-187-137h-10c-116 0-214 100-220 228-3 55 12 106 38 147z"/><path class="fil377" d="m2294 2116h-10c-9 0-18-2-27-3v-2c9 2 18 3 27 3h10c21 0 42-3 61-10v2c-19 6-40 9-61 9zm79-16-2-2c53-22 96-65 121-121l2 2c-24 55-68 99-120 121zm-250-79-7-7c-26-42-41-93-38-147 6-128 104-228 220-228h10c84 4 155 59 187 137l-2 2c-32-77-102-132-186-136h-10c-115 0-212 99-218 225-3 58 14 112 43 154z"/><path class="fil378" d="m2294 2114h-10c-9 0-18-1-27-3v-2c9 2 17 3 26 3h10c21 0 42-3 61-10v2c-19 6-40 10-61 10zm77-15-2-2c53-21 97-65 121-121l2 2c-24 56-68 99-121 121zm-240-70c-3-2-5-5-8-7-30-43-46-97-43-154 6-127 103-225 218-225h10c84 4 154 59 186 136l-2 2c-32-77-101-132-184-136h-10c-114 0-210 98-216 223-3 61 16 118 49 161z"/><path class="fil378" d="m2294 2111h-10c-9 0-18-1-26-3v-2c9 2 17 3 26 3h10c21 0 42-3 62-10v2c-20 6-40 10-61 10zm75-15-2-2c53-21 97-65 121-121l2 2c-24 56-68 99-121 121zm-230-62c-3-2-6-5-8-7-33-43-52-100-49-161 6-125 102-223 216-223h10c83 4 152 59 184 136l-2 2c-32-77-100-131-183-135h-10c-113 0-208 97-214 221-3 65 18 124 55 168z"/><path class="fil379" d="m2294 2109h-10c-9 0-18-1-26-3v-2c9 2 17 3 26 3h10c22 0 42-4 62-10v3c-20 6-40 10-62 10zm73-14-2-2c53-21 97-64 121-120l2 2c-24 56-68 99-121 121zm-219-53c-3-2-6-4-9-7-37-44-59-104-55-168 6-124 101-221 214-221h10c83 4 151 59 183 135l-2 2c-31-76-100-131-182-135h-10c-112 0-206 96-212 219-3 68 21 131 62 175z"/><path class="fil380" d="m2294 2107h-10c-9 0-18-1-26-3v-2c8 2 17 3 26 3h10c22 0 43-4 63-10 0 1 0 2-1 3-20 7-41 10-62 10zm71-13-2-2c54-21 98-64 122-120l2 2c-24 56-68 100-121 120zm-208-45c-3-2-7-4-10-7-41-44-66-107-62-175 6-123 100-219 212-219h10c82 4 151 59 182 135l-2 2c-31-76-99-130-180-134h-10c-111 0-204 95-210 217-4 72 24 138 70 182z"/><path class="fil380" d="m2294 2105h-10c-9 0-18-1-26-3v-2c8 2 17 3 26 3h9c22 0 43-4 63-11 0 1 0 2-1 3-20 7-41 10-63 10zm69-13-2-2c54-20 98-64 122-120l2 2c-24 56-68 100-122 120zm-196-36c-4-2-7-4-10-7-46-44-74-110-70-182 6-122 99-217 210-217h10c82 4 150 58 180 134l-2 2c-30-76-98-130-179-134h-9c-110 0-202 94-208 215-4 76 28 145 78 188z"/><path class="fil380" d="m2294 2102h-9c-9 0-17-1-26-3v-2c8 2 17 3 26 3h9c22 0 44-4 64-11 0 1 0 2-1 3-20 7-41 11-63 11zm68-12c-1-1-1-1-1-2 54-20 98-64 122-120l2 2c-24 56-68 100-122 120zm-183-28c-4-2-8-4-11-6-51-43-82-112-78-188 6-121 98-215 208-215h9c81 4 149 58 179 134l-2 2c-30-75-97-130-177-134h-9c-109 0-200 93-206 213-4 80 31 152 88 194z"/><path class="fil381" d="m2294 2100h-9c-9 0-17-1-26-3v-2c8 2 17 3 25 3h9c22 0 44-4 64-11 0 1 0 1-1 3-20 7-42 11-64 11zm66-12c-1-1-1-1-1-2 54-20 98-64 121-120l2 2c-24 56-68 100-122 120zm-168-20c-4-2-9-4-13-6-56-42-92-114-88-194 6-119 97-213 206-213h9c81 4 148 58 177 134 0 1-1 1-1 2-29-75-96-129-176-133h-9c-108 0-198 92-204 210-4 85 36 160 99 200z"/><path class="fil381" d="m2294 2098h-9c-9 0-17-1-25-3v-2c8 2 17 3 25 3h9c82 0 153-54 185-131l2 2c-23 57-67 100-121 120v-1 1c-20 7-42 11-64 11zm-87-24-15-6c-62-40-103-116-99-200 6-118 96-210 204-210h9c80 4 147 58 176 133-1 1-1 1-1 2-29-75-95-129-175-133h-9c-107 0-196 91-202 208-4 90 42 169 111 206z"/><path class="fil382" d="m2294 2096h-9c-9 0-17-1-25-3v-2c8 2 16 2 25 3h9c81 0 152-54 183-131 0 1 1 1 2 2-32 78-103 131-185 131zm-69-16-18-6c-70-37-116-116-111-206 6-117 95-208 202-208h9c80 4 146 58 175 133 0 1-1 1-1 2-28-75-94-129-173-133h-9c-105 0-194 90-200 206-5 96 49 180 127 212z"/><path class="fil382" d="m2294 2093h-9c-8 0-17-1-25-3v-2l24 3h9c81 0 151-53 182-131 0 1 1 1 1 2-31 77-102 131-183 131zm-40-7c-10-2-20-4-29-7-78-32-132-116-127-212 6-116 94-206 200-206h9c79 4 145 58 173 133 0 1-1 1-1 2-27-75-93-129-172-133h-9c-104 0-192 89-197 204-5 106 62 198 154 219z"/><path class="fil382" d="m2294 2091h-9c-8 0-16-1-24-3-2 0-5-1-7-1-93-21-160-113-154-219 6-115 93-204 197-204h9c79 4 145 58 172 133 0 1-1 1-1 2-27-75-92-129-171-133h-9c-103 0-190 88-195 202-6 117 76 215 184 221h9c80 0 150-53 180-130 0 1 1 1 1 2-31 77-101 131-182 131z"/><path class="fil383" d="m2294 2089h-9c-107-5-189-104-184-221 6-113 92-202 195-202h9c79 4 144 58 171 133 0 1-1 2-1 2-26-75-91-129-169-133h-9c-102 0-188 88-193 200-6 115 76 213 182 218h9c80 0 149-53 179-130 0 1 1 1 1 2-30 77-100 130-180 130z"/><path class="fil384" d="m2294 2087h-9c-106-5-187-103-182-218 6-112 91-200 193-200h9c78 4 143 58 169 133 0 1-1 2-1 2-26-75-90-129-168-133h-9c-101 0-186 87-191 198-6 114 75 211 180 216h9c79 0 148-53 177-130 0 1 1 1 1 2-29 77-99 130-179 130z"/><path class="fil384" d="m2294 2084h-9c-105-5-185-102-180-216 5-111 90-198 191-198h9c78 4 142 58 168 133 0 1-1 2-1 2-25-75-89-129-167-133h-9c-100 0-184 86-189 195-6 113 74 209 178 214h9c79 0 148-53 176-130 0 1 1 1 1 2-29 77-98 130-177 130z"/><path class="fil385" d="m2294 2082h-9c-104-5-183-101-178-214 5-110 89-195 189-195h9c78 4 142 59 167 133 0 1-1 2-1 3-24-75-88-130-166-134h-9c-99 0-182 85-187 193-6 112 73 206 176 211h9c78 0 147-53 174-130 0 1 1 1 1 2-28 76-97 130-176 130z"/><path class="fil386" d="m2294 2080h-9c-103-5-181-100-176-211 5-109 88-193 187-193h9c77 4 141 59 166 134 0 1-1 2-1 3-23-75-87-130-164-134h-8c-98 0-180 84-185 191-5 110 72 204 174 209h8c78 0 146-53 173-130 0 1 1 2 1 2-28 76-96 130-174 130z"/><path class="fil387" d="m2294 2078h-8c-101-5-179-99-174-209 5-107 87-191 185-191h8c77 4 141 59 164 134 0 1-1 2-1 3-23-75-86-131-163-134h-8c-97 0-178 83-183 189-5 109 72 202 172 207h8c78 0 145-54 172-130 0 1 1 2 1 2-27 76-95 130-173 130z"/><path class="fil387" d="m2294 2075h-8c-100-5-177-97-172-207 5-106 86-189 183-189h8c77 4 140 59 163 134 0 1-1 2-1 3-22-75-85-131-162-135h-8c-96 0-176 82-181 187-5 108 71 199 170 204h8c77 0 145-54 170-130 0 1 1 2 1 2-26 76-94 130-172 130z"/><path class="fil388" d="m2294 2073h-8c-99-5-175-96-170-204 5-105 85-187 181-187h8c77 4 140 60 162 135 0 1-1 2-1 3-21-76-84-132-161-136h-8c-94 0-174 81-179 185-5 107 70 197 168 202h8c77 0 144-54 169-130 0 1 1 2 1 2-26 76-93 130-170 130z"/><path class="fil389" d="m2294 2071h-8c-98-5-173-95-168-202 5-104 84-185 179-185h8c77 4 139 60 161 136 0 1-1 2-1 3-20-76-83-133-159-136h-8c-93 0-172 80-177 183-5 105 69 195 166 200h8c77 0 143-54 167-130 0 1 1 2 1 3-25 76-92 130-169 130z"/><path class="fil389" d="m2294 2069h-8c-97-5-171-94-166-200 5-103 83-183 177-183h8c77 4 139 61 159 136 0 1-1 2-1 3-19-76-82-134-158-137h-8c-92 0-170 79-175 180-5 104 68 193 164 197h8c77 0 143-54 166-131 0 1 1 2 1 3-24 76-91 130-167 130z"/><path class="fil390" d="m2294 2066h-8c-96-5-169-93-164-197 5-101 82-180 175-180h8c77 4 139 61 158 137 0 1-1 2-1 3-18-77-80-135-157-138h-8c-91 0-168 78-173 178-5 103 67 190 162 195h8c76 0 142-55 165-131 0 1 1 2 1 3-23 76-90 131-166 131z"/><path class="fil391" d="m2294 2064h-8c-95-5-167-92-162-195 5-100 81-178 173-178h8c77 4 139 62 157 138 0 1-1 2-1 3-17-77-79-136-156-140h-8c-90 0-166 77-170 176-5 102 67 188 160 193h8c76 0 142-55 163-132 0 1 1 2 1 3-22 77-88 131-165 131z"/><path class="fil391" d="m2294 2062h-8c-93-5-165-91-160-193 5-99 80-176 170-176h8c77 4 139 62 156 140 0 1-1 2-1 4-16-78-78-137-154-141h-8c-89 0-164 76-168 174-5 101 66 186 158 190h8c76 0 142-56 162-133 0 1 1 2 1 3-21 77-87 132-163 132z"/><path class="fil392" d="m2294 2060h-8c-92-5-163-90-158-190 5-98 79-174 168-174h8c77 4 139 63 154 141v1c0 1-1 2-1 3-15-78-76-139-153-143h-8c-88 0-162 75-166 172-5 99 65 183 156 188h8c76 0 142-56 161-134 0 1 1 2 1 3-20 77-86 133-162 133z"/><path class="fil393" d="m2294 2057h-8c-91-5-161-89-156-188 5-97 78-172 166-172h8c77 4 139 64 153 143l-3 9c-8 26-7 51 1 74-19 78-85 134-161 134z"/><path class="fil328" d="m3151 2279c-30-3-58-10-85-19 0-1 1-1 1-2 27 10 55 16 85 19 0 1-1 1-1 2zm-222-109c-51-53-86-122-96-198 1-1 1-2 2-3 10 77 45 147 97 201h-3zm612-314c-14-77-53-145-108-197 0-1-1-3-1-4 56 51 96 120 111 197-1 1-1 2-2 4zm-681-75c0-1 0-3-1-4 32-73 87-132 155-170-1 1-2 3-3 4-67 38-120 98-151 170z"/><path class="fil328" d="m3152 2277c-29-3-58-10-85-19 0-1 1-1 1-2 27 10 55 16 84 19 0 1-1 1-1 2zm-220-107c-52-54-87-124-97-201 1-1 1-2 2-3 10 78 45 149 98 203h-3zm607-310c-13-76-51-145-105-196 0-1-1-3-1-4 55 51 94 120 108 197-1 1-1 2-2 4zm-679-75c0-1 0-3-1-4 31-72 84-131 151-170-1 1-2 3-3 4-65 39-117 98-147 169z"/><path class="fil347" d="m3152 2275c-29-3-58-9-84-19 0-1 1-1 1-2 27 10 55 16 84 19 0 1 0 1-1 2zm-218-105c-53-54-88-125-98-203 1-1 1-2 2-3 9 80 46 151 99 206h-3zm603-306c-12-76-49-144-102-196 0-1-1-3-1-4 54 52 92 120 105 196-1 1-1 2-2 4zm-676-74c0-1 0-3-1-4 30-71 82-131 147-169-1 1-2 3-3 4-64 39-115 98-143 169z"/><path class="fil347" d="m3153 2273c-29-3-57-9-84-19 0-1 1-1 1-2 26 9 54 16 84 19 0 1 0 1-1 2zm-216-103c-54-55-90-127-99-206 1-1 1-2 2-3 9 81 45 154 100 209h-3zm598-302c-12-76-48-144-100-195 0-1-1-3-1-4 53 52 90 120 102 196-1 1-1 2-2 4zm-674-74c0-1 0-3-1-4 29-71 79-130 143-169-1 1-2 3-3 4-63 40-112 99-140 169z"/><path class="fil348" d="m3154 2271c-29-3-57-9-84-19 0-1 1-1 1-2 26 9 54 16 83 19 0 1 0 1-1 2zm-214-101c-55-55-92-128-100-209 0-1 1-1 1-2s1-1 1-2c8 82 45 156 101 212h-3zm593-298c-11-75-46-143-97-195 0-1-1-3-1-4 52 52 88 120 100 195-1 1-1 2-2 4zm-671-73c0-2 0-3-1-5 27-71 77-130 140-169-1 1-2 3-3 4-62 40-110 99-136 169z"/><path class="fil349" d="m3155 2268c-29-3-57-9-83-19 0-1 1-1 1-2 26 9 54 16 83 18 0 1 0 1-1 2zm-211-99c-56-56-93-130-101-212 1-1 1-2 2-4 8 84 45 159 102 215h-3zm589-294c-10-75-44-143-95-195 0-1 0-3-1-4 51 52 86 120 97 195-1 1-1 2-2 4zm-669-72c0-2 0-3-1-5 26-70 75-129 136-169-1 1-2 3-3 4-60 41-108 100-133 170z"/><path class="fil349" d="m3155 2266c-29-3-57-9-83-18 0-1 1-1 1-2 26 9 54 16 83 18 0 1 0 1-1 2zm-209-97c-57-56-95-132-102-215 1-1 1-3 2-4 7 85 45 162 104 219h-3zm584-290c-9-75-43-142-92-195 0-1 0-3-1-4 51 52 85 120 95 195-1 1-1 2-2 4zm-667-71c0-2 0-3-1-5 25-70 73-129 133-170-1 1-2 3-2 4-59 41-106 100-130 170z"/><path class="fil350" d="m3156 2264c-29-3-56-9-83-18 0-1 1-1 1-2 26 9 54 15 82 18 0 1 0 1-1 2zm-207-96c-58-57-97-134-104-219 1-1 1-3 2-4 6 87 45 165 105 223h-3zm579-286c-8-74-41-142-90-194 0-1 0-3-1-4 50 52 83 120 92 195-1 1-1 2-2 4zm-664-69c0-2 0-3-1-5 24-70 71-129 130-170-1 1-2 3-2 4-59 42-104 101-127 171z"/><path class="fil351" d="m3157 2262c-29-3-56-9-82-18 0-1 1-1 1-2 26 9 53 15 82 18 0 1 0 1-1 2zm-205-94c-60-57-98-136-105-223 1-1 1-3 2-4 5 89 44 169 106 227h-3zm574-282c-8-74-39-142-87-194 0-1 0-3-1-4 49 52 81 120 90 194-1 1-1 2-2 4zm-662-67c0-2 0-4-1-6 23-70 68-130 127-171-1 1-2 3-2 4-58 42-102 102-124 172z"/><path class="fil352" d="m3157 2260c-29-3-56-9-82-18 0-1 1-1 1-2 26 9 53 15 82 18 0 1 0 1-1 2zm-202-92c-61-58-100-138-106-227 1-2 1-3 2-5 4 91 44 173 106 231h-3zm570-278c-7-74-38-141-85-194v-4c48 53 80 120 87 194-1 1-1 2-2 4zm-659-65c0-2 0-4-1-6 22-70 66-130 124-172-1 1-1 3-2 4-57 43-101 103-122 174z"/><path class="fil353" d="m3158 2257c-28-3-56-9-82-18 0-1 1-1 1-2 26 9 53 15 81 18 0 1 0 1-1 2zm-200-90c-63-59-103-141-106-231 1-2 1-4 2-5 3 93 43 177 107 237h-3zm565-274c-6-74-36-141-83-194v-4c47 53 78 120 85 194-1 1-1 2-2 4zm-657-62v-7c21-71 64-131 122-174-1 1-1 3-2 4-57 44-100 105-119 176z"/><path class="fil353" d="m3158 2255c-28-3-56-9-81-18 0-1 1-1 1-2 26 9 53 15 81 18 0 1 0 1-1 2zm-198-88c-64-60-105-144-107-237 1-2 1-4 2-6 1 95 42 182 108 243h-3zm560-270c-5-74-35-141-80-194v-4c47 53 77 120 83 194-1 1-1 2-2 4zm-655-58v-7c20-71 62-133 119-176-1 1-1 3-2 4-57 44-99 107-117 179z"/><path class="fil354" d="m3159 2253c-28-3-55-8-81-18 0-1 1-1 1-2 26 9 53 15 81 17 0 1 0 1-1 2zm-195-86c-66-61-107-147-108-243 1-3 2-5 2-8-1 98 41 188 109 250h-3zm555-266c-4-73-33-141-78-194v-4c46 53 75 120 80 194-1 1-1 2-2 4zm-652-53v-9c18-72 60-135 117-179-1 1-1 3-2 4-57 46-98 110-115 184z"/><path class="fil355" d="m3160 2251c-28-2-55-8-81-17 0-1 1-1 1-2 26 9 53 15 81 17 0 1 0 1-1 2zm-193-84c-68-62-110-151-109-250 1-3 2-7 3-10-5 103 38 196 109 260h-3zm550-262c-4-73-31-140-76-193v-4c45 53 74 120 78 194-1 1-1 2-2 4zm-651-46v-11c17-74 58-138 115-184-1 2-1 3-2 4-58 47-99 114-114 191z"/><path class="fil355" d="m3160 2249c-28-2-55-8-81-17 0-1 1-1 1-2 25 9 52 15 80 17 0 1 0 1-1 2zm-190-82c-71-64-114-157-109-260 3-15 5-31 6-48 15-77 56-144 114-191-1 2-1 3-2 4-67 56-111 139-115 233-5 103 38 197 110 261h-3zm545-258c-3-73-30-140-74-194v-4c44 53 72 120 76 193-1 1-1 2-2 4z"/><path class="fil356" d="m3161 2246c-28-2-55-8-80-17 0-1 1-1 1-2 25 9 52 15 80 17 0 1 0 1-1 2zm-188-80c-72-63-115-158-110-261 5-94 49-177 115-233-1 2-1 3-1 4-65 56-107 137-112 229-5 103 39 197 111 260h-3zm540-254c-2-73-28-140-72-194v-4c44 53 71 121 74 194-1 1-1 2-2 4zm-72-194v-2 1z"/><path class="fil356" d="m3161 2244c-28-2-55-8-80-17 0-1 1-1 1-2 25 9 52 15 80 17 0 1 0 1-1 2zm-185-79c-72-63-116-157-111-260 5-92 47-173 112-229-1 2-1 3-1 4-63 55-104 135-108 225-5 103 39 197 112 260h-3zm534-250c-1-74-27-142-71-196 0-1 0-2 1-3v2c43 54 70 121 72 194-1 1-1 2-2 4z"/><path class="fil357" d="m3162 2242c-28-2-55-8-80-17 0-1 1-1 1-2 25 9 52 15 80 17v2zm-183-77c-73-63-117-157-112-260 4-90 46-170 108-225 0 0 0 1 1 2-62 55-102 134-107 223-5 103 39 197 112 259h-3zm529-246c0-74-26-142-69-197 0-1 1-2 1-3 43 54 70 122 71 196-1 1-1 2-2 4z"/><path class="fil358" d="m3162 2240c-28-2-54-8-80-17 0-1 0-1 1-2 25 9 52 15 79 17v2zm-180-75c-73-62-117-156-112-259 4-89 45-168 107-223 0 1 0 1 1 2-61 55-101 132-105 221-5 103 40 197 113 259h-3zm524-242c0-74-25-143-68-198 0-1 1-2 1-3 43 54 69 123 69 197-1 1-2 2-2 4z"/><path class="fil359" d="m3163 2237c-28-2-54-8-79-17 0-1 0-1 1-2 25 9 51 15 79 17v2zm-178-73c-73-62-118-156-113-259 4-88 44-166 105-221 0 1 0 1 1 2-60 54-99 131-104 218-5 103 40 197 114 258h-3zm519-238c1-75-24-144-67-199 0-1 1-2 1-2 43 55 68 124 68 198-1 1-2 2-2 4z"/><path class="fil360" d="m3163 2235c-28-2-54-8-79-17 0-1 0-1 1-2 25 9 51 14 79 17v2zm-175-71c-74-61-119-155-114-258 4-87 44-164 104-218 0 1 1 1 1 2-59 54-98 130-102 216-5 103 40 197 115 258h-3zm513-234c2-75-22-145-65-200 0-1 1-2 1-2 43 55 68 124 67 199-1 1-2 2-2 4z"/><path class="fil360" d="m3164 2233c-27-2-54-8-79-17 0-1 0-1 1-2 25 9 51 14 79 17v2zm-173-69c-74-61-120-155-115-258 4-86 43-162 102-216 0 1 1 1 1 2-58 53-97 129-101 214-5 103 41 197 115 257h-3zm508-230c3-76-21-146-64-202 0-1 1-2 1-2 43 55 67 125 65 200-1 1-2 2-2 4z"/><path class="fil360" d="m3164 2231c-27-2-54-8-79-17 0-1 0-1 1-2 25 9 51 14 78 17v2zm-170-68c-75-60-120-154-115-257 4-85 42-161 101-214 0 1 1 1 1 2-58 53-95 128-100 212-5 103 41 197 116 256h-3zm502-225v-1c4-76-20-146-63-202 0-1 1-2 1-2 43 56 67 126 64 202-1 1-2 2-2 4z"/><path class="fil361" d="m3164 2229c-27-2-54-8-78-17 0-1 0-1 1-2 25 9 51 14 78 16v2zm-168-66c-75-60-121-153-116-256 4-84 42-159 100-212 0 1 1 1 1 2-57 52-94 126-98 210-5 103 41 197 117 256h-3zm497-221v-5c4-75-20-144-61-199 0-1 1-2 1-2 43 56 66 126 63 202v1c-1 1-2 2-2 4z"/><path class="fil361" d="m3165 2226c-27-2-53-8-78-16 0-1 0-1 1-2 25 9 51 14 78 16v2zm-165-64c-75-59-122-153-117-256 4-83 41-157 98-210 0 1 1 1 1 2-56 52-93 125-97 208-5 103 42 197 118 255-1 0-2 0-3 1zm491-217c0-3 0-6 1-9 4-74-19-143-60-197 0-1 1-1 1-2 42 55 65 125 61 199v5c-1 1-2 2-3 4z"/><path class="fil362" d="m3165 2224c-27-2-53-8-78-16 0-1 0-1 1-2 25 9 51 14 78 16v2zm-162-62c-76-59-123-152-118-255 4-83 41-156 97-208 0 1 1 1 1 2-56 52-92 124-96 206-5 103 42 196 118 255-1 0-2 0-3 1zm486-213c0-4 1-8 1-12 4-73-19-141-59-195 0-1 1-1 1-2 41 55 64 124 60 197 0 3 0 6-1 9-1 1-2 2-3 4z"/><path class="fil363" d="m3166 2222c-27-2-53-8-78-16 0-1 0-1 1-2 24 9 50 14 77 16v2zm-160-61c-76-58-123-152-118-255 4-82 40-154 96-206 0 1 1 1 1 2-55 51-91 123-95 204-5 103 43 196 119 254-1 0-2 0-3 1zm480-209c1-5 1-11 1-16 4-72-19-139-58-193 0-1 1-1 1-2 40 54 63 122 59 195 0 4-1 8-1 12-1 1-2 2-3 4z"/><path class="fil363" d="m3166 2220c-27-2-53-8-77-16 0-1 0-1 1-2 24 9 50 14 77 16v2zm-157-59c-77-58-124-151-119-254 4-81 40-153 95-204 0 1 1 1 1 2-54 51-89 122-93 202-5 103 43 196 120 253h-3zm475-205c1-7 1-13 2-20 4-71-18-138-57-191 0-1 1-1 1-2 40 54 62 121 58 193 0 5-1 11-1 16-1 1-2 2-3 4z"/><path class="fil364" d="m3166 2217c-27-2-53-8-77-16 0-1 0-1 1-2 24 9 50 14 77 16v2zm-154-57c-77-57-125-150-120-253 4-80 39-151 93-202 0 1 1 1 1 2-54 50-88 121-92 200-5 103 43 196 121 253-1 0-2 0-3 1zm469-201c1-8 2-16 2-24 3-70-18-136-57-189 0-1 1-1 1-2 39 53 61 120 57 191 0 7-1 13-2 20-1 1-2 2-3 4z"/><path class="fil364" d="m3167 2215c-27-2-53-8-77-16 0-1 0-1 1-2 24 9 50 14 77 16v2zm-152-56c-77-57-126-150-121-253 4-79 39-150 92-200 0 1 1 1 1 2-53 50-87 120-91 198-5 103 44 196 121 252-1 0-2 0-3 1zm463-196 3-27c3-69-18-135-56-187 0-1 1-1 1-2 39 53 60 118 57 189 0 8-1 16-2 24-1 1-2 2-3 4z"/><path class="fil365" d="m3167 2213c-27-2-53-8-77-16v-2c24 9 50 14 77 16v2zm-149-54c-78-56-127-149-121-252 4-78 38-148 91-198 0 1 1 1 1 2-52 50-86 119-90 196-5 103 44 196 122 251-1 0-2 0-3 1zm457-192c2-10 3-21 3-31 3-69-17-133-55-185 1-1 1-1 1-2 38 52 59 117 56 187 0 9-1 18-3 27-1 1-2 2-3 4z"/><path class="fil366" d="m3167 2211c-27-2-53-8-77-16v-2c24 9 50 14 77 16v2zm-146-52c-78-55-127-148-122-251 4-78 38-147 90-196 0 1 1 1 1 2-52 49-85 118-89 194-5 103 44 196 123 250-1 0-2 0-3 1zm451-188c2-11 3-23 4-35 3-68-17-132-54-183 1-1 1-1 1-2 38 52 58 116 55 185-1 11-2 21-3 31-1 1-2 2-3 4z"/><path class="fil367" d="m3168 2209c-27-2-52-8-77-16v-2c24 9 50 14 76 16v2zm-144-51c-79-55-128-148-123-250 4-77 37-145 89-194 0 1 1 1 1 2-51 49-84 116-88 193-5 103 45 195 124 250-1 0-2 0-3 1zm445-184c2-13 4-25 5-39 3-67-17-130-53-181l2-2c37 51 58 115 54 183-1 12-2 23-4 35-1 1-2 2-3 4z"/><path class="fil368" d="m3168 2206c-27-2-52-7-76-16v-2c24 9 50 14 76 16v2zm-141-49c-79-54-129-147-124-250 4-76 37-144 88-193 0 1 1 1 1 2-51 48-83 115-87 191-5 103 45 195 124 249-1 0-2 0-3 1zm439-179c3-14 5-28 5-42 3-67-17-129-53-179l2-2c37 51 57 114 53 181-1 13-2 26-5 39-1 1-2 2-3 4z"/><path class="fil368" d="m3168 2204c-27-2-52-7-76-16v-2c24 9 49 14 76 16v2zm-138-48c-79-54-129-146-124-249 4-75 37-142 87-191 0 1 1 1 1 2-50 48-82 114-86 189-5 103 46 195 125 248-1 0-2 0-3 1zm433-175c3-15 5-30 6-46 3-66-16-127-52-177l2-2c36 50 56 113 53 179-1 14-2 29-5 42-1 1-2 2-3 4z"/><path class="fil368" d="m3168 2202c-27-2-52-7-76-16v-2c24 9 49 14 76 16v2zm-135-46c-80-53-130-145-125-248 4-75 36-141 86-189 0 1 1 1 1 2-49 48-82 113-85 187-5 102 46 195 126 247-1 0-2 1-3 1zm427-171c4-16 6-33 7-50 3-65-16-126-51-175l2-2c36 50 55 111 52 177-1 16-3 31-6 46-1 1-2 2-3 4z"/><path class="fil369" d="m3169 2200c-27-2-52-7-76-16v-2c24 9 49 14 76 16v2zm-133-45c-80-52-131-145-126-247 4-74 36-140 85-187 0 1 1 1 1 2-49 47-81 112-84 186-5 102 46 194 127 246-1 0-2 1-3 1zm421-167c4-17 7-35 8-53 3-64-16-125-51-174l2-2c35 49 55 110 51 175-1 17-3 34-7 50-1 1-2 2-3 4z"/><path class="fil369" d="m3169 2197c-26-2-52-7-76-16v-2c24 9 49 14 76 16v2zm-130-43c-80-52-132-144-127-246 4-73 35-138 84-186 0 1 1 1 1 2-48 47-80 111-83 184-5 102 47 194 127 245-1 0-2 1-3 1zm415-162c5-18 8-37 9-57 3-64-16-124-50-172l2-2c35 49 54 109 51 174-1 18-4 36-8 53-1 1-2 2-3 4z"/><path class="fil369" d="m3169 2195c-26-2-52-7-76-16v-2c24 9 49 14 75 16v2zm-127-42c-81-51-132-143-127-245 4-73 35-137 83-184 0 1 1 1 1 2-48 46-79 110-83 182-5 102 47 194 128 244-1 0-2 1-3 1zm409-158c5-19 9-40 10-61 3-63-16-122-50-170l2-2c34 48 53 108 50 172-1 20-4 39-9 57-1 1-2 2-3 4z"/><path class="fil370" d="m3169 2193c-26-2-52-7-75-16v-2c24 9 49 14 75 16v2zm-125-40c-81-51-133-142-128-244 4-72 35-136 83-182 0 1 1 1 1 2-47 46-78 109-82 180-5 102 47 194 129 243-1 0-2 1-3 1zm403-154c6-20 10-42 11-64 3-63-15-121-49-169l2-2c34 48 53 107 50 170-1 21-4 41-10 61-1 1-2 2-3 4z"/><path class="fil371" d="m3169 2191c-26-2-52-7-75-16v-2c24 9 49 15 75 16v2zm-122-39c-81-50-134-141-129-243 4-71 34-135 82-180 0 1 1 1 1 2-47 46-77 108-81 179-5 102 48 193 129 242-1 0-2 1-3 1zm396-149c7-22 11-44 12-68 3-62-15-120-48-167 1 0 1-1 2-1 34 48 52 106 49 169-1 22-5 44-11 64-1 1-2 2-3 4z"/><path class="fil371" d="m3169 2188c-26-2-52-8-75-16v-2c24 9 49 15 75 16v2zm-119-38c-82-49-134-141-129-242 3-71 34-133 81-179 0 1 1 1 1 2-46 45-77 107-80 177-5 102 48 193 130 241-1 0-2 1-3 1zm390-145c8-23 12-47 13-72 3-61-15-119-48-166 1 0 1-1 2-1 33 47 52 105 48 167-1 24-5 46-12 68l-4 4z"/><path class="fil372" d="m3170 2186c-26-2-51-8-75-16v-2c23 9 49 15 75 16v2zm-116-36c-82-49-135-140-130-241 3-70 34-132 80-177 0 1 1 1 1 2-46 45-76 106-79 176-5 101 48 192 130 240-1 0-2 1-3 1zm384-140c8-24 13-49 15-75 3-61-15-118-47-164 1 0 1-1 2-1 33 47 51 104 48 166-1 25-6 49-13 72l-4 4z"/><path class="fil372" d="m3170 2184c-26-2-51-8-75-16v-2c23 9 49 15 75 17v2zm-114-35c-82-48-135-139-130-240 3-69 33-131 79-176l2 2c-46 44-75 105-79 174-5 101 48 192 131 239-1 0-2 1-3 1zm377-136c9-25 15-51 16-79 3-60-15-117-47-163 1 0 1-1 2-1 33 46 50 103 47 164-1 26-6 52-15 75l-4 4z"/><path class="fil372" d="m3170 2182c-26-2-51-8-75-17v-2c23 9 48 15 75 17v2zm-111-34c-82-47-136-138-131-239 3-69 33-130 79-174 0 1 1 1 2 2-45 44-74 105-78 172-5 101 49 191 131 238-1 0-2 1-3 1zm371-131c10-26 16-53 18-82 3-60-15-116-47-161 1 0 1-1 2-1 32 46 50 102 47 163-1 28-7 54-16 79-1 1-3 2-4 3z"/><path class="fil373" d="m3170 2179c-26-2-51-8-75-17v-2c23 9 48 15 75 17v2zm-109-33c-82-47-136-137-131-238 3-68 33-128 78-172l2 2c-45 44-74 104-77 171-5 101 49 191 132 237-1 0-2 1-3 1zm364-127c11-27 18-56 19-86 3-59-15-115-46-160 1 0 1-1 2-1 32 45 50 102 47 161-1 29-8 57-18 82-1 1-3 2-4 4z"/><path class="fil374" d="m3170 2177c-26-2-51-8-75-17v-2c23 9 48 15 74 17v2zm-106-32c-83-46-137-136-132-237 3-67 32-127 77-171l2 2c-44 43-73 103-76 169-5 101 49 190 132 236-1 0-2 1-3 1zm357-122c12-28 19-58 21-90 3-59-14-114-46-158 1 0 1-1 2-1 32 45 49 101 46 160-2 30-8 59-19 86-1 1-3 2-4 3z"/><path class="fil374" d="m3170 2175c-26-2-51-8-74-17v-2c23 9 48 15 74 17v2zm-103-30c-83-45-137-135-132-236 3-67 32-126 76-169l2 2c-44 43-72 102-76 168-5 100 49 190 132 234-1 0-2 1-3 1zm351-118c13-28 21-60 23-93 3-58-14-113-45-157 1 0 1-1 2-1 31 45 49 100 46 158-2 32-9 62-21 90-1 1-3 2-4 3z"/><path class="fil375" d="m3170 2173c-26-2-51-8-74-17v-2c23 9 48 15 74 17v2zm-101-29c-83-45-137-134-132-234 3-66 32-125 76-168l2 2c-44 42-72 101-75 166-5 100 50 189 133 233-1 0-2 1-2 1zm344-113c14-29 23-62 25-97 3-58-14-112-45-156 1 0 1-1 2-1 31 44 48 99 45 157-2 33-10 65-23 93-1 1-3 2-4 3z"/><path class="fil375" d="m3170 2170c-26-2-51-8-74-17v-2c23 9 48 15 74 17v2zm-98-28c-83-44-137-133-133-233 3-66 31-124 75-166l2 2c-43 42-71 100-74 165-5 100 50 188 133 232-1 0-2 1-2 1zm337-108c15-30 25-64 27-100 3-57-14-111-45-154 1 0 1-1 2-1 31 44 48 98 45 156-2 35-10 67-25 97-1 1-3 2-4 3z"/><path class="fil376" d="m3170 2168c-26-2-51-8-74-17v-2c23 9 48 15 74 17v2zm-96-27c-83-43-138-132-133-232 3-65 31-123 74-165l2 2c-43 42-71 99-74 164-5 99 50 188 133 230-1 0-2 1-2 1zm331-104c17-31 27-66 29-104 3-57-14-110-44-153 1 0 1-1 2-1 31 44 48 97 45 154-2 36-11 70-27 100-1 1-3 2-4 3z"/><path class="fil376" d="m3170 2166c-26-2-51-8-74-17v-2c23 9 48 16 74 18v2zm-94-26c-83-43-138-131-133-230 3-64 31-122 74-164l2 2c-42 41-70 98-73 162-5 99 50 187 133 229-1 0-1 1-2 1zm324-99c18-32 29-68 31-107 3-56-14-109-44-152 1 0 1-1 2-1 30 43 47 96 44 153-2 38-12 73-29 104-2 1-3 2-4 3z"/><path class="fil376" d="m3170 2164c-26-2-51-8-74-18v-2c23 10 48 16 74 18v2zm-91-25c-83-42-138-130-133-229 3-64 31-121 73-162l2 2c-42 41-69 97-73 161-5 98 50 186 133 227-1 0-1 1-2 1zm317-94c19-33 31-70 33-111 3-56-14-108-44-151 1 0 1-1 2-1 30 43 47 96 44 152-2 39-13 76-31 107-2 1-3 2-5 3z"/><path class="fil377" d="m3170 2161c-26-2-51-8-74-18v-2c23 10 48 16 74 18v2zm-89-25c-83-41-138-129-133-227 3-63 30-120 73-161 1 1 1 1 2 1-42 41-69 97-72 159-5 98 50 185 133 226-1 0-1 1-2 1zm310-89c21-33 34-72 36-115 3-56-14-108-44-150 1 0 1-1 2-1 30 42 47 95 44 151-2 41-14 78-33 111-2 1-3 2-5 3z"/><path class="fil377" d="m3170 2159c-26-2-51-8-74-18v-2c23 10 48 16 74 18v2zm-87-24c-83-41-137-128-133-226 3-63 30-119 72-159 1 1 1 1 2 1-42 40-68 96-72 158-5 97 50 184 132 224l-2 2zm303-84c22-34 36-74 38-118 3-55-14-107-43-148 1 0 1-1 2-1 30 42 46 94 44 150-2 42-15 81-36 115-2 1-3 2-5 3z"/><path class="fil378" d="m3170 2157c-26-2-51-8-74-18v-2c23 10 48 16 74 18v2zm-85-23c-82-40-137-127-132-224 3-62 30-118 72-158 1 0 1 1 2 1-41 40-68 95-71 157-5 97 50 183 132 222l-2 2zm296-79c24-35 39-76 41-122 3-55-14-106-43-147 1 0 1-1 2-1 30 42 46 93 43 148-2 44-16 84-38 118-2 1-3 2-5 3z"/><path class="fil378" d="m3170 2155c-26-2-51-8-74-18v-2c23 10 48 16 74 18v2zm-83-23c-82-40-137-126-132-222 3-62 30-117 71-157 1 0 1 1 2 1-41 39-67 94-71 155-5 96 50 181 131 220l-2 2zm289-74c26-35 42-78 44-125 3-54-14-105-43-146 1 0 1-1 2-1 30 41 46 93 43 147-2 45-17 87-41 122-2 1-3 2-5 3z"/><path class="fil379" d="m3170 2152c-26-2-51-9-74-18v-3c23 10 48 17 74 19v2zm-81-22c-82-39-136-124-131-220 3-61 30-116 71-155 1 0 1 1 2 1-41 39-67 93-70 154-5 95 50 180 131 219 0 1-1 1-2 2zm282-69c28-36 45-80 47-129 3-54-14-104-43-145 1 0 1-1 2-1 29 41 46 92 43 146-2 47-18 90-44 125-2 1-4 2-5 3z"/><path class="fil380" d="m3170 2150c-26-2-51-9-74-19v-3c23 10 48 17 74 19v2zm-80-21c-81-39-135-123-131-219 3-61 29-115 70-154 1 0 1 1 2 1-40 39-67 92-70 153-5 95 49 179 130 217 0 1-1 1-1 2zm275-64c30-36 48-82 51-132 3-54-13-104-43-144 1 0 1-1 2-1 29 41 45 91 43 145-2 49-20 93-47 129l-6 3z"/><path class="fil380" d="m3170 2148c-26-2-51-9-74-19v-3c23 10 48 17 74 19v2zm-78-21c-81-38-134-122-130-217 3-60 29-114 70-153 1 0 1 1 2 1-40 38-66 92-69 151-5 94 49 177 129 215 0 1-1 1-1 2zm267-59c32-37 52-84 54-136 3-53-13-103-42-143 1 0 1-1 2-1 29 40 45 90 43 144-2 50-21 96-51 132l-6 3z"/><path class="fil380" d="m3170 2146c-26-2-51-9-74-19v-3c23 11 48 17 74 20v2zm-77-21c-80-38-133-121-129-215 3-60 29-113 69-151 1 0 1 1 2 1-40 38-66 91-69 150-5 93 48 175 128 212 0 1-1 1-1 2zm260-53c34-37 56-86 58-140 3-53-13-102-42-142 1 0 1-1 2-1 29 40 45 90 42 143-3 52-23 99-54 136l-6 3z"/><path class="fil381" d="m3169 2143c-26-2-51-9-74-20v-3c23 11 48 18 74 20v2zm-76-20c-79-37-132-120-128-212 3-59 29-112 69-150 1 0 1 1 2 1-40 38-65 90-68 149-5 92 48 173 126 210 0 1 0 1-1 2zm253-48c36-37 60-87 62-143 3-52-13-102-42-141 1 0 1-1 2-1 29 40 45 89 42 142-3 54-24 103-58 140-2 1-4 2-6 4z"/><path class="fil381" d="m3169 2141c-26-2-51-9-74-20v-3c23 11 48 18 74 20v2zm-75-20c-78-37-131-118-126-210 3-59 29-111 68-149 1 0 1 1 2 1-39 37-65 89-68 148-4 91 47 171 124 208v2zm245-42c39-37 64-89 67-147 3-52-13-101-42-140 1 0 1-1 2-1 29 39 45 88 42 141-3 56-26 106-62 143-2 1-5 2-7 4z"/><path class="fil382" d="m3169 2139c-26-2-52-9-74-20v-1 1c-77-37-129-117-124-208 3-58 29-110 68-148 1 0 1 1 2 1-39 37-65 88-68 147-6 116 81 215 196 226v2zm163-56c42-37 69-90 72-150 3-52-13-100-42-139 1 0 1-1 2-1 29 39 45 88 42 140-3 58-28 110-67 147-2 1-5 2-7 4z"/><path class="fil382" d="m3169 2136c-115-10-202-110-196-226 3-58 28-110 68-147 1 0 1 1 2 1-39 37-64 88-67 145-6 115 80 213 194 223v2zm156-50c45-37 74-92 77-154 3-52-13-100-42-138 1 0 1-1 2-1 29 39 45 87 42 139-3 60-30 113-72 150-3 1-5 2-8 4z"/><path class="fil382" d="m3169 2134c-113-10-199-109-194-223 3-58 28-109 67-145 1 0 1 1 2 1-39 36-64 87-67 144-6 113 79 210 191 221v2zm148-44c48-36 80-93 83-158 3-51-13-99-42-137 1 0 1-1 2-1 29 38 44 87 42 138-3 62-33 117-77 154-3 1-6 3-8 4z"/><path class="fil383" d="m3168 2132c-112-11-197-108-191-221 3-57 28-108 67-144 1 0 1 1 2 1-39 36-64 86-67 143-6 112 78 208 189 219v2zm139-38c52-36 87-94 90-162 3-51-13-98-42-136 1 0 1-1 2-1 29 38 44 86 42 137-3 65-35 122-83 158-3 1-6 3-9 4z"/><path class="fil384" d="m3168 2130c-110-11-194-106-189-219 3-57 28-107 67-143 1 0 1 1 2 1-38 35-64 86-66 142-5 111 77 205 186 216v2zm129-32c56-35 95-95 98-166 2-51-13-98-42-135 1 0 2-1 2-1 28 38 44 85 42 136-3 68-38 126-90 162-3 1-7 3-10 4z"/><path class="fil384" d="m3168 2127c-109-11-192-105-186-216 3-56 28-106 66-142 1 0 1 1 2 1-38 35-63 85-66 141-5 109 76 203 184 214v2zm117-25c61-33 104-96 108-170 2-50-13-97-42-134 1 0 2-1 2-1 28 37 44 85 42 135-4 71-42 132-98 166-4 2-8 3-12 4z"/><path class="fil385" d="m3168 2125c-108-11-189-104-184-214 3-56 28-106 66-141 1 0 1 1 2 1-38 35-63 84-66 140-5 109 76 201 183 212h-2v2zm103-18c68-30 117-96 121-175 2-50-13-97-42-134 1 0 2 0 2-1 28 37 44 84 42 134-4 74-47 138-108 170-5 2-10 3-15 5z"/><path class="fil386" d="m3170 2123h-1c-107-10-188-103-183-212 3-56 28-105 66-140 1 0 1 1 2 1-38 34-63 83-66 139-5 110 80 204 190 210h18c-13 1-22 2-27 2zm77-10c78-24 137-95 141-182 2-50-14-96-42-133 1 0 2 0 2-1 28 37 44 84 42 134-4 79-53 145-121 175-8 2-16 4-23 6z"/><path class="fil387" d="m3189 2122h-10c-110-5-196-99-190-210 3-55 28-104 66-139 1 0 1 1 2 1-38 34-63 83-65 138-5 109 79 202 188 207h10c105 0 192-82 198-188 2-50-14-96-42-132 1 0 2 0 2-1 28 37 44 83 42 133-4 87-63 157-141 182-20 5-37 7-51 9h-8z"/><path class="fil387" d="m3189 2119h-10c-109-5-193-98-188-207 3-55 28-103 65-138 1 0 1 1 2 1-38 34-63 82-65 136-5 108 78 200 186 205h10c104 0 190-81 195-186 2-49-14-95-42-131 1 0 2 0 2-1 28 36 44 82 42 132-5 106-93 188-198 188z"/><path class="fil388" d="m3189 2117h-10c-108-5-191-97-186-205 3-55 27-103 65-136 1 0 1 1 2 1-38 33-62 81-65 135-5 107 77 197 184 203h10c102 0 188-80 193-184 2-49-14-95-42-130 1 0 2 0 2-1 28 36 45 82 42 131-5 105-92 186-195 186z"/><path class="fil389" d="m3189 2115h-10c-107-5-189-96-184-203 3-54 27-102 65-135 1 0 1 1 2 1-38 33-62 81-65 134-5 105 76 195 182 200h10c101 0 186-80 191-182 2-49-14-94-42-130 1 0 2 0 2-1 29 36 45 81 42 130-5 103-91 184-193 184z"/><path class="fil389" d="m3189 2113h-10c-105-5-187-95-182-200 3-54 27-101 65-134 1 0 1 1 2 1-38 33-62 80-65 133-5 104 75 193 179 198h9c100 0 184-79 189-180 2-49-14-94-43-129 1 0 2 0 2-1 29 35 45 81 42 130-5 102-90 182-191 182z"/><path class="fil390" d="m3189 2110h-9c-104-5-185-94-179-198 3-54 27-101 65-133 1 0 1 1 2 1-38 32-62 79-65 132-5 103 74 191 177 196h9c99 0 181-78 186-178 2-49-14-94-43-128 1 0 2 0 2-1 29 35 45 80 43 129-5 101-88 180-189 180z"/><path class="fil391" d="m3189 2108h-9c-103-5-182-93-177-196 3-53 27-100 65-132 1 0 1 1 2 1-37 32-62 79-65 131-5 102 73 188 175 193h9c98 0 179-77 184-175 2-48-14-93-43-128 1 0 2 0 2-1 29 35 45 80 43 128-5 100-87 178-186 178z"/><path class="fil391" d="m3189 2106h-9c-102-5-180-92-175-193 3-53 27-100 65-131 1 0 1 1 2 1-37 31-62 78-65 131-5 101 73 186 173 191h9c97 0 177-76 182-173 2-48-14-93-43-127 1 0 2 0 2-1 29 34 45 79 43 128-5 99-86 175-184 175z"/><path class="fil392" d="m3189 2104h-9c-101-5-178-90-173-191 3-53 27-99 65-131 1 0 2 1 2 1-37 31-62 77-65 130-5 99 72 184 171 189h9c95 0 175-75 180-171 2-48-14-93-43-126 1 0 2 0 2-1 29 34 45 79 43 127-5 97-85 173-182 173z"/><path class="fil393" d="m3189 2101h-9c-99-5-176-89-171-189 3-52 27-99 65-130 32 15 74 26 129 29 11 1 22 1 32 1 36 0 65-3 90-8 29 34 46 78 43 126-5 96-84 171-180 171z"/><path class="fil328" d="m3830 1637c-93-37-209 44-260 180-51 137-17 278 76 315s209-44 260-180c51-137 17-278-76-315z"/><path class="fil317" d="m3829 1964c-93 55-190 33-258-27-2 116-35 337-211 556-141 176-433 225-648 209-513-38-642-200-740-416 64 235 234 457 637 499 747 79 964-226 1010-668 8 6 17 11 27 15 93 37 209-44 260-180 13-35 21-71 23-105-18 47-51 88-100 117z"/><path class="fil317" d="m3666 1883 85 15c4-136 106-177 106-177-161-65-192 162-192 162z"/><path class="fil394" d="m3242 1524c-191-22-266 156-266 156s27 121 228 131c232 11 238-100 238-100s-9-166-199-188z"/><path class="fil394" d="m2134 1598s-34 111 169 129 224-45 224-45-181-379-393-84z"/><path class="fil395" d="m2407 1544c-42-16-96 26-121 93-11 31-14 61-10 87 9 1 17 2 27 3 49 4 88 4 118 1 6-11 12-22 17-34 25-67 11-133-31-149z" style="fill:url(#b)"/><path class="fil396" d="m3227 1585c-42-16-96 26-121 93-16 44-15 88-1 118 27 8 59 15 97 16 22-17 43-44 55-78 25-67 11-133-31-149z" style="fill:url(#c)"/><path class="fil346" d="m2329 1456c-159-9-195 142-195 142s34-62 174-61 219 145 219 145 13-214-198-226z"/><path class="fil397" d="m2145 1305 10 71c144-78 449-94 449-94l17-174c-341 16-476 197-476 197z"/><path class="fil397" d="m2985 1147-44 154s355 85 466 177l30-66s-123-202-451-264z"/><path class="fil346" d="m3235 1514c-214-13-259 166-259 166s68-92 257-72 209 110 209 110 8-191-206-204z"/><path class="fil398" d="m2759 2173c-360-7-400-88-400-88s-84 289 354 308c418 18 385-261 382-276 1 7-5 63-336 56z"/><path class="fil394" d="m3011 2160c-49 9-128 16-253 13-168-3-266-23-323-42-8 50-20 100-34 149 48 57 139 106 311 114 182 8 278-40 329-99-6-17-11-34-16-51-7-27-11-55-14-84z"/><path class="fil399" d="m2435 2131"/><path class="fil400" d="m3040 2296 1-1-1 1zm-615-115c3-17 7-33 10-50-3 17-6 33-9 50h-1z"/><path class="fil401" d="m3031 2305c-150-78-321-138-481-138-42 0-84 4-124 13 3-17 7-33 9-50 57 20 155 39 323 42 19 0 36 1 53 1 95 0 158-6 200-14 3 29 6 57 14 84 5 17 10 34 16 51l-10 10z"/><path class="fil328" d="m2640 1782s-131-104-186 67c-55 170 285 286 386 110s-132-522-132-522 41 209-69 345z"/><path class="fil402" d="m2517 1760"/><path class="fil402" d="m2516 1761c1 0 1-1 2-1-1 0-1 1-2 1z"/><path class="fil403" d="m2514 1762c1 0 1-1 2-1-1 0-1 1-2 1z"/><path class="fil403" d="m2512 1763c1 0 1-1 2-1-1 0-1 1-2 1z"/><path class="fil403" d="m2510 1764c1 0 1-1 2-1-1 0-1 1-2 1z"/><path class="fil404" d="m2508 1766c1 0 1-1 2-1-1 0-1 1-2 1z"/><path class="fil405" d="m2507 1767c1 0 1-1 2-1-1 0-1 1-2 1z"/><path class="fil405" d="m2505 1768c1 0 1-1 2-1-1 0-1 1-2 1z"/><path class="fil406" d="m2503 1769c1 0 1-1 2-1-1 0-1 1-2 1z"/><path class="fil406" d="m2501 1771c1 0 1-1 2-1-1 0-1 1-2 1z"/><path class="fil407" d="m2500 1772c1 0 1-1 2-1-1 0-1 1-2 1z"/><path class="fil407" d="m2498 1774c1 0 1-1 2-1-1 0-1 1-2 1z"/><path class="fil407" d="m2496 1775 2-2c-1 0-1 1-2 2z"/><path class="fil408" d="m2495 1777 2-2-2 2z"/><path class="fil408" d="m2493 1778 2-2-2 2z"/><path class="fil409" d="m2492 1780 2-2-2 2z"/><path class="fil409" d="m2490 1782 2-2-2 2z"/><path class="fil410" d="m2489 1783 2-2-2 2z"/><path class="fil411" d="m2487 1785 2-2-2 2z"/><path class="fil411" d="m2485 1787 2-2-2 2z"/><path class="fil411" d="m2484 1789 2-2-2 2z"/><path class="fil412" d="m2482 1791c0-1 1-1 1-2-1 1-1 1-1 2z"/><path class="fil412" d="m2481 1793c0-1 1-1 1-2 0 1-1 1-1 2z"/><path class="fil413" d="m2480 1795c0-1 1-1 1-2 0 1-1 1-1 2z"/><path class="fil413" d="m2478 1797c0-1 1-1 1-2 0 1-1 1-1 2z"/><path class="fil413" d="m2477 1800c0-1 1-2 1-2 0 1-1 1-1 2z"/><path class="fil414" d="m2475 1802c0-1 1-2 1-2 0 1-1 2-1 2z"/><path class="fil415" d="m2474 1804c0-1 1-2 1-2 0 1-1 2-1 2z"/><path class="fil415" d="m2473 1807c0-1 1-2 1-2 0 1-1 2-1 2z"/><path class="fil416" d="m2471 1809c0-1 1-2 1-3 0 1-1 2-1 3z"/><path class="fil416" d="m2470 1812c0-1 1-2 1-3 0 1-1 2-1 3z"/><path class="fil417" d="m2468 1814c0-1 1-2 1-3 0 1-1 2-1 3z"/><path class="fil417" d="m2467 1817c0-1 1-2 1-3 0 1-1 2-1 3z"/><path class="fil418" d="m2466 1820c0-1 1-2 1-3 0 1-1 2-1 3z"/><path class="fil419" d="m2464 1823c0-1 1-2 1-3 0 1-1 2-1 3z"/><path class="fil419" d="m2463 1826c0-1 1-2 1-3 0 1-1 2-1 3z"/><path class="fil419" d="m2462 1829c0-1 1-2 1-3 0 1-1 2-1 3z"/><path class="fil420" d="m2460 1833c0-1 1-2 1-3 0 1-1 2-1 3z"/><path class="fil420" d="m2459 1836c0-1 1-2 1-4 0 1-1 2-1 4z"/><path class="fil421" d="m2459 1837v-1 1z"/><path class="fil422" d="m2640 1782m75-216c1-11 1-21 1-31 0 10 0 20-1 31z"/><path class="fil422" d="m2672 1878c-72-7-144-22-213-41v-1c0-1 1-2 1-4 0-1 1-2 1-3s1-2 1-3 1-2 1-3 1-2 1-3 1-2 1-3 1-2 1-3 1-2 1-3 1-2 1-3 1-2 1-3 1-2 1-2c0-1 1-2 1-2 0-1 1-2 1-2 0-1 1-2 1-2 0-1 1-1 1-2s1-1 1-2 1-1 1-2c1-1 1-1 1-2l18-18c1-1 1-1 2-1s1-1 2-1 1-1 2-1 1-1 2-1 1-1 2-1 1-1 2-1 1-1 2-1 1-1 2-1 1-1 2-1 1-1 2-1 1-1 2-1c12-6 25-9 38-9 45 0 85 31 85 31 54-68 71-148 74-216 1-11 1-21 1-31 10 3 19 6 29 9-9 121-26 233-73 334z"/><path class="fil423" d="m2915 286c-954 29-853 1089-853 1089 68-312 278-694 428-696 0 0 126 111 321 122 174 10 420-109 420-109 174 2 354 547 362 982 2 99 92-12 92-12s165-1405-770-1376z"/><path class="fil423" d="m3696 1399s51-158 90-353c-74-3-148-16-222-34 73 195 131 387 131 387z"/><path class="fil397" d="m2048 748c-73 353-54 854-54 854 50-232 217-628 361-817-43-5-87-11-130-16-59-7-118-15-177-22z"/><path class="fil424" d="m3693 1554c0-5 1-11 1-17 0 6-1 11-1 17z"/><path class="fil425" d="m3690 1602c1-14 2-30 3-48-1 18-2 34-3 48z"/><path class="fil425" d="m3688 1633c1-9 2-19 2-31-1 12-2 23-2 31z"/><path class="fil426" d="m3591 1622c-76-25-153-48-230-68-30-21-70-37-126-40-7 0-14-1-21-1-8 0-16 0-24 1-46-9-92-18-139-25-105-16-218-31-334-40-5-8-8-12-8-12s1 4 2 12c-65-5-132-8-198-8-172 0-344 20-498 76 13-45 29-95 47-145v3c1-3 1-6 2-10 60-167 144-352 228-487 8 4 17 8 25 12 84-21 169-31 256-31 69 0 138 6 209 17 212 34 452 93 602 268 15 18 28 36 38 55 34 16 69 37 120 64 26 118 43 241 49 359zm-606-475-44 154s355 85 466 177l30-66s-123-202-451-264zm-364-40c-341 16-476 197-476 197l10 71c144-78 449-94 449-94z"/><path class="fil397" d="m2155 1376-10-71s135-181 476-197l-17 174s-305 16-449 94z"/><path class="fil397" d="m3407 1478c-111-92-466-177-466-177l44-154c328 62 451 264 451 264l-30 66z"/><path class="fil427" d="m3361 1554c-57-15-114-28-171-40 8-1 16-1 24-1 7 0 14 0 21 1 56 3 97 19 126 40z"/><path class="fil426" d="m2717 1449h-6c-1-7-2-12-2-12s3 4 8 12z"/><path class="fil424" d="m3694 1537v-1 1z"/><path class="fil428" d="m3686 1655c-31-11-63-22-95-33-6-118-23-242-49-359 35 19 77 40 131 65 14 44 22 71 22 71 1 52-1 99-2 138v1c0 6-1 11-1 17-1 18-2 34-3 48-1 12-2 23-2 31-1 10-2 17-2 22zm-1624-280v-3c1-2 2-4 2-7-1 3-1 6-2 10z"/><path class="fil429" d="m2040 785c2-11 4-21 6-32-2 11-4 21-6 32z"/><path class="fil430" d="m2033 826c2-14 5-27 7-41-2 13-5 27-7 41z"/><path class="fil430" d="m2027 867c2-14 4-27 6-41-2 14-4 27-6 41z"/><path class="fil430" d="m2021 908c2-14 4-27 6-41-2 14-4 27-6 41z"/><path class="fil431" d="m2017 949c2-14 3-27 5-41-2 14-3 27-5 41z"/><path class="fil432" d="m2012 990c1-14 3-27 4-41-2 14-3 27-4 41z"/><path class="fil432" d="m2008 1032c1-14 2-27 4-41-1 14-3 27-4 41z"/><path class="fil432" d="m2e3 1073c1-14 2-27 3-41-1 14-2 28-3 41z"/><path class="fil433" d="m2e3 1114c1-14 2-27 3-41-1 14-2 28-3 41z"/><path class="fil433" d="m2e3 1156c1-14 2-27 3-41-1 14-2 28-3 41z"/><path class="fil433" d="m2e3 1197c1-14 1-28 2-41-1 14-2 28-2 41z"/><path class="fil434" d="m2e3 1238c1-14 1-27 2-41-1 14-1 28-2 41z"/><path class="fil434" d="m1994 1280c0-14 1-27 1-42-1 14-1 28-1 42z"/><path class="fil435" d="m1993 1322c0-14 1-27 1-42 0 14-1 28-1 42z"/><path class="fil435" d="m1992 1363c0-14 0-27 1-42 0 14-1 28-1 42z"/><path class="fil424" d="m1991 1405c0-13 0-27 1-42 0 14 0 28-1 42z"/><path class="fil425" d="m1991 1419v-14 14z"/><path class="fil429" d="m2046 753v-2 2zm0-2v-1 1zm0-1v-1 1zm0-1v-1 1z"/><path class="fil428" d="m3696 1399s-8-27-22-71c7 3 14 6 21 10 1 21 1 42 1 61z"/><path class="fil397" d="m2e3 1525v-3s-1-1-4-2c0-28-1-62 0-100v-14c0-13 0-27 1-42 0-14 1-27 1-42 0-14 1-27 1-42 0-14 1-28 1-42 1-14 1-27 2-41s1-28 2-41c1-14 2-28 3-41 1-14 2-27 3-41s2-27 3-41 2-27 4-41c1-14 3-27 4-41 2-14 3-27 5-41s4-27 6-41 4-27 6-41 5-27 7-41c2-11 4-21 6-32v-5h4c14 2 28 3 41 5 29 47 102 81 199 125-83 136-167 320-228 487-1 2-2 4-2 7-18 51-34 100-47 145-6 2-13 5-19 7z"/><path class="fil423" d="m3592 1659c-62 477-425 464-425 464s68 387-453 364c-539-24-453-399-453-399-291-44-267-486-267-486-132 463-224 1208 760 1227s877-724 877-724c-41-167 55-443 55-443l-92-3z"/><path class="fil423" d="m2349 1981c-183 48-252 13-252 13s40 145 600 177c476 28 635-65 635-65s-218-146-665-154c0 0-125-23-318 28z"/><path class="fil317" d="m2449 1897c15 142 300 221 391 62 6-10 10-20 14-31-136 24-277 10-405-31z"/><path class="fil321" d="m3493 230c-16-11-32-22-49-32-471-290-1246-108-1364 485-19 97 83 137 236 207 150-37 305-39 465-13 212 34 452 93 602 268 15 18 28 36 38 55 62 30 129 74 284 144 11 5 33 9 43-20 12-32 23-79 30-113 45-228 47-481-52-696-52-114-134-212-235-285z" style="fill:#fcb431"/><path class="fil60" d="m2081 684m0 0v-1 1z"/><path class="fil436" d="m3735 530m-1-1m0-1m-1-1v-1 1zm-1-1v-1 1zm-1-1v-1 1zm-1-1v-1 1zm-1-1v-1 1zm-1-1s0-1-1-1c0 0 0 1 1 1zm-1-1v-1 1zm-1-1s0-1-1-1c0 0 0 1 1 1zm-1-1s0-1-1-1c0 0 0 1 1 1z"/><path class="fil437" d="m3809 959c-4-128-27-255-81-371-52-114-134-212-235-285-16-11-32-22-49-32-148-91-325-135-503-135-384 0-768 207-857 602-6-16-8-34-4-54v-1c81-407 471-620 861-620 178 0 355 45 503 135 17 10 33 21 49 32 101 73 183 171 235 285 0 0 0 1 1 1 0 0 0 1 1 1v1s0 1 1 1v7s0 1 1 1c58 134 78 282 74 429z" style="fill:#ffc431"/><path class="fil438" d="m2155 692c-295 165-354 333-353 443 0 0 18 95 194 101 0 0 188-362 553-313 366 49 565 209 565 209s-665-605-960-440z" style="fill:#d4aa00"/><path class="fil439" d="m2016 691c-263 248-214 445-214 445s206-409 599-382c416 28 432 380 625 491 173 99 631 64 631 64-378-792-1379-865-1642-617z" style="fill:#ffc431"/><path class="fil321" d="m3047 1185c-163-115-252-462-646-490-393-28-603 388-603 388s-5 39 7 65c0 0 196-423 589-394 368 27 461 378 624 493s639 62 639 62c-9-19-19-37-28-55-106 14-443 30-582-69z" style="fill:#fcb431"/><path class="fil394" d="m3105 1699c-26 14-40 39-31 56s38 19 64 5 40-39 31-56-38-19-64-5z"/><path class="fil394" d="m2293 1638c-29 13-47 35-41 48 6 14 35 15 64 2s47-35 41-49-35-15-64-2z"/><path class="fil440" d="m2784 3241c-468 14-488-351-488-351l-166 15s-106 536 603 529c708-7 759-544 759-544l-154-35s-86 373-554 387z" style="fill:#338000"/><polygon class="fil441" transform="translate(-7354 -521)" points="10973 4466 11015 4432 11025 4299 10659 4281 10649 4411 10680 4460"/><polygon class="fil442" transform="translate(-7354 -521)" points="10992 4333 11033 4299 11047 4167 10672 4144 10652 4283 10683 4318 10666 4480 10628 4514 10616 4642 11006 4655 11016 4521 10987 4485"/><path class="fil443" d="m3464 3832c46-1 86 20 90 47s-29 49-75 50-86-20-90-47 29-49 75-50zm-137-84 36 41-18 180-41 36-7 94 322 8 9-100-32-43 10-161 44-43 13-98-319-17-16 103z"/><polygon class="fil441" transform="translate(-7354 -521)" points="9248 4471 9290 4439 9291 4314 8914 4307 8912 4429 8947 4474"/><polygon class="fil442" transform="translate(-7354 -521)" points="9257 4348 9298 4314 9300 4182 8920 4188 8908 4310 8942 4341 8934 4493 8897 4525 8895 4659 9294 4647 9295 4522 9261 4489"/><path class="fil443" d="m1728 3849c47-2 90 17 96 41 6 25-27 46-74 48s-90-17-96-41c-6-25 27-46 74-48zm-140-75 36 37-10 168-40 35v97l329-11 3-93-35-39 1-151 43-41 8-91-328 6-8 83z"/><path class="fil444" d="m3632 2195c0-5 0-10-1-14l1 1v13z"/><path class="fil444" d="m1913 2129c-1-25 0-50 1-75l3 2c-2 24-3 49-4 73z"/><path class="fil495" d="m3830 3053c7-40-174-89-275-89-32 0-56 5-63 16 8-18 16-34 24-49 4-7 8-15 12-22 2-3 9-5 21-5 75 0 326 62 318 108v1c-1 0-15 8-36 39z" style="fill:#7e3a1a"/><path class="fil504" d="m3295 2958-69-4-1-39c33 2 63 4 89 6-5 11-12 24-19 37z"/><path class="fil505" d="m3471 2977c1-9 11-40 11-40l-138-26-51 47c7-13 14-26 19-37 9-20 16-37 19-49 4-11 5-18 5-18l154 35s-1 5-2 14c-1 5-2 12-4 20-3 14-8 33-14 54z" style="fill:#338000"/><path class="fil495" d="m1647 3126c5-22 10-43 15-63 9-42 305-134 388-134 15 0 23 3 22 10-5 7-12 16-19 27-5 8-10 19-16 30 1-6-6-9-19-9-77 0-362 97-370 139z" style="fill:#7e3a1a"/><path class="fil506" d="m580 5040"/><path class="fil504" d="m2320 2987c-7-18-12-34-15-49 25-3 53-7 83-10l-8 56c-24 2-38 0-59 3z"/><path class="fil505" d="m2125 2987c0-17 0-32 1-45 0-4 1-7 1-11 2-17 4-27 4-28l166-15s1 19 8 49c3 14 8 31 15 49h-3l-21-42-166 15s-2 10-4 28h-2z" style="fill:#338000"/><path class="fil71" d="m3886 1679h-1c-15-18-33-33-55-41-8-3-16-5-23-7 9 1 17 4 25 7 22 9 40 23 54 41zm-185-27h-1c10-6 21-11 33-15-11 4-21 9-32 15z"/><path class="fil72" d="m3915 1733h-1c-7-21-17-39-30-55h1c12 16 22 34 29 55zm-230-72c5-4 10-7 15-10h1c-5 3-11 6-16 10z"/><path class="fil72" d="m3927 1786c-2-19-7-36-12-53h1c6 16 10 34 12 53z"/><path class="fil72" d="m3929 1827c0-14-1-28-2-41 2 13 2 27 2 41z"/><path class="fil508" d="m3928 1852v-4s0 1-1 1c-7-74-41-134-96-156-19-7-42-11-65-11-35 0-71 9-96 28 0-1 15-45 15-48 5-4 11-7 16-10 11-6 21-11 32-15 17-6 34-8 51-8 8 0 15 1 22 2 8 2 16 4 23 7 21 9 40 23 55 41 13 16 23 34 30 55 6 16 10 34 12 53 2 13 2 27 2 41 0 8 0 16-1 25z"/><path class="fil504" d="m3928 1852v-3s0-1 1-1v4z"/><path class="fil444" d="m3670 1710"/><path class="fil72" d="m1992 1521c-15-5-31-8-47-8-11 0-23 2-34 5 13-4 25-5 36-5 21 0 38 5 45 8v1z"/><path class="fil504" d="m1792 1755c-9-114 37-213 118-237h1c11-3 23-5 34-5 16 0 31 3 47 8 0 14 0 26 1 36v20c-16-6-32-8-48-8-12 0-23 2-34 5-67 19-110 92-118 182z"/><path class="fil509" d="m1992 1557c0-10 0-23-1-36v-1 6c1-1 3-1 4-2 0 8-2 22-3 32z"/><path class="fil509" d="m1992 1526v-6c3 1 4 2 4 2v3c-1 1-3 1-4 2z"/><path class="fil517" d="m2763 2702c-28 0-55-1-77-2-40-2-70-38-65-78 4-35 34-61 69-61h4c20 1 44 2 70 2 18 0 37 0 56-1h4c35 0 64 26 69 60 5 40-25 76-66 78-22 1-43 2-63 2z"/><path class="fil508" d="m4172 5465c-244 0-787-244-1036-341-401-157-1027-303-1133-357-106-55-109-124-72-130 18-3 37-4 56-4 158 0 345 86 600 166 285 89 810 180 1110 209s561 78 597 358c9 71-39 99-122 99z"/><path class="fil508" d="m1120 5522c-89 0-169-26-143-136 4-18 13-35 26-51 51-62 167-84 241-99 56-11 118-23 177-23 29 0 58 3 85 10 137 36 94 171-12 222-69 34-151 46-227 60-38 7-94 16-148 16z"/><path d="m2773 5967c-54.4-63.7 291-276 408-278 117-1.89 385 892 85.2 953-128 26.4-817 70.5-1335-7.34-108-16.3-114-277-47.3-377 89-134 292-94.1 429-43.9 306 112 508 200 590 75.2 63.9-97.6-75.4-259-130-323z" style="clip-rule:evenodd;fill-rule:evenodd;fill:#f4e8d7;image-rendering:optimizeQuality;shape-rendering:geometricPrecision"/><ellipse cx="2734" cy="7008" rx="230" ry="223" style="clip-rule:evenodd;fill-rule:evenodd;fill:#f4e8d7;image-rendering:optimizeQuality;shape-rendering:geometricPrecision"/><path class="fil341" d="m4208 6106c-379 0-936-177-1296-401-39-24-77-48-115-72-522-323-997-602-1111-639-119-38-283-60-303-62h-2s36-90 94-189c4-7 8-14 13-21 24-36 58-72 100-105 29-23 62-44 98-62 67-34 145-56 229-57h11c64 0 115 9 163 22-56-2-113-13-169-13-34 0-67 4-100 17-64 25-131 80-135 153-8 150 221 205 330 244 204 73 419 113 624 183 187 64 360 161 533 256 166 91 334 183 514 246 125 43 270 83 409 83 44 0 87-4 129-13 139-30 258-132 280-277 25-158-32-413-407-551h1c54 0 140 6 231 24 102 20 211 56 291 116h1l1 1s1 0 1 1c1 1 2 1 3 2l1 1c126 100 180 253 180 416 0 220-99 457-253 601-70 66-193 94-346 94z"/><path d="m3e3 5755c-119 47.2-238 154-234 194 2.13 19.2 119 144 147 231 8.69 26.7 5.19 84.1 5.19 84.1l477 227s26.3-102 13.2-243c-22.4-240-90.8-346-90.8-346s-218-98.8-318-147z" style="fill:#c8b7b7"/><path d="m2534 6294s-244 98.6-369 137c-105 32.4-319 79.6-319 79.6s-12.7-94.4-4.15-140c9.05-48.9 25.6-99.6 57.5-138 21.6-25.9 53.1-43.6 84.9-54.9 34.7-12.4 73-13.2 110-12.5 49.7 0.949 99.2 10.2 147 22.5 101 25.6 293 106 293 106z" style="fill:#c8b7b7"/>
</svg>
