<?xml version="1.0" encoding="UTF-8" standalone="no"?>
<svg
   xmlns:dc="http://purl.org/dc/elements/1.1/"
   xmlns:cc="http://creativecommons.org/ns#"
   xmlns:rdf="http://www.w3.org/1999/02/22-rdf-syntax-ns#"
   xmlns:svg="http://www.w3.org/2000/svg"
   xmlns="http://www.w3.org/2000/svg"
   xmlns:sodipodi="http://sodipodi.sourceforge.net/DTD/sodipodi-0.dtd"
   xmlns:inkscape="http://www.inkscape.org/namespaces/inkscape"
   xml:space="preserve"
   width="512"
   height="200"
   version="1.1"
   style="clip-rule:evenodd;fill-rule:evenodd;image-rendering:optimizeQuality;shape-rendering:geometricPrecision;text-rendering:geometricPrecision"
   viewBox="0 0 5333.314 2083.3485"
   id="svg3197"
   sodipodi:docname="contact.svg"
   inkscape:version="1.0 (4035a4f, 2020-05-01)"><metadata
   id="metadata3201"><rdf:RDF><cc:Work
       rdf:about=""><dc:format>image/svg+xml</dc:format><dc:type
         rdf:resource="http://purl.org/dc/dcmitype/StillImage" /><dc:title /></cc:Work></rdf:RDF></metadata><sodipodi:namedview
   inkscape:document-rotation="0"
   pagecolor="#ffffff"
   bordercolor="#666666"
   borderopacity="1"
   objecttolerance="10"
   gridtolerance="10"
   guidetolerance="10"
   inkscape:pageopacity="0"
   inkscape:pageshadow="2"
   inkscape:window-width="1366"
   inkscape:window-height="723"
   id="namedview3199"
   showgrid="false"
   units="px"
   inkscape:zoom="1.4994589"
   inkscape:cx="216.63279"
   inkscape:cy="99.357579"
   inkscape:window-x="0"
   inkscape:window-y="23"
   inkscape:window-maximized="0"
   inkscape:current-layer="Layer_x0020_1" />
 <defs
   id="defs3055">
  <style
   type="text/css"
   id="style3053">
   <![CDATA[
    .str2 {stroke:#221F1F;stroke-width:69.4449;stroke-linecap:round}
    .str0 {stroke:#B82000;stroke-width:69.4449}
    .str1 {stroke:white;stroke-width:69.4449;stroke-linecap:round}
    .fil7 {fill:none;fill-rule:nonzero}
    .fil4 {fill:#221F1F;fill-rule:nonzero}
    .fil1 {fill:#260E0E;fill-rule:nonzero}
    .fil9 {fill:#338247;fill-rule:nonzero}
    .fil0 {fill:#4EAB5F;fill-rule:nonzero}
    .fil3 {fill:#B82000;fill-rule:nonzero}
    .fil5 {fill:#D8D9D8;fill-rule:nonzero}
    .fil2 {fill:#D9DDE2;fill-rule:nonzero}
    .fil8 {fill:#F2EBEA;fill-rule:nonzero}
    .fil6 {fill:white;fill-rule:nonzero}
   ]]>
  </style>
 </defs>
 <g
   id="Layer_x0020_1">
  <metadata
   id="CorelCorpID_0Corel-Layer" />
  
  
  
  
  
  
  
  
  
  
  
  
  
  
  
  
  
  
  
  
  
  
  
  
  
  
  
  
  
  
  
  
  
  
  
  
  
  
  
  
  
  
  
  
  
  
  
  
  
  
  
  
  
  
  
  
  
  
  
  
  
  
  
  
  
  
  
  
  
 <path
   class="fil1"
   d="m 2190.3429,845.50153 81.4576,-24.71056 c 16.3962,-5.00029 25.699,-22.85003 20.815,-39.82767 l -45.0022,-155.53089 c -4.9421,-17.0358 -22.2103,-26.80355 -38.6646,-21.80336 l -81.4574,24.71046 c -16.3963,5.00028 -25.6991,22.85002 -20.7569,39.82759 l 45.0022,155.53098 c 4.9422,17.03561 22.2104,26.80354 38.6646,21.80345 z"
   id="path17"
   style="clip-rule:evenodd;fill:#4e5850;fill-opacity:1;fill-rule:nonzero;stroke-width:0.0581425;image-rendering:optimizeQuality;shape-rendering:geometricPrecision;text-rendering:geometricPrecision" /><path
   class="fil4"
   d="m 2366.0492,292.16014 c 0,33.54825 -27.2105,60.75892 -60.7588,60.75892 -33.5483,0 -60.7588,-27.21067 -60.7588,-60.75892 0,-33.54807 27.2105,-60.75874 60.7588,-60.75874 33.5481,0 60.7588,27.21067 60.7588,60.75874 z"
   id="path23"
   style="clip-rule:evenodd;fill:#221f1f;fill-rule:nonzero;stroke-width:0.0581425;image-rendering:optimizeQuality;shape-rendering:geometricPrecision;text-rendering:geometricPrecision" /><path
   class="fil4"
   d="m 2439.2506,292.16014 c 0,33.54825 -27.2106,60.75892 -60.7588,60.75892 -33.5481,0 -60.7589,-27.21067 -60.7589,-60.75892 0,-33.54807 27.2108,-60.75874 60.7589,-60.75874 33.5482,0 60.7588,27.21067 60.7588,60.75874 z"
   id="path25"
   style="clip-rule:evenodd;fill:#221f1f;fill-rule:nonzero;stroke-width:0.0581425;image-rendering:optimizeQuality;shape-rendering:geometricPrecision;text-rendering:geometricPrecision" /><path
   class="fil5"
   d="m 2414.1912,527.17173 -612.0069,138.61159 -357.9827,8.66318 v 0 c 0,-90.93475 31.6876,-170.12464 120.471,-227.39495 43.1999,-27.85014 92.3883,-45.06031 143.3793,-51.74675 l 688.8129,-90.41143 z"
   id="path27"
   style="clip-rule:evenodd;fill:#ffc431;fill-opacity:1;fill-rule:nonzero;stroke-width:0.0581425;image-rendering:optimizeQuality;shape-rendering:geometricPrecision;text-rendering:geometricPrecision" /><path
   class="fil6"
   d="m 2268.0795,755.03192 c -0.5231,-0.058 -1.8022,0.17431 -3.6628,0.75572 -8.7214,2.44196 -30.6411,10.582 -51.9211,17.73352 -19.5941,6.62829 -38.6647,12.44241 -46.049,12.26805 10.1167,-1.68615 27.5596,-6.51197 46.0488,-12.26805 18.1986,-5.69795 37.5018,-12.3262 51.9211,-17.73352 13.6633,-5.11654 22.9663,-9.18647 22.9663,-10.4656 0,-5.05845 -15.9892,-5.52354 -37.4436,-4.12815 -15.6985,0.98852 -34.3622,3.02341 -51.7468,4.94214 -27.1525,3.02341 -51.2815,5.8143 -56.6887,4.36081 9.1282,-1.22106 32.5016,-2.61651 56.6887,-4.36081 18.8383,-1.39528 38.1414,-3.02337 51.7468,-4.94214 10.5238,-1.51167 17.6171,-3.2559 18.2566,-5.23275 0.2326,-0.69773 -0.465,-1.33732 -1.9187,-2.03495 -11.6868,-5.40731 -73.085,-10.6983 -111.3428,-21.2802 -11.3377,-3.13967 -30.1759,-4.76766 -36.8042,-31.97832 -0.8721,-3.48853 -0.7557,-7.44224 -0.058,-11.57024 -0.523,-21.45467 25.8734,-50.87465 22.7338,-59.82856 -0.1743,-0.52333 -0.4649,-0.93026 -0.8139,-1.27913 -5.7561,-5.75616 -33.1414,20.34976 -50.9328,38.4902 -10.0587,10.29128 -24.3617,15.17517 -38.6066,13.37271 l -603.3437,-22.96618 c -21.1058,108.66811 60.5844,210.24293 171.2874,212.85926 0,0 404.1478,35.46694 512.932,0.81404 0,0 109.7148,-31.74569 109.7148,-43.3161 0,-7.2096 -25.815,-5.40722 -45.2349,-3.08151 22.2104,-3.72116 86.8066,-47.03717 72.2711,-49.07218 z M 1447.109,636.88648 Z"
   id="path31"
   style="clip-rule:evenodd;fill:#ffd5d5;fill-rule:nonzero;stroke-width:0.0581425;image-rendering:optimizeQuality;shape-rendering:geometricPrecision;text-rendering:geometricPrecision" /><path
   class="fil5"
   d="m 1968.7624,656.77125 20.7568,208.61487 c -158.3218,3.02335 -371.1231,-15.64036 -371.1231,-15.64036 -110.703,-2.61634 -192.3931,-104.19115 -171.2873,-212.85927 v 0 z"
   id="path33"
   style="clip-rule:evenodd;fill:#ffc431;fill-opacity:1;fill-rule:nonzero;stroke-width:0.0581425;image-rendering:optimizeQuality;shape-rendering:geometricPrecision;text-rendering:geometricPrecision" /><path
   class="fil5"
   d="M 2651.1215,934.22672 H 2431.5759 L 2320.6402,437.05106 c -14.5357,-65.0614 29.8271,-129.13435 96.0513,-137.21596 3.7792,-0.46526 7.3258,-0.69781 10.5818,-0.69781 l 62.0962,-2.90713 c 94.8883,0 163.0895,65.3521 188.3815,151.86798 9.1282,31.22244 11.9773,63.95666 9.012,96.34189 l -35.5831,389.78667 z"
   id="path37"
   style="clip-rule:evenodd;fill:#ffc431;fill-opacity:1;fill-rule:nonzero;stroke-width:0.0581425;image-rendering:optimizeQuality;shape-rendering:geometricPrecision;text-rendering:geometricPrecision" /><path
   class="fil6"
   d="m 2939.6238,1263.3127 c 0,231.1741 -187.451,418.6253 -418.625,418.6253 -231.1744,0 -418.6255,-187.393 -418.6255,-418.6253 0,-231.1742 187.3931,-418.56716 418.6255,-418.56716 231.1742,0 418.6252,187.39296 418.625,418.56716 z"
   id="path39"
   style="clip-rule:evenodd;fill:#9a4121;fill-opacity:1;fill-rule:nonzero;stroke-width:0.0581425;image-rendering:optimizeQuality;shape-rendering:geometricPrecision;text-rendering:geometricPrecision" /><path
   class="fil4"
   d="m 2699.2054,1471.3462 c 20.5241,64.5379 -83.3181,155.2983 -232.0463,202.6844 -3.3141,1.0465 -6.5702,2.035 -9.8842,3.0233 -99.0166,-15.1169 -186.5791,-64.945 -249.9542,-136.6927 41.8625,-38.6066 107.4472,-75.3525 185.358,-100.1794 148.7282,-47.386 285.9444,-33.49 306.5269,31.1062 z"
   id="path41"
   style="clip-rule:evenodd;fill:#7e3a1a;fill-opacity:1;fill-rule:nonzero;stroke-width:0.0581425;image-rendering:optimizeQuality;shape-rendering:geometricPrecision;text-rendering:geometricPrecision" /><path
   class="fil6"
   d="M 2607.631,948.64607 1951.2033,770.4977 c -411.183,-88.78341 -671.4284,-45.52558 -848.4719,189.31173 l -668.81209,858.99577 -0.6977,-0.058 -143.90237,142.972 742.36206,2.1513 22.3849,-71.8058 414.032,-533.9217 c 324.2019,89.8883 721.3726,169.3107 890.8576,217.3363 l 248.6169,-626.83323 z"
   id="path43"
   style="clip-rule:evenodd;fill:#9a4121;fill-opacity:1;fill-rule:nonzero;stroke-width:0.0581425;image-rendering:optimizeQuality;shape-rendering:geometricPrecision;text-rendering:geometricPrecision" /><path
   class="fil4"
   d="m 2122.6071,1155.1678 c -70.8174,-83.3762 -243.4422,-53.0259 -385.6004,67.7359 -61.3984,52.1537 -107.04,112.68 -133.3786,171.2875 142.5651,36.5134 290.7702,70.643 422.2883,100.8189 118.1455,-116.9244 161.8685,-263.1524 96.7489,-339.8423 z"
   id="path45"
   style="clip-rule:evenodd;fill:#7e3a1a;fill-opacity:1;fill-rule:nonzero;stroke-width:0.0581425;image-rendering:optimizeQuality;shape-rendering:geometricPrecision;text-rendering:geometricPrecision" /><polygon
   class="fil4"
   points="15519,38908 17994,36449 18006,36450 18293,36081 30263,35659 28673,37710 28288,38945 "
   id="polygon47"
   transform="matrix(0.05814236,0,0,0.05814236,-612.99352,-300.48484)"
   style="clip-rule:evenodd;fill:#221f1f;fill-rule:nonzero;image-rendering:optimizeQuality;shape-rendering:geometricPrecision;text-rendering:geometricPrecision" /><line
   class="fil7 str0"
   x1="403.39514"
   y1="1848.3995"
   x2="1107.209"
   y2="1823.5729"
   id="line49"
   style="clip-rule:evenodd;fill:none;fill-rule:nonzero;stroke:#b82000;stroke-width:3.77743;image-rendering:optimizeQuality;shape-rendering:geometricPrecision;text-rendering:geometricPrecision" /><line
   class="fil7 str1"
   x1="1070.0193"
   y1="1878.3433"
   x2="1120.7775"
   y2="1878.5179"
   id="line51"
   style="clip-rule:evenodd;fill:none;fill-rule:nonzero;stroke:#ffffff;stroke-width:3.77743;stroke-linecap:round;image-rendering:optimizeQuality;shape-rendering:geometricPrecision;text-rendering:geometricPrecision" /><line
   class="fil7 str1"
   x1="1045.832"
   y1="1902.2981"
   x2="1109.6721"
   y2="1902.5305"
   id="line53"
   style="clip-rule:evenodd;fill:none;fill-rule:nonzero;stroke:#ffffff;stroke-width:3.77743;stroke-linecap:round;image-rendering:optimizeQuality;shape-rendering:geometricPrecision;text-rendering:geometricPrecision" /><line
   class="fil7 str1"
   x1="1019.8424"
   y1="1928.1715"
   x2="1093.9739"
   y2="1928.4039"
   id="line55"
   style="clip-rule:evenodd;fill:none;fill-rule:nonzero;stroke:#ffffff;stroke-width:3.77743;stroke-linecap:round;image-rendering:optimizeQuality;shape-rendering:geometricPrecision;text-rendering:geometricPrecision" /><path
   class="fil6"
   d="m 2535.4761,301.98633 c 764.8052,116.22665 935.1042,1194.07037 935.1042,1194.07037 0,0 90.9346,82.4459 85.1203,93.4348 -4.6511,8.8958 -72.9105,-38.6066 -72.5034,-34.7692 2.4418,25.0593 63.4333,137.7976 53.8398,146.9259 -11.5122,10.989 -92.1556,-125.7621 -92.1556,-125.7621 0,0 110.761,131.3438 96.3419,142.3328 -14.4192,10.9889 -151.2284,-124.0179 -151.2284,-124.0179 0,0 132.8555,107.2728 124.1923,121.9247 -8.6632,14.6519 -144.7165,-91.9232 -210.8242,-110.9358 -27.2107,5.4073 38.781,77.1551 30.1176,88.144 -8.6632,10.9889 -80.9923,-54.0143 -141.1697,-126.6923 C 3131.3196,1493.0333 2691.356,637.875 2691.356,637.875 Z"
   id="path57"
   style="clip-rule:evenodd;fill:#ffd5d5;fill-rule:nonzero;stroke-width:0.0581425;image-rendering:optimizeQuality;shape-rendering:geometricPrecision;text-rendering:geometricPrecision" /><path
   class="fil5"
   d="M 3473.8943,1499.1382 H 3149.4599 C 3021.5466,1279.767 2691.356,637.93308 2691.356,637.93308 L 2535.4761,302.04451 c 764.8052,116.22656 935.1042,1194.07029 935.1042,1194.07029 0,0 1.2208,1.1047 3.3721,3.0816 z"
   id="path59"
   style="clip-rule:evenodd;fill:#ffc431;fill-opacity:1;fill-rule:nonzero;stroke-width:0.0581425;image-rendering:optimizeQuality;shape-rendering:geometricPrecision;text-rendering:geometricPrecision" /><path
   class="fil4"
   d="m 2370.6425,210.06313 c 0,22.38485 -18.1405,40.46715 -40.4672,40.46715 -22.3849,0 -40.5252,-18.14045 -40.5252,-40.46714 0,-22.38477 18.1403,-40.46705 40.5252,-40.46705 22.3849,0 40.4672,18.14036 40.4672,40.46704 z"
   id="path61"
   style="clip-rule:evenodd;fill:#221f1f;fill-rule:nonzero;stroke-width:0.0581425;image-rendering:optimizeQuality;shape-rendering:geometricPrecision;text-rendering:geometricPrecision" /><line
   class="fil7 str2"
   x1="1468.0992"
   y1="1358.1427"
   x2="1485.0768"
   y2="1331.3973"
   id="line67"
   style="clip-rule:evenodd;fill:none;fill-rule:nonzero;stroke:#221f1f;stroke-width:3.77743;stroke-linecap:round;image-rendering:optimizeQuality;shape-rendering:geometricPrecision;text-rendering:geometricPrecision" /><path
   class="fil7 str2"
   d="m 3510.0591,1703.3925 c -37.0367,-27.0362 -71.7476,-56.34 -100.8771,-91.1091"
   id="path71"
   style="clip-rule:evenodd;fill:none;fill-rule:nonzero;stroke:#221f1f;stroke-width:3.77743;stroke-linecap:round;image-rendering:optimizeQuality;shape-rendering:geometricPrecision;text-rendering:geometricPrecision" /><path
   class="fil7 str2"
   d="m 3536.979,1701.6482 c -19.9431,-16.6287 -36.5717,-33.0249 -41.6301,-48.7234"
   id="path73"
   style="clip-rule:evenodd;fill:none;fill-rule:nonzero;stroke:#221f1f;stroke-width:3.77743;stroke-linecap:round;image-rendering:optimizeQuality;shape-rendering:geometricPrecision;text-rendering:geometricPrecision" /><line
   class="fil7 str2"
   x1="3449.8247"
   y1="1600.8875"
   x2="3484.0122"
   y2="1641.5288"
   id="line75"
   style="clip-rule:evenodd;fill:none;fill-rule:nonzero;stroke:#221f1f;stroke-width:3.77743;stroke-linecap:round;image-rendering:optimizeQuality;shape-rendering:geometricPrecision;text-rendering:geometricPrecision" /><line
   class="fil7 str2"
   x1="3483.1401"
   y1="1554.7223"
   x2="3470.9883"
   y2="1547.2219"
   id="line77"
   style="clip-rule:evenodd;fill:none;fill-rule:nonzero;stroke:#221f1f;stroke-width:3.77743;stroke-linecap:round;image-rendering:optimizeQuality;shape-rendering:geometricPrecision;text-rendering:geometricPrecision" /><polygon
   class="fil6"
   points="52016,8426 51271,9171 51464,11008 53446,11008 "
   id="polygon79"
   style="clip-rule:evenodd;fill:#ffd5d5;fill-rule:nonzero;image-rendering:optimizeQuality;shape-rendering:geometricPrecision;text-rendering:geometricPrecision"
   transform="matrix(0.05814236,0,0,0.05814236,-612.99352,-300.48484)" /><polygon
   class="fil5"
   points="51464,11008 51360,10020 52705,9670 53446,11008 "
   id="polygon81"
   style="clip-rule:evenodd;fill:#ffc431;fill-opacity:1;fill-rule:nonzero;image-rendering:optimizeQuality;shape-rendering:geometricPrecision;text-rendering:geometricPrecision"
   transform="matrix(0.05814236,0,0,0.05814236,-612.99352,-300.48484)" /><path
   class="fil8"
   d="m 2414.1912,183.66651 c 0,31.86208 -25.8734,57.7354 -57.7355,57.7354 -31.862,0 -57.7354,-25.8733 -57.7354,-57.73539 0,-31.86205 25.8734,-57.73542 57.7354,-57.73542 31.862,0 57.7354,25.87337 57.7355,57.73541 z"
   id="path83"
   style="clip-rule:evenodd;fill:#f2ebea;fill-rule:nonzero;stroke-width:0.0581425;image-rendering:optimizeQuality;shape-rendering:geometricPrecision;text-rendering:geometricPrecision" /><path
   class="fil6"
   d="m 2414.1912,183.66651 c 0,31.86208 -25.8734,57.7354 -57.7355,57.7354 -31.862,0 -57.7354,-25.8733 -57.7354,-57.73539 0,-31.86205 25.8734,-57.73542 57.7354,-57.73542 31.862,0 57.7354,25.87337 57.7355,57.73541 z"
   id="path85"
   style="clip-rule:evenodd;fill:#ffd5d5;fill-rule:nonzero;stroke-width:0.0581425;image-rendering:optimizeQuality;shape-rendering:geometricPrecision;text-rendering:geometricPrecision" /><path
   class="fil4"
   d="m 2412.796,170.87522 c -8.0238,25.93153 -32.1529,44.76962 -60.7008,44.76962 -22.3266,0 -41.9206,-11.51216 -53.2585,-28.89671 -0.058,-0.98842 -0.058,-2.03501 -0.058,-3.08162 0,-31.86205 25.8734,-57.73541 57.7354,-57.73541 27.5014,0 50.5258,19.24514 56.2819,44.94412 z"
   id="path87"
   style="clip-rule:evenodd;fill:#221f1f;fill-rule:nonzero;stroke-width:0.0581425;image-rendering:optimizeQuality;shape-rendering:geometricPrecision;text-rendering:geometricPrecision" /><path
   class="fil4"
   d="m 2318.0235,205.46987 c 0,6.45381 -0.9883,12.73322 -2.7907,18.60562 -10.2331,-10.40751 -16.5125,-24.71056 -16.5125,-40.40898 0,-7.0353 1.2792,-13.77972 3.5467,-20.00098 9.768,11.16339 15.7565,25.81523 15.7565,41.8625 z"
   id="path89"
   style="clip-rule:evenodd;fill:#221f1f;fill-rule:nonzero;stroke-width:0.0581425;image-rendering:optimizeQuality;shape-rendering:geometricPrecision;text-rendering:geometricPrecision" /><path
   class="fil7 str2"
   d="m 2388.2596,226.57558 c -5.1745,7.5004 -12.8494,13.14026 -21.7451,15.81474"
   id="path91"
   style="clip-rule:evenodd;fill:none;fill-rule:nonzero;stroke:#221f1f;stroke-width:3.17515;stroke-linecap:round;image-rendering:optimizeQuality;shape-rendering:geometricPrecision;text-rendering:geometricPrecision" /><path
   class="fil4"
   d="m 2519.1384,194.13208 -136.7509,-61.45647 10.9306,33.19931 c 0,0 -1.5698,21.62899 -1.5698,31.16428 0,19.30336 15.2332,34.94369 34.304,35.75764 -4.0119,9.07023 -6.2795,19.12888 -6.2795,29.65261 0,40.40898 32.7923,73.20135 73.2013,73.20135 40.4091,0 73.2011,-32.79237 73.2011,-73.20135 0,-31.22244 -19.5358,-57.85161 -47.0371,-68.37544 z"
   id="path93"
   style="clip-rule:evenodd;fill:#221f1f;fill-rule:nonzero;stroke-width:0.0581425;image-rendering:optimizeQuality;shape-rendering:geometricPrecision;text-rendering:geometricPrecision" /><polygon
   style="clip-rule:evenodd;fill:#80c904;fill-opacity:1;fill-rule:nonzero;image-rendering:optimizeQuality;shape-rendering:geometricPrecision;text-rendering:geometricPrecision"
   class="fil0"
   points="83333,41667 83333,38903 0,38903 0,41667 "
   id="polygon111"
   transform="matrix(0.06441467,0,0,0.04903161,-3.987442,49.416349)" /><path
   class="fil6"
   d="m 3156.1465,2013.931 -37.5018,-565.6092 -640.2641,-11.7448 -17.9659,-444.55678 -275.188,65.87538 c -284.8981,23.1406 -504.2693,183.0904 -504.2693,468.9185 l 1.8024,36.8041 c 12.6169,154.4262 108.7266,396.2403 584.2732,409.962 h 758.2932 l 130.8203,40.409 z"
   id="path139"
   style="clip-rule:evenodd;fill:#9a4121;fill-opacity:1;fill-rule:nonzero;stroke-width:0.0581425;image-rendering:optimizeQuality;shape-rendering:geometricPrecision;text-rendering:geometricPrecision" /><polygon
   class="fil4"
   points="61372,30026 64180,30077 64826,39806 62576,39111 60163,39111 "
   id="polygon141"
   style="clip-rule:evenodd;fill:#221f1f;fill-opacity:1;fill-rule:nonzero;image-rendering:optimizeQuality;shape-rendering:geometricPrecision;text-rendering:geometricPrecision"
   transform="matrix(0.05814236,0,0,0.05814236,-612.99352,-300.48484)" /><line
   class="fil7 str0"
   x1="2930.5549"
   y1="1973.522"
   x2="3000.7332"
   y2="1446.1122"
   id="line143"
   style="clip-rule:evenodd;fill:none;fill-rule:nonzero;stroke:#b82000;stroke-width:3.77743;image-rendering:optimizeQuality;shape-rendering:geometricPrecision;text-rendering:geometricPrecision" /><line
   class="fil7 str1"
   x1="2981.3716"
   y1="1973.522"
   x2="2979.7434"
   y2="1899.2162"
   id="line145"
   style="clip-rule:evenodd;fill:none;fill-rule:nonzero;stroke:#ffffff;stroke-width:3.77743;stroke-linecap:round;image-rendering:optimizeQuality;shape-rendering:geometricPrecision;text-rendering:geometricPrecision" /><line
   class="fil7 str1"
   x1="3009.0474"
   y1="1973.522"
   x2="3007.4197"
   y2="1900.8442"
   id="line147"
   style="clip-rule:evenodd;fill:none;fill-rule:nonzero;stroke:#ffffff;stroke-width:3.77743;stroke-linecap:round;image-rendering:optimizeQuality;shape-rendering:geometricPrecision;text-rendering:geometricPrecision" /><line
   class="fil7 str1"
   x1="3071.6125"
   y1="1962.3877"
   x2="3070.2427"
   y2="1888.1399"
   id="line149"
   style="clip-rule:evenodd;fill:none;fill-rule:nonzero;stroke:#ffffff;stroke-width:3.77743;stroke-linecap:round;image-rendering:optimizeQuality;shape-rendering:geometricPrecision;text-rendering:geometricPrecision" /><path
   class="fil7 str2"
   d="m 1693.2255,1415.0644 c 47.1534,-204.138 225.7089,-323.8532 452.4058,-353.099 34.8272,-4.4768 313.5619,-70.58477 313.5619,-70.58477"
   id="path151"
   style="clip-rule:evenodd;fill:none;fill-rule:nonzero;stroke:#221f1f;stroke-width:3.77743;stroke-linecap:round;image-rendering:optimizeQuality;shape-rendering:geometricPrecision;text-rendering:geometricPrecision" /><path
   style="clip-rule:evenodd;fill:#d9dde2;fill-opacity:1;fill-rule:evenodd;stroke:none;stroke-width:11.6943;stroke-linecap:butt;stroke-linejoin:miter;stroke-miterlimit:4;stroke-dasharray:none;stroke-opacity:1;image-rendering:optimizeQuality;shape-rendering:geometricPrecision;text-rendering:geometricPrecision"
   d="m 2167.9554,644.74329 c 0.6036,-20.12041 50.168,-31.00114 58.9708,-14.86708 9.4942,17.40152 16.1225,45.72195 4.4085,50.89049 -16.3593,7.21826 -22.7921,8.30187 -39.577,8.87739 -19.9107,0.68295 -24.1942,-31.8388 -23.8023,-44.9008 z"
   id="path1629"
   sodipodi:nodetypes="sssss" /><path
   style="clip-rule:evenodd;fill:#000000;fill-rule:nonzero;stroke-width:0.0684079;image-rendering:optimizeQuality;shape-rendering:geometricPrecision;text-rendering:geometricPrecision"
   id="path19-9"
   d="m 2175.347,645.26409 c -0.4107,7.66179 6.4305,13.47646 13.6131,11.49261 4.3096,-1.23135 7.5248,-5.26747 7.7302,-9.91921 0.4106,-7.6617 -6.4303,-13.47637 -13.6131,-11.49253 -4.3096,1.23127 -7.5249,5.26738 -7.7988,9.91913 z"
   class="fil2" /><path
   class="fil2"
   d="m 2201.1049,638.33938 c -0.4107,7.66171 6.4301,13.47647 13.6131,11.4927 4.3098,-1.23153 7.525,-5.26754 7.7302,-9.91931 0.4105,-7.66169 -6.4305,-13.47639 -13.6135,-11.49261 -4.3096,1.23136 -7.5248,5.26747 -7.7984,9.91922 z"
   id="path19-9-0"
   style="clip-rule:evenodd;fill:#000000;fill-rule:nonzero;stroke-width:0.0684079;image-rendering:optimizeQuality;shape-rendering:geometricPrecision;text-rendering:geometricPrecision" /><path
   style="clip-rule:evenodd;fill:#000000;fill-rule:nonzero;stroke-width:0.0684079;image-rendering:optimizeQuality;shape-rendering:geometricPrecision;text-rendering:geometricPrecision"
   id="path19-9-0-3"
   d="m 2209.7877,664.70938 c -0.4107,7.6617 6.4303,13.47645 13.6131,11.49252 4.3096,-1.23135 7.5247,-5.26738 7.7302,-9.91912 0.4107,-7.66171 -6.4305,-13.47638 -13.6133,-11.49262 -4.3096,1.23136 -7.5248,5.26746 -7.7984,9.91922 z"
   class="fil2" /><g
   transform="matrix(5.8604072,-0.94589478,0.94589478,5.8604072,4686.6795,-1181.7689)"
   id="g2435"
   style="clip-rule:evenodd;fill-rule:evenodd;image-rendering:optimizeQuality;shape-rendering:geometricPrecision;text-rendering:geometricPrecision"><title
     id="title2379">Layer 1</title><!-- Created with Method Draw - http://github.com/duopixel/Method-Draw/ --><!-- Created with Method Draw - http://github.com/duopixel/Method-Draw/ --><g
     id="svg_139"
     stroke="null"><path
       d="m -440.89902,156.7425 c 0,0 5.18453,0.088 6.05922,-10.67022 0.49163,-5.99877 5.40064,-13.43653 12.64688,-6.84992 7.24325,6.58766 5.53275,-1.71245 10.00955,0.65859 4.48098,2.37206 3.42699,15.28121 8.17009,17.25579 4.7431,1.97667 -21.99994,4.7431 -21.99994,4.7431 l -13.30651,-4.47889 z"
       fill="#eaa918"
       id="svg_114"
       stroke="null"
       style="stroke-width:0.196763" /><path
       d="m -412.18337,143.63572 c -4.4768,-2.36999 -2.76643,5.9292 -10.00955,-0.65858 -7.2452,-6.58766 -12.15421,0.85011 -12.64688,6.84992 -0.34002,4.18281 -1.3325,6.72079 -2.4181,8.26746 l 11.24481,3.78442 c 0,0 13.99279,-1.44825 19.93824,-2.99685 -2.47973,-4.27813 -2.43579,-13.30143 -6.10852,-15.24637 z"
       fill="#c98909"
       id="svg_115"
       stroke="null"
       style="stroke-width:0.196763" /><path
       d="m -401.99358,158.36484 c 0,2.25635 -1.82622,4.08452 -4.0866,4.08452 h -31.34793 c -2.25635,0 -4.08451,-1.82817 -4.08451,-4.08452 v 0 c 0,-2.25426 1.82816,-4.08244 4.08451,-4.08244 h 31.34793 c 2.26051,0 4.0866,1.82818 4.0866,4.08244 z"
       fill="#723e14"
       id="svg_116"
       stroke="null"
       style="stroke-width:0.196763" /><path
       d="m -411.54324,158.36484 c 0,2.25635 -0.94841,4.08452 -2.11188,4.08452 h -16.19583 c -1.16659,0 -2.11085,-1.82817 -2.11085,-4.08452 v 0 c 0,-2.25426 0.94438,-4.08244 2.11085,-4.08244 h 16.19478 c 1.16452,0 2.11293,1.82818 2.11293,4.08244 z"
       fill="#49290a"
       id="svg_117"
       stroke="null"
       style="stroke-width:0.196763" /><path
       d="m -390.10866,156.56228 c 0,6.11762 -14.50483,11.07266 -32.40074,11.07266 -17.90008,0 -32.40491,-4.95518 -32.40491,-11.07266 0,-6.11552 14.50483,1.95625 32.40491,1.95625 17.89591,0 32.40074,-8.07177 32.40074,-1.95625 z"
       fill="#eaa918"
       id="svg_118"
       stroke="null"
       style="stroke-width:0.196763" /><path
       d="m -422.5094,158.51853 c -14.63082,0 -26.98176,-5.38322 -31.00999,-4.01495 4.02926,4.55261 16.37917,7.86386 31.00999,7.86386 14.62666,0 26.97969,-3.31021 31.00999,-7.86386 -4.0303,-1.36827 -16.38333,4.01495 -31.00999,4.01495 z"
       fill="#c98909"
       id="svg_119"
       stroke="null"
       style="stroke-width:0.196763" /><g
       id="svg_124"
       transform="matrix(0.66082782,0,0,0.66082782,-987.65824,-1224.8982)"
       stroke="null" /><g
       id="svg_125"
       transform="matrix(0.66082782,0,0,0.66082782,-987.65824,-1224.8982)"
       stroke="null" /><g
       id="svg_126"
       transform="matrix(0.66082782,0,0,0.66082782,-987.65824,-1224.8982)"
       stroke="null" /><g
       id="svg_127"
       transform="matrix(0.66082782,0,0,0.66082782,-987.65824,-1224.8982)"
       stroke="null" /><g
       id="svg_128"
       transform="matrix(0.66082782,0,0,0.66082782,-987.65824,-1224.8982)"
       stroke="null" /><g
       id="svg_129"
       transform="matrix(0.66082782,0,0,0.66082782,-987.65824,-1224.8982)"
       stroke="null" /><g
       id="svg_130"
       transform="matrix(0.66082782,0,0,0.66082782,-987.65824,-1224.8982)"
       stroke="null" /><g
       id="svg_131"
       transform="matrix(0.66082782,0,0,0.66082782,-987.65824,-1224.8982)"
       stroke="null" /><g
       id="svg_132"
       transform="matrix(0.66082782,0,0,0.66082782,-987.65824,-1224.8982)"
       stroke="null" /><g
       id="svg_133"
       transform="matrix(0.66082782,0,0,0.66082782,-987.65824,-1224.8982)"
       stroke="null" /><g
       id="svg_134"
       transform="matrix(0.66082782,0,0,0.66082782,-987.65824,-1224.8982)"
       stroke="null" /><g
       id="svg_135"
       transform="matrix(0.66082782,0,0,0.66082782,-987.65824,-1224.8982)"
       stroke="null" /><g
       id="svg_136"
       transform="matrix(0.66082782,0,0,0.66082782,-987.65824,-1224.8982)"
       stroke="null" /><g
       id="svg_137"
       transform="matrix(0.66082782,0,0,0.66082782,-987.65824,-1224.8982)"
       stroke="null" /><g
       id="svg_138"
       transform="matrix(0.66082782,0,0,0.66082782,-987.65824,-1224.8982)"
       stroke="null" /></g></g><g
   id="g3779"
   style="clip-rule:evenodd;fill-rule:evenodd;image-rendering:optimizeQuality;shape-rendering:geometricPrecision;text-rendering:geometricPrecision"
   transform="matrix(1.6469345,0,0,1.6469345,5155.1136,479.05647)"><g
     style="clip-rule:evenodd;fill-rule:evenodd;image-rendering:optimizeQuality;shape-rendering:geometricPrecision;text-rendering:geometricPrecision"
     id="kuze-7"
     transform="matrix(1.2711996,-0.01839777,0.01501659,1.0375758,-15396.079,-12517.392)"><path
       fill="#9a4121"
       d="m 11179.01,12429.446 c 2.416,-10.763 6.095,-26.751 9.85,-40.167 3.755,-13.415 30.525,-80.559 33.247,-81.031 192.243,86.25 597.736,42.934 617.677,38.986 1.228,0.446 2.211,1.286 3.032,2.306 0.821,1.021 1.481,2.222 2.064,3.391 8.814,17.678 13.464,38.637 16.198,60.041 2.734,21.404 3.552,43.251 4.701,62.705 1.921,32.54 0.979,64.948 -1.518,97.268 -2.497,32.32 -6.55,64.552 -10.85,96.738 -12.141,90.879 -34.418,180.073 -65.867,265.925 -31.449,85.852 -72.07,168.362 -120.902,245.872 -0.946,1.502 -1.919,3.03 -3.032,4.416 -1.114,1.385 -2.369,2.628 -3.88,3.559 -1.753,1.08 -3.715,1.658 -5.753,1.975 -2.038,0.317 -4.152,0.373 -6.211,0.408 -37.937,0.65 -75.927,-0.277 -113.733,-3.284 -37.806,-3.007 -75.428,-8.091 -112.629,-15.758 -10.594,-2.194 -28.119,-6.526 -42.256,-14.147 -14.137,-7.621 -24.885,-18.532 -21.923,-33.883 0.473,-2.452 1.386,-4.806 2.224,-7.17 0.838,-2.364 1.601,-4.738 1.775,-7.229 0.362,-5.187 -1.765,-9.774 -4.986,-13.892 -3.22,-4.118 -7.534,-7.767 -11.543,-11.078 -21.622,-17.856 -39.564,-38.726 -55.07,-61.394 -15.506,-22.668 -28.576,-47.133 -40.456,-72.179 -30.668,-64.654 -55.964,-134.231 -71.891,-205.624 -15.927,-71.393 -22.482,-144.602 -15.669,-216.52 1.417,-14.956 3.364,-29.862 5.838,-44.68 2.474,-14.818 5.474,-29.548 8.997,-44.152 0.206,-0.855 0.536,-2.321 0.97,-4.265 0.434,-1.944 0.974,-4.368 1.596,-7.137 z"
       id="kuz1-4" /><path
       fill="#7e3a1a"
       d="m 11824.485,12755.615 c 9.765,-49.741 17.279,-99.862 22.7,-150.247 5.42,-50.385 8.75,-101.033 10.151,-151.828 0.614,-22.298 -1.56,-44.664 -6.378,-66.443 -4.82,-21.779 -1.21,-19.906 -11.174,-39.863 40.816,-4.222 111.893,-16.225 111.893,-16.225 3.114,-0.258 13.407,39.463 18.758,61.769 5.352,22.306 10.148,45.847 11.046,50.527 9.657,50.326 12.936,101.609 11.053,152.771 -1.882,51.161 -8.926,102.2 -19.917,152.042 -5.574,25.276 -12.188,50.32 -19.766,75.069 -7.58,24.75 -16.123,49.205 -25.559,73.304 -15.884,40.567 -34.418,83.734 -58.183,123.366 -23.766,39.632 -52.763,75.727 -89.575,102.15 -0.99,0.711 -2.003,1.435 -2.909,2.251 -0.906,0.816 -1.707,1.726 -2.269,2.806 -1.006,1.931 -1.106,4.057 -0.886,6.24 0.221,2.182 0.763,4.421 1.042,6.582 0.753,5.82 -0.579,11.603 -3.268,16.818 -2.688,5.215 -12.162,11.897 -16.837,15.443 -36.578,14.992 -61.441,20.253 -103.144,19.32 29.16,-52.757 64.413,-114.573 88.752,-166.055 19.889,-42.942 36.456,-87.208 50.325,-132.329 13.867,-45.124 25.041,-91.101 34.145,-137.468 z"
       id="kuz2-5" /></g><g
     style="clip-rule:evenodd;fill-rule:evenodd;image-rendering:optimizeQuality;shape-rendering:geometricPrecision;text-rendering:geometricPrecision"
     id="dar-1"
     transform="matrix(1.3443176,-0.01945599,0.0176804,1.221633,-16275.166,-14741.69)"><path
       id="dar1-7"
       d="m 11833.706,12326.112 c -0.01,-0.04 -0.02,-0.09 -0.03,-0.13 -0.01,-0.04 -0.02,-0.09 -0.03,-0.13 -2.347,-10.237 -6.068,-25.125 -12.336,-37.95 -6.268,-12.825 -15.084,-23.588 -27.619,-25.574 -4.928,-0.78 -10.416,-0.519 -15.922,-0.02 -5.506,0.502 -11.032,1.244 -16.037,1.425 -10.652,0.583 -21.344,0.871 -32.038,1.04 -10.695,0.169 -21.393,0.219 -32.058,0.328 -69.209,0.703 -138.87,-1.79 -208.101,-8.573 -69.231,-6.783 -138.032,-17.858 -205.52,-34.318 -3.18,-0.776 -6.35,-1.489 -9.545,-1.937 -3.195,-0.448 -6.415,-0.629 -9.695,-0.341 -1.014,1.408 -1.912,2.954 -3.039,4.228 -1.127,1.274 -2.484,2.276 -4.418,2.597 -0.555,0.441 -1.109,0.883 -1.664,1.324 -0.555,0.441 -1.109,0.883 -1.664,1.324 -12.158,9.673 -25.731,17.229 -39.063,25.341 -13.332,8.112 -26.423,16.781 -37.615,28.68 -9.262,9.847 -16.165,20.997 -19.006,32.854 -2.841,11.857 -1.619,24.422 5.367,37.099 1.747,3.169 3.943,6.147 6.54,8.607 2.597,2.46 5.595,4.401 8.945,5.495 1.877,0.613 3.82,0.948 5.783,1.087 1.963,0.139 3.948,0.08 5.908,-0.09 10.532,-0.933 20.262,-5.004 29.368,-10.627 9.105,-5.624 17.586,-12.801 25.619,-19.948 1.967,-1.75 4.008,-3.546 6.2,-4.987 2.192,-1.441 4.534,-2.527 7.102,-2.858 4.881,-0.629 9.322,1.357 13.22,4.404 3.897,3.047 7.25,7.155 9.955,10.771 3.948,5.277 8.418,9.924 13.19,14.209 4.772,4.285 9.848,8.209 15.006,12.04 4.377,3.25 9.003,5.272 13.84,6.193 4.838,0.92 9.887,0.738 15.112,-0.422 4.98,-1.105 9.874,-2.457 14.658,-4.141 4.784,-1.685 9.456,-3.702 13.991,-6.138 4.701,-2.525 9.563,-4.553 14.533,-6.253 4.97,-1.7 10.048,-3.073 15.181,-4.287 6.451,-1.526 12.541,-1.506 18.299,-0.05 5.758,1.461 11.184,4.363 16.307,8.599 0.566,0.468 1.102,0.978 1.638,1.485 0.537,0.507 1.075,1.012 1.647,1.471 4.148,3.327 8.173,6.811 12.329,10.12 4.156,3.309 8.442,6.442 13.112,9.068 6.935,3.899 14.046,7.096 21.38,9.58 7.335,2.484 14.893,4.254 22.723,5.3 9.013,1.204 17.843,1.412 26.482,0.258 8.639,-1.154 17.086,-3.67 25.333,-7.914 5.873,-3.022 11.406,-6.586 16.826,-10.331 5.421,-3.745 10.728,-7.672 16.15,-11.42 2.104,-1.455 4.242,-2.871 6.414,-4.224 2.172,-1.353 4.38,-2.644 6.624,-3.847 3.13,-1.678 6.314,-2.823 9.616,-3.326 3.302,-0.503 6.721,-0.363 10.32,0.53 2.487,0.616 4.927,1.274 7.32,2.064 2.393,0.79 4.736,1.712 7.032,2.858 8.486,4.235 16.966,8.482 25.456,12.709 8.489,4.227 16.988,8.434 25.51,12.588 3.93,1.915 7.871,3.829 11.85,5.645 3.979,1.815 7.995,3.532 12.073,5.053 5.558,2.073 11.266,2.963 17.032,3.276 5.766,0.312 11.59,0.05 17.38,-0.193 10.764,-0.445 20.804,-2.718 30.061,-6.861 9.257,-4.143 17.73,-10.157 25.361,-18.083 3.065,-3.183 5.94,-6.563 8.789,-9.97 2.849,-3.408 5.673,-6.843 8.637,-10.138 2.069,-2.301 3.926,-4.895 6.076,-7.126 2.15,-2.231 4.595,-4.102 7.84,-4.957 0.258,-0.33 0.517,-0.66 0.775,-0.99 0.258,-0.33 0.516,-0.661 0.774,-0.992 0,-3.519 0.07,-6.912 -0.06,-10.292 -0.129,-3.382 -0.455,-6.749 -1.228,-10.217 z"
       fill="#fcb431" /><path
       id="dar2-8"
       d="m 11262.734,12220.392 c -65.945,-25.376 -44.253,-105.699 3.415,-119.999 8.115,-2.262 16.447,-3.412 24.857,-3.978 8.41,-0.566 16.896,-0.549 25.32,-0.478 41.756,0.352 83.48,1.825 125.202,3.414 41.722,1.589 83.441,3.295 125.185,4.113 20.812,0.408 41.633,0.604 62.45,0.455 20.817,-0.149 41.631,-0.644 62.428,-1.615 18.797,-0.878 38.915,-1.142 58.913,-2.185 19.998,-1.043 39.875,-2.864 58.188,-6.857 3.181,-0.694 8.642,-1.364 13.933,-1.204 5.291,0.16 10.411,1.151 12.91,3.78 1.682,1.769 2.898,3.872 3.858,6.12 0.96,2.248 1.663,4.642 2.322,6.993 2.957,10.554 5.55,21.262 7.372,32.071 1.822,10.809 2.871,21.72 2.741,32.68 -0.171,14.42 -2.705,28.533 -7.545,41.79 -4.84,13.257 -11.985,25.657 -21.377,36.652 -9.254,10.834 -21.335,13.847 -34.244,14.272 -12.909,0.424 -26.646,-1.74 -39.214,-1.261 -12.109,0.462 -24.222,0.815 -36.337,1.053 -12.115,0.238 -24.232,0.359 -36.35,0.356 -24.291,0 -48.582,-0.486 -72.854,-1.439 -24.272,-0.953 -48.526,-2.378 -72.743,-4.275 -25.627,-2.007 -51.213,-4.541 -76.736,-7.6 -25.523,-3.059 -50.983,-6.644 -76.358,-10.752 -18.854,-3.052 -38.35,-5.839 -57.801,-9.233 -19.452,-3.394 -38.859,-7.394 -57.535,-12.873 z m 74.594,-79.73 c 0.31,5.418 2.283,9.959 4.942,14.132 2.658,4.173 6.002,7.979 9.05,11.924 2.74,3.545 5.552,7.035 8.389,10.506 2.837,3.47 5.7,6.92 8.542,10.386 2.994,3.65 6.206,7.058 9.713,10.119 3.507,3.061 7.308,5.775 11.48,8.037 1.939,1.051 3.928,1.9 5.918,2.122 1.989,0.221 3.979,-0.185 5.918,-1.643 0.854,-2.223 1.027,-4.297 0.715,-6.242 -0.312,-1.946 -1.11,-3.763 -2.198,-5.475 -2.982,-4.69 -5.907,-9.43 -8.922,-14.104 -3.015,-4.674 -6.121,-9.281 -9.464,-13.707 -2.912,-3.856 -6.124,-7.484 -9.412,-11.057 -3.287,-3.572 -6.65,-7.089 -9.864,-10.72 -0.71,-0.802 -1.35,-1.665 -1.972,-2.545 -0.622,-0.88 -1.224,-1.776 -1.859,-2.645 -3.977,-5.438 -7.233,-8.104 -10.49,-7.963 -3.255,0.14 -6.511,3.087 -10.486,8.875 z m 9.11,57.443 c 0.928,-1.187 1.416,-2.539 1.527,-3.922 0.111,-1.383 -0.155,-2.796 -0.735,-4.103 -0.944,-2.129 -2.009,-4.214 -3.153,-6.257 -1.144,-2.043 -2.366,-4.046 -3.624,-6.012 -0.965,-1.508 -2.012,-2.981 -3.128,-4.399 -1.116,-1.418 -2.301,-2.783 -3.542,-4.073 -3.384,-3.52 -6.784,-7.028 -10.223,-10.496 -3.439,-3.468 -6.918,-6.895 -10.461,-10.254 -1.473,-1.396 -3.388,-1.632 -5.03,-1.029 -1.642,0.603 -3.012,2.047 -3.394,4.01 -0.586,3.013 -0.549,5.876 0.14,8.579 0.689,2.703 2.029,5.248 4.048,7.624 1.281,1.508 2.485,3.083 3.694,4.651 1.21,1.569 2.426,3.132 3.731,4.617 3.231,3.673 6.549,7.262 10.129,10.552 3.58,3.291 7.422,6.284 11.7,8.765 1.208,0.701 2.432,1.537 3.782,1.998 1.352,0.461 2.828,0.547 4.539,-0.251 z"
       fill="#ffc431" /><path
       id="dar3-2"
       d="m 11800.944,12260.598 c 1.546,0.687 3.119,1.437 4.738,1.85 1.619,0.412 3.284,0.489 5.013,-0.17 2.375,-0.906 4.794,-1.22 7.23,-1.356 2.436,-0.136 4.886,-0.1 7.325,-0.294 4.125,-0.335 8.25,-0.718 12.366,-1.16 4.117,-0.443 8.226,-0.945 12.32,-1.52 6.137,-0.861 12.261,-1.805 18.382,-2.769 6.121,-0.965 12.239,-1.949 18.364,-2.892 9.053,-1.393 16.389,-2.775 23.508,-2.54 7.12,0.236 14.024,2.088 22.212,7.163 11.648,7.218 24.098,16.504 34.674,27.174 10.576,10.67 19.276,22.726 23.42,35.485 5.817,17.907 -1.37,31.186 -14.181,40.104 -12.81,8.919 -31.245,13.477 -47.925,13.945 -9.234,0.258 -18.471,-0.413 -27.591,-1.799 -9.119,-1.385 -18.12,-3.487 -26.883,-6.088 -8.469,-2.513 -16.495,-5.995 -24.527,-9.469 -8.033,-3.474 -16.071,-6.94 -24.562,-9.424 -0.292,-0.08 -0.588,-0.174 -0.867,-0.289 -0.279,-0.116 -0.54,-0.26 -0.759,-0.457 -0.45,-0.403 -0.644,-0.938 -0.704,-1.515 -0.06,-0.578 0.01,-1.198 0.09,-1.771 0.876,-6.216 0.68,-12.438 -0.324,-18.564 -1.004,-6.126 -2.815,-12.155 -5.168,-17.986 -1.031,-2.555 -2.125,-5.159 -3.306,-7.726 -1.181,-2.568 -2.45,-5.099 -3.832,-7.512 -1.465,-2.557 -3.393,-4.843 -5.286,-7.148 -1.893,-2.305 -3.748,-4.628 -5.069,-7.257 -0.288,-0.573 -0.547,-1.162 -0.831,-1.738 -0.284,-0.577 -0.591,-1.14 -0.976,-1.664 -0.641,-0.872 -1.476,-1.607 -2.294,-2.352 -0.817,-0.744 -1.618,-1.499 -2.19,-2.411 -1.089,-1.738 -0.784,-2.975 0.111,-3.978 0.895,-1.004 2.38,-1.774 3.654,-2.575 0.645,-0.217 1.29,-0.433 1.934,-0.65 0.645,-0.217 1.287,-0.43 1.932,-0.647 z"
       fill="#f0a02a" /><path
       id="dar4-5"
       d="m 11958.309,12148.97 c 8.297,10.225 13.893,21.508 15.498,33.594 1.605,12.085 -0.783,24.971 -8.454,38.402 -7.459,13.058 -18.628,19.624 -31.149,23.862 -12.521,4.239 -26.395,6.149 -39.263,9.899 -2.862,0.834 -5.817,1.343 -8.798,1.769 -2.98,0.425 -5.986,0.765 -8.949,1.262 -6.105,1.02 -12.202,2.087 -18.303,3.132 -6.101,1.044 -12.205,2.067 -18.323,3 -4.081,0.623 -8.176,1.167 -12.28,1.647 -4.103,0.479 -8.214,0.894 -12.326,1.256 -2.431,0.214 -4.875,0.171 -7.302,0.319 -2.427,0.148 -4.839,0.488 -7.206,1.469 -1.724,0.714 -3.383,0.632 -4.997,0.184 -1.613,-0.447 -3.181,-1.26 -4.722,-2.004 0.552,-0.961 1.078,-1.938 1.62,-2.906 0.542,-0.969 1.097,-1.926 1.708,-2.848 2.682,-4.048 5.526,-8.005 8.284,-12.008 2.758,-4.004 5.43,-8.054 7.768,-12.289 11.138,-20.171 15.275,-43.484 14.243,-66.806 -1.032,-23.322 -7.235,-46.652 -16.775,-66.857 -0.605,-1.282 -1.111,-2.611 -1.618,-4.032 -0.508,-1.421 -1.019,-2.934 -1.635,-4.585 2.255,-0.367 4.28,-0.696 6.189,-1.006 1.908,-0.31 3.702,-0.602 5.496,-0.894 19.216,-3.125 46.613,1.215 73.168,11.22 26.555,10.008 52.27,25.68 68.126,45.22 z"
       fill="#fcb431" /><path
       id="darlak1-4"
       d="m 11337.328,12140.662 c 3.975,-5.788 7.231,-8.735 10.487,-8.876 3.256,-0.141 6.513,2.525 10.49,7.963 0.635,0.868 1.238,1.765 1.859,2.645 0.622,0.88 1.262,1.743 1.972,2.545 3.214,3.631 6.577,7.148 9.864,10.72 3.287,3.572 6.499,7.201 9.412,11.057 3.343,4.426 6.448,9.034 9.464,13.707 3.016,4.673 5.94,9.414 8.922,14.104 1.088,1.711 1.885,3.529 2.198,5.475 0.312,1.946 0.139,4.019 -0.715,6.242 -1.939,1.458 -3.929,1.864 -5.918,1.643 -1.989,-0.221 -3.979,-1.07 -5.918,-2.122 -4.172,-2.263 -7.973,-4.977 -11.48,-8.037 -3.507,-3.061 -6.719,-6.469 -9.713,-10.119 -2.842,-3.465 -5.705,-6.916 -8.542,-10.386 -2.837,-3.47 -5.649,-6.96 -8.389,-10.506 -3.049,-3.945 -6.392,-7.751 -9.05,-11.924 -2.659,-4.172 -4.633,-8.714 -4.943,-14.131 z"
       fill="#fcb22e" /><path
       id="darlak2-5"
       d="m 11346.438,12198.105 c -1.712,0.798 -3.187,0.712 -4.537,0.251 -1.35,-0.461 -2.574,-1.297 -3.782,-1.998 -4.278,-2.482 -8.12,-5.474 -11.7,-8.765 -3.58,-3.291 -6.898,-6.879 -10.129,-10.552 -1.306,-1.485 -2.522,-3.048 -3.731,-4.617 -1.21,-1.569 -2.413,-3.144 -3.694,-4.651 -2.019,-2.376 -3.359,-4.921 -4.048,-7.624 -0.689,-2.703 -0.726,-5.566 -0.14,-8.579 0.382,-1.964 1.752,-3.407 3.394,-4.01 1.642,-0.603 3.557,-0.367 5.03,1.029 3.543,3.358 7.022,6.786 10.461,10.254 3.439,3.468 6.839,6.976 10.223,10.496 1.241,1.291 2.426,2.655 3.542,4.073 1.116,1.418 2.163,2.891 3.128,4.399 1.258,1.966 2.481,3.968 3.624,6.012 1.143,2.044 2.209,4.128 3.153,6.257 0.58,1.308 0.846,2.721 0.735,4.103 -0.111,1.382 -0.601,2.735 -1.529,3.922 z"
       fill="#fcb22e" /></g><path
     fill="#f4e8d7"
     d="m -465.21579,342.73 c -21.6688,-24.6456 112.3029,-109.683 158.2102,-111.0887 45.9063,-1.4067 155.6171,346.8964 38.7641,372.6698 -50.1057,11.0546 -319.4002,32.2393 -522.6012,4.6916 -42.4674,-5.7578 -46.0017,-107.8143 -20.6318,-147.1878 34.0624,-52.8782 113.7092,-38.4847 167.6942,-19.63 120.5763,42.1124 199.8323,75.5346 231.2028,26.1106 24.4682,-38.5503 -30.9677,-100.919 -52.6383,-125.5655 z"
     id="be-3"
     style="clip-rule:evenodd;fill-rule:evenodd;stroke-width:0.916273;image-rendering:optimizeQuality;shape-rendering:geometricPrecision;text-rendering:geometricPrecision" /><ellipse
     fill="#f4e8d7"
     id="noq-0"
     cx="-485.02252"
     cy="743.62958"
     rx="90.141136"
     ry="87.324234"
     style="clip-rule:evenodd;fill-rule:evenodd;stroke-width:0.916273;image-rendering:optimizeQuality;shape-rendering:geometricPrecision;text-rendering:geometricPrecision"
     transform="rotate(-0.82917028)" /><path
     class="fil62"
     d="m -583.29719,12.700605 c -8.4717,-0.3895 -16.0963,-0.7401 -24.568,-1.1296 -224.4694,-11.0337 -308.351,-34.1335 -311.7087,-35.0005 -6.7154,-1.7342 -8.2551,-5.3685 -4.7581,-7.7022 3.5125,-2.6893 11.1679,-3.05 17.8834,-1.3158 1.6789,0.4335 83.8971,22.7441 299.9102,33.0327 194.8183,9.6703 335.7582,9.0236 419.8911,6.8341 91.772998,-2.1947 132.750898,-13.1276 144.225698,-15.9541 4.0913,-0.6827 4.249,-1.6626 5.9033,0.9768 1.658,2.645 0.2628,5.0497 -3.4997,7.2708 -3.762,2.221 -48.5587,16.8482 -142.025898,18.965 -81.576,1.9508 -216.57,2.5145 -401.2533,-5.9772 z"
     id="path16507-1"
     style="clip-rule:evenodd;fill:#c18142;fill-rule:nonzero;stroke-width:0.54945;image-rendering:optimizeQuality;shape-rendering:geometricPrecision;text-rendering:geometricPrecision"
     sodipodi:nodetypes="scscscccszcs" /><path
     class="fil62"
     d="m -786.61649,374.0595 2.2782,-0.033 c 6.0661,-0.6952 10.5521,-5.6199 9.7136,-11.0747 -0.018,-1.2147 -18.9247,-100.5635 -20.6685,-168.5731 -1.7351,-67.4022 48.1883,-186.578195 48.9301,-187.803895 2.2077,-4.8915 -0.9088,-10.3135 -7.7694,-12.0365 -6.1015,-1.7341 -12.9007,0.7941 -15.0997,6.293 -2.2077,4.8916 -52.1311,124.067595 -50.3521,194.506495 1.7614,69.2242 20.6861,169.7876 21.463,170.9913 0.8297,4.8476 6.1892,7.8073 11.5048,7.7304 z"
     id="path16529-9"
     style="clip-rule:evenodd;fill:#c18142;fill-rule:nonzero;stroke-width:0.679183;image-rendering:optimizeQuality;shape-rendering:geometricPrecision;text-rendering:geometricPrecision" /><path
     class="fil62"
     d="m -716.49059,391.262 1.5188,-0.022 c 6.826,-0.6736 11.3241,-4.7623 10.4898,-9.9235 -0.025,-1.724 -18.9269,-153.199 -19.0408,-213.5519 -0.1306,-61.5023 -9.7979,-152.181595 -9.8062,-152.756295 -0.8342,-5.1612 -6.1997,-8.5324 -13.0341,-8.4335 -6.8259,0.6736 -11.324,4.7623 -11.2491,9.9345 0.017,1.1494 8.9078,90.690295 9.7895,151.606995 0.1304,61.5022 18.2149,208.9654 19.0658,215.276 0.826,4.5864 5.432,7.9686 11.507,7.8807 z"
     id="path16531-4"
     style="clip-rule:evenodd;fill:#c18142;fill-rule:nonzero;stroke-width:0.660681;image-rendering:optimizeQuality;shape-rendering:geometricPrecision;text-rendering:geometricPrecision" /></g></g>
</svg>
