<?xml version="1.0" encoding="UTF-8" standalone="no"?>
<svg
   xmlns:dc="http://purl.org/dc/elements/1.1/"
   xmlns:cc="http://creativecommons.org/ns#"
   xmlns:rdf="http://www.w3.org/1999/02/22-rdf-syntax-ns#"
   xmlns:svg="http://www.w3.org/2000/svg"
   xmlns="http://www.w3.org/2000/svg"
   xmlns:sodipodi="http://sodipodi.sourceforge.net/DTD/sodipodi-0.dtd"
   xmlns:inkscape="http://www.inkscape.org/namespaces/inkscape"
   inkscape:version="1.0 (4035a4f, 2020-05-01)"
   sodipodi:docname="Group 865.svg"
   id="svg843"
   version="1.1"
   fill="none"
   viewBox="0 0 128 128"
   height="128"
   width="128">
  <metadata
     id="metadata849">
    <rdf:RDF>
      <cc:Work
         rdf:about="">
        <dc:format>image/svg+xml</dc:format>
        <dc:type
           rdf:resource="http://purl.org/dc/dcmitype/StillImage" />
        <dc:title></dc:title>
      </cc:Work>
    </rdf:RDF>
  </metadata>
  <defs
     id="defs847" />
  <sodipodi:namedview
     inkscape:current-layer="svg843"
     inkscape:window-maximized="0"
     inkscape:window-y="0"
     inkscape:window-x="0"
     inkscape:cy="75.708671"
     inkscape:cx="50.00414"
     inkscape:zoom="2.5015651"
     inkscape:showpageshadow="false"
     showgrid="false"
     id="namedview845"
     inkscape:window-height="768"
     inkscape:window-width="1366"
     inkscape:pageshadow="2"
     inkscape:pageopacity="0"
     guidetolerance="10"
     gridtolerance="10"
     objecttolerance="10"
     borderopacity="1"
     bordercolor="#666666"
     pagecolor="#ffffff" />
  <path
     style="stroke-width:0.249906"
     id="path833"
     fill="#023800"
     d="m 60.285571,26.503771 -18.522277,9.022104 c -1.664373,0.834935 -2.98645,2.226911 -3.738442,3.933519 L 14.917435,97.386831 c -2.388603,5.409969 0.04768,11.733589 5.442193,14.123429 l 22.983822,10.18442 h 17.069073 z" />
  <path
     style="stroke-width:0.249906"
     id="path835"
     fill="#035000"
     d="m 111.77069,105.37982 v 11.1593 c 0,6.21267 -5.1978,11.41296 -11.41295,11.41296 H 53.43765 c -6.215161,0 -11.159299,-5.20029 -11.159299,-11.41296 V 50.851354 c 0,-1.959512 0.555541,-3.817312 1.803071,-5.328494 L 58.188611,28.430295 c 1.603146,-1.942767 3.889036,-3.194796 6.408337,-3.194796 h 24.601488 c 2.519301,0 4.805194,1.252029 6.408584,3.194796 l 14.10719,17.092565 c 1.24728,1.511182 2.05673,3.369232 2.05673,5.328494 v 45.651809 8.876657 z" />
  <path
     style="stroke-width:0.249906"
     id="path837"
     fill="#cba677"
     d="m 81.03201,40.704675 c -0.825689,0 -1.585403,-0.541546 -1.826312,-1.374233 -0.291891,-1.00912 0.28964,-2.063972 1.298761,-2.355863 0.215918,-0.06223 0.432837,-0.130701 0.645507,-0.203423 5.800316,-1.980005 9.697099,-7.431202 9.697099,-13.564818 V 1.9021589 C 90.847065,0.85165932 91.698743,0 92.749349,0 93.799703,0 94.65138,0.85165932 94.65138,1.9021589 V 23.206338 c 0,7.761253 -4.931891,14.659405 -12.272627,17.164961 -0.269149,0.09197 -0.544046,0.178684 -0.817443,0.257904 -0.176183,0.05123 -0.354366,0.07547 -0.5293,0.07547 z" />
  <path
     style="stroke-width:0.249906"
     id="path839"
     fill="#f5f5f5"
     d="m 77.024519,45.398408 c -3.286513,0 -5.960006,-2.673744 -5.960006,-5.960257 0,-3.286262 2.673493,-5.960005 5.960006,-5.960005 3.286513,0 5.960005,2.673743 5.960005,5.960005 0,3.286513 -2.673492,5.960257 -5.960005,5.960257 z" />
  <path
     style="stroke-width:0.249906"
     id="path841"
     fill="#ffffff"
     d="m 47.418665,84.636635 c -0.127202,-1.623389 0.180932,-3.119576 0.924153,-4.488561 0.752966,-1.37873 1.765084,-2.508305 3.036357,-3.388474 1.271271,-0.889916 2.635257,-1.412969 4.092459,-1.569409 0.547543,-0.05873 1.124577,-0.0049 1.730848,0.161438 0.616018,0.156442 0.933899,0.503562 0.953391,1.041359 -0.02924,0.322628 -0.234662,0.601274 -0.616018,0.836186 -0.37161,0.224914 -0.845931,0.44983 -1.422964,0.674745 -0.801699,0.303136 -1.628137,0.723478 -2.478817,1.261275 -0.85093,0.538048 -1.530424,1.325251 -2.038983,2.361611 -0.801948,1.985253 -0.787203,3.813812 0.04398,5.486185 0.840933,1.66237 2.298134,2.742964 4.371104,3.241531 1.466948,0.32288 2.987625,0.17618 4.562033,-0.440087 1.065848,-0.459578 1.946017,-1.129323 2.640256,-2.009494 0.703984,-0.88017 1.041357,-1.897031 1.012118,-3.051101 -0.05872,-0.762712 -0.180931,-1.466697 -0.366612,-2.112204 -0.156441,-0.547544 -0.254404,-1.051104 -0.29339,-1.510681 -0.0097,-0.674746 0.200425,-1.19305 0.630763,-1.554914 0.430088,-0.37161 0.919154,-0.513307 1.466697,-0.42534 0.557541,0.08797 1.017117,0.484068 1.378981,1.188052 0.254155,0.567287 0.435087,1.134324 0.542547,1.70161 0.322878,1.613392 0.220166,3.217288 -0.307885,4.811192 -0.518304,1.593895 -1.369234,2.977625 -2.552288,4.151181 -1.525676,1.43746 -3.227036,2.327373 -5.104579,2.669496 -1.867797,0.342374 -3.69161,0.195682 -5.471439,-0.439834 -1.779831,-0.626016 -3.285764,-1.672373 -4.5178,-3.139069 -1.232286,-1.466949 -1.970508,-3.285763 -2.214917,-5.456693 z m 9.211782,-3.051102 c 0.723478,-0.195426 1.388477,-0.136948 1.99475,0.176183 0.606272,0.303136 0.997624,0.752968 1.173558,1.349493 0.146694,0.723476 0.0097,1.325003 -0.410846,1.804067 -0.410596,0.479324 -0.870172,0.78246 -1.378731,0.909415 -1.00712,0.195674 -1.804321,0.0097 -2.39085,-0.557298 -0.577032,-0.577027 -0.816693,-1.242029 -0.718729,-1.994995 0.107459,-0.752967 0.684492,-1.315255 1.730848,-1.686865 z m 18.228138,2.801697 v 3.329743 h -0.630763 c -1.300511,0 -2.302883,-0.234662 -3.007118,-0.703983 -0.703984,-0.479324 -1.207545,-1.119833 -1.510681,-1.921778 -0.303136,-0.801701 -0.484068,-1.706357 -0.542796,-2.713477 -0.04898,-1.007371 -0.06347,-2.053727 -0.04398,-3.139068 0,-0.07821 0,-0.156441 0,-0.234662 l 0.05872,-6.131442 c 0.04873,-0.723727 0.322629,-1.237034 0.82144,-1.54017 0.508309,-0.303136 1.007122,-0.312882 1.495936,-0.02924 0.498813,0.283394 0.762964,0.948393 0.792203,1.99475 l -0.117456,8.683731 c 0.04898,0.938896 0.303386,1.579405 0.762963,1.921526 0.469323,0.342368 1.031612,0.50356 1.686865,0.484066 z m -0.05873,0 c 0.273897,0 0.542795,0.07347 0.806696,0.220169 0.273897,0.136698 0.484068,0.342114 0.630763,0.616014 0.146694,0.263905 0.220168,0.537796 0.220168,0.821438 0,0.293393 -0.07347,0.572034 -0.220168,0.835939 -0.136948,0.264148 -0.342121,0.469573 -0.616017,0.616266 -0.264151,0.146692 -0.537799,0.219917 -0.821442,0.219917 -0.29339,0 -0.572034,-0.07322 -0.836185,-0.219917 -0.263901,-0.146693 -0.469324,-0.352118 -0.616018,-0.616266 -0.146695,-0.263905 -0.219917,-0.542546 -0.219917,-0.835939 0,-0.283642 0.07322,-0.557533 0.219917,-0.821438 0.156441,-0.2739 0.366861,-0.479316 0.630762,-0.616014 0.264151,-0.146701 0.537799,-0.220169 0.821441,-0.220169 z m 7.403713,-2.55229 c -0.645257,-0.08797 -1.193052,-0.0097 -1.642882,0.234661 -0.440084,0.244408 -0.723478,0.518304 -0.850679,0.82144 -0.127202,0.332625 -0.112458,0.723729 0.04398,1.17356 0.166188,0.440085 0.435086,0.816437 0.806696,1.129324 0.459577,0.361859 0.973134,0.542797 1.54017,0.542797 0.577033,-0.0097 1.070847,-0.23466 1.481692,-0.674746 0.449832,-0.528054 0.591528,-1.139323 0.42534,-1.833562 -0.156441,-0.694238 -0.757965,-1.158813 -1.80432,-1.393474 z m -7.334239,2.55229 h 0.234662 c 0.47932,-0.02926 0.831436,-0.210173 1.056352,-0.542797 0.234662,-0.332375 0.430088,-0.74322 0.586529,-1.232037 0.08822,-0.224915 0.180932,-0.449831 0.278896,-0.674745 0.146694,-0.459577 0.356865,-0.889915 0.630762,-1.290765 0.469323,-0.684492 1.070597,-1.227287 1.804071,-1.628387 0.733473,-0.400849 1.554914,-0.606272 2.464322,-0.616017 1.222289,0.01974 2.22966,0.308133 3.021612,0.865424 0.801948,0.55754 1.38373,1.266523 1.745592,2.126948 0.371611,0.860676 0.523304,1.760338 0.45483,2.698983 -0.176184,1.652628 -0.811695,2.860421 -1.907032,3.623136 -1.085342,0.772465 -2.307882,1.114831 -3.66712,1.026862 -1.349492,-0.08797 -2.508306,-0.586777 -3.476441,-1.496184 -0.254155,-0.264148 -0.474071,-0.547791 -0.660002,-0.850927 -0.498811,0.508552 -1.080593,0.880163 -1.745592,1.114832 -0.263901,0.136942 -0.537797,0.205417 -0.821441,0.205417 -0.283393,0 -0.55729,-0.07322 -0.82144,-0.219917 -0.263901,-0.146693 -0.469324,-0.352118 -0.616019,-0.616266 -0.146695,-0.263905 -0.219916,-0.542546 -0.219916,-0.835939 0,-0.283642 0.07322,-0.557533 0.219916,-0.821438 0.146695,-0.2739 0.352118,-0.479316 0.616019,-0.616014 0.26415,-0.146701 0.538047,-0.220169 0.82144,-0.220169 z m 18.074944,0.938895 c 0.684493,-0.04901 1.110087,-0.31788 1.276267,-0.806946 0.16619,-0.488817 0.083,-0.963138 -0.249403,-1.422715 -0.322628,-0.469323 -0.880168,-0.699237 -1.67212,-0.68949 -0.401099,0.02949 -0.733474,0.190678 -0.997625,0.484067 -0.2639,0.29339 -0.37161,0.674746 -0.322628,1.14407 0.06848,0.361862 0.293389,0.669999 0.674746,0.924153 0.391103,0.244404 0.821441,0.366861 1.290763,0.366861 z M 97.6675,84.38723 c 0.27389,0 0.54279,0.06851 0.80694,0.205417 0.2639,0.1467 0.46932,0.356866 0.61602,0.630766 0.15643,0.263905 0.23466,0.537796 0.23466,0.821438 0,0.293393 -0.0735,0.572034 -0.21992,0.835939 -0.1467,0.264148 -0.35211,0.469573 -0.61627,0.616266 -0.2639,0.146692 -0.53779,0.219917 -0.82143,0.219917 h -1.76009 c -0.58678,1.701608 -1.7211,3.021613 -3.403221,3.960507 -0.537797,0.293394 -1.119578,0.51331 -1.745342,0.660003 -0.626015,0.1467 -1.242032,0.180937 -1.848304,0.102712 -0.244408,-0.02926 -0.528052,-0.112455 -0.85068,-0.249405 -0.312882,-0.13695 -0.50381,-0.342122 -0.572034,-0.616022 -0.01003,-0.22491 0.10246,-0.430335 0.337372,-0.616014 0.234662,-0.17618 0.498563,-0.32763 0.791952,-0.454829 0.29339,-0.117205 0.528051,-0.200423 0.704235,-0.249404 1.437459,-0.449829 2.49356,-1.305513 3.168307,-2.566784 -0.938896,-0.01003 -1.799322,-0.278894 -2.581777,-0.806947 -0.782207,-0.528054 -1.305509,-1.281018 -1.56941,-2.258899 -0.18593,-0.743221 -0.146695,-1.49119 0.117206,-2.244156 0.26415,-0.762713 0.718978,-1.413218 1.364236,-1.951016 0.645507,-0.547544 1.452203,-0.865423 2.420338,-0.953391 1.447206,-0.07821 2.562042,0.342371 3.344492,1.261526 0.63551,0.811694 0.95814,1.725849 0.96789,2.742967 0.01,0.293389 0.01,0.59153 0,0.894666 z m -0.0285,0 c 0.28364,0 0.55754,0.07347 0.82144,0.220169 0.26415,0.136698 0.46957,0.342114 0.61627,0.616014 0.15644,0.263905 0.23466,0.537796 0.23466,0.821438 0,0.293393 -0.0735,0.572034 -0.22017,0.835939 -0.14669,0.264148 -0.35186,0.469573 -0.61602,0.616266 -0.26389,0.146692 -0.54279,0.219917 -0.83618,0.219917 -0.2834,0 -0.55729,-0.07322 -0.82144,-0.219917 -0.27365,-0.146693 -0.47907,-0.352118 -0.61602,-0.616266 -0.1467,-0.263905 -0.21992,-0.542546 -0.21992,-0.835939 0,-0.283642 0.0732,-0.557533 0.21992,-0.821438 0.14669,-0.2739 0.35212,-0.479316 0.61602,-0.616014 0.26415,-0.146701 0.53804,-0.220169 0.82144,-0.220169 z m 0.0147,3.329743 V 84.38723 h 2.2589 c 1.02686,-0.08797 1.74059,-0.557292 2.14169,-1.408222 0.4106,-0.860426 0.49382,-1.740594 0.24941,-2.640256 -0.29339,-1.046355 -0.33738,-1.760087 -0.1322,-2.141443 0.20542,-0.381607 0.5233,-0.494064 0.95364,-0.337374 0.43984,0.156441 0.85568,0.518055 1.24678,1.085342 0.40085,0.55729 0.65026,1.261526 0.74797,2.112204 0.10771,1.095339 -0.0145,2.131948 -0.36661,3.109833 -0.35212,0.96813 -0.94365,1.774824 -1.77484,2.420083 -0.80194,0.626016 -1.8483,1.002377 -3.13907,1.129576 -1.41796,0 -2.14644,0 -2.18567,0 z m 3.41771,-15.416445 c 1.09534,0.107461 1.89729,0.303137 2.4056,0.58678 0.5183,0.283393 0.63576,0.572035 0.35212,0.865424 -0.2739,0.293389 -1.05611,0.513306 -2.34687,0.660001 -0.67475,0.08797 -1.51593,0.185931 -2.52305,0.29339 -0.99738,0.10746 -1.89704,0.161439 -2.69899,0.161439 -0.0782,0 -0.16144,0 -0.24941,0 -0.44008,0.0097 -0.79195,-0.03424 -1.0561,-0.1322 -0.27389,-0.09771 -0.41059,-0.37161 -0.41059,-0.82144 0.0487,-0.557291 0.34212,-0.95814 0.87992,-1.202798 0.52805,-0.244408 1.15406,-0.386105 1.87754,-0.425339 0.72373,-0.04873 1.38373,-0.06848 1.98026,-0.05872 0.18592,0.01003 0.35212,0.01475 0.49881,0.01475 0.0588,0 0.1222,0 0.19068,0 0.36186,-0.0097 0.53305,-0.0097 0.5133,0 -0.0195,0 0.17619,0.01949 0.58678,0.05872 z" />
</svg>
