<?xml version="1.0" encoding="UTF-8" standalone="no"?>
<svg
   xmlns:dc="http://purl.org/dc/elements/1.1/"
   xmlns:cc="http://creativecommons.org/ns#"
   xmlns:rdf="http://www.w3.org/1999/02/22-rdf-syntax-ns#"
   xmlns:svg="http://www.w3.org/2000/svg"
   xmlns="http://www.w3.org/2000/svg"
   xmlns:sodipodi="http://sodipodi.sourceforge.net/DTD/sodipodi-0.dtd"
   xmlns:inkscape="http://www.inkscape.org/namespaces/inkscape"
   inkscape:version="1.0 (4035a4f, 2020-05-01)"
   sodipodi:docname="deliveryfee.svg"
   id="svg6415"
   version="1.1"
   height="512"
   width="512">
  <metadata
     id="metadata6421">
    <rdf:RDF>
      <cc:Work
         rdf:about="">
        <dc:format>image/svg+xml</dc:format>
        <dc:type
           rdf:resource="http://purl.org/dc/dcmitype/StillImage" />
      </cc:Work>
    </rdf:RDF>
  </metadata>
  <defs
     id="defs6419" />
  <sodipodi:namedview
     inkscape:current-layer="svg_47"
     inkscape:window-maximized="0"
     inkscape:window-y="0"
     inkscape:window-x="0"
     inkscape:cy="155.96663"
     inkscape:cx="190.56527"
     inkscape:zoom="0.5344485"
     showgrid="false"
     id="namedview6417"
     inkscape:window-height="768"
     inkscape:window-width="1366"
     inkscape:pageshadow="2"
     inkscape:pageopacity="0"
     guidetolerance="10"
     gridtolerance="10"
     objecttolerance="10"
     borderopacity="1"
     bordercolor="#666666"
     pagecolor="#ffffff" />
  <!-- Created with Method Draw - http://github.com/duopixel/Method-Draw/ -->
  <g
     id="g6366">
    <title
       id="title6360">background</title>
    <rect
       x="-1"
       y="-1"
       width="514"
       height="514"
       id="canvas_background"
       fill="none" />
    <g
       id="canvasGrid"
       width="100%"
       height="100%"
       x="0"
       y="0"
       overflow="visible"
       display="none">
      <rect
         id="rect6363"
         width="100%"
         height="100%"
         x="0"
         y="0"
         stroke-width="0"
         fill="url(#gridpattern)" />
    </g>
  </g>
  <g
     id="g6413">
    <title
       id="title6368">Layer 1</title>
    <g
       id="svg_47"
       stroke="null">
      <rect
         x="510.546216"
         y="228.178499"
         width="34.133"
         height="341.333"
         fill="#EBEBEC"
         id="svg_5"
         transform="matrix(0.9929961552547804,0,0,0.9929961552547804,-109.15706518245489,-105.39453867951406) "
         stroke="null" />
      <circle
         style="fill:#80c904;fill-opacity:1"
         cx="527.613216"
         cy="202.578499"
         r="93.866997"
         fill="#6AC8B7"
         id="svg_6"
         transform="matrix(0.9929961552547804,0,0,0.9929961552547804,-109.15706518245489,-105.39453867951406) "
         stroke="null" />
      <path
         style="fill:#44aa00"
         d="m431.707302,180.500473c-51.477914,0 -93.20957,-41.731656 -93.20957,-93.20957c0,-33.120394 17.276147,-62.202272 43.307541,-78.735658c-35.212637,13.315085 -60.254014,47.335134 -60.254014,87.209887c0,51.477914 41.731656,93.20957 93.20957,93.20957c18.35752,0 35.473795,-5.310543 49.902029,-14.473912c-10.246727,3.872685 -21.351403,5.999683 -32.955556,5.999683z"
         fill="#2DB59F"
         id="svg_7"
         stroke="null" />
      <path
         d="m414.76083,27.976264c-37.379354,0 -67.788869,30.409514 -67.788869,67.788869c0,4.679991 3.794238,8.473236 8.473236,8.473236l118.630272,0c4.679991,0 8.473236,-3.794238 8.473236,-8.473236c0,-37.379354 -30.409514,-67.788869 -67.787876,-67.788869z"
         fill="#EBEBEC"
         id="svg_8"
         stroke="null" />
      <path
         d="m363.919427,95.765132c0,-34.507609 25.924151,-63.055256 59.314639,-67.239742c-2.778403,-0.348542 -5.602484,-0.549127 -8.473236,-0.549127c-37.379354,0 -67.788869,30.409514 -67.788869,67.788869c0,4.679991 3.794238,8.473236 8.473236,8.473236l16.947465,0c-4.679991,0 -8.473236,-3.794238 -8.473236,-8.473236z"
         fill="#D7D8D9"
         id="svg_9"
         stroke="null" />
      <path
         d="m438.974048,74.703684c2.40603,-4.01369 1.106198,-9.217983 -2.9065,-11.626992c-4.016669,-2.40603 -9.218976,-1.107191 -11.626992,2.9065l-23.057371,38.43193l19.763602,0l17.82726,-29.711438z"
         fill="#4C4E55"
         id="svg_10"
         stroke="null" />
      <g
         style="fill:#44aa00"
         id="svg_11"
         transform="matrix(0.9929961552547804,0,0,0.9929961552547804,-109.15706518245489,-105.39453867951406) "
         stroke="null">
        <path
           style="fill:#44aa00"
           d="m527.613269,245.244491c-2.241,0 -4.448,-0.908 -6.037,-2.496c-1.589,-1.589 -2.496,-3.788 -2.496,-6.037c0,-0.556 0.053,-1.12 0.171,-1.665c0.107,-0.544 0.267,-1.088 0.479,-1.6c0.213,-0.511 0.48,-1.012 0.789,-1.472c0.309,-0.468 0.661,-0.907 1.056,-1.301s0.832,-0.747 1.301,-1.056c0.46,-0.309 0.96,-0.576 1.472,-0.789c0.512,-0.212 1.056,-0.373 1.6,-0.479c2.774,-0.565 5.717,0.34 7.702,2.325c0.383,0.395 0.746,0.832 1.055,1.301c0.309,0.46 0.576,0.96 0.789,1.472c0.213,0.512 0.374,1.056 0.48,1.6c0.117,0.545 0.171,1.109 0.171,1.665c0,0.555 -0.053,1.12 -0.171,1.664c-0.107,0.544 -0.267,1.089 -0.48,1.6c-0.213,0.512 -0.48,1.013 -0.789,1.472c-0.309,0.469 -0.672,0.908 -1.055,1.302c-1.6,1.587 -3.797,2.494 -6.037,2.494z"
           fill="#2DB59F"
           id="svg_12"
           stroke="null" />
        <path
           style="fill:#44aa00"
           d="m561.746269,245.244491c-2.241,0 -4.448,-0.908 -6.037,-2.496c-0.395,-0.395 -0.747,-0.832 -1.056,-1.302c-0.309,-0.459 -0.576,-0.959 -0.789,-1.472c-0.212,-0.511 -0.373,-1.056 -0.479,-1.6c-0.117,-0.544 -0.171,-1.109 -0.171,-1.664c0,-0.556 0.053,-1.12 0.171,-1.665c0.107,-0.544 0.267,-1.088 0.479,-1.6c0.213,-0.511 0.48,-1.012 0.789,-1.472c0.309,-0.468 0.661,-0.907 1.056,-1.301c0.395,-0.395 0.832,-0.747 1.301,-1.056c0.46,-0.309 0.96,-0.576 1.472,-0.789c0.512,-0.212 1.056,-0.373 1.6,-0.479c1.099,-0.224 2.23,-0.224 3.328,0c0.544,0.107 1.089,0.267 1.6,0.479c0.512,0.213 1.013,0.48 1.472,0.789c0.469,0.309 0.908,0.661 1.302,1.056c0.383,0.395 0.746,0.832 1.055,1.301c0.309,0.46 0.576,0.96 0.789,1.472c0.213,0.512 0.374,1.056 0.48,1.6c0.117,0.545 0.171,1.109 0.171,1.665c0,2.24 -0.908,4.448 -2.496,6.037c-1.589,1.59 -3.797,2.497 -6.037,2.497z"
           fill="#2DB59F"
           id="svg_13"
           stroke="null" />
        <path
           style="fill:#44aa00"
           d="m493.479269,245.244491c-2.241,0 -4.448,-0.908 -6.037,-2.496c-0.395,-0.395 -0.747,-0.832 -1.056,-1.302c-0.309,-0.459 -0.576,-0.959 -0.789,-1.472c-0.212,-0.511 -0.373,-1.056 -0.479,-1.6c-0.117,-0.544 -0.171,-1.109 -0.171,-1.664c0,-0.556 0.053,-1.12 0.171,-1.665c0.107,-0.544 0.267,-1.088 0.479,-1.6c0.213,-0.511 0.48,-1.012 0.789,-1.472c0.309,-0.468 0.661,-0.907 1.056,-1.301c0.395,-0.395 0.832,-0.747 1.301,-1.056c0.46,-0.309 0.96,-0.576 1.472,-0.789c0.512,-0.212 1.056,-0.373 1.6,-0.479c1.099,-0.224 2.23,-0.224 3.328,0c0.544,0.107 1.089,0.267 1.6,0.479c0.512,0.213 1.013,0.48 1.472,0.789c0.469,0.309 0.908,0.661 1.302,1.056c0.383,0.395 0.746,0.832 1.055,1.301c0.309,0.46 0.576,0.96 0.789,1.472c0.213,0.512 0.374,1.056 0.48,1.6c0.117,0.545 0.171,1.109 0.171,1.665c0,2.24 -0.908,4.448 -2.496,6.037c-1.589,1.59 -3.797,2.497 -6.037,2.497z"
           fill="#2DB59F"
           id="svg_14"
           stroke="null" />
      </g>
      <g
         id="svg_15"
         transform="matrix(0.9929961552547804,0,0,0.9929961552547804,-109.15706518245489,-105.39453867951406) "
         stroke="null">
        <path
           d="m570.279269,620.711491c-4.713,0 -8.533,-3.821 -8.533,-8.533l0,-25.6c0,-4.713 3.821,-8.533 8.533,-8.533s8.533,3.821 8.533,8.533l0,25.6c0.001,4.712 -3.82,8.533 -8.533,8.533z"
           fill="#4C4E55"
           id="svg_16"
           stroke="null" />
        <path
           d="m160.679269,620.711491c-4.713,0 -8.533,-3.821 -8.533,-8.533l0,-25.6c0,-4.713 3.821,-8.533 8.533,-8.533s8.533,3.821 8.533,8.533l0,25.6c0.001,4.712 -3.82,8.533 -8.533,8.533z"
           fill="#4C4E55"
           id="svg_17"
           stroke="null" />
      </g>
      <path
         style="fill:#9a4121;fill-opacity:1"
         d="m346.971961,214.394411l-271.154481,0c-4.679991,0 -8.473236,3.794238 -8.473236,8.473236l0,220.313078c0,4.679991 3.794238,8.473236 8.473236,8.473236l135.576744,8.473236l135.576744,-8.473236c4.679991,0 8.473236,-3.794238 8.473236,-8.473236l0,-220.312085c0.000993,-4.679991 -3.792252,-8.474229 -8.472243,-8.474229z"
         fill="#FDDD85"
         id="svg_18"
         stroke="null" />
      <path
         d="m491.022935,451.654954l-474.520094,0c-4.679991,0 -8.473236,3.035589 -8.473236,6.779185l0,20.336561c0,3.743596 3.794238,6.779185 8.473236,6.779185l474.520094,0c4.679991,0 8.473236,-3.035589 8.473236,-6.779185l0,-20.336561c0,-3.743596 -3.794238,-6.779185 -8.473236,-6.779185z"
         fill="#74757B"
         id="svg_19"
         stroke="null" />
      <path
         style="fill:#7e3a1a;fill-opacity:1"
         d="m92.764946,443.180725l0,-220.312085c0,-4.679991 3.794238,-8.473236 8.473236,-8.473236l-25.420702,0c-4.679991,0 -8.473236,3.794238 -8.473236,8.473236l0,220.313078c0,4.679991 3.794238,8.473236 8.473236,8.473236l25.420702,0c-4.678998,0 -8.473236,-3.794238 -8.473236,-8.474229z"
         fill="#FDD042"
         id="svg_20"
         stroke="null" />
      <path
         style="fill:#ffc431;fill-opacity:1"
         d="m245.289155,214.394411l-67.788869,0l0,76.010877c0,6.671941 7.45045,11.119571 13.17408,7.301501l20.719858,-13.812577l20.720851,13.81357c2.625482,1.750652 6.201261,1.869812 8.933986,0.287969c2.684069,-1.554039 4.239101,-4.621404 4.239101,-7.683804l0,-75.917535l0.000993,0z"
         fill="#F2C127"
         id="svg_21"
         stroke="null" />
      <path
         style="fill:#fcb431;fill-opacity:1"
         d="m194.447752,290.406281l0,-76.010877l-16.947465,0l0,76.010877c0,6.671941 7.45045,11.119571 13.17408,7.301501l4.771347,-3.180567c-0.63949,-1.25614 -0.997961,-2.665202 -0.997961,-4.120934z"
         fill="#E1A527"
         id="svg_22"
         stroke="null" />
      <g
         id="svg_32"
         transform="matrix(0.9929961552547804,0,0,0.9929961552547804,-109.15706518245489,-105.39453867951406) "
         stroke="null" />
      <g
         id="svg_33"
         transform="matrix(0.9929961552547804,0,0,0.9929961552547804,-109.15706518245489,-105.39453867951406) "
         stroke="null" />
      <g
         id="svg_34"
         transform="matrix(0.9929961552547804,0,0,0.9929961552547804,-109.15706518245489,-105.39453867951406) "
         stroke="null" />
      <g
         id="svg_35"
         transform="matrix(0.9929961552547804,0,0,0.9929961552547804,-109.15706518245489,-105.39453867951406) "
         stroke="null" />
      <g
         id="svg_36"
         transform="matrix(0.9929961552547804,0,0,0.9929961552547804,-109.15706518245489,-105.39453867951406) "
         stroke="null" />
      <g
         id="svg_37"
         transform="matrix(0.9929961552547804,0,0,0.9929961552547804,-109.15706518245489,-105.39453867951406) "
         stroke="null" />
      <g
         id="svg_38"
         transform="matrix(0.9929961552547804,0,0,0.9929961552547804,-109.15706518245489,-105.39453867951406) "
         stroke="null" />
      <g
         id="svg_39"
         transform="matrix(0.9929961552547804,0,0,0.9929961552547804,-109.15706518245489,-105.39453867951406) "
         stroke="null" />
      <g
         id="svg_40"
         transform="matrix(0.9929961552547804,0,0,0.9929961552547804,-109.15706518245489,-105.39453867951406) "
         stroke="null" />
      <g
         id="svg_41"
         transform="matrix(0.9929961552547804,0,0,0.9929961552547804,-109.15706518245489,-105.39453867951406) "
         stroke="null" />
      <g
         id="svg_42"
         transform="matrix(0.9929961552547804,0,0,0.9929961552547804,-109.15706518245489,-105.39453867951406) "
         stroke="null" />
      <g
         id="svg_43"
         transform="matrix(0.9929961552547804,0,0,0.9929961552547804,-109.15706518245489,-105.39453867951406) "
         stroke="null" />
      <g
         id="svg_44"
         transform="matrix(0.9929961552547804,0,0,0.9929961552547804,-109.15706518245489,-105.39453867951406) "
         stroke="null" />
      <g
         id="svg_45"
         transform="matrix(0.9929961552547804,0,0,0.9929961552547804,-109.15706518245489,-105.39453867951406) "
         stroke="null" />
      <g
         id="svg_46"
         transform="matrix(0.9929961552547804,0,0,0.9929961552547804,-109.15706518245489,-105.39453867951406) "
         stroke="null" />
      <path
         sodipodi:nodetypes="zzssassz"
         id="path973-0"
         d="m 225.69802,327.62412 c -4.95376,-5.80117 26.47066,-25.11529 37.14552,-25.28759 10.67485,-0.17229 35.00246,81.15093 7.75657,86.74864 -11.68342,2.40036 -74.34536,6.4189 -121.48152,-0.66778 -9.85177,-1.48117 -10.32954,-25.21324 -4.30102,-34.27979 8.0956,-12.17527 26.55828,-8.56184 39.04279,-3.99789 27.88365,10.19335 46.19207,18.22816 53.64966,6.84638 5.81694,-8.87784 -6.85823,-23.5608 -11.812,-29.36197 z"
         style="clip-rule:evenodd;fill:#f4e8d7;fill-opacity:1;fill-rule:evenodd;stroke:none;stroke-width:0.517541px;stroke-linecap:butt;stroke-linejoin:miter;stroke-opacity:1;image-rendering:optimizeQuality;shape-rendering:geometricPrecision;text-rendering:geometricPrecision" />
      <ellipse
         ry="20.298508"
         rx="20.953299"
         cy="422.37216"
         cx="222.17502"
         id="path1798-3"
         style="clip-rule:evenodd;fill:#f4e8d7;fill-opacity:1;fill-rule:evenodd;stroke:none;stroke-width:75.0456;stroke-linecap:round;stroke-linejoin:round;image-rendering:optimizeQuality;shape-rendering:geometricPrecision;text-rendering:geometricPrecision" />
    </g>
  </g>
</svg>
