<svg width="128" height="128" version="1.1" xmlns="http://www.w3.org/2000/svg"><g stroke="null"><rect x="100" y="30.2" width="8.51" height="85.1" fill="#ebebec" style="stroke-width:.249"/><circle cx="104" cy="23.8" r="23.4" fill="#6AC8B7" style="fill:#80c904;stroke-width:.249"/><path d="m108 45.1c-12.9 0-23.4-10.5-23.4-23.4 0-8.32 4.34-15.6 10.9-19.8-8.84 3.34-15.1 11.9-15.1 21.9 0 12.9 10.5 23.4 23.4 23.4 4.61 0 8.91-1.33 12.5-3.63-2.57 0.972-5.36 1.51-8.27 1.51z" fill="#2DB59F" style="fill:#4a0;stroke-width:.251"/><path d="m104 6.76c-9.38 0-17 7.63-17 17 0 1.17 0.953 2.13 2.13 2.13h29.8c1.17 0 2.13-0.953 2.13-2.13 0-9.38-7.63-17-17-17z" fill="#ebebec" style="stroke-width:.251"/><path d="m91.5 23.8c0-8.66 6.51-15.8 14.9-16.9-0.698-0.0875-1.41-0.138-2.13-0.138-9.38 0-17 7.63-17 17 0 1.17 0.953 2.13 2.13 2.13h4.25c-1.17 0-2.13-0.953-2.13-2.13z" fill="#d7d8d9" style="stroke-width:.251"/><path d="m110 18.5c0.604-1.01 0.278-2.31-0.73-2.92-1.01-0.604-2.31-0.278-2.92 0.73l-5.79 9.65h4.96z" fill="#4c4e55" style="stroke-width:.251"/><g transform="matrix(.249 0 0 .249 -27.3 -26.7)" fill="#2DB59F" style="fill:#4a0"><path d="m528 245c-2.24 0-4.45-0.908-6.04-2.5-1.59-1.59-2.5-3.79-2.5-6.04 0-0.556 0.053-1.12 0.171-1.66 0.107-0.544 0.267-1.09 0.479-1.6 0.213-0.511 0.48-1.01 0.789-1.47 0.309-0.468 0.661-0.907 1.06-1.3s0.832-0.747 1.3-1.06c0.46-0.309 0.96-0.576 1.47-0.789 0.512-0.212 1.06-0.373 1.6-0.479 2.77-0.565 5.72 0.34 7.7 2.32 0.383 0.395 0.746 0.832 1.06 1.3 0.309 0.46 0.576 0.96 0.789 1.47s0.374 1.06 0.48 1.6c0.117 0.545 0.171 1.11 0.171 1.66 0 0.555-0.053 1.12-0.171 1.66-0.107 0.544-0.267 1.09-0.48 1.6-0.213 0.512-0.48 1.01-0.789 1.47-0.309 0.469-0.672 0.908-1.06 1.3-1.6 1.59-3.8 2.49-6.04 2.49z" style="fill:#4a0"/><path d="m562 245c-2.24 0-4.45-0.908-6.04-2.5-0.395-0.395-0.747-0.832-1.06-1.3-0.309-0.459-0.576-0.959-0.789-1.47-0.212-0.511-0.373-1.06-0.479-1.6-0.117-0.544-0.171-1.11-0.171-1.66 0-0.556 0.053-1.12 0.171-1.66 0.107-0.544 0.267-1.09 0.479-1.6 0.213-0.511 0.48-1.01 0.789-1.47 0.309-0.468 0.661-0.907 1.06-1.3 0.395-0.395 0.832-0.747 1.3-1.06 0.46-0.309 0.96-0.576 1.47-0.789 0.512-0.212 1.06-0.373 1.6-0.479 1.1-0.224 2.23-0.224 3.33 0 0.544 0.107 1.09 0.267 1.6 0.479 0.512 0.213 1.01 0.48 1.47 0.789 0.469 0.309 0.908 0.661 1.3 1.06 0.383 0.395 0.746 0.832 1.06 1.3 0.309 0.46 0.576 0.96 0.789 1.47s0.374 1.06 0.48 1.6c0.117 0.545 0.171 1.11 0.171 1.66 0 2.24-0.908 4.45-2.5 6.04-1.59 1.59-3.8 2.5-6.04 2.5z" style="fill:#4a0"/><path d="m493 245c-2.24 0-4.45-0.908-6.04-2.5-0.395-0.395-0.747-0.832-1.06-1.3-0.309-0.459-0.576-0.959-0.789-1.47-0.212-0.511-0.373-1.06-0.479-1.6-0.117-0.544-0.171-1.11-0.171-1.66 0-0.556 0.053-1.12 0.171-1.66 0.107-0.544 0.267-1.09 0.479-1.6 0.213-0.511 0.48-1.01 0.789-1.47 0.309-0.468 0.661-0.907 1.06-1.3 0.395-0.395 0.832-0.747 1.3-1.06 0.46-0.309 0.96-0.576 1.47-0.789 0.512-0.212 1.06-0.373 1.6-0.479 1.1-0.224 2.23-0.224 3.33 0 0.544 0.107 1.09 0.267 1.6 0.479 0.512 0.213 1.01 0.48 1.47 0.789 0.469 0.309 0.908 0.661 1.3 1.06 0.383 0.395 0.746 0.832 1.06 1.3 0.309 0.46 0.576 0.96 0.789 1.47s0.374 1.06 0.48 1.6c0.117 0.545 0.171 1.11 0.171 1.66 0 2.24-0.908 4.45-2.5 6.04-1.59 1.59-3.8 2.5-6.04 2.5z" style="fill:#4a0"/></g><g transform="matrix(.249 0 0 .249 -27.3 -26.7)" fill="#4c4e55"><path d="m570 621c-4.71 0-8.53-3.82-8.53-8.53v-25.6c0-4.71 3.82-8.53 8.53-8.53s8.53 3.82 8.53 8.53v25.6c1e-3 4.71-3.82 8.53-8.53 8.53z"/><path d="m161 621c-4.71 0-8.53-3.82-8.53-8.53v-25.6c0-4.71 3.82-8.53 8.53-8.53s8.53 3.82 8.53 8.53v25.6c1e-3 4.71-3.82 8.53-8.53 8.53z"/></g><path d="m123 113h-119c-1.17 0-2.13 0.762-2.13 1.7v5.11c0 0.94 0.953 1.7 2.13 1.7h119c1.17 0 2.13-0.762 2.13-1.7v-5.11c0-0.94-0.953-1.7-2.13-1.7z" fill="#74757b" style="stroke-width:.251"/><path d="m87.8 49.8h-72.4c-1.25 0-2.26 1.01-2.26 2.26v58.8c0 1.25 1.01 2.26 2.26 2.26h72.4c1.25 0 2.26-1.01 2.26-2.26v-58.8c0-1.25-1.01-2.26-2.26-2.26z" fill="#FDDD85" style="fill:#cba677;stroke-width:.269"/><path d="m19.9 111v-58.8c0-1.25 1.01-2.26 2.26-2.26h-6.79c-1.25 0-2.26 1.01-2.26 2.26v58.8c0 1.25 1.01 2.26 2.26 2.26h6.79c-1.25 0-2.26-1.01-2.26-2.26z" fill="#FDD042" style="fill:#c1955d;stroke-width:.269"/><path d="m60.6 49.8h-18.1v16.3c0 1.78 1.99 2.97 3.52 1.95l5.53-3.69 5.53 3.69c0.704 0.47 1.65 0.5 2.39 0.0769 0.719-0.416 1.13-1.23 1.13-2.05z" fill="#F2C127" style="fill:#ffc431;stroke-width:.269"/><path d="m47 66.1v-16.3h-4.53v16.3c0 1.78 1.99 2.97 3.52 1.95l1.27-0.849c-0.171-0.335-0.266-0.771-0.266-1.1z" fill="#E1A527" style="fill:#fcb431;stroke-width:.269"/></g><path d="m50.8 72.8c7.3-0.0619 15 3.68 18.2 10.5 2.61 5.34 1.29 12.1-2.82 16.3-1.17 0.885-2.11 2.11-1.84 3.64-0.0622 1.32 0.131 2.67-0.109 3.96-1.56 1.36-3.58-0.993-5.3-1.35-1.75-1.2-3.73-0.228-5.61-0.0706-7.68 0.907-16.2-2.4-20.1-9.28-2.99-5.07-2.34-11.9 1.44-16.4 3.86-4.83 10.1-7.31 16.2-7.29z" style="fill:none;stroke-width:2.53;stroke:#035000"/><g transform="matrix(.309 0 0 .309 -41.5 64.2)"><g transform="matrix(2.6 0 0 2.6 9047 -3e3)" style="fill:#035000;shape-inside:url(#rect3271);stroke-width:.426;stroke:#035000;white-space:pre" aria-label="пе"><path d="m-3349 1181c0.407 3.15-1.49 6.18-4.11 7.8-4.11 2.78-9.26 3.35-14.1 3.19-4.23-0.23-8.7-1.6-11.5-4.92-1.57-1.9-1.93-4.78-0.523-6.87 1.86-2.9 5.39-3.98 8.6-4.54 2.81-0.47 5.74-0.435 8.47 0.422 0.883 1.2-1.7 1.18-2.48 1.26-3.63 0.393-7.54 0.646-10.6 2.88-1.43 1.02-1.69 3.18-0.332 4.37 2.07 2.3 5.36 2.66 8.27 2.9 4.17 0.286 8.53-0.1 12.3-1.99 1.52-0.849 2.76-2.47 2.57-4.29 0.123-1.23 1.68-2.51 2.82-1.62 0.402 0.348 0.536 0.892 0.615 1.39z" style="fill:#035000;stroke-width:.55;stroke:#035000"/></g><path d="m306 110a9.41 9.41 0 0 1-9.41 9.41 9.41 9.41 0 0 1-9.42-9.41 9.41 9.41 0 0 1 9.42-9.41 9.41 9.41 0 0 1 9.41 9.41z" style="fill:#035000;paint-order:markers fill stroke"/></g></svg>
