<svg width="128" height="128" version="1.1" viewBox="0 0 14.5 14.5" xmlns="http://www.w3.org/2000/svg" xmlns:xlink="http://www.w3.org/1999/xlink"><title>025 - Parcel and Tape</title><desc>Created with Sketch.</desc><defs><linearGradient id="linearGradient6332" x1="29" x2="58" y1="44.4" y2="33.9" gradientTransform="matrix(.25 0 0 .25 .0495 0)" gradientUnits="userSpaceOnUse"><stop style="stop-color:#c1955d" offset="0"/><stop style="stop-color:#cba677" offset="1"/></linearGradient></defs><g fill="none" fill-rule="evenodd"><g id="025---Parcel-and-Tape" fill-rule="nonzero"><path id="Shape" d="m12.2 4.78-1.42-0.587-6.97-0.00999-0.0225 0.00999-3.75 1.55v5.58c-6.24e-6 0.101 0.0609 0.192 0.154 0.231l7.09 2.93 7.09-2.93c0.0934-0.0386 0.154-0.13 0.154-0.231v-5.58z" fill="#f0c419" style="stroke-width:.25"/><polygon transform="matrix(.25 0 0 .25 .0495 0)" points="10 27.1 0 23 15 16.8 15.1 16.8 34.9 16.8 43 16.8 48.7 19.1 58 23 41.7 29.7 41 30 29 35 20 31.3" fill="#F9EAB0" style="fill:#c1955d"/><path d="m7.29 8.74v5.74l-7.09-2.93c-0.0934-0.0386-0.154-0.13-0.154-0.231v-5.58z" fill="#F3D55B" style="fill:#cba677;stroke-width:.25"/><path d="m14.5 5.74v5.58c0 0.101-0.0609 0.192-0.154 0.231l-7.09 2.93v-5.74l3-1.24 0.177-0.0724z" fill="#F0C419" style="fill:url(#linearGradient6332);stroke-width:.25"/><polygon transform="matrix(.25 0 0 .25 .0495 0)" points="48.7 19.1 20 31.3 10 27.1 34.9 16.8 43 16.8" fill="#996A5F" style="fill:#f0a02a"/><path d="m10.1 4.88h-0.0025c-0.138-6.99e-4 -0.249-0.113-0.248-0.25 3.49e-4 -0.138 0.112-0.249 0.25-0.249 0.138 0 0.249 0.111 0.25 0.249 3.48e-4 0.138-0.111 0.25-0.248 0.25z" fill="#000" style="stroke-width:.25"/><path d="m7.29 0c-1.93 0-3.5 0.782-3.5 1.75 0 0.43 0.307 0.819 0.819 1.12 0.172 0.103 0.354 0.19 0.542 0.26 0.00999 0.0025 0.0175 0.00749 0.0275 0.00999 0.0549 0.0225 0.112 0.0425 0.17 0.0624 0.137 0.045 0.285 0.0874 0.437 0.122 0.0499 0.0125 0.0999 0.025 0.152 0.035 0.0213 0.00559 0.043 0.00977 0.0649 0.0125 0.0799 0.0175 0.162 0.03 0.245 0.0425 0.145 0.025 0.295 0.0425 0.449 0.0549 0.0674 0.00499 0.137 0.00999 0.207 0.015 0.125 0.00749 0.252 0.00999 0.382 0.00999 0.13 0 0.257-0.0025 0.382-0.00999 0.0699-0.00499 0.14-0.00999 0.207-0.015 0.155-0.0125 0.305-0.03 0.449-0.0549 0.0824-0.0125 0.165-0.025 0.245-0.0425 0.0219-0.00272 0.0436-0.0069 0.0649-0.0125 0.0524-0.00999 0.102-0.0225 0.152-0.035 0.152-0.035 0.3-0.0774 0.437-0.122 0.0574-0.02 0.115-0.04 0.17-0.0624 0.00999-0.0025 0.0175-0.00749 0.0275-0.00999 0.187-0.072 0.368-0.159 0.542-0.26 0.512-0.305 0.819-0.694 0.819-1.12 0-0.966-1.57-1.75-3.5-1.75zm1.15 2.07c-0.369 0.126-0.757 0.186-1.15 0.177-0.39 0.00874-0.778-0.0513-1.15-0.177-0.22-0.0874-0.352-0.2-0.352-0.322 0-0.277 0.672-0.499 1.5-0.499 0.827 0 1.5 0.222 1.5 0.499 0 0.122-0.132 0.235-0.352 0.322z" fill="#AF8066" style="fill:#fcb431;stroke-width:.25"/><path d="m8.79 1.75c0 0.122-0.132 0.235-0.352 0.322-0.369 0.126-0.757 0.186-1.15 0.177-0.39 0.00874-0.778-0.0513-1.15-0.177-0.22-0.0874-0.352-0.2-0.352-0.322 0-0.277 0.672-0.499 1.5-0.499 0.827 0 1.5 0.222 1.5 0.499z" fill="#59474e" style="stroke-width:.25"/><path d="m10.8 1.75v2.25c-0.0289 0.393-0.242 0.748-0.574 0.959-0.241-0.862-1.03-1.46-1.92-1.46h-0.999c0.13 0 0.257-0.0025 0.382-0.00999 0.0699-0.00499 0.14-0.00999 0.207-0.015 0.155-0.0125 0.305-0.03 0.449-0.0549 0.0824-0.0125 0.165-0.025 0.245-0.0425 0.0219-0.00272 0.0436-0.0069 0.0649-0.0125 0.0524-0.00999 0.102-0.0225 0.152-0.035 0.152-0.035 0.3-0.0774 0.437-0.122 0.0574-0.02 0.115-0.04 0.17-0.0624 0.00999-0.0025 0.0175-0.00749 0.0275-0.00999 0.187-0.072 0.368-0.159 0.542-0.26 0.512-0.305 0.819-0.694 0.819-1.12z" fill="#7F5B53" style="fill:#f0a02a;stroke-width:.25"/><g fill="#f29c1f"><path d="m14.5 9.71v0.544l-1.89 0.792c-0.0311 0.0118-0.0641 0.0178-0.0974 0.0175-0.119-2.27e-4 -0.221-0.0838-0.244-0.2-0.0236-0.116 0.0378-0.233 0.147-0.279z" style="fill:#035000;stroke-width:.25"/><path d="m14.5 8.46v0.542l-1.15 0.482c-0.0309 0.0128-0.0639 0.0196-0.0974 0.02-0.119 1.24e-4 -0.221-0.084-0.245-0.201-0.0231-0.117 0.0396-0.234 0.15-0.279z" style="fill:#035000;stroke-width:.25"/><path d="m14.5 7.21v0.542l-2.9 1.21c-0.031 0.0126-0.064 0.0194-0.0974 0.02-0.101-0.00103-0.191-0.0619-0.23-0.155-0.0261-0.0609-0.0269-0.13-2e-3 -0.191 0.0249-0.0614 0.0732-0.11 0.134-0.136z" style="fill:#035000;stroke-width:.25"/></g><path d="m12.2 4.78-7.16 3.03v1.58c-4.25e-4 0.101-0.0616 0.192-0.155 0.23-0.0935 0.0383-0.201 0.0165-0.272-0.0553l-0.727-0.727c-0.0588-0.0589-0.143-0.085-0.225-0.0699l-0.819 0.165c-0.0734 0.0146-0.15-0.00444-0.207-0.0518-0.058-0.0473-0.0918-0.118-0.0922-0.193v-1.91l6.22-2.59 2.02 0.0025z" fill="#804537" style="fill:#fcb431;stroke-width:.25"/><path d="m10.3 5.49 1.3e-5 1.5-1.5-0.499-1.5 0.499v-0.537c-6.78e-5 -0.384-0.292-0.706-0.674-0.744-1.61-0.157-2.82-0.864-2.82-1.72v-2.25c0 0.43 0.307 0.819 0.819 1.12 0.172 0.103 0.354 0.19 0.542 0.26 0.00999 0.0025 0.0175 0.00749 0.0275 0.00999 0.0549 0.0225 0.112 0.0425 0.17 0.0624 0.137 0.045 0.285 0.0874 0.437 0.122 0.0499 0.0125 0.0999 0.025 0.152 0.035 0.0213 0.00559 0.043 0.00977 0.0649 0.0125 0.0799 0.0175 0.162 0.03 0.245 0.0425 0.145 0.025 0.295 0.0425 0.449 0.0549 0.0674 0.00499 0.137 0.00999 0.207 0.015 0.125 0.00749 0.252 0.00999 0.382 0.00999h0.999c0.896-1.95e-4 1.68 0.596 1.92 1.46 0.0504 0.175 0.0756 0.357 0.0749 0.539z" fill="#CB9080" style="fill:#ffc431;stroke-width:.25"/></g></g></svg>
