<?xml version="1.0" encoding="UTF-8" standalone="no"?>
<svg
   xmlns:dc="http://purl.org/dc/elements/1.1/"
   xmlns:cc="http://creativecommons.org/ns#"
   xmlns:rdf="http://www.w3.org/1999/02/22-rdf-syntax-ns#"
   xmlns:svg="http://www.w3.org/2000/svg"
   xmlns="http://www.w3.org/2000/svg"
   xmlns:xlink="http://www.w3.org/1999/xlink"
   xmlns:sodipodi="http://sodipodi.sourceforge.net/DTD/sodipodi-0.dtd"
   xmlns:inkscape="http://www.inkscape.org/namespaces/inkscape"
   inkscape:version="1.0 (4035a4f, 2020-05-01)"
   sodipodi:docname="deliverytime.svg"
   id="svg5759"
   version="1.1"
   viewBox="0 0 58 58"
   height="512"
   width="512">
  <metadata
     id="metadata5763">
    <rdf:RDF>
      <cc:Work
         rdf:about="">
        <dc:format>image/svg+xml</dc:format>
        <dc:type
           rdf:resource="http://purl.org/dc/dcmitype/StillImage" />
      </cc:Work>
    </rdf:RDF>
  </metadata>
  <sodipodi:namedview
     inkscape:current-layer="025---Parcel-and-Tape"
     inkscape:window-maximized="0"
     inkscape:window-y="0"
     inkscape:window-x="0"
     inkscape:cy="159.56777"
     inkscape:cx="357.7076"
     inkscape:zoom="0.44289561"
     showgrid="false"
     id="namedview5761"
     inkscape:window-height="768"
     inkscape:window-width="1366"
     inkscape:pageshadow="2"
     inkscape:pageopacity="0"
     guidetolerance="10"
     gridtolerance="10"
     objecttolerance="10"
     borderopacity="1"
     bordercolor="#666666"
     pagecolor="#ffffff" />
  <!-- Generator: Sketch 51.3 (57544) - http://www.bohemiancoding.com/sketch -->
  <title
     id="title5724">025 - Parcel and Tape</title>
  <desc
     id="desc5726">Created with Sketch.</desc>
  <defs
     id="defs5728">
    <linearGradient
       id="linearGradient6330"
       inkscape:collect="always">
      <stop
         id="stop6326"
         offset="0"
         style="stop-color:#7e3a1a;stop-opacity:1" />
      <stop
         id="stop6328"
         offset="1"
         style="stop-color:#9a4121;stop-opacity:1" />
    </linearGradient>
    <linearGradient
       gradientUnits="userSpaceOnUse"
       y2="33.880001"
       x2="58"
       y1="44.405994"
       x1="29"
       id="linearGradient6332"
       xlink:href="#linearGradient6330"
       inkscape:collect="always" />
  </defs>
  <g
     fill-rule="evenodd"
     fill="none"
     stroke-width="1"
     stroke="none"
     id="Page-1">
    <g
       fill-rule="nonzero"
       id="025---Parcel-and-Tape">
      <path
         fill="#F0C419"
         id="Shape"
         d="M48.67,19.14 L43,16.79 L34.91,16.78 L15.09,16.75 L15,16.79 L0,23 L0,45.3315 C-2.49810061e-05,45.7361358 0.243801054,46.1009077 0.6177,46.2556 L29,58 L57.3823,46.2556 C57.7561989,46.1009077 58.000025,45.7361358 58,45.3315 L58,23 L48.67,19.14 Z" />
      <polygon
         style="fill:#7e3a1a;fill-opacity:1"
         points="58 23 41.72 29.74 41.01 30.03 29 35 20 31.28 10 27.14 0 23 15 16.79 15.09 16.75 34.91 16.78 43 16.79 48.67 19.14"
         fill="#F9EAB0"
         id="polygon5731" />
      <path
         style="fill:#9a4121;fill-opacity:1"
         fill="#F3D55B"
         id="path5733"
         d="M29,35 L29,58 L0.6176,46.2556 C0.243773918,46.1008905 -1.26101444e-06,45.736175 0,45.3316 L0,23 L29,35 Z" />
      <path
         style="fill-opacity:1;fill:url(#linearGradient6332)"
         fill="#F0C419"
         id="path5735"
         d="M58,23 L58,45.3316 C58.0000013,45.736175 57.7562261,46.1008905 57.3824,46.2556 L29,58 L29,35 L41.01,30.03 L41.72,29.74 L58,23 Z" />
      <polygon
         style="fill:#f0a02a;fill-opacity:1"
         points="48.67 19.14 20 31.28 10 27.14 34.91 16.78 43 16.79"
         fill="#996A5F"
         id="polygon5739" />
      <path
         fill="#000000"
         id="path5741"
         d="M40.23,19.56 L40.22,19.56 C39.6686982,19.5572435 39.2236248,19.1088195 39.2250031,18.5575125 C39.2263814,18.0062055 39.6736913,17.5600125 40.225,17.5600125 C40.7763087,17.5600125 41.2236186,18.0062055 41.2249969,18.5575125 C41.2263752,19.1088195 40.7813018,19.5572435 40.23,19.56 Z" />
      <path
         style="fill:#fcb431;fill-opacity:1"
         fill="#AF8066"
         id="path5743"
         d="M29,0 C21.27,0 15,3.13 15,7 C15,8.72 16.23,10.28 18.28,11.5 C18.9702571,11.9118322 19.6965909,12.2599369 20.45,12.54 C20.49,12.55 20.52,12.57 20.56,12.58 C20.78,12.67 21.01,12.75 21.24,12.83 C21.79,13.01 22.38,13.18 22.99,13.32 C23.19,13.37 23.39,13.42 23.6,13.46 C23.6854651,13.4824001 23.7723227,13.4991035 23.86,13.51 C24.18,13.58 24.51,13.63 24.84,13.68 C25.42,13.78 26.02,13.85 26.64,13.9 C26.91,13.92 27.19,13.94 27.47,13.96 C27.97,13.99 28.48,14 29,14 C29.52,14 30.03,13.99 30.53,13.96 C30.81,13.94 31.09,13.92 31.36,13.9 C31.98,13.85 32.58,13.78 33.16,13.68 C33.49,13.63 33.82,13.58 34.14,13.51 C34.2276773,13.4991035 34.3145349,13.4824001 34.4,13.46 C34.61,13.42 34.81,13.37 35.01,13.32 C35.62,13.18 36.21,13.01 36.76,12.83 C36.99,12.75 37.22,12.67 37.44,12.58 C37.48,12.57 37.51,12.55 37.55,12.54 C38.2998602,12.2516407 39.0254993,11.903869 39.72,11.5 C41.77,10.28 43,8.72 43,7 C43,3.13 36.73,0 29,0 Z M33.59,8.29 C32.1136309,8.79463906 30.5598405,9.03498573 29,9 C27.4401595,9.03498573 25.8863691,8.79463906 24.41,8.29 C23.53,7.94 23,7.49 23,7 C23,5.89 25.69,5 29,5 C32.31,5 35,5.89 35,7 C35,7.49 34.47,7.94 33.59,8.29 Z" />
      <path
         fill="#59474E"
         id="path5745"
         d="M35,7 C35,7.49 34.47,7.94 33.59,8.29 C32.1136309,8.79463906 30.5598405,9.03498573 29,9 C27.4401595,9.03498573 25.8863691,8.79463906 24.41,8.29 C23.53,7.94 23,7.49 23,7 C23,5.89 25.69,5 29,5 C32.31,5 35,5.89 35,7 Z" />
      <path
         style="fill:#f0a02a;fill-opacity:1"
         fill="#7F5B53"
         id="path5749"
         d="M43,7 L43,16 C42.884183,17.5718416 42.0311251,18.9960773 40.7,19.84 C39.73377,16.3865958 36.5860285,13.9992179 33,14 L29,14 C29.52,14 30.03,13.99 30.53,13.96 C30.81,13.94 31.09,13.92 31.36,13.9 C31.98,13.85 32.58,13.78 33.16,13.68 C33.49,13.63 33.82,13.58 34.14,13.51 C34.2276773,13.4991035 34.3145349,13.4824001 34.4,13.46 C34.61,13.42 34.81,13.37 35.01,13.32 C35.62,13.18 36.21,13.01 36.76,12.83 C36.99,12.75 37.22,12.67 37.44,12.58 C37.48,12.57 37.51,12.55 37.55,12.54 C38.2998602,12.2516407 39.0254993,11.903869 39.72,11.5 C41.77,10.28 43,8.72 43,7 Z" />
      <path
         fill="#F29C1F"
         id="path5751"
         d="M58,38.87 L58,41.05 L50.43,44.22 C50.3054772,44.2673578 50.1732197,44.2910964 50.04,44.29 C49.5651675,44.2890911 49.156447,43.9543924 49.0619267,43.4890618 C48.9674065,43.0237311 49.2131525,42.5560939 49.65,42.37 L58,38.87 Z" />
      <path
         fill="#F29C1F"
         id="path5753"
         d="M58,33.88 L58,36.05 L53.41,37.98 C53.2863227,38.0313959 53.1539236,38.0585546 53.02,38.06 C52.543418,38.0604942 52.1330733,37.7237601 52.0405445,37.2562464 C51.9480158,36.7887327 52.1991588,36.3210791 52.64,36.14 L58,33.88 Z" />
      <path
         fill="#F29C1F"
         id="path5755"
         d="M58,28.87 L58,31.04 L46.39,35.89 C46.2660303,35.9404379 46.1338152,35.967559 46,35.97 C45.59694,35.9659118 45.2350841,35.7220524 45.08,35.35 C44.9753005,35.106134 44.9723949,34.8305403 45.0719294,34.5845211 C45.1714639,34.3385018 45.3651843,34.1424591 45.61,34.04 L58,28.87 Z" />
      <path
         style="fill:#fcb431;fill-opacity:1"
         fill="#804537"
         id="path5737"
         d="M48.67,19.14 L20,31.28 L20,37.59 C19.9983042,37.9944441 19.7531528,38.3580455 19.3788524,38.5112679 C19.004552,38.6644903 18.5748091,38.5771614 18.29,38.29 L15.38,35.38 C15.1443632,35.1442371 14.8077987,35.0395282 14.48,35.1 L11.2,35.76 C10.9059928,35.8182671 10.6013242,35.7422267 10.3691773,35.5526401 C10.1370304,35.3630534 10.0016504,35.0797208 10,34.78 L10,27.14 L34.91,16.78 L43,16.79 L48.67,19.14 Z" />
      <path
         style="fill:#ffc431;fill-opacity:1"
         fill="#CB9080"
         id="path5747"
         d="M41,22 L41.000053,28 L35,26 L29,28 L29,25.85 C28.9997292,24.3103399 27.8321686,23.021699 26.3,22.87 C19.86,22.24 15,19.41 15,16 L15,7 C15,8.72 16.23,10.28 18.28,11.5 C18.9702571,11.9118322 19.6965909,12.2599369 20.45,12.54 C20.49,12.55 20.52,12.57 20.56,12.58 C20.78,12.67 21.01,12.75 21.24,12.83 C21.79,13.01 22.38,13.18 22.99,13.32 C23.19,13.37 23.39,13.42 23.6,13.46 C23.6854651,13.4824001 23.7723227,13.4991035 23.86,13.51 C24.18,13.58 24.51,13.63 24.84,13.68 C25.42,13.78 26.02,13.85 26.64,13.9 C26.91,13.92 27.19,13.94 27.47,13.96 C27.97,13.99 28.48,14 29,14 L33,14 C36.5860285,13.9992179 39.73377,16.3865958 40.7,19.84 C40.9017008,20.5421779 41.0027083,21.2694319 41,22 Z" />
    </g>
  </g>
</svg>
