<?xml version="1.0" encoding="UTF-8" standalone="no"?>
<svg
   xmlns:dc="http://purl.org/dc/elements/1.1/"
   xmlns:cc="http://creativecommons.org/ns#"
   xmlns:rdf="http://www.w3.org/1999/02/22-rdf-syntax-ns#"
   xmlns:svg="http://www.w3.org/2000/svg"
   xmlns="http://www.w3.org/2000/svg"
   xmlns:sodipodi="http://sodipodi.sourceforge.net/DTD/sodipodi-0.dtd"
   xmlns:inkscape="http://www.inkscape.org/namespaces/inkscape"
   inkscape:export-ydpi="96"
   inkscape:export-xdpi="96"
   inkscape:export-filename="/Users/SaaMoj/Downloads/gifttt.png"
   width="128"
   height="128"
   version="1.1"
   id="svg91"
   sodipodi:docname="gift.svg"
   inkscape:version="1.0 (4035a4f, 2020-05-01)">
  <g
     id="svg_260"
     transform="matrix(0.24981958,0,0,0.24981958,-249.68861,150.49491)"
     stroke="null" />
  <g
     id="svg_261"
     transform="matrix(0.24981958,0,0,0.24981958,-249.68861,150.49491)"
     stroke="null" />
  <g
     id="svg_262"
     transform="matrix(0.24981958,0,0,0.24981958,-249.68861,150.49491)"
     stroke="null" />
  <g
     id="svg_263"
     transform="matrix(0.24981958,0,0,0.24981958,-249.68861,150.49491)"
     stroke="null" />
  <g
     id="svg_264"
     transform="matrix(0.24981958,0,0,0.24981958,-249.68861,150.49491)"
     stroke="null" />
  <g
     id="svg_265"
     transform="matrix(0.24981958,0,0,0.24981958,-249.68861,150.49491)"
     stroke="null" />
  <g
     id="svg_266"
     transform="matrix(0.24981958,0,0,0.24981958,-249.68861,150.49491)"
     stroke="null" />
  <g
     id="svg_267"
     transform="matrix(0.24981958,0,0,0.24981958,-249.68861,150.49491)"
     stroke="null" />
  <g
     id="svg_268"
     transform="matrix(0.24981958,0,0,0.24981958,-249.68861,150.49491)"
     stroke="null" />
  <g
     id="svg_269"
     transform="matrix(0.24981958,0,0,0.24981958,-249.68861,150.49491)"
     stroke="null" />
  <g
     id="svg_270"
     transform="matrix(0.24981958,0,0,0.24981958,-249.68861,150.49491)"
     stroke="null" />
  <g
     id="svg_271"
     transform="matrix(0.24981958,0,0,0.24981958,-249.68861,150.49491)"
     stroke="null" />
  <g
     id="svg_272"
     transform="matrix(0.24981958,0,0,0.24981958,-249.68861,150.49491)"
     stroke="null" />
  <g
     id="svg_273"
     transform="matrix(0.24981958,0,0,0.24981958,-249.68861,150.49491)"
     stroke="null" />
  <g
     id="svg_274"
     transform="matrix(0.24981958,0,0,0.24981958,-249.68861,150.49491)"
     stroke="null" />
  <metadata
     id="metadata97">
    <rdf:RDF>
      <cc:Work
         rdf:about="">
        <dc:format>image/svg+xml</dc:format>
        <dc:type
           rdf:resource="http://purl.org/dc/dcmitype/StillImage" />
        <dc:title></dc:title>
      </cc:Work>
    </rdf:RDF>
  </metadata>
  <defs
     id="defs95" />
  <sodipodi:namedview
     inkscape:document-rotation="0"
     pagecolor="#ffffff"
     bordercolor="#666666"
     borderopacity="1"
     objecttolerance="10"
     gridtolerance="10"
     guidetolerance="10"
     inkscape:pageopacity="0"
     inkscape:pageshadow="2"
     inkscape:window-width="1366"
     inkscape:window-height="715"
     id="namedview93"
     showgrid="false"
     inkscape:zoom="1.5114038"
     inkscape:cx="163.12195"
     inkscape:cy="61.133629"
     inkscape:window-x="0"
     inkscape:window-y="25"
     inkscape:window-maximized="0"
     inkscape:current-layer="svg91"
     inkscape:showpageshadow="false" />
  <!-- Created with Method Draw - http://github.com/duopixel/Method-Draw/ -->
  <g
     id="g16"
     transform="translate(-1293.8238,118.97231)">
    <title
       id="title10">background</title>
    <rect
       fill="none"
       id="canvas_background"
       height="514"
       width="514"
       y="-1"
       x="-1" />
    <g
       display="none"
       overflow="visible"
       y="0"
       x="0"
       height="100%"
       width="100%"
       id="canvasGrid">
      <rect
         fill="url(#gridpattern)"
         stroke-width="0"
         y="0"
         x="0"
         height="100%"
         width="100%"
         id="rect13" />
    </g>
  </g>
  <g
     stroke="null"
     transform="matrix(1.0122624,0,0,1.0122624,-1480.4238,-83.224273)"
     id="svg_127">
    <title
       stroke="null"
       transform="translate(-0.9878861308097839,0) translate(0.9878861308097839,0) translate(0.9878861308097839,0) translate(0.9878861308097839,0) translate(0.9878861308097839,0) translate(0.9878861308097839,0) translate(0.9878861308097839,0) translate(0,-0.9878861308097839) translate(-28.598154067993164,-25.298368453979492) translate(-1713.251708984375,-1696.204345703125) translate(1926.0518798828125,0) translate(0,1926.0518798828125) "
       id="title22">background</title>
    <rect
       stroke="null"
       x="188.14145"
       y="202.56128"
       width="514"
       height="514"
       id="svg_125"
       fill="none" />
  </g>
  <g
     id="g169"
     transform="matrix(0.24967418,0,0,0.24967418,159.85594,13.841293)">
    <g
       id="g286"
       transform="matrix(0.62423343,0,0,0.62423343,-481.95601,50.415351)">
      <g
         transform="translate(-107.6205,-128.86138)"
         id="g52">
        <path
           style="fill:#fcbf29;fill-opacity:1"
           d="M 222.684,66.544 C 140.505,-27.218 8.919,-31.366 77.573,115.524 l 50.06,23.908 h 75.333 l 53.036,-39.022 z"
           id="path48" />
        <path
           style="fill:#fcbf29;fill-opacity:1"
           d="m 289.318,66.544 c 82.179,-93.761 213.766,-97.909 145.111,48.981 l -50.06,23.908 H 309.036 L 256,100.411 Z"
           id="path50" />
      </g>
      <g
         transform="translate(-107.6205,-128.86138)"
         id="g60">
        <path
           style="fill:#fedb41;fill-opacity:1"
           d="m 222.74,104.229 c -1.55,0 -3.115,-0.466 -4.475,-1.433 v 0 c -0.474,-0.337 -47.927,-33.681 -96.197,-33.681 -0.055,0 -0.117,0.003 -0.156,0 -4.263,0 -7.72,-3.452 -7.726,-7.716 -0.006,-4.267 3.449,-7.73 7.715,-7.737 0.056,0 0.113,0 0.169,0 53.292,0 103.068,35.055 105.163,36.55 3.474,2.478 4.282,7.302 1.805,10.777 -1.508,2.113 -3.885,3.24 -6.298,3.24 z"
           id="path54" />
        <path
           style="fill:#fedb41;fill-opacity:1"
           d="m 289.262,104.229 c -2.414,0 -4.789,-1.127 -6.298,-3.241 -2.478,-3.475 -1.669,-8.299 1.805,-10.777 2.094,-1.494 51.874,-36.55 105.163,-36.55 0.059,0 0.109,0 0.169,0 4.267,0.006 7.721,3.47 7.715,7.737 -0.006,4.264 -3.465,7.715 -7.726,7.716 -0.049,0.002 -0.106,0 -0.157,0 -48.402,0 -95.719,33.341 -96.192,33.678 -1.36,0.97 -2.927,1.437 -4.479,1.437 z"
           id="path56" />
        <path
           style="fill:#fedb41;fill-opacity:1"
           d="m 269.918,61.388 h -27.833 c -21.605,0 -39.119,17.514 -39.119,39.118 v 38.926 H 309.037 V 100.506 C 309.036,78.903 291.522,61.388 269.918,61.388 Z"
           id="path58" />
      </g>
    </g>
    <g
       id="g94" />
    <g
       id="g96" />
    <g
       id="g98" />
    <g
       id="g100" />
    <g
       id="g102" />
    <g
       id="g104" />
    <g
       id="g106" />
    <g
       id="g108" />
    <g
       id="g110" />
    <g
       id="g112" />
    <g
       id="g114" />
    <g
       id="g116" />
    <g
       id="g118" />
    <g
       id="g120" />
    <g
       id="g122" />
  </g>
  <path
     style="fill:#fc1a40;stroke-width:0.249675"
     d="M 94.298416,37.570075 H 33.877263 c -2.097512,0 -3.745112,1.647599 -3.745112,3.745113 v 22.720349 c 0,2.097513 1.6476,3.745113 3.745112,3.745113 h 60.421153 c 2.097511,0 3.745106,-1.6476 3.745106,-3.745113 V 41.315188 c 0,-2.097514 -1.647595,-3.745113 -3.745106,-3.745113 z"
     id="path171" />
  <path
     style="fill:#fea832;stroke-width:0.249675"
     d="m 67.832949,37.570075 v 26.465462 c 0,2.097513 -1.6476,3.745113 -3.745112,3.745113 -2.097513,0 -3.745112,-1.6476 -3.745112,-3.745113 V 37.570075 Z"
     id="path173" />
  <path
     style="fill:#c60034;stroke-width:0.249675"
     d="m 98.043522,41.315188 v 22.720349 c 0,2.097513 -1.647595,3.745113 -3.745106,3.745113 H 64.087837 V 37.570075 h 30.210579 c 2.097511,0 3.745106,1.647599 3.745106,3.745113 z"
     id="path175" />
  <path
     style="fill:#fe9923;stroke-width:0.249675"
     d="m 67.832949,37.570075 v 26.465462 c 0,2.097513 -1.6476,3.745113 -3.745112,3.745113 V 37.570075 Z"
     id="path177" />
  <path
     style="fill:#ff3e75;stroke-width:0.249675"
     d="M 94.298416,22.589625 H 33.877263 c -6.217137,0 -11.235338,5.018201 -11.235338,11.235337 v 7.490226 c 0,2.097512 1.647601,3.745112 3.745113,3.745112 h 75.401602 c 2.09751,0 3.74512,-1.6476 3.74512,-3.745112 v -7.490226 c 0,-6.217136 -5.01846,-11.235337 -11.235344,-11.235337 z"
     id="path183" />
  <path
     style="fill:#fc1a40;stroke-width:0.249675"
     d="m 105.53376,33.824962 v 7.490226 c 0,2.097512 -1.64761,3.745112 -3.74512,3.745112 H 64.087837 V 22.589625 h 30.210579 c 6.216884,0 11.235344,5.018201 11.235344,11.235337 z"
     id="path185" />
  <rect
     x="60.343475"
     y="22.589622"
     style="fill:#fedb41;stroke-width:0.249675"
     width="7.4902244"
     height="22.470675"
     id="rect187" />
  <rect
     x="64.088585"
     y="22.589622"
     style="fill:#fcbf29;stroke-width:0.249675"
     width="3.7451122"
     height="22.470675"
     id="rect189" />
  <path
     style="fill:#cba677;fill-opacity:1;stroke-width:0.249675"
     d="m 109.27887,82.761097 c 2.09751,0 3.74511,1.647602 3.74511,3.745113 v 37.70081 c 0,2.0975 -1.6476,3.74511 -3.74511,3.74511 H 18.896813 c -2.097513,0 -3.745112,-1.64761 -3.745112,-3.74511 V 86.50621 c 0,-2.097511 1.647599,-3.745113 3.745112,-3.745113 L 62.140378,60.290425 h 3.895167 z"
     id="path191" />
  <path
     style="fill:#c1955d;fill-opacity:1;stroke-width:0.249675"
     d="m 109.27887,82.761097 c 2.09751,0 3.74511,1.647602 3.74511,3.745113 v 37.70081 c 0,2.0975 -1.6476,3.74511 -3.74511,3.74511 H 64.087837 V 60.290425 h 1.947459 z"
     id="path193" />
  <path
     style="fill:#ffc300;fill-opacity:1;stroke-width:0.249675"
     d="M 24.888993,7.6091747 H 21.143881 V 3.8640622 c 0,-2.0700487 -1.675064,-3.7451127 -3.745113,-3.7451127 -2.070048,0 -3.745112,1.675064 -3.745112,3.7451127 V 7.6091747 H 9.908544 c -2.0700496,0 -3.7451137,1.6750638 -3.7451137,3.7451123 0,2.070049 1.6750641,3.745113 3.7451137,3.745113 h 3.745112 v 3.745112 c 0,2.070048 1.675064,3.745113 3.745112,3.745113 2.070049,0 3.745113,-1.675065 3.745113,-3.745113 V 15.0994 h 3.745112 c 2.070049,0 3.745112,-1.675064 3.745112,-3.745113 0,-2.0700485 -1.675063,-3.7451123 -3.745112,-3.7451123 z"
     id="path195" />
  <g
     id="g201"
     transform="matrix(0.24967418,0,0,0.24967418,0.19172362,0.11869982)">
    <circle
       style="fill:#ffc300;fill-opacity:1"
       cx="466.92099"
       cy="195.00101"
       r="15"
       id="circle197" />
    <path
       style="fill:#ffc300;fill-opacity:1"
       d="m 466.918,90.001 c -24.814,0 -45,-20.186 -45,-45 0,-24.814 20.186,-45 45,-45 24.814,0 45,20.186 45,45 0,24.814 -20.186,45 -45,45 z"
       id="path199" />
  </g>
  <path
     id="path11271"
     style="fill:none;fill-opacity:1;stroke:#035000;stroke-width:2.62959;stroke-miterlimit:4;stroke-dasharray:none;stroke-opacity:1"
     d="m 38.82927,87.389993 c 7.594741,-0.323964 15.697839,3.292346 19.267428,10.252554 2.909229,5.458483 1.773668,12.516253 -2.350184,17.042813 -1.186813,0.9622 -2.116245,2.26977 -1.780663,3.85708 -0.01784,1.37227 0.231049,2.77353 0.02744,4.12598 -1.574924,1.46549 -3.762268,-0.90577 -5.557309,-1.21319 -1.868249,-1.18947 -3.884899,-0.10495 -5.840683,0.12577 -7.960501,1.21699 -16.913667,-1.91712 -21.271098,-8.93558 -3.29579,-5.16977 -2.855619,-12.28048 0.914491,-17.092637 3.843796,-5.160476 10.250557,-7.96612 16.590572,-8.162845 z" />
  <path
     style="fill:#d4b68e;fill-opacity:1;stroke-width:0.249675"
     d="M 15.750919,61.938024 0.82040323,84.408699 c -1.6348665,2.615334 0.1525509,5.842626 3.09595957,5.842626 H 40.918074 c 1.198187,0 2.646546,-0.599466 3.320417,-1.573201 L 64.087837,60.290425 H 18.896813 c -1.273338,0 -2.396872,0.599467 -3.145894,1.647599 z"
     id="path203" />
  <g
     id="g207"
     transform="translate(0.5326821,0.1179495)" />
  <g
     id="g209"
     transform="translate(0.5326821,0.1179495)" />
  <g
     id="g211"
     transform="translate(0.5326821,0.1179495)" />
  <g
     id="g213"
     transform="translate(0.5326821,0.1179495)" />
  <g
     id="g215"
     transform="translate(0.5326821,0.1179495)" />
  <g
     id="g217"
     transform="translate(0.5326821,0.1179495)" />
  <g
     id="g219"
     transform="translate(0.5326821,0.1179495)" />
  <g
     id="g221"
     transform="translate(0.5326821,0.1179495)" />
  <g
     id="g223"
     transform="translate(0.5326821,0.1179495)" />
  <g
     id="g225"
     transform="translate(0.5326821,0.1179495)" />
  <g
     id="g227"
     transform="translate(0.5326821,0.1179495)" />
  <g
     id="g229"
     transform="translate(0.5326821,0.1179495)" />
  <g
     id="g231"
     transform="translate(0.5326821,0.1179495)" />
  <g
     id="g233"
     transform="translate(0.5326821,0.1179495)" />
  <g
     id="g235"
     transform="translate(0.5326821,0.1179495)" />
  <path
     style="fill:#d4b68e;fill-opacity:1;stroke-width:0.249675"
     d="M 127.40496,84.408699 112.42451,61.938024 c -0.74878,-1.048382 -1.87257,-1.647599 -3.14564,-1.647599 H 64.087837 l 19.849344,28.387699 c 0.673876,0.973735 1.872557,1.573201 3.070745,1.573201 h 37.251394 c 2.94316,0 4.78051,-3.227292 3.14564,-5.842626 z"
     id="path205" />
  <g
     id="g11279"
     transform="matrix(0.32184085,-0.01099305,0.01099305,0.32184085,-57.446511,81.782506)">
    <g
       style="font-style:normal;font-variant:normal;font-weight:normal;font-stretch:normal;font-size:35.2511px;line-height:1.45;font-family:Aviny;-inkscape-font-specification:Aviny;text-align:end;text-anchor:end;white-space:pre;shape-inside:url(#rect3271);fill:#035000;fill-opacity:1;stroke:#035000;stroke-width:0.425717;stroke-miterlimit:4;stroke-dasharray:none;stroke-opacity:1"
       id="g11275"
       transform="matrix(2.6001613,0,0,2.6001613,9046.603,-3001.8834)"
       aria-label="пе"
       inkscape:export-xdpi="91.790001"
       inkscape:export-ydpi="91.790001">
      <path
         d="m -3349.2946,1180.9828 c 0.4071,3.1453 -1.4939,6.1785 -4.1099,7.7976 -4.1083,2.7756 -9.2568,3.3485 -14.0975,3.1924 -4.2287,-0.2299 -8.7035,-1.5956 -11.5241,-4.9229 -1.5656,-1.8972 -1.9308,-4.7815 -0.5234,-6.8688 1.8649,-2.8974 5.3879,-3.9804 8.6029,-4.5352 2.806,-0.4702 5.7391,-0.4354 8.4696,0.4222 0.8829,1.201 -1.6956,1.1788 -2.4838,1.2608 -3.6275,0.3927 -7.5363,0.6461 -10.5839,2.8799 -1.4265,1.0153 -1.6883,3.1803 -0.3319,4.3747 2.0672,2.3021 5.3586,2.6569 8.2657,2.9018 4.1678,0.2862 8.527,-0.1002 12.3093,-1.9894 1.5201,-0.8492 2.7558,-2.4729 2.5731,-4.2876 0.1226,-1.232 1.6798,-2.5128 2.8189,-1.6203 0.4019,0.348 0.5359,0.8917 0.615,1.3948 z"
         style="font-style:normal;font-variant:normal;font-weight:normal;font-stretch:normal;font-size:35.2511px;font-family:Aviny;-inkscape-font-specification:Aviny;fill:#035000;fill-opacity:1;stroke:#035000;stroke-width:0.549587;stroke-miterlimit:4;stroke-dasharray:none;stroke-opacity:1"
         id="path11273" />
    </g>
    <path
       id="path11277"
       style="fill:#035000;fill-opacity:1;stroke:none;stroke-width:1.99257;stroke-linecap:round;stroke-linejoin:round;stroke-miterlimit:4;stroke-dasharray:none;stroke-opacity:1;paint-order:markers fill stroke"
       d="m 306.12885,110.25678 a 9.413273,9.413273 0 0 1 -9.40789,9.41421 9.413273,9.413273 0 0 1 -9.42365,-9.41421 9.413273,9.413273 0 0 1 9.42365,-9.41263 9.413273,9.413273 0 0 1 9.40789,9.41263 z"
       inkscape:export-xdpi="91.790001"
       inkscape:export-ydpi="91.790001" />
  </g>
</svg>
