<svg xmlns="http://www.w3.org/2000/svg" width="512" height="512">
    <defs>
        <style>
            #noq {
                animation: .7s ease-in-out -.7s infinite alternate-reverse anim-noq
            }
            #tan {
                animation: .7s ease-in-out -.7s infinite alternate-reverse anim-tan
            }
            @keyframes anim-tan {
                to {
                    fill: transparent
                }
            }
            @keyframes anim-noq {
                0% {
                    transform: translate(-100px, 0)
                }

                to {
                    transform: translate(90px, 0)
                }
            }
        </style>
    </defs>
    <g id="kuze" transform="matrix(.47121 0 0 .38461 -5199.091 -4575.783)">
        <path fill="#9a4121"
            d="M11179.01 12429.446c2.416-10.763 6.095-26.751 9.85-40.167 3.755-13.415 30.525-80.559 33.247-81.031 192.243 86.25 597.736 42.934 617.677 38.986 1.228.446 2.211 1.286 3.032 2.306.821 1.021 1.481 2.222 2.064 3.391 8.814 17.678 13.464 38.637 16.198 60.041 2.734 21.404 3.552 43.251 4.701 62.705 1.921 32.54.979 64.948-1.518 97.268-2.497 32.32-6.55 64.552-10.85 96.738-12.141 90.879-34.418 180.073-65.867 265.925-31.449 85.852-72.07 168.362-120.902 245.872-.946 1.502-1.919 3.03-3.032 4.416-1.114 1.385-2.369 2.628-3.88 3.559-1.753 1.08-3.715 1.658-5.753 1.975-2.038.317-4.152.373-6.211.408-37.937.65-75.927-.277-113.733-3.284-37.806-3.007-75.428-8.091-112.629-15.758-10.594-2.194-28.119-6.526-42.256-14.147s-24.885-18.532-21.923-33.883c.473-2.452 1.386-4.806 2.224-7.17.838-2.364 1.601-4.738 1.775-7.229.362-5.187-1.765-9.774-4.986-13.892-3.22-4.118-7.534-7.767-11.543-11.078-21.622-17.856-39.564-38.726-55.07-61.394s-28.576-47.133-40.456-72.179c-30.668-64.654-55.964-134.231-71.891-205.624-15.927-71.393-22.482-144.602-15.669-216.52a635.11 635.11 0 015.838-44.68 632.35 632.35 0 018.997-44.152c.206-.855.536-2.321.97-4.265.434-1.944.974-4.368 1.596-7.137z"
            id="kuz1" />
        <path fill="#7e3a1a"
            d="M11824.485 12755.615c9.765-49.741 17.279-99.862 22.7-150.247 5.42-50.385 8.75-101.033 10.151-151.828.614-22.298-1.56-44.664-6.378-66.443-4.82-21.779-1.21-19.906-11.174-39.863 40.816-4.222 111.893-16.225 111.893-16.225 3.114-.258 13.407 39.463 18.758 61.769 5.352 22.306 10.148 45.847 11.046 50.527 9.657 50.326 12.936 101.609 11.053 152.771-1.882 51.161-8.926 102.2-19.917 152.042-5.574 25.276-12.188 50.32-19.766 75.069a1021.751 1021.751 0 01-25.559 73.304c-15.884 40.567-34.418 83.734-58.183 123.366-23.766 39.632-52.763 75.727-89.575 102.15-.99.711-2.003 1.435-2.909 2.251-.906.816-1.707 1.726-2.269 2.806-1.006 1.931-1.106 4.057-.886 6.24.221 2.182.763 4.421 1.042 6.582.753 5.82-.579 11.603-3.268 16.818-2.688 5.215-12.162 11.897-16.837 15.443-36.578 14.992-61.441 20.253-103.144 19.32 29.16-52.757 64.413-114.573 88.752-166.055 19.889-42.942 36.456-87.208 50.325-132.329 13.867-45.124 25.041-91.101 34.145-137.468z"
            id="kuz2" />
    </g>
    <g id="dar" transform="matrix(.49832 0 0 .45284 -5512.956 -5404.837)">
        <path id="dar1"
            d="M11833.706 12326.112l-.03-.13-.03-.13c-2.347-10.237-6.068-25.125-12.336-37.95-6.268-12.825-15.084-23.588-27.619-25.574-4.928-.78-10.416-.519-15.922-.02-5.506.502-11.032 1.244-16.037 1.425-10.652.583-21.344.871-32.038 1.04-10.695.169-21.393.219-32.058.328-69.209.703-138.87-1.79-208.101-8.573s-138.032-17.858-205.52-34.318c-3.18-.776-6.35-1.489-9.545-1.937-3.195-.448-6.415-.629-9.695-.341-1.014 1.408-1.912 2.954-3.039 4.228-1.127 1.274-2.484 2.276-4.418 2.597l-1.664 1.324-1.664 1.324c-12.158 9.673-25.731 17.229-39.063 25.341-13.332 8.112-26.423 16.781-37.615 28.68-9.262 9.847-16.165 20.997-19.006 32.854-2.841 11.857-1.619 24.422 5.367 37.099 1.747 3.169 3.943 6.147 6.54 8.607 2.597 2.46 5.595 4.401 8.945 5.495 1.877.613 3.82.948 5.783 1.087 1.963.139 3.948.08 5.908-.09 10.532-.933 20.262-5.004 29.368-10.627 9.105-5.624 17.586-12.801 25.619-19.948 1.967-1.75 4.008-3.546 6.2-4.987 2.192-1.441 4.534-2.527 7.102-2.858 4.881-.629 9.322 1.357 13.22 4.404 3.897 3.047 7.25 7.155 9.955 10.771 3.948 5.277 8.418 9.924 13.19 14.209s9.848 8.209 15.006 12.04c4.377 3.25 9.003 5.272 13.84 6.193 4.838.92 9.887.738 15.112-.422 4.98-1.105 9.874-2.457 14.658-4.141 4.784-1.685 9.456-3.702 13.991-6.138 4.701-2.525 9.563-4.553 14.533-6.253 4.97-1.7 10.048-3.073 15.181-4.287 6.451-1.526 12.541-1.506 18.299-.05 5.758 1.461 11.184 4.363 16.307 8.599.566.468 1.102.978 1.638 1.485.537.507 1.075 1.012 1.647 1.471 4.148 3.327 8.173 6.811 12.329 10.12 4.156 3.309 8.442 6.442 13.112 9.068 6.935 3.899 14.046 7.096 21.38 9.58a120.236 120.236 0 0022.723 5.3c9.013 1.204 17.843 1.412 26.482.258s17.086-3.67 25.333-7.914c5.873-3.022 11.406-6.586 16.826-10.331 5.421-3.745 10.728-7.672 16.15-11.42a160.403 160.403 0 016.414-4.224 117.947 117.947 0 016.624-3.847c3.13-1.678 6.314-2.823 9.616-3.326 3.302-.503 6.721-.363 10.32.53 2.487.616 4.927 1.274 7.32 2.064 2.393.79 4.736 1.712 7.032 2.858 8.486 4.235 16.966 8.482 25.456 12.709a3368.953 3368.953 0 0025.51 12.588c3.93 1.915 7.871 3.829 11.85 5.645 3.979 1.815 7.995 3.532 12.073 5.053 5.558 2.073 11.266 2.963 17.032 3.276 5.766.312 11.59.05 17.38-.193 10.764-.445 20.804-2.718 30.061-6.861 9.257-4.143 17.73-10.157 25.361-18.083 3.065-3.183 5.94-6.563 8.789-9.97 2.849-3.408 5.673-6.843 8.637-10.138 2.069-2.301 3.926-4.895 6.076-7.126 2.15-2.231 4.595-4.102 7.84-4.957l.775-.99.774-.992c0-3.519.07-6.912-.06-10.292-.129-3.382-.455-6.749-1.228-10.217z"
            fill="#fcb431" />
        <path id="dar2"
            d="M11262.734 12220.392c-65.945-25.376-44.253-105.699 3.415-119.999 8.115-2.262 16.447-3.412 24.857-3.978 8.41-.566 16.896-.549 25.32-.478 41.756.352 83.48 1.825 125.202 3.414 41.722 1.589 83.441 3.295 125.185 4.113 20.812.408 41.633.604 62.45.455 20.817-.149 41.631-.644 62.428-1.615 18.797-.878 38.915-1.142 58.913-2.185 19.998-1.043 39.875-2.864 58.188-6.857 3.181-.694 8.642-1.364 13.933-1.204 5.291.16 10.411 1.151 12.91 3.78 1.682 1.769 2.898 3.872 3.858 6.12s1.663 4.642 2.322 6.993c2.957 10.554 5.55 21.262 7.372 32.071 1.822 10.809 2.871 21.72 2.741 32.68-.171 14.42-2.705 28.533-7.545 41.79-4.84 13.257-11.985 25.657-21.377 36.652-9.254 10.834-21.335 13.847-34.244 14.272-12.909.424-26.646-1.74-39.214-1.261a1965.84 1965.84 0 01-36.337 1.053 1827.64 1827.64 0 01-36.35.356 1871.94 1871.94 0 01-145.597-5.714 1875.144 1875.144 0 01-76.736-7.6 1871.136 1871.136 0 01-76.358-10.752c-18.854-3.052-38.35-5.839-57.801-9.233-19.452-3.394-38.859-7.394-57.535-12.873zm74.594-79.73c.31 5.418 2.283 9.959 4.942 14.132 2.658 4.173 6.002 7.979 9.05 11.924 2.74 3.545 5.552 7.035 8.389 10.506 2.837 3.47 5.7 6.92 8.542 10.386 2.994 3.65 6.206 7.058 9.713 10.119 3.507 3.061 7.308 5.775 11.48 8.037 1.939 1.051 3.928 1.9 5.918 2.122 1.989.221 3.979-.185 5.918-1.643.854-2.223 1.027-4.297.715-6.242-.312-1.946-1.11-3.763-2.198-5.475-2.982-4.69-5.907-9.43-8.922-14.104-3.015-4.674-6.121-9.281-9.464-13.707-2.912-3.856-6.124-7.484-9.412-11.057-3.287-3.572-6.65-7.089-9.864-10.72-.71-.802-1.35-1.665-1.972-2.545-.622-.88-1.224-1.776-1.859-2.645-3.977-5.438-7.233-8.104-10.49-7.963-3.255.14-6.511 3.087-10.486 8.875zm9.11 57.443a7.246 7.246 0 001.527-3.922c.111-1.383-.155-2.796-.735-4.103a75.344 75.344 0 00-3.153-6.257 119.586 119.586 0 00-3.624-6.012 55.46 55.46 0 00-6.67-8.472 945.533 945.533 0 00-10.223-10.496 474.835 474.835 0 00-10.461-10.254c-1.473-1.396-3.388-1.632-5.03-1.029a5.34 5.34 0 00-3.394 4.01c-.586 3.013-.549 5.876.14 8.579.689 2.703 2.029 5.248 4.048 7.624 1.281 1.508 2.485 3.083 3.694 4.651 1.21 1.569 2.426 3.132 3.731 4.617 3.231 3.673 6.549 7.262 10.129 10.552 3.58 3.291 7.422 6.284 11.7 8.765 1.208.701 2.432 1.537 3.782 1.998 1.352.461 2.828.547 4.539-.251z"
            fill="#ffc431" />
        <path id="dar3"
            d="M11800.944 12260.598c1.546.687 3.119 1.437 4.738 1.85 1.619.412 3.284.489 5.013-.17 2.375-.906 4.794-1.22 7.23-1.356 2.436-.136 4.886-.1 7.325-.294 4.125-.335 8.25-.718 12.366-1.16 4.117-.443 8.226-.945 12.32-1.52 6.137-.861 12.261-1.805 18.382-2.769 6.121-.965 12.239-1.949 18.364-2.892 9.053-1.393 16.389-2.775 23.508-2.54 7.12.236 14.024 2.088 22.212 7.163 11.648 7.218 24.098 16.504 34.674 27.174 10.576 10.67 19.276 22.726 23.42 35.485 5.817 17.907-1.37 31.186-14.181 40.104-12.81 8.919-31.245 13.477-47.925 13.945-9.234.258-18.471-.413-27.591-1.799-9.119-1.385-18.12-3.487-26.883-6.088-8.469-2.513-16.495-5.995-24.527-9.469-8.033-3.474-16.071-6.94-24.562-9.424a7.468 7.468 0 01-.867-.289 2.626 2.626 0 01-.759-.457c-.45-.403-.644-.938-.704-1.515-.06-.578.01-1.198.09-1.771.876-6.216.68-12.438-.324-18.564-1.004-6.126-2.815-12.155-5.168-17.986a176.768 176.768 0 00-3.306-7.726c-1.181-2.568-2.45-5.099-3.832-7.512-1.465-2.557-3.393-4.843-5.286-7.148-1.893-2.305-3.748-4.628-5.069-7.257-.288-.573-.547-1.162-.831-1.738-.284-.577-.591-1.14-.976-1.664-.641-.872-1.476-1.607-2.294-2.352-.817-.744-1.618-1.499-2.19-2.411-1.089-1.738-.784-2.975.111-3.978.895-1.004 2.38-1.774 3.654-2.575l1.934-.65 1.932-.647z"
            fill="#f0a02a" />
        <path id="dar4"
            d="M11958.309 12148.97c8.297 10.225 13.893 21.508 15.498 33.594 1.605 12.085-.783 24.971-8.454 38.402-7.459 13.058-18.628 19.624-31.149 23.862-12.521 4.239-26.395 6.149-39.263 9.899-2.862.834-5.817 1.343-8.798 1.769-2.98.425-5.986.765-8.949 1.262-6.105 1.02-12.202 2.087-18.303 3.132-6.101 1.044-12.205 2.067-18.323 3a353.442 353.442 0 01-12.28 1.647c-4.103.479-8.214.894-12.326 1.256-2.431.214-4.875.171-7.302.319-2.427.148-4.839.488-7.206 1.469-1.724.714-3.383.632-4.997.184-1.613-.447-3.181-1.26-4.722-2.004.552-.961 1.078-1.938 1.62-2.906a44.122 44.122 0 011.708-2.848c2.682-4.048 5.526-8.005 8.284-12.008 2.758-4.004 5.43-8.054 7.768-12.289 11.138-20.171 15.275-43.484 14.243-66.806-1.032-23.322-7.235-46.652-16.775-66.857-.605-1.282-1.111-2.611-1.618-4.032-.508-1.421-1.019-2.934-1.635-4.585l6.189-1.006 5.496-.894c19.216-3.125 46.613 1.215 73.168 11.22 26.555 10.008 52.27 25.68 68.126 45.22z"
            fill="#fcb431" />
        <path id="darlak1"
            d="M11337.328 12140.662c3.975-5.788 7.231-8.735 10.487-8.876 3.256-.141 6.513 2.525 10.49 7.963.635.868 1.238 1.765 1.859 2.645.622.88 1.262 1.743 1.972 2.545 3.214 3.631 6.577 7.148 9.864 10.72 3.287 3.572 6.499 7.201 9.412 11.057 3.343 4.426 6.448 9.034 9.464 13.707s5.94 9.414 8.922 14.104c1.088 1.711 1.885 3.529 2.198 5.475.312 1.946.139 4.019-.715 6.242-1.939 1.458-3.929 1.864-5.918 1.643-1.989-.221-3.979-1.07-5.918-2.122-4.172-2.263-7.973-4.977-11.48-8.037-3.507-3.061-6.719-6.469-9.713-10.119-2.842-3.465-5.705-6.916-8.542-10.386-2.837-3.47-5.649-6.96-8.389-10.506-3.049-3.945-6.392-7.751-9.05-11.924-2.659-4.172-4.633-8.714-4.943-14.131z"
            fill="#fcb22e" />
        <path id="darlak2"
            d="M11346.438 12198.105c-1.712.798-3.187.712-4.537.251-1.35-.461-2.574-1.297-3.782-1.998-4.278-2.482-8.12-5.474-11.7-8.765-3.58-3.291-6.898-6.879-10.129-10.552-1.306-1.485-2.522-3.048-3.731-4.617-1.21-1.569-2.413-3.144-3.694-4.651-2.019-2.376-3.359-4.921-4.048-7.624-.689-2.703-.726-5.566-.14-8.579a5.338 5.338 0 013.394-4.01c1.642-.603 3.557-.367 5.03 1.029a472.595 472.595 0 0110.461 10.254 945.533 945.533 0 0110.223 10.496 55.46 55.46 0 016.67 8.472 118.404 118.404 0 013.624 6.012 75.812 75.812 0 013.153 6.257c.58 1.308.846 2.721.735 4.103a7.252 7.252 0 01-1.529 3.922z"
            fill="#fcb22e" />
    </g>
    <path fill="#f4e8d7"
        d="M265.402 270.343c-7.898-9.25 42.209-40.047 59.23-40.322 17.02-.275 55.812 129.397 12.367 138.322-18.629 3.828-118.545 10.235-193.704-1.064-15.708-2.362-16.47-40.204-6.857-54.66 12.907-19.414 42.348-13.652 62.254-6.375 44.46 16.254 73.654 29.065 85.545 10.917 9.275-14.156-10.936-37.568-18.835-46.818z"
        id="be" stroke-width=".34" />
    <ellipse id="noq" fill="#f4e8d7" cx="259.881" cy="421.443" rx="33.41" ry="32.366" stroke-width=".34" />
    <g fill="#c18142" id="tan">
        <path
            d="m223 147-9.1-0.55c-83.1-5.29-114-14.3-115-14.6-2.48-0.679-3.03-2.03-1.72-2.88 1.32-0.978 4.16-1.07 6.64-0.392 0.62 0.17 31 8.88 111 13.9 72.2 4.63 124 5.14 156 4.78 34-0.321 49.3-4.15 53.5-5.14 1.52-0.23 1.58-0.593 2.18 0.395 0.6 0.989 0.07 1.87-1.34 2.68s-18.1 5.98-52.7 6.27c-30.2 0.286-80.3-0.23-149-4.37z" />
        <path
            d="m146 280h0.845c2.25-0.225 3.94-2.03 3.66-4.05 0-0.45-6.47-37.4-6.76-62.6-0.281-25 18.9-68.9 19.1-69.3 0.845-1.8-0.281-3.83-2.82-4.5-2.25-0.675-4.78 0.225-5.63 2.25-0.844 1.8-20 45.7-19.7 71.8 0.281 25.7 6.76 63 7.04 63.5 0.281 1.8 2.25 2.93 4.22 2.93z" />
        <path
            d="m175 283h0.563c2.53-0.213 4.22-1.7 3.94-3.62 0-0.64-6.19-56.9-5.91-79.2 0.281-22.8-2.82-56.5-2.82-56.7-0.282-1.92-2.25-3.2-4.78-3.2-2.53 0.213-4.22 1.7-4.22 3.62 0 0.426 2.82 33.7 2.82 56.2-0.281 22.8 5.63 77.5 5.91 79.9 0.282 1.7 1.97 2.98 4.22 2.98z" />
    </g>
</svg>