<svg width="512" height="512" xmlns="http://www.w3.org/2000/svg"><path d="M-1-1h514v514H-1z"><animate attributeName="fill" values="b5d9fc;1d1f2f;b5d9fc" dur="7s" repeatCount="indefinite"/></path><g stroke="null"><ellipse ry="186.941" rx="503.283" cy="401.159" cx="250.591" fill-opacity="null" stroke-opacity="null" stroke-width="null" fill="#00cb75"/><path d="M1516.237 3324.515l-104.677-393.848a15 15 0 00-14.497-11.147H1265.04a15 15 0 00-14.497 11.148l-104.647 393.847h370.34z" fill="#6b5c59" transform="matrix(.88 0 0 .733 -903 -1926)"/><path d="M1331.067 3324.515h185.17l-104.677-393.848a15 15 0 00-14.497-11.147h-65.996v404.995z" fill="#4f4540" transform="matrix(.88 0 0 .733 -903 -1926)"/><path d="M1331.065 3004.52c-8.284 0-15-6.717-15-15v-16c0-8.285 6.716-15 15-15s15 6.715 15 15v16c0 8.284-6.716 15-15 15zM1331.065 3080.52c-8.284 0-15-6.717-15-15v-16c0-8.285 6.716-15 15-15s15 6.715 15 15v16c0 8.284-6.716 15-15 15zM1331.065 3156.52c-8.284 0-15-6.717-15-15v-16c0-8.285 6.716-15 15-15s15 6.715 15 15v16c0 8.284-6.716 15-15 15zM1331.065 3232.52c-8.284 0-15-6.717-15-15v-16c0-8.285 6.716-15 15-15s15 6.715 15 15v16c0 8.284-6.716 15-15 15zM1331.065 3303.522c-8.284 0-15-6.716-15-15v-11.002c0-8.284 6.716-15 15-15s15 6.716 15 15v11.002c0 8.284-6.716 15-15 15z" fill="#fff4f4" transform="matrix(.88 0 0 .733 -903 -1926)"/></g></svg>