<svg width="512" height="512" version="1.1" viewBox="0 0 135.47 135.47" xmlns="http://www.w3.org/2000/svg"><path class="st0" d="m120.11 32.977c0-1.5016-1.2513-2.5027-2.5026-2.5027h-24.526v-22.524l-6.5069-7.508h-37.039l-6.5069 7.508v22.524h-24.025c-1.5016 0-2.5026 1.2513-2.5026 2.5027l-4.755 99.856c0 1.5016 1.2513 2.5026 2.5026 2.5026h107.86c1.5016 0 2.5026-1.2513 2.5026-2.5026zm-70.575-25.027h36.789v22.524h-36.789z" style="fill:#cba677;stroke-width:2.5027"/><path d="m68.34 43.939c16.819-0.14261 34.464 8.466 41.832 24.127 6.0209 12.29 2.9768 27.811-6.4842 37.509-2.6971 2.0381-4.8511 4.8593-4.2289 8.3947-0.14304 3.0331 0.30143 6.1506-0.25096 9.1258-3.5933 3.1217-8.2511-2.2871-12.197-3.1025-4.0414-2.7714-8.5828-0.52544-12.925-0.1629-17.695 2.0899-37.256-5.5168-46.362-21.366-6.8975-11.681-5.3871-27.372 3.3133-37.728 8.8895-11.121 23.269-16.841 37.303-16.797z" style="fill:none;stroke-width:5.8182;stroke:#035000"/><g transform="matrix(.71252 0 0 .71252 -144.13 24.268)"><g transform="matrix(2.6002 0 0 2.6002 9046.6 -3001.9)" style="fill:#035000;shape-inside:url(#rect3271);stroke-width:.42572;stroke:#035000;white-space:pre" aria-label="пе"><path d="m-3349.3 1181c0.4071 3.1453-1.4939 6.1785-4.1099 7.7976-4.1083 2.7756-9.2568 3.3485-14.098 3.1924-4.2287-0.2299-8.7035-1.5956-11.524-4.9229-1.5656-1.8972-1.9308-4.7815-0.5234-6.8688 1.8649-2.8974 5.3879-3.9804 8.6029-4.5352 2.806-0.4702 5.7391-0.4354 8.4696 0.4222 0.8829 1.201-1.6956 1.1788-2.4838 1.2608-3.6275 0.3927-7.5363 0.6461-10.584 2.8799-1.4265 1.0153-1.6883 3.1803-0.3319 4.3747 2.0672 2.3021 5.3586 2.6569 8.2657 2.9018 4.1678 0.2862 8.527-0.1002 12.309-1.9894 1.5201-0.8492 2.7558-2.4729 2.5731-4.2876 0.1226-1.232 1.6798-2.5128 2.8189-1.6203 0.4019 0.348 0.5359 0.8917 0.615 1.3948z" style="fill:#035000;stroke-width:.54959;stroke:#035000"/></g><path d="m306.13 110.26a9.4133 9.4133 0 0 1-9.4079 9.4142 9.4133 9.4133 0 0 1-9.4236-9.4142 9.4133 9.4133 0 0 1 9.4236-9.4126 9.4133 9.4133 0 0 1 9.4079 9.4126z" style="fill:#035000;paint-order:markers fill stroke"/></g></svg>
