<svg width="360" height="431" viewBox="0 0 360 431" fill="none" xmlns="http://www.w3.org/2000/svg">
<mask id="path-1-inside-1" fill="white">
<path fill-rule="evenodd" clip-rule="evenodd" d="M337.65 95.7874C341.641 95.7874 345.632 98.9804 345.632 103.77L360 422.262C360 426.253 356.807 430.244 352.018 430.244H7.98223C3.99112 430.244 0 427.051 0 422.262L15.1663 103.77C15.1663 99.7786 18.3591 95.7874 23.1485 95.7874H99.7783V23.9468L120.532 0H238.67L259.424 23.9468V95.7874H337.65ZM237.871 23.9468H120.532V95.7874H237.871V23.9468ZM180.577 147.733C231.573 147.3 284.113 173.462 305.78 219.517L305.811 219.582L305.842 219.646C323.157 254.989 314.609 300.141 287.244 328.58C278.096 335.659 268.497 347.132 270.725 362.623C270.595 366.268 270.686 370.012 270.77 373.416V373.417V373.418V373.418L270.77 373.426C270.799 374.619 270.828 375.771 270.845 376.863C270.893 379.891 270.868 382.662 270.66 385.263C270.618 385.261 270.576 385.258 270.533 385.254C269.1 385.139 267.035 384.475 263.981 382.933C262.046 381.955 260.373 380.993 258.51 379.921L258.507 379.919C257.199 379.167 255.798 378.36 254.145 377.457C251.15 375.819 247.534 373.996 243.665 372.929C235.125 367.689 226.312 367.461 218.732 368.365C215.196 368.787 211.656 369.493 208.521 370.118L208.059 370.21L207.545 370.313C204.018 371.013 200.973 371.579 198.077 371.821L197.923 371.834L197.77 371.852C144.142 378.186 85.6479 354.966 58.7571 308.16L58.7303 308.113L58.703 308.067C38.6996 274.191 43.0475 228.29 68.412 198.098L68.4826 198.014L68.5511 197.928C94.9039 164.96 137.96 147.6 180.473 147.733L180.525 147.733L180.577 147.733ZM180.477 129.733C236.732 129.274 296.697 158.003 322.038 211.791C342.995 254.646 332.304 308.17 299.685 341.608L299.211 342.094L298.669 342.503C290.98 348.313 287.525 354.329 288.618 360.538L288.792 361.523L288.744 362.522C288.592 365.762 288.669 368.924 288.754 372.437V372.438C288.786 373.761 288.82 375.133 288.843 376.578C288.922 381.587 288.854 387.184 287.803 392.848L287.229 395.938L284.856 397.999C280.017 402.203 274.497 403.632 269.088 403.196C264.118 402.796 259.533 400.851 255.867 399C253.642 397.877 251.068 396.405 248.803 395.109L248.802 395.109L248.799 395.107L248.794 395.104C247.574 394.407 246.445 393.761 245.509 393.25C242.279 391.483 239.981 390.486 238.229 390.123L236.455 389.757L234.961 388.732C231.065 386.061 226.774 385.533 220.864 386.238C218.065 386.572 215.219 387.138 211.958 387.787C211.659 387.847 211.356 387.907 211.049 387.968C207.608 388.651 203.707 389.403 199.733 389.745C140.539 396.681 74.355 371.391 43.1763 317.173C19.2304 276.573 24.4976 222.463 54.5592 186.604C84.9066 148.701 133.514 129.601 180.477 129.733ZM246.433 278.564C261.891 268.997 273.124 251.073 270.719 232.488C270.251 229.515 269.459 226.302 267.085 224.246C260.353 218.972 251.152 226.54 250.428 233.82C251.507 244.543 244.206 254.138 235.223 259.156C212.873 270.319 187.114 272.603 162.486 270.912C145.308 269.465 125.858 267.368 113.642 253.765C105.627 246.707 107.175 233.913 115.604 227.914C132.256 215.709 153.258 213.509 173.274 211.412L173.275 211.412L173.276 211.412C174.907 211.241 176.531 211.071 178.146 210.896C178.766 210.832 179.573 210.778 180.495 210.717H180.495C186.497 210.318 197.345 209.599 192.822 203.446C176.688 198.379 159.356 198.173 142.775 200.951C123.778 204.23 102.959 210.63 91.9391 227.751C83.6226 240.085 85.7809 257.128 95.0322 268.339C111.699 288 138.142 296.07 163.13 297.429C191.734 298.351 222.157 294.966 246.433 278.564ZM198.524 326.559C198.524 332.231 196.273 337.671 192.263 341.683C188.254 345.695 182.815 347.95 177.144 347.954C174.332 347.957 171.548 347.406 168.949 346.332C166.351 345.258 163.99 343.683 162.001 341.696C160.012 339.708 158.434 337.349 157.358 334.752C156.281 332.154 155.727 329.37 155.727 326.559C155.728 323.748 156.282 320.964 157.359 318.367C158.435 315.771 160.013 313.411 162.002 311.425C163.991 309.438 166.352 307.863 168.95 306.789C171.548 305.716 174.332 305.165 177.144 305.168C182.815 305.171 188.253 307.426 192.262 311.437C196.271 315.449 198.524 320.888 198.524 326.559Z"/>
</mask>
<path d="M345.632 103.77H341.632V103.86L341.636 103.95L345.632 103.77ZM360 422.262H364V422.172L363.996 422.082L360 422.262ZM0 422.262L-3.99547 422.072L-4 422.167V422.262H0ZM15.1663 103.77L19.1618 103.96L19.1663 103.865V103.77H15.1663ZM99.7783 95.7874V99.7874H103.778V95.7874H99.7783ZM99.7783 23.9468L96.7555 21.3271L95.7783 22.4547V23.9468H99.7783ZM120.532 0V-4H118.706L117.509 -2.61973L120.532 0ZM238.67 0L241.692 -2.61973L240.496 -4H238.67V0ZM259.424 23.9468H263.424V22.4547L262.446 21.3271L259.424 23.9468ZM259.424 95.7874H255.424V99.7874H259.424V95.7874ZM120.532 23.9468V19.9468H116.532V23.9468H120.532ZM237.871 23.9468H241.871V19.9468H237.871V23.9468ZM120.532 95.7874H116.532V99.7874H120.532V95.7874ZM237.871 95.7874V99.7874H241.871V95.7874H237.871ZM305.78 219.517L302.161 221.22L302.161 221.221L305.78 219.517ZM180.577 147.733L180.611 151.733L180.611 151.733L180.577 147.733ZM305.811 219.582L302.191 221.285L302.205 221.313L302.219 221.342L305.811 219.582ZM305.842 219.646L309.434 217.886L309.434 217.886L305.842 219.646ZM287.244 328.58L289.692 331.744L289.923 331.565L290.126 331.354L287.244 328.58ZM270.725 362.623L274.723 362.766L274.735 362.408L274.684 362.054L270.725 362.623ZM270.77 373.416H274.77V373.367L274.769 373.318L270.77 373.416ZM270.77 373.418H266.77V373.469L266.771 373.52L270.77 373.418ZM270.77 373.426L274.769 373.328L274.769 373.324L270.77 373.426ZM270.845 376.863L274.844 376.8L274.844 376.8L270.845 376.863ZM270.66 385.263L270.414 389.256L274.334 389.497L274.647 385.582L270.66 385.263ZM270.533 385.254L270.211 389.241L270.213 389.241L270.533 385.254ZM263.981 382.933L262.178 386.503L262.178 386.503L263.981 382.933ZM258.51 379.921L260.505 376.454L260.478 376.439L260.452 376.424L258.51 379.921ZM258.507 379.919L256.512 383.386L256.538 383.401L256.565 383.416L258.507 379.919ZM254.145 377.457L256.065 373.947L256.065 373.947L254.145 377.457ZM243.665 372.929L241.573 376.339L242.056 376.635L242.602 376.785L243.665 372.929ZM218.732 368.365L218.259 364.393L218.258 364.393L218.732 368.365ZM208.521 370.118L209.303 374.041L209.303 374.041L208.521 370.118ZM208.059 370.21L208.84 374.133L208.841 374.133L208.059 370.21ZM207.545 370.313L208.324 374.236L208.326 374.236L207.545 370.313ZM198.077 371.821L198.409 375.807L198.41 375.807L198.077 371.821ZM197.923 371.834L197.591 367.848L197.522 367.854L197.454 367.862L197.923 371.834ZM197.77 371.852L198.239 375.825L198.24 375.825L197.77 371.852ZM58.7571 308.16L62.2254 306.167L62.2251 306.166L58.7571 308.16ZM58.7303 308.113L62.1983 306.12L62.1868 306.1L62.1751 306.08L58.7303 308.113ZM58.703 308.067L62.1478 306.034L62.1473 306.033L58.703 308.067ZM68.412 198.098L65.3494 195.525L65.3494 195.525L68.412 198.098ZM68.4826 198.014L71.5452 200.587L71.5766 200.55L71.6071 200.512L68.4826 198.014ZM68.5511 197.928L65.4266 195.431L65.4266 195.431L68.5511 197.928ZM180.473 147.733L180.46 151.733L180.461 151.733L180.473 147.733ZM180.525 147.733L180.513 151.733L180.536 151.733L180.559 151.733L180.525 147.733ZM322.038 211.791L318.42 213.496L318.432 213.523L318.445 213.549L322.038 211.791ZM180.477 129.733L180.466 133.733L180.487 133.733L180.509 133.733L180.477 129.733ZM299.685 341.608L296.822 338.814L296.822 338.815L299.685 341.608ZM299.211 342.094L301.622 345.285L301.863 345.103L302.074 344.887L299.211 342.094ZM298.669 342.503L296.257 339.312L296.257 339.312L298.669 342.503ZM288.618 360.538L284.679 361.231L284.679 361.231L288.618 360.538ZM288.792 361.523L292.787 361.711L292.808 361.267L292.731 360.83L288.792 361.523ZM288.744 362.522L284.749 362.333L284.749 362.333L288.744 362.522ZM288.754 372.437H292.754V372.388L292.753 372.34L288.754 372.437ZM288.754 372.438H284.754V372.487L284.755 372.536L288.754 372.438ZM288.843 376.578L292.842 376.515L292.842 376.515L288.843 376.578ZM287.803 392.848L283.87 392.118L283.87 392.118L287.803 392.848ZM287.229 395.938L289.852 398.958L290.907 398.042L291.162 396.668L287.229 395.938ZM284.856 397.999L282.233 394.98L282.233 394.98L284.856 397.999ZM269.088 403.196L269.409 399.209L269.409 399.209L269.088 403.196ZM255.867 399L254.064 402.571L254.064 402.571L255.867 399ZM248.803 395.109L250.788 391.637L250.787 391.637L248.803 395.109ZM248.802 395.109L246.808 398.577L246.818 398.582L248.802 395.109ZM248.799 395.107L250.792 391.639L250.783 391.634L248.799 395.107ZM248.794 395.104L246.808 398.577L246.809 398.577L248.794 395.104ZM245.509 393.25L247.428 389.74L247.428 389.74L245.509 393.25ZM238.229 390.123L239.039 386.206L239.039 386.206L238.229 390.123ZM236.455 389.757L234.193 393.056L234.857 393.511L235.645 393.674L236.455 389.757ZM234.961 388.732L232.698 392.031L232.698 392.031L234.961 388.732ZM220.864 386.238L220.39 382.266L220.39 382.266L220.864 386.238ZM211.958 387.787L211.177 383.864L211.177 383.864L211.958 387.787ZM211.049 387.968L210.271 384.045L210.271 384.045L211.049 387.968ZM199.733 389.745L199.389 385.76L199.328 385.766L199.267 385.773L199.733 389.745ZM43.1763 317.173L46.6438 315.179L46.6329 315.16L46.6217 315.141L43.1763 317.173ZM54.5592 186.604L57.6245 189.174L57.6534 189.139L57.6816 189.104L54.5592 186.604ZM270.719 232.488L274.685 231.974L274.678 231.92L274.67 231.866L270.719 232.488ZM246.433 278.564L244.328 275.163L244.26 275.205L244.194 275.25L246.433 278.564ZM267.085 224.246L269.703 221.222L269.629 221.158L269.551 221.097L267.085 224.246ZM250.428 233.82L246.447 233.424L246.408 233.822L246.448 234.221L250.428 233.82ZM235.223 259.156L237.011 262.734L237.094 262.693L237.174 262.648L235.223 259.156ZM162.486 270.912L162.151 274.898L162.181 274.9L162.212 274.902L162.486 270.912ZM113.642 253.765L116.619 251.092L116.462 250.917L116.286 250.763L113.642 253.765ZM115.604 227.914L117.924 231.172L117.947 231.156L117.969 231.14L115.604 227.914ZM173.274 211.412L173.691 215.39L173.703 215.389L173.716 215.388L173.274 211.412ZM173.276 211.412L172.859 207.434L172.846 207.435L172.834 207.436L173.276 211.412ZM178.146 210.896L177.732 206.918L177.724 206.918L177.716 206.919L178.146 210.896ZM180.495 210.717V206.717H180.362L180.23 206.726L180.495 210.717ZM180.495 210.717V214.717H180.628L180.76 214.708L180.495 210.717ZM192.822 203.446L196.045 201.077L195.27 200.022L194.021 199.63L192.822 203.446ZM142.775 200.951L142.114 197.006L142.105 197.008L142.095 197.009L142.775 200.951ZM91.9391 227.751L95.2556 229.987L95.2795 229.951L95.3026 229.915L91.9391 227.751ZM95.0322 268.339L91.947 270.885L91.9639 270.905L91.981 270.925L95.0322 268.339ZM163.13 297.429L162.913 301.423L162.957 301.425L163.001 301.427L163.13 297.429ZM198.524 326.559L194.524 326.559L194.524 326.559L198.524 326.559ZM177.144 347.954L177.141 343.954L177.139 343.954L177.144 347.954ZM162.001 341.696L159.174 344.525L159.174 344.525L162.001 341.696ZM157.358 334.752L153.662 336.283L153.662 336.283L157.358 334.752ZM155.727 326.559L159.727 326.559L159.727 326.559L155.727 326.559ZM157.359 318.367L161.054 319.899L161.054 319.899L157.359 318.367ZM162.002 311.425L159.175 308.595L159.175 308.595L162.002 311.425ZM168.95 306.789L167.423 303.093L167.423 303.093L168.95 306.789ZM177.144 305.168L177.139 309.168L177.141 309.168L177.144 305.168ZM349.632 103.77C349.632 96.5159 343.586 91.7874 337.65 91.7874V99.7874C339.696 99.7874 341.632 101.445 341.632 103.77H349.632ZM363.996 422.082L349.628 103.59L341.636 103.95L356.004 422.442L363.996 422.082ZM352.018 434.244C359.272 434.244 364 428.198 364 422.262H356C356 424.309 354.343 426.244 352.018 426.244V434.244ZM7.98223 434.244H352.018V426.244H7.98223V434.244ZM-4 422.262C-4 429.516 2.04639 434.244 7.98223 434.244V426.244C5.93584 426.244 4 424.587 4 422.262H-4ZM11.1708 103.58L-3.99547 422.072L3.99547 422.452L19.1618 103.96L11.1708 103.58ZM23.1485 91.7874C15.8945 91.7874 11.1663 97.8339 11.1663 103.77H19.1663C19.1663 101.723 20.8238 99.7874 23.1485 99.7874V91.7874ZM99.7783 91.7874H23.1485V99.7874H99.7783V91.7874ZM95.7783 23.9468V95.7874H103.778V23.9468H95.7783ZM117.509 -2.61973L96.7555 21.3271L102.801 26.5665L123.555 2.61973L117.509 -2.61973ZM238.67 -4H120.532V4H238.67V-4ZM262.446 21.3271L241.692 -2.61973L235.647 2.61973L256.401 26.5665L262.446 21.3271ZM263.424 95.7874V23.9468H255.424V95.7874H263.424ZM337.65 91.7874H259.424V99.7874H337.65V91.7874ZM120.532 27.9468H237.871V19.9468H120.532V27.9468ZM124.532 95.7874V23.9468H116.532V95.7874H124.532ZM237.871 91.7874H120.532V99.7874H237.871V91.7874ZM233.871 23.9468V95.7874H241.871V23.9468H233.871ZM309.4 217.815C286.92 170.031 232.719 143.291 180.543 143.733L180.611 151.733C230.426 151.31 281.307 176.894 302.161 221.22L309.4 217.815ZM309.43 217.879L309.4 217.814L302.161 221.221L302.191 221.285L309.43 217.879ZM309.434 217.886L309.403 217.822L302.219 221.342L302.25 221.406L309.434 217.886ZM290.126 331.354C318.57 301.793 327.543 254.849 309.434 217.886L302.25 221.405C318.771 255.129 310.648 298.488 284.362 325.807L290.126 331.354ZM274.684 362.054C272.767 348.721 280.942 338.514 289.692 331.744L284.796 325.417C275.25 332.803 264.227 345.543 266.766 363.193L274.684 362.054ZM274.769 373.318C274.685 369.894 274.597 366.271 274.723 362.766L266.728 362.48C266.592 366.265 266.688 370.13 266.771 373.515L274.769 373.318ZM274.77 373.417V373.416H266.77V373.417H274.77ZM274.77 373.418V373.417H266.77V373.418H274.77ZM274.77 373.418V373.418H266.77V373.418H274.77ZM274.769 373.324L274.769 373.317L266.771 373.52L266.771 373.527L274.769 373.324ZM274.844 376.8C274.827 375.688 274.798 374.518 274.769 373.328L266.771 373.524C266.801 374.721 266.828 375.855 266.845 376.926L274.844 376.8ZM274.647 385.582C274.87 382.793 274.893 379.875 274.844 376.8L266.845 376.926C266.893 379.907 266.865 382.53 266.672 384.944L274.647 385.582ZM270.213 389.241C270.277 389.247 270.344 389.251 270.414 389.256L270.905 381.271C270.892 381.27 270.874 381.269 270.852 381.267L270.213 389.241ZM262.178 386.503C265.362 388.111 267.989 389.062 270.211 389.241L270.854 381.267C270.211 381.215 268.709 380.839 265.784 379.362L262.178 386.503ZM256.515 383.388C258.368 384.454 260.131 385.47 262.178 386.503L265.784 379.362C263.961 378.441 262.378 377.532 260.505 376.454L256.515 383.388ZM256.565 383.416L256.567 383.417L260.452 376.424L260.45 376.423L256.565 383.416ZM252.226 380.966C253.836 381.846 255.203 382.633 256.512 383.386L260.502 376.452C259.195 375.7 257.759 374.874 256.065 373.947L252.226 380.966ZM242.602 376.785C246.007 377.725 249.291 379.361 252.226 380.966L256.065 373.947C253.01 372.277 249.062 370.268 244.729 369.073L242.602 376.785ZM219.206 372.337C226.355 371.484 234.121 371.766 241.573 376.339L245.757 369.52C236.129 363.612 226.269 363.438 218.259 364.393L219.206 372.337ZM209.303 374.041C212.462 373.411 215.85 372.737 219.206 372.337L218.258 364.393C214.542 364.836 210.851 365.575 207.738 366.196L209.303 374.041ZM208.841 374.133L209.303 374.041L207.738 366.196L207.277 366.288L208.841 374.133ZM208.326 374.236L208.84 374.133L207.279 366.287L206.765 366.39L208.326 374.236ZM198.41 375.807C201.558 375.545 204.808 374.934 208.324 374.236L206.766 366.389C203.229 367.091 200.388 367.614 197.744 367.835L198.41 375.807ZM198.256 375.82L198.409 375.807L197.744 367.835L197.591 367.848L198.256 375.82ZM198.24 375.825L198.393 375.806L197.454 367.862L197.301 367.88L198.24 375.825ZM55.2887 310.152C83.1344 358.62 143.359 382.306 198.239 375.825L197.301 367.88C144.925 374.066 88.1614 351.311 62.2254 306.167L55.2887 310.152ZM55.2623 310.106L55.2891 310.153L62.2251 306.166L62.1983 306.12L55.2623 310.106ZM55.2582 310.1L55.2856 310.146L62.1751 306.08L62.1478 306.034L55.2582 310.1ZM65.3494 195.525C38.9241 226.98 34.3684 274.723 55.2587 310.101L62.1473 306.033C43.0308 273.659 47.1708 229.601 71.4747 200.671L65.3494 195.525ZM65.42 195.441L65.3494 195.525L71.4746 200.671L71.5452 200.587L65.42 195.441ZM65.4266 195.431L65.3581 195.517L71.6071 200.512L71.6756 200.426L65.4266 195.431ZM180.485 143.733C136.971 143.597 92.668 161.351 65.4266 195.431L71.6756 200.426C97.1398 168.569 138.949 151.603 180.46 151.733L180.485 143.733ZM180.537 143.733L180.484 143.733L180.461 151.733L180.513 151.733L180.537 143.733ZM180.543 143.733L180.491 143.733L180.559 151.733L180.611 151.733L180.543 143.733ZM325.657 210.087C299.499 154.567 237.872 125.265 180.444 125.733L180.509 133.733C235.591 133.284 293.894 161.44 318.42 213.496L325.657 210.087ZM302.548 344.401C336.259 309.845 347.386 254.518 325.632 210.034L318.445 213.549C338.605 254.773 328.349 306.496 296.822 338.814L302.548 344.401ZM302.074 344.887L302.548 344.401L296.822 338.815L296.347 339.301L302.074 344.887ZM301.08 345.695L301.622 345.285L296.799 338.902L296.257 339.312L301.08 345.695ZM292.558 359.845C291.857 355.861 293.833 351.171 301.08 345.695L296.257 339.312C288.127 345.455 283.194 352.797 284.679 361.231L292.558 359.845ZM292.731 360.83L292.558 359.845L284.679 361.231L284.852 362.216L292.731 360.83ZM292.74 362.71L292.787 361.711L284.796 361.334L284.749 362.333L292.74 362.71ZM292.753 372.34C292.667 368.801 292.595 365.783 292.74 362.71L284.749 362.333C284.588 365.741 284.67 369.046 284.755 372.535L292.753 372.34ZM292.754 372.438V372.437H284.754V372.438H292.754ZM292.842 376.515C292.819 375.05 292.785 373.661 292.753 372.341L284.755 372.536C284.788 373.86 284.821 375.216 284.843 376.642L292.842 376.515ZM291.735 393.578C292.863 387.506 292.922 381.582 292.842 376.515L284.843 376.642C284.921 381.592 284.846 386.862 283.87 392.118L291.735 393.578ZM291.162 396.668L291.735 393.578L283.87 392.118L283.296 395.208L291.162 396.668ZM287.48 401.019L289.852 398.958L284.606 392.918L282.233 394.98L287.48 401.019ZM268.767 407.183C275.155 407.698 281.761 405.987 287.48 401.019L282.233 394.98C278.273 398.42 273.839 399.566 269.409 399.209L268.767 407.183ZM254.064 402.571C257.869 404.492 263.012 406.72 268.767 407.183L269.409 399.209C265.223 398.872 261.197 397.211 257.67 395.43L254.064 402.571ZM246.817 398.582C249.058 399.863 251.729 401.391 254.064 402.571L257.67 395.43C255.556 394.362 253.077 392.946 250.788 391.637L246.817 398.582ZM246.818 398.582L246.818 398.582L250.787 391.637L250.787 391.636L246.818 398.582ZM246.805 398.575L246.808 398.577L250.796 391.642L250.792 391.639L246.805 398.575ZM246.809 398.577L246.814 398.58L250.783 391.634L250.778 391.631L246.809 398.577ZM243.59 396.759C244.485 397.249 245.578 397.873 246.808 398.577L250.779 391.632C249.571 390.941 248.405 390.274 247.428 389.74L243.59 396.759ZM237.42 394.041C238.549 394.274 240.403 395.016 243.59 396.759L247.428 389.74C244.155 387.95 241.414 386.697 239.039 386.206L237.42 394.041ZM235.645 393.674L237.42 394.041L239.039 386.206L237.264 385.84L235.645 393.674ZM232.698 392.031L234.193 393.056L238.717 386.458L237.223 385.433L232.698 392.031ZM221.337 390.21C226.773 389.562 229.932 390.134 232.698 392.031L237.223 385.433C232.197 381.987 226.774 381.505 220.39 382.266L221.337 390.21ZM212.739 391.711C216.034 391.055 218.722 390.522 221.337 390.21L220.39 382.266C217.409 382.622 214.404 383.222 211.177 383.864L212.739 391.711ZM211.828 391.892C212.136 391.831 212.44 391.77 212.739 391.71L211.177 383.864C210.878 383.924 210.576 383.984 210.271 384.045L211.828 391.892ZM200.076 393.731C204.296 393.367 208.394 392.573 211.828 391.892L210.271 384.045C206.823 384.729 203.118 385.439 199.389 385.76L200.076 393.731ZM39.7088 319.167C71.8444 375.049 139.759 400.8 200.198 393.718L199.267 385.773C141.318 392.563 76.8657 367.733 46.6438 315.179L39.7088 319.167ZM51.4938 184.034C20.3753 221.154 14.8993 277.103 39.7309 319.205L46.6217 315.141C23.5614 276.043 28.6199 223.772 57.6245 189.174L51.4938 184.034ZM180.488 125.733C132.527 125.598 82.6734 145.09 51.4367 184.104L57.6816 189.104C87.1398 152.312 134.501 133.603 180.466 133.733L180.488 125.733ZM266.752 233.001C268.907 249.654 258.806 266.203 244.328 275.163L248.538 281.966C264.977 271.791 277.341 252.492 274.685 231.974L266.752 233.001ZM264.466 227.27C265.648 228.293 266.302 230.153 266.767 233.109L274.67 231.866C274.2 228.877 273.27 224.311 269.703 221.222L264.466 227.27ZM254.408 234.216C254.633 231.956 256.317 229.248 258.714 227.659C260.999 226.144 263.019 226.142 264.618 227.394L269.551 221.097C264.419 217.075 258.473 218.22 254.293 220.991C250.226 223.687 246.947 228.403 246.447 233.424L254.408 234.216ZM237.174 262.648C247.002 257.158 255.701 246.27 254.408 233.419L246.448 234.221C247.313 242.816 241.41 251.118 233.273 255.664L237.174 262.648ZM162.212 274.902C187.213 276.619 213.775 274.34 237.011 262.734L233.436 255.577C211.972 266.298 187.015 268.587 162.76 266.921L162.212 274.902ZM110.666 256.437C124.106 271.404 145.27 273.476 162.151 274.898L162.822 266.926C145.346 265.454 127.609 263.331 116.619 251.092L110.666 256.437ZM113.285 224.655C103.031 231.953 100.802 247.788 110.999 256.767L116.286 250.763C110.452 245.625 111.319 235.873 117.924 231.172L113.285 224.655ZM172.857 207.434C153.062 209.507 130.912 211.734 113.24 224.687L117.969 231.14C133.599 219.683 153.454 217.51 173.691 215.39L172.857 207.434ZM172.833 207.436L172.832 207.437L173.716 215.388L173.717 215.388L172.833 207.436ZM172.834 207.436L172.833 207.436L173.717 215.388L173.717 215.387L172.834 207.436ZM177.716 206.919C176.109 207.093 174.491 207.263 172.859 207.434L173.692 215.39C175.322 215.219 176.954 215.049 178.577 214.873L177.716 206.919ZM180.23 206.726C179.337 206.785 178.444 206.844 177.732 206.918L178.56 214.875C179.089 214.82 179.809 214.771 180.76 214.708L180.23 206.726ZM180.495 206.717H180.495V214.717H180.495V206.717ZM189.6 205.815C190.319 206.794 189.571 206.321 190.079 205.317C190.349 204.783 190.555 205.026 189.302 205.458C187.019 206.245 183.41 206.515 180.23 206.726L180.76 214.708C183.582 214.521 188.398 214.231 191.909 213.021C193.553 212.454 195.999 211.338 197.218 208.927C198.675 206.045 197.588 203.175 196.045 201.077L189.6 205.815ZM143.436 204.896C159.563 202.194 176.233 202.428 191.624 207.262L194.021 199.63C177.142 194.329 159.15 194.152 142.114 197.006L143.436 204.896ZM95.3026 229.915C105.324 214.346 124.549 208.155 143.456 204.893L142.095 197.009C123.006 200.304 100.594 206.913 88.5756 225.586L95.3026 229.915ZM98.1173 265.793C89.8087 255.725 88.0836 240.624 95.2556 229.987L88.6226 225.514C79.1617 239.546 81.753 258.532 91.947 270.885L98.1173 265.793ZM163.347 293.434C138.906 292.106 113.748 284.231 98.0834 265.752L91.981 270.925C109.651 291.77 137.378 300.034 162.913 301.423L163.347 293.434ZM244.194 275.25C220.967 290.942 191.579 294.344 163.259 293.431L163.001 301.427C191.889 302.358 223.346 298.989 248.672 281.879L244.194 275.25ZM195.093 344.51C199.852 339.748 202.525 333.291 202.524 326.559L194.524 326.559C194.524 331.171 192.693 335.594 189.434 338.855L195.093 344.51ZM177.146 351.954C183.878 351.95 190.334 349.273 195.093 344.51L189.434 338.855C186.174 342.117 181.753 343.951 177.141 343.954L177.146 351.954ZM167.422 350.029C170.506 351.303 173.811 351.957 177.148 351.954L177.139 343.954C174.853 343.956 172.59 343.508 170.477 342.635L167.422 350.029ZM159.174 344.525C161.535 346.884 164.337 348.754 167.422 350.029L170.477 342.635C168.365 341.762 166.445 340.481 164.828 338.866L159.174 344.525ZM153.662 336.283C154.94 339.366 156.813 342.167 159.174 344.525L164.828 338.866C163.211 337.25 161.928 335.332 161.053 333.22L153.662 336.283ZM151.727 326.559C151.727 329.896 152.385 333.2 153.662 336.283L161.053 333.22C160.178 331.109 159.727 328.845 159.727 326.559L151.727 326.559ZM153.664 316.835C152.386 319.918 151.728 323.222 151.727 326.559L159.727 326.559C159.728 324.274 160.178 322.011 161.054 319.899L153.664 316.835ZM159.175 308.595C156.814 310.953 154.941 313.753 153.664 316.835L161.054 319.899C161.929 317.788 163.212 315.87 164.829 314.255L159.175 308.595ZM167.423 303.093C164.339 304.367 161.536 306.237 159.175 308.595L164.829 314.255C166.446 312.64 168.365 311.359 170.478 310.486L167.423 303.093ZM177.148 301.168C173.811 301.164 170.506 301.818 167.423 303.093L170.478 310.486C172.59 309.613 174.854 309.165 177.139 309.168L177.148 301.168ZM195.091 308.61C190.332 303.849 183.878 301.172 177.146 301.168L177.141 309.168C181.752 309.171 186.173 311.004 189.433 314.265L195.091 308.61ZM202.524 326.559C202.523 319.827 199.85 313.371 195.091 308.61L189.433 314.265C192.692 317.526 194.524 321.948 194.524 326.559L202.524 326.559Z" fill="white" mask="url(#path-1-inside-1)"/>
</svg>
