<svg width="360" height="431" version="1.1" viewBox="0 0 360 431" xmlns="http://www.w3.org/2000/svg"><mask id="a" fill="white"><path d="m337.65 95.787c3.991 0 7.982 3.193 7.982 7.9826l14.368 318.49c0 3.991-3.193 7.982-7.982 7.982h-344.04c-3.9911 0-7.9822-3.193-7.9822-7.982l15.166-318.49c0-3.9914 3.1928-7.9826 7.9822-7.9826h76.63v-71.841l20.754-23.947h118.14l20.754 23.947v71.841h78.226zm-99.779-71.841h-117.34v71.841h117.34v-71.841zm-57.294 123.79c50.996-0.433 103.54 25.729 125.2 71.784l0.031 0.065 0.031 0.064c17.315 35.343 8.767 80.495-18.598 108.93-9.148 7.079-18.747 18.552-16.519 34.043-0.13 3.645-0.039 7.389 0.045 10.793v2e-3 8e-3c0.029 1.193 0.058 2.345 0.075 3.437 0.048 3.028 0.023 5.799-0.185 8.4-0.042-2e-3 -0.084-5e-3 -0.127-9e-3 -1.433-0.115-3.498-0.779-6.552-2.321-1.935-0.978-3.608-1.94-5.471-3.012l-3e-3 -2e-3c-1.308-0.752-2.709-1.559-4.362-2.462-2.995-1.638-6.611-3.461-10.48-4.528-8.54-5.24-17.353-5.468-24.933-4.564-3.536 0.422-7.076 1.128-10.211 1.753l-0.462 0.092-0.514 0.103c-3.527 0.7-6.572 1.266-9.468 1.508l-0.154 0.013-0.153 0.018c-53.628 6.334-112.12-16.886-139.01-63.692l-0.0268-0.047-0.0273-0.046c-20.003-33.876-15.656-79.777 9.709-109.97l0.0706-0.084 0.0685-0.086c26.353-32.968 69.409-50.328 111.92-50.195h0.052 0.052zm-0.1-18c56.255-0.459 116.22 28.27 141.56 82.058 20.957 42.855 10.266 96.379-22.353 129.82l-0.474 0.486-0.542 0.409c-7.689 5.81-11.144 11.826-10.051 18.035l0.174 0.985-0.048 0.999c-0.152 3.24-0.075 6.402 0.01 9.915v1e-3c0.032 1.323 0.066 2.695 0.089 4.14 0.079 5.009 0.011 10.606-1.04 16.27l-0.574 3.09-2.373 2.061c-4.839 4.204-10.359 5.633-15.768 5.197-4.97-0.4-9.555-2.345-13.221-4.196-2.225-1.123-4.799-2.595-7.064-3.891h-1e-3l-3e-3 -2e-3 -5e-3 -3e-3c-1.22-0.697-2.349-1.343-3.285-1.854-3.23-1.767-5.528-2.764-7.28-3.127l-1.774-0.366-1.494-1.025c-3.896-2.671-8.187-3.199-14.097-2.494-2.799 0.334-5.645 0.9-8.906 1.549-0.299 0.06-0.602 0.12-0.909 0.181-3.441 0.683-7.342 1.435-11.316 1.777-59.194 6.936-125.38-18.354-156.56-72.572-23.946-40.6-18.679-94.71 11.383-130.57 30.347-37.903 78.955-57.003 125.92-56.871zm65.956 148.83c15.458-9.567 26.691-27.491 24.286-46.076-0.468-2.973-1.26-6.186-3.634-8.242-6.732-5.274-15.933 2.294-16.657 9.574 1.079 10.723-6.222 20.318-15.205 25.336-22.35 11.163-48.109 13.447-72.737 11.756-17.178-1.447-36.628-3.544-48.844-17.147-8.015-7.058-6.467-19.852 1.962-25.851 16.652-12.205 37.654-14.405 57.67-16.502h1e-3 1e-3c1.631-0.171 3.255-0.341 4.87-0.516 0.62-0.064 1.427-0.118 2.349-0.179 6.002-0.399 16.85-1.118 12.327-7.271-16.134-5.067-33.466-5.273-50.047-2.495-18.997 3.279-39.816 9.679-50.836 26.8-8.3165 12.334-6.1582 29.377 3.0931 40.588 16.667 19.661 43.11 27.731 68.098 29.09 28.604 0.922 59.027-2.463 83.303-18.865zm-47.909 47.995c0 5.672-2.251 11.112-6.261 15.124-4.009 4.012-9.448 6.267-15.119 6.271-2.812 3e-3 -5.596-0.548-8.195-1.622-2.598-1.074-4.959-2.649-6.948-4.636-1.989-1.988-3.567-4.347-4.643-6.944-1.077-2.598-1.631-5.382-1.631-8.193 1e-3 -2.811 0.555-5.595 1.632-8.192 1.076-2.596 2.654-4.956 4.643-6.942 1.989-1.987 4.35-3.562 6.948-4.636 2.598-1.073 5.382-1.624 8.194-1.621 5.671 3e-3 11.109 2.258 15.118 6.269 4.009 4.012 6.262 9.451 6.262 15.122z" clip-rule="evenodd" fill-rule="evenodd"/></mask><path d="m345.63 103.77h-4v0.09l4e-3 0.09 3.996-0.18zm14.368 318.49h4v-0.09l-4e-3 -0.09-3.996 0.18zm-360 0-3.9955-0.19-0.00453 0.095v0.095h4zm15.166-318.49 3.9955 0.19 0.0045-0.095v-0.095h-4zm84.612-7.9826v4h3.9997v-4h-3.9997zm0-71.841-3.0228-2.6197-0.9772 1.1276v1.4921h4zm20.754-23.947v-4h-1.826l-1.197 1.3803 3.023 2.6197zm118.14 0 3.022-2.6197-1.196-1.3803h-1.826v4zm20.754 23.947h4v-1.4921l-0.978-1.1276-3.022 2.6197zm0 71.841h-4v4h4v-4zm-138.89-71.841v-4h-4v4h4zm117.34 0h4v-4h-4v4zm-117.34 71.841h-4v4h4v-4zm117.34 0v4h4v-4h-4zm67.909 123.73-3.619 1.703v1e-3l3.619-1.704zm-125.2-71.784 0.034 4-0.034-4zm125.23 71.849-3.62 1.703 0.014 0.028 0.014 0.029 3.592-1.76zm0.031 0.064 3.592-1.76-3.592 1.76zm-18.598 108.93 2.448 3.164 0.231-0.179 0.203-0.211-2.882-2.774zm-16.519 34.043 3.998 0.143 0.012-0.358-0.051-0.354-3.959 0.569zm0.045 10.793h4v-0.049l-1e-3 -0.049-3.999 0.098zm0 2e-3h-4v0.051l1e-3 0.051 3.999-0.102zm0 8e-3 3.999-0.098v-4e-3l-3.999 0.102zm0.075 3.437 3.999-0.063-3.999 0.063zm-0.185 8.4-0.246 3.993 3.92 0.241 0.313-3.915-3.987-0.319zm-0.127-9e-3 -0.322 3.987h2e-3l0.32-3.987zm-6.552-2.321-1.803 3.57 1.803-3.57zm-5.471-3.012 1.995-3.467-0.027-0.015-0.026-0.015-1.942 3.497zm-3e-3 -2e-3 -1.995 3.467 0.026 0.015 0.027 0.015 1.942-3.497zm-4.362-2.462 1.92-3.51-1.92 3.51zm-10.48-4.528-2.092 3.41 0.483 0.296 0.546 0.15 1.063-3.856zm-24.933-4.564-0.473-3.972h-1e-3l0.474 3.972zm-10.211 1.753 0.782 3.923-0.782-3.923zm-0.462 0.092 0.781 3.923h1e-3l-0.782-3.923zm-0.514 0.103 0.779 3.923h2e-3l-0.781-3.923zm-9.468 1.508 0.332 3.986h1e-3l-0.333-3.986zm-0.154 0.013-0.332-3.986-0.069 6e-3 -0.068 8e-3 0.469 3.972zm-0.153 0.018 0.469 3.973h1e-3l-0.47-3.973zm-139.01-63.692 3.4683-1.993-3e-4 -1e-3 -3.468 1.994zm-0.0268-0.047 3.468-1.993-0.0115-0.02-0.0117-0.02-3.4448 2.033zm-0.0273-0.046 3.4448-2.033-5e-4 -1e-3 -3.4443 2.034zm9.709-109.97-3.0626-2.573 3.0626 2.573zm0.0706-0.084 3.0626 2.573 0.0314-0.037 0.0305-0.038-3.1245-2.498zm0.0685-0.086-3.1245-2.497 3.1245 2.497zm111.92-50.195-0.013 4h1e-3l0.012-4zm0.052 0-0.012 4h0.023 0.023l-0.034-4zm141.51 64.058-3.618 1.705 0.012 0.027 0.013 0.026 3.593-1.758zm-141.56-82.058-0.011 4h0.021 0.022l-0.032-4zm119.21 211.88-2.863-2.794v1e-3l2.863 2.793zm-0.474 0.486 2.411 3.191 0.241-0.182 0.211-0.216-2.863-2.793zm-0.542 0.409-2.412-3.191 2.412 3.191zm-10.051 18.035-3.939 0.693 3.939-0.693zm0.174 0.985 3.995 0.188 0.021-0.444-0.077-0.437-3.939 0.693zm-0.048 0.999-3.995-0.189 3.995 0.189zm0.01 9.915h4v-0.049l-1e-3 -0.048-3.999 0.097zm0 1e-3h-4v0.049l1e-3 0.049 3.999-0.098zm0.089 4.14 3.999-0.063-3.999 0.063zm-1.04 16.27-3.933-0.73 3.933 0.73zm-0.574 3.09 2.623 3.02 1.055-0.916 0.255-1.374-3.933-0.73zm-2.373 2.061-2.623-3.019 2.623 3.019zm-15.768 5.197 0.321-3.987-0.321 3.987zm-13.221-4.196-1.803 3.571 1.803-3.571zm-7.064-3.891 1.985-3.472h-1e-3l-1.984 3.472zm-1e-3 0-1.994 3.468 0.01 5e-3 1.984-3.473zm-3e-3 -2e-3 1.993-3.468-9e-3 -5e-3 -1.984 3.473zm-5e-3 -3e-3 -1.986 3.473h1e-3l1.985-3.473zm-3.285-1.854 1.919-3.51-1.919 3.51zm-7.28-3.127 0.81-3.917-0.81 3.917zm-1.774-0.366-2.262 3.299 0.664 0.455 0.788 0.163 0.81-3.917zm-1.494-1.025-2.263 3.299 2.263-3.299zm-14.097-2.494-0.474-3.972 0.474 3.972zm-8.906 1.549-0.781-3.923 0.781 3.923zm-0.909 0.181-0.778-3.923 0.778 3.923zm-11.316 1.777-0.344-3.985-0.061 6e-3 -0.061 7e-3 0.466 3.972zm-156.56-72.572 3.4675-1.994-0.0109-0.019-0.0112-0.019-3.4454 2.032zm11.383-130.57 3.0653 2.57 0.0289-0.035 0.0282-0.035-3.1224-2.5zm216.16 45.884 3.966-0.514-7e-3 -0.054-8e-3 -0.054-3.951 0.622zm-24.286 46.076-2.105-3.401-0.068 0.042-0.066 0.045 2.239 3.314zm20.652-54.318 2.618-3.024-0.074-0.064-0.078-0.061-2.466 3.149zm-16.657 9.574-3.981-0.396-0.039 0.398 0.04 0.399 3.98-0.401zm-15.205 25.336 1.788 3.578 0.083-0.041 0.08-0.045-1.951-3.492zm-72.737 11.756-0.335 3.986 0.03 2e-3 0.031 2e-3 0.274-3.99zm-48.844-17.147 2.977-2.673-0.157-0.175-0.176-0.154-2.644 3.002zm1.962-25.851 2.32 3.258 0.023-0.016 0.022-0.016-2.365-3.226zm57.67-16.502 0.417 3.978 0.012-1e-3 0.013-1e-3 -0.442-3.976zm2e-3 0-0.417-3.978-0.013 1e-3 -0.012 1e-3 0.442 3.976zm4.87-0.516-0.414-3.978h-8e-3l-8e-3 1e-3 0.43 3.977zm2.349-0.179v-4h-0.133l-0.132 9e-3 0.265 3.991zm0 0v4h0.133l0.132-9e-3 -0.265-3.991zm12.327-7.271 3.223-2.369-0.775-1.055-1.249-0.392-1.199 3.816zm-50.047-2.495-0.661-3.945-9e-3 2e-3 -0.01 1e-3 0.68 3.942zm-50.836 26.8 3.3165 2.236 0.0239-0.036 0.0231-0.036-3.3635-2.164zm3.0931 40.588-3.0852 2.546 0.0169 0.02 0.0171 0.02 3.0512-2.586zm68.098 29.09-0.217 3.994 0.088 4e-3 0.129-3.998zm35.394 29.13h-4 4zm-21.38 21.395-3e-3 -4h-2e-3l5e-3 4zm-15.143-6.258-2.827 2.829 2.827-2.829zm-4.643-6.944-3.696 1.531 3.696-1.531zm-1.631-8.193h4-4zm1.632-8.192 3.695 1.532-3.695-1.532zm4.643-6.942-2.827-2.83 2.827 2.83zm6.948-4.636-1.527-3.696 1.527 3.696zm8.194-1.621-5e-3 4h2e-3l3e-3 -4zm172.49-201.4c0-7.2541-6.046-11.983-11.982-11.983v8c2.046 0 3.982 1.6576 3.982 3.9826h8zm14.364 318.31-14.368-318.49-7.992 0.36 14.368 318.49 7.992-0.36zm-11.978 12.162c7.254 0 11.982-6.046 11.982-11.982h-8c0 2.047-1.657 3.982-3.982 3.982v8zm-344.04 0h344.04v-8h-344.04v8zm-11.982-11.982c0 7.254 6.0464 11.982 11.982 11.982v-8c-2.0464 0-3.9822-1.657-3.9822-3.982h-8zm15.171-318.68-15.166 318.49 7.9909 0.38 15.166-318.49-7.991-0.38zm11.978-11.793c-7.254 0-11.982 6.0465-11.982 11.983h8c0-2.047 1.6575-3.9826 3.9822-3.9826v-8zm76.63 0h-76.63v8h76.63v-8zm-4-67.841v71.841h7.9997v-71.841h-7.9997zm21.731-26.567-20.754 23.947 6.0455 5.2394 20.754-23.947-6.046-5.2395zm121.16-1.3803h-118.14v8h118.14v-8zm23.776 25.327-20.754-23.947-6.045 5.2395 20.754 23.947 6.045-5.2394zm0.978 74.46v-71.841h-8v71.841h8zm74.226-4h-78.226v8h78.226v-8zm-217.12-63.841h117.34v-8h-117.34v8zm4 67.841v-71.841h-8v71.841h8zm113.34-4h-117.34v8h117.34v-8zm-4-67.841v71.841h8v-71.841h-8zm75.529 193.87c-22.48-47.784-76.681-74.524-128.86-74.082l0.068 8c49.815-0.423 100.7 25.161 121.55 69.487l7.239-3.405zm0.03 0.064-0.03-0.065-7.239 3.407 0.03 0.064 7.239-3.406zm4e-3 7e-3 -0.031-0.064-7.184 3.52 0.031 0.064 7.184-3.52zm-19.308 113.47c28.444-29.561 37.417-76.505 19.308-113.47l-7.184 3.519c16.521 33.724 8.398 77.083-17.888 104.4l5.764 5.547zm-15.442 30.7c-1.917-13.333 6.258-23.54 15.008-30.31l-4.896-6.327c-9.546 7.386-20.569 20.126-18.03 37.776l7.918-1.139zm0.085 11.264c-0.084-3.424-0.172-7.047-0.046-10.552l-7.995-0.286c-0.136 3.785-0.04 7.65 0.043 11.035l7.998-0.197zm1e-3 0.099v-1e-3h-8v1e-3h8zm0 1e-3v-1e-3h-8v1e-3h8zm0 0h-8 8zm-1e-3 -0.094v-7e-3l-7.998 0.203v7e-3l7.998-0.203zm0.075 3.476c-0.017-1.112-0.046-2.282-0.075-3.472l-7.998 0.196c0.03 1.197 0.057 2.331 0.074 3.402l7.999-0.126zm-0.197 8.782c0.223-2.789 0.246-5.707 0.197-8.782l-7.999 0.126c0.048 2.981 0.02 5.604-0.173 8.018l7.975 0.638zm-4.434 3.659c0.064 6e-3 0.131 0.01 0.201 0.015l0.491-7.985c-0.013-1e-3 -0.031-2e-3 -0.053-4e-3l-0.639 7.974zm-8.035-2.738c3.184 1.608 5.811 2.559 8.033 2.738l0.643-7.974c-0.643-0.052-2.145-0.428-5.07-1.905l-3.606 7.141zm-5.663-3.115c1.853 1.066 3.616 2.082 5.663 3.115l3.606-7.141c-1.823-0.921-3.406-1.83-5.279-2.908l-3.99 6.934zm0.05 0.028 2e-3 1e-3 3.885-6.993-2e-3 -1e-3 -3.885 6.993zm-4.339-2.45c1.61 0.88 2.977 1.667 4.286 2.42l3.99-6.934c-1.307-0.752-2.743-1.578-4.437-2.505l-3.839 7.019zm-9.624-4.181c3.405 0.94 6.689 2.576 9.624 4.181l3.839-7.019c-3.055-1.67-7.003-3.679-11.336-4.874l-2.127 7.712zm-23.396-4.448c7.149-0.853 14.915-0.571 22.367 4.002l4.184-6.819c-9.628-5.908-19.488-6.082-27.498-5.127l0.947 7.944zm-9.903 1.704c3.159-0.63 6.547-1.304 9.903-1.704l-0.948-7.944c-3.716 0.443-7.407 1.182-10.52 1.803l1.565 7.845zm-0.462 0.092 0.462-0.092-1.565-7.845-0.461 0.092 1.564 7.845zm-0.515 0.103 0.514-0.103-1.561-7.846-0.514 0.103 1.561 7.846zm-9.916 1.571c3.148-0.262 6.398-0.873 9.914-1.571l-1.558-7.847c-3.537 0.702-6.378 1.225-9.022 1.446l0.666 7.972zm-0.154 0.013 0.153-0.013-0.665-7.972-0.153 0.013 0.665 7.972zm-0.016 5e-3 0.153-0.019-0.939-7.944-0.153 0.018 0.939 7.945zm-142.95-65.673c27.846 48.468 88.07 72.154 142.95 65.673l-0.938-7.945c-52.376 6.186-109.14-16.569-135.08-61.713l-6.9367 3.985zm-0.0264-0.046 0.0268 0.047 6.936-3.987-0.0268-0.046-6.936 3.986zm-0.0041-6e-3 0.0274 0.046 6.8895-4.066-0.0273-0.046-6.8896 4.066zm10.091-114.58c-26.425 31.455-30.981 79.198-10.091 114.58l6.8886-4.068c-19.116-32.374-14.976-76.432 9.3274-105.36l-6.1253-5.146zm0.0706-0.084-0.0706 0.084 6.1252 5.146 0.0706-0.084-6.1252-5.146zm0.0066-0.01-0.0685 0.086 6.249 4.995 0.0685-0.086-6.249-4.995zm115.06-51.698c-43.514-0.136-87.817 17.618-115.06 51.698l6.249 4.995c25.464-31.857 67.273-48.823 108.78-48.693l0.025-8zm0.052 0h-0.053l-0.023 8h0.052l0.024-8zm6e-3 0h-0.052l0.068 8h0.052l-0.068-8zm145.11 66.354c-26.158-55.52-87.785-84.822-145.21-84.354l0.065 8c55.082-0.449 113.38 27.707 137.91 79.763l7.237-3.409zm-23.109 134.31c33.711-34.556 44.838-89.883 23.084-134.37l-7.187 3.515c20.16 41.224 9.904 92.947-21.623 125.26l5.726 5.587zm-0.474 0.486 0.474-0.486-5.726-5.586-0.475 0.486 5.727 5.586zm-0.994 0.808 0.542-0.41-4.823-6.383-0.542 0.41 4.823 6.383zm-8.522 14.15c-0.701-3.984 1.275-8.674 8.522-14.15l-4.823-6.383c-8.13 6.143-13.063 13.485-11.578 21.919l7.879-1.386zm0.173 0.985-0.173-0.985-7.879 1.386 0.173 0.985 7.879-1.386zm9e-3 1.88 0.047-0.999-7.991-0.377-0.047 0.999 7.991 0.377zm0.013 9.63c-0.086-3.539-0.158-6.557-0.013-9.63l-7.991-0.377c-0.161 3.408-0.079 6.713 6e-3 10.202l7.998-0.195zm1e-3 0.098v-1e-3h-8v1e-3h8zm0.088 4.077c-0.023-1.465-0.057-2.854-0.089-4.174l-7.998 0.195c0.033 1.324 0.066 2.68 0.088 4.106l7.999-0.127zm-1.107 17.063c1.128-6.072 1.187-11.996 1.107-17.063l-7.999 0.127c0.078 4.95 3e-3 10.22-0.973 15.476l7.865 1.46zm-0.573 3.09 0.573-3.09-7.865-1.46-0.574 3.09 7.866 1.46zm-3.682 4.351 2.372-2.061-5.246-6.04-2.373 2.062 5.247 6.039zm-18.713 6.164c6.388 0.515 12.994-1.196 18.713-6.164l-5.247-6.039c-3.96 3.44-8.394 4.586-12.824 4.229l-0.642 7.974zm-14.703-4.612c3.805 1.921 8.948 4.149 14.703 4.612l0.642-7.974c-4.186-0.337-8.212-1.998-11.739-3.779l-3.606 7.141zm-7.247-3.989c2.241 1.281 4.912 2.809 7.247 3.989l3.606-7.141c-2.114-1.068-4.593-2.484-6.882-3.793l-3.971 6.945zm1e-3 0 3.969-6.945v-1e-3l-3.969 6.946zm-0.013-7e-3 3e-3 2e-3 3.988-6.935-4e-3 -3e-3 -3.987 6.936zm4e-3 2e-3 5e-3 3e-3 3.969-6.946-5e-3 -3e-3 -3.969 6.946zm-3.219-1.818c0.895 0.49 1.988 1.114 3.218 1.818l3.971-6.945c-1.208-0.691-2.374-1.358-3.351-1.892l-3.838 7.019zm-6.17-2.718c1.129 0.233 2.983 0.975 6.17 2.718l3.838-7.019c-3.273-1.79-6.014-3.043-8.389-3.534l-1.619 7.835zm-1.775-0.367 1.775 0.367 1.619-7.835-1.775-0.366-1.619 7.834zm-2.947-1.643 1.495 1.025 4.524-6.598-1.494-1.025-4.525 6.598zm-11.361-1.821c5.436-0.648 8.595-0.076 11.361 1.821l4.525-6.598c-5.026-3.446-10.449-3.928-16.833-3.167l0.947 7.944zm-8.598 1.501c3.295-0.656 5.983-1.189 8.598-1.501l-0.947-7.944c-2.981 0.356-5.986 0.956-9.213 1.598l1.562 7.847zm-0.911 0.181c0.308-0.061 0.612-0.122 0.911-0.182l-1.562-7.846c-0.299 0.06-0.601 0.12-0.906 0.181l1.557 7.847zm-11.752 1.839c4.22-0.364 8.318-1.158 11.752-1.839l-1.557-7.847c-3.448 0.684-7.153 1.394-10.882 1.715l0.687 7.971zm-160.37-74.564c32.136 55.882 100.05 81.633 160.49 74.551l-0.931-7.945c-57.949 6.79-122.4-18.04-152.62-70.594l-6.935 3.988zm11.785-135.13c-31.118 37.12-36.594 93.069-11.763 135.17l6.8908-4.064c-23.06-39.098-18.002-91.369 11.003-125.97l-6.1307-5.14zm128.99-58.301c-47.961-0.135-97.815 19.357-129.05 58.371l6.2449 5c29.458-36.792 76.819-55.501 122.78-55.371l0.022-8zm86.264 107.27c2.155 16.653-7.946 33.202-22.424 42.162l4.21 6.803c16.439-10.175 28.803-29.474 26.147-49.992l-7.933 1.027zm-2.286-5.731c1.182 1.023 1.836 2.883 2.301 5.839l7.903-1.243c-0.47-2.989-1.4-7.555-4.967-10.644l-5.237 6.048zm-10.058 6.946c0.225-2.26 1.909-4.968 4.306-6.557 2.285-1.515 4.305-1.517 5.904-0.265l4.933-6.297c-5.132-4.022-11.078-2.877-15.258-0.106-4.067 2.696-7.346 7.412-7.846 12.433l7.961 0.792zm-17.234 28.432c9.828-5.49 18.527-16.378 17.234-29.229l-7.96 0.802c0.865 8.595-5.038 16.897-13.175 21.443l3.901 6.984zm-74.962 12.254c25.001 1.717 51.563-0.562 74.799-12.168l-3.575-7.157c-21.464 10.721-46.421 13.01-70.676 11.344l-0.548 7.981zm-51.546-18.465c13.44 14.967 34.604 17.039 51.485 18.461l0.671-7.972c-17.476-1.472-35.213-3.595-46.203-15.834l-5.953 5.345zm2.619-31.782c-10.254 7.298-12.483 23.133-2.286 32.112l5.287-6.004c-5.834-5.138-4.967-14.89 1.638-19.591l-4.639-6.517zm59.572-17.221c-19.795 2.073-41.945 4.3-59.617 17.253l4.729 6.453c15.63-11.457 35.485-13.63 55.722-15.75l-0.834-7.956zm-0.024 2e-3 -1e-3 1e-3 0.884 7.951h1e-3l-0.884-7.952zm1e-3 0h-1e-3l0.884 7.952v-1e-3l-0.883-7.951zm4.882-0.517c-1.607 0.174-3.225 0.344-4.857 0.515l0.833 7.956c1.63-0.171 3.262-0.341 4.885-0.517l-0.861-7.954zm2.514-0.193c-0.893 0.059-1.786 0.118-2.498 0.192l0.828 7.957c0.529-0.055 1.249-0.104 2.2-0.167l-0.53-7.982zm0.265-9e-3v8-8zm9.105-0.902c0.719 0.979-0.029 0.506 0.479-0.498 0.27-0.534 0.476-0.291-0.777 0.141-2.283 0.787-5.892 1.057-9.072 1.268l0.53 7.982c2.822-0.187 7.638-0.477 11.149-1.687 1.644-0.567 4.09-1.683 5.309-4.094 1.457-2.882 0.37-5.752-1.173-7.85l-6.445 4.738zm-46.164-0.919c16.127-2.702 32.797-2.468 48.188 2.366l2.397-7.632c-16.879-5.301-34.871-5.478-51.907-2.624l1.322 7.89zm-48.133 25.019c10.021-15.569 29.246-21.76 48.153-25.022l-1.361-7.884c-19.089 3.295-41.501 9.904-53.519 28.577l6.727 4.329zm2.8147 35.878c-8.3086-10.068-10.034-25.169-2.8617-35.806l-6.633-4.473c-9.4609 14.032-6.8696 33.018 3.3244 45.371l6.1703-5.092zm65.23 27.641c-24.441-1.328-49.599-9.203-65.264-27.682l-6.1024 5.173c17.67 20.845 45.397 29.109 70.932 30.498l0.434-7.989zm80.847-18.184c-23.227 15.692-52.615 19.094-80.935 18.181l-0.258 7.996c28.888 0.931 60.345-2.438 85.671-19.548l-4.478-6.629zm-49.101 69.26c4.759-4.762 7.432-11.219 7.431-17.951h-8c0 4.612-1.831 9.035-5.09 12.296l5.659 5.655zm-17.947 7.444c6.732-4e-3 13.188-2.681 17.947-7.444l-5.659-5.655c-3.26 3.262-7.681 5.096-12.293 5.099l5e-3 8zm-9.724-1.925c3.084 1.274 6.389 1.928 9.726 1.925l-9e-3 -8c-2.286 2e-3 -4.549-0.446-6.662-1.319l-3.055 7.394zm-8.248-5.504c2.361 2.359 5.163 4.229 8.248 5.504l3.055-7.394c-2.112-0.873-4.032-2.154-5.649-3.769l-5.654 5.659zm-5.512-8.242c1.278 3.083 3.151 5.884 5.512 8.242l5.654-5.659c-1.617-1.616-2.9-3.534-3.775-5.646l-7.391 3.063zm-1.935-9.724c0 3.337 0.658 6.641 1.935 9.724l7.391-3.063c-0.875-2.111-1.326-4.375-1.326-6.661h-8zm1.937-9.724c-1.278 3.083-1.936 6.387-1.937 9.724h8c1e-3 -2.285 0.451-4.548 1.327-6.66l-7.39-3.064zm5.511-8.24c-2.361 2.358-4.234 5.158-5.511 8.24l7.39 3.064c0.875-2.111 2.158-4.029 3.775-5.644l-5.654-5.66zm8.248-5.502c-3.084 1.274-5.887 3.144-8.248 5.502l5.654 5.66c1.617-1.615 3.536-2.896 5.649-3.769l-3.055-7.393zm9.725-1.925c-3.337-4e-3 -6.642 0.65-9.725 1.925l3.055 7.393c2.112-0.873 4.376-1.321 6.661-1.318l9e-3 -8zm17.943 7.442c-4.759-4.761-11.213-7.438-17.945-7.442l-5e-3 8c4.611 3e-3 9.032 1.836 12.292 5.097l5.658-5.655zm7.433 17.949c-1e-3 -6.732-2.674-13.188-7.433-17.949l-5.658 5.655c3.259 3.261 5.091 7.683 5.091 12.294h8z" fill="#fff" mask="url(#a)"/></svg>
