<svg width="512" height="512" xmlns="http://www.w3.org/2000/svg">
 <!-- Created with Method Draw - http://github.com/duopixel/Method-Draw/ -->

 <g>
  <title>background</title>
  <rect fill="none" id="canvas_background" height="514" width="514" y="-1" x="-1"/>
  <g display="none" overflow="visible" y="0" x="0" height="100%" width="100%" id="canvasGrid">
   <rect fill="url(#gridpattern)" stroke-width="0" y="0" x="0" height="100%" width="100%"/>
  </g>
 </g>
 <g>
  <title>Layer 1</title>
  <g stroke="null" id="svg_174">
   <path stroke="null" id="svg_142" fill="#2BA037" d="m496.441039,153.771677c-0.448718,-13.472711 -11.67698,-24.700972 -25.14969,-24.251395l-30.98818,0l0,104.191943l3.143604,9.880389l0,58.832756l5.388912,0c16.167597,0 31.886475,2.245309 47.155777,7.185503l0.448718,0l0,-155.390478c0.00086,0 0.00086,-0.448718 0.00086,-0.448718z"/>
   <path stroke="null" id="svg_143" fill="#F4B844" d="m387.75762,312.304899l2.245309,0.898295l0,2.245309c0,0.898295 0,1.796591 0.448718,2.245309l-0.448718,0l0,26.496704l-3.143604,0l-20.659073,-0.898295l-1.347013,0c1.796591,-5.83849 3.143604,-12.575275 3.143604,-18.862483c0,-4.490617 -0.448718,-8.982094 -1.347013,-13.472711l1.796591,0l19.3112,1.347873z"/>
   <path stroke="null" id="svg_144" fill="#E5A739" d="m348.685641,279.520128c12.575275,3.143604 25.14969,4.490617 38.173683,4.490617c31.886475,0 59.281474,-8.532516 61.078065,-18.412905l0,32.335193c-30.539462,0.448718 -55.689153,7.63508 -58.832756,16.617174l-2.245309,-0.898295l-17.51461,-0.898295l-1.796591,0c-2.694886,-12.575275 -9.430812,-24.251395 -19.3112,-32.784771l0.448718,-0.448718z"/>
   <path stroke="null" id="svg_145" fill="#2BA037" d="m150.182145,275.029511l119.461244,0l1.347013,6.287208c-12.575275,10.778684 -19.760778,26.946281 -19.760778,43.563455c0,3.143604 0.448718,5.83849 0.898295,8.982094l-77.245662,0c-13.472711,0 -24.700972,-11.227402 -24.700972,-24.700972c0.00086,0 0.00086,-34.131784 0.00086,-34.131784z"/>
   <path stroke="null" id="svg_146" fill="#3BB54A" d="m420.092813,74.729424l-296.408231,0c-13.922288,0 -24.700972,10.777825 -25.14969,24.700113l0,154.940901l0,0.448718c0.448718,13.472711 11.67698,24.700972 25.14969,24.251395l145.510089,0l1.347013,1.796591c10.778684,-9.880389 24.700972,-15.269301 39.071978,-15.269301c5.83849,0 11.67698,0.898295 17.51461,2.694886l117.665513,-34.581361l0,-104.191943l0,-30.089885c0,-13.472711 -11.227402,-24.700113 -24.700972,-24.700113z"/>
   <g stroke="null" transform="matrix(0.8596127531230646,0,0,0.8596127531230646,-1609.096319991791,-1596.598859247424) " id="svg_147">
    <path stroke="null" id="svg_148" fill="#2BA037" d="m2188.177231,1988.165512c41.796,0 75.233,33.437 75.233,75.233s-33.437,75.233 -75.233,75.233s-75.233,-33.437 -75.233,-75.233c0.001,-41.796 33.437,-75.233 75.233,-75.233l0,0z"/>
    <circle stroke="null" id="svg_149" fill="#2BA037" r="20.898001" cy="1994.957512" cx="2039.279231"/>
   </g>
   <path stroke="null" id="svg_150" fill="#E5A739" d="m509.465032,346.436683l0,29.641167c0,10.329107 -26.946281,18.412905 -60.17977,18.412905s-59.731052,-8.083798 -59.731052,-18.412905l0,-26.946281c4.940194,8.982094 29.641167,15.718879 59.281474,15.718879c29.641167,0 60.629347,-8.533376 60.629347,-18.413765z"/>
   <path stroke="null" id="svg_151" fill="#F4B844" d="m509.465032,317.693811l0,28.742872l0,0c0,9.880389 -27.844576,18.412905 -60.629347,18.412905s-54.34128,-6.736785 -59.281474,-15.718879l0,-30.089885l0,0c3.593181,8.982094 28.742872,16.167597 59.281474,16.167597s58.384039,-7.634221 60.629347,-17.51461z"/>
   <path stroke="null" id="svg_152" fill="#FEDB41" d="m509.465032,317.693811c-2.245309,9.880389 -28.742872,17.51461 -60.629347,17.51461s-55.689153,-7.185503 -59.281474,-16.167597c-0.448718,-0.898295 -0.448718,-1.347013 -0.448718,-2.245309l0,-2.245309c3.143604,-8.982094 28.293294,-16.167597 58.832756,-16.617174l0.898295,0c16.167597,0 31.886475,2.245309 47.155777,7.185503c8.532516,3.143604 13.472711,7.185503 13.472711,11.67698l0,0.898295z"/>
   <path stroke="null" id="svg_153" fill="#E5A739" d="m389.55421,349.131569l0,23.802677l-3.143604,0c-12.125697,0 -24.251395,-1.347013 -36.377092,-4.041899l-0.898295,0c8.083798,-7.185503 13.922288,-16.167597 16.617174,-26.496704l1.347013,0l19.3112,0.898295l3.143604,0l0,5.83763z"/>
   <path stroke="null" id="svg_154" fill="#F4B844" d="m447.937389,239.101136l0,26.496704c-1.796591,9.880389 -29.191589,18.412905 -61.078065,18.412905c-13.023993,0 -25.599268,-1.347013 -38.173683,-4.490617l-0.448718,0c-5.83849,-4.940194 -13.023993,-8.982094 -20.659073,-11.227402l0,0l0,-31.436898c1.796591,9.430812 27.844576,17.065892 59.731052,17.065892c31.886475,0 55.239575,-6.288067 60.628487,-14.820583z"/>
   <g stroke="null" transform="matrix(0.8596127531230646,0,0,0.8596127531230646,-1609.096319991791,-1596.598859247424) " id="svg_155">
    <path stroke="null" id="svg_156" fill="#FEDB41" d="m2392.977231,2136.018512c-6.269,9.926 -37.094,17.241 -71.053,17.241s-67.396,-8.882 -69.486,-19.853c-0.522,-0.522 -0.522,-1.045 -0.522,-1.567c0,-11.494 31.347,-21.42 70.008,-21.42c29.78,0 56.947,5.747 67.396,14.106c2.612,1.567 4.702,4.18 4.702,7.314c0,1.567 0,3.134 -1.045,4.179z"/>
    <path stroke="null" id="svg_157" fill="#FEDB41" d="m2302.071231,2221.177512c0.522,4.702 1.045,9.404 1.045,14.106c0,6.792 -1.045,13.584 -2.612,20.375c-3.657,12.016 -10.449,22.988 -20.375,31.869c-28.735,26.122 -73.665,24.033 -99.788,-4.702c-9.404,-10.449 -15.673,-22.988 -17.763,-36.571c-0.522,-3.657 -1.045,-7.314 -1.045,-10.449c0,-19.853 8.359,-39.184 23.51,-52.767c18.808,-16.718 44.408,-22.465 68.441,-14.629c9.404,2.612 17.763,7.314 25.078,13.584c12.015,9.927 20.374,23.511 23.509,39.184z"/>
   </g>
   <path stroke="null" id="svg_158" fill="#F4B844" d="m310.06324,294.790289c16.617174,0 30.089885,13.472711 30.089885,30.089885c0,16.617174 -13.472711,30.089885 -30.089885,30.089885s-30.089885,-13.472711 -30.089885,-30.089885l0,0c-0.00086,-16.617174 13.472711,-30.089885 30.089885,-30.089885z"/>
   <g stroke="null" transform="matrix(0.8596127531230646,0,0,0.8596127531230646,-1609.096319991791,-1596.598859247424) " id="svg_159"/>
   <g stroke="null" transform="matrix(0.8596127531230646,0,0,0.8596127531230646,-1609.096319991791,-1596.598859247424) " id="svg_160"/>
   <g stroke="null" transform="matrix(0.8596127531230646,0,0,0.8596127531230646,-1609.096319991791,-1596.598859247424) " id="svg_161"/>
   <g stroke="null" transform="matrix(0.8596127531230646,0,0,0.8596127531230646,-1609.096319991791,-1596.598859247424) " id="svg_162"/>
   <g stroke="null" transform="matrix(0.8596127531230646,0,0,0.8596127531230646,-1609.096319991791,-1596.598859247424) " id="svg_163"/>
   <g stroke="null" transform="matrix(0.8596127531230646,0,0,0.8596127531230646,-1609.096319991791,-1596.598859247424) " id="svg_164"/>
   <g stroke="null" transform="matrix(0.8596127531230646,0,0,0.8596127531230646,-1609.096319991791,-1596.598859247424) " id="svg_165"/>
   <g stroke="null" transform="matrix(0.8596127531230646,0,0,0.8596127531230646,-1609.096319991791,-1596.598859247424) " id="svg_166"/>
   <g stroke="null" transform="matrix(0.8596127531230646,0,0,0.8596127531230646,-1609.096319991791,-1596.598859247424) " id="svg_167"/>
   <g stroke="null" transform="matrix(0.8596127531230646,0,0,0.8596127531230646,-1609.096319991791,-1596.598859247424) " id="svg_168"/>
   <g stroke="null" transform="matrix(0.8596127531230646,0,0,0.8596127531230646,-1609.096319991791,-1596.598859247424) " id="svg_169"/>
   <g stroke="null" transform="matrix(0.8596127531230646,0,0,0.8596127531230646,-1609.096319991791,-1596.598859247424) " id="svg_170"/>
   <g stroke="null" transform="matrix(0.8596127531230646,0,0,0.8596127531230646,-1609.096319991791,-1596.598859247424) " id="svg_171"/>
   <g stroke="null" transform="matrix(0.8596127531230646,0,0,0.8596127531230646,-1609.096319991791,-1596.598859247424) " id="svg_172"/>
   <g stroke="null" transform="matrix(0.8596127531230646,0,0,0.8596127531230646,-1609.096319991791,-1596.598859247424) " id="svg_173"/>
  </g>
  <!-- Created with Method Draw - http://github.com/duopixel/Method-Draw/ -->
  <g stroke="null" id="svg_89">
   <g stroke="null" transform="matrix(1.0060523842403277,0,0,1.0060523842403277,-2069.249419599929,-2075.2975238187864) " id="svg_86">
    <title stroke="null" transform="translate(0.993984043598175,0) translate(0.993984043598175,0) translate(0.993984043598175,0) translate(0.993984043598175,0) translate(0,-0.993984043598175) translate(0,-0.993984043598175) translate(0,-0.993984043598175) translate(0,-0.993984043598175) translate(0,-0.993984043598175) translate(0,-0.993984043598175) translate(0,-0.993984043598175) translate(0,-0.993984043598175) translate(0,-0.993984043598175) translate(0,-0.993984043598175) translate(0,-0.993984043598175) translate(0,-0.993984043598175) translate(0,-0.993984043598175) translate(0,-0.993984043598175) translate(0,-0.993984043598175) translate(0,-0.993984043598175) translate(0,-0.993984043598175) translate(0,-0.993984043598175) translate(0,-0.993984043598175) translate(0,-0.993984043598175) translate(0,-0.993984043598175) translate(0,-0.993984043598175) translate(0,-0.993984043598175) translate(0,-0.993984043598175) translate(0,-0.993984043598175) translate(0,-0.993984043598175) translate(0,-0.993984043598175) translate(-3.9759361743927,-72.56083679199219) translate(-1.98796808719635,31.8074893951416) translate(-1.98796808719635,38.765377044677734) translate(0.993984043598175,-4.9699201583862305) translate(0.993984043598175,0) translate(0.993984043598175,-24.849599838256836) translate(0,22.86163330078125) translate(-0.993984043598175,-2.98195219039917) translate(2.98195219039917,-39.759361267089844) translate(-1.98796808719635,-0.993984043598175) translate(-0.993984043598175,10.93382453918457) translate(0,47.71123504638672) translate(17.756160736083984,5.222400188446045) translate(-9.400320053100586,8.355839729309082) translate(-2.0889599323272705,55.35744094848633) translate(2047.9998779296875,0) translate(0,2047.9998779296875) ">background</title>
    <rect stroke="null" x="2051.278791" y="2095.061895" width="514" height="514" id="svg_84" fill="none"/>
    <g stroke="null" id="svg_83" display="none">
     <rect stroke="null" id="svg_87" width="512" height="512" x="2052.278791" y="2096.061895" stroke-width="0" fill="url(#gridpattern)"/>
    </g>
   </g>
   <g stroke="null" transform="matrix(1.0060523842403277,0,0,1.0060523842403277,-2069.249419599929,-2075.2975238187864) " id="svg_88">
    <title stroke="null" transform="translate(0.993984043598175,0) translate(0.993984043598175,0) translate(0.993984043598175,0) translate(0.993984043598175,0) translate(0,-0.993984043598175) translate(0,-0.993984043598175) translate(0,-0.993984043598175) translate(0,-0.993984043598175) translate(0,-0.993984043598175) translate(0,-0.993984043598175) translate(0,-0.993984043598175) translate(0,-0.993984043598175) translate(0,-0.993984043598175) translate(0,-0.993984043598175) translate(0,-0.993984043598175) translate(0,-0.993984043598175) translate(0,-0.993984043598175) translate(0,-0.993984043598175) translate(0,-0.993984043598175) translate(0,-0.993984043598175) translate(0,-0.993984043598175) translate(0,-0.993984043598175) translate(0,-0.993984043598175) translate(0,-0.993984043598175) translate(0,-0.993984043598175) translate(0,-0.993984043598175) translate(0,-0.993984043598175) translate(0,-0.993984043598175) translate(0,-0.993984043598175) translate(0,-0.993984043598175) translate(0,-0.993984043598175) translate(-3.9759361743927,-72.56083679199219) translate(-1.98796808719635,31.8074893951416) translate(-1.98796808719635,38.765377044677734) translate(0.993984043598175,-4.9699201583862305) translate(0.993984043598175,0) translate(0.993984043598175,-24.849599838256836) translate(0,22.86163330078125) translate(-0.993984043598175,-2.98195219039917) translate(2.98195219039917,-39.759361267089844) translate(-1.98796808719635,-0.993984043598175) translate(-0.993984043598175,10.93382453918457) translate(0,47.71123504638672) translate(17.756160736083984,5.222400188446045) translate(-9.400320053100586,8.355839729309082) translate(-2.0889599323272705,55.35744094848633) translate(2047.9998779296875,0) translate(0,2047.9998779296875) ">Layer 1</title>
    <g stroke="null" id="svg_62">
     <g stroke="null" id="svg_77" transform="matrix(1.027241146444214,0,0,1.027241146444214,-2041.9847863519008,-2253.9817702655205) "/>
     <g stroke="null" id="svg_76" transform="matrix(1.027241146444214,0,0,1.027241146444214,-2041.9847863519008,-2253.9817702655205) "/>
     <g stroke="null" id="svg_75" transform="matrix(1.027241146444214,0,0,1.027241146444214,-2041.9847863519008,-2253.9817702655205) "/>
     <g stroke="null" id="svg_74" transform="matrix(1.027241146444214,0,0,1.027241146444214,-2041.9847863519008,-2253.9817702655205) "/>
     <g stroke="null" id="svg_73" transform="matrix(1.027241146444214,0,0,1.027241146444214,-2041.9847863519008,-2253.9817702655205) "/>
     <g stroke="null" id="svg_72" transform="matrix(1.027241146444214,0,0,1.027241146444214,-2041.9847863519008,-2253.9817702655205) "/>
     <g stroke="null" id="svg_71" transform="matrix(1.027241146444214,0,0,1.027241146444214,-2041.9847863519008,-2253.9817702655205) "/>
     <g stroke="null" id="svg_70" transform="matrix(1.027241146444214,0,0,1.027241146444214,-2041.9847863519008,-2253.9817702655205) "/>
     <g stroke="null" id="svg_69" transform="matrix(1.027241146444214,0,0,1.027241146444214,-2041.9847863519008,-2253.9817702655205) "/>
     <g stroke="null" id="svg_68" transform="matrix(1.027241146444214,0,0,1.027241146444214,-2041.9847863519008,-2253.9817702655205) "/>
     <g stroke="null" id="svg_67" transform="matrix(1.027241146444214,0,0,1.027241146444214,-2041.9847863519008,-2253.9817702655205) "/>
     <g stroke="null" id="svg_66" transform="matrix(1.027241146444214,0,0,1.027241146444214,-2041.9847863519008,-2253.9817702655205) "/>
     <g stroke="null" id="svg_65" transform="matrix(1.027241146444214,0,0,1.027241146444214,-2041.9847863519008,-2253.9817702655205) "/>
     <g stroke="null" id="svg_64" transform="matrix(1.027241146444214,0,0,1.027241146444214,-2041.9847863519008,-2253.9817702655205) "/>
     <g stroke="null" id="svg_63" transform="matrix(1.027241146444214,0,0,1.027241146444214,-2041.9847863519008,-2253.9817702655205) "/>
    </g>
    <g stroke="null" id="svg_44">
     <path stroke="null" d="m2453.465501,2439.240745l-68.55126,0l-50.70818,3.99261c-18.49758,2.65398 -35.64385,-10.19091 -38.29784,-28.6885c-0.22733,-1.58499 -0.34153,-3.18479 -0.3426,-4.78671c-0.01585,-7.77588 2.44994,-15.35404 7.03785,-21.63269l35.48208,-48.76896c11.38891,-17.3514 6.55673,-40.64943 -10.79467,-52.03834c-14.81372,-9.72356 -34.40673,-7.77801 -47.02008,4.66827l-57.18244,57.16024c-30.18572,1.60614 -57.16235,19.3583 -70.58139,46.44486c-0.35212,0.72009 -0.62492,1.4761 -0.81208,2.25538l-24.92531,94.51491c-1.59345,6.02172 1.99737,12.19462 8.01907,13.78808c0.38277,0.1015 0.77082,0.18186 1.16205,0.24318l145.2453,22.26394c7.31488,1.60614 14.79998,2.31141 22.28613,2.09782c23.19019,1.36613 46.28944,-3.90802 66.58879,-15.20388l89.32641,-55.4452c5.29425,-3.281 6.92682,-10.23319 3.6458,-15.52849c-2.05868,-3.32224 -5.69179,-5.34182 -9.60089,-5.33759l0.02326,0l0,0.00106l0,0.00001z" fill="#FFE082" id="svg_61"/>
     <path stroke="null" d="m2167.981541,2374.659895c-19.76009,-18.72281 -84.34093,-24.61023 -96.99551,-25.60205c-3.13193,-0.21042 -6.21521,0.8554 -8.54881,2.95536c-2.30401,2.13586 -3.61197,5.13667 -3.60881,8.27812l0,157.89988c0,6.22895 5.05,11.27893 11.27896,11.27893c25.83254,-2.81259 50.79065,-11.00297 73.26605,-24.0456c2.45838,-1.39783 4.30243,-3.66799 5.16524,-6.36112c11.42591,-37.56616 19.1172,-76.16746 22.96286,-115.24462c0.28443,-3.43008 -1.01086,-6.80309 -3.51998,-9.1589z" fill="#455A64" id="svg_60"/>
     <g stroke="null" id="svg_59" transform="matrix(1.0573675962720301,0,0,1.0573675962720301,-1710.9694346277838,-2293.058256972852) "/>
     <g stroke="null" id="svg_58" transform="matrix(1.0573675962720301,0,0,1.0573675962720301,-1710.9694346277838,-2293.058256972852) "/>
     <g stroke="null" id="svg_57" transform="matrix(1.0573675962720301,0,0,1.0573675962720301,-1710.9694346277838,-2293.058256972852) "/>
     <g stroke="null" id="svg_56" transform="matrix(1.0573675962720301,0,0,1.0573675962720301,-1710.9694346277838,-2293.058256972852) "/>
     <g stroke="null" id="svg_55" transform="matrix(1.0573675962720301,0,0,1.0573675962720301,-1710.9694346277838,-2293.058256972852) "/>
     <g stroke="null" id="svg_54" transform="matrix(1.0573675962720301,0,0,1.0573675962720301,-1710.9694346277838,-2293.058256972852) "/>
     <g stroke="null" id="svg_53" transform="matrix(1.0573675962720301,0,0,1.0573675962720301,-1710.9694346277838,-2293.058256972852) "/>
     <g stroke="null" id="svg_52" transform="matrix(1.0573675962720301,0,0,1.0573675962720301,-1710.9694346277838,-2293.058256972852) "/>
     <g stroke="null" id="svg_51" transform="matrix(1.0573675962720301,0,0,1.0573675962720301,-1710.9694346277838,-2293.058256972852) "/>
     <g stroke="null" id="svg_50" transform="matrix(1.0573675962720301,0,0,1.0573675962720301,-1710.9694346277838,-2293.058256972852) "/>
     <g stroke="null" id="svg_49" transform="matrix(1.0573675962720301,0,0,1.0573675962720301,-1710.9694346277838,-2293.058256972852) "/>
     <g stroke="null" id="svg_48" transform="matrix(1.0573675962720301,0,0,1.0573675962720301,-1710.9694346277838,-2293.058256972852) "/>
     <g stroke="null" id="svg_47" transform="matrix(1.0573675962720301,0,0,1.0573675962720301,-1710.9694346277838,-2293.058256972852) "/>
     <g stroke="null" id="svg_46" transform="matrix(1.0573675962720301,0,0,1.0573675962720301,-1710.9694346277838,-2293.058256972852) "/>
     <g stroke="null" id="svg_45" transform="matrix(1.0573675962720301,0,0,1.0573675962720301,-1710.9694346277838,-2293.058256972852) "/>
    </g>
   </g>
  </g>
 </g>
</svg>