<?xml version="1.0" encoding="UTF-8" standalone="no"?>
<svg
   xmlns:dc="http://purl.org/dc/elements/1.1/"
   xmlns:cc="http://creativecommons.org/ns#"
   xmlns:rdf="http://www.w3.org/1999/02/22-rdf-syntax-ns#"
   xmlns:svg="http://www.w3.org/2000/svg"
   xmlns="http://www.w3.org/2000/svg"
   xmlns:sodipodi="http://sodipodi.sourceforge.net/DTD/sodipodi-0.dtd"
   xmlns:inkscape="http://www.inkscape.org/namespaces/inkscape"
   inkscape:version="1.0 (4035a4f, 2020-05-01)"
   sodipodi:docname="moneyPay.svg"
   xml:space="preserve"
   style="enable-background:new 0 0 512 512;"
   viewBox="0 0 512 512"
   y="0px"
   x="0px"
   id="Capa_1"
   version="1.1"><metadata
   id="metadata11628"><rdf:RDF><cc:Work
       rdf:about=""><dc:format>image/svg+xml</dc:format><dc:type
         rdf:resource="http://purl.org/dc/dcmitype/StillImage" /></cc:Work></rdf:RDF></metadata><defs
   id="defs11626" /><sodipodi:namedview
   inkscape:current-layer="Capa_1"
   inkscape:window-maximized="0"
   inkscape:window-y="0"
   inkscape:window-x="0"
   inkscape:cy="191.89058"
   inkscape:cx="127.62949"
   inkscape:zoom="0.9005084"
   showgrid="false"
   id="namedview11624"
   inkscape:window-height="768"
   inkscape:window-width="1366"
   inkscape:pageshadow="2"
   inkscape:pageopacity="0"
   guidetolerance="10"
   gridtolerance="10"
   objecttolerance="10"
   borderopacity="1"
   bordercolor="#666666"
   pagecolor="#ffffff" />
<polygon
   id="polygon11403"
   points="478.484,272.176 452.117,257.643 383.179,297.445 227.744,435.167 227.904,491.897   254.271,506.428 409.842,416.609 478.781,376.807 "
   style="fill:#3D99E2;" />
<g
   id="g11427"
   style="enable-background:new    ;">
	<path
   id="path11405"
   d="M511.678,196.103c-0.015-5.118-1.829-8.712-4.751-10.394c0.01,0.006,0.022,0.009,0.031,0.015   L317.685,75.731c-2.946-1.712-7.025-1.469-11.531,1.132l-82.873,47.846L14.546,309.65C5.935,317.278-0.029,329.708,0,339.953   l0.162,57.202c0.005,1.901,0.677,3.24,1.762,3.87l189.274,109.994c-0.154-0.089-0.278-0.225-0.414-0.342   c1.11,0.954,2.795,1.026,4.707-0.078l217.492-125.569l82.872-47.846c8.951-5.167,16.174-17.692,16.145-27.964L511.678,196.103z    M503.786,184.718c-0.203-0.023-0.398-0.063-0.605-0.073C503.388,184.655,503.583,184.695,503.786,184.718z M506.313,185.418   c-0.18-0.084-0.352-0.181-0.539-0.251C505.961,185.237,506.133,185.334,506.313,185.418z M505.096,184.972   c-0.192-0.053-0.376-0.121-0.575-0.161C504.72,184.851,504.904,184.919,505.096,184.972z M190.135,509.906   c0.108,0.177,0.206,0.368,0.336,0.515C190.341,510.273,190.244,510.083,190.135,509.906z M189.436,507.148   c0.001,0.476,0.045,0.917,0.126,1.321C189.481,508.066,189.437,507.625,189.436,507.148z M189.685,508.853   c0.07,0.245,0.131,0.499,0.23,0.712C189.815,509.353,189.755,509.098,189.685,508.853z M501.759,184.676   c0.215-0.019,0.418-0.008,0.629-0.015C502.177,184.668,501.974,184.657,501.759,184.676z M497.09,185.994   c0.2-0.092,0.392-0.155,0.589-0.237C497.483,185.839,497.29,185.902,497.09,185.994z M498.706,185.346   c0.212-0.073,0.417-0.116,0.626-0.177C499.123,185.231,498.918,185.274,498.706,185.346z M500.266,184.908   c0.213-0.047,0.417-0.064,0.626-0.098C500.682,184.844,500.479,184.862,500.266,184.908z"
   style="fill:#ACABB1;" />
	<g
   id="g11411">
		<path
   id="path11407"
   d="M317.685,75.731c-2.945-1.712-7.025-1.469-11.53,1.132l-82.873,47.846l189.273,109.994    l82.873-47.846c4.506-2.601,8.585-2.843,11.53-1.132L317.685,75.731z"
   style="fill:#D8D8DA;" />
		<path
   id="path11409"
   d="M191.198,511.018L1.924,401.025c-1.085-0.63-1.756-1.971-1.762-3.87l189.274,109.994    C189.441,509.049,190.113,510.388,191.198,511.018z"
   style="fill:#D8D8DA;" />
	</g>
	<g
   id="g11417">
		<polygon
   id="polygon11413"
   points="189.436,507.148 0.162,397.155 0,339.953 189.273,449.947   "
   style="fill:#C6C5CB;" />
		<polygon
   id="polygon11415"
   points="18.036,386.835 17.992,371.115 171.4,460.266 171.444,475.985   "
   style="fill:#77767E;" />
	</g>
	<g
   id="g11423">
		<polygon
   id="polygon11419"
   points="203.819,419.643 14.546,309.65 223.283,124.71 412.556,234.703   "
   style="fill:#C6C5CB;" />
		<path
   id="path11421"
   d="M189.273,449.947L0,339.953c-0.029-10.245,5.935-22.675,14.546-30.303l189.273,109.994    C195.208,427.272,189.245,439.701,189.273,449.947z"
   style="fill:#C6C5CB;" />
	</g>
	<path
   id="path11425"
   d="M495.429,186.857c8.951-5.167,16.221-1.024,16.25,9.247L512,309.221   c0.029,10.271-7.194,22.796-16.145,27.964l-82.873,47.846L195.49,510.598c-3.337,1.927-6.044,0.372-6.055-3.45l-0.162-57.202   c-0.029-10.245,5.935-22.675,14.546-30.303l208.737-184.94L495.429,186.857z"
   style="fill:#ACABB1;" />
</g>
<polygon
   id="polygon11429"
   points="364.674,225.977 245.065,156.922 174.204,220.007 293.812,289.063 "
   style="fill:#BDFDFF;" />
<g
   id="g11439"
   style="enable-background:new    ;">
	<polygon
   id="polygon11431"
   points="409.546,311.978 383.179,297.445 452.117,257.643 478.484,272.176  "
   style="fill:#55d400" />
	<polygon
   id="polygon11433"
   points="254.11,449.7 227.743,435.167 383.179,297.445 409.546,311.978  "
   style="fill:#80c904;fill-opacity:1" />
	<polygon
   id="polygon11435"
   points="254.271,506.428 227.905,491.896 227.743,435.167 254.11,449.7  "
   style="fill:#55d400" />
	<polygon
   id="polygon11437"
   points="478.484,272.176 478.78,376.807 409.842,416.609 254.271,506.428 254.11,449.7    409.546,311.978  "
   style="fill:#44aa00" />
</g>
<polygon
   id="polygon11441"
   points="452.117,257.643 383.179,297.445 227.744,435.167 237.642,440.792 393.078,303.07   462.017,263.268 "
   style="fill:#44aa00" />
<polygon
   id="polygon11443"
   points="237.803,469.156 227.905,463.531 227.743,435.167 237.642,440.792 "
   style="fill:#44aa00;fill-opacity:1" />
<path
   id="path11445"
   d="M136.921,244.416l1.548,5.85c0.541,2.048,1.956,3.885,4.235,5.201l11.424,6.595  c5.816,3.358,15.059,2.049,20.645-2.925c3.397-3.024,4.659-6.707,3.819-9.884l-1.546-5.85c0.023,0.086,0.027,0.175,0.046,0.261  c-0.488-2.15-1.908-4.091-4.282-5.462l-11.424-6.595c-5.816-3.358-15.059-2.049-20.645,2.925c-3.431,3.054-4.675,6.778-3.785,9.976  C136.947,244.476,136.929,244.447,136.921,244.416z M184.953,272.147l1.548,5.85c0.541,2.048,1.956,3.885,4.235,5.202l11.424,6.595  c5.816,3.358,15.059,2.049,20.645-2.925c3.397-3.024,4.66-6.707,3.82-9.884l-1.548-5.85c0.023,0.086,0.027,0.174,0.047,0.261  c-0.488-2.15-1.908-4.091-4.282-5.462l-11.424-6.595c-5.816-3.358-15.059-2.049-20.645,2.925c-3.43,3.054-4.675,6.778-3.785,9.976  C184.98,272.207,184.962,272.179,184.953,272.147z M274.658,304.718l-1.546-5.85c0.022,0.086,0.027,0.176,0.046,0.261  c-0.488-2.15-1.908-4.091-4.282-5.462l-11.429-6.599c-5.811-3.355-15.054-2.046-20.64,2.928c-3.431,3.055-4.675,6.778-3.786,9.977  c-0.008-0.031-0.026-0.06-0.034-0.091l1.548,5.85c0.541,2.046,1.954,3.882,4.231,5.196l11.43,6.599  c5.816,3.358,15.058,2.049,20.645-2.925C274.236,311.577,275.498,307.894,274.658,304.718z M106.11,271.839l1.546,5.85  c0.541,2.048,1.958,3.886,4.238,5.204l11.424,6.595c5.816,3.358,15.054,2.053,20.64-2.921c3.397-3.024,4.659-6.707,3.819-9.884  l-1.548-5.85c0.023,0.086,0.027,0.176,0.047,0.261c-0.488-2.15-1.908-4.091-4.282-5.462l-11.424-6.595  c-5.816-3.358-15.059-2.049-20.645,2.925c-3.43,3.053-4.672,6.774-3.782,9.971C106.137,271.901,106.118,271.872,106.11,271.839z   M155.69,305.422c0.541,2.048,1.957,3.886,4.238,5.204l11.424,6.595c5.816,3.358,15.054,2.053,20.64-2.921  c3.397-3.024,4.66-6.707,3.82-9.884l-1.548-5.85c0.023,0.085,0.027,0.174,0.046,0.26c-0.488-2.15-1.908-4.091-4.282-5.462  l-11.424-6.595c-5.816-3.358-15.059-2.049-20.645,2.925c-3.429,3.053-4.672,6.773-3.782,9.969c-0.009-0.031-0.027-0.061-0.036-0.093  L155.69,305.422z M242.298,326.299c0.023,0.086,0.027,0.174,0.047,0.26c-0.488-2.15-1.908-4.091-4.282-5.461l-11.43-6.6  c-5.811-3.355-15.054-2.046-20.64,2.928c-3.43,3.054-4.673,6.775-3.783,9.971c-0.009-0.031-0.027-0.061-0.036-0.093l1.548,5.85  c0.541,2.047,1.956,3.884,4.234,5.198l11.43,6.6c5.816,3.358,15.054,2.053,20.64-2.921c3.397-3.024,4.659-6.707,3.819-9.884  L242.298,326.299z M115.42,298.266c0.022,0.086,0.027,0.174,0.046,0.26c-0.488-2.15-1.908-4.091-4.282-5.462l-11.424-6.595  c-5.816-3.358-15.059-2.049-20.645,2.925c-3.427,3.051-4.67,6.773-3.779,9.971c-0.009-0.031-0.027-0.061-0.036-0.092l1.546,5.85  c0.541,2.048,1.956,3.886,4.236,5.202l11.424,6.595c5.816,3.358,15.059,2.049,20.64-2.921c3.397-3.024,4.659-6.707,3.819-9.884  L115.42,298.266z M163.452,325.998c0.023,0.086,0.027,0.174,0.047,0.261c-0.488-2.15-1.908-4.091-4.282-5.462l-11.424-6.595  c-5.816-3.358-15.059-2.049-20.645,2.925c-3.427,3.051-4.67,6.773-3.779,9.971c-0.008-0.031-0.027-0.061-0.036-0.092l1.548,5.85  c0.541,2.048,1.956,3.886,4.236,5.202l11.424,6.595c5.816,3.358,15.059,2.049,20.64-2.921c3.397-3.024,4.659-6.707,3.819-9.884  L163.452,325.998z M211.486,353.73c0.022,0.086,0.027,0.174,0.046,0.261c-0.488-2.15-1.908-4.091-4.282-5.462l-11.429-6.599  c-5.811-3.355-15.053-2.046-20.64,2.928c-3.427,3.051-4.671,6.774-3.78,9.971c-0.008-0.031-0.027-0.06-0.034-0.091l1.548,5.85  c0.541,2.046,1.954,3.883,4.231,5.197l11.43,6.599c5.816,3.358,15.059,2.049,20.64-2.921c3.397-3.024,4.659-6.707,3.819-9.884  L211.486,353.73z"
   style="fill:#E0E0E2;" />
<g
   id="g11457"
   style="enable-background:new    ;">
	<g
   id="g11453">
		<path
   id="path11447"
   d="M138.468,250.266l-1.548-5.85c0.541,2.047,1.956,3.885,4.236,5.201l1.548,5.85    C140.424,254.151,139.009,252.313,138.468,250.266z"
   style="fill:#D8D8DA;" />
		<polygon
   id="polygon11449"
   points="152.581,256.212 154.128,262.062 142.704,255.467 141.156,249.616   "
   style="fill:#D8D8DA;" />
		<path
   id="path11451"
   d="M177.046,243.403l1.548,5.85c0.84,3.177-0.422,6.86-3.819,9.884    c-5.586,4.974-14.829,6.283-20.645,2.925l-1.548-5.85c5.816,3.358,15.059,2.049,20.645-2.925    C176.623,250.263,177.886,246.581,177.046,243.403z"
   style="fill:#D8D8DA;" />
	</g>
	<path
   id="path11455"
   d="M172.811,238.203c5.816,3.358,6.003,10.112,0.416,15.084c-5.586,4.974-14.829,6.283-20.645,2.925   l-11.424-6.595c-5.816-3.358-6.003-10.112-0.416-15.084c5.586-4.974,14.829-6.283,20.645-2.925L172.811,238.203z"
   style="fill:#E0E0E2;" />
</g>
<g
   id="g11539"
   style="enable-background:new    ;">
	<g
   id="g11465">
		<path
   id="path11459"
   d="M186.501,277.997l-1.548-5.85c0.541,2.047,1.956,3.885,4.235,5.201l1.548,5.85    C188.457,281.882,187.042,280.045,186.501,277.997z"
   style="fill:#D8D8DA;" />
		<polygon
   id="polygon11461"
   points="200.614,283.944 202.16,289.794 190.736,283.199 189.189,277.348   "
   style="fill:#D8D8DA;" />
		<path
   id="path11463"
   d="M225.078,271.135l1.548,5.85c0.84,3.177-0.422,6.86-3.819,9.884    c-5.586,4.974-14.829,6.283-20.645,2.925l-1.548-5.85c5.816,3.358,15.059,2.049,20.645-2.925    C224.656,277.995,225.918,274.313,225.078,271.135z"
   style="fill:#D8D8DA;" />
	</g>
	<path
   id="path11467"
   d="M220.843,265.935c5.816,3.358,6.003,10.112,0.416,15.084c-5.586,4.974-14.829,6.283-20.645,2.925   l-11.424-6.595c-5.816-3.358-6.003-10.112-0.416-15.084c5.586-4.974,14.829-6.283,20.645-2.925L220.843,265.935z"
   style="fill:#E0E0E2;" />
	<g
   id="g11475">
		<path
   id="path11469"
   d="M234.532,305.731l-1.548-5.85c0.541,2.046,1.954,3.882,4.231,5.196l1.548,5.85    C236.487,309.613,235.074,307.777,234.532,305.731z"
   style="fill:#D8D8DA;" />
		<polygon
   id="polygon11471"
   points="248.646,311.676 250.194,317.526 238.763,310.927 237.217,305.077   "
   style="fill:#D8D8DA;" />
		<path
   id="path11473"
   d="M273.112,298.867l1.547,5.85c0.84,3.177-0.422,6.86-3.819,9.884    c-5.586,4.974-14.829,6.283-20.645,2.925l-1.548-5.85c5.816,3.358,15.059,2.049,20.645-2.925    C272.689,305.727,273.952,302.044,273.112,298.867z"
   style="fill:#D8D8DA;" />
	</g>
	<path
   id="path11477"
   d="M268.876,293.667c5.816,3.358,6.003,10.112,0.416,15.084c-5.586,4.974-14.829,6.283-20.645,2.925   l-11.43-6.599c-5.811-3.355-5.997-10.108-0.411-15.081c5.586-4.974,14.829-6.283,20.64-2.928L268.876,293.667z"
   style="fill:#E0E0E2;" />
	<g
   id="g11485">
		<path
   id="path11479"
   d="M107.657,277.69l-1.548-5.85c0.541,2.048,1.957,3.886,4.238,5.204l1.548,5.85    C109.614,281.577,108.199,279.738,107.657,277.69z"
   style="fill:#D8D8DA;" />
		<polygon
   id="polygon11481"
   points="121.773,283.64 123.32,289.489 111.895,282.894 110.349,277.043   "
   style="fill:#D8D8DA;" />
		<path
   id="path11483"
   d="M146.233,270.835l1.546,5.85c0.84,3.177-0.422,6.86-3.819,9.884    c-5.586,4.974-14.824,6.278-20.64,2.921l-1.548-5.85c5.816,3.358,15.054,2.053,20.64-2.921    C145.81,277.695,147.073,274.012,146.233,270.835z"
   style="fill:#D8D8DA;" />
	</g>
	<path
   id="path11487"
   d="M141.997,265.635c5.816,3.358,6.003,10.112,0.416,15.084c-5.586,4.974-14.824,6.278-20.64,2.921   l-11.424-6.595c-5.816-3.358-6.008-10.106-0.421-15.08c5.587-4.974,14.829-6.283,20.645-2.925L141.997,265.635z"
   style="fill:#E0E0E2;" />
	<g
   id="g11495">
		<path
   id="path11489"
   d="M155.69,305.422l-1.548-5.85c0.541,2.048,1.957,3.886,4.238,5.204l1.548,5.85    C157.648,309.309,156.232,307.47,155.69,305.422z"
   style="fill:#D8D8DA;" />
		<polygon
   id="polygon11491"
   points="169.805,311.371 171.353,317.221 159.929,310.625 158.381,304.775   "
   style="fill:#D8D8DA;" />
		<path
   id="path11493"
   d="M194.266,298.567l1.548,5.85c0.84,3.177-0.422,6.86-3.819,9.884    c-5.586,4.974-14.824,6.278-20.64,2.919l-1.546-5.85c5.816,3.358,15.054,2.053,20.64-2.921    C193.844,305.426,195.106,301.744,194.266,298.567z"
   style="fill:#D8D8DA;" />
	</g>
	<path
   id="path11497"
   d="M190.03,293.366c5.816,3.358,6.003,10.112,0.416,15.084c-5.586,4.974-14.824,6.278-20.64,2.921   l-11.424-6.595c-5.816-3.358-6.008-10.106-0.421-15.08c5.586-4.974,14.829-6.283,20.645-2.925L190.03,293.366z"
   style="fill:#E0E0E2;" />
	<g
   id="g11505">
		<path
   id="path11499"
   d="M203.722,333.155l-1.548-5.85c0.541,2.047,1.956,3.884,4.234,5.198l1.548,5.85    C205.678,337.039,204.263,335.202,203.722,333.155z"
   style="fill:#D8D8DA;" />
		<polygon
   id="polygon11501"
   points="217.839,339.102 219.385,344.953 207.956,338.354 206.409,332.504   "
   style="fill:#D8D8DA;" />
		<path
   id="path11503"
   d="M242.298,326.299l1.546,5.85c0.84,3.177-0.422,6.86-3.819,9.884    c-5.586,4.974-14.824,6.278-20.64,2.921l-1.548-5.85c5.816,3.358,15.054,2.053,20.64-2.921    C241.876,333.158,243.138,329.476,242.298,326.299z"
   style="fill:#D8D8DA;" />
	</g>
	<path
   id="path11507"
   d="M238.063,321.098c5.816,3.358,6.003,10.112,0.416,15.084c-5.586,4.974-14.824,6.278-20.64,2.921   l-11.43-6.599c-5.811-3.355-6.002-10.103-0.416-15.077c5.586-4.974,14.829-6.283,20.64-2.928L238.063,321.098z"
   style="fill:#E0E0E2;" />
	<g
   id="g11515">
		<path
   id="path11509"
   d="M76.847,305.123l-1.548-5.85c0.541,2.048,1.956,3.886,4.236,5.203l1.546,5.85    C78.803,309.009,77.388,307.171,76.847,305.123z"
   style="fill:#D8D8DA;" />
		<polygon
   id="polygon11511"
   points="90.96,311.071 92.507,316.921 81.083,310.326 79.536,304.475   "
   style="fill:#D8D8DA;" />
		<path
   id="path11513"
   d="M115.42,298.266l1.548,5.85c0.84,3.177-0.422,6.86-3.819,9.884    c-5.581,4.969-14.824,6.278-20.64,2.921l-1.549-5.85c5.816,3.358,15.059,2.049,20.64-2.921    C114.998,305.126,116.26,301.444,115.42,298.266z"
   style="fill:#D8D8DA;" />
	</g>
	<path
   id="path11517"
   d="M111.185,293.066c5.816,3.358,6.003,10.112,0.416,15.084c-5.581,4.969-14.824,6.278-20.64,2.921   l-11.424-6.595c-5.816-3.358-6.003-10.112-0.421-15.08c5.586-4.974,14.829-6.283,20.645-2.925L111.185,293.066z"
   style="fill:#E0E0E2;" />
	<g
   id="g11525">
		<path
   id="path11519"
   d="M124.879,332.855l-1.548-5.85c0.541,2.048,1.956,3.886,4.236,5.202l1.546,5.85    C126.836,336.741,125.421,334.903,124.879,332.855z"
   style="fill:#D8D8DA;" />
		<polygon
   id="polygon11521"
   points="138.993,338.803 140.54,344.653 129.116,338.056 127.569,332.207   "
   style="fill:#D8D8DA;" />
		<path
   id="path11523"
   d="M163.452,325.998l1.548,5.85c0.84,3.177-0.422,6.86-3.819,9.884    c-5.581,4.969-14.824,6.278-20.64,2.921l-1.548-5.85c5.816,3.358,15.059,2.049,20.64-2.921    C163.03,332.858,164.292,329.176,163.452,325.998z"
   style="fill:#D8D8DA;" />
	</g>
	<path
   id="path11527"
   d="M159.217,320.798c5.816,3.358,6.003,10.112,0.416,15.084c-5.581,4.969-14.824,6.278-20.64,2.921   l-11.424-6.595c-5.816-3.358-6.003-10.112-0.421-15.08c5.586-4.974,14.829-6.283,20.645-2.925L159.217,320.798z"
   style="fill:#E0E0E2;" />
	<g
   id="g11535">
		<path
   id="path11529"
   d="M172.912,360.588l-1.546-5.85c0.541,2.046,1.954,3.883,4.231,5.197l1.546,5.85    C174.866,364.471,173.452,362.635,172.912,360.588z"
   style="fill:#D8D8DA;" />
		<polygon
   id="polygon11531"
   points="187.026,366.534 188.573,372.385 177.143,365.785 175.596,359.935   "
   style="fill:#D8D8DA;" />
		<path
   id="path11533"
   d="M211.486,353.73l1.548,5.85c0.84,3.177-0.422,6.86-3.819,9.884    c-5.581,4.969-14.824,6.278-20.64,2.921l-1.546-5.85c5.816,3.358,15.059,2.049,20.64-2.921    C211.064,360.59,212.326,356.908,211.486,353.73z"
   style="fill:#D8D8DA;" />
	</g>
	<path
   id="path11537"
   d="M207.25,348.53c5.816,3.358,6.003,10.112,0.416,15.084c-5.581,4.969-14.824,6.278-20.64,2.921   l-11.43-6.599c-5.811-3.355-5.997-10.108-0.416-15.077c5.586-4.974,14.829-6.283,20.64-2.928L207.25,348.53z"
   style="fill:#E0E0E2;" />
</g>
<path
   id="path11541"
   d="M86.154,331.549l-1.548-5.85c0.023,0.086,0.027,0.174,0.047,0.261  c-0.488-2.15-1.908-4.091-4.282-5.462l-11.424-6.595c-5.816-3.358-15.059-2.049-20.645,2.925c-3.427,3.051-4.67,6.773-3.779,9.971  c-0.009-0.031-0.027-0.061-0.036-0.092l1.548,5.85c0.541,2.048,1.956,3.886,4.236,5.202l11.424,6.595  c5.816,3.358,15.059,2.049,20.64-2.921C85.732,338.409,86.994,334.725,86.154,331.549z"
   style="fill:#C60024;" />
<g
   id="g11553"
   style="enable-background:new    ;">
	<g
   id="g11549">
		<path
   id="path11543"
   d="M46.034,332.555l-1.548-5.85c0.541,2.048,1.956,3.886,4.236,5.202l1.548,5.85    C47.99,336.44,46.575,334.602,46.034,332.555z"
   style="fill:#A50020;" />
		<polygon
   id="polygon11545"
   points="60.147,338.503 61.694,344.353 50.27,337.757 48.723,331.906   "
   style="fill:#A50020;" />
		<path
   id="path11547"
   d="M84.608,325.698l1.548,5.85c0.84,3.177-0.422,6.86-3.819,9.884    c-5.581,4.969-14.824,6.278-20.64,2.921l-1.546-5.85c5.816,3.358,15.059,2.049,20.64-2.921    C84.184,332.558,85.447,328.875,84.608,325.698z"
   style="fill:#A50020;" />
	</g>
	<path
   id="path11551"
   d="M80.372,320.498c5.816,3.358,6.002,10.112,0.416,15.084c-5.581,4.969-14.824,6.278-20.64,2.921   l-11.424-6.595c-5.816-3.358-6.003-10.112-0.421-15.08c5.586-4.974,14.829-6.283,20.645-2.925L80.372,320.498z"
   style="fill:#C60024;" />
</g>
<path
   id="path11555"
   d="M134.187,359.281l-1.548-5.85c0.023,0.086,0.027,0.174,0.047,0.261  c-0.488-2.15-1.908-4.091-4.282-5.462l-11.424-6.595c-5.816-3.358-15.059-2.049-20.645,2.925c-3.427,3.051-4.67,6.773-3.779,9.972  c-0.009-0.031-0.027-0.062-0.036-0.093l1.548,5.85c0.541,2.048,1.956,3.886,4.236,5.202l11.425,6.595  c5.816,3.358,15.059,2.049,20.64-2.921C133.764,366.14,135.027,362.457,134.187,359.281z"
   style="fill:#FFDE56;" />
<g
   id="g11567"
   style="enable-background:new    ;">
	<g
   id="g11563">
		<path
   id="path11557"
   d="M94.066,360.287l-1.546-5.85c0.541,2.048,1.956,3.886,4.236,5.202l1.548,5.85    C96.023,364.172,94.608,362.334,94.066,360.287z"
   style="fill:#FED322;" />
		<polygon
   id="polygon11559"
   points="108.18,366.234 109.727,372.084 98.302,365.489 96.756,359.638   "
   style="fill:#FED322;" />
		<path
   id="path11561"
   d="M132.64,353.43l1.546,5.85c0.84,3.177-0.422,6.86-3.819,9.884    c-5.581,4.969-14.824,6.278-20.64,2.921l-1.546-5.85c5.816,3.358,15.059,2.049,20.64-2.921    C132.218,360.289,133.48,356.607,132.64,353.43z"
   style="fill:#FED322;" />
	</g>
	<path
   id="path11565"
   d="M128.404,348.229c5.816,3.358,6.003,10.112,0.416,15.084c-5.581,4.969-14.824,6.278-20.64,2.921   l-11.424-6.595c-5.816-3.358-6.003-10.112-0.421-15.08c5.586-4.974,14.829-6.283,20.645-2.925L128.404,348.229z"
   style="fill:#FFDE56;" />
</g>
<path
   id="path11569"
   d="M182.22,387.013l-1.546-5.85c0.022,0.086,0.027,0.174,0.046,0.261  c-0.488-2.15-1.908-4.091-4.282-5.462l-11.43-6.6c-5.811-3.355-15.053-2.046-20.64,2.928c-3.428,3.052-4.671,6.774-3.78,9.972  c-0.008-0.031-0.027-0.061-0.036-0.092l1.548,5.85c0.541,2.046,1.954,3.883,4.231,5.197l11.43,6.599  c5.816,3.358,15.059,2.048,20.64-2.921C181.798,393.871,183.06,390.189,182.22,387.013z"
   style="fill:#65C27C;" />
<g
   id="g11581"
   style="enable-background:new    ;">
	<g
   id="g11577">
		<path
   id="path11571"
   d="M142.099,388.02l-1.548-5.85c0.541,2.046,1.954,3.883,4.231,5.197l1.548,5.85    C144.053,391.903,142.64,390.066,142.099,388.02z"
   style="fill:#4DBA69;" />
		<polygon
   id="polygon11573"
   points="156.213,393.965 157.76,399.816 146.33,393.217 144.783,387.367   "
   style="fill:#4DBA69;" />
		<path
   id="path11575"
   d="M180.673,381.162l1.546,5.85c0.84,3.177-0.422,6.86-3.819,9.884    c-5.581,4.969-14.824,6.278-20.64,2.921l-1.548-5.85c5.816,3.358,15.059,2.049,20.64-2.921    C180.25,388.021,181.513,384.339,180.673,381.162z"
   style="fill:#4DBA69;" />
	</g>
	<path
   id="path11579"
   d="M176.437,375.961c5.816,3.358,6.003,10.112,0.416,15.084c-5.581,4.969-14.824,6.278-20.64,2.921   l-11.43-6.599c-5.811-3.355-5.997-10.108-0.416-15.077c5.586-4.974,14.829-6.283,20.64-2.928L176.437,375.961z"
   style="fill:#65C27C;" />
</g>
<polygon
   id="polygon11583"
   points="423.962,169.599 398.005,184.632 307.718,132.428 333.676,117.395 "
   style="fill:#ACABB1;" />
<path
   id="path11585"
   d="M458.641,69.752l-0.019-6.722c-0.027-9.578-3.434-16.313-8.912-19.467  c0.018,0.01,0.037,0.019,0.054,0.028L379.27,2.627c-5.519-3.207-13.158-2.764-21.573,2.096  c-16.725,9.656-30.289,33.15-30.234,52.368l0.214,75.676l70.493,40.966l0.71-0.41l-0.215-75.676  c-0.048-16.785,10.542-36.899,24.463-47.711l34.804,20.225L458.641,69.752z"
   style="fill:#C6C5CB;" />
<g
   id="g11591"
   style="enable-background:new    ;">
	<path
   id="path11587"
   d="M457.912,63.439c-0.026-9.325-3.33-15.892-8.651-18.984L378.769,3.49   c5.321,3.092,8.625,9.659,8.651,18.984l0.019,6.722l70.493,40.966L457.912,63.439z"
   style="fill:#C6C5CB;" />
	<path
   id="path11589"
   d="M458.621,63.031c-0.027-9.578-3.434-16.313-8.912-19.467c0.018,0.01,0.037,0.019,0.054,0.028   L379.27,2.627c-5.519-3.207-13.158-2.764-21.573,2.096c-16.725,9.656-30.289,33.15-30.234,52.368l0.214,75.676l70.493,40.966   l0.71-0.41l-0.215-75.676c-0.053-18.771,13.192-41.713,29.527-51.143c16.335-9.431,29.667-1.834,29.72,16.937l0.019,6.722   l0.708-0.41L458.621,63.031z"
   style="fill:#E0E0E2;" />
</g>
<g
   id="g11593">
</g>
<g
   id="g11595">
</g>
<g
   id="g11597">
</g>
<g
   id="g11599">
</g>
<g
   id="g11601">
</g>
<g
   id="g11603">
</g>
<g
   id="g11605">
</g>
<g
   id="g11607">
</g>
<g
   id="g11609">
</g>
<g
   id="g11611">
</g>
<g
   id="g11613">
</g>
<g
   id="g11615">
</g>
<g
   id="g11617">
</g>
<g
   id="g11619">
</g>
<g
   id="g11621">
</g>
</svg>
