<?xml version="1.0" encoding="UTF-8" standalone="no"?>
<svg
   xmlns:dc="http://purl.org/dc/elements/1.1/"
   xmlns:cc="http://creativecommons.org/ns#"
   xmlns:rdf="http://www.w3.org/1999/02/22-rdf-syntax-ns#"
   xmlns:svg="http://www.w3.org/2000/svg"
   xmlns="http://www.w3.org/2000/svg"
   xmlns:sodipodi="http://sodipodi.sourceforge.net/DTD/sodipodi-0.dtd"
   xmlns:inkscape="http://www.inkscape.org/namespaces/inkscape"
   width="512"
   height="256"
   version="1.1"
   viewBox="0 0 512 256"
   xml:space="preserve"
   id="svg3653"
   sodipodi:docname="newProductt.svg"
   inkscape:version="1.0 (4035a4f, 2020-05-01)"><metadata
     id="metadata3659"><rdf:RDF><cc:Work
         rdf:about=""><dc:format>image/svg+xml</dc:format><dc:type
           rdf:resource="http://purl.org/dc/dcmitype/StillImage" /></cc:Work></rdf:RDF></metadata><defs
     id="defs3657" /><sodipodi:namedview
     inkscape:document-rotation="0"
     pagecolor="#ffffff"
     bordercolor="#666666"
     borderopacity="1"
     objecttolerance="10"
     gridtolerance="10"
     guidetolerance="10"
     inkscape:pageopacity="0"
     inkscape:pageshadow="2"
     inkscape:window-width="1366"
     inkscape:window-height="768"
     id="namedview3655"
     showgrid="false"
     inkscape:zoom="1.1006556"
     inkscape:cx="312.66099"
     inkscape:cy="123.75851"
     inkscape:window-x="0"
     inkscape:window-y="0"
     inkscape:window-maximized="0"
     inkscape:current-layer="g3649" /><g
     transform="matrix(1.33 0 0 -1.33 0 2800)"
     id="g3651"><g
       transform="scale(.1)"
       id="g3649"><g
         id="g5745"><g
           id="g3213"
           stroke="null"
           transform="matrix(0.0909,0,0,0.0909,-1148,19484.152)"><g
             id="g3189"
             transform="matrix(32.6,0,0,-32.6,23107,19794)"><path
               id="path3167"
               fill="#e6e9ed"
               d="M 309,156 H 233 V 257 H 385 V 156 Z" /><path
               id="path3169"
               fill="#656d78"
               d="m 328,80 c 3.49,0 6.34,2.85 6.34,6.34 v 12.7 c 0,3.49 -2.85,6.34 -6.34,6.34 h -38 c -3.49,0 -6.34,-2.85 -6.34,-6.34 v -12.7 c 0,-3.49 2.85,-6.34 6.34,-6.34 z" /><path
               id="path3171"
               fill="#d89700"
               d="m 233,302 c 0,-10.5 8.5,-19 19,-19 -10.5,0 -19,-8.5 -19,-19 v -6.34 H 385 V 264 c 0,10.5 -8.5,19 -19,19 10.5,0 19,8.5 19,19 v 133 c 0,21.1 -17,38 -38,38 h -76 c -21,0 -38,-17 -38,-38 V 315 Z" /><path
               id="path3173"
               fill="#d89700"
               d="M 385,156 H 233 v -6.34 c 0,-10.5 8.5,-19 19,-19 h 25.3 c 7.03,0 12.7,-5.64 12.7,-12.7 v -12.7 h 38 v 12.7 c 0,6.98 5.71,12.7 12.7,12.7 h 25.4 c 10.5,0 19,8.5 19,19 z" /><g
               id="g3187"
               fill="#f6bb42"
               transform="matrix(6.34,0,0,6.34,-93.9,-161)"><path
                 id="path3175"
                 d="m 75.5,77.1 v -2 c -0.001,0 -0.002,-10e-4 -0.003,-10e-4 h -1.99 c -0.553,0 -1,0.447 -1,1 0,0.553 0.447,1 1,1 h 1.99 c 0.001,0 0.002,-0.001 0.003,-0.001 z" /><path
                 id="path3177"
                 d="m 75.5,81.1 v -2 c -0.001,0 -0.002,-10e-4 -0.003,-10e-4 h -1.99 c -0.553,0 -1,0.447 -1,1 0,0.553 0.447,1 1,1 h 1.99 c 0.001,0 0.002,-0.001 0.003,-0.001 z" /><path
                 id="path3179"
                 d="m 75.5,85.1 v -2 c -0.001,0 -0.002,-10e-4 -0.003,-10e-4 h -1.99 c -0.553,0 -1,0.447 -1,1 0,0.553 0.447,1 1,1 h 1.99 c 0.001,0 0.002,-0.001 0.003,-0.001 z" /><path
                 id="path3181"
                 d="m 51.5,83.1 v 2 c 10e-4,0 0.002,0.001 0.003,0.001 h 1.99 c 0.553,0 1,-0.447 1,-1 0,-0.553 -0.447,-1 -1,-1 h -1.99 c -10e-4,0 -0.002,0.001 -0.003,0.001 z" /><path
                 id="path3183"
                 d="m 51.5,79.1 v 2 c 10e-4,0 0.002,0.001 0.003,0.001 h 1.99 c 0.553,0 1,-0.447 1,-1 0,-0.553 -0.447,-1 -1,-1 h -1.99 c -10e-4,0 -0.002,0.001 -0.003,0.001 z" /><path
                 id="path3185"
                 d="m 51.5,75.1 v 2 c 10e-4,0 0.002,0.001 0.003,0.001 h 1.99 c 0.553,0 1,-0.447 1,-1 0,-0.553 -0.447,-1 -1,-1 h -1.99 c -10e-4,0 -0.002,0.001 -0.003,0.001 z" /></g></g><g
             id="g3211"
             transform="matrix(32.6,0,0,-32.6,23107,19794)"><g
               id="g3209"
               stroke="null"
               transform="matrix(0.189,0,0,0.189,-697,-530)"><path
                 id="path3191"
                 fill="#5b5b68"
                 d="m 5362,3957 c -18.1,21.2 -35.7,33.7 -35.7,33.7 0,0 -104,-23.2 -124,-103 -0.37,-1.45 -0.7,-2.93 -1,-4.42 -17,-83.6 6.5,-166 56.9,-227 70.2,36.5 124,103 141,187 9.46,46.6 -14.4,87.2 -37.3,114 z" /><path
                 id="path3193"
                 fill="#40404c"
                 d="m 5259,3872 c 16.8,82.9 66.9,119 67.7,119 -1.66,-0.373 -108,-24.7 -125,-108 -17,-83.6 6.51,-166 56.9,-227 -15.6,53.9 -16.8,132 0.128,215 z" /><path
                 id="path3195"
                 fill="#40404c"
                 d="m 5309,3911 c -3.49,0 -6.62,-2.45 -7.34,-6.01 l -35.6,-175 c -0.824,-4.06 1.8,-8.02 5.86,-8.84 4.06,-0.826 8.02,1.8 8.84,5.86 l 35.6,175 c 0.824,4.06 -1.8,8.02 -5.86,8.84 -0.502,0.103 -1,0.152 -1.5,0.152 z" /><path
                 id="path3197"
                 stroke="null"
                 fill="#40404c"
                 d="m 5362,3957 c -18.1,21.2 -35.7,33.7 -35.7,33.7 0,0 -104,-23.2 -124,-103 58.4,2.39 116,25.9 159,69.4 z" /><path
                 id="path3199"
                 fill="#5b5b68"
                 d="m 5368,3861 c -59.2,61.3 -17.9,164 -17.9,164 0,0 104,37.7 163,-23.6 59.2,-61.3 83.7,-143 74,-222 -78.8,-6.98 -160,20.4 -219,81.7 z" /><path
                 id="path3201"
                 fill="#40404c"
                 d="m 5410,3901 c -58.8,60.9 -59.8,122 -59.8,123 -0.635,-1.58 -40.8,-103 17.9,-164 59.2,-61.3 140,-88.7 219,-81.7 -53.3,17.7 -118,60.8 -177,122 z" /><path
                 id="path3203"
                 fill="#40404c"
                 d="m 5405,3975 c -1.89,0 -3.78,-0.708 -5.23,-2.13 -2.97,-2.89 -3.03,-7.64 -0.136,-10.6 l 79.3,-81.4 26.8,-27.8 25.5,-27.2 c 2.83,-3.02 7.58,-3.17 10.6,-0.336 3.02,2.83 3.17,7.58 0.336,10.6 l -25.6,27.3 c -0.024,0.026 -0.049,0.052 -0.074,0.078 l -26.9,27.9 -79.3,81.4 c -1.47,1.51 -3.42,2.26 -5.37,2.26 z" /><path
                 id="path3205"
                 fill="#ffca5e"
                 d="m 5229,4108 c 48,58.3 142,32.3 142,32.3 0,0 43.7,-87.6 -4.32,-146 -48,-58.3 -118,-88.2 -188,-87.6 -14.1,68.7 1.78,143 49.8,201 z" /><path
                 id="path3207"
                 fill="#e8a328"
                 d="m 5269,4075 c 47.6,57.9 102,65 103,65.1 -1.46,0.399 -94.8,25.6 -142,-32.3 -48,-58.3 -63.9,-133 -49.8,-201 10.2,48.7 41.6,110 89.6,168 z" /></g></g></g><g
           id="g3267"
           style="clip-rule:evenodd;fill-rule:evenodd;image-rendering:optimizeQuality;shape-rendering:geometricPrecision;text-rendering:geometricPrecision"
           transform="matrix(1.45,0,0,-1.44,2055,20846.152)"><g
             id="g3223"><title
               id="title3215">background</title><rect
               id="rect3217"
               fill="none"
               height="514"
               width="514"
               y="-1"
               x="-1" /><g
               id="g3221"
               overflow="visible"
               display="none"
               height="100%"
               width="100%"
               y="0"
               x="0"><rect
                 y="0"
                 x="0"
                 id="rect3219"
                 stroke-width="0"
                 fill="url(#gridpattern)"
                 height="100%"
                 width="100%" /></g></g><g
             id="g3265"><title
               id="title3225">Layer 1</title><g
               id="g3263"
               stroke="null"><g
                 id="g3261"
                 stroke="null"
                 transform="matrix(0.992,0,0,0.992,-170,-279)"><path
                   id="path3227"
                   fill="#dd636e"
                   d="m 591,436 c -106,-7.06 -212,-7.06 -318,0 -31.8,2.12 -57.4,26.9 -60.4,58.6 -7.35,79.1 -7.35,158 0,237 2.95,31.7 28.6,56.5 60.4,58.6 106,7.06 212,7.06 318,0 31.8,-2.12 57.4,-26.9 60.4,-58.6 7.35,-79.1 7.35,-158 0,-237 C 648.45,462.9 622.8,438.1 591,436 Z" /><path
                   id="path3229"
                   fill="#da4a54"
                   d="m 287,740 c 1.31,22.6 9.31,41.8 20.8,52.8 -11.4,-0.594 -22.9,-1.28 -34.3,-2.04 -31.8,-2.11 -57.4,-26.9 -60.4,-58.6 -7.35,-79.1 -7.35,-158 0,-237 2.95,-31.7 28.6,-56.5 60.4,-58.6 11.4,-0.758 22.9,-1.44 34.3,-2.04 -11.5,11 -19.5,30.2 -20.8,52.8 -4.87,84.3 -4.87,169 0,253 z" /><ellipse
                   id="ellipse3231"
                   fill="#f9efda"
                   ry="120"
                   rx="152"
                   cy="619"
                   cx="432" /><path
                   id="path3233"
                   fill="#ffe07d"
                   d="m 568,385 h -0.035 c 6.39,-4.23 11,-11 12.4,-19 3.2,-18.8 3.2,-37.6 0,-56.4 -2.26,-13.3 -13.5,-23.2 -27,-23.7 -81,-2.7 -162,-2.7 -243,0 -13.5,0.45 -24.7,10.4 -27,23.7 -3.2,18.8 -3.2,37.6 0,56.4 1.36,8 5.98,14.8 12.4,19 h -0.035 c -46.2,29.3 -109,46.1 -88.7,85.4 20.3,39.3 74.1,-23.1 106,-18 31.9,5.07 -12.5,84 25.4,84 37.9,0 58.8,-66 93.4,-66 34.6,0 55.5,66 93.4,66 37.9,0 -6.54,-78.9 25.4,-84 31.94,-5.1 85.7,57.3 106,18 20.3,-39.3 -42.5,-56.1 -88.7,-85.4 z" /><path
                   id="path3235"
                   fill="#ffd064"
                   d="m 356,366 c 0.7,7.99 3.05,21.9 6.3,26.1 l -0.02,-7.15 c -19.7,24.5 -45.4,40.3 -47.1,67.9 -0.731,-0.237 -1.5,-0.412 -2.34,-0.546 -31.9,-5.07 -85.7,57.3 -106,18 -20.3,-39.3 42.5,-56.1 88.7,-85.4 h 0.031 c -6.39,-4.22 -11,-11 -12.4,-19 -3.19,-18.8 -3.19,-37.6 0,-56.4 2.26,-13.3 13.5,-23.2 27,-23.7 17.9,-0.597 35.7,-1.06 53.6,-1.39 -4.03,5.64 -7,15.9 -7.79,25.1 -1.63,18.8 -1.63,37.6 -10e-4,56.4 z" /><path
                   id="path3237"
                   fill="#f9efda"
                   d="m 432,403 c -49,0 -98,-3.24 -147,-9.71 -4.23,-0.563 -7.2,-4.45 -6.64,-8.68 0.563,-4.23 4.46,-7.2 8.68,-6.64 96,12.8 193,12.8 289,0 4.23,-0.561 8.12,2.41 8.68,6.64 0.562,4.23 -2.41,8.12 -6.64,8.68 -48.7,6.47 -97.7,9.71 -147,9.71 z" /><path
                   id="path3239"
                   fill="#f9efda"
                   d="m 471,335 c -8.97,-6.32 -19.1,-6.69 -27.7,-1.01 -4.74,3.13 -8.61,7.8 -11.5,13.5 -2.9,-5.71 -6.77,-10.4 -11.5,-13.5 -8.6,-5.68 -18.7,-5.32 -27.7,1.01 -9.41,6.63 -10.9,14.4 -10.6,19.7 1.31,18.4 28.3,35.1 39.4,41.1 0.384,1.76 0.974,3.94 1.86,6.37 -3.57,6.15 -10.2,12.9 -22.4,15.8 -4.15,0.983 -6.72,5.14 -5.74,9.3 0.842,3.55 4.01,5.95 7.51,5.95 0.589,0 1.19,-0.067 1.79,-0.209 12.5,-2.96 21.3,-9.19 27.3,-16.2 5.54,6.56 14.1,13.1 27.3,16.2 0.599,0.142 1.2,0.209 1.79,0.209 3.5,0 6.67,-2.39 7.51,-5.95 0.982,-4.15 -1.59,-8.32 -5.74,-9.3 -12.1,-2.87 -18.7,-9.62 -22.3,-15.8 0.85,-2.27 1.47,-4.45 1.89,-6.45 11.1,-6.1 38,-22.7 39.3,-41.1 0.378,-5.31 -1.14,-13 -10.6,-19.7 z m -73.5,18.6 c -0.057,-0.802 -0.208,-2.93 4.04,-5.93 2.31,-1.63 4.25,-2.19 5.88,-2.19 1.85,0 3.28,0.727 4.36,1.44 7.75,5.12 11,18.4 10.5,31.4 -11.8,-7.48 -24.2,-17.8 -24.7,-24.7 z m 68.6,0 c -0.496,6.99 -12.9,17.3 -24.7,24.7 -0.524,-13 2.71,-26.3 10.5,-31.4 1.08,-0.715 2.52,-1.44 4.37,-1.44 1.62,0 3.57,0.562 5.88,2.19 4.25,3 4.1,5.13 4.04,5.93 z" /><path
                   id="path3241"
                   fill="#b3e59f"
                   d="m 433,576 c 40.8,0 64.3,-26 54.9,-35.3 -9.33,-9.33 -19.5,8.8 -27.5,8.8 -8,0 3.39,-16 -4.93,-19.2 -8.32,-3.19 -15,18.1 -23.4,18.1 -8.4,0 -15,-21.3 -23.4,-18.1 -8.32,3.19 3.01,19.2 -4.93,19.2 -7.94,0 -18.1,-18.1 -27.5,-8.8 -9.33,9.33 14.1,35.3 54.9,35.3" /><path
                   id="path3243"
                   fill="#95d6a4"
                   d="m 432,576 h -0.44 c -40.8,0 -64.3,-26 -54.9,-35.3 9.33,-9.33 19.5,8.8 27.5,8.8 0.783,0 1.38,-0.155 1.82,-0.44 1.68,11.4 11.5,27 26.1,27 z" /><path
                   id="path3245"
                   fill="#dd636e"
                   d="m 432,574 c -38.2,0 -69.2,0.613 -69.2,38.8 0,8.18 1.42,17.4 4.03,26.9 5.24,19.1 15.3,39.1 28.3,53.2 1.79,1.96 3.64,3.81 5.53,5.53 9.42,8.54 20.1,13.9 31.4,13.9 16.8,0 32.1,-11.8 44.1,-28.3 15.3,-21.1 25.1,-49.8 25.1,-71.3 0,-38.2 -31,-38.8 -69.2,-38.8 z" /><path
                   id="path3247"
                   fill="#da4a54"
                   d="m 432,712 c -38.2,0 -69.2,-61.3 -69.2,-99.6 0,-38.2 31,-38.8 69.2,-38.8 -17.9,0 -32.4,0.614 -32.4,38.8 10e-4,38.2 14.5,99.6 32.4,99.6 z" /><g
                   id="g3259"
                   fill="#664545"><path
                     id="path3249"
                     d="m 395,631 c -4.27,0 -7.73,-3.46 -7.73,-7.73 v -10 c 0,-4.27 3.46,-7.73 7.73,-7.73 4.27,0 7.73,3.46 7.73,7.73 v 10 c 0,4.27 -3.46,7.73 -7.73,7.73 z" /><path
                     id="path3251"
                     d="m 432,631 c -4.27,0 -7.73,-3.46 -7.73,-7.73 v -10 c 0,-4.27 3.46,-7.73 7.73,-7.73 4.27,0 7.73,3.46 7.73,7.73 v 10 c 0,4.27 -3.46,7.73 -7.73,7.73 z" /><path
                     id="path3253"
                     d="m 469,631 c -4.27,0 -7.73,-3.46 -7.73,-7.73 v -10 c 0,-4.27 3.46,-7.73 7.73,-7.73 4.27,0 7.73,3.46 7.73,7.73 v 10 c 0,4.27 -3.46,7.73 -7.73,7.73 z" /><path
                     id="path3255"
                     d="m 413,674 c -4.27,0 -7.73,-3.46 -7.73,-7.73 v -10 c 0,-4.27 3.46,-7.73 7.73,-7.73 4.27,0 7.73,3.46 7.73,7.73 v 10 c 0,4.27 -3.46,7.73 -7.73,7.73 z" /><path
                     id="path3257"
                     d="m 451,674 c -4.27,0 -7.73,-3.46 -7.73,-7.73 v -10 c 0,-4.27 3.46,-7.73 7.73,-7.73 4.27,0 7.73,3.46 7.73,7.73 v 10 c 10e-4,4.27 -3.46,7.73 -7.73,7.73 z" /></g></g></g></g></g><g
           id="g3389"
           style="clip-rule:evenodd;fill-rule:evenodd;image-rendering:optimizeQuality;shape-rendering:geometricPrecision;text-rendering:geometricPrecision"
           transform="matrix(1.56,0,0,-1.63,990,20926.152)"><g
             id="g3277"><title
               id="title3269">background</title><rect
               id="rect3271"
               fill="none"
               height="514"
               width="514"
               y="-1"
               x="-1" /><g
               id="g3275"
               overflow="visible"
               display="none"
               height="100%"
               width="100%"
               y="0"
               x="0"><rect
                 y="0"
                 x="0"
                 id="rect3273"
                 stroke-width="0"
                 fill="url(#gridpattern)"
                 height="100%"
                 width="100%" /></g></g><g
             id="g3387"><title
               id="title3279">Layer 1</title><g
               id="g3321"
               stroke="null"><g
                 id="g3319"
                 stroke="null"
                 transform="matrix(8.42,0,0,8.42,-4.48,-1.04)"><path
                   id="path3281"
                   fill="#ace54b"
                   d="m 16.9,13 2.14,0.855 c 1.1,0.441 2.28,0.668 3.47,0.668 1.45,0 2.88,-0.337 4.17,-0.985 l 0.059,-0.03 c 1.3,-0.648 2.72,-0.985 4.17,-0.985 h 0.594 c 1.45,0 2.88,0.337 4.17,0.985 l 0.059,0.03 c 1.3,0.648 2.72,0.985 4.17,0.985 h 0.283 c 1,0 2,-0.162 2.95,-0.479 l 3.34,-1.11 h -0.001 c 0.767,1.57 2.07,2.85 3.73,3.59 2.74,1.22 4.5,3.93 4.5,6.92 v 31.1 c 0,3.31 -2.69,6 -6,6 h -34 c -3.31,0 -6,-2.69 -6,-6 v -31.1 c 0,-3 1.76,-5.71 4.5,-6.92 1.63,-0.726 2.92,-1.99 3.69,-3.52 z" /><path
                   id="path3283"
                   fill="#d0f669"
                   d="m 33.5,12.8 c -0.668,-0.149 -1.35,-0.231 -2.04,-0.231 h -0.594 c -1.45,0 -2.88,0.337 -4.17,0.985 l -0.059,0.03 c -1.3,0.648 -2.72,0.985 -4.17,0.985 -1.19,0 -2.36,-0.227 -3.47,-0.667 l -2.14,-0.855 c -0.771,1.54 -2.06,2.8 -3.69,3.52 -2.74,1.22 -4.5,3.93 -4.5,6.92 v 17.3 c 12.7,-4.04 22.3,-14.8 24.8,-28 z" /><path
                   id="path3285"
                   fill="#c7e2fc"
                   d="m 46.4,13 -3.34,1.11 c -0.951,0.317 -1.95,0.479 -2.95,0.479 h -0.283 c -1.45,0 -2.88,-0.337 -4.17,-0.985 l -0.059,-0.03 c -1.3,-0.648 -2.72,-0.985 -4.17,-0.985 h -0.594 c -1.45,0 -2.88,0.337 -4.17,0.985 l -0.059,0.03 c -1.3,0.648 -2.72,0.985 -4.17,0.985 -1.19,0 -2.36,-0.227 -3.47,-0.667 l -2.14,-0.855 c 0.521,-1.04 0.807,-2.2 0.807,-3.4 v -1.08 h 28 v 1.08 c 0,1.18 0.274,2.32 0.773,3.33 z" /><path
                   id="path3287"
                   fill="#50761e"
                   d="m 34.5,53.4 c 5.82,-4.06 10.3,-9.8 12.8,-16.5 l 2.81,-7.42 c 0.706,-1.87 0.749,-3.92 0.122,-5.82 -0.622,-1.88 -1.96,-3.44 -3.72,-4.32 -1.95,-0.983 -4.23,-1.05 -6.24,-0.185 -2.34,1.01 -4.2,2.87 -5.22,5.22 l -0.383,0.881 c -3.18,7.33 -7.87,13.9 -13.7,19.3 -1.14,1.05 -1.9,2.45 -2.16,3.99 -0.363,2.2 0.348,4.43 1.91,6.01 1.49,1.5 3.59,2.23 5.69,1.96 2.92,-0.367 5.71,-1.44 8.13,-3.13 z" /><path
                   id="path3289"
                   fill="#6ea22a"
                   d="m 19.7,53.3 c 0.853,0.235 1.75,0.304 2.65,0.191 2.92,-0.368 5.71,-1.44 8.13,-3.13 5.82,-4.06 10.3,-9.8 12.8,-16.5 l 2.81,-7.42 c 0.706,-1.87 0.749,-3.92 0.122,-5.82 -0.21,-0.636 -0.503,-1.23 -0.865,-1.78 -1.63,-0.503 -3.4,-0.428 -5,0.236 0.48,1.77 0.392,3.65 -0.258,5.37 l -2.81,7.42 c -2.52,6.66 -6.99,12.4 -12.8,16.5 -1.74,1.21 -3.66,2.1 -5.69,2.65 l -0.009,-0.04 c 0.158,0.824 0.466,1.61 0.91,2.33 z" /><path
                   id="path3291"
                   fill="#50761e"
                   d="M 28.8,53.4 C 22.98,49.34 18.5,43.6 16,36.9 l -2.81,-7.42 c -0.706,-1.87 -0.749,-3.92 -0.122,-5.82 0.622,-1.88 1.96,-3.44 3.72,-4.32 1.95,-0.983 4.23,-1.05 6.24,-0.185 2.34,1.01 4.2,2.87 5.22,5.22 l 0.383,0.881 c 3.18,7.33 7.87,13.9 13.7,19.3 1.14,1.05 1.9,2.45 2.16,3.99 0.363,2.2 -0.348,4.43 -1.91,6.01 -1.49,1.5 -3.59,2.23 -5.69,1.96 -2.92,-0.367 -5.71,-1.44 -8.13,-3.13 z" /><path
                   id="path3293"
                   fill="#6ea22a"
                   d="m 43.6,53.3 c -0.853,0.235 -1.75,0.304 -2.65,0.191 -2.92,-0.368 -5.71,-1.44 -8.13,-3.13 -5.82,-4.06 -10.3,-9.8 -12.8,-16.5 l -2.81,-7.42 c -0.706,-1.87 -0.749,-3.92 -0.122,-5.82 0.21,-0.636 0.503,-1.23 0.865,-1.78 1.63,-0.503 3.4,-0.428 5,0.236 -0.48,1.77 -0.392,3.65 0.258,5.37 l 2.81,7.42 c 2.52,6.66 6.99,12.4 12.8,16.5 1.74,1.21 3.66,2.1 5.69,2.65 l 0.009,-0.04 c -0.158,0.824 -0.466,1.61 -0.91,2.33 z" /><path
                   id="path3295"
                   fill="#758190"
                   d="m 45.7,8.56 h -28 c -1.1,0 -2,-0.895 -2,-2 v -4 c 0,-1.1 0.895,-2 2,-2 h 28 c 1.1,0 2,0.895 2,2 v 4 c 0,1.1 -0.895,2 -2,2 z" /><path
                   id="path3297"
                   fill="#8892a0"
                   d="m 45.7,3.56 h -28 c -1.1,0 -2,0.895 -2,2 v 1 c 0,1.1 0.895,2 2,2 h 28 c 1.1,0 2,-0.895 2,-2 v -1 c 0,-1.1 -0.895,-2 -2,-2 z" /><path
                   id="path3299"
                   stroke="null"
                   fill="#a8b0bc"
                   d="m 18.7,3.56 h 2 v 5 h -2 z" /><path
                   id="path3301"
                   stroke="null"
                   fill="#a8b0bc"
                   d="m 22.7,3.56 h 2 v 5 h -2 z" /><path
                   id="path3303"
                   stroke="null"
                   fill="#a8b0bc"
                   d="m 26.7,3.56 h 2 v 5 h -2 z" /><path
                   id="path3305"
                   stroke="null"
                   fill="#a8b0bc"
                   d="m 30.7,3.56 h 2 v 5 h -2 z" /><path
                   id="path3307"
                   stroke="null"
                   fill="#a8b0bc"
                   d="m 34.7,3.56 h 2 v 5 h -2 z" /><path
                   id="path3309"
                   stroke="null"
                   fill="#a8b0bc"
                   d="m 38.7,3.56 h 2 v 5 h -2 z" /><path
                   id="path3311"
                   stroke="null"
                   fill="#a8b0bc"
                   d="m 42.7,3.56 h 2 v 5 h -2 z" /><g
                   id="g3317"
                   fill="#ebf7fe"><path
                     id="path3313"
                     d="M 16.9,13 H 16.899 Z" /><path
                     id="path3315"
                     d="m 17.7,8.56 v 1.08 c 0,1.21 -0.286,2.37 -0.806,3.4 l 2.14,0.855 c 1.1,0.44 2.28,0.667 3.46,0.667 1.45,0 2.88,-0.337 4.17,-0.985 l 0.059,-0.03 c 1.3,-0.648 2.72,-0.985 4.17,-0.985 h 0.594 c 0.689,0 1.37,0.082 2.04,0.231 0.263,-1.38 0.446,-2.8 0.549,-4.23 h -16.4 z" /></g></g></g><g
               id="g3367"
               stroke-width="null"
               stroke-opacity="null"
               stroke="null"
               fill="#8cc736"><ellipse
                 id="ellipse3323"
                 ry="16.1"
                 rx="9.8999996"
                 cy="302"
                 cx="418" /><ellipse
                 id="ellipse3325"
                 ry="16.1"
                 rx="9.8999996"
                 cy="334"
                 cx="411"
                 transform="rotate(-42.3,411,334)" /><ellipse
                 id="ellipse3327"
                 ry="16.1"
                 rx="9.8999996"
                 cy="334"
                 cx="426"
                 transform="rotate(38,426,334)" /><ellipse
                 id="ellipse3329"
                 ry="16.1"
                 rx="9.8999996"
                 cy="366"
                 cx="411"
                 transform="rotate(-42.3,411,366)" /><ellipse
                 id="ellipse3331"
                 ry="16.1"
                 rx="9.8999996"
                 cy="365"
                 cx="427"
                 transform="rotate(38,427,365)" /><ellipse
                 id="ellipse3333"
                 ry="16.1"
                 rx="9.8999996"
                 cy="396"
                 cx="411"
                 transform="rotate(-42.3,411,396)" /><ellipse
                 id="ellipse3335"
                 ry="16.1"
                 rx="9.8999996"
                 cy="396"
                 cx="427"
                 transform="rotate(38,427,396)" /><ellipse
                 id="ellipse3337"
                 ry="16.1"
                 rx="9.8999996"
                 cy="465"
                 cx="411"
                 transform="rotate(37.7,411,465)" /><ellipse
                 id="ellipse3339"
                 ry="16.1"
                 rx="9.8999996"
                 cy="431"
                 cx="421" /><ellipse
                 id="ellipse3341"
                 ry="16.1"
                 rx="9.8999996"
                 cy="466"
                 cx="426"
                 transform="rotate(-32.2,426,466)" /><ellipse
                 id="ellipse3343"
                 ry="16.1"
                 rx="9.8999996"
                 cy="138"
                 cx="261" /><ellipse
                 id="ellipse3345"
                 ry="16.1"
                 rx="9.8999996"
                 cy="170"
                 cx="254"
                 transform="rotate(-42.3,254,170)" /><ellipse
                 id="ellipse3347"
                 ry="16.1"
                 rx="9.8999996"
                 cy="169"
                 cx="269"
                 transform="rotate(38,269,169)" /><ellipse
                 id="ellipse3349"
                 ry="16.1"
                 rx="9.8999996"
                 cy="201"
                 cx="254"
                 transform="rotate(-42.3,254,201)" /><ellipse
                 id="ellipse3351"
                 ry="16.1"
                 rx="9.8999996"
                 cy="200"
                 cx="270"
                 transform="rotate(38,270,200)" /><ellipse
                 id="ellipse3353"
                 ry="16.1"
                 rx="9.8999996"
                 cy="364"
                 cx="113" /><ellipse
                 id="ellipse3355"
                 ry="16.1"
                 rx="9.8999996"
                 cy="396"
                 cx="106"
                 transform="rotate(-42.3,106,396)" /><ellipse
                 id="ellipse3357"
                 ry="16.1"
                 rx="9.8999996"
                 cy="396"
                 cx="121"
                 transform="rotate(38,121,396)" /><ellipse
                 id="ellipse3359"
                 ry="16.1"
                 rx="9.8999996"
                 cy="428"
                 cx="106"
                 transform="rotate(-42.3,106,428)" /><ellipse
                 id="ellipse3361"
                 ry="16.1"
                 rx="9.8999996"
                 cy="427"
                 cx="122"
                 transform="rotate(38,122,427)" /><ellipse
                 id="ellipse3363"
                 ry="16.1"
                 rx="9.8999996"
                 cy="458"
                 cx="106"
                 transform="rotate(-42.3,106,458)" /><ellipse
                 id="ellipse3365"
                 ry="16.1"
                 rx="9.8999996"
                 cy="458"
                 cx="122"
                 transform="rotate(38,122,458)" /></g><g
               id="g3385"
               stroke-width="null"
               stroke-opacity="null"
               stroke="null"
               fill="#ffffff"><ellipse
                 id="ellipse3369"
                 ry="13"
                 rx="10"
                 cy="220"
                 cx="181"
                 transform="rotate(-33.7,181,220)" /><ellipse
                 id="ellipse3371"
                 ry="26.1"
                 rx="20.200001"
                 cy="268"
                 cx="231"
                 transform="rotate(-33.7,231,268)" /><ellipse
                 id="ellipse3373"
                 ry="19.200001"
                 rx="25.200001"
                 cy="228"
                 cx="369"
                 transform="rotate(21.3,369,228)" /><ellipse
                 id="ellipse3375"
                 ry="9.1999998"
                 rx="12"
                 cy="251"
                 cx="337"
                 transform="rotate(21.3,337,251)" /><ellipse
                 id="ellipse3377"
                 ry="11.7"
                 rx="9.04"
                 cy="274"
                 cx="93.800003"
                 transform="rotate(-38.3,93.8,274)" /><ellipse
                 id="ellipse3379"
                 ry="19.1"
                 rx="13.7"
                 cy="318"
                 cx="96.599998"
                 transform="rotate(-39.1,96.6,318)" /><ellipse
                 id="ellipse3381"
                 ry="6.6100001"
                 rx="5.0999999"
                 cy="416"
                 cx="386"
                 transform="rotate(-38.3,386,416)" /><ellipse
                 id="ellipse3383"
                 ry="10.8"
                 rx="8.3299999"
                 cy="445"
                 cx="391"
                 transform="rotate(-38.3,391,445)" /></g></g></g><g
           id="g3485"
           transform="matrix(0.0909,0,0,0.0909,1200,19185.152)"><path
             id="path3391"
             style="stroke-width:24.7"
             fill="#60b7ff"
             d="m -3053,7920 c 55,0 142,-1.48 247,-3.7 -300,-5.68 -752,-16 -1053,-9.87 331,4.2 668,13.6 806,13.6 z" /><path
             id="path3393"
             style="stroke-width:24.7"
             fill="#60b7ff"
             d="m -1753,7906 c -301,-6.17 -753,4.2 -1053,9.87 105,2.22 192,3.7 247,3.7 138,0 475,-9.38 806,-13.6 z" /><path
             id="path3395"
             style="stroke-width:24.7"
             fill="#c4e2ff"
             d="m -1519,18583 -2087,2.42 v 781 l 2087,-2.42 z" /><path
             id="path3397"
             style="stroke-width:24.7"
             fill="#b3dafe"
             d="m -3606,19331 h 2087 v -361 h -2087 z" /><path
             id="path3399"
             style="stroke-width:24.7"
             fill="#fcd4d4"
             d="m -479,10923 c -47,619 -21.6,1243 108,1851 102,477 131,1036 131,1522 h -2319 -2317 c 0,-486 26.6,-1045 128,-1522 130,-608 155,-1232 108,-1851 -55.5,-729 -274,-1434 -267,-2162 3.95,-452 243,-947 754,-1014 272,-36 1319,0 1594,0 275,0 1322,-36 1594,0 511,67.7 750,562 754,1014 6.37,728 -212,1432 -267,2162 z" /><path
             id="path3401"
             style="stroke-width:24.7"
             fill="#ffaaaa"
             d="m -212,8762 c -4.05,-452 -243,-947 -754,-1014 -131,-17.3 -442,-18 -760,-14 108,2.3 196,6.59 252,14 511,67.5 750,562 754,1014 6.34,728 -212,1432 -267,2162 -46.9,619 -21.6,1243 108,1851 102,477 130,1036 130,1522 h 508 c 0,-486 -28.7,-1045 -130,-1522 -130,-608 -155,-1232 -108,-1851 55.6,-729 274,-1434 267,-2162 z" /><path
             id="path3403"
             style="stroke-width:24.7"
             fill="#ff6666"
             d="m -1361,19331 h -2397 c -72.2,0 -131,58.5 -131,131 v 777 c 0,72.2 58.5,131 131,131 h 2397 c 72.2,0 131,-58.5 131,-131 v -777 c 0,-72.2 -58.5,-131 -131,-131 z" /><path
             id="path3405"
             style="stroke-width:24.7"
             fill="#fcd4d4"
             d="m -240,16812 -1278,1800 h -2087 l -1268,-1800 -3.87,-5.51 v -68.4 h 4636 z" /><path
             id="path3407"
             style="stroke-width:24.7"
             fill="#ffaaaa"
             d="m -240,16812 h -509 l -1276,1800 h 507 z" /><path
             id="path3409"
             style="stroke-width:24.7"
             fill="#0593fc"
             d="m -240,14225 h -4636 v 2581 l 4636,5.56 z" /><path
             id="path3411"
             style="stroke-width:24.7"
             fill="#0182fc"
             d="m -749,16812 h 509 v -2587 h -509 z" /><g
             id="g3475"
             stroke="null"
             transform="matrix(24.7,0,0,-24.7,-8879,20370)"><path
               id="path3413"
               fill="#5eac24"
               d="m 286,257 c -23.4,-2.44 -41.4,-14.9 -40,-27.8 1.34,-12.9 21.4,-21.4 44.9,-19 23.4,2.44 51.2,17.7 50,28.9 -1.16,11.2 -31.5,20.4 -54.9,17.9 z" /><path
               id="path3415"
               fill="#4e901e"
               d="m 290,210 c -23.4,-2.44 -43.5,6.06 -44.9,19 l 25.9,-4.78 c 14.4,-2.64 29.2,-1.18 42.7,4.21 l 26.2,10.4 c 1.16,-11.2 -26.6,-26.4 -50,-28.9 z" /><path
               id="path3417"
               fill="#47821c"
               d="m 322,240 -74.8,-7.79 c -1.68,-0.175 -2.9,-1.68 -2.73,-3.36 0.17,-1.68 1.68,-2.9 3.36,-2.73 l 74.8,7.79 c 1.68,0.175 2.9,1.68 2.73,3.36 -0.163,1.57 -1.38,2.9 -3.36,2.73 z" /><path
               id="path3419"
               fill="#6dc82a"
               d="m 295,232 c -19.7,-12.9 -41.5,-14.6 -48.6,-3.73 -7.1,10.87 3.08,30.1 22.8,43.1 19.7,12.9 50.8,18.6 57,9.25 6.16,-9.4 -11.5,-35.7 -31.2,-48.6 z" /><path
               id="path3421"
               fill="#5eac24"
               d="m 269,271 c -19.7,-12.9 -29.9,-32.2 -22.8,-43.1 l 18.4,23.6 c 7.91,10.1 18.9,17.4 31.3,20.7 l 30,8.01 c -6.16,9.4 -37.3,3.68 -57,-9.25 z" /><path
               id="path3423"
               fill="#47821c"
               d="m 313,268 -20.6,-13.5 9.13,-1.74 c 1.66,-0.316 2.75,-1.92 2.43,-3.58 -0.316,-1.66 -1.92,-2.75 -3.58,-2.43 l -15.4,2.92 -11,-7.23 9.13,-1.74 c 1.66,-0.316 2.75,-1.92 2.43,-3.58 -0.316,-1.66 -1.92,-2.75 -3.58,-2.43 l -15.4,2.92 -16.6,-10.9 c -1.41,-0.927 -3.31,-0.532 -4.24,0.881 -0.927,1.41 -0.532,3.31 0.881,4.24 l 16.6,10.9 3.44,15.2 c 0.775,3.02 3.43,2.36 3.66,2.31 1.65,-0.372 2.68,-2.01 2.31,-3.66 l -2.05,-9.07 11,7.23 3.44,15.2 c 0.776,2.99 3.43,2.36 3.66,2.31 1.65,-0.372 2.68,-2.01 2.31,-3.66 l -2.05,-9.07 20.6,13.5 c 2.08,1.16 3.65,0.0148 4.24,-0.881 0.927,-1.41 0.533,-3.31 -0.88,-4.24 z" /><path
               id="path3425"
               fill="#91dc5a"
               d="m 223,257 c 23.4,-2.44 41.4,-14.9 40,-27.8 -1.34,-12.9 -21.4,-21.4 -44.9,-19 -23.4,2.44 -51.2,17.7 -50,28.9 1.16,11.2 31.5,20.4 54.9,17.9 z" /><path
               id="path3427"
               fill="#6dc82a"
               d="m 219,210 c 23.4,-2.44 43.5,6.06 44.9,19 l -29.1,-6.39 c -13.8,-3.03 -28.3,-1.4 -41.1,4.63 l -24.7,11.6 c -1.16,-11.2 26.6,-26.4 50,-28.9 z" /><path
               id="path3429"
               fill="#b6e892"
               d="m 214,232 c 19.7,-12.9 41.5,-14.6 48.6,-3.73 7.1,10.87 -3.08,30.1 -22.8,43.1 -19.7,12.9 -50.8,18.6 -57,9.25 -6.2,-9.35 11.5,-35.7 31.2,-48.6 z" /><path
               id="path3431"
               fill="#91dc5a"
               d="m 240,271 c 19.7,-12.9 29.9,-32.2 22.8,-43.1 L 249.7,246 c -9.72,13.5 -23.8,23.1 -39.9,27.3 l -26.8,6.91 c 6.16,9.4 37.3,3.68 57,-9.25 z" /><g
               id="g3437"
               fill="#47821c"
               transform="matrix(0.336,0,0,0.336,-463,-552)"><path
                 id="path3433"
                 d="m 1926,2352 c -0.521,-5.01 3.12,-9.49 8.12,-10 l 223,-23.2 c 5.01,-0.521 9.49,3.12 10,8.12 0.51,5 -3.12,9.49 -8.12,10 l -223,23.2 c -7.25,0.46 -9.52,-3.44 -10,-8.12 z" /><path
                 id="path3435"
                 d="m 2164,2323 c -2.76,-4.21 -8.41,-5.39 -12.6,-2.62 l -49.3,32.3 -45.7,-8.7 c -4.94,-0.943 -9.72,2.3 -10.7,7.25 -0.942,4.94 2.3,9.72 7.25,10.7 l 27.2,5.18 -32.9,21.5 -45.7,-8.7 c -4.94,-0.942 -9.72,2.3 -10.7,7.25 -0.942,4.94 2.3,9.72 7.25,10.7 l 27.2,5.18 -61.3,40.2 c -4.21,2.76 -5.38,8.41 -2.62,12.6 1.75,2.67 7.61,5.18 12.6,2.62 l 61.3,-40.2 -6.1,27 c -1.11,4.91 1.97,9.79 6.88,10.9 0.676,0.152 8.59,1.86 10.9,-6.88 l 10.2,-45.4 32.9,-21.5 -6.1,27 c -1.11,4.91 1.97,9.79 6.88,10.9 0.676,0.152 9.26,1.24 10.9,-6.88 l 10.2,-45.4 49.3,-32.3 c 4.21,-2.76 5.39,-8.41 2.63,-12.6 z" /></g><path
               id="path3439"
               fill="#c70024"
               d="m 317,161 c 0,0 3.57,-29.4 -25,-24.2 -2.65,0.482 -5.35,-0.498 -7.14,-2.52 -6.15,-6.94 -21.9,-19.3 -39.1,10.4 -0.81,0.22 37.8,28.6 37.8,28.6 z" /><g
               id="g3445"
               fill="#d80027"
               transform="matrix(0.336,0,0,0.336,-463,-552)"><path
                 id="path3441"
                 d="m 1952,2124 c 0,0 -10.6,-87.6 74.6,-72.1 7.9,1.44 15.9,-1.48 21.3,-7.5 18.3,-20.7 65.3,-57.4 116,30.8 2.41,0.654 -113,85.1 -113,85.1 z" /><path
                 id="path3443"
                 d="m 2235,2123 c 0,0 53.8,-26.7 113,-5.54 9.34,3.34 13.5,14.2 8.87,22.9 -12.5,23.3 -33.6,71.1 -32.3,126 1.93,77.7 -101,155 -204,70.5 1.92,-2.78 114,-214 114,-214 z" /></g><path
               id="path3447"
               fill="#c70024"
               d="m 297,157 c -0.658,7.01 -0.563,17.2 3.99,24.7 7.6,12.4 16.8,48.2 -16.2,62.5 -10.9,1.41 -23.4,-1.76 -35.9,-12.1 0.644,-0.933 38.4,-71.9 38.4,-71.9 0,0 3.76,-1.87 9.74,-3.23 z" /><path
               id="path3449"
               fill="#ff0c38"
               d="m 222,160 c 0,0 -18.1,-8.98 -38,-1.86 -3.14,1.12 -4.55,4.76 -2.98,7.7 4.18,7.83 11.3,23.9 10.8,42.4 -0.649,26.1 33.8,52.2 68.5,23.7 -0.643,-0.934 -38.4,-71.9 -38.4,-71.9 z" /><path
               id="path3451"
               fill="#d80027"
               d="m 212,157 c 0.658,7.01 0.563,17.2 -3.99,24.7 -7.6,12.4 -16.8,48.2 16.2,62.5 10.9,1.41 23.4,-1.76 35.9,-12.1 -0.644,-0.933 -38.4,-71.9 -38.4,-71.9 0,0 -3.76,-1.87 -9.74,-3.23 z" /><path
               id="path3453"
               fill="#ff0c38"
               d="m 288,148 c 0,0 -21.5,-27.3 -49.2,18.6 0.211,0.156 19.1,15.2 19.1,15.2 z" /><path
               id="path3455"
               fill="#d80027"
               d="m 239,167 c 1.18,0.931 19.1,15.2 19.1,15.2 l 30.1,-33.8 c 0,0 -0.988,-1.25 -2.81,-2.77 h -10e-4 c 0,0 -23.6,-5.79 -46.3,21.5 z" /><path
               id="path3457"
               fill="#ff3f62"
               d="m 221,148 c 0,0 21.5,-27.3 49.2,18.6 -0.211,0.156 -19.1,15.2 -19.1,15.2 z" /><path
               id="path3459"
               fill="#ff0c38"
               d="m 223,151 27.6,31 c 0,0 18.9,-15.1 19.1,-15.2 -1.77,-2.94 -3.52,-5.58 -5.23,-7.95 -2.77,-2.7 -16.7,-14.6 -41.5,-7.87 z" /><path
               id="path3461"
               fill="#ff3f62"
               d="m 292,187 c -5.39,-9.52 -2.88,-24.2 -2.88,-24.2 l -6.56,-7.05 -28.3,26.7 -28.3,-26.7 -6.56,7.05 c 0,0 2.51,14.7 -2.88,24.2 -6.18,10.9 -10.4,45.9 37.8,45.9 48.2,0 44,-35 37.8,-45.9 z" /><path
               id="path3463"
               fill="#ff0c38"
               d="m 265,173 -10.3,9.68 -28.3,-26.7 -6.56,7.05 c 0,0 2.51,14.7 -2.88,24.2 -6.18,10.9 -10.4,45.9 37.8,45.9 11.9,0 20.6,-2.14 26.9,-5.52 -2.28,-25.1 -8.76,-42.5 -16.6,-54.6 z" /><path
               id="path3465"
               fill="#ff728b"
               d="m 293,143 c -23.9,6.08 -36.3,25.5 -42.1,39 l 7.67,10.4 c 7.84,-2.91 14.3,-6.81 19.5,-11.2 2.99,-2.49 4.46,-6.37 3.93,-10.2 l -0.982,-7.11 4.7,-3.4e-4 c 4.44,-3.4e-4 8.5,-2.59 10.3,-6.64 1.31,-2.91 2.28,-5.61 3,-7.91 1.17,-3.75 -2.23,-7.37 -6.04,-6.4 z" /><path
               id="path3467"
               fill="#ff3f62"
               d="m 260,166 c -3.99,5.48 -6.92,11.1 -9.01,15.9 l 7.67,10.4 c 4.94,-1.83 9.32,-4.07 13.2,-6.56 -3.48,-8.11 -7.57,-14.6 -11.9,-19.8 z" /><path
               id="path3469"
               fill="#ff728b"
               d="m 264,196 -7.34,-14.8 -1.66,1.57 -28.3,-26.7 -6.56,7.05 c 0,0 2.51,14.7 -2.88,24.2 -6.18,10.9 -10.4,45.9 37.8,45.9 4.49,0 8.53,-0.305 12.2,-0.866 1.33,-17.9 -3.15,-36.4 -3.15,-36.4 z" /><path
               id="path3471"
               fill="#ff3f62"
               d="m 245,232 c -9.51,-9.28 -14.5,-25.3 -10.3,-43 2.09,-8.7 1.94,-17.3 0.724,-24.9 l -9.25,-8.72 -6.56,7.05 c 0,0 2.51,14.7 -2.88,24.2 -5.74,10.1 -9.8,41 28.2,45.4 z" /><path
               id="path3473"
               fill="#ffa5b5"
               d="m 211,149 c 0.717,2.31 1.69,5 3,7.91 1.82,4.06 5.88,6.64 10.3,6.64 l 4.7,3.3e-4 -0.982,7.11 c -0.532,3.86 0.937,7.73 3.93,10.2 7.75,6.46 18.1,11.9 31.8,14.6 0,0 -8.69,-43.3 -46.7,-52.9 -3.81,-0.967 -7.2,2.65 -6.04,6.4 z" /></g><g
             id="g3483"
             stroke-width="24.7"
             stroke-opacity="null"
             stroke="null"
             fill="#ffffff"><circle
               id="circle3477"
               r="481"
               cy="-12113"
               cx="-3547"
               transform="scale(1,-1)" /><circle
               id="circle3479"
               r="210"
               cy="-10977"
               cx="-2461"
               transform="scale(1,-1)" /><circle
               id="circle3481"
               r="160"
               cy="-10000"
               cx="-1548"
               transform="scale(1,-1)" /></g></g><g
           id="g3537"
           style="clip-rule:evenodd;fill-rule:evenodd;image-rendering:optimizeQuality;shape-rendering:geometricPrecision;text-rendering:geometricPrecision"
           transform="matrix(1.46,0,0,-1.29,2615,20772.152)"><g
             id="g3495"><title
               id="title3487">background</title><rect
               id="rect3489"
               fill="none"
               height="514"
               width="514"
               y="-1"
               x="-1" /><g
               id="g3493"
               overflow="visible"
               display="none"
               height="100%"
               width="100%"
               y="0"
               x="0"><rect
                 y="0"
                 x="0"
                 id="rect3491"
                 stroke-width="0"
                 fill="url(#gridpattern)"
                 height="100%"
                 width="100%" /></g></g><g
             id="g3535"><title
               id="title3497">Layer 1</title><g
               id="g3533"
               stroke="null"><path
                 id="path3499"
                 fill="#ebebeb"
                 d="M 401,511 H 112 l -6.4,-8.01 a 291,291 0 0 1 -55,-252 l 37.3,-149 h 337 l 37.3,149 a 291,291 0 0 1 -55,252 z" /><g
                 id="g3505"
                 fill="#e4e4e2"
                 transform="matrix(1.51,0,0,1.51,-2629,-3429)"><path
                   id="path3501"
                   d="m 2054,2444 -24.8,-99.2 h -207 l -24.8,99.2 a 193,193 0 0 0 36.5,167 l 4.25,5.32 h 175 l 4.25,-5.32 a 193,193 0 0 0 36.5,-167 z" /><path
                   id="path3503"
                   d="m 2054,2444 -24.8,-99.2 h -207 l -24.8,99.2 a 193,193 0 0 0 36.5,167 l 4.25,5.32 h 175 l 4.25,-5.32 a 193,193 0 0 0 36.5,-167 z" /></g><path
                 id="path3507"
                 fill="#d2d2d1"
                 d="m 69.5,174 h 373 l -9.03,-36.1 h -355 z" /><rect
                 id="rect3509"
                 fill="#ce9c77"
                 rx="16"
                 height="64"
                 width="256"
                 y="2281"
                 x="1789"
                 transform="matrix(1.51,0,0,1.51,-2629,-3429)" /><g
                 id="g3517"
                 fill="#be906e"><path
                   id="path3511"
                   d="m 509,174 c -31.6,0 -31.6,24.1 -63.3,24.1 -31.7,0 -31.6,-48.2 -63.2,-48.2 -31.6,0 -31.6,48.2 -63.2,48.2 -31.6,0 -31.6,-48.2 -63.2,-48.2 -31.6,0 -31.6,48.2 -63.2,48.2 -31.6,0 -31.6,-48.2 -63.2,-48.2 -31.6,0 -31.6,48.2 -63.2,48.2 C 34.9,198.1 34.9,174 3.3,174 v -0.0662 a 50.5,50.5 0 0 1 34.1,-47.8 l 47.2,-24.4 h 343 l 47.1,24.4 a 50.5,50.5 0 0 1 34.1,47.8 z" /><path
                   id="path3513"
                   d="m 401,65.2 h -48.2 a 12.05,12.05 0 0 1 0,-24.1 H 401 a 12.05,12.05 0 0 1 -10e-6,24.1 z" /><path
                   id="path3515"
                   d="m 304,65.2 h -12 a 12.05,12.05 0 0 1 0,-24.1 h 12 a 12.05,12.05 0 0 1 0,24.1 z" /></g><path
                 id="path3519"
                 fill="#b28768"
                 d="m 473,125 v -0.686 l -45.2,-23.4 h -343 l -46.5,24.1 z" /><path
                 id="path3521"
                 fill="#ffc45b"
                 d="m 462,251 -1.2,-4.84 H 51.8 L 50.6,251 a 291,291 0 0 0 55,252 l 6.4,8.01 h 289 l 6.4,-8.01 a 291,291 0 0 0 55,-252 z" /><path
                 id="path3523"
                 fill="#fdb62f"
                 d="m 462,251 -1.2,-4.84 H 77.8 L 76.6,251 a 291,291 0 0 0 55,252 l 6.4,8.01 h 263 l 6.4,-8.01 a 291,291 0 0 0 55,-252 z" /><path
                 id="path3525"
                 fill="#d38e14"
                 d="m 190,381 v 38.1 l 33,19 33,-19 V 381 l 48.2,-3.06 -12,-12 -36.1,-48.2 v 12 l -24.1,24.1 -8.89,8.1 z" /><path
                 id="path3527"
                 fill="#ffc45b"
                 d="m 118,425 a 12.1,12.1 0 0 1 -11,-7.23 l -5.84,-13.4 a 223,223 0 0 1 -16.1,-123 12.038372,12.038372 0 1 1 23.8,3.64 199,199 0 0 0 14.4,110 l 5.85,13.4 a 12.1,12.1 0 0 1 -11,16.9 z" /><path
                 id="path3529"
                 fill="#dc9315"
                 d="m 223,324 v 38.1 l 33,19 33,-19 V 324 l -33,-19 z" /><path
                 id="path3531"
                 fill="#ec9e15"
                 d="m 256,381 v 38.1 l 33,19 33,-19 V 381 l -33,-19 z" /></g></g></g><polygon
           id="polygon3561"
           style="clip-rule:evenodd;fill:#7e3a1a;image-rendering:optimizeQuality;shape-rendering:geometricPrecision"
           points="13870,4157 13870,4902 15813,4902 15813,4157 "
           transform="matrix(1.22,0,0,-0.985,-15989,24143.152)"
           class="fil77" /><polygon
           id="polygon3563"
           style="clip-rule:evenodd;fill:#d38048;image-rendering:optimizeQuality;shape-rendering:geometricPrecision"
           points="15388,4123 15388,4847 15570,4847 15570,4123 "
           transform="matrix(1.22,0,0,-0.985,-15989,24143.152)"
           class="fil85" /><polygon
           id="polygon3565"
           style="clip-rule:evenodd;fill:#d38048;image-rendering:optimizeQuality;shape-rendering:geometricPrecision"
           points="13779,4123 13779,4847 13961,4847 13961,4123 "
           transform="matrix(1.22,0,0,-0.985,-15989,24143.152)"
           class="fil85" /><path
           id="path3567"
           style="clip-rule:evenodd;fill:#ffbc80;stroke-width:1.1;image-rendering:optimizeQuality;shape-rendering:geometricPrecision"
           d="m 2734,19834.152 c 0,-20.7 -20.7,-37.4 -46.3,-37.4 -25.6,0 -46.3,16.7 -46.3,37.4 l -1879,9.85 v -135 l 17.1,-40.4 -17.1,-30.5 v -145 l 1636,16.7 613,-4.92 v 329 l -278,0.986 z"
           class="fil86" /><polygon
           id="polygon3569"
           style="clip-rule:evenodd;fill:#ffbc80;image-rendering:optimizeQuality;shape-rendering:geometricPrecision"
           points="13745,3975 13745,4062 13769,4097 13745,4138 13745,4332 15087,4316 15086,4295 15284,4313 15591,4309 15591,3975 "
           transform="matrix(1.2414825,0,0,-0.985,-16323.934,24143.152)"
           class="fil86" /><path
           id="path3571"
           style="clip-rule:evenodd;fill:#ffb675;stroke-width:1.1;image-rendering:optimizeQuality;shape-rendering:geometricPrecision"
           d="m 762,19989.152 c 0,0 291,49.2 420,25.6 130,-23.6 272,-59.1 561,-36.4 289,22.7 441,129 685,140 244,10.8 583,-56.1 583,-56.1 v -164 c 0,0 -229,18.7 -362,47.3 -133,28.6 -274,83.7 -423,30.5 -150,-53.2 -216,-75.8 -322,-57.1 -107,18.7 -124,33.5 -249,21.7 -124,-11.8 -478,-61.1 -478,-61.1 l -414,-3.94 v 113 z"
           class="fil87" /><path
           id="path3573"
           style="clip-rule:evenodd;fill:#ffbc80;stroke-width:1.1;image-rendering:optimizeQuality;shape-rendering:geometricPrecision"
           d="m 2433,19469.152 -162,-11.8 -124,11.8 h -508 c 0,-23.6 -29.2,-43.3 -65.8,-43.3 -35.3,0 -64.6,19.7 -64.6,43.3 h -745 v -175 l 127,-50.2 -127,-24.6 v -68 l 2249,19.7 v 297 h -579 z"
           class="fil86" /><path
           id="path3575"
           style="clip-rule:evenodd;fill:#e59351;stroke-width:1.1;image-rendering:optimizeQuality;shape-rendering:geometricPrecision"
           d="m 804,20060.152 c 0,0 952,5.91 1172,0 221,-5.91 397,-7.88 397,-7.88 0,0 -1261,-41.4 -1570,7.88 z"
           class="fil88" /><polygon
           id="polygon3577"
           style="clip-rule:evenodd;fill:#e59351;image-rendering:optimizeQuality;shape-rendering:geometricPrecision"
           points="15284,4313 15084,4273 15086,4295 "
           transform="matrix(1.22,0,0,-0.985,-15989,24143.152)"
           class="fil88" /><polygon
           id="polygon3579"
           style="clip-rule:evenodd;fill:#e59351;image-rendering:optimizeQuality;shape-rendering:geometricPrecision"
           points="15591,4053 15512,4061 15591,4076 "
           transform="matrix(1.22,0,0,-0.985,-15989,24143.152)"
           class="fil88" /><path
           id="path3581"
           style="clip-rule:evenodd;fill:#e59351;stroke-width:1.1;image-rendering:optimizeQuality;shape-rendering:geometricPrecision"
           d="m 1975,20060.152 c 0,0 484,12.8 698,9.85 214,-2.95 339,-9.85 339,-9.85 v -29.6 z"
           class="fil88" /><polygon
           id="polygon3583"
           style="clip-rule:evenodd;fill:#e59351;image-rendering:optimizeQuality;shape-rendering:geometricPrecision"
           points="13759,4543 14423,4550 13747,4507 "
           transform="matrix(1.22,0,0,-0.985,-15989,24143.152)"
           class="fil88" /><path
           id="path3585"
           style="clip-rule:evenodd;fill:#ffb675;stroke-width:1.1;image-rendering:optimizeQuality;shape-rendering:geometricPrecision"
           d="m 762,19611.152 c 0,0 149,16.7 373,0 224,-16.7 328,-36.4 429,-25.6 101,10.8 208,83.7 262,82.7 53.6,-0.986 425,-68.9 623,-48.3 197,19.7 0,80.8 101,113 101,33.5 274,-8.86 321,-51.2 46.3,-42.4 141,-99.5 141,-99.5 v -78.8 l -2249,-10.8 v 119 z"
           class="fil87" /><path
           id="path3587"
           style="clip-rule:evenodd;fill:#e59351;stroke-width:1.1;image-rendering:optimizeQuality;shape-rendering:geometricPrecision"
           d="m 1930,19357.152 c 0,0 -99.9,17.7 -130,-4.92 -30.5,-22.7 154,-51.2 186,-28.6 32.9,22.7 -56.1,33.5 -56.1,33.5 z"
           class="fil88" /><path
           id="path3589"
           style="clip-rule:evenodd;fill:#e59351;stroke-width:1.1;image-rendering:optimizeQuality;shape-rendering:geometricPrecision"
           d="m 1674,20060.152 c -6.09,2.96 -13.4,3.94 -21.9,5.91 -24.4,2.95 -90.2,10.8 -64.6,-6.9 30.5,-20.7 128,-15.8 85.3,1.97 z"
           class="fil88" /><polygon
           id="polygon3591"
           style="clip-rule:evenodd;fill:#ffb675;image-rendering:optimizeQuality;shape-rendering:geometricPrecision"
           points="13745,5068 13745,5000 15591,4947 15591,5047 "
           transform="matrix(1.22,0,0,-0.985,-15989,24143.152)"
           class="fil87" /><polygon
           id="polygon3593"
           style="clip-rule:evenodd;fill:#ae4c0a;image-rendering:optimizeQuality;shape-rendering:geometricPrecision"
           points="15824,4772 15801,4778 15801,4068 15824,4062 "
           transform="matrix(1.22,0,0,-1.1309486,-15989,24735.995)"
           class="fil89" /><polygon
           id="polygon3595"
           style="clip-rule:evenodd;fill:#ae4c0a;image-rendering:optimizeQuality;shape-rendering:geometricPrecision"
           points="15618,4113 15618,4823 15595,4829 15595,4119 "
           transform="matrix(1.22,0,0,-0.985,-15989,24143.152)"
           class="fil89" /><path
           id="path3597"
           style="clip-rule:evenodd;fill:#e2934c;stroke-width:1.1;image-rendering:optimizeQuality;shape-rendering:geometricPrecision"
           d="m 3264,19892.152 c 0,-19.7 -2.44,-37.4 -6.09,-37.4 -3.66,-0.985 -6.09,14.8 -6.09,35.5 l -241,-57.1 v -326 l 210,58.1 78,10.8 v 322 l -35.3,-5.91 z"
           class="fil90" /><polygon
           id="polygon3599"
           style="clip-rule:evenodd;fill:#e2934c;image-rendering:optimizeQuality;shape-rendering:geometricPrecision"
           points="15763,4267 15762,4247 15788,4258 15827,4245 15827,3917 15591,3975 15591,4310 "
           transform="matrix(1.22,0,0,-0.985,-15989,24143.152)"
           class="fil90" /><path
           id="path3601"
           style="clip-rule:evenodd;fill:#e28c3f;stroke-width:1.1;image-rendering:optimizeQuality;shape-rendering:geometricPrecision"
           d="m 3012,19994.152 c 0,0 37.8,56.1 53.6,36.4 17.1,-19.7 35.3,-51.2 71.9,-21.7 36.6,29.5 56.1,138 87.7,155 31.7,16.7 74.3,-39.4 74.3,-39.4 v -162 c 0,0 -29.2,12.8 -46.3,37.4 -17.1,24.6 -35.3,75.8 -54.8,19.7 -19.5,-56.1 -28,-79.8 -41.4,-64 -13.4,15.8 -15.8,29.6 -31.7,14.8 -15.8,-14.8 -115,-70.9 -115,-70.9 v 96.5 z"
           class="fil91" /><path
           id="path3603"
           style="clip-rule:evenodd;fill:#e2934c;stroke-width:1.1;image-rendering:optimizeQuality;shape-rendering:geometricPrecision"
           d="m 3225,19526.152 -20.7,-15.8 -15.8,7.88 -64.6,-12.8 c 0,-23.6 -3.66,-43.3 -8.53,-44.3 -4.88,-0.985 -8.53,17.7 -8.53,41.4 l -95.1,-33.5 v -296 l 210,56.1 30.5,7.88 47.5,12.8 v 292 z"
           class="fil90" /><polygon
           id="polygon3605"
           style="clip-rule:evenodd;fill:#c36315;image-rendering:optimizeQuality;shape-rendering:geometricPrecision"
           points="15788,4258 15762,4225 15762,4247 "
           transform="matrix(1.22,0,0,-0.985,-15989,24143.152)"
           class="fil92" /><path
           id="path3607"
           style="clip-rule:evenodd;fill:#e28c3f;stroke-width:1.1;image-rendering:optimizeQuality;shape-rendering:geometricPrecision"
           d="m 3012,19624.152 c 0,0 19.5,19.7 47.5,9.85 29.2,-10.8 41.4,-27.6 54.8,-14.8 13.4,12.8 26.8,87.7 34.1,87.7 7.31,0 54.8,-56.1 79.2,-31.5 25.6,24.6 0,78.8 13.4,114 13.4,35.5 35.3,-1.97 41.4,-42.4 6.09,-40.4 18.3,-94.6 18.3,-94.6 v -76.8 l -289,-70.9 v 120 z"
           class="fil91" /><path
           id="path3609"
           style="clip-rule:evenodd;fill:#c36315;stroke-width:1.1;image-rendering:optimizeQuality;shape-rendering:geometricPrecision"
           d="m 3161,19403.152 c 0,0 -13.4,14.8 -17.1,-8.87 -3.66,-22.7 19.5,-46.3 24.4,-22.7 3.66,22.7 -7.31,31.5 -7.31,31.5 z"
           class="fil92" /><path
           id="path3611"
           style="clip-rule:evenodd;fill:#c36315;stroke-width:1.1;image-rendering:optimizeQuality;shape-rendering:geometricPrecision"
           d="m 3128,20060.152 c -1.22,1.97 -1.22,3.94 -2.44,4.92 -3.66,2.95 -12.2,7.88 -8.53,-8.86 3.66,-18.7 17.1,-11.8 11,3.94 z"
           class="fil92" /><polygon
           id="polygon3613"
           style="clip-rule:evenodd;fill:#e28c3f;image-rendering:optimizeQuality;shape-rendering:geometricPrecision"
           points="15591,5047 15591,4978 15827,4870 15827,4968 "
           transform="matrix(1.22,0,0,-0.985,-15989,24143.152)"
           class="fil91" /><polygon
           id="polygon3615"
           style="clip-rule:evenodd;fill:#9a4121;image-rendering:optimizeQuality;shape-rendering:geometricPrecision"
           points="14314,4227 14314,4818 15087,4818 15087,4227 "
           transform="matrix(1.22,0,0,-0.985,-15989,24143.152)"
           class="fil55" /><polygon
           id="polygon3617"
           style="clip-rule:evenodd;fill:#e59351;image-rendering:optimizeQuality;shape-rendering:geometricPrecision"
           points="14347,4220 14248,4220 14248,4798 14355,4798 "
           transform="matrix(1.22,0,0,-0.985,-15989,24143.152)"
           class="fil88" /><polygon
           id="polygon3619"
           style="clip-rule:evenodd;fill:#e59351;image-rendering:optimizeQuality;shape-rendering:geometricPrecision"
           points="14236,4167 15184,4157 15184,4180 15160,4195 15184,4217 15184,4254 14236,4254 "
           transform="matrix(1.22,0,0,-0.985,-15989,24143.152)"
           class="fil88" /><polygon
           id="polygon3621"
           style="clip-rule:evenodd;fill:#e59351;image-rendering:optimizeQuality;shape-rendering:geometricPrecision"
           points="15153,4187 15163,4896 15140,4896 15123,4889 15103,4896 15066,4896 15066,4187 "
           transform="matrix(1.22,0,0,-0.985,-15989,24143.152)"
           class="fil88" /><polygon
           id="polygon3623"
           style="clip-rule:evenodd;fill:#7e3a1a;image-rendering:optimizeQuality;shape-rendering:geometricPrecision;fill-opacity:1"
           points="15066,4254 15066,4272 15154,4273 15154,4254 "
           transform="matrix(1.22,0,0,-0.985,-15989,24143.152)"
           class="fil55" /><polygon
           id="polygon3625"
           style="clip-rule:evenodd;fill:#a55f30;image-rendering:optimizeQuality;shape-rendering:geometricPrecision"
           points="15184,4180 14799,4191 15160,4195 "
           transform="matrix(1.22,0,0,-0.985,-15989,24143.152)"
           class="fil93" /><polygon
           id="polygon3627"
           style="clip-rule:evenodd;fill:#a55f30;image-rendering:optimizeQuality;shape-rendering:geometricPrecision"
           points="14236,4211 14323,4217 14236,4227 "
           transform="matrix(1.22,0,0,-0.985,-15989,24143.152)"
           class="fil93" /><polygon
           id="polygon3629"
           style="clip-rule:evenodd;fill:#7e3a1a;image-rendering:optimizeQuality;shape-rendering:geometricPrecision;fill-opacity:1"
           points="14248,4254 14248,4269 14347,4269 14347,4254 "
           transform="matrix(1.22,0,0,-0.985,-15989,24143.152)"
           class="fil55" /><polygon
           id="polygon3631"
           style="clip-rule:evenodd;fill:#e59351;image-rendering:optimizeQuality;shape-rendering:geometricPrecision"
           points="15155,4789 14236,4778 14236,4801 14259,4816 14236,4839 14236,4875 15155,4875 "
           transform="matrix(1.22,0,0,-0.985,-15989,24143.152)"
           class="fil88" /><polygon
           id="polygon3633"
           style="clip-rule:evenodd;fill:#7e3a1a;image-rendering:optimizeQuality;shape-rendering:geometricPrecision;fill-opacity:1"
           points="15155,4875 15066,4884 15066,4875 "
           transform="matrix(1.22,0,0,-0.985,-15989,24143.152)"
           class="fil55" /><polygon
           id="polygon3635"
           style="clip-rule:evenodd;fill:#a55f30;image-rendering:optimizeQuality;shape-rendering:geometricPrecision"
           points="14259,4816 14502,4818 14236,4801 "
           transform="matrix(1.22,0,0,-0.985,-15989,24143.152)"
           class="fil93" /><path
           id="path3637"
           style="clip-rule:evenodd;fill:#d88145;stroke-width:1.1;image-rendering:optimizeQuality;shape-rendering:geometricPrecision"
           d="m 2481,19426.152 c 0,0 -133,-28.6 -188,-37.4 -56.1,-8.86 -130,15.8 -255,0 -124,-15.8 -258,-48.3 -258,-48.3 h 701 z"
           class="fil94" /><path
           id="path3639"
           style="clip-rule:evenodd;fill:#a55f30;stroke-width:1.1;image-rendering:optimizeQuality;shape-rendering:geometricPrecision"
           d="m 2432,19895.152 v -437 l 7.31,73.9 c 0,0 15.8,330 -7.31,362 z"
           class="fil93" /><path
           id="path3641"
           style="clip-rule:evenodd;fill:#a55f30;stroke-width:1.1;image-rendering:optimizeQuality;shape-rendering:geometricPrecision"
           d="m 1396,19908.152 v -463 c 0,0 24.4,385 0,463 z"
           class="fil93" /><path
           id="path3643"
           style="clip-rule:evenodd;fill:#a55f30;stroke-width:1.1;image-rendering:optimizeQuality;shape-rendering:geometricPrecision"
           d="m 1418,19845.152 v -326 c 0,0 24.4,271 0,326 z"
           class="fil93" /><path
           id="path3645"
           style="clip-rule:evenodd;fill:#f4e8d7;fill-rule:evenodd;image-rendering:optimizeQuality;shape-rendering:geometricPrecision"
           d="m 1984,19842.152 c -16.8,19.7 90,85.4 126,85.9 36.3,0.587 119,-276 26.4,-295 -39.7,-8.16 -253,-21.8 -413,2.27 -33.5,5.03 -35.1,85.7 -14.6,117 27.5,41.4 90.3,29.1 133,13.6 94.8,-34.6 157,-62 182,-23.3 19.8,30.2 -23.3,80.1 -40.1,99.8 z" /><ellipse
           id="ellipse3647"
           style="clip-rule:evenodd;fill:#f4e8d7;fill-rule:evenodd;image-rendering:optimizeQuality;shape-rendering:geometricPrecision"
           ry="69"
           rx="71.199997"
           cy="-19519.148"
           cx="1972"
           transform="scale(1,-1)" /></g></g></g></svg>
