<svg width="128" height="128" enable-background="new 0 0 512 512" version="1.1" viewBox="0 0 128 128" xmlns="http://www.w3.org/2000/svg"><g transform="translate(-.327 -.273)"><rect x="37.6" y="29.1" width="90.4" height="72.5" style="fill:#a67e4f;stroke-width:.258"/><polygon transform="matrix(.258 0 0 .258 32.2 .361)" points="196 0 327 0 372 112 196 112 21.2 112 66 0" style="fill:#d9ac80"/><polygon transform="matrix(.258 0 0 .258 32.2 .361)" points="170 112 179 0 214 0 223 112" style="fill:#f2d3ba"/><g transform="matrix(.258 0 0 .258 32.2 .361)"><polygon points="170 156 182 148 196 136 211 148 223 156 223 112 170 112" style="fill:#d7baa4"/></g></g><g transform="matrix(.145 0 0 .145 .208 61.9)"><circle cx="228" cy="228" r="228" style="fill:#e24c4b"/><path d="m455 228c0 125-102 228-228 228-72.5 0-137-32.7-178-85.3 38.4 31.3 88.2 49.8 142 49.8 125 0 228-102 228-228 0-54-18.5-104-49.8-142 52.6 41.2 85.3 105 85.3 178z" style="fill:#d1403f"/><path d="m331 331c-8.53 8.53-22.8 8.53-31.3 0l-72.5-72.5-72.5 72.5c-8.53 8.53-22.8 8.53-31.3 0s-8.53-22.8 0-31.3l72.5-72.5-72.5-72.5c-8.53-8.53-8.53-22.8 0-31.3s22.8-8.53 31.3 0l72.5 72.5 72.5-72.5c8.53-8.53 22.8-8.53 31.3 0s8.53 22.8 0 31.3l-72.5 72.5 72.5 72.5c8.53 8.53 8.53 22.8 0 31.3z" style="fill:#fff"/></g></svg>
