<?xml version="1.0" encoding="UTF-8" standalone="no"?>
<svg
   xmlns:dc="http://purl.org/dc/elements/1.1/"
   xmlns:cc="http://creativecommons.org/ns#"
   xmlns:rdf="http://www.w3.org/1999/02/22-rdf-syntax-ns#"
   xmlns:svg="http://www.w3.org/2000/svg"
   xmlns="http://www.w3.org/2000/svg"
   xmlns:sodipodi="http://sodipodi.sourceforge.net/DTD/sodipodi-0.dtd"
   xmlns:inkscape="http://www.inkscape.org/namespaces/inkscape"
   inkscape:version="1.0 (4035a4f, 2020-05-01)"
   sodipodi:docname="nonreturnable.svg"
   id="svg859"
   viewBox="0 0 128 128"
   version="1.1"
   enable-background="new 0 0 512 512"
   height="128"
   width="128">
  <metadata
     id="metadata863">
    <rdf:RDF>
      <cc:Work
         rdf:about="">
        <dc:format>image/svg+xml</dc:format>
        <dc:type
           rdf:resource="http://purl.org/dc/dcmitype/StillImage" />
        <dc:title></dc:title>
      </cc:Work>
    </rdf:RDF>
  </metadata>
  <sodipodi:namedview
     inkscape:current-layer="svg859"
     inkscape:window-maximized="0"
     inkscape:window-y="0"
     inkscape:window-x="0"
     inkscape:cy="99.836342"
     inkscape:cx="95.773813"
     inkscape:zoom="1.3989937"
     inkscape:showpageshadow="false"
     showgrid="false"
     id="namedview861"
     inkscape:window-height="768"
     inkscape:window-width="1366"
     inkscape:pageshadow="2"
     inkscape:pageopacity="0"
     guidetolerance="10"
     gridtolerance="10"
     objecttolerance="10"
     borderopacity="1"
     bordercolor="#666666"
     pagecolor="#ffffff" />
  <defs
     id="defs836">
    <filter
       style="color-interpolation-filters:sRGB"
       height="1.0358"
       width="1.073"
       y="-0.017881"
       x="-0.036485001"
       id="filter21094">
      <feGaussianBlur
         id="feGaussianBlur833"
         stdDeviation="0.465385" />
    </filter>
    <clipPath
       id="clipPath1008">
      <path
         d="m -251,405 c 0,0 -4.98,46.7 -40.9,75.6 -15.2,12.2 -54.3,21.7 -54.3,21.7 v 36.5 l -72.2,-67.4 72.2,-65.6 v 40 c 0,0 23.1,2.36 44.3,-5.22 30.1,-10.7 50.9,-35.6 50.9,-35.6 z"
         style="fill:#ff0000;stroke:#000000;stroke-width:1px"
         id="path865" />
    </clipPath>
  </defs>
  <g
     transform="translate(-0.32700652,-0.27253154)"
     id="g905">
    <rect
       x="37.599998"
       y="29.1"
       width="90.400002"
       height="72.5"
       style="fill:#a67e4f;stroke-width:0.258"
       id="rect870" />
    <polygon
       transform="matrix(0.258,0,0,0.258,32.2,0.361)"
       points="196,0 327,0 372,112 196,112 21.2,112 66,0 "
       style="fill:#d9ac80"
       id="polygon872" />
    <polygon
       transform="matrix(0.258,0,0,0.258,32.2,0.361)"
       points="170,112 179,0 214,0 223,112 "
       style="fill:#f2d3ba"
       id="polygon874" />
    <g
       transform="matrix(0.258,0,0,0.258,32.2,0.361)"
       id="g878">
		<polygon
   points="170,156 182,148 196,136 211,148 223,156 223,112 170,112 "
   style="fill:#d7baa4"
   id="polygon876" />

		
	</g>
  </g>
  <g
     id="g857"
     transform="matrix(0.14521066,0,0,0.14521066,0.20818644,61.871903)">
    <circle
       id="circle851"
       style="fill:#e24c4b"
       r="227.56"
       cy="227.56"
       cx="227.56" />
    <path
       id="path853"
       style="fill:#d1403f"
       d="m 455.11,227.56 c 0,125.16 -102.4,227.56 -227.56,227.56 -72.533,0 -136.53,-32.711 -177.78,-85.333 38.4,31.289 88.178,49.778 142.22,49.778 125.16,0 227.56,-102.4 227.56,-227.56 0,-54.044 -18.489,-103.82 -49.778,-142.22 52.623,41.243 85.334,105.24 85.334,177.78 z" />
    <path
       id="path855"
       style="fill:#ffffff"
       d="m 331.38,331.38 c -8.533,8.533 -22.756,8.533 -31.289,0 l -72.533,-72.533 -72.533,72.533 c -8.533,8.533 -22.756,8.533 -31.289,0 -8.533,-8.533 -8.533,-22.756 0,-31.289 l 72.533,-72.533 -72.533,-72.533 c -8.533,-8.533 -8.533,-22.756 0,-31.289 8.533,-8.533 22.756,-8.533 31.289,0 l 72.533,72.533 72.533,-72.533 c 8.533,-8.533 22.756,-8.533 31.289,0 8.533,8.533 8.533,22.756 0,31.289 l -72.533,72.533 72.533,72.533 c 8.533,8.533 8.533,22.755 0,31.289 z" />
  </g>
</svg>
