<?xml version="1.0" encoding="UTF-8" standalone="no"?>
<svg
   xmlns:dc="http://purl.org/dc/elements/1.1/"
   xmlns:cc="http://creativecommons.org/ns#"
   xmlns:rdf="http://www.w3.org/1999/02/22-rdf-syntax-ns#"
   xmlns:svg="http://www.w3.org/2000/svg"
   xmlns="http://www.w3.org/2000/svg"
   xmlns:xlink="http://www.w3.org/1999/xlink"
   xmlns:sodipodi="http://sodipodi.sourceforge.net/DTD/sodipodi-0.dtd"
   xmlns:inkscape="http://www.inkscape.org/namespaces/inkscape"
   inkscape:version="1.0 (4035a4f, 2020-05-01)"
   sodipodi:docname="NotFound.svg"
   version="1.1"
   id="svg2"
   xml:space="preserve"
   width="512"
   height="200"
   viewBox="0 0 512 200"><sodipodi:namedview
     inkscape:current-layer="g12"
     inkscape:window-maximized="0"
     inkscape:window-y="0"
     inkscape:window-x="0"
     inkscape:cy="120.72363"
     inkscape:cx="275.86751"
     inkscape:zoom="2.1313136"
     showgrid="false"
     id="namedview512"
     inkscape:window-height="768"
     inkscape:window-width="1366"
     inkscape:pageshadow="2"
     inkscape:pageopacity="0"
     guidetolerance="10"
     gridtolerance="10"
     objecttolerance="10"
     borderopacity="1"
     bordercolor="#666666"
     pagecolor="#ffffff" /><metadata
     id="metadata8"><rdf:RDF><cc:Work
         rdf:about=""><dc:format>image/svg+xml</dc:format><dc:type
           rdf:resource="http://purl.org/dc/dcmitype/StillImage" /><dc:title></dc:title></cc:Work></rdf:RDF></metadata><defs
     id="defs6"><clipPath
       id="id25"
       style="clip-rule:nonzero"><path
         d="m 17094,7559 v 1390 h 2378 v 0 -1029 l 95,-56 v -858 c -751,-162 -1536,-280 -2348,-349 v 829 l -126,73 z"
         id="path910" /></clipPath><clipPath
       id="id28"
       style="clip-rule:nonzero"><path
         d="m 16600,7844 v 1105 h 34 479 V 7547 l -513,296 z"
         id="path919" /></clipPath><clipPath
       id="id41"
       style="clip-rule:nonzero"><path
         d="m 21020,9818 v 244 c 72,70 145,142 220,217 l 287,-166 v -588 l -507,292 z"
         id="path958" /></clipPath><clipPath
       id="id45"
       style="clip-rule:nonzero"><path
         d="m 21040,10081 v -275 l -177,102 c 57,56 116,113 177,173 z"
         id="path970" /></clipPath><clipPath
       id="id104"
       style="clip-rule:nonzero"><path
         d="m 20557,9596 c -4,0 -7,0 -11,-1 -26,-26 -50,-52 -74,-77 -5,-176 598,-658 759,-658 22,0 36,9 39,29 17,130 -279,274 -413,403 -107,103 -204,304 -300,304 z"
         id="path1147" /></clipPath></defs><g
     id="g10"
     transform="matrix(1.3333333,0,0,-1.3333333,0,666.66667)"><g
       id="g12"
       transform="matrix(0.04704319,0,0,0.04704319,19.703461,315.43269)"><path
         id="path24"
         style="fill:#d5fff6;fill-opacity:1;fill-rule:nonzero;stroke:none;stroke-width:1.5163"
         d="m 4469.2774,3182.2556 h 1599.6893 c 46.6568,134.7848 -135.679,206.2331 -241.669,168.3253 -22.3805,160.562 -89.083,306.7341 -258.7276,218.212 -47.3386,88.3856 -63.3662,174.8151 -157.3468,239.8951 -145.4142,100.698 -252.5564,20.0609 -355.6503,-80.1217 -66.4142,-64.5492 -84.1399,-17.8317 -178.9092,-30.7963 -159.1517,-21.774 -177.9994,-165.0652 -224.5955,-288.1287 -67.3697,5.3828 -112.4798,13.3283 -161.8507,-43.139 -37.5287,-42.9266 -58.8632,-131.3882 -20.9402,-184.2467" /><path
         id="path22"
         style="fill:#d5fff6;fill-opacity:1;fill-rule:nonzero;stroke:none;stroke-width:1.68258"
         d="M 795.86896,2931.6168 H 2826.2229 c 59.2268,171.0848 -172.1785,261.7591 -306.7176,213.6542 -28.4021,203.7774 -113.0695,389.3156 -328.3894,276.9528 -60.0682,112.1777 -80.4274,221.8651 -199.7056,304.4799 -184.5624,127.8089 -320.5317,25.4574 -451.4029,-101.712 -84.2973,-81.9081 -106.7934,-22.6139 -227.0812,-39.0695 -201.977,-27.628 -225.8865,-209.4982 -285.0461,-365.7091 -85.50872,6.8313 -142.76692,16.9268 -205.42634,-54.7511 -47.6507,-54.482 -74.7234,-166.7607 -26.5848,-233.8452" /><path
         d="m 6732.8692,958.20317 c 0,-116.12678 -1318.7194,-210.28463 -2945.4562,-210.28463 -1626.7367,0 -2945.46242,94.15785 -2945.46242,210.28463 0,116.13703 1318.72572,210.28663 2945.46242,210.28663 1626.7368,0 2945.4562,-94.1496 2945.4562,-210.28663"
         style="fill:#80c904;fill-opacity:1;fill-rule:nonzero;stroke:none;stroke-width:1.02314"
         id="path20" /><path
         sodipodi:nodetypes="ccssccsc"
         d="m 3932.5049,1092.045 c -67.3781,0 -131.4401,-3.0896 -189.5143,-8.6243 -51.1604,4.1139 -106.434,6.3773 -164.1097,6.3773 -262.7866,0 -475.8305,-46.723 -475.8305,-104.33367 0,-57.64362 210.4933,-112.00186 473.2799,-112.00186 129.1945,-1.78273 237.1863,-2.68806 356.1746,3.52224 276.815,16.57885 475.8305,53.10111 475.8305,110.71339 0,57.6404 -213.0438,104.3469 -475.8305,104.3469"
         style="fill:#338000;fill-opacity:1;fill-rule:nonzero;stroke:none;stroke-width:1.39139"
         id="path700" /><g
         transform="matrix(2.2301947,0,0,-1.8203248,-22038.894,24962.778)"
         id="kuze"><path
           id="kuz1"
           d="m 11179.01,12429.446 c 2.416,-10.763 6.095,-26.751 9.85,-40.167 3.755,-13.415 30.525,-80.559 33.247,-81.031 192.243,86.25 597.736,42.934 617.677,38.986 1.228,0.446 2.211,1.286 3.032,2.306 0.821,1.021 1.481,2.222 2.064,3.391 8.814,17.678 13.464,38.637 16.198,60.041 2.734,21.404 3.552,43.251 4.701,62.705 1.921,32.54 0.979,64.948 -1.518,97.268 -2.497,32.32 -6.55,64.552 -10.85,96.738 -12.141,90.879 -34.418,180.073 -65.867,265.925 -31.449,85.852 -72.07,168.362 -120.902,245.872 -0.946,1.502 -1.919,3.03 -3.032,4.416 -1.114,1.385 -2.369,2.628 -3.88,3.559 -1.753,1.08 -3.715,1.658 -5.753,1.975 -2.038,0.317 -4.152,0.373 -6.211,0.408 -37.937,0.65 -75.927,-0.277 -113.733,-3.284 -37.806,-3.007 -75.428,-8.091 -112.629,-15.758 -10.594,-2.194 -28.119,-6.526 -42.256,-14.147 -14.137,-7.621 -24.885,-18.532 -21.923,-33.883 0.473,-2.452 1.386,-4.806 2.224,-7.17 0.838,-2.364 1.601,-4.738 1.775,-7.229 0.362,-5.187 -1.765,-9.774 -4.986,-13.892 -3.22,-4.118 -7.534,-7.767 -11.543,-11.078 -21.622,-17.856 -39.564,-38.726 -55.07,-61.394 -15.506,-22.668 -28.576,-47.133 -40.456,-72.179 -30.668,-64.654 -55.964,-134.231 -71.891,-205.624 -15.927,-71.393 -22.482,-144.602 -15.669,-216.52 1.417,-14.956 3.364,-29.862 5.838,-44.68 2.474,-14.818 5.474,-29.548 8.997,-44.152 0.206,-0.855 0.536,-2.321 0.97,-4.265 0.434,-1.944 0.974,-4.368 1.596,-7.137 z"
           fill="#9a4121" /><path
           id="kuz2"
           d="m 11824.485,12755.615 c 9.765,-49.741 17.279,-99.862 22.7,-150.247 5.42,-50.385 8.75,-101.033 10.151,-151.828 0.614,-22.298 -1.56,-44.664 -6.378,-66.443 -4.82,-21.779 -1.21,-19.906 -11.174,-39.863 40.816,-4.222 111.893,-16.225 111.893,-16.225 3.114,-0.258 13.407,39.463 18.758,61.769 5.352,22.306 10.148,45.847 11.046,50.527 9.657,50.326 12.936,101.609 11.053,152.771 -1.882,51.161 -8.926,102.2 -19.917,152.042 -5.574,25.276 -12.188,50.32 -19.766,75.069 -7.58,24.75 -16.123,49.205 -25.559,73.304 -15.884,40.567 -34.418,83.734 -58.183,123.366 -23.766,39.632 -52.763,75.727 -89.575,102.15 -0.99,0.711 -2.003,1.435 -2.909,2.251 -0.906,0.816 -1.707,1.726 -2.269,2.806 -1.006,1.931 -1.106,4.057 -0.886,6.24 0.221,2.182 0.763,4.421 1.042,6.582 0.753,5.82 -0.579,11.603 -3.268,16.818 -2.688,5.215 -12.162,11.897 -16.837,15.443 -36.578,14.992 -61.441,20.253 -103.144,19.32 29.16,-52.757 64.413,-114.573 88.752,-166.055 19.889,-42.942 36.456,-87.208 50.325,-132.329 13.867,-45.124 25.041,-91.101 34.145,-137.468 z"
           fill="#7e3a1a" /></g><g
         transform="matrix(2.358473,0,0,-2.1432351,-23524.378,28886.59)"
         id="dar"><path
           fill="#fcb431"
           d="m 11833.706,12326.112 c -0.01,-0.04 -0.02,-0.09 -0.03,-0.13 -0.01,-0.04 -0.02,-0.09 -0.03,-0.13 -2.347,-10.237 -6.068,-25.125 -12.336,-37.95 -6.268,-12.825 -15.084,-23.588 -27.619,-25.574 -4.928,-0.78 -10.416,-0.519 -15.922,-0.02 -5.506,0.502 -11.032,1.244 -16.037,1.425 -10.652,0.583 -21.344,0.871 -32.038,1.04 -10.695,0.169 -21.393,0.219 -32.058,0.328 -69.209,0.703 -138.87,-1.79 -208.101,-8.573 -69.231,-6.783 -138.032,-17.858 -205.52,-34.318 -3.18,-0.776 -6.35,-1.489 -9.545,-1.937 -3.195,-0.448 -6.415,-0.629 -9.695,-0.341 -1.014,1.408 -1.912,2.954 -3.039,4.228 -1.127,1.274 -2.484,2.276 -4.418,2.597 -0.555,0.441 -1.109,0.883 -1.664,1.324 -0.555,0.441 -1.109,0.883 -1.664,1.324 -12.158,9.673 -25.731,17.229 -39.063,25.341 -13.332,8.112 -26.423,16.781 -37.615,28.68 -9.262,9.847 -16.165,20.997 -19.006,32.854 -2.841,11.857 -1.619,24.422 5.367,37.099 1.747,3.169 3.943,6.147 6.54,8.607 2.597,2.46 5.595,4.401 8.945,5.495 1.877,0.613 3.82,0.948 5.783,1.087 1.963,0.139 3.948,0.08 5.908,-0.09 10.532,-0.933 20.262,-5.004 29.368,-10.627 9.105,-5.624 17.586,-12.801 25.619,-19.948 1.967,-1.75 4.008,-3.546 6.2,-4.987 2.192,-1.441 4.534,-2.527 7.102,-2.858 4.881,-0.629 9.322,1.357 13.22,4.404 3.897,3.047 7.25,7.155 9.955,10.771 3.948,5.277 8.418,9.924 13.19,14.209 4.772,4.285 9.848,8.209 15.006,12.04 4.377,3.25 9.003,5.272 13.84,6.193 4.838,0.92 9.887,0.738 15.112,-0.422 4.98,-1.105 9.874,-2.457 14.658,-4.141 4.784,-1.685 9.456,-3.702 13.991,-6.138 4.701,-2.525 9.563,-4.553 14.533,-6.253 4.97,-1.7 10.048,-3.073 15.181,-4.287 6.451,-1.526 12.541,-1.506 18.299,-0.05 5.758,1.461 11.184,4.363 16.307,8.599 0.566,0.468 1.102,0.978 1.638,1.485 0.537,0.507 1.075,1.012 1.647,1.471 4.148,3.327 8.173,6.811 12.329,10.12 4.156,3.309 8.442,6.442 13.112,9.068 6.935,3.899 14.046,7.096 21.38,9.58 7.335,2.484 14.893,4.254 22.723,5.3 9.013,1.204 17.843,1.412 26.482,0.258 8.639,-1.154 17.086,-3.67 25.333,-7.914 5.873,-3.022 11.406,-6.586 16.826,-10.331 5.421,-3.745 10.728,-7.672 16.15,-11.42 2.104,-1.455 4.242,-2.871 6.414,-4.224 2.172,-1.353 4.38,-2.644 6.624,-3.847 3.13,-1.678 6.314,-2.823 9.616,-3.326 3.302,-0.503 6.721,-0.363 10.32,0.53 2.487,0.616 4.927,1.274 7.32,2.064 2.393,0.79 4.736,1.712 7.032,2.858 8.486,4.235 16.966,8.482 25.456,12.709 8.489,4.227 16.988,8.434 25.51,12.588 3.93,1.915 7.871,3.829 11.85,5.645 3.979,1.815 7.995,3.532 12.073,5.053 5.558,2.073 11.266,2.963 17.032,3.276 5.766,0.312 11.59,0.05 17.38,-0.193 10.764,-0.445 20.804,-2.718 30.061,-6.861 9.257,-4.143 17.73,-10.157 25.361,-18.083 3.065,-3.183 5.94,-6.563 8.789,-9.97 2.849,-3.408 5.673,-6.843 8.637,-10.138 2.069,-2.301 3.926,-4.895 6.076,-7.126 2.15,-2.231 4.595,-4.102 7.84,-4.957 0.258,-0.33 0.517,-0.66 0.775,-0.99 0.258,-0.33 0.516,-0.661 0.774,-0.992 0,-3.519 0.07,-6.912 -0.06,-10.292 -0.129,-3.382 -0.455,-6.749 -1.228,-10.217 z"
           id="dar1" /><path
           fill="#ffc431"
           d="m 11262.734,12220.392 c -65.945,-25.376 -44.253,-105.699 3.415,-119.999 8.115,-2.262 16.447,-3.412 24.857,-3.978 8.41,-0.566 16.896,-0.549 25.32,-0.478 41.756,0.352 83.48,1.825 125.202,3.414 41.722,1.589 83.441,3.295 125.185,4.113 20.812,0.408 41.633,0.604 62.45,0.455 20.817,-0.149 41.631,-0.644 62.428,-1.615 18.797,-0.878 38.915,-1.142 58.913,-2.185 19.998,-1.043 39.875,-2.864 58.188,-6.857 3.181,-0.694 8.642,-1.364 13.933,-1.204 5.291,0.16 10.411,1.151 12.91,3.78 1.682,1.769 2.898,3.872 3.858,6.12 0.96,2.248 1.663,4.642 2.322,6.993 2.957,10.554 5.55,21.262 7.372,32.071 1.822,10.809 2.871,21.72 2.741,32.68 -0.171,14.42 -2.705,28.533 -7.545,41.79 -4.84,13.257 -11.985,25.657 -21.377,36.652 -9.254,10.834 -21.335,13.847 -34.244,14.272 -12.909,0.424 -26.646,-1.74 -39.214,-1.261 -12.109,0.462 -24.222,0.815 -36.337,1.053 -12.115,0.238 -24.232,0.359 -36.35,0.356 -24.291,0 -48.582,-0.486 -72.854,-1.439 -24.272,-0.953 -48.526,-2.378 -72.743,-4.275 -25.627,-2.007 -51.213,-4.541 -76.736,-7.6 -25.523,-3.059 -50.983,-6.644 -76.358,-10.752 -18.854,-3.052 -38.35,-5.839 -57.801,-9.233 -19.452,-3.394 -38.859,-7.394 -57.535,-12.873 z m 74.594,-79.73 c 0.31,5.418 2.283,9.959 4.942,14.132 2.658,4.173 6.002,7.979 9.05,11.924 2.74,3.545 5.552,7.035 8.389,10.506 2.837,3.47 5.7,6.92 8.542,10.386 2.994,3.65 6.206,7.058 9.713,10.119 3.507,3.061 7.308,5.775 11.48,8.037 1.939,1.051 3.928,1.9 5.918,2.122 1.989,0.221 3.979,-0.185 5.918,-1.643 0.854,-2.223 1.027,-4.297 0.715,-6.242 -0.312,-1.946 -1.11,-3.763 -2.198,-5.475 -2.982,-4.69 -5.907,-9.43 -8.922,-14.104 -3.015,-4.674 -6.121,-9.281 -9.464,-13.707 -2.912,-3.856 -6.124,-7.484 -9.412,-11.057 -3.287,-3.572 -6.65,-7.089 -9.864,-10.72 -0.71,-0.802 -1.35,-1.665 -1.972,-2.545 -0.622,-0.88 -1.224,-1.776 -1.859,-2.645 -3.977,-5.438 -7.233,-8.104 -10.49,-7.963 -3.255,0.14 -6.511,3.087 -10.486,8.875 z m 9.11,57.443 c 0.928,-1.187 1.416,-2.539 1.527,-3.922 0.111,-1.383 -0.155,-2.796 -0.735,-4.103 -0.944,-2.129 -2.009,-4.214 -3.153,-6.257 -1.144,-2.043 -2.366,-4.046 -3.624,-6.012 -0.965,-1.508 -2.012,-2.981 -3.128,-4.399 -1.116,-1.418 -2.301,-2.783 -3.542,-4.073 -3.384,-3.52 -6.784,-7.028 -10.223,-10.496 -3.439,-3.468 -6.918,-6.895 -10.461,-10.254 -1.473,-1.396 -3.388,-1.632 -5.03,-1.029 -1.642,0.603 -3.012,2.047 -3.394,4.01 -0.586,3.013 -0.549,5.876 0.14,8.579 0.689,2.703 2.029,5.248 4.048,7.624 1.281,1.508 2.485,3.083 3.694,4.651 1.21,1.569 2.426,3.132 3.731,4.617 3.231,3.673 6.549,7.262 10.129,10.552 3.58,3.291 7.422,6.284 11.7,8.765 1.208,0.701 2.432,1.537 3.782,1.998 1.352,0.461 2.828,0.547 4.539,-0.251 z"
           id="dar2" /><path
           fill="#f0a02a"
           d="m 11800.944,12260.598 c 1.546,0.687 3.119,1.437 4.738,1.85 1.619,0.412 3.284,0.489 5.013,-0.17 2.375,-0.906 4.794,-1.22 7.23,-1.356 2.436,-0.136 4.886,-0.1 7.325,-0.294 4.125,-0.335 8.25,-0.718 12.366,-1.16 4.117,-0.443 8.226,-0.945 12.32,-1.52 6.137,-0.861 12.261,-1.805 18.382,-2.769 6.121,-0.965 12.239,-1.949 18.364,-2.892 9.053,-1.393 16.389,-2.775 23.508,-2.54 7.12,0.236 14.024,2.088 22.212,7.163 11.648,7.218 24.098,16.504 34.674,27.174 10.576,10.67 19.276,22.726 23.42,35.485 5.817,17.907 -1.37,31.186 -14.181,40.104 -12.81,8.919 -31.245,13.477 -47.925,13.945 -9.234,0.258 -18.471,-0.413 -27.591,-1.799 -9.119,-1.385 -18.12,-3.487 -26.883,-6.088 -8.469,-2.513 -16.495,-5.995 -24.527,-9.469 -8.033,-3.474 -16.071,-6.94 -24.562,-9.424 -0.292,-0.08 -0.588,-0.174 -0.867,-0.289 -0.279,-0.116 -0.54,-0.26 -0.759,-0.457 -0.45,-0.403 -0.644,-0.938 -0.704,-1.515 -0.06,-0.578 0.01,-1.198 0.09,-1.771 0.876,-6.216 0.68,-12.438 -0.324,-18.564 -1.004,-6.126 -2.815,-12.155 -5.168,-17.986 -1.031,-2.555 -2.125,-5.159 -3.306,-7.726 -1.181,-2.568 -2.45,-5.099 -3.832,-7.512 -1.465,-2.557 -3.393,-4.843 -5.286,-7.148 -1.893,-2.305 -3.748,-4.628 -5.069,-7.257 -0.288,-0.573 -0.547,-1.162 -0.831,-1.738 -0.284,-0.577 -0.591,-1.14 -0.976,-1.664 -0.641,-0.872 -1.476,-1.607 -2.294,-2.352 -0.817,-0.744 -1.618,-1.499 -2.19,-2.411 -1.089,-1.738 -0.784,-2.975 0.111,-3.978 0.895,-1.004 2.38,-1.774 3.654,-2.575 0.645,-0.217 1.29,-0.433 1.934,-0.65 0.645,-0.217 1.287,-0.43 1.932,-0.647 z"
           id="dar3" /><path
           fill="#fcb431"
           d="m 11958.309,12148.97 c 8.297,10.225 13.893,21.508 15.498,33.594 1.605,12.085 -0.783,24.971 -8.454,38.402 -7.459,13.058 -18.628,19.624 -31.149,23.862 -12.521,4.239 -26.395,6.149 -39.263,9.899 -2.862,0.834 -5.817,1.343 -8.798,1.769 -2.98,0.425 -5.986,0.765 -8.949,1.262 -6.105,1.02 -12.202,2.087 -18.303,3.132 -6.101,1.044 -12.205,2.067 -18.323,3 -4.081,0.623 -8.176,1.167 -12.28,1.647 -4.103,0.479 -8.214,0.894 -12.326,1.256 -2.431,0.214 -4.875,0.171 -7.302,0.319 -2.427,0.148 -4.839,0.488 -7.206,1.469 -1.724,0.714 -3.383,0.632 -4.997,0.184 -1.613,-0.447 -3.181,-1.26 -4.722,-2.004 0.552,-0.961 1.078,-1.938 1.62,-2.906 0.542,-0.969 1.097,-1.926 1.708,-2.848 2.682,-4.048 5.526,-8.005 8.284,-12.008 2.758,-4.004 5.43,-8.054 7.768,-12.289 11.138,-20.171 15.275,-43.484 14.243,-66.806 -1.032,-23.322 -7.235,-46.652 -16.775,-66.857 -0.605,-1.282 -1.111,-2.611 -1.618,-4.032 -0.508,-1.421 -1.019,-2.934 -1.635,-4.585 2.255,-0.367 4.28,-0.696 6.189,-1.006 1.908,-0.31 3.702,-0.602 5.496,-0.894 19.216,-3.125 46.613,1.215 73.168,11.22 26.555,10.008 52.27,25.68 68.126,45.22 z"
           id="dar4" /><path
           fill="#fcb22e"
           d="m 11337.328,12140.662 c 3.975,-5.788 7.231,-8.735 10.487,-8.876 3.256,-0.141 6.513,2.525 10.49,7.963 0.635,0.868 1.238,1.765 1.859,2.645 0.622,0.88 1.262,1.743 1.972,2.545 3.214,3.631 6.577,7.148 9.864,10.72 3.287,3.572 6.499,7.201 9.412,11.057 3.343,4.426 6.448,9.034 9.464,13.707 3.016,4.673 5.94,9.414 8.922,14.104 1.088,1.711 1.885,3.529 2.198,5.475 0.312,1.946 0.139,4.019 -0.715,6.242 -1.939,1.458 -3.929,1.864 -5.918,1.643 -1.989,-0.221 -3.979,-1.07 -5.918,-2.122 -4.172,-2.263 -7.973,-4.977 -11.48,-8.037 -3.507,-3.061 -6.719,-6.469 -9.713,-10.119 -2.842,-3.465 -5.705,-6.916 -8.542,-10.386 -2.837,-3.47 -5.649,-6.96 -8.389,-10.506 -3.049,-3.945 -6.392,-7.751 -9.05,-11.924 -2.659,-4.172 -4.633,-8.714 -4.943,-14.131 z"
           id="darlak1" /><path
           fill="#fcb22e"
           d="m 11346.438,12198.105 c -1.712,0.798 -3.187,0.712 -4.537,0.251 -1.35,-0.461 -2.574,-1.297 -3.782,-1.998 -4.278,-2.482 -8.12,-5.474 -11.7,-8.765 -3.58,-3.291 -6.898,-6.879 -10.129,-10.552 -1.306,-1.485 -2.522,-3.048 -3.731,-4.617 -1.21,-1.569 -2.413,-3.144 -3.694,-4.651 -2.019,-2.376 -3.359,-4.921 -4.048,-7.624 -0.689,-2.703 -0.726,-5.566 -0.14,-8.579 0.382,-1.964 1.752,-3.407 3.394,-4.01 1.642,-0.603 3.557,-0.367 5.03,1.029 3.543,3.358 7.022,6.786 10.461,10.254 3.439,3.468 6.839,6.976 10.223,10.496 1.241,1.291 2.426,2.655 3.542,4.073 1.116,1.418 2.163,2.891 3.128,4.399 1.258,1.966 2.481,3.968 3.624,6.012 1.143,2.044 2.209,4.128 3.153,6.257 0.58,1.308 0.846,2.721 0.735,4.103 -0.111,1.382 -0.601,2.735 -1.529,3.922 z"
           id="darlak2" /></g><path
         style="stroke-width:1.60734"
         id="be"
         d="m 3823.8892,2026.6519 c -37.3821,43.7793 199.7676,189.5368 280.3262,190.8371 80.557,1.302 264.1515,-612.4187 58.5331,-654.6597 -88.1678,-18.1181 -561.0574,-48.4406 -916.7795,5.0373 -74.3431,11.1776 -77.9516,190.2779 -32.4524,258.6962 61.0889,91.8856 200.4267,64.617 294.6397,30.1747 210.4259,-76.9275 348.5951,-137.5632 404.8748,-51.6682 43.8966,66.9975 -51.7566,177.8016 -89.1419,221.5826 z"
         fill="#f4e8d7" /><ellipse
         transform="scale(1,-1)"
         style="stroke-width:1.60734"
         ry="153.18575"
         rx="158.12721"
         cy="-1311.5139"
         cx="3797.759"
         id="noq"
         fill="#f4e8d7" /><path
         sodipodi:nodetypes="scscscccszcs"
         style="clip-rule:evenodd;fill:#c18142;fill-rule:nonzero;stroke-width:0.963855;image-rendering:optimizeQuality;shape-rendering:geometricPrecision;text-rendering:geometricPrecision"
         id="path16507"
         d="m 3625.1484,2608.5323 c -14.8498,0.8982 -28.2146,1.7068 -43.0645,2.605 -393.4468,25.0518 -539.9916,67.6991 -545.8592,69.3051 -11.735,3.2122 -14.3434,9.626 -8.1503,13.6307 6.2293,4.6279 19.6664,5.0663 31.4016,1.854 2.9337,-0.8031 146.581,-42.0238 525.2142,-65.5539 341.4725,-21.9077 588.7023,-24.3512 736.3299,-22.6465 161.0287,1.5198 233.1827,19.6562 253.3817,24.3227 7.1937,1.0935 7.4951,2.8085 10.3299,-1.8631 2.8409,-4.6816 0.3327,-8.864 -6.3233,-12.6644 -6.655,-3.8004 -85.6012,-28.3198 -249.5996,-29.6598 -143.1366,-1.351 -379.9352,1.0872 -703.6604,20.6702 z"
         class="fil62" /><path
         style="clip-rule:evenodd;fill:#c18142;fill-rule:nonzero;stroke-width:1.19144;image-rendering:optimizeQuality;shape-rendering:geometricPrecision;text-rendering:geometricPrecision"
         id="path16529"
         d="m 3259.3461,1979.8578 h 3.9968 c 10.6579,1.0655 18.6514,9.5896 17.3191,19.1789 0,2.131 -30.6417,176.8722 -31.9739,296.2076 -1.3323,118.2699 89.2605,326.0413 90.5926,328.1724 3.9967,8.5238 -1.3322,18.1133 -13.3222,21.3097 -10.6582,3.1966 -22.6483,-1.0654 -26.645,-10.6549 -3.9967,-8.524 -94.5894,-216.2954 -93.2571,-339.8928 1.3322,-121.4663 31.9739,-298.3384 33.3062,-300.4694 1.3322,-8.524 10.6577,-13.8515 19.9835,-13.8515 z"
         class="fil62" /><path
         style="clip-rule:evenodd;fill:#c18142;fill-rule:nonzero;stroke-width:1.15898;image-rendering:optimizeQuality;shape-rendering:geometricPrecision;text-rendering:geometricPrecision"
         id="path16531"
         d="m 3396.5672,1964.9542 h 2.6647 c 11.99,1.0083 19.9836,8.0658 18.6513,17.1398 0,3.0247 -29.3095,269.1969 -27.9772,375.0608 1.3324,107.8805 -13.3225,267.1805 -13.3225,268.1888 -1.3322,9.0741 -10.6578,15.1234 -22.648,15.1234 -11.9902,-1.0082 -19.9836,-8.0657 -19.9836,-17.1398 0,-2.0165 13.3224,-159.3001 13.3224,-266.1724 -1.3325,-107.8803 26.6448,-366.9948 27.9772,-378.0855 1.3323,-8.0657 9.3256,-14.1151 19.9837,-14.1151 z"
         class="fil62" /><g
         transform="matrix(1.0454374,0,0,1.0454374,-3195.4973,-178.98571)"
         id="g3764"><g
           id="g1749"
           clip-path="url(#id41)"
           transform="matrix(0.22515071,0,0,-0.22515071,2748.4952,4941.354)"
           style="clip-rule:evenodd;fill-rule:evenodd;image-rendering:optimizeQuality;shape-rendering:geometricPrecision;text-rendering:geometricPrecision"><image
             xlink:href="../p1ech6nv5ih58t701oia1b5kjnl4_Images%5Cp1ech6nv5ih58t701oia1b5kjnl4_ImgID42.png"
             id="image1747"
             height="14"
             width="14"
             y="13875"
             x="15792"
             transform="matrix(36.627,0,0,109.509,-557381,-1510350)" /></g><g
           id="g1765"
           clip-path="url(#id45)"
           transform="matrix(0.22515071,0,0,-0.22515071,2748.4952,4941.354)"
           style="clip-rule:evenodd;fill-rule:evenodd;image-rendering:optimizeQuality;shape-rendering:geometricPrecision;text-rendering:geometricPrecision"><image
             xlink:href="../p1ech6nv5ih58t701oia1b5kjnl4_Images%5Cp1ech6nv5ih58t701oia1b5kjnl4_ImgID46.png"
             id="image1763"
             height="14"
             width="14"
             y="13875"
             x="15792"
             transform="matrix(37.0922,0,0,37.5574,-565221,-511522)" /></g><g
           id="g2001"
           clip-path="url(#id104)"
           transform="matrix(0.22515071,0,0,-0.22515071,2748.4952,4941.354)"
           style="clip-rule:evenodd;fill-rule:evenodd;image-rendering:optimizeQuality;shape-rendering:geometricPrecision;text-rendering:geometricPrecision"><image
             xlink:href="../p1ech6nv5ih58t701oia1b5kjnl4_Images%5Cp1ech6nv5ih58t701oia1b5kjnl4_ImgID105.png"
             id="image1999"
             height="14"
             width="14"
             y="13875"
             x="15792"
             transform="matrix(60.6625,0,0,54.925,-937503,-753239)" /></g><path
           id="path2633"
           d="m 7130.1518,3571.9877 c 0,0 289.0935,-437.0174 271.9821,-459.3074 -17.1116,-22.2899 -177.6438,74.9752 -240.6862,158.0558 -63.2672,83.0806 -103.5692,200.1589 -103.5692,200.1589 l 72.2733,100.8676 z"
           class="fil14"
           style="clip-rule:evenodd;fill:#ff6161;fill-rule:nonzero;stroke-width:0.225151;image-rendering:optimizeQuality;shape-rendering:geometricPrecision;text-rendering:geometricPrecision;fill-opacity:1" /><path
           id="path2637"
           d="m 7071.6127,3825.9576 -14.6349,29.4948 c -3.6022,4.0526 -8.7808,6.7545 -14.1842,6.9796 -10.8075,0.6755 -29.7199,-0.6755 -51.7848,-11.933 -4.9535,-2.4766 -8.5558,-6.9796 -10.1319,-12.3833 -2.4765,-8.5557 1.3509,-43.0037 -1.576,-46.8313 -3.6025,-4.503 49.9835,-10.582 84.2063,1.8012 13.5091,4.9533 17.3367,22.0648 7.8804,32.872 z"
           class="fil17"
           style="clip-rule:evenodd;fill:#ffc431;fill-rule:nonzero;stroke-width:0.225151;image-rendering:optimizeQuality;shape-rendering:geometricPrecision;text-rendering:geometricPrecision;fill-opacity:1" /><path
           id="path2639"
           d="m 7193.1939,3740.1753 c 0,0 13.0588,18.4623 -7.2047,44.1295 -18.2372,23.1904 -59.4397,41.8779 -140.0437,30.3953 -80.6039,-11.2575 -161.2079,-47.2817 -163.4594,-83.9812 -1.1257,-18.2372 -3.3773,-32.6469 20.0383,-43.0038 14.8599,-6.7545 290.6695,52.6853 290.6695,52.6853 z"
           class="fil17"
           style="clip-rule:evenodd;fill:#ffc431;fill-rule:nonzero;stroke-width:0.225151;image-rendering:optimizeQuality;shape-rendering:geometricPrecision;text-rendering:geometricPrecision;fill-opacity:1" /><path
           id="path2641"
           d="m 6889.0155,3726.8913 c 27.2433,46.6062 158.7312,88.9346 266.8035,63.0423 64.8435,-15.5355 32.4216,-59.2147 32.4216,-59.2147 0,0 -22.7401,-41.4277 -125.6339,-58.0889 -119.3299,-19.5881 -196.5566,15.0851 -173.5912,54.2613 z"
           class="fil18"
           style="clip-rule:evenodd;fill:#fcb431;fill-rule:nonzero;stroke-width:0.225151;image-rendering:optimizeQuality;shape-rendering:geometricPrecision;text-rendering:geometricPrecision;fill-opacity:1" /><path
           id="path2643"
           d="m 7517.4109,2466.9483 c 0,0 1.8013,-52.0099 11.2578,-64.6184 -2.9271,-4.728 -8.3307,-9.9066 -18.4627,-11.7078 -11.4826,-2.0262 -33.9977,-3.3772 -53.5857,-2.2515 2.2514,20.9391 -2.4768,56.9631 -3.6024,68.4459 l 64.1679,9.9066 z"
           class="fil23"
           style="clip-rule:evenodd;fill:#ff6161;fill-opacity:1;fill-rule:nonzero;stroke-width:0.225151;image-rendering:optimizeQuality;shape-rendering:geometricPrecision;text-rendering:geometricPrecision" /><path
           id="path2645"
           d="m 7520.1127,2356.8497 c 35.1237,3.1519 73.6244,12.3831 92.7622,17.3365 0.6754,-2.0265 1.576,-4.278 2.0263,-6.7545 2.2516,-12.3834 -124.5084,-35.1235 -147.924,-27.018 -6.3043,2.2515 -10.1317,8.3303 -11.933,16.2107 17.1116,-1.3509 40.302,-2.0262 65.0685,0.2252 z"
           class="fil23"
           style="clip-rule:evenodd;fill:#ffffff;fill-rule:nonzero;stroke-width:0.225151;image-rendering:optimizeQuality;shape-rendering:geometricPrecision;text-rendering:geometricPrecision" /><path
           id="path2647"
           d="m 7520.1127,2356.8497 c -24.7665,-2.2515 -47.9569,-1.5761 -65.0685,-0.2253 -1.5761,7.43 -1.3508,16.6613 0.6755,25.4419 0.4504,2.0265 0.6754,4.0529 0.9006,6.5296 19.588,-1.1259 42.1031,0.2251 53.5857,2.2515 10.132,1.8012 15.5356,6.9795 18.4627,11.7077 0.2249,-0.2251 0.45,-0.6754 0.6753,-0.9006 4.503,-4.7282 15.0852,-6.9797 29.9451,-10.3569 21.6143,-6.5294 45.4804,3.1521 53.5859,-17.1114 -19.1378,-4.9535 -57.8636,-14.1847 -92.7622,-17.3366 z"
           class="fil20"
           style="clip-rule:evenodd;fill:#1e1240;fill-rule:nonzero;stroke-width:0.225151;image-rendering:optimizeQuality;shape-rendering:geometricPrecision;text-rendering:geometricPrecision" /><path
           id="path2649"
           d="m 7036.264,3241.0162 c 0,0 237.5338,-50.2086 362.4927,-106.4962 124.9585,-56.2877 144.7719,-250.5927 155.1287,-289.5438 10.582,-38.951 58.0888,-292.921 31.0707,-376.677 -14.8599,-46.156 -117.5286,-66.6447 -137.1167,-25.8924 -19.5881,40.7523 -96.1394,423.5084 -136.2161,474.8428 -24.9918,31.9714 -299.9006,4.9533 -397.616,73.8494 -97.7155,68.896 -72.0481,156.7048 -72.0481,156.7048 l 194.0797,93.2124 z"
           class="fil20"
           style="clip-rule:evenodd;fill:#9a4121;fill-rule:nonzero;stroke-width:0.225151;image-rendering:optimizeQuality;shape-rendering:geometricPrecision;text-rendering:geometricPrecision;fill-opacity:1" /><path
           id="path2651"
           d="m 7025.9072,2443.3074 c 0,0 -17.1114,-49.0828 -12.6084,-64.393 -4.503,-3.3774 -11.2576,-6.3043 -21.3895,-4.2779 -11.4827,2.2515 -32.872,9.2312 -50.884,17.1114 9.4564,18.6875 18.2373,54.0362 21.3893,65.0686 l 63.4926,-13.7343 z"
           class="fil23"
           style="clip-rule:evenodd;fill:#ff6161;fill-opacity:1;fill-rule:nonzero;stroke-width:0.225151;image-rendering:optimizeQuality;shape-rendering:geometricPrecision;text-rendering:geometricPrecision" /><path
           id="path2653"
           d="m 6988.5321,2339.7382 c 33.9977,-9.6816 73.1739,-15.0853 92.7621,-17.3367 0,-2.2515 0,-4.5028 -0.6755,-7.2048 -2.4768,-12.3834 -128.7863,12.1582 -147.699,28.1439 -5.1782,4.2777 -6.5292,11.4827 -5.1782,19.3629 15.5353,-7.2048 36.9244,-16.4358 60.7905,-23.1905 z"
           class="fil23"
           style="clip-rule:evenodd;fill:#ffffff;fill-rule:nonzero;stroke-width:0.225151;image-rendering:optimizeQuality;shape-rendering:geometricPrecision;text-rendering:geometricPrecision" /><path
           id="path2655"
           d="m 6988.5321,2339.7382 c -23.8661,6.7544 -45.2553,15.7605 -60.7906,23.1905 1.1258,7.655 4.7282,15.9857 9.9066,23.4156 1.1259,1.576 2.2515,3.6024 3.1521,5.6287 18.012,-8.1053 39.4013,-15.085 50.884,-17.1115 10.1319,-2.0262 16.8863,0.9008 21.3895,4.278 0,-0.4502 0.2251,-0.6755 0.2251,-0.9007 2.4765,-6.0792 11.4825,-11.933 24.3162,-20.4888 17.7868,-13.9592 43.454,-13.5089 43.9043,-35.3485 -19.5881,2.2513 -58.9895,7.6551 -92.7621,17.3367 z"
           class="fil20"
           style="clip-rule:evenodd;fill:#1e1240;fill-rule:nonzero;stroke-width:0.225151;image-rendering:optimizeQuality;shape-rendering:geometricPrecision;text-rendering:geometricPrecision" /><path
           id="path2657"
           d="m 6870.7784,3230.8844 c 0,0 164.5851,-40.0768 289.5436,-96.3644 124.9585,-56.2877 150.1755,-154.2282 115.5022,-302.1523 -9.231,-39.1761 -116.8531,-303.0527 -144.0965,-386.5836 -14.8599,-46.1559 -165.9357,-46.3811 -185.5241,-5.6288 -19.5881,40.7523 154.6788,445.1229 126.9852,477.3195 -26.3427,30.8455 -254.8706,24.0911 -352.586,92.762 -97.7152,68.8961 -35.3487,182.5971 -35.3487,182.5971 l 185.074,38.0505 z"
           class="fil19"
           style="clip-rule:evenodd;fill:#9a4121;fill-rule:nonzero;stroke-width:0.225151;image-rendering:optimizeQuality;shape-rendering:geometricPrecision;text-rendering:geometricPrecision;fill-opacity:1" /><path
           id="path2659"
           d="m 6948.2302,2436.7781 c 0.6753,-0.9007 1.1258,-1.5761 1.8013,-2.4766 l 0.225,-0.2253 c 0.6755,-0.6752 1.3508,-1.576 2.2514,-2.2515 l 0.4503,-0.2251 c 0.9007,-0.6755 1.8011,-1.5761 2.702,-2.2515 l 0.45,-0.2251 c 2.0263,-1.5761 4.2779,-2.927 6.7547,-4.2779 l 0.225,-0.2251 c 13.0587,-6.9797 31.7462,-11.4826 52.0098,-13.2837 14.4096,76.1008 40.5271,208.7145 66.4195,262.3003 35.5738,73.6244 59.4397,242.2622 37.6001,321.9655 -21.8395,79.9285 -153.7779,33.9977 -229.4287,52.4601 -145.6723,35.5739 -140.9441,157.8306 -140.9441,157.8306 l -63.0421,-13.0587 c 0,0 -62.592,-113.7011 35.3487,-182.5972 97.7153,-68.8961 326.0181,-62.1415 352.3605,-92.762 v 0 c 8.5558,-10.1318 -2.4764,-56.5129 -21.164,-116.8532 -0.9007,-2.927 -1.8012,-6.0792 -2.9271,-9.2312 -2.0262,-6.0791 -4.0527,-12.3833 -6.0789,-18.9127 -2.0264,-6.3041 -4.2781,-12.8336 -6.3043,-19.5881 -4.0528,-12.3832 -8.3305,-24.9917 -12.6084,-37.8254 -0.6755,-1.8011 -1.1259,-3.3772 -1.8012,-5.1783 -1.8013,-5.1785 -3.3774,-10.1318 -5.1785,-15.3103 -1.8012,-5.1785 -3.6023,-10.3569 -5.4036,-15.5354 -2.927,-8.5557 -5.8539,-17.1114 -8.7807,-25.6672 -0.6755,-2.0263 -1.351,-4.0527 -2.0265,-6.079 -2.7018,-8.3306 -5.6288,-16.4361 -8.3307,-24.5415 -2.9268,-8.7809 -5.8538,-17.3366 -8.5556,-25.6671 -2.7018,-7.8803 -5.1785,-15.7606 -7.6551,-23.1906 -1.351,-3.8275 -2.4765,-7.8802 -3.8276,-11.7078 -2.0264,-6.079 -3.8277,-12.1581 -5.6288,-18.0121 -2.7019,-8.7807 -5.1784,-17.1113 -7.655,-25.2168 -1.5762,-5.4036 -2.927,-10.582 -4.2779,-15.5354 -1.351,-4.9533 -2.4768,-9.6814 -3.6025,-14.1844 -0.6754,-2.702 -1.3508,-5.4037 -1.8013,-7.8804 -2.2515,-9.9067 -3.8274,-18.4624 -4.2777,-25.217 -0.2251,-1.5759 -0.2251,-3.152 -0.2251,-4.5029 -0.2251,-5.1785 0.2251,-9.2311 1.5759,-11.7078 0.4503,-0.9006 0.9006,-1.8013 1.576,-2.7018 l 0.4504,-0.4503 z"
           class="fil20"
           style="clip-rule:evenodd;fill:#7e3a1a;fill-rule:nonzero;stroke-width:0.225151;image-rendering:optimizeQuality;shape-rendering:geometricPrecision;text-rendering:geometricPrecision;fill-opacity:1" /><path
           id="path2661"
           d="m 6680.3008,3184.0531 c -26.7929,272.2072 62.8171,457.7313 101.3179,486.5506 102.2184,75.8757 323.9917,-2.0264 348.308,-98.3908 24.091,-95.6891 -181.9217,-161.8834 -93.8878,-318.5883 10.1317,-18.2372 18.4624,-60.7907 -136.2161,-85.107 -94.7884,-14.8598 -217.946,-1.3508 -219.522,15.7607 z"
           class="fil69"
           style="clip-rule:evenodd;fill:#80c904;fill-rule:nonzero;stroke-width:0.225151;image-rendering:optimizeQuality;shape-rendering:geometricPrecision;text-rendering:geometricPrecision;fill-opacity:1" /><path
           id="path2663"
           d="m 7078.3671,3728.2423 c 0,0 30.6205,-1.1258 21.3895,26.3426 -2.702,7.8802 -48.4075,9.006 -63.4926,4.503 -7.4299,-2.2515 -21.3894,1.8012 -32.8721,-9.006 -16.8863,-15.5354 -8.1052,-36.6996 -8.1052,-36.6996 0,0 67.9954,-6.7545 82.8553,14.86 z"
           class="fil19"
           style="clip-rule:evenodd;fill:#311e69;fill-rule:nonzero;stroke-width:0.225151;image-rendering:optimizeQuality;shape-rendering:geometricPrecision;text-rendering:geometricPrecision" /><path
           id="path2665"
           d="m 7012.8483,3732.0698 -53.5857,-57.1883 c -4.2779,-9.4563 34.8982,-58.9894 55.387,-53.811 6.079,1.5761 9.0061,11.2576 9.2312,22.9654 l -0.2251,64.8434 z"
           class="fil22"
           style="clip-rule:evenodd;fill:#ff6161;fill-rule:nonzero;stroke-width:0.225151;image-rendering:optimizeQuality;shape-rendering:geometricPrecision;text-rendering:geometricPrecision" /><path
           id="path2667"
           d="m 7023.6557,3695.8205 c -9.6815,6.5295 -22.7403,15.7606 -22.7403,15.7606 0,0 -6.7546,-17.1114 2.2516,-36.2493 4.728,-10.1318 12.3831,-17.5617 20.7138,-21.8396 z"
           class="fil19"
           style="clip-rule:evenodd;fill:#311e69;fill-rule:nonzero;stroke-width:0.225151;image-rendering:optimizeQuality;shape-rendering:geometricPrecision;text-rendering:geometricPrecision" /><path
           id="path2669"
           d="m 7036.4893,3748.0555 -31.296,-30.1702 c -9.4564,-10.8073 -8.7808,-27.2432 1.5761,-36.9247 8.3305,-7.8803 14.6346,-11.2576 27.9185,-16.436 11.0325,-4.2778 21.8396,2.9269 29.0444,16.436 9.4565,17.7869 13.0589,36.6995 14.4097,47.0565 3.1522,23.4157 -19.8131,38.0505 -41.878,20.0384 z"
           class="fil22"
           style="clip-rule:evenodd;fill:#ff6161;fill-rule:nonzero;stroke-width:0.225151;image-rendering:optimizeQuality;shape-rendering:geometricPrecision;text-rendering:geometricPrecision" /><path
           id="path2673"
           d="m 7045.27,3676.4576 c -10.3568,8.5557 -28.8193,-4.2779 -40.527,23.4157 -2.2515,5.1784 -0.2251,13.7342 1.1257,18.6875 l -0.6753,-0.6755 c -9.4564,-10.8072 -8.7808,-27.2432 1.5761,-36.9247 8.3305,-7.8803 14.6346,-11.2576 27.9185,-16.436 6.7547,-2.7018 13.284,-0.9006 19.1378,3.8276 -2.2515,0.6755 -5.4034,5.4036 -8.7807,8.1054 z"
           class="fil14"
           style="clip-rule:evenodd;fill:#ad263d;fill-rule:nonzero;stroke-width:0.225151;image-rendering:optimizeQuality;shape-rendering:geometricPrecision;text-rendering:geometricPrecision" /><path
           id="path2675"
           d="m 7027.4831,3733.4207 c 0,2.7018 0.4504,5.4036 1.1259,7.8803 1.1257,4.9533 1.8011,12.6084 -6.5296,10.8072 -11.9328,-2.7018 -18.0119,-27.0181 -6.0789,-31.9714 8.7809,-3.6024 11.2575,6.3042 11.4827,13.0588 z"
           class="fil22"
           style="clip-rule:evenodd;fill:#ff6161;fill-rule:nonzero;stroke-width:0.225151;image-rendering:optimizeQuality;shape-rendering:geometricPrecision;text-rendering:geometricPrecision" /><path
           id="path2677"
           d="m 7037.84,3735.2219 c 1.5761,2.927 5.4037,4.2779 8.5558,2.4767 l 13.7342,-7.43 c 1.576,-0.6755 2.4767,-2.0263 2.9269,-3.6024 0.4503,-1.5761 0.2251,-3.3772 -0.4502,-4.7282 -1.8012,-3.3772 -5.4036,-5.6287 -9.231,-5.6287 l -3.3774,-0.2252 c -2.2515,0 -4.7283,0.4503 -6.7545,1.576 -6.3043,3.3774 -8.7809,11.2576 -5.4037,17.5618 z m 32.647,-17.1114 c 1.5761,2.927 4.5029,4.503 6.5293,3.6023 h 0.2251 l 10.357,-5.6287 c 0.9006,-0.4503 1.576,-1.576 1.8013,-2.927 0.2249,-1.576 0,-3.1521 -0.9008,-4.7281 -3.3772,-6.3042 -9.9068,-9.4563 -14.6348,-6.9797 -1.5761,0.9006 -2.7018,2.0264 -3.3772,3.8275 l -1.1258,2.4767 c -1.351,2.927 -0.9008,6.9797 0.9006,10.357 z m -35.3486,18.6875 c -4.2779,-7.8803 -1.3512,-17.5617 6.5294,-21.8397 0.4502,-0.2251 0.9006,-0.4503 1.3508,-0.6754 2.2514,-1.1258 4.7282,-1.3509 7.2047,-1.3509 l 3.3773,0.2251 c 4.0528,0.2252 7.8802,2.0264 10.357,5.1785 0.6755,0.2252 1.351,0.2252 1.8013,0 0.4502,-0.2251 0.6755,-0.6755 0.9004,-1.1258 -1.3506,-3.6023 -1.3506,-7.655 0,-10.8072 l 1.1259,-2.7018 c 1.1259,-2.2515 2.702,-4.0527 4.7282,-5.1785 l 0.6755,-0.4502 c 6.0788,-2.7018 14.1845,1.1257 18.2369,8.5558 1.1259,2.0263 1.5763,4.503 1.351,6.7545 -0.45,2.4767 -1.5759,4.2778 -3.377,5.1785 l -10.5823,5.6286 c -3.1522,1.8013 -7.4299,0.4503 -10.1319,-2.9269 -0.2251,0.2252 -0.6753,0.4502 -1.1257,0.6754 -0.4504,0.2252 -0.9008,0.4503 -1.5759,0.6755 0.4502,1.576 0.4502,3.3772 0,4.9533 -0.6754,2.4767 -2.2517,4.503 -4.5032,5.6288 l -13.7341,7.43 c -4.503,2.4766 -10.3568,0.6754 -12.8335,-3.8276 z"
           class="fil19"
           style="clip-rule:evenodd;fill:#311e69;fill-rule:nonzero;stroke-width:0.225151;image-rendering:optimizeQuality;shape-rendering:geometricPrecision;text-rendering:geometricPrecision" /><path
           id="path2679"
           d="m 6774.1886,3663.3989 c 0,0 -35.5735,-23.6409 -124.5083,-139.5934 -88.9346,-115.9526 -323.3162,-494.2058 -311.3833,-530.455 11.7078,-36.2493 76.1009,-3.6024 129.9119,52.6852 53.8111,56.2877 293.1463,399.4173 356.6388,482.9482 48.6323,63.9428 -7.2049,176.7433 -50.434,134.415 z"
           class="fil22"
           style="clip-rule:evenodd;fill:#ff6161;fill-rule:nonzero;stroke-width:0.225151;image-rendering:optimizeQuality;shape-rendering:geometricPrecision;text-rendering:geometricPrecision" /><path
           id="path2681"
           d="m 7054.051,3237.1887 c 0,0 -31.5212,47.2815 -27.6937,100.4171 2.9271,40.9775 38.9513,95.2388 55.3873,118.2042 4.0525,5.6287 1.8011,13.509 -4.7283,16.2108 -39.6264,16.436 -160.3072,64.168 -196.1062,52.6853 -43.0039,-13.9593 -78.1274,-344.0303 -55.3871,-370.3729 22.9653,-26.3427 180.5708,-15.3102 228.7532,82.8555 z"
           class="fil19"
           style="clip-rule:evenodd;fill:#9a4121;fill-rule:nonzero;stroke-width:0.225151;image-rendering:optimizeQuality;shape-rendering:geometricPrecision;text-rendering:geometricPrecision;fill-opacity:1" /><path
           id="path2683"
           d="m 6875.7317,3516.8258 c 0,0 17.5617,57.4134 17.1114,87.8088 -0.9007,54.4864 -18.4622,96.3644 -18.4622,96.3644 0,0 26.3425,6.3042 43.0034,-1.351 0,0 33.7729,-99.7417 8.3307,-184.6235 -25.4421,-84.6566 -49.9833,1.8012 -49.9833,1.8012 z"
           class="fil19"
           style="clip-rule:evenodd;fill:#9a4121;fill-rule:nonzero;stroke-width:0.225151;image-rendering:optimizeQuality;shape-rendering:geometricPrecision;text-rendering:geometricPrecision;fill-opacity:1" /><path
           id="path2685"
           d="m 7054.051,3237.1887 c 0,0 -31.5212,47.2815 -27.6937,100.4171 2.9271,40.9775 38.9513,95.2388 55.3873,118.2042 4.0525,5.6287 1.8011,13.509 -4.7283,16.2108 -13.7342,5.6287 -37.1498,15.0851 -63.4925,24.5414 -10.5821,-32.4217 -54.4865,-176.5182 -27.6935,-246.7651 9.0059,-23.4157 23.4156,-40.0769 39.1763,-51.7847 11.7077,11.0324 21.6143,24.0912 29.0444,39.1763 z"
           class="fil20"
           style="clip-rule:evenodd;fill:#9a4121;fill-rule:nonzero;stroke-width:0.225151;image-rendering:optimizeQuality;shape-rendering:geometricPrecision;text-rendering:geometricPrecision;fill-opacity:1" /><path
           id="path2687"
           d="m 7026.1323,3477.8747 c 0,0 31.7462,32.8721 40.302,61.9164 15.5353,52.235 2.0262,106.9466 2.0262,106.9466 0,0 24.7667,-9.006 36.4747,-28.8193 0,0 14.4095,-93.8878 -38.9512,-164.36 -21.3895,-28.1438 -40.0768,24.3163 -40.0768,24.3163 z"
           class="fil20"
           style="clip-rule:evenodd;fill:#9a4121;fill-rule:nonzero;stroke-width:0.225151;image-rendering:optimizeQuality;shape-rendering:geometricPrecision;text-rendering:geometricPrecision;fill-opacity:1" /><path
           id="path2691"
           d="m 6918.5102,3491.834 c 0,-6.5293 -5.1783,-11.7078 -11.7079,-11.7078 -6.5294,0 -11.7078,5.1785 -11.7078,11.7078 0,6.5294 5.1784,11.7078 11.7078,11.7078 6.3043,0 11.7079,-5.1784 11.7079,-11.7078 z"
           class="fil70"
           style="clip-rule:evenodd;fill:#efa862;fill-rule:nonzero;stroke-width:0.225151;image-rendering:optimizeQuality;shape-rendering:geometricPrecision;text-rendering:geometricPrecision" /><path
           id="path2693"
           d="m 7058.779,3452.2075 c 0,-6.5293 -5.1784,-11.7078 -11.7077,-11.7078 -6.5294,0 -11.7078,5.1785 -11.7078,11.7078 0,6.5294 5.1784,11.7079 11.7078,11.7079 6.3043,0 11.7077,-5.1785 11.7077,-11.7079 z"
           class="fil70"
           style="clip-rule:evenodd;fill:#efa862;fill-rule:nonzero;stroke-width:0.225151;image-rendering:optimizeQuality;shape-rendering:geometricPrecision;text-rendering:geometricPrecision" /><path
           id="path2697"
           d="m 6370.7187,2974.8882 c 0,0 -38.2756,-16.2109 -45.2553,-22.7403 -6.9796,-6.3041 -10.1319,-21.8396 -15.9857,-10.3569 -6.0791,11.4826 13.0588,23.4156 16.6613,28.8192 3.6025,5.4037 -31.2961,12.8337 -40.9775,10.1319 -9.4564,-2.7018 -21.1642,-11.7079 -20.7139,-1.5761 0.6755,10.1318 19.8133,27.0181 20.939,32.1966 1.351,5.1784 34.4481,24.3163 53.3606,19.1378 18.6877,-5.1785 47.7321,-11.4827 46.3811,-26.793 -1.3509,-15.3102 -11.2575,-27.2433 -14.4096,-28.594 z"
           class="fil22"
           style="clip-rule:evenodd;fill:#ff6161;fill-rule:nonzero;stroke-width:0.225151;image-rendering:optimizeQuality;shape-rendering:geometricPrecision;text-rendering:geometricPrecision" /></g><g
         transform="matrix(1.2521634,-0.32736488,0.32736488,1.2521634,-512.35087,689.29916)"
         id="g3872"><path
           id="path702"
           style="fill:#494949;fill-opacity:1;fill-rule:nonzero;stroke:none;stroke-width:1.02314"
           d="M 2480.8684,1171.6602 V 817.85716 c 0,-10.3358 -8.3898,-18.72455 -18.7236,-18.72455 h -11.3569 c -10.3337,0 -18.6212,8.38875 -18.6212,18.72455 v 301.82734 c 0,10.3337 -8.3897,18.7235 -18.7235,18.7235 -10.3337,0 -18.7235,-8.3898 -18.7235,-18.7235 V 817.85716 c 0,-10.3358 -8.3898,-18.72455 -18.7236,-18.72455 h -15.0402 c -10.3337,0 -18.7235,8.38875 -18.7235,18.72455 v 304.90694 c 0,10.3235 -8.2874,18.7031 -18.6212,18.7031 h -13.0962 c -5.3204,0 -10.1292,-2.1384 -13.6078,-5.8217 -3.1718,-3.2741 -5.1158,-7.7657 -5.1158,-12.8814 V 817.85716 c 0,-10.3358 -8.3897,-18.72455 -18.7235,-18.72455 h -12.0731 c -10.3337,0 -18.7235,8.38875 -18.7235,18.72455 v 304.90694 c 0,10.3235 -8.2875,18.7031 -18.7235,18.7031 h -11.05 c -10.3337,0 -18.7235,-8.3796 -18.7235,-18.7031 V 817.85716 c 0,-10.3358 -8.3898,-18.72455 -18.7235,-18.72455 h -13.8125 c -10.3337,0 -18.7235,8.38875 -18.7235,18.72455 v 353.80304 c 0,30.3975 12.38,57.9099 32.3313,77.8612 19.9513,19.9513 47.5762,32.3313 77.8613,32.3313 10.743,0 19.1327,8.6967 18.9281,19.2351 l -0.4092,21.8953 -3.3764,146.7188 -1.1255,51.0548 h 78.8844 v -220.0782 c 0,-10.436 8.2875,-18.8258 18.7235,-18.8258 h 6.2412 c 59.0354,0 107.2254,-46.3484 110.1925,-104.5653 0.1024,-1.8416 0.1024,-3.7856 0.1024,-5.6272" /><path
           id="path706"
           style="fill:#52390f;fill-opacity:1;fill-rule:nonzero;stroke:none;stroke-width:1.02314"
           d="m 2331.7964,1520.7567 h -47.5762 l -26.9087,561.0919 -9.4129,196.2389 -12.7893,265.1988 -16.6772,349.7105 -6.1389,128.6091 4.0926,21.2814 c 1.5347,8.2874 8.799,14.324 17.1888,14.324 6.5481,0 12.38,-3.6833 15.4494,-9.2083 3.2741,-5.8319 7.0597,-14.2217 8.9014,-23.7369 2.2509,-11.1523 16.3703,-15.1426 24.5554,-7.162 l 0.4093,0.8185 5.7296,-174.2414 8.799,-271.0307 9.3106,-285.1501 6.1389,-188.0537 18.9282,-578.69" /><path
           id="path708"
           style="fill:#52390f;fill-opacity:1;fill-rule:nonzero;stroke:none;stroke-width:1.02314"
           d="m 2288.6197,2843.6812 c -10.1291,8.6968 -20.3606,16.9842 -30.8989,24.6578 -11.1523,8.0828 -24.8624,16.1657 -39.2887,24.6578 v 0 l -6.1389,128.6091 4.0926,21.2814 c 1.5347,8.2874 10.8428,19.6378 19.2326,19.6378 35.4412,8.4404 43.5286,-16.1308 46.8624,-45.421 l 0.4093,0.8185 5.7296,-174.2414"
           sodipodi:nodetypes="ccsccccccc" /></g><path
         fill="#f4e8d7"
         d="m 4074.3766,3353.765 c -4.1457,7.8579 36.4978,21.7721 48.6715,19.2394 12.1732,-2.5323 19.0305,-101.1568 -13.3596,-100.5529 -13.8888,0.2583 -86.1175,11.7089 -137.8664,31.8089 -10.8152,4.2009 -5.2926,31.2898 3.8755,40.0503 12.31,11.7661 32.3662,2.9411 45.3851,-5.4357 29.0777,-18.7099 47.8279,-32.5192 59.2109,-21.4923 8.8786,8.6009 -1.7708,28.5239 -5.917,36.3823 z"
         id="be-5"
         style="stroke-width:0.24806" /><ellipse
         transform="matrix(0.97562178,-0.21945876,-0.21945876,-0.97562178,0,0)"
         fill="#f4e8d7"
         id="noq-7"
         cx="3235.0049"
         cy="-4055.7966"
         rx="24.403721"
         ry="23.641106"
         style="stroke-width:0.24806" /></g></g></svg>
