<svg width="512" height="200" version="1.1" viewBox="0 0 512 200" xml:space="preserve" xmlns="http://www.w3.org/2000/svg" xmlns:xlink="http://www.w3.org/1999/xlink"><defs><linearGradient id="linearGradient6575"><stop style="stop-color:#338000" offset="0"/><stop style="stop-color:#80c904" offset="1"/></linearGradient><clipPath id="clipPath1306"><path d="m4155 3015c-0.15 0-0.3 0.02-0.44 0.05-4.85 1.12-8.06 4.02-3.62 9.84 0 0 15.2 26.3 57 30.2 2.8 0.26 5.49 0.38 8.06 0.38 35.6 0 48.6-23.3 48.6-23.3s-23.5 10.2-48.2 10.2c-6.12 0-12.3-0.63-18.2-2.2-28.9-7.69-38.2-25.2-43.2-25.2"/></clipPath><linearGradient id="linearGradient1312" x2="1" gradientTransform="matrix(116 0 0 -116 4149 3036)" gradientUnits="userSpaceOnUse"><stop style="stop-color:#ff8a8a" offset="0"/><stop style="stop-color:#ff6161" offset="1"/></linearGradient><clipPath id="clipPath1322"><path d="m4152 2967c-5.49 0-12 4.35-14.2 12.9-2.76 10.4 3.99 26.5 3.99 26.5s19.6-36.4 13.7-38.8c-1.07-0.43-2.24-0.65-3.46-0.65"/></clipPath><linearGradient id="linearGradient1328" x2="1" gradientTransform="matrix(19.5 0 0 -19.5 4138 2987)" gradientUnits="userSpaceOnUse"><stop style="stop-color:#ff8a8a" offset="0"/><stop style="stop-color:#ff6161" offset="1"/></linearGradient><clipPath id="clipPath1338"><path d="m4183 2847c-1.05 0-2.09 0.61-2.46 1.84-0.52 1.77-0.87 3.75-0.81 5.83 0.19 7.1 1.69 47.2 6.92 55.5 11 17.6 60.2 52.3 63 57.4 1.82 3.28 6.52 8.5 8.91 8.5 1.31 0 1.92-1.56 1-5.86-2.62-12.2-31.2-39.2-38.5-45-7.29-5.79-21.5-9.33-28.4-41.6-2.62-12.3-5.43-26.2-7.11-34.5-0.27-1.37-1.4-2.07-2.52-2.07"/></clipPath><linearGradient id="linearGradient1344" x2="1" gradientTransform="matrix(80.3 0 0 -80.3 4179 2911)" gradientUnits="userSpaceOnUse"><stop style="stop-color:#ff8a8a" offset="0"/><stop style="stop-color:#ff6161" offset="1"/></linearGradient><clipPath id="clipPath1354"><path d="m4181 2785c-0.3 0-0.57 0.09-0.82 0.29-5.16 4.17-4.54 18.8-1.93 25.9 2.62 7.1 11.1 9.59 11.1 9.59 0.38 0.06 0.72 0.09 1.05 0.09 5.66 0 4.77-8.97 1.73-18-3.04-8.97-8.22-17.9-11.1-17.9"/></clipPath><linearGradient id="linearGradient1360" x2="1" gradientTransform="matrix(18.2 0 0 -18.2 4176 2803)" gradientUnits="userSpaceOnUse"><stop style="stop-color:#ff8a8a" offset="0"/><stop style="stop-color:#ff6161" offset="1"/></linearGradient><linearGradient id="linearGradient6569" x1="558" x2="546" y1="-20.1" y2="50.1" gradientTransform="matrix(.764 0 0 .764 -183 64.9)" gradientUnits="userSpaceOnUse"><stop style="stop-color:#338000" offset="0"/><stop style="stop-color:#80c904" offset="1"/></linearGradient><linearGradient id="linearGradient6577" x1="590" x2="610" y1="12" y2="12.1" gradientTransform="matrix(.764 0 0 .764 -183 64.9)" gradientUnits="userSpaceOnUse" xlink:href="#linearGradient6575"/><linearGradient id="linearGradient6585" x1="627" x2="606" y1="53.6" y2="17.9" gradientTransform="matrix(.764 0 0 .764 -183 64.9)" gradientUnits="userSpaceOnUse" xlink:href="#linearGradient6575"/><linearGradient id="linearGradient6593" x1="535" x2="558" y1="19" y2="47.6" gradientTransform="matrix(.764 0 0 .764 -183 64.9)" gradientUnits="userSpaceOnUse" xlink:href="#linearGradient6575"/></defs><path d="m306 49.1h100c2.92-8.44-8.5-12.9-15.1-10.5-1.4-10.1-5.57-19.2-16.2-13.6-2.96-5.53-3.96-10.9-9.81-15-9.06-6.31-15.8-1.26-22.3 5.01-4.15 4.03-5.26 1.11-11.2 1.93-9.94 1.36-11.1 10.3-14.1 18-4.21-0.336-7-0.831-10.1 2.69-2.34 2.68-3.68 8.19-1.31 11.5" style="fill:#d5fff6;stroke-width:.0625"/><path d="m76 64.8h127c3.7-10.7-10.8-16.4-19.2-13.4-1.78-12.8-7.06-24.3-20.5-17.3-3.76-7-5.03-13.9-12.5-19-11.6-8-20.1-1.59-28.2 6.38-5.27 5.12-6.69 1.41-14.2 2.44-12.6 1.73-14.1 13.1-17.8 22.9-5.34-0.427-8.94-1.06-12.8 3.43-2.98 3.41-4.67 10.4-1.66 14.6" style="fill:#d5fff6;stroke-width:.0625"/><path d="m447 188c0 7.25-82.5 13.1-184 13.1-102 0-184-5.89-184-13.1 0-7.25 82.5-13.1 184-13.1 102 0 184 5.88 184 13.1" style="fill:#80c904;stroke-width:.0625"/><path d="m272 180c-4.21 0-8.19 0.193-11.9 0.539-3.2-0.257-6.63-0.399-10.3-0.399-16.4 0-29.8 2.92-29.8 6.5 0 3.6 13.1 7 29.6 7 8.06 0.111 14.8 0.168 22.3-0.22 17.3-1.04 29.8-3.32 29.8-6.94 0-3.6-13.3-6.5-29.8-6.5" style="fill:#338000;stroke-width:.0625"/><path d="m277 53.7s2.59 26.9 7.07 34.5c3.73 6.32 20.6 17.6 18.6 22.7-2.05 5.16-23.6-5.55-28.5-17.2-4.89-11.6 2.85-40 2.85-40" style="fill:url(#linearGradient6585)"/><path d="m297 111c0.138-0.626 0.764-1.02 1.4-0.95 1.19 0.137 3.18 0.472 4.35 1.25 1.76 1.17 1.2 4.54 0.437 5.34-0.767 0.796-2.42 0.371-2.72-0.422-0.307-0.794 0.236-0.934 0.236-0.934s-4.32-1.46-3.71-4.28" style="fill:#ff6161"/><path d="m279 184c0.693-1.08 0.865-2.25 0.928-3.21l3.55-0.0866s-0.212 1.22 0.409 2.16c0.272 0.409 1.04 0.699 2.1 1.11 1.68 0.814 3.76 1.86 3.85 2.43 0.142 0.944-9.65 1.15-11.3 0.277-0.862-0.461-0.292-1.5 0.466-2.68" style="fill:#fcb431"/><path d="m245 184c-0.693-1.08-0.865-2.25-0.929-3.21l-3.55-0.0866s0.212 1.22-0.409 2.16c-0.272 0.409-1.04 0.699-2.1 1.11-1.68 0.814-3.76 1.86-3.85 2.43-0.142 0.944 9.65 1.15 11.3 0.277 0.862-0.461 0.292-1.5-0.466-2.68" style="fill:#fcb431"/><path d="m286 180-9.21-81.5-16.5 2.52-15.6-1.49-5.71 81.6c-0.219 1.94 10.5 2.56 10.9 1.05l12.8-55.2 4.26 16.7s0.241 9.1 0.516 12.1c0.495 5.47 8.93 27.7 10.5 27.7h4.95c1.88 0 3.35-1.64 3.13-3.51" style="fill:#9a4121"/><path d="m254 137c-0.825 9.7-5.17 22.4-6.81 29.5-1.33 5.76-3.04 13.3-3.64 15.9 2.94 0.329 6.3 0.146 6.48-0.687l12.8-55.2s-8.05 0.784-8.88 10.5" style="fill:#7e3a1a"/><path d="m277 98.1-7.95 1.22c0.293 3.54 0.809 7.35 1.7 10.6 2.48 9.12 7.22 50.3 8.84 56.9 1.07 4.4 3.03 11.7 4.23 16.1 1.5-0.366 2.57-1.8 2.39-3.42l-9.21-81.5" style="fill:#7e3a1a"/><path d="m243 101c0.287-28.3 0.257-39.8 1.63-44.9 1.77-6.52 3.77-12.9 19.7-10.2 4.98 0.854 13 4.15 12.8 9.2-0.124 3.12-0.29 26.3-0.29 26.3s1.11 12.1 1.97 14.5c1.93 5.41-6.92 8.81-14.5 7.86-2.93-0.364-21.3-2.07-21.3-2.78" style="fill:#338000"/><path d="m260 47.6s0.991 2.05 1.12 2.58c0.127 0.533 0.332 1.46 1.24 1.02 0.906-0.442 1.72-1.01 2.18-1.1 0.467-0.0907 1.84 0.452 2.29 0.342 0.457-0.109 0.833-0.614-0.185-2.29-1.02-1.68-0.287-0.269-1.82 0.0764-1.53 0.345-3.11 0.313-3.32-0.0336-0.213-0.346-1.51-0.594-1.51-0.594" style="fill:#80c904"/><path d="m261 42.3-3e-3 -7.64e-4c-0.299-0.416-0.239-1.93 0.187-3.32 0.427-1.39 1.6-1.01 1.6-1.01s-0.403-0.917-0.0224-1.45c0.38-0.533 1.52 0.119 1.52 0.119s-0.333-1.42 0.939-1.68c1.36-0.283 2.31 0.914 2.54 1.42 1.63 3.59-0.782 4.75-0.782 4.75-0.551 2.01-5.82 2.31-5.82 2.31s-0.168-0.434-0.161-1.15"/><path d="m262 41.6-2.51 5.66c-0.0815 0.821 3.64 2.76 5.03 1.84 0.409-0.27 0.867-0.325 0.588-1.21l-1.71-4.84-1.4-1.44" style="fill:#ff6161"/><path d="m264 39.8-1.56 3.06c-0.433 1.05 0.0448 2.26 1.08 2.72 0.829 0.37 1.39 0.458 2.52 0.496 0.94 0.0316 1.55-0.779 1.74-1.99 0.245-1.57 0.0245-3.08-0.141-3.89-0.373-1.83-2.47-2.32-3.64-0.399" style="fill:#ff6161"/><path d="m267 43.3s-0.703-0.374-1.79-0.509c0 0 1.45-0.456 1.79 0.509" style="fill:#fff"/><path d="m264 41.1c-0.0132-0.213 7e-3 -0.425 0.0397-0.636 0.0621-0.399 0.0621-1.01-0.577-0.808-0.93 0.29-1.24 2.23-0.28 2.55 0.715 0.234 0.848-0.57 0.817-1.1" style="fill:#ff6161"/><path d="m264 47.7s1.15-1.72 1.68-1.35c0.532 0.374 2.02 3.84 1.03 3.77-0.982-0.0734-2.15-0.62-2.15-0.62s-2.87 1.38-3 0.718c-0.131-0.667-1.88-2.56-1.77-3.41 0.0998-0.852 0.786-1.69 1.31-1.65 0.962 0.0662 2.9 2.55 2.9 2.55" style="fill:#80c904"/><path d="m243 109s1.92 2.02 2.55 2.45c0.626 0.428 1.58 0.954 1.3 1.42-0.282 0.471-1.19-0.0428-1.73-0.427-0.54-0.383-1.03-0.111-1.03-0.111l-4.69 1.05s-1.58-3.8-0.178-4.5c1.4-0.705 3.78 0.12 3.78 0.12" style="fill:#ff6161"/><path d="m255 49.1c-1.21-6.94-26.2 0.249-32.4 22.2-5.04 17.9 10.2 39.2 17.6 38.7 7.46-0.566-9.09-26.5-6.77-35.8 1.93-7.74 16.1-13.7 20.6-18.6 1.53-1.66 1.19-4.93 0.918-6.47" style="fill:url(#linearGradient6569)"/><path d="m266 46.5c1.42 3.47 3.87 10.1 4.26 14.7 0.553 6.64-0.317 16.5 0.333 25.5 0.552 7.69-0.531 12.7 2.49 16.4 4.03-1.29 6.78-3.82 5.62-7.07-0.852-2.38-1.97-14.5-1.97-14.5s0.166-23.2 0.29-26.3c0.178-4.47-6.13-7.58-11-8.82" style="fill:url(#linearGradient6577)"/><path d="m254 55.6c0.856-0.934 1.12-2.37 1.15-3.72-0.854 0.973-2.25 1.95-4.5 2.74-7.4 2.62-8.64 0.355-15.8 7.58-7.13 7.23-12.7 11.3-7.67 19.9 5.02 8.55 8.54 8.61 9.62 15.5 1.06 6.78 1.5 10.3 3.89 12.3 6.05-1.83-9.57-26.7-7.31-35.7 1.93-7.74 16.1-13.7 20.6-18.6" style="fill:url(#linearGradient6593)"/><path d="m276 4.68c-1.25-0.997-2.85-1.53-4.64-1.57v-7.64e-4h-0.0346c-0.133-0.0031-0.267-0.0031-0.401 0h-2.77l1.05 0.172c-0.205 0.0367-0.411 0.0774-0.618 0.125-2.21 0.504-3.87 1.92-4.81 4.1-0.647 1.51-0.709 2.87-0.714 3.02-0.0153 0.458 0.137 0.883 0.401 1.22-0.311 0.265-1.49 0.707-1.49 0.707s1.99 0.129 2.95 7.65e-4c0.991-0.132 1.83-0.794 1.86-1.8 7.6e-4 -0.0306 0.129-3.05 2.62-3.61 1.79-0.409 3.3-0.211 4.26 0.555 0.793 0.633 1.2 1.64 1.2 3 0 1.58-1.95 3.07-3.68 4.38-1.65 1.26-3.08 2.34-3.46 3.9-0.623 2.53-0.497 5.38-0.491 5.5 0.0163 0.342 0.123 0.658 0.298 0.926-0.16 0.22-1.23 0.5-1.33 0.847l2.89 0.0023 0.0876-0.0023c1.03-0.0458 1.82-0.919 1.78-1.95-7.7e-4 -0.0204-0.0754-1.77 0.204-3.51 0.106-0.668 0.454-1.27 0.971-1.71 0.416-0.352 0.916-0.733 1.31-1.03 2.17-1.66 5.15-3.92 5.15-7.35 0-2.48-0.924-4.58-2.6-5.91" style="fill:#ad263d"/><path d="m268 26.9c-0.375-0.0693-1.15-0.141-1.85 0.0703l0.0897 4.62s1.24 0.113 1.94 0.0163l0.195-0.0183c0.988-0.0468 1.77-0.863 1.77-1.86v-0.896c0-0.946-0.705-1.73-1.62-1.85-0.177-0.0224-0.356-0.0489-0.533-0.0825" style="fill:#ad263d"/><path d="m266 26.1c-0.988 0-1.81-0.776-1.86-1.77-5e-3 -0.12-0.131-2.97 0.493-5.5 0.383-1.56 1.81-2.64 3.46-3.9 1.72-1.31 3.68-2.8 3.68-4.38-2e-3 -1.36-0.403-2.37-1.2-3-0.961-0.766-2.47-0.964-4.26-0.555-2.49 0.57-2.62 3.58-2.62 3.61-0.0336 1.01-0.862 1.8-1.86 1.8l-0.0642-7.65e-4c-1.03-0.0336-1.83-0.896-1.8-1.92 5e-3 -0.151 0.0672-1.51 0.714-3.02 0.935-2.18 2.6-3.6 4.81-4.1 2.91-0.666 5.55-0.214 7.42 1.27 1.67 1.34 2.6 3.44 2.6 5.91 7.6e-4 3.43-2.98 5.7-5.15 7.35-0.396 0.302-0.896 0.683-1.31 1.03-0.517 0.437-0.864 1.04-0.97 1.71-0.279 1.75-0.205 3.49-0.205 3.51 0.0458 1.03-0.748 1.9-1.78 1.95l-0.0876 0.0023" style="fill:#ff6161"/><path d="m266 31.6c-1.03 0-1.87-0.834-1.87-1.86v-0.896c0-1.03 0.835-1.86 1.87-1.86 1.03 0 1.86 0.834 1.86 1.86v0.896c0 1.03-0.835 1.86-1.86 1.86" style="fill:#ff6161"/><g transform="matrix(.102 0 0 -.102 -161 315)"><g clip-path="url(#clipPath1306)"><path d="m4155 3015c-0.15 0-0.3 0.02-0.44 0.05-4.85 1.12-8.06 4.02-3.62 9.84 0 0 15.2 26.3 57 30.2 2.8 0.26 5.49 0.38 8.06 0.38 35.6 0 48.6-23.3 48.6-23.3s-23.5 10.2-48.2 10.2c-6.12 0-12.3-0.63-18.2-2.2-28.9-7.69-38.2-25.2-43.2-25.2" style="fill:url(#linearGradient1312)"/></g></g><g transform="matrix(.102 0 0 -.102 -161 315)"><g clip-path="url(#clipPath1322)"><path d="m4152 2967c-5.49 0-12 4.35-14.2 12.9-2.76 10.4 3.99 26.5 3.99 26.5s19.6-36.4 13.7-38.8c-1.07-0.43-2.24-0.65-3.46-0.65" style="fill:url(#linearGradient1328)"/></g></g><g transform="matrix(.102 0 0 -.102 -161 315)"><g clip-path="url(#clipPath1338)"><path d="m4183 2847c-1.05 0-2.09 0.61-2.46 1.84-0.52 1.77-0.87 3.75-0.81 5.83 0.19 7.1 1.69 47.2 6.92 55.5 11 17.6 60.2 52.3 63 57.4 1.82 3.28 6.52 8.5 8.91 8.5 1.31 0 1.92-1.56 1-5.86-2.62-12.2-31.2-39.2-38.5-45-7.29-5.79-21.5-9.33-28.4-41.6-2.62-12.3-5.43-26.2-7.11-34.5-0.27-1.37-1.4-2.07-2.52-2.07" style="fill:url(#linearGradient1344)"/></g></g><g transform="matrix(.102 0 0 -.102 -161 315)"><g clip-path="url(#clipPath1354)"><path d="m4181 2785c-0.3 0-0.57 0.09-0.82 0.29-5.16 4.17-4.54 18.8-1.93 25.9 2.62 7.1 11.1 9.59 11.1 9.59 0.38 0.06 0.72 0.09 1.05 0.09 5.66 0 4.77-8.97 1.73-18-3.04-8.97-8.22-17.9-11.1-17.9" style="fill:url(#linearGradient1360)"/></g></g><path d="m240 112-0.408 1.42s0.37 0.446 1.7 0.948c1.13 0.425 3.95 0.403 4.09 0.0917 0.144-0.31-1.08-2.45-1.08-2.45h-4.31" style="fill:#ff6161"/><g transform="matrix(.0595 0 0 .0595 255 132)"><path d="m621-94.4h347v427h-347z" fill="#35495e" style="stroke-width:1.33"/><path d="m922-26.4v278c0 6.39-5.18 11.6-11.6 11.6h-231c-6.39 0-11.6-5.18-11.6-11.6v-278c0-6.39 5.18-11.6 11.6-11.6h231c6.39 0 11.6 5.18 11.6 11.6z" fill="#f0c419" style="stroke-width:1.33"/><path d="m915-37.1c-56.6 5.2-213 36.7-247 227v-216c0-6.39 5.18-11.6 11.6-11.6h231c1.55 0.0053 3.08 0.318 4.51 0.927z" fill="#f3d55b" style="stroke-width:1.33"/><path d="m610 309h370c12.8 0 23.1 10.4 23.1 23.1v23.1h-417v-23.1c0-12.8 10.4-23.1 23.1-23.1z" fill="#2c3e50" style="stroke-width:1.33"/><path d="m598-131h393c6.39 0 11.6 5.18 11.6 11.6v11.6c0 12.8-10.4 23.1-23.1 23.1h-370c-12.8 0-23.1-10.4-23.1-23.1v-11.6c0-6.39 5.18-11.6 11.6-11.6z" fill="#2c3e50" style="stroke-width:1.33"/><path d="m795 159c-6.39 0-11.6-5.18-11.6-11.6v-46.3c0-6.39 5.18-11.6 11.6-11.6s11.6 5.18 11.6 11.6v46.3c0 6.39-5.18 11.6-11.6 11.6z" fill="#b19046" style="stroke-width:1.33"/><path d="m795-165c-44.7 0-81-36.3-81-81 0-44.7 36.3-81 81-81 44.7 0 81 36.3 81 81-0.0521 44.7-36.3 80.9-81 81zm0-139c-32 0-57.9 25.9-57.9 57.9 0 32 25.9 57.9 57.9 57.9 32 0 57.9-25.9 57.9-57.9-0.0364-31.9-25.9-57.8-57.9-57.9z" fill="#95a5a5" style="stroke-width:1.33"/><path d="m795-177c19.2 0 34.7 15.5 34.7 34.7v11.6h-69.4v-11.6c0-19.2 15.5-34.7 34.7-34.7z" fill="#7f8c8d" style="stroke-width:1.33"/><path d="m830 73.1c-2.12 17.1-17.5 29.5-34.7 27.8-17.2 1.69-32.6-10.6-34.7-27.8 0-15.3 34.7-64.8 34.7-64.8s34.7 49.5 34.7 64.8z" fill="#f29c1f" style="stroke-width:1.33"/><path d="m853 170v92.6h-116v-92.6c0.0416-12.8 10.4-23.1 23.1-23.1h69.4c12.8 0.0365 23.1 10.4 23.1 23.1z" fill="#f9eab0" style="stroke-width:1.33"/><g transform="matrix(1.33 0 0 1.33 587 -327)" fill="#cbb292"><path d="m174 356v26c0 4.79-3.88 8.68-8.68 8.68s-8.68-3.88-8.68-8.68v-26z"/><path d="m165 417c-1.14-0.0156-2.25-0.25-3.3-0.695-2.18-0.789-3.89-2.5-4.68-4.69-0.926-2.1-0.926-4.49 0-6.59 0.438-1.05 1.05-2.02 1.82-2.86 0.832-0.785 1.8-1.4 2.86-1.82 3.23-1.36 6.96-0.637 9.46 1.82 1.59 1.66 2.48 3.86 2.52 6.16-0.0117 1.14-0.25 2.25-0.695 3.3-0.418 1.06-1.04 2.04-1.82 2.87-1.66 1.58-3.86 2.48-6.16 2.52z"/></g></g><path d="m298 113s2.25 4.09 4.98 2.65c0.683-0.359-1.82-1.63-2.3-2.28-0.329-0.448-0.521-2.12-0.601-2.14-0.0815-0.0204-3.42-1.18-2.08 1.77" style="fill:#ff6161"/></svg>
