<svg width="512" height="200" version="1.1" viewBox="0 0 512 200" xml:space="preserve" xmlns="http://www.w3.org/2000/svg" xmlns:xlink="http://www.w3.org/1999/xlink"><path d="m300 190s-0.036 3.95-0.736 4.93c0.229 0.357 0.648 0.732 1.42 0.853 0.879 0.138 2.59 0.186 4.08 0.0693-0.204-1.59 0.0841-4.34 0.141-5.21l-4.9-0.639" style="fill:#fcb431;stroke-width:.186"/><path d="m300 199c-2.68-0.173-5.63-0.8-7.09-1.14-0.0572 0.154-0.108 0.324-0.139 0.526-0.149 0.954 9.53 2.43 11.3 1.77 0.476-0.179 0.756-0.652 0.869-1.26-1.29 0.128-3.06 0.227-4.94 0.106" style="fill:#4d4d4d;stroke-width:.186"/><path d="m300 199c1.88 0.121 3.65 0.0218 4.94-0.106 0.108-0.572 0.066-1.26-0.103-1.93-0.0371-0.144-0.0646-0.313-0.0874-0.493-1.49 0.117-3.2 0.0682-4.08-0.0693-0.771-0.121-1.19-0.497-1.42-0.853-0.0167 0.0222-0.0323 0.0445-0.0486 0.0642-0.326 0.374-1.14 0.564-2.26 0.842-1.63 0.541-3.46-0.149-4.04 1.41 1.46 0.341 4.42 0.968 7.09 1.14" style="fill:#1a1a1a;stroke-width:.186"/><path d="m345 183s3.02 2.55 3.33 3.71c0.421 0.0506 0.977-0.0325 1.56-0.549 0.667-0.589 1.79-1.87 2.66-3.1-1.35-0.855-3.29-2.83-3.92-3.44l-3.62 3.37" style="fill:#fcb431;stroke-width:.186"/><path d="m352 189c-1.84 1.95-4.21 3.82-5.4 4.73 0.0817 0.143 0.18 0.288 0.315 0.442 0.64 0.724 7.96-5.79 8.58-7.58 0.167-0.48-0.0198-0.997-0.413-1.47-0.727 1.08-1.78 2.5-3.07 3.87" style="fill:#4d4d4d;stroke-width:.186"/><path d="m352 189c1.29-1.37 2.35-2.79 3.07-3.87-0.372-0.448-0.929-0.855-1.55-1.15-0.135-0.0651-0.283-0.151-0.435-0.248-0.862 1.22-1.99 2.51-2.66 3.1-0.585 0.516-1.14 0.6-1.56 0.549 6e-3 0.0255 0.0142 0.0522 0.0184 0.0774 0.0797 0.489-0.291 1.23-0.792 2.27-0.627 1.6-2.32 2.57-1.5 4.01 1.2-0.908 3.56-2.78 5.4-4.73" style="fill:#1a1a1a;stroke-width:.186"/><path d="m308 94.3s-13.7 6.97-13.4 9.53c0.321 2.57 12.4 6.91 13.7 6.51 1.26-0.401-0.306-16-0.306-16" style="fill:url(#linearGradient13088);stroke-width:.186"/><path d="m315 129s2.84 26.1 4.78 30.7c3.19 7.49 18.6 26.8 27.5 27 0.987 0.0245 2.35-1.3 2.94-1.5 0.98-0.335 1.45-0.954 1.56-1.76 0.409-3.07-4.52-8.85-6.52-11.7-1.57-2.26-11.7-13.9-12.2-18.6-0.268-2.6 0.464-21.9-1.69-25.5-2.16-3.57-16.4 1.33-16.4 1.33" style="fill:#ffc300;stroke-width:.186"/><path d="m305 127s-10.1 24-10.3 32.5c-0.159 8.49 0.534 31.3 3.16 33.9 1.16 1.15 4.61 1.43 5.71 0.912 1.3-0.615 2.18-1.71 2.64-3.07 1.46-4.37 1.02-31.8 1.83-33.6 0.817-1.72 12.2-24.2 11-29.2-1.28-5.02-14-1.48-14-1.48" style="fill:#ffc300;stroke-width:.186"/><path d="m345 171c-1.57-2.26-11.7-13.9-12.2-18.6-0.249-2.41 0.361-19.1-1.26-24.4l-1.86-1.29-3.33-1.02c-1.14 0.0664-2.39 0.243-3.62 0.475 1.01 3.39 3.2 10.8 4.08 14 1.16 4.17-1.49 8.24-0.673 12.2 0.821 4 4.63 6.57 7.47 10 2.83 3.43 3.37 10.1 7.14 14.4 1.71 1.95 5.88 4.94 10.1 7.23 2.84-2.35-3.49-9.66-5.83-13" style="fill:#f4bb00;stroke-width:.186"/><path d="m306 191c1.46-4.37 1.02-31.8 1.83-33.6 0.522-1.1 5.36-10.6 8.47-18.7-0.0612-0.455-0.161-0.827-0.314-1.08-1.19-1.95-6.63-1.12-8.21 3.03-1.58 4.15-2.09 11.2-3.82 13.4-1.73 2.21-2.59 4.43-2.79 9.74-0.206 5.31 0.371 16.4-0.335 19.8-0.705 3.44 2.66 9.64 3.63 9.71 0.714-0.614 1.23-1.42 1.55-2.36" style="fill:#f4bb00;stroke-width:.186"/><path d="m300 138c4.14-10.9 5.26-24.3 5-28.1-0.25-3.56-1.6-13.6 4.15-16.7 10-5.48 24.2-0.99 26.8 7.59 0.824 2.82-2.05 10.1-3.98 14.5-0.998 2.27-1.23 4.81-0.643 7.22 1.15 4.71 2.88 13 2.73 19.5-3.68 1.8-21.7 4.54-34-4" style="fill:#035000;stroke-width:.186"/><g transform="matrix(3.46 0 0 3.46 412 23)"><path d="m-27.3 21.5c0.9 0.0998 1.79 0.672 2.08 1.56 0.243 0.695-0.0185 1.51-0.586 1.96-0.157 0.0917-0.29 0.229-0.28 0.422-0.027 0.161-0.0232 0.331-0.0717 0.486-0.212 0.144-0.426-0.175-0.632-0.244-0.198-0.174-0.455-0.0829-0.69-0.0912-0.959-0.0013-1.96-0.533-2.34-1.44-0.294-0.668-0.113-1.5 0.418-2 0.546-0.538 1.35-0.751 2.1-0.659z" style="fill:none;stroke-width:.313;stroke:#ffc300"/><g transform="matrix(.0746 0 0 .0746 -34.2 20.9)"><g transform="matrix(1.33 .158 -.158 1.33 4740 -1e3)" style="fill:#ffc300;shape-inside:url(#rect3271);stroke-width:.426;stroke:#ffc300;white-space:pre" aria-label="пе"><path d="m-3349 1181c0.407 3.15-1.49 6.18-4.11 7.8-4.11 2.78-9.26 3.35-14.1 3.19-4.23-0.23-8.7-1.6-11.5-4.92-1.57-1.9-1.93-4.78-0.523-6.87 1.86-2.9 5.39-3.98 8.6-4.54 2.81-0.47 5.74-0.435 8.47 0.422 0.883 1.2-1.7 1.18-2.48 1.26-3.63 0.393-7.54 0.646-10.6 2.88-1.43 1.02-1.69 3.18-0.332 4.37 2.07 2.3 5.36 2.66 8.27 2.9 4.17 0.286 8.53-0.1 12.3-1.99 1.52-0.849 2.76-2.47 2.57-4.29 0.123-1.23 1.68-2.51 2.82-1.62 0.402 0.348 0.536 0.892 0.615 1.39z" style="fill:#ffc300;stroke-width:.55;stroke:#ffc300"/></g><path d="m91.1 50.6a4.84 4.84 0 0 1-5.37 4.23 4.84 4.84 0 0 1-4.23-5.38 4.84 4.84 0 0 1 5.38-4.23 4.84 4.84 0 0 1 4.23 5.38z" style="fill:#ffc300;paint-order:markers fill stroke"/></g></g><path d="m260 88c-4.27 6.34-5.38 13.1-2.48 15v9.1e-4l65.1 43.8 4.4e-4 4.7e-4c2.9 1.95 8.72-1.61 13-7.95 4.27-6.34 5.38-13.1 2.48-15l-65.1-43.8c-2.9-1.95-8.72 1.61-13 7.95" style="fill:#b06328;stroke-width:.186"/><path d="m273 79.8c2.65 1.78 1.35 8.35-2.91 14.7-4.25 6.32-9.85 9.99-12.5 8.21-2.65-1.78-1.35-8.35 2.91-14.7 4.25-6.32 9.85-9.99 12.5-8.21" style="fill:#a35425;stroke-width:.186"/><path d="m325 132-47.8-30.2c-2.73-1.72-6.07-0.971-7.79 1.76l-2.87 4.55 50.3 34.3c2.73 1.72 5.66 4.85 8.72 4.55 4.42-0.524 8.24-4.92 10.8-8.37 2.97-4 5.05-10.1 3.27-14.3-11.4-6.98-3.08 13.2-14.6 7.69z" style="fill:#a35425;stroke-width:.327"/><path d="m328 101c-2.22 8.36 2.42 17.4 1.6 23.1-0.702 4.93-9.63 16.2-8.25 18.2 2.5 3.49 10.5-4.04 13.4-7.73 8.92-11.3 3.79-24.1 1.99-30.1-2.38-7.89-7.02-9.79-8.71-3.43" style="fill:#ff6161;stroke-width:.186"/><path d="m324 143s-1.09 2.81-3.63 3.51c-2.25 0.616-4.28 0.13-4.67-1.33-0.323-1.21 3.12-1.42 3.77-2.42 0.652-1 1.27-2.85 2.66-2.29 1.38 0.56 2.67 1.45 1.87 2.53" style="fill:#ff6161;stroke-width:.186"/><path d="m321 140s-2.37 0.303-3.33 0.874c-0.954 0.57-2.39-0.0486-2.15 0.671 0.237 0.72 1.57 1.02 2.17 0.762 0.597-0.261 1.61 1.22 2.51 0.732 0.894-0.484 2.01-3.16 0.807-3.04" style="fill:#ff6161;stroke-width:.186"/><path d="m337 104c-3.28-8.9-7.45-9.28-9.14-2.91-0.918 3.46-0.801 8.02-0.349 12.2 2.31 0.164 7.52 0.389 11.5-1.91-0.578-2.63-1.44-5.73-2.04-7.35" style="fill:url(#linearGradient13080);stroke-width:.186"/><path d="m284 122c-0.655-0.0221-1.27-0.305-1.76-0.748-0.588-0.54-1.41-1.37-1.51-1.93-0.165-0.88 0.344-2.92 0.572-2.64 0.228 0.28 0.123 1.52 0.123 1.52s0.642-1.36 1.12-1.73c0.478-0.368 1.17 0.394 1.29 0.898 0.128 0.504 1.39 3.29 1.13 4.17-0.114 0.383-0.534 0.477-0.97 0.464" style="fill:#ff6161;stroke-width:.186"/><path d="m292 105c-0.391 0.0873-1.17 0.262-1.65-0.0423l-12-7.59c-0.956-0.607-1.22-1.78-0.61-2.74 0.607-0.956 1.78-1.22 2.74-0.61l12 7.59c0.956 0.607 1.22 1.78 0.61 2.74 0.0871 0.391-0.695 0.565-1.09 0.653z" style="fill:#a35425;stroke-width:.344"/><rect transform="rotate(129)" x="-98.8" y="-265" width="9.68" height="14.5" style="fill:#b0c4d8;stroke-width:.297"/><path d="m264 90.6 1.91 1.53 3.06-3.82-11.5-9.17-6.11 7.64 5.73 4.58c1.83-2.29 4.58-2.6 6.87-0.762z" style="fill:#99b4cd;stroke-width:.297"/><path d="m210 0.809c-28.5 3.16-49 28.7-45.8 57.3 3.16 28.5 28.7 49 57.3 45.8 28.5-3.16 49-28.7 45.8-57.3-3.16-28.5-28.7-49-57.3-45.8zm10.3 92.8c-22.7 2.52-43.3-14-45.8-36.7-2.52-22.7 14-43.3 36.7-45.8 22.7-2.52 43.3 14 45.8 36.7 2.52 22.7-14 43.3-36.7 45.8z" style="fill:#c4d7e5;stroke-width:.297"/><circle transform="rotate(-6.33)" cx="209" cy="75.8" r="41.5" style="fill:#70b7e5;stroke-width:.297"/><path d="m196 59.4c0.27-13.3 9.44-24.7 22.3-27.9l0.344-0.0381c5.77-1.34 5.19-9.62-0.418-10-3.51-0.306-6.95 0.0752-10.3 0.8-13.2 3.55-22.6 15.4-22.9 28.6-0.306 3.51 0.457 7.26 1.49 10.3 1.68 5.73 9.85 4.13 9.89-1.79-0.305 0.382-0.344 0.0378-0.344 0.0378z" style="fill:#92c5eb;stroke-width:.297"/><path d="m178 60c-2.52-22.7 14-43.3 36.7-45.8 10.7-1.18 20.4 1.91 28.6 7.26-8.51-7.75-20.1-11.7-32.5-10.3-22.7 2.52-39.2 23.1-36.7 45.8 1.37 12.4 8.09 22.8 17.2 29.4-7.02-6.87-12.2-15.7-13.4-26.4z" style="fill:#4c9cd6;stroke-width:.297"/><path d="m222 104c28.5-3.16 49-28.7 45.8-57.3-1.72 0.191-3.28 1.76-3.06 3.82 0.609 11.8-3.36 23-10.4 31.8-6.99 9.13-17.4 15.5-29.3 17.9-2.06 0.229-3.25 2.1-3.06 3.82z" style="fill:#b0c9db;stroke-width:.297"/><path d="m210 0.809c-28.5 3.16-49 28.7-45.8 57.3 1.72-0.191 3.28-1.76 3.06-3.82-0.57-11.4 3.1-22.3 9.48-30.6 7.3-9.51 18-16.6 30.2-19 2.06-0.229 3.25-2.1 3.06-3.82z" style="fill:#e2e7f0;stroke-width:.297"/><path d="m319 84.5s-2.02-3.05 1.11-3.97c1.69-0.494 3.46 2.35 3.46 2.35s1.47 0.722 1.67 2.43c0.208 1.73-2.06 4.07-2.06 4.07s-4.35-2.88-4.18-4.89" style="stroke-width:.186"/><path d="m324 87.4 0.399 5.96c-0.199 0.773-4.91 1.81-5.87 0.51-0.281-0.381 0.0149-1.09 0.563-1.8l3.15-3.83 1.75-0.844" style="fill:#ff6161;stroke-width:.186"/><path d="m323 85.3 0.401 3.3c0.0447 1.09-0.788 2.03-1.88 2.1-0.874 0.0608-1.41-0.0451-2.45-0.385-0.863-0.282-1.15-1.22-0.918-2.38 0.298-1.5 1-2.8 1.41-3.48 0.945-1.54 3.02-1.28 3.43 0.844" style="fill:#ff6161;stroke-width:.186"/><path d="m323 88.6-0.401-3.3c-0.0511-0.261-0.127-0.492-0.222-0.697-0.0781 0.63-0.336 1.97-0.551 2.16-0.547 0.495-0.408-0.0306-1.44-0.268-0.658-0.151-1.63-0.0262-2.25 0.0851-0.153 0.423-0.291 0.877-0.386 1.36-0.229 1.16 0.0554 2.1 0.918 2.38 1.04 0.34 1.57 0.446 2.45 0.385 1.09-0.0738 1.93-1.01 1.88-2.1" style="fill:#1a1a1a;stroke-width:.186"/><path d="m321 87.2s-0.768 0.0366-1.78-0.297c0 0-0.161 0.669 0.201 0.984 0.362 0.315 1.17 0.069 1.58-0.687" style="fill:#fff;stroke-width:.186"/><path d="m323 86.5c0.082-0.188 0.134-0.387 0.173-0.588 0.0772-0.384 0.279-0.936 0.793-0.543 0.745 0.572 0.387 2.44-0.591 2.4-0.727-0.0253-0.581-0.798-0.375-1.27" style="fill:#ff6161;stroke-width:.186"/><defs><linearGradient id="linearGradient13088" x1="619" x2="736" y1="373" y2="335" gradientTransform="matrix(.154 .0163 -.0163 .154 206 33.6)" gradientUnits="userSpaceOnUse"><stop style="stop-color:#023800" offset="0"/><stop style="stop-color:#035000" offset="1"/></linearGradient><linearGradient id="linearGradient13080" x1="827" x2="907" y1="376" y2="376" gradientTransform="matrix(.154 .0163 -.0163 .154 206 33.6)" gradientUnits="userSpaceOnUse"><stop style="stop-color:#035000" offset="0"/><stop style="stop-color:#023800" offset="1"/></linearGradient></defs></svg>