<?xml version="1.0" encoding="UTF-8" standalone="no"?>
<svg
   xmlns:dc="http://purl.org/dc/elements/1.1/"
   xmlns:cc="http://creativecommons.org/ns#"
   xmlns:rdf="http://www.w3.org/1999/02/22-rdf-syntax-ns#"
   xmlns:svg="http://www.w3.org/2000/svg"
   xmlns="http://www.w3.org/2000/svg"
   xmlns:xlink="http://www.w3.org/1999/xlink"
   xmlns:sodipodi="http://sodipodi.sourceforge.net/DTD/sodipodi-0.dtd"
   xmlns:inkscape="http://www.inkscape.org/namespaces/inkscape"
   inkscape:version="1.0 (4035a4f, 2020-05-01)"
   sodipodi:docname="NotFound.svg"
   id="svg990"
   xml:space="preserve"
   viewBox="0 0 512 200"
   version="1.1"
   height="200"
   width="512"><g
     id="g1989"><path
       id="path860"
       style="fill:#fcb431;stroke-width:0.186474"
       d="m 300.38311,190.32487 c 0,0 -0.036,3.95177 -0.73591,4.92982 0.22884,0.35652 0.64841,0.73232 1.41932,0.85302 0.87926,0.1375 2.58806,0.18597 4.07893,0.0693 -0.20441,-1.58632 0.0841,-4.33776 0.14126,-5.21307 l -4.9035,-0.63897" /><path
       id="path862-3"
       style="fill:#4d4d4d;stroke-width:0.186474"
       d="m 300.39431,198.69755 c -2.67648,-0.1731 -5.63208,-0.79955 -7.09308,-1.14078 -0.0572,0.1539 -0.10803,0.32354 -0.13916,0.5255 -0.14901,0.95447 9.53423,2.42975 11.30498,1.76693 0.4765,-0.17881 0.75583,-0.65212 0.8688,-1.25772 -1.29299,0.12795 -3.06264,0.22674 -4.94159,0.10614" /><path
       id="path864"
       style="fill:#1a1a1a;stroke-width:0.186474"
       d="m 300.39431,198.69755 c 1.87892,0.12067 3.64855,0.0218 4.94156,-0.10611 0.10771,-0.57234 0.066,-1.26177 -0.10293,-1.93187 -0.0371,-0.14431 -0.0646,-0.31337 -0.0874,-0.49257 -1.49082,0.11675 -3.1997,0.0682 -4.07895,-0.0693 -0.77086,-0.12073 -1.19044,-0.49651 -1.41927,-0.85303 -0.0167,0.0222 -0.0323,0.0445 -0.0486,0.0642 -0.32565,0.37424 -1.13566,0.56393 -2.25519,0.84171 -1.63431,0.54051 -3.46095,-0.14865 -4.04224,1.40606 1.46106,0.34122 4.41648,0.96767 7.09315,1.14076" /><path
       id="path866"
       style="fill:#fcb431;stroke-width:0.186474"
       d="m 345.27491,183.37684 c 0,0 3.0194,2.54891 3.3254,3.71327 0.42113,0.0506 0.97725,-0.0325 1.56234,-0.54901 0.6674,-0.58865 1.79499,-1.87407 2.65724,-3.09603 -1.35158,-0.85475 -3.28604,-2.83384 -3.92341,-3.43522 l -3.6217,3.36697" /><path
       id="path868"
       style="fill:#4d4d4d;stroke-width:0.186474"
       d="m 351.74556,188.7212 c -1.84124,1.94995 -4.20947,3.82457 -5.40457,4.73233 0.0817,0.14281 0.18006,0.2883 0.31486,0.44202 0.64035,0.72439 7.9561,-5.78891 8.5754,-7.57589 0.16715,-0.47988 -0.0198,-0.99723 -0.41291,-1.47153 -0.72717,1.0781 -1.77979,2.50283 -3.0727,3.87307" /><path
       id="path870"
       style="fill:#1a1a1a;stroke-width:0.186474"
       d="m 351.74556,188.7212 c 1.29299,-1.3701 2.34566,-2.79488 3.07273,-3.87307 -0.37196,-0.44809 -0.92948,-0.85538 -1.55287,-1.15239 -0.1353,-0.0651 -0.2826,-0.15073 -0.43493,-0.24773 -0.86235,1.22195 -1.98987,2.50735 -2.65725,3.09604 -0.58508,0.5165 -1.14125,0.59977 -1.56233,0.54899 0.006,0.0255 0.0142,0.0522 0.0184,0.0774 0.0797,0.48913 -0.29058,1.23446 -0.79152,2.27349 -0.62722,1.60313 -2.32272,2.57072 -1.49678,4.00957 1.19515,-0.90773 3.56333,-2.78237 5.40458,-4.73233" /><path
       id="path872"
       style="fill:url(#linearGradient13088);fill-opacity:1;stroke-width:0.186474"
       d="m 308.27285,94.335439 c 0,0 -13.69879,6.966111 -13.37862,9.531231 0.32105,2.56628 12.42442,6.91354 13.68424,6.51188 1.26055,-0.40058 -0.30555,-16.043302 -0.30555,-16.043302" /><path
       id="path874"
       style="fill:#ffc300;fill-opacity:1;stroke-width:0.186474"
       d="m 314.82928,128.61684 c 0,0 2.84018,26.11012 4.78008,30.66568 3.1913,7.4903 18.60956,26.79634 27.54969,27.0201 0.98722,0.0245 2.35107,-1.30161 2.93995,-1.50229 0.97998,-0.33519 1.4497,-0.95365 1.55676,-1.75528 0.4089,-3.07457 -4.51882,-8.84895 -6.52175,-11.73538 -1.56741,-2.25745 -11.72177,-13.90445 -12.20605,-18.57245 -0.26822,-2.60337 0.46358,-21.88275 -1.69252,-25.45372 -2.1577,-3.57191 -16.40618,1.33334 -16.40618,1.33334" /><path
       id="path876"
       style="fill:#ffc300;fill-opacity:1;stroke-width:0.186474"
       d="m 305.17363,126.59733 c 0,0 -10.11978,24.02347 -10.27768,32.5155 -0.15885,8.49334 0.53431,31.28476 3.16018,33.88236 1.15646,1.14506 4.61261,1.43179 5.70907,0.91166 1.29563,-0.61454 2.18137,-1.70515 2.63656,-3.06788 1.45783,-4.37169 1.01641,-31.84976 1.83244,-33.57279 0.8168,-1.72343 12.24445,-24.1596 10.96543,-29.1832 -1.27903,-5.02399 -14.02603,-1.48454 -14.02603,-1.48454" /><path
       id="path878"
       style="fill:#f4bb00;fill-opacity:1;stroke-width:0.186474"
       d="m 345.12574,171.3101 c -1.56742,-2.25746 -11.72178,-13.90444 -12.20586,-18.57338 -0.24869,-2.41018 0.36084,-19.12478 -1.2612,-24.41692 l -1.85821,-1.28954 -3.32596,-1.02108 c -1.14344,0.0664 -2.38556,0.24328 -3.61852,0.4753 1.00599,3.38954 3.19932,10.80524 4.078,13.97159 1.15797,4.16974 -1.49437,8.2427 -0.67334,12.2381 0.82102,3.99539 4.63425,6.57414 7.46977,10.0062 2.83442,3.4328 3.36587,10.12275 7.13524,14.40084 1.71489,1.94697 5.8844,4.93747 10.08658,7.23388 2.8361,-2.34939 -3.48723,-9.65582 -5.82618,-13.02559" /><path
       id="path880"
       style="fill:#f4bb00;fill-opacity:1;stroke-width:0.186474"
       d="m 306.40251,190.84699 c 1.45783,-4.37169 1.0164,-31.84977 1.83243,-33.57279 0.52166,-1.10074 5.36486,-10.63705 8.46799,-18.7015 -0.0612,-0.45516 -0.16122,-0.82739 -0.31414,-1.07814 -1.18556,-1.95312 -6.62525,-1.12059 -8.20841,3.02648 -1.58341,4.14794 -2.09187,11.20132 -3.82253,13.41701 -1.73066,2.21492 -2.58659,4.43435 -2.7941,9.74344 -0.20556,5.30836 0.3706,16.3771 -0.33451,19.81475 -0.70513,3.43859 2.66378,9.64499 3.62804,9.70971 0.71359,-0.61394 1.23267,-1.42176 1.54519,-2.35983" /><path
       id="path882"
       style="fill:#035000;fill-opacity:1;stroke-width:0.186474"
       d="m 300.14816,138.4403 c 4.14198,-10.90257 5.26286,-24.25468 4.99527,-28.06435 -0.25006,-3.55569 -1.60369,-13.583527 4.14793,-16.725255 10.02915,-5.478787 24.2491,-0.990063 26.75719,7.590805 0.82377,2.81932 -2.04787,10.10598 -3.9775,14.49446 -0.99837,2.272 -1.22938,4.80729 -0.64308,7.21768 1.14633,4.70772 2.881,12.99016 2.73033,19.48467 -3.67652,1.80372 -21.6571,4.53673 -34.00914,-3.9967" /><g
       id="layer1"
       inkscape:label="Layer 1"
       transform="matrix(3.4565086,0,0,3.4565086,411.98944,23.011147)"><path
         id="path11271"
         style="fill:none;fill-opacity:1;stroke:#ffc300;stroke-width:0.313135;stroke-miterlimit:4;stroke-dasharray:none;stroke-opacity:1"
         d="m -27.303008,21.526145 c 0.899692,0.09979 1.787679,0.672473 2.081412,1.556419 0.243282,0.695216 -0.0185,1.505217 -0.586012,1.963071 -0.15714,0.09168 -0.290265,0.228702 -0.279593,0.421604 -0.02697,0.161185 -0.02315,0.330612 -0.07173,0.486072 -0.211955,0.14388 -0.42633,-0.174912 -0.632006,-0.243676 -0.198275,-0.1739 -0.455301,-0.08287 -0.689668,-0.09121 -0.958953,-0.0013 -1.955734,-0.532702 -2.341129,-1.437805 -0.294016,-0.668259 -0.113117,-1.497114 0.417956,-1.995001 0.546061,-0.537541 1.351001,-0.751414 2.100718,-0.659461 z" /><g
         id="g11279"
         transform="matrix(0.07463875,0,0,0.07463875,-34.180311,20.934548)"><g
           style="font-style:normal;font-variant:normal;font-weight:normal;font-stretch:normal;font-size:35.2511px;line-height:1.45;font-family:Aviny;-inkscape-font-specification:Aviny;text-align:end;text-anchor:end;white-space:pre;shape-inside:url(#rect3271);fill:#ffc300;fill-opacity:1;stroke:#ffc300;stroke-width:0.425717;stroke-miterlimit:4;stroke-dasharray:none;stroke-opacity:1"
           id="g11275"
           transform="matrix(1.3264571,0.15848769,-0.15848769,1.3264571,4739.746,-1004.3099)"
           aria-label="пе"
           inkscape:export-xdpi="91.790001"
           inkscape:export-ydpi="91.790001"><path
             d="m -3349.2946,1180.9828 c 0.4071,3.1453 -1.4939,6.1785 -4.1099,7.7976 -4.1083,2.7756 -9.2568,3.3485 -14.0975,3.1924 -4.2287,-0.2299 -8.7035,-1.5956 -11.5241,-4.9229 -1.5656,-1.8972 -1.9308,-4.7815 -0.5234,-6.8688 1.8649,-2.8974 5.3879,-3.9804 8.6029,-4.5352 2.806,-0.4702 5.7391,-0.4354 8.4696,0.4222 0.8829,1.201 -1.6956,1.1788 -2.4838,1.2608 -3.6275,0.3927 -7.5363,0.6461 -10.5839,2.8799 -1.4265,1.0153 -1.6883,3.1803 -0.3319,4.3747 2.0672,2.3021 5.3586,2.6569 8.2657,2.9018 4.1678,0.2862 8.527,-0.1002 12.3093,-1.9894 1.5201,-0.8492 2.7558,-2.4729 2.5731,-4.2876 0.1226,-1.232 1.6798,-2.5128 2.8189,-1.6203 0.4019,0.348 0.5359,0.8917 0.615,1.3948 z"
             style="font-style:normal;font-variant:normal;font-weight:normal;font-stretch:normal;font-size:35.2511px;font-family:Aviny;-inkscape-font-specification:Aviny;fill:#ffc300;fill-opacity:1;stroke:#ffc300;stroke-width:0.549587;stroke-miterlimit:4;stroke-dasharray:none;stroke-opacity:1"
             id="path11273" /></g><path
           id="path11277"
           style="fill:#ffc300;fill-opacity:1;stroke:none;stroke-width:1.02373;stroke-linecap:round;stroke-linejoin:round;stroke-miterlimit:4;stroke-dasharray:none;stroke-opacity:1;paint-order:markers fill stroke"
           d="m 91.149422,50.572001 a 4.8362827,4.8362827 0 0 1 -5.373204,4.229164 4.8362827,4.8362827 0 0 1 -4.233599,-5.377004 4.8362827,4.8362827 0 0 1 5.381152,-4.2274 4.8362827,4.8362827 0 0 1 4.225651,5.37524 z"
           inkscape:export-xdpi="91.790001"
           inkscape:export-ydpi="91.790001" /></g></g><path
       id="path884-9"
       style="fill:#b06328;fill-opacity:1;stroke-width:0.186474"
       d="m 260.44407,88.047531 c -4.26986,6.344228 -5.37809,13.070149 -2.47692,15.023649 v 9.1e-4 l 65.08695,43.80837 4.4e-4,4.7e-4 c 2.90323,1.95182 8.71657,-1.60613 12.98644,-7.94959 4.26989,-6.34423 5.37904,-13.07017 2.476,-15.02385 l -65.0849,-43.808267 c -2.90208,-1.954428 -8.71634,1.605252 -12.98718,7.948465" /><path
       id="path886-0"
       style="fill:#a35425;fill-opacity:1;stroke-width:0.186474"
       d="m 272.93785,79.835202 c 2.64758,1.781812 1.34583,8.346959 -2.90618,14.664709 -4.25293,6.317539 -9.84603,9.994819 -12.49267,8.213249 -2.64756,-1.78181 -1.34573,-8.347697 2.90637,-14.66545 4.252,-6.316806 9.84602,-9.994074 12.49266,-8.212317" /><path
       id="path888-5"
       style="fill:#a35425;fill-opacity:1;stroke-width:0.32702"
       d="M 324.82241,132.46008 277.05145,102.2811 c -2.72979,-1.72453 -6.07066,-0.97055 -7.7948,1.75919 l -2.87409,4.54941 50.26036,34.29819 c 2.7298,1.72454 5.66435,4.85021 8.71747,4.55147 4.41685,-0.52372 8.24236,-4.91677 10.81104,-8.37194 2.97351,-3.99969 5.05269,-10.12461 3.273,-14.30182 -11.42341,-6.97861 -3.07535,13.23854 -14.62294,7.69484 z" /><path
       id="path890-2"
       style="fill:#ff6161;stroke-width:0.186474"
       d="m 327.65496,101.09327 c -2.21792,8.35534 2.41782,17.39169 1.60256,23.13024 -0.70171,4.93429 -9.62653,16.23054 -8.25073,18.15046 2.49968,3.48987 10.45803,-4.04106 13.36964,-7.73476 8.91756,-11.313 3.7897,-24.13721 1.98836,-30.1193 -2.3753,-7.888052 -7.01962,-9.793253 -8.70983,-3.42647" /><path
       id="path892-2"
       style="fill:#ff6161;stroke-width:0.186474"
       d="m 324.42337,142.57629 c 0,0 -1.09487,2.81446 -3.63401,3.50891 -2.25448,0.61611 -4.27866,0.13 -4.66539,-1.32723 -0.32287,-1.21409 3.121,-1.41646 3.77274,-2.41894 0.65175,-1.00346 1.27461,-2.85045 2.65893,-2.28898 1.38362,0.56049 2.66509,1.44869 1.86773,2.52655" /><path
       id="path894-7"
       style="fill:#ff6161;stroke-width:0.186474"
       d="m 321.45097,140.29199 c 0,0 -2.37327,0.30325 -3.32838,0.87385 -0.95414,0.56986 -2.39022,-0.0486 -2.15284,0.67132 0.23743,0.71992 1.56743,1.02332 2.16646,0.76153 0.59715,-0.26112 1.61272,1.21645 2.50808,0.73192 0.89439,-0.48375 2.0141,-3.16316 0.80671,-3.0386" /><path
       id="path896-3"
       style="fill:url(#linearGradient13080);fill-opacity:1;stroke-width:0.186474"
       d="m 336.7922,104.00599 c -3.27562,-8.901163 -7.44703,-9.279704 -9.13743,-2.91291 -0.91801,3.4604 -0.80089,8.02025 -0.34874,12.17657 2.30781,0.16429 7.51641,0.38948 11.52801,-1.911 -0.57814,-2.62984 -1.44446,-5.72736 -2.04187,-7.35266" /><path
       id="path898-7"
       style="fill:#ff6161;stroke-width:0.186474"
       d="m 284.35379,122.21332 c -0.65513,-0.0221 -1.27289,-0.3053 -1.75646,-0.74832 -0.58787,-0.54023 -1.40581,-1.37492 -1.51048,-1.93074 -0.16539,-0.88026 0.3436,-2.9189 0.57174,-2.63975 0.22801,0.28004 0.12292,1.51639 0.12292,1.51639 0,0 0.64171,-1.3617 1.12133,-1.72943 0.47786,-0.36791 1.1667,0.3936 1.29373,0.89751 0.12789,0.504 1.38926,3.29408 1.12686,4.16994 -0.1143,0.38329 -0.53389,0.47748 -0.96964,0.46422" /><path
       id="path900-9"
       style="fill:#a35425;fill-opacity:1;stroke-width:0.344194"
       d="m 292.26779,104.50015 c -0.39106,0.0873 -1.17279,0.26155 -1.65107,-0.0423 l -11.95263,-7.59342 c -0.95611,-0.607403 -1.21768,-1.7802 -0.61027,-2.736321 0.60743,-0.95609 1.7802,-1.21765 2.73634,-0.610252 l 11.95262,7.593413 c 0.95612,0.60741 1.21767,1.78019 0.61028,2.73633 0.0871,0.39103 -0.69456,0.56537 -1.08527,0.65252 z" /><rect
       id="rect902"
       style="fill:#b0c4d8;stroke-width:0.297165"
       height="14.522793"
       width="9.6817369"
       y="-264.75864"
       x="-98.842705"
       transform="rotate(128.67)" /><path
       id="path904"
       style="fill:#99b4cd;stroke-width:0.297165"
       d="m 263.59735,90.55561 1.90894,1.527718 3.05539,-3.817878 -11.45397,-9.166689 -6.11115,7.636127 5.72717,4.583153 c 1.8334,-2.290835 4.58278,-2.59591 6.87362,-0.762476 z" /><path
       id="path906-0"
       style="fill:#c4d7e5;stroke-width:0.297165"
       d="M 210.15202,0.80924868 C 181.62706,3.9735377 161.15405,29.554248 164.31853,58.079193 c 3.16426,28.524954 28.74497,48.997937 57.26994,45.833477 28.52495,-3.16428 48.99797,-28.74499 45.83349,-57.269933 C 264.25766,18.11778 238.67698,-2.3552078 210.15202,0.80924868 Z M 220.44518,93.602513 c -22.68268,2.516102 -43.29927,-13.983882 -45.8167,-36.666405 -2.51607,-22.682715 13.98388,-43.30116 36.6664,-45.816692 22.68275,-2.5161063 43.29934,13.983881 45.81674,36.666405 2.51607,22.682715 -13.98391,43.301159 -36.66644,45.816692 z" /><circle
       id="circle908"
       style="fill:#70b7e5;stroke-width:0.297165"
       r="41.494232"
       cy="75.841949"
       cx="208.78197"
       transform="rotate(-6.3297)" /><path
       id="path910-2"
       style="fill:#92c5eb;stroke-width:0.297165"
       d="m 196.12729,59.421884 c 0.26964,-13.250476 9.4363,-24.704098 22.30601,-27.872288 l 0.34382,-0.03811 c 5.76632,-1.335384 5.19477,-9.622065 -0.41828,-10.042761 -3.51301,-0.306054 -6.94988,0.0752 -10.34859,0.799911 -13.1748,3.548967 -22.64729,15.38486 -22.91767,28.634966 -0.30606,3.512981 0.45677,7.255339 1.48746,10.272304 1.67918,5.728295 9.85129,4.125922 9.89044,-1.79284 -0.30538,0.381597 -0.34356,0.03778 -0.34356,0.03778 z" /><path
       id="path912-3"
       style="fill:#4c9cd6;stroke-width:0.297165"
       d="m 178.44764,59.992499 c -2.51606,-22.682715 13.98392,-43.299294 36.66645,-45.816703 10.65419,-1.181835 20.39094,1.913036 28.6387,7.260564 -8.51404,-7.753229 -20.08328,-11.6883917 -32.45584,-10.315945 -22.68269,2.516096 -39.18196,23.133989 -36.66638,45.816705 1.37241,12.37256 8.09108,22.761035 17.17818,29.406964 C 184.7839,79.469342 179.6303,70.647435 178.44842,59.993432 Z" /><path
       id="path914-9"
       style="fill:#b0c9db;stroke-width:0.297165"
       d="m 221.5903,103.91274 c 28.52498,-3.16427 48.99799,-28.744981 45.83349,-57.269925 -1.71833,0.190614 -3.28418,1.75608 -3.05552,3.817867 0.60889,11.761485 -3.3646,22.986666 -10.39222,31.769599 -6.9898,9.125115 -17.41559,15.500292 -29.33054,17.865709 -2.06219,0.22875 -3.24631,2.09952 -3.05576,3.81787 z" /><path
       id="path916"
       style="fill:#e2e7f0;stroke-width:0.297165"
       d="M 210.15202,0.80924868 C 181.62706,3.9735377 161.15405,29.554248 164.31853,58.079193 c 1.71833,-0.190614 3.28417,-1.756081 3.05534,-3.817867 -0.57049,-11.417627 3.09735,-22.261287 9.47588,-30.622782 7.29528,-9.507018 17.98843,-16.6075809 30.24615,-19.0110464 2.06219,-0.2287449 3.24613,-2.0995123 3.05557,-3.81786664 z" /><path
       id="path946"
       style="fill:#000000;stroke-width:0.186474"
       d="m 319.4501,84.469089 c 0,0 -2.01709,-3.052389 1.11399,-3.972834 1.68545,-0.494486 3.45911,2.354992 3.45911,2.354992 0,0 1.46939,0.722309 1.67323,2.430489 0.2083,1.733316 -2.06241,4.074469 -2.06241,4.074469 0,0 -4.34821,-2.884945 -4.18392,-4.887307" /><path
       id="path948"
       style="fill:#ff6161;stroke-width:0.186474"
       d="m 323.50405,87.407915 0.39928,5.964009 c -0.19861,0.772671 -4.91081,1.806964 -5.86703,0.509709 -0.28056,-0.380711 0.0149,-1.091419 0.56268,-1.80324 l 3.15104,-3.826084 1.75395,-0.84435" /><path
       id="path950"
       style="fill:#ff6161;stroke-width:0.186474"
       d="m 322.88309,85.311954 0.40065,3.295366 c 0.0447,1.094891 -0.78773,2.030703 -1.88172,2.104549 -0.87414,0.06082 -1.41114,-0.04509 -2.44822,-0.384769 -0.86278,-0.281917 -1.14768,-1.220415 -0.91826,-2.379036 0.29829,-1.503929 1.0001,-2.804578 1.41473,-3.479796 0.94451,-1.537251 3.01584,-1.284932 3.43281,0.843551" /><path
       id="path952"
       style="fill:#1a1a1a;stroke-width:0.186474"
       d="m 323.28401,88.606949 -0.40065,-3.295378 c -0.0511,-0.26057 -0.12666,-0.492114 -0.2223,-0.696622 -0.0781,0.630151 -0.33634,1.968986 -0.55053,2.160308 -0.54671,0.495375 -0.40753,-0.03058 -1.43983,-0.268248 -0.65781,-0.151246 -1.62744,-0.02619 -2.24869,0.08509 -0.15319,0.423193 -0.29145,0.877456 -0.38612,1.355789 -0.22943,1.158632 0.0554,2.097085 0.91824,2.379036 1.03702,0.339689 1.57404,0.445631 2.44823,0.384757 1.09396,-0.07385 1.92646,-1.009714 1.8817,-2.104538" /><path
       id="path954"
       style="fill:#ffffff;stroke-width:0.186474"
       d="m 320.58386,87.197202 c 0,0 -0.76835,0.03664 -1.77634,-0.297028 0,0 -0.16109,0.669417 0.20094,0.984027 0.36201,0.314597 1.17061,0.06901 1.5754,-0.686999" /><path
       id="path956"
       style="fill:#ff6161;stroke-width:0.186474"
       d="m 322.55303,86.544544 c 0.082,-0.187791 0.13391,-0.386915 0.17325,-0.588084 0.0772,-0.383711 0.27883,-0.936418 0.79295,-0.54296 0.7454,0.571964 0.38661,2.438156 -0.59089,2.404589 -0.72735,-0.02529 -0.5811,-0.798225 -0.37531,-1.273522" /></g><metadata
     id="metadata994"><rdf:RDF><cc:Work
         rdf:about=""><dc:format>image/svg+xml</dc:format><dc:type
           rdf:resource="http://purl.org/dc/dcmitype/StillImage" /><dc:title></dc:title></cc:Work></rdf:RDF></metadata><sodipodi:namedview
     inkscape:current-layer="svg990"
     inkscape:window-maximized="0"
     inkscape:window-y="0"
     inkscape:window-x="0"
     inkscape:cy="180.99591"
     inkscape:cx="241.86753"
     inkscape:zoom="1.2196529"
     showgrid="false"
     id="namedview992"
     inkscape:window-height="768"
     inkscape:window-width="1366"
     inkscape:pageshadow="2"
     inkscape:pageopacity="0"
     guidetolerance="10"
     gridtolerance="10"
     objecttolerance="10"
     borderopacity="1"
     bordercolor="#666666"
     pagecolor="#ffffff"
     inkscape:document-rotation="0"
     inkscape:snap-others="false"
     inkscape:snap-nodes="false" /><defs
     id="defs878"><linearGradient
       id="linearGradient1115"><stop
         style="stop-color:#035000;stop-opacity:1"
         offset="0"
         id="stop1111" /><stop
         style="stop-color:#023800;stop-opacity:1"
         offset="1"
         id="stop1113" /></linearGradient><linearGradient
       id="linearGradient6575"><stop
         id="stop833"
         offset="0"
         style="stop-color:#338000" /><stop
         id="stop835"
         offset="1"
         style="stop-color:#80c904" /></linearGradient><clipPath
       id="clipPath1306"><path
         id="path838"
         d="m4155 3015c-0.15 0-0.3 0.02-0.44 0.05-4.85 1.12-8.06 4.02-3.62 9.84 0 0 15.2 26.3 57 30.2 2.8 0.26 5.49 0.38 8.06 0.38 35.6 0 48.6-23.3 48.6-23.3s-23.5 10.2-48.2 10.2c-6.12 0-12.3-0.63-18.2-2.2-28.9-7.69-38.2-25.2-43.2-25.2" /></clipPath><linearGradient
       gradientUnits="userSpaceOnUse"
       gradientTransform="matrix(116 0 0 -116 4149 3036)"
       x2="1"
       id="linearGradient1312"><stop
         id="stop841"
         offset="0"
         style="stop-color:#ff8a8a" /><stop
         id="stop843"
         offset="1"
         style="stop-color:#ff6161" /></linearGradient><clipPath
       id="clipPath1322"><path
         id="path846"
         d="m4152 2967c-5.49 0-12 4.35-14.2 12.9-2.76 10.4 3.99 26.5 3.99 26.5s19.6-36.4 13.7-38.8c-1.07-0.43-2.24-0.65-3.46-0.65" /></clipPath><linearGradient
       gradientUnits="userSpaceOnUse"
       gradientTransform="matrix(19.5 0 0 -19.5 4138 2987)"
       x2="1"
       id="linearGradient1328"><stop
         id="stop849"
         offset="0"
         style="stop-color:#ff8a8a" /><stop
         id="stop851"
         offset="1"
         style="stop-color:#ff6161" /></linearGradient><clipPath
       id="clipPath1338"><path
         id="path854"
         d="m4183 2847c-1.05 0-2.09 0.61-2.46 1.84-0.52 1.77-0.87 3.75-0.81 5.83 0.19 7.1 1.69 47.2 6.92 55.5 11 17.6 60.2 52.3 63 57.4 1.82 3.28 6.52 8.5 8.91 8.5 1.31 0 1.92-1.56 1-5.86-2.62-12.2-31.2-39.2-38.5-45-7.29-5.79-21.5-9.33-28.4-41.6-2.62-12.3-5.43-26.2-7.11-34.5-0.27-1.37-1.4-2.07-2.52-2.07" /></clipPath><linearGradient
       gradientUnits="userSpaceOnUse"
       gradientTransform="matrix(80.3 0 0 -80.3 4179 2911)"
       x2="1"
       id="linearGradient1344"><stop
         id="stop857"
         offset="0"
         style="stop-color:#ff8a8a" /><stop
         id="stop859"
         offset="1"
         style="stop-color:#ff6161" /></linearGradient><clipPath
       id="clipPath1354"><path
         id="path862"
         d="m4181 2785c-0.3 0-0.57 0.09-0.82 0.29-5.16 4.17-4.54 18.8-1.93 25.9 2.62 7.1 11.1 9.59 11.1 9.59 0.38 0.06 0.72 0.09 1.05 0.09 5.66 0 4.77-8.97 1.73-18-3.04-8.97-8.22-17.9-11.1-17.9" /></clipPath><linearGradient
       gradientUnits="userSpaceOnUse"
       gradientTransform="matrix(18.2 0 0 -18.2 4176 2803)"
       x2="1"
       id="linearGradient1360"><stop
         id="stop865"
         offset="0"
         style="stop-color:#ff8a8a" /><stop
         id="stop867"
         offset="1"
         style="stop-color:#ff6161" /></linearGradient><linearGradient
       spreadMethod="pad"
       gradientUnits="userSpaceOnUse"
       gradientTransform="matrix(0.764,0,0,0.764,-183,64.9)"
       y2="-11.773587"
       y1="8.5945883"
       x2="552.4184"
       x1="536.58099"
       id="linearGradient6569"><stop
         id="stop870"
         offset="0"
         style="stop-color:#023800;stop-opacity:1" /><stop
         id="stop872"
         offset="1"
         style="stop-color:#035000;stop-opacity:1" /></linearGradient><linearGradient
       xlink:href="#linearGradient1115"
       gradientUnits="userSpaceOnUse"
       gradientTransform="matrix(0.764,0,0,0.764,-183,64.9)"
       y2="12.1"
       y1="12"
       x2="610"
       x1="592.64636"
       id="linearGradient6577" /><linearGradient
       xlink:href="#linearGradient1115"
       gradientUnits="userSpaceOnUse"
       gradientTransform="matrix(0.764,0,0,0.764,-183,64.9)"
       y2="17.9"
       y1="53.599998"
       x2="606"
       x1="627"
       id="linearGradient6585" /><linearGradient
       xlink:href="#linearGradient1115"
       gradientUnits="userSpaceOnUse"
       gradientTransform="matrix(0.764,0,0,0.764,-183,64.9)"
       y2="13.886464"
       y1="-21.663017"
       x2="534.51361"
       x1="568.50732"
       id="linearGradient6593" /><linearGradient
       id="linearGradient13088"
       x1="619.27002"
       x2="735.54498"
       y1="373.22"
       y2="335.34415"
       gradientTransform="matrix(0.15362858,0.01626016,-0.01626016,0.15362858,206.10923,33.57843)"
       gradientUnits="userSpaceOnUse"
       xlink:href="#linearGradient6569" /><linearGradient
       id="linearGradient42650"><stop
         stop-color="#9a4121"
         offset="0"
         id="stop833-0" /><stop
         stop-color="#7e3a1a"
         offset="1"
         id="stop835-2" /></linearGradient><linearGradient
       id="linearGradient13080"
       x1="827.03003"
       x2="907.34998"
       y1="375.92999"
       y2="375.92999"
       gradientTransform="matrix(0.15362858,0.01626016,-0.01626016,0.15362858,206.10923,33.57843)"
       gradientUnits="userSpaceOnUse"
       xlink:href="#linearGradient1115" /><linearGradient
       id="linearGradient1813"
       x1="51.741001"
       x2="499.57999"
       y1="40.603001"
       y2="375.79001"
       gradientTransform="matrix(-1,0,0,1,512,0)"
       gradientUnits="userSpaceOnUse"><stop
         style="stop-color:#9a4121"
         offset="0"
         id="stop849-4" /><stop
         style="stop-color:#9a4121"
         offset=".54858"
         id="stop851-8" /><stop
         style="stop-color:#7e3a1a"
         offset=".7787"
         id="stop853" /><stop
         style="stop-color:#7e3a1a"
         offset="1"
         id="stop855" /></linearGradient><linearGradient
       id="linearGradient1803"
       x1="216.25999"
       x2="313.79999"
       y1="89.032997"
       y2="89.032997"
       gradientUnits="userSpaceOnUse"><stop
         style="stop-color:#ffe084"
         offset="0"
         id="stop840" /><stop
         style="stop-color:#fdd089"
         offset=".37929"
         id="stop842" /><stop
         style="stop-color:#f9a894"
         offset=".70177"
         id="stop844" /><stop
         style="stop-color:#f9a894"
         offset="1"
         id="stop846" /></linearGradient></defs></svg>
