<svg width="512" height="512" xmlns="http://www.w3.org/2000/svg">
 <!-- Created with Method Draw - http://github.com/duopixel/Method-Draw/ -->

 <g>
  <title>background</title>
  <rect fill="none" id="canvas_background" height="514" width="514" y="-1" x="-1"/>
  <g display="none" overflow="visible" y="0" x="0" height="100%" width="100%" id="canvasGrid">
   <rect fill="url(#gridpattern)" stroke-width="0" y="0" x="0" height="100%" width="100%"/>
  </g>
 </g>
 <g>
  <title>Layer 1</title>
  <!-- Generator: Sketch 51.3 (57544) - http://www.bohemiancoding.com/sketch -->
  <desc transform="matrix(8.65847529551047,0,0,8.65847529551047,0,0) ">Created with Sketch.</desc>

  <!-- Created with Method Draw - http://github.com/duopixel/Method-Draw/ -->
  <g stroke="null" id="svg_149">
   <g stroke="null" transform="matrix(1.0216169075771906,0,0,1.0216169075771906,-125.2703533065696,-125.31841963149375) " id="svg_146">
    <title stroke="null" transform="translate(0.9788404703140259,0) translate(0.9788404703140259,0) translate(0.9788404703140259,0) translate(0.9788404703140259,0) translate(0.9788404703140259,0) translate(0.9788404703140259,0) translate(0.9788404703140259,0) translate(0.9788404703140259,0) translate(-8.89425277709961,-3.9530014991760254) translate(-15.860570907592773,-15.860570907592773) translate(-1907.9998779296875,-1907.9998779296875) translate(2047.9998779296875,0) translate(0,2047.9998779296875) ">background</title>
    <rect stroke="null" x="122.0759" y="119.186428" width="514" height="514" id="svg_144" fill="none"/>
    <g stroke="null" id="svg_143" display="none">
     <rect stroke="null" id="svg_147" width="512" height="512" x="123.0759" y="120.186428" stroke-width="0" fill="url(#gridpattern)"/>
    </g>
   </g>
   <g stroke="null" transform="matrix(1.0216169075771906,0,0,1.0216169075771906,-125.2703533065696,-125.31841963149375) " id="svg_148">
    <title stroke="null" transform="translate(0.9788404703140259,0) translate(0.9788404703140259,0) translate(0.9788404703140259,0) translate(0.9788404703140259,0) translate(0.9788404703140259,0) translate(0.9788404703140259,0) translate(0.9788404703140259,0) translate(0.9788404703140259,0) translate(-8.89425277709961,-3.9530014991760254) translate(-15.860570907592773,-15.860570907592773) translate(-1907.9998779296875,-1907.9998779296875) translate(2047.9998779296875,0) translate(0,2047.9998779296875) ">Layer 1</title>
    <g stroke="null" id="svg_120">
     <path stroke="null" d="m360.647486,125.742031l-174.167455,0c-25.580893,0 -46.392796,20.811903 -46.392796,46.392796l0,403.198162c0,25.580893 20.811903,46.392796 46.392796,46.392796l174.167455,0c25.580893,0 46.392796,-20.811903 46.392796,-46.392796l0,-403.198162c0,-25.580893 -20.810934,-46.392796 -46.392796,-46.392796z" fill="#535454" id="svg_142"/>
     <path stroke="null" d="m165.78728,575.33202l0,-403.197193c0,-25.580893 20.810934,-46.392796 46.391827,-46.392796l-25.699077,0c-25.580893,0 -46.392796,20.811903 -46.392796,46.392796l0,403.198162c0,25.580893 20.811903,46.392796 46.392796,46.392796l25.699077,0c-25.580893,-0.000969 -46.391827,-20.812871 -46.391827,-46.393765z" fill="#444443" id="svg_141"/>
     <path stroke="null" d="m381.336361,575.33202c0,11.42601 -9.262866,20.688876 -20.688876,20.688876l-174.167455,0c-11.42601,0 -20.688876,-9.262866 -20.688876,-20.688876l0,-403.197193c0,-11.42601 9.262866,-20.688876 20.688876,-20.688876l21.706028,0c4.275914,0 7.741981,3.466067 7.741981,7.741981l0,4.909455c0,6.587271 5.388969,11.976241 11.976241,11.976241l91.317987,0c6.587271,0 11.976241,-5.388969 11.976241,-11.976241l0,-7.100691c0,-3.065987 2.485726,-5.551714 5.551714,-5.551714l23.897264,0c11.42601,0 20.688876,9.262866 20.688876,20.688876l0,403.198162l-0.000001,0z" fill="#A4D9F4" id="svg_140"/>
     <path stroke="null" d="m190.47308,575.332018l0,-403.19719c0,-10.80603 8.28737,-19.66494 18.85122,-20.59588c-1.20218,-0.17824 0.07653,-0.05425 -22.84427,-0.093c-11.42601,0 -20.68887,9.26287 -20.68887,20.68888l0,403.19816c0,11.42601 9.26286,20.68888 20.68887,20.68888l24.68096,0c-11.42504,-0.00097 -20.68791,-9.26287 -20.68791,-20.68985z" fill="#7CC9E8" id="svg_139"/>
     <g stroke="null" id="svg_136" transform="matrix(0.9687163766894858,0,0,0.9687163766894858,-1558.9074278531168,-1483.465067384283) ">
      <path stroke="null" d="m1922.745929,1695.43556l-40.343,0c-4.267,0 -7.727,-3.459 -7.727,-7.727s3.459,-7.727 7.727,-7.727l40.343,0c4.267,0 7.727,3.459 7.727,7.727c-0.001,4.268 -3.46,7.727 -7.727,7.727z" fill="#666666" id="svg_138"/>
      <path stroke="null" d="m1853.812929,1694.13356c-5.532,-3.636 -4.191,-12.525 2.771,-14.001c4.736,-0.977 9.242,2.691 9.242,7.572c0,3.589 -2.477,6.806 -6.223,7.583c-0.494,0.092 -4.217,-0.09 -5.79,-1.154z" fill="#666666" id="svg_137"/>
     </g>
     <g stroke="null" id="svg_135" transform="matrix(0.9687163766894858,0,0,0.9687163766894858,-1558.9074278531168,-1483.465067384283) "/>
     <g stroke="null" id="svg_134" transform="matrix(0.9687163766894858,0,0,0.9687163766894858,-1558.9074278531168,-1483.465067384283) "/>
     <g stroke="null" id="svg_133" transform="matrix(0.9687163766894858,0,0,0.9687163766894858,-1558.9074278531168,-1483.465067384283) "/>
     <g stroke="null" id="svg_132" transform="matrix(0.9687163766894858,0,0,0.9687163766894858,-1558.9074278531168,-1483.465067384283) "/>
     <g stroke="null" id="svg_131" transform="matrix(0.9687163766894858,0,0,0.9687163766894858,-1558.9074278531168,-1483.465067384283) "/>
     <g stroke="null" id="svg_130" transform="matrix(0.9687163766894858,0,0,0.9687163766894858,-1558.9074278531168,-1483.465067384283) "/>
     <g stroke="null" id="svg_129" transform="matrix(0.9687163766894858,0,0,0.9687163766894858,-1558.9074278531168,-1483.465067384283) "/>
     <g stroke="null" id="svg_128" transform="matrix(0.9687163766894858,0,0,0.9687163766894858,-1558.9074278531168,-1483.465067384283) "/>
     <g stroke="null" id="svg_127" transform="matrix(0.9687163766894858,0,0,0.9687163766894858,-1558.9074278531168,-1483.465067384283) "/>
     <g stroke="null" id="svg_126" transform="matrix(0.9687163766894858,0,0,0.9687163766894858,-1558.9074278531168,-1483.465067384283) "/>
     <g stroke="null" id="svg_125" transform="matrix(0.9687163766894858,0,0,0.9687163766894858,-1558.9074278531168,-1483.465067384283) "/>
     <g stroke="null" id="svg_124" transform="matrix(0.9687163766894858,0,0,0.9687163766894858,-1558.9074278531168,-1483.465067384283) "/>
     <g stroke="null" id="svg_123" transform="matrix(0.9687163766894858,0,0,0.9687163766894858,-1558.9074278531168,-1483.465067384283) "/>
     <g stroke="null" id="svg_122" transform="matrix(0.9687163766894858,0,0,0.9687163766894858,-1558.9074278531168,-1483.465067384283) "/>
     <g stroke="null" id="svg_121" transform="matrix(0.9687163766894858,0,0,0.9687163766894858,-1558.9074278531168,-1483.465067384283) "/>
    </g>
    <g stroke="null" id="svg_108">
     <path stroke="null" d="m407.485085,359.419675l0,150.920766l-201.227688,0c-18.521196,0 -33.537948,-15.016742 -33.537948,-33.537948l0,-117.382818l234.765636,0zm0,0" fill="#ffcd00" id="svg_119"/>
     <path stroke="null" d="m172.719448,309.112753l0,16.768974l234.765636,0l0,-50.306922l-201.227688,0c-18.521196,0 -33.537948,15.016752 -33.537948,33.537948zm0,0" fill="#ffcd00" id="svg_118"/>
     <path stroke="null" d="m407.48508,376.188648l0,117.38282l176.07423,0c13.89091,0 25.15346,-11.26256 25.15346,-25.15346l0,-92.22936l-201.22769,0z" fill="#e2b602" id="svg_117"/>
     <path stroke="null" d="m407.485085,342.650701l201.227688,0l0,-25.153461c0,-13.890905 -11.262556,-25.153461 -25.153461,-25.153461l-176.074227,0l0,50.306922zm0,0" fill="#e2b602" id="svg_116"/>
     <path stroke="null" d="m407.485085,342.650701l0,-16.768974l-234.765636,0l0,33.537948l234.765636,0l0,-16.768974zm0,0" fill="#58595b" id="svg_115"/>
     <path stroke="null" d="m407.485085,359.419675l0,16.768974l201.227688,0l0,-33.537948l-201.227688,0l0,16.768974zm0,0" fill="#58595b" id="svg_114"/>
     <path stroke="null" d="m172.719448,376.188649l0,100.613844c0,18.521206 15.016752,33.537948 33.537948,33.537948l134.151792,0c-92.691982,0 -167.68974,-59.997387 -167.68974,-134.151792zm0,0" fill="#ebbf00" id="svg_113"/>
     <g stroke="null" fill="#f1f2f2" id="svg_109" transform="matrix(1.0480608759204815,0,0,1.0480608759204815,-2434.294323996748,-487.97938028967644) ">
      <path stroke="null" d="m2735.464142,896.540006l32,0l0,16l-32,0l0,-16zm0,0" id="svg_112"/>
      <path stroke="null" d="m2783.464142,896.540006l32,0l0,16l-32,0l0,-16zm0,0" id="svg_111"/>
      <path stroke="null" d="m2831.464142,896.540006l32,0l0,16l-32,0l0,-16zm0,0" id="svg_110"/>
     </g>
    </g>
    <metadata stroke="null" transform="translate(0.9788404703140259,0) translate(0.9788404703140259,0) translate(0.9788404703140259,0) translate(0.9788404703140259,0) translate(0.9788404703140259,0) translate(0.9788404703140259,0) translate(0.9788404703140259,0) translate(0.9788404703140259,0) translate(-8.89425277709961,-3.9530014991760254) translate(-15.860570907592773,-15.860570907592773) translate(-1907.9998779296875,-1907.9998779296875) translate(2047.9998779296875,0) translate(0,2047.9998779296875) " id="svg_107">image/svg+xml</metadata>
    <g stroke="null" id="svg_103">
     <g stroke="null" transform="matrix(0.24387512918199283,0,0,-0.24387512918199283,-3726.4043725550364,-3549.2688863649196) " id="svg_104">
      <g stroke="null" transform="translate(0,-16276.6318359375) scale(0.10000000149011612) " id="svg_105">
       <path stroke="null" id="svg_106" d="m161584.92578,2052.025311c34.7,0.2 69.2,5.8 103.9,6.1c1973.3,-0.3 3946.5,0 5919.8,-0.1c35.4,-0.6 71.3,2.7 106.5,-3.6c178.8,-3.2 352,-87.4 472.6,-218.1c122.6,-130.8 192.7,-309 191.5,-488.4c-0.4,-106.6 -0.1,-213.2 -0.2,-319.9c-1186.7,0.1 -2373.5,-0.1 -3560.2,0.1c-64.4,7.3 -129.2,3.4 -193.7,6c-45.4,8.8 -91.8,0.1 -137.4,6c-37.4,4.8 -75.2,1.8 -112.7,4c-149.9,9.5 -300.5,16.9 -450.3,30.8c-169.9,11.8 -335.3,55.7 -503.7,78.9c-190.7,30.8 -384.6,28 -576.1,7.9c-87.7,-10.7 -183.3,-26 -249.7,-89.5c-31.8,-27.2 -42.1,-75.8 -24.6,-113.6c33.2,-53.3 94,-81.1 153.2,-94.7c39.5,-11.9 81.3,-0.7 121.3,-9.8c53.6,-3.3 107.7,2.4 161.2,-4.8c183.3,-6.2 367.4,3 548.5,32.6c9.1,0.7 18.3,1.4 27.5,2c60.5,10.5 121.4,18.5 182.1,27.6c235.7,31.1 474,37.3 710.7,50.4c98,1.5 195.9,5.9 293.7,11.2c1203.4,-0.2 2406.8,0 3610.2,-0.1l0,-300c-1268,0.5 -2536,-1 -3804,0.7c-17.2,3.4 -34.6,5.1 -51.8,8c-39.6,3.1 -78.9,8.5 -118.3,12.7c-246,31.1 -491.6,71.9 -739.8,79.7c-78.3,10.6 -157.9,-2.7 -236.2,8.3c-323.2,1.3 -646.3,0.3 -969.5,0.5c-89.6,-10.4 -180.1,0.8 -269.7,-9.8c-96,-0.7 -201.9,6.4 -284.5,-51.6c-45.7,-28.2 -81.3,-87.3 -59.3,-140.9c22.7,-55 82.1,-79.2 135.5,-93.9c107,-26.7 218.2,-16.8 327.3,-18.6c123.2,-9.9 247.1,-3 370.6,-5.1c136.6,-2 273.5,5 409.8,-5.1c222.2,0.9 444.6,-4.6 666.1,13.7c43.3,2 86.7,4.8 129.8,9.9c96.9,7.6 193.4,18.8 289.9,29.9c26.6,2.9 53.3,6.2 79.9,10.1c56.9,5.6 113.5,13.3 170.2,20.2c9,0.9 18,1.7 27.1,2.6c147.8,25 297.8,5.5 446.3,18.7c620.1,0.1 1240.3,-0.1 1860.5,0.1c26.6,0.5 53,5.5 79.8,5c513.4,-0.3 1026.9,0 1540.3,-0.1l0,-295l-3210,0c-58.9,-1.7 -117.7,2 -176.1,8.5c-179.4,12.2 -358.4,30.8 -537.9,42.9c-146.4,13.1 -293.1,23.1 -439.9,29.8c-231.6,14.6 -463.8,21 -696.1,18.6c-139.6,10.1 -279.9,3.2 -419.8,5.2c-233.2,0.1 -466.5,-0.3 -699.8,0.2c-15.6,0.1 -31.2,-0.9 -46.5,-4.1c-61.5,-2.9 -123.1,0.4 -184.6,-1.6c-97.8,-11.7 -200.7,8.3 -294.3,-30.3c-57.9,-21.2 -112.9,-68.6 -114.5,-134.6c5.1,-33.9 24.7,-65.9 54.8,-83.3c67.7,-42.4 150.4,-51.6 228.7,-52.5c91.5,-8.7 184.1,-1.6 276,-3.6c166.4,-9.8 333.4,-3.3 500.1,-5.2c160,0 320,0.1 480,0c173.3,-13.7 347,2 520.4,5c382,18.8 763.9,45.9 1145.5,73.7c127.9,7.5 255.7,14.9 383.5,21.4c560.1,-0.2 1120.2,0 1680.3,-0.1c70.1,0.8 140.3,-2.9 210.1,4.8c446.7,0.5 893.4,0 1340.1,0.2l0,-285c-1056.7,-0.1 -2113.4,0.1 -3170.1,-0.1c-88.7,-3 -176,15.6 -264.2,21.6c-29.9,4.3 -59.9,7.2 -89.9,10c-29.9,4.2 -59.9,7.2 -90,10c-29.9,4.3 -60,7.2 -90,9.9c-66.4,8.4 -133.1,14.8 -199.9,20.1c-166.1,16.2 -333,25.9 -499.8,29.5c-64,10.4 -129.4,-1.7 -193.6,7.3c-104.2,5.8 -208.9,-3.9 -312.9,6.6c-426.5,0.2 -852.9,0 -1279.4,0.2c-12.2,-0.3 -24.3,-1.6 -36.3,-4c-101.4,-4 -203.1,3.6 -304.2,-6.2c-70,3.5 -139.5,-5.7 -209.4,-5.1c-68.6,-4.5 -141.2,-23.5 -189.1,-76c-36,-33.9 -45.1,-97.1 -11.6,-135.5c46.6,-55.4 122.6,-70.6 191,-78.6c69.7,-10.1 140.4,0.5 210.2,-8.7c112.9,-4.4 226.3,4.6 339,-5.9c120,-0.5 239.9,0.4 359.9,-0.3c66.5,-7.4 133.5,-4.2 200.3,-4.8c126.7,0.1 253.5,-0.1 380.3,0.2c139.8,-9.7 280.4,-3.9 420.6,-4.7c74.7,10 150.3,-0.5 225.2,7.6c306.8,10.3 613.6,30.3 919.9,55.5c96.1,5.7 192,15.6 288.1,23c23.8,3.3 48,3.5 71.9,6.8c147.5,18 296.1,10 444.4,11.6c483.3,-0.1 966.6,0.2 1449.9,-0.2c162.9,10.3 326.5,3 489.8,5.2l949.9,0l0,-270c-1006.6,-0.1 -2013.2,0.2 -3019.9,-0.2c-55.3,-1.5 -109.4,11.6 -164.2,16.8c-26.7,3.8 -53.3,7.1 -80,9.9c-59.8,8.5 -120,13.3 -180,20c-33.2,4.8 -66.6,7.9 -99.9,10c-119.3,11.9 -238.8,19.7 -358.4,24.9c-55.7,7.8 -112.2,-0.8 -167.8,7.2c-66,4.6 -132.4,-3 -198.2,5.6c-147.2,4.1 -295,-5 -441.9,5.9c-540,-0.3 -1079.9,0 -1619.8,-0.1c-32.1,-0.4 -64.5,2.6 -96,-3.9c-77.9,-3.7 -156.1,3.1 -233.7,-5.9c-92.7,0.4 -193.1,5.5 -274.7,-46.3c-45.3,-23.9 -78.4,-74.7 -70.1,-127c7.3,-43.7 47.8,-69.6 84.1,-88.4c67.4,-29.2 141.9,-34.4 214.4,-34.6c94.4,-11 190.2,3.2 284.7,-8.2c90.5,-1.9 181.1,0.1 271.6,-0.7c152.7,-13.1 306.6,3 459.4,-9.9c180.2,-2.5 360.7,5.3 540.7,-5.3c180.2,0.9 360.6,-0.9 540.9,0.9c68.8,9.8 138.6,-0.5 207.6,7.2c282.5,8.7 565.3,22.1 847.2,45.8c56.2,1.2 111.9,9.3 168,12.8c36.5,4.6 73.3,7.4 110.1,9.9c29.9,4.4 60,7.4 90.1,10.1c54.9,6.1 109.7,14.8 164.8,18.4c547,0.3 1093.9,0 1640.9,0.2c96.2,9 193,3.4 289.5,4.9l1090.6,0c-0.1,-95 0.1,-190.1 -0.1,-285.1c-1063.3,0.2 -2126.6,0 -3190,0.1c-28.8,0.5 -57.3,4.7 -85.8,8.5c-42.8,4.2 -85.6,8.8 -128.4,13c-29.9,4.2 -59.9,7.2 -89.9,10c-29.9,4.2 -60,7.2 -90,10c-63.2,7.6 -126.5,14.2 -189.9,20c-36.5,5 -73.1,8.1 -109.8,9.9c-93.1,9.5 -186.5,16.1 -280,19.9c-76.4,6.2 -153.3,8.5 -230,9.8c-64.1,10.3 -129.5,-1.8 -193.7,7.2c-85.3,4.7 -170.9,-0.9 -256.3,2.8c-25,5.3 -50.6,4.1 -75.9,4c-430.3,-0.6 -860.6,0.6 -1290.9,-0.6c-102.2,-11.5 -205.4,2.2 -307.6,-8.6c-49.2,-4.1 -99.1,4.1 -147.8,-4.9c-74.2,0.7 -152.8,-0.8 -218,-41c-39.4,-25 -80.8,-64.1 -76.3,-115.1c-3,-34.2 21.2,-62.5 46.7,-81.9c54.4,-38.6 122.4,-51.2 187.8,-54.7c64.3,-8.5 129.6,2 194,-7.5c90.6,-2 181.2,-0.2 271.8,-0.7c136.3,-10.2 273.4,-3.1 410.1,-4.9c236.3,-13.6 473.7,3.4 710,-10.4c97,0.8 194,-0.7 291,0.7c78,10.2 157,-0.7 235.1,7.6c270.1,9 540.2,24.8 809.9,45.4c86.7,5.8 173.4,12.3 260,20c40,2.8 80,5.2 119.9,10c84.6,5.7 168.9,14.9 253.5,21.4c557,0.2 1114,0.2 1671,0c136.2,9.9 273,3.2 409.5,5.1l1090.1,0l0,-270c-1086.7,-0.1 -2173.4,0.1 -3260.1,-0.1c-34.8,0.4 -69.2,5.5 -103.9,6.6c-24,3.5 -48.2,3.6 -72.1,7c-465.7,34.1 -931.7,69.1 -1398.2,83.3c-76.5,8.3 -153.7,-1.2 -230.2,5.2c-35,4.6 -70.4,2.9 -105.5,3l-939.8,0c-100.1,2.1 -199.7,-8.6 -299.9,-5.1c-93.4,-11.5 -190.1,6.8 -280.7,-24.8c-54.1,-19.5 -113.6,-55.1 -125.1,-116.2c-14.6,-50 25.8,-95.5 67.2,-117.4c61.2,-29.4 129.9,-41.8 197.5,-41.6c113.5,-9 227.5,-3.5 341.3,-4.7c179.4,-10.4 359.4,-3 539.1,-5.2c173.3,-2.1 347,5.1 520,-5.2c165.5,1.5 331.6,-4.3 496.5,9.2c66.7,1.8 133.6,4.2 200,9.7c50,2.6 100.1,4.5 149.9,10c93.5,4.3 186.8,12.4 280.1,19.8c222.1,15.5 443.9,36.4 666.2,49.7c125.7,10.2 251.8,6.1 377.8,6.8l1359.9,0c32,0.4 64.4,-2.5 96.1,3.9c507.9,2.7 1015.9,0.3 1523.8,1.2c0.2,-95 0,-190.1 0.1,-285.1l-3780.7,0c-98.5,-3.3 -195.8,16.5 -293.4,26.5c-40.5,5.6 -81.1,10.5 -121.4,17c-32.9,4.4 -65.7,9.8 -98.8,13c-86.2,12.4 -172.9,23.1 -259.7,30.1c-92.2,8.4 -184.7,14.7 -277.3,13.9c-56.3,6.9 -113.1,4.1 -169.7,4.5l-879.2,0c-36.6,-0.1 -73.2,1.6 -109.6,-3c-65.2,-6.8 -131.3,4 -196.2,-5.9c-79.3,-3 -161.5,6.3 -236.9,-24.3c-52.8,-18.7 -103.8,-59.5 -116,-116.6c-8.5,-41 19.4,-79.2 50.8,-102.6c67.8,-42.3 150.1,-52.4 228.5,-53.2c136.2,-11.8 273.4,3.3 409.5,-9.3c300.1,-0.2 600.2,0 900.3,-0.1c65.2,2.3 131.1,-4.9 195.9,3.9c56.7,0.8 113.5,2.7 169.8,9.7c100.3,6.1 200.2,17.9 300,29.9c26.6,2.8 53.3,6.2 79.8,10c26.7,2.7 53.4,6.2 80,10c56.9,5.5 113.5,13.5 170.2,20c30.1,2.8 60.2,5.6 90.1,10.6c138,4.4 276.4,-4.8 414.1,6c593.2,-0.2 1186.5,-0.1 1779.7,-0.1c66.3,0.7 132.9,-2.9 199,4.8c490.3,0.6 980.7,-0.1 1471,0.4c0.4,-101.7 0.1,-203.5 0.2,-305.2l-3180.1,0c-188,0.8 -376.1,-3.3 -563.8,6c-76.4,6.3 -153.3,8.1 -230,10.1c-200.3,11.6 -401.5,21.2 -601.1,45.5c-110.2,17 -220.1,36.2 -330.5,51.9c-36.2,5 -72.3,9.7 -108.6,13.1c-51.9,7.2 -104.2,8.9 -156.5,9c-89.8,12.9 -179.6,-5.3 -269.6,-0.5c-68.1,-6.6 -136.5,-3.1 -204.4,-10.8c-63.3,-16.4 -133.4,-43.8 -164.3,-105.8c-26,-47.7 -6.2,-109.1 34.9,-141.5c66.3,-55.2 154,-75.7 238.1,-83.6c33,-5.2 66.3,-8.5 99.8,-9.9c177.4,-16.5 357.3,-6.8 532.1,28c111.1,21 222.1,42.4 332.9,64.7c142,17 284.8,26.5 427.2,37.6c211.4,12 422.8,19.5 634.3,26.3c1169.8,-0.3 2339.7,0 3509.6,-0.1c-3,-138.1 6.6,-276.7 -6.1,-414.3c-30.6,-234.6 -185.7,-450.3 -402.2,-547.5c-73.7,-38.1 -156.2,-53.1 -237.7,-62.3c-2021.2,-2.3 -4042.4,-0.1 -6063.6,-1.1c-145.2,0.3 -290.1,47 -406.3,134.4c-173.3,125.5 -280,333.6 -288,546.9c-2.7,1271.2 -0.2,2542.6 -1.2,3813.9c0.7,171.2 57.2,344.1 171.2,473.6c109.5,131.8 269.4,219.6 439.8,240.4" fill-rule="nonzero" fill="#3497fd"/>
      </g>
     </g>
    </g>
   </g>
  </g>
 </g>
</svg>