<?xml version="1.0" encoding="UTF-8" standalone="no"?>
<svg
   xmlns:dc="http://purl.org/dc/elements/1.1/"
   xmlns:cc="http://creativecommons.org/ns#"
   xmlns:rdf="http://www.w3.org/1999/02/22-rdf-syntax-ns#"
   xmlns:svg="http://www.w3.org/2000/svg"
   xmlns="http://www.w3.org/2000/svg"
   xmlns:sodipodi="http://sodipodi.sourceforge.net/DTD/sodipodi-0.dtd"
   xmlns:inkscape="http://www.inkscape.org/namespaces/inkscape"
   inkscape:version="1.0 (4035a4f, 2020-05-01)"
   sodipodi:docname="pishtaz.svg"
   id="svg5137"
   version="1.1"
   height="512"
   width="512">
  <metadata
     id="metadata5143">
    <rdf:RDF>
      <cc:Work
         rdf:about="">
        <dc:format>image/svg+xml</dc:format>
        <dc:type
           rdf:resource="http://purl.org/dc/dcmitype/StillImage" />
      </cc:Work>
    </rdf:RDF>
  </metadata>
  <defs
     id="defs5141" />
  <sodipodi:namedview
     inkscape:current-layer="svg_320"
     inkscape:window-maximized="0"
     inkscape:window-y="23"
     inkscape:window-x="0"
     inkscape:cy="145.16004"
     inkscape:cx="98.184619"
     inkscape:zoom="0.67344477"
     showgrid="false"
     id="namedview5139"
     inkscape:window-height="723"
     inkscape:window-width="1366"
     inkscape:pageshadow="2"
     inkscape:pageopacity="0"
     guidetolerance="10"
     gridtolerance="10"
     objecttolerance="10"
     borderopacity="1"
     bordercolor="#666666"
     pagecolor="#ffffff"
     inkscape:document-rotation="0" />
  <!-- Created with Method Draw - http://github.com/duopixel/Method-Draw/ -->
  <g
     transform="matrix(-1,0,0,1,512,0)"
     id="g5088">
    <title
       id="title5082">background</title>
    <rect
       x="-1"
       y="-1"
       width="514"
       height="514"
       id="canvas_background"
       fill="none" />
    <g
       id="canvasGrid"
       width="100%"
       height="100%"
       x="0"
       y="0"
       overflow="visible"
       display="none">
      <rect
         id="rect5085"
         width="100%"
         height="100%"
         x="0"
         y="0"
         stroke-width="0"
         fill="url(#gridpattern)" />
    </g>
  </g>
  <g
     transform="matrix(-1,0,0,1,512,0)"
     id="g5135">
    <title
       id="title5090">Layer 1</title>
    <!-- Generator: Sketch 51.3 (57544) - http://www.bohemiancoding.com/sketch -->
    <desc
       id="desc5092"
       transform="matrix(8.65847529551047,0,0,8.65847529551047,0,0) ">Created with Sketch.</desc>
    <!-- Created with Method Draw - http://github.com/duopixel/Method-Draw/ -->
    <g
       id="svg_320"
       stroke="null">
      <g
         id="svg_280"
         transform="matrix(0.98611219,0,0,0.98611219,-184.11042,-124.30908)"
         stroke="null">
        <path
           d="m 266.09491,214.5583 h -34.133 c -4.713,0 -8.533,-3.821 -8.533,-8.533 0,-4.712 3.821,-8.533 8.533,-8.533 h 34.133 c 4.713,0 8.533,3.821 8.533,8.533 0,4.712 -3.82,8.533 -8.533,8.533 z"
           fill="#e5563c"
           id="svg_281"
           stroke="null"
           style="fill:#80c904;fill-opacity:1" />
        <path
           d="m 257.56191,274.2923 h -59.734 c -4.713,0 -8.533,-3.821 -8.533,-8.533 0,-4.713 3.821,-8.534 8.533,-8.534 h 59.733 c 4.713,0 8.533,3.821 8.533,8.533 0.001,4.713 -3.82,8.534 -8.532,8.534 z"
           fill="#e5563c"
           id="svg_282"
           stroke="null"
           style="fill:#80c904;fill-opacity:1" />
        <path
           d="m 240.49491,334.0253 h -34.133 c -4.713,0 -8.533,-3.821 -8.533,-8.533 0,-4.713 3.821,-8.533 8.533,-8.533 h 34.133 c 4.713,0 8.533,3.821 8.533,8.533 0,4.712 -3.82,8.533 -8.533,8.533 z"
           fill="#e5563c"
           id="svg_283"
           stroke="null"
           style="fill:#80c904;fill-opacity:1" />
      </g>
      <path
         style="fill:#9a4121;fill-opacity:1"
         d="m 505.54965,65.120353 c -1.59849,-1.958419 -3.99179,-3.09442 -6.51919,-3.09442 H 111.9479 c -3.99672,0 -7.44318,2.812392 -8.24489,6.727257 L 27.969596,439.00578 c -0.505876,2.47612 0.127208,5.04988 1.72471,7.00731 1.597502,1.95743 3.991782,3.09442 6.519188,3.09442 H 423.29507 c 3.99671,0 7.44318,-2.81239 8.24489,-6.72726 L 507.27337,72.127666 c 0.50686,-2.477114 -0.12622,-5.049881 -1.72372,-7.007313 z"
         fill="#fddd85"
         id="svg_284"
         stroke="null" />
      <path
         style="fill:#7e3a1a;fill-opacity:1"
         d="m 54.939765,446.01407 c -1.598488,-1.95743 -2.231572,-4.53118 -1.72471,-7.00731 L 128.94847,68.754176 c 0.80171,-3.915852 4.24719,-6.728243 8.24489,-6.728243 h -25.24448 c -3.99671,0 -7.44317,2.812392 -8.24488,6.727257 L 27.970583,439.00578 c -0.505876,2.47612 0.127208,5.04988 1.72471,7.00731 1.597502,1.95743 3.991782,3.09442 6.519188,3.09442 h 25.244472 c -2.527406,0 -4.9207,-1.136 -6.519188,-3.09344 z"
         fill="#fdd042"
         id="svg_285"
         stroke="null" />
      <polygon
         style="fill:#7e3a1a;fill-opacity:1"
         points="492.12851,146.17389 495.57019,129.34392 91.310486,129.34392 87.86805,146.17389 "
         fill="#fdd042"
         id="svg_299"
         stroke="null" />
      <path
         style="fill:#ffc431;fill-opacity:1;stroke-width:0.790349"
         d="m 301.87409,360.68795 c -2.83803,-1.23134 -6.59314,-1.25229 -9.46668,-0.0561 l -19.50431,8.12229 -11.95069,-7.46627 c -2.83606,-1.77154 -7.28047,-2.04689 -10.61747,-0.65663 l -19.50432,8.12228 -11.95266,-7.46627 c -2.1586,-1.34776 -5.31712,-1.86148 -8.25277,-1.33851 -2.93665,0.52173 -5.18991,1.99515 -5.88808,3.8517 l -32.13444,85.30481 H 274.0391 l 31.22623,-82.89758 c 0.79185,-2.09925 -0.55321,-4.28843 -3.39124,-5.51976 z"
         fill="#f2c127"
         id="svg_300"
         stroke="null" />
      <path
         style="fill:#fcb431;fill-opacity:1;stroke-width:0.790349"
         d="m 218.87599,361.28852 c -2.1586,-1.34775 -5.31712,-1.86148 -8.25278,-1.33852 -2.93664,0.52173 -5.1899,1.99515 -5.88807,3.8517 l -32.13346,85.30482 h 23.49413 l 31.11775,-82.60991 z"
         fill="#e1a527"
         id="svg_301"
         stroke="null" />
      <g
         id="svg_305"
         transform="matrix(0.98611219,0,0,0.98611219,-184.11042,-124.30908)"
         stroke="null" />
      <g
         id="svg_306"
         transform="matrix(0.98611219,0,0,0.98611219,-184.11042,-124.30908)"
         stroke="null" />
      <g
         id="svg_307"
         transform="matrix(0.98611219,0,0,0.98611219,-184.11042,-124.30908)"
         stroke="null" />
      <g
         id="svg_308"
         transform="matrix(0.98611219,0,0,0.98611219,-184.11042,-124.30908)"
         stroke="null" />
      <g
         id="svg_309"
         transform="matrix(0.98611219,0,0,0.98611219,-184.11042,-124.30908)"
         stroke="null" />
      <g
         id="svg_310"
         transform="matrix(0.98611219,0,0,0.98611219,-184.11042,-124.30908)"
         stroke="null" />
      <g
         id="svg_311"
         transform="matrix(0.98611219,0,0,0.98611219,-184.11042,-124.30908)"
         stroke="null" />
      <g
         id="svg_312"
         transform="matrix(0.98611219,0,0,0.98611219,-184.11042,-124.30908)"
         stroke="null" />
      <g
         id="svg_313"
         transform="matrix(0.98611219,0,0,0.98611219,-184.11042,-124.30908)"
         stroke="null" />
      <g
         id="svg_314"
         transform="matrix(0.98611219,0,0,0.98611219,-184.11042,-124.30908)"
         stroke="null" />
      <g
         id="svg_315"
         transform="matrix(0.98611219,0,0,0.98611219,-184.11042,-124.30908)"
         stroke="null" />
      <g
         id="svg_316"
         transform="matrix(0.98611219,0,0,0.98611219,-184.11042,-124.30908)"
         stroke="null" />
      <g
         id="svg_317"
         transform="matrix(0.98611219,0,0,0.98611219,-184.11042,-124.30908)"
         stroke="null" />
      <g
         id="svg_318"
         transform="matrix(0.98611219,0,0,0.98611219,-184.11042,-124.30908)"
         stroke="null" />
      <g
         id="svg_319"
         transform="matrix(0.98611219,0,0,0.98611219,-184.11042,-124.30908)"
         stroke="null" />
      <path
         sodipodi:nodetypes="zzssassz"
         id="path973-0"
         d="m 260.83822,187.23455 c 6.53386,-7.37775 -33.60609,-33.05786 -47.39054,-33.52925 -13.78444,-0.47139 -47.10353,104.00482 -12.04112,111.87036 15.03523,3.37284 95.88052,10.02417 156.93036,1.96925 12.75985,-1.68355 13.93018,-32.32658 6.35461,-44.17815 -10.17308,-15.91523 -34.10511,-11.67822 -50.33745,-6.07411 -36.25426,12.51655 -60.09012,22.46815 -69.45759,7.59272 -7.30665,-11.60289 9.40784,-30.27306 15.94173,-37.65082 z"
         style="clip-rule:evenodd;fill:#f4e8d7;fill-opacity:1;fill-rule:evenodd;stroke:none;stroke-width:0.668603px;stroke-linecap:butt;stroke-linejoin:miter;stroke-opacity:1;image-rendering:optimizeQuality;shape-rendering:geometricPrecision;text-rendering:geometricPrecision" />
      <ellipse
         transform="matrix(-0.9998372,-0.01804373,-0.01804373,0.9998372,0,0)"
         ry="26.223373"
         rx="27.069286"
         cy="304.90137"
         cx="-268.72549"
         id="path1798-3"
         style="clip-rule:evenodd;fill:#f4e8d7;fill-opacity:1;fill-rule:evenodd;stroke:none;stroke-width:96.9502;stroke-linecap:round;stroke-linejoin:round;image-rendering:optimizeQuality;shape-rendering:geometricPrecision;text-rendering:geometricPrecision" />
    </g>
  </g>
</svg>
