<svg width="128" height="128" version="1.1" xmlns="http://www.w3.org/2000/svg"><g transform="matrix(-.993 0 0 .993 757 11.9)"><title>Layer 1</title><desc transform="scale(8.66)">Created with Sketch.</desc><g stroke="null"><g stroke="null"><g transform="matrix(.252 0 0 .252 586 -45.4)" fill="#e5563c"><path d="m266 215h-34.1c-4.71 0-8.53-3.82-8.53-8.53s3.82-8.53 8.53-8.53h34.1c4.71 0 8.53 3.82 8.53 8.53s-3.82 8.53-8.53 8.53z" style="fill:#035000"/><path d="m258 274h-59.7c-4.71 0-8.53-3.82-8.53-8.53 0-4.71 3.82-8.53 8.53-8.53h59.7c4.71 0 8.53 3.82 8.53 8.53 1e-3 4.71-3.82 8.53-8.53 8.53z" style="fill:#035000"/><path d="m240 334h-34.1c-4.71 0-8.53-3.82-8.53-8.53 0-4.71 3.82-8.53 8.53-8.53h34.1c4.71 0 8.53 3.82 8.53 8.53s-3.82 8.53-8.53 8.53z" style="fill:#035000"/></g><path d="m762 2.95c-0.408-0.5-1.02-0.79-1.66-0.79h-98.8c-1.02 0-1.9 0.718-2.1 1.72l-19.3 94.5c-0.129 0.632 0.0325 1.29 0.44 1.79 0.408 0.499 1.02 0.79 1.66 0.79h98.8c1.02 0 1.9-0.718 2.1-1.72l19.3-94.5c0.129-0.632-0.0322-1.29-0.44-1.79z" fill="#fddd85" style="fill:#cba677;stroke-width:.255"/><path d="m647 100c-0.408-0.499-0.569-1.16-0.44-1.79l19.3-94.5c0.205-0.999 1.08-1.72 2.1-1.72h-6.44c-1.02 0-1.9 0.718-2.1 1.72l-19.3 94.5c-0.129 0.632 0.0325 1.29 0.44 1.79 0.408 0.499 1.02 0.79 1.66 0.79h6.44c-0.645 0-1.26-0.29-1.66-0.789z" fill="#fdd042" style="fill:#c1955d;stroke-width:.255"/><polygon transform="matrix(.255 0 0 .255 633 -13.7)" points="496 129 91.3 129 87.9 146 492 146" fill="#fdd042" style="fill:#c1955d"/><path d="m710 78.4c-0.724-0.314-1.68-0.32-2.42-0.0143l-4.98 2.07-3.05-1.91c-0.724-0.452-1.86-0.522-2.71-0.168l-4.98 2.07-3.05-1.91c-0.551-0.344-1.36-0.475-2.11-0.342-0.749 0.133-1.32 0.509-1.5 0.983l-8.2 21.8h25.9l7.97-21.2c0.202-0.536-0.141-1.09-0.865-1.41z" fill="#f2c127" style="fill:#ffc431;stroke-width:.202"/><path d="m689 78.5c-0.551-0.344-1.36-0.475-2.11-0.342-0.749 0.133-1.32 0.509-1.5 0.983l-8.2 21.8h6l7.94-21.1z" fill="#e1a527" style="fill:#fcb431;stroke-width:.202"/></g><g transform="matrix(-.964 0 0 .964 951 1.56)"><path d="m254 27.8c9.94-1.35 21 2.41 26.6 11.1 4.49 6.82 3.86 16.2-1.01 22.7-1.44 1.41-2.5 3.24-1.87 5.29 0.144 1.81 0.642 3.62 0.539 5.42-1.89 2.12-5.06-0.732-7.45-0.917-2.6-1.34-5.12 0.336-7.66 0.878-10.3 2.57-22.5-0.457-29-9.15-4.96-6.39-5.25-15.8-0.883-22.6 4.42-7.25 12.5-11.7 20.8-12.8z" style="fill:none;stroke-width:3.47;stroke:#035000"/><g transform="matrix(.422 -.0537 .0537 .422 126 32.6)"><g transform="matrix(2.6 0 0 2.6 9047 -3e3)" style="fill:#035000;shape-inside:url(#rect3271);stroke-width:.426;stroke:#035000;white-space:pre" aria-label="пе"><path d="m-3349 1181c0.407 3.15-1.49 6.18-4.11 7.8-4.11 2.78-9.26 3.35-14.1 3.19-4.23-0.23-8.7-1.6-11.5-4.92-1.57-1.9-1.93-4.78-0.523-6.87 1.86-2.9 5.39-3.98 8.6-4.54 2.81-0.47 5.74-0.435 8.47 0.422 0.883 1.2-1.7 1.18-2.48 1.26-3.63 0.393-7.54 0.646-10.6 2.88-1.43 1.02-1.69 3.18-0.332 4.37 2.07 2.3 5.36 2.66 8.27 2.9 4.17 0.286 8.53-0.1 12.3-1.99 1.52-0.849 2.76-2.47 2.57-4.29 0.123-1.23 1.68-2.51 2.82-1.62 0.402 0.348 0.536 0.892 0.615 1.39z" style="fill:#035000;stroke-width:.55;stroke:#035000"/></g><path d="m306 109a9.41 9.41 0 0 1-9.41 9.41 9.41 9.41 0 0 1-9.42-9.41 9.41 9.41 0 0 1 9.42-9.41 9.41 9.41 0 0 1 9.41 9.41z" style="fill:#035000;paint-order:markers fill stroke;stroke:none"/></g></g></g></g></svg>
