<?xml version="1.0" encoding="UTF-8" standalone="no"?>
<svg
   xmlns:dc="http://purl.org/dc/elements/1.1/"
   xmlns:cc="http://creativecommons.org/ns#"
   xmlns:rdf="http://www.w3.org/1999/02/22-rdf-syntax-ns#"
   xmlns:svg="http://www.w3.org/2000/svg"
   xmlns="http://www.w3.org/2000/svg"
   xmlns:sodipodi="http://sodipodi.sourceforge.net/DTD/sodipodi-0.dtd"
   xmlns:inkscape="http://www.inkscape.org/namespaces/inkscape"
   width="512"
   height="512"
   version="1.1"
   id="svg866"
   sodipodi:docname="quote.svg"
   inkscape:version="1.0 (4035a4f, 2020-05-01)">
  <metadata
     id="metadata872">
    <rdf:RDF>
      <cc:Work
         rdf:about="">
        <dc:format>image/svg+xml</dc:format>
        <dc:type
           rdf:resource="http://purl.org/dc/dcmitype/StillImage" />
        <dc:title></dc:title>
      </cc:Work>
    </rdf:RDF>
  </metadata>
  <defs
     id="defs870" />
  <sodipodi:namedview
     inkscape:document-rotation="0"
     pagecolor="#ffffff"
     bordercolor="#666666"
     borderopacity="1"
     objecttolerance="10"
     gridtolerance="10"
     guidetolerance="10"
     inkscape:pageopacity="0"
     inkscape:pageshadow="2"
     inkscape:window-width="1366"
     inkscape:window-height="768"
     id="namedview868"
     showgrid="false"
     inkscape:zoom="0.38019138"
     inkscape:cx="-50.659573"
     inkscape:cy="409.88238"
     inkscape:window-x="0"
     inkscape:window-y="0"
     inkscape:window-maximized="0"
     inkscape:current-layer="svg_25" />
  <!-- Created with Method Draw - http://github.com/duopixel/Method-Draw/ -->
  <g
     id="g839">
    <title
       id="title833">background</title>
    <rect
       fill="none"
       id="canvas_background"
       height="514"
       width="514"
       y="-1"
       x="-1" />
    <g
       display="none"
       overflow="visible"
       y="0"
       x="0"
       height="100%"
       width="100%"
       id="canvasGrid">
      <rect
         fill="url(#gridpattern)"
         stroke-width="0"
         y="0"
         x="0"
         height="100%"
         width="100%"
         id="rect836" />
    </g>
  </g>
  <g
     id="g864">
    <title
       id="title841">Layer 1</title>
    <g
       stroke="null"
       id="svg_25">
      <path
         stroke="null"
         id="svg_5"
         fill="#00ACEA"
         d="m121.67835,49.942936c4.677608,4.131498 11.705706,4.109358 16.358714,-0.049199l46.456289,-41.536375c4.665309,-4.181927 11.730305,-4.181927 16.395614,0l46.407089,41.499475c4.675148,4.169627 11.733995,4.169627 16.407913,0l46.407089,-41.499475c4.665309,-4.181927 11.730305,-4.181927 16.395614,0l46.456289,41.536375c4.653009,4.158557 11.681106,4.180697 16.358714,0.049199l34.168803,-30.231642c5.090881,-4.496801 12.864345,-4.01465 17.361147,1.076231c1.983955,2.245941 3.079866,5.13885 3.081096,8.136308l0,453.247084c-0.00369,6.793171 -5.512764,12.297325 -12.305935,12.293635c-2.997458,-0.00123 -5.890367,-1.097141 -8.136308,-3.081096l-34.168803,-30.232872c-4.677608,-4.131498 -11.705706,-4.109358 -16.358714,0.049199l-46.456289,41.536375c-4.665309,4.181927 -11.730305,4.181927 -16.395614,0l-46.407089,-41.499475c-4.675148,-4.169627 -11.732765,-4.169627 -16.407913,0l-46.407089,41.499475c-4.665309,4.181927 -11.730305,4.181927 -16.395614,0l-46.456289,-41.536375c-4.653009,-4.158557 -11.681106,-4.180697 -16.358714,-0.049199l-34.168803,30.232872c-5.090881,4.496801 -12.864345,4.01465 -17.361147,-1.076231c-1.983955,-2.245941 -3.079866,-5.13885 -3.081096,-8.136308l0,-453.248314c0.00369,-6.793171 5.512764,-12.297325 12.305935,-12.293635c2.997458,0.00123 5.890367,1.097141 8.136308,3.081096l34.168803,30.232872z"
         style="fill:#035000;fill-opacity:1" />
      <g
         stroke="null"
         transform="matrix(-1.2299785,0,0,1.2299785,793.42904,-85.178162)"
         id="svg_6">
        <path
           stroke="null"
           id="svg_7"
           fill="#00EFD1"
           d="m 532.13823,287.01651 h -189.58 c -5.523,0 -10,-4.477 -10,-10 0,-5.523 4.477,-10 10,-10 h 189.58 c 5.523,0 10,4.477 10,10 0,5.523 -4.478,10 -10,10 z"
           style="fill:#033e00;fill-opacity:1" />
        <path
           stroke="null"
           id="svg_8"
           fill="#00EFD1"
           d="m 442.13823,227.01651 h -99.58 c -5.523,0 -10,-4.477 -10,-10 0,-5.523 4.477,-10 10,-10 h 99.58 c 5.523,0 10,4.477 10,10 0,5.523 -4.478,10 -10,10 z"
           style="fill:#033e00;fill-opacity:1" />
        <path
           stroke="null"
           id="svg_9"
           fill="#00EFD1"
           d="m 532.13823,347.01651 h -189.58 c -5.523,0 -10,-4.477 -10,-10 0,-5.523 4.477,-10 10,-10 h 189.58 c 5.523,0 10,4.477 10,10 0,5.523 -4.478,10 -10,10 z"
           style="fill:#033e00;fill-opacity:1" />
      </g>
      <g
         stroke="null"
         transform="matrix(1.2299785171731679,0,0,1.2299785171731679,-282.4288198579924,-85.17816204416006) "
         id="svg_10" />
      <g
         stroke="null"
         transform="matrix(1.2299785171731679,0,0,1.2299785171731679,-282.4288198579924,-85.17816204416006) "
         id="svg_11" />
      <g
         stroke="null"
         transform="matrix(1.2299785171731679,0,0,1.2299785171731679,-282.4288198579924,-85.17816204416006) "
         id="svg_12" />
      <g
         stroke="null"
         transform="matrix(1.2299785171731679,0,0,1.2299785171731679,-282.4288198579924,-85.17816204416006) "
         id="svg_13" />
      <g
         stroke="null"
         transform="matrix(1.2299785171731679,0,0,1.2299785171731679,-282.4288198579924,-85.17816204416006) "
         id="svg_14" />
      <g
         stroke="null"
         transform="matrix(1.2299785171731679,0,0,1.2299785171731679,-282.4288198579924,-85.17816204416006) "
         id="svg_15" />
      <g
         stroke="null"
         transform="matrix(1.2299785171731679,0,0,1.2299785171731679,-282.4288198579924,-85.17816204416006) "
         id="svg_16" />
      <g
         stroke="null"
         transform="matrix(1.2299785171731679,0,0,1.2299785171731679,-282.4288198579924,-85.17816204416006) "
         id="svg_17" />
      <g
         stroke="null"
         transform="matrix(1.2299785171731679,0,0,1.2299785171731679,-282.4288198579924,-85.17816204416006) "
         id="svg_18" />
      <g
         stroke="null"
         transform="matrix(1.2299785171731679,0,0,1.2299785171731679,-282.4288198579924,-85.17816204416006) "
         id="svg_19" />
      <g
         stroke="null"
         transform="matrix(1.2299785171731679,0,0,1.2299785171731679,-282.4288198579924,-85.17816204416006) "
         id="svg_20" />
      <g
         stroke="null"
         transform="matrix(1.2299785171731679,0,0,1.2299785171731679,-282.4288198579924,-85.17816204416006) "
         id="svg_21" />
      <g
         stroke="null"
         transform="matrix(1.2299785171731679,0,0,1.2299785171731679,-282.4288198579924,-85.17816204416006) "
         id="svg_22" />
      <g
         stroke="null"
         transform="matrix(1.2299785171731679,0,0,1.2299785171731679,-282.4288198579924,-85.17816204416006) "
         id="svg_23" />
      <g
         stroke="null"
         transform="matrix(1.2299785171731679,0,0,1.2299785171731679,-282.4288198579924,-85.17816204416006) "
         id="svg_24" />
    </g>
  </g>
</svg>
