<?xml version="1.0" encoding="UTF-8" standalone="no"?>
<svg
   xmlns:dc="http://purl.org/dc/elements/1.1/"
   xmlns:cc="http://creativecommons.org/ns#"
   xmlns:rdf="http://www.w3.org/1999/02/22-rdf-syntax-ns#"
   xmlns:svg="http://www.w3.org/2000/svg"
   xmlns="http://www.w3.org/2000/svg"
   xmlns:sodipodi="http://sodipodi.sourceforge.net/DTD/sodipodi-0.dtd"
   xmlns:inkscape="http://www.inkscape.org/namespaces/inkscape"
   inkscape:version="1.0 (4035a4f, 2020-05-01)"
   sodipodi:docname="quote.svg"
   id="svg866"
   version="1.1"
   height="512"
   width="512">
  <metadata
     id="metadata872">
    <rdf:RDF>
      <cc:Work
         rdf:about="">
        <dc:format>image/svg+xml</dc:format>
        <dc:type
           rdf:resource="http://purl.org/dc/dcmitype/StillImage" />
      </cc:Work>
    </rdf:RDF>
  </metadata>
  <defs
     id="defs870" />
  <sodipodi:namedview
     inkscape:current-layer="svg_6"
     inkscape:window-maximized="0"
     inkscape:window-y="0"
     inkscape:window-x="0"
     inkscape:cy="256"
     inkscape:cx="256"
     inkscape:zoom="1.2082638"
     showgrid="false"
     id="namedview868"
     inkscape:window-height="768"
     inkscape:window-width="1366"
     inkscape:pageshadow="2"
     inkscape:pageopacity="0"
     guidetolerance="10"
     gridtolerance="10"
     objecttolerance="10"
     borderopacity="1"
     bordercolor="#666666"
     pagecolor="#ffffff" />
  <!-- Created with Method Draw - http://github.com/duopixel/Method-Draw/ -->
  <g
     id="g839">
    <title
       id="title833">background</title>
    <rect
       x="-1"
       y="-1"
       width="514"
       height="514"
       id="canvas_background"
       fill="none" />
    <g
       id="canvasGrid"
       width="100%"
       height="100%"
       x="0"
       y="0"
       overflow="visible"
       display="none">
      <rect
         id="rect836"
         width="100%"
         height="100%"
         x="0"
         y="0"
         stroke-width="0"
         fill="url(#gridpattern)" />
    </g>
  </g>
  <g
     id="g864">
    <title
       id="title841">Layer 1</title>
    <g
       id="svg_25"
       stroke="null">
      <path
         style="fill:#80c904;fill-opacity:1"
         d="m121.67835,49.942936c4.677608,4.131498 11.705706,4.109358 16.358714,-0.049199l46.456289,-41.536375c4.665309,-4.181927 11.730305,-4.181927 16.395614,0l46.407089,41.499475c4.675148,4.169627 11.733995,4.169627 16.407913,0l46.407089,-41.499475c4.665309,-4.181927 11.730305,-4.181927 16.395614,0l46.456289,41.536375c4.653009,4.158557 11.681106,4.180697 16.358714,0.049199l34.168803,-30.231642c5.090881,-4.496801 12.864345,-4.01465 17.361147,1.076231c1.983955,2.245941 3.079866,5.13885 3.081096,8.136308l0,453.247084c-0.00369,6.793171 -5.512764,12.297325 -12.305935,12.293635c-2.997458,-0.00123 -5.890367,-1.097141 -8.136308,-3.081096l-34.168803,-30.232872c-4.677608,-4.131498 -11.705706,-4.109358 -16.358714,0.049199l-46.456289,41.536375c-4.665309,4.181927 -11.730305,4.181927 -16.395614,0l-46.407089,-41.499475c-4.675148,-4.169627 -11.732765,-4.169627 -16.407913,0l-46.407089,41.499475c-4.665309,4.181927 -11.730305,4.181927 -16.395614,0l-46.456289,-41.536375c-4.653009,-4.158557 -11.681106,-4.180697 -16.358714,-0.049199l-34.168803,30.232872c-5.090881,4.496801 -12.864345,4.01465 -17.361147,-1.076231c-1.983955,-2.245941 -3.079866,-5.13885 -3.081096,-8.136308l0,-453.248314c0.00369,-6.793171 5.512764,-12.297325 12.305935,-12.293635c2.997458,0.00123 5.890367,1.097141 8.136308,3.081096l34.168803,30.232872z"
         fill="#00ACEA"
         id="svg_5"
         stroke="null" />
      <g
         id="svg_6"
         transform="matrix(1.2299785171731679,0,0,1.2299785171731679,-282.4288198579924,-85.17816204416006) "
         stroke="null">
        <path
           style="fill:#00854e;fill-opacity:1"
           d="m532.138231,287.016514l-189.58,0c-5.523,0 -10,-4.477 -10,-10c0,-5.523 4.477,-10 10,-10l189.58,0c5.523,0 10,4.477 10,10c0,5.523 -4.478,10 -10,10z"
           fill="#00EFD1"
           id="svg_7"
           stroke="null" />
        <path
           style="fill:#00854e;fill-opacity:1"
           d="m442.138231,227.016514l-99.58,0c-5.523,0 -10,-4.477 -10,-10s4.477,-10 10,-10l99.58,0c5.523,0 10,4.477 10,10s-4.478,10 -10,10z"
           fill="#00EFD1"
           id="svg_8"
           stroke="null" />
        <path
           style="fill:#00854e;fill-opacity:1"
           d="m532.138231,347.016514l-189.58,0c-5.523,0 -10,-4.477 -10,-10s4.477,-10 10,-10l189.58,0c5.523,0 10,4.477 10,10s-4.478,10 -10,10z"
           fill="#00EFD1"
           id="svg_9"
           stroke="null" />
      </g>
      <g
         id="svg_10"
         transform="matrix(1.2299785171731679,0,0,1.2299785171731679,-282.4288198579924,-85.17816204416006) "
         stroke="null" />
      <g
         id="svg_11"
         transform="matrix(1.2299785171731679,0,0,1.2299785171731679,-282.4288198579924,-85.17816204416006) "
         stroke="null" />
      <g
         id="svg_12"
         transform="matrix(1.2299785171731679,0,0,1.2299785171731679,-282.4288198579924,-85.17816204416006) "
         stroke="null" />
      <g
         id="svg_13"
         transform="matrix(1.2299785171731679,0,0,1.2299785171731679,-282.4288198579924,-85.17816204416006) "
         stroke="null" />
      <g
         id="svg_14"
         transform="matrix(1.2299785171731679,0,0,1.2299785171731679,-282.4288198579924,-85.17816204416006) "
         stroke="null" />
      <g
         id="svg_15"
         transform="matrix(1.2299785171731679,0,0,1.2299785171731679,-282.4288198579924,-85.17816204416006) "
         stroke="null" />
      <g
         id="svg_16"
         transform="matrix(1.2299785171731679,0,0,1.2299785171731679,-282.4288198579924,-85.17816204416006) "
         stroke="null" />
      <g
         id="svg_17"
         transform="matrix(1.2299785171731679,0,0,1.2299785171731679,-282.4288198579924,-85.17816204416006) "
         stroke="null" />
      <g
         id="svg_18"
         transform="matrix(1.2299785171731679,0,0,1.2299785171731679,-282.4288198579924,-85.17816204416006) "
         stroke="null" />
      <g
         id="svg_19"
         transform="matrix(1.2299785171731679,0,0,1.2299785171731679,-282.4288198579924,-85.17816204416006) "
         stroke="null" />
      <g
         id="svg_20"
         transform="matrix(1.2299785171731679,0,0,1.2299785171731679,-282.4288198579924,-85.17816204416006) "
         stroke="null" />
      <g
         id="svg_21"
         transform="matrix(1.2299785171731679,0,0,1.2299785171731679,-282.4288198579924,-85.17816204416006) "
         stroke="null" />
      <g
         id="svg_22"
         transform="matrix(1.2299785171731679,0,0,1.2299785171731679,-282.4288198579924,-85.17816204416006) "
         stroke="null" />
      <g
         id="svg_23"
         transform="matrix(1.2299785171731679,0,0,1.2299785171731679,-282.4288198579924,-85.17816204416006) "
         stroke="null" />
      <g
         id="svg_24"
         transform="matrix(1.2299785171731679,0,0,1.2299785171731679,-282.4288198579924,-85.17816204416006) "
         stroke="null" />
    </g>
  </g>
</svg>
