<svg width="512" height="512" enable-background="new 0 0 512 512" version="1.1" viewBox="0 0 512 512" xmlns="http://www.w3.org/2000/svg"><defs><filter id="filter21094" x="-.036485" y="-.017881" width="1.073" height="1.0358" style="color-interpolation-filters:sRGB"><feGaussianBlur stdDeviation="0.465385"/></filter></defs><path d="m379.75 431.51c0 7.932-6.43 14.362-14.362 14.362h-351.02c-7.932 0-14.362-6.43-14.362-14.362v-352.22c0-7.269 5.892-13.161 13.161-13.161h353.43c7.268 0 13.161 5.892 13.161 13.161z" fill="#ffd064" style="fill:#9a4121"/><path d="m366.59 66.126h-27.213c7.268 0 13.161 5.892 13.161 13.161v366.59h12.85c7.932 0 14.362-6.43 14.362-14.362v-352.23c1e-3 -7.269-5.892-13.161-13.16-13.161z" fill="#ffc250" style="fill:#7e3a1a"/><path d="m235.09 133.22h-99.87c-9.2433 0-16.736-3.7608-16.736-8.4007v-58.528h133.34v58.528c0 4.6394-7.495 8.4007-16.738 8.4007z" fill="#26457d" style="fill:#ffc431;stroke-width:1.5124"/><path transform="matrix(1.8888 0 0 1.0715 -165.79 -4.5542)" d="m198.33 66.126v54.624c0 4.33-3.51 7.84-7.84 7.84h22.773c4.33 0 7.84-3.51 7.84-7.84v-54.624z" fill="#21386b" style="fill:#fcb431;filter:url(#filter21094)"/><g transform="matrix(1.0968 0 0 1.0968 526.38 -459.23)" fill="#f4e8d7"><path id="be" d="m-299.67 661.85c-6.4496-7.5533 34.466-32.701 48.365-32.925 13.899-0.22464 45.574 105.66 10.099 112.95-15.212 3.1259-96.8 8.3575-158.17-0.86909-12.826-1.9285-13.449-32.829-5.599-44.633 10.54-15.853 34.58-11.148 50.834-5.206 36.305 13.272 60.143 23.734 69.853 8.9143 7.5735-11.559-8.9296-30.676-15.38-38.23z" style="stroke-width:.27732"/><ellipse cx="-304.17" cy="785.23" rx="27.282" ry="26.429" style="stroke-width:.27732"/></g><g transform="matrix(.54213 0 0 .54213 265.63 54.721)"><g transform="matrix(1.0008 0 0 1.0008 -2.3312 -2.2917)"><circle cx="227.56" cy="227.56" r="227.56" style="fill:#80c904"/><path d="m455.11 227.56c0 125.16-102.4 227.56-227.56 227.56-72.533 0-136.53-32.711-177.78-85.333 38.4 31.289 88.178 49.778 142.22 49.778 125.16 0 227.56-102.4 227.56-227.56 0-54.044-18.489-103.82-49.778-142.22 52.623 41.243 85.334 105.24 85.334 177.78z" style="fill:#338000"/></g><path d="m260.58 120.93h-73.828l15.533-15.554c10.379-10.399 10.365-27.249-0.0347-37.628-10.399-10.379-27.249-10.372-37.628 0.03462l-61.018 61.128c-4.9884 4.9953-7.7805 11.764-7.7735 18.817 0.0072 7.0599 2.8129 13.822 7.8081 18.81l61.135 61.018c5.1892 5.1824 11.993 7.7736 18.79 7.7736 6.8243 0 13.635-2.605 18.831-7.8082 10.386-10.399 10.365-27.242-0.0346-37.628l-15.783-15.755h74.001c27.388 0 49.669 22.281 49.669 49.669v1.7598c0 27.388-22.281 49.669-49.669 49.669h-124.15c-14.695 0-26.605 11.91-26.605 26.605s11.91 26.605 26.605 26.605h124.15c56.729 0 102.88-46.149 102.88-102.88v-1.7598c0-56.729-46.149-102.88-102.88-102.88z" fill="#e1f6fd" style="fill:#ffffff;stroke-width:1.7736"/></g></svg>
