<svg width="512" height="512" stroke="null" style="vector-effect:non-scaling-stroke" version="1.1" xmlns="http://www.w3.org/2000/svg" xmlns:xlink="http://www.w3.org/1999/xlink"><defs><linearGradient id="linearGradient2465" x1="74.1" x2="275" y1="250" y2="250" gradientUnits="userSpaceOnUse"><stop style="stop-color:#9a4121" offset="0"/><stop style="stop-color:#7e3a1a" offset=".675"/><stop style="stop-color:#7e3a1a" offset="1"/></linearGradient><linearGradient id="linearGradient2475" x1="309" x2="401" y1="89.9" y2="151" gradientUnits="userSpaceOnUse"><stop style="stop-color:#ffe084" offset="0"/><stop style="stop-color:#ffe084" offset=".589"/><stop style="stop-color:#f9a894" offset="1"/></linearGradient><filter id="filter1618" x="-.0832" y="-.0691" width="1.17" height="1.14" style="color-interpolation-filters:sRGB"><feGaussianBlur stdDeviation="5.5278582"/></filter></defs><g stroke="null"><title>background</title><rect id="canvas_background" x="-1" y="-1" width="514" height="514" fill="none"/><g id="canvasGrid" x="0" y="0" width="100%" height="100%" display="none" overflow="visible" style="vector-effect:non-scaling-stroke"><rect width="100%" height="100%" fill="url(#gridpattern)" stroke-width="0"/></g></g><g stroke="null"><title>Layer 1</title><g transform="rotate(19 275 212)"><g stroke="null"><polygon points="74.1 86.6 74.1 338 275 413 275 162" fill="#FFC107" style="fill:url(#linearGradient2465)"/><polygon points="476 86.6 476 338 275 413 275 162" fill="#FFD54F" style="fill:#9a4121"/><polygon points="275 11.2 74.1 86.6 275 162 476 86.6" fill="#FFA000" style="fill:#7e3a1a"/><polygon points="351 134 275 103 275 103 325 81.3 325 81.2 401 115 401 203 351 222" fill="#F44336" style="fill:url(#linearGradient2475)"/></g><path d="m198 206c-3.5-7.65 35.7-18.6 47-15.6 11.4 3.04 12.6 96.7-18 94.4-13.1-0.983-80.8-15.6-129-37.4-10-4.55-3.34-29.9 5.79-37.7 12.3-10.5 30.8-1.06 42.6 7.55 26.5 19.2 43.5 33.3 54.9 23.5 8.85-7.66-0.158-27.1-3.66-34.7z" style="clip-rule:evenodd;fill-rule:evenodd;fill:#f4e8d7;image-rendering:optimizeQuality;shape-rendering:geometricPrecision;stroke:none"/><ellipse transform="rotate(15.9)" cx="243" cy="249" rx="23.1" ry="22.4" style="clip-rule:evenodd;fill-rule:evenodd;fill:#f4e8d7;image-rendering:optimizeQuality;shape-rendering:geometricPrecision;stroke:none"/><path d="m395 270 25.1-43.7c4.42-7.66 1.78-17.4-5.89-21.8-7.66-4.42-17.4-1.76-21.9 5.9l-46.3 80.6-0.164 0.508-1.41 4.43-0.469 1.72c-0.168 2.13 0.0492 4.34 0.799 6.52 0.743 2.16 1.93 4.03 3.4 5.62l1.43 1.07 3.84 2.63 0.441 0.299 86.1 35c3.75 1.51 7.7 1.52 11.2 0.308 4.22-1.45 7.81-4.65 9.61-9.11 3.32-8.18-0.617-17.5-8.8-20.8l-46.1-18.7c53.4-16.6 111 12.9 130 67.2l13.3 38.5c2.87 8.35 12 12.8 20.3 9.92 8.35-2.87 12.8-12 9.92-20.3l-13.3-38.5c-24.5-71.2-101-110-171-87.1z" fill="#f44336" style="stroke-width:21.3"/><path d="m378 183c-4.4 1.51-8.29 4.57-10.8 8.92l-57.7 100-0.204 0.632-1.75 5.52-0.584 2.14c-0.234 2.67 0.0362 5.41 0.971 8.13 0.926 2.69 2.4 5.02 4.24 7l1.78 1.33 4.78 3.27 0.55 0.373 107 43.6c4.67 1.88 9.59 1.9 14 0.384 5.25-1.81 9.73-5.79 12-11.3 4.14-10.2-0.769-21.8-11-26l-57.5-23.3c31.8-9.88 64.8-6.66 93.2 6.79l-16.5-48c-29-6.95-60.1-6.28-90.3 3.5l31.3-54.5c5.51-9.54 2.22-21.7-7.34-27.2-5.16-3-11.1-3.4-16.4-1.59z" fill="#d43a2f" style="fill:#fff;filter:url(#filter1618);stroke-width:26.6"/><path d="m401 203c-3.53 1.22-6.66 3.67-8.68 7.16l-46.3 80.6-0.164 0.508-1.41 4.43-0.469 1.72c-0.188 2.14 0.0291 4.34 0.779 6.52 0.743 2.16 1.93 4.03 3.4 5.62l1.43 1.07 3.84 2.63 0.441 0.299 86.1 35c3.75 1.51 7.7 1.52 11.2 0.308 4.22-1.45 7.81-4.65 9.61-9.11 3.32-8.18-0.617-17.5-8.8-20.8l-46.1-18.7c25.5-7.93 52-5.35 74.8 5.45l-13.3-38.5c-23.3-5.58-48.3-5.04-72.5 2.81l25.1-43.7c4.42-7.66 1.78-17.4-5.89-21.8-4.15-2.41-8.93-2.73-13.1-1.27z" fill="#d43a2f" style="stroke-width:21.3"/></g><path d="m414 395h-70.5l-52.2 4.11c-19 2.72-36.7-10.5-39.4-29.5-0.232-1.62-0.348-3.26-0.349-4.9-0.0196-8 2.52-15.8 7.24-22.3l36.5-50.2c11.7-17.9 6.75-41.8-11.1-53.5-15.2-10-35.4-8-48.4 4.8l-58.8 58.8c-31.1 1.67-58.8 19.9-72.6 47.8-0.357 0.743-0.638 1.52-0.836 2.32l-25.6 97.2c-1.64 6.2 2.06 12.5 8.25 14.2 0.394 0.104 0.793 0.187 1.2 0.25l149 22.9c7.53 1.65 15.2 2.38 23 2.16 23.9 1.41 47.6-4.02 68.5-15.6l91.9-57c5.45-3.38 7.13-10.5 3.75-16-2.12-3.42-5.86-5.5-9.88-5.49z" fill="#fce5a1"/><path d="m121 328c-20.3-19.3-86.8-25.3-99.8-26.4-3.23-0.341-6.45 0.774-8.77 3.04-2.43 2.18-3.83 5.28-3.85 8.54v162c0 6.41 5.2 11.6 11.6 11.6 26.6-2.89 52.3-11.3 75.4-24.7 2.52-1.44 4.41-3.78 5.29-6.54 11.8-38.6 19.8-78.4 23.8-119 0.294-3.53-1.04-7-3.62-9.42z" fill="#2196F3"/></g></svg>
