<svg width="128" height="128" version="1.1" viewBox="0 0 128 128" xml:space="preserve" xmlns="http://www.w3.org/2000/svg"><defs><clipPath id="clipPath1008"><path d="m-251 405s-4.98 46.7-40.9 75.6c-15.2 12.2-54.3 21.7-54.3 21.7v36.5l-72.2-67.4 72.2-65.6v40s23.1 2.36 44.3-5.22c30.1-10.7 50.9-35.6 50.9-35.6z" style="fill:#f00;stroke-width:1px;stroke:#000"/></clipPath>
	
	
	
	
	
</defs>
<rect x="37.6" y="29.1" width="90.4" height="72.5" style="fill:#a67e4f;stroke-width:.258"/><polygon transform="matrix(.258 0 0 .258 32.2 .361)" points="196 0 327 0 372 112 196 112 21.2 112 66 0" style="fill:#d9ac80"/><polygon transform="matrix(.258 0 0 .258 32.2 .361)" points="214 0 223 112 170 112 179 0" style="fill:#f2d3ba"/><g transform="matrix(.258 0 0 .258 32.2 .361)">
		<polygon points="182 148 196 136 211 148 223 156 223 112 170 112 170 156" style="fill:#d7baa4"/>
		
	</g>















<g transform="matrix(.433 0 0 .433 30.1 22.1)"><path d="m129 81.5s-5.86 55-48.1 89c-17.9 14.4-64 25.6-64 25.6v43l-84.9-79.3 84.9-77.3v47.1s27.2 2.78 52.2-6.14c35.4-12.6 59.9-42 59.9-42z" style="fill:#035000;stroke-width:1.18px;stroke:#035000"/><path transform="matrix(1.18 0 0 1.18 424 -396)" d="m-366 424s4.05 5.87 7.34 7.97c4.93 3.15 13.5 2.24 13.5 2.24l12.4-36.9-25.4 4.74z" clip-path="url(#clipPath1008)" style="fill:#023800;stroke-width:1px;stroke:#023800"/><path d="m-8.01 217s0.402-25.3 8.31-33.8c5.32-5.72 15.4-4.86 22.3-7.24 12.4-4.29 21.6-8.26 30.4-15.5 15.3-12.6 24.1-29.8 36.9-46.6 15-9.33 20.7-13 39.5-33.8 0 0-4.36 49.8-43.2 87.3-18.1 17.5-69 30.3-69 30.3v43.4z" style="fill:#023800;stroke-width:1.18px;stroke:#023800"/></g></svg>
