<?xml version="1.0" encoding="UTF-8" standalone="no"?>
<svg xmlns="http://www.w3.org/2000/svg" enable-background="new 0 0 896 979" viewBox="0 0 700 700" height="700"
  width="700" y="0px" x="0px" version="1.1">
  <defs>
    <style>
      #armLeft {
        animation: 1s ease-in-out -0.7s infinite alternate-reverse anim-noq;
      }

      @keyframes anim-noq {
        0% {
          transform: translate(-10px, 0);
        }

        100% {
          transform: translate(40px, 0);
        }
      }
    </style>
  </defs>
  <g transform="translate(-64.581709,-74.856072)" id="publishing">
    <g>
      <g>
        <g transform="translate(-109.35059,-90.636895)" id="g56">
          <g>
            <g id="body_1_">
              <g id="body_2_">
                <path
                  d="M 630.318,616.913 C 597.236,547.948 529.545,493.619 450.201,493.619 c -79.34,0 -147.029,54.329 -180.115,123.293 -33.082,68.967 -33.111,151.595 -33.111,151.595 72.065,48.734 213.229,52.607 213.229,52.607 0,0 141.189,-3.888 213.233,-52.607 -0.005,0.001 -0.037,-82.628 -33.119,-151.594 z"
                  fill="#986844" id="body_6_" />
                <g>
                  <path id="path11"
                    d="M 323.507,803.611 C 241.403,729.4 292.444,597.282 292.444,597.282 l 23.784,-33.096 c 0,0 -8.013,2.636 -15.596,4.85 -12.068,14.665 -22.371,30.819 -30.552,47.874 -30.823,64.255 -32.951,140.357 -33.102,150.454 0,0.02 0,0.036 0,0.054 -0.002,0.129 -0.003,0.241 -0.004,0.347 0,0.022 0,0.044 0,0.063 -0.002,0.087 -0.003,0.172 -0.003,0.244 0,0.04 -0.001,0.07 -0.001,0.102 0,0.048 0,0.093 0,0.131 0,0.038 0,0.067 0,0.091 0,0.063 0,0.109 0,0.109 23.827,16.114 55.207,27.321 86.537,35.106 z"
                    fill="#895d3d" />
                  <path id="path13"
                    d="M 576.928,803.611 C 659.033,729.4 607.99,597.282 607.99,597.282 l -23.783,-33.098 c 0,0 8.015,2.636 15.598,4.849 12.066,14.664 22.368,30.82 30.549,47.875 30.82,64.253 32.955,140.356 33.105,150.453 0,0.023 0.001,0.037 0.001,0.059 0.003,0.128 0.003,0.238 0.006,0.343 0,0.023 0,0.041 0,0.064 0.002,0.09 0.002,0.172 0.002,0.244 0,0.038 0.002,0.073 0.002,0.103 0,0.047 10e-4,0.092 10e-4,0.134 0,0.036 0,0.063 0,0.087 0,0.064 0,0.109 0,0.109 -23.833,16.115 -55.21,27.322 -86.543,35.107 z"
                    fill="#895d3d" />
                </g>
              </g>
              <g id="belly_2_">
                <path id="path17"
                  d="m 450.189,658.024 c -90.773,0 -169.628,25.736 -209.479,63.533 -3.73,27.687 -3.738,46.95 -3.738,46.95 72.066,48.734 213.229,52.607 213.229,52.607 0,0 141.188,-3.887 213.23,-52.607 0,0 -0.01,-19.247 -3.732,-46.916 -39.845,-37.817 -118.718,-63.567 -209.51,-63.567 z"
                  fill="#b78563" />
                <g id="belly_shadow_1_">
                  <path id="path19"
                    d="m 323.442,803.596 c 0,0 -43.234,-33.395 -46.48,-107.623 0,0 -26.349,14.397 -36.254,25.618 -3.726,27.669 -3.732,46.913 -3.732,46.913 23.805,16.103 55.155,27.306 86.466,35.092 -0.002,0 -0.002,0 0,0 z"
                    fill="#a57859" />
                  <path id="path21"
                    d="m 576.961,803.596 c 0,0 43.23,-33.395 46.477,-107.623 0,0 26.348,14.397 36.256,25.618 3.725,27.669 3.73,46.913 3.73,46.913 -23.801,16.105 -55.152,27.306 -86.463,35.092 z"
                    fill="#a57859" />
                </g>
              </g>
            </g>
            <g id="legs_2_">
              <g id="leg_4_">
                <path id="path26"
                  d="m 361.295,714.852 c 0,-0.002 0,-0.002 0,-0.003 -12.233,-22.109 -38.263,-37.368 -68.396,-37.368 -41.887,0 -75.841,29.487 -75.841,65.855 0,31.961 26,60.852 59.953,66.081 33.955,5.229 100.191,4.681 100.191,4.681 16.271,-11.895 -1.993,-74.529 -15.907,-99.246 z"
                  fill="#986844" />
                <g id="shadow_6_">
                  <path id="path28"
                    d="M 292.898,810.331 C 197.833,754.094 276.865,678.98 276.894,678.954 c -34.203,6.377 -59.836,32.777 -59.836,64.387 0,31.956 26,60.847 59.953,66.076 5.272,0.812 11.322,1.485 17.782,2.042 -0.619,-0.369 -1.247,-0.745 -1.895,-1.128 z"
                    fill="#895d3d" />

                  <ellipse id="ellipse30" ry="23.764" rx="26.580999" cy="783.26099" cx="277.51401" fill="#895d3d"
                    transform="matrix(-0.5,-0.866,0.866,-0.5,-262.0485,1415.2288)" />
                </g>
                <g id="g37">

                  <ellipse id="ellipse33" ry="23.766001" rx="26.579" cy="788.63702" cx="280.57999" fill="#7a5336"
                    transform="matrix(-0.5,-0.866,0.866,-0.5,-262.1028,1425.9502)" />

                  <ellipse id="ellipse35" ry="14.405" rx="16.113001" cy="794.11499" cx="283.69501" fill="#af7146"
                    transform="matrix(-0.5,-0.866,0.866,-0.5,-262.1823,1436.858)" />
                </g>
              </g>
              <g id="leg_2_">
                <path id="path40"
                  d="m 540.458,714.852 c 0,-0.002 0,-0.002 0.003,-0.003 12.232,-22.109 38.26,-37.368 68.393,-37.368 41.887,0 75.841,29.487 75.841,65.855 0,31.961 -26.002,60.852 -59.951,66.081 -33.952,5.229 -100.195,4.681 -100.195,4.681 -16.268,-11.895 1.995,-74.529 15.909,-99.246 z"
                  fill="#986844" />
                <g id="shadow_5_">
                  <path id="path42"
                    d="m 608.854,810.331 c 95.064,-56.237 16.031,-131.351 16.003,-131.377 34.199,6.377 59.833,32.777 59.833,64.387 0,31.956 -26.001,60.847 -59.95,66.076 -5.273,0.812 -11.321,1.485 -17.781,2.042 0.62,-0.369 1.248,-0.745 1.895,-1.128 z"
                    fill="#895d3d" />

                  <ellipse id="ellipse44" ry="23.764999" rx="26.579" cy="783.25098" cx="624.27002" fill="#895d3d"
                    transform="matrix(-0.5,0.866,-0.866,-0.5,1614.7227,634.2617)" />
                </g>
                <g id="g51">

                  <ellipse id="ellipse47" ry="23.766001" rx="26.577" cy="788.73102" cx="621.21503" fill="#7a5336"
                    transform="matrix(-0.5,0.866,-0.866,-0.5,1614.8857,645.1229)" />

                  <ellipse id="ellipse49" ry="14.406" rx="16.113001" cy="794.11401" cx="618.065" fill="#af7146"
                    transform="matrix(-0.5,0.866,-0.866,-0.5,1614.8187,655.8979)" />
                </g>
              </g>
            </g>
          </g>
        </g>
        <g transform="translate(-109.35059,-90.636895)" id="arms_2_">
          <g id="g66">
            <rect id="rect58" height="198.96201" width="265.284" fill="#da9a5b" y="647.45801" x="305.237" />
            <polygon id="polygon60" points="472.539,846.421 572.02,846.421 572.02,746.938 " enable-background="new    "
              opacity="0.05" />
            <polygon transform="matrix(1,0,0,0.64903786,-100,227.23289)" id="polygon62"
              points="461.801,717.799 467.67,647.457 519.709,647.457 511.966,735.857 " fill="#e5b486" />

          </g>
        </g>
        <g transform="translate(-109.35059,-90.636895)" id="arm_7_">
          <path
            d="m 660.773,636.27 c 27.01,52.505 18.39,64.416 0.904,88.65 -6.293,8.722 -64.973,61.39 -139.26,61.39 0,-51.312 32.874,-126.265 32.874,-126.265 0,0 63.928,-104.566 105.482,-23.775 z"
            fill="#986844" id="arm_8_" />
          <path id="path70"
            d="m 522.418,786.308 c 74.287,0 132.967,-52.667 139.261,-61.39 17.483,-24.234 26.104,-36.144 -0.905,-88.65 -0.525,-1.023 -1.061,-1.998 -1.594,-2.962 0.083,0.797 9.558,96.994 -136.762,153.002 z"
            enable-background="new    " opacity="0.1" />
        </g>
        <g transform="translate(-109.35059,-90.636895)" id="npm_-_wombat_-_face_1_">
          <path id="path73"
            d="M 381.092,304.306 C 318.149,367.6 283.07,458.911 283.07,458.911 c 10.314,36.888 35.867,68.071 64.824,93.061 -0.005,-0.009 -0.011,-0.018 -0.015,-0.028 54.439,46.995 120.944,72.11 120.944,72.11 0,0 66.203,25.822 138.088,27.327 0,0 -0.004,0.002 -0.007,0.003 6.465,0.139 12.935,0.078 19.394,-0.218 31.675,-1.446 64,-8.361 91.051,-25.571 1.429,-3.746 2.721,-7.545 3.988,-11.349 7.847,-23.544 14.068,-47.676 18.716,-72.05 6.269,-32.866 9.765,-66.611 7.717,-100.077 -1.957,-31.946 -9.114,-63.651 -21.821,-93.061 1.589,-9.659 5.55,-39.918 -1.509,-68.323 l -36.292,7.956 c -16.753,-18.999 -37.134,-34.77 -60.124,-45.489 -30.473,-14.209 -64.541,-18.988 -97.854,-15.125 l 0.013,-0.012 v -0.005 h 0.002 c -0.002,0 -0.002,0 -0.002,0 l -21.648,-30.19 c -24.269,16.4 -41.578,41.561 -46.848,49.784 -29.515,13.528 -57.083,33.009 -80.595,56.652 -62.944,63.294 23.512,-23.641 0,0 z"
            enable-background="new    " opacity="0.1" />
          <g id="ears_1_">
            <g id="ear_3_">
              <path id="path75"
                d="m 461.745,237.23 42.681,4.382 27.506,-26.689 -21.648,-30.195 c -29.345,19.832 -48.539,52.502 -48.539,52.502 z"
                fill="#986844" />
              <polygon id="polygon77" points="531.932,214.923 525.688,220.983 504.932,223.074 510.283,184.728 "
                fill="#895d3d" />
            </g>
            <g id="ear_2_">
              <path id="path80"
                d="m 727.135,339.089 -34.655,-25.299 -2.583,-38.24 36.295,-7.956 c 8.538,34.374 0.946,71.496 0.943,71.495 z"
                fill="#986844" />
              <polygon id="polygon82" points="689.898,275.553 690.481,284.234 704.508,299.675 726.191,267.596 "
                fill="#895d3d" />
            </g>
          </g>
          <path
            d="m 284.844,445.782 c 29.708,106.231 185.731,165.134 185.731,165.134 0,0 155.373,60.616 248.525,1.54 0,0 35.02,-91.332 30.586,-180.486 -4.435,-89.151 -50.319,-175.654 -131.109,-206.661 -80.789,-31.008 -172.767,2.579 -235.708,65.871 -62.94,63.295 -98.027,154.603 -98.025,154.602 z"
            fill="#986844" id="head_1_" />
          <g id="nose_1_">

            <ellipse ry="33.095001" rx="68.408997" cy="575.71698" cx="484.10001" fill="#895d3d"
              transform="matrix(0.9336,0.3583,-0.3583,0.9336,238.4203,-135.2291)" id="nose_3_" />

            <ellipse ry="33.091" rx="68.410004" cy="569.76501" cx="486.41101"
              transform="matrix(0.9336,0.3583,-0.3583,0.9336,236.4447,-136.4536)" id="nose_2_" />
          </g>
          <g id="face_1_">
            <g id="eyes_1_">
              <g id="eye_2_">
                <path id="path90"
                  d="m 585.221,546.32 c 7.681,2.946 11.516,11.558 8.57,19.236 -2.948,7.679 -11.562,11.512 -19.24,8.567 -7.678,-2.948 -11.515,-11.559 -8.568,-19.237 2.948,-7.681 11.561,-11.516 19.238,-8.566 z"
                  fill="#b78563" />
                <circle id="circle92" r="11.147" cy="561.74402" cx="576.271" />
                <circle id="circle94" r="3.602" cy="558.80701" cx="576.35797" fill="#ffffff" />
              </g>
              <g id="eye_1_">
                <path id="path97"
                  d="m 427.91,485.939 c -7.676,-2.946 -16.289,0.887 -19.237,8.565 -2.946,7.679 0.889,16.288 8.568,19.238 7.677,2.947 16.29,-0.887 19.239,-8.564 2.948,-7.677 -0.89,-16.289 -8.57,-19.239 z"
                  fill="#b78563" />
                <circle id="circle99" r="11.146" cy="503.396" cx="424.24399" />
                <circle id="circle101" r="3.6040001" cy="501.14899" cx="426.146" fill="#ffffff" />
              </g>
            </g>
          </g>
          <path
            d="m 689.897,275.55 c 36.359,41.232 56.897,98.262 59.788,156.42 4.432,89.15 -30.588,180.484 -30.588,180.484 -32.348,20.517 -72.202,26.596 -110.442,25.793 39.565,-15.886 72.999,-42.959 72.999,-42.959 85.832,-214.441 9.76,-317.71 8.243,-319.738 z M 531.934,214.919 c -54.609,6.319 -108.026,34.958 -149.091,76.247 -62.943,63.295 -98.023,154.605 -98.023,154.605 10.316,36.888 35.868,68.073 64.825,93.063 -18.778,-38.281 -25.513,-80.767 -25.513,-80.767 79.69,-216.8 205.318,-242.653 207.802,-243.148 z"
            fill="#895d3d" id="shadow_4_" />
        </g>


        <path style="stroke-width:0.261809" id="be"
          d="m 332.01352,610.80395 c -6.06788,-7.15565 32.42634,-30.97949 45.50265,-31.19202 13.07604,-0.21281 42.87715,100.09885 9.50111,107.00308 -14.31143,2.96138 -91.07103,7.91755 -148.81197,-0.82334 -12.0674,-1.82696 -12.65313,-31.10062 -5.26768,-42.28348 9.91597,-15.01855 32.53332,-10.56154 47.82601,-4.932 34.15641,12.57368 56.58408,22.48448 65.71943,8.44508 7.12531,-10.95064 -8.40116,-29.06139 -14.46955,-36.21732 z"
          fill="#f4e8d7" />
        <ellipse style="stroke-width:0.261809" ry="25.037964" rx="25.667261" cy="727.69208" cx="327.77203" id="noq"
          fill="#f4e8d7" />
        <g id="g284">
          <g id="armLeft">
            <g id="g186" transform="translate(-109.35059,-90.636898)">
              <g id="arm_1_">
                <path id="arm_4_" opacity="0.1" enable-background="new    "
                  d="m 270.168,459.087 c -44.305,21.708 -51.755,68.231 -42.797,93.142 3.224,8.962 54.855,39.102 127.788,76.03 17.384,-34.335 10.507,-100.829 10.507,-100.829 0,0 -27.331,-101.746 -95.498,-68.343 z" />
                <g id="g180">
                  <g id="g147">
                    <path fill="#d38a09"
                      d="m 383.998,643.816 c -4.279,-1.306 -15.699,-22.149 -15.699,-22.149 l -7.183,-2.193 c -1.097,-2.842 -8.837,-24.952 -8.121,-27.301 0.718,-2.347 -1.851,-3.338 -1.851,-3.338 0,0 -1.518,-0.466 -4.279,-1.308 -2.763,-0.842 -4.148,-4.239 -4.482,-6.607 -0.336,-2.369 -8.941,-5.854 -13.08,-5.157 -4.139,0.699 -6.865,3.641 -9.687,0.515 -2.818,-3.126 -11.974,-6.375 -15.563,-7.473 -3.593,-1.098 -14.456,-3.66 -20.078,-2.055 -5.627,1.605 -6.67,1.285 -9.02,0.568 -3.383,-1.034 -3.775,-0.548 -2.004,-6.35 0.548,-1.795 4.6,-15.054 6.116,-20.025 1.521,-4.974 4.374,-7.841 11.505,-5.965 7.125,1.873 46.422,17.135 46.422,17.135 2.336,0.914 3.919,-0.142 3.919,-0.142 0,0 5.52,-4.719 6.899,-6.111 1.382,-1.389 3.165,-0.969 3.165,-0.969 l 8.839,2.699 c 0,0 55.107,12.023 59.251,13.289 4.144,1.265 1.927,8.165 1.927,8.165 l -22.019,72.093 c -3.01,1.646 -10.697,3.989 -14.977,2.679 z"
                      id="path109" />
                    <path opacity="0.1" enable-background="new    "
                      d="m 390.903,554.254 c -2.878,2.313 -5.172,5.46 -6.329,9.25 -3.07,10.051 2.492,20.693 12.543,23.762 7.723,2.358 15.932,-0.413 20.301,-6.512 l -1.74,5.713 c -5.05,4.202 -12.426,5.694 -19.405,3.562 -11.573,-3.536 -17.878,-15.759 -14.343,-27.332 1.102,-3.607 3.054,-6.727 5.567,-9.2 1.154,0.258 2.254,0.499 3.406,0.757 z m 30.967,12.793 c 0.218,-1.895 0.153,-4.534 -1.573,-5.748 0.814,1.81 1.353,3.747 1.573,5.748 z"
                      id="path111" />
                    <path opacity="0.1" enable-background="new    "
                      d="m 366.812,548.884 c -1.402,2.538 -2.627,5.239 -3.507,8.123 -6.804,22.273 5.618,45.807 27.893,52.606 5.749,1.757 11.699,2.259 16.953,1.495 l 8.71,-28.524 c -3.593,3.55 -8.376,5.661 -13.47,5.692 2.083,-9.596 10.614,-12.764 16.027,-14.061 l 1.577,-5.172 c 0,0 2.251,-7.014 -1.892,-8.279 -0.104,-0.029 -0.006,0.002 -0.173,-0.046 -7.575,1.163 -12.196,-0.69 -15.009,-3.52 -12.011,-2.732 -28.075,-6.309 -37.109,-8.314 z m 20.512,10.815 c 8.332,9.403 5.881,17.965 2.873,23.061 -4.756,-4.828 -6.793,-12.046 -4.676,-18.966 0.447,-1.464 1.06,-2.832 1.803,-4.095 z"
                      id="path113" />
                    <path fill="#ef9f00"
                      d="m 360.325,547.57 c -0.362,-0.079 -0.509,0.02 -0.509,0.02 l -8.839,-2.7 c 0,0 -1.802,-0.426 -3.181,0.965 -1.383,1.389 -6.9,6.047 -6.9,6.047 0,0 -1.631,1.074 -3.967,0.159 0,0 -39.229,-15.221 -46.355,-17.095 -7.129,-1.874 -9.986,1.007 -11.507,5.98 -1.519,4.972 -5.568,18.232 -6.116,20.025 -1.771,5.801 -1.384,5.328 2.004,6.359 2.345,0.718 3.464,1.071 9.086,-0.535 5.623,-1.605 16.445,0.967 20.037,2.066 3.592,1.096 12.714,4.377 15.534,7.503 2.82,3.124 5.514,0.253 9.652,-0.441 4.14,-0.701 12.786,2.638 13.122,5.002 0.332,2.366 1.713,5.764 4.477,6.605 2.763,0.842 4.278,1.308 4.278,1.308 0,0 2.213,0.443 1.852,1.627 0.002,-0.007 0.097,-0.316 0.097,-0.316 z"
                      id="path115" />
                    <path fill="#e29000"
                      d="m 279.069,540.944 c -0.272,0.884 -0.623,2.035 -1.019,3.337 24.197,7.008 60.258,20.771 60.258,20.771 l 15.708,-19.234 -3.037,-0.929 c 0,0 -1.801,-0.426 -3.182,0.965 -1.381,1.389 -6.901,6.047 -6.901,6.047 0,0 -1.629,1.074 -3.965,0.159 0,0 -39.228,-15.221 -46.354,-17.095 -7.132,-1.874 -9.989,1.007 -11.508,5.979 z"
                      id="path117" />

                    <rect id="glass" x="417.20801" y="610.76898"
                      transform="matrix(-0.1639,0.9865,-0.9865,-0.1639,1111.8174,324.2121)" opacity="0.2" fill="#ffffff"
                      enable-background="new    " width="2.599" height="45.056" />
                    <path display="none" fill="#9b9b9b"
                      d="m 395.837,639.271 c 0,0 -2.126,-1.857 -3.518,2.701 -1.391,4.557 5.637,10.63 5.637,10.63 -3.043,-3.223 -2.119,-13.331 -2.119,-13.331"
                      id="path120" />

                    <rect x="385.74799" y="591.69598"
                      transform="matrix(-0.1354,-0.9908,0.9908,-0.1354,-170.0528,1079.9792)" fill="#e5b486"
                      width="0.86500001" height="44.978001" id="rect122" />
                    <path opacity="0.1" enable-background="new    "
                      d="m 395.738,616.261 c 0,0 -0.928,-1.338 -3.625,-1.406 -2.697,-0.071 -25.502,-2.052 -25.502,-2.052 0,0 -2.845,-0.115 -3.773,2.925 -0.336,1.096 -0.845,2.766 -1.195,3.91 l 6.655,2.032 c 0,0 11.703,20.928 15.983,22.235 2.202,0.672 5.295,0.091 8.145,-0.494 0.893,-0.95 1.459,-2.02 1.459,-2.02 l 2.617,-8.561 0.082,-0.277 2.582,-8.454 c 0,0 0.391,-2.598 -0.749,-4.305 -1.142,-1.705 -2.679,-3.533 -2.679,-3.533 z"
                      id="path124" />
                    <g id="g130">
                      <path fill="#e5b486"
                        d="m 375.095,615.726 c -8.224,-2.516 -16.957,2.131 -19.471,10.356 -2.512,8.224 2.135,16.959 10.36,19.471 8.226,2.513 16.959,-2.135 19.47,-10.36 2.513,-8.222 -2.134,-16.958 -10.359,-19.467 z m -0.25,0.825 c 7.778,2.377 12.161,10.61 9.786,18.39 -2.377,7.778 -10.612,12.162 -18.392,9.787 -7.78,-2.377 -12.162,-10.61 -9.786,-18.393 2.376,-7.779 10.609,-12.16 18.392,-9.784 z"
                        id="path126" />
                      <path fill="#9b9b9b"
                        d="m 374.842,616.551 c -7.777,-2.377 -16.015,2.006 -18.391,9.786 -2.375,7.781 2.006,16.016 9.788,18.392 7.779,2.375 16.013,-2.009 18.392,-9.788 2.373,-7.78 -2.008,-16.013 -9.789,-18.39 z M 374,619.313 c 6.244,1.904 9.772,8.539 7.865,14.781 -1.906,6.244 -8.535,9.774 -14.78,7.869 -6.246,-1.906 -9.774,-8.539 -7.871,-14.784 1.907,-6.243 8.54,-9.774 14.786,-7.866 z"
                        id="path128" />
                    </g>
                    <g id="g145">
                      <path fill="#ef9f00"
                        d="m 393.304,616.726 c -2.696,-0.071 -25.274,-1.983 -25.274,-1.983 0,0 -2.389,0.026 -3.316,3.064 -0.766,2.511 -1.566,5.128 -1.823,5.966 0,0 -0.028,0.1 -0.085,0.277 -0.258,0.856 -1.084,3.562 -1.852,6.077 -0.93,3.036 1.035,4.392 1.035,4.392 0,0 19.703,11.001 21.981,12.45 2.275,1.453 3.668,0.819 3.668,0.819 0,0 2.161,-0.696 4.062,-1.478 1.897,-0.777 2.908,-3.186 2.908,-3.186 l 2.619,-8.562 0.082,-0.277 2.582,-8.452 c 0,0 0.503,-2.564 -0.636,-4.271 -1.137,-1.707 -2.528,-3.492 -2.528,-3.492 0,0 -0.729,-1.276 -3.423,-1.344 z"
                        id="path132" />
                      <g id="g143">
                        <circle id="shadow_1_" opacity="0.1" enable-background="new    " cx="384.84201" cy="630.77899"
                          r="4.4759998" />
                        <g id="g141">
                          <circle fill="#adadad" cx="385.66901" cy="631.03302" r="4.4770002" id="circle135" />
                          <path fill="#919191"
                            d="m 386.475,628.397 c 1.453,0.444 2.273,1.988 1.83,3.44 -0.444,1.453 -1.986,2.274 -3.438,1.828 -1.452,-0.442 -2.276,-1.987 -1.832,-3.438 0.444,-1.454 1.987,-2.272 3.44,-1.83 z"
                            id="path137" />
                          <path fill="#bababa"
                            d="m 385.669,628.795 c 1.236,0 2.238,1.001 2.238,2.237 0,1.235 -1.002,2.236 -2.238,2.236 -1.233,0 -2.236,-1.001 -2.236,-2.236 0,-1.236 1.003,-2.237 2.236,-2.237 z"
                            id="path139" />
                        </g>
                      </g>
                    </g>
                  </g>
                  <g id="g178">
                    <g id="g167">
                      <path fill="#9b9b9b"
                        d="m 427.534,559.714 c -27.738,8.745 -26.001,-14.734 -26.001,-14.734 -7.728,5.039 -13.721,13.779 -13.721,13.779 15.746,15.679 0.518,29.449 0.518,29.449 3.905,9.95 17.005,7.609 17.005,7.609 -1.31,-22.898 23.302,-21.422 23.302,-21.422 5.995,-6.774 -1.103,-14.681 -1.103,-14.681 z"
                        id="path149" />
                      <g id="g157">
                        <path opacity="0.1" enable-background="new    "
                          d="m 391.493,584.366 c -0.61,0.925 -1.214,1.704 -1.727,2.315 1.975,1.481 4.243,2.66 6.744,3.424 2.994,0.912 6.036,1.146 8.965,0.8 0.135,-1.07 0.339,-2.067 0.6,-3.003 -2.824,0.476 -5.798,0.329 -8.721,-0.565 -2.172,-0.661 -4.139,-1.682 -5.861,-2.971 z"
                          id="path151" />
                        <path opacity="0.1" enable-background="new    "
                          d="m 397.81,547.773 c -2.229,1.88 -4.208,3.918 -5.807,5.728 2.906,-2.029 6.354,-3.243 9.959,-3.431 -0.223,-1.073 -0.341,-2.056 -0.396,-2.867 -1.275,0.082 -2.532,0.274 -3.756,0.57 z"
                          id="path153" />
                        <path opacity="0.1" enable-background="new    "
                          d="m 424.174,574.593 c 1.217,-4.714 0.799,-9.498 -0.924,-13.729 -1.015,0.223 -1.989,0.398 -2.914,0.527 1.797,4.044 2.207,8.729 0.816,13.283 -0.045,0.15 -0.098,0.298 -0.146,0.441 1.131,-0.245 2.202,-0.413 3.168,-0.522 z"
                          id="path155" />
                      </g>
                      <g id="g165">
                        <circle fill="#adadad" cx="405.155" cy="570.69702" r="7.5079999" id="circle159" />
                        <path fill="#919191"
                          d="m 406.505,566.279 c 2.437,0.746 3.815,3.33 3.069,5.771 -0.744,2.433 -3.333,3.811 -5.771,3.064 -2.436,-0.745 -3.814,-3.331 -3.07,-5.768 0.746,-2.438 3.333,-3.813 5.772,-3.067 z"
                          id="path161" />
                        <path fill="#bababa"
                          d="m 406.252,567.104 c 1.979,0.606 3.1,2.708 2.495,4.689 -0.606,1.98 -2.709,3.099 -4.688,2.496 -1.979,-0.605 -3.1,-2.709 -2.495,-4.689 0.605,-1.98 2.708,-3.1 4.688,-2.496 z"
                          id="path163" />
                      </g>
                    </g>
                    <g id="tape_1_">
                      <path fill="#e5b486"
                        d="m 418.002,529.624 c -22.273,-6.801 -45.842,5.74 -52.645,28.013 -6.806,22.272 5.738,45.842 28.011,52.645 22.271,6.803 45.842,-5.737 52.646,-28.011 6.802,-22.273 -5.741,-45.842 -28.012,-52.647 z m -5.906,19.334 c 11.574,3.538 18.117,15.831 14.582,27.408 -3.536,11.572 -15.829,18.116 -27.406,14.581 -11.574,-3.537 -18.113,-15.83 -14.578,-27.406 3.533,-11.576 15.828,-18.116 27.402,-14.583 z"
                        id="path169" />
                      <g id="g175">
                        <path fill="#bababa"
                          d="m 412.096,548.958 c -11.576,-3.536 -23.869,3.008 -27.402,14.583 -3.535,11.576 3.004,23.869 14.578,27.406 11.576,3.535 23.87,-3.009 27.406,-14.581 3.535,-11.577 -3.008,-23.871 -14.582,-27.408 z m -0.844,2.765 c 10.052,3.067 15.733,13.744 12.663,23.797 -3.069,10.051 -13.747,15.731 -23.799,12.663 -10.052,-3.071 -15.731,-13.746 -12.662,-23.797 3.071,-10.053 13.747,-15.734 23.798,-12.663 z"
                          id="path171" />
                        <path fill="#878787"
                          d="m 426.678,576.365 c -3.536,11.573 -15.829,18.115 -27.406,14.581 -11.574,-3.538 -18.113,-15.83 -14.578,-27.406 3.533,-11.575 15.829,-18.119 27.402,-14.583 11.575,3.538 18.117,15.832 14.582,27.408 m -39.224,-11.98 c -3.069,10.051 2.61,20.726 12.662,23.797 10.052,3.068 20.729,-2.612 23.799,-12.664 3.07,-10.051 -2.611,-20.728 -12.663,-23.795 -10.051,-3.071 -20.727,2.61 -23.798,12.662 m 40.052,12.232 c 3.673,-12.031 -3.125,-24.811 -15.156,-28.483 -12.033,-3.677 -24.813,3.122 -28.486,15.155 -3.676,12.034 3.123,24.813 15.155,28.488 12.032,3.672 24.811,-3.129 28.487,-15.16 z m -39.223,-11.979 c 2.93,-9.593 13.118,-15.017 22.717,-12.083 9.593,2.93 15.016,13.119 12.086,22.716 -2.93,9.597 -13.123,15.017 -22.717,12.087 -9.595,-2.933 -15.017,-13.125 -12.086,-22.72 z"
                          id="path173" />
                      </g>
                    </g>
                  </g>
                </g>
                <path id="arm_2_" fill="#986844"
                  d="m 260.891,459.087 c -44.305,21.708 -51.756,68.231 -42.797,93.142 3.224,8.962 54.855,39.102 127.789,76.03 17.383,-34.335 10.507,-100.829 10.507,-100.829 0,0 -27.332,-101.746 -95.499,-68.343 z" />
                <path fill="#895d3d"
                  d="m 218.094,552.23 c 3.224,8.962 54.855,39.102 127.789,76.028 -34.834,-49.85 -125.657,-124.414 -126.016,-124.71 -6.626,17.748 -6.33,36.01 -1.773,48.682 z"
                  id="path183" />
              </g>
            </g>
            <g id="g356">
              <path id="path188"
                d="m 86.752414,397.86111 c 5.428,21.766 19.099996,47.357 19.099996,47.357 48.27,-22.228 68.646,-34.791 122.749,-30.21 l -27.988,-46.419 c -60.011,-8.107 -113.860996,29.273 -113.860996,29.272 z"
                fill="#d6a67f" />
              <path style="stroke-width:0.0972067" id="be-7"
                d="m 151.6178,382.38514 c -4.48844,-1.21675 12.76804,-9.43879 19.90711,-10.41694 7.13887,-0.97823 39.7445,20.00585 22.55371,23.96761 -7.37118,1.69897 -48.67741,8.29494 -81.77007,10.38501 -6.91611,0.43676 -11.9817,-6.26332 -9.74247,-9.36354 3.0058,-4.1634 16.13576,-4.74415 25.43751,-4.53437 20.77558,0.46854 34.68538,1.15728 37.42162,-2.72515 2.13414,-3.02825 -9.31863,-6.09583 -13.80741,-7.31262 z"
                fill="#f4e8d7" />
              <ellipse transform="matrix(0.99171473,-0.12845972,0.57549993,0.81780183,0,0)"
                style="stroke-width:0.103332" ry="7.0508881" rx="14.198416" cy="483.44125" cx="-110.90478" id="noq-2"
                fill="#f4e8d7" />
            </g>
          </g>
          <g transform="matrix(0.8479069,0,0,0.83327147,-458.3179,296.26028)" id="g331">
            <g transform="matrix(0.5,0,0,0.5,1200.1009,295.98755)" id="g348">
              <g transform="matrix(0.47121317,0,0,0.38461262,-5199.0911,-4575.7829)" id="kuze">
                <path id="kuz1"
                  d="m 11179.01,12429.446 c 2.416,-10.763 6.095,-26.751 9.85,-40.167 3.755,-13.415 30.525,-80.559 33.247,-81.031 192.243,86.25 597.736,42.934 617.677,38.986 1.228,0.446 2.211,1.286 3.032,2.306 0.821,1.021 1.481,2.222 2.064,3.391 8.814,17.678 13.464,38.637 16.198,60.041 2.734,21.404 3.552,43.251 4.701,62.705 1.921,32.54 0.979,64.948 -1.518,97.268 -2.497,32.32 -6.55,64.552 -10.85,96.738 -12.141,90.879 -34.418,180.073 -65.867,265.925 -31.449,85.852 -72.07,168.362 -120.902,245.872 -0.946,1.502 -1.919,3.03 -3.032,4.416 -1.114,1.385 -2.369,2.628 -3.88,3.559 -1.753,1.08 -3.715,1.658 -5.753,1.975 -2.038,0.317 -4.152,0.373 -6.211,0.408 -37.937,0.65 -75.927,-0.277 -113.733,-3.284 -37.806,-3.007 -75.428,-8.091 -112.629,-15.758 -10.594,-2.194 -28.119,-6.526 -42.256,-14.147 -14.137,-7.621 -24.885,-18.532 -21.923,-33.883 0.473,-2.452 1.386,-4.806 2.224,-7.17 0.838,-2.364 1.601,-4.738 1.775,-7.229 0.362,-5.187 -1.765,-9.774 -4.986,-13.892 -3.22,-4.118 -7.534,-7.767 -11.543,-11.078 -21.622,-17.856 -39.564,-38.726 -55.07,-61.394 -15.506,-22.668 -28.576,-47.133 -40.456,-72.179 -30.668,-64.654 -55.964,-134.231 -71.891,-205.624 -15.927,-71.393 -22.482,-144.602 -15.669,-216.52 1.417,-14.956 3.364,-29.862 5.838,-44.68 2.474,-14.818 5.474,-29.548 8.997,-44.152 0.206,-0.855 0.536,-2.321 0.97,-4.265 0.434,-1.944 0.974,-4.368 1.596,-7.137 z"
                  fill="#9a4121" />
                <path id="kuz2"
                  d="m 11824.485,12755.615 c 9.765,-49.741 17.279,-99.862 22.7,-150.247 5.42,-50.385 8.75,-101.033 10.151,-151.828 0.614,-22.298 -1.56,-44.664 -6.378,-66.443 -4.82,-21.779 -1.21,-19.906 -11.174,-39.863 40.816,-4.222 111.893,-16.225 111.893,-16.225 3.114,-0.258 13.407,39.463 18.758,61.769 5.352,22.306 10.148,45.847 11.046,50.527 9.657,50.326 12.936,101.609 11.053,152.771 -1.882,51.161 -8.926,102.2 -19.917,152.042 -5.574,25.276 -12.188,50.32 -19.766,75.069 -7.58,24.75 -16.123,49.205 -25.559,73.304 -15.884,40.567 -34.418,83.734 -58.183,123.366 -23.766,39.632 -52.763,75.727 -89.575,102.15 -0.99,0.711 -2.003,1.435 -2.909,2.251 -0.906,0.816 -1.707,1.726 -2.269,2.806 -1.006,1.931 -1.106,4.057 -0.886,6.24 0.221,2.182 0.763,4.421 1.042,6.582 0.753,5.82 -0.579,11.603 -3.268,16.818 -2.688,5.215 -12.162,11.897 -16.837,15.443 -36.578,14.992 -61.441,20.253 -103.144,19.32 29.16,-52.757 64.413,-114.573 88.752,-166.055 19.889,-42.942 36.456,-87.208 50.325,-132.329 13.867,-45.124 25.041,-91.101 34.145,-137.468 z"
                  fill="#7e3a1a" />
              </g>
              <g transform="matrix(0.49831682,0,0,0.45283965,-5512.9558,-5404.837)" id="dar">
                <path fill="#fcb431"
                  d="m 11833.706,12326.112 c -0.01,-0.04 -0.02,-0.09 -0.03,-0.13 -0.01,-0.04 -0.02,-0.09 -0.03,-0.13 -2.347,-10.237 -6.068,-25.125 -12.336,-37.95 -6.268,-12.825 -15.084,-23.588 -27.619,-25.574 -4.928,-0.78 -10.416,-0.519 -15.922,-0.02 -5.506,0.502 -11.032,1.244 -16.037,1.425 -10.652,0.583 -21.344,0.871 -32.038,1.04 -10.695,0.169 -21.393,0.219 -32.058,0.328 -69.209,0.703 -138.87,-1.79 -208.101,-8.573 -69.231,-6.783 -138.032,-17.858 -205.52,-34.318 -3.18,-0.776 -6.35,-1.489 -9.545,-1.937 -3.195,-0.448 -6.415,-0.629 -9.695,-0.341 -1.014,1.408 -1.912,2.954 -3.039,4.228 -1.127,1.274 -2.484,2.276 -4.418,2.597 -0.555,0.441 -1.109,0.883 -1.664,1.324 -0.555,0.441 -1.109,0.883 -1.664,1.324 -12.158,9.673 -25.731,17.229 -39.063,25.341 -13.332,8.112 -26.423,16.781 -37.615,28.68 -9.262,9.847 -16.165,20.997 -19.006,32.854 -2.841,11.857 -1.619,24.422 5.367,37.099 1.747,3.169 3.943,6.147 6.54,8.607 2.597,2.46 5.595,4.401 8.945,5.495 1.877,0.613 3.82,0.948 5.783,1.087 1.963,0.139 3.948,0.08 5.908,-0.09 10.532,-0.933 20.262,-5.004 29.368,-10.627 9.105,-5.624 17.586,-12.801 25.619,-19.948 1.967,-1.75 4.008,-3.546 6.2,-4.987 2.192,-1.441 4.534,-2.527 7.102,-2.858 4.881,-0.629 9.322,1.357 13.22,4.404 3.897,3.047 7.25,7.155 9.955,10.771 3.948,5.277 8.418,9.924 13.19,14.209 4.772,4.285 9.848,8.209 15.006,12.04 4.377,3.25 9.003,5.272 13.84,6.193 4.838,0.92 9.887,0.738 15.112,-0.422 4.98,-1.105 9.874,-2.457 14.658,-4.141 4.784,-1.685 9.456,-3.702 13.991,-6.138 4.701,-2.525 9.563,-4.553 14.533,-6.253 4.97,-1.7 10.048,-3.073 15.181,-4.287 6.451,-1.526 12.541,-1.506 18.299,-0.05 5.758,1.461 11.184,4.363 16.307,8.599 0.566,0.468 1.102,0.978 1.638,1.485 0.537,0.507 1.075,1.012 1.647,1.471 4.148,3.327 8.173,6.811 12.329,10.12 4.156,3.309 8.442,6.442 13.112,9.068 6.935,3.899 14.046,7.096 21.38,9.58 7.335,2.484 14.893,4.254 22.723,5.3 9.013,1.204 17.843,1.412 26.482,0.258 8.639,-1.154 17.086,-3.67 25.333,-7.914 5.873,-3.022 11.406,-6.586 16.826,-10.331 5.421,-3.745 10.728,-7.672 16.15,-11.42 2.104,-1.455 4.242,-2.871 6.414,-4.224 2.172,-1.353 4.38,-2.644 6.624,-3.847 3.13,-1.678 6.314,-2.823 9.616,-3.326 3.302,-0.503 6.721,-0.363 10.32,0.53 2.487,0.616 4.927,1.274 7.32,2.064 2.393,0.79 4.736,1.712 7.032,2.858 8.486,4.235 16.966,8.482 25.456,12.709 8.489,4.227 16.988,8.434 25.51,12.588 3.93,1.915 7.871,3.829 11.85,5.645 3.979,1.815 7.995,3.532 12.073,5.053 5.558,2.073 11.266,2.963 17.032,3.276 5.766,0.312 11.59,0.05 17.38,-0.193 10.764,-0.445 20.804,-2.718 30.061,-6.861 9.257,-4.143 17.73,-10.157 25.361,-18.083 3.065,-3.183 5.94,-6.563 8.789,-9.97 2.849,-3.408 5.673,-6.843 8.637,-10.138 2.069,-2.301 3.926,-4.895 6.076,-7.126 2.15,-2.231 4.595,-4.102 7.84,-4.957 0.258,-0.33 0.517,-0.66 0.775,-0.99 0.258,-0.33 0.516,-0.661 0.774,-0.992 0,-3.519 0.07,-6.912 -0.06,-10.292 -0.129,-3.382 -0.455,-6.749 -1.228,-10.217 z"
                  id="dar1" />
                <path fill="#ffc431"
                  d="m 11262.734,12220.392 c -65.945,-25.376 -44.253,-105.699 3.415,-119.999 8.115,-2.262 16.447,-3.412 24.857,-3.978 8.41,-0.566 16.896,-0.549 25.32,-0.478 41.756,0.352 83.48,1.825 125.202,3.414 41.722,1.589 83.441,3.295 125.185,4.113 20.812,0.408 41.633,0.604 62.45,0.455 20.817,-0.149 41.631,-0.644 62.428,-1.615 18.797,-0.878 38.915,-1.142 58.913,-2.185 19.998,-1.043 39.875,-2.864 58.188,-6.857 3.181,-0.694 8.642,-1.364 13.933,-1.204 5.291,0.16 10.411,1.151 12.91,3.78 1.682,1.769 2.898,3.872 3.858,6.12 0.96,2.248 1.663,4.642 2.322,6.993 2.957,10.554 5.55,21.262 7.372,32.071 1.822,10.809 2.871,21.72 2.741,32.68 -0.171,14.42 -2.705,28.533 -7.545,41.79 -4.84,13.257 -11.985,25.657 -21.377,36.652 -9.254,10.834 -21.335,13.847 -34.244,14.272 -12.909,0.424 -26.646,-1.74 -39.214,-1.261 -12.109,0.462 -24.222,0.815 -36.337,1.053 -12.115,0.238 -24.232,0.359 -36.35,0.356 -24.291,0 -48.582,-0.486 -72.854,-1.439 -24.272,-0.953 -48.526,-2.378 -72.743,-4.275 -25.627,-2.007 -51.213,-4.541 -76.736,-7.6 -25.523,-3.059 -50.983,-6.644 -76.358,-10.752 -18.854,-3.052 -38.35,-5.839 -57.801,-9.233 -19.452,-3.394 -38.859,-7.394 -57.535,-12.873 z m 74.594,-79.73 c 0.31,5.418 2.283,9.959 4.942,14.132 2.658,4.173 6.002,7.979 9.05,11.924 2.74,3.545 5.552,7.035 8.389,10.506 2.837,3.47 5.7,6.92 8.542,10.386 2.994,3.65 6.206,7.058 9.713,10.119 3.507,3.061 7.308,5.775 11.48,8.037 1.939,1.051 3.928,1.9 5.918,2.122 1.989,0.221 3.979,-0.185 5.918,-1.643 0.854,-2.223 1.027,-4.297 0.715,-6.242 -0.312,-1.946 -1.11,-3.763 -2.198,-5.475 -2.982,-4.69 -5.907,-9.43 -8.922,-14.104 -3.015,-4.674 -6.121,-9.281 -9.464,-13.707 -2.912,-3.856 -6.124,-7.484 -9.412,-11.057 -3.287,-3.572 -6.65,-7.089 -9.864,-10.72 -0.71,-0.802 -1.35,-1.665 -1.972,-2.545 -0.622,-0.88 -1.224,-1.776 -1.859,-2.645 -3.977,-5.438 -7.233,-8.104 -10.49,-7.963 -3.255,0.14 -6.511,3.087 -10.486,8.875 z m 9.11,57.443 c 0.928,-1.187 1.416,-2.539 1.527,-3.922 0.111,-1.383 -0.155,-2.796 -0.735,-4.103 -0.944,-2.129 -2.009,-4.214 -3.153,-6.257 -1.144,-2.043 -2.366,-4.046 -3.624,-6.012 -0.965,-1.508 -2.012,-2.981 -3.128,-4.399 -1.116,-1.418 -2.301,-2.783 -3.542,-4.073 -3.384,-3.52 -6.784,-7.028 -10.223,-10.496 -3.439,-3.468 -6.918,-6.895 -10.461,-10.254 -1.473,-1.396 -3.388,-1.632 -5.03,-1.029 -1.642,0.603 -3.012,2.047 -3.394,4.01 -0.586,3.013 -0.549,5.876 0.14,8.579 0.689,2.703 2.029,5.248 4.048,7.624 1.281,1.508 2.485,3.083 3.694,4.651 1.21,1.569 2.426,3.132 3.731,4.617 3.231,3.673 6.549,7.262 10.129,10.552 3.58,3.291 7.422,6.284 11.7,8.765 1.208,0.701 2.432,1.537 3.782,1.998 1.352,0.461 2.828,0.547 4.539,-0.251 z"
                  id="dar2" />
                <path fill="#f0a02a"
                  d="m 11800.944,12260.598 c 1.546,0.687 3.119,1.437 4.738,1.85 1.619,0.412 3.284,0.489 5.013,-0.17 2.375,-0.906 4.794,-1.22 7.23,-1.356 2.436,-0.136 4.886,-0.1 7.325,-0.294 4.125,-0.335 8.25,-0.718 12.366,-1.16 4.117,-0.443 8.226,-0.945 12.32,-1.52 6.137,-0.861 12.261,-1.805 18.382,-2.769 6.121,-0.965 12.239,-1.949 18.364,-2.892 9.053,-1.393 16.389,-2.775 23.508,-2.54 7.12,0.236 14.024,2.088 22.212,7.163 11.648,7.218 24.098,16.504 34.674,27.174 10.576,10.67 19.276,22.726 23.42,35.485 5.817,17.907 -1.37,31.186 -14.181,40.104 -12.81,8.919 -31.245,13.477 -47.925,13.945 -9.234,0.258 -18.471,-0.413 -27.591,-1.799 -9.119,-1.385 -18.12,-3.487 -26.883,-6.088 -8.469,-2.513 -16.495,-5.995 -24.527,-9.469 -8.033,-3.474 -16.071,-6.94 -24.562,-9.424 -0.292,-0.08 -0.588,-0.174 -0.867,-0.289 -0.279,-0.116 -0.54,-0.26 -0.759,-0.457 -0.45,-0.403 -0.644,-0.938 -0.704,-1.515 -0.06,-0.578 0.01,-1.198 0.09,-1.771 0.876,-6.216 0.68,-12.438 -0.324,-18.564 -1.004,-6.126 -2.815,-12.155 -5.168,-17.986 -1.031,-2.555 -2.125,-5.159 -3.306,-7.726 -1.181,-2.568 -2.45,-5.099 -3.832,-7.512 -1.465,-2.557 -3.393,-4.843 -5.286,-7.148 -1.893,-2.305 -3.748,-4.628 -5.069,-7.257 -0.288,-0.573 -0.547,-1.162 -0.831,-1.738 -0.284,-0.577 -0.591,-1.14 -0.976,-1.664 -0.641,-0.872 -1.476,-1.607 -2.294,-2.352 -0.817,-0.744 -1.618,-1.499 -2.19,-2.411 -1.089,-1.738 -0.784,-2.975 0.111,-3.978 0.895,-1.004 2.38,-1.774 3.654,-2.575 0.645,-0.217 1.29,-0.433 1.934,-0.65 0.645,-0.217 1.287,-0.43 1.932,-0.647 z"
                  id="dar3" />
                <path fill="#fcb431"
                  d="m 11958.309,12148.97 c 8.297,10.225 13.893,21.508 15.498,33.594 1.605,12.085 -0.783,24.971 -8.454,38.402 -7.459,13.058 -18.628,19.624 -31.149,23.862 -12.521,4.239 -26.395,6.149 -39.263,9.899 -2.862,0.834 -5.817,1.343 -8.798,1.769 -2.98,0.425 -5.986,0.765 -8.949,1.262 -6.105,1.02 -12.202,2.087 -18.303,3.132 -6.101,1.044 -12.205,2.067 -18.323,3 -4.081,0.623 -8.176,1.167 -12.28,1.647 -4.103,0.479 -8.214,0.894 -12.326,1.256 -2.431,0.214 -4.875,0.171 -7.302,0.319 -2.427,0.148 -4.839,0.488 -7.206,1.469 -1.724,0.714 -3.383,0.632 -4.997,0.184 -1.613,-0.447 -3.181,-1.26 -4.722,-2.004 0.552,-0.961 1.078,-1.938 1.62,-2.906 0.542,-0.969 1.097,-1.926 1.708,-2.848 2.682,-4.048 5.526,-8.005 8.284,-12.008 2.758,-4.004 5.43,-8.054 7.768,-12.289 11.138,-20.171 15.275,-43.484 14.243,-66.806 -1.032,-23.322 -7.235,-46.652 -16.775,-66.857 -0.605,-1.282 -1.111,-2.611 -1.618,-4.032 -0.508,-1.421 -1.019,-2.934 -1.635,-4.585 2.255,-0.367 4.28,-0.696 6.189,-1.006 1.908,-0.31 3.702,-0.602 5.496,-0.894 19.216,-3.125 46.613,1.215 73.168,11.22 26.555,10.008 52.27,25.68 68.126,45.22 z"
                  id="dar4" />
                <path fill="#fcb22e"
                  d="m 11337.328,12140.662 c 3.975,-5.788 7.231,-8.735 10.487,-8.876 3.256,-0.141 6.513,2.525 10.49,7.963 0.635,0.868 1.238,1.765 1.859,2.645 0.622,0.88 1.262,1.743 1.972,2.545 3.214,3.631 6.577,7.148 9.864,10.72 3.287,3.572 6.499,7.201 9.412,11.057 3.343,4.426 6.448,9.034 9.464,13.707 3.016,4.673 5.94,9.414 8.922,14.104 1.088,1.711 1.885,3.529 2.198,5.475 0.312,1.946 0.139,4.019 -0.715,6.242 -1.939,1.458 -3.929,1.864 -5.918,1.643 -1.989,-0.221 -3.979,-1.07 -5.918,-2.122 -4.172,-2.263 -7.973,-4.977 -11.48,-8.037 -3.507,-3.061 -6.719,-6.469 -9.713,-10.119 -2.842,-3.465 -5.705,-6.916 -8.542,-10.386 -2.837,-3.47 -5.649,-6.96 -8.389,-10.506 -3.049,-3.945 -6.392,-7.751 -9.05,-11.924 -2.659,-4.172 -4.633,-8.714 -4.943,-14.131 z"
                  id="darlak1" />
                <path fill="#fcb22e"
                  d="m 11346.438,12198.105 c -1.712,0.798 -3.187,0.712 -4.537,0.251 -1.35,-0.461 -2.574,-1.297 -3.782,-1.998 -4.278,-2.482 -8.12,-5.474 -11.7,-8.765 -3.58,-3.291 -6.898,-6.879 -10.129,-10.552 -1.306,-1.485 -2.522,-3.048 -3.731,-4.617 -1.21,-1.569 -2.413,-3.144 -3.694,-4.651 -2.019,-2.376 -3.359,-4.921 -4.048,-7.624 -0.689,-2.703 -0.726,-5.566 -0.14,-8.579 0.382,-1.964 1.752,-3.407 3.394,-4.01 1.642,-0.603 3.557,-0.367 5.03,1.029 3.543,3.358 7.022,6.786 10.461,10.254 3.439,3.468 6.839,6.976 10.223,10.496 1.241,1.291 2.426,2.655 3.542,4.073 1.116,1.418 2.163,2.891 3.128,4.399 1.258,1.966 2.481,3.968 3.624,6.012 1.143,2.044 2.209,4.128 3.153,6.257 0.58,1.308 0.846,2.721 0.735,4.103 -0.111,1.382 -0.601,2.735 -1.529,3.922 z"
                  id="darlak2" />
              </g>
              <path style="stroke-width:0.339612" id="be-6"
                d="m 265.40218,270.34305 c -7.89839,-9.25004 42.20848,-40.04684 59.22954,-40.32158 17.02072,-0.2751 55.81201,129.39666 12.36734,138.32168 -18.62879,3.82814 -118.54465,10.23492 -193.70443,-1.06432 -15.7078,-2.36169 -16.47023,-40.20342 -6.8568,-54.65938 12.90734,-19.41432 42.34773,-13.65279 62.2538,-6.37555 44.46045,16.25386 73.65393,29.06544 85.54516,10.91686 9.27482,-14.15576 -10.93555,-37.56733 -18.83461,-46.81771 z"
                fill="#f4e8d7" />
              <ellipse style="stroke-width:0.339612" ry="32.366295" rx="33.410366" cy="421.44305" cx="259.8812"
                id="noq-0" fill="#f4e8d7" />
              <path
                d="m 223.41066,147.39876 c -3.13759,-0.18979 -5.96141,-0.36063 -9.09901,-0.55042 -83.13055,-5.29314 -114.09369,-14.30399 -115.333447,-14.64332 -2.479477,-0.67871 -3.030597,-2.03387 -1.722073,-2.88001 1.31619,-0.97781 4.15528,-1.07044 6.63478,-0.39173 0.61986,0.16969 30.97079,8.87913 110.97141,13.85075 72.14901,4.62883 124.38567,5.14511 155.57761,4.78493 34.02341,-0.32111 49.26869,-4.15311 53.53649,-5.13908 1.51994,-0.23106 1.58362,-0.5934 2.18258,0.39365 0.60025,0.98916 0.0703,1.87286 -1.33603,2.67583 -1.40614,0.80297 -18.08651,5.98362 -52.73738,6.26676 -30.24304,0.28545 -80.27571,-0.22971 -148.67493,-4.36736 z"
                fill="#c18142" id="tanH" />
              <path
                d="m 146.12106,280.23006 h 0.84447 c 2.25188,-0.22512 3.94081,-2.02616 3.65932,-4.05227 0,-0.45025 -6.47422,-37.37094 -6.75571,-62.58507 -0.28149,-24.989 18.85966,-68.88859 19.14113,-69.33886 0.84444,-1.80098 -0.28149,-3.82712 -2.81483,-4.50249 -2.25194,-0.67539 -4.78531,0.22511 -5.62977,2.25126 -0.84444,1.80101 -19.98558,45.7006 -19.70409,71.81524 0.28149,25.66436 6.7557,63.03529 7.03719,63.48555 0.28149,1.80102 2.25186,2.92664 4.22229,2.92664 z"
                fill="#c18142" id="tanVL" />
              <path
                d="m 175.11422,283.37902 h 0.563 c 2.53336,-0.21304 4.22231,-1.70421 3.94081,-3.62144 0,-0.63907 -6.19274,-56.87805 -5.91124,-79.24581 0.2815,-22.79384 -2.81489,-56.45201 -2.81489,-56.66504 -0.28148,-1.91725 -2.25187,-3.19539 -4.78526,-3.19539 -2.53337,0.21302 -4.22229,1.70418 -4.22229,3.62142 0,0.42608 2.81486,33.65819 2.81486,56.23901 -0.28153,22.79382 5.62974,77.54158 5.91125,79.8849 0.28151,1.70418 1.97038,2.98235 4.22231,2.98235 z"
                fill="#c18142" id="tanVR" />
            </g>
          </g>
        </g>
      </g>
    </g>
  </g>
  <g id="using">
  </g>
  <g id="installing">
  </g>
</svg>