<svg width="500" height="700" version="1.1" viewBox="0 0 500 700" xml:space="preserve" xmlns="http://www.w3.org/2000/svg" xmlns:xlink="http://www.w3.org/1999/xlink"><defs><linearGradient id="c" x1="255" x2="255" y1="164" y2="138" gradientTransform="matrix(.783 0 0 -.783 49 368)" gradientUnits="userSpaceOnUse"><stop style="stop-color:#FFE7A5" offset="0"/><stop style="stop-color:#FFE29C" offset=".216"/><stop style="stop-color:#FFD482" offset=".577"/><stop style="stop-color:#FFBF5C" offset="1"/></linearGradient><linearGradient id="a" x1="181" x2="316" y1="276" y2="276" gradientUnits="userSpaceOnUse"><stop style="stop-color:#ffcf42" offset="0"/><stop style="stop-color:#ffb500" offset="1"/></linearGradient></defs>
















<linearGradient id="b" x1="149" x2="427" y1="376" y2="28.7" gradientTransform="matrix(1.07 0 0 -1.35 -26.7 683)" gradientUnits="userSpaceOnUse">
	<stop style="stop-color:#9a4121" offset="0"/>
	
	
	<stop style="stop-color:#7e3a1a" offset="1"/>
</linearGradient>



























<path d="m199 6.22v154h-47.2v-106a47.2 47.2 0 0 1 47.2-47.2z" fill="#f6bb00" style="fill:#ffc431;stroke-width:1.48"/><path d="m294 6.22a47.2 47.2 0 0 1 47.2 47.2v106h-47.2z" fill="#f6bb00" style="fill:#ffc431;stroke-width:1.48"/><path d="m199 6.22h94.5v47.2h-94.5z" fill="#eda600" style="fill:#fcb431;stroke-width:1.48"/><path d="m369 295c-0.0139-25.5-0.0289-65.8-0.0428-91.3-0.014-25.1-16.2-45.4-36.3-45.4h-171c-20 0-36.3 20.3-36.3 45.4-0.0139 25.5-0.0289 65.8-0.0427 91.3-0.0246 43.6-20.8 82.9-52.7 100-13 6.93-21.4 22.9-21.4 40.6v186c0 20.1 11.7 37.2 27.6 40.2 15.4 2.85 30.8 5.38 46.3 7.59 81.5 10.3 163 10.3 244 0 15.5-2.21 30.9-4.74 46.3-7.59 15.9-2.94 27.6-20.1 27.6-40.2v-186c0-17.7-8.41-33.6-21.4-40.6-32-17.1-52.7-56.4-52.7-100z" style="fill:url(#b);stroke-width:1.2"/><path d="m262 419c-8-9.37 42.8-40.6 60-40.9 17.2-0.278 56.5 131 12.5 140-18.9 3.88-120 10.4-196-1.08-15.9-2.39-16.7-40.7-6.95-55.4 13.1-19.7 42.9-13.8 63.1-6.46 45 16.5 74.6 29.4 86.7 11.1 9.4-14.3-11.1-38.1-19.1-47.4z" style="clip-rule:evenodd;fill-rule:evenodd;fill:#f4e8d7;image-rendering:optimizeQuality;shape-rendering:geometricPrecision"/><ellipse cx="256" cy="572" rx="33.9" ry="32.8" style="clip-rule:evenodd;fill-rule:evenodd;fill:#f4e8d7;image-rendering:optimizeQuality;shape-rendering:geometricPrecision"/><path d="m126 234-88.9 47.6v39.6l88.9-47.6z" fill="#f6bb00" style="fill:#ffc431;stroke-width:1.11"/><path d="m37.1 322 49.4 15.9v-42.3z" fill="#eda600" style="fill:#fcb431;stroke-width:1.11"/><path d="m86.5 337-79 39.6v39.6l79-39.6z" fill="#f6bb00" style="fill:#ffc431;stroke-width:1.11"/><path d="m369 234 88.9 47.6v39.6l-88.9-47.6z" fill="#f6bb00" style="fill:#ffc431;stroke-width:1.11"/><path d="m457 322-49.4 15.9v-42.3z" fill="#eda600" style="fill:#fcb431;stroke-width:1.11"/><path d="m408 337 79 39.6v39.6l-79-39.6z" fill="#f6bb00" style="fill:#ffc431;stroke-width:1.11"/><path d="m305 318h-113c-6.03 0-10.9-4.89-10.9-10.9v-63.6c0-6.03 4.89-10.9 10.9-10.9h113c6.03 0 10.9 4.89 10.9 10.9v63.6c7.8e-4 6.03-4.89 10.9-10.9 10.9z" style="fill:url(#a);stroke-width:.78"/><path d="m310 256h-122c-4.27 0-7.73-3.46-7.73-7.73v-7.77c0-4.27 3.46-7.73 7.73-7.73h122c4.27 0 7.73 3.46 7.73 7.73v7.77c-7.8e-4 4.27-3.46 7.73-7.73 7.73z" style="fill:url(#c);stroke-width:.78"/><path d="m304 265h-10.3c-1.19 0-2.15-0.963-2.15-2.15s0.963-2.15 2.15-2.15h10.3c1.19 0 2.15 0.964 2.15 2.15s-0.964 2.15-2.15 2.15zm-20.7 0h-10.3c-1.19 0-2.15-0.963-2.15-2.15s0.964-2.15 2.15-2.15h10.3c1.19 0 2.15 0.964 2.15 2.15s-0.963 2.15-2.15 2.15zm-20.7 0h-10.3c-1.19 0-2.15-0.963-2.15-2.15s0.964-2.15 2.15-2.15h10.3c1.19 0 2.15 0.964 2.15 2.15s-0.963 2.15-2.15 2.15zm-20.7 0h-10.3c-1.19 0-2.15-0.963-2.15-2.15s0.963-2.15 2.15-2.15h10.3c1.19 0 2.15 0.964 2.15 2.15s-0.963 2.15-2.15 2.15zm-20.7 0h-10.3c-1.19 0-2.15-0.963-2.15-2.15s0.963-2.15 2.15-2.15h10.3c1.19 0 2.15 0.964 2.15 2.15s-0.963 2.15-2.15 2.15zm-20.7 0h-10.3c-1.19 0-2.15-0.963-2.15-2.15s0.964-2.15 2.15-2.15h10.3c1.19 0 2.15 0.964 2.15 2.15s-0.963 2.15-2.15 2.15z" style="fill:#ffe7a5;stroke-width:.78"/></svg>
