<?xml version="1.0" encoding="UTF-8" standalone="no"?>
<svg
   xmlns:dc="http://purl.org/dc/elements/1.1/"
   xmlns:cc="http://creativecommons.org/ns#"
   xmlns:rdf="http://www.w3.org/1999/02/22-rdf-syntax-ns#"
   xmlns:svg="http://www.w3.org/2000/svg"
   xmlns="http://www.w3.org/2000/svg"
   xmlns:sodipodi="http://sodipodi.sourceforge.net/DTD/sodipodi-0.dtd"
   xmlns:inkscape="http://www.inkscape.org/namespaces/inkscape"
   inkscape:version="1.0 (4035a4f, 2020-05-01)"
   sodipodi:docname="safirLoading.svg"
   id="svg3724"
   version="1.1"
   width="700"
   height="700">
  <metadata
     id="metadata3728">
    <rdf:RDF>
      <cc:Work
         rdf:about="">
        <dc:format>image/svg+xml</dc:format>
        <dc:type
           rdf:resource="http://purl.org/dc/dcmitype/StillImage" />
        <dc:title></dc:title>
      </cc:Work>
    </rdf:RDF>
  </metadata>
  <sodipodi:namedview
     inkscape:current-layer="svg3724"
     inkscape:window-maximized="0"
     inkscape:window-y="0"
     inkscape:window-x="0"
     inkscape:cy="570.59018"
     inkscape:cx="101.72401"
     inkscape:zoom="0.34706607"
     showgrid="false"
     id="namedview3726"
     inkscape:window-height="768"
     inkscape:window-width="1366"
     inkscape:pageshadow="2"
     inkscape:pageopacity="0"
     guidetolerance="10"
     gridtolerance="10"
     objecttolerance="10"
     borderopacity="1"
     bordercolor="#666666"
     pagecolor="#ffffff" />
  <defs
     id="defs3615">
    <style
       id="style3613">@keyframes anim-noq{0%{transform:translate(-10px,0)}to{transform:translate(40px,0)}}</style>
  </defs>
  <g
     id="g5114">
    <g
       id="prefix__g56"
       transform="translate(-173.932,-165.493)">
      <g
         id="prefix__body_1_">
        <g
           id="prefix__body_2_">
          <path
             id="prefix__body_6_"
             fill="#986844"
             d="M 630.318,616.913 C 597.236,547.948 529.545,493.619 450.201,493.619 c -79.34,0 -147.029,54.329 -180.115,123.293 -33.082,68.967 -33.111,151.595 -33.111,151.595 72.065,48.734 213.229,52.607 213.229,52.607 0,0 141.189,-3.888 213.233,-52.607 -0.005,0.001 -0.037,-82.628 -33.119,-151.594 z" />
          <g
             id="g3620"
             fill="#895d3d">
            <path
               d="M 323.507,803.611 C 241.403,729.4 292.444,597.282 292.444,597.282 l 23.784,-33.096 c 0,0 -8.013,2.636 -15.596,4.85 A 236.505,236.505 0 0 0 270.08,616.91 c -30.823,64.255 -32.951,140.357 -33.102,150.454 v 0.054 l -0.004,0.347 v 0.063 a 10.91,10.91 0 0 0 -0.003,0.244 l -0.001,0.102 v 0.331 c 23.827,16.114 55.207,27.321 86.537,35.106 z"
               id="prefix__path11" />
            <path
               d="M 576.928,803.611 C 659.033,729.4 607.99,597.282 607.99,597.282 l -23.783,-33.098 c 0,0 8.015,2.636 15.598,4.849 a 236.557,236.557 0 0 1 30.549,47.875 c 30.82,64.253 32.955,140.356 33.105,150.453 l 0.001,0.059 c 0.003,0.128 0.003,0.238 0.006,0.343 v 0.064 c 0.002,0.09 0.002,0.172 0.002,0.244 l 0.002,0.103 10e-4,0.134 v 0.196 c -23.833,16.115 -55.21,27.322 -86.543,35.107 z"
               id="prefix__path13" />
          </g>
        </g>
        <g
           id="prefix__belly_2_">
          <path
             fill="#b78563"
             d="m 450.189,658.024 c -90.773,0 -169.628,25.736 -209.479,63.533 -3.73,27.687 -3.738,46.95 -3.738,46.95 72.066,48.734 213.229,52.607 213.229,52.607 0,0 141.188,-3.887 213.23,-52.607 0,0 -0.01,-19.247 -3.732,-46.916 -39.845,-37.817 -118.718,-63.567 -209.51,-63.567 z"
             id="prefix__path17" />
          <g
             fill="#a57859"
             id="prefix__belly_shadow_1_">
            <path
               d="m 323.442,803.596 c 0,0 -43.234,-33.395 -46.48,-107.623 0,0 -26.349,14.397 -36.254,25.618 -3.726,27.669 -3.732,46.913 -3.732,46.913 23.805,16.103 55.155,27.306 86.466,35.092 -0.002,0 -0.002,0 0,0 z"
               id="prefix__path19" />
            <path
               d="m 576.961,803.596 c 0,0 43.23,-33.395 46.477,-107.623 0,0 26.348,14.397 36.256,25.618 3.725,27.669 3.73,46.913 3.73,46.913 -23.801,16.105 -55.152,27.306 -86.463,35.092 z"
               id="prefix__path21" />
          </g>
        </g>
      </g>
      <g
         id="prefix__legs_2_">
        <g
           id="prefix__leg_4_">
          <path
             fill="#986844"
             d="m 361.295,714.852 v -0.003 c -12.233,-22.109 -38.263,-37.368 -68.396,-37.368 -41.887,0 -75.841,29.487 -75.841,65.855 0,31.961 26,60.852 59.953,66.081 33.955,5.229 100.191,4.681 100.191,4.681 16.271,-11.895 -1.993,-74.529 -15.907,-99.246 z"
             id="prefix__path26" />
          <g
             fill="#895d3d"
             id="prefix__shadow_6_">
            <path
               d="M 292.898,810.331 C 197.833,754.094 276.865,678.98 276.894,678.954 c -34.203,6.377 -59.836,32.777 -59.836,64.387 0,31.956 26,60.847 59.953,66.076 5.272,0.812 11.322,1.485 17.782,2.042 -0.619,-0.369 -1.247,-0.745 -1.895,-1.128 z"
               id="prefix__path28" />
            <ellipse
               transform="rotate(-120,277.51,783.27)"
               cx="277.51401"
               cy="783.26099"
               rx="26.580999"
               ry="23.764"
               id="prefix__ellipse30" />
          </g>
          <g
             id="prefix__g37">
            <ellipse
               transform="rotate(-120,280.577,788.647)"
               fill="#7a5336"
               cx="280.57999"
               cy="788.63702"
               rx="26.579"
               ry="23.766001"
               id="prefix__ellipse33" />
            <ellipse
               transform="rotate(-120,283.686,794.124)"
               fill="#af7146"
               cx="283.69501"
               cy="794.11499"
               rx="16.113001"
               ry="14.405"
               id="prefix__ellipse35" />
          </g>
        </g>
        <g
           id="prefix__leg_2_">
          <path
             fill="#986844"
             d="m 540.458,714.852 c 0,-0.002 0,-0.002 0.003,-0.003 12.232,-22.109 38.26,-37.368 68.393,-37.368 41.887,0 75.841,29.487 75.841,65.855 0,31.961 -26.002,60.852 -59.951,66.081 -33.952,5.229 -100.195,4.681 -100.195,4.681 -16.268,-11.895 1.995,-74.529 15.909,-99.246 z"
             id="prefix__path40" />
          <g
             fill="#895d3d"
             id="prefix__shadow_5_">
            <path
               d="m 608.854,810.331 c 95.064,-56.237 16.031,-131.351 16.003,-131.377 34.199,6.377 59.833,32.777 59.833,64.387 0,31.956 -26.001,60.847 -59.95,66.076 -5.273,0.812 -11.321,1.485 -17.781,2.042 0.62,-0.369 1.248,-0.745 1.895,-1.128 z"
               id="prefix__path42" />
            <ellipse
               transform="rotate(120,624.28,783.259)"
               cx="624.27002"
               cy="783.25098"
               rx="26.579"
               ry="23.764999"
               id="prefix__ellipse44" />
          </g>
          <g
             id="prefix__g51">
            <ellipse
               transform="rotate(120,621.226,788.737)"
               fill="#7a5336"
               cx="621.21503"
               cy="788.73102"
               rx="26.577"
               ry="23.766001"
               id="prefix__ellipse47" />
            <ellipse
               transform="rotate(120,618.083,794.105)"
               fill="#af7146"
               cx="618.065"
               cy="794.11401"
               rx="16.113001"
               ry="14.406"
               id="prefix__ellipse49" />
          </g>
        </g>
      </g>
    </g>
    <path
       style="fill:#cba677;fill-opacity:1"
       d="M 131.305,481.965 H 396.589 V 680.927 H 131.305 Z"
       fill="#9a4121"
       id="prefix__box" />
    <path
       d="m 298.607,680.928 h 99.481 v -99.483 z"
       opacity="0.1"
       id="prefix__polygon60" />
    <g
       id="prefix__arm_7_"
       transform="translate(-173.932,-165.493)">
      <path
         id="prefix__arm_8_"
         fill="#986844"
         d="m 660.773,636.27 c 27.01,52.505 18.39,64.416 0.904,88.65 -6.293,8.722 -64.973,61.39 -139.26,61.39 0,-51.312 32.874,-126.265 32.874,-126.265 0,0 63.928,-104.566 105.482,-23.775 z" />
      <path
         opacity="0.1"
         d="m 522.418,786.308 c 74.287,0 132.967,-52.667 139.261,-61.39 17.483,-24.234 26.104,-36.144 -0.905,-88.65 a 107.737,107.737 0 0 0 -1.594,-2.962 c 0.083,0.797 9.558,96.994 -136.762,153.002 z"
         id="prefix__path70" />
    </g>
    <g
       id="prefix__npm_-_wombat_-_face_1_"
       transform="translate(-173.932,-165.493)">
      <path
         opacity="0.1"
         d="M 381.092,304.306 C 318.149,367.6 283.07,458.911 283.07,458.911 c 10.314,36.888 35.867,68.071 64.824,93.061 -0.005,-0.009 -0.011,-0.018 -0.015,-0.028 54.439,46.995 120.944,72.11 120.944,72.11 0,0 66.203,25.822 138.088,27.327 l -0.007,0.003 c 6.465,0.139 12.935,0.078 19.394,-0.218 31.675,-1.446 64,-8.361 91.051,-25.571 1.429,-3.746 2.721,-7.545 3.988,-11.349 7.847,-23.544 14.068,-47.676 18.716,-72.05 6.269,-32.866 9.765,-66.611 7.717,-100.077 -1.957,-31.946 -9.114,-63.651 -21.821,-93.061 1.589,-9.659 5.55,-39.918 -1.509,-68.323 l -36.292,7.956 c -16.753,-18.999 -37.134,-34.77 -60.124,-45.489 -30.473,-14.209 -64.541,-18.988 -97.854,-15.125 l 0.013,-0.012 v -0.005 h 0.002 -0.002 l -21.648,-30.19 c -24.269,16.4 -41.578,41.561 -46.848,49.784 -29.515,13.528 -57.083,33.009 -80.595,56.652 -62.944,63.294 23.512,-23.641 0,0 z"
         id="prefix__path73" />
      <g
         id="prefix__ears_1_">
        <g
           id="prefix__ear_3_">
          <path
             fill="#986844"
             d="m 461.745,237.23 42.681,4.382 27.506,-26.689 -21.648,-30.195 c -29.345,19.832 -48.539,52.502 -48.539,52.502 z"
             id="prefix__path75" />
          <path
             d="m 531.932,214.923 -6.244,6.06 -20.756,2.091 5.351,-38.346 z"
             fill="#895d3d"
             id="prefix__polygon77" />
        </g>
        <g
           id="prefix__ear_2_">
          <path
             fill="#986844"
             d="m 727.135,339.089 -34.655,-25.299 -2.583,-38.24 36.295,-7.956 c 8.538,34.374 0.946,71.496 0.943,71.495 z"
             id="prefix__path80" />
          <path
             d="m 689.898,275.553 0.583,8.681 14.027,15.441 21.683,-32.079 z"
             fill="#895d3d"
             id="prefix__polygon82" />
        </g>
      </g>
      <path
         id="prefix__head_1_"
         fill="#986844"
         d="m 284.844,445.782 c 29.708,106.231 185.731,165.134 185.731,165.134 0,0 155.373,60.616 248.525,1.54 0,0 35.02,-91.332 30.586,-180.486 -4.435,-89.151 -50.319,-175.654 -131.109,-206.661 -80.789,-31.008 -172.767,2.579 -235.708,65.871 -62.94,63.295 -98.027,154.603 -98.025,154.602 z" />
      <ellipse
         id="prefix__nose_1_"
         transform="rotate(20.997,484.108,575.706)"
         cx="484.10001"
         cy="575.71698"
         rx="68.408997"
         ry="33.095001" />
      <g
         id="prefix__face_1_">
        <g
           id="prefix__eyes_1_">
          <g
             id="prefix__eye_2_">
            <path
               fill="#b78563"
               d="m 585.221,546.32 c 7.681,2.946 11.516,11.558 8.57,19.236 -2.948,7.679 -11.562,11.512 -19.24,8.567 -7.678,-2.948 -11.515,-11.559 -8.568,-19.237 2.948,-7.681 11.561,-11.516 19.238,-8.566 z"
               id="prefix__path90" />
            <circle
               cx="576.271"
               cy="561.74402"
               r="11.147"
               id="prefix__circle92" />
            <circle
               fill="#ffffff"
               cx="576.35797"
               cy="558.80701"
               r="3.602"
               id="prefix__circle94" />
          </g>
          <g
             id="prefix__eye_1_">
            <path
               fill="#b78563"
               d="m 427.91,485.939 c -7.676,-2.946 -16.289,0.887 -19.237,8.565 -2.946,7.679 0.889,16.288 8.568,19.238 7.677,2.947 16.29,-0.887 19.239,-8.564 2.948,-7.677 -0.89,-16.289 -8.57,-19.239 z"
               id="prefix__path97" />
            <circle
               cx="424.24399"
               cy="503.396"
               r="11.146"
               id="prefix__circle99" />
            <circle
               fill="#ffffff"
               cx="426.146"
               cy="501.14899"
               r="3.6040001"
               id="prefix__circle101" />
          </g>
        </g>
      </g>
      <path
         id="path3675"
         fill="#895d3d"
         d="m 689.897,275.55 c 36.359,41.232 56.897,98.262 59.788,156.42 4.432,89.15 -30.588,180.484 -30.588,180.484 -32.348,20.517 -72.202,26.596 -110.442,25.793 39.565,-15.886 72.999,-42.959 72.999,-42.959 85.832,-214.441 9.76,-317.71 8.243,-319.738 z M 531.934,214.919 c -54.609,6.319 -108.026,34.958 -149.091,76.247 -62.943,63.295 -98.023,154.605 -98.023,154.605 10.316,36.888 35.868,68.073 64.825,93.063 -18.778,-38.281 -25.513,-80.767 -25.513,-80.767 79.69,-216.8 205.318,-242.653 207.802,-243.148 z" />
    </g>
    <g
       id="prefix__g284"
       transform="translate(-64.582,-74.856)">
      <g
         id="prefix__g186"
         transform="translate(-109.35,-90.637)">
        <path
           id="path3680"
           d="m 270.168,459.087 c -44.305,21.708 -51.755,68.231 -42.797,93.142 3.224,8.962 54.855,39.102 127.788,76.03 17.384,-34.335 10.507,-100.829 10.507,-100.829 0,0 -27.331,-101.746 -95.498,-68.343 z"
           opacity="0.1" />
        <g
           id="prefix__g180">
          <g
             id="prefix__g147">
            <path
               id="prefix__path109"
               d="m 383.998,643.816 c -4.279,-1.306 -15.699,-22.149 -15.699,-22.149 l -7.183,-2.193 c -1.097,-2.842 -8.837,-24.952 -8.121,-27.301 0.718,-2.347 -1.851,-3.338 -1.851,-3.338 0,0 -1.518,-0.466 -4.279,-1.308 -2.763,-0.842 -4.148,-4.239 -4.482,-6.607 -0.336,-2.369 -8.941,-5.854 -13.08,-5.157 -4.139,0.699 -6.865,3.641 -9.687,0.515 -2.818,-3.126 -11.974,-6.375 -15.563,-7.473 -3.593,-1.098 -14.456,-3.66 -20.078,-2.055 -5.627,1.605 -6.67,1.285 -9.02,0.568 -3.383,-1.034 -3.775,-0.548 -2.004,-6.35 0.548,-1.795 4.6,-15.054 6.116,-20.025 1.521,-4.974 4.374,-7.841 11.505,-5.965 7.125,1.873 46.422,17.135 46.422,17.135 2.336,0.914 3.919,-0.142 3.919,-0.142 0,0 5.52,-4.719 6.899,-6.111 1.382,-1.389 3.165,-0.969 3.165,-0.969 l 8.839,2.699 c 0,0 55.107,12.023 59.251,13.289 4.144,1.265 1.927,8.165 1.927,8.165 l -22.019,72.093 c -3.01,1.646 -10.697,3.989 -14.977,2.679 z"
               fill="#d38a09" />
            <path
               id="prefix__path111"
               d="m 390.903,554.254 c -2.878,2.313 -5.172,5.46 -6.329,9.25 -3.07,10.051 2.492,20.693 12.543,23.762 7.723,2.358 15.932,-0.413 20.301,-6.512 l -1.74,5.713 c -5.05,4.202 -12.426,5.694 -19.405,3.562 C 384.7,586.493 378.395,574.27 381.93,562.697 a 21.812,21.812 0 0 1 5.567,-9.2 c 1.154,0.258 2.254,0.499 3.406,0.757 z m 30.967,12.793 c 0.218,-1.895 0.153,-4.534 -1.573,-5.748 a 19.108,19.108 0 0 1 1.573,5.748 z"
               opacity="0.1" />
            <path
               id="prefix__path113"
               d="m 366.812,548.884 c -1.402,2.538 -2.627,5.239 -3.507,8.123 -6.804,22.273 5.618,45.807 27.893,52.606 5.749,1.757 11.699,2.259 16.953,1.495 l 8.71,-28.524 c -3.593,3.55 -8.376,5.661 -13.47,5.692 2.083,-9.596 10.614,-12.764 16.027,-14.061 l 1.577,-5.172 c 0,0 2.251,-7.014 -1.892,-8.279 -0.104,-0.029 -0.006,0.002 -0.173,-0.046 -7.575,1.163 -12.196,-0.69 -15.009,-3.52 -12.011,-2.732 -28.075,-6.309 -37.109,-8.314 z m 20.512,10.815 c 8.332,9.403 5.881,17.965 2.873,23.061 -4.756,-4.828 -6.793,-12.046 -4.676,-18.966 a 19.027,19.027 0 0 1 1.803,-4.095 z"
               opacity="0.1" />
            <path
               id="prefix__path115"
               d="m 360.325,547.57 c -0.362,-0.079 -0.509,0.02 -0.509,0.02 l -8.839,-2.7 c 0,0 -1.802,-0.426 -3.181,0.965 -1.383,1.389 -6.9,6.047 -6.9,6.047 0,0 -1.631,1.074 -3.967,0.159 0,0 -39.229,-15.221 -46.355,-17.095 -7.129,-1.874 -9.986,1.007 -11.507,5.98 l -6.116,20.025 c -1.771,5.801 -1.384,5.328 2.004,6.359 2.345,0.718 3.464,1.071 9.086,-0.535 5.623,-1.605 16.445,0.967 20.037,2.066 3.592,1.096 12.714,4.377 15.534,7.503 2.82,3.124 5.514,0.253 9.652,-0.441 4.14,-0.701 12.786,2.638 13.122,5.002 0.332,2.366 1.713,5.764 4.477,6.605 2.763,0.842 4.278,1.308 4.278,1.308 0,0 2.213,0.443 1.852,1.627 l 0.097,-0.316 z"
               fill="#ef9f00" />
            <path
               id="prefix__path117"
               d="m 279.069,540.944 c -0.272,0.884 -0.623,2.035 -1.019,3.337 24.197,7.008 60.258,20.771 60.258,20.771 l 15.708,-19.234 -3.037,-0.929 c 0,0 -1.801,-0.426 -3.182,0.965 -1.381,1.389 -6.901,6.047 -6.901,6.047 0,0 -1.629,1.074 -3.965,0.159 0,0 -39.228,-15.221 -46.354,-17.095 -7.132,-1.874 -9.989,1.007 -11.508,5.979 z"
               fill="#e29000" />
            <path
               d="m 385.748,591.696 h 0.865 v 44.978 h -0.865 z"
               id="prefix__rect122"
               fill="#e5b486"
               transform="rotate(-97.782,386.19,614.183)" />
            <path
               id="prefix__path124"
               d="m 395.738,616.261 c 0,0 -0.928,-1.338 -3.625,-1.406 -2.697,-0.071 -25.502,-2.052 -25.502,-2.052 0,0 -2.845,-0.115 -3.773,2.925 l -1.195,3.91 6.655,2.032 c 0,0 11.703,20.928 15.983,22.235 2.202,0.672 5.295,0.091 8.145,-0.494 0.893,-0.95 1.459,-2.02 1.459,-2.02 l 2.617,-8.561 0.082,-0.277 2.582,-8.454 c 0,0 0.391,-2.598 -0.749,-4.305 -1.142,-1.705 -2.679,-3.533 -2.679,-3.533 z"
               opacity="0.1" />
            <g
               id="prefix__g130">
              <path
                 id="prefix__path126"
                 d="m 375.095,615.726 c -8.224,-2.516 -16.957,2.131 -19.471,10.356 -2.512,8.224 2.135,16.959 10.36,19.471 8.226,2.513 16.959,-2.135 19.47,-10.36 2.513,-8.222 -2.134,-16.958 -10.359,-19.467 z m -0.25,0.825 c 7.778,2.377 12.161,10.61 9.786,18.39 -2.377,7.778 -10.612,12.162 -18.392,9.787 -7.78,-2.377 -12.162,-10.61 -9.786,-18.393 2.376,-7.779 10.609,-12.16 18.392,-9.784 z"
                 fill="#e5b486" />
              <path
                 id="prefix__path128"
                 d="m 374.842,616.551 c -7.777,-2.377 -16.015,2.006 -18.391,9.786 -2.375,7.781 2.006,16.016 9.788,18.392 7.779,2.375 16.013,-2.009 18.392,-9.788 2.373,-7.78 -2.008,-16.013 -9.789,-18.39 z M 374,619.313 c 6.244,1.904 9.772,8.539 7.865,14.781 -1.906,6.244 -8.535,9.774 -14.78,7.869 -6.246,-1.906 -9.774,-8.539 -7.871,-14.784 1.907,-6.243 8.54,-9.774 14.786,-7.866 z"
                 fill="#9b9b9b" />
            </g>
            <g
               id="prefix__g145">
              <path
                 id="prefix__path132"
                 d="m 393.304,616.726 c -2.696,-0.071 -25.274,-1.983 -25.274,-1.983 0,0 -2.389,0.026 -3.316,3.064 -0.766,2.511 -1.566,5.128 -1.823,5.966 0,0 -0.028,0.1 -0.085,0.277 -0.258,0.856 -1.084,3.562 -1.852,6.077 -0.93,3.036 1.035,4.392 1.035,4.392 0,0 19.703,11.001 21.981,12.45 2.275,1.453 3.668,0.819 3.668,0.819 0,0 2.161,-0.696 4.062,-1.478 1.897,-0.777 2.908,-3.186 2.908,-3.186 l 2.619,-8.562 0.082,-0.277 2.582,-8.452 c 0,0 0.503,-2.564 -0.636,-4.271 -1.137,-1.707 -2.528,-3.492 -2.528,-3.492 0,0 -0.729,-1.276 -3.423,-1.344 z"
                 fill="#ef9f00" />
              <g
                 id="prefix__g143">
                <circle
                   id="circle3693"
                   r="4.4759998"
                   cy="630.77899"
                   cx="384.84201"
                   opacity="0.1" />
                <g
                   id="prefix__g141">
                  <circle
                     id="prefix__circle135"
                     r="4.4770002"
                     cy="631.03302"
                     cx="385.66901"
                     fill="#adadad" />
                  <path
                     id="prefix__path137"
                     d="m 386.475,628.397 a 2.754,2.754 0 1 1 -1.608,5.268 2.758,2.758 0 0 1 -1.832,-3.438 2.759,2.759 0 0 1 3.44,-1.83 z"
                     fill="#919191" />
                  <path
                     id="prefix__path139"
                     d="m 385.669,628.795 a 2.2370002,2.2370002 0 1 1 0.002,4.474 2.2370002,2.2370002 0 0 1 -0.002,-4.474 z"
                     fill="#bababa" />
                </g>
              </g>
            </g>
          </g>
          <g
             id="prefix__g178">
            <g
               id="prefix__g167">
              <path
                 id="prefix__path149"
                 d="m 427.534,559.714 c -27.738,8.745 -26.001,-14.734 -26.001,-14.734 -7.728,5.039 -13.721,13.779 -13.721,13.779 15.746,15.679 0.518,29.449 0.518,29.449 3.905,9.95 17.005,7.609 17.005,7.609 -1.31,-22.898 23.302,-21.422 23.302,-21.422 5.995,-6.774 -1.103,-14.681 -1.103,-14.681 z"
                 fill="#9b9b9b" />
              <g
                 id="prefix__g157">
                <path
                   id="prefix__path151"
                   d="m 391.493,584.366 a 25.134,25.134 0 0 1 -1.727,2.315 21.892,21.892 0 0 0 15.709,4.224 20.88,20.88 0 0 1 0.6,-3.003 18.96,18.96 0 0 1 -8.721,-0.565 18.988,18.988 0 0 1 -5.861,-2.971 z"
                   opacity="0.1" />
                <path
                   id="prefix__path153"
                   d="m 397.81,547.773 c -2.229,1.88 -4.208,3.918 -5.807,5.728 a 19.159,19.159 0 0 1 9.959,-3.431 21.294,21.294 0 0 1 -0.396,-2.867 21.985,21.985 0 0 0 -3.756,0.57 z"
                   opacity="0.1" />
                <path
                   id="prefix__path155"
                   d="m 424.174,574.593 a 21.832,21.832 0 0 0 -0.924,-13.729 38.206,38.206 0 0 1 -2.914,0.527 18.97,18.97 0 0 1 0.816,13.283 c -0.045,0.15 -0.098,0.298 -0.146,0.441 a 31.966,31.966 0 0 1 3.168,-0.522 z"
                   opacity="0.1" />
              </g>
              <g
                 id="prefix__g165">
                <circle
                   id="prefix__circle159"
                   r="7.5079999"
                   cy="570.69702"
                   cx="405.155"
                   fill="#adadad" />
                <path
                   id="prefix__path161"
                   d="m 406.505,566.279 a 4.625,4.625 0 0 1 3.069,5.771 4.625,4.625 0 0 1 -5.771,3.064 4.626,4.626 0 0 1 -3.07,-5.768 4.625,4.625 0 0 1 5.772,-3.067 z"
                   fill="#919191" />
                <path
                   id="prefix__path163"
                   d="m 406.252,567.104 a 3.762,3.762 0 0 1 2.495,4.689 3.763,3.763 0 0 1 -4.688,2.496 3.762,3.762 0 0 1 -2.495,-4.689 3.761,3.761 0 0 1 4.688,-2.496 z"
                   fill="#bababa" />
              </g>
            </g>
            <g
               id="prefix__tape_1_">
              <path
                 id="prefix__path169"
                 d="m 418.002,529.624 c -22.273,-6.801 -45.842,5.74 -52.645,28.013 -6.806,22.272 5.738,45.842 28.011,52.645 22.271,6.803 45.842,-5.737 52.646,-28.011 6.802,-22.273 -5.741,-45.842 -28.012,-52.647 z m -5.906,19.334 c 11.574,3.538 18.117,15.831 14.582,27.408 -3.536,11.572 -15.829,18.116 -27.406,14.581 -11.574,-3.537 -18.113,-15.83 -14.578,-27.406 3.533,-11.576 15.828,-18.116 27.402,-14.583 z"
                 fill="#e5b486"
                 style="fill:#ffc300;fill-opacity:1" />
              <g
                 id="prefix__g175">
                <path
                   id="prefix__path171"
                   d="m 412.096,548.958 c -11.576,-3.536 -23.869,3.008 -27.402,14.583 -3.535,11.576 3.004,23.869 14.578,27.406 11.576,3.535 23.87,-3.009 27.406,-14.581 3.535,-11.577 -3.008,-23.871 -14.582,-27.408 z m -0.844,2.765 c 10.052,3.067 15.733,13.744 12.663,23.797 -3.069,10.051 -13.747,15.731 -23.799,12.663 -10.052,-3.071 -15.731,-13.746 -12.662,-23.797 3.071,-10.053 13.747,-15.734 23.798,-12.663 z"
                   fill="#bababa" />
                <path
                   id="prefix__path173"
                   d="m 426.678,576.365 c -3.536,11.573 -15.829,18.115 -27.406,14.581 -11.574,-3.538 -18.113,-15.83 -14.578,-27.406 3.533,-11.575 15.829,-18.119 27.402,-14.583 11.575,3.538 18.117,15.832 14.582,27.408 m -39.224,-11.98 c -3.069,10.051 2.61,20.726 12.662,23.797 10.052,3.068 20.729,-2.612 23.799,-12.664 3.07,-10.051 -2.611,-20.728 -12.663,-23.795 -10.051,-3.071 -20.727,2.61 -23.798,12.662 m 40.052,12.232 c 3.673,-12.031 -3.125,-24.811 -15.156,-28.483 -12.033,-3.677 -24.813,3.122 -28.486,15.155 -3.676,12.034 3.123,24.813 15.155,28.488 12.032,3.672 24.811,-3.129 28.487,-15.16 z m -39.223,-11.979 c 2.93,-9.593 13.118,-15.017 22.717,-12.083 9.593,2.93 15.016,13.119 12.086,22.716 -2.93,9.597 -13.123,15.017 -22.717,12.087 -9.595,-2.933 -15.017,-13.125 -12.086,-22.72 z"
                   fill="#878787" />
              </g>
            </g>
          </g>
        </g>
        <path
           d="m 260.891,459.087 c -44.305,21.708 -51.756,68.231 -42.797,93.142 3.224,8.962 54.855,39.102 127.789,76.03 17.383,-34.335 10.507,-100.829 10.507,-100.829 0,0 -27.332,-101.746 -95.499,-68.343 z"
           fill="#986844"
           id="prefix__arm_2_" />
        <path
           id="prefix__path183"
           d="m 218.094,552.23 c 3.224,8.962 54.855,39.102 127.789,76.028 -34.834,-49.85 -125.657,-124.414 -126.016,-124.71 -6.626,17.748 -6.33,36.01 -1.773,48.682 z"
           fill="#895d3d" />
      </g>
    </g>
    <g
       id="layer1"
       inkscape:label="Layer 1"
       transform="matrix(3.7795276,0,0,3.7795276,785.1536,115.51043)">
      <path
         id="path11271"
         style="fill:none;fill-opacity:1;stroke:#035000;stroke-width:2.71925;stroke-miterlimit:4;stroke-dasharray:none;stroke-opacity:1"
         d="m -139.53236,105.93956 c 7.86053,-0.0667 16.10736,3.95675 19.5508,11.27608 2.81397,5.74398 1.39123,12.99803 -3.03053,17.53062 -1.26054,0.95253 -2.26724,2.27107 -1.97646,3.92339 -0.0669,1.41759 0.14089,2.87459 -0.11728,4.26513 -1.67939,1.45899 -3.8563,-1.06891 -5.70061,-1.45 -1.88881,-1.29524 -4.01131,-0.24557 -6.04074,-0.0761 -8.27005,0.97673 -17.41242,-2.5784 -21.66805,-9.98573 -3.22365,-5.45925 -2.51776,-12.79255 1.54853,-17.63279 4.15468,-5.19762 10.87505,-7.87107 17.43434,-7.85057 z" />
      <g
         id="g11279"
         transform="matrix(0.33300766,0,0,0.33300766,-238.83457,96.745655)">
        <g
           style="font-style:normal;font-variant:normal;font-weight:normal;font-stretch:normal;font-size:35.2511px;line-height:1.45;font-family:Aviny;-inkscape-font-specification:Aviny;text-align:end;text-anchor:end;white-space:pre;shape-inside:url(#rect3271);fill:#035000;fill-opacity:1;stroke:#035000;stroke-width:0.425717;stroke-miterlimit:4;stroke-dasharray:none;stroke-opacity:1"
           id="g11275"
           transform="matrix(2.6001613,0,0,2.6001613,9046.603,-3001.8834)"
           aria-label="пе"
           inkscape:export-xdpi="91.790001"
           inkscape:export-ydpi="91.790001">
          <path
             d="m -3349.2946,1180.9828 c 0.4071,3.1453 -1.4939,6.1785 -4.1099,7.7976 -4.1083,2.7756 -9.2568,3.3485 -14.0975,3.1924 -4.2287,-0.2299 -8.7035,-1.5956 -11.5241,-4.9229 -1.5656,-1.8972 -1.9308,-4.7815 -0.5234,-6.8688 1.8649,-2.8974 5.3879,-3.9804 8.6029,-4.5352 2.806,-0.4702 5.7391,-0.4354 8.4696,0.4222 0.8829,1.201 -1.6956,1.1788 -2.4838,1.2608 -3.6275,0.3927 -7.5363,0.6461 -10.5839,2.8799 -1.4265,1.0153 -1.6883,3.1803 -0.3319,4.3747 2.0672,2.3021 5.3586,2.6569 8.2657,2.9018 4.1678,0.2862 8.527,-0.1002 12.3093,-1.9894 1.5201,-0.8492 2.7558,-2.4729 2.5731,-4.2876 0.1226,-1.232 1.6798,-2.5128 2.8189,-1.6203 0.4019,0.348 0.5359,0.8917 0.615,1.3948 z"
             style="font-style:normal;font-variant:normal;font-weight:normal;font-stretch:normal;font-size:35.2511px;font-family:Aviny;-inkscape-font-specification:Aviny;fill:#035000;fill-opacity:1;stroke:#035000;stroke-width:0.549587;stroke-miterlimit:4;stroke-dasharray:none;stroke-opacity:1"
             id="path11273" />
        </g>
        <path
           id="path11277"
           style="fill:#035000;fill-opacity:1;stroke:none;stroke-width:1.99257;stroke-linecap:round;stroke-linejoin:round;stroke-miterlimit:4;stroke-dasharray:none;stroke-opacity:1;paint-order:markers fill stroke"
           d="m 306.12885,110.25678 a 9.413273,9.413273 0 0 1 -9.40789,9.41421 9.413273,9.413273 0 0 1 -9.42365,-9.41421 9.413273,9.413273 0 0 1 9.42365,-9.41263 9.413273,9.413273 0 0 1 9.40789,9.41263 z"
           inkscape:export-xdpi="91.790001"
           inkscape:export-ydpi="91.790001" />
      </g>
    </g>
    <path
       d="m 187.869,527.62026 5.869,-45.65477 h 52.039 l -7.743,57.37514 z"
       fill="#e5b486"
       id="prefix__polygon62"
       style="stroke-width:0.80563;fill:#ffc300;fill-opacity:1" />
  </g>
</svg>
