<svg width="500" height="700" version="1.1" viewBox="0 0 500 700" xml:space="preserve" xmlns="http://www.w3.org/2000/svg">



































<path d="m413 164h-322l-48.9 47.4c-22.8 22.1-36.2 56-36.2 91.9v248c0 50.5 33 91.5 73.8 91.5h345c40.8 0 73.8-40.9 73.8-91.5v-248c0-35.9-13.3-69.8-36.2-91.9z" fill="#91d4f2" style="fill:#80c904;stroke-width:1.07"/><path d="m252 164h-161l-48.9 47.4c-22.8 22.1-36.2 56-36.2 91.9v248c0 50.5 33 91.4 73.8 91.4h172z" fill="#59c2e8" style="fill:#338000;stroke-width:1.07"/><path d="m148 108s44.1 15.6 104 15.6c59.5 0 104-15.6 104-15.6v68.1h-207z" fill="#91d4f2" style="fill:#80c904;stroke-width:.962"/><path d="m375 399c-31.6 0-57.2-25.6-57.2-57.2v-32.8c0-13.4 10.9-24.3 24.3-24.3h65.7c13.4 0 24.3 10.9 24.3 24.3v32.8c0 31.6-25.6 57.2-57.2 57.2z" fill="#59c2e8" style="fill:#338000;stroke-width:.962"/><path d="m383 314c-2.51-2.94 13.4-12.7 18.8-12.8 5.42-0.0873 17.8 41.2 3.94 44-5.93 1.22-37.7 3.26-61.6-0.339-5-0.752-5.24-12.8-2.18-17.4 4.11-6.18 13.5-4.34 19.8-2.03 14.1 5.17 23.4 9.25 27.2 3.47 2.95-4.5-3.48-12-5.99-14.9z" style="clip-rule:evenodd;fill-rule:evenodd;fill:#f4e8d7;image-rendering:optimizeQuality;shape-rendering:geometricPrecision"/><ellipse cx="381" cy="362" rx="10.6" ry="10.3" style="clip-rule:evenodd;fill-rule:evenodd;fill:#f4e8d7;image-rendering:optimizeQuality;shape-rendering:geometricPrecision"/><path d="m355 108-104 68 30.4 47c9.9 15.3 30.1 20 45.8 10.7l82.6-49.3c14.8-8.84 18.3-28.8 7.21-42.1l-23.7-28.5c-9.57-11.5-26.3-14-38.8-5.77z" fill="#c2eafb" style="fill:#b3ff80;stroke-width:.962"/><path d="m148 108 104 68-30.4 47c-9.9 15.3-30.1 20-45.8 10.7l-82.6-49.3c-14.8-8.84-18.3-28.8-7.21-42.1l23.7-28.5c9.57-11.5 26.3-14 38.8-5.77z" fill="#c2eafb" style="fill:#b3ff80;stroke-width:.962"/><g transform="matrix(.962 0 0 .962 14.4 94.6)" fill="#6a829a" style="fill:#80c904"><path d="m217 215c0 11.4-9.22 20.6-20.6 20.6-11.4 0-20.6-9.23-20.6-20.6 0-11.4 9.23-20.6 20.6-20.6 11.4 0 20.6 9.22 20.6 20.6z" style="fill:#80c904"/><path d="m217 307c0 11.4-9.22 20.6-20.6 20.6-11.4 0-20.6-9.23-20.6-20.6 0-11.4 9.23-20.6 20.6-20.6 11.4 0 20.6 9.23 20.6 20.6z" style="fill:#80c904"/></g><g transform="matrix(.962 0 0 .962 14.4 271)" fill="#6a829a" style="fill:#80c904"><path d="m217 215c0 11.4-9.22 20.6-20.6 20.6-11.4 0-20.6-9.23-20.6-20.6 0-11.4 9.23-20.6 20.6-20.6 11.4 0 20.6 9.22 20.6 20.6z" style="fill:#80c904"/><path d="m217 307c0 11.4-9.22 20.6-20.6 20.6-11.4 0-20.6-9.23-20.6-20.6 0-11.4 9.23-20.6 20.6-20.6 11.4 0 20.6 9.23 20.6 20.6z" style="fill:#80c904"/></g></svg>
