<svg xmlns="http://www.w3.org/2000/svg" height="700" width="700"><defs><style>@keyframes anim-noq{0%{transform:translate(-10px,0)}to{transform:translate(40px,0)}}</style></defs><g transform="translate(-64.582 -74.856)" id="prefix__publishing"><g transform="translate(-109.35 -90.637)" id="prefix__g56"><g id="prefix__body_1_"><g id="prefix__body_2_"><path d="M630.318 616.913c-33.082-68.965-100.773-123.294-180.117-123.294-79.34 0-147.029 54.329-180.115 123.293-33.082 68.967-33.111 151.595-33.111 151.595 72.065 48.734 213.229 52.607 213.229 52.607s141.189-3.888 213.233-52.607c-.005.001-.037-82.628-33.119-151.594z" fill="#986844" id="prefix__body_6_"/><g fill="#895d3d"><path id="prefix__path11" d="M323.507 803.611c-82.104-74.211-31.063-206.329-31.063-206.329l23.784-33.096s-8.013 2.636-15.596 4.85a236.505 236.505 0 00-30.552 47.874c-30.823 64.255-32.951 140.357-33.102 150.454v.054l-.004.347v.063a10.91 10.91 0 00-.003.244l-.001.102v.331c23.827 16.114 55.207 27.321 86.537 35.106z"/><path id="prefix__path13" d="M576.928 803.611c82.105-74.211 31.062-206.329 31.062-206.329l-23.783-33.098s8.015 2.636 15.598 4.849a236.557 236.557 0 0130.549 47.875c30.82 64.253 32.955 140.356 33.105 150.453l.001.059c.003.128.003.238.006.343v.064c.002.09.002.172.002.244l.002.103.001.134v.196c-23.833 16.115-55.21 27.322-86.543 35.107z"/></g></g><g id="prefix__belly_2_"><path id="prefix__path17" d="M450.189 658.024c-90.773 0-169.628 25.736-209.479 63.533-3.73 27.687-3.738 46.95-3.738 46.95 72.066 48.734 213.229 52.607 213.229 52.607s141.188-3.887 213.23-52.607c0 0-.01-19.247-3.732-46.916-39.845-37.817-118.718-63.567-209.51-63.567z" fill="#b78563"/><g id="prefix__belly_shadow_1_" fill="#a57859"><path id="prefix__path19" d="M323.442 803.596s-43.234-33.395-46.48-107.623c0 0-26.349 14.397-36.254 25.618-3.726 27.669-3.732 46.913-3.732 46.913 23.805 16.103 55.155 27.306 86.466 35.092-.002 0-.002 0 0 0z"/><path id="prefix__path21" d="M576.961 803.596s43.23-33.395 46.477-107.623c0 0 26.348 14.397 36.256 25.618 3.725 27.669 3.73 46.913 3.73 46.913-23.801 16.105-55.152 27.306-86.463 35.092z"/></g></g></g><g id="prefix__legs_2_"><g id="prefix__leg_4_"><path id="prefix__path26" d="M361.295 714.852v-.003c-12.233-22.109-38.263-37.368-68.396-37.368-41.887 0-75.841 29.487-75.841 65.855 0 31.961 26 60.852 59.953 66.081 33.955 5.229 100.191 4.681 100.191 4.681 16.271-11.895-1.993-74.529-15.907-99.246z" fill="#986844"/><g id="prefix__shadow_6_" fill="#895d3d"><path id="prefix__path28" d="M292.898 810.331c-95.065-56.237-16.033-131.351-16.004-131.377-34.203 6.377-59.836 32.777-59.836 64.387 0 31.956 26 60.847 59.953 66.076 5.272.812 11.322 1.485 17.782 2.042-.619-.369-1.247-.745-1.895-1.128z"/><ellipse id="prefix__ellipse30" ry="23.764" rx="26.581" cy="783.261" cx="277.514" transform="rotate(-120 277.51 783.27)"/></g><g id="prefix__g37"><ellipse id="prefix__ellipse33" ry="23.766" rx="26.579" cy="788.637" cx="280.58" fill="#7a5336" transform="rotate(-120 280.577 788.647)"/><ellipse id="prefix__ellipse35" ry="14.405" rx="16.113" cy="794.115" cx="283.695" fill="#af7146" transform="rotate(-120 283.686 794.124)"/></g></g><g id="prefix__leg_2_"><path id="prefix__path40" d="M540.458 714.852c0-.002 0-.002.003-.003 12.232-22.109 38.26-37.368 68.393-37.368 41.887 0 75.841 29.487 75.841 65.855 0 31.961-26.002 60.852-59.951 66.081-33.952 5.229-100.195 4.681-100.195 4.681-16.268-11.895 1.995-74.529 15.909-99.246z" fill="#986844"/><g id="prefix__shadow_5_" fill="#895d3d"><path id="prefix__path42" d="M608.854 810.331c95.064-56.237 16.031-131.351 16.003-131.377 34.199 6.377 59.833 32.777 59.833 64.387 0 31.956-26.001 60.847-59.95 66.076-5.273.812-11.321 1.485-17.781 2.042.62-.369 1.248-.745 1.895-1.128z"/><ellipse id="prefix__ellipse44" ry="23.765" rx="26.579" cy="783.251" cx="624.27" transform="rotate(120 624.28 783.259)"/></g><g id="prefix__g51"><ellipse id="prefix__ellipse47" ry="23.766" rx="26.577" cy="788.731" cx="621.215" fill="#7a5336" transform="rotate(120 621.226 788.737)"/><ellipse id="prefix__ellipse49" ry="14.406" rx="16.113" cy="794.114" cx="618.065" fill="#af7146" transform="rotate(120 618.083 794.105)"/></g></g></g></g><g transform="translate(-109.35 -90.637)" id="prefix__arms_2_"><g id="prefix__g66"><path id="prefix__box" fill="#9a4121" d="M305.237 647.458h265.284V846.42H305.237z"/><path id="prefix__polygon60" opacity=".1" d="M472.539 846.421h99.481v-99.483z"/><path transform="matrix(1 0 0 .64904 -100 227.233)" id="prefix__polygon62" fill="#e5b486" d="M461.801 717.799l5.869-70.342h52.039l-7.743 88.4z"/></g></g><g transform="translate(-109.35 -90.637)" id="prefix__arm_7_"><path d="M660.773 636.27c27.01 52.505 18.39 64.416.904 88.65-6.293 8.722-64.973 61.39-139.26 61.39 0-51.312 32.874-126.265 32.874-126.265s63.928-104.566 105.482-23.775z" fill="#986844" id="prefix__arm_8_"/><path id="prefix__path70" d="M522.418 786.308c74.287 0 132.967-52.667 139.261-61.39 17.483-24.234 26.104-36.144-.905-88.65a107.737 107.737 0 00-1.594-2.962c.083.797 9.558 96.994-136.762 153.002z" opacity=".1"/></g><g transform="translate(-109.35 -90.637)" id="prefix__npm_-_wombat_-_face_1_"><path id="prefix__path73" d="M381.092 304.306C318.149 367.6 283.07 458.911 283.07 458.911c10.314 36.888 35.867 68.071 64.824 93.061-.005-.009-.011-.018-.015-.028 54.439 46.995 120.944 72.11 120.944 72.11s66.203 25.822 138.088 27.327l-.007.003c6.465.139 12.935.078 19.394-.218 31.675-1.446 64-8.361 91.051-25.571 1.429-3.746 2.721-7.545 3.988-11.349 7.847-23.544 14.068-47.676 18.716-72.05 6.269-32.866 9.765-66.611 7.717-100.077-1.957-31.946-9.114-63.651-21.821-93.061 1.589-9.659 5.55-39.918-1.509-68.323l-36.292 7.956c-16.753-18.999-37.134-34.77-60.124-45.489-30.473-14.209-64.541-18.988-97.854-15.125l.013-.012v-.005h.002-.002l-21.648-30.19c-24.269 16.4-41.578 41.561-46.848 49.784-29.515 13.528-57.083 33.009-80.595 56.652-62.944 63.294 23.512-23.641 0 0z" opacity=".1"/><g id="prefix__ears_1_"><g id="prefix__ear_3_"><path id="prefix__path75" d="M461.745 237.23l42.681 4.382 27.506-26.689-21.648-30.195c-29.345 19.832-48.539 52.502-48.539 52.502z" fill="#986844"/><path id="prefix__polygon77" fill="#895d3d" d="M531.932 214.923l-6.244 6.06-20.756 2.091 5.351-38.346z"/></g><g id="prefix__ear_2_"><path id="prefix__path80" d="M727.135 339.089L692.48 313.79l-2.583-38.24 36.295-7.956c8.538 34.374.946 71.496.943 71.495z" fill="#986844"/><path id="prefix__polygon82" fill="#895d3d" d="M689.898 275.553l.583 8.681 14.027 15.441 21.683-32.079z"/></g></g><path d="M284.844 445.782c29.708 106.231 185.731 165.134 185.731 165.134s155.373 60.616 248.525 1.54c0 0 35.02-91.332 30.586-180.486-4.435-89.151-50.319-175.654-131.109-206.661-80.789-31.008-172.767 2.579-235.708 65.871-62.94 63.295-98.027 154.603-98.025 154.602z" fill="#986844" id="prefix__head_1_"/><ellipse ry="33.095" rx="68.409" cy="575.717" cx="484.1" transform="rotate(20.997 484.108 575.706)" id="prefix__nose_1_"/><g id="prefix__face_1_"><g id="prefix__eyes_1_"><g id="prefix__eye_2_"><path id="prefix__path90" d="M585.221 546.32c7.681 2.946 11.516 11.558 8.57 19.236-2.948 7.679-11.562 11.512-19.24 8.567-7.678-2.948-11.515-11.559-8.568-19.237 2.948-7.681 11.561-11.516 19.238-8.566z" fill="#b78563"/><circle id="prefix__circle92" r="11.147" cy="561.744" cx="576.271"/><circle id="prefix__circle94" r="3.602" cy="558.807" cx="576.358" fill="#fff"/></g><g id="prefix__eye_1_"><path id="prefix__path97" d="M427.91 485.939c-7.676-2.946-16.289.887-19.237 8.565-2.946 7.679.889 16.288 8.568 19.238 7.677 2.947 16.29-.887 19.239-8.564 2.948-7.677-.89-16.289-8.57-19.239z" fill="#b78563"/><circle id="prefix__circle99" r="11.146" cy="503.396" cx="424.244"/><circle id="prefix__circle101" r="3.604" cy="501.149" cx="426.146" fill="#fff"/></g></g></g><path d="M689.897 275.55c36.359 41.232 56.897 98.262 59.788 156.42 4.432 89.15-30.588 180.484-30.588 180.484-32.348 20.517-72.202 26.596-110.442 25.793 39.565-15.886 72.999-42.959 72.999-42.959 85.832-214.441 9.76-317.71 8.243-319.738zm-157.963-60.631c-54.609 6.319-108.026 34.958-149.091 76.247-62.943 63.295-98.023 154.605-98.023 154.605 10.316 36.888 35.868 68.073 64.825 93.063-18.778-38.281-25.513-80.767-25.513-80.767 79.69-216.8 205.318-242.653 207.802-243.148z" fill="#895d3d"/></g><path id="prefix__be" d="M332.014 610.804c-6.068-7.156 32.426-30.98 45.502-31.192 13.076-.213 42.877 100.099 9.501 107.003-14.311 2.961-91.07 7.918-148.812-.823-12.067-1.827-12.653-31.101-5.267-42.284 9.916-15.018 32.533-10.561 47.826-4.932 34.156 12.574 56.584 22.485 65.72 8.445 7.124-10.95-8.402-29.061-14.47-36.217z" fill="#f4e8d7"/><circle cy="722" cx="327.772" id="prefix__noq" fill="#f4e8d7" r="25"/><g style="animation:1s ease-in-out -.7s infinite alternate-reverse anim-noq" id="prefix__g284"><g transform="translate(-109.35 -90.637)" id="prefix__g186"><path opacity=".1" d="M270.168 459.087c-44.305 21.708-51.755 68.231-42.797 93.142 3.224 8.962 54.855 39.102 127.788 76.03 17.384-34.335 10.507-100.829 10.507-100.829s-27.331-101.746-95.498-68.343z"/><g id="prefix__g180"><g id="prefix__g147"><path fill="#d38a09" d="M383.998 643.816c-4.279-1.306-15.699-22.149-15.699-22.149l-7.183-2.193c-1.097-2.842-8.837-24.952-8.121-27.301.718-2.347-1.851-3.338-1.851-3.338s-1.518-.466-4.279-1.308c-2.763-.842-4.148-4.239-4.482-6.607-.336-2.369-8.941-5.854-13.08-5.157-4.139.699-6.865 3.641-9.687.515-2.818-3.126-11.974-6.375-15.563-7.473-3.593-1.098-14.456-3.66-20.078-2.055-5.627 1.605-6.67 1.285-9.02.568-3.383-1.034-3.775-.548-2.004-6.35.548-1.795 4.6-15.054 6.116-20.025 1.521-4.974 4.374-7.841 11.505-5.965 7.125 1.873 46.422 17.135 46.422 17.135 2.336.914 3.919-.142 3.919-.142s5.52-4.719 6.899-6.111c1.382-1.389 3.165-.969 3.165-.969l8.839 2.699s55.107 12.023 59.251 13.289c4.144 1.265 1.927 8.165 1.927 8.165l-22.019 72.093c-3.01 1.646-10.697 3.989-14.977 2.679z" id="prefix__path109"/><path opacity=".1" d="M390.903 554.254c-2.878 2.313-5.172 5.46-6.329 9.25-3.07 10.051 2.492 20.693 12.543 23.762 7.723 2.358 15.932-.413 20.301-6.512l-1.74 5.713c-5.05 4.202-12.426 5.694-19.405 3.562-11.573-3.536-17.878-15.759-14.343-27.332a21.812 21.812 0 015.567-9.2c1.154.258 2.254.499 3.406.757zm30.967 12.793c.218-1.895.153-4.534-1.573-5.748a19.108 19.108 0 011.573 5.748z" id="prefix__path111"/><path opacity=".1" d="M366.812 548.884c-1.402 2.538-2.627 5.239-3.507 8.123-6.804 22.273 5.618 45.807 27.893 52.606 5.749 1.757 11.699 2.259 16.953 1.495l8.71-28.524c-3.593 3.55-8.376 5.661-13.47 5.692 2.083-9.596 10.614-12.764 16.027-14.061l1.577-5.172s2.251-7.014-1.892-8.279c-.104-.029-.006.002-.173-.046-7.575 1.163-12.196-.69-15.009-3.52-12.011-2.732-28.075-6.309-37.109-8.314zm20.512 10.815c8.332 9.403 5.881 17.965 2.873 23.061-4.756-4.828-6.793-12.046-4.676-18.966a19.027 19.027 0 011.803-4.095z" id="prefix__path113"/><path fill="#ef9f00" d="M360.325 547.57c-.362-.079-.509.02-.509.02l-8.839-2.7s-1.802-.426-3.181.965c-1.383 1.389-6.9 6.047-6.9 6.047s-1.631 1.074-3.967.159c0 0-39.229-15.221-46.355-17.095-7.129-1.874-9.986 1.007-11.507 5.98l-6.116 20.025c-1.771 5.801-1.384 5.328 2.004 6.359 2.345.718 3.464 1.071 9.086-.535 5.623-1.605 16.445.967 20.037 2.066 3.592 1.096 12.714 4.377 15.534 7.503 2.82 3.124 5.514.253 9.652-.441 4.14-.701 12.786 2.638 13.122 5.002.332 2.366 1.713 5.764 4.477 6.605 2.763.842 4.278 1.308 4.278 1.308s2.213.443 1.852 1.627l.097-.316z" id="prefix__path115"/><path fill="#e29000" d="M279.069 540.944c-.272.884-.623 2.035-1.019 3.337 24.197 7.008 60.258 20.771 60.258 20.771l15.708-19.234-3.037-.929s-1.801-.426-3.182.965c-1.381 1.389-6.901 6.047-6.901 6.047s-1.629 1.074-3.965.159c0 0-39.228-15.221-46.354-17.095-7.132-1.874-9.989 1.007-11.508 5.979z" id="prefix__path117"/><path transform="rotate(-97.782 386.19 614.183)" fill="#e5b486" id="prefix__rect122" d="M385.748 591.696h.865v44.978h-.865z"/><path opacity=".1" d="M395.738 616.261s-.928-1.338-3.625-1.406c-2.697-.071-25.502-2.052-25.502-2.052s-2.845-.115-3.773 2.925l-1.195 3.91 6.655 2.032s11.703 20.928 15.983 22.235c2.202.672 5.295.091 8.145-.494.893-.95 1.459-2.02 1.459-2.02l2.617-8.561.082-.277 2.582-8.454s.391-2.598-.749-4.305c-1.142-1.705-2.679-3.533-2.679-3.533z" id="prefix__path124"/><g id="prefix__g130"><path fill="#e5b486" d="M375.095 615.726c-8.224-2.516-16.957 2.131-19.471 10.356-2.512 8.224 2.135 16.959 10.36 19.471 8.226 2.513 16.959-2.135 19.47-10.36 2.513-8.222-2.134-16.958-10.359-19.467zm-.25.825c7.778 2.377 12.161 10.61 9.786 18.39-2.377 7.778-10.612 12.162-18.392 9.787-7.78-2.377-12.162-10.61-9.786-18.393 2.376-7.779 10.609-12.16 18.392-9.784z" id="prefix__path126"/><path fill="#9b9b9b" d="M374.842 616.551c-7.777-2.377-16.015 2.006-18.391 9.786-2.375 7.781 2.006 16.016 9.788 18.392 7.779 2.375 16.013-2.009 18.392-9.788 2.373-7.78-2.008-16.013-9.789-18.39zm-.842 2.762c6.244 1.904 9.772 8.539 7.865 14.781-1.906 6.244-8.535 9.774-14.78 7.869-6.246-1.906-9.774-8.539-7.871-14.784 1.907-6.243 8.54-9.774 14.786-7.866z" id="prefix__path128"/></g><g id="prefix__g145"><path fill="#ef9f00" d="M393.304 616.726c-2.696-.071-25.274-1.983-25.274-1.983s-2.389.026-3.316 3.064c-.766 2.511-1.566 5.128-1.823 5.966 0 0-.028.1-.085.277-.258.856-1.084 3.562-1.852 6.077-.93 3.036 1.035 4.392 1.035 4.392s19.703 11.001 21.981 12.45c2.275 1.453 3.668.819 3.668.819s2.161-.696 4.062-1.478c1.897-.777 2.908-3.186 2.908-3.186l2.619-8.562.082-.277 2.582-8.452s.503-2.564-.636-4.271c-1.137-1.707-2.528-3.492-2.528-3.492s-.729-1.276-3.423-1.344z" id="prefix__path132"/><g id="prefix__g143"><circle opacity=".1" cx="384.842" cy="630.779" r="4.476"/><g id="prefix__g141"><circle fill="#adadad" cx="385.669" cy="631.033" r="4.477" id="prefix__circle135"/><path fill="#919191" d="M386.475 628.397a2.754 2.754 0 11-1.608 5.268 2.758 2.758 0 01-1.832-3.438 2.759 2.759 0 013.44-1.83z" id="prefix__path137"/><path fill="#bababa" d="M385.669 628.795a2.237 2.237 0 11.002 4.474 2.237 2.237 0 01-.002-4.474z" id="prefix__path139"/></g></g></g></g><g id="prefix__g178"><g id="prefix__g167"><path fill="#9b9b9b" d="M427.534 559.714c-27.738 8.745-26.001-14.734-26.001-14.734-7.728 5.039-13.721 13.779-13.721 13.779 15.746 15.679.518 29.449.518 29.449 3.905 9.95 17.005 7.609 17.005 7.609-1.31-22.898 23.302-21.422 23.302-21.422 5.995-6.774-1.103-14.681-1.103-14.681z" id="prefix__path149"/><g id="prefix__g157"><path opacity=".1" d="M391.493 584.366a25.134 25.134 0 01-1.727 2.315 21.892 21.892 0 0015.709 4.224 20.88 20.88 0 01.6-3.003 18.96 18.96 0 01-8.721-.565 18.988 18.988 0 01-5.861-2.971z" id="prefix__path151"/><path opacity=".1" d="M397.81 547.773c-2.229 1.88-4.208 3.918-5.807 5.728a19.159 19.159 0 019.959-3.431 21.294 21.294 0 01-.396-2.867 21.985 21.985 0 00-3.756.57z" id="prefix__path153"/><path opacity=".1" d="M424.174 574.593a21.832 21.832 0 00-.924-13.729 38.206 38.206 0 01-2.914.527 18.97 18.97 0 01.816 13.283c-.045.15-.098.298-.146.441a31.966 31.966 0 013.168-.522z" id="prefix__path155"/></g><g id="prefix__g165"><circle fill="#adadad" cx="405.155" cy="570.697" r="7.508" id="prefix__circle159"/><path fill="#919191" d="M406.505 566.279a4.625 4.625 0 013.069 5.771 4.625 4.625 0 01-5.771 3.064 4.626 4.626 0 01-3.07-5.768 4.625 4.625 0 015.772-3.067z" id="prefix__path161"/><path fill="#bababa" d="M406.252 567.104a3.762 3.762 0 012.495 4.689 3.763 3.763 0 01-4.688 2.496 3.762 3.762 0 01-2.495-4.689 3.761 3.761 0 014.688-2.496z" id="prefix__path163"/></g></g><g id="prefix__tape_1_"><path fill="#e5b486" d="M418.002 529.624c-22.273-6.801-45.842 5.74-52.645 28.013-6.806 22.272 5.738 45.842 28.011 52.645 22.271 6.803 45.842-5.737 52.646-28.011 6.802-22.273-5.741-45.842-28.012-52.647zm-5.906 19.334c11.574 3.538 18.117 15.831 14.582 27.408-3.536 11.572-15.829 18.116-27.406 14.581-11.574-3.537-18.113-15.83-14.578-27.406 3.533-11.576 15.828-18.116 27.402-14.583z" id="prefix__path169"/><g id="prefix__g175"><path fill="#bababa" d="M412.096 548.958c-11.576-3.536-23.869 3.008-27.402 14.583-3.535 11.576 3.004 23.869 14.578 27.406 11.576 3.535 23.87-3.009 27.406-14.581 3.535-11.577-3.008-23.871-14.582-27.408zm-.844 2.765c10.052 3.067 15.733 13.744 12.663 23.797-3.069 10.051-13.747 15.731-23.799 12.663-10.052-3.071-15.731-13.746-12.662-23.797 3.071-10.053 13.747-15.734 23.798-12.663z" id="prefix__path171"/><path fill="#878787" d="M426.678 576.365c-3.536 11.573-15.829 18.115-27.406 14.581-11.574-3.538-18.113-15.83-14.578-27.406 3.533-11.575 15.829-18.119 27.402-14.583 11.575 3.538 18.117 15.832 14.582 27.408m-39.224-11.98c-3.069 10.051 2.61 20.726 12.662 23.797 10.052 3.068 20.729-2.612 23.799-12.664 3.07-10.051-2.611-20.728-12.663-23.795-10.051-3.071-20.727 2.61-23.798 12.662m40.052 12.232c3.673-12.031-3.125-24.811-15.156-28.483-12.033-3.677-24.813 3.122-28.486 15.155-3.676 12.034 3.123 24.813 15.155 28.488 12.032 3.672 24.811-3.129 28.487-15.16zm-39.223-11.979c2.93-9.593 13.118-15.017 22.717-12.083 9.593 2.93 15.016 13.119 12.086 22.716-2.93 9.597-13.123 15.017-22.717 12.087-9.595-2.933-15.017-13.125-12.086-22.72z" id="prefix__path173"/></g></g></g></g><path id="prefix__arm_2_" fill="#986844" d="M260.891 459.087c-44.305 21.708-51.756 68.231-42.797 93.142 3.224 8.962 54.855 39.102 127.789 76.03 17.383-34.335 10.507-100.829 10.507-100.829s-27.332-101.746-95.499-68.343z"/><path fill="#895d3d" d="M218.094 552.23c3.224 8.962 54.855 39.102 127.789 76.028-34.834-49.85-125.657-124.414-126.016-124.71-6.626 17.748-6.33 36.01-1.773 48.682z" id="prefix__path183"/></g></g></g></svg>