<?xml version="1.0" encoding="UTF-8" standalone="no"?>
<svg
   xmlns:dc="http://purl.org/dc/elements/1.1/"
   xmlns:cc="http://creativecommons.org/ns#"
   xmlns:rdf="http://www.w3.org/1999/02/22-rdf-syntax-ns#"
   xmlns:svg="http://www.w3.org/2000/svg"
   xmlns="http://www.w3.org/2000/svg"
   xmlns:sodipodi="http://sodipodi.sourceforge.net/DTD/sodipodi-0.dtd"
   xmlns:inkscape="http://www.inkscape.org/namespaces/inkscape"
   width="512"
   height="512"
   version="1.1"
   id="svg4495"
   sodipodi:docname="sefareshi.svg"
   inkscape:version="1.0 (4035a4f, 2020-05-01)">
  <metadata
     id="metadata4501">
    <rdf:RDF>
      <cc:Work
         rdf:about="">
        <dc:format>image/svg+xml</dc:format>
        <dc:type
           rdf:resource="http://purl.org/dc/dcmitype/StillImage" />
      </cc:Work>
    </rdf:RDF>
  </metadata>
  <defs
     id="defs4499" />
  <sodipodi:namedview
     inkscape:document-rotation="0"
     pagecolor="#ffffff"
     bordercolor="#666666"
     borderopacity="1"
     objecttolerance="10"
     gridtolerance="10"
     guidetolerance="10"
     inkscape:pageopacity="0"
     inkscape:pageshadow="2"
     inkscape:window-width="1366"
     inkscape:window-height="723"
     id="namedview4497"
     showgrid="false"
     inkscape:zoom="0.53128618"
     inkscape:cx="-102.43721"
     inkscape:cy="207.65592"
     inkscape:window-x="0"
     inkscape:window-y="23"
     inkscape:window-maximized="0"
     inkscape:current-layer="svg_275" />
  <!-- Created with Method Draw - http://github.com/duopixel/Method-Draw/ -->
  <g
     id="g4453">
    <title
       id="title4447">background</title>
    <rect
       fill="none"
       id="canvas_background"
       height="514"
       width="514"
       y="-1"
       x="-1" />
    <g
       display="none"
       overflow="visible"
       y="0"
       x="0"
       height="100%"
       width="100%"
       id="canvasGrid">
      <rect
         fill="url(#gridpattern)"
         stroke-width="0"
         y="0"
         x="0"
         height="100%"
         width="100%"
         id="rect4450" />
    </g>
  </g>
  <g
     id="g4493">
    <title
       id="title4455">Layer 1</title>
    <!-- Generator: Sketch 51.3 (57544) - http://www.bohemiancoding.com/sketch -->
    <desc
       transform="matrix(8.65847529551047,0,0,8.65847529551047,0,0) "
       id="desc4457">Created with Sketch.</desc>
    <!-- Created with Method Draw - http://github.com/duopixel/Method-Draw/ -->
    <g
       stroke="null"
       id="svg_275">
      <path
         stroke="null"
         id="svg_242"
         fill="#74757B"
         d="m448.05269,193.383068c-1.921568,-4.225284 -6.902281,-6.094651 -11.12855,-4.173083l-118.391656,53.814747l51.352461,-39.501969c3.678656,-2.830644 4.367111,-8.105847 1.537452,-11.785488s-8.105847,-4.368096 -11.785488,-1.537452l-104.136988,80.104087l-104.136003,-80.104087c-3.677671,-2.831629 -8.955828,-2.142189 -11.785488,1.537452c-2.830644,3.678656 -2.142189,8.954843 1.537452,11.785488l51.352461,39.501969l-118.391656,-53.814747c-4.225284,-1.920583 -9.208951,-0.0522 -11.12855,4.173083c-1.921568,4.225284 -0.0522,9.207966 4.173083,11.12855l184.900968,84.045715c0.238349,0.108341 0.482608,0.199938 0.726867,0.28464c0.033487,0.011819 0.065004,0.027578 0.098491,0.038412c0.380177,0.126069 0.769218,0.216681 1.160229,0.28661c0.098491,0.017728 0.195998,0.032502 0.295474,0.047276c0.396921,0.057125 0.796796,0.096522 1.196671,0.096522s0.799751,-0.038412 1.196671,-0.096522c0.098491,-0.014774 0.197968,-0.029547 0.295474,-0.047276c0.391011,-0.069929 0.779067,-0.160541 1.160229,-0.28661c0.033487,-0.010834 0.065004,-0.027578 0.098491,-0.038412c0.245244,-0.084703 0.488518,-0.1763 0.726867,-0.28464l184.900968,-84.045715c4.226268,-1.919599 6.093666,-6.902281 4.174068,-11.12855z" />
      <path
         style="fill:#80c904;fill-opacity:1"
         stroke="null"
         id="svg_243"
         fill="#74DBC9"
         d="m255.499921,3.555557c-106.589425,0 -193.306229,86.716804 -193.306229,193.306229c0,4.641902 3.763359,8.404276 8.404276,8.404276l75.641439,0l33.618089,-8.404276l33.618089,8.404276l84.045715,0l33.618089,-8.404276l33.618089,8.404276l75.641439,0c4.641902,0 8.404276,-3.763359 8.404276,-8.404276c0.00197,-106.589425 -86.713849,-193.306229 -193.303274,-193.306229z" />
      <path
         style="fill:#44aa00"
         stroke="null"
         id="svg_244"
         fill="#6AC8B7"
         d="m87.407505,196.861786c0,-102.353308 79.964229,-186.365536 180.699322,-192.883701c-4.170128,-0.269867 -8.369804,-0.422528 -12.606907,-0.422528c-106.589425,0 -193.306229,86.716804 -193.306229,193.306229c0,4.641902 3.763359,8.404276 8.404276,8.404276l25.213813,0c-4.640917,0 -8.404276,-3.763359 -8.404276,-8.404276z" />
      <path
         stroke="null"
         id="svg_245"
         fill="#EBEBEC"
         d="m255.499921,3.555557c-64.880263,0 -117.66479,86.716804 -117.66479,193.306229c0,4.641902 2.289926,8.404276 5.116631,8.404276l225.096317,0c2.824735,0 5.116631,-3.763359 5.116631,-8.404276c-0.000985,-106.589425 -52.784527,-193.306229 -117.66479,-193.306229z" />
      <path
         style="fill:#80c904;fill-opacity:1"
         stroke="null"
         id="svg_246"
         fill="#74DBC9"
         d="m255.499921,3.555557c-23.1711,0 -42.02335,86.716804 -42.02335,193.306229c0,4.641902 0.818464,8.404276 1.827017,8.404276l80.391682,0c1.009537,0 1.827017,-3.763359 1.827017,-8.404276c0,-106.589425 -18.851265,-193.306229 -42.022365,-193.306229z" />
      <path
         stroke="null"
         id="svg_247"
         fill="#FDDD85"
         d="m389.973262,272.503226l-268.947668,0c-4.641902,0 -8.404276,3.763359 -8.404276,8.404276l0,218.520042c0,4.641902 3.763359,8.404276 8.404276,8.404276l268.947668,0c4.641902,0 8.404276,-3.763359 8.404276,-8.404276l0,-218.520042c0,-4.641902 -3.762374,-8.404276 -8.404276,-8.404276z"
         style="fill:#9a4121;fill-opacity:1" />
      <path
         stroke="null"
         id="svg_248"
         fill="#FDD042"
         d="m137.835131,499.427544l0,-218.520042c0,-4.641902 3.763359,-8.404276 8.404276,-8.404276l-25.213813,0c-4.641902,0 -8.404276,3.763359 -8.404276,8.404276l0,218.520042c0,4.641902 3.763359,8.404276 8.404276,8.404276l25.213813,0c-4.640917,0 -8.404276,-3.763359 -8.404276,-8.404276z"
         style="fill:#7e3a1a;fill-opacity:1" />
      <path
         stroke="null"
         id="svg_249"
         fill="#F2C127"
         d="m289.11801,272.503226l-67.237163,0l0,75.392256c0,6.617641 7.389814,11.029073 13.066862,7.242077l20.552212,-13.701147l20.552212,13.701147c2.614948,1.744284 6.140942,1.858534 8.861276,0.285625c2.672073,-1.544346 4.2046,-4.572958 4.2046,-7.621269l0,-75.298689z"
         style="fill:#ffc431;fill-opacity:1" />
      <path
         stroke="null"
         id="svg_250"
         fill="#E1A527"
         d="m238.690383,347.895481l0,-75.392256l-16.809537,0l0,75.392256c0,6.617641 7.389814,11.029073 13.066862,7.242077l4.732515,-3.154681c-0.634285,-1.245917 -0.989839,-2.642526 -0.989839,-4.087395z"
         style="fill:#fcb431;fill-opacity:1" />
      <g
         stroke="null"
         transform="matrix(0.9849145750672764,0,0,0.9849145750672764,-168.44243536839681,-136.59423236820422) "
         id="svg_260" />
      <g
         stroke="null"
         transform="matrix(0.9849145750672764,0,0,0.9849145750672764,-168.44243536839681,-136.59423236820422) "
         id="svg_261" />
      <g
         stroke="null"
         transform="matrix(0.9849145750672764,0,0,0.9849145750672764,-168.44243536839681,-136.59423236820422) "
         id="svg_262" />
      <g
         stroke="null"
         transform="matrix(0.9849145750672764,0,0,0.9849145750672764,-168.44243536839681,-136.59423236820422) "
         id="svg_263" />
      <g
         stroke="null"
         transform="matrix(0.9849145750672764,0,0,0.9849145750672764,-168.44243536839681,-136.59423236820422) "
         id="svg_264" />
      <g
         stroke="null"
         transform="matrix(0.9849145750672764,0,0,0.9849145750672764,-168.44243536839681,-136.59423236820422) "
         id="svg_265" />
      <g
         stroke="null"
         transform="matrix(0.9849145750672764,0,0,0.9849145750672764,-168.44243536839681,-136.59423236820422) "
         id="svg_266" />
      <g
         stroke="null"
         transform="matrix(0.9849145750672764,0,0,0.9849145750672764,-168.44243536839681,-136.59423236820422) "
         id="svg_267" />
      <g
         stroke="null"
         transform="matrix(0.9849145750672764,0,0,0.9849145750672764,-168.44243536839681,-136.59423236820422) "
         id="svg_268" />
      <g
         stroke="null"
         transform="matrix(0.9849145750672764,0,0,0.9849145750672764,-168.44243536839681,-136.59423236820422) "
         id="svg_269" />
      <g
         stroke="null"
         transform="matrix(0.9849145750672764,0,0,0.9849145750672764,-168.44243536839681,-136.59423236820422) "
         id="svg_270" />
      <g
         stroke="null"
         transform="matrix(0.9849145750672764,0,0,0.9849145750672764,-168.44243536839681,-136.59423236820422) "
         id="svg_271" />
      <g
         stroke="null"
         transform="matrix(0.9849145750672764,0,0,0.9849145750672764,-168.44243536839681,-136.59423236820422) "
         id="svg_272" />
      <g
         stroke="null"
         transform="matrix(0.9849145750672764,0,0,0.9849145750672764,-168.44243536839681,-136.59423236820422) "
         id="svg_273" />
      <g
         stroke="null"
         transform="matrix(0.9849145750672764,0,0,0.9849145750672764,-168.44243536839681,-136.59423236820422) "
         id="svg_274" />
      <path
         style="clip-rule:evenodd;fill:#f4e8d7;fill-opacity:1;fill-rule:evenodd;stroke:none;stroke-width:0.528287px;stroke-linecap:butt;stroke-linejoin:miter;stroke-opacity:1;image-rendering:optimizeQuality;shape-rendering:geometricPrecision;text-rendering:geometricPrecision"
         d="m 278.04284,382.52903 c -5.05661,-5.9216 27.02025,-25.63672 37.91673,-25.81259 10.89649,-0.17587 35.7292,82.83579 7.91762,88.54971 -11.92599,2.4502 -75.88893,6.55218 -124.00371,-0.68164 -10.05634,-1.51191 -10.54402,-25.73673 -4.39033,-34.99152 8.26368,-12.42806 27.10968,-8.7396 39.85341,-4.08089 28.46255,10.40498 47.1511,18.60661 54.76352,6.98851 5.93771,-9.06215 -7.00063,-24.04996 -12.05724,-29.97158 z"
         id="path973-0"
         sodipodi:nodetypes="zzssassz" />
      <ellipse
         style="clip-rule:evenodd;fill:#f4e8d7;fill-opacity:1;fill-rule:evenodd;stroke:none;stroke-width:76.6034;stroke-linecap:round;stroke-linejoin:round;image-rendering:optimizeQuality;shape-rendering:geometricPrecision;text-rendering:geometricPrecision"
         id="path1798-3"
         cx="274.44672"
         cy="479.24429"
         rx="21.38833"
         ry="20.719948" />
    </g>
  </g>
</svg>
