<?xml version="1.0" encoding="UTF-8" standalone="no"?>
<svg
   xmlns:dc="http://purl.org/dc/elements/1.1/"
   xmlns:cc="http://creativecommons.org/ns#"
   xmlns:rdf="http://www.w3.org/1999/02/22-rdf-syntax-ns#"
   xmlns:svg="http://www.w3.org/2000/svg"
   xmlns="http://www.w3.org/2000/svg"
   xmlns:sodipodi="http://sodipodi.sourceforge.net/DTD/sodipodi-0.dtd"
   xmlns:inkscape="http://www.inkscape.org/namespaces/inkscape"
   inkscape:version="1.0 (4035a4f, 2020-05-01)"
   sodipodi:docname="sefareshi.svg"
   id="svg4495"
   version="1.1"
   height="512"
   width="512">
  <metadata
     id="metadata4501">
    <rdf:RDF>
      <cc:Work
         rdf:about="">
        <dc:format>image/svg+xml</dc:format>
        <dc:type
           rdf:resource="http://purl.org/dc/dcmitype/StillImage" />
        <dc:title></dc:title>
      </cc:Work>
    </rdf:RDF>
  </metadata>
  <defs
     id="defs4499" />
  <sodipodi:namedview
     inkscape:current-layer="svg_275"
     inkscape:window-maximized="0"
     inkscape:window-y="0"
     inkscape:window-x="0"
     inkscape:cy="390.52688"
     inkscape:cx="240.4072"
     inkscape:zoom="0.47216536"
     showgrid="false"
     id="namedview4497"
     inkscape:window-height="768"
     inkscape:window-width="1366"
     inkscape:pageshadow="2"
     inkscape:pageopacity="0"
     guidetolerance="10"
     gridtolerance="10"
     objecttolerance="10"
     borderopacity="1"
     bordercolor="#666666"
     pagecolor="#ffffff"
     inkscape:document-rotation="0" />
  <!-- Created with Method Draw - http://github.com/duopixel/Method-Draw/ -->
  <g
     id="g4453">
    <title
       id="title4447">background</title>
    <rect
       x="-1"
       y="-1"
       width="514"
       height="514"
       id="canvas_background"
       fill="none" />
    <g
       id="canvasGrid"
       width="100%"
       height="100%"
       x="0"
       y="0"
       overflow="visible"
       display="none">
      <rect
         id="rect4450"
         width="100%"
         height="100%"
         x="0"
         y="0"
         stroke-width="0"
         fill="url(#gridpattern)" />
    </g>
  </g>
  <g
     id="g4493">
    <title
       id="title4455">Layer 1</title>
    <!-- Generator: Sketch 51.3 (57544) - http://www.bohemiancoding.com/sketch -->
    <desc
       id="desc4457"
       transform="matrix(8.65847529551047,0,0,8.65847529551047,0,0) ">Created with Sketch.</desc>
    <!-- Created with Method Draw - http://github.com/duopixel/Method-Draw/ -->
    <g
       id="svg_275"
       stroke="null">
      <path
         d="m448.05269,193.383068c-1.921568,-4.225284 -6.902281,-6.094651 -11.12855,-4.173083l-118.391656,53.814747l51.352461,-39.501969c3.678656,-2.830644 4.367111,-8.105847 1.537452,-11.785488s-8.105847,-4.368096 -11.785488,-1.537452l-104.136988,80.104087l-104.136003,-80.104087c-3.677671,-2.831629 -8.955828,-2.142189 -11.785488,1.537452c-2.830644,3.678656 -2.142189,8.954843 1.537452,11.785488l51.352461,39.501969l-118.391656,-53.814747c-4.225284,-1.920583 -9.208951,-0.0522 -11.12855,4.173083c-1.921568,4.225284 -0.0522,9.207966 4.173083,11.12855l184.900968,84.045715c0.238349,0.108341 0.482608,0.199938 0.726867,0.28464c0.033487,0.011819 0.065004,0.027578 0.098491,0.038412c0.380177,0.126069 0.769218,0.216681 1.160229,0.28661c0.098491,0.017728 0.195998,0.032502 0.295474,0.047276c0.396921,0.057125 0.796796,0.096522 1.196671,0.096522s0.799751,-0.038412 1.196671,-0.096522c0.098491,-0.014774 0.197968,-0.029547 0.295474,-0.047276c0.391011,-0.069929 0.779067,-0.160541 1.160229,-0.28661c0.033487,-0.010834 0.065004,-0.027578 0.098491,-0.038412c0.245244,-0.084703 0.488518,-0.1763 0.726867,-0.28464l184.900968,-84.045715c4.226268,-1.919599 6.093666,-6.902281 4.174068,-11.12855z"
         fill="#74757B"
         id="svg_242"
         stroke="null" />
      <path
         d="m255.499921,3.555557c-106.589425,0 -193.306229,86.716804 -193.306229,193.306229c0,4.641902 3.763359,8.404276 8.404276,8.404276l75.641439,0l33.618089,-8.404276l33.618089,8.404276l84.045715,0l33.618089,-8.404276l33.618089,8.404276l75.641439,0c4.641902,0 8.404276,-3.763359 8.404276,-8.404276c0.00197,-106.589425 -86.713849,-193.306229 -193.303274,-193.306229z"
         fill="#74DBC9"
         id="svg_243"
         stroke="null"
         style="fill:#035000;fill-opacity:1" />
      <path
         d="m87.407505,196.861786c0,-102.353308 79.964229,-186.365536 180.699322,-192.883701c-4.170128,-0.269867 -8.369804,-0.422528 -12.606907,-0.422528c-106.589425,0 -193.306229,86.716804 -193.306229,193.306229c0,4.641902 3.763359,8.404276 8.404276,8.404276l25.213813,0c-4.640917,0 -8.404276,-3.763359 -8.404276,-8.404276z"
         fill="#6AC8B7"
         id="svg_244"
         stroke="null"
         style="fill:#023800;fill-opacity:1" />
      <path
         d="m255.499921,3.555557c-64.880263,0 -117.66479,86.716804 -117.66479,193.306229c0,4.641902 2.289926,8.404276 5.116631,8.404276l225.096317,0c2.824735,0 5.116631,-3.763359 5.116631,-8.404276c-0.000985,-106.589425 -52.784527,-193.306229 -117.66479,-193.306229z"
         fill="#EBEBEC"
         id="svg_245"
         stroke="null" />
      <path
         d="m255.499921,3.555557c-23.1711,0 -42.02335,86.716804 -42.02335,193.306229c0,4.641902 0.818464,8.404276 1.827017,8.404276l80.391682,0c1.009537,0 1.827017,-3.763359 1.827017,-8.404276c0,-106.589425 -18.851265,-193.306229 -42.022365,-193.306229z"
         fill="#74DBC9"
         id="svg_246"
         stroke="null"
         style="fill:#035000;fill-opacity:1" />
      <path
         style="fill:#cba677;fill-opacity:1"
         d="m389.973262,272.503226l-268.947668,0c-4.641902,0 -8.404276,3.763359 -8.404276,8.404276l0,218.520042c0,4.641902 3.763359,8.404276 8.404276,8.404276l268.947668,0c4.641902,0 8.404276,-3.763359 8.404276,-8.404276l0,-218.520042c0,-4.641902 -3.762374,-8.404276 -8.404276,-8.404276z"
         fill="#FDDD85"
         id="svg_247"
         stroke="null" />
      <path
         style="fill:#c1955d;fill-opacity:1"
         d="m137.835131,499.427544l0,-218.520042c0,-4.641902 3.763359,-8.404276 8.404276,-8.404276l-25.213813,0c-4.641902,0 -8.404276,3.763359 -8.404276,8.404276l0,218.520042c0,4.641902 3.763359,8.404276 8.404276,8.404276l25.213813,0c-4.640917,0 -8.404276,-3.763359 -8.404276,-8.404276z"
         fill="#FDD042"
         id="svg_248"
         stroke="null" />
      <path
         sodipodi:nodetypes="ccsccccsc"
         style="fill:#ffc431;fill-opacity:1"
         d="m 289.11801,272.50323 h -67.23716 l 0,60.65489 c 0,6.61764 7.38981,11.02908 13.06686,7.24208 l 20.55221,-13.70115 20.55221,13.70115 c 2.61495,1.74428 6.14094,1.85853 8.86128,0.28562 2.67207,-1.54434 4.2046,-4.57295 4.2046,-7.62126 z"
         fill="#F2C127"
         id="svg_249"
         stroke="null" />
      <path
         sodipodi:nodetypes="sccsccs"
         style="fill:#fcb431;fill-opacity:1"
         d="m 238.69038,333.21424 v -60.71101 h -16.80953 v 60.71101 c 0,6.61764 7.38981,11.02908 13.06686,7.24208 l 4.73251,-3.15468 c -0.63428,-1.24592 -0.98984,-2.86339 -0.98984,-4.0874 z"
         fill="#E1A527"
         id="svg_250"
         stroke="null" />
      <g
         id="svg_260"
         transform="matrix(0.9849145750672764,0,0,0.9849145750672764,-168.44243536839681,-136.59423236820422) "
         stroke="null" />
      <g
         id="svg_261"
         transform="matrix(0.9849145750672764,0,0,0.9849145750672764,-168.44243536839681,-136.59423236820422) "
         stroke="null" />
      <g
         id="svg_262"
         transform="matrix(0.9849145750672764,0,0,0.9849145750672764,-168.44243536839681,-136.59423236820422) "
         stroke="null" />
      <g
         id="svg_263"
         transform="matrix(0.9849145750672764,0,0,0.9849145750672764,-168.44243536839681,-136.59423236820422) "
         stroke="null" />
      <g
         id="svg_264"
         transform="matrix(0.9849145750672764,0,0,0.9849145750672764,-168.44243536839681,-136.59423236820422) "
         stroke="null" />
      <g
         id="svg_265"
         transform="matrix(0.9849145750672764,0,0,0.9849145750672764,-168.44243536839681,-136.59423236820422) "
         stroke="null" />
      <g
         id="svg_266"
         transform="matrix(0.9849145750672764,0,0,0.9849145750672764,-168.44243536839681,-136.59423236820422) "
         stroke="null" />
      <g
         id="svg_267"
         transform="matrix(0.9849145750672764,0,0,0.9849145750672764,-168.44243536839681,-136.59423236820422) "
         stroke="null" />
      <g
         id="svg_268"
         transform="matrix(0.9849145750672764,0,0,0.9849145750672764,-168.44243536839681,-136.59423236820422) "
         stroke="null" />
      <g
         id="svg_269"
         transform="matrix(0.9849145750672764,0,0,0.9849145750672764,-168.44243536839681,-136.59423236820422) "
         stroke="null" />
      <g
         id="svg_270"
         transform="matrix(0.9849145750672764,0,0,0.9849145750672764,-168.44243536839681,-136.59423236820422) "
         stroke="null" />
      <g
         id="svg_271"
         transform="matrix(0.9849145750672764,0,0,0.9849145750672764,-168.44243536839681,-136.59423236820422) "
         stroke="null" />
      <g
         id="svg_272"
         transform="matrix(0.9849145750672764,0,0,0.9849145750672764,-168.44243536839681,-136.59423236820422) "
         stroke="null" />
      <g
         id="svg_273"
         transform="matrix(0.9849145750672764,0,0,0.9849145750672764,-168.44243536839681,-136.59423236820422) "
         stroke="null" />
      <g
         id="svg_274"
         transform="matrix(0.9849145750672764,0,0,0.9849145750672764,-168.44243536839681,-136.59423236820422) "
         stroke="null" />
      <path
         id="path11271"
         style="fill:none;fill-opacity:1;stroke:#035000;stroke-width:9.38458;stroke-miterlimit:4;stroke-dasharray:none;stroke-opacity:1"
         d="m 252.55557,357.81169 c 27.12807,-0.23004 55.58928,13.65546 67.47318,38.9157 9.71151,19.8235 4.8014,44.85848 -10.45884,60.50124 -4.3503,3.28734 -7.82466,7.83789 -6.8211,13.54033 -0.23085,4.89236 0.4862,9.92067 -0.40478,14.7197 -5.79591,5.03519 -13.30875,-3.68901 -19.67377,-5.0042 -6.51868,-4.4701 -13.84371,-0.84752 -20.84762,-0.26274 -28.54144,3.37086 -60.09338,-8.89848 -74.78023,-34.4625 -11.12545,-18.84083 -8.68918,-44.14934 5.34415,-60.85383 14.33858,-17.9379 37.53175,-27.16442 60.16901,-27.0937 z" />
      <g
         id="g11279"
         transform="matrix(1.1492674,0,0,1.1492674,-90.153596,326.08196)">
        <g
           style="font-style:normal;font-variant:normal;font-weight:normal;font-stretch:normal;font-size:35.2511px;line-height:1.45;font-family:Aviny;-inkscape-font-specification:Aviny;text-align:end;text-anchor:end;white-space:pre;shape-inside:url(#rect3271);fill:#035000;fill-opacity:1;stroke:#035000;stroke-width:0.425717;stroke-miterlimit:4;stroke-dasharray:none;stroke-opacity:1"
           id="g11275"
           transform="matrix(2.6001613,0,0,2.6001613,9046.603,-3001.8834)"
           aria-label="пе"
           inkscape:export-xdpi="91.790001"
           inkscape:export-ydpi="91.790001">
          <path
             d="m -3349.2946,1180.9828 c 0.4071,3.1453 -1.4939,6.1785 -4.1099,7.7976 -4.1083,2.7756 -9.2568,3.3485 -14.0975,3.1924 -4.2287,-0.2299 -8.7035,-1.5956 -11.5241,-4.9229 -1.5656,-1.8972 -1.9308,-4.7815 -0.5234,-6.8688 1.8649,-2.8974 5.3879,-3.9804 8.6029,-4.5352 2.806,-0.4702 5.7391,-0.4354 8.4696,0.4222 0.8829,1.201 -1.6956,1.1788 -2.4838,1.2608 -3.6275,0.3927 -7.5363,0.6461 -10.5839,2.8799 -1.4265,1.0153 -1.6883,3.1803 -0.3319,4.3747 2.0672,2.3021 5.3586,2.6569 8.2657,2.9018 4.1678,0.2862 8.527,-0.1002 12.3093,-1.9894 1.5201,-0.8492 2.7558,-2.4729 2.5731,-4.2876 0.1226,-1.232 1.6798,-2.5128 2.8189,-1.6203 0.4019,0.348 0.5359,0.8917 0.615,1.3948 z"
             style="font-style:normal;font-variant:normal;font-weight:normal;font-stretch:normal;font-size:35.2511px;font-family:Aviny;-inkscape-font-specification:Aviny;fill:#035000;fill-opacity:1;stroke:#035000;stroke-width:0.549587;stroke-miterlimit:4;stroke-dasharray:none;stroke-opacity:1"
             id="path11273" />
        </g>
        <path
           id="path11277"
           style="fill:#035000;fill-opacity:1;stroke:none;stroke-width:1.99257;stroke-linecap:round;stroke-linejoin:round;stroke-miterlimit:4;stroke-dasharray:none;stroke-opacity:1;paint-order:markers fill stroke"
           d="m 306.12885,110.25678 a 9.413273,9.413273 0 0 1 -9.40789,9.41421 9.413273,9.413273 0 0 1 -9.42365,-9.41421 9.413273,9.413273 0 0 1 9.42365,-9.41263 9.413273,9.413273 0 0 1 9.40789,9.41263 z"
           inkscape:export-xdpi="91.790001"
           inkscape:export-ydpi="91.790001" />
      </g>
    </g>
  </g>
</svg>
