<svg width="128" height="128" version="1.1" xmlns="http://www.w3.org/2000/svg"><g transform="matrix(.254 0 0 .254 -1.55 -.867)"><title>Layer 1</title><desc transform="scale(8.66)">Created with Sketch.</desc><g stroke="null"><g stroke="null"><path d="m448 193c-1.92-4.23-6.9-6.09-11.1-4.17l-118 53.8 51.4-39.5c3.68-2.83 4.37-8.11 1.54-11.8-2.83-3.68-8.11-4.37-11.8-1.54l-104 80.1-104-80.1c-3.68-2.83-8.96-2.14-11.8 1.54-2.83 3.68-2.14 8.95 1.54 11.8l51.4 39.5-118-53.8c-4.23-1.92-9.21-0.0522-11.1 4.17-1.92 4.23-0.0522 9.21 4.17 11.1l185 84c0.238 0.108 0.483 0.2 0.727 0.285 0.0335 0.0118 0.065 0.0276 0.0985 0.0384 0.38 0.126 0.769 0.217 1.16 0.287 0.0985 0.0177 0.196 0.0325 0.295 0.0473 0.397 0.0571 0.797 0.0965 1.2 0.0965 0.4 0 0.8-0.0384 1.2-0.0965 0.0985-0.0148 0.198-0.0295 0.295-0.0473 0.391-0.0699 0.779-0.161 1.16-0.287 0.0335-0.0108 0.065-0.0276 0.0985-0.0384 0.245-0.0847 0.489-0.176 0.727-0.285l185-84c4.23-1.92 6.09-6.9 4.17-11.1z" fill="#74757b"/><path d="m255 3.56c-107 0-193 86.7-193 193 0 4.64 3.76 8.4 8.4 8.4h75.6l33.6-8.4 33.6 8.4h84l33.6-8.4 33.6 8.4h75.6c4.64 0 8.4-3.76 8.4-8.4 0.00197-107-86.7-193-193-193z" fill="#74DBC9" style="fill:#035000"/><path d="m87.4 197c0-102 80-186 181-193-4.17-0.27-8.37-0.423-12.6-0.423-107 0-193 86.7-193 193 0 4.64 3.76 8.4 8.4 8.4h25.2c-4.64 0-8.4-3.76-8.4-8.4z" fill="#6AC8B7" style="fill:#023800"/><path d="m255 3.56c-64.9 0-118 86.7-118 193 0 4.64 2.29 8.4 5.12 8.4h225c2.82 0 5.12-3.76 5.12-8.4-9.9e-4 -107-52.8-193-118-193z" fill="#ebebec"/><path d="m255 3.56c-23.2 0-42 86.7-42 193 0 4.64 0.818 8.4 1.83 8.4h80.4c1.01 0 1.83-3.76 1.83-8.4 0-107-18.9-193-42-193z" fill="#74DBC9" style="fill:#035000"/><path d="m390 273h-269c-4.64 0-8.4 3.76-8.4 8.4v219c0 4.64 3.76 8.4 8.4 8.4h269c4.64 0 8.4-3.76 8.4-8.4v-219c0-4.64-3.76-8.4-8.4-8.4z" fill="#FDDD85" style="fill:#cba677"/><path d="m138 499v-219c0-4.64 3.76-8.4 8.4-8.4h-25.2c-4.64 0-8.4 3.76-8.4 8.4v219c0 4.64 3.76 8.4 8.4 8.4h25.2c-4.64 0-8.4-3.76-8.4-8.4z" fill="#FDD042" style="fill:#c1955d"/><path d="m289 273h-67.2v60.7c0 6.62 7.39 11 13.1 7.24l20.6-13.7 20.6 13.7c2.61 1.74 6.14 1.86 8.86 0.286 2.67-1.54 4.2-4.57 4.2-7.62z" fill="#F2C127" style="fill:#ffc431"/><path d="m239 333v-60.7h-16.8v60.7c0 6.62 7.39 11 13.1 7.24l4.73-3.15c-0.634-1.25-0.99-2.86-0.99-4.09z" fill="#E1A527" style="fill:#fcb431"/></g><path d="m253 358c27.1-0.23 55.6 13.7 67.5 38.9 9.71 19.8 4.8 44.9-10.5 60.5-4.35 3.29-7.82 7.84-6.82 13.5-0.231 4.89 0.486 9.92-0.405 14.7-5.8 5.04-13.3-3.69-19.7-5-6.52-4.47-13.8-0.848-20.8-0.263-28.5 3.37-60.1-8.9-74.8-34.5-11.1-18.8-8.69-44.1 5.34-60.9 14.3-17.9 37.5-27.2 60.2-27.1z" style="fill:none;stroke-width:9.38;stroke:#035000"/><g transform="matrix(1.15 0 0 1.15 -90.2 326)"><g transform="matrix(2.6 0 0 2.6 9047 -3e3)" style="fill:#035000;shape-inside:url(#rect3271);stroke-width:.426;stroke:#035000;white-space:pre" aria-label="пе"><path d="m-3349 1181c0.407 3.15-1.49 6.18-4.11 7.8-4.11 2.78-9.26 3.35-14.1 3.19-4.23-0.23-8.7-1.6-11.5-4.92-1.57-1.9-1.93-4.78-0.523-6.87 1.86-2.9 5.39-3.98 8.6-4.54 2.81-0.47 5.74-0.435 8.47 0.422 0.883 1.2-1.7 1.18-2.48 1.26-3.63 0.393-7.54 0.646-10.6 2.88-1.43 1.02-1.69 3.18-0.332 4.37 2.07 2.3 5.36 2.66 8.27 2.9 4.17 0.286 8.53-0.1 12.3-1.99 1.52-0.849 2.76-2.47 2.57-4.29 0.123-1.23 1.68-2.51 2.82-1.62 0.402 0.348 0.536 0.892 0.615 1.39z" style="fill:#035000;stroke-width:.55;stroke:#035000"/></g><path d="m306 110a9.41 9.41 0 0 1-9.41 9.41 9.41 9.41 0 0 1-9.42-9.41 9.41 9.41 0 0 1 9.42-9.41 9.41 9.41 0 0 1 9.41 9.41z" style="fill:#035000;paint-order:markers fill stroke;stroke:none"/></g></g></g></svg>