<svg width="512" height="512" version="1.1" xmlns="http://www.w3.org/2000/svg"><g><title>Layer 1</title><g transform="matrix(.891 0 0 .891 31.7 55.7)"><title>background</title><rect id="canvas_background" x="-1" y="-1" width="514" height="514" fill="none"/></g><path d="m319 381h-119c-88 23.7-169 37-169 132h456c0-94.9-81-108-169-132z" fill="#80c904" style="fill:#035000;stroke-width:.891"/><path d="m137 286h-56.8v-75.7h56.8c0 6.97 9.47 21 9.47 35.4 0 15.7-9.47 32-9.47 40.3z" fill="#fcb431" style="stroke-width:.891"/><path d="m134 254v-128l127-0.204v247c-70.8-8.7e-4 -127-54.3-127-119z" fill="#ffe1b2" stroke="null" style="stroke-width:.891"/><path d="m383 210c0 10.9-9.47 23.5-9.47 35.4 0 9.04 3.52 14.4 6.27 19v21.2h60v-75.7h-56.8z" fill="#fcb431" style="stroke-width:.891"/><path d="m383 254v-128l-123-0.204v247c68.8-8.7e-4 123-54.2 123-119z" fill="#fcd399" stroke="null" style="fill:#ffe1b2;stroke-width:.891"/><path d="m411 251h28.4v11h-28.4z" fill="#589cfb" style="fill:#333;stroke-width:.891"/><path d="m318 393c0 32.1-26 58-58.2 58-32.1 0-58.2-26-58.2-58v-34.6c12.7 6.8 104 6.8 116 0-8.9e-4 0.466-8.9e-4 35.1-8.9e-4 34.6z" fill="#ffd7a3" style="stroke-width:.891"/><path d="m318 393v-34.6c-17.3 9.3-37.2 5.1-58.2 5.1v87.6c32.1 0 58.2-26 58.2-58z" fill="#fdc88e" style="fill:#ffd7a3;stroke-width:.891"/><path d="m411 321h-151v28.4h180v-64h-28.4v35.6z" fill="#7e3a1a" style="fill:#333;stroke-width:.891"/><path d="m202 380h-0.122c-0.374 0.101-0.745 0.201-1.12 0.3h1.24v-0.3z" fill="#60a8e5" style="stroke-width:.891"/><path d="m318 380h-0.125v0.3h1.24c-0.374-0.099-0.745-0.198-1.12-0.3z" fill="#60a8e5" style="stroke-width:.891"/><path d="m365 33.3c-37.4-35.4-78.7 0-78.7 0-18 0-15.7-31.5-15.7-31.5s-51.4-3.69-118 63l-8.77 8.77c-5.56 5.56-13.5 8.43-21.2 6.8-7.92-1.68-13.9-7.21-1.49-23.4 0 0-74.7 96.7 13 173l0.142-47.1c0-6.52 1.32-12.7 3.71-18.4 9-21.3 21.1-37.6 42.9-29.7 11.9 4.29 34 9.05 74.1 9.05s62.2-4.76 74.1-9.05c21.8-7.87 40.8 4.97 49.8 26.3 2.38 5.65 3.71 11.9 3.71 18.4v47.2c83.6-110-17.4-193-17.4-193" style="fill:#393939;stroke-width:.891"/><g transform="matrix(.891 0 0 .891 2.02 -91.3)"><g transform="matrix(3.78 0 0 3.78 -126 770)"><path d="m143-46.6c3.48-0.0295 7.13 1.75 8.66 4.99 1.25 2.54 0.616 5.76-1.34 7.76-0.558 0.422-1 1.01-0.875 1.74-0.0296 0.628 0.0624 1.27-0.052 1.89-0.744 0.646-1.71-0.473-2.52-0.642-0.837-0.574-1.78-0.109-2.68-0.0337-3.66 0.433-7.71-1.14-9.6-4.42-1.43-2.42-1.12-5.67 0.686-7.81 1.84-2.3 4.82-3.49 7.72-3.48z" style="fill:none;stroke-width:1.2;stroke:#ffc300"/><g transform="matrix(.147 0 0 .147 99.4 -50.6)"><g transform="matrix(2.6 0 0 2.6 9047 -3e3)" style="fill:#035000;shape-inside:url(#rect3271);stroke-width:.426;stroke:#035000;white-space:pre" aria-label="пе"><path d="m-3349 1181c0.407 3.15-1.49 6.18-4.11 7.8-4.11 2.78-9.26 3.35-14.1 3.19-4.23-0.23-8.7-1.6-11.5-4.92-1.57-1.9-1.93-4.78-0.523-6.87 1.86-2.9 5.39-3.98 8.6-4.54 2.81-0.47 5.74-0.435 8.47 0.422 0.883 1.2-1.7 1.18-2.48 1.26-3.63 0.393-7.54 0.646-10.6 2.88-1.43 1.02-1.69 3.18-0.332 4.37 2.07 2.3 5.36 2.66 8.27 2.9 4.17 0.286 8.53-0.1 12.3-1.99 1.52-0.849 2.76-2.47 2.57-4.29 0.123-1.23 1.68-2.51 2.82-1.62 0.402 0.348 0.536 0.892 0.615 1.39z" style="fill:#ffc300;stroke-width:.55;stroke:#ffc300"/></g><path d="m306 110a9.41 9.41 0 0 1-9.41 9.41 9.41 9.41 0 0 1-9.42-9.41 9.41 9.41 0 0 1 9.42-9.41 9.41 9.41 0 0 1 9.41 9.41z" style="fill:#ffc300;paint-order:markers fill stroke"/></g></g></g></g></svg>