<?xml version="1.0" encoding="UTF-8" standalone="no"?>
<svg
   xmlns:dc="http://purl.org/dc/elements/1.1/"
   xmlns:cc="http://creativecommons.org/ns#"
   xmlns:rdf="http://www.w3.org/1999/02/22-rdf-syntax-ns#"
   xmlns:svg="http://www.w3.org/2000/svg"
   xmlns="http://www.w3.org/2000/svg"
   xmlns:sodipodi="http://sodipodi.sourceforge.net/DTD/sodipodi-0.dtd"
   xmlns:inkscape="http://www.inkscape.org/namespaces/inkscape"
   inkscape:version="1.0 (4035a4f, 2020-05-01)"
   sodipodi:docname="support.svg"
   id="svg881"
   version="1.1"
   height="512"
   width="512">
  <metadata
     id="metadata887">
    <rdf:RDF>
      <cc:Work
         rdf:about="">
        <dc:format>image/svg+xml</dc:format>
        <dc:type
           rdf:resource="http://purl.org/dc/dcmitype/StillImage" />
      </cc:Work>
    </rdf:RDF>
  </metadata>
  <defs
     id="defs885" />
  <sodipodi:namedview
     inkscape:current-layer="svg881"
     inkscape:window-maximized="0"
     inkscape:window-y="0"
     inkscape:window-x="0"
     inkscape:cy="260.22875"
     inkscape:cx="491.51845"
     inkscape:zoom="0.85840654"
     showgrid="false"
     id="namedview883"
     inkscape:window-height="768"
     inkscape:window-width="1366"
     inkscape:pageshadow="2"
     inkscape:pageopacity="0"
     guidetolerance="10"
     gridtolerance="10"
     objecttolerance="10"
     borderopacity="1"
     bordercolor="#666666"
     pagecolor="#ffffff" />
  <g
     id="g836">
    <title
       id="title833">background</title>
    <rect
       x="-1"
       y="-1"
       width="514"
       height="514"
       id="canvas_background"
       fill="none" />
  </g>
  <g
     id="g879">
    <title
       id="title838">Layer 1</title>
    <g
       id="svg_1">
      <path
         d="m425.946,219.447349l31.88,0l0,12.319l-31.88,0l0,-12.319z"
         fill="#589cfb"
         id="svg_2" />
      <path
         d="m322.666,364.495349c-15.73,0 -118.568,0 -133.332,0c-98.75,26.631 -189.334,41.475 -189.334,147.838l512,0c0,-106.406 -90.83,-121.275 -189.334,-147.838z"
         fill="#80c904"
         id="svg_3" />
      <path
         d="m512,512.333349c0,-106.406 -90.83,-121.275 -189.334,-147.838c-7.833,0 -37.267,0 -66.668,0l0,147.838l256.002,0z"
         fill="#71b201"
         id="svg_4" />
      <path
         d="m117.909,257.829712l-63.735,0l0,-84.943l63.735,0c0,7.814 10.622,23.541 10.622,39.764c0,17.66 -10.622,35.908 -10.622,45.179z"
         fill="#fcb431"
         id="svg_5" />
      <path
         d="m321.273,377.931349c0,35.963 -29.222,65.109 -65.273,65.109c-36.054,0 -65.276,-29.146 -65.276,-65.109c0,-7.826 0,-30.426 0,-38.842c14.241,7.629 116.317,7.627 130.55,0c-0.001,0.523 -0.001,39.398 -0.001,38.842z"
         fill="#ffd7a3"
         id="svg_6" />
      <path
         d="m321.273,377.931349c0,-4.3 0,-34.224 0,-38.85c-19.46,10.428 -41.694,5.721 -65.273,5.721l0,98.238c36.052,0 65.273,-29.146 65.273,-65.109z"
         fill="#fdc88e"
         id="svg_7" />
      <path
         d="m394.092,172.886712c0,12.182 -10.623,26.348 -10.623,39.764c0,10.145 3.948,16.143 7.031,21.347l0,23.833l67.326,0c0,-15.661 0,-63.556 0,-84.943l-63.734,0l0,-0.001z"
         fill="#fcb431"
         id="svg_8" />
      <path
         d="m394.092,222.926975c0,-15.970169 0,-64.610868 0,-91.073309l-138.092,-0.228852l0,224.857536c77.197,-0.00097 138.092,-60.844511 138.092,-133.555375z"
         fill="#fcd399"
         id="svg_10"
         stroke="null" />
      <path
         d="m425.946,297.249125c-21.507,0 -153.876,0 -169.859,0l0,31.855l201.727,0l0,-71.779c-8.583,0 -26.525,0 -31.867,0l0,39.924l-0.001,0z"
         fill="#7e3a1a"
         id="svg_11" />
      <path
         d="m190.724,364.159349l-0.137,0c-0.419,0.113 -0.836,0.225 -1.253,0.336l1.39,0c0,-0.183 0,-0.316 0,-0.336z"
         fill="#60a8e5"
         id="svg_12" />
      <path
         d="m321.413,364.159349l-0.14,0l0,0.336l1.393,0c-0.419,-0.111 -0.836,-0.222 -1.253,-0.336z"
         fill="#60a8e5"
         id="svg_13" />
      <path
         d="m114.393007,222.831515c0,-15.981584 0,-64.65705 0,-91.138406l142.090129,-0.229015l0,225.018257c-79.432058,-0.00097 -142.090129,-60.888001 -142.090129,-133.650836z"
         fill="#ffe1b2"
         id="svg_168"
         stroke="null" />
    </g>
    <g
       id="svg_115"
       stroke="null">
      <path
         d="m120.899676,131.037569c0,0 36.778017,0.573326 42.982861,-69.495265c3.487515,-39.070021 32.72476,-72.05461 89.714269,-44.613585c56.989508,27.441024 46.1447,-17.096785 77.902208,-1.654239c31.787025,15.44932 17.413669,105.470316 51.060209,118.330777c33.646541,12.87401 -156.062834,30.891865 -156.062834,30.891865l-94.393498,-29.17104l-11.203215,-4.288514z"
         fill="#9a4121"
         id="svg_90"
         stroke="null" />
      <path
         d="m396.886535,142.110207c0,14.370589 -12.954813,26.014137 -28.989449,26.014137l-222.375426,0c-16.006042,0 -28.974691,-11.643548 -28.974691,-26.014137l0,0c0,-14.357339 12.968648,-26.000887 28.974691,-26.000887l222.375426,0c16.035559,0 28.989449,11.643548 28.989449,26.000887l0,0z"
         fill="#723E14"
         id="svg_92"
         stroke="null" />
      <path
         d="m329.143334,142.110207c0,14.370589 -6.727832,26.014137 -14.981279,26.014137l-114.889681,0c-8.275584,0 -14.9739,-11.643548 -14.9739,-26.014137l0,0c0,-14.357339 6.699239,-26.000887 14.9739,-26.000887l114.882302,0c8.260826,0 14.988658,11.643548 14.988658,26.000887l0,0z"
         fill="#49290A"
         id="svg_93"
         stroke="null" />
      <path
         d="m481.195664,130.629801c0,38.962823 -102.894142,70.521309 -229.843929,70.521309c-126.979302,0 -229.873445,-31.559315 -229.873445,-70.521309c0,-38.949572 102.894142,12.459259 229.873445,12.459259c126.949786,0 229.843929,-51.408831 229.843929,-12.459259z"
         fill="#9a4121"
         id="svg_94"
         stroke="null" />
      <g
         id="svg_100"
         transform="matrix(0.9223789810259757,0,0,0.828132852135681,-299.00517609718685,-1348.8495464878115) "
         stroke="null" />
      <g
         id="svg_101"
         transform="matrix(0.9223789810259757,0,0,0.828132852135681,-299.00517609718685,-1348.8495464878115) "
         stroke="null" />
      <g
         id="svg_102"
         transform="matrix(0.9223789810259757,0,0,0.828132852135681,-299.00517609718685,-1348.8495464878115) "
         stroke="null" />
      <g
         id="svg_103"
         transform="matrix(0.9223789810259757,0,0,0.828132852135681,-299.00517609718685,-1348.8495464878115) "
         stroke="null" />
      <g
         id="svg_104"
         transform="matrix(0.9223789810259757,0,0,0.828132852135681,-299.00517609718685,-1348.8495464878115) "
         stroke="null" />
      <g
         id="svg_105"
         transform="matrix(0.9223789810259757,0,0,0.828132852135681,-299.00517609718685,-1348.8495464878115) "
         stroke="null" />
      <g
         id="svg_106"
         transform="matrix(0.9223789810259757,0,0,0.828132852135681,-299.00517609718685,-1348.8495464878115) "
         stroke="null" />
      <g
         id="svg_107"
         transform="matrix(0.9223789810259757,0,0,0.828132852135681,-299.00517609718685,-1348.8495464878115) "
         stroke="null" />
      <g
         id="svg_108"
         transform="matrix(0.9223789810259757,0,0,0.828132852135681,-299.00517609718685,-1348.8495464878115) "
         stroke="null" />
      <g
         id="svg_109"
         transform="matrix(0.9223789810259757,0,0,0.828132852135681,-299.00517609718685,-1348.8495464878115) "
         stroke="null" />
      <g
         id="svg_110"
         transform="matrix(0.9223789810259757,0,0,0.828132852135681,-299.00517609718685,-1348.8495464878115) "
         stroke="null" />
      <g
         id="svg_111"
         transform="matrix(0.9223789810259757,0,0,0.828132852135681,-299.00517609718685,-1348.8495464878115) "
         stroke="null" />
      <g
         id="svg_112"
         transform="matrix(0.9223789810259757,0,0,0.828132852135681,-299.00517609718685,-1348.8495464878115) "
         stroke="null" />
      <g
         id="svg_113"
         transform="matrix(0.9223789810259757,0,0,0.828132852135681,-299.00517609718685,-1348.8495464878115) "
         stroke="null" />
      <g
         id="svg_114"
         transform="matrix(0.9223789810259757,0,0,0.828132852135681,-299.00517609718685,-1348.8495464878115) "
         stroke="null" />
    </g>
    <!-- <defs>
            <style>
            svg{
               background:#80c904;
            }
            </style>
        </defs> -->
    <!-- <rect fill="#80c904" height="514" width="514" y="-1" x="-1"/> -->
  </g>
  <g
     transform="matrix(0.48762385,0,0,0.48762385,137.45167,-81.314247)"
     id="g923">
    <path
       fill="#f4e8d7"
       d="m 265.40218,270.34305 c -7.89839,-9.25004 42.20848,-40.04684 59.22954,-40.32158 17.02072,-0.2751 55.81201,129.39666 12.36734,138.32168 -18.62879,3.82814 -118.54465,10.23492 -193.70443,-1.06432 -15.7078,-2.36169 -16.47023,-40.20342 -6.8568,-54.65938 12.90734,-19.41432 42.34773,-13.65279 62.2538,-6.37555 44.46045,16.25386 73.65393,29.06544 85.54516,10.91686 9.27482,-14.15576 -10.93555,-37.56733 -18.83461,-46.81771 z"
       id="be"
       style="stroke-width:0.339612" />
    <ellipse
       fill="#f4e8d7"
       id="noq"
       cx="259.8812"
       cy="421.44305"
       rx="33.410366"
       ry="32.366295"
       style="stroke-width:0.339612" />
  </g>
</svg>
