<svg width="128" height="128" version="1.1" xmlns="http://www.w3.org/2000/svg"><g><title>background</title><rect id="canvas_background" x="-1" y="-1" width="514" height="514" fill="none"/><g id="canvasGrid" x="0" y="0" width="100%" height="100%" display="none" overflow="visible"><rect width="100%" height="100%" fill="url(#gridpattern)" stroke-width="0"/></g></g><g><title>Layer 1</title><desc transform="scale(8.66)">Created with Sketch.</desc><g stroke="null"><path d="m105 69.8-3.24-26.4-6.08 0.748 0.0028-0.0043-11.8-6.63c-1.26-0.708-2.7-1.02-4.14-0.883l-18.6 1.72c-2.29 0.212-4.33 1.52-5.49 3.5l-13.1 22.6c-0.969 1.67-0.208 3.81 1.6 4.49l0.537 0.203c1.03 0.39 2.09 0.616 3.15 0.704l-4.99 4.35-9.46 8.07c-1.68 1.47-1.86 4.02-0.392 5.7l0.959 1.1c1.88 2.16 5.16 2.38 7.33 0.5l3.61 4.15c1.18 1.35 2.9 1.95 4.55 1.74 0.994-0.122 1.96-0.534 2.77-1.24l3.61 4.15c1.18 1.35 2.9 1.95 4.56 1.74 0.994-0.122 1.96-0.531 2.77-1.24l1.96 1.7c1.88 2.16 5.17 2.39 7.33 0.503l2.67-2.33 22.4-17.5 0.0243-0.0222 8.85-0.0088-1.41-11.5z" fill="#F29F5C" style="fill:#f9c295;stroke-width:.253"/><path d="m95 74.5-0.0243 0.0222-22.4 17.5-2.67 2.33c-2.16 1.88-5.45 1.66-7.33-0.503l-1.96-1.7c-0.81 0.708-1.78 1.12-2.77 1.24-1.65 0.204-3.38-0.389-4.56-1.74l-3.61-4.15c-0.81 0.708-1.78 1.12-2.77 1.24-1.65 0.204-3.38-0.393-4.55-1.74l-3.61-4.15c-1.85 1.61-4.52 1.68-6.43 0.306-0.98 1.48-0.902 3.48 0.32 4.89l0.959 1.1c1.88 2.16 5.16 2.38 7.33 0.5l3.61 4.15c1.18 1.35 2.9 1.95 4.55 1.74 0.994-0.122 1.96-0.534 2.77-1.24l3.61 4.15c1.18 1.35 2.9 1.95 4.56 1.74 0.994-0.122 1.96-0.531 2.77-1.24l1.96 1.7c1.88 2.16 5.17 2.39 7.33 0.503l2.67-2.33 22.4-17.5 0.0243-0.0222 8.85-0.0088-0.979-7.95z" fill="#D37D42" style="fill:#e59f6a;stroke-width:.253"/><path d="m99.1 85.9-28-24.2 1.19-10.1c0.402-3.42-1.75-6.62-5.07-7.54l-22.4-6.2c-2.37-0.656-4.88 0.444-6 2.63l-2.82 5.5-12.1-0.821-3.1 26.4-1.35 11.5 11.8 0.783 0.0244 0.0222 24.6 21.2 2.68 2.31c2.17 1.87 5.46 1.63 7.33-0.544l3.59-4.16c0.814 0.704 1.79 1.11 2.78 1.22 1.66 0.195 3.37-0.408 4.55-1.77l3.59-4.17c0.814 0.704 1.79 1.11 2.78 1.23 1.66 0.195 3.37-0.412 4.54-1.77l3.59-4.17c2.17 1.87 5.45 1.63 7.32-0.541l0.954-1.1c1.46-1.69 1.27-4.24-0.423-5.7z" fill="#F9C295" style="fill:#f29f5c;stroke-width:.253"/><g transform="matrix(.249 0 0 .249 -19 -33.2)" fill="#E59F6A"><path d="m473 477-14.7-12.6c4.77 6.32 4.67 15.3-0.711 21.6l-4.06 4.7c-7.96 9.24-21.9 10.3-31.2 2.3l-15.3 17.7c-4.97 5.77-12.3 8.35-19.3 7.52-4.23-0.497-8.37-2.23-11.8-5.22l-15.3 17.7c-4.99 5.78-12.3 8.35-19.3 7.52-4.23-0.497-8.37-2.21-11.8-5.21l-15.3 17.7c-2.88 3.34-6.54 5.59-10.5 6.75l6.5 5.61c8.72 7.5 21.9 6.53 29.4-2.18l14.4-16.7c3.26 2.82 7.16 4.44 11.2 4.9 6.64 0.779 13.5-1.64 18.2-7.09l14.4-16.7c3.26 2.82 7.16 4.45 11.1 4.92 6.64 0.78 13.5-1.65 18.2-7.09l14.4-16.7c8.72 7.5 21.9 6.53 29.4-2.17l3.82-4.43c5.84-6.78 5.08-17-1.7-22.8z" style="fill:#d37d42"/><path d="m447 501-26.4-22.8c-3.14-2.7-7.87-2.35-10.6 0.783-2.7 3.14-2.35 7.87 0.783 10.6l26.3 22.7 4.97-5.76c1.98 1.71 4.2 2.95 6.52 3.79 1.71-3.05 1.11-6.98-1.64-9.35z" style="fill:#d37d42"/><path d="m404 529c1.81-3.06 1.23-7.07-1.56-9.48l-23.7-20.4c-3.14-2.7-7.87-2.35-10.6 0.783-2.7 3.14-2.35 7.87 0.783 10.6l23.7 20.4c0.01 8e-3 0.02 0.015 0.03 0.023l4.9-5.69c1.95 1.69 4.14 2.94 6.43 3.78z" style="fill:#d37d42"/></g><g transform="matrix(.249 0 0 .249 -19 -33.2)" fill="#F29F5C"><path d="m203 469-5.71 7.54c-6.22 8.22-4.6 19.9 3.61 26.1 8.22 6.22 19.9 4.6 26.1-3.61l5.71-7.54c6.22-8.22 4.6-19.9-3.61-26.1-8.22-6.22-19.9-4.6-26.1 3.61z" style="fill:#f9c295"/><path d="m238 485-10.8 14.2c-6.22 8.22-4.6 19.9 3.61 26.1 8.22 6.22 19.9 4.6 26.1-3.61l10.8-14.2c6.22-8.22 4.6-19.9-3.61-26.1-8.22-6.22-19.9-4.6-26.1 3.61z" style="fill:#f9c295"/><path d="m272 502-14.7 19.4c-6.22 8.22-4.6 19.9 3.61 26.1 8.22 6.22 19.9 4.6 26.1-3.61l14.7-19.4c6.22-8.22 4.6-19.9-3.61-26.1s-19.9-4.6-26.1 3.61z" style="fill:#f9c295"/><path d="m302 524-15.5 20.5c-6.22 8.22-4.6 19.9 3.61 26.1 8.22 6.22 19.9 4.6 26.1-3.61l15.5-20.5c6.22-8.22 4.6-19.9-3.61-26.1-8.22-6.22-19.9-4.6-26.1 3.61z" style="fill:#f9c295"/><path d="m458 310-47.2-26.6c-5.04-2.84-10.8-4.07-16.6-3.54l-74.6 6.9c-9.17 0.848-17.4 6.08-22 14l-52.6 90.5c-3.88 6.68-0.835 15.3 6.4 18l2.15 0.812c19.3 7.28 41 1.08 53.6-15.3l20.1-26.2s48.4 56.1 102-9.41" style="fill:#f9c295"/></g><path d="m128 84.8-6.17-50.1c-0.0606-0.492-0.314-0.941-0.706-1.25s-0.887-0.443-1.38-0.382l-14.4 1.77c-3.74 0.461-6.42 3.88-5.95 7.63l4.95 40.2c0.426 3.46 3.38 6.01 6.79 6.01 0.277 0 0.559-0.017 0.841-0.0516l14.4-1.77c1.03-0.126 1.75-1.06 1.63-2.09z" fill="#5C9CEE" style="fill:#035000;stroke-width:.253"/><path d="m128 84.8-0.677-5.5c-0.307 0.45-0.797 0.772-1.38 0.844l-15.1 1.86c-0.296 0.0364-0.59 0.0541-0.881 0.0541-2.54 0-4.85-1.36-6.13-3.45l0.504 4.1c0.426 3.46 3.38 6.01 6.79 6.01 0.277 0 0.559-0.017 0.841-0.0516l14.4-1.77c1.03-0.126 1.75-1.06 1.63-2.09z" fill="#3580D3" style="fill:#023800;stroke-width:.253"/><path d="m22.9 34.8-14.4-1.77c-0.493-0.0606-0.989 0.0768-1.38 0.382-0.391 0.305-0.645 0.754-0.706 1.25l-6.17 50.1c-0.126 1.03 0.603 1.96 1.63 2.09l14.4 1.77c0.282 0.0347 0.563 0.0516 0.841 0.0516 3.4 0 6.36-2.54 6.79-6.01l4.95-40.2c0.461-3.74-2.21-7.17-5.95-7.63z" fill="#ED5575" style="fill:#ffc300;stroke-width:.253"/><path d="m0.268 84.8 0.677-5.5c0.307 0.45 0.797 0.772 1.38 0.844l15.1 1.86c0.296 0.0364 0.591 0.0541 0.881 0.0541 2.54 0 4.85-1.36 6.13-3.45l-0.504 4.1c-0.426 3.46-3.38 6.01-6.79 6.01-0.277 0-0.559-0.017-0.841-0.0516l-14.4-1.77c-1.03-0.126-1.75-1.06-1.63-2.09z" fill="#CC3A60" style="fill:#eab300;stroke-width:.253"/><g transform="matrix(.249 0 0 .249 -19 -33.2)" fill="#ebeef2"><circle cx="541" cy="441" r="14.5"/><circle cx="124" cy="441" r="14.5"/></g></g></g></svg>
