<svg width="512" height="512" xmlns="http://www.w3.org/2000/svg">
 <!-- Created with Method Draw - http://github.com/duopixel/Method-Draw/ -->

 <g>
  <title>background</title>
  <rect fill="none" id="canvas_background" height="514" width="514" y="-1" x="-1"/>
  <g display="none" overflow="visible" y="0" x="0" height="100%" width="100%" id="canvasGrid">
   <rect fill="url(#gridpattern)" stroke-width="0" y="0" x="0" height="100%" width="100%"/>
  </g>
 </g>
 <g>
  <title>Layer 1</title>
  <!-- Generator: Sketch 51.3 (57544) - http://www.bohemiancoding.com/sketch -->
  <desc transform="matrix(8.65847529551047,0,0,8.65847529551047,0,0) ">Created with Sketch.</desc>

  <!-- Created with Method Draw - http://github.com/duopixel/Method-Draw/ -->
  <g stroke="null" id="svg_189">
   <path stroke="null" id="svg_154" fill="#F29F5C" d="m416.002776,275.273072l-12.825309,-104.18517l-24.033402,2.958321l0.009861,-0.016764l-46.593559,-26.221573c-4.96998,-2.7966 -10.673623,-4.013456 -16.352614,-3.488847l-73.569504,6.804139c-9.043588,0.836219 -17.124735,5.996517 -21.687453,13.849874l-51.853454,89.250579c-3.829054,6.590154 -0.823399,15.042077 6.307141,17.735136l2.121116,0.800719c4.080511,1.541285 8.274424,2.433712 12.466366,2.782794l-6.570431,5.722379l-13.144807,11.452648l-37.386277,31.890703c-6.655237,5.797323 -7.346498,15.885199 -1.549174,22.540435l3.792568,4.343802c7.445108,8.537715 20.403541,9.424225 28.957034,1.977145l14.288691,16.3891c4.64555,5.334839 11.451661,7.694593 17.990537,6.88993c3.929637,-0.483192 7.763621,-2.112241 10.965511,-4.912785l14.272914,16.390086c4.662314,5.348645 11.467439,7.692621 18.006315,6.887958c3.929637,-0.484179 7.764607,-2.09745 10.967483,-4.897008l7.756718,6.703556c7.447081,8.552507 20.420305,9.437045 28.973798,1.989964l10.544443,-9.199393l88.647081,-69.039328l0.095652,-0.087764l34.975246,-0.034514l-5.572491,-45.27612z"/>
   <path stroke="null" id="svg_155" fill="#D37D42" d="m378.011029,293.742857l-0.095652,0.087764l-88.647081,69.039328l-10.544443,9.199393c-8.552507,7.447081 -21.526717,6.562543 -28.973798,-1.989964l-7.756718,-6.703556c-3.202876,2.799558 -7.038832,4.413815 -10.967483,4.897008c-6.538876,0.804663 -13.343015,-1.539313 -18.006315,-6.887958l-14.272914,-16.390086c-3.202876,2.799558 -7.03686,4.428607 -10.965511,4.912785c-6.538876,0.804663 -13.344987,-1.554105 -17.990537,-6.88993l-14.288691,-16.3891c-7.322831,6.376168 -17.866288,6.624667 -25.422826,1.209953c-3.875401,5.843671 -3.565763,13.764083 1.265175,19.309949l3.792568,4.343802c7.445108,8.537715 20.403541,9.424225 28.957034,1.977145l14.288691,16.3891c4.64555,5.334839 11.451661,7.694593 17.990537,6.88993c3.929637,-0.483192 7.762635,-2.112241 10.965511,-4.912785l14.272914,16.391072c4.662314,5.348645 11.467439,7.692621 18.006315,6.887958c3.929637,-0.484179 7.764607,-2.09745 10.967483,-4.897008l7.756718,6.703556c7.447081,8.552507 20.420305,9.437045 28.973798,1.989964l10.544443,-9.199393l88.647081,-69.039328l0.095652,-0.087764l34.975246,-0.034514l-3.869484,-31.433149l-39.697712,4.625828z"/>
   <path stroke="null" id="svg_156" fill="#F9C295" d="m394.153602,338.80795l-47.495847,-40.953027l-13.207918,-11.379676l-9.45085,-8.139328l-40.634514,-35.026523l4.692884,-39.947197c1.587632,-13.510653 -6.917541,-26.159448 -20.028821,-29.787336l-88.577068,-24.509691c-9.371962,-2.593462 -19.277407,1.755271 -23.710945,10.410332l-11.139065,21.743661l-47.81436,-3.245278l-12.24745,104.255184l-5.323006,45.306689l46.542282,3.09539l0.096638,0.087764l97.232129,83.812198l10.59572,9.141213c8.593923,7.399747 21.562217,6.443224 28.961965,-2.1507l14.18022,-16.454183c3.217667,2.781808 7.062499,4.374371 10.995094,4.836855c6.54282,0.769164 13.335126,-1.613271 17.967857,-6.987555l14.182192,-16.468974c3.217667,2.781808 7.060527,4.390149 10.993122,4.851647c6.54282,0.769164 13.336112,-1.628063 17.952079,-6.989527l14.196984,-16.467988c8.593923,7.399747 21.547426,6.441251 28.945201,-2.13788l3.768901,-4.365496c5.760838,-6.685806 5.013368,-16.769737 -1.673424,-22.530574z"/>
   <g stroke="null" transform="matrix(0.9861070714048606,0,0,0.9861070714048606,-72.3831581509736,-131.91645707863324) " id="svg_157">
    <path stroke="null" id="svg_158" fill="#E59F6A" d="m473.10977,477.356187l-14.671,-12.65c4.768,6.323 4.67,15.318 -0.711,21.564l-4.057,4.699c-7.964,9.235 -21.908,10.267 -31.16,2.301l-15.284,17.728c-4.969,5.771 -12.282,8.351 -19.326,7.524c-4.233,-0.497 -8.37,-2.228 -11.834,-5.223l-15.268,17.73c-4.987,5.785 -12.298,8.349 -19.342,7.522c-4.233,-0.497 -8.372,-2.212 -11.836,-5.207l-15.266,17.714c-2.876,3.341 -6.539,5.592 -10.474,6.752l6.499,5.607c8.715,7.504 21.866,6.534 29.37,-2.181l14.38,-16.686c3.263,2.821 7.162,4.436 11.15,4.905c6.635,0.779 13.523,-1.636 18.221,-7.086l14.382,-16.701c3.263,2.821 7.16,4.452 11.148,4.92c6.635,0.78 13.524,-1.651 18.205,-7.088l14.397,-16.7c8.715,7.504 21.851,6.532 29.353,-2.168l3.822,-4.427c5.841,-6.781 5.083,-17.007 -1.698,-22.849z"/>
    <path stroke="null" id="svg_159" fill="#E59F6A" d="m446.50877,501.239187l-26.392,-22.756c-3.135,-2.704 -7.872,-2.354 -10.578,0.783c-2.705,3.137 -2.354,7.873 0.783,10.578l26.345,22.716l4.966,-5.76c1.982,1.707 4.199,2.952 6.52,3.791c1.713,-3.049 1.106,-6.981 -1.644,-9.352z"/>
    <path stroke="null" id="svg_160" fill="#E59F6A" d="m404.31177,529.450187c1.807,-3.065 1.228,-7.074 -1.562,-9.48l-23.708,-20.441c-3.137,-2.704 -7.872,-2.354 -10.578,0.783c-2.705,3.137 -2.354,7.873 0.783,10.578l23.708,20.441c0.01,0.008 0.02,0.015 0.03,0.023l4.898,-5.688c1.953,1.689 4.137,2.942 6.429,3.784z"/>
   </g>
   <g stroke="null" transform="matrix(0.9861070714048606,0,0,0.9861070714048606,-72.3831581509736,-131.91645707863324) " id="svg_161">
    <path stroke="null" id="svg_162" fill="#F29F5C" d="m203.39377,468.958187l-5.713,7.544c-6.221,8.215 -4.605,19.918 3.61,26.14l0,0c8.215,6.221 19.918,4.605 26.14,-3.61l5.713,-7.544c6.221,-8.215 4.605,-19.918 -3.61,-26.14l0,0c-8.215,-6.221 -19.919,-4.605 -26.14,3.61z"/>
    <path stroke="null" id="svg_163" fill="#F29F5C" d="m238.18977,484.825187l-10.759,14.207c-6.221,8.215 -4.605,19.918 3.61,26.14l0,0c8.215,6.221 19.918,4.605 26.14,-3.61l10.759,-14.207c6.221,-8.215 4.605,-19.918 -3.61,-26.14l0,0c-8.216,-6.221 -19.919,-4.605 -26.14,3.61z"/>
    <path stroke="null" id="svg_164" fill="#F29F5C" d="m271.84277,502.200187l-14.663,19.362c-6.221,8.215 -4.605,19.918 3.61,26.14l0,0c8.215,6.221 19.918,4.605 26.14,-3.61l14.663,-19.362c6.221,-8.215 4.605,-19.918 -3.61,-26.14l0,0c-8.215,-6.222 -19.918,-4.605 -26.14,3.61z"/>
    <path stroke="null" id="svg_165" fill="#F29F5C" d="m302.44377,523.606187l-15.514,20.485c-6.221,8.215 -4.605,19.918 3.61,26.14l0,0c8.215,6.221 19.918,4.605 26.14,-3.61l15.514,-20.485c6.221,-8.215 4.605,-19.918 -3.61,-26.14l0,0c-8.216,-6.221 -19.919,-4.605 -26.14,3.61z"/>
    <path stroke="null" id="svg_166" fill="#F29F5C" d="m457.89877,310.256187l-47.25,-26.591c-5.04,-2.836 -10.824,-4.07 -16.583,-3.538l-74.606,6.9c-9.171,0.848 -17.366,6.081 -21.993,14.045l-52.584,90.508c-3.883,6.684 -0.835,15.254 6.396,17.985l2.151,0.812c19.275,7.28 41.043,1.085 53.596,-15.252l20.147,-26.22c0,0 48.429,56.073 101.749,-9.41"/>
   </g>
   <path stroke="null" id="svg_167" fill="#5C9CEE" d="m508.38819,334.480912l-24.369664,-197.961981c-0.239624,-1.946575 -1.242495,-3.71861 -2.788711,-4.925605c-1.546216,-1.206995 -3.507583,-1.749354 -5.455144,-1.510716l-56.985155,7.015166c-14.800481,1.822326 -25.358729,15.345798 -23.536404,30.145293l19.568309,158.96046c1.684271,13.684208 13.370626,23.741514 26.822112,23.741514c1.096551,0 2.207894,-0.067055 3.323181,-0.204124l56.985155,-7.015166c4.0529,-0.499956 6.935291,-4.190955 6.436321,-8.244841z"/>
   <path stroke="null" id="svg_168" fill="#3580D3" d="m508.38819,334.480912l-2.675308,-21.729855c-1.212912,1.779923 -3.149626,3.052001 -5.455144,3.336l-59.735408,7.3534c-1.169523,0.143972 -2.334115,0.213985 -3.483916,0.213985c-10.058292,0 -19.170908,-5.366395 -24.211887,-13.647722l1.993908,16.195823c1.684271,13.684208 13.370626,23.741514 26.822112,23.741514c1.096551,0 2.207894,-0.067055 3.323181,-0.204124l56.985155,-7.015166c4.053886,-0.49897 6.936277,-4.189969 6.437307,-8.243855z"/>
   <path stroke="null" id="svg_169" fill="#ED5575" d="m93.210488,137.096791l-56.985155,-7.015166c-1.949534,-0.239624 -3.908928,0.303721 -5.455144,1.510716c-1.546216,1.206995 -2.549087,2.979029 -2.788711,4.925605l-24.369664,197.962967c-0.49897,4.053886 2.383421,7.744885 6.436321,8.243855l56.985155,7.015166c1.116273,0.137069 2.225644,0.204124 3.323181,0.204124c13.4505,0 25.137841,-10.058292 26.822112,-23.741514l19.568309,-158.96046c1.822326,-14.799495 -8.735923,-28.322967 -23.536404,-30.145293z"/>
   <path stroke="null" id="svg_170" fill="#CC3A60" d="m3.611813,334.480912l2.675308,-21.729855c1.212912,1.779923 3.149626,3.052001 5.455144,3.336l59.735408,7.3534c1.169523,0.143972 2.334115,0.213985 3.483916,0.213985c10.058292,0 19.170908,-5.366395 24.211887,-13.647722l-1.993908,16.195823c-1.684271,13.684208 -13.370626,23.741514 -26.822112,23.741514c-1.096551,0 -2.207894,-0.067055 -3.323181,-0.204124l-56.985155,-7.015166c-4.054872,-0.49897 -6.936277,-4.189969 -6.437307,-8.243855z"/>
   <g stroke="null" transform="matrix(0.9861070714048606,0,0,0.9861070714048606,-72.3831581509736,-131.91645707863324) " id="svg_171">
    <circle stroke="null" id="svg_172" fill="#EBEEF2" r="14.498" cy="440.824187" cx="541.00877"/>
    <circle stroke="null" id="svg_173" fill="#EBEEF2" r="14.498" cy="440.824187" cx="124.19877"/>
   </g>
   <g stroke="null" transform="matrix(0.9861070714048606,0,0,0.9861070714048606,-72.3831581509736,-131.91645707863324) " id="svg_174"/>
   <g stroke="null" transform="matrix(0.9861070714048606,0,0,0.9861070714048606,-72.3831581509736,-131.91645707863324) " id="svg_175"/>
   <g stroke="null" transform="matrix(0.9861070714048606,0,0,0.9861070714048606,-72.3831581509736,-131.91645707863324) " id="svg_176"/>
   <g stroke="null" transform="matrix(0.9861070714048606,0,0,0.9861070714048606,-72.3831581509736,-131.91645707863324) " id="svg_177"/>
   <g stroke="null" transform="matrix(0.9861070714048606,0,0,0.9861070714048606,-72.3831581509736,-131.91645707863324) " id="svg_178"/>
   <g stroke="null" transform="matrix(0.9861070714048606,0,0,0.9861070714048606,-72.3831581509736,-131.91645707863324) " id="svg_179"/>
   <g stroke="null" transform="matrix(0.9861070714048606,0,0,0.9861070714048606,-72.3831581509736,-131.91645707863324) " id="svg_180"/>
   <g stroke="null" transform="matrix(0.9861070714048606,0,0,0.9861070714048606,-72.3831581509736,-131.91645707863324) " id="svg_181"/>
   <g stroke="null" transform="matrix(0.9861070714048606,0,0,0.9861070714048606,-72.3831581509736,-131.91645707863324) " id="svg_182"/>
   <g stroke="null" transform="matrix(0.9861070714048606,0,0,0.9861070714048606,-72.3831581509736,-131.91645707863324) " id="svg_183"/>
   <g stroke="null" transform="matrix(0.9861070714048606,0,0,0.9861070714048606,-72.3831581509736,-131.91645707863324) " id="svg_184"/>
   <g stroke="null" transform="matrix(0.9861070714048606,0,0,0.9861070714048606,-72.3831581509736,-131.91645707863324) " id="svg_185"/>
   <g stroke="null" transform="matrix(0.9861070714048606,0,0,0.9861070714048606,-72.3831581509736,-131.91645707863324) " id="svg_186"/>
   <g stroke="null" transform="matrix(0.9861070714048606,0,0,0.9861070714048606,-72.3831581509736,-131.91645707863324) " id="svg_187"/>
   <g stroke="null" transform="matrix(0.9861070714048606,0,0,0.9861070714048606,-72.3831581509736,-131.91645707863324) " id="svg_188"/>
  </g>
 </g>
</svg>