<?xml version="1.0" encoding="UTF-8" standalone="no"?>
<svg
   xmlns:dc="http://purl.org/dc/elements/1.1/"
   xmlns:cc="http://creativecommons.org/ns#"
   xmlns:rdf="http://www.w3.org/1999/02/22-rdf-syntax-ns#"
   xmlns:svg="http://www.w3.org/2000/svg"
   xmlns="http://www.w3.org/2000/svg"
   xmlns:sodipodi="http://sodipodi.sourceforge.net/DTD/sodipodi-0.dtd"
   xmlns:inkscape="http://www.inkscape.org/namespaces/inkscape"
   sodipodi:docname="wait.svg"
   inkscape:version="1.0 (4035a4f, 2020-05-01)"
   id="svg8"
   version="1.1"
   viewBox="0 0 135.46666 135.46667"
   height="512"
   width="512">
  <defs
     id="defs2" />
  <sodipodi:namedview
     inkscape:window-maximized="0"
     inkscape:window-y="0"
     inkscape:window-x="0"
     inkscape:window-height="768"
     inkscape:window-width="1366"
     inkscape:snap-nodes="false"
     inkscape:showpageshadow="false"
     units="px"
     showgrid="false"
     inkscape:document-rotation="0"
     inkscape:current-layer="layer1"
     inkscape:document-units="mm"
     inkscape:cy="257.24274"
     inkscape:cx="386.41287"
     inkscape:zoom="0.94549165"
     inkscape:pageshadow="2"
     inkscape:pageopacity="0.0"
     borderopacity="1.0"
     bordercolor="#666666"
     pagecolor="#ffffff"
     id="base" />
  <metadata
     id="metadata5">
    <rdf:RDF>
      <cc:Work
         rdf:about="">
        <dc:format>image/svg+xml</dc:format>
        <dc:type
           rdf:resource="http://purl.org/dc/dcmitype/StillImage" />
        <dc:title></dc:title>
      </cc:Work>
    </rdf:RDF>
  </metadata>
  <g
     id="layer1"
     inkscape:groupmode="layer"
     inkscape:label="Layer 1">
    <g
       id="g9941"
       stroke="null"
       transform="matrix(0.00464738,0,0,-0.00464738,-95.38756,99.689397)">
      <g
         id="g9915"
         transform="matrix(32.587,0,0,-32.587,23107,19794)">
        <path
           id="path9893"
           fill="#e6e9ed"
           d="M 308.77,156.1 H 232.74 V 257.56 H 384.86 V 156.1 Z" />
        <path
           id="path9895"
           fill="#656d78"
           d="m 327.79,80.004 c 3.4876,0 6.3411,2.8535 6.3411,6.3411 v 12.682 c 0,3.4876 -2.8535,6.3411 -6.3411,6.3411 h -38.047 c -3.4876,0 -6.3411,-2.8535 -6.3411,-6.3411 v -12.682 c 0,-3.4876 2.8535,-6.3411 6.3411,-6.3411 z" />
        <path
           id="path9897"
           fill="#d89700"
           d="m 232.74,301.94 c 0,-10.526 8.4971,-19.023 19.023,-19.023 -10.526,0 -19.023,-8.4971 -19.023,-19.023 v -6.3411 h 152.12 v 6.3411 c 0,10.526 -8.4971,19.023 -19.023,19.023 10.526,0 19.023,8.4971 19.023,19.023 V 435.1 c 0,21.052 -16.994,38.047 -38.047,38.047 h -76.03 c -20.989,0 -38.047,-16.994 -38.047,-38.047 V 314.62 Z" />
        <path
           id="path9899"
           fill="#d89700"
           d="M 384.86,156.1 H 232.74 v -6.3411 c 0,-10.526 8.4971,-19.023 19.023,-19.023 h 25.301 c 7.0323,0 12.682,-5.6436 12.682,-12.682 v -12.682 h 38.047 v 12.682 c 0,6.9752 5.707,12.682 12.682,12.682 h 25.364 c 10.526,0 19.023,8.4971 19.023,19.023 z" />
        <g
           id="g9913"
           fill="#f6bb42"
           transform="matrix(6.3411,0,0,6.3411,-93.878,-161.3)">
          <path
             id="path9901"
             d="m 75.498,77.053 v -1.998 c -0.001,0 -0.002,-0.001 -0.003,-0.001 h -1.994 c -0.553,0 -1,0.447 -1,1 0,0.553 0.447,1 1,1 h 1.994 c 10e-4,0 0.002,-0.001 0.003,-0.001 z" />
          <path
             id="path9903"
             d="m 75.498,81.053 v -1.998 c -0.001,0 -0.002,-0.001 -0.003,-0.001 h -1.994 c -0.553,0 -1,0.447 -1,1 0,0.553 0.447,1 1,1 h 1.994 c 10e-4,0 0.002,-0.001 0.003,-0.001 z" />
          <path
             id="path9905"
             d="m 75.498,85.053 v -1.998 c -0.001,0 -0.002,-0.001 -0.003,-0.001 h -1.994 c -0.553,0 -1,0.447 -1,1 0,0.553 0.447,1 1,1 h 1.994 c 10e-4,0 0.002,-0.001 0.003,-0.001 z" />
          <path
             id="path9907"
             d="m 51.508,83.055 v 1.998 c 10e-4,0 0.002,0.001 0.003,0.001 h 1.994 c 0.553,0 1,-0.447 1,-1 0,-0.553 -0.447,-1 -1,-1 h -1.994 c -0.001,0 -0.002,0.001 -0.003,0.001 z" />
          <path
             id="path9909"
             d="m 51.508,79.055 v 1.998 c 10e-4,0 0.002,0.001 0.003,0.001 h 1.994 c 0.553,0 1,-0.447 1,-1 0,-0.553 -0.447,-1 -1,-1 h -1.994 c -0.001,0 -0.002,0.001 -0.003,0.001 z" />
          <path
             id="path9911"
             d="m 51.508,75.055 v 1.998 c 10e-4,0 0.002,0.001 0.003,0.001 h 1.994 c 0.553,0 1,-0.447 1,-1 0,-0.553 -0.447,-1 -1,-1 h -1.994 c -0.001,0 -0.002,0.001 -0.003,0.001 z" />
        </g>
      </g>
      <g
         id="g9939"
         transform="matrix(32.587,0,0,-32.587,23107,19794)">
        <g
           id="g9937"
           stroke="null"
           transform="matrix(0.1889,0,0,0.1889,-697.14,-529.64)">
          <path
             id="path9917"
             fill="#5b5b68"
             d="m 5362.4,3957 c -18.14,21.2 -35.7,33.74 -35.7,33.74 0,0 -104.01,-23.21 -123.78,-103.19 -0.37,-1.45 -0.7,-2.93 -1,-4.42 -16.95,-83.56 6.5,-165.92 56.92,-226.87 70.18,36.48 123.88,103.19 140.83,186.75 9.46,46.62 -14.36,87.22 -37.27,113.99 z" />
          <g
             id="g9925"
             fill="#40404c">
            <path
               id="path9919"
               d="m 5258.9,3871.5 c 16.819,82.904 66.938,118.63 67.715,119.18 -1.662,-0.373 -107.95,-24.703 -124.77,-107.61 -16.952,-83.557 6.506,-165.91 56.926,-226.87 -15.63,53.9 -16.824,131.74 0.128,215.3 z" />
            <path
               id="path9921"
               d="m 5308.9,3910.8 c -3.494,0 -6.621,-2.454 -7.342,-6.01 l -35.594,-175.44 c -0.824,-4.06 1.799,-8.018 5.859,-8.841 4.058,-0.826 8.018,1.799 8.841,5.859 l 35.593,175.44 c 0.824,4.06 -1.799,8.018 -5.859,8.841 -0.502,0.103 -1.004,0.152 -1.498,0.152 z" />
            <path
               id="path9923"
               stroke="null"
               d="m 5362.4,3957 c -18.14,21.2 -35.7,33.74 -35.7,33.74 0,0 -104.01,-23.21 -123.78,-103.19 58.4,2.39 115.71,25.93 159.48,69.45 z" />
          </g>
          <path
             id="path9927"
             fill="#5b5b68"
             d="m 5368.1,3860.7 c -59.225,61.332 -17.915,163.79 -17.915,163.79 0,0 103.84,37.703 163.07,-23.629 59.224,-61.332 83.739,-143.38 74.007,-221.88 -78.791,-6.983 -159.94,20.385 -219.16,81.717 z" />
          <path
             id="path9929"
             fill="#40404c"
             d="m 5409.9,3901.1 c -58.761,60.853 -59.78,122.39 -59.795,123.34 -0.635,-1.581 -40.845,-102.93 17.916,-163.78 59.224,-61.332 140.37,-88.693 219.17,-81.713 -53.263,17.679 -118.06,60.821 -177.29,122.15 z" />
          <path
             id="path9931"
             fill="#40404c"
             d="m 5404.7,3975.5 c -1.888,0 -3.776,-0.708 -5.234,-2.129 -2.966,-2.891 -3.027,-7.64 -0.136,-10.605 l 79.297,-81.353 26.841,-27.796 25.549,-27.223 c 2.834,-3.02 7.581,-3.17 10.601,-0.336 3.021,2.834 3.171,7.581 0.336,10.601 l -25.585,27.262 c -0.024,0.026 -0.049,0.052 -0.074,0.078 l -26.902,27.86 -79.322,81.377 c -1.469,1.507 -3.419,2.264 -5.371,2.264 z" />
          <path
             id="path9933"
             fill="#ffca5e"
             d="m 5228.9,4108.1 c 48.017,58.349 142.41,32.334 142.41,32.334 0,0 43.697,-87.624 -4.32,-145.97 -48.016,-58.349 -117.79,-88.23 -187.89,-87.597 -14.114,68.67 1.781,142.89 49.797,201.24 z" />
          <path
             id="path9935"
             fill="#e8a328"
             d="m 5268.7,4075.3 c 47.641,57.893 101.72,65.011 102.56,65.121 -1.456,0.399 -94.764,25.559 -142.4,-32.334 -48.016,-58.349 -63.905,-132.56 -49.792,-201.24 10.181,48.687 41.618,110.11 89.634,168.46 z" />
        </g>
      </g>
    </g>
    <g
       id="g9995"
       text-rendering="geometricPrecision"
       shape-rendering="geometricPrecision"
       image-rendering="optimizeQuality"
       fill-rule="evenodd"
       clip-rule="evenodd"
       transform="matrix(0.07433197,0,0,0.07346601,68.391809,30.031627)">
      <g
         id="g9951">
        <title
           id="title9943">background</title>
        <rect
           id="rect9945"
           fill="none"
           height="514"
           width="514"
           y="-1"
           x="-1" />
        <g
           id="g9949"
           overflow="visible"
           display="none"
           height="100%"
           width="100%"
           y="0"
           x="0">
          <rect
             id="rect9947"
             stroke-width="0"
             fill="url(#gridpattern)"
             height="100%"
             width="100%"
             x="0"
             y="0" />
        </g>
      </g>
      <g
         id="g9993">
        <title
           id="title9953">Layer 1</title>
        <g
           id="g9991"
           stroke="null">
          <g
             id="g9989"
             stroke="null"
             transform="matrix(0.99194,0,0,0.99194,-170.14,-279.29)">
            <path
               id="path9955"
               fill="#dd636e"
               d="m 591.08,436.43 c -105.97,-7.058 -211.94,-7.058 -317.91,0 -31.779,2.116 -57.418,26.877 -60.365,58.59 -7.348,79.078 -7.348,158.15 0,237.23 2.947,31.713 28.585,56.473 60.365,58.59 105.97,7.058 211.94,7.058 317.91,0 31.779,-2.116 57.418,-26.877 60.365,-58.59 7.348,-79.078 7.348,-158.16 0,-237.23 -2.947,-31.713 -28.586,-56.474 -60.365,-58.59 z" />
            <path
               id="path9957"
               fill="#da4a54"
               d="m 286.71,740.05 c 1.311,22.57 9.313,41.832 20.767,52.815 -11.434,-0.594 -22.878,-1.281 -34.311,-2.039 -31.771,-2.11 -57.415,-26.873 -60.365,-58.583 -7.346,-79.083 -7.346,-158.16 0,-237.24 2.951,-31.709 28.595,-56.472 60.365,-58.583 11.434,-0.758 22.878,-1.445 34.311,-2.039 -11.454,10.983 -19.456,30.244 -20.767,52.815 -4.867,84.288 -4.867,168.57 0,252.85 z" />
            <ellipse
               id="ellipse9959"
               fill="#f9efda"
               ry="119.69"
               rx="151.5"
               cy="618.58002"
               cx="432.12" />
            <path
               id="path9961"
               fill="#ffe07d"
               d="m 568.27,385.17 h -0.035 c 6.388,-4.227 11.007,-10.981 12.367,-18.978 3.195,-18.792 3.195,-37.583 0,-56.375 -2.261,-13.298 -13.497,-23.212 -26.978,-23.662 -81.002,-2.703 -162,-2.703 -243.01,0 -13.481,0.45 -24.717,10.364 -26.978,23.662 -3.195,18.792 -3.195,37.583 0,56.375 1.36,7.997 5.979,14.751 12.367,18.978 h -0.035 c -46.169,29.259 -109,46.069 -88.683,85.358 20.318,39.29 74.087,-23.107 106.01,-18.037 31.919,5.07 -12.519,84.01 25.385,84.01 37.903,0 58.797,-65.97 93.442,-65.97 34.645,0 55.539,65.97 93.442,65.97 37.903,0 -6.535,-78.941 25.385,-84.01 31.92,-5.069 85.689,57.327 106.01,18.037 20.316,-39.29 -42.515,-56.099 -88.684,-85.358 z" />
            <path
               id="path9963"
               fill="#ffd064"
               d="m 356.44,366.19 c 0.7,7.994 3.049,21.903 6.305,26.127 l -0.02,-7.151 c -19.718,24.508 -45.38,40.29 -47.09,67.868 -0.731,-0.237 -1.504,-0.41199 -2.339,-0.54599 -31.925,-5.068 -85.69,57.33 -106,18.038 -20.325,-39.291 42.505,-56.104 88.678,-85.361 h 0.031 c -6.387,-4.224 -11.003,-10.982 -12.362,-18.976 -3.194,-18.79 -3.194,-37.581 0,-56.371 2.256,-13.3 13.495,-23.22 26.98,-23.663 17.873,-0.597 35.747,-1.061 53.611,-1.391 -4.028,5.635 -6.995,15.885 -7.788,25.054 -1.629,18.791 -1.629,37.581 -0.001,56.372 z" />
            <path
               id="path9965"
               fill="#f9efda"
               d="m 432.1,402.54 c -48.998,0 -97.996,-3.236 -146.65,-9.709 -4.229,-0.563 -7.202,-4.448 -6.64,-8.678 0.563,-4.23 4.456,-7.198 8.678,-6.64 95.958,12.766 193.27,12.766 289.23,0 4.228,-0.56099 8.115,2.409 8.678,6.64 0.562,4.229 -2.41,8.115 -6.64,8.678 -48.655,6.473 -97.653,9.709 -146.65,9.709 z" />
            <path
               id="path9967"
               fill="#f9efda"
               d="m 471.27,335.05 c -8.971,-6.325 -19.055,-6.695 -27.661,-1.01 -4.739,3.13 -8.613,7.796 -11.509,13.51 -2.896,-5.715 -6.77,-10.38 -11.509,-13.51 -8.605,-5.684 -18.687,-5.316 -27.66,1.01 -9.408,6.633 -10.932,14.354 -10.553,19.663 1.314,18.417 28.305,35.061 39.371,41.137 0.384,1.76 0.974,3.937 1.864,6.366 -3.573,6.15 -10.181,12.929 -22.36,15.811 -4.152,0.983 -6.721,5.145 -5.739,9.298 0.842,3.554 4.012,5.949 7.513,5.949 0.589,0 1.187,-0.067 1.786,-0.209 12.525,-2.964 21.293,-9.194 27.258,-16.215 5.539,6.563 14.119,13.091 27.318,16.215 0.599,0.142 1.197,0.209 1.787,0.209 3.499,0 6.67,-2.394 7.512,-5.949 0.982,-4.152 -1.588,-8.315 -5.739,-9.298 -12.143,-2.874 -18.748,-9.62 -22.328,-15.756 0.85,-2.274 1.469,-4.452 1.889,-6.452 11.103,-6.103 38.003,-22.722 39.314,-41.105 0.378,-5.31 -1.145,-13.031 -10.554,-19.664 z m -73.478,18.56 c -0.057,-0.802 -0.208,-2.934 4.043,-5.932 2.307,-1.626 4.251,-2.188 5.875,-2.188 1.847,0 3.282,0.727 4.365,1.442 7.752,5.121 10.982,18.42 10.458,31.426 -11.849,-7.476 -24.246,-17.755 -24.741,-24.748 z m 68.618,0 c -0.496,6.993 -12.893,17.272 -24.742,24.748 -0.524,-13.005 2.706,-26.304 10.458,-31.425 1.083,-0.71499 2.518,-1.443 4.366,-1.443 1.625,0 3.568,0.56201 5.875,2.188 4.251,2.998 4.1,5.13 4.043,5.932 z" />
            <path
               id="path9969"
               fill="#b3e59f"
               d="m 432.94,576.13 c 40.794,0 64.267,-26.006 54.937,-35.336 -9.33,-9.33 -19.529,8.804 -27.463,8.804 -7.934,0 3.393,-15.977 -4.927,-19.165 -8.32,-3.188 -15.032,18.066 -23.366,18.066 -8.334,0 -15.045,-21.254 -23.366,-18.066 -8.32,3.188 3.007,19.165 -4.927,19.165 -7.934,0 -18.133,-18.133 -27.463,-8.804 -9.33,9.33 14.143,35.336 54.937,35.336" />
            <path
               id="path9971"
               fill="#95d6a4"
               d="m 431.74,576.13 h -0.44 c -40.796,0 -64.27,-26.008 -54.939,-35.335 9.331,-9.331 19.529,8.803 27.465,8.803 0.783,0 1.378,-0.15499 1.822,-0.44 1.675,11.371 11.48,26.972 26.092,26.972 z" />
            <path
               id="path9973"
               fill="#dd636e"
               d="m 432.12,574.03 c -38.217,0 -69.199,0.61301 -69.199,38.83 0,8.183 1.419,17.424 4.028,26.898 5.244,19.06 15.293,39.061 28.254,53.237 1.788,1.961 3.635,3.807 5.53,5.53 9.421,8.54 20.084,13.903 31.387,13.903 16.76,0 32.124,-11.798 44.099,-28.266 15.334,-21.09 25.102,-49.842 25.102,-71.299 0,-38.218 -30.982,-38.836 -69.201,-38.833 z" />
            <path
               id="path9975"
               fill="#da4a54"
               d="m 432.12,712.43 c -38.22,0 -69.198,-61.347 -69.198,-99.566 0,-38.22 30.978,-38.834 69.198,-38.834 -17.898,0 -32.408,0.614 -32.408,38.834 0.001,38.219 14.511,99.566 32.408,99.566 z" />
            <g
               id="g9987"
               fill="#664545">
              <path
                 id="path9977"
                 d="m 394.87,630.63 c -4.268,0 -7.726,-3.459 -7.726,-7.726 v -10.036 c 0,-4.267 3.459,-7.726 7.726,-7.726 4.267,0 7.726,3.459 7.726,7.726 v 10.036 c 0,4.267 -3.458,7.726 -7.726,7.726 z" />
              <path
                 id="path9979"
                 d="m 432.12,630.63 c -4.268,0 -7.726,-3.459 -7.726,-7.726 v -10.036 c 0,-4.267 3.459,-7.726 7.726,-7.726 4.267,0 7.726,3.459 7.726,7.726 v 10.036 c 0,4.267 -3.459,7.726 -7.726,7.726 z" />
              <path
                 id="path9981"
                 d="m 469.37,630.63 c -4.268,0 -7.726,-3.459 -7.726,-7.726 v -10.036 c 0,-4.267 3.459,-7.726 7.726,-7.726 4.268,0 7.726,3.459 7.726,7.726 v 10.036 c 0,4.267 -3.458,7.726 -7.726,7.726 z" />
              <path
                 id="path9983"
                 d="m 413.5,673.59 c -4.268,0 -7.726,-3.459 -7.726,-7.726 v -10.036 c 0,-4.267 3.459,-7.726 7.726,-7.726 4.268,0 7.726,3.459 7.726,7.726 v 10.036 c 0,4.267 -3.459,7.726 -7.726,7.726 z" />
              <path
                 id="path9985"
                 d="m 450.75,673.59 c -4.268,0 -7.726,-3.459 -7.726,-7.726 v -10.036 c 0,-4.267 3.459,-7.726 7.726,-7.726 4.267,0 7.726,3.459 7.726,7.726 v 10.036 c 10e-4,4.267 -3.458,7.726 -7.726,7.726 z" />
            </g>
          </g>
        </g>
      </g>
    </g>
    <g
       id="g10119"
       text-rendering="geometricPrecision"
       shape-rendering="geometricPrecision"
       image-rendering="optimizeQuality"
       fill-rule="evenodd"
       clip-rule="evenodd"
       transform="matrix(0.07983903,0,0,0.08360753,13.975466,25.95846)">
      <g
         id="g10005">
        <title
           id="title9997">background</title>
        <rect
           id="rect9999"
           fill="none"
           height="514"
           width="514"
           y="-1"
           x="-1" />
        <g
           id="g10003"
           overflow="visible"
           display="none"
           height="100%"
           width="100%"
           y="0"
           x="0">
          <rect
             id="rect10001"
             stroke-width="0"
             fill="url(#gridpattern)"
             height="100%"
             width="100%"
             x="0"
             y="0" />
        </g>
      </g>
      <g
         id="g10117">
        <title
           id="title10007">Layer 1</title>
        <g
           id="g10115"
           stroke="null">
          <g
             id="g10049"
             stroke="null"
             transform="matrix(8.4155,0,0,8.4155,-4.4837,-1.0394)">
            <path
               id="path10009"
               fill="#ace54b"
               d="m 16.859,13.036 2.138,0.855 c 1.103,0.441 2.279,0.668 3.466,0.668 1.449,0 2.877,-0.337 4.173,-0.985 l 0.059,-0.03 c 1.296,-0.648 2.725,-0.985 4.174,-0.985 h 0.594 c 1.449,0 2.877,0.337 4.173,0.985 l 0.059,0.03 c 1.296,0.648 2.725,0.985 4.174,0.985 h 0.283 c 1.003,0 1.999,-0.162 2.951,-0.479 l 3.337,-1.112 h -10e-4 c 0.767,1.567 2.068,2.854 3.727,3.591 2.736,1.216 4.5,3.93 4.5,6.924 v 31.076 c 0,3.314 -2.686,6 -6,6 h -34 c -3.314,0 -6,-2.686 -6,-6 V 23.483 c 0,-2.995 1.764,-5.708 4.5,-6.924 1.634,-0.726 2.922,-1.987 3.693,-3.523 z" />
            <path
               id="path10011"
               fill="#d0f669"
               d="m 33.504,12.79 c -0.668,-0.149 -1.352,-0.231 -2.041,-0.231 h -0.594 c -1.449,0 -2.877,0.337 -4.173,0.985 l -0.059,0.03 c -1.296,0.648 -2.725,0.985 -4.174,0.985 -1.187,0 -2.363,-0.227 -3.466,-0.667 l -2.138,-0.855 c -0.771,1.535 -2.059,2.796 -3.693,3.522 -2.736,1.216 -4.5,3.93 -4.5,6.924 V 40.822 C 21.321,36.78 30.982,26.052 33.504,12.79 Z" />
            <path
               id="path10013"
               fill="#c7e2fc"
               d="m 46.439,12.968 -3.337,1.112 c -0.951,0.317 -1.947,0.479 -2.95,0.479 h -0.283 c -1.449,0 -2.877,-0.337 -4.173,-0.985 l -0.059,-0.03 c -1.296,-0.648 -2.725,-0.985 -4.174,-0.985 h -0.594 c -1.449,0 -2.877,0.337 -4.173,0.985 l -0.059,0.03 c -1.296,0.648 -2.725,0.985 -4.174,0.985 -1.187,0 -2.363,-0.227 -3.466,-0.667 l -2.138,-0.855 c 0.521,-1.036 0.807,-2.196 0.807,-3.402 V 8.559 h 28 v 1.076 c 0,1.179 0.274,2.315 0.773,3.333 z" />
            <path
               id="path10015"
               fill="#50761e"
               d="m 34.49,53.375 c 5.822,-4.06 10.287,-9.8 12.807,-16.466 l 2.806,-7.42 c 0.706,-1.868 0.749,-3.924 0.122,-5.821 -0.622,-1.88 -1.96,-3.435 -3.72,-4.321 -1.952,-0.983 -4.234,-1.051 -6.24,-0.185 -2.335,1.008 -4.201,2.874 -5.219,5.218 l -0.383,0.881 c -3.184,7.331 -7.868,13.902 -13.745,19.285 -1.144,1.047 -1.904,2.452 -2.158,3.988 -0.363,2.195 0.348,4.432 1.911,6.006 1.493,1.504 3.591,2.229 5.686,1.965 2.921,-0.367 5.711,-1.441 8.133,-3.13 z" />
            <path
               id="path10017"
               fill="#6ea22a"
               d="m 19.703,53.315 c 0.853,0.235 1.753,0.304 2.653,0.191 2.922,-0.368 5.713,-1.442 8.134,-3.131 5.822,-4.06 10.287,-9.8 12.807,-16.466 l 2.806,-7.42 c 0.706,-1.868 0.749,-3.924 0.122,-5.821 -0.21,-0.636 -0.503,-1.234 -0.865,-1.782 -1.632,-0.503 -3.399,-0.428 -4.998,0.236 0.48,1.767 0.392,3.647 -0.258,5.367 l -2.806,7.42 c -2.521,6.665 -6.986,12.406 -12.807,16.466 -1.736,1.21 -3.661,2.105 -5.689,2.65 l -0.009,-0.04 c 0.158,0.824 0.466,1.614 0.91,2.33 z" />
            <path
               id="path10019"
               fill="#50761e"
               d="M 28.842,53.375 C 23.02,49.315 18.555,43.575 16.035,36.909 l -2.806,-7.42 c -0.706,-1.868 -0.749,-3.924 -0.122,-5.821 0.622,-1.88 1.96,-3.435 3.72,-4.321 1.952,-0.983 4.234,-1.051 6.24,-0.185 2.335,1.008 4.201,2.874 5.219,5.218 l 0.383,0.881 c 3.184,7.331 7.868,13.902 13.745,19.285 1.144,1.047 1.904,2.452 2.158,3.988 0.363,2.195 -0.348,4.432 -1.911,6.006 -1.493,1.504 -3.591,2.229 -5.686,1.965 -2.921,-0.367 -5.711,-1.441 -8.133,-3.13 z" />
            <path
               id="path10021"
               fill="#6ea22a"
               d="m 43.629,53.315 c -0.853,0.235 -1.753,0.304 -2.653,0.191 -2.922,-0.368 -5.713,-1.442 -8.134,-3.131 -5.822,-4.06 -10.287,-9.8 -12.807,-16.466 l -2.806,-7.42 c -0.706,-1.868 -0.749,-3.924 -0.122,-5.821 0.21,-0.636 0.503,-1.234 0.865,-1.782 1.632,-0.503 3.399,-0.428 4.998,0.236 -0.48,1.767 -0.392,3.647 0.258,5.367 l 2.806,7.42 c 2.521,6.665 6.986,12.406 12.807,16.466 1.736,1.21 3.661,2.105 5.689,2.65 l 0.009,-0.04 c -0.158,0.824 -0.466,1.614 -0.91,2.33 z" />
            <path
               id="path10023"
               fill="#758190"
               d="m 45.666,8.5592 h -28 c -1.105,0 -2,-0.895 -2,-2 v -4 c 0,-1.105 0.895,-2 2,-2 h 28 c 1.105,0 2,0.895 2,2 v 4 c 0,1.105 -0.895,2 -2,2 z" />
            <path
               id="path10025"
               fill="#8892a0"
               d="m 45.666,3.5592 h -28 c -1.105,0 -2,0.895 -2,2 v 1 c 0,1.105 0.895,2 2,2 h 28 c 1.105,0 2,-0.895 2,-2 v -1 c 0,-1.105 -0.895,-2 -2,-2 z" />
            <g
               id="g10041"
               stroke="null"
               fill="#a8b0bc">
              <path
                 id="path10027"
                 d="m 18.666,3.5582 h 2 v 4.999 h -2 z" />
              <path
                 id="path10029"
                 d="m 22.666,3.5582 h 2 v 4.999 h -2 z" />
              <path
                 id="path10031"
                 d="m 26.666,3.5582 h 2 v 4.999 h -2 z" />
              <path
                 id="path10033"
                 d="m 30.666,3.5582 h 2 v 4.999 h -2 z" />
              <path
                 id="path10035"
                 d="m 34.666,3.5582 h 2 v 4.999 h -2 z" />
              <path
                 id="path10037"
                 d="m 38.666,3.5582 h 2 v 4.999 h -2 z" />
              <path
                 id="path10039"
                 d="m 42.666,3.5582 h 2 v 4.999 h -2 z" />
            </g>
            <g
               id="g10047"
               fill="#ebf7fe">
              <path
                 id="path10043"
                 d="M 16.86,13.036 H 16.859 Z" />
              <path
                 id="path10045"
                 d="m 17.666,8.5592 v 1.076 c 0,1.206 -0.286,2.366 -0.806,3.402 l 2.138,0.855 c 1.102,0.44 2.278,0.667 3.465,0.667 1.449,0 2.877,-0.337 4.173,-0.985 l 0.059,-0.03 c 1.296,-0.648 2.725,-0.985 4.174,-0.985 h 0.594 c 0.689,0 1.373,0.082 2.041,0.231 0.263,-1.384 0.446,-2.797 0.549,-4.231 z" />
            </g>
          </g>
          <g
             id="g10095"
             stroke-width="null"
             stroke-opacity="null"
             fill="#8cc736">
            <ellipse
               id="ellipse10051"
               ry="16.1"
               rx="9.8999996"
               cy="302.47"
               cx="417.76001" />
            <ellipse
               id="ellipse10053"
               ry="16.1"
               rx="9.8999996"
               cy="334.29999"
               cx="410.79999"
               transform="rotate(-42.251,410.8,334.3)" />
            <ellipse
               id="ellipse10055"
               ry="16.1"
               rx="9.8999996"
               cy="333.69"
               cx="426.34"
               transform="rotate(38.039,426.34,333.69)" />
            <ellipse
               id="ellipse10057"
               ry="16.1"
               rx="9.8999996"
               cy="365.82001"
               cx="411.41"
               transform="rotate(-42.251,411.41,365.82)" />
            <ellipse
               id="ellipse10059"
               ry="16.1"
               rx="9.8999996"
               cy="365.20999"
               cx="426.95001"
               transform="rotate(38.039,426.95,365.21)" />
            <ellipse
               id="ellipse10061"
               ry="16.1"
               rx="9.8999996"
               cy="396.12"
               cx="411.41"
               transform="rotate(-42.251,411.41,396.12)" />
            <ellipse
               id="ellipse10063"
               ry="16.1"
               rx="9.8999996"
               cy="395.51001"
               cx="426.95001"
               transform="rotate(38.039,426.95,395.51)" />
            <ellipse
               id="ellipse10065"
               ry="16.1"
               rx="9.8999996"
               cy="464.89001"
               cx="411.10001"
               transform="rotate(37.735,411.1,464.89)" />
            <ellipse
               id="ellipse10067"
               ry="16.1"
               rx="9.8999996"
               cy="430.95001"
               cx="420.79001" />
            <ellipse
               id="ellipse10069"
               ry="16.1"
               rx="9.8999996"
               cy="465.5"
               cx="425.64001"
               transform="rotate(-32.201,425.64,465.5)" />
            <ellipse
               id="ellipse10071"
               ry="16.1"
               rx="9.8999996"
               cy="137.71001"
               cx="260.62" />
            <ellipse
               id="ellipse10073"
               ry="16.1"
               rx="9.8999996"
               cy="169.53999"
               cx="253.66"
               transform="rotate(-42.251,253.66,169.54)" />
            <ellipse
               id="ellipse10075"
               ry="16.1"
               rx="9.8999996"
               cy="168.92999"
               cx="269.20001"
               transform="rotate(38.039,269.2,168.93)" />
            <ellipse
               id="ellipse10077"
               ry="16.1"
               rx="9.8999996"
               cy="201.05"
               cx="254.27"
               transform="rotate(-42.251,254.27,201.05)" />
            <ellipse
               id="ellipse10079"
               ry="16.1"
               rx="9.8999996"
               cy="200.45"
               cx="269.81"
               transform="rotate(38.039,269.81,200.45)" />
            <ellipse
               id="ellipse10081"
               ry="16.1"
               rx="9.8999996"
               cy="364.47"
               cx="112.77" />
            <ellipse
               id="ellipse10083"
               ry="16.1"
               rx="9.8999996"
               cy="396.29999"
               cx="105.81"
               transform="rotate(-42.251,105.81,396.3)" />
            <ellipse
               id="ellipse10085"
               ry="16.1"
               rx="9.8999996"
               cy="395.69"
               cx="121.35"
               transform="rotate(38.039,121.35,395.69)" />
            <ellipse
               id="ellipse10087"
               ry="16.1"
               rx="9.8999996"
               cy="427.81"
               cx="106.41"
               transform="rotate(-42.251,106.41,427.81)" />
            <ellipse
               id="ellipse10089"
               ry="16.1"
               rx="9.8999996"
               cy="427.20999"
               cx="121.95"
               transform="rotate(38.039,121.95,427.21)" />
            <ellipse
               id="ellipse10091"
               ry="16.1"
               rx="9.8999996"
               cy="458.12"
               cx="106.41"
               transform="rotate(-42.251,106.41,458.12)" />
            <ellipse
               id="ellipse10093"
               ry="16.1"
               rx="9.8999996"
               cy="457.51001"
               cx="121.95"
               transform="rotate(38.039,121.95,457.51)" />
          </g>
          <g
             id="g10113"
             stroke-width="null"
             stroke-opacity="null"
             fill="#ffffff">
            <ellipse
               id="ellipse10097"
               ry="13.01"
               rx="10.036"
               cy="219.74001"
               cx="180.8"
               transform="rotate(-33.729,180.8,219.74)" />
            <ellipse
               id="ellipse10099"
               ry="26.124001"
               rx="20.153"
               cy="267.98001"
               cx="230.59"
               transform="rotate(-33.729,230.59,267.98)" />
            <ellipse
               id="ellipse10101"
               ry="19.240999"
               rx="25.202"
               cy="227.5"
               cx="369"
               transform="rotate(21.278,369,227.5)" />
            <ellipse
               id="ellipse10103"
               ry="9.2039003"
               rx="12.018"
               cy="251.47"
               cx="336.54999"
               transform="rotate(21.278,336.55,251.47)" />
            <ellipse
               id="ellipse10105"
               ry="11.725"
               rx="9.0446997"
               cy="273.85999"
               cx="93.787003"
               transform="rotate(-38.314,93.787,273.86)" />
            <ellipse
               id="ellipse10107"
               ry="19.094"
               rx="13.686"
               cy="317.57999"
               cx="96.550003"
               transform="rotate(-39.103,96.55,317.58)" />
            <ellipse
               id="ellipse10109"
               ry="6.6107998"
               rx="5.0997"
               cy="415.84"
               cx="385.91"
               transform="rotate(-38.314,385.91,415.84)" />
            <ellipse
               id="ellipse10111"
               ry="10.798"
               rx="8.3298998"
               cy="444.54001"
               cx="391.04001"
               transform="rotate(-38.314,391.04,444.54)" />
          </g>
        </g>
      </g>
    </g>
    <g
       id="g10217"
       transform="matrix(0.00464738,0,0,-0.00464738,24.693027,115.02172)">
      <g
         id="g10143"
         stroke-width="24.685">
        <path
           id="path10121"
           fill="#60b7ff"
           d="m -3053.4,7919.7 c 55.046,0 141.69,-1.4811 246.85,-3.7027 -300.17,-5.6775 -752.39,-16.045 -1053.3,-9.8739 330.78,4.1964 668.47,13.577 806.45,13.577 z" />
        <path
           id="path10123"
           fill="#60b7ff"
           d="m -1753.2,7906.1 c -300.91,-6.1712 -752.88,4.1964 -1053.3,9.8739 105.4,2.2216 192.05,3.7027 246.85,3.7027 137.99,0 475.43,-9.3802 806.45,-13.577 z" />
        <path
           id="path10125"
           fill="#c4e2ff"
           d="m -1518.8,18583 -2087,2.419 v 780.55 l 2087,-2.419 z" />
        <path
           id="path10127"
           fill="#b3dafe"
           d="m -3605.8,19331 h 2086.9 v -360.62 h -2086.9 z" />
        <path
           id="path10129"
           fill="#fcd4d4"
           d="m -479.22,10923 c -47.049,618.52 -21.623,1242.8 108.24,1851 101.75,476.56 130.53,1035.8 130.53,1521.6 h -4636.4 c 0,-485.77 26.611,-1045 128.36,-1521.6 129.86,-608.18 155.32,-1232.5 108.24,-1851 -55.491,-729.34 -273.51,-1433.7 -267.14,-2161.6 3.95,-452.08 242.8,-946.83 754,-1014.5 272,-35.99 1318.6,0 1593.6,0 274.99,0 1321.6,-35.99 1593.6,0 511.17,67.662 750.02,562.44 754,1014.5 6.368,727.9 -211.67,1432.2 -267.14,2161.6 z" />
        <path
           id="path10131"
           fill="#ffaaaa"
           d="m -212.06,8761.5 c -4.048,-452.03 -242.9,-946.93 -754.04,-1014.4 -131.22,-17.253 -442.13,-18.02 -759.87,-13.972 107.87,2.2973 196.44,6.5925 252.28,13.972 511.15,67.514 749.97,562.42 754.05,1014.4 6.342,727.9 -211.67,1432.2 -267.26,2161.6 -46.95,618.5 -21.575,1242.8 108.37,1851 101.78,476.64 130.46,1035.8 130.46,1521.6 h 507.59 c 0,-485.77 -28.683,-1045 -130.46,-1521.6 -129.94,-608.11 -155.32,-1232.5 -108.37,-1851 55.591,-729.43 273.61,-1433.7 267.26,-2161.6 z" />
        <path
           id="path10133"
           fill="#ff6666"
           d="m -1361.3,19331 h -2396.8 c -72.155,0 -130.66,58.503 -130.66,130.66 v 777.12 c 0,72.155 58.503,130.66 130.66,130.66 h 2396.8 c 72.156,0 130.66,-58.503 130.66,-130.66 v -777.12 c 0,-72.152 -58.502,-130.66 -130.66,-130.66 z" />
        <path
           id="path10135"
           fill="#fcd4d4"
           d="m -240.47,16812 -1278.1,1800.2 h -2086.5 l -1267.8,-1800.2 -3.874,-5.507 v -68.399 h 4636.3 z" />
        <path
           id="path10137"
           fill="#ffaaaa"
           d="m -240.47,16812 h -508.8 l -1276.4,1800.2 h 507.1 z" />
        <path
           id="path10139"
           fill="#0593fc"
           d="m -240.44,14225 h -4636.3 v 2581.5 l 4636.3,5.557 z" />
        <path
           id="path10141"
           fill="#0182fc"
           d="m -749.27,16812 h 508.8 v -2587 h -508.8 z" />
      </g>
      <g
         id="g10207"
         stroke="null"
         transform="matrix(24.685,0,0,-24.685,-8879,20370)">
        <path
           id="path10145"
           fill="#5eac24"
           d="m 285.51,256.86 c -23.441,-2.4397 -41.353,-14.894 -40.008,-27.816 1.3449,-12.923 21.438,-21.422 44.879,-18.982 23.441,2.4397 51.188,17.681 50.025,28.859 -1.1633,11.178 -31.454,20.38 -54.895,17.94 z" />
        <path
           id="path10147"
           fill="#4e901e"
           d="m 290.38,210.06 c -23.441,-2.4397 -43.534,6.0591 -44.879,18.982 l 25.943,-4.7806 c 14.351,-2.6445 29.157,-1.1848 42.715,4.2113 l 26.246,10.446 c 1.1629,-11.178 -26.584,-26.419 -50.025,-28.859 z" />
        <path
           id="path10149"
           fill="#47821c"
           d="m 322.26,240.1 -74.818,-7.7864 c -1.681,-0.17491 -2.9016,-1.6796 -2.7267,-3.3602 0.1749,-1.6806 1.6813,-2.8993 3.3602,-2.7267 l 74.818,7.7863 c 1.6809,0.17491 2.9016,1.6796 2.7267,3.3602 -0.16349,1.5732 -1.3764,2.8962 -3.3602,2.7267 z" />
        <path
           id="path10151"
           fill="#6dc82a"
           d="m 295.13,231.75 c -19.709,-12.923 -41.461,-14.591 -48.585,-3.7251 -7.124,10.8659 3.0772,30.15 22.786,43.072 19.708,12.923 50.845,18.646 57.007,9.2474 6.1625,-9.3981 -11.499,-35.672 -31.207,-48.595 z" />
        <path
           id="path10153"
           fill="#5eac24"
           d="m 269.33,271.1 c -19.709,-12.923 -29.91,-32.207 -22.786,-43.072 l 18.403,23.585 c 7.9109,10.139 18.916,17.417 31.342,20.728 l 30.047,8.0062 c -6.1625,9.3985 -37.298,3.6755 -57.007,-9.247 z" />
        <path
           id="path10155"
           fill="#47821c"
           d="m 313.02,267.95 -20.586,-13.499 9.1322,-1.7384 c 1.6601,-0.31625 2.7499,-1.9176 2.4336,-3.5781 -0.31624,-1.6601 -1.9173,-2.7509 -3.5781,-2.4336 l -15.352,2.9218 -11.03,-7.2321 9.1322,-1.7384 c 1.6601,-0.31624 2.7499,-1.9176 2.4336,-3.5781 -0.31624,-1.6605 -1.918,-2.7506 -3.5781,-2.4336 l -15.352,2.9218 -16.561,-10.86 c -1.4134,-0.92693 -3.3102,-0.53212 -4.2368,0.88092 -0.92658,1.413 -0.53211,3.3102 0.88093,4.2368 l 16.562,10.86 3.4405,15.243 c 0.77517,3.0245 3.4321,2.3624 3.6583,2.3114 1.6487,-0.37197 2.6834,-2.01 2.3114,-3.6583 l -2.0469,-9.0678 11.03,7.2321 3.4404,15.243 c 0.77619,2.9943 3.4317,2.3624 3.6583,2.3114 1.6487,-0.37197 2.6834,-2.01 2.3114,-3.6583 l -2.0469,-9.0678 20.586,13.499 c 2.0831,1.1559 3.6493,0.0148 4.2368,-0.88092 0.92726,-1.414 0.53312,-3.3112 -0.87992,-4.2378 z" />
        <path
           id="path10157"
           fill="#91dc5a"
           d="m 223.49,256.86 c 23.441,-2.4397 41.353,-14.894 40.008,-27.816 -1.3449,-12.923 -21.438,-21.422 -44.879,-18.982 -23.441,2.4397 -51.188,17.681 -50.025,28.859 1.1629,11.178 31.454,20.379 54.895,17.94 z" />
        <path
           id="path10159"
           fill="#6dc82a"
           d="m 218.62,210.06 c 23.441,-2.4397 43.534,6.0591 44.879,18.982 l -29.142,-6.385 c -13.822,-3.0282 -28.257,-1.4013 -41.058,4.6276 l -24.703,11.634 c -1.1629,-11.178 26.584,-26.419 50.025,-28.859 z" />
        <path
           id="path10161"
           fill="#b6e892"
           d="m 213.87,231.75 c 19.709,-12.923 41.461,-14.591 48.585,-3.7251 7.124,10.8659 -3.0772,30.15 -22.786,43.072 -19.708,12.923 -50.845,18.646 -57.007,9.2474 -6.162,-9.3986 11.498,-35.672 31.207,-48.595 z" />
        <path
           id="path10163"
           fill="#91dc5a"
           d="m 239.67,271.1 c 19.709,-12.923 29.91,-32.207 22.786,-43.072 l -13.089,18.142 c -9.7174,13.468 -23.84,23.113 -39.921,27.264 l -26.783,6.9135 c 6.1625,9.3985 37.299,3.6755 57.007,-9.247 z" />
        <g
           id="g10169"
           fill="#47821c"
           transform="matrix(0.33572,0,0,0.33572,-463.22,-552.34)">
          <path
             id="path10165"
             d="m 1926,2352.3 c -0.521,-5.007 3.115,-9.488 8.122,-10.009 l 222.86,-23.193 c 5.007,-0.521 9.488,3.115 10.009,8.122 0.521,5.007 -3.115,9.488 -8.122,10.009 l -222.86,23.193 c -7.254,0.46 -9.521,-3.435 -10.009,-8.122 z" />
          <path
             id="path10167"
             d="m 2163.6,2323.1 c -2.76,-4.208 -8.41,-5.386 -12.62,-2.624 l -49.331,32.347 -45.728,-8.703 c -4.943,-0.943 -9.717,2.305 -10.658,7.249 -0.942,4.945 2.305,9.717 7.249,10.658 l 27.202,5.178 -32.855,21.542 -45.728,-8.703 c -4.943,-0.942 -9.717,2.305 -10.658,7.249 -0.942,4.945 2.305,9.717 7.249,10.658 l 27.202,5.178 -61.32,40.208 c -4.209,2.76 -5.385,8.41 -2.624,12.62 1.75,2.668 7.612,5.184 12.62,2.624 l 61.32,-40.208 -6.097,27.01 c -1.108,4.911 1.974,9.789 6.885,10.897 0.676,0.152 8.587,1.858 10.897,-6.885 l 10.248,-45.405 32.855,-21.542 -6.097,27.01 c -1.108,4.911 1.974,9.789 6.885,10.897 0.676,0.152 9.255,1.241 10.897,-6.885 l 10.248,-45.405 49.332,-32.348 c 4.213,-2.757 5.388,-8.408 2.627,-12.617 z" />
        </g>
        <path
           id="path10171"
           fill="#c70024"
           d="m 317.45,160.88 c 0,0 3.5653,-29.413 -25.044,-24.217 -2.6529,0.48175 -5.3497,-0.49821 -7.1384,-2.5162 -6.1541,-6.9407 -21.907,-19.266 -39.066,10.352 -0.81009,0.21956 37.784,28.554 37.784,28.554 z" />
        <g
           id="g10177"
           fill="#d80027"
           transform="matrix(0.33572,0,0,0.33572,-463.22,-552.34)">
          <path
             id="path10173"
             d="m 1952.5,2124.4 c 0,0 -10.62,-87.611 74.597,-72.136 7.903,1.435 15.935,-1.484 21.263,-7.495 18.331,-20.674 65.255,-57.388 116.36,30.835 2.413,0.654 -112.55,85.054 -112.55,85.054 z" />
          <path
             id="path10175"
             d="m 2235.4,2123 c 0,0 53.807,-26.748 113.14,-5.545 9.341,3.338 13.542,14.185 8.871,22.935 -12.452,23.328 -33.625,71.073 -32.254,126.25 1.932,77.747 -100.82,155.49 -204.07,70.481 1.915,-2.782 114.31,-214.12 114.31,-214.12 z" />
        </g>
        <path
           id="path10179"
           fill="#c70024"
           d="m 297,157.16 c -0.65768,7.0118 -0.56334,17.236 3.9857,24.681 7.6014,12.441 16.753,48.234 -16.162,62.529 -10.85,1.4053 -23.385,-1.7615 -35.943,-12.1 0.64357,-0.93296 38.377,-71.884 38.377,-71.884 0,0 3.7607,-1.8693 9.7416,-3.2259 z" />
        <path
           id="path10181"
           fill="#ff0c38"
           d="m 221.74,160.38 c 0,0 -18.064,-8.9798 -37.982,-1.8616 -3.136,1.1206 -4.5463,4.7622 -2.9782,7.6997 4.1804,7.8317 11.289,23.861 10.828,42.384 -0.64861,26.101 33.846,52.201 68.509,23.662 -0.64324,-0.93397 -38.377,-71.884 -38.377,-71.884 z" />
        <path
           id="path10183"
           fill="#d80027"
           d="m 212,157.16 c 0.65767,7.0118 0.56333,17.236 -3.9857,24.681 -7.6014,12.441 -16.753,48.234 16.162,62.529 10.85,1.4053 23.385,-1.7615 35.943,-12.1 -0.64358,-0.93296 -38.377,-71.884 -38.377,-71.884 0,0 -3.7607,-1.8693 -9.7416,-3.2259 z" />
        <path
           id="path10185"
           fill="#ff0c38"
           d="m 288.23,147.99 c 0,0 -21.541,-27.344 -49.207,18.64 0.21117,0.15611 19.134,15.207 19.134,15.207 z" />
        <path
           id="path10187"
           fill="#d80027"
           d="m 239.08,166.68 c 1.1841,0.93061 19.072,15.159 19.072,15.159 l 30.073,-33.848 c 0,0 -0.98802,-1.2532 -2.811,-2.7717 h -10e-4 c 0,0 -23.565,-5.7945 -46.333,21.46 z" />
        <path
           id="path10189"
           fill="#ff3f62"
           d="m 220.77,147.99 c 0,0 21.541,-27.344 49.207,18.64 -0.21117,0.15611 -19.134,15.207 -19.134,15.207 z" />
        <path
           id="path10191"
           fill="#ff0c38"
           d="m 223.28,150.81 27.566,31.026 c 0,0 18.923,-15.052 19.134,-15.207 -1.7702,-2.9426 -3.5153,-5.5827 -5.2315,-7.9512 -2.7667,-2.6988 -16.694,-14.577 -41.469,-7.8676 z" />
        <path
           id="path10193"
           fill="#ff3f62"
           d="m 292.28,187.04 c -5.3927,-9.5227 -2.8828,-24.221 -2.8828,-24.221 l -6.5626,-7.0488 -28.335,26.71 -28.335,-26.71 -6.5626,7.0488 c 0,0 2.5098,14.698 -2.8828,24.221 -6.1766,10.908 -10.422,45.923 37.781,45.923 48.203,0 43.957,-35.015 37.781,-45.923 z" />
        <path
           id="path10195"
           fill="#ff0c38"
           d="m 264.77,172.8 -10.273,9.6838 -28.335,-26.71 -6.5626,7.0488 c 0,0 2.5098,14.698 -2.8828,24.221 -6.1766,10.908 -10.422,45.923 37.781,45.923 11.903,0 20.603,-2.1375 26.871,-5.5179 -2.2755,-25.062 -8.7592,-42.507 -16.598,-54.649 z" />
        <path
           id="path10197"
           fill="#ff728b"
           d="m 292.8,142.79 c -23.946,6.0812 -36.251,25.509 -42.078,39.046 l 7.6729,10.423 c 7.837,-2.9077 14.251,-6.8134 19.485,-11.18 2.9892,-2.4937 4.4584,-6.3679 3.9259,-10.224 l -0.98198,-7.1075 4.7001,-3.4e-4 c 4.4439,-3.4e-4 8.5021,-2.5867 10.319,-6.6422 1.3056,-2.9144 2.2782,-5.6082 2.9953,-7.9142 1.1676,-3.7513 -2.2298,-7.3677 -6.0376,-6.4008 z" />
        <path
           id="path10199"
           fill="#ff3f62"
           d="m 259.73,165.89 c -3.9914,5.48 -6.9188,11.089 -9.0077,15.941 l 7.6729,10.423 c 4.9438,-1.834 9.3199,-4.0662 13.192,-6.5596 -3.4834,-8.111 -7.5681,-14.605 -11.857,-19.805 z" />
        <path
           id="path10201"
           fill="#ff728b"
           d="m 263.5,195.69 -7.3402,-14.777 -1.6632,1.5678 -28.335,-26.71 -6.5626,7.0488 c 0,0 2.5098,14.698 -2.8828,24.221 -6.1769,10.908 -10.422,45.923 37.781,45.923 4.4936,0 8.53,-0.30517 12.153,-0.86582 1.3298,-17.918 -3.1494,-36.408 -3.1494,-36.408 z" />
        <path
           id="path10203"
           fill="#ff3f62"
           d="m 244.97,232.45 c -9.5099,-9.279 -14.539,-25.283 -10.28,-43.017 2.0898,-8.7039 1.9381,-17.257 0.72381,-24.939 l -9.2474,-8.7173 -6.5626,7.0488 c 0,0 2.5098,14.698 -2.8828,24.221 -5.7351,10.129 -9.797,41.041 28.249,45.404 z" />
        <path
           id="path10205"
           fill="#ffa5b5"
           d="m 210.78,149.19 c 0.71743,2.3057 1.6897,4.9995 2.9953,7.9142 1.8169,4.0555 5.8754,6.6419 10.319,6.6422 l 4.7001,3.3e-4 -0.98198,7.1075 c -0.53245,3.8557 0.93666,7.7306 3.9259,10.224 7.745,6.4612 18.058,11.921 31.768,14.615 0,0 -8.6948,-43.256 -46.689,-52.905 -3.8077,-0.96687 -7.2049,2.6495 -6.0376,6.4012 z" />
      </g>
      <g
         id="g10215"
         stroke-width="24.685"
         stroke-opacity="null"
         stroke="null"
         fill="#ffffff">
        <circle
           id="circle10209"
           r="481.35001"
           cy="-12113"
           cx="-3547.1001"
           transform="scale(1,-1)" />
        <circle
           id="circle10211"
           r="209.82001"
           cy="-10977"
           cx="-2460.8999"
           transform="scale(1,-1)" />
        <circle
           id="circle10213"
           r="160.45"
           cy="-10014"
           cx="-1547.6"
           transform="scale(1,-1)" />
      </g>
    </g>
    <g
       transform="translate(-37.041668)"
       id="g2511">
      <path
         style="clip-rule:evenodd;fill-rule:evenodd;stroke-width:0.0703637;image-rendering:optimizeQuality;shape-rendering:geometricPrecision;text-rendering:geometricPrecision"
         d="m 164.24269,67.64715 h -21.64012 l -0.47958,-0.529312 a 21.764416,19.219891 0 0 1 -4.11897,-16.668216 l 2.79522,-9.875428 h 25.24693 l 2.79523,9.875428 a 21.764416,19.219891 0 0 1 -4.11942,16.668216 z"
         fill="#ebebeb"
         id="path10231" />
      <g
         style="clip-rule:evenodd;fill-rule:evenodd;image-rendering:optimizeQuality;shape-rendering:geometricPrecision;text-rendering:geometricPrecision"
         transform="matrix(0.11271193,0,0,0.09953453,-62.62703,-192.84198)"
         fill="#e4e4e2"
         id="g10237">
        <path
           d="m 2053.6,2444.3 -24.8,-99.216 h -206.57 l -24.8,99.216 a 193.1,193.1 0 0 0 36.549,167.47 l 4.251,5.318 h 174.57 l 4.254,-5.318 A 193.1,193.1 0 0 0 2053.6,2444.3 Z"
           id="path10233" />
        <path
           d="m 2053.6,2444.3 -24.8,-99.216 h -206.57 l -24.8,99.216 a 193.1,193.1 0 0 0 36.549,167.47 l 4.251,5.318 h 174.57 l 4.254,-5.318 A 193.1,193.1 0 0 0 2053.6,2444.3 Z"
           id="path10235" />
      </g>
      <path
         style="clip-rule:evenodd;fill-rule:evenodd;stroke-width:0.0703637;image-rendering:optimizeQuality;shape-rendering:geometricPrecision;text-rendering:geometricPrecision"
         d="m 139.44682,45.35123 h 27.95223 l -0.67626,-2.388816 h -26.59921 z"
         fill="#d2d2d1"
         id="path10239" />
      <rect
         style="clip-rule:evenodd;fill-rule:evenodd;stroke-width:0.105919;image-rendering:optimizeQuality;shape-rendering:geometricPrecision;text-rendering:geometricPrecision"
         x="138.99208"
         y="34.206245"
         width="28.854254"
         height="6.3702097"
         rx="1.8033909"
         fill="#ce9c77"
         id="rect10241" />
      <g
         style="clip-rule:evenodd;fill-rule:evenodd;image-rendering:optimizeQuality;shape-rendering:geometricPrecision;text-rendering:geometricPrecision"
         fill="#be906e"
         id="g10249"
         transform="matrix(0.07487672,0,0,0.06612272,134.24633,33.872987)">
        <path
           d="m 508.93,173.59 c -31.642,0 -31.642,24.084 -63.283,24.084 -31.641,0 -31.621,-48.169 -63.241,-48.169 -31.593,0 -31.593,48.169 -63.185,48.169 -31.592,0 -31.611,-48.169 -63.222,-48.169 -31.611,0 -31.602,48.169 -63.203,48.169 -31.602,0 -31.6,-48.169 -63.202,-48.169 -31.602,0 -31.602,48.169 -63.202,48.169 -31.6,0 -31.585,-24.084 -63.172,-24.084 v -0.0662 a 50.485,50.485 0 0 1 34.113,-47.756 l 47.172,-24.431 h 343.2 l 47.115,24.41 a 50.488,50.488 0 0 1 34.108,47.844 z"
           id="path10243" />
        <path
           d="m 400.61,65.215 h -48.169 a 12.042,12.042 0 0 1 0,-24.084 h 48.169 a 12.042,12.042 0 0 1 -1e-5,24.084 z"
           id="path10245" />
        <path
           d="m 304.28,65.215 h -12.042 a 12.042,12.042 0 0 1 0,-24.084 h 12.042 a 12.042,12.042 0 0 1 0,24.084 z"
           id="path10247" />
      </g>
      <path
         style="clip-rule:evenodd;fill-rule:evenodd;stroke-width:0.0703637;image-rendering:optimizeQuality;shape-rendering:geometricPrecision;text-rendering:geometricPrecision"
         d="M 169.65328,42.16676 V 42.12137 L 166.272,40.574234 h -25.69769 l -3.48214,1.592499 z"
         fill="#b28768"
         id="path10251" />
      <path
         style="clip-rule:evenodd;fill-rule:evenodd;stroke-width:0.0703637;image-rendering:optimizeQuality;shape-rendering:geometricPrecision;text-rendering:geometricPrecision"
         d="m 168.84162,50.449292 -0.0902,-0.3201 h -30.65677 l -0.0902,0.3201 a 21.764416,19.219891 0 0 0 4.11957,16.668215 l 0.47902,0.529312 h 21.64012 l 0.47946,-0.529312 a 21.764416,19.219891 0 0 0 4.11912,-16.668215 z"
         fill="#ffc45b"
         id="path10253" />
      <path
         style="clip-rule:evenodd;fill-rule:evenodd;stroke-width:0.0703637;image-rendering:optimizeQuality;shape-rendering:geometricPrecision;text-rendering:geometricPrecision"
         d="m 168.84162,50.449292 -0.0902,-0.3201 H 140.0587 l -0.0902,0.3201 a 21.764416,19.219891 0 0 0 4.11957,16.668215 l 0.47901,0.529312 h 19.67611 l 0.47946,-0.529312 a 21.764416,19.219891 0 0 0 4.11912,-16.668215 z"
         fill="#fdb62f"
         id="path10255" />
      <path
         style="clip-rule:evenodd;fill-rule:evenodd;stroke-width:0.0703637;image-rendering:optimizeQuality;shape-rendering:geometricPrecision;text-rendering:geometricPrecision"
         d="m 148.48489,59.090209 v 2.517953 l 2.46936,1.258976 2.46936,-1.258976 v -2.517953 l 3.60628,-0.20225 -0.90166,-0.79625 -2.70507,-3.185065 v 0.79625 l -1.80333,1.592499 -0.66555,0.535786 z"
         fill="#d38e14"
         id="path10257" />
      <path
         style="clip-rule:evenodd;fill-rule:evenodd;stroke-width:0.0703637;image-rendering:optimizeQuality;shape-rendering:geometricPrecision;text-rendering:geometricPrecision"
         d="m 143.06681,61.961918 a 0.90248911,0.79697714 0 0 1 -0.82687,-0.477756 l -0.43743,-0.884127 a 16.687775,14.736771 0 0 1 -1.20678,-8.14698 0.90166546,0.79624979 0 1 1 1.78161,0.240971 14.886241,13.145858 0 0 0 1.07695,7.267548 l 0.438,0.884524 a 0.90248911,0.79697714 0 0 1 -0.82597,1.11549 z"
         fill="#ffc45b"
         id="path10259" />
      <path
         style="clip-rule:evenodd;fill-rule:evenodd;stroke-width:0.0703637;image-rendering:optimizeQuality;shape-rendering:geometricPrecision;text-rendering:geometricPrecision"
         d="m 150.95432,55.304022 v 2.517953 l 2.46936,1.258977 2.46936,-1.258977 v -2.517953 l -2.46936,-1.258977 z"
         fill="#dc9315"
         id="path10261" />
      <path
         style="clip-rule:evenodd;fill-rule:evenodd;stroke-width:0.0703637;image-rendering:optimizeQuality;shape-rendering:geometricPrecision;text-rendering:geometricPrecision"
         d="m 153.42301,59.092192 v 2.517954 l 2.46936,1.258976 2.46936,-1.258976 v -2.517954 l -2.46936,-1.258976 z"
         fill="#ec9e15"
         id="path10263" />
    </g>
    <polygon
       class="fil77"
       transform="matrix(0.0623211,0,0,0.05036652,-854.30289,-138.5246)"
       points="15813,4157 13870,4157 13870,4902 15813,4902 "
       fill="#7e3a1a"
       image-rendering="optimizeQuality"
       id="polygon10295"
       style="clip-rule:evenodd;shape-rendering:geometricPrecision" />
    <polygon
       class="fil85"
       transform="matrix(0.0623211,0,0,0.05036652,-854.30289,-138.5246)"
       points="15570,4123 15388,4123 15388,4847 15570,4847 "
       fill="#d38048"
       image-rendering="optimizeQuality"
       id="polygon10297"
       style="clip-rule:evenodd;shape-rendering:geometricPrecision" />
    <polygon
       class="fil85"
       transform="matrix(0.0623211,0,0,0.05036652,-854.30289,-138.5246)"
       points="13961,4123 13779,4123 13779,4847 13961,4847 "
       fill="#d38048"
       image-rendering="optimizeQuality"
       id="polygon10299"
       style="clip-rule:evenodd;shape-rendering:geometricPrecision" />
    <path
       class="fil86"
       d="m 102.98557,81.823759 c 0,1.057748 -1.07107,1.913891 -2.39416,1.913891 -1.323046,0 -2.394169,-0.856176 -2.394169,-1.913891 L 1.0463335,81.320076 v 6.900375 l 0.8820564,2.065062 -0.8820564,1.56143 v 7.403891 L 85.59787,98.394658 117.28796,98.646449 V 81.823941 l -14.36483,-0.0504 z"
       fill="#ffbc80"
       image-rendering="optimizeQuality"
       stroke-width="0.0563318"
       id="path10301"
       style="clip-rule:evenodd;shape-rendering:geometricPrecision" />
    <polygon
       class="fil86"
       transform="matrix(0.06300355,0,0,0.05036652,-864.94305,-138.5246)"
       points="15591,3975 13745,3975 13745,4062 13769,4097 13745,4138 13745,4332 15087,4316 15086,4295 15284,4313 15591,4309 "
       fill="#ffbc80"
       image-rendering="optimizeQuality"
       id="polygon10303"
       style="clip-rule:evenodd;shape-rendering:geometricPrecision" />
    <path
       class="fil87"
       d="m 2.3063246,73.859559 c 0,0 14.8947084,-2.518409 21.5000264,-1.309539 6.668402,1.208753 13.897611,3.021925 28.667806,1.863556 14.77003,-1.158434 22.559712,-6.598033 35.024263,-7.15205 12.46422,-0.554082 29.78875,2.87092 29.78875,2.87092 v 8.41142 c 0,0 -11.71631,-0.956946 -18.509722,-2.417573 -6.793081,-1.460661 -14.022289,-4.281296 -21.625864,-1.561447 -7.665501,2.719915 -11.030829,3.878284 -16.452778,2.921255 -5.484203,-0.956946 -6.356788,-1.712385 -12.713411,-1.10805 -6.356789,0.604468 -24.430719,3.122761 -24.430719,3.122761 L 2.365932,79.702318 v -5.792341 z"
       fill="#ffb675"
       image-rendering="optimizeQuality"
       stroke-width="0.0560259"
       id="path10305"
       style="clip-rule:evenodd;shape-rendering:geometricPrecision" />
    <path
       class="fil86"
       d="m 87.425089,100.4676 -8.379495,0.60437 -6.426398,-0.60437 H 46.347491 c 0,1.20885 -1.512092,2.21607 -3.402182,2.21607 -1.827051,0 -3.339242,-1.00725 -3.339242,-2.21607 H 1.1116152 v 8.96527 l 6.5524428,2.56875 -6.5524428,1.25914 v 3.47543 l 84.5515358,-0.75554 12.411729,-0.10072 19.27986,-0.15108 V 100.51788 H 87.427264 Z"
       fill="#ffbc80"
       image-rendering="optimizeQuality"
       stroke-width="0.0563318"
       id="path10307"
       style="clip-rule:evenodd;shape-rendering:geometricPrecision" />
    <g
       transform="matrix(0.01655759,0,0,-0.01655759,1.3931903,354.31196)"
       fill="#e59351"
       id="g10319"
       style="clip-rule:evenodd;shape-rendering:geometricPrecision">
      <path
         class="fil88"
         d="m 183.12,17300 c 0,0 2939.6,18.251 3620.9,0 681.27,-18.251 1227,-24.338 1227,-24.338 0,0 -3895.6,-127.76 -4847.9,24.338 z"
         image-rendering="optimizeQuality"
         stroke-width="3.3837"
         id="path10309" />
      <polygon
         class="fil88"
         transform="matrix(3.7639,0,0,-3.0419,-51680,29765)"
         points="15086,4295 15284,4313 15084,4273 "
         image-rendering="optimizeQuality"
         id="polygon10311" />
      <polygon
         class="fil88"
         transform="matrix(3.7639,0,0,-3.0419,-51680,29765)"
         points="15591,4076 15591,4053 15512,4061 "
         image-rendering="optimizeQuality"
         id="polygon10313" />
      <path
         class="fil88"
         d="m 3800.2,17050 c 0,0 1494.3,39.545 2156.7,30.419 662.45,-9.125 1046.4,-30.419 1046.4,-30.419 v -91.259 z"
         image-rendering="optimizeQuality"
         stroke-width="3.3837"
         id="path10315" />
      <polygon
         class="fil88"
         transform="matrix(3.7639,0,0,-3.0419,-51680,29765)"
         points="13747,4507 13759,4543 14423,4550 "
         image-rendering="optimizeQuality"
         id="polygon10317" />
    </g>
    <g
       transform="matrix(0.01655759,0,0,-0.01655759,1.3931903,354.31196)"
       stroke-width="3.3837"
       id="g10327"
       style="clip-rule:evenodd;shape-rendering:geometricPrecision">
      <path
         class="fil87"
         d="m 55.149,15769 c 0,0 459.2,51.715 1151.8,0 692.56,-51.714 1012.5,-112.55 1324.9,-79.089 312.4,33.457 643.63,258.56 809.24,255.52 165.61,-3.044 1313.6,-212.94 1923.4,-149.06 609.75,60.84 0,249.44 312.4,349.82 312.4,103.43 846.88,-27.377 989.91,-158.18 143.03,-130.8 436.61,-307.23 436.61,-307.23 v -243.36 l -6944.4,-33.459 v 368.07 z"
         fill="#ffb675"
         image-rendering="optimizeQuality"
         id="path10321" />
      <path
         class="fil88"
         d="m 3661,14985 c 0,0 -308.64,54.759 -402.74,-15.206 -94.098,-69.965 474.25,-158.18 575.88,-88.215 101.63,69.959 -173.14,103.42 -173.14,103.42 z"
         fill="#e59351"
         image-rendering="optimizeQuality"
         id="path10323" />
      <path
         class="fil88"
         d="m 2870.5,17084 c -18.82,9.126 -41.403,12.164 -67.75,18.251 -75.279,9.126 -278.53,33.458 -199.49,-21.295 94.098,-63.883 395.21,-48.669 263.47,6.083 z"
         fill="#e59351"
         image-rendering="optimizeQuality"
         id="path10325" />
    </g>
    <polygon
       class="fil87"
       transform="matrix(0.0623211,0,0,0.05036652,-854.30289,-138.5246)"
       points="15591,5047 13745,5068 13745,4999 15591,4947 "
       fill="#ffb675"
       image-rendering="optimizeQuality"
       id="polygon10329"
       style="clip-rule:evenodd;shape-rendering:geometricPrecision" />
    <polygon
       class="fil89"
       transform="matrix(0.0623211,0,0,0.05036652,-854.30289,-138.5246)"
       points="15801,4068 15824,4062 15824,4772 15801,4778 "
       fill="#ae4c0a"
       image-rendering="optimizeQuality"
       id="polygon10331"
       style="clip-rule:evenodd;shape-rendering:geometricPrecision" />
    <polygon
       class="fil89"
       transform="matrix(0.0623211,0,0,0.05036652,-854.30289,-138.5246)"
       points="15595,4119 15618,4113 15618,4823 15595,4829 "
       fill="#ae4c0a"
       image-rendering="optimizeQuality"
       id="polygon10333"
       style="clip-rule:evenodd;shape-rendering:geometricPrecision" />
    <path
       class="fil90"
       d="m 130.25096,78.859951 c 0,1.007363 -0.12464,1.913891 -0.31162,1.913891 -0.18697,0.05038 -0.3116,-0.755457 -0.3116,-1.813055 l -12.33954,2.921255 v 16.671833 l 10.71922,-2.971756 3.98856,-0.554066 V 78.55789 l -1.80727,0.302193 z"
       fill="#e2934c"
       image-rendering="optimizeQuality"
       stroke-width="0.0560259"
       id="path10335"
       style="clip-rule:evenodd;shape-rendering:geometricPrecision" />
    <polygon
       class="fil90"
       transform="matrix(0.0623211,0,0,0.05036652,-854.30289,-138.5246)"
       points="15591,4310 15763,4267 15762,4247 15788,4258 15827,4245 15827,3917 15591,3975 "
       fill="#e2934c"
       image-rendering="optimizeQuality"
       id="polygon10337"
       style="clip-rule:evenodd;shape-rendering:geometricPrecision" />
    <path
       class="fil91"
       d="m 117.35094,73.611195 c 0,0 1.93194,-2.87092 2.7421,-1.863556 0.8725,1.007264 1.80726,2.619079 3.67694,1.108067 1.86969,-1.511045 2.86679,-7.05138 4.48711,-7.907738 1.62037,-0.856276 3.80162,2.014728 3.80162,2.014728 v 8.260248 c 0,0 -1.49568,-0.65477 -2.36824,-1.913892 -0.87249,-1.259154 -1.80725,-3.878283 -2.80451,-1.007379 -0.9971,2.871085 -1.43336,4.079788 -2.11888,3.273931 -0.68555,-0.805857 -0.81021,-1.511029 -1.62034,-0.755456 -0.8102,0.755456 -5.85824,3.626442 -5.85824,3.626442 v -4.935982 z"
       fill="#e28c3f"
       image-rendering="optimizeQuality"
       stroke-width="0.0560259"
       id="path10339"
       style="clip-rule:evenodd;shape-rendering:geometricPrecision" />
    <path
       class="fil90"
       d="m 128.25742,97.536909 -1.05946,0.805857 -0.81014,-0.402979 -3.30308,0.654787 c 0,1.208852 -0.18692,2.216236 -0.43622,2.266566 -0.24931,0.0504 -0.43625,-0.906654 -0.43625,-2.115561 l -4.86098,1.712551 v 15.16046 l 10.71921,-2.87092 1.55802,-0.40298 2.43049,-0.65477 V 96.781137 Z"
       fill="#e2934c"
       image-rendering="optimizeQuality"
       stroke-width="0.0560259"
       id="path10341"
       style="clip-rule:evenodd;shape-rendering:geometricPrecision" />
    <polygon
       class="fil92"
       transform="matrix(0.0623211,0,0,0.05036652,-854.30289,-138.5246)"
       points="15762,4247 15788,4258 15762,4225 "
       fill="#c36315"
       image-rendering="optimizeQuality"
       id="polygon10343"
       style="clip-rule:evenodd;shape-rendering:geometricPrecision" />
    <g
       transform="matrix(0.01655759,0,0,-0.01655759,1.3931903,354.31196)"
       stroke-width="3.3837"
       id="g10351"
       style="clip-rule:evenodd;shape-rendering:geometricPrecision">
      <path
         class="fil91"
         d="m 7003.3,15809 c 0,0 60.221,60.835 146.79,30.414 90.334,-33.457 127.97,-85.172 169.37,-45.628 41.403,39.547 82.806,270.74 105.39,270.74 22.583,0 169.37,-173.39 244.65,-97.341 79.043,76.047 0,243.35 41.403,352.86 41.402,109.51 109.15,-6.088 127.97,-130.81 18.819,-124.72 56.459,-292.02 56.459,-292.02 v -237.27 l -892.04,-219.02 v 371.11 z"
         fill="#e28c3f"
         image-rendering="optimizeQuality"
         id="path10345" />
      <path
         class="fil92"
         d="m 7462.5,15128 c 0,0 -41.402,45.627 -52.694,-27.382 -11.291,-69.965 60.222,-142.97 75.276,-69.965 11.292,69.965 -22.583,97.347 -22.583,97.347 z"
         fill="#c36315"
         image-rendering="optimizeQuality"
         id="path10347" />
      <path
         class="fil92"
         d="m 7360.9,17169 c -3.7622,6.081 -3.7622,12.169 -7.5261,15.207 -11.292,9.125 -37.64,24.338 -26.348,-27.377 11.292,-57.796 52.694,-36.501 33.874,12.17 z"
         fill="#c36315"
         image-rendering="optimizeQuality"
         id="path10349" />
    </g>
    <polygon
       class="fil91"
       transform="matrix(0.0623211,0,0,0.05036652,-854.30289,-138.5246)"
       points="15827,4968 15591,5047 15591,4978 15827,4870 "
       fill="#e28c3f"
       image-rendering="optimizeQuality"
       id="polygon10353"
       style="clip-rule:evenodd;shape-rendering:geometricPrecision" />
    <polygon
       class="fil55"
       transform="matrix(0.0623211,0,0,0.05036652,-854.30289,-138.5246)"
       points="15087,4227 14314,4227 14314,4818 15087,4818 "
       fill="#9a4121"
       image-rendering="optimizeQuality"
       id="polygon10355"
       style="clip-rule:evenodd;shape-rendering:geometricPrecision" />
    <g
       transform="matrix(0.01655759,0,0,-0.01655759,1.3931903,354.31196)"
       fill="#e59351"
       id="g10363"
       style="clip-rule:evenodd;shape-rendering:geometricPrecision">
      <polygon
         class="fil88"
         transform="matrix(3.7639,0,0,-3.0419,-51680,29765)"
         points="14355,4798 14347,4220 14248,4220 14248,4798 "
         image-rendering="optimizeQuality"
         id="polygon10357" />
      <polygon
         class="fil88"
         transform="matrix(3.7639,0,0,-3.0419,-51680,29765)"
         points="14236,4254 14236,4167 15184,4157 15184,4180 15160,4195 15184,4217 15184,4254 "
         image-rendering="optimizeQuality"
         id="polygon10359" />
      <polygon
         class="fil88"
         transform="matrix(3.7639,0,0,-3.0419,-51680,29765)"
         points="15066,4187 15153,4187 15163,4896 15140,4896 15123,4889 15103,4896 15066,4896 "
         image-rendering="optimizeQuality"
         id="polygon10361" />
    </g>
    <polygon
       class="fil55"
       transform="matrix(0.0623211,0,0,0.05036652,-854.30289,-138.5246)"
       points="15154,4254 15066,4254 15066,4272 15154,4273 "
       fill="#1e1240"
       image-rendering="optimizeQuality"
       id="polygon10365"
       style="clip-rule:evenodd;fill:#7e3a1a;fill-opacity:1;shape-rendering:geometricPrecision" />
    <polygon
       class="fil93"
       transform="matrix(0.0623211,0,0,0.05036652,-854.30289,-138.5246)"
       points="15160,4195 15184,4180 14799,4191 "
       fill="#a55f30"
       image-rendering="optimizeQuality"
       id="polygon10367"
       style="clip-rule:evenodd;shape-rendering:geometricPrecision" />
    <polygon
       class="fil93"
       transform="matrix(0.0623211,0,0,0.05036652,-854.30289,-138.5246)"
       points="14236,4227 14236,4211 14323,4217 "
       fill="#a55f30"
       image-rendering="optimizeQuality"
       id="polygon10369"
       style="clip-rule:evenodd;shape-rendering:geometricPrecision" />
    <polygon
       class="fil55"
       transform="matrix(0.0623211,0,0,0.05036652,-854.30289,-138.5246)"
       points="14347,4254 14248,4254 14248,4269 14347,4269 "
       fill="#1e1240"
       image-rendering="optimizeQuality"
       id="polygon10371"
       style="clip-rule:evenodd;fill:#7e3a1a;fill-opacity:1;shape-rendering:geometricPrecision" />
    <polygon
       class="fil88"
       transform="matrix(0.0623211,0,0,0.05036652,-854.30289,-138.5246)"
       points="15155,4875 15155,4789 14236,4778 14236,4801 14259,4816 14236,4839 14236,4875 "
       fill="#e59351"
       image-rendering="optimizeQuality"
       id="polygon10373"
       style="clip-rule:evenodd;shape-rendering:geometricPrecision" />
    <polygon
       class="fil55"
       transform="matrix(0.0623211,0,0,0.05036652,-854.30289,-138.5246)"
       points="15066,4875 15155,4875 15066,4884 "
       fill="#1e1240"
       image-rendering="optimizeQuality"
       id="polygon10375"
       style="clip-rule:evenodd;fill:#7e3a1a;fill-opacity:1;shape-rendering:geometricPrecision" />
    <polygon
       class="fil93"
       transform="matrix(0.0623211,0,0,0.05036652,-854.30289,-138.5246)"
       points="14236,4801 14259,4816 14502,4818 "
       fill="#a55f30"
       image-rendering="optimizeQuality"
       id="polygon10377"
       style="clip-rule:evenodd;shape-rendering:geometricPrecision" />
    <path
       class="fil94"
       d="m 90.179938,102.66976 c 0,0 -6.792916,1.46066 -9.59744,1.91406 -2.86678,0.45329 -6.668403,-0.80584 -13.025026,0 -6.356788,0.80587 -13.212126,2.46807 -13.212126,2.46807 h 35.833929 z"
       fill="#d88145"
       image-rendering="optimizeQuality"
       stroke-width="0.0560259"
       id="path10379"
       style="clip-rule:evenodd;shape-rendering:geometricPrecision" />
    <g
       transform="matrix(0.01655759,0,0,-0.01655759,1.3931903,354.31196)"
       fill="#a55f30"
       stroke-width="3.3837"
       id="g10387"
       style="clip-rule:evenodd;shape-rendering:geometricPrecision">
      <path
         class="fil93"
         d="m 5211.7,16646 v -1350.6 l 22.585,228.15 c 0,0 48.929,1019 -22.585,1119.4 z"
         image-rendering="optimizeQuality"
         id="path10381" />
      <path
         class="fil93"
         d="m 2012.4,16685 v -1429.7 c 0,0 75.278,1189.4 0,1429.7 z"
         image-rendering="optimizeQuality"
         id="path10383" />
      <path
         class="fil93"
         d="m 2080.1,16490 v -1006.9 c 0,0 75.278,836.53 0,1006.9 z"
         image-rendering="optimizeQuality"
         id="path10385" />
    </g>
    <path
       d="m 64.793845,81.426376 c -0.860928,-1.008191 4.600692,-4.365076 6.455969,-4.395046 1.855278,-0.03 6.083423,14.104085 1.34802,15.076842 -2.030457,0.417235 -12.92121,1.115567 -21.114235,-0.116069 -1.712055,-0.257403 -1.795173,-4.381965 -0.747376,-5.957751 1.406881,-2.116059 4.615758,-1.488079 6.78563,-0.694954 4.846074,1.771662 8.028111,3.168128 9.324239,1.189993 1.010941,-1.542935 -1.19198,-4.094691 -2.052975,-5.103048 z"
       fill="#f4e8d7"
       fill-rule="evenodd"
       image-rendering="optimizeQuality"
       id="path10389"
       style="clip-rule:evenodd;stroke-width:0.0165576;shape-rendering:geometricPrecision" />
    <ellipse
       cx="64.182869"
       cy="97.901176"
       rx="3.6416757"
       ry="3.5279253"
       fill="#f4e8d7"
       fill-rule="evenodd"
       image-rendering="optimizeQuality"
       id="ellipse10391"
       style="clip-rule:evenodd;stroke-width:0.0165576;shape-rendering:geometricPrecision" />
  </g>
</svg>
