<svg width="512" height="512" version="1.1" xmlns="http://www.w3.org/2000/svg">
   <defs>
      <style>
         #noq {
            animation: .7s ease-in-out -.7s infinite alternate-reverse anim-noq
         }

         #tan {
            animation: .7s ease-in-out -.7s infinite alternate-reverse anim-tan
         }

         @keyframes anim-tan {
            to {
               fill: transparent
            }
         }

         @keyframes anim-noq {
            0% {
               transform: translate(-100px, 0)
            }

            to {
               transform: translate(90px, 0)
            }
         }
      </style>
   </defs>
   <g stroke="null">
      <g transform="matrix(8.8 0 0 8.8 -13.4 188)" fill="none" fill-rule="evenodd" stroke="null">
         <g fill-rule="nonzero" stroke="null">
            <path d="m53.6 15.7v8c-0.0548 3.36-2.82 6.04-6.18 6h-33.6c-3.36 0.0445-6.13-2.64-6.18-6v-8z"
               fill="#bdc3c7" />
            <path
               d="m42.9 25.7c0.288 1.1e-4 0.562 0.124 0.752 0.341s0.277 0.505 0.239 0.79l-1.07 8.13c-0.13 0.994-0.977 1.74-1.98 1.74h-20.5c-1-0.0015-1.85-0.746-1.98-1.74l-1.07-8.13c-0.0377-0.285 0.0494-0.573 0.239-0.79 0.19-0.217 0.463-0.341 0.751-0.341z"
               fill="#80c904" />
            <path id="Shape" d="m13.6 15.7v14c-3.29-0.0435-5.95-2.7-6-5.99v-8z" fill="#95a5a5" />
            <path d="m53.6 15.7v8c-0.049 3.29-2.71 5.95-6 5.99v-14z" fill="#95a5a5" />
            <path
               d="m30.6 25.7v11h-10.2c-1-0.0015-1.85-0.746-1.98-1.74l-1.07-8.13c-0.0374-0.285 0.0498-0.573 0.239-0.789 0.19-0.216 0.463-0.341 0.751-0.341z"
               fill="#6daa03" />
            <path d="m49.6 0.729h5c0.552 0 1 0.448 1 1v4c0 0.552-0.448 1-1 1h-5z" fill="#393f4a" />
            <path d="m55.6 1.73v2c0-0.552-0.448-1-1-1h-5v-2h5c0.552 0 1 0.448 1 1z" fill="#464f5d" />
            <path
               d="m20.3-16.3 1.69-3.81c0.322-0.723 1.04-1.19 1.83-1.19h13.4c0.791 0.0015 1.51 0.467 1.83 1.19l1.69 3.81z"
               fill="#80c904" />
            <path d="m30.6-21.3v5h-10.2l1.69-3.81c0.322-0.723 1.04-1.19 1.83-1.19z" fill="#6daa03" />
            <path
               d="m53.6 15.7c-0.0013 0.79-0.161 1.57-0.47 2.3-0.992 2.26-3.24 3.72-5.71 3.7h-33.6c-2.47 0.02-4.72-1.44-5.71-3.7-0.309-0.728-0.469-1.51-0.47-2.3 0-0.21 0.01-0.42 0.03-0.63l0.8-7.37 2.22-20.4c0.254-2.06 2.01-3.6 4.09-3.58h31.7c2.08-0.0212 3.84 1.52 4.09 3.58l2.22 20.4 0.8 7.37c0.02 0.21 0.03 0.42 0.03 0.63z"
               fill="#547580" />
            <path
               d="m53.6 15.7c-0.0013 0.79-0.161 1.57-0.47 2.3-0.992 2.26-3.24 3.72-5.71 3.7h-33.6c-2.47 0.02-4.72-1.44-5.71-3.7-0.309-0.728-0.469-1.51-0.47-2.3 0-0.21 0.01-0.42 0.03-0.63l0.8-7.37 2.22-20.4c0.216-1.81 1.62-3.25 3.42-3.52l-1.78 19.3-0.67 7.17c-0.01 0.21-0.02 0.41-0.02 0.62-8e-4 0.764 0.131 1.52 0.39 2.24 0.655 2.08 2.54 3.52 4.72 3.6h27.8c2.18-0.0825 4.07-1.52 4.72-3.6 0.259-0.718 0.391-1.48 0.39-2.24 0-0.21-0.01-0.41-0.02-0.62l-0.67-7.17-1.78-19.3c1.8 0.268 3.2 1.71 3.42 3.52l2.22 20.4 0.8 7.37c0.02 0.21 0.03 0.42 0.03 0.63z"
               fill="#3f5c6c" />
         </g>
      </g>
   </g>
   <g transform="matrix(.628 0 0 .636 96.4 13.1)">
      <g id="kuze" transform="matrix(.471 0 0 .385 -5199 -4576)">
         <path
            d="m11179 12429c2.42-10.8 6.1-26.8 9.85-40.2 3.76-13.4 30.5-80.6 33.2-81 192 86.2 598 42.9 618 39 1.23 0.446 2.21 1.29 3.03 2.31 0.821 1.02 1.48 2.22 2.06 3.39 8.81 17.7 13.5 38.6 16.2 60s3.55 43.3 4.7 62.7c1.92 32.5 0.979 64.9-1.52 97.3s-6.55 64.6-10.8 96.7c-12.1 90.9-34.4 180-65.9 266s-72.1 168-121 246c-0.946 1.5-1.92 3.03-3.03 4.42-1.11 1.38-2.37 2.63-3.88 3.56-1.75 1.08-3.72 1.66-5.75 1.98s-4.15 0.373-6.21 0.408c-37.9 0.65-75.9-0.277-114-3.28s-75.4-8.09-113-15.8c-10.6-2.19-28.1-6.53-42.3-14.1s-24.9-18.5-21.9-33.9c0.473-2.45 1.39-4.81 2.22-7.17s1.6-4.74 1.78-7.23c0.362-5.19-1.76-9.77-4.99-13.9-3.22-4.12-7.53-7.77-11.5-11.1-21.6-17.9-39.6-38.7-55.1-61.4s-28.6-47.1-40.5-72.2c-30.7-64.7-56-134-71.9-206s-22.5-145-15.7-217a635 635 0 0 1 5.84-44.7 632 632 0 0 1 9-44.2c0.206-0.855 0.536-2.32 0.97-4.26s0.974-4.37 1.6-7.14z"
            fill="#9a4121" />
         <path
            d="m11824 12756c9.76-49.7 17.3-99.9 22.7-150 5.42-50.4 8.75-101 10.2-152 0.614-22.3-1.56-44.7-6.38-66.4-4.82-21.8-1.21-19.9-11.2-39.9 40.8-4.22 112-16.2 112-16.2 3.11-0.258 13.4 39.5 18.8 61.8 5.35 22.3 10.1 45.8 11 50.5 9.66 50.3 12.9 102 11.1 153-1.88 51.2-8.93 102-19.9 152-5.57 25.3-12.2 50.3-19.8 75.1a1022 1022 0 0 1-25.6 73.3c-15.9 40.6-34.4 83.7-58.2 123-23.8 39.6-52.8 75.7-89.6 102-0.99 0.711-2 1.44-2.91 2.25s-1.71 1.73-2.27 2.81c-1.01 1.93-1.11 4.06-0.886 6.24 0.221 2.18 0.763 4.42 1.04 6.58 0.753 5.82-0.579 11.6-3.27 16.8-2.69 5.22-12.2 11.9-16.8 15.4-36.6 15-61.4 20.3-103 19.3 29.2-52.8 64.4-115 88.8-166 19.9-42.9 36.5-87.2 50.3-132 13.9-45.1 25-91.1 34.1-137z"
            fill="#7e3a1a" />
      </g>
      <g id="dar" transform="matrix(.498 0 0 .453 -5513 -5405)">
         <path
            d="m11834 12326-0.06-0.26c-2.35-10.2-6.07-25.1-12.3-38s-15.1-23.6-27.6-25.6c-4.93-0.78-10.4-0.519-15.9-0.02-5.51 0.502-11 1.24-16 1.42-10.7 0.583-21.3 0.871-32 1.04-10.7 0.169-21.4 0.219-32.1 0.328-69.2 0.703-139-1.79-208-8.57s-138-17.9-206-34.3c-3.18-0.776-6.35-1.49-9.54-1.94s-6.42-0.629-9.7-0.341c-1.01 1.41-1.91 2.95-3.04 4.23s-2.48 2.28-4.42 2.6l-3.33 2.65c-12.2 9.67-25.7 17.2-39.1 25.3s-26.4 16.8-37.6 28.7c-9.26 9.85-16.2 21-19 32.9s-1.62 24.4 5.37 37.1c1.75 3.17 3.94 6.15 6.54 8.61s5.6 4.4 8.94 5.5c1.88 0.613 3.82 0.948 5.78 1.09s3.95 0.08 5.91-0.09c10.5-0.933 20.3-5 29.4-10.6 9.1-5.62 17.6-12.8 25.6-19.9 1.97-1.75 4.01-3.55 6.2-4.99s4.53-2.53 7.1-2.86c4.88-0.629 9.32 1.36 13.2 4.4 3.9 3.05 7.25 7.16 9.96 10.8 3.95 5.28 8.42 9.92 13.2 14.2s9.85 8.21 15 12c4.38 3.25 9 5.27 13.8 6.19 4.84 0.92 9.89 0.738 15.1-0.422 4.98-1.1 9.87-2.46 14.7-4.14 4.78-1.68 9.46-3.7 14-6.14 4.7-2.52 9.56-4.55 14.5-6.25s10-3.07 15.2-4.29c6.45-1.53 12.5-1.51 18.3-0.05 5.76 1.46 11.2 4.36 16.3 8.6 0.566 0.468 1.1 0.978 1.64 1.48 0.537 0.507 1.08 1.01 1.65 1.47 4.15 3.33 8.17 6.81 12.3 10.1s8.44 6.44 13.1 9.07c6.94 3.9 14 7.1 21.4 9.58a120 120 0 0 0 22.7 5.3c9.01 1.2 17.8 1.41 26.5 0.258s17.1-3.67 25.3-7.91c5.87-3.02 11.4-6.59 16.8-10.3 5.42-3.74 10.7-7.67 16.2-11.4a160 160 0 0 1 6.41-4.22 118 118 0 0 1 6.62-3.85c3.13-1.68 6.31-2.82 9.62-3.33s6.72-0.363 10.3 0.53c2.49 0.616 4.93 1.27 7.32 2.06s4.74 1.71 7.03 2.86c8.49 4.24 17 8.48 25.5 12.7a3369 3369 0 0 0 25.5 12.6c3.93 1.92 7.87 3.83 11.8 5.64 3.98 1.82 8 3.53 12.1 5.05 5.56 2.07 11.3 2.96 17 3.28 5.77 0.312 11.6 0.05 17.4-0.193 10.8-0.445 20.8-2.72 30.1-6.86s17.7-10.2 25.4-18.1c3.06-3.18 5.94-6.56 8.79-9.97 2.85-3.41 5.67-6.84 8.64-10.1 2.07-2.3 3.93-4.9 6.08-7.13s4.6-4.1 7.84-4.96l1.55-1.98c0-3.52 0.07-6.91-0.06-10.3-0.129-3.38-0.455-6.75-1.23-10.2z"
            fill="#fcb431" />
         <path
            d="m11263 12220c-65.9-25.4-44.3-106 3.42-120 8.12-2.26 16.4-3.41 24.9-3.98s16.9-0.549 25.3-0.478c41.8 0.352 83.5 1.82 125 3.41s83.4 3.3 125 4.11c20.8 0.408 41.6 0.604 62.4 0.455s41.6-0.644 62.4-1.62c18.8-0.878 38.9-1.14 58.9-2.18s39.9-2.86 58.2-6.86c3.18-0.694 8.64-1.36 13.9-1.2s10.4 1.15 12.9 3.78c1.68 1.77 2.9 3.87 3.86 6.12s1.66 4.64 2.32 6.99c2.96 10.6 5.55 21.3 7.37 32.1s2.87 21.7 2.74 32.7c-0.171 14.4-2.7 28.5-7.54 41.8s-12 25.7-21.4 36.7c-9.25 10.8-21.3 13.8-34.2 14.3-12.9 0.424-26.6-1.74-39.2-1.26a1966 1966 0 0 1-36.3 1.05 1828 1828 0 0 1-36.4 0.356 1872 1872 0 0 1-146-5.71 1875 1875 0 0 1-76.7-7.6 1871 1871 0 0 1-76.4-10.8c-18.9-3.05-38.4-5.84-57.8-9.23-19.5-3.39-38.9-7.39-57.5-12.9zm74.6-79.7c0.31 5.42 2.28 9.96 4.94 14.1 2.66 4.17 6 7.98 9.05 11.9 2.74 3.54 5.55 7.04 8.39 10.5 2.84 3.47 5.7 6.92 8.54 10.4 2.99 3.65 6.21 7.06 9.71 10.1s7.31 5.78 11.5 8.04c1.94 1.05 3.93 1.9 5.92 2.12 1.99 0.221 3.98-0.185 5.92-1.64 0.854-2.22 1.03-4.3 0.715-6.24-0.312-1.95-1.11-3.76-2.2-5.48-2.98-4.69-5.91-9.43-8.92-14.1s-6.12-9.28-9.46-13.7c-2.91-3.86-6.12-7.48-9.41-11.1-3.29-3.57-6.65-7.09-9.86-10.7-0.71-0.802-1.35-1.66-1.97-2.54s-1.22-1.78-1.86-2.64c-3.98-5.44-7.23-8.1-10.5-7.96-3.26 0.14-6.51 3.09-10.5 8.88zm9.11 57.4a7.25 7.25 0 0 0 1.53-3.92c0.111-1.38-0.155-2.8-0.735-4.1a75.3 75.3 0 0 0-3.15-6.26 120 120 0 0 0-3.62-6.01 55.5 55.5 0 0 0-6.67-8.47 946 946 0 0 0-10.2-10.5 475 475 0 0 0-10.5-10.3c-1.47-1.4-3.39-1.63-5.03-1.03a5.34 5.34 0 0 0-3.39 4.01c-0.586 3.01-0.549 5.88 0.14 8.58s2.03 5.25 4.05 7.62c1.28 1.51 2.48 3.08 3.69 4.65 1.21 1.57 2.43 3.13 3.73 4.62 3.23 3.67 6.55 7.26 10.1 10.6 3.58 3.29 7.42 6.28 11.7 8.76 1.21 0.701 2.43 1.54 3.78 2 1.35 0.461 2.83 0.547 4.54-0.251z"
            fill="#ffc431" />
         <path
            d="m11801 12261c1.55 0.687 3.12 1.44 4.74 1.85 1.62 0.412 3.28 0.489 5.01-0.17 2.38-0.906 4.79-1.22 7.23-1.36s4.89-0.1 7.32-0.294c4.12-0.335 8.25-0.718 12.4-1.16 4.12-0.443 8.23-0.945 12.3-1.52 6.14-0.861 12.3-1.8 18.4-2.77 6.12-0.965 12.2-1.95 18.4-2.89 9.05-1.39 16.4-2.78 23.5-2.54 7.12 0.236 14 2.09 22.2 7.16 11.6 7.22 24.1 16.5 34.7 27.2s19.3 22.7 23.4 35.5c5.82 17.9-1.37 31.2-14.2 40.1-12.8 8.92-31.2 13.5-47.9 13.9-9.23 0.258-18.5-0.413-27.6-1.8-9.12-1.38-18.1-3.49-26.9-6.09-8.47-2.51-16.5-6-24.5-9.47-8.03-3.47-16.1-6.94-24.6-9.42a7.47 7.47 0 0 1-0.867-0.289 2.63 2.63 0 0 1-0.759-0.457c-0.45-0.403-0.644-0.938-0.704-1.52-0.06-0.578 0.01-1.2 0.09-1.77 0.876-6.22 0.68-12.4-0.324-18.6s-2.82-12.2-5.17-18a177 177 0 0 0-3.31-7.73c-1.18-2.57-2.45-5.1-3.83-7.51-1.46-2.56-3.39-4.84-5.29-7.15s-3.75-4.63-5.07-7.26c-0.288-0.573-0.547-1.16-0.831-1.74-0.284-0.577-0.591-1.14-0.976-1.66-0.641-0.872-1.48-1.61-2.29-2.35-0.817-0.744-1.62-1.5-2.19-2.41-1.09-1.74-0.784-2.98 0.111-3.98 0.895-1 2.38-1.77 3.65-2.58l1.93-0.65 1.93-0.647z"
            fill="#f0a02a" />
         <path
            d="m11958 12149c8.3 10.2 13.9 21.5 15.5 33.6 1.6 12.1-0.783 25-8.45 38.4-7.46 13.1-18.6 19.6-31.1 23.9-12.5 4.24-26.4 6.15-39.3 9.9-2.86 0.834-5.82 1.34-8.8 1.77-2.98 0.425-5.99 0.765-8.95 1.26-6.1 1.02-12.2 2.09-18.3 3.13-6.1 1.04-12.2 2.07-18.3 3a353 353 0 0 1-12.3 1.65c-4.1 0.479-8.21 0.894-12.3 1.26-2.43 0.214-4.88 0.171-7.3 0.319s-4.84 0.488-7.21 1.47c-1.72 0.714-3.38 0.632-5 0.184-1.61-0.447-3.18-1.26-4.72-2 0.552-0.961 1.08-1.94 1.62-2.91a44.1 44.1 0 0 1 1.71-2.85c2.68-4.05 5.53-8 8.28-12 2.76-4 5.43-8.05 7.77-12.3 11.1-20.2 15.3-43.5 14.2-66.8s-7.24-46.7-16.8-66.9c-0.605-1.28-1.11-2.61-1.62-4.03-0.508-1.42-1.02-2.93-1.64-4.58l11.7-1.9c19.2-3.12 46.6 1.22 73.2 11.2 26.6 10 52.3 25.7 68.1 45.2z"
            fill="#fcb431" />
         <path
            d="m11337 12141c3.98-5.79 7.23-8.74 10.5-8.88s6.51 2.52 10.5 7.96c0.635 0.868 1.24 1.76 1.86 2.64 0.622 0.88 1.26 1.74 1.97 2.54 3.21 3.63 6.58 7.15 9.86 10.7s6.5 7.2 9.41 11.1c3.34 4.43 6.45 9.03 9.46 13.7s5.94 9.41 8.92 14.1c1.09 1.71 1.88 3.53 2.2 5.48 0.312 1.95 0.139 4.02-0.715 6.24-1.94 1.46-3.93 1.86-5.92 1.64s-3.98-1.07-5.92-2.12c-4.17-2.26-7.97-4.98-11.5-8.04-3.51-3.06-6.72-6.47-9.71-10.1-2.84-3.46-5.7-6.92-8.54-10.4s-5.65-6.96-8.39-10.5c-3.05-3.94-6.39-7.75-9.05-11.9-2.66-4.17-4.63-8.71-4.94-14.1z"
            fill="#fcb22e" />
         <path
            d="m11346 12198c-1.71 0.798-3.19 0.712-4.54 0.251s-2.57-1.3-3.78-2c-4.28-2.48-8.12-5.47-11.7-8.76s-6.9-6.88-10.1-10.6c-1.31-1.48-2.52-3.05-3.73-4.62-1.21-1.57-2.41-3.14-3.69-4.65-2.02-2.38-3.36-4.92-4.05-7.62s-0.726-5.57-0.14-8.58a5.34 5.34 0 0 1 3.39-4.01c1.64-0.603 3.56-0.367 5.03 1.03a473 473 0 0 1 10.5 10.3 946 946 0 0 1 10.2 10.5 55.5 55.5 0 0 1 6.67 8.47 118 118 0 0 1 3.62 6.01 75.8 75.8 0 0 1 3.15 6.26c0.58 1.31 0.846 2.72 0.735 4.1a7.25 7.25 0 0 1-1.53 3.92z"
            fill="#fcb22e" />
      </g>
      <path id="be"
         d="m265 270c-7.9-9.25 42.2-40 59.2-40.3 17-0.275 55.8 129 12.4 138-18.6 3.83-119 10.2-194-1.06-15.7-2.36-16.5-40.2-6.86-54.7 12.9-19.4 42.3-13.7 62.3-6.38 44.5 16.3 73.7 29.1 85.5 10.9 9.28-14.2-10.9-37.6-18.8-46.8z"
         fill="#f4e8d7" stroke-width=".34" />
      <ellipse id="noq" cx="260" cy="421" rx="33.4" ry="32.4" fill="#f4e8d7" stroke-width=".34" />
      <g fill="#c18142" id="tan">
         <path
            d="m223 147-9.1-0.55c-83.1-5.29-114-14.3-115-14.6-2.48-0.679-3.03-2.03-1.72-2.88 1.32-0.978 4.16-1.07 6.64-0.392 0.62 0.17 31 8.88 111 13.9 72.2 4.63 124 5.14 156 4.78 34-0.321 49.3-4.15 53.5-5.14 1.52-0.23 1.58-0.593 2.18 0.395 0.6 0.989 0.07 1.87-1.34 2.68s-18.1 5.98-52.7 6.27c-30.2 0.286-80.3-0.23-149-4.37z" />
         <path
            d="m146 280h0.845c2.25-0.225 3.94-2.03 3.66-4.05 0-0.45-6.47-37.4-6.76-62.6-0.281-25 18.9-68.9 19.1-69.3 0.845-1.8-0.281-3.83-2.82-4.5-2.25-0.675-4.78 0.225-5.63 2.25-0.844 1.8-20 45.7-19.7 71.8 0.281 25.7 6.76 63 7.04 63.5 0.281 1.8 2.25 2.93 4.22 2.93z" />
         <path
            d="m175 283h0.563c2.53-0.213 4.22-1.7 3.94-3.62 0-0.64-6.19-56.9-5.91-79.2 0.281-22.8-2.82-56.5-2.82-56.7-0.282-1.92-2.25-3.2-4.78-3.2-2.53 0.213-4.22 1.7-4.22 3.62 0 0.426 2.82 33.7 2.82 56.2-0.281 22.8 5.63 77.5 5.91 79.9 0.282 1.7 1.97 2.98 4.22 2.98z" />
      </g>
   </g>
</svg>