<?xml version="1.0" encoding="UTF-8"?>
<svg width="418px" height="574px" viewBox="0 0 418 574" version="1.1" xmlns="http://www.w3.org/2000/svg" xmlns:xlink="http://www.w3.org/1999/xlink">
    <!-- Generator: Sketch 60.1 (88133) - https://sketch.com -->
    <title>Group 47</title>
    <desc>Created with Sketch.</desc>
    <defs>
        <linearGradient x1="-0.000474900285%" y1="50.0103683%" x2="99.9991817%" y2="50.0103683%" id="linearGradient-1">
            <stop stop-color="#2E3192" stop-opacity="0" offset="0%"></stop>
            <stop stop-color="#2E3192" offset="100%"></stop>
        </linearGradient>
        <linearGradient x1="0%" y1="25.0236689%" x2="100%" y2="74.9763311%" id="linearGradient-2">
            <stop stop-color="#EDA0FF" offset="0%"></stop>
            <stop stop-color="#C67DD3" offset="100%"></stop>
        </linearGradient>
        <linearGradient x1="0%" y1="19.9494547%" x2="100%" y2="80.0505453%" id="linearGradient-3">
            <stop stop-color="#EDA0FF" offset="0%"></stop>
            <stop stop-color="#C67DD3" offset="100%"></stop>
        </linearGradient>
        <linearGradient x1="0.0150013173%" y1="50%" x2="100.133849%" y2="50%" id="linearGradient-4">
            <stop stop-color="#2A4AFF" offset="0%"></stop>
            <stop stop-color="#0060A0" stop-opacity="0" offset="69%"></stop>
            <stop stop-color="#008BE9" stop-opacity="0" offset="100%"></stop>
        </linearGradient>
        <linearGradient x1="0%" y1="-11058.1854%" x2="100%" y2="-11058.1854%" id="linearGradient-5">
            <stop stop-color="#2A4AFF" offset="0%"></stop>
            <stop stop-color="#0060A0" stop-opacity="0" offset="69%"></stop>
            <stop stop-color="#008BE9" stop-opacity="0" offset="100%"></stop>
        </linearGradient>
        <linearGradient x1="85.4720063%" y1="78.1837838%" x2="14.5279937%" y2="21.827027%" id="linearGradient-6">
            <stop stop-color="#99A6FA" offset="0%"></stop>
            <stop stop-color="#F8F8FF" offset="100%"></stop>
        </linearGradient>
        <linearGradient x1="50%" y1="-4040.9206%" x2="50%" y2="-3940.9206%" id="linearGradient-7">
            <stop stop-color="#99A6FA" offset="0%"></stop>
            <stop stop-color="#F8F8FF" offset="100%"></stop>
        </linearGradient>
        <linearGradient x1="45.5005584%" y1="15.7830884%" x2="90.2725458%" y2="96.9566714%" id="linearGradient-8">
            <stop stop-color="#AAE1FF" stop-opacity="0.807574728" offset="0%"></stop>
            <stop stop-color="#ACE7FF" stop-opacity="0" offset="100%"></stop>
        </linearGradient>
        <linearGradient x1="50.0056035%" y1="100%" x2="50.0056035%" y2="0%" id="linearGradient-9">
            <stop stop-color="#99A6FA" offset="0%"></stop>
            <stop stop-color="#F8F8FF" offset="100%"></stop>
        </linearGradient>
        <linearGradient x1="126.887183%" y1="76.6132796%" x2="22.5660068%" y2="47.1169663%" id="linearGradient-10">
            <stop stop-color="#ED1C24" stop-opacity="0.6" offset="0%"></stop>
            <stop stop-color="#FF304A" stop-opacity="0.62" offset="15.9724646%"></stop>
            <stop stop-color="#FF7FB8" stop-opacity="0" offset="100%"></stop>
        </linearGradient>
        <linearGradient x1="40.3566691%" y1="52.5434138%" x2="57.5250778%" y2="39.4128696%" id="linearGradient-11">
            <stop stop-color="#E6CAE0" stop-opacity="0" offset="26%"></stop>
            <stop stop-color="#E6CAE0" stop-opacity="0.1" offset="51%"></stop>
            <stop stop-color="#E6CAE0" stop-opacity="0.7" offset="100%"></stop>
        </linearGradient>
        <linearGradient x1="33.7463166%" y1="0%" x2="66.5227523%" y2="99.8392106%" id="linearGradient-12">
            <stop stop-color="#3023AE" offset="0%"></stop>
            <stop stop-color="#6E2C79" offset="100%"></stop>
        </linearGradient>
        <linearGradient x1="-0.00589572175%" y1="50.0100268%" x2="100%" y2="50.0100268%" id="linearGradient-13">
            <stop stop-color="#FF7F9F" offset="0%"></stop>
            <stop stop-color="#FF3F6A" offset="100%"></stop>
        </linearGradient>
        <linearGradient x1="50%" y1="100%" x2="50%" y2="0%" id="linearGradient-14">
            <stop stop-color="#99A6FA" offset="0%"></stop>
            <stop stop-color="#F8F8FF" offset="100%"></stop>
        </linearGradient>
        <linearGradient x1="50.0040346%" y1="100%" x2="50.0040346%" y2="3.52488563e-13%" id="linearGradient-15">
            <stop stop-color="#99A6FA" offset="0%"></stop>
            <stop stop-color="#99A6FA" stop-opacity="0.3" offset="100%"></stop>
        </linearGradient>
        <linearGradient x1="50.004478%" y1="100%" x2="50.004478%" y2="2.28943574e-13%" id="linearGradient-16">
            <stop stop-color="#E1E6FD" offset="1%"></stop>
            <stop stop-color="#F8F8FF" offset="100%"></stop>
        </linearGradient>
        <linearGradient x1="49.99593%" y1="100%" x2="49.99593%" y2="3.22973971e-13%" id="linearGradient-17">
            <stop stop-color="#E1E6FD" offset="19%"></stop>
            <stop stop-color="#EDF0FE" offset="62%"></stop>
            <stop stop-color="#F8F8FF" offset="100%"></stop>
        </linearGradient>
        <linearGradient x1="49.9944519%" y1="100%" x2="49.9944519%" y2="3.14052038e-13%" id="linearGradient-18">
            <stop stop-color="#F4DE8A" offset="0%"></stop>
            <stop stop-color="#F6C894" offset="100%"></stop>
        </linearGradient>
        <linearGradient x1="0%" y1="-3833.9337%" x2="100.001095%" y2="-3833.9337%" id="linearGradient-19">
            <stop stop-color="#99A6FA" offset="0%"></stop>
            <stop stop-color="#F8F8FF" offset="100%"></stop>
        </linearGradient>
        <linearGradient x1="57.0831046%" y1="7.97871986%" x2="51.8571574%" y2="94.761586%" id="linearGradient-20">
            <stop stop-color="#ED1C24" stop-opacity="0.6" offset="0%"></stop>
            <stop stop-color="#FF304A" stop-opacity="0.62" offset="36.9626084%"></stop>
            <stop stop-color="#FF7FB8" stop-opacity="0" offset="100%"></stop>
        </linearGradient>
        <linearGradient x1="50.0024423%" y1="-3891.65909%" x2="50.0024423%" y2="-3991.65909%" id="linearGradient-21">
            <stop stop-color="#E1E6FD" offset="1%"></stop>
            <stop stop-color="#F8F8FF" offset="100%"></stop>
        </linearGradient>
        <linearGradient x1="50%" y1="-3802.33514%" x2="50%" y2="-3702.33514%" id="linearGradient-22">
            <stop stop-color="#99A6FA" offset="0%"></stop>
            <stop stop-color="#F8F8FF" offset="100%"></stop>
        </linearGradient>
        <linearGradient x1="50.0056035%" y1="100%" x2="50.0056035%" y2="0%" id="linearGradient-23">
            <stop stop-color="#99A6FA" offset="0%"></stop>
            <stop stop-color="#F8F8FF" offset="100%"></stop>
        </linearGradient>
        <linearGradient x1="100%" y1="50%" x2="-16.8029901%" y2="55.4451337%" id="linearGradient-24">
            <stop stop-color="#FFFFFF" stop-opacity="0" offset="0%"></stop>
            <stop stop-color="#FF0028" offset="100%"></stop>
        </linearGradient>
        <linearGradient x1="36.5851079%" y1="82.3190691%" x2="70.9937903%" y2="139.810251%" id="linearGradient-25">
            <stop stop-color="#81B3FC" stop-opacity="0" offset="0%"></stop>
            <stop stop-color="#5C45BF" offset="100%"></stop>
        </linearGradient>
        <linearGradient x1="0.201344953%" y1="49.9949753%" x2="100.157928%" y2="49.9949753%" id="linearGradient-26">
            <stop stop-color="#ED1C24" stop-opacity="0.6" offset="0%"></stop>
            <stop stop-color="#FF304A" stop-opacity="0.62" offset="38%"></stop>
            <stop stop-color="#FF7FB8" stop-opacity="0" offset="100%"></stop>
        </linearGradient>
        <linearGradient x1="50.9346777%" y1="11.1253645%" x2="50%" y2="95.5289182%" id="linearGradient-27">
            <stop stop-color="#81B4FB" offset="0%"></stop>
            <stop stop-color="#6560CE" offset="79.2374751%"></stop>
            <stop stop-color="#5C45BF" stop-opacity="0.9" offset="100%"></stop>
        </linearGradient>
        <linearGradient x1="0%" y1="56.8682351%" x2="128.248077%" y2="69.0858814%" id="linearGradient-28">
            <stop stop-color="#81B3FC" stop-opacity="0" offset="0%"></stop>
            <stop stop-color="#5C45BF" offset="100%"></stop>
        </linearGradient>
        <linearGradient x1="0%" y1="69.357123%" x2="128.248077%" y2="103.790785%" id="linearGradient-29">
            <stop stop-color="#81B3FC" stop-opacity="0" offset="0%"></stop>
            <stop stop-color="#5C45BF" offset="100%"></stop>
        </linearGradient>
        <linearGradient x1="100.306513%" y1="50.0354798%" x2="50.2298851%" y2="50.0354798%" id="linearGradient-30">
            <stop stop-color="#00102A" offset="0%"></stop>
            <stop stop-color="#1E1D3B" stop-opacity="0.95" offset="3%"></stop>
            <stop stop-color="#523458" stop-opacity="0.85" offset="8%"></stop>
            <stop stop-color="#804872" stop-opacity="0.74" offset="13%"></stop>
            <stop stop-color="#A75987" stop-opacity="0.63" offset="18%"></stop>
            <stop stop-color="#C76799" stop-opacity="0.52" offset="24%"></stop>
            <stop stop-color="#E071A7" stop-opacity="0.4" offset="30%"></stop>
            <stop stop-color="#F179B0" stop-opacity="0.28" offset="36%"></stop>
            <stop stop-color="#FC7EB6" stop-opacity="0.15" offset="61.7164921%"></stop>
            <stop stop-color="#FF7FB8" stop-opacity="0" offset="100%"></stop>
        </linearGradient>
        <linearGradient x1="45.5487733%" y1="49.9959692%" x2="59.6950934%" y2="44.5295578%" id="linearGradient-31">
            <stop stop-color="#F3FFDF" stop-opacity="0" offset="0%"></stop>
            <stop stop-color="#F5FFBF" stop-opacity="0.5" offset="100%"></stop>
        </linearGradient>
        <linearGradient x1="5.60551853%" y1="66.6581647%" x2="45.8433681%" y2="19.2180874%" id="linearGradient-32">
            <stop stop-color="#00102A" stop-opacity="0" offset="0%"></stop>
            <stop stop-color="#FF7FB8" stop-opacity="0.6" offset="100%"></stop>
        </linearGradient>
        <linearGradient x1="50%" y1="0%" x2="42.6711502%" y2="100%" id="linearGradient-33">
            <stop stop-color="#3590DF" offset="0%"></stop>
            <stop stop-color="#00368B" offset="100%"></stop>
        </linearGradient>
        <linearGradient x1="35.6940671%" y1="43.2369198%" x2="60.7194013%" y2="56.6677912%" id="linearGradient-34">
            <stop stop-color="#3590DF" offset="0%"></stop>
            <stop stop-color="#3764AB" offset="100%"></stop>
        </linearGradient>
        <linearGradient x1="28.3276772%" y1="-26.2415138%" x2="65.3828536%" y2="84.9296434%" id="linearGradient-35">
            <stop stop-color="#ED1C24" stop-opacity="0.6" offset="0%"></stop>
            <stop stop-color="#FF304A" stop-opacity="0.62" offset="36.9626084%"></stop>
            <stop stop-color="#FF7FB8" stop-opacity="0" offset="100%"></stop>
        </linearGradient>
    </defs>
    <g id="Page-1" stroke="none" stroke-width="1" fill="none" fill-rule="evenodd">
        <g id="Home-Copy" transform="translate(-802.000000, -3394.000000)">
            <g id="Group-47" transform="translate(802.000000, 3394.000000)">
                <path d="M181.738581,505.039172 C142.331379,506.701906 137.092271,525.521029 106.340986,528.997655 C75.5897007,532.47428 31.4748943,524.84082 22.3634024,535.421854 C13.2519106,546.002887 90.0921586,577.745987 136.712625,573.211259 C183.333092,568.67653 236.255674,541.846053 267.310675,535.421854 C298.365677,528.997655 316.968306,532.701016 314.614504,524.23619 C312.260702,515.771363 232.155502,540.183319 222.588436,539.351952 C213.021369,538.520585 199.430061,530.887125 203.150587,515.771363 C206.871112,500.655601 181.738581,505.039172 181.738581,505.039172 Z" id="Path" fill="url(#linearGradient-1)"></path>
                <path d="M203.282529,496.693872 L184.64069,492.073092 C181.045249,503.265292 181.437625,518.678552 184.016092,525.569749 C186.594559,532.460947 223.990345,533.084513 237.106897,525.849554 C235.92977,509.101226 215.486207,513.234345 208.27931,507.238524 C201.072414,501.242702 203.282529,496.693872 203.282529,496.693872 Z" id="Path" fill="url(#linearGradient-2)"></path>
                <path d="M271.884176,498.852368 L291.102567,497.605237 C293.865211,513.378245 313.932414,507.526323 315.037471,525.777604 C310.697318,528.527688 275.375517,537.137688 273.101341,526.577047 C270.827165,516.016407 270.506858,505.032061 271.884176,498.852368 Z" id="Path" fill="url(#linearGradient-3)"></path>
                <path d="M208.319349,507.174568 C201.208544,501.170752 203.282529,496.621922 203.282529,496.621922 L201.136475,496.078301 C201.000345,505.791532 203.48272,507.926045 204.33954,509.173175 C205.516667,510.772061 221.531992,512.618774 223.950307,517.439415 C225.327625,520.197493 227.818008,524.634401 229.475594,528.471727 C232.093671,527.855751 234.628696,526.929835 237.02682,525.713649 C235.92977,509.029276 215.40613,513.17039 208.319349,507.174568 Z" id="Path" fill-opacity="0.4" fill="url(#linearGradient-4)" opacity="0.5"></path>
                <path d="M291.062529,497.589248 L287.683295,497.797103 C288.580153,505.375822 290.237739,511.507549 293.064444,514.585404 C296.860077,518.790474 299.062184,525.058106 300.271341,530.014652 C307.310077,528.63961 313.379885,526.81688 315.037471,525.745627 C313.900383,507.510334 293.825172,513.362256 291.062529,497.589248 Z" id="Path" fill-opacity="0.4" fill="url(#linearGradient-5)" opacity="0.5"></path>
                <rect id="Rectangle" fill="url(#linearGradient-6)" x="221.091571" y="81.7830084" width="53.651341" height="73.948468"></rect>
                <path d="M221.732184,81.7830084 C221.732184,94.7339833 219.890421,135.825348 204.595785,151.254596 L258.887739,151.254596 C274.022222,135.345682 276.024138,95.1337047 276.024138,81.7830084 L221.732184,81.7830084 Z" id="Path" fill="url(#linearGradient-7)"></path>
                <path d="M18.2574713,302.189417 C13.4146376,302.189417 8.76954327,300.271848 5.34514238,296.853106 C1.92074149,293.434365 -1.76015549e-06,288.796947 -1.76015549e-06,283.962117 L-1.76015549e-06,18.2272981 C-1.76015549e-06,13.3924678 1.92074149,8.75505028 5.34514238,5.33630873 C8.76954327,1.91756718 13.4146376,-1.75724643e-06 18.2574713,-1.75724643e-06 L399.262069,-1.75724643e-06 C404.104903,-1.75724643e-06 408.749997,1.91756718 412.174398,5.33630873 C415.598799,8.75505028 417.519542,13.3924678 417.519542,18.2272981 L417.519542,283.962117 C417.466999,294.006968 409.323548,302.13696 399.262069,302.189417 L18.2574713,302.189417 Z" id="Path" fill="url(#linearGradient-8)"></path>
                <path d="M361.22567,238.074095 L86.6429119,238.074095 C86.4264624,238.08839 86.214358,238.008765 86.0609705,237.855631 C85.9075831,237.702497 85.8278263,237.490744 85.8405018,237.274652 L85.8405018,235.595822 C85.8278263,235.37973 85.9075831,235.167976 86.0609705,235.014842 C86.214358,234.861708 86.4264624,234.782083 86.6429119,234.796379 L361.22567,234.796379 C361.44212,234.782083 361.654224,234.861708 361.807612,235.014842 C361.960999,235.167976 362.040756,235.37973 362.028081,235.595822 L362.028081,237.274652 C362.028081,237.716172 361.667922,238.074095 361.22567,238.074095 L361.22567,238.074095 Z" id="Path" fill="#FEFDFF" opacity="0.5"></path>
                <path d="M68.2252874,238.074095 L48.9268199,238.074095 C48.7103704,238.08839 48.498266,238.008765 48.3448786,237.855631 C48.1914911,237.702497 48.1117344,237.490744 48.1260536,237.274652 L48.1260536,235.595822 C48.1117344,235.37973 48.1914911,235.167976 48.3448786,235.014842 C48.498266,234.861708 48.7103704,234.782083 48.9268199,234.796379 L68.2252874,234.796379 C68.4417369,234.782083 68.6538413,234.861708 68.8072287,235.014842 C68.9606162,235.167976 69.0403729,235.37973 69.0260536,235.595822 L69.0260536,237.274652 C69.0260536,237.716172 68.6675384,238.074095 68.2252874,238.074095 L68.2252874,238.074095 Z" id="Path" fill="#542AFF" opacity="0.16"></path>
                <path d="M219.964011,81.5431755 C219.964011,94.4941504 223.567459,138.783287 213.157498,151.014763 L267.449452,151.014763 C277.859413,138.783287 274.255965,94.8938719 274.255965,81.5431755 L219.964011,81.5431755 Z" id="Path-Copy-2" fill="url(#linearGradient-9)"></path>
                <path d="M86.6429119,211.772423 C86.4264624,211.786719 86.214358,211.707094 86.0609705,211.55396 C85.9075831,211.400826 85.8278263,211.189072 85.8405018,210.972981 L85.8405018,209.29415 C85.8278263,209.078059 85.9075831,208.866305 86.0609705,208.713171 C86.214358,208.560037 86.4264624,208.480412 86.6429119,208.494708 L361.22567,208.494708 C361.44212,208.480412 361.654224,208.560037 361.807612,208.713171 C361.960999,208.866305 362.040756,209.078059 362.028081,209.29415 L362.028081,210.972981 C361.995688,211.401141 361.65454,211.741725 361.22567,211.772423 L86.6429119,211.772423 Z" id="Path" fill="#FEFDFF" opacity="0.45"></path>
                <path d="M68.2252874,211.772423 L48.9268199,211.772423 C48.7103704,211.786719 48.498266,211.707094 48.3448786,211.55396 C48.1914911,211.400826 48.1117344,211.189072 48.1260536,210.972981 L48.1260536,209.29415 C48.1117344,209.078059 48.1914911,208.866305 48.3448786,208.713171 C48.498266,208.560037 48.7103704,208.480412 48.9268199,208.494708 L68.2252874,208.494708 C68.4417369,208.480412 68.6538413,208.560037 68.8072287,208.713171 C68.9606162,208.866305 69.0403729,209.078059 69.0260536,209.29415 L69.0260536,210.972981 C68.9953049,211.401141 68.6541569,211.741725 68.2252874,211.772423 L68.2252874,211.772423 Z" id="Path" fill="#542AFF" opacity="0.16"></path>
                <path d="M257.500883,149.495822 C260.111381,154.916045 254.657335,168.147996 272.821073,178.275766 C290.98481,188.403536 264.356973,191.460824 264.356973,191.460824 L229.819923,174.560601 L240.157816,152.448011 L257.500883,149.495822 Z" id="Path" fill="#00368B"></path>
                <path d="M361.22567,262.457103 L86.6429119,262.457103 C86.4264624,262.471399 86.214358,262.391774 86.0609705,262.23864 C85.9075831,262.085506 85.8278263,261.873752 85.8405018,261.65766 L85.8405018,259.97883 C85.8278263,259.762738 85.9075831,259.550984 86.0609705,259.39785 C86.214358,259.244716 86.4264624,259.165092 86.6429119,259.179387 L361.22567,259.179387 C361.44212,259.165092 361.654224,259.244716 361.807612,259.39785 C361.960999,259.550984 362.040756,259.762738 362.028081,259.97883 L362.028081,261.65766 C362.028081,261.869686 361.942071,262.073027 361.791898,262.222952 C361.641725,262.372876 361.438047,262.457103 361.22567,262.457103 Z" id="Path" fill="#FEFDFF" opacity="0.5"></path>
                <path d="M256.909847,110.538969 C239.234071,117.581953 228.377846,123.638039 224.34117,128.707227 C220.304494,133.776415 220.126161,141.577339 223.806169,152.11 L235.07295,161.91117 L223.806169,166.651866 C228.93908,176.061309 232.462452,187.996992 231.925939,196.950752 C234.224138,203.762006 250.93613,202.690752 259.67249,187.237521 C259.961534,186.749742 259.988551,186.150361 259.744559,185.638635 C255.740728,175.461727 249.32659,163.744683 251.168352,160.379028 C257.860401,161.91117 269.057471,161.487465 270.098467,154.644234 C270.474828,147.497214 262.202912,117.430167 256.909847,110.538969 Z" id="Path" fill="#FDF8FF"></path>
                <path d="M249.801285,152.37239 C255.304092,157.588646 259.89762,160.30424 263.581868,160.519171 C259.711572,161.430887 254.97041,161.164963 251.46521,160.362449 C251.139748,160.957201 251.072094,161.812744 251.203391,162.874493 L243.484687,158.48239 C241.951146,148.963592 244.056679,146.926926 249.801285,152.37239 Z" id="Combined-Shape" fill="url(#linearGradient-10)" opacity="0.18"></path>
                <path d="M259.744559,185.678607 C255.740728,175.501699 250.551762,166.324095 252.393525,162.95844 C250.247471,163.110334 244.193678,162.111031 242.888429,161.503454 C241.815402,160.967827 248.173487,188.740474 250.247471,197.478384 C254.146781,194.87291 257.375815,191.386278 259.67249,187.301476 C259.895423,186.787734 259.921078,186.21003 259.744559,185.678607 Z" id="Path" fill="url(#linearGradient-11)"></path>
                <path d="M68.2252874,262.457103 L48.9268199,262.457103 C48.7103704,262.471399 48.498266,262.391774 48.3448786,262.23864 C48.1914911,262.085506 48.1117344,261.873752 48.1260536,261.65766 L48.1260536,259.97883 C48.1117344,259.762738 48.1914911,259.550984 48.3448786,259.39785 C48.498266,259.244716 48.7103704,259.165092 48.9268199,259.179387 L68.2252874,259.179387 C68.4417369,259.165092 68.6538413,259.244716 68.8072287,259.39785 C68.9606162,259.550984 69.0403729,259.762738 69.0260536,259.97883 L69.0260536,261.65766 C69.0260536,261.869686 68.9416874,262.073027 68.7915146,262.222952 C68.6413418,262.372876 68.4376638,262.457103 68.2252874,262.457103 Z" id="Path" fill="#542AFF" opacity="0.16"></path>
                <path d="M242.767388,333.552103 C251.095358,354.497507 277.305364,385.587298 283.791571,393.82156 C272.18046,432.994262 268.016475,495.830474 272.020307,499.028245 C276.024138,502.226017 292.303716,502.385905 293.024406,497.429359 C294.145479,489.514875 298.109272,433.977577 311.866437,395.42844 C315.630038,383.996407 292.383793,297.096964 289.981494,288.303092 C289.501034,286.624262 277.225287,281.995487 276.024138,276.799109 L212.45931,291.796849 C203.891111,324.813841 208.199234,388.145515 207.398467,392.382563 C206.597701,396.61961 179.611877,485.917382 184.977011,492.073092 C190.342146,498.228802 203.955172,499.587855 206.677778,497.429359 C209.400383,495.270864 233.731096,408.634355 235.893165,404.317363 C238.055234,400.000372 247.233768,362.867131 248.274765,345.359331 L242.767388,333.552103 Z" id="Path" fill="url(#linearGradient-12)"></path>
                <path d="M204.739923,238.809582 C211.146054,257.436602 211.882759,312.488179 207.078161,326.878152 C202.273563,341.268124 275.687816,332.584234 301.072107,313.397604 C295.947203,290.053872 278.858851,242.015348 283.823602,216.665014" id="Path" fill="url(#linearGradient-13)"></path>
                <rect id="Rectangle" fill="url(#linearGradient-14)" x="48.1260536" y="81.7830084" width="54.291954" height="73.948468"></rect>
                <path d="M307.734483,81.7830084 C295.002299,73.3089136 278.746743,41.8108635 289.396935,20.5456825 L343.688889,20.5456825 C333.038697,41.8908078 349.294253,73.3089136 362.026437,81.7830084 L307.734483,81.7830084 Z" id="Path" fill="url(#linearGradient-15)"></path>
                <path d="M307.734483,81.7830084 C307.734483,94.7339833 311.337931,139.02312 300.927969,151.254596 L355.219923,151.254596 C365.629885,139.02312 362.026437,95.1337047 362.026437,81.7830084 L307.734483,81.7830084 Z" id="Path" fill="url(#linearGradient-16)"></path>
                <rect id="Rectangle" fill="url(#linearGradient-14)" x="134.528736" y="81.7830084" width="54.291954" height="73.948468"></rect>
                <path d="M48.1260536,81.7030641 C48.1260536,96.0130919 46.6846743,138.863231 36.2747126,152.054039 L90.5666667,152.054039 C100.976628,138.783287 102.978544,95.7732591 102.418008,81.7030641 L48.1260536,81.7030641 Z" id="Path" fill="url(#linearGradient-17)" opacity="0.89"></path>
                <path d="M134.849042,81.7030641 C134.849042,96.0130919 133.968199,140.861838 123.558238,154.052646 L177.850192,154.052646 C188.260153,140.781894 189.701533,95.7732591 189.140996,81.7030641 L134.849042,81.7030641 Z" id="Path" fill="url(#linearGradient-18)"></path>
                <path d="M134.849042,81.7030641 C134.849042,96.0130919 133.968199,140.861838 123.558238,154.052646 L177.850192,154.052646 C188.260153,140.781894 189.701533,95.7732591 189.140996,81.7030641 L134.849042,81.7030641 Z" id="Path" fill="url(#linearGradient-19)"></path>
                <path d="M270.018391,154.692201 C270.402759,147.577159 262.202912,117.430167 256.837778,110.618914 L251.168352,111.306435 C252.54567,129.285905 261.049808,136.936574 262.96364,143.364095 C264.268889,147.497214 264.268889,155.075933 263.660307,160.735989 C267.183678,159.360947 269.858238,157.370334 270.018391,154.692201 Z" id="Path" fill="url(#linearGradient-20)" opacity="0.18"></path>
                <path d="M134.849042,81.7830084 C134.849042,96.0930362 127.642146,138.943175 117.232184,152.133983 L171.524138,152.133983 C181.9341,138.863231 189.701533,95.8532033 189.140996,81.7830084 L134.849042,81.7830084 Z" id="Path" fill="url(#linearGradient-21)" opacity="0.89"></path>
                <rect id="Rectangle" fill="url(#linearGradient-22)" x="308.375096" y="81.7830084" width="53.651341" height="73.948468"></rect>
                <rect id="Rectangle" fill="url(#linearGradient-23)" x="308.375096" y="81.7830084" width="53.651341" height="73.948468"></rect>
                <rect id="Rectangle" fill="#000000" opacity="0.2" x="308.295019" y="81.5431755" width="53.651341" height="73.948468"></rect>
                <path d="M307.894636,81.5431755 C307.894636,94.4941504 311.498084,138.783287 301.088123,151.014763 L355.380077,151.014763 C365.790038,138.783287 362.18659,94.8938719 362.18659,81.5431755 L307.894636,81.5431755 Z" id="Path" fill="url(#linearGradient-9)"></path>
                <path d="M183.855939,51.1644031 L53.1708812,51.1644031 C51.8309499,51.1707614 50.5440409,50.6421933 49.5965555,49.6962738 C48.6490701,48.7503542 48.119627,47.465572 48.1259958,46.1278552 L48.1259958,25.5022284 C48.119627,24.1645116 48.6490701,22.8797293 49.5965555,21.9338098 C50.5440409,20.9878903 51.8309499,20.4593221 53.1708812,20.4656804 L183.855939,20.4656804 C185.19587,20.4593221 186.482779,20.9878903 187.430264,21.9338098 C188.37775,22.8797293 188.907193,24.1645116 188.900824,25.5022284 L188.900824,46.1278552 C188.857841,48.8914863 186.624145,51.1214907 183.855939,51.1644031 Z" id="Path" fill="url(#linearGradient-24)" opacity="0.818998326"></path>
                <path d="M335.521073,163.334178 C333.983602,160.288301 326.712644,151.89415 326.712644,151.89415 L336.025556,169.873621 L335.649195,164.941058 L335.521073,163.334178 Z" id="Path" fill="url(#linearGradient-25)"></path>
                <path d="M235.505364,142.38078 C236.866667,146.058217 239.989655,149.255989 241.110728,149.0961 C242.231801,148.936212 237.587356,142.540669 236.386207,141.901114 C235.345211,141.341504 235.505364,142.38078 235.505364,142.38078 Z" id="Path" fill="#FFFFFF"></path>
                <path d="M310.291583,204.395435 C310.291583,204.395435 334.30508,182.483914 334.961708,177.031714 C335.618337,171.579513 336.040109,174.844852 335.952633,173.403191 C334.866651,155.505412 319.126672,108.436085 314.984073,97.0942094 C310.50779,84.8387497 288.823039,67.1151007 293.475491,80.3538751 C298.127943,93.5926495 303.164763,109.365658 301.747407,108.446298 C300.33005,107.526939 290.096257,96.0389447 289.88005,98.653123 C289.663843,101.267301 302.700319,110.804655 310.291583,119.022928 C313.270351,122.247731 314.875101,130.012623 315.877358,138.303621 C316.47707,143.264636 318.658657,150.759338 318.647333,155.464459 C318.629353,162.935384 316.282562,166.634146 314.96005,168.404516 C311.412656,173.153207 305.4486,176.67875 294.38201,182.626605 C294.38201,182.626605 293.995989,196.960616 300.241966,201.205658 C306.487943,205.4507 310.291583,204.395435 310.291583,204.395435 Z" id="Path" fill="#FDF8FF"></path>
                <path d="M306.245057,83.6554085 C319.15341,120.693598 324.974981,134.436021 325.327318,153.8385 C325.751724,175.583347 330.436207,174.943793 329.018851,178.845074 C327.601494,182.746356 306.10092,192.795353 300.287356,201.229475 C306.533333,205.482512 310.360996,204.427247 310.360996,204.427247 C310.360996,204.427247 332.694197,191.290696 334.255691,177.476323 C335.817185,163.66195 319.52977,109.381481 315.061494,97.1260213 C313.556054,92.9369406 310.07272,87.9803946 306.245057,83.6554085 Z" id="Path" fill="url(#linearGradient-26)" opacity="0.18"></path>
                <path d="M315.588235,135.503193 C319.856998,165.104328 330.511036,170.993859 333.970346,168.10787 C335.724024,166.64489 335.521073,163.279933 335.521073,163.279933 C342.231494,183.809627 317.060347,202.005283 311.180537,206.057424 C308.342414,208.013351 299.146322,212.579718 283.592263,219.756525 C287.372521,260.126939 293.208582,278.225723 293.208582,278.225723 C299.838927,298.331712 327.641533,427.569651 320.786973,468.341238 C299.078199,461.945695 263.396054,459.091684 221.580038,474.456976 C179.764023,489.822269 172.164751,481.508063 172.164751,481.508063 C209.142248,418.509949 205.441959,314.226288 205.871371,288.067702 C198.037372,287.345766 192.134637,285.238598 189.301149,281.803621 C183.695785,275.008357 185.297318,216.649025 196.508046,202.259053 C202.994253,193.864903 234.304215,184.831198 261.370115,179.874652 C274.374042,177.518968 278.561214,181.902739 291.089249,181.813009 C291.09135,181.811106 291.091783,181.810419 291.092174,181.809912 C302.529815,179.261727 313.573757,172.580967 316.16824,164.050912 C318.762723,155.520856 316.641764,146.070624 316.16824,143.052934 C315.928155,141.254677 315.590188,136.760383 315.588235,135.503193 Z" id="Combined-Shape" fill="url(#linearGradient-27)"></path>
                <path d="M282.386469,182.138699 C271.00912,184.531016 254.955511,213.499474 238.143484,214.460447 C226.935467,215.101095 217.220972,208.778147 209,195.491602 L273.491495,180.674095 L278.475238,182.138699 C278.408322,180.873873 279.712066,180.873873 282.386469,182.138699 Z" id="Path-13" fill="url(#linearGradient-28)"></path>
                <path d="M311.180537,205.660081 C308.353863,207.608117 299.220416,212.145574 283.780196,219.272451 C285.304484,213.24333 287.337114,209.970798 289.877395,209.454039 C293.807288,208.654596 323.509579,194.995073 333.492465,181.642275 C333.731783,181.322171 333.966256,181.015228 334.195884,180.721446 C328.641982,193.217301 315.262478,202.846962 311.180537,205.660081 Z" id="Combined-Shape" fill="url(#linearGradient-29)"></path>
                <path d="M186.178161,253.983008 C185.857854,267.493593 186.978927,279.005571 189.301149,281.803621 C192.504215,285.640947 196.620897,287.707616 205.82971,288.107338 C207.080034,275.969104 207.080034,255.821727 204.853507,239.832869 C197.246227,242.311142 195.087899,245.26362 186.178161,253.983008 Z" id="Path" fill="url(#linearGradient-30)" opacity="0.18"></path>
                <path d="M257.094023,110.427047 C257.979193,114.559996 259.86056,134.747818 250.372568,144.13161 C249.935809,144.563572 248.498603,138.158764 244.548931,139.299243 C240.54461,140.455502 248.514889,157.001951 243.43295,161.487465 C230.27636,173.099976 231.925939,124.489248 231.925939,124.489248 L252.793908,108.50039 L257.094023,110.427047 Z" id="Path" fill="#00368B"></path>
                <path d="M256.496671,110.322589 L257.229698,110.651573 C258.114868,114.784522 259.996235,134.972344 250.508244,144.356136 C250.152578,144.707896 249.133482,140.525965 246.634451,139.57679 C252.388005,129.031319 255.665516,119.379123 256.469202,110.619596 C256.47838,110.519556 256.487537,110.420554 256.496671,110.322589 Z" id="Combined-Shape" fill="url(#linearGradient-31)"></path>
                <path d="M247.514578,186.270195 C220.448678,191.226741 202.994253,193.864903 196.508046,202.259053 C190.982759,209.374095 187.779693,227.201671 186.658621,244.229805 C190.422222,229.04039 189.621456,221.045961 200.912261,206.576045 C210.121073,194.74429 225.896169,206.853212 253.842912,190.464633 C247.196552,193.502516 258.965536,184.191643 247.514578,186.270195 Z" id="Path" fill="url(#linearGradient-32)" opacity="0.18"></path>
                <path d="M284.332233,181.64217 C275.772042,182.753396 265.024487,190.723092 254.166164,199.061281 C243.307842,207.399471 236.159533,206.592033 226.342139,204.657382 C216.524744,202.72273 208.799808,194.408524 208.799808,194.408524 C229.815144,180.805253 209.579566,155.351475 213.696423,130.650876 C219.409962,96.3703937 253.186284,100.372828 257.126054,110.39507 C252.352945,114.13493 249.397888,118.903666 247.754188,124.018051 C243.303651,137.865927 248.46704,154.247849 253.186284,159.601498 C259.648467,166.932389 261.550001,170.596978 267.160227,174.628198 C276.212237,181.132506 282.365949,180.177566 284.332233,181.64217 Z" id="Path" fill="url(#linearGradient-33)"></path>
                <path d="M243.43295,174.941427 C247.862847,182.802637 246.900342,192.970665 240.545435,205.445512 C236.002514,206.165595 231.630967,205.465652 226.54233,204.462867 C216.724936,202.528215 209,194.214009 209,194.214009 C229.656939,180.84273 210.457957,156.021694 213.706909,131.720692 C214.268856,158.367955 235.798607,161.393669 243.43295,174.941427 Z" id="Combined-Shape" fill-opacity="0.29" fill="url(#linearGradient-34)"></path>
                <path d="M250.506156,144.222842 C249.06306,140.881446 247.883065,139.131323 245.045768,138.35707 C242.208471,137.582816 241.468064,145.416921 245.045768,149.126217 C247.430904,151.599082 248.969461,152.552137 249.661439,151.985383 L251.491605,155.822709 L254.166164,148.905128 C252.688222,148.011202 251.46822,146.45044 250.506156,144.222842 Z" id="Path-7" fill="#FDF8FF"></path>
                <path d="M250.506156,144.222842 C249.06306,140.881446 247.883065,139.131323 245.045768,138.35707 C242.208471,137.582816 241.468064,145.416921 245.045768,149.126217 C247.430904,151.599082 248.969461,152.552137 249.661439,151.985383 L251.491605,155.822709 L254.166164,148.905128 C252.688222,148.011202 251.46822,146.45044 250.506156,144.222842 Z" id="Path-7" fill="url(#linearGradient-35)" opacity="0.18"></path>
                <path d="" id="Path-12" stroke="#979797" stroke-width="0.8"></path>
            </g>
        </g>
    </g>
</svg>