<?xml version="1.0" encoding="UTF-8"?>
<svg width="521px" height="452px" viewBox="0 0 521 452" version="1.1" xmlns="http://www.w3.org/2000/svg" xmlns:xlink="http://www.w3.org/1999/xlink">
    <!-- Generator: Sketch 60.1 (88133) - https://sketch.com -->
    <title>Artboard 1</title>
    <desc>Created with Sketch.</desc>
    <defs>
        <linearGradient x1="-0.0100778263%" y1="49.9934515%" x2="99.9999271%" y2="49.9934515%" id="linearGradient-1">
            <stop stop-color="#7FB9FF" offset="0%"></stop>
            <stop stop-color="#008BE9" offset="100%"></stop>
        </linearGradient>
        <linearGradient x1="-0.0101887056%" y1="49.9976371%" x2="99.9962919%" y2="49.9976371%" id="linearGradient-2">
            <stop stop-color="#D4ECFF" offset="0%"></stop>
            <stop stop-color="#71C0EC" offset="100%"></stop>
        </linearGradient>
        <linearGradient x1="0.00888630798%" y1="49.9771764%" x2="99.9869361%" y2="49.9771764%" id="linearGradient-3">
            <stop stop-color="#E6CAE0" stop-opacity="0" offset="0%"></stop>
            <stop stop-color="#E6CAE0" stop-opacity="0.7" offset="100%"></stop>
        </linearGradient>
        <linearGradient x1="50.0043485%" y1="100%" x2="50.0043485%" y2="-2.36847579e-13%" id="linearGradient-4">
            <stop stop-color="#7FB9FF" offset="0%"></stop>
            <stop stop-color="#008BE9" offset="100%"></stop>
        </linearGradient>
        <linearGradient x1="0.0340145579%" y1="50.0271473%" x2="100.00575%" y2="50.0271473%" id="linearGradient-5">
            <stop stop-color="#FFFFFF" offset="0%"></stop>
            <stop stop-color="#D9A9E3" offset="100%"></stop>
        </linearGradient>
        <linearGradient x1="0.000309807005%" y1="49.9913272%" x2="100.001767%" y2="49.9913272%" id="linearGradient-6">
            <stop stop-color="#D9A9E3" stop-opacity="0.5" offset="0%"></stop>
            <stop stop-color="#B18DDF" offset="100%"></stop>
        </linearGradient>
        <linearGradient x1="0%" y1="50%" x2="100%" y2="50%" id="linearGradient-7">
            <stop stop-color="#99A6FA" offset="0%"></stop>
            <stop stop-color="#FFFFFF" offset="100%"></stop>
        </linearGradient>
        <linearGradient x1="50%" y1="4.17966315e-13%" x2="50%" y2="100%" id="linearGradient-8">
            <stop stop-color="#000000" stop-opacity="0" offset="0%"></stop>
            <stop stop-color="#000000" offset="100%"></stop>
        </linearGradient>
        <linearGradient x1="49.9634749%" y1="100.002864%" x2="49.9634749%" y2="0%" id="linearGradient-9">
            <stop stop-color="#000000" stop-opacity="0" offset="65%"></stop>
            <stop stop-color="#000000" stop-opacity="0.3" offset="100%"></stop>
        </linearGradient>
        <linearGradient x1="49.9703282%" y1="100%" x2="49.9703282%" y2="3.38777155e-14%" id="linearGradient-10">
            <stop stop-color="#5EB3FF" offset="0%"></stop>
            <stop stop-color="#0034E9" offset="100%"></stop>
        </linearGradient>
        <linearGradient x1="-3.19201588e-14%" y1="50.039133%" x2="100%" y2="50.039133%" id="linearGradient-11">
            <stop stop-color="#F5FFBF" stop-opacity="0.4" offset="0%"></stop>
            <stop stop-color="#F3FFDF" stop-opacity="0" offset="64%"></stop>
            <stop stop-color="#F3FFE9" stop-opacity="0" offset="100%"></stop>
        </linearGradient>
        <linearGradient x1="-1.97950337e-14%" y1="50.0003618%" x2="100%" y2="50.0003618%" id="linearGradient-12">
            <stop stop-color="#F3FFDF" stop-opacity="0" offset="10%"></stop>
            <stop stop-color="#F5FFBF" stop-opacity="0.5" offset="100%"></stop>
        </linearGradient>
        <linearGradient x1="0.00951384216%" y1="49.9989378%" x2="100.009509%" y2="49.9989378%" id="linearGradient-13">
            <stop stop-color="#D4ECFF" offset="0%"></stop>
            <stop stop-color="#8DCCF1" offset="72%"></stop>
            <stop stop-color="#71C0EC" offset="100%"></stop>
        </linearGradient>
        <linearGradient x1="38.5%" y1="49.5%" x2="61.5%" y2="49.5%" id="linearGradient-14">
            <stop stop-color="#FF7F9F" offset="0%"></stop>
            <stop stop-color="#D40017" offset="100%"></stop>
        </linearGradient>
        <linearGradient x1="0%" y1="52.5%" x2="100%" y2="52.5%" id="linearGradient-15">
            <stop stop-color="#E6CAE0" stop-opacity="0" offset="0%"></stop>
            <stop stop-color="#E6CAE0" stop-opacity="0.7" offset="100%"></stop>
        </linearGradient>
        <linearGradient x1="-0.0832107279%" y1="50.118624%" x2="100%" y2="50.118624%" id="linearGradient-16">
            <stop stop-color="#E6CAE0" stop-opacity="0" offset="0%"></stop>
            <stop stop-color="#E6CAE0" stop-opacity="0.7" offset="100%"></stop>
        </linearGradient>
        <linearGradient x1="0%" y1="49.5%" x2="100%" y2="49.5%" id="linearGradient-17">
            <stop stop-color="#E6CAE0" stop-opacity="0" offset="0%"></stop>
            <stop stop-color="#E6CAE0" stop-opacity="0.7" offset="100%"></stop>
        </linearGradient>
        <linearGradient x1="0%" y1="50.5%" x2="100%" y2="50.5%" id="linearGradient-18">
            <stop stop-color="#E6CAE0" stop-opacity="0" offset="0%"></stop>
            <stop stop-color="#E6CAE0" stop-opacity="0.7" offset="100%"></stop>
        </linearGradient>
        <linearGradient x1="1.20943444e-14%" y1="50.0174012%" x2="100%" y2="50.0174012%" id="linearGradient-19">
            <stop stop-color="#D4ECFF" offset="0%"></stop>
            <stop stop-color="#008BE9" stop-opacity="0.4" offset="100%"></stop>
        </linearGradient>
        <linearGradient x1="50.0603248%" y1="100%" x2="50.0603248%" y2="0%" id="linearGradient-20">
            <stop stop-color="#2A4AFF" offset="0%"></stop>
            <stop stop-color="#0060A0" stop-opacity="0" offset="69%"></stop>
            <stop stop-color="#008BE9" stop-opacity="0" offset="100%"></stop>
        </linearGradient>
        <linearGradient x1="0.0158566558%" y1="49.9927536%" x2="99.9881075%" y2="49.9927536%" id="linearGradient-21">
            <stop stop-color="#00102A" offset="0%"></stop>
            <stop stop-color="#FF304A" stop-opacity="0.62" offset="38%"></stop>
            <stop stop-color="#FF7FB8" stop-opacity="0" offset="100%"></stop>
        </linearGradient>
        <linearGradient x1="99.9172506%" y1="50%" x2="-0.0712676538%" y2="50%" id="linearGradient-22">
            <stop stop-color="#53AA9E" stop-opacity="0.62" offset="0%"></stop>
            <stop stop-color="#27C59D" stop-opacity="0" offset="100%"></stop>
        </linearGradient>
        <linearGradient x1="0%" y1="50%" x2="100%" y2="50%" id="linearGradient-23">
            <stop stop-color="#2A4AFF" offset="0%"></stop>
            <stop stop-color="#0060A0" stop-opacity="0" offset="69%"></stop>
            <stop stop-color="#008BE9" stop-opacity="0" offset="100%"></stop>
        </linearGradient>
        <linearGradient x1="99.9172506%" y1="50%" x2="-0.0712676538%" y2="50%" id="linearGradient-24">
            <stop stop-color="#53AA9E" stop-opacity="0.62" offset="0%"></stop>
            <stop stop-color="#27C59D" stop-opacity="0" offset="100%"></stop>
        </linearGradient>
        <linearGradient x1="0%" y1="50.5%" x2="100%" y2="50.5%" id="linearGradient-25">
            <stop stop-color="#F8F8FF" offset="0%"></stop>
            <stop stop-color="#E1E6FD" offset="100%"></stop>
        </linearGradient>
        <linearGradient x1="-0.0268997983%" y1="49.9955887%" x2="100%" y2="49.9955887%" id="linearGradient-26">
            <stop stop-color="#F8F8FF" offset="0%"></stop>
            <stop stop-color="#E1E6FD" offset="100%"></stop>
        </linearGradient>
        <linearGradient x1="49.9963881%" y1="99.9981751%" x2="49.9963881%" y2="0%" id="linearGradient-27">
            <stop stop-color="#E1E6FD" offset="1%"></stop>
            <stop stop-color="#F8F8FF" offset="46%"></stop>
            <stop stop-color="#E1E6FD" offset="100%"></stop>
        </linearGradient>
        <linearGradient x1="50%" y1="100%" x2="50%" y2="-0.306994127%" id="linearGradient-28">
            <stop stop-color="#F8F8FF" offset="35%"></stop>
            <stop stop-color="#E1E6FD" offset="100%"></stop>
        </linearGradient>
        <linearGradient x1="1.00654501e-14%" y1="49.9745025%" x2="99.9968174%" y2="49.9745025%" id="linearGradient-29">
            <stop stop-color="#FFFFFF" stop-opacity="0" offset="0%"></stop>
            <stop stop-color="#542AFF" offset="56%"></stop>
        </linearGradient>
    </defs>
    <g id="Page-1" stroke="none" stroke-width="1" fill="none" fill-rule="evenodd">
        <g id="Home-Copy" transform="translate(-96.000000, -4327.000000)">
            <g id="Artboard-1" transform="translate(96.000000, 4327.000000)">
                <path d="M172.898673,416.088162 C161.092563,428.315655 164.579227,448.572486 167.602474,452 L246.552677,452 C246.604108,428.322994 213.333681,447.471571 200.909681,418.480816 C193.951064,402.231315 172.898673,416.088162 172.898673,416.088162 Z" id="Path" fill="url(#linearGradient-1)"></path>
                <path d="M206.737831,289.385668 C208.872006,301.59452 194.823252,397.244048 199.768649,415.929861 C190.002962,422.325676 172.789743,415.583144 172.789743,415.583144 C164.414949,389.513005 159.153105,296.268362 163.568638,289.385668 C167.984171,282.502974 206.737831,289.385668 206.737831,289.385668 Z" id="Path" fill="url(#linearGradient-2)"></path>
                <path d="M155.190148,106.154663 C165.442604,111.51088 175.343547,112.426977 180.616238,110.912461 C198.821671,105.689227 203.244873,42.0647666 201.040595,33.3396751 L188.14447,23.4103586 L133.2206,33.347063 L141.276101,94.171515 C141.744785,101.352539 131.997629,119.209055 129.068356,120.686632 C126.139083,122.164209 140.543783,138.661355 140.543783,138.661355 C140.543783,138.661355 166.174922,132.381653 163.977967,126.101951 C161.781013,119.822249 164.080492,112.715105 167.602943,110.07763" id="Path" fill="#FDF8FF"></path>
                <path d="M133.271943,33.379915 L141.418336,93.8052498 C141.892308,100.939153 132.035172,118.678499 129.072848,120.14638 C126.332698,121.50417 138.589316,135.632528 140.440769,137.760956 C141.610887,127.654593 133.449682,128.373855 140.440769,112.674864 C151.386558,88.0438156 161.776912,92.5942477 170.064015,75.6475578 C177.714218,59.9926034 165.539064,60.9687445 185.364421,25.2111554 L133.271943,33.379915 Z" id="Path" fill="url(#linearGradient-3)" opacity="0.65"></path>
                <path d="M126.483457,17.5364939 C133.850259,1.35569082 146.005482,0.377487728 150.425563,0.00974220326 C154.845644,-0.358003321 187.627911,9.81383789 204.939895,8.77679551 C222.251879,7.73975313 226.30362,5.15817955 231.092041,6.26141612 C235.880462,7.36465269 226.30362,38.2552768 164.790826,37.1520402 C164.966993,38.8006619 165.028531,40.4594893 164.974996,42.1166048 C164.974996,45.058569 163.317466,50.2070063 161.659935,54.2522071 C160.186575,57.8414034 161.041124,69.8225526 159.707733,74.7944721 C159.654458,74.9902492 159.472426,75.123045 159.269416,75.1142328 C159.066406,75.1054205 158.896605,74.9573523 158.860551,74.7576975 C157.38719,66.1377424 152.421966,61.0996287 148.768032,61.7909903 C144.900461,62.5264814 144.716291,71.7201195 148.399692,76.3169386 C152.083093,80.9137576 150.241393,86.062195 147.110502,88.6364136 C143.979611,91.2106323 143.950144,93.0493599 141.217061,93.6230429 C138.483977,94.196726 122.512751,81.2815031 118.136871,64.365209 C114.365069,49.7877764 111.690919,23.361583 126.483457,17.5364939" id="Path" fill="#00368B"></path>
                <path d="M263.756229,421.756743 C260.326438,431.998775 262.284216,448.093396 263.756229,452 L349.132988,452 C349.132988,432.854716 299.92359,432.459666 293.689615,416.884462 L263.756229,421.756743 Z" id="Path" fill="url(#linearGradient-4)"></path>
                <path d="M360.248023,230.501992 L223.825902,230.339785 C222.615323,230.340553 221.497571,229.689128 220.898593,228.633752 C220.299616,227.578377 220.311678,226.281619 220.930184,225.237641 L274.096741,134.917898 C274.704359,133.889268 275.807941,133.258964 276.999808,133.258964 L413.025054,133.421171 C414.316074,133.42079 415.508104,134.115113 416.147811,135.240086 C416.787518,136.365058 416.7766,137.74781 416.119209,138.862475 L363.15109,228.813566 C362.55306,229.855743 361.446711,230.499196 360.248023,230.501992 L360.248023,230.501992 Z" id="Path" fill="#B4C7FF"></path>
                <path d="M358.987478,230.501992 L219.998454,230.33978 C219.192441,230.353277 218.443418,229.92391 218.045448,229.220246 C217.647477,228.516581 217.664088,227.650948 218.08876,226.963188 L272.566464,134.357557 C272.964816,133.671053 273.699387,133.251737 274.490848,133.258964 L413.472527,133.421253 C414.279851,133.405 415.031366,133.833287 415.431166,134.537479 C415.830966,135.24167 415.815005,136.108956 415.389567,136.797845 L360.904518,229.396104 C360.509341,230.083146 359.777838,230.505124 358.987478,230.501992 Z" id="Path" fill="#E1E6FD"></path>
                <path d="M353.617956,224.199203 L229.104108,224.051294 C228.58269,224.042931 228.104635,223.757714 227.847537,223.3016 C227.590439,222.845486 227.592717,222.286633 227.853525,221.832653 L276.81014,138.500503 C277.068703,138.050123 277.54353,137.769328 278.060722,137.760956 L402.581928,137.908866 C403.102026,137.919795 403.577722,138.206026 403.833048,138.661678 C404.088375,139.11733 404.085373,139.674661 403.825154,140.127506 L354.868539,223.481843 C354.604494,223.923697 354.130677,224.195489 353.617956,224.199203 Z" id="Path" fill="#FFFFFF" opacity="0.8"></path>
                <path d="M300.492169,154.868526 L223.959862,154.765875 C223.355106,154.78217 222.789485,154.467902 222.484085,153.945908 C222.178686,153.423915 222.182004,152.777086 222.492742,152.258251 L252.377974,101.665835 C252.673929,101.156483 253.219123,100.84349 253.808415,100.844622 L330.340722,100.932611 C330.943863,100.924309 331.50475,101.241272 331.80859,101.762118 C332.11243,102.282964 332.112144,102.926991 331.807842,103.447568 L301.915275,154.039983 C301.620312,154.547721 301.079537,154.862564 300.492169,154.868526 Z" id="Path" fill="url(#linearGradient-5)"></path>
                <path d="M368.556041,176.478088 L324.006574,176.419219 C323.657308,176.418856 323.335228,176.230351 323.163418,175.925744 C322.991609,175.621136 322.996626,175.247505 323.176551,174.947637 L340.570309,145.442408 C340.746021,145.146543 341.064004,144.964926 341.407677,144.964143 L385.949799,145.023007 C386.300378,145.020706 386.624891,145.208163 386.798502,145.513267 C386.972114,145.818371 386.96778,146.193591 386.787167,146.494589 L369.386064,176.007176 C369.211997,176.30014 368.896383,176.4792 368.556041,176.478088 Z" id="Path" fill="#E1E5FC"></path>
                <path d="M289.406042,185.482072 L258.031312,185.444632 C257.787034,185.443966 257.56173,185.31068 257.440534,185.095135 C257.319337,184.879591 257.320729,184.614657 257.444183,184.400439 L269.70051,163.315203 C269.822647,163.103266 270.045962,162.972771 270.287639,162.972112 L301.662369,163.009404 C301.906992,163.013108 302.131388,163.1482 302.252118,163.364448 C302.372847,163.580696 302.371851,163.845751 302.249499,164.061055 L290.000511,185.146291 C289.876304,185.358818 289.649219,185.487029 289.406042,185.482072 Z" id="Path" fill="#E1E5FC"></path>
                <path d="M315.509342,208.89243 L288.529516,208.856332 C288.319481,208.857127 288.125276,208.745766 288.021231,208.564872 C287.917187,208.383978 287.919413,208.161561 288.027058,207.982749 L298.564118,190.265632 C298.670687,190.091395 298.86105,189.984719 299.066577,189.984064 L326.053685,189.984064 C326.264051,189.986264 326.457312,190.099383 326.56088,190.280936 C326.664447,190.462489 326.662643,190.684988 326.556143,190.864866 L316.019083,208.553105 C315.924081,208.749727 315.728865,208.879679 315.509342,208.89243 L315.509342,208.89243 Z" id="Path" fill="#E1E5FC"></path>
                <path d="M361.169533,116.151394 L301.032281,116.077099 C300.534292,116.077196 300.074328,115.806826 299.826606,115.368393 C299.578883,114.929961 299.581285,114.390513 299.8329,113.95437 L323.301274,73.6225288 C323.55218,73.1965337 324.004326,72.9347224 324.493342,72.9322709 L384.637907,73.0064922 C385.136547,73.0043735 385.597657,73.2749932 385.844565,73.7146644 C386.091473,74.1543355 386.085897,74.6948916 385.829974,75.1292207 L362.368914,115.490751 C362.108513,115.90655 361.65496,116.156349 361.169533,116.151394 Z" id="Path" fill="url(#linearGradient-6)"></path>
                <path d="M271.300283,119.752838 L250.632814,119.752838 C250.45884,119.756098 250.297165,119.664702 250.212146,119.515032 C250.127126,119.365362 250.132562,119.181711 250.226288,119.037183 L258.284205,105.575708 C258.372441,105.433718 258.529083,105.347025 258.69799,105.346614 L279.365459,105.346614 C279.539433,105.343438 279.701108,105.434833 279.786127,105.584503 C279.871147,105.734173 279.865711,105.917825 279.771985,106.062353 L271.735846,119.516672 C271.644391,119.666975 271.478017,119.757185 271.300283,119.752838 L271.300283,119.752838 Z" id="Path" fill="#F5F5B6"></path>
                <rect id="Rectangle" fill="#D3DAFC" x="92.6822107" y="334.047809" width="28.7944732" height="102.645418"></rect>
                <rect id="Rectangle" fill="url(#linearGradient-7)" x="188.063903" y="239.505976" width="332.936097" height="10.8047809" rx="5.40239044"></rect>
                <path d="M112.422716,436.693227 L121.476684,436.693227 L121.476684,334.047809 L112.600106,334.047809 C103.709336,356.42451 118.730692,374.614744 118.099185,397.834604 C117.623781,415.562935 115.800215,428.327625 112.422716,436.693227 Z" id="Path" fill="#99A6FA" opacity="0.29"></path>
                <path d="M80.0846287,318.741036 L90.2357703,335.800362 C91.569041,338.058107 94.0034432,339.446321 96.6362009,339.450199 L116.732966,339.450199 C119.373187,339.452601 121.81708,338.063754 123.155416,335.800362 L133.174439,318.741036 L80.0846287,318.741036 Z" id="Path" fill="#99A6FA"></path>
                <path d="M55.588417,452 C54.567864,451.997783 53.6507799,451.379841 53.2703601,450.438065 C52.8899402,449.496289 53.1223138,448.419148 53.8577164,447.71544 L60.890989,440.984653 C63.1003941,438.875331 66.9447588,437.593625 71.0689815,437.593625 L142.837821,437.593625 C146.888397,437.593625 150.673844,438.831387 152.905343,440.882117 L160.270026,447.686144 C161.023384,448.38273 161.271707,449.466652 160.896121,450.419029 C160.520536,451.371405 159.597463,451.998453 158.568785,452 L55.588417,452 Z" id="Path" fill="#99A6FA"></path>
                <path d="M190.035809,229.601594 L357.059182,229.601594 C358.148236,229.601594 359.031088,230.47542 359.031088,231.55334 L359.031088,231.55334 C359.031088,235.945459 355.433794,239.505976 350.996307,239.505976 L196.098684,239.505976 C193.967728,239.505976 191.92405,238.668111 190.417236,237.176703 C188.910422,235.685294 188.063903,233.66251 188.063903,231.55334 L188.063903,231.55334 C188.063903,231.035704 188.271657,230.53927 188.641461,230.173247 C189.011265,229.807223 189.512827,229.601594 190.035809,229.601594 L190.035809,229.601594 Z" id="Path" fill="#D4DDFF"></path>
                <path d="M190.035809,229.601594 L357.059182,229.601594 C358.148236,229.601594 359.031088,230.47542 359.031088,231.55334 L359.031088,231.55334 C359.031088,235.945459 355.433794,239.505976 350.996307,239.505976 L196.098684,239.505976 C193.967728,239.505976 191.92405,238.668111 190.417236,237.176703 C188.910422,235.685294 188.063903,233.66251 188.063903,231.55334 L188.063903,231.55334 C188.063903,231.035704 188.271657,230.53927 188.641461,230.173247 C189.011265,229.807223 189.512827,229.601594 190.035809,229.601594 L190.035809,229.601594 Z" id="Path" fill="url(#linearGradient-8)" opacity="0.14"></path>
                <path d="M206.960276,297.347639 C206.91599,297.273794 206.871704,297.185181 206.84218,297.126105 C205.535739,294.696623 186.108891,293.758798 162.556051,293.52988 C160.194125,313.534343 165.227981,392.001458 172.823052,415.579992 C172.823052,415.579992 190.07988,422.329375 199.881877,415.927061 C195.527074,399.526208 205.779313,324.035024 206.960276,297.347639 Z" id="Path" fill="url(#linearGradient-9)" opacity="0.46"></path>
                <path d="M35.8774153,232.302789 L85.3643881,232.302789 C85.955964,232.303293 86.4672249,232.71728 86.5924996,233.297235 L94.4420553,269.193758 C94.5478769,269.642163 94.4400767,270.114437 94.1502915,270.47198 C93.8605062,270.829522 93.421608,271.031775 92.962403,271.019382 L46.3533539,271.019382 C45.300139,271.009715 44.3870186,270.28611 44.1338754,269.260549 L35.1153943,233.274971 C35.0586662,233.040503 35.1123406,232.79289 35.2610072,232.603221 C35.4096738,232.413553 35.6368881,232.302789 35.8774153,232.302789 Z" id="Path" stroke="#000000" stroke-width="0.9"></path>
                <path d="M346.56675,235.365875 C346.118299,235.882983 345.09642,236.094196 343.243805,235.708186 C339.567981,234.979865 341.03831,231.702419 327.437761,229.881616 C313.837212,228.060813 302.442157,235.708186 298.766333,235.897549 C298.52149,235.911826 298.276011,235.911826 298.031168,235.897549 C297.71376,236.701667 297.801089,237.607381 298.266421,238.337425 C300.339585,240.966665 344.353904,238.337425 344.353904,238.337425 C347.809178,238.177195 347.831233,236.822517 346.56675,235.365875 Z" id="Path" fill="#FFFFFF"></path>
                <path d="M206.960276,298.021408 C206.9163,297.947891 206.872323,297.85967 206.843006,297.800857 C206.249323,296.690746 201.837012,295.889408 194.984005,295.330677 C199.271716,315.202388 200.004658,342.822816 194.874064,358.026182 C190.234542,371.825368 187.947763,399.93101 191.854343,418.685259 C194.712347,418.480419 197.478502,417.584988 199.916705,416.075397 C195.607006,399.747217 205.787569,324.59054 206.960276,298.021408 Z" id="Path" fill="url(#linearGradient-10)" opacity="0.07"></path>
                <path d="M180.865285,7.14780597 C166.789415,4.46824806 153.193069,0.683189478 150.456095,0.910146569 C146.029721,1.27620639 133.857192,2.24992552 126.479902,18.3565578 C118.2616,21.570563 115.413966,31.0954397 115.177893,41.4183267 C116.43941,30.5243863 127.793059,20.9848673 136.070379,20.3259596 C138.65243,13.7368828 150.456095,0.924788962 180.865285,7.14780597 Z" id="Path" fill="url(#linearGradient-11)"></path>
                <path d="M232.15544,9.90438247 C218.179728,11.6679829 213.230301,20.7442529 202.297569,26.0571915 C189.099099,32.454855 172.029079,20.6483249 157.364113,26.0571915 C142.699146,31.4660581 152.473346,46.7186192 145.140863,61.4767818 C141.826581,68.117955 134.222796,75.5339317 126.875648,81.636432 C132.895616,89.7534214 139.9348,94.9187783 141.723926,94.5203079 C144.444277,93.9668768 144.473607,92.0999693 147.589913,89.5172908 C150.706218,86.9346123 152.539339,81.7692554 148.873097,77.1573296 C145.206855,72.5454038 145.390168,63.3215521 149.239721,62.583644 C153.089275,61.8457359 158.405325,67.5645239 159.505198,77.1573296 C161.704943,73.836743 160.421758,59.0785804 162.071567,55.0200856 C163.721375,50.9615909 165.371184,45.796234 165.371184,42.8446015 C165.424469,41.1820402 165.363218,39.5177612 165.187872,37.8637216 C215.620691,38.7787277 230.974911,17.940202 232.15544,9.90438247 Z" id="Path" fill="url(#linearGradient-12)"></path>
                <path d="M249.591158,278.194843 C248.022988,274.506663 245.306299,268.789985 238.547707,266.621335 C223.315106,261.885712 184.456883,252.178424 164.298904,253.078339 L62.0880829,253.011952 L74.8469501,296.230042 C74.8469501,296.230042 203.444257,292.291066 206.875089,298.686369 C210.305921,305.081673 262.828574,418.677607 264.301035,422.609207 C265.773495,426.540806 281.970556,426.053966 294.243523,417.689175 C294.265599,417.689175 263.00527,311.041771 249.591158,278.194843 Z" id="Path" fill="url(#linearGradient-13)"></path>
                <path d="M217.41177,197.831036 L217.20481,197.443865 L217.41177,197.831036 Z" id="Path" fill="url(#linearGradient-14)"></path>
                <path d="M167.367876,110.096215 C167.978473,110.240279 168.573001,110.384343 169.16753,110.501394 C168.573001,110.411355 167.978473,110.267291 167.367876,110.096215 Z" id="Path" fill="url(#linearGradient-15)"></path>
                <path d="M167.367876,109.985321 C163.808931,109.13197 160.353375,107.878224 157.064408,106.247012 L157.064408,106.247012 C153.459292,118.209601 157.751794,126.785281 159.762761,131.458167 L159.762761,131.458167 C162.929121,129.648826 165.013215,127.637616 164.318517,125.633882 C162.256361,119.704924 164.18689,112.975968 167.367876,109.985321 Z" id="Path" fill="url(#linearGradient-16)"></path>
                <path d="M170.967185,111.347769 C170.375518,111.269734 169.775633,111.170691 169.16753,111.050637 C169.775633,111.170691 170.375518,111.269734 170.967185,111.347769 Z" id="Path" fill="url(#linearGradient-17)"></path>
                <path d="M172.766839,111.311753 C172.179828,111.257729 171.577368,111.176693 170.967185,111.086653 C171.577368,111.158685 172.179828,111.257729 172.766839,111.311753 Z" id="Path" fill="url(#linearGradient-18)"></path>
                <path d="M238.627305,266.561083 C223.416471,261.843696 184.613774,252.173786 164.484599,253.070237 L129.085777,253.070237 L121.476684,267.766148 C202.713857,261.520386 233.958924,272.850933 240.207937,279.522877 C244.795448,284.416615 254.543909,302.911419 253.566122,335.734737 C252.588336,368.558054 279.047393,391.814333 286.399174,415.945019 C286.876702,417.487418 287.436233,419.003252 288.07538,420.486056 C290.226189,419.518486 292.289828,418.367972 294.243523,417.047213 C294.243523,417.047213 263.035216,310.839863 249.63292,278.119417 C248.089046,274.44544 245.354184,268.76547 238.627305,266.561083 Z" id="Path" fill="url(#linearGradient-19)" opacity="0.32"></path>
                <path d="M342.822035,235.959432 C346.489867,236.700183 346.85665,235.21868 346.123083,233.366801 C345.389517,231.514922 319.347916,216.877671 319.347916,216.877671 C312.243343,215.279689 304.986394,214.474848 297.707713,214.477636 C285.60387,214.477636 239.755981,221.514776 226.918572,211.51463 C221.226099,207.07012 215.181513,195.26254 209.929179,182.780876 C199.541881,185.610547 187.584752,191.810638 180.865285,199.632975 C190.210919,215.381353 202.175384,232.389009 212.980814,238.152056 C230.586403,240.374311 278.268208,233.707547 284.136738,233.707547 C290.005267,233.707547 294.773448,236.300177 298.441279,236.122397 C302.10911,235.944617 313.479387,228.15191 327.050362,230.003789 C340.621337,231.855668 339.154204,235.21868 342.822035,235.959432 Z" id="Path" fill="#FDF8FF"></path>
                <path d="M200.822494,418.050613 C200.524236,417.336781 200.174224,416.646063 199.775297,415.984064 C197.319975,417.503632 194.537248,418.40378 191.663212,418.608135 C192.289559,421.834316 193.240898,424.987643 194.502442,428.01911 C202.06143,445.369202 229.347535,446.543716 232.113018,452 L246.552677,452 C246.63365,428.01911 213.278232,447.41345 200.822494,418.050613 Z" id="Path" fill="url(#linearGradient-20)" opacity="0.5"></path>
                <path d="M177.100509,194.13341 C178.189742,196.036543 179.308415,197.983764 180.515403,199.953028 C187.249515,192.193538 199.238443,186.04326 209.659758,183.243671 C203.036041,167.68795 197.604593,151.066768 195.632197,146.613879 C192.408655,139.346705 182.841064,130.20579 163.705881,126.039472 C157.332393,130.323358 134.267139,129.221157 128.629619,120.653386 C120.210139,120.903219 108.118176,124.643352 99.632458,127.744209 C75.6104441,136.503028 57.2406687,190.856201 55.032763,231.637615 C52.8248573,272.419028 76.8615906,270.427719 76.8615906,270.427719 C105.520206,275.497841 142.914769,267.106422 162.969913,253.490574 C163.500305,253.127732 163.81273,252.523197 163.801557,251.881361 C163.551328,237.846677 165.582601,208.836763 177.048991,194.148106 L177.100509,194.13341 Z" id="Path" fill="#71EAD5"></path>
                <path d="M307.675227,220.059328 C317.732998,222.07375 327.668926,224.658382 337.435233,227.800797 C329.609454,223.082187 319.41757,217.390364 319.41757,217.390364 C312.300903,215.799865 305.031601,214.998793 297.740529,215.001568 C285.616082,215.001568 239.690147,222.005754 226.830886,212.052437 C221.13607,207.628741 215.073846,195.898572 209.834616,183.497476 L209.922793,183.497476 C203.309459,167.8892 197.886524,151.211864 195.91722,146.743931 C192.676686,139.407968 183.124092,130.23617 164.018903,126.055777 C161.704236,127.618816 157.170428,128.466691 152.070812,128.496183 C165.135822,130.848115 172.52806,132.492255 182.727292,143.381922 C194.116924,155.547087 205.506556,212.317859 219.46804,220.059328 C233.429524,227.800797 283.058926,215.362837 307.675227,220.059328 Z" id="Path" fill="url(#linearGradient-21)" opacity="0.18"></path>
                <path d="M132.274611,123.991063 C130.854577,123.145498 129.631014,122.007729 128.685257,120.653386 C120.356209,120.900622 108.394122,124.601879 99.999548,127.670506 C95.8714268,129.175732 91.918041,132.033481 88.1830743,135.960159 C96.4975616,128.484928 115.063186,124.529163 132.274611,123.991063 L132.274611,123.991063 Z" id="Path" fill="url(#linearGradient-22)"></path>
                <path d="M294.076713,416.884462 L294.076713,416.884462 C292.136132,418.200039 290.084321,419.343211 287.944732,420.300911 C292.614978,432.488929 312.348409,435.905378 322.580559,442.489542 C325.438253,444.325792 327.594313,447.859293 329.216839,452 L349.132988,452 C349.132988,432.913242 300.493733,432.335299 294.076713,416.884462 Z" id="Path" fill="url(#linearGradient-23)" opacity="0.5"></path>
                <rect id="Rectangle" fill="#E1E5FC" x="30.5941278" y="295.330677" width="153.870466" height="23.4103586" rx="11.7051793"></rect>
                <rect id="Rectangle" fill="#D3DAFC" x="126.875648" y="295.330677" width="57.5889465" height="23.4103586" rx="11.7051793"></rect>
                <path d="M177.265976,193.775683 L166.522509,171.976096 C166.522509,171.976096 168.715053,194.378166 162.868269,205.942895 C156.634135,218.352569 148.777518,228.71968 153.528031,252.613262 C153.878838,254.361931 154.215028,255.985695 154.551218,257.513944 C157.876577,255.831401 160.770735,254.751341 163.474873,252.980629 C163.882761,252.706264 164.12051,252.239354 164.103402,251.746274 C163.832988,237.786309 165.813587,208.565899 177.258667,193.790378 L177.265976,193.775683 Z" id="Path" fill="url(#linearGradient-24)"></path>
                <polygon id="Path" fill="url(#linearGradient-25)" points="471.509499 131.912869 464.310881 131.903865 464.326547 131.912869"></polygon>
                <path d="M500.303972,112.549801 L450.840702,112.549801 C449.789553,115.636484 447.911611,118.370188 445.414508,120.448665 C453.719908,128.050021 462.785713,131.664755 471.475007,131.449061 C482.4529,131.173866 492.840186,124.762546 500.303972,112.549801 Z" id="Path" fill="url(#linearGradient-26)"></path>
                <path d="M471.509499,131.449316 C462.775981,131.662649 453.667854,128.021268 445.338325,120.363332 L445.294253,120.319194 C426.585867,103.053897 430.309916,78.2704346 419.056972,61.1228386 C413.915287,53.3472019 407.745266,49.8014527 401.751531,49.5219124 L382.653846,49.5219124 L369.829016,61.1228386 C381.089305,78.2851473 377.350565,103.090679 396.110369,120.363332 C403.749443,127.388624 412.042245,131.030005 420.092654,131.397822 C420.907978,131.434603 421.715957,131.441959 422.523936,131.397822 L471.509499,131.449316 Z" id="Path" fill="url(#linearGradient-27)"></path>
                <rect id="Rectangle" fill="#B4C7FF" opacity="0.13" x="374.328152" y="57.4046511" width="29.6943005" height="1" rx="0.27"></rect>
                <path d="M401.322971,49.2945293 L401.322971,49.2945293 C400.806908,49.2945293 350.453946,47.7802447 346.819392,49.2945293 C343.184837,50.8088139 339.815685,55.1699534 335.635579,61.2270916 L382.818442,61.2270916 C387.116505,53.5042404 394.061233,48.9538153 401.322971,49.2945293 Z" id="Path" fill="url(#linearGradient-28)"></path>
                <rect id="Rectangle" fill="#B4C7FF" opacity="0.15" x="381.52677" y="67.3090336" width="29.6943005" height="1" rx="0.27"></rect>
                <path d="M8.25586542,190.884462 L99.3793919,190.884462 C103.722269,190.876045 107.4885,193.877807 108.439362,198.105563 L122.15474,260.142697 C122.782406,263.027284 122.061722,266.040128 120.196057,268.331043 C118.330392,270.621959 115.522071,271.942504 112.563567,271.920319 L27.1578551,271.920319 C21.8938215,271.935448 17.2919927,268.381337 15.9878269,263.293136 L0.243546604,201.057258 C-0.369209273,198.602936 0.188651603,196.003838 1.75505146,194.01509 C3.32145131,192.026343 5.72074878,190.870946 8.25586542,190.884462 Z" id="Path" fill="#99A6FA"></path>
                <path d="M6.32665933,193.585657 L95.7980361,193.585657 C99.9763831,193.588711 103.590417,196.490057 104.487012,200.561165 L117.660621,260.544648 C118.26776,263.316063 117.584184,266.212674 115.801437,268.422831 C114.018689,270.632987 111.328554,271.918927 108.484826,271.920319 L26.5001313,271.920319 C21.4388817,271.912202 17.028434,268.479073 15.7901199,263.583556 L0.189793264,201.466216 C-0.283581198,199.576786 0.139423561,197.575152 1.33711497,196.037156 C2.53480637,194.49916 4.37439592,193.59532 6.32665933,193.585657 Z" id="Path" fill="#E1E5FC"></path>
                <rect id="Rectangle" fill="#B4C7FF" opacity="0.17" x="386.025907" y="78.1138144" width="29.6943005" height="1" rx="0.27"></rect>
                <rect id="Rectangle" fill="#B4C7FF" opacity="0.16" x="388.725389" y="89.8189937" width="29.6943005" height="1" rx="0.27"></rect>
                <path d="M40.9815184,232.302789 L77.5405829,232.302789 C80.9638531,232.30231 83.9262966,234.707471 84.6613334,238.084013 L89.8053224,261.780352 C90.2976365,264.029783 89.7530024,266.383319 88.3245106,268.179406 C86.8960189,269.975494 84.7378962,271.01992 82.4567667,271.01992 L48.3594683,271.01992 C44.5359162,271.019408 41.2032853,268.39115 40.2760571,264.644989 L34.3972125,240.852173 C33.8890214,238.800973 34.3430503,236.627704 35.6284539,234.958673 C36.9138575,233.289642 38.8878378,232.310266 40.9815184,232.302789 Z" id="Path" fill="#99A6FA"></path>
                <rect id="Rectangle" fill="#B4C7FF" opacity="0.16" x="392.324698" y="100.623775" width="29.6943005" height="1" rx="0.27"></rect>
                <path d="M61.2337906,232.302789 L40.9886583,232.302789 C38.8966628,232.301144 36.9207134,233.276675 35.6327884,234.946997 C34.3448635,236.617319 33.8887719,238.795926 34.3965385,240.852174 L40.2562006,264.644989 C41.1804033,268.39115 44.5021599,271.019408 48.3132358,271.01992 L66.3316966,271.01992 C70.8509609,258.025154 67.364462,243.716811 61.2337906,232.302789 Z" id="Path" fill="#542AFF" opacity="0.16"></path>
                <rect id="Rectangle" fill="#B4C7FF" opacity="0.17" x="397.723661" y="111.428555" width="29.6943005" height="1" rx="0.27"></rect>
                <rect id="Rectangle" fill="#B4C7FF" opacity="0.13" x="405.822107" y="120.43254" width="29.6943005" height="1" rx="0.27"></rect>
                <path d="M360.421615,98.1434263 L357.808216,95.7097882 L352.908091,98.1360961 C352.845567,98.1366642 352.787536,98.1033574 352.75603,98.0488214 C352.724525,97.9942854 352.724377,97.9268839 352.755643,97.8722076 C352.755643,97.8722076 355.775571,92.7410359 355.840906,92.7410359 L363.35443,92.7410359 C363.416954,92.7404749 363.474986,92.7737817 363.506491,92.8283177 C363.537997,92.8828537 363.538144,92.9502551 363.506879,93.0049315 L360.603101,98.0188123 C360.573467,98.0938616 360.501629,98.1431871 360.421615,98.1434263 Z" id="Path" fill="#FFEC00" opacity="0.52"></path>
                <rect id="Rectangle" fill="#B4C7FF" opacity="0.13" x="415.720207" y="127.635727" width="29.6943005" height="1" rx="0.27"></rect>
                <path d="M85.3302764,311.313826 C85.7664031,313.062793 86.6520388,314.668073 87.8997893,315.971258 C89.6182855,317.758957 91.9993317,318.760809 94.4818653,318.741036 L77.5481128,318.741036 C75.0960833,318.716963 72.7615318,317.689072 71.0911994,315.897797 C69.8398423,314.570283 68.9523623,312.943486 68.514324,311.17425 L54.0690969,254.418231 C53.9082914,253.897951 53.9942473,253.332892 54.3025343,252.883652 C54.6108214,252.434412 55.1077315,252.150112 55.6520346,252.111554 L67.8885114,252.111554 C68.6438709,252.137307 69.288837,252.663558 69.4640866,253.397122 L85.3302764,311.313826 Z" id="Path" fill="#99A6FA"></path>
                <path d="M84.467136,311.314024 C84.9032687,313.062996 85.7889166,314.668282 87.0366843,315.971471 C88.7463878,317.749883 91.1122333,318.750927 93.582038,318.741036 L76.6480521,318.741036 C74.1959888,318.717185 71.8614051,317.689291 70.1910496,315.898009 C68.9396754,314.570492 68.0521831,312.943689 67.6141387,311.174447 L53.1687125,254.418239 C53.0070651,253.893261 53.0966049,253.323263 53.4114814,252.872806 C53.7263579,252.422349 54.231519,252.141578 54.7811225,252.111554 L67.0177679,252.111554 C67.7731378,252.137307 68.4181129,252.66356 68.5933649,253.397127 L84.467136,311.314024 Z" id="Path" fill="#D3DAFC"></path>
                <path d="M144.134816,446.14076 C138.022074,445.65005 65.2188796,446.14076 65.2188796,446.14076 L57.5889465,452 L158.581116,452 C159.604339,452.004322 160.524952,451.379602 160.898246,450.427594 C161.271539,449.475587 161.020694,448.392201 160.266884,447.700776 L152.937457,440.882112 C150.738629,438.831385 146.949316,437.593625 142.918131,437.593625 L140.49942,437.593625 C146.150408,442.281 148.341907,446.477665 144.134816,446.14076 Z" id="Path" fill="url(#linearGradient-29)" opacity="0.16"></path>
                <path d="M126.875648,307.080665 C127.12453,313.590565 132.363555,318.737927 138.743665,318.741036 L172.589219,318.741036 C178.995385,318.73673 184.246564,313.550723 184.464594,307.013047 C166.408727,311.385686 152.406968,308.207634 142.930213,306.592312 C137.698867,305.69825 131.709676,306.254221 126.875648,307.080665 Z" id="Path" fill="#99A6FA" opacity="0.29"></path>
                <ellipse id="Oval" fill="#7776FF" transform="translate(362.922745, 86.519912) rotate(-39.520000) translate(-362.922745, -86.519912) " cx="362.922745" cy="86.5199121" rx="9.18652119" ry="6.25359404"></ellipse>
                <path d="M110.678756,339.450199 L117.029799,339.450199 C119.625831,339.452605 122.02882,338.061796 123.344757,335.795208 L133.174439,318.741036 L122.348798,318.741036 C120.544524,325.700132 117.542213,332.132911 110.678756,339.450199 Z" id="Path" fill="#542AFF" opacity="0.16"></path>
            </g>
        </g>
    </g>
</svg>