<?xml version="1.0" encoding="UTF-8"?>
<svg width="534px" height="461px" viewBox="0 0 534 461" version="1.1" xmlns="http://www.w3.org/2000/svg" xmlns:xlink="http://www.w3.org/1999/xlink">
    <!-- Generator: Sketch 60.1 (88133) - https://sketch.com -->
    <title>Group 45</title>
    <desc>Created with Sketch.</desc>
    <defs>
        <linearGradient x1="184.546797%" y1="52.8790455%" x2="-6.9408815%" y2="68.6776517%" id="linearGradient-1">
            <stop stop-color="#7FE3FF" stop-opacity="0.307008605" offset="0%"></stop>
            <stop stop-color="#2B86E8" stop-opacity="0" offset="100%"></stop>
        </linearGradient>
        <linearGradient x1="0%" y1="15.9774624%" x2="101.999998%" y2="84.7029877%" id="linearGradient-2">
            <stop stop-color="#3023AE" stop-opacity="0.447124094" offset="0%"></stop>
            <stop stop-color="#C86DD7" stop-opacity="0.371999547" offset="100%"></stop>
        </linearGradient>
        <linearGradient x1="0%" y1="17.2749319%" x2="131.549519%" y2="96.0849011%" id="linearGradient-3">
            <stop stop-color="#FC70AD" stop-opacity="0.52881567" offset="0%"></stop>
            <stop stop-color="#E240FF" stop-opacity="0.19067029" offset="100%"></stop>
        </linearGradient>
        <linearGradient x1="49.9967391%" y1="100%" x2="49.9967391%" y2="0%" id="linearGradient-4">
            <stop stop-color="#D4ECFF" offset="0%"></stop>
            <stop stop-color="#8DCCF1" offset="63%"></stop>
            <stop stop-color="#71C0EC" offset="100%"></stop>
        </linearGradient>
        <linearGradient x1="43.6721781%" y1="47.213736%" x2="47.0461453%" y2="53.4049853%" id="linearGradient-5">
            <stop stop-color="#AAE1FF" stop-opacity="0.807574728" offset="0%"></stop>
            <stop stop-color="#ACE7FF" stop-opacity="0" offset="100%"></stop>
        </linearGradient>
        <linearGradient x1="-3.01665659%" y1="44.5154678%" x2="64.7725108%" y2="56.9982897%" id="linearGradient-6">
            <stop stop-color="#36B1D4" offset="0%"></stop>
            <stop stop-color="#2B86E8" stop-opacity="0.197095788" offset="100%"></stop>
        </linearGradient>
        <linearGradient x1="-0.0354374312%" y1="49.9924047%" x2="99.9689933%" y2="49.9924047%" id="linearGradient-7">
            <stop stop-color="#E6CAE0" stop-opacity="0" offset="0%"></stop>
            <stop stop-color="#E6CAE0" stop-opacity="0.1" offset="55%"></stop>
            <stop stop-color="#E6CAE0" stop-opacity="0.7" offset="100%"></stop>
        </linearGradient>
        <linearGradient x1="-0.00101254689%" y1="50%" x2="100.02767%" y2="50%" id="linearGradient-8">
            <stop stop-color="#E6CAE0" stop-opacity="0" offset="0%"></stop>
            <stop stop-color="#E6CAE0" stop-opacity="0.1" offset="26%"></stop>
            <stop stop-color="#E6CAE0" stop-opacity="0.7" offset="100%"></stop>
        </linearGradient>
        <linearGradient x1="99.9172506%" y1="50%" x2="-0.0712676538%" y2="50%" id="linearGradient-9">
            <stop stop-color="#53AA9E" stop-opacity="0.62" offset="0%"></stop>
            <stop stop-color="#27C59D" stop-opacity="0" offset="100%"></stop>
        </linearGradient>
        <linearGradient x1="0.00399352031%" y1="50%" x2="100%" y2="50%" id="linearGradient-10">
            <stop stop-color="#E6CAE0" stop-opacity="0" offset="0%"></stop>
            <stop stop-color="#E6CAE0" stop-opacity="0.1" offset="26%"></stop>
            <stop stop-color="#E6CAE0" stop-opacity="0.7" offset="100%"></stop>
        </linearGradient>
        <linearGradient x1="7.55093237e-14%" y1="49.9920645%" x2="100%" y2="49.9920645%" id="linearGradient-11">
            <stop stop-color="#F3FFDF" stop-opacity="0" offset="10%"></stop>
            <stop stop-color="#F5FFBF" stop-opacity="0.5" offset="100%"></stop>
        </linearGradient>
        <linearGradient x1="0%" y1="50.0987165%" x2="99.9932005%" y2="50.0987165%" id="linearGradient-12">
            <stop stop-color="#D4ECFF" offset="0%"></stop>
            <stop stop-color="#008BE9" stop-opacity="0.4" offset="100%"></stop>
        </linearGradient>
        <linearGradient x1="38.5%" y1="49.5%" x2="63.5%" y2="49.5%" id="linearGradient-13">
            <stop stop-color="#D4ECFF" offset="0%"></stop>
            <stop stop-color="#008BE9" stop-opacity="0.4" offset="100%"></stop>
        </linearGradient>
        <linearGradient x1="50%" y1="50%" x2="51%" y2="50%" id="linearGradient-14">
            <stop stop-color="#00102A" offset="0%"></stop>
            <stop stop-color="#FF7FB8" stop-opacity="0.6" offset="100%"></stop>
        </linearGradient>
        <linearGradient x1="2.60869565%" y1="49.8461538%" x2="102.608696%" y2="49.8461538%" id="linearGradient-15">
            <stop stop-color="#00102A" offset="0%"></stop>
            <stop stop-color="#FF7FB8" stop-opacity="0.6" offset="100%"></stop>
        </linearGradient>
        <linearGradient x1="53.0331974%" y1="42.3016708%" x2="32.1160016%" y2="83.1487951%" id="linearGradient-16">
            <stop stop-color="#53AA9E" stop-opacity="0.62" offset="0%"></stop>
            <stop stop-color="#27C59D" stop-opacity="0" offset="100%"></stop>
        </linearGradient>
        <linearGradient x1="49.2077706%" y1="49.5%" x2="53.2077706%" y2="49.5%" id="linearGradient-17">
            <stop stop-color="#00102A" offset="0%"></stop>
            <stop stop-color="#FF7FB8" stop-opacity="0.6" offset="100%"></stop>
        </linearGradient>
        <linearGradient x1="47%" y1="50%" x2="49%" y2="50%" id="linearGradient-18">
            <stop stop-color="#00102A" offset="0%"></stop>
            <stop stop-color="#FF7FB8" stop-opacity="0.6" offset="100%"></stop>
        </linearGradient>
        <linearGradient x1="49.4226497%" y1="50%" x2="53.4226497%" y2="50%" id="linearGradient-19">
            <stop stop-color="#00102A" offset="0%"></stop>
            <stop stop-color="#FF7FB8" stop-opacity="0.6" offset="100%"></stop>
        </linearGradient>
        <linearGradient x1="50%" y1="51%" x2="53%" y2="51%" id="linearGradient-20">
            <stop stop-color="#00102A" offset="0%"></stop>
            <stop stop-color="#FF7FB8" stop-opacity="0.6" offset="100%"></stop>
        </linearGradient>
        <linearGradient x1="50%" y1="49.5%" x2="53%" y2="49.5%" id="linearGradient-21">
            <stop stop-color="#00102A" offset="0%"></stop>
            <stop stop-color="#FF7FB8" stop-opacity="0.6" offset="100%"></stop>
        </linearGradient>
        <linearGradient x1="49.0533045%" y1="50.5%" x2="53.0533045%" y2="50.5%" id="linearGradient-22">
            <stop stop-color="#00102A" offset="0%"></stop>
            <stop stop-color="#FF7FB8" stop-opacity="0.6" offset="100%"></stop>
        </linearGradient>
        <linearGradient x1="49.625%" y1="49.5%" x2="51.625%" y2="49.5%" id="linearGradient-23">
            <stop stop-color="#00102A" offset="0%"></stop>
            <stop stop-color="#FF7FB8" stop-opacity="0.6" offset="100%"></stop>
        </linearGradient>
        <linearGradient x1="49.625%" y1="50%" x2="50.625%" y2="50%" id="linearGradient-24">
            <stop stop-color="#00102A" offset="0%"></stop>
            <stop stop-color="#FF7FB8" stop-opacity="0.6" offset="100%"></stop>
        </linearGradient>
        <linearGradient x1="50%" y1="50%" x2="53%" y2="50%" id="linearGradient-25">
            <stop stop-color="#00102A" offset="0%"></stop>
            <stop stop-color="#FF7FB8" stop-opacity="0.6" offset="100%"></stop>
        </linearGradient>
        <linearGradient x1="50%" y1="50%" x2="52%" y2="50%" id="linearGradient-26">
            <stop stop-color="#00102A" offset="0%"></stop>
            <stop stop-color="#FF7FB8" stop-opacity="0.6" offset="100%"></stop>
        </linearGradient>
        <linearGradient x1="100.334561%" y1="50%" x2="1.05878962%" y2="50%" id="linearGradient-27">
            <stop stop-color="#FF304A" stop-opacity="0.62" offset="8%"></stop>
            <stop stop-color="#FF7FB8" stop-opacity="0" offset="100%"></stop>
        </linearGradient>
        <linearGradient x1="45%" y1="50%" x2="55%" y2="50%" id="linearGradient-28">
            <stop stop-color="#00102A" offset="0%"></stop>
            <stop stop-color="#FF7FB8" stop-opacity="0.6" offset="100%"></stop>
        </linearGradient>
        <linearGradient x1="43%" y1="47.5%" x2="57%" y2="47.5%" id="linearGradient-29">
            <stop stop-color="#00102A" offset="0%"></stop>
            <stop stop-color="#FF7FB8" stop-opacity="0.6" offset="100%"></stop>
        </linearGradient>
        <linearGradient x1="48%" y1="49.5%" x2="60%" y2="49.5%" id="linearGradient-30">
            <stop stop-color="#00102A" offset="0%"></stop>
            <stop stop-color="#FF7FB8" stop-opacity="0.6" offset="100%"></stop>
        </linearGradient>
        <linearGradient x1="43%" y1="50%" x2="57%" y2="50%" id="linearGradient-31">
            <stop stop-color="#00102A" offset="0%"></stop>
            <stop stop-color="#FF7FB8" stop-opacity="0.6" offset="100%"></stop>
        </linearGradient>
        <linearGradient x1="41.5%" y1="50%" x2="58.5%" y2="50%" id="linearGradient-32">
            <stop stop-color="#00102A" offset="0%"></stop>
            <stop stop-color="#FF7FB8" stop-opacity="0.6" offset="100%"></stop>
        </linearGradient>
        <linearGradient x1="38%" y1="49.5%" x2="62%" y2="49.5%" id="linearGradient-33">
            <stop stop-color="#00102A" offset="0%"></stop>
            <stop stop-color="#FF7FB8" stop-opacity="0.6" offset="100%"></stop>
        </linearGradient>
        <linearGradient x1="40.5%" y1="50.5%" x2="59.5%" y2="50.5%" id="linearGradient-34">
            <stop stop-color="#00102A" offset="0%"></stop>
            <stop stop-color="#FF7FB8" stop-opacity="0.6" offset="100%"></stop>
        </linearGradient>
        <linearGradient x1="29%" y1="50%" x2="71%" y2="50%" id="linearGradient-35">
            <stop stop-color="#00102A" offset="0%"></stop>
            <stop stop-color="#FF7FB8" stop-opacity="0.6" offset="100%"></stop>
        </linearGradient>
        <linearGradient x1="40%" y1="50.5%" x2="60%" y2="50.5%" id="linearGradient-36">
            <stop stop-color="#00102A" offset="0%"></stop>
            <stop stop-color="#FF7FB8" stop-opacity="0.6" offset="100%"></stop>
        </linearGradient>
        <linearGradient x1="42.5%" y1="50%" x2="65.5%" y2="50%" id="linearGradient-37">
            <stop stop-color="#00102A" offset="0%"></stop>
            <stop stop-color="#FF7FB8" stop-opacity="0.6" offset="100%"></stop>
        </linearGradient>
        <linearGradient x1="44.5%" y1="52%" x2="55.5%" y2="52%" id="linearGradient-38">
            <stop stop-color="#00102A" offset="0%"></stop>
            <stop stop-color="#FF7FB8" stop-opacity="0.6" offset="100%"></stop>
        </linearGradient>
        <linearGradient x1="46%" y1="50%" x2="54%" y2="50%" id="linearGradient-39">
            <stop stop-color="#00102A" offset="0%"></stop>
            <stop stop-color="#FF7FB8" stop-opacity="0.6" offset="100%"></stop>
        </linearGradient>
        <linearGradient x1="48%" y1="50.5%" x2="56%" y2="50.5%" id="linearGradient-40">
            <stop stop-color="#00102A" offset="0%"></stop>
            <stop stop-color="#FF7FB8" stop-opacity="0.6" offset="100%"></stop>
        </linearGradient>
        <linearGradient x1="45.5%" y1="48%" x2="54.5%" y2="48%" id="linearGradient-41">
            <stop stop-color="#00102A" offset="0%"></stop>
            <stop stop-color="#FF7FB8" stop-opacity="0.6" offset="100%"></stop>
        </linearGradient>
        <linearGradient x1="45%" y1="50.3649635%" x2="55%" y2="50.3649635%" id="linearGradient-42">
            <stop stop-color="#00102A" offset="0%"></stop>
            <stop stop-color="#FF7FB8" stop-opacity="0.6" offset="100%"></stop>
        </linearGradient>
        <linearGradient x1="45.5%" y1="50%" x2="54.5%" y2="50%" id="linearGradient-43">
            <stop stop-color="#00102A" offset="0%"></stop>
            <stop stop-color="#FF7FB8" stop-opacity="0.6" offset="100%"></stop>
        </linearGradient>
        <linearGradient x1="47%" y1="50.5%" x2="53%" y2="50.5%" id="linearGradient-44">
            <stop stop-color="#00102A" offset="0%"></stop>
            <stop stop-color="#FF7FB8" stop-opacity="0.6" offset="100%"></stop>
        </linearGradient>
        <linearGradient x1="44%" y1="49%" x2="56%" y2="49%" id="linearGradient-45">
            <stop stop-color="#00102A" offset="0%"></stop>
            <stop stop-color="#FF7FB8" stop-opacity="0.6" offset="100%"></stop>
        </linearGradient>
        <linearGradient x1="37%" y1="49.5%" x2="63%" y2="49.5%" id="linearGradient-46">
            <stop stop-color="#00102A" offset="0%"></stop>
            <stop stop-color="#FF7FB8" stop-opacity="0.6" offset="100%"></stop>
        </linearGradient>
        <linearGradient x1="48.5%" y1="51%" x2="59.5%" y2="51%" id="linearGradient-47">
            <stop stop-color="#00102A" offset="0%"></stop>
            <stop stop-color="#FF7FB8" stop-opacity="0.6" offset="100%"></stop>
        </linearGradient>
        <linearGradient x1="43%" y1="50.5%" x2="57%" y2="50.5%" id="linearGradient-48">
            <stop stop-color="#00102A" offset="0%"></stop>
            <stop stop-color="#FF7FB8" stop-opacity="0.6" offset="100%"></stop>
        </linearGradient>
        <linearGradient x1="99.9172506%" y1="50%" x2="-0.0712676538%" y2="50%" id="linearGradient-49">
            <stop stop-color="#53AA9E" stop-opacity="0.62" offset="0%"></stop>
            <stop stop-color="#27C59D" stop-opacity="0" offset="100%"></stop>
        </linearGradient>
        <linearGradient x1="38%" y1="45.5%" x2="62%" y2="45.5%" id="linearGradient-50">
            <stop stop-color="#00102A" offset="0%"></stop>
            <stop stop-color="#FF7FB8" stop-opacity="0.6" offset="100%"></stop>
        </linearGradient>
        <linearGradient x1="38.5%" y1="49.5%" x2="61.5%" y2="49.5%" id="linearGradient-51">
            <stop stop-color="#00102A" offset="0%"></stop>
            <stop stop-color="#FF7FB8" stop-opacity="0.6" offset="100%"></stop>
        </linearGradient>
        <linearGradient x1="29.5%" y1="50%" x2="60.5%" y2="50%" id="linearGradient-52">
            <stop stop-color="#00102A" offset="0%"></stop>
            <stop stop-color="#FF7FB8" stop-opacity="0.6" offset="100%"></stop>
        </linearGradient>
        <linearGradient x1="39%" y1="50.5%" x2="61%" y2="50.5%" id="linearGradient-53">
            <stop stop-color="#00102A" offset="0%"></stop>
            <stop stop-color="#FF7FB8" stop-opacity="0.6" offset="100%"></stop>
        </linearGradient>
        <linearGradient x1="44.5%" y1="50%" x2="55.5%" y2="50%" id="linearGradient-54">
            <stop stop-color="#00102A" offset="0%"></stop>
            <stop stop-color="#FF7FB8" stop-opacity="0.6" offset="100%"></stop>
        </linearGradient>
        <linearGradient x1="49.5%" y1="50.5%" x2="54.5%" y2="50.5%" id="linearGradient-55">
            <stop stop-color="#00102A" offset="0%"></stop>
            <stop stop-color="#FF7FB8" stop-opacity="0.6" offset="100%"></stop>
        </linearGradient>
        <linearGradient x1="32.5%" y1="49.5%" x2="57.5%" y2="49.5%" id="linearGradient-56">
            <stop stop-color="#00102A" offset="0%"></stop>
            <stop stop-color="#FF7FB8" stop-opacity="0.6" offset="100%"></stop>
        </linearGradient>
        <linearGradient x1="41%" y1="50.5%" x2="59%" y2="50.5%" id="linearGradient-57">
            <stop stop-color="#00102A" offset="0%"></stop>
            <stop stop-color="#FF7FB8" stop-opacity="0.6" offset="100%"></stop>
        </linearGradient>
        <linearGradient x1="35.5%" y1="52%" x2="64.5%" y2="52%" id="linearGradient-58">
            <stop stop-color="#00102A" offset="0%"></stop>
            <stop stop-color="#FF7FB8" stop-opacity="0.6" offset="100%"></stop>
        </linearGradient>
        <linearGradient x1="45%" y1="50.5%" x2="55%" y2="50.5%" id="linearGradient-59">
            <stop stop-color="#00102A" offset="0%"></stop>
            <stop stop-color="#FF7FB8" stop-opacity="0.6" offset="100%"></stop>
        </linearGradient>
        <linearGradient x1="46.3134569%" y1="50.5%" x2="49.3134569%" y2="50.5%" id="linearGradient-60">
            <stop stop-color="#00102A" offset="0%"></stop>
            <stop stop-color="#FF7FB8" stop-opacity="0.6" offset="100%"></stop>
        </linearGradient>
        <linearGradient x1="44%" y1="51%" x2="56%" y2="51%" id="linearGradient-61">
            <stop stop-color="#00102A" offset="0%"></stop>
            <stop stop-color="#FF7FB8" stop-opacity="0.6" offset="100%"></stop>
        </linearGradient>
        <linearGradient x1="46%" y1="50.5%" x2="54%" y2="50.5%" id="linearGradient-62">
            <stop stop-color="#00102A" offset="0%"></stop>
            <stop stop-color="#FF7FB8" stop-opacity="0.6" offset="100%"></stop>
        </linearGradient>
        <linearGradient x1="44%" y1="50%" x2="56%" y2="50%" id="linearGradient-63">
            <stop stop-color="#00102A" offset="0%"></stop>
            <stop stop-color="#FF7FB8" stop-opacity="0.6" offset="100%"></stop>
        </linearGradient>
        <linearGradient x1="44.5%" y1="46%" x2="55.5%" y2="46%" id="linearGradient-64">
            <stop stop-color="#00102A" offset="0%"></stop>
            <stop stop-color="#FF7FB8" stop-opacity="0.6" offset="100%"></stop>
        </linearGradient>
        <linearGradient x1="49.2077706%" y1="48%" x2="53.2077706%" y2="48%" id="linearGradient-65">
            <stop stop-color="#00102A" offset="0%"></stop>
            <stop stop-color="#FF7FB8" stop-opacity="0.6" offset="100%"></stop>
        </linearGradient>
        <linearGradient x1="50%" y1="50%" x2="54%" y2="50%" id="linearGradient-66">
            <stop stop-color="#00102A" offset="0%"></stop>
            <stop stop-color="#FF7FB8" stop-opacity="0.6" offset="100%"></stop>
        </linearGradient>
        <linearGradient x1="50%" y1="49.5%" x2="52%" y2="49.5%" id="linearGradient-67">
            <stop stop-color="#00102A" offset="0%"></stop>
            <stop stop-color="#FF7FB8" stop-opacity="0.6" offset="100%"></stop>
        </linearGradient>
        <linearGradient x1="47.5%" y1="50%" x2="52.5%" y2="50%" id="linearGradient-68">
            <stop stop-color="#00102A" offset="0%"></stop>
            <stop stop-color="#FF7FB8" stop-opacity="0.6" offset="100%"></stop>
        </linearGradient>
        <linearGradient x1="0%" y1="50.0031346%" x2="100.013137%" y2="50.0031346%" id="linearGradient-69">
            <stop stop-color="#FF304A" stop-opacity="0.62" offset="8%"></stop>
            <stop stop-color="#FF7FB8" stop-opacity="0" offset="100%"></stop>
        </linearGradient>
        <linearGradient x1="44.5%" y1="49.5%" x2="55.5%" y2="49.5%" id="linearGradient-70">
            <stop stop-color="#00102A" offset="0%"></stop>
            <stop stop-color="#FF7FB8" stop-opacity="0.6" offset="100%"></stop>
        </linearGradient>
        <linearGradient x1="49.8537614%" y1="50%" x2="53.8537614%" y2="50%" id="linearGradient-71">
            <stop stop-color="#00102A" offset="0%"></stop>
            <stop stop-color="#FF7FB8" stop-opacity="0.6" offset="100%"></stop>
        </linearGradient>
        <linearGradient x1="46.6909361%" y1="49.8223548%" x2="51.6909361%" y2="49.8223548%" id="linearGradient-72">
            <stop stop-color="#00102A" offset="0%"></stop>
            <stop stop-color="#FF7FB8" stop-opacity="0.6" offset="100%"></stop>
        </linearGradient>
        <linearGradient x1="42.5%" y1="50%" x2="57.5%" y2="50%" id="linearGradient-73">
            <stop stop-color="#00102A" offset="0%"></stop>
            <stop stop-color="#FF7FB8" stop-opacity="0.6" offset="100%"></stop>
        </linearGradient>
        <linearGradient x1="44.9570478%" y1="49.5%" x2="54.9570478%" y2="49.5%" id="linearGradient-74">
            <stop stop-color="#00102A" offset="0%"></stop>
            <stop stop-color="#FF7FB8" stop-opacity="0.6" offset="100%"></stop>
        </linearGradient>
        <linearGradient x1="43.5%" y1="49.5%" x2="56.5%" y2="49.5%" id="linearGradient-75">
            <stop stop-color="#00102A" offset="0%"></stop>
            <stop stop-color="#FF7FB8" stop-opacity="0.6" offset="100%"></stop>
        </linearGradient>
        <linearGradient x1="39.5%" y1="51%" x2="60.5%" y2="51%" id="linearGradient-76">
            <stop stop-color="#00102A" offset="0%"></stop>
            <stop stop-color="#FF7FB8" stop-opacity="0.6" offset="100%"></stop>
        </linearGradient>
        <linearGradient x1="38%" y1="52%" x2="62%" y2="52%" id="linearGradient-77">
            <stop stop-color="#00102A" offset="0%"></stop>
            <stop stop-color="#FF7FB8" stop-opacity="0.6" offset="100%"></stop>
        </linearGradient>
        <linearGradient x1="42.5%" y1="51%" x2="57.5%" y2="51%" id="linearGradient-78">
            <stop stop-color="#00102A" offset="0%"></stop>
            <stop stop-color="#FF7FB8" stop-opacity="0.6" offset="100%"></stop>
        </linearGradient>
        <linearGradient x1="42%" y1="47%" x2="58%" y2="47%" id="linearGradient-79">
            <stop stop-color="#00102A" offset="0%"></stop>
            <stop stop-color="#FF7FB8" stop-opacity="0.6" offset="100%"></stop>
        </linearGradient>
        <linearGradient x1="45%" y1="52%" x2="55%" y2="52%" id="linearGradient-80">
            <stop stop-color="#00102A" offset="0%"></stop>
            <stop stop-color="#FF7FB8" stop-opacity="0.6" offset="100%"></stop>
        </linearGradient>
        <linearGradient x1="41%" y1="54%" x2="59%" y2="54%" id="linearGradient-81">
            <stop stop-color="#00102A" offset="0%"></stop>
            <stop stop-color="#FF7FB8" stop-opacity="0.6" offset="100%"></stop>
        </linearGradient>
        <linearGradient x1="44%" y1="50.5%" x2="56%" y2="50.5%" id="linearGradient-82">
            <stop stop-color="#00102A" offset="0%"></stop>
            <stop stop-color="#FF7FB8" stop-opacity="0.6" offset="100%"></stop>
        </linearGradient>
        <linearGradient x1="99.9172506%" y1="50%" x2="-0.0712676538%" y2="50%" id="linearGradient-83">
            <stop stop-color="#53AA9E" stop-opacity="0.62" offset="0%"></stop>
            <stop stop-color="#27C59D" stop-opacity="0" offset="100%"></stop>
        </linearGradient>
        <linearGradient x1="42.5%" y1="53%" x2="57.5%" y2="53%" id="linearGradient-84">
            <stop stop-color="#00102A" offset="0%"></stop>
            <stop stop-color="#FF7FB8" stop-opacity="0.6" offset="100%"></stop>
        </linearGradient>
        <linearGradient x1="40%" y1="50%" x2="60%" y2="50%" id="linearGradient-85">
            <stop stop-color="#00102A" offset="0%"></stop>
            <stop stop-color="#FF7FB8" stop-opacity="0.6" offset="100%"></stop>
        </linearGradient>
        <linearGradient x1="41%" y1="50.4347826%" x2="59%" y2="50.4347826%" id="linearGradient-86">
            <stop stop-color="#00102A" offset="0%"></stop>
            <stop stop-color="#FF7FB8" stop-opacity="0.6" offset="100%"></stop>
        </linearGradient>
        <linearGradient x1="39.5%" y1="50%" x2="60.5%" y2="50%" id="linearGradient-87">
            <stop stop-color="#00102A" offset="0%"></stop>
            <stop stop-color="#FF7FB8" stop-opacity="0.6" offset="100%"></stop>
        </linearGradient>
        <linearGradient x1="41%" y1="49.5412844%" x2="59%" y2="49.5412844%" id="linearGradient-88">
            <stop stop-color="#00102A" offset="0%"></stop>
            <stop stop-color="#FF7FB8" stop-opacity="0.6" offset="100%"></stop>
        </linearGradient>
        <linearGradient x1="39.5%" y1="50%" x2="60.5%" y2="50%" id="linearGradient-89">
            <stop stop-color="#00102A" offset="0%"></stop>
            <stop stop-color="#FF7FB8" stop-opacity="0.6" offset="100%"></stop>
        </linearGradient>
        <linearGradient x1="40.5%" y1="50%" x2="59.5%" y2="50%" id="linearGradient-90">
            <stop stop-color="#00102A" offset="0%"></stop>
            <stop stop-color="#FF7FB8" stop-opacity="0.6" offset="100%"></stop>
        </linearGradient>
        <linearGradient x1="40%" y1="50%" x2="60%" y2="50%" id="linearGradient-91">
            <stop stop-color="#00102A" offset="0%"></stop>
            <stop stop-color="#FF7FB8" stop-opacity="0.6" offset="100%"></stop>
        </linearGradient>
        <linearGradient x1="41.5%" y1="50.4273504%" x2="58.5%" y2="50.4273504%" id="linearGradient-92">
            <stop stop-color="#00102A" offset="0%"></stop>
            <stop stop-color="#FF7FB8" stop-opacity="0.6" offset="100%"></stop>
        </linearGradient>
        <linearGradient x1="41.5%" y1="49.5575221%" x2="58.5%" y2="49.5575221%" id="linearGradient-93">
            <stop stop-color="#00102A" offset="0%"></stop>
            <stop stop-color="#FF7FB8" stop-opacity="0.6" offset="100%"></stop>
        </linearGradient>
        <linearGradient x1="42.5%" y1="48%" x2="57.5%" y2="48%" id="linearGradient-94">
            <stop stop-color="#00102A" offset="0%"></stop>
            <stop stop-color="#FF7FB8" stop-opacity="0.6" offset="100%"></stop>
        </linearGradient>
        <linearGradient x1="41%" y1="49.5867769%" x2="59%" y2="49.5867769%" id="linearGradient-95">
            <stop stop-color="#00102A" offset="0%"></stop>
            <stop stop-color="#FF7FB8" stop-opacity="0.6" offset="100%"></stop>
        </linearGradient>
        <linearGradient x1="38%" y1="47.5177305%" x2="62%" y2="47.5177305%" id="linearGradient-96">
            <stop stop-color="#00102A" offset="0%"></stop>
            <stop stop-color="#FF7FB8" stop-opacity="0.6" offset="100%"></stop>
        </linearGradient>
        <linearGradient x1="42.5%" y1="49.5%" x2="57.5%" y2="49.5%" id="linearGradient-97">
            <stop stop-color="#00102A" offset="0%"></stop>
            <stop stop-color="#FF7FB8" stop-opacity="0.6" offset="100%"></stop>
        </linearGradient>
        <linearGradient x1="43%" y1="49.5%" x2="57%" y2="49.5%" id="linearGradient-98">
            <stop stop-color="#00102A" offset="0%"></stop>
            <stop stop-color="#FF7FB8" stop-opacity="0.6" offset="100%"></stop>
        </linearGradient>
        <linearGradient x1="42.5%" y1="50%" x2="61.5%" y2="50%" id="linearGradient-99">
            <stop stop-color="#00102A" offset="0%"></stop>
            <stop stop-color="#FF7FB8" stop-opacity="0.6" offset="100%"></stop>
        </linearGradient>
        <linearGradient x1="41.5%" y1="52%" x2="58.5%" y2="52%" id="linearGradient-100">
            <stop stop-color="#00102A" offset="0%"></stop>
            <stop stop-color="#FF7FB8" stop-opacity="0.6" offset="100%"></stop>
        </linearGradient>
        <linearGradient x1="42%" y1="50%" x2="58%" y2="50%" id="linearGradient-101">
            <stop stop-color="#00102A" offset="0%"></stop>
            <stop stop-color="#FF7FB8" stop-opacity="0.6" offset="100%"></stop>
        </linearGradient>
        <linearGradient x1="40%" y1="50.4347826%" x2="60%" y2="50.4347826%" id="linearGradient-102">
            <stop stop-color="#00102A" offset="0%"></stop>
            <stop stop-color="#FF7FB8" stop-opacity="0.6" offset="100%"></stop>
        </linearGradient>
        <linearGradient x1="40%" y1="49.5867769%" x2="60%" y2="49.5867769%" id="linearGradient-103">
            <stop stop-color="#00102A" offset="0%"></stop>
            <stop stop-color="#FF7FB8" stop-opacity="0.6" offset="100%"></stop>
        </linearGradient>
        <linearGradient x1="43%" y1="49%" x2="57%" y2="49%" id="linearGradient-104">
            <stop stop-color="#00102A" offset="0%"></stop>
            <stop stop-color="#FF7FB8" stop-opacity="0.6" offset="100%"></stop>
        </linearGradient>
        <linearGradient x1="41.5%" y1="49%" x2="58.5%" y2="49%" id="linearGradient-105">
            <stop stop-color="#00102A" offset="0%"></stop>
            <stop stop-color="#FF7FB8" stop-opacity="0.6" offset="100%"></stop>
        </linearGradient>
        <linearGradient x1="40.5%" y1="50%" x2="59.5%" y2="50%" id="linearGradient-106">
            <stop stop-color="#00102A" offset="0%"></stop>
            <stop stop-color="#FF7FB8" stop-opacity="0.6" offset="100%"></stop>
        </linearGradient>
        <linearGradient x1="-0.000418664888%" y1="50.0783608%" x2="100.00091%" y2="50.0783608%" id="linearGradient-107">
            <stop stop-color="#F3FFDF" stop-opacity="0" offset="10%"></stop>
            <stop stop-color="#F5FFBF" stop-opacity="0.5" offset="100%"></stop>
        </linearGradient>
        <linearGradient x1="99.8658082%" y1="49.994235%" x2="-0.107062727%" y2="49.994235%" id="linearGradient-108">
            <stop stop-color="#FF304A" stop-opacity="0.62" offset="8%"></stop>
            <stop stop-color="#FF7FB8" stop-opacity="0" offset="100%"></stop>
        </linearGradient>
        <linearGradient x1="55.2344225%" y1="-21.8576904%" x2="52.2238303%" y2="65.8485362%" id="linearGradient-109">
            <stop stop-color="#53AA9E" stop-opacity="0.62" offset="0%"></stop>
            <stop stop-color="#27C59D" stop-opacity="0" offset="100%"></stop>
        </linearGradient>
        <linearGradient x1="90.7128269%" y1="99.9871994%" x2="-29.4666911%" y2="58.0636781%" id="linearGradient-110">
            <stop stop-color="#7FE3FF" stop-opacity="0.1" offset="0%"></stop>
            <stop stop-color="#2B86E8" stop-opacity="0" offset="100%"></stop>
        </linearGradient>
    </defs>
    <g id="Page-1" stroke="none" stroke-width="1" fill="none" fill-rule="evenodd">
        <g id="Home-Copy" transform="translate(-120.000000, -2729.000000)">
            <g id="Group-45" transform="translate(120.000000, 2729.000000)">
                <g id="Group-26">
                    <ellipse id="Oval" fill="url(#linearGradient-1)" opacity="0.709309896" cx="242.236088" cy="140.460938" rx="140.478921" ry="140.460938"></ellipse>
                    <g id="Artboard-4" transform="translate(0.000000, 82.835937)">
                        <path d="M447.360158,162.824399 C453.39856,166.708411 458.149029,154.324886 468.070649,157.276735 C477.992269,160.228584 495.25317,185.694756 468.070649,213.743795 C456.531444,225.650844 449.812585,240.203619 445.900966,253.010117 L340.784219,253.009203 L340.546803,251.508645 C332.919287,201.903697 349.12337,171.320675 362.790159,179.331449 C376.594996,187.423141 374.439811,224.968589 383.934277,203.820144 C393.428743,182.6717 394.289523,139.947569 418.883231,134.768887 C443.47694,129.590204 441.321755,158.940387 447.360158,162.824399 Z" id="Combined-Shape" fill="url(#linearGradient-2)" opacity="0.498232887"></path>
                        <path d="M462.643732,233.65249 C461.457134,241.026772 460.619763,247.28631 460.040241,252.584609 L367.031538,252.582675 C358.115246,237.612942 345.022735,222.839211 346.871085,214.219243 C349.462961,202.131764 360.698746,189.603798 389.637048,201.263746 C418.57535,212.923694 402.596431,180.534949 429.383476,161.529234 C456.17052,142.523519 468.689284,196.081547 462.643732,233.65249 Z" id="Combined-Shape" fill="url(#linearGradient-3)" opacity="0.498232887"></path>
                        <path d="M228.019289,223.916344 L240.978672,239.890473 C240.978672,242.389885 239.671837,248.204377 238.318759,253.554762 L141.625563,254.176344 L141.625563,239.890473 L164.518313,227.368985 L228.019289,223.916344 Z" id="Combined-Shape" fill="url(#linearGradient-4)"></path>
                        <path d="M462.58412,251.98443 L95.9557101,254.345289 C-27.915683,275.519531 -14.7082631,333.405816 44.1247892,329.433629 C102.957841,325.461442 156.940687,366.764521 189.106239,372.792086 C221.271792,378.819651 281.236414,390.080704 341.291737,329.433629 C401.34706,268.786553 475.56543,306.132812 521.754497,287.224609 C567.943564,268.316406 462.58412,251.98443 462.58412,251.98443 Z" id="Path" fill="url(#linearGradient-5)"></path>
                        <polygon id="Path" fill="#FDF8FF" points="220.567644 30.4972416 223.969482 44.9102328 219.60217 72.5961313 206.312323 69.0398472 206.312323 61.7523798 203.862999 43.614683 211.172091 29.2016918"></polygon>
                        <path d="M76.3185982,313.994222 L235.042616,353.77123 C235.783004,353.956775 236.567333,353.820273 237.201505,353.395506 L364.156444,268.361197 C364.569422,268.084585 364.679968,267.525562 364.403356,267.112584 C364.282436,266.932053 364.100287,266.801362 363.890535,266.744641 L313.099971,253.009766 L313.099971,253.009766 L173.797639,253.692722 L76.0741988,312.349554 C75.6480204,312.60536 75.5099066,313.158218 75.7657129,313.584397 C75.8884366,313.788857 76.0872872,313.936255 76.3185982,313.994222 Z" id="Path" fill="url(#linearGradient-6)"></path>
                        <path d="M211.172091,85.7200505 L215.643078,70.6463289 L205.787468,65.768584 C205.016384,72.7645528 202.80681,74.6819665 202.80681,74.6819665 L202.80681,74.6819665 C199.942786,79.5143671 195.996654,83.8998031 193.35294,85.5581068 C188.979148,88.31115 191.895009,102.076366 206.474315,110.821327 C221.053621,119.566288 222.673544,129.282911 222.835536,133.979279 C222.997528,138.675647 219.59569,137.749329 218.228475,146.35178 C219.090274,142.387397 225.919869,134.970375 227.15749,131.064292 C228.453428,126.963877 227.047335,126.529868 231.907104,121.023782 C236.766873,115.517695 246.810394,101.266648 246.110588,93.4609604 L246.110588,93.4609604 C242.021902,97.4577314 238.224803,100.262597 235.308942,101.104704 C223.645497,104.479611 211.82006,88.31115 211.172091,85.7200505 Z" id="Path" fill="#FDF8FF"></path>
                        <path d="M246.162425,104.505522 C249.570743,98.8957916 246.505849,97.7038859 246.123547,93.4609604 L246.123547,93.4609604 C242.034862,97.4577314 238.237762,100.262597 235.321901,101.104704 C223.658457,104.479611 211.83302,88.31115 211.185051,85.7200505 L211.185051,106.060182 L233.164164,128.363071 L246.162425,104.505522 Z" id="Path" fill="url(#linearGradient-7)"></path>
                        <path d="M216.569674,111.540357 C210.874025,105.762205 194.1953,100.528184 193.061354,85.7783502 C189.128181,88.9654027 192.238433,102.283654 206.474315,110.821327 C221.053621,119.566288 217.91097,129.801131 218.072963,134.497499 C218.234955,139.193867 219.433698,137.703985 218.13776,146.934777 C217.969534,148.205353 217.969534,149.492551 218.13776,150.763127 C223.146561,147.142065 223.645497,144.039223 226.075382,135.993859 C230.436214,121.63269 222.939211,117.998673 216.569674,111.540357 Z" id="Path" fill="url(#linearGradient-8)"></path>
                        <path d="M218.13776,146.934777 C219.433698,137.703985 222.95865,136.142848 224.131474,131.498302 C225.304298,126.853756 222.945691,117.784907 208.366385,109.039946 C193.787079,100.294985 188.979148,88.31115 193.35294,85.5581068 C196.197524,83.7702481 200.558357,78.821248 203.448299,73.5613159 L203.448299,73.5613159 C191.499748,74.9734652 158.68659,82.3192324 150.748968,88.4601383 C142.811346,94.6010442 114.300704,157.772051 112.032812,167.488674 C109.76492,177.205297 126.612118,266.598232 127.908056,273.723755 C129.203994,280.849279 154.714539,292.671171 158.077499,292.671171 C161.440459,292.671171 173.103904,287.974803 173.751873,285.383703 C174.399842,282.792604 155.608737,266.598232 154.312799,265.464626 C153.01686,264.331019 153.988814,262.711582 159.010575,266.1124 C164.032336,269.513219 164.518313,269.99905 166.300228,269.675162 C168.082143,269.351275 166.300228,267.731838 163.384367,264.816851 C160.468506,261.901864 152.530883,257.691327 148.319084,257.691327 C144.107285,257.691327 145.565215,254.290509 145.727207,248.784422 C145.759606,247.61195 145.727207,244.023277 145.688329,239.067799 C147.697034,241.490477 152.926145,243.226514 168.56812,243.116392 C192.704971,242.954448 194.81087,252.833015 206.312323,241.982786 C217.813775,231.132557 214.457295,202.960827 220.891628,184.816652 C226.937181,167.773695 216.841821,156.165569 218.13776,146.934777 Z M157.124985,154.060301 L157.124985,154.060301 L156.975952,154.287022 L157.124985,154.060301 Z M151.720922,201.509811 C148.60419,209.775419 146.608445,215.689603 145.357865,220.075039 C144.969084,202.552729 144.314635,183.18426 143.485234,180.806926 C142.655834,178.429592 150.08156,165.363973 156.975952,154.2935 C158.27189,159.475699 161.440459,175.760759 151.720922,201.509811 Z" id="Shape" fill="#71EAD5"></path>
                        <path d="M305.28961,277.137529 C301.887772,271.307555 292.978196,261.590932 290.224327,258.837888 C287.470458,256.084845 290.872296,167.339686 285.364558,138.837591 C279.856821,110.335496 281.800728,102.510376 252.642117,86.3678254 C223.483505,70.2252753 242.922579,90.9022496 242.922579,90.9022496 C242.922579,90.9022496 245.650529,85.629362 246.110588,93.4609604 C246.810394,105.677995 238.92461,103.967869 234.064841,109.473956 C229.205073,114.980042 228.453428,126.963877 227.15749,131.064292 C225.861552,135.164707 218.377508,143.15825 218.13776,146.934777 C217.898011,150.711305 208.366385,216.356811 208.366385,216.356811 L212.727217,231.041868 L212.727217,230.063728 C214.735922,235.679936 215.720835,245.869435 222.842016,247.09373 C229.963196,248.318024 234.822965,241.186023 240.985152,239.890473 C247.147338,238.594923 248.112812,236.107468 246.492889,230.063728 C244.872967,224.019988 239.682734,199.72843 242.922579,186.449045 C244.866487,178.572102 249.959524,166.588267 255.020163,156.178525 L255.110879,156.003625 L255.110879,156.003625 L255.013684,156.178525 C256.815038,158.808491 259.886412,174.678975 262.86059,193.036916 C266.664169,216.486366 270.305756,243.997366 270.940765,253.169858 C265.59502,258.837888 262.951306,267.097018 262.977224,268.878399 C263.003143,270.65978 269.644827,283.29139 270.940765,284.101109 C272.236704,284.910828 274.018619,282.967503 272.398696,276.32781 C270.778773,269.688118 271.26475,267.744793 274.180611,270.173949 C277.096472,272.603105 285.844056,282.805559 288.921909,288.311646 C291.999763,293.817732 301.881292,290.902745 304.149184,289.283308 C306.417076,287.663871 308.691448,282.967503 305.28961,277.137529 Z" id="Path" fill="#71EAD5"></path>
                        <path d="M217.975767,182.724339 C215.442208,196.845832 216.589113,216.810254 212.584664,230.556037 L212.727217,231.041868 L212.727217,230.063728 C214.165709,234.099366 215.079345,240.479948 218.11832,244.217609 C214.878475,237.532572 218.299752,232.117174 216.569674,225.639426 C214.839597,219.161677 218.299752,206.206179 223.088244,192.460396 C227.876736,178.714613 221.325768,165.396361 220.677799,154.2935 C220.139984,145.082141 224.500817,140.690227 225.388534,134.497499 C222.906812,138.429493 218.869965,143.384971 218.221996,146.364735 C218.221996,146.55259 218.163678,146.740445 218.13776,146.934777 C218.111841,147.12911 218.066483,147.686196 217.982247,148.405226 C217.308359,157.014154 221.196174,164.793931 217.975767,182.724339 Z" id="Path" fill="url(#linearGradient-9)"></path>
                        <path d="M274.673068,45.5580076 C272.72916,63.0479295 246.972387,97.7362746 235.308942,101.104704 C223.645497,104.473133 211.82006,88.31115 211.172091,85.7200505 L226.399366,34.3838909 L255.117359,30.4972416 L274.673068,45.5580076 Z" id="Path" fill="#FDF8FF"></path>
                        <path d="M254.430511,30.5944078 L226.399366,34.3838909 L223.664936,43.614683 L220.567644,30.4972416 L214.651686,29.6810452 C211.82006,33.0365191 208.113677,37.6292431 204.821994,41.7231803 L203.862999,43.614683 L206.312323,61.7523798 L206.312323,66.027694 L205.787468,65.768584 C205.016384,72.7645528 202.80681,74.6819665 202.80681,74.6819665 L202.80681,74.6819665 C199.942786,79.5143671 195.996654,83.8998031 193.35294,85.5581068 C189.76967,87.8123634 191.085048,97.4577314 199.690078,105.677995 C199.780835,105.216888 199.830706,104.748674 199.839111,104.278801 C200.163095,89.6390885 209.558648,82.9670072 214.703523,80.7904836 C219.848398,78.61396 225.757877,72.6026091 230.850914,58.9993365 C235.827317,45.6940404 242.326448,36.7353137 254.430511,30.5944078 Z" id="Path" fill="url(#linearGradient-10)"></path>
                        <path d="M245.099756,32.2527115 C246.259028,31.9585984 247.484806,32.3478168 248.261845,33.2567626 C255.687572,41.8527353 281.56098,64.7774885 300.591833,55.0608652 C320.892707,44.696467 295.84222,44.2624579 286.336512,31.7409694 C276.830805,19.2194808 250.698209,-16.6283813 223.697335,9.2826141 C211.385921,7.98706433 199.074507,26.3450046 202.515223,51.1742159 C205.95594,76.0034272 208.580215,64.1297136 207.284276,58.9475145 C205.988338,53.7653154 205.126539,36.2753935 214.846076,35.6276187 C224.565613,34.9798438 215.707875,58.5135053 218.513582,59.5952894 C221.319288,60.6770735 222.563389,47.8252197 231.207297,40.3239866 C238.458072,34.0276147 241.788633,33.0883411 245.099756,32.2527115 Z" id="Path" fill="#00368B"></path>
                        <path d="M304.155664,289.283308 C306.423556,287.663871 308.691448,282.967503 305.28961,277.137529 C301.887772,271.307555 292.978196,261.590932 290.224327,258.837888 C288.636803,257.25084 289.096861,227.032142 288.714559,196.27579 L288.714559,196.27579 C282.455177,193.250681 272.955949,191.430434 263.443762,196.612633 L263.443762,196.612633 C267.027032,219.219976 270.344634,244.463764 270.947245,253.169858 C265.6015,258.837888 262.957785,267.097018 262.983515,268.878399 C263.009623,270.65978 269.651307,283.29139 270.947245,284.101109 C272.243183,284.910828 274.025098,282.967503 272.405176,276.32781 C270.785253,269.688118 271.27123,267.744793 274.187091,270.173949 C277.102952,272.603105 285.850535,282.805559 288.928389,288.311646 C292.006242,293.817732 301.887772,290.902745 304.155664,289.283308 Z" id="Path" fill="#FDF8FF"></path>
                        <path d="M154.312799,265.477581 C153.01686,264.343975 153.988814,262.724538 159.010575,266.125356 C164.032336,269.526174 164.518313,270.012005 166.300228,269.688118 C168.082143,269.36423 166.300228,267.744793 163.384367,264.829806 C160.468506,261.914819 152.530883,257.704282 148.319084,257.704282 C144.107285,257.704282 145.565215,254.303464 145.727207,248.797378 C145.850322,244.567408 145.338426,209.179466 144.431269,191.106546 C139.014247,188.094393 124.344226,186.772933 113.911922,191.106546 L113.911922,191.106546 C118.045965,221.098524 126.98794,268.625767 127.921015,273.736711 C129.216954,280.862235 154.727499,292.684126 158.090459,292.684126 C161.453419,292.684126 173.116863,287.987758 173.764832,285.396659 C174.412802,282.805559 155.608737,266.611187 154.312799,265.477581 Z" id="Path" fill="#FDF8FF"></path>
                        <path d="M252.642117,1.62591496 C243.654785,-1.44453799 233.734377,-0.317409694 223.697335,9.2826141 C216.329926,8.51176199 208.346946,14.238092 203.862999,24.2786027 C211.120254,16.9328355 212.759616,12.6769545 228.343274,13.4931508 C234.894242,13.8364715 244.548982,0.11012173 252.642117,1.62591496 Z" id="Path" fill="url(#linearGradient-11)"></path>
                        <g id="Group" opacity="0.32" transform="translate(145.079238, 218.947911)">
                            <path d="M95.6985632,23.2032964 C88.1886008,27.5433881 84.6377299,30.976595 80.309296,31.2680937 C73.4343434,31.7409694 70.4148071,27.1935897 63.2871465,28.5992612 C56.1594859,30.0049327 47.0879179,35.0057548 35.8521329,31.8381356 C24.6163479,28.6705164 11.1191506,27.0446014 5.89003954,27.8089758 C4.09074159,27.9587234 2.28473599,27.6137588 0.667408221,26.8114025 C0.667408221,25.0883213 0.667408221,22.8016759 0.609090998,20.1069324 C2.61779535,22.5296105 7.84690636,24.2656472 23.4888816,24.1555255 C47.6257323,23.9935817 49.731632,33.8721487 61.2330843,23.0219194 C64.1748643,20.2494429 66.1446905,16.3304048 67.5507835,11.7441587 L67.6479789,12.0680461 L67.6479789,11.4202712 C67.6479789,11.3619715 67.6803773,11.297194 67.6998164,11.2388942 C69.6437239,16.8874912 70.7063933,26.902091 77.7627773,28.11343 C84.8191613,29.324769 89.7437268,22.205723 95.9059134,20.9101733 L95.6985632,23.2032964 Z" id="Path" fill="url(#linearGradient-12)"></path>
                            <path d="M0.26566735,0.602430643 L0.26566735,1.1271283 C0.317504882,0.958706829 0.369342413,0.777329862 0.414700254,0.602430643 L0.26566735,0.602430643 Z" id="Path" fill="url(#linearGradient-13)"></path>
                        </g>
                        <g id="Group" opacity="0.18" transform="translate(143.135331, 137.328276)">
                            <path d="M2.02166374,74.3710345 C2.02166374,74.4422898 2.02166374,74.5070672 2.02166374,74.5783225 C2.02166374,74.4941117 2.02166374,74.4422898 2.02166374,74.3710345 Z" id="Path" fill="url(#linearGradient-14)"></path>
                            <path d="M1.16634446,51.6730026 L0.518375317,53.4025615 C0.777562976,53.5256387 1.03027094,53.648716 1.26353984,53.7782709 C1.24410076,53.0462853 1.20522261,52.3466884 1.16634446,51.6730026 Z" id="Path" fill="url(#linearGradient-15)"></path>
                            <path d="M8.58559119,64.1815356 C5.4688596,72.4471431 3.47311462,78.3613278 2.22253417,82.7467638 C2.37804677,89.7880768 2.48820152,96.5314133 2.55299844,101.752479 C3.61566784,103.048029 5.58549404,104.123335 9.51866676,104.848843 C7.056384,90.4034629 7.57475932,87.6633751 8.87069761,80.11032 C10.1666359,72.5572648 16.3223428,57.541843 23.5536785,46.7499134 C30.7850141,35.9579839 27.9857874,10.4745199 24.2016476,5.68434189e-14 C21.7264055,4.21053675 13.8341413,16.9652242 13.8341413,16.9652242 C15.1365593,22.1474233 18.3051284,38.4324839 8.58559119,64.1815356 Z M13.8471007,16.9587465 L13.9896539,16.7320253 L13.9896539,16.7320253 L13.8471007,16.9587465 Z" id="Shape" fill="url(#linearGradient-16)"></path>
                            <path d="M1.49680873,58.5199831 C1.49680873,58.6948823 1.49680873,58.8762593 1.49680873,59.0576362 C1.5162478,58.8762593 1.50328842,58.6948823 1.49680873,58.5199831 Z" id="Path" fill="url(#linearGradient-17)"></path>
                            <path d="M1.94390744,71.0220384 C1.94390744,71.1321601 1.94390744,71.2422818 1.94390744,71.3588813 C1.94390744,71.2552373 1.94390744,71.1321601 1.94390744,71.0220384 Z" id="Path" fill="url(#linearGradient-18)"></path>
                            <path d="M1.38017428,55.7604621 C1.38017428,55.941839 1.38017428,56.123216 1.38017428,56.304593 C1.39313366,56.123216 1.38665397,55.941839 1.38017428,55.7604621 Z" id="Path" fill="url(#linearGradient-19)"></path>
                            <path d="M1.56160564,60.0033876 L1.56160564,60.6511625 L1.56160564,60.0033876 Z" id="Path" fill="url(#linearGradient-20)"></path>
                            <path d="M1.32833675,54.6462893 L1.32833675,55.1321204 L1.32833675,54.6462893 Z" id="Path" fill="url(#linearGradient-21)"></path>
                            <path d="M1.4449712,57.3021663 C1.4449712,57.4705878 1.4449712,57.645487 1.4449712,57.8139085 C1.46441027,57.6519647 1.45793058,57.4705878 1.4449712,57.3021663 Z" id="Path" fill="url(#linearGradient-22)"></path>
                            <path d="M1.82727299,67.7572529 C1.82727299,67.8803302 1.82727299,68.0034074 1.82727299,68.1264846 C1.83375268,68.0163629 1.83375268,67.8803302 1.82727299,67.7572529 Z" id="Path" fill="url(#linearGradient-23)"></path>
                            <path d="M1.78191515,66.3127149 C1.78191515,66.3774924 1.78191515,66.4422699 1.78191515,66.5070474 C1.78839484,66.4422699 1.78839484,66.3774924 1.78191515,66.3127149 Z" id="Path" fill="url(#linearGradient-24)"></path>
                            <path d="M1.72359793,64.505423 L1.72359793,65.0236429 L1.72359793,64.505423 Z" id="Path" fill="url(#linearGradient-25)"></path>
                            <path d="M1.67824009,63.1839623 L1.67824009,63.5078497 L1.67824009,63.1839623 Z" id="Path" fill="url(#linearGradient-26)"></path>
                            <path d="M1.61344317,61.4479256 L1.61344317,61.9661455 L1.61344317,61.4479256 Z" id="Path" fill="url(#linearGradient-25)"></path>
                        </g>
                        <path d="M263.009623,269.066254 L263.009623,269.143987 C263.009623,269.195809 263.009623,269.247631 263.042021,269.305931 C263.07442,269.36423 263.042021,269.377186 263.07442,269.416052 C263.106818,269.454919 263.106818,269.532652 263.126257,269.597429 C263.145696,269.662207 263.126257,269.68164 263.171615,269.726984 C263.216973,269.772328 263.216973,269.863017 263.242892,269.934272 C263.257373,269.982747 263.274682,270.030332 263.294729,270.076783 C263.294729,270.154516 263.353047,270.238726 263.385445,270.322937 L263.443762,270.471925 C263.476161,270.569092 263.521519,270.666258 263.560397,270.763424 L263.612234,270.899457 L263.813105,271.365855 L263.813105,271.430632 C263.871422,271.573143 263.936219,271.715653 264.001016,271.858164 L264.085252,272.039541 C264.13061,272.149662 264.182447,272.266262 264.240764,272.382861 C264.299082,272.499461 264.305561,272.531849 264.344439,272.603105 L264.486993,272.920514 C264.525871,273.004725 264.564749,273.088936 264.610107,273.173147 C264.655465,273.257357 264.707302,273.380435 264.75914,273.490556 C264.810977,273.600678 264.843376,273.658978 264.882254,273.749666 C264.921132,273.840355 264.985929,273.96991 265.044246,274.080031 L265.17384,274.339141 L265.342312,274.682462 L265.471906,274.941572 C265.556142,275.122949 265.653337,275.304326 265.744053,275.485703 C265.834768,275.66708 265.860687,275.705946 265.912525,275.822546 L266.068037,276.127 L266.236509,276.44441 C266.288347,276.541576 266.333705,276.638742 266.385542,276.729431 L266.566974,277.072751 L266.696567,277.325384 L266.890958,277.688138 L267.014072,277.914859 C267.078869,278.037936 267.143666,278.161013 267.214943,278.28409 C267.286219,278.407168 267.286219,278.420123 267.325097,278.491378 C267.363976,278.562634 267.467651,278.744011 267.532448,278.873566 L267.610204,279.009598 C267.869392,279.475996 268.122099,279.929439 268.368328,280.35697 L268.433125,280.47357 L268.640475,280.829846 L268.73119,280.978834 C268.795987,281.095433 268.860784,281.205555 268.925581,281.309199 C268.95798,281.361021 268.990378,281.412843 269.016297,281.464665 L269.204208,281.769119 L269.294924,281.918108 L269.476355,282.203129 L269.554111,282.326206 L269.729063,282.604749 L269.767941,282.663049 C269.910494,282.883292 270.046568,283.077625 270.169682,283.252524 C270.539981,282.997531 270.723319,282.546959 270.63622,282.105962 C269.884576,278.653322 265.504304,274.980439 265.096084,270.335893 C264.687863,265.691347 269.340281,261.053279 273.228096,258.138292 C277.115911,255.223305 273.98622,250.364993 272.690282,245.182794 C271.394344,240.000595 269.774421,206.316301 269.774421,194.870119 C269.774421,194.623964 269.774421,194.371332 269.774421,194.1187 C267.55861,194.677996 265.422707,195.515994 263.417843,196.612633 L263.417843,196.612633 L263.417843,196.664455 L263.728869,198.646646 L263.728869,198.815068 L264.039894,200.797259 C264.039894,200.849081 264.039894,200.900903 264.039894,200.952725 L264.350919,202.993216 L264.350919,203.064471 C265.873647,213.007815 267.305658,223.106626 268.439604,231.799765 L268.472003,232.058875 C268.5368,232.568458 268.601597,233.073722 268.666394,233.574668 C268.666394,233.704223 268.705272,233.833778 268.718231,233.956855 L268.893183,235.32366 C268.893183,235.492082 268.938541,235.660503 268.95798,235.822447 C269.009817,236.2435 269.061655,236.651599 269.113492,237.059697 C269.113492,237.254029 269.15885,237.441884 269.184769,237.629739 L269.320842,238.763345 L269.398599,239.372253 C269.437477,239.722052 269.482835,240.07185 269.521713,240.415171 L269.599469,241.062946 L269.716104,242.015175 L269.79386,242.66295 C269.826258,242.960926 269.865137,243.258902 269.897535,243.556879 C269.929933,243.854855 269.942893,243.98441 269.968812,244.204654 C269.99473,244.424897 270.033608,244.768218 270.066007,245.040283 C270.098405,245.312349 270.111365,245.48077 270.137284,245.688058 C270.163202,245.895346 270.189121,246.193323 270.22152,246.439477 C270.253918,246.685632 270.266877,246.873486 270.286316,247.087252 C270.305756,247.301018 270.338154,247.547172 270.364073,247.735027 L270.42239,248.382802 C270.42239,248.596568 270.467748,248.810333 270.487187,249.030577 C270.506626,249.25082 270.526065,249.438675 270.545504,249.639485 L270.603821,250.196571 C270.603821,250.403859 270.63622,250.591714 270.655659,250.792524 C270.675098,250.993335 270.688057,251.12289 270.701017,251.278356 C270.713976,251.433822 270.733415,251.679976 270.752854,251.880786 C270.772293,252.081596 270.752854,252.139896 270.752854,252.262973 C270.752854,252.573905 270.798212,252.871882 270.817651,253.150425 C265.471906,258.818455 262.828192,267.077585 262.85411,268.858966 C262.897505,268.934007 262.949713,269.003596 263.009623,269.066254 Z" id="Path" fill="url(#linearGradient-27)" opacity="0.18"></path>
                        <g id="Group" opacity="0.18" transform="translate(254.586024, 142.510475)">
                            <path d="M13.8211819,137.846495 L13.8859788,137.963095 L13.8211819,137.846495 Z" id="Path" fill="url(#linearGradient-28)"></path>
                            <path d="M14.6570621,139.2716 L14.7477778,139.420588 L14.6570621,139.2716 Z" id="Path" fill="url(#linearGradient-29)"></path>
                            <path d="M12.9593829,136.363091 L13.0371392,136.499124 L12.9593829,136.363091 Z" id="Path" fill="url(#linearGradient-30)"></path>
                            <path d="M14.3784354,138.798725 C14.4108338,138.850547 14.4432323,138.902369 14.469151,138.954191 C14.4432323,138.902369 14.4108338,138.850547 14.3784354,138.798725 Z" id="Path" fill="url(#linearGradient-31)"></path>
                            <path d="M12.6677968,135.773616 C12.7001953,135.844871 12.7390734,135.909649 12.7779516,135.980904 C12.7390734,135.909649 12.7001953,135.844871 12.6677968,135.773616 Z" id="Path" fill="url(#linearGradient-32)"></path>
                            <path d="M11.3653788,133.312071 L11.5208914,133.616525 L11.3653788,133.312071 Z" id="Path" fill="url(#linearGradient-33)"></path>
                            <path d="M12.3438122,135.177663 L12.4669264,135.404384 L12.3438122,135.177663 Z" id="Path" fill="url(#linearGradient-34)"></path>
                            <path d="M10.9247598,132.431097 C11.0089958,132.612474 11.1061912,132.793851 11.1969069,132.975228 C11.1061912,132.793851 11.0154755,132.612474 10.9247598,132.431097 Z" id="Path" fill="url(#linearGradient-35)"></path>
                            <path d="M12.0198277,134.562277 L12.1494215,134.814909 L12.0198277,134.562277 Z" id="Path" fill="url(#linearGradient-36)"></path>
                            <path d="M11.6634446,133.933935 C11.7152822,134.031101 11.76064,134.128268 11.8124775,134.218956 C11.7865588,134.128268 11.7412009,134.031101 11.6634446,133.933935 Z" id="Path" fill="url(#linearGradient-37)"></path>
                            <path d="M15.4087063,101.052882 C15.4087063,101.266648 15.4540641,101.480413 15.4799829,101.700657 C15.4540641,101.493369 15.4346251,101.279603 15.4087063,101.052882 Z" id="Path" fill="url(#linearGradient-38)"></path>
                            <path d="M16.1149927,107.70553 C16.1149927,107.912818 16.1473911,108.100673 16.1668302,108.301483 C16.1473911,108.100673 16.1344317,107.912818 16.1149927,107.70553 Z" id="Path" fill="url(#linearGradient-39)"></path>
                            <path d="M14.9032904,139.692654 L14.9810467,139.815731 L14.9032904,139.692654 Z" id="Path" fill="url(#linearGradient-30)"></path>
                            <path d="M16.1992287,108.787314 C16.1992287,108.994602 16.2316271,109.188935 16.2510662,109.389745 C16.2445865,109.188935 16.2316271,109.00108 16.1992287,108.787314 Z" id="Path" fill="url(#linearGradient-40)"></path>
                            <path d="M15.8752441,105.282852 L15.9335613,105.930627 L15.8752441,105.282852 Z" id="Path" fill="url(#linearGradient-41)"></path>
                            <path d="M16.296424,109.771932 C16.296424,110.082864 16.3417819,110.38084 16.3612209,110.659384 C16.3417819,110.38084 16.3223428,110.082864 16.296424,109.771932 Z" id="Path" fill="url(#linearGradient-42)"></path>
                            <path d="M15.9983582,106.539535 C15.9983582,106.746823 16.0372364,106.947633 16.0566754,107.148444 C16.0372364,106.947633 16.024277,106.746823 15.9983582,106.539535 Z" id="Path" fill="url(#linearGradient-43)"></path>
                            <path d="M15.1819171,140.094274 L15.2207952,140.152574 L15.1819171,140.094274 Z" id="Path" fill="url(#linearGradient-44)"></path>
                            <path d="M15.7326909,103.948436 C15.7326909,104.168679 15.7780487,104.382445 15.7974878,104.596211 C15.7780487,104.382445 15.7521299,104.168679 15.7326909,103.948436 Z" id="Path" fill="url(#linearGradient-28)"></path>
                            <path d="M15.3050312,100.171908 L15.2272749,99.5241333 L15.3050312,100.171908 Z" id="Path" fill="url(#linearGradient-45)"></path>
                            <path d="M10.626694,131.828667 L10.795166,132.171987 L10.626694,131.828667 Z" id="Path" fill="url(#linearGradient-46)"></path>
                            <path d="M15.5512595,102.542764 C15.5512595,102.763008 15.5966174,102.983251 15.6225361,103.190539 C15.6225361,102.996207 15.603097,102.763008 15.5512595,102.542764 Z" id="Path" fill="url(#linearGradient-47)"></path>
                            <path d="M14.0933289,138.319371 L14.1840446,138.468359 L14.0933289,138.319371 Z" id="Path" fill="url(#linearGradient-48)"></path>
                            <path d="M8.85773823,54.1021584 L8.85773823,54.1021584 C10.862602,53.0055197 12.998505,52.1675215 15.2143156,51.6082251 C15.8622847,40.596052 11.7412009,33.7685047 10.6785315,29.9725439 C8.73462409,22.8470202 6.44729301,12.4178445 8.36528168,0 C5.42350176,2.37733383 0.498936243,13.4931508 0.498936243,13.4931508 L0.498936243,13.8299938 C2.31324985,16.8551025 5.32630638,32.4859105 8.274566,50.526441 C8.46895674,51.7269838 8.66334749,52.9361636 8.85773823,54.1539804 L8.85773823,54.1021584 Z" id="Path" fill="url(#linearGradient-49)"></path>
                            <path d="M9.53810584,129.554977 C9.58346368,129.665099 9.63530121,129.781698 9.69361843,129.898298 C9.63530121,129.755787 9.58346368,129.639188 9.53810584,129.554977 Z" id="Path" fill="url(#linearGradient-50)"></path>
                            <path d="M10.0629608,130.662672 C10.1083187,130.766316 10.1601562,130.86996 10.2119937,130.980082 C10.1601562,130.850527 10.1083187,130.766316 10.0629608,130.662672 Z" id="Path" fill="url(#linearGradient-51)"></path>
                            <path d="M9.07156805,128.388982 L9.27243849,128.85538 L9.07156805,128.388982 Z" id="Path" fill="url(#linearGradient-52)"></path>
                            <path d="M9.79729349,130.09263 C9.84265133,130.202752 9.88800917,130.306396 9.93984671,130.41004 L9.79729349,130.09263 Z" id="Path" fill="url(#linearGradient-53)"></path>
                            <path d="M8.59855057,127.21651 C8.59855057,127.281287 8.64390841,127.352542 8.66982718,127.423798 C8.64390841,127.352542 8.61798965,127.281287 8.59855057,127.21651 Z" id="Path" fill="url(#linearGradient-54)"></path>
                            <path d="M8.5013552,126.905578 C8.5013552,126.963877 8.53375366,127.022177 8.55319273,127.086955 C8.53375366,127.022177 8.51431458,126.963877 8.5013552,126.905578 Z" id="Path" fill="url(#linearGradient-39)"></path>
                            <path d="M8.4235989,126.633512 C8.4235989,126.685334 8.4235989,126.737156 8.45599736,126.795456 C8.45599736,126.737156 8.4235989,126.685334 8.4235989,126.633512 Z" id="Path" fill="url(#linearGradient-55)"></path>
                            <path d="M10.3675063,131.239192 C10.4193439,131.342836 10.4711814,131.459435 10.5294986,131.569557 C10.4387829,131.459435 10.3675063,131.342836 10.3675063,131.239192 Z" id="Path" fill="url(#linearGradient-56)"></path>
                            <path d="M8.87069761,127.961451 C8.90309607,128.058617 8.94845391,128.155783 8.98733206,128.252949 C8.94845391,128.155783 8.90309607,128.058617 8.87069761,127.961451 Z" id="Path" fill="url(#linearGradient-57)"></path>
                            <path d="M8.72166471,127.566308 C8.72166471,127.644041 8.77998193,127.728252 8.81238039,127.812463 C8.77998193,127.728252 8.74758348,127.644041 8.72166471,127.566308 Z" id="Path" fill="url(#linearGradient-31)"></path>
                            <path d="M9.26595879,128.907202 L9.45386985,129.334733 C9.38907293,129.205179 9.32427602,129.062668 9.26595879,128.907202 Z" id="Path" fill="url(#linearGradient-58)"></path>
                            <path d="M14.4043541,92.8131855 C14.4043541,92.981607 14.449712,93.1500284 14.469151,93.3119721 C14.449712,93.1500284 14.4237932,92.981607 14.4043541,92.8131855 Z" id="Path" fill="url(#linearGradient-59)"></path>
                            <path d="M8.4235989,126.367925 C8.41818263,126.430426 8.41818263,126.493278 8.4235989,126.555779 C8.41818263,126.493278 8.41818263,126.430426 8.4235989,126.367925 Z" id="Path" fill="url(#linearGradient-60)"></path>
                            <path d="M15.0328842,97.9046961 L15.1106405,98.552471 L15.0328842,97.9046961 Z" id="Path" fill="url(#linearGradient-61)"></path>
                            <path d="M14.1775649,91.0641933 C14.1775649,91.1937483 14.2164431,91.3233032 14.2294025,91.4463805 C14.2164431,91.3362587 14.197004,91.1937483 14.1775649,91.0641933 Z" id="Path" fill="url(#linearGradient-62)"></path>
                            <path d="M14.8320138,96.2528701 L14.9097701,96.8617785 L14.8320138,96.2528701 Z" id="Path" fill="url(#linearGradient-63)"></path>
                            <path d="M14.6246636,94.5751332 C14.6246636,94.7694656 14.6700215,94.9573204 14.6959402,95.1451751 C14.6700215,94.9314094 14.6441027,94.7435546 14.6246636,94.5751332 Z" id="Path" fill="url(#linearGradient-64)"></path>
                            <path d="M9.51218707,58.2997396 C9.51218707,58.3515616 9.51218707,58.4033836 9.51218707,58.4552056 C9.53162614,58.3904281 9.51866676,58.3386061 9.51218707,58.2997396 Z" id="Path" fill="url(#linearGradient-65)"></path>
                            <path d="M9.17524311,56.1361715 L9.17524311,56.304593 L9.17524311,56.1361715 Z" id="Path" fill="url(#linearGradient-66)"></path>
                            <path d="M9.84913103,60.482741 L9.84913103,60.5539962 L9.84913103,60.482741 Z" id="Path" fill="url(#linearGradient-67)"></path>
                            <path d="M13.9507757,89.2892901 L13.9831742,89.5484001 L13.9507757,89.2892901 Z" id="Path" fill="url(#linearGradient-68)"></path>
                        </g>
                        <path d="M128.88001,249.354464 C128.03765,240.739058 121.875463,205.836947 119.588132,189.357554 C117.643136,189.768899 115.73908,190.354253 113.898963,191.106546 C118.033006,221.098524 126.97498,268.625767 127.908056,273.736711 C129.203994,280.862235 154.714539,292.684126 158.077499,292.684126 C159.838752,292.52691 161.569965,292.128022 163.222374,291.498698 C158.446842,286.834719 145.221791,281.723775 139.565021,278.316479 C130.175948,272.629016 129.851963,259.32372 128.88001,249.354464 Z" id="Path" fill="url(#linearGradient-69)" opacity="0.18"></path>
                        <g id="Group" opacity="0.58" transform="translate(111.799372, 73.256317)">
                            <path d="M12.8688385,198.17354 C12.8688385,198.303095 12.920676,198.439128 12.9401151,198.568683 C12.920676,198.439128 12.8947572,198.303095 12.8688385,198.17354 Z" id="Path" fill="url(#linearGradient-70)" opacity="0.18"></path>
                            <path d="M13.1604246,199.760588 C13.1604246,199.857755 13.192823,199.948443 13.2122621,200.039132 C13.192823,199.948443 13.173384,199.857755 13.1604246,199.760588 Z" id="Path" fill="url(#linearGradient-62)" opacity="0.18"></path>
                            <path d="M13.4714498,201.477192 C13.4739766,201.524662 13.4739766,201.572232 13.4714498,201.619702 C13.4739766,201.572232 13.4739766,201.524662 13.4714498,201.477192 Z" id="Path" fill="url(#linearGradient-71)" opacity="0.18"></path>
                            <path d="M15.1432102,210.552518 C15.1432102,210.60434 15.1432102,210.656162 15.1756086,210.701506 C15.2080071,210.74685 15.1561695,210.60434 15.1432102,210.552518 Z" id="Path" fill="url(#linearGradient-72)" opacity="0.18"></path>
                            <path d="M12.227349,194.630211 C12.227349,194.759766 12.2791865,194.889321 12.2986256,195.018876 C12.2791865,194.902277 12.2532678,194.772722 12.227349,194.630211 Z" id="Path" fill="url(#linearGradient-38)" opacity="0.18"></path>
                            <path d="M10.8925326,187.206711 C10.8925326,187.342744 10.9378904,187.472299 10.9638092,187.601854 C10.9378904,187.504688 10.9184513,187.342744 10.8925326,187.206711 Z" id="Path" fill="url(#linearGradient-70)" opacity="0.18"></path>
                            <path d="M11.2165171,189.020481 L11.3137125,189.551656 L11.2165171,189.020481 Z" id="Path" fill="url(#linearGradient-73)" opacity="0.18"></path>
                            <path d="M12.5902117,196.638313 L12.5902117,196.754913 L12.5902117,196.638313 Z" id="Path" fill="url(#linearGradient-25)" opacity="0.18"></path>
                            <path d="M15.2274462,211.00596 C15.2274462,211.129038 15.272804,211.239159 15.2922431,211.349281 C15.2987228,211.239159 15.2468852,211.12256 15.2274462,211.00596 Z" id="Path" fill="url(#linearGradient-74)" opacity="0.18"></path>
                            <path d="M11.9163238,192.926563 C11.9487223,193.082029 11.974641,193.237495 12.0005598,193.399439 C11.974641,193.237495 11.9487223,193.082029 11.9163238,192.926563 Z" id="Path" fill="url(#linearGradient-75)" opacity="0.18"></path>
                            <path d="M46.3299652,232.058644 L46.1938917,232.058644 L46.3299652,232.058644 Z" id="Path" fill="url(#linearGradient-76)" opacity="0.18"></path>
                            <path d="M46.8224217,231.993867 L46.6669091,231.993867 L46.8224217,231.993867 Z" id="Path" fill="url(#linearGradient-77)" opacity="0.18"></path>
                            <path d="M47.3537564,231.8967 L47.2565611,231.8967 L47.3537564,231.8967 Z" id="Path" fill="url(#linearGradient-78)" opacity="0.18"></path>
                            <path d="M10.4778323,184.913588 C10.5167105,185.107921 10.5491089,185.302253 10.5815074,185.496585 C10.5491089,185.28282 10.5167105,185.088487 10.4778323,184.913588 Z" id="Path" fill="url(#linearGradient-79)" opacity="0.18"></path>
                            <path d="M15.5579104,212.767908 C15.5579104,212.903941 15.6032683,213.027018 15.6227073,213.130662 C15.6032683,213.039974 15.5838292,212.916896 15.5579104,212.767908 Z" id="Path" fill="url(#linearGradient-80)" opacity="0.18"></path>
                            <path d="M48.7209713,231.55338 L48.6043369,231.55338 L48.7209713,231.55338 Z" id="Path" fill="url(#linearGradient-81)" opacity="0.18"></path>
                            <path d="M15.4736744,212.353332 C15.4736744,212.463454 15.5190323,212.580053 15.5384713,212.67722 C15.5190323,212.573576 15.4995932,212.469932 15.4736744,212.353332 Z" id="Path" fill="url(#linearGradient-28)" opacity="0.18"></path>
                            <path d="M15.3699994,211.78329 C15.3699994,211.925801 15.4218369,212.068311 15.4477557,212.191388 C15.4218369,212.068311 15.3959181,211.925801 15.3699994,211.78329 Z" id="Path" fill="url(#linearGradient-82)" opacity="0.18"></path>
                            <path d="M49.4078186,231.365525 L49.336542,231.365525 L49.4078186,231.365525 Z" id="Path" fill="url(#linearGradient-38)" opacity="0.18"></path>
                            <path d="M91.6277458,0.41434542 C79.6791947,1.82649467 46.8660371,9.17226186 38.9284151,15.3131678 C30.990793,21.4540737 2.4801506,84.6250804 0.212258585,94.3417037 C-0.435710561,97.094747 0.458486861,106.241328 2.0978488,118.095609 L2.0978488,117.946621 C3.93796545,117.194327 5.8420221,116.608973 7.78701791,116.197628 C7.43063488,113.606529 7.13904876,111.468872 7.0353737,109.966034 C6.06341998,98.8631724 11.2471731,87.0542363 23.5585869,66.0015525 C35.8700007,44.9488687 32.3061704,39.4427822 42.0257076,26.1633971 C50.313233,14.8467699 59.7800622,20.7026548 81.2537597,12.624902 C81.3509551,12.547169 81.4481505,12.469436 81.5518255,12.3981808 C84.3964101,10.6103221 88.7572424,5.66132199 91.6471848,0.401389922 L91.6277458,0.41434542 Z" id="Path" fill="url(#linearGradient-83)"></path>
                            <path d="M2.44301489,136.330472 L2.54021027,136.978247 L2.44301489,136.330472 Z" id="Path" fill="url(#linearGradient-84)" opacity="0.18"></path>
                            <path d="M4.41932079,149.214714 C4.46467863,149.480302 4.50355678,149.752367 4.54891462,150.017955 C4.50355678,149.752367 4.46467863,149.480302 4.41932079,149.214714 Z" id="Path" fill="url(#linearGradient-85)" opacity="0.18"></path>
                            <path d="M3.70007504,144.654379 L3.81670948,145.39932 L3.70007504,144.654379 Z" id="Path" fill="url(#linearGradient-86)" opacity="0.18"></path>
                            <path d="M4.07589714,147.051146 L4.21197066,147.906209 L4.07589714,147.051146 Z" id="Path" fill="url(#linearGradient-87)" opacity="0.18"></path>
                            <path d="M4.75626475,151.32646 L4.87289919,152.032535 L4.75626475,151.32646 Z" id="Path" fill="url(#linearGradient-88)" opacity="0.18"></path>
                            <path d="M5.170965,153.872216 L5.30703852,154.688412 L5.170965,153.872216 Z" id="Path" fill="url(#linearGradient-89)" opacity="0.18"></path>
                            <path d="M3.38904985,142.646277 C3.427928,142.905387 3.47328584,143.164497 3.51216399,143.423607 C3.47328584,143.164497 3.427928,142.905387 3.38904985,142.646277 Z" id="Path" fill="url(#linearGradient-90)" opacity="0.18"></path>
                            <path d="M5.50790896,155.945095 C5.5532668,156.204205 5.59862464,156.463315 5.63750279,156.722425 C5.57918556,156.463315 5.57918556,156.204205 5.50790896,155.945095 Z" id="Path" fill="url(#linearGradient-91)" opacity="0.18"></path>
                            <path d="M1.8339239,132.113457 C1.87280204,132.366089 1.9052005,132.618722 1.94407865,132.871354 C1.9052005,132.618722 1.87280204,132.366089 1.8339239,132.113457 Z" id="Path" fill="url(#linearGradient-92)" opacity="0.18"></path>
                            <path d="M2.09311155,133.94666 C2.1319897,134.192815 2.16438816,134.432491 2.20326631,134.678646 C2.16438816,134.432491 2.1319897,134.186337 2.09311155,133.94666 Z" id="Path" fill="url(#linearGradient-93)" opacity="0.18"></path>
                            <path d="M3.02618713,140.24951 L3.1233825,140.897285 L3.02618713,140.24951 Z" id="Path" fill="url(#linearGradient-94)" opacity="0.18"></path>
                            <path d="M2.72164163,138.215497 L2.83827607,138.999304 L2.72164163,138.215497 Z" id="Path" fill="url(#linearGradient-95)" opacity="0.18"></path>
                            <path d="M5.90317014,158.354818 L6.05868273,159.26818 L5.90317014,158.354818 Z" id="Path" fill="url(#linearGradient-96)" opacity="0.18"></path>
                            <path d="M8.59872178,174.205869 L8.69591716,174.756478 L8.59872178,174.205869 Z" id="Path" fill="url(#linearGradient-97)" opacity="0.18"></path>
                            <path d="M9.02638142,176.647981 C9.05877988,176.82288 9.09117834,176.997779 9.1170971,177.172678 C9.09117834,176.997779 9.05877988,176.82288 9.02638142,176.647981 Z" id="Path" fill="url(#linearGradient-98)" opacity="0.18"></path>
                            <path d="M10.1149696,182.924919 C10.1603274,183.15164 10.1992056,183.378362 10.2380837,183.611561 C10.212165,183.378362 10.1732868,183.15164 10.1149696,182.924919 Z" id="Path" fill="url(#linearGradient-99)" opacity="0.18"></path>
                            <path d="M9.75858656,180.806695 L9.83634285,181.273093 L9.75858656,180.806695 Z" id="Path" fill="url(#linearGradient-63)" opacity="0.18"></path>
                            <path d="M8.23585906,172.07469 C8.27473721,172.301411 8.31361536,172.521655 8.34601382,172.722465 C8.31361536,172.521655 8.27473721,172.301411 8.23585906,172.07469 Z" id="Path" fill="url(#linearGradient-100)" opacity="0.18"></path>
                            <path d="M9.37628476,178.643127 C9.37628476,178.843937 9.44756137,179.03827 9.47995982,179.23908 C9.46700044,179.03827 9.40868322,178.843937 9.37628476,178.643127 Z" id="Path" fill="url(#linearGradient-101)" opacity="0.18"></path>
                            <path d="M7.83411819,169.762134 C7.87947603,170.014766 7.91835418,170.26092 7.96371202,170.507075 C7.91835418,170.26092 7.87947603,170.014766 7.83411819,169.762134 Z" id="Path" fill="url(#linearGradient-102)" opacity="0.18"></path>
                            <path d="M6.29195162,160.641463 C6.33082977,160.900573 6.37618761,161.159683 6.42154545,161.425271 C6.37618761,161.166161 6.33082977,160.900573 6.29195162,160.641463 Z" id="Path" fill="url(#linearGradient-103)" opacity="0.18"></path>
                            <path d="M6.66777373,162.889242 C6.66777373,163.077097 6.72609095,163.258474 6.75848941,163.446328 C6.72609095,163.251996 6.69369249,163.070619 6.66777373,162.889242 Z" id="Path" fill="url(#linearGradient-104)" opacity="0.18"></path>
                            <path d="M7.4453367,167.481966 C7.47773516,167.695732 7.51661331,167.909497 7.55549146,168.129741 C7.523093,167.909497 7.47773516,167.695732 7.4453367,167.481966 Z" id="Path" fill="url(#linearGradient-105)" opacity="0.18"></path>
                            <path d="M7.08247398,165.357264 C7.12135213,165.596941 7.16670997,165.836618 7.20558812,166.069817 C7.16670997,165.836618 7.12135213,165.596941 7.08247398,165.357264 Z" id="Path" fill="url(#linearGradient-106)" opacity="0.18"></path>
                        </g>
                        <path d="M282.059916,47.7993087 C273.35769,45.1563872 261.551692,28.3660622 252.642117,25.7749627 C243.732541,23.1838631 231.084183,23.1255634 225.26542,31.9288241 C222.932731,35.4591972 220.936986,40.6802628 219.368901,45.9596281 C218.798688,52.178267 217.036212,58.9993365 218.513582,59.5629006 C221.325768,60.6446847 222.563389,47.792831 231.207297,40.2915978 C238.458072,33.995226 241.788633,33.0559524 245.099756,32.2203228 C246.259028,31.9262097 247.484806,32.3154281 248.261845,33.2243738 C255.687572,41.8527353 281.5545,64.7774885 300.591833,55.0608652 C306.993769,51.789602 308.885838,49.5094344 308.173072,47.5272433 C299.943864,48.4535614 293.898312,51.3879816 282.059916,47.7993087 Z" id="Path" fill="url(#linearGradient-107)"></path>
                        <path d="M218.13776,146.934777 C218.105361,147.167976 218.085922,147.401175 218.072963,147.634374 C218.105361,147.323442 218.13128,147.077288 218.13776,146.934777 Z" id="Path" fill="#FDF8FF"></path>
                        <path d="M289.284772,250.811958 C288.831193,239.540675 288.980226,218.041026 288.714559,196.27579 L288.714559,196.27579 C287.360963,195.621626 285.959448,195.071583 284.522199,194.630442 C285.147178,199.768291 285.309822,204.951833 285.008175,210.118739 C283.751115,226.960886 284.463881,246.828142 289.291252,250.811958 L289.284772,250.811958 Z" id="Path" fill="url(#linearGradient-108)" opacity="0.18"></path>
                        <path d="M285.364558,138.837591 C279.856821,110.335496 281.800728,102.510376 252.642117,86.3678254 L252.642117,86.3678254 C250.698209,88.699815 248.754302,90.8569053 246.810394,92.774319 C263.929739,100.923327 274.375002,107.310387 275.133126,116.903933 C275.969006,127.177643 274.673068,132.586563 277.264944,150.931548 C279.131095,164.152634 282.980032,180.327572 284.515719,194.623964 C285.952969,195.065105 287.354484,195.615148 288.708079,196.269312 L288.708079,196.269312 C288.973747,218.034548 288.824714,239.534197 289.278292,250.80548 L289.278292,250.80548 C288.364656,227.874249 289.9457,162.539674 285.364558,138.837591 Z" id="Path" fill="url(#linearGradient-109)"></path>
                    </g>
                </g>
                <ellipse id="Oval-Copy-15" fill="url(#linearGradient-110)" cx="106.259696" cy="100.84375" rx="70.2394604" ry="70.2304688"></ellipse>
            </g>
        </g>
    </g>
</svg>