<?xml version="1.0" encoding="UTF-8"?>
<svg width="99px" height="35px" viewBox="0 0 99 35" version="1.1" xmlns="http://www.w3.org/2000/svg" xmlns:xlink="http://www.w3.org/1999/xlink">
    <!-- Generator: Sketch 60.1 (88133) - https://sketch.com -->
    <title>Group 9</title>
    <desc>Created with Sketch.</desc>
    <g id="Page-1" stroke="none" stroke-width="1" fill="none" fill-rule="evenodd">
        <g id="Home-Copy" transform="translate(-1153.000000, -22.000000)">
            <g id="Group-27" transform="translate(0.000000, -72.000000)">
                <g id="Group-9" transform="translate(1154.000000, 94.000000)">
                    <path d="M74.5972195,12.9847829 C76.8567228,15.9602818 76.2549836,20.2156351 73.2527933,22.4905708 C70.250603,24.7644237 65.9853026,24.1959605 63.7257993,21.2215443 C63.3170504,20.6833991 63.001544,20.1030252 62.7771115,19.5009956" id="Path" stroke="#2F93E2" stroke-width="3.17556288"></path>
                    <path d="M87.0179823,19.5887014 C86.8813713,19.5887014 86.6927179,19.5789563 86.4433486,19.5605489 C86.1983161,19.5410587 85.9337677,19.4750087 85.6497035,19.3591505 C85.5141766,20.1203498 85.2615546,20.8447344 84.889669,21.5268903 C84.5177834,22.2133773 84.0580764,22.85547 83.5094638,23.4564169 C82.9608512,24.0551981 82.3363435,24.6063368 81.6337724,25.1130811 C80.9312014,25.6165771 80.1841775,26.0659338 79.3894482,26.466565 L77.7002418,24.1342416 C78.1382645,23.913353 78.5762872,23.6708087 79.0208152,23.409857 C79.4653432,23.1489053 79.8881869,22.8717118 80.2915147,22.5782765 C80.6948426,22.285924 81.0699808,21.9838264 81.4169295,21.665487 C81.7660466,21.3514788 82.0685425,21.0233943 82.3276698,20.6833991 C82.5857129,20.3466523 82.7873768,20.0012433 82.9359142,19.6482547 C83.0844516,19.2920177 83.1560098,18.9368635 83.1560098,18.5752126 C83.1560098,18.5557225 83.1560098,18.52757 83.1527572,18.4896725 C83.1505887,18.4550233 83.1505887,18.4171257 83.1505887,18.3792282 C83.1505887,18.3424134 83.1473361,18.3131782 83.1440834,18.2980191 C83.1408308,18.278529 83.1408308,18.2817773 83.1408308,18.3077642 L83.1408308,18.3131782 C83.096378,17.958024 83.0334935,17.6180289 82.9543459,17.2910271 C82.8762824,16.966191 82.7754505,16.6326926 82.6551026,16.2959458 C82.535839,15.959199 82.3938069,15.6029621 82.2333431,15.2315661 C82.0717952,14.8569218 81.8961524,14.4508766 81.6999095,14.0080167 L84.3670775,12.8461861 C84.61211,13.5857297 84.8430478,14.19967 85.0598907,14.6901725 C85.2778178,15.1817579 85.4892397,15.5748096 85.6941563,15.8714933 C85.8979886,16.1670941 86.1061578,16.3749893 86.314327,16.4940958 C86.5257489,16.6142852 86.7469287,16.6738385 86.9800348,16.6738385 L87.026656,16.6738385 C87.2315726,16.6738385 87.4213102,16.7149844 87.6002056,16.7929451 C87.7801852,16.8719885 87.9341437,16.9791845 88.0675021,17.1112845 C88.1997763,17.2433845 88.3038609,17.3971403 88.3786717,17.5768829 C88.4578194,17.7566256 88.4957669,17.9417822 88.4957669,18.141015 C88.4957669,18.3424134 88.4578194,18.5308184 88.3786717,18.710561 C88.3038609,18.8892209 88.1997763,19.0440595 88.0675021,19.1729111 C87.9341437,19.3017628 87.7801852,19.402462 87.6002056,19.4782571 C87.4213102,19.5508038 87.22832,19.5887014 87.0179823,19.5887014 L87.0179823,19.5887014 Z M85.1542174,17.5584756 C85.233365,17.3787329 85.334197,17.2249771 85.4632185,17.0917943 C85.5933243,16.9596943 85.7472828,16.8557467 85.9272624,16.7842828 C86.1061578,16.7117361 86.2958954,16.6738385 86.4975593,16.6738385 L87.5243106,16.6738385 L87.9666701,16.6738385 C88.2431449,16.6738385 88.5488934,16.6608451 88.8806631,16.635941 C89.2113485,16.6142852 89.5322761,16.5731393 89.8412772,16.5168344 C90.1470258,16.462695 90.4278373,16.3868999 90.6772067,16.2894491 C90.9254919,16.1952466 91.1087241,16.0750572 91.2247351,15.9277982 C91.2941248,15.8238506 91.3288197,15.6820055 91.3288197,15.5022629 C91.3288197,15.2380628 91.2659353,14.9229718 91.1401664,14.5613209 C91.0111448,14.19967 90.8626074,13.8315224 90.6891331,13.456878 C90.5156587,13.0822337 90.340016,12.7205828 90.1600363,12.3773393 C89.9800567,12.0340958 89.8315193,11.7471572 89.7220136,11.5176063 L92.3534025,10.2269241 C92.5453085,10.5571742 92.7285408,10.9513087 92.9085204,11.4039137 C93.0874158,11.8543531 93.2457112,12.3199516 93.3877433,12.7952951 C93.5286912,13.2706387 93.6425337,13.7394855 93.7281867,14.1964216 C93.8127554,14.6555234 93.8572082,15.0561546 93.8572082,15.3929014 C93.8572082,16.0122556 93.7466183,16.5818016 93.5265228,17.098291 C93.0093524,18.2471282 92.1170437,19.0029135 90.8474284,19.3645644 C90.6609435,19.4154554 90.43109,19.4566013 90.1567837,19.4880022 C89.8792247,19.5161546 89.5984132,19.5410587 89.3154331,19.5573005 C89.0313689,19.5724596 88.7635679,19.5789563 88.5109459,19.5822046 C88.2594081,19.585453 88.0642494,19.5887014 87.9222173,19.5887014 L86.582128,19.5887014 L86.4975593,19.5887014 C86.2958954,19.5887014 86.1061578,19.5508038 85.9272624,19.4782571 C85.7472828,19.402462 85.5933243,19.2985144 85.4632185,19.1664144 C85.334197,19.0343144 85.233365,18.8805586 85.1542174,18.7040643 C84.9980905,18.3478274 84.9980905,17.9136297 85.1542174,17.5584756 L85.1542174,17.5584756 Z" id="Shape" fill="#2F93E2" fill-rule="nonzero"></path>
                    <path d="M78.105738,19.5865358 C78.1371803,19.0797914 78.1686225,18.5568053 78.1968121,18.0186601 C78.2293385,17.4772665 78.2542754,16.9423697 78.2759597,16.4139696 C78.297644,15.8844867 78.3106546,15.3712456 78.3171599,14.870998 C78.3236652,14.3739987 78.3171599,13.9170626 78.297644,13.4991067 C78.2640334,12.6263803 78.2293385,11.8586843 78.1946436,11.1981842 C78.1599488,10.5366012 78.1274223,9.95081342 78.0938117,9.44190348 C78.0591168,8.93191076 78.0244219,8.48471969 77.9897271,8.10033027 C77.9550322,7.71594085 77.9203373,7.36403505 77.8856425,7.04244728 C77.8476949,6.72519066 77.8064948,6.42525863 77.7652946,6.14589956 C77.7208418,5.8654577 77.6742206,5.57310519 77.6265152,5.27425595 L80.4790839,4.33223117 C80.6146107,5.15406658 80.7219479,5.98564707 80.8065167,6.8226415 C80.888917,7.65638756 80.9518014,8.4587328 80.9962542,9.22426328 C81.0374544,9.98871097 81.0688966,10.7001021 81.0840756,11.3584366 C81.1003388,12.0156884 81.1068441,12.5798205 81.1068441,13.0454189 C81.1068441,13.4698715 81.1068441,13.930056 81.1035915,14.4205586 C81.1003388,14.9121439 81.0938336,15.4221366 81.0840756,15.9505367 C81.0754019,16.4800196 81.0591387,17.0149164 81.0428755,17.55631 C81.0244438,18.0977035 80.9962542,18.6261036 80.9583067,19.1425931 L78.105738,19.5865358 L78.105738,19.5865358 Z" id="Path" fill="#2F93E2"></path>
                    <path d="M94.6129058,19.5865358 C94.6443481,19.0797914 94.6757903,18.5568053 94.7039799,18.0186601 C94.7354221,17.4772665 94.760359,16.9423697 94.7831275,16.4139696 C94.8048118,15.8844867 94.8178224,15.3712456 94.8243277,14.870998 C94.8297488,14.3739987 94.8243277,13.9170626 94.8048118,13.4991067 C94.770117,12.6263803 94.7354221,11.8586843 94.7007272,11.1981842 C94.6660324,10.5366012 94.6345901,9.95081342 94.5998953,9.44190348 C94.5652004,8.93191076 94.5305055,8.48471969 94.4958107,8.10033027 C94.4611158,7.71594085 94.4264209,7.36403505 94.391726,7.04244728 C94.3537785,6.72519066 94.3136626,6.42525863 94.2724624,6.14589956 C94.2280096,5.8654577 94.1813884,5.57310519 94.133683,5.27425595 L96.9862517,4.33223117 C97.1217785,5.15406658 97.2291157,5.98564707 97.3136845,6.8226415 C97.3960848,7.65638756 97.4589692,8.4587328 97.503422,9.22426328 C97.543538,9.98871097 97.5749802,10.7001021 97.5912434,11.3584366 C97.6064224,12.0156884 97.6129277,12.5798205 97.6129277,13.0454189 C97.6129277,13.4698715 97.6129277,13.930056 97.6096751,14.4205586 C97.6064224,14.9121439 97.6010014,15.4221366 97.5912434,15.9505367 C97.5814855,16.4800196 97.5663065,17.0149164 97.5500433,17.55631 C97.5316116,18.0977035 97.503422,18.6261036 97.4654745,19.1425931 L94.6129058,19.5865358 L94.6129058,19.5865358 Z" id="Path" fill="#2F93E2"></path>
                    <path d="M44.5373687,23.2528529 C45.4047404,23.079607 46.1918803,22.8630495 46.8987882,22.5977667 C47.6013593,22.3335667 48.2193616,22.0412141 48.751711,21.7228747 C49.2840604,21.4023698 49.7253358,21.0591262 50.0690318,20.6974754 C50.4127278,20.3347417 50.6588446,19.9665941 50.8062978,19.5919497 C50.5417494,19.5919497 50.2739484,19.5865358 50.0028947,19.5767907 C49.7350937,19.5670456 49.5052402,19.5573005 49.31225,19.5453899 C48.584742,19.4847538 47.9287921,19.3277497 47.3454846,19.0754603 C46.7600087,18.8242537 46.2905438,18.4777618 45.9403425,18.0338191 C45.6822994,17.7003207 45.4990671,17.3419181 45.3917299,16.9542804 C45.2843926,16.5677254 45.2312661,16.1584318 45.2312661,15.7263998 C45.2312661,15.3961497 45.2627083,15.0626513 45.3223401,14.7259045 C45.3819719,14.3924061 45.4708775,14.06757 45.5803832,13.7535617 C45.6909731,13.441719 45.8232473,13.1428698 45.9750373,12.8559312 C46.1235748,12.5700754 46.2840385,12.3080409 46.4575129,12.0752417 C47.2099578,11.1407964 48.0773295,10.675198 49.0639648,10.675198 C50.1037267,10.675198 51.0426565,11.127803 51.878586,12.0373442 C52.1366291,12.3275311 52.3697353,12.6480361 52.5811571,12.9977763 C52.7893263,13.3475165 52.974727,13.7221609 53.136275,14.118461 C53.2967388,14.514761 53.4257603,14.9273029 53.5265923,15.3582522 C53.6274242,15.7902842 53.696814,16.2277302 53.7347615,16.6770869 L53.9114885,16.6770869 C54.1131524,16.6770869 54.3018057,16.7149844 54.4817854,16.7875311 C54.661765,16.8600779 54.8157235,16.9640254 54.9479977,17.0961255 C55.0802718,17.2282255 55.1876091,17.3830641 55.2667568,17.5617239 C55.3448202,17.7414666 55.3860204,17.9331199 55.3860204,18.1442634 C55.3860204,18.3424134 55.3448202,18.5286528 55.2667568,18.7018987 C55.1876091,18.8773102 55.0802718,19.0321488 54.9479977,19.1642488 C54.8157235,19.2963489 54.661765,19.4002964 54.4817854,19.4760915 C54.3018057,19.5540522 54.1131524,19.5919497 53.9114885,19.5919497 L53.504908,19.5919497 C53.2652965,20.496077 52.8804004,21.3114156 52.3545563,22.0444625 C51.8276279,22.7775094 51.2009519,23.4163538 50.469107,23.9609957 C49.741599,24.5088859 48.928438,24.9625737 48.0328767,25.3177279 C47.1383996,25.6739649 46.2016382,25.9284198 45.2215082,26.0832584 L44.5373687,23.2528529 Z M49.0639648,13.5954748 C48.928438,13.5954748 48.776648,13.6561109 48.6129316,13.7784658 C48.4524678,13.8975724 48.2974251,14.0491626 48.1564772,14.235402 C48.0144451,14.4205586 47.8973499,14.6252053 47.8030232,14.8515078 C47.7054439,15.0788931 47.6577385,15.2986989 47.6577385,15.5163391 C47.6577385,15.7242342 47.7173703,15.8963974 47.8344654,16.0317458 C47.9515606,16.1670941 48.1022665,16.2742901 48.2822461,16.3598302 C48.4611415,16.4410393 48.660637,16.5049237 48.8774799,16.5449868 C49.0954071,16.5861327 49.3035763,16.6142852 49.5052402,16.630527 C49.6147459,16.6424377 49.7383463,16.6521828 49.8706205,16.6554311 C50.0028947,16.6586795 50.1384215,16.6586795 50.2804537,16.6586795 C50.4224858,16.6586795 50.5634337,16.6619278 50.7022132,16.6651762 C50.8409926,16.6684246 50.9678457,16.6716729 51.0838567,16.6770869 C51.0426565,16.381486 50.9765195,16.1010441 50.8854454,15.8335957 C50.797624,15.5661473 50.6935394,15.3203546 50.5764443,15.0973005 C50.4604333,14.8742463 50.3335802,14.6695996 50.201306,14.4833602 C50.0690318,14.2982036 49.9432629,14.1368683 49.8196624,14.0015199 C49.7285884,13.9105658 49.6093248,13.8196117 49.4607874,13.7308232 C49.31225,13.6398691 49.1799758,13.5954748 49.0639648,13.5954748 L49.0639648,13.5954748 Z M52.3859985,18.1345183 C52.3859985,17.9298715 52.423946,17.7414666 52.4987568,17.5617239 C52.5779045,17.3830641 52.6787364,17.2282255 52.807758,17.0961255 C52.9378637,16.9640254 53.0918222,16.8600779 53.2718018,16.7875311 C53.4506972,16.7149844 53.6404348,16.6770869 53.8420987,16.6770869 L54.7940392,16.6770869 L55.2092934,16.6770869 C55.4369785,16.6770869 59.5765099,16.6684246 59.8258793,16.6489344 C60.0709118,16.630527 60.304018,16.5926295 60.5251977,16.5384901 C60.748546,16.4854335 60.9437046,16.4063901 61.1117579,16.3089393 C61.2819796,16.2114884 61.4044958,16.0793884 61.4771382,15.9126392 C61.5270121,15.7837875 61.5530332,15.6170383 61.5530332,15.4156399 C61.5530332,15.2672981 61.5085804,15.0442439 61.4229275,14.7508086 C61.3351061,14.4552077 61.2212635,14.128206 61.0803156,13.7687207 C60.9382835,13.4070698 60.7799882,13.0324255 60.6010928,12.6393738 C60.4211131,12.2452393 60.2411335,11.8705949 60.0557328,11.5219375 L62.6968796,10.2117651 C62.870354,10.5994029 63.0405757,11.0119448 63.2075447,11.4493908 C63.3777664,11.8868367 63.5284723,12.3275311 63.6639991,12.7779705 C63.7995259,13.2273272 63.9101158,13.6745182 63.9925161,14.118461 C64.0770849,14.5624037 64.118285,14.9901046 64.118285,15.3961497 C64.118285,16.0165867 64.0076951,16.5861327 63.7875996,17.1026222 C63.2671765,18.2514593 62.3748679,19.0072447 61.1085052,19.3688956 C60.738788,19.4728431 60.3831656,19.5388932 60.0459749,19.5605489 C59.7087841,19.5832874 55.4868523,19.5919497 55.1908617,19.5919497 L53.9266675,19.5919497 L53.8420987,19.5919497 C53.6404348,19.5919497 53.4506972,19.5540522 53.2718018,19.4815054 C53.0918222,19.4067931 52.9378637,19.3028456 52.807758,19.1707455 C52.6787364,19.0386455 52.5779045,18.883807 52.4987568,18.7073127 C52.423946,18.5286528 52.3859985,18.3391651 52.3859985,18.1345183 L52.3859985,18.1345183 Z" id="Shape" fill="#2F93E2" fill-rule="nonzero"></path>
                    <path d="M19.6329586,19.1555865 C19.084346,19.1826562 18.60946,19.10253 18.003384,18.8090947 L16.5678838,18.7744455 L15.0250464,16.5818016 L17.3550236,14.7778783 C17.5935509,15.2651325 17.9665207,15.7144891 18.4414067,15.9851859 C18.6658391,16.111872 18.877261,16.1865843 19.0756723,16.2093228 C19.2740836,16.2309786 19.4594843,16.2407237 19.6329586,16.2407237 C19.8378752,16.2407237 20.0276127,16.2786212 20.2065081,16.3511679 C20.3864878,16.4237147 20.5415305,16.5265795 20.6738046,16.6597623 C20.8060788,16.7918623 20.9101634,16.9456181 20.9849742,17.1253607 C21.0641219,17.3040206 21.1020694,17.4935083 21.1020694,17.6981551 C21.1020694,17.9028019 21.0641219,18.0912068 20.9849742,18.2709495 C20.9101634,18.4474438 20.8060788,18.6011995 20.6738046,18.7300512 C20.5415305,18.8599857 20.3864878,18.9628504 20.2065081,19.0386455 C20.0276127,19.117689 19.8378752,19.1555865 19.6329586,19.1555865 L19.6329586,19.1555865 Z M17.7930464,17.6981551 C17.7930464,17.4935083 17.8299097,17.3040206 17.9090573,17.1253607 C17.988205,16.9456181 18.089037,16.7918623 18.2180585,16.6597623 C18.34708,16.5265795 18.5021227,16.4237147 18.6810181,16.3511679 C18.8609978,16.2786212 19.0496511,16.2407237 19.2523993,16.2407237 L20.2791505,16.2407237 L20.7204259,16.2407237 C20.9979848,16.2407237 21.3037333,16.2277302 21.6344188,16.2028261 C21.9651043,16.1811704 22.287116,16.1400245 22.5961172,16.0837195 C22.9018657,16.0295802 23.1826773,15.9537851 23.4309625,15.8563342 C23.6803318,15.7621318 23.8635641,15.6430252 23.9795751,15.4946834 C24.0489648,15.3907358 24.0836597,15.2488907 24.0836597,15.069148 C24.0836597,14.804948 24.0207752,14.4909397 23.8950063,14.128206 C23.7649006,13.7665551 23.6174474,13.3984075 23.443973,13.0237632 C23.2704987,12.6491189 23.0937717,12.287468 22.9148763,11.9442245 C22.7348967,11.600981 22.5863593,11.3140424 22.4768536,11.0844915 L25.1082425,9.79380929 C25.3001485,10.1240594 25.4833808,10.5181939 25.6622762,10.9707989 C25.8422558,11.4212383 26.0005511,11.8868367 26.141499,12.3621803 C26.2835312,12.8375238 26.3973737,13.3074534 26.4819424,13.7633068 C26.5675954,14.2224085 26.6120482,14.6230397 26.6120482,14.9597865 C26.6120482,15.5791407 26.5014583,16.1497695 26.2802785,16.6651762 C25.7641924,17.8140133 24.8718837,18.5697987 23.6011842,18.9314496 C23.4157835,18.9823406 23.18593,19.0234865 22.9116236,19.0548873 C22.6340647,19.0830398 22.3532531,19.1079439 22.0702731,19.1241857 C21.7862089,19.1393447 21.5184078,19.1458414 21.2657858,19.1490898 C21.014248,19.1523382 20.8180052,19.1555865 20.6770573,19.1555865 L19.336968,19.1555865 L19.2523993,19.1555865 C19.0496511,19.1555865 18.8609978,19.117689 18.6810181,19.0451422 C18.5021227,18.9693471 18.34708,18.8653996 18.2180585,18.7332996 C18.089037,18.6011995 17.988205,18.4474438 17.9090573,18.2709495 C17.8299097,18.0912068 17.7930464,17.9028019 17.7930464,17.6981551 L17.7930464,17.6981551 Z" id="Shape" fill="#2F93E2" fill-rule="nonzero"></path>
                    <path d="M32.9135036,19.5627145 C32.7779768,19.5627145 32.5882393,19.5529694 32.3388699,19.534562 C32.0938374,19.5150718 31.829289,19.4490218 31.5452248,19.3331636 C30.9662542,22.5826077 28.227528,24.6799663 25.6622762,26.2489248 L23.5957631,24.1082547 C24.9098312,23.4477546 26.2249836,22.636747 27.3124508,21.6395001 C27.9337058,21.0818648 28.5050869,20.3975433 28.8314356,19.6222678 C28.979973,19.2671136 29.0515311,18.9108766 29.0515311,18.5492258 C29.0515311,18.5297356 29.0515311,18.5015831 29.0493627,18.4636856 C29.04611,18.4290364 29.04611,18.3911388 29.04611,18.3543241 C29.04611,18.3164265 29.0428574,18.2882741 29.0396048,18.2720323 C29.0363521,18.2536249 29.0363521,18.2557905 29.0363521,18.2817773 L29.0363521,18.2882741 C28.9918993,17.9320371 28.9290149,17.592042 28.8498672,17.2650403 C28.7718037,16.9402041 28.6709718,16.6067057 28.550624,16.2699589 C28.4313604,15.9332121 28.2893282,15.578058 28.1288645,15.2055792 C27.9673165,14.8320177 27.7916737,14.4259725 27.5954309,13.9820298 L30.2625989,12.8201992 C30.5087156,13.5597428 30.7385691,14.1736831 30.955412,14.6652684 C31.1733392,15.155771 31.384761,15.5488227 31.5896776,15.8455064 C31.7945941,16.1411073 32.0016791,16.3490024 32.2098484,16.468109 C32.4212702,16.5882983 32.64245,16.6478516 32.8755561,16.6478516 L32.9221774,16.6478516 C33.1270939,16.6478516 33.3168315,16.6889975 33.4957269,16.7669582 C33.6757065,16.8460017 33.8307492,16.9531976 33.9630234,17.0852976 C34.0952976,17.2173976 34.1993822,17.3722362 34.274193,17.5508961 C34.3533407,17.7306387 34.3912882,17.9157953 34.3912882,18.1150281 C34.3912882,18.3164265 34.3533407,18.5048315 34.274193,18.6845741 C34.1993822,18.8643168 34.0952976,19.0180726 33.9630234,19.1469242 C33.8307492,19.2757759 33.6757065,19.3764751 33.4957269,19.4522702 C33.3168315,19.5248169 33.1238413,19.5627145 32.9135036,19.5627145 L32.9135036,19.5627145 Z M31.3500661,18.105283 C31.3500661,17.9006363 31.3880137,17.7111485 31.4660771,17.5324887 C31.5452248,17.352746 31.6493094,17.1989902 31.7815836,17.0668902 C31.9138578,16.9337074 32.0710689,16.8308426 32.2510485,16.7582959 C32.4310281,16.6857492 32.6229341,16.6478516 32.8278507,16.6478516 C33.0544516,16.6478516 33.3352631,16.6446033 33.6724539,16.6348582 C34.0096446,16.6261959 34.3663513,16.6067057 34.7469106,16.5818016 C35.1285541,16.5601459 35.5232083,16.5276622 35.9232835,16.4908475 C36.3233587,16.4561983 36.7017496,16.4053073 37.057372,16.3425057 C37.4140786,16.2829524 37.7382588,16.2104056 38.0320809,16.1248654 C38.3248189,16.0436564 38.5514197,15.9462056 38.7183888,15.8357613 C38.098218,15.9018113 37.5246685,15.9299638 37.0009928,15.9148047 C36.4773172,15.8985629 36.0111049,15.8487547 35.5980191,15.7632146 C35.1860175,15.6787572 34.8358162,15.5585678 34.5430782,15.4080604 C34.2492561,15.2564702 34.0259079,15.0832243 33.8708652,14.8850742 L33.8708652,14.8948193 C33.7038961,14.6869242 33.5499376,14.4064823 33.4046529,14.0567421 C33.2593681,13.7080846 33.1867257,13.273887 33.1867257,12.7573976 C33.1867257,12.4802041 33.2062416,12.2225007 33.2441891,11.9832048 C33.4295898,10.9383153 33.7982228,10.0720856 34.350088,9.38884692 L34.3435828,9.398592 C34.6753524,8.95464929 35.0504907,8.62439923 35.4689975,8.40675902 C35.8885886,8.1902016 36.3266113,8.07975732 36.789571,8.07975732 C37.2590359,8.07975732 37.7198271,8.19344996 38.1730288,8.42300083 C38.6305674,8.64930333 39.0436532,8.95789765 39.4122862,9.34553543 C39.6768345,9.64438467 39.916446,9.98762818 40.1278678,10.3676865 C40.3392897,10.7488275 40.5214377,11.1548727 40.6732278,11.5858219 C40.8239336,12.017854 40.9410288,12.4650451 41.0223449,12.9273951 C41.1079979,13.3897452 41.149198,13.8553437 41.149198,14.3252733 C41.149198,14.4660356 41.1459454,14.6046324 41.1394401,14.7432291 C41.1329348,14.8818259 41.1231769,15.0139259 41.1112505,15.1373636 C41.0386081,15.776208 40.8748917,16.3262638 40.6222697,16.7896967 C40.3707319,17.2552952 40.0487202,17.6515953 39.6584029,17.9764314 C39.2670014,18.3001847 38.8192208,18.5643848 38.3118083,18.7690315 C37.8076485,18.9736783 37.2655412,19.1317652 36.688739,19.2476234 C36.1086842,19.3645644 35.5036924,19.4457735 34.8737637,19.4869194 C34.2427508,19.5313137 33.6063168,19.5562178 32.9666302,19.5627145 L32.809419,19.5627145 C32.6077551,19.5627145 32.4180176,19.5248169 32.2391221,19.4457735 C32.0591425,19.3699784 31.9040998,19.2671136 31.7750783,19.1371791 C31.6460567,19.0083275 31.5452248,18.8545717 31.4660771,18.6780774 C31.3880137,18.4983348 31.3500661,18.3099298 31.3500661,18.105283 L31.3500661,18.105283 Z M36.7711393,11.0130276 C36.6291072,11.0076136 36.4870751,11.0476767 36.3417903,11.1397137 C36.1975898,11.2274194 36.0653156,11.3443604 35.9449678,11.4916195 C35.8257042,11.6399613 35.7281248,11.8099589 35.6489772,11.9983638 C35.5698295,12.1910999 35.531882,12.3827532 35.531882,12.5809033 C35.531882,12.7541492 35.5730821,12.9046566 35.6554825,13.0410878 C35.6966826,13.1158001 35.784504,13.1786018 35.9167782,13.2327411 C36.0490524,13.2825493 36.2062635,13.3269436 36.3862431,13.3615928 C36.5694754,13.396242 36.764634,13.4211461 36.9760559,13.4438846 C37.1842251,13.4655403 37.3826364,13.4785338 37.5745424,13.4839477 C37.7664484,13.4904444 37.9399227,13.4904444 38.0949654,13.4839477 C38.2521765,13.4785338 38.3692717,13.4687887 38.4419141,13.4557953 C38.3877033,13.1786018 38.315061,12.8992427 38.2239869,12.6188008 C38.1361655,12.3351106 38.0255756,12.0774073 37.8900488,11.8446081 C37.754522,11.6085605 37.5940582,11.4158244 37.4075733,11.2620686 C37.2221726,11.1083128 37.0107508,11.026021 36.7711393,11.0130276 L36.7711393,11.0130276 Z" id="Shape" fill="#2F93E2" fill-rule="nonzero"></path>
                    <path d="M41.6522736,19.5919497 C41.6837158,19.0852054 41.7162423,18.5622192 41.7444318,18.024074 C41.7758741,17.4826805 41.800811,16.9477836 41.8224953,16.4183007 C41.8452638,15.8899006 41.8571902,15.3766596 41.8636955,14.8764119 C41.8702007,14.3794126 41.8636955,13.9224765 41.8452638,13.5034379 C41.8105689,12.6317943 41.7758741,11.8640982 41.7411792,11.2025153 C41.7064843,10.5420152 41.6750421,9.95622735 41.6403472,9.44623463 C41.6056524,8.93624191 41.5709575,8.48905084 41.5362626,8.10574421 C41.5015678,7.72135479 41.4668729,7.36944898 41.432178,7.04786121 C41.3942305,6.72952181 41.3530304,6.43067257 41.3118302,6.1513135 C41.2684616,5.87087164 41.2207562,5.57743634 41.1741349,5.2785871 L44.0256194,4.33764511 C44.1611463,5.15948052 44.2684835,5.98997822 44.3541365,6.82805543 C44.4354526,7.6618015 44.4994212,8.46414674 44.5427898,9.22967721 C44.58399,9.9941249 44.6154322,10.705516 44.6316954,11.3638506 C44.6468744,12.0211023 44.6533797,12.5852344 44.6533797,13.0508329 C44.6533797,13.4752854 44.6533797,13.9354699 44.6501271,14.4259725 C44.6468744,14.9175578 44.6403691,15.4275506 44.6316954,15.9559507 C44.6219375,16.4843508 44.6056743,17.0203304 44.5904953,17.5617239 C44.5709794,18.1031175 44.5427898,18.6315176 44.5048423,19.148007 L41.6522736,19.5919497 L41.6522736,19.5919497 Z" id="Path" fill="#2F93E2"></path>
                    <g id="_105553458048000" transform="translate(0.000000, 8.229182)" fill="#2F93E2" stroke="#2F93E2" stroke-width="0.6">
                        <path d="M8.11317811,8.37210983 C8.10775703,8.36994426 8.10450439,8.3666959 8.09908332,8.36344754 C8.09474646,8.36128196 8.08932539,8.3580336 8.08498853,8.35478524 C8.07956745,8.35045409 8.0752306,8.34612294 8.07089374,8.34070901 C8.06764109,8.33854343 8.06438845,8.33529507 8.0611358,8.33204671 C8.05463052,8.32338441 8.04812523,8.31472212 8.04270416,8.30497703 C7.97656706,8.18695324 7.90717733,8.07434338 7.83453495,7.96281631 C6.40987692,7.66071871 4.93751344,7.87402777 3.64729803,8.58000495 C3.64296117,8.58217053 3.63862431,8.5843361 3.63537167,8.58650168 C2.22914529,9.36069445 1.20130981,10.6297209 0.740518595,12.1618647 C0.72750802,12.2051762 0.731844878,12.251736 0.753529171,12.2907163 C0.775213463,12.3307795 0.812076761,12.3600147 0.855445346,12.3719254 L1.40514217,12.5310951 C1.41056324,12.5332606 1.41598431,12.5343434 1.42140539,12.5354262 C2.79185268,12.7844673 4.21867914,12.5505852 5.44275746,11.8770917 C5.44601011,11.8760089 5.44926275,11.8738433 5.4525154,11.8716777 C6.4087927,11.3454432 7.20460624,10.5723332 7.75538728,9.63788795 C7.80200851,9.5577617 7.77490314,9.45381414 7.69467126,9.4072543 C7.61443938,9.35961166 7.51143899,9.38668134 7.46373354,9.46680759 C6.94439473,10.3492791 6.19303399,11.0779948 5.29096741,11.5760769 C5.29096741,11.5760769 5.29096741,11.5760769 5.29096741,11.5760769 L5.27904105,11.5825736 C5.27795684,11.5836564 5.27795684,11.5836564 5.27687262,11.5836564 C4.12435247,12.2170868 2.78101054,12.4379754 1.49079512,12.2051762 L1.11457264,12.0968974 C1.57319543,10.7217578 2.51971481,9.58483138 3.79800386,8.88210255 C3.80125651,8.87993698 3.80559337,8.87777141 3.80884601,8.87560583 C5.14351422,8.14580733 6.683099,7.97039582 8.14353612,8.38510328 C8.14353612,8.38510328 8.14353612,8.38510328 8.14353612,8.38510328 C8.13269397,8.38185492 8.12293604,8.37752377 8.11317811,8.37210983 L8.11317811,8.37210983 Z" id="Path"></path>
                        <path d="M15.5975117,4.00847783 C14.4037914,3.62625399 13.3922192,3.58619086 12.133446,4.05070653 C12.0456246,4.08319014 12.0011718,4.18064098 12.0336982,4.26726395 C12.0662247,4.35388692 12.163804,4.39828119 12.2516254,4.36579757 C13.3846297,4.01497455 14.2010433,4.00198111 15.3373002,4.2878369 C14.8819301,5.67380439 13.9202317,6.82588986 12.6148373,7.54486049 C12.6137531,7.54486049 12.6137531,7.54486049 12.6137531,7.54594328 C11.3766642,8.22701636 9.97477463,8.43707706 8.62601163,8.15446963 C9.8533426,7.35753832 10.7499881,6.15239628 11.1695792,4.71770338 C11.6292862,3.14766209 11.4579803,1.50290849 10.6881879,0.0887885419 C10.6665036,0.0487254194 10.6296403,0.0194901677 10.5862717,0.00757950968 C10.5429031,-0.00541393548 10.4995345,0.0010827871 10.4572501,0.022738529 C9.33834064,0.64534111 8.60649577,1.31883468 8.06330423,2.47308573 C8.02427251,2.55754312 8.06005159,2.65715954 8.14462033,2.69722266 C8.22918907,2.73728578 8.32893682,2.70047102 8.36905276,2.61601363 C8.85694935,1.57870359 9.48687805,0.990750194 10.4713449,0.4027968 C11.1305474,1.7032241 11.2639058,3.19530472 10.845399,4.6235009 C10.4507449,5.97590199 9.60614166,7.11282844 8.45036886,7.86644826 C8.42109506,8.00071386 8.38965284,8.13389667 8.35278954,8.26816227 C8.3495369,8.27899014 8.34520004,8.28981801 8.33977897,8.2995631 C8.33761054,8.30389425 8.33544211,8.30714261 8.33218946,8.31147375 C8.32893682,8.31688769 8.32568418,8.32230163 8.32243153,8.32771556 C8.31809467,8.33204671 8.31375781,8.33529507 8.31050517,8.33962622 C8.30616831,8.34287458 8.30291567,8.34720573 8.29857881,8.35045409 C8.29315774,8.35586803 8.28665245,8.36019917 8.27906295,8.36453032 C8.27689452,8.36561311 8.27472609,8.36777868 8.27255766,8.36994426 C8.27147344,8.36994426 8.27147344,8.36994426 8.27147344,8.36994426 C8.27147344,8.36994426 8.27038923,8.36994426 8.27038923,8.36994426 C8.26171551,8.37535819 8.25087337,8.37968934 8.24111543,8.3829377 C8.23569436,8.38510328 8.2313575,8.38510328 8.22593643,8.38618606 C8.22051536,8.38726885 8.21509428,8.38943443 8.208589,8.38943443 C8.20316792,8.39051721 8.19666263,8.39051721 8.19015735,8.39051721 C8.18582049,8.39051721 8.18148363,8.39051721 8.17606256,8.39051721 C8.16630462,8.38943443 8.15763091,8.38835164 8.14787298,8.38510328 C8.14678876,8.38510328 8.14570455,8.38510328 8.14353612,8.38510328 C9.69613147,8.82363205 11.3408851,8.63089595 12.7763852,7.84046137 C12.7774695,7.84046137 12.7774695,7.84046137 12.7774695,7.84046137 C14.2129696,7.05002679 15.2559841,5.76367572 15.7124385,4.21853853 C15.7254491,4.17522705 15.720028,4.1286672 15.6983437,4.08968686 C15.6766594,4.04962374 15.6408803,4.02038849 15.5975117,4.00847783 L15.5975117,4.00847783 Z" id="Path"></path>
                        <path d="M8.35278954,8.26816227 C9.26678248,5.04795345 7.41711231,1.66316098 4.2306055,0.723301781 C4.14386833,0.69731489 4.0452048,0.752537032 4.02026786,0.83916 C3.66356125,2.09519303 3.6299506,3.1130129 4.07339438,4.37337708 C4.10592082,4.46108284 4.20350014,4.50547711 4.29023731,4.47191071 C4.37697448,4.4394271 4.42251149,4.35280413 4.38890084,4.25535329 C4.03869951,3.11842684 4.01376258,2.23378978 4.29999524,1.09794612 C7.0831742,2.01073564 8.7279278,4.92126735 8.12185182,7.7874048 C6.40770849,5.15406658 2.90786365,4.21529017 0.120347824,5.71278472 C0.120347824,5.71278472 0.11926361,5.71278472 0.11926361,5.71386751 C0.0802318829,5.73444046 0.0509580878,5.77125523 0.0390317268,5.81348392 C0.0260211512,5.85679541 0.0314422244,5.90335525 0.0531265171,5.94233559 L0.329601249,6.44366601 C0.331769678,6.44799716 0.335022322,6.4534111 0.338274966,6.45774225 C0.924835083,7.30556454 1.72498548,7.99313435 2.651989,8.44790493 C2.73547352,8.48905084 2.8373897,8.45440165 2.87750564,8.37102705 C2.9187058,8.28765244 2.88401093,8.18587045 2.8005264,8.14580733 C1.92773362,7.71702364 1.17420445,7.06951695 0.620170771,6.27366844 L0.431517424,5.93150772 C3.15506459,4.57152712 6.52480367,5.61749946 8.02969358,8.30930818 C8.10342018,8.43707706 8.31050517,8.41109017 8.35278954,8.26816227 L8.35278954,8.26816227 Z" id="Path"></path>
                    </g>
                    <path d="M17.2610113,24.8191537 L20.024314,24.8209741 C20.0909894,24.821018 20.1450295,24.8750581 20.1450735,24.9417335 L20.1468938,27.7050363 C20.1469378,27.7717738 20.0928719,27.8259109 20.0261344,27.8259549 C20.0260813,27.8259549 20.0260283,27.8259549 20.0259752,27.8259549 L17.2626724,27.8241346 C17.195997,27.8240906 17.1419569,27.7700505 17.141913,27.7033751 L17.1400926,24.9400724 C17.1400487,24.8733348 17.1941145,24.8191977 17.260852,24.8191537 C17.2609051,24.8191537 17.2609582,24.8191537 17.2610113,24.8191537 Z" id="Rectangle" fill="#2F93E2" transform="translate(18.643493, 26.322554) rotate(-45.000000) translate(-18.643493, -26.322554) "></path>
                    <path d="M21.1554018,24.8191537 L23.9187046,24.8209741 C23.98538,24.821018 24.0394201,24.8750581 24.039464,24.9417335 L24.0412844,27.7050363 C24.0413283,27.7717738 23.9872625,27.8259109 23.9205249,27.8259549 C23.9204719,27.8259549 23.9204188,27.8259549 23.9203657,27.8259549 L21.1570629,27.8241346 C21.0903876,27.8240906 21.0363475,27.7700505 21.0363035,27.7033751 L21.0344832,24.9400724 C21.0344392,24.8733348 21.088505,24.8191977 21.1552426,24.8191537 C21.1552957,24.8191537 21.1553487,24.8191537 21.1554018,24.8191537 Z" id="Rectangle" fill="#2F93E2" transform="translate(22.537884, 26.322554) rotate(-45.000000) translate(-22.537884, -26.322554) "></path>
                    <path d="M30.5032836,5.94725745 L33.2665863,5.9490778 C33.3332617,5.94912173 33.3873018,6.00316184 33.3873458,6.06983721 L33.3891661,8.83314001 C33.3892101,8.89987755 33.3351442,8.95401466 33.2684067,8.95405862 C33.2683536,8.95405866 33.2683006,8.95405866 33.2682475,8.95405862 L30.5049447,8.95223827 C30.4382693,8.95219434 30.3842292,8.89815424 30.3841853,8.83147886 L30.3823649,6.06817607 C30.382321,6.00143852 30.4363868,5.94730141 30.5031243,5.94725745 C30.5031774,5.94725741 30.5032305,5.94725741 30.5032836,5.94725745 Z" id="Rectangle" fill="#2F93E2" transform="translate(31.885766, 7.450658) rotate(-45.000000) translate(-31.885766, -7.450658) "></path>
                    <path d="M59.5287935,5.92343613 L62.2920963,5.92525649 C62.3587717,5.92530041 62.4128118,5.97934052 62.4128557,6.0460159 L62.4146761,8.80931869 C62.41472,8.87605623 62.3606542,8.93019334 62.2939167,8.93023731 C62.2938636,8.93023734 62.2938105,8.93023734 62.2937575,8.93023731 L59.5304547,8.92841695 C59.4637793,8.92837303 59.4097392,8.87433292 59.4096953,8.80765754 L59.4078749,6.04435475 C59.4078309,5.9776172 59.4618968,5.9234801 59.5286343,5.92343613 C59.5286874,5.9234361 59.5287405,5.9234361 59.5287935,5.92343613 Z" id="Rectangle" fill="#2F93E2" transform="translate(60.911275, 7.426837) rotate(-45.000000) translate(-60.911275, -7.426837) "></path>
                    <path d="M67.2451491,13.5700786 L70.0084518,13.5718989 C70.0751272,13.5719429 70.1291673,13.625983 70.1292113,13.6926584 L70.1310316,16.4559611 C70.1310756,16.5226987 70.0770097,16.5768358 70.0102722,16.5768798 C70.0102191,16.5768798 70.0101661,16.5768798 70.010113,16.5768798 L67.2468102,16.5750594 C67.1801348,16.5750155 67.1260947,16.5209754 67.1260508,16.4543 L67.1242304,13.6909972 C67.1241865,13.6242597 67.1782523,13.5701225 67.2449898,13.5700786 C67.2450429,13.5700786 67.245096,13.5700786 67.2451491,13.5700786 Z" id="Rectangle" fill="#2F93E2" transform="translate(68.627631, 15.073479) rotate(-45.000000) translate(-68.627631, -15.073479) "></path>
                    <path d="M86.3132318,24.8191537 L89.0765346,24.8209741 C89.14321,24.821018 89.1972501,24.8750581 89.197294,24.9417335 L89.1991144,27.7050363 C89.1991583,27.7717738 89.1450925,27.8259109 89.078355,27.8259549 C89.0783019,27.8259549 89.0782488,27.8259549 89.0781958,27.8259549 L86.314893,27.8241346 C86.2482176,27.8240906 86.1941775,27.7700505 86.1941336,27.7033751 L86.1923132,24.9400724 C86.1922692,24.8733348 86.2463351,24.8191977 86.3130726,24.8191537 C86.3131257,24.8191537 86.3131788,24.8191537 86.3132318,24.8191537 Z" id="Rectangle" fill="#2F93E2" transform="translate(87.695714, 26.322554) rotate(-45.000000) translate(-87.695714, -26.322554) "></path>
                    <path d="M90.2077308,24.8191537 L92.9710336,24.8209741 C93.037709,24.821018 93.0917491,24.8750581 93.091793,24.9417335 L93.0936133,27.7050363 C93.0936573,27.7717738 93.0395915,27.8259109 92.9728539,27.8259549 C92.9728009,27.8259549 92.9727478,27.8259549 92.9726947,27.8259549 L90.2093919,27.8241346 C90.1427166,27.8240906 90.0886765,27.7700505 90.0886325,27.7033751 L90.0868122,24.9400724 C90.0867682,24.8733348 90.140834,24.8191977 90.2075716,24.8191537 C90.2076246,24.8191537 90.2076777,24.8191537 90.2077308,24.8191537 Z" id="Rectangle" fill="#2F93E2" transform="translate(91.590213, 26.322554) rotate(-45.000000) translate(-91.590213, -26.322554) "></path>
                    <path d="M15.7915861,15.3160235 C18.0510894,18.2904396 17.4493503,22.5457929 14.44716,24.8207286 C11.4460539,27.0945815 7.17966931,26.5261183 4.92016601,23.5517021 C4.51141709,23.013557 4.19699485,22.4331831 3.97256242,21.8311534" id="Path" stroke="#2F93E2" stroke-width="3.17556288"></path>
                    <rect id="Rectangle" stroke="#2F93E2" stroke-width="0.6" fill="#2F93E2" x="2.39611434" y="29.2449967" width="94.5977268" height="1"></rect>
                    <g id="iran-no-afarin" transform="translate(1.843165, 28.693858)" fill="#2F93E2" font-family="Helvetica" font-size="4.98923712" font-weight="normal">
                        <text>
                            <tspan x="0.0921582439" y="5.03476196">iran no afarin</tspan>
                        </text>
                    </g>
                    <rect id="Rectangle" stroke="#2F93E2" stroke-width="0.6" fill="#2F93E2" x="2.39611434" y="34.2550526" width="94.5977268" height="1"></rect>
                    <path d="M37.9269121,3.62733677 C37.9269121,3.41186214 38.4223982,2.37888325 38.5449145,2.17531928 C39.4751706,0.773109987 40.866218,0.0747123097 42.5543402,0.561966503 C43.3002798,0.787186219 44.513516,1.57220686 45.1358552,1.25278467 C45.5836359,1.02215102 46.0346692,0.441777135 46.3360808,0.0281524645 L48.3093515,1.30367566 C48.2041826,1.61768392 47.5026958,2.35722751 47.251158,2.59760625 C45.8893844,3.92943437 44.7097589,4.02471964 43.0172998,3.19205636 C42.3884553,2.87371695 41.3606199,2.47633409 40.7545439,3.01556206 C40.3588055,3.34364655 40.2330366,3.84172862 40.037878,4.29541641 L37.9269121,3.62733677 L37.9269121,3.62733677 Z" id="Path" fill="#2F93E2"></path>
                </g>
            </g>
        </g>
    </g>
</svg>