<?xml version="1.0" encoding="UTF-8" standalone="no"?>
<svg xmlns="http://www.w3.org/2000/svg" height="20" width="20" viewBox="0 0 20 20">
    <g transform="translate(2,2)" id="g16" stroke-width="0.6" stroke="#2f93e2" fill="#2f93e2">
        <path
            d="m 8.1131781,8.3721098 c -0.00542,-0.00217 -0.00867,-0.00541 -0.014095,-0.00866 -0.00434,-0.00217 -0.00976,-0.00541 -0.014095,-0.00866 -0.00542,-0.00433 -0.00976,-0.00866 -0.014095,-0.014076 -0.00325,-0.00217 -0.00651,-0.00541 -0.00976,-0.00866 -0.00651,-0.00866 -0.013011,-0.017325 -0.018432,-0.02707 C 7.9765671,8.1869532 7.9071773,8.0743434 7.8345349,7.9628163 6.4098769,7.6607187 4.9375134,7.8740278 3.647298,8.5800049 c -0.00434,0.00217 -0.00867,0.00433 -0.011926,0.0065 -1.4062264,0.7741928 -2.4340619,2.0432191 -2.89485311,3.5753631 -0.0130106,0.04331 -0.008674,0.08987 0.0130106,0.128851 0.0216843,0.04006 0.0585476,0.0693 0.10191618,0.08121 l 0.54969683,0.15917 c 0.00542,0.0022 0.010842,0.0032 0.016263,0.0043 1.3704473,0.249041 2.7972737,0.01516 4.0213521,-0.658334 0.00325,-0.0011 0.00651,-0.0032 0.00976,-0.0054 C 6.4087927,11.345443 7.2046062,10.572333 7.7553873,9.637888 7.8020085,9.5577617 7.7749031,9.4538141 7.6946713,9.4072543 7.6144394,9.3596117 7.511439,9.3866813 7.4637335,9.4668076 6.9443947,10.349279 6.193034,11.077995 5.2909674,11.576077 c 0,0 0,0 0,0 l -0.011926,0.0065 c -0.00108,0.0011 -0.00108,0.0011 -0.00217,0.0011 -1.1525201,0.633431 -2.4958621,0.854319 -3.7860775,0.62152 l -0.3762213,-0.1083 c 0.4586228,-1.375139 1.4051422,-2.5120656 2.6834313,-3.2147944 0.00325,-0.00217 0.00759,-0.00433 0.010842,-0.0065 1.3346682,-0.7297985 2.874253,-0.90521 4.3346901,-0.4905025 0,0 0,0 0,0 -0.010842,-0.00325 -0.0206,-0.00758 -0.030358,-0.012994 z" />
        <path
            d="m 15.597512,4.0084778 c -1.193721,-0.3822238 -2.205293,-0.4222869 -3.464066,0.042229 -0.08782,0.032484 -0.132274,0.1299345 -0.09975,0.2165574 0.03253,0.086623 0.130106,0.1310173 0.217927,0.098534 1.133005,-0.3508231 1.949418,-0.3638165 3.085675,-0.077961 -0.45537,1.3859675 -1.417068,2.538053 -2.722463,3.2570236 -0.0011,0 -0.0011,0 -0.0011,0.00108 C 11.376664,8.2270164 9.9747746,8.4370771 8.6260116,8.1544696 9.8533426,7.3575383 10.749988,6.1523963 11.169579,4.7177034 11.629286,3.1476621 11.45798,1.5029085 10.688188,0.08878854 10.666504,0.04872542 10.62964,0.01949017 10.586272,0.00757951 10.542903,-0.00541394 10.499534,0.00108279 10.45725,0.02273853 9.3383406,0.64534111 8.6064958,1.3188347 8.0633042,2.4730857 c -0.039032,0.084457 -0.00325,0.1840738 0.081316,0.224137 0.084569,0.040063 0.1843165,0.00325 0.2244325,-0.081209 0.4878966,-1.03731 1.1178253,-1.62526341 2.1022923,-2.2132168 0.659202,1.3004273 0.792561,2.7925079 0.374054,4.2207041 -0.394654,1.3524011 -1.2392574,2.4893275 -2.3950302,3.2429474 -0.029274,0.1342656 -0.060716,0.2674484 -0.097579,0.401714 -0.00325,0.010828 -0.00759,0.021656 -0.013011,0.031401 -0.00217,0.00433 -0.00434,0.00758 -0.00759,0.011911 -0.00325,0.00541 -0.00651,0.010828 -0.00976,0.016242 -0.00434,0.00433 -0.00867,0.00758 -0.011926,0.011911 -0.00434,0.00325 -0.00759,0.00758 -0.011926,0.010828 -0.00542,0.00541 -0.011926,0.00975 -0.019516,0.014076 -0.00217,0.00108 -0.00434,0.00325 -0.00651,0.00541 -0.00108,0 -0.00108,0 -0.00108,0 0,0 -0.00108,0 -0.00108,0 -0.00867,0.00541 -0.019516,0.00975 -0.029274,0.012993 -0.00542,0.00217 -0.00976,0.00217 -0.015179,0.00325 -0.00542,0.00108 -0.010842,0.00325 -0.017347,0.00325 -0.00542,0.00108 -0.011926,0.00108 -0.018432,0.00108 -0.00434,0 -0.00867,0 -0.014095,0 -0.00976,-0.00108 -0.018432,-0.00217 -0.02819,-0.00541 -0.00108,0 -0.00217,0 -0.00434,0 1.5525954,0.4385288 3.1973492,0.2457926 4.6328492,-0.5446419 0.0011,0 0.0011,0 0.0011,0 1.4355,-0.7904346 2.478514,-2.0767857 2.934968,-3.6219229 0.01301,-0.043312 0.0076,-0.089871 -0.01409,-0.1288516 -0.02168,-0.040063 -0.05746,-0.069298 -0.100832,-0.081209 z" />
        <path
            d="M 8.3527895,8.2681623 C 9.2667825,5.0479534 7.4171123,1.663161 4.2306055,0.72330178 4.1438683,0.69731489 4.0452048,0.75253703 4.0202679,0.83916 3.6635613,2.095193 3.6299506,3.1130129 4.0733944,4.3733771 c 0.032526,0.087706 0.1301057,0.1321 0.2168429,0.098534 0.086737,-0.032484 0.1322742,-0.119107 0.098663,-0.2165578 C 4.0386995,3.1184268 4.0137626,2.2337898 4.2999952,1.0979461 7.0831742,2.0107356 8.7279278,4.9212673 8.1218518,7.7874048 6.4077085,5.1540666 2.9078637,4.2152902 0.12034782,5.7127847 c 0,0 -0.001084,0 -0.001084,0.00108 -0.03903173,0.020573 -0.06830552,0.057388 -0.08023188,0.099616 -0.01301058,0.043312 -0.0075895,0.089871 0.01409479,0.1288517 L 0.32960125,6.443666 c 0.002168,0.00433 0.005421,0.00975 0.008674,0.014076 0.58656011,0.8478223 1.38671055,1.5353921 2.31371405,1.9901627 0.083484,0.041146 0.1854007,0.0065 0.2255166,-0.076878 0.0412,-0.083375 0.00651,-0.1851566 -0.076979,-0.2252198 C 1.9277336,7.7170236 1.1742044,7.0695169 0.62017077,6.2736684 L 0.43151742,5.9315077 C 3.1550646,4.5715271 6.5248037,5.6174995 8.0296936,8.3093082 c 0.073727,0.1277689 0.2808116,0.101782 0.3230959,-0.041146 z" />
    </g>
</svg>