<?xml version="1.0" encoding="UTF-8"?>
<svg width="113px" height="121px" viewBox="0 0 113 121" version="1.1" xmlns="http://www.w3.org/2000/svg" xmlns:xlink="http://www.w3.org/1999/xlink">
    <!-- Generator: Sketch 52.4 (67378) - http://www.bohemiancoding.com/sketch -->
    <title>handshake</title>
    <desc>Created with Sketch.</desc>
    <g id="Page-1" stroke="none" stroke-width="1" fill="none" fill-rule="evenodd">
        <g id="Home" transform="translate(-383.000000, -2200.000000)">
            <g id="handshake" transform="translate(383.000000, 2200.000000)">
                <g id="Group" transform="translate(2.159236, 1.920635)">
                    <path d="M108.815881,62.5625218 C108.813482,92.6098948 84.4724183,116.967627 54.4456072,116.970028 C53.4386837,116.970028 52.432,116.949861 51.4250764,116.869194 C22.6177537,115.273867 0.0758131635,91.433506 0.0758131635,62.5625218 C0.0758131635,33.6915377 22.6177537,9.85117659 51.4250764,8.25584921 C52.432,8.17518254 53.4386837,8.15501587 54.4456072,8.15501587 C84.4724183,8.15741667 108.813482,32.5151488 108.815881,62.5625218 Z" id="Path" fill="#A4C2F7"></path>
                    <path d="M102.77458,62.5625218 C102.77458,63.4491349 102.754427,64.3155813 102.714121,65.1820278 C101.366038,93.0115476 79.2252357,115.324284 51.4248365,116.869194 C22.6177537,115.273867 0.0758131635,91.433506 0.0758131635,62.5625218 C0.0758131635,33.6915377 22.6177537,9.85117659 51.4250764,8.25584921 C80.2316794,9.8521369 102.77338,33.6917778 102.77458,62.5625218 Z" id="Path" fill="#E3E7F2"></path>
                    <g transform="translate(24.231423, 0.000000)" fill="#A4C2F7" id="Path">
                        <path d="M74.5159427,8.15501587 L74.5159429,18.2304266 L46.3237618,18.2304266 L46.3237622,8.15501587 C46.3230425,6.01710913 47.1716221,3.96659127 48.6823673,2.45481151 C50.1931125,0.943031746 52.2422272,0.0941111111 54.3786709,0.0945912698 L66.461034,0.0945912698 C68.5974777,0.0938710317 70.6465924,0.943031746 72.1573376,2.45481151 C73.6680828,3.96659127 74.5164225,6.01710913 74.5159427,8.15501587 Z"></path>
                        <path d="M66.461034,0.094590812 C64.3245902,0.0938710317 62.2754756,0.943031746 60.7647304,2.45481151 C59.2539851,3.96659127 58.4056454,6.01710913 58.4061253,8.15501587 L58.4061253,109.091103 C49.9109724,114.260252 40.1565053,116.986593 30.2141847,116.970028 C29.1871083,116.970028 28.1602718,116.949861 27.1533482,116.869194 C17.4535817,116.350383 8.07458174,113.217347 0.0083970276,107.801157 L0.0083970276,8.15501587 C0.00767728238,6.01710913 0.8562569,3.96659127 2.36700212,2.45481151 C3.87774735,0.943031746 5.926862,0.0941111111 8.06330573,0.0945912698 L66.461034,0.094590812 Z"></path>
                    </g>
                    <path d="M84.651155,0.094590812 C82.5147113,0.0938710317 80.4655966,0.943031746 78.9548514,2.45481151 C77.4441062,3.96659127 76.5957665,6.01710913 76.5962463,8.15501587 L76.5962463,109.091103 C68.9674268,113.736639 60.3031338,116.409683 51.3845308,116.869435 C41.6847643,116.350623 32.3057643,113.217587 24.2395796,107.801397 L24.2395796,8.15501587 C24.2388599,6.01710913 25.0874395,3.96659127 26.5981847,2.45481151 C28.1089299,0.943031746 30.1580446,0.0941111111 32.2944883,0.0945912698 L84.651155,0.094590812 Z" id="Path" fill="#D4E1F4"></path>
                    <path d="M87.8329087,80.3759306 C86.3027304,82.6648472 83.22462,83.3094603 80.9058408,81.8267302 C80.8856879,81.8065635 80.865535,81.8065635 80.8453822,81.7863968 L80.5231762,81.5648036 C82.7294352,83.1375635 83.2908365,86.1784087 81.7918471,88.4363552 C81.0538684,89.5527242 79.9020361,90.3291409 78.5909002,90.5937083 C77.2797643,90.8585159 75.9170467,90.589627 74.8043206,89.8468214 L71.4817367,87.549502 C73.5953885,89.2151726 74.1006497,92.214244 72.6496433,94.4813135 C71.9116645,95.5976825 70.7598323,96.3740992 69.4486964,96.6389067 C68.1375605,96.9037143 66.7748429,96.6348254 65.6621168,95.8920198 L62.3999915,93.5747738 C62.5900042,93.7329861 62.77162,93.9010417 62.9436391,94.0784603 C64.8387282,95.8812163 65.0419363,98.8344325 63.4117134,100.880149 C61.7814904,102.925865 58.8590849,103.384897 56.680896,101.937218 L48.3037813,96.3352063 L48.2836285,96.3352063 L17.6954161,76.6679048 L16.608121,75.8014583 L11.8957091,72.0334127 L27.6027091,48.4568988 L52.4317601,48.4568988 L65.7626412,59.8825159 L66.5279703,60.5475357 L83.221741,71.3081329 L86.4438004,73.383619 C87.1364352,73.8558552 87.7088726,74.4839028 88.1152887,75.2173452 L88.1152887,75.2375119 C88.9617091,76.8741329 88.8537473,78.8418234 87.8329087,80.3759306 Z" id="Path" fill="#A4C2F7"></path>
                    <path d="M83.8054544,77.6152579 C82.275276,79.9041746 79.1971656,80.5487877 76.8783864,79.0660575 C76.8582335,79.0458909 76.8380807,79.0458909 76.8179278,79.0257242 L76.4957219,78.804131 C78.7019809,80.3768909 79.2633822,83.4177361 77.7643928,85.6756825 C77.026414,86.7920516 75.8745817,87.5684683 74.5634459,87.8330357 C73.25231,88.0978433 71.8895924,87.8289544 70.7768662,87.0861488 L67.4542824,84.7888294 C69.5679342,86.4545 70.0734352,89.4535714 68.622189,91.7206409 C67.8842102,92.8370099 66.7323779,93.6134266 65.421242,93.8782341 C64.1101062,94.1430417 62.7473885,93.8741528 61.6346624,93.1313472 L58.3725372,90.8141012 C58.5625499,90.9723135 58.7441656,91.140369 58.9161847,91.3177877 C60.811034,93.1205437 61.0140021,96.0737599 59.3840191,98.1192361 C57.7540361,100.164712 54.8316306,100.623984 52.6536815,99.1765456 L44.2765669,93.5745337 L44.256414,93.5745337 L16.608121,75.8014583 L11.8957091,72.0334127 L27.6027091,48.4568988 L51.6263652,48.4568988 L62.5005159,57.7868631 L65.7626412,59.8825159 L82.4161062,70.6229464 C82.7112017,70.818131 82.981586,71.048127 83.2215011,71.3081329 C83.5602611,71.6504861 83.851518,72.0367738 84.0873546,72.4566726 L84.0873546,72.4768393 C84.9342548,74.1134603 84.826293,76.0811508 83.8054544,77.6152579 Z" id="Path" fill="#D4E1F4"></path>
                    <g transform="translate(0.000000, 29.529762)" fill="#E3E7F2" id="Path">
                        <path d="M23.4185902,59.4616567 C21.6218662,57.3383948 21.8855329,54.159504 24.0073418,52.3615496 L30.281121,47.5095456 C32.4029299,45.7115913 35.5796454,45.9754385 37.3763694,48.0987004 C38.239104,49.1183175 38.6618344,50.4392341 38.5514735,51.7707143 C38.4411125,53.1021944 37.8065372,54.3352421 36.7876178,55.1988075 L30.5138386,60.0508115 C28.3920297,61.8487659 25.2153142,61.5849187 23.4185902,59.4616567 Z"></path>
                        <path d="M16.277518,53.5112897 C15.5947197,52.7043829 15.2602781,51.6590774 15.3476072,50.605369 C15.4349363,49.5516607 15.9370786,48.5757381 16.7434331,47.8924722 L21.7084756,44.0526429 C23.3876412,42.6296925 25.9017113,42.8385615 27.323448,44.518877 C28.7454246,46.1991925 28.5366985,48.7149841 26.8575329,50.1376944 L21.8924904,53.9775238 C20.2135648,55.4004742 17.6994947,55.1916052 16.277518,53.5112897 Z"></path>
                        <path d="M38.1313822,69.4979345 C36.7118047,67.7919306 36.9428429,65.2574127 38.6471996,63.836623 L43.6909342,59.9300516 C45.372259,58.4818929 47.9086412,58.6715556 49.3560488,60.3537917 C50.7756263,62.0597956 50.5445881,64.5943135 48.8402314,66.0151032 L43.7964968,69.9216746 C42.115172,71.3698333 39.5790297,71.1801706 38.1313822,69.4979345 Z"></path>
                        <path d="M30.2892781,65.5174187 C29.6064798,64.7105119 29.2720382,63.6652063 29.3593673,62.611498 C29.4466964,61.5577897 29.9488386,60.5818671 30.7551932,59.8986012 L38.2515796,54.0435456 C39.0579342,53.3602798 40.1025244,53.025369 41.1555117,53.112998 C42.2084989,53.2003869 43.1837537,53.702873 43.866552,54.5097798 C45.2885287,56.1900952 45.0798025,58.7058869 43.4006369,60.1288373 L35.9042505,65.9836528 C35.097896,66.6669187 34.0533057,67.0015893 33.0003185,66.9142004 C31.9473312,66.8268115 30.9720764,66.3243254 30.2892781,65.5174187 Z"></path>
                        <path d="M29.2338917,16.4687242 L27.6027091,18.9271369 L11.8957091,42.5036508 L11.1908386,43.5515972 C10.6068854,44.4386905 9.43585987,44.7205437 8.51266667,44.1964504 L2.75350531,40.8917579 L23.2530488,9.51674603 L28.7907686,13.7483849 C29.6218344,14.4023611 29.8144862,15.5842718 29.2338917,16.4687242 Z"></path>
                        <path d="M88.1148089,45.70775 L88.1148089,45.6875833 L94.7196709,39.0781984 L80.8048365,18.6966607 L72.5687919,20.9423631 L64.3886476,17.4566508 C57.1240191,16.0617897 54.0192781,17.6698413 52.8424947,18.6772143 C52.5939427,18.879121 52.3813779,19.1213611 52.2134374,19.3940913 C51.0270573,20.3676131 49.7444713,21.217254 48.3858323,21.9300496 C46.9511401,22.7040655 46.1685372,24.3061151 46.4394013,25.9144067 C46.7102654,27.5226984 47.9743779,28.779754 49.5832484,29.0404802 C53.2755414,29.5364841 57.0306921,28.873625 60.3304841,27.143373 L66.4180892,31.0180139 L88.1148089,45.70775 Z"></path>
                        <path d="M23.2530488,9.51650595 L2.75350531,40.8915179 L0.477910828,39.6018115 C-1.23796178,25.5888591 2.56853079,11.4582679 11.0900743,0.206708333 L23.2530488,9.51650595 Z"></path>
                        <path d="M106.137469,40.8915179 L100.378308,44.1962103 C99.4551146,44.7205437 98.2838493,44.4384504 97.7001359,43.5513571 L94.7199108,39.0779583 L80.8050764,18.2016171 L79.6573227,16.4687242 C79.0767282,15.5842718 79.26938,14.4026012 80.1004459,13.7483849 L85.6381656,9.51674603 L106.137469,40.8915179 Z"></path>
                    </g>
                    <path d="M108.815881,62.5625218 C108.813962,64.7582877 108.679609,66.9521329 108.413064,69.1318135 L106.137469,70.4215198 L102.714121,65.1822679 C102.754427,64.3158214 102.77458,63.449375 102.77458,62.5627619 C102.795212,51.9632579 99.699828,41.5915893 93.8739703,32.7393829 L97.8006603,29.7369504 C104.961406,39.1785516 108.830756,50.7095635 108.815881,62.5625218 Z" id="Path" fill="#A4C2F7"></path>
                    <path d="M102.77458,62.5625218 C102.77458,63.4491349 102.754427,64.3155813 102.714121,65.1820278 L85.6379257,39.0462679 L93.8739703,32.7391429 C99.7000679,41.5913492 102.795212,51.9630179 102.77458,62.5625218 Z" id="Path" fill="#E3E7F2"></path>
                    <path d="M1.72954777,49.2105079 C1.40446285,50.4997341 1.13623779,51.8108075 0.90495966,53.1348452 C0.865133758,53.3624405 0.82410828,53.5890754 0.787161359,53.817631 C0.578915074,55.106377 0.415772824,56.4090476 0.297734607,57.726123 C0.277581741,57.9525179 0.264866242,58.1801131 0.247832272,58.4072282 C0.14418896,59.780002 0.0753333333,61.1628591 0.0753333333,62.5625218 C0.0753333333,63.6176706 0.114199575,64.6634563 0.173458599,65.7037202 C0.184254777,65.8869008 0.201048832,66.0679206 0.213764331,66.250621 C0.274462845,67.1562004 0.356993631,68.0555377 0.461356688,68.9483929 C0.46855414,69.0091329 0.470713376,69.0713135 0.478150743,69.1318135 L0.48414862,69.1351746 C2.39291295,84.869256 11.0687219,98.9859226 24.2398195,107.788913 L24.2398195,107.801397 C24.3014777,107.84269 24.3672144,107.878462 24.4291125,107.919516 C25.2896879,108.490665 26.1665775,109.037806 27.0605011,109.560938 C27.2970573,109.699224 27.5398514,109.827667 27.7785669,109.962591 C28.4572866,110.345758 29.1448832,110.71452 29.8408769,111.069117 C30.1695605,111.236452 30.4984841,111.402827 30.8310064,111.563681 C31.5781019,111.92452 32.3347941,112.268313 33.1008429,112.595302 C33.4499193,112.744631 33.8006752,112.890599 34.1528705,113.033206 C34.9210786,113.342669 35.6976837,113.634845 36.4826858,113.910216 C36.8965393,114.054984 37.3142314,114.190389 37.7324034,114.325554 C38.3528238,114.52578 38.9780425,114.714242 39.6082994,114.891181 C40.0130361,115.005698 40.4146539,115.125738 40.8232293,115.231133 C41.7718535,115.475534 42.7303142,115.695206 43.6981316,115.889671 C44.0771975,115.965536 44.4615414,116.025796 44.8437261,116.093498 C45.5505159,116.2193 46.2613843,116.331657 46.9765711,116.43105 C47.378189,116.485788 47.7798068,116.539806 48.1843036,116.585661 C49.1370064,116.694417 50.0961868,116.782046 51.0632845,116.840865 C51.1714862,116.847347 51.2768089,116.863433 51.3850106,116.869435 C52.3919342,116.950101 53.4187707,116.970268 54.4458471,116.970268 C55.4398153,116.970268 56.4222675,116.922732 57.4025605,116.867514 C57.3025159,116.860792 57.2046306,116.847107 57.1043461,116.841105 C56.1372484,116.782286 55.1780679,116.694657 54.2253652,116.585901 C53.8208684,116.539806 53.4192505,116.486028 53.0176327,116.43129 C52.3017261,116.333337 51.5908577,116.22074 50.8847877,116.093738 C50.502603,116.026036 50.118259,115.965776 49.7391932,115.889911 C48.7713758,115.696167 47.8129151,115.476734 46.8642909,115.231373 C46.4559554,115.126218 46.0540977,115.005938 45.6493609,114.891421 C45.0195839,114.713282 44.3941253,114.524579 43.773465,114.325794 C43.355293,114.190869 42.9376008,114.055224 42.5237473,113.910456 C41.7385053,113.635806 40.9619002,113.343389 40.1939321,113.033446 C39.841017,112.891319 39.4902611,112.745351 39.1419045,112.595542 C38.3760955,112.268313 37.6196433,111.92452 36.8720679,111.563921 C36.5395456,111.403067 36.2106221,111.236692 35.8819384,111.069357 C35.185465,110.71524 34.4978684,110.346238 33.8196285,109.962831 C33.580913,109.827907 33.3381189,109.699464 33.1015626,109.561179 C32.2076391,109.038766 31.3305096,108.491625 30.4701741,107.919756 C30.408276,107.878702 30.3425393,107.842931 30.2808811,107.801637 L30.2808811,107.789153 C17.1097834,98.9861627 8.43397452,84.869256 6.52521019,69.1354147 L6.5189724,69.1320536 C6.51153503,69.0713135 6.5093758,69.009373 6.50217834,68.9486329 C6.39781529,68.0557778 6.3152845,67.1564405 6.25458599,66.2508611 C6.24187049,66.0681607 6.22507643,65.8871409 6.21428025,65.7039603 C6.15526115,64.6636964 6.1163949,63.6181508 6.1163949,62.563002 C6.1163949,61.1633393 6.18525053,59.7804821 6.28889384,58.4077083 C6.30592781,58.1805933 6.31864331,57.952998 6.33879618,57.7266032 C6.45491507,56.4092877 6.61781741,55.106377 6.82822293,53.8181111 C6.86516985,53.5895556 6.90619533,53.3629206 6.94602123,53.1353254 C7.17729936,51.8112877 7.44552442,50.5002143 7.77060934,49.2109881 C7.78548408,49.1524087 7.80323779,49.0952698 7.81835244,49.0369306 C8.15327389,47.7277778 8.54001699,46.439752 8.96778556,45.1706925 C9.00425265,45.0624167 9.0368811,44.9527004 9.07406794,44.8446647 C9.51047346,43.5770456 9.99750106,42.3339147 10.5226752,41.1104702 C10.5874522,40.9604206 10.6524692,40.8106111 10.7182059,40.6610417 C11.2606539,39.4289544 11.8417282,38.2182341 12.4707856,37.0358433 C12.4998153,36.9813452 12.5312442,36.9280476 12.5605138,36.8733095 C13.8553355,34.4631528 15.3298535,32.1540694 16.9718323,29.965746 C17.0274926,29.8913214 17.0754756,29.8108948 17.1313758,29.7367103 L17.139293,29.7427123 C20.8013567,24.9060734 25.2426645,20.7133274 30.2808811,17.336371 L30.2808811,8.15501587 C30.2801614,6.01710913 31.128741,3.96659127 32.6394862,2.45481151 C34.1502314,0.943031746 36.1993461,0.0941111111 38.3357898,0.0945912698 L32.2947282,0.0945912698 C30.1582845,0.0938710317 28.1091699,0.943031746 26.5984246,2.45481151 C25.0876794,3.96659127 24.2393397,6.01710913 24.2398195,8.15501587 L24.2398195,17.3358909 C19.2013631,20.7128472 14.7600552,24.9058333 11.0979915,29.7427123 L11.0900743,29.7367103 C11.0339342,29.8108948 10.9861911,29.8913214 10.9305308,29.965746 C9.28855202,32.1540694 7.81403397,34.4629127 6.51921231,36.8733095 C6.48994268,36.9278075 6.4585138,36.9811052 6.42948408,37.0358433 C5.80042675,38.217994 5.21935244,39.4287143 4.67690446,40.6610417 C4.61092781,40.8106111 4.54591083,40.9604206 4.48161359,41.1104702 C3.95619958,42.3336746 3.46917197,43.5770456 3.03300637,44.8446647 C2.99581953,44.9527004 2.96319108,45.0621766 2.92672399,45.1706925 C2.49895541,46.439752 2.11221231,47.7277778 1.77729087,49.0369306 C1.76217622,49.0947897 1.74418259,49.1519286 1.72954777,49.2105079 Z" id="Path" fill="#FFFFFF"></path>
                </g>
                <g id="Group">
                    <polygon id="Path" fill="#FFFFFF" points="34.4539639 0.000240079365 60.6322972 0.000240079365 92.8516921 0.000240079365 92.8516921 4.03045238 60.6322972 4.03045238 34.4539639 4.03045238"></polygon>
                    <g fill="#428DFF">
                        <path d="M51.9934352,3.44585913 C52.1752909,3.25331548 52.3187601,3.02788095 52.4164055,2.7817996 C52.5198089,2.53931944 52.5745096,2.27883333 52.5773885,2.01522619 C52.5692314,1.48176984 52.3607452,0.971121032 51.9934352,0.584593254 C51.1993163,-0.194704365 49.9280064,-0.194704365 49.1338875,0.584593254 L48.8920531,0.886613095 C48.8155202,0.998970238 48.7543418,1.12117063 48.7101975,1.2496131 C48.6523779,1.36389087 48.6118323,1.48633135 48.5902399,1.61285317 C48.5676879,1.74585714 48.5540127,1.88030159 48.5499342,2.01522619 C48.5573715,2.54868254 48.7658577,3.05981151 49.1338875,3.44585913 C49.9354437,4.20667063 51.1916391,4.20667063 51.9934352,3.44585913 Z" id="Path"></path>
                        <path d="M34.4539639,4.03045238 L42.5088726,4.03045238 C43.6211189,4.03045238 44.5224798,3.12823413 44.5224798,2.01546627 C44.5224798,0.902698413 43.620879,0.00048015873 42.5088726,0.00048015873 L34.4539639,0.00048015873 C28.8958514,0.00696230159 24.3919257,4.5142123 24.385448,10.0758909 L24.385448,18.2088194 C19.5578769,21.5783333 15.2854692,25.6815298 11.7224904,30.3700397 C11.701138,30.395248 11.6704289,30.4067718 11.650276,30.4331806 C11.6279639,30.4624702 11.6243652,30.4984821 11.6037325,30.5287321 C-5.94749469,53.7840198 -2.91424841,86.5882242 18.6030149,106.226236 C40.1202781,125.864248 73.0421444,125.874812 94.5718832,106.250724 C116.101622,86.6266369 119.156221,53.8243532 101.620108,30.5575417 C101.593958,30.5179286 101.588679,30.4711131 101.55941,30.4329405 C101.537577,30.404371 101.504469,30.3916468 101.481197,30.3645179 C99.2144798,27.3846528 96.6569851,24.6383849 93.8461401,22.1660476 L100.906361,22.1660476 C102.018607,22.1660476 102.919968,21.2638294 102.919968,20.1510615 L102.919968,10.0756508 C102.91349,4.51373214 98.4093248,0.00672222222 92.8514522,0.000240079365 L58.6184501,0.000240079365 C57.5062038,0.000240079365 56.6048429,0.902458333 56.6048429,2.01522619 C56.6048429,3.12799405 57.5064437,4.0302123 58.6184501,4.0302123 L84.8483652,4.0302123 C83.5163567,5.76430556 82.7908535,7.8882877 82.7831762,10.0754107 L82.7831762,42.262371 L81.0221996,43.6096964 C79.4320425,44.8677123 79.0145902,47.1074127 80.0447856,48.8542302 L74.873896,50.2639762 L67.3362442,47.0524345 C67.2047707,46.996256 67.0675393,46.9542421 66.927189,46.9275933 C59.7040658,45.5389742 55.9532335,46.875256 54.008482,48.3620675 L33.4261677,48.3620675 C34.123121,46.6723889 33.6109023,44.7251052 32.1730913,43.5979325 L28.4131423,40.7210615 L28.4131423,10.0756508 C28.4165011,6.73830754 31.1191444,4.03405357 34.4539639,4.03045238 Z M13.6648429,34.5118889 L22.7029236,41.4309762 L4.49384926,69.3005893 C4.34726115,67.7064623 4.24817622,66.1024921 4.24817622,64.4829167 C4.243138,53.7631329 7.53045435,43.3004742 13.6648429,34.5118889 Z M5.30764119,74.8994802 L9.68177282,77.4011071 C10.2844395,77.7425 10.9655584,77.9213591 11.6581932,77.9206389 C12.68431,77.9187183 13.6715605,77.5269087 14.4198556,76.8241964 L16.7539894,78.6896131 C15.00069,80.9290734 15.0616285,84.0933194 16.8998577,86.2636369 C18.2469809,87.8740893 20.3426391,88.6548274 22.4143057,88.317996 C22.5421805,89.7539107 23.1102994,91.1154008 24.0414098,92.2154444 C24.1460127,92.3390853 24.2736476,92.4343968 24.385448,92.5496349 L24.385448,105.757361 C14.5520488,98.0772222 7.78572399,87.1329643 5.30764119,74.8994802 Z M30.8326858,52.3925198 L48.507949,52.3925198 C46.8201465,53.8747698 46.1399873,56.1994583 46.762087,58.3587321 C47.3841868,60.518006 49.1967452,62.1231766 51.4140403,62.4789742 C55.1389618,63.0064286 58.9370573,62.4588075 62.3616051,60.9006925 L67.4962675,64.1684127 C67.6119066,64.2356349 67.7342633,64.2908532 67.8611783,64.3331071 L87.4867113,76.9812083 C87.8756136,77.249377 88.2026178,77.5979722 88.4454119,78.0034663 L88.4768408,78.0694881 C89.1200531,79.2888512 88.863104,80.788627 87.8506624,81.7239762 C86.8382208,82.6590853 85.3236369,82.7956905 84.1602887,82.0564861 L84.1336582,82.0387202 L70.9196157,72.8969782 C70.0045796,72.2665298 68.7524628,72.4965258 68.1205265,73.4109881 C67.4888301,74.3254504 67.7160297,75.5789048 68.6284268,76.2129544 L81.4372527,85.0742837 C82.8141253,85.9961885 83.1881529,87.858004 82.2740764,89.2408611 C81.36,90.6234782 79.5013779,91.0076052 78.1149087,90.1001052 L64.8802335,80.9602837 C63.9647176,80.3283948 62.7104416,80.558631 62.0789851,81.4747738 C61.4475287,82.3909167 61.6776072,83.6460516 62.5931231,84.2779405 L72.260741,90.9540675 C73.6572866,91.9359921 74.0389915,93.8412619 73.1287537,95.2862996 C72.2197155,96.6605139 70.3769278,97.0499226 68.9902187,96.1609087 L61.7966051,91.0512996 C60.8897261,90.4102877 59.6354501,90.6249187 58.9929575,91.5309782 C58.350465,92.4370377 58.56231,93.6926528 59.46631,94.337746 L63.1830743,96.9774187 C63.3709278,97.1245873 63.5482251,97.2849603 63.7130467,97.4575774 C64.8509639,98.5391349 64.9745202,100.311401 63.997586,101.540607 C63.0206518,102.769813 61.2671125,103.048306 59.957896,102.182339 L53.3717473,97.7773631 C54.6053907,96.0245437 54.8026008,93.7437897 53.8882845,91.8049087 C52.9739682,89.8660278 51.0891953,88.5686389 48.9527516,88.4070655 C48.9361975,87.0342917 48.4448514,85.7095337 47.5619639,84.6584663 C46.355431,83.2417579 44.5606263,82.4653413 42.702724,82.5565714 C42.6367473,80.0784722 41.2656327,77.8200456 39.0982399,76.6196488 C36.9308471,75.419252 34.2903418,75.455744 32.157017,76.7156806 C31.4132803,74.4046766 29.3548089,72.7673353 26.9371847,72.563748 C25.3822951,72.4242619 23.8355626,72.9077817 22.6364671,73.9077123 L19.8863206,76.0357758 L16.7503907,73.5295873 L30.8326858,52.3925198 Z M36.7626667,95.8961012 C36.154242,96.4113115 35.2958259,96.5090238 34.5871168,96.1441032 C33.8784076,95.7791825 33.459276,95.0231726 33.5247728,94.2282698 C33.5605202,93.7332262 33.7855605,93.2708333 34.1531104,92.9373631 L38.7707558,89.3294504 L40.2471932,88.1869127 C40.2637473,88.1729881 40.2747834,88.1554623 40.2910977,88.1412976 L41.7113949,87.0316508 C42.112293,86.6974603 42.6276306,86.5322857 43.1480064,86.5711786 C43.668862,86.6143929 44.1513312,86.862875 44.4891316,87.2618869 C44.8269321,87.6608988 44.9924735,88.1780298 44.9492887,88.6994821 C44.9135414,89.1947659 44.6885011,89.6569187 44.3209512,89.9903889 L40.083811,93.3010833 L39.5060955,93.7490714 L39.4921805,93.7634762 L36.7626667,95.8961012 Z M20.133673,80.9374762 L25.1699703,77.0409881 C25.5240849,76.7389683 25.9741656,76.5733135 26.4393609,76.5735536 C26.4943015,76.5735536 26.549482,76.5764345 26.6056221,76.5805159 C27.6895584,76.671746 28.4949533,77.6239008 28.4059448,78.7088194 C28.3709172,79.2009821 28.1485159,79.6609742 27.7845648,79.9937242 L22.7513864,83.8899722 C21.933276,84.582121 20.712828,84.4944921 20.0019597,83.692627 C19.2906115,82.8907619 19.3493907,81.6675575 20.133673,80.9374762 Z M27.1149618,89.6098631 C26.5948259,88.9995813 26.3409958,88.205879 26.4098514,87.4068948 C26.4662314,86.6369603 26.8203461,85.9193631 27.3971019,85.4065536 L33.7411762,80.4978909 C34.9916136,79.4367401 36.8598323,79.5678234 37.9502463,80.7929484 C39.0406603,82.0180734 38.9554904,83.8899722 37.7580743,85.0109028 L36.230535,86.2043373 L31.371535,89.9632599 C30.7633503,90.486873 29.9689915,90.7415972 29.1700743,90.6688532 C28.3709172,90.604752 27.6307792,90.223506 27.1149618,89.6098631 Z M42.0336008,96.8881091 L42.5666921,96.4715714 L47.1509894,92.9176766 C47.6768832,92.441119 48.4182208,92.2838671 49.0921423,92.5064206 C49.7660637,92.7287341 50.2686858,93.2962817 50.4080764,93.9925119 C50.5474671,94.6887421 50.3025138,95.4063393 49.7663036,95.871373 L44.6553928,99.8336429 C44.1306985,100.30948 43.3910403,100.466972 42.7180786,100.246339 C42.0451168,100.025706 41.5422548,99.4605595 41.4007049,98.7660099 C41.2589151,98.0719405 41.5007495,97.3550635 42.0336008,96.8881091 Z M28.4129023,108.5987 L28.4129023,94.6075952 C28.5558917,94.6282421 28.6916837,94.6728968 28.8365924,94.6849008 C29.0371614,94.7017063 29.235811,94.7105893 29.4344607,94.7105893 C29.4644501,94.7105893 29.493,94.7031468 29.5229894,94.7029067 C29.5796093,96.0125397 30.0675966,97.2667143 30.911138,98.2695258 L30.911138,98.2704861 C32.0576921,99.6230933 33.7414161,100.401671 35.5136688,100.39879 C36.2202187,100.397349 36.9210106,100.269867 37.5826964,100.021865 C37.8079766,100.840536 38.2071953,101.600867 38.753482,102.250522 L38.753482,102.251482 C39.897397,103.597847 41.5763227,104.371383 43.3423376,104.365861 C44.7499193,104.370183 46.1131168,103.873938 47.188896,102.965718 L50.2888386,100.562524 L57.7295648,105.539609 C59.7851571,106.910702 62.4086285,107.102766 64.6419979,106.045937 C66.8751274,104.989107 68.3911507,102.837756 68.6363439,100.377903 C70.6513907,100.987944 72.8343779,100.653034 74.574242,99.4668016 C76.3141062,98.2805694 77.4241932,96.3700179 77.5938132,94.2700437 C78.2886072,94.4993194 79.01531,94.6174385 79.746811,94.6200794 C80.2172845,94.6198393 80.6865584,94.5730238 81.1479151,94.4803532 C81.7141146,94.358873 82.2632803,94.1680099 82.7829363,93.9120853 L82.7829363,109.833429 C65.8602866,119.649073 44.8734756,119.172516 28.4129023,108.5987 Z M86.8103907,107.273942 L86.8103907,86.427131 C88.7851316,86.1685655 90.5535456,85.0728433 91.6648323,83.4189365 C92.7876348,81.7242163 93.1263949,79.6276032 92.5947431,77.6651944 L96.5658174,73.6914008 L98.1778068,76.1114008 C99.3519512,77.8781448 101.689684,78.4387302 103.53655,77.3963056 L107.933234,74.8817143 C105.320318,87.9970099 97.7548365,99.5990853 86.8103907,107.273942 Z M83.4832484,46.799871 L87.2964586,43.8824266 L105.443155,71.6567282 L101.534699,73.8846647 L83.4832484,46.799871 Z M108.718236,69.3049107 L90.5043631,41.4278552 L99.5184522,34.5310952 C105.652121,43.3141587 108.947834,53.7679345 108.96103,64.4831567 C108.96127,66.1068135 108.862185,67.7110238 108.718236,69.3049107 Z M98.8927537,10.0756508 L98.8927537,18.1360754 L86.8103907,18.1360754 L86.8103907,10.0756508 C86.8103907,6.73686706 89.5151932,4.03045238 92.8514522,4.03045238 C96.1879512,4.03045238 98.8927537,6.73686706 98.8927537,10.0756508 Z M86.8103907,22.1662877 L87.4243333,22.1662877 C91.02162,24.792756 94.2681507,27.8688929 97.0852335,31.3197937 L86.8103907,39.1809524 L86.8103907,22.1662877 Z M65.9596115,50.8459286 L73.9396667,54.2464127 C74.3561592,54.4243115 74.8203949,54.4562421 75.2572803,54.3369226 L82.3789193,52.3951607 L94.2878238,70.2719504 L90.3719299,74.1905258 C90.1581656,73.9830972 89.9314459,73.7891131 89.6932102,73.610254 L69.7771401,60.7739306 C69.6845329,60.7285556 69.588327,60.6908631 69.489482,60.6613333 L63.5698174,56.8932877 C62.9400403,56.4954762 62.1430425,56.4753095 61.4940722,56.8411905 C58.5930191,58.3354444 55.3073822,58.9145159 52.070448,58.5020595 C51.3144756,58.4141905 50.7098896,57.8327183 50.5925711,57.0803095 C50.4438238,56.2947698 50.8269682,55.5044286 51.5354374,55.1351865 C53.0445032,54.350127 54.4619214,53.4001329 55.7615414,52.3024901 C55.9004522,52.1858115 56.0148917,52.0427242 56.0979023,51.8813909 C56.1600403,51.7995238 56.2312951,51.7248591 56.3102272,51.6590774 C56.9016178,51.1537103 59.3343567,49.6169623 65.9596115,50.8459286 Z M11.6709087,73.8973889 L7.76293206,71.66225 L25.9105881,43.8865079 L29.7178004,46.8008313 L11.6709087,73.8973889 Z M16.1054989,31.3051488 C18.5588705,28.3091984 21.3356476,25.5941409 24.385448,23.2089524 L24.385448,37.6398829 L16.1054989,31.3051488 Z" id="Shape" fill-rule="nonzero"></path>
                    </g>
                </g>
            </g>
        </g>
    </g>
</svg>