<?xml version="1.0" encoding="UTF-8"?>
<svg width="123px" height="123px" viewBox="0 0 123 123" version="1.1" xmlns="http://www.w3.org/2000/svg" xmlns:xlink="http://www.w3.org/1999/xlink">
    <!-- Generator: Sketch 52.4 (67378) - http://www.bohemiancoding.com/sketch -->
    <title>money-bag</title>
    <desc>Created with Sketch.</desc>
    <g id="Page-1" stroke="none" stroke-width="1" fill="none" fill-rule="evenodd">
        <g id="Home" transform="translate(-1024.000000, -1818.000000)">
            <g id="money-bag" transform="translate(1024.000000, 1818.000000)">
                <path d="M101.659836,87.2275 C105.717213,81.3235 106.045082,72.488 98.6270492,59.45 C92.0081967,47.806 87.2540984,40.303 83.852459,34.85 L59.5901639,34.85 C56.1885246,40.2825 51.4344262,47.806 44.8155738,59.45 C40.3688525,67.3015 38.7090164,73.6155 38.9754098,78.679 L59.4262295,108.65 L101.659836,87.2275 Z" id="Shape" fill="#CAD9FC"></path>
                <path d="M93.8139344,87.2275 C97.3727459,81.3235 97.6602459,72.488 91.1538934,59.45 C85.3483607,47.806 81.1784836,40.303 78.194877,34.85 L59.4262295,34.85 C56.442623,40.2825 49.7606557,47.806 43.954918,59.45 C41.4848002,64.1209816 39.8154594,69.1734157 39.0163934,74.39696 C38.727927,76.9750738 39.3169754,79.5751743 40.6883197,81.77696 L56.7704918,108.65 L93.8139344,87.2275 Z" id="Shape" fill="#E8EDFC"></path>
                <path d="M88.0532787,12.874 C81.0860656,16.9125 82.602459,26.65 82.602459,26.65 L60.8401639,26.65 C60.8401639,26.65 62.3565574,16.9125 55.3893443,12.874 C48.4221311,8.815 51.1065574,3.731 56.8442623,2.3985 C58.749401,1.95811154 60.7266232,1.93015376 62.6434426,2.3165 C64.7064715,2.66510685 66.7125475,3.29268737 68.6065574,4.182 C68.6270492,4.182 68.6270492,4.2025 68.647541,4.2025 C70.6034965,5.14929795 72.8864205,5.14173558 74.8360656,4.182 C76.6183951,3.3361668 78.5072111,2.73619334 80.4508197,2.3985 C80.5638139,2.35926101 80.6805514,2.33178238 80.7991803,2.3165 C89.8565574,0.574 97.1106557,7.6055 88.0532787,12.874 Z" id="Shape" fill="#CAD9FC"></path>
                <path d="M81.9057377,12.874 C74.9385246,16.9125 76.454918,26.65 76.454918,26.65 L60.8401639,26.65 C60.8401639,26.65 62.3565574,16.9125 55.3893443,12.874 C48.4221311,8.815 51.1065574,3.731 56.8442623,2.3985 C58.7878709,2.73619334 60.6766869,3.3361668 62.4590164,4.182 C64.4086615,5.14173559 66.6915855,5.14929795 68.647541,4.2025 C70.6034965,5.14929795 72.8864205,5.14173559 74.8360656,4.182 C76.6183951,3.3361668 78.5072111,2.73619334 80.4508197,2.3985 C86.1885246,3.731 88.8729508,8.815 81.9057377,12.874 Z" id="Shape" fill="#E8EDFC"></path>
                <path d="M118.196721,93.4185 L79.795082,116.809 C77.5476779,118.177596 74.9671078,118.901012 72.3360656,118.9 L20.4918033,118.900001 L20.4918033,73.8 L26.2295082,73.8 C30.4743875,73.8059366 34.5918885,75.2512516 37.9098361,77.9 C41.2277836,80.5487484 45.3452846,81.9940634 49.5901639,82 L60.307377,82 C63.9104551,81.9946973 67.2502764,83.8872409 69.0983607,86.9815 L69.2827869,87.289 C70.9867553,90.1500276 70.5761797,93.7963919 68.2786885,96.2065 L68.1557377,96.35 L72.9713115,96.35 C73.8565441,96.3504557 74.7358043,96.205008 75.5737705,95.9195 L111.987705,83.7835 L113.504098,83.271 C115.799873,82.5169354 118.32081,83.3081339 119.77459,85.239 L119.77459,85.2595 C120.727344,86.524752 121.09949,88.1346617 120.798721,89.6899092 C120.497952,91.2451566 119.552444,92.6000416 118.196721,93.4185 Z" id="Shape" fill="#CAD9FC"></path>
                <path d="M112.04918,93.4185 L73.647541,116.809 C71.4001369,118.177596 68.8195668,118.901012 66.1885246,118.9 L20.4918033,118.900001 L20.4918033,73.8205 C24.5944109,73.9058001 28.5549494,75.3393682 31.7622951,77.9 C35.0802426,80.5487484 39.1977436,81.9940634 43.442623,82 L54.1598361,82 C57.7629141,81.9946973 61.1027355,83.8872409 62.9508197,86.9815 L63.1352459,87.289 C63.8170137,88.4441313 64.1778217,89.760545 64.1803279,91.102 C64.1806252,93.0702854 63.3992795,94.9580633 62.0081967,96.35 L66.8237705,96.35 C67.3124635,96.3540471 67.8001945,96.3059418 68.2786885,96.2065 L68.1557377,96.35 L72.9713115,96.35 C73.8565441,96.3504557 74.7358043,96.205008 75.5737705,95.9195 L111.987705,83.7835 C112.625843,84.1542607 113.18326,84.6491666 113.627049,85.239 L113.627049,85.2595 C114.579803,86.524752 114.951949,88.1346617 114.65118,89.6899092 C114.350411,91.2451566 113.404903,92.6000416 112.04918,93.4185 Z" id="Shape" fill="#E8EDFC"></path>
                <rect id="Rectangle-path" fill="#7FACFA" x="2.04918033" y="69.7" width="20.4918033" height="51.25" rx="4.096"></rect>
                <rect id="Rectangle-path" fill="#A4C2F7" x="2.04918033" y="69.7" width="12.295082" height="51.25" rx="4.096"></rect>
                <rect id="Rectangle-path" fill="#7FACFA" x="55.3278689" y="26.65" width="32.7868852" height="8.2" rx="4.096"></rect>
                <rect id="Rectangle-path" fill="#A4C2F7" x="55.3278689" y="26.65" width="26.6393443" height="8.2" rx="4.096"></rect>
                <path d="M38.9344262,77.71878 C38.9084016,77.930135 38.9262295,78.14067 38.9127049,78.352025 C40.7388461,79.0407703 42.4470305,80.0089672 43.9762295,81.222025 C44.3215164,81.497135 44.6803279,81.75113 45.0418033,82.001025 C45.0079025,81.2863809 45.0107068,80.5704665 45.0502049,79.85611 C44.9893217,79.1443967 44.9999623,78.4283682 45.0819672,77.71878 C45.8475867,71.4151874 47.539325,65.2592176 50.102459,59.45 C55.9077869,47.806 62.5895492,40.2825 65.5737705,34.85 C63.3103084,34.85 61.4754098,33.0143675 61.4754098,30.75 C61.4754098,28.4856325 63.3103084,26.65 65.5737705,26.65 L66.9877049,26.65 C66.9877049,26.65 68.5040984,16.9125 61.5368852,12.874 C54.5696721,8.815 57.2540984,3.731 62.9918033,2.3985 L63.0030738,2.39645 C62.877459,2.37062 62.7729508,2.341715 62.6436475,2.3165 C60.7268281,1.93015376 58.7496059,1.95811154 56.8444672,2.3985 C51.1067623,3.731 48.4223361,8.815 55.3895492,12.874 C62.3565574,16.9125 60.8401639,26.65 60.8401639,26.65 L59.4262295,26.65 C57.1627674,26.65 55.3278689,28.4856325 55.3278689,30.75 C55.3278689,33.0143675 57.1627674,34.85 59.4262295,34.85 C56.442418,40.2825 49.7606557,47.806 43.954918,59.45 C41.391784,65.2592176 39.7000457,71.4151874 38.9344262,77.71878 Z" id="Shape" fill="#FFFFFF"></path>
                <path d="M113.504098,83.271 L111.987705,83.7835 L109.21373,84.70805 C108.822942,85.588058 108.352685,86.430549 107.808811,87.22504 L118.123975,83.78719 C116.730875,82.9555175 115.046285,82.7672941 113.504098,83.271 Z" id="Shape" fill="#FFFFFF"></path>
                <path d="M74.7885246,4.199015 L74.795082,4.2025 C76.7510375,5.14929795 79.0339615,5.14173558 80.9836066,4.182 C82.7648516,3.33650577 84.6524707,2.73654031 86.594877,2.3985 C84.6900955,1.9649322 82.7154564,1.93699416 80.7991803,2.3165 C80.6805514,2.33178238 80.5638139,2.35926101 80.4508197,2.3985 C78.5072111,2.73619334 76.6183951,3.3361668 74.8360656,4.182 C74.8209016,4.189585 74.8036885,4.191635 74.7885246,4.199015 Z" id="Shape" fill="#FFFFFF"></path>
                <path d="M8.19672131,116.85 L8.19672131,73.8 C8.19672131,71.5356325 10.0316199,69.7 12.295082,69.7 L6.14754098,69.7 C3.88407889,69.7 2.04918033,71.5356325 2.04918033,73.8 L2.04918033,116.85 C2.04918033,119.114367 3.88407889,120.95 6.14754098,120.95 L12.295082,120.95 C10.0316199,120.95 8.19672131,119.114367 8.19672131,116.85 Z" id="Shape" fill="#FFFFFF"></path>
                <polygon id="Shape" fill="#FFFFFF" points="4.09836066 73.8 4.09836066 100.45 4.09836066 116.85 0 116.85 0 100.45 0 73.8"></polygon>
                <g id="Group" fill="#428DFF">
                    <path d="M2.04918033,84.05 C3.17955666,84.0467348 4.09509674,83.1308284 4.09836066,82 L4.09836066,73.8 L0,73.8 L0,82 C0.00337581967,83.1307818 0.918850553,84.0466228 2.04918033,84.05 Z" id="Shape"></path>
                    <path d="M0,116.85 L4.09836066,116.85 L4.09836066,98.4 C4.09836066,97.2678164 3.18091137,96.35 2.04918033,96.35 C0.917449283,96.35 0,97.2678164 0,98.4 L0,116.85 Z" id="Shape"></path>
                    <path d="M4.09836066,90.2 C4.09024816,89.6573429 3.87806918,89.1376623 3.50409836,88.7445 L3.19672131,88.4985 C3.08246725,88.4209526 2.95843445,88.3589114 2.82786885,88.314 C2.71176213,88.2547687 2.58742629,88.2133069 2.45901639,88.191 C2.32350668,88.1679412 2.18657094,88.1542423 2.04918033,88.15 C1.50662504,88.1575512 0.986954488,88.3698959 0.594262295,88.7445 C-0.179205471,89.5605743 -0.179205471,90.8394258 0.594262295,91.6555 C0.790287049,91.840674 1.01979068,91.9867802 1.2704918,92.086 C1.516849,92.1910441 1.78139906,92.246761 2.04918033,92.25 C2.59157957,92.2416834 3.11098195,92.0294483 3.50409836,91.6555 C3.87789715,91.2622264 4.09004742,90.7426161 4.09836066,90.2 Z" id="Shape"></path>
                    <path d="M16.3934426,123 L6.14754098,123 C2.75389277,122.996272 0.00372686475,120.245006 0,116.85 C0,115.717816 0.917449283,114.8 2.04918033,114.8 C3.18091137,114.8 4.09836066,115.717816 4.09836066,116.85 C4.09937746,117.981762 5.01623137,118.898983 6.14754098,118.9 L16.3934426,118.9 C17.5247522,118.898983 18.4416061,117.981762 18.442623,116.85 L18.442623,73.8 C18.4416061,72.6682378 17.5247522,71.7510172 16.3934426,71.75 L6.14754098,71.75 C5.01623137,71.7510172 4.09937746,72.6682378 4.09836066,73.8 C4.09836066,74.9321836 3.18091137,75.85 2.04918033,75.85 C0.917449283,75.85 0,74.9321836 0,73.8 C0.00372686475,70.4049944 2.75389277,67.6537283 6.14754098,67.65 L16.3934426,67.65 C19.7870908,67.6537283 22.5372568,70.4049944 22.5409836,73.8 L22.5409836,116.85 C22.5372568,120.245006 19.7870908,122.996272 16.3934426,123 Z" id="Shape"></path>
                    <path d="M72.3360656,120.95 L20.4918033,120.95 C19.3600722,120.95 18.442623,120.032184 18.442623,118.9 C18.442623,117.767816 19.3600722,116.85 20.4918033,116.85 L72.3360656,116.85 C74.5912193,116.850247 76.8030102,116.23006 78.7295082,115.057275 L117.141598,91.666775 C117.999743,91.1431607 118.597204,90.2816177 118.786975,89.2941304 C118.976747,88.3066434 118.74121,87.28489 118.13832,86.480275 C118.096311,86.42308 118.056352,86.365065 118.020287,86.305 C117.080172,85.1763005 115.540345,84.7467362 114.152049,85.22588 L76.220082,97.87438 C75.1745957,98.2224397 74.0799316,98.3999153 72.9780738,98.4 L54.7635246,98.4 C51.5265941,98.3968926 48.3616799,99.3557012 45.6702869,101.15479 L44.1694672,102.1556 C43.5603801,102.569957 42.7758568,102.625411 42.1145818,102.300847 C41.4533066,101.976284 41.0170283,101.321644 40.9718471,100.586163 C40.926666,99.8506817 41.2795338,99.1475251 41.8961066,98.7444 L43.3969262,97.743385 C46.7614199,95.4950297 50.717432,94.2965997 54.7635246,94.3 L72.9780738,94.3 C73.639677,94.2999432 74.2969693,94.1934886 74.9247951,93.98471 L112.855123,81.33621 C115.984466,80.287602 119.433233,81.365117 121.409836,84.009 C121.452283,84.0652475 121.491749,84.1236844 121.528074,84.18407 C122.754934,85.8830739 123.219617,88.0162434 122.810656,90.071875 C122.400681,92.193697 121.115422,94.0442422 119.270697,95.16879 L80.8586066,118.558675 C78.2909557,120.123108 75.3424461,120.950425 72.3360656,120.95 Z" id="Shape"></path>
                    <path d="M68.1651639,98.39795 C67.3271512,98.3982058 66.5734299,97.887974 66.2620596,97.1096435 C65.9506895,96.3313132 66.1444244,95.4417493 66.7512295,94.863545 C68.4666924,93.1182293 68.7844611,90.4328952 67.5237705,88.335115 L67.3393443,88.02987 C65.8518416,85.5664565 63.1874869,84.057813 60.3106557,84.05 L49.5934426,84.05 C44.8823471,84.0437307 40.312507,82.4400118 36.629918,79.50064 C33.6749217,77.1415631 30.0076279,75.8546135 26.2270492,75.85 L20.4918033,75.85 C19.3600722,75.85 18.442623,74.9321836 18.442623,73.8 C18.442623,72.6678164 19.3600722,71.75 20.4918033,71.75 L26.2270492,71.75 C30.9381447,71.7562693 35.5079848,73.3599882 39.1905738,76.29936 C42.1453502,78.6582618 45.8123254,79.9452012 49.592623,79.95 L60.3098361,79.95 C64.6255293,79.9630431 68.6220549,82.2265619 70.8538934,85.921855 L71.0383197,86.228125 C73.2762361,89.9538126 72.6885191,94.7256708 69.6135246,97.79648 C69.5448428,97.8650537 69.47129,97.9285646 69.3934426,97.986515 C69.0396529,98.2536698 68.6084266,98.3981171 68.1651639,98.39795 Z" id="Shape"></path>
                    <path d="M38.972541,80.729 C37.8833863,80.7279276 36.9851676,79.8750844 36.9272541,78.787035 C36.6231557,72.977335 38.6762295,66.13177 43.0338115,58.439145 C49.307377,47.401535 53.9120902,40.05331 57.2739754,34.687025 L57.8543033,33.762065 C58.2429029,33.1412508 58.9330516,32.7749931 59.6647773,32.8012577 C60.3965029,32.8275223 61.0586389,33.2423191 61.401765,33.8893979 C61.744891,34.5364765 61.7168783,35.3175308 61.3282787,35.938345 L60.7479508,36.86515 C57.4040984,42.199455 52.8254098,49.504425 46.5979508,60.46311 C42.6356557,67.462015 40.7577869,73.555025 41.0227459,78.57076 C41.051377,79.1138261 40.8631389,79.6460196 40.4994598,80.0502136 C40.1357807,80.4544076 39.6264656,80.6974765 39.0836066,80.725925 C39.0444672,80.72777 39.0084016,80.729 38.972541,80.729 Z" id="Shape"></path>
                    <path d="M101.658607,89.2775 C100.897987,89.2768682 100.200295,88.8548179 99.8464162,88.1812637 C99.4925375,87.5077096 99.540701,86.6934805 99.9715164,86.06638 C104.123975,80.02257 103.073361,71.40888 96.8456967,60.46434 C90.8463115,49.909095 86.3516393,42.718105 83.069877,37.46703 L82.1133197,35.935475 C81.5142945,34.9746472 81.8072818,33.7099423 82.7677254,33.1106775 C83.7281691,32.5114127 84.9923682,32.8045172 85.5913934,33.765345 L86.5459016,35.293825 C89.845082,40.575035 94.3663934,47.80805 100.407787,58.438325 C107.477459,70.863375 108.466393,80.94015 103.34959,88.388825 C102.966841,88.9458162 102.334245,89.2782692 101.658607,89.2775 Z" id="Shape"></path>
                    <path d="M84.0163934,36.9 L59.4262295,36.9 C56.0310365,36.9 53.2786885,34.1465511 53.2786885,30.75 C53.2786885,27.3534489 56.0310365,24.6 59.4262295,24.6 L84.0163934,24.6 C87.4115865,24.6 90.1639344,27.3534489 90.1639344,30.75 C90.1639344,34.1465511 87.4115865,36.9 84.0163934,36.9 Z M59.4262295,28.7 C58.2944986,28.7 57.3770492,29.6178164 57.3770492,30.75 C57.3770492,31.8821836 58.2944986,32.8 59.4262295,32.8 L84.0163934,32.8 C85.1481244,32.8 86.0655738,31.8821836 86.0655738,30.75 C86.0655738,29.6178164 85.1481244,28.7 84.0163934,28.7 L59.4262295,28.7 Z" id="Shape" fill-rule="nonzero"></path>
                    <path d="M82.602459,28.7 C81.5932588,28.6985861 80.7351148,27.9627897 80.5793033,26.96529 C80.5092213,26.510805 78.9442623,15.788485 87.014959,11.09583 C89.3762295,9.724585 90.5129098,8.178065 90.0567623,6.960775 C89.4362705,5.305195 85.917418,3.41735 81.1815574,4.33821 C79.3042346,4.65526544 77.4768367,5.21832334 75.7465164,6.012855 C73.2110324,7.27400901 70.2313857,7.27400901 67.6959016,6.012855 C65.9672061,5.21837147 64.1413715,4.65530699 62.2655738,4.33821 C57.5348361,3.418375 54.0106557,5.30622 53.3883197,6.960775 C52.9321721,8.178065 54.0688525,9.724585 56.4280738,11.09583 C64.5008197,15.788485 62.9358607,26.51183 62.8657787,26.96529 C62.6917184,28.0841706 61.6439455,28.8500424 60.5255123,28.6759125 C59.4070791,28.5017826 58.6415135,27.4535906 58.8155738,26.33471 C58.827459,26.256605 60.0081967,17.918435 54.3688525,14.641305 C48.0934426,10.992305 49.0959016,6.73753 49.5532787,5.520445 C51.0834016,1.43131 57.0108607,-0.8569 63.0422131,0.312215 C65.2841426,0.69880398 67.4645953,1.38248015 69.5260246,2.3452 C70.9107059,3.02174295 72.5298678,3.02174295 73.9145492,2.3452 C75.9773674,1.38255661 78.1590953,0.698891064 80.4022541,0.312215 C86.4338115,-0.858745 92.3592213,1.43131 93.8920082,5.520445 C94.3483607,6.73753 95.3508197,10.992715 89.0733607,14.641305 C83.3971311,17.941805 84.6147541,26.251685 84.6286885,26.33471 C84.7123707,26.8721808 84.5790973,27.4208882 84.2582131,27.8600168 C83.9373287,28.2991455 83.4551443,28.5926893 82.9178279,28.676015 C82.8134459,28.6918308 82.7080314,28.6998479 82.602459,28.7 Z" id="Shape"></path>
                    <path d="M65.5717213,45.1 C64.8618084,45.0993723 64.2027945,44.7312071 63.8298674,44.1268943 C63.4569402,43.5225814 63.4232342,42.7682238 63.7407787,42.133035 C64.8426078,39.8543407 65.4664141,37.3740941 65.5737705,34.84508 C65.5797393,33.7166751 66.4949826,32.8046367 67.6229508,32.803075 L67.6288934,32.803075 C68.7577127,32.8048841 69.6719066,33.7207278 69.6721311,34.85 C69.5672852,38.014684 68.7953068,41.1215076 67.4067623,43.966965 C67.0592443,44.6621126 66.3486459,45.1008672 65.5717213,45.1 Z" id="Shape"></path>
                    <path d="M77.8709016,45.1 C77.0938408,45.1013489 76.3830094,44.6624505 76.0358607,43.966965 C74.6473162,41.1215076 73.8753377,38.014684 73.7704918,34.85 C73.7691338,33.7178164 74.6854822,32.7988987 75.8172131,32.7975402 C76.9489441,32.7961815 77.8674943,33.7128964 77.8688525,34.84508 C77.9762088,37.3740941 78.6000152,39.8543407 79.7018443,42.133035 C80.0193887,42.7682238 79.9856828,43.5225814 79.6127555,44.1268943 C79.2398285,44.7312071 78.5808145,45.0993723 77.8709016,45.1 Z" id="Shape"></path>
                    <path d="M67.625,28.7 C67.0113414,28.6997915 66.4300154,28.4247106 66.0405859,27.9502619 C65.6511561,27.4758132 65.4945414,26.8518485 65.6137295,26.249635 C66.085041,23.86528 66.8264344,16.450635 64.125,13.74935 C63.3484176,12.9449733 63.3595238,11.6663762 64.1499619,10.8756219 C64.9404,10.0848676 66.2184859,10.073757 67.022541,10.85065 C71.7594262,15.589225 69.8643443,25.893345 69.6321721,27.052415 C69.4406119,28.0096687 68.6008568,28.6989807 67.625,28.7 Z" id="Shape"></path>
                    <path d="M75.8196721,28.7 C75.0603625,28.680368 74.3500035,28.320644 73.8846311,27.7201 C72.980123,26.61597 72.1534836,24.285735 73.8104508,15.997585 C74.0413809,14.8968023 75.1157742,14.1877353 76.2182117,14.408536 C77.3206492,14.6293367 78.0393693,15.6975356 77.8288934,16.802415 C77.0806328,19.4752294 76.8242797,22.2618571 77.0723361,25.0264 C77.7671908,25.5622493 78.0439674,26.4811718 77.7607098,27.3118614 C77.4774525,28.1425507 76.6970133,28.7006841 75.8196721,28.7 Z" id="Shape" fill-rule="nonzero"></path>
                </g>
            </g>
        </g>
    </g>
</svg>