<?xml version="1.0" encoding="UTF-8"?>
<svg width="112px" height="122px" viewBox="0 0 112 122" version="1.1" xmlns="http://www.w3.org/2000/svg" xmlns:xlink="http://www.w3.org/1999/xlink">
    <!-- Generator: Sketch 52.4 (67378) - http://www.bohemiancoding.com/sketch -->
    <title>idea</title>
    <desc>Created with Sketch.</desc>
    <g id="Page-1" stroke="none" stroke-width="1" fill="none" fill-rule="evenodd">
        <g id="Home" transform="translate(-627.000000, -1814.000000)">
            <g id="idea" transform="translate(627.000000, 1814.000000)">
                <g id="Group" transform="translate(2.163090, 12.200000)">
                    <path d="M106.439657,56.5307333 L94.8519828,62.3075529 L94.8519828,85.2925922 C94.8512618,86.8417529 93.9694421,88.2571922 92.5754506,88.9466118 L55.6587124,107.318376 C54.5096309,107.889863 53.1572189,107.889863 52.0081373,107.318376 L50.7571502,106.705984 L15.0913991,88.9466118 C13.6974077,88.2571922 12.815588,86.8419922 12.814867,85.2925922 L12.814867,62.3075529 L1.22719313,56.5307333 C0.61239485,56.2278863 0.190832618,55.6389373 0.104309013,54.9617176 C0.0177854077,54.284498 0.277596567,53.6091922 0.796497854,53.1625765 L12.814867,42.9152941 L41.199897,28.7893686 C38.1710901,25.1836706 36.8684292,20.4448078 37.6310386,15.8066549 C38.7599313,9.04091765 43.9934077,3.68559608 50.7569099,2.37493333 C51.1568412,2.29216471 51.560618,2.23092549 51.9670386,2.19121569 C58.6125322,1.4274 65.0578197,4.75919608 68.2517425,10.6099333 C71.4456652,16.4606706 70.7472275,23.6558 66.4871416,28.7896078 L94.8519828,42.9152941 L106.870352,53.1625765 C107.389253,53.6089529 107.649064,54.284498 107.562541,54.9617176 C107.476017,55.6389373 107.054455,56.2278863 106.439657,56.5307333 Z" id="Path" fill="#7FABFA"></path>
                    <path d="M100.286867,56.5307333 L88.6991931,62.3075529 L88.6991931,85.2925922 C88.6984721,86.8417529 87.8166524,88.2571922 86.4226609,88.9466118 L50.7569099,106.705984 L15.0911588,88.9466118 C13.6971674,88.2571922 12.8153476,86.8419922 12.8146266,85.2925922 L12.8146266,62.3075529 L1.22695279,56.5307333 C0.612154506,56.2278863 0.190592275,55.6389373 0.10406867,54.9617176 C0.0175450644,54.284498 0.277356223,53.6091922 0.796257511,53.1625765 L12.814867,42.9152941 L41.199897,28.7893686 C38.1710901,25.1836706 36.8684292,20.4448078 37.6310386,15.8066549 C38.7599313,9.04091765 43.9934077,3.68559608 50.7569099,2.37493333 C56.4494421,3.45092549 61.1479142,7.4388902 63.1148841,12.8633451 C65.0818541,18.2880392 64.024824,24.3430667 60.3345923,28.7893686 L88.6991931,42.9152941 L100.717562,53.1625765 C101.236464,53.6089529 101.496275,54.284498 101.409751,54.9617176 C101.323227,55.6389373 100.901665,56.2278863 100.286867,56.5307333 Z" id="Path" fill="#E3E7F2"></path>
                    <g transform="translate(12.738197, 28.705882)" fill="#7FABFA" id="Path">
                        <path d="M53.7398112,0.0889882353 C53.4650987,0.419345098 53.1848584,0.745156863 52.8851502,1.05302745 C50.5530987,3.50068235 49.2672618,6.75401569 49.2989871,10.1269569 C49.2989871,12.3818039 47.4625236,14.2094118 45.1970472,14.209651 L36.9934077,14.209651 C34.7279313,14.209651 32.8917082,12.3818039 32.8914678,10.1269569 L32.8914678,10.1252824 C32.9046867,6.7267451 31.5986609,3.45451373 29.2456996,0.991788235 C28.9683433,0.703772549 28.7183863,0.390878431 28.4626609,0.0832470588 L0.0766695279,14.2094118 L41.0953476,34.6224039 L82.1137854,14.2094118 L53.7398112,0.0889882353 Z"></path>
                        <path d="M93.7014592,27.824851 L88.6561717,30.3356588 L56.6619056,46.2578549 C55.9312618,46.6274431 55.0489614,46.5226667 54.4262318,45.9925647 L41.8541116,35.275702 L41.0953476,34.6224039 L82.1137854,14.2094118 L94.1321545,24.4566941 C94.6510558,24.9030706 94.910867,25.5786157 94.8243433,26.2558353 C94.7378197,26.9330549 94.3162575,27.5220039 93.7014592,27.824851 Z"></path>
                    </g>
                    <g transform="translate(0.000000, 42.819608)" fill="#E3E7F2" id="Path">
                        <path d="M0.803467811,10.3427294 L12.814867,0.0956862745 L53.8335451,20.5086784 L40.511073,31.8745333 C39.8844979,32.4089412 38.9971502,32.5177843 38.2590558,32.150349 L1.22118455,13.7185412 C0.606626609,13.4128235 0.186746781,12.8210039 0.102866953,12.1421098 C0.0189871245,11.4632157 0.281922747,10.7879098 0.803467811,10.3427294 Z"></path>
                        <path d="M101.394369,16.2219333 L69.400103,32.1441294 C68.6694592,32.5137176 67.7871588,32.4089412 67.1644292,31.8788392 L54.592309,21.1619765 L88.6991931,4.17838039 L100.717562,14.4256627 C101.239828,14.8679725 101.495554,15.5471059 101.394369,16.2219333 Z"></path>
                    </g>
                    <path d="M70.239382,18.4196078 C70.2417854,22.6558784 68.5865408,26.726851 65.6247897,29.7691961 C63.2888927,32.2101529 62.001133,35.4615725 62.0357425,38.8326 C62.0359828,39.9155294 61.6038455,40.9539647 60.8347468,41.7196941 C60.0654077,42.4854235 59.0218369,42.9155333 57.9340429,42.9150549 L49.5660086,42.9150549 C47.3649442,42.8272627 45.6265408,41.0250118 45.6282232,38.8323608 C45.6366352,35.4364549 44.3291674,32.1682902 41.9776481,29.7077176 C37.8173047,25.3855686 36.3668326,19.1439529 38.1980086,13.4422471 C40.0289442,7.74078039 44.8478283,3.4937451 50.7557082,2.3744549 C51.1553991,2.29168627 51.5594163,2.23044706 51.9658369,2.19073725 C56.6119142,1.66494118 61.2627983,3.13587843 64.7518627,6.23443922 C68.2406867,9.33347843 70.2367382,13.7656667 70.239382,18.4196078 Z" id="Path" fill="#A4C2F7"></path>
                    <path d="M64.0865923,18.4196078 C64.0889957,22.6558784 62.4337511,26.726851 59.472,29.7691961 C57.136103,32.2101529 55.8485837,35.4615725 55.8829528,38.8326 C55.8831931,39.9155294 55.4510558,40.9539647 54.6819571,41.7196941 C53.912618,42.4854235 52.8690472,42.9155333 51.7812532,42.9150549 L49.5662489,42.9150549 C47.3651845,42.8272627 45.6267811,41.0250118 45.6284635,38.8323608 C45.6368755,35.4364549 44.3294077,32.1682902 41.9778884,29.7077176 C37.8175451,25.3855686 36.367073,19.1439529 38.1982489,13.4422471 C40.0291845,7.74078039 44.8480687,3.4937451 50.7559485,2.3744549 C58.4930815,3.84395686 64.0892361,10.5795529 64.0865923,18.4196078 Z" id="Path" fill="#E3E7F2"></path>
                    <path d="M21.2441888,88.6172118 C19.8417854,87.9002824 18.9621288,86.4606824 18.9676567,84.8911882 L18.9676567,61.4530745 L18.9191073,61.4281961 L7.37397425,55.5698039 C6.76494421,55.2425569 6.35275536,54.6418863 6.26839485,53.9579686 C6.18403433,53.2742902 6.43759657,52.5920471 6.94904721,52.1277294 L18.9674163,41.678549 L47.3452361,27.2777647 C47.0164464,26.8725333 46.7095279,26.4515137 46.4187124,26.015902 C46.3740086,25.9494 46.3290644,25.8831373 46.2853219,25.8161569 C46.0466609,25.4475255 45.8226609,25.0695647 45.6133219,24.6822745 C45.5186266,24.5093216 45.4292189,24.3342157 45.3410129,24.1574353 C45.1807039,23.8344941 45.0285665,23.5089216 44.888927,23.174498 C44.783176,22.9228431 44.6884807,22.6661647 44.5945064,22.408051 C44.4899571,22.1174039 44.3861288,21.8269961 44.2972017,21.5289333 C44.2020258,21.2119725 44.1243948,20.8887922 44.0479657,20.5641765 C43.9864378,20.3019961 43.9203433,20.0426863 43.8708326,19.7759608 C43.8001717,19.3960863 43.7549871,19.0083176 43.7102833,18.6198314 C43.6843262,18.3901843 43.6480343,18.1646039 43.6312103,17.9320863 C43.5982833,17.479251 43.5966009,17.0185216 43.6006867,16.5565961 C43.6021288,16.3740745 43.5896309,16.1951412 43.5966009,16.0111843 C43.6199142,15.4368275 43.6783176,14.8560118 43.7602747,14.2713686 C43.7713305,14.1921882 43.7703691,14.1151608 43.7826266,14.0357412 C44.8576824,7.20230588 50.0767382,1.74794902 56.8820601,0.346623529 C55.8670901,0.149270588 54.8352961,0.0490392157 53.8010987,0.0478431373 C53.1879828,0.0488 52.5753476,0.0834862745 51.9660773,0.151662745 C51.5596567,0.192090196 51.1556395,0.254764706 50.7559485,0.338968627 C43.9381288,1.73168235 38.7058541,7.19130196 37.6300773,14.035502 C37.6178197,14.1149216 37.6187811,14.191949 37.6077253,14.2711294 C37.5257682,14.8560118 37.4673648,15.4368275 37.4440515,16.0109451 C37.4370815,16.194902 37.4495794,16.3738353 37.4481373,16.5563569 C37.4440515,17.0185216 37.4457339,17.4790118 37.4786609,17.9318471 C37.495485,18.1641255 37.5317768,18.3899451 37.5577339,18.6195922 C37.6021974,19.0083176 37.6476223,19.3958471 37.7182833,19.7757216 C37.7675536,20.0424471 37.8336481,20.3017569 37.8954163,20.5639373 C37.9720858,20.8885529 38.0497167,21.2119725 38.1446524,21.5286941 C38.2338197,21.8267569 38.3374077,22.1171647 38.4419571,22.4078118 C38.5359313,22.6659255 38.6306266,22.9226039 38.7363777,23.1742588 C38.8760172,23.5084431 39.0283948,23.8342549 39.1884635,24.1571961 C39.2769099,24.3339765 39.3663176,24.5090824 39.4607725,24.6820353 C39.6705923,25.0702824 39.8945923,25.4482431 40.1327725,25.8159176 C40.176515,25.8831373 40.2214592,25.9494 40.2661631,26.0156627 C40.5569785,26.4512745 40.8641373,26.8722941 41.1926867,27.2775255 L12.8151073,41.6783098 L0.796738197,52.1274902 C0.285287554,52.5918078 0.0317253219,53.2738118 0.116085837,53.9577294 C0.200446352,54.6414078 0.61239485,55.2423176 1.22142489,55.5695647 L12.7663176,61.4281961 L12.814867,61.4530745 L12.814867,84.8911882 C12.8093391,86.4604431 13.6889957,87.9000431 15.0913991,88.6172118 L50.7571502,106.726557 L52.0081373,107.35091 C53.1545751,107.933639 54.5122747,107.933639 55.6587124,107.35091 L56.8996052,106.721294 L21.2441888,88.6172118 Z" id="Path" fill="#FFFFFF"></path>
                </g>
                <g id="Group">
                    <polygon id="Path" fill="#FFFFFF" points="18.1629871 99.3259412 42.009133 111.194149 55.0797253 117.697706 53.2442232 121.349573 40.1755536 114.846016 16.327485 102.977808"></polygon>
                    <g fill="#428DFF">
                        <path d="M98.3489785,53.5654157 C98.2994678,53.5230745 98.2398627,53.5010667 98.1872275,53.4639882 C98.1069528,53.3994 98.0216309,53.3407922 97.9324635,53.2893608 L71.7025923,40.2360784 C76.4005837,32.6751882 74.9676567,22.8484471 68.3041373,16.9285765 C61.48103,10.8254667 51.1880858,10.6419882 44.1498712,16.4982275 C37.1116567,22.3544667 35.4681888,32.4692235 40.2930815,40.2346431 L14.0605665,53.2893608 C13.9726009,53.3403137 13.888721,53.3977255 13.8096481,53.4613569 C13.7526867,53.4931725 13.6974077,53.5278588 13.6438112,53.5654157 L1.63265236,63.812698 C0.589321888,64.7025804 0.0629699571,66.0531922 0.23048927,67.410502 C0.398008584,68.7678118 1.23704721,69.951451 2.46592275,70.5636039 L12.926867,75.7694157 L12.926867,97.5012039 C12.9194163,99.8227922 14.2381803,101.946549 16.3277253,102.978286 L16.3286867,102.978525 L23.6656481,106.629675 C24.3217854,106.961227 25.1057854,106.91769 25.720824,106.515329 C26.3356223,106.113208 26.6870043,105.41398 26.6413391,104.682937 C26.5956738,103.952133 26.1601717,103.301467 25.5001888,102.978047 L18.1634678,99.3271373 L18.1625064,99.3264196 C17.4662318,98.9826667 17.0266438,98.2750667 17.0288069,97.5014431 L17.0288069,77.8108824 L39.5049957,88.9961294 C39.8371502,89.1566431 40.1894936,89.2714667 40.5526524,89.3374902 C40.6675365,89.3599765 40.7809785,89.3645216 40.896824,89.3769608 C41.0434335,89.4018392 41.1910043,89.4188235 41.3395365,89.4276745 C41.4647554,89.4276745 41.5878112,89.4066235 41.7120687,89.3951412 C41.7815279,89.3889216 41.8493047,89.3867686 41.9180429,89.3769608 C42.2542833,89.3286392 42.583073,89.2386941 42.8969614,89.1090392 C42.9632961,89.0817686 43.0250644,89.0492353 43.0899571,89.0183765 C43.4199485,88.868149 43.7285494,88.6748627 44.0073476,88.4435412 L55.9963948,78.2161137 L67.9854421,88.444498 C68.2666438,88.6774941 68.5778884,88.8717373 68.9107639,89.0224431 C68.9701288,89.0504314 69.0273305,89.0808118 69.088618,89.1056902 C69.4080343,89.2382157 69.743073,89.3295961 70.0855622,89.3776784 C70.144927,89.3858118 70.2035708,89.3874863 70.2634163,89.3932275 C70.3934421,89.4054275 70.5225064,89.4271961 70.6534936,89.4271961 C70.8075536,89.4181059 70.9608927,89.4006431 71.1127897,89.3745686 C71.2209442,89.3623686 71.3266953,89.3585412 71.4338884,89.3377294 C71.7992103,89.2719451 72.1539571,89.1568824 72.487794,88.995651 L94.9639828,77.8104039 L94.9639828,97.5009647 C94.9663863,98.2745882 94.5267983,98.9821882 93.8302833,99.3259412 L56.9135451,117.697706 C56.336,117.984765 55.6565494,117.984765 55.0790043,117.697706 L55.0780429,117.697467 L40.1753133,110.281063 C39.519897,109.955012 38.7395021,110.001659 38.1280687,110.403302 C37.5166352,110.805184 37.1669356,111.501063 37.2109185,112.229235 C37.2549013,112.957169 37.6855966,113.606639 38.3410129,113.93269 L53.2435021,121.349094 L53.2444635,121.349812 C54.9780601,122.206922 57.0147296,122.206922 58.7483262,121.349812 L95.6650644,102.978047 C97.7546094,101.94631 99.0733734,99.8225529 99.0659227,97.5009647 L99.0659227,75.7691765 L109.526867,70.5633647 C110.755502,69.9512118 111.594781,68.7675725 111.7623,67.4102627 C111.92982,66.0529529 111.403468,64.7023412 110.360137,63.8124588 L98.3489785,53.5654157 Z M41.8202232,28.3152431 C42.8863863,22.0248275 47.9864721,17.1838196 54.3500429,16.4221569 C54.9025923,16.3606784 55.4582661,16.3298196 56.0144206,16.3295804 C59.5431416,16.3185765 62.9492876,17.6168 65.5680687,19.9706824 C68.6100944,22.6829098 70.3496996,26.5548549 70.352824,30.6198471 C70.3561888,33.9313098 69.1938884,37.1394314 67.0678112,39.6868392 L67.0579571,39.6952118 C66.8195365,39.9832275 66.5772704,40.2674157 66.31097,40.5384471 C63.6013391,43.3623882 62.1078455,47.1283608 62.1489442,51.0330784 C62.1477425,52.1600235 61.2303519,53.073349 60.0980944,53.0743059 L51.8944549,53.0743059 C50.7617167,53.0726314 49.8440858,52.158349 49.8436052,51.0309255 C49.8440858,50.0482275 49.7515536,49.0674431 49.5672103,48.1019686 C49.0242747,45.2352078 47.6545579,42.5878078 45.6255794,40.4824706 L45.6126009,40.4678784 C45.3881202,40.2339255 45.191279,39.9817922 44.9850644,39.7358784 L44.9487725,39.692102 L44.9437253,39.6877961 C42.304515,36.5220157 41.1660086,32.3768863 41.8202232,28.3152431 Z M42.8421631,43.5310353 C43.0769785,43.7879529 43.2776652,44.0680745 43.4853219,44.3438902 C43.6677425,44.5862157 43.8720343,44.8141882 44.0333047,45.0696706 C44.2412017,45.4237098 44.4291502,45.7889922 44.5961888,46.1638431 C44.7178026,46.4162157 44.8660944,46.6551922 44.9682403,46.9161765 C45.1239828,47.3498745 45.2528069,47.7926627 45.3537511,48.242149 C45.4114335,48.4698824 45.5001202,48.6863725 45.5436223,48.918651 C45.6748498,49.6157255 45.7414249,50.3233255 45.7419056,51.0326 C45.7455107,54.4131961 48.4981631,57.1529333 51.8946953,57.1565216 L60.0983348,57.1565216 C63.494867,57.1529333 66.2475193,54.4131961 66.2511245,51.0326 C66.2511245,50.3168667 66.3164979,49.6025686 66.4462833,48.8985569 C66.4859399,48.6844588 66.5683777,48.4871059 66.6195708,48.2773137 C66.7214764,47.8074941 66.8539056,47.344851 67.0161373,46.8922549 C67.1067468,46.6587804 67.2413391,46.4494667 67.3475708,46.2238863 C67.5213391,45.8243961 67.7196223,45.4359098 67.9414592,45.0605804 C68.0851845,44.8328471 68.2714506,44.6359725 68.432721,44.4202 C68.6523948,44.1094588 68.889133,43.8111569 69.1419742,43.5264902 L92.4286009,55.1150549 L55.9966352,73.2456902 L19.5644292,55.1152941 L42.8421631,43.5310353 Z M4.30070386,66.9126941 L15.2783863,57.5474 L52.3164979,75.9796863 L41.3395365,85.3442627 L15.8951073,72.6816196 C15.8806867,72.6744431 15.8645837,72.6730078 15.8499227,72.6660706 L4.29445494,66.9184353 L4.30070386,66.9126941 Z M96.0979227,72.6816196 L70.6534936,85.3440235 L59.6765322,75.9794471 L96.7146438,57.5471608 L107.690403,66.9124549 L96.0979227,72.6816196 Z" id="Shape" fill-rule="nonzero"></path>
                        <path d="M32.8378712,106.629675 C32.3485322,106.395243 31.7885322,106.352902 31.2693906,106.511263 L30.9115193,106.675125 C30.7906266,106.742106 30.6793476,106.825114 30.5805665,106.921757 C30.4757768,106.999024 30.3832446,107.0916 30.3058541,107.196376 C30.224618,107.306655 30.1513133,107.422435 30.0859399,107.542761 C29.8499227,108.029565 29.807382,108.587176 29.9667296,109.103882 C30.1729442,109.76029 30.7016996,110.266231 31.3686524,110.445882 C32.0356052,110.625294 32.7484635,110.453537 33.2589528,109.989937 C33.463485,109.817224 33.6319657,109.605996 33.7547811,109.368694 C34.0035365,108.885478 34.0465579,108.322843 33.8739914,107.807573 C33.7016652,107.292302 33.3281717,106.867933 32.8378712,106.629675 Z" id="Path"></path>
                        <path d="M66.2511245,63.2804431 C66.2513648,62.739098 66.0352961,62.2197608 65.6505064,61.8367765 C65.2659571,61.4540314 64.7441717,61.2389765 64.2000343,61.2389765 L47.792515,61.2389765 C46.6597768,61.2389765 45.7416652,62.1530196 45.7416652,63.2802039 C45.7416652,64.4073882 46.6597768,65.3214314 47.792515,65.3214314 L64.2000343,65.3214314 C64.7439313,65.3216706 65.2657167,65.1066157 65.6505064,64.7236314 C66.0352961,64.3413647 66.2513648,63.8220275 66.2511245,63.2804431 Z" id="Path"></path>
                        <path d="M58.047485,6.12392157 L58.047485,2.04122745 C58.047485,0.913803922 57.1293734,0 55.9966352,0 C54.863897,0 53.9457854,0.914043137 53.9457854,2.04122745 L53.9457854,6.12392157 C53.9457854,7.2513451 54.8641373,8.16514902 55.9966352,8.16514902 C57.129133,8.16514902 58.047485,7.2513451 58.047485,6.12392157 Z" id="Path"></path>
                        <path d="M38.5936137,15.3397059 C39.4230386,15.3394667 40.1707468,14.8421373 40.488,14.0795176 C40.8052532,13.316898 40.6300429,12.4389765 40.0436052,11.8552902 L37.1436223,8.96867451 C36.3423176,8.174 35.0459056,8.17495686 34.2460429,8.97106667 C33.4461803,9.76717647 33.4449785,11.0575059 34.2436395,11.855051 L37.1438627,14.7416667 C37.527691,15.1251294 38.0494764,15.3404235 38.5936137,15.3397059 Z" id="Path"></path>
                        <path d="M31.3852361,32.6608353 C32.5179742,32.6608353 33.4360858,31.7467922 33.4360858,30.6196078 C33.4360858,29.4921843 32.5177339,28.5783804 31.3852361,28.5783804 L27.2832961,28.5783804 C26.1505579,28.5783804 25.2324464,29.4924235 25.2324464,30.6196078 C25.2324464,31.7470314 26.1507983,32.6608353 27.2832961,32.6608353 L31.3852361,32.6608353 Z" id="Path"></path>
                        <path d="M71.9491845,14.7416667 C72.3337339,15.124651 72.855279,15.3397059 73.399176,15.3397059 C73.943073,15.3397059 74.464618,15.124651 74.8491674,14.7416667 L77.7493906,11.855051 C78.2690129,11.3397804 78.4723433,10.5874471 78.2829528,9.88223922 C78.0935622,9.17703137 77.5400515,8.62611765 76.8315193,8.43761569 C76.1229871,8.24911373 75.3671073,8.4514902 74.8494077,8.96867451 L71.9491845,11.855051 C71.5643948,12.2377961 71.3483262,12.7568941 71.3483262,13.2982392 C71.3483262,13.8395843 71.5646352,14.3589216 71.9491845,14.7416667 Z" id="Path"></path>
                        <path d="M84.7094936,32.6608353 C85.8422318,32.6608353 86.7603433,31.7467922 86.7603433,30.6196078 C86.7603433,29.4921843 85.8419914,28.5783804 84.7094936,28.5783804 L80.6075536,28.5783804 C79.4748155,28.5783804 78.5567039,29.4924235 78.5567039,30.6196078 C78.5567039,31.7470314 79.4748155,32.6608353 80.6075536,32.6608353 L84.7094936,32.6608353 Z" id="Path"></path>
                    </g>
                </g>
            </g>
        </g>
    </g>
</svg>