<svg width="128" height="128" version="1.1" viewBox="0 0 33.9 33.9" xmlns="http://www.w3.org/2000/svg"><defs><clipPath id="clipPath857"><rect x="243" y="23" width="76.1" height="8.48" ry="4.24" style="fill:#ff0;opacity:.489;paint-order:markers fill stroke;stroke-dasharray:3.90459, 7.80915;stroke-linecap:round;stroke-linejoin:round;stroke-opacity:.29;stroke-width:1.95"/></clipPath><clipPath id="clipPath897"><path d="m107 283s-23-0.835-27.3 0.695c-1.23 0.443-3.01 4.84-1.34 7.16l-18.7 0.189s-1.91-6.64-3.27-7.47c-1.95-1.19-11 0.236-11 0.236l-2.38-6.95 64.4-0.0189z" style="fill:#f00;opacity:.289"/></clipPath><clipPath id="clipPath923"><path d="m239 46.2c-6.54 9.97-7.64 35.2-3.3 52.1 1.27 4.93 4.09 9.87 8.2 12.9 7.67 5.63 18.1 7.46 27.6 7.38 10.9-0.0939 19.6-2.7 26.9-8.62 3.98-3.23 6.49-8.35 7.63-13.3 3.73-16.3 2.07-40.3-3.56-50.1z" style="fill:#0f0;opacity:.125"/></clipPath><clipPath id="clipPath953"><path d="m201 91.5c4.05-3.79 12.7-3.39 16.8 0.343 9.58 8.69-0.337 27.1-9.31 26.7-7.99-0.377-18.1-17.1-7.53-27z" style="fill:#0f0;opacity:.338"/></clipPath><clipPath id="clipPath961"><path d="m244 96.6c5.77 0.368 11.7 7.24 11.8 13 0.244 13.5-20.8 19.1-26.9 12-5.42-6.33 0.0147-26 15.1-25z" style="fill:#0f0;opacity:.228"/></clipPath><clipPath id="clipPath969"><path d="m216 66.1c4.05-3.79 12.7-3.39 16.8 0.343 9.58 8.69-0.337 27.1-9.31 26.7-7.99-0.377-18.1-17.1-7.53-27z" style="fill:#0f0;opacity:.206"/></clipPath><clipPath id="clipPath977"><path d="m256 58c-0.2-4.29 4.4-9.08 8.67-9.52 9.95-1.03 15.8 14.2 11.1 19.1-4.24 4.41-19.2 1.63-19.7-9.6z" style="fill:#0f0;opacity:.141"/></clipPath><clipPath id="clipPath985"><path d="m298 78.3c3.42-3.28 10.8-2.93 14.2 0.297 8.09 7.53-0.285 23.5-7.87 23.1-6.75-0.326-15.3-14.8-6.36-23.4z" style="fill:#0f0;opacity:.141"/></clipPath><clipPath id="clipPath993"><circle cx="275" cy="95" r="4.22" style="fill:#0f0;opacity:.158;paint-order:markers fill stroke"/></clipPath><clipPath id="clipPath1001"><circle cx="262" cy="84.4" r="4.22" style="fill:#0f0;opacity:.129;paint-order:markers fill stroke"/></clipPath><clipPath id="clipPath1069"><circle cx="307" cy="57.2" r="4.22" style="fill:#0f0;opacity:.138;paint-order:markers fill stroke"/></clipPath></defs><g transform="matrix(.252 0 0 .252 -.012 -.313)"><g transform="translate(-367 8.86)"><path d="m427 31.7c-5.71 8.81-10.6 17.9-12.7 27.9-2.4 11.2-2.37 23.2 0.188 34.4 1.72 7.54 4.1 15.9 9.97 20.9 8.84 7.56 21.8 10 33.4 9.94 13.3-0.122 23.6-3.93 32.3-11.3 4.51-3.81 7.1-9.78 8.57-15.5 3.4-13.2 3-27.5 0-40.8-2.11-9.33-6.97-17.4-12.3-25.9z" style="fill:#d2c6b7"/><path d="m425 46.2c5.01-8.23 10.2-10.3 12.4-10.5 12.6-0.0459 51.6 0.311 51.6 0.311 6.35 11 8.98 15.9 10.8 28.3 0 0-1.4-2.03-2.49-2.03-3.43-0.0047-3.96 3.02-3.96 3.02l-4.98-18.9z" style="fill:#efeae3"/><g transform="translate(26.5)"><rect transform="matrix(.438 -.899 .951 .308 0 0)" x="65.5" y="412" width="85.2" height="13.7" ry="6.83" style="fill:#ffc89e;paint-order:markers fill stroke"/><rect transform="matrix(.438 -.899 .951 .308 148 0)" x="19.4" y="277" width="85.2" height="13.7" ry="6.83" clip-path="url(#clipPath897)" style="fill:#f4ad70;paint-order:markers fill stroke"/></g><rect x="418" y="23.2" width="76.1" height="8.48" ry="4.24" style="fill:#b6aaa0;paint-order:markers fill stroke;stroke-dasharray:3.90458, 7.80916;stroke-linecap:round;stroke-linejoin:round;stroke-opacity:.29;stroke-width:1.95"/><rect transform="translate(175 .13)" x="243" y="18.8" width="76.1" height="8.48" ry="4.24" clip-path="url(#clipPath857)" style="fill:#d9d2c4;paint-order:markers fill stroke;stroke-dasharray:3.90458, 7.80916;stroke-linecap:round;stroke-linejoin:round;stroke-opacity:.29;stroke-width:1.95"/><rect x="439" y="23.2" width="38" height="4.27" ry="2.13" style="fill:#efeae3;paint-order:markers fill stroke;stroke-dasharray:1.95792, 3.91587;stroke-linecap:round;stroke-linejoin:round;stroke-opacity:.29;stroke-width:.979"/><rect x="480" y="23.2" width="6.3" height="4.26" ry="2.13" style="fill:#efeae3;paint-order:markers fill stroke;stroke-dasharray:0.796541, 1.59309;stroke-linecap:round;stroke-linejoin:round;stroke-opacity:.29;stroke-width:.398"/><path d="m425 46.2c-6.54 9.97-7.64 35.2-3.3 52.1 1.27 4.93 4.09 9.87 8.2 12.9 7.67 5.63 18.1 7.46 27.6 7.38 10.9-0.0939 19.6-2.7 26.9-8.62 3.98-3.23 6.49-8.35 7.63-13.3 3.73-16.3 2.07-40.3-3.56-50.1z" style="fill:#ff8571"/><path d="m387 72.5c4.05-3.79 12.7-3.39 16.8 0.343 9.58 8.69-0.337 27.1-9.31 26.7-7.99-0.377-18.1-17.1-7.53-27z" style="fill:#b30000"/><path d="m372 97.9c4.05-3.79 12.7-3.39 16.8 0.343 9.58 8.69-0.337 27.1-9.31 26.7-7.99-0.377-18.1-17.1-7.53-27z" style="fill:#b30000"/><path d="m409 96.6c5.77 0.368 11.7 7.24 11.8 13 0.244 13.5-20.8 19.1-26.9 12-5.42-6.33 0.0147-26 15.1-25z" style="fill:#b30000"/><path transform="translate(175)" d="m250 46.2c-6.54 9.97-7.64 35.2-3.3 52.1 1.27 4.93 4.09 9.87 8.2 12.9 7.67 5.63 18.1 7.46 27.6 7.38 10.9-0.0939 19.6-2.7 26.9-8.62 3.98-3.23 6.49-8.35 7.63-13.3 3.73-16.3 2.07-40.3-3.56-50.1z" clip-path="url(#clipPath923)" style="fill:#ff4a39"/><path transform="translate(175)" d="m197 97.9c4.05-3.79 12.7-3.39 16.8 0.343 9.58 8.69-0.337 27.1-9.31 26.7-7.99-0.377-18.1-17.1-7.53-27z" clip-path="url(#clipPath953)" style="fill:#d80000"/><path transform="translate(175)" d="m235 96.6c5.77 0.368 11.7 7.24 11.8 13 0.244 13.5-20.8 19.1-26.9 12-5.42-6.33 0.0147-26 15.1-25z" clip-path="url(#clipPath961)" style="fill:#d80000"/><path transform="translate(175)" d="m212 72.5c4.05-3.79 12.7-3.39 16.8 0.343 9.58 8.69-0.337 27.1-9.31 26.7-7.99-0.377-18.1-17.1-7.53-27z" clip-path="url(#clipPath969)" style="fill:#d80000"/><path d="m369 86.7c-0.13 2.46 0.813 4.51 2.34 6.04 1.51 1.52 3.43 2.31 5.99 2.34-5e-3 -2.19-0.677-4.49-2.17-6.01-1.54-1.57-3.63-2.49-6.16-2.37z" style="fill:#50970d"/><path d="m380 82.3c-2.27 1.76-3.23 4.02-3.22 6.33 8e-3 2.29 1.01 4.33 3.24 6.28 1.91-1.66 3.33-3.9 3.34-6.18 0.0159-2.35-1.03-4.63-3.36-6.44z" style="fill:#50970d"/><path d="m431 102c-1.73-1.8-3.96-2.56-6.22-2.55-2.24 0.0149-4.25 0.826-6.15 2.61 1.63 1.52 3.84 2.64 6.07 2.64 2.3 4e-3 4.53-0.837 6.3-2.71z" style="fill:#50970d"/><path d="m395 56.9c-2.27 1.76-3.23 4.02-3.22 6.33 8e-3 2.29 1.01 4.33 3.24 6.28 1.91-1.66 3.33-3.9 3.34-6.18 0.0159-2.35-1.03-4.63-3.36-6.44z" style="fill:#69c017"/><path d="m384 61.3c-0.13 2.46 0.813 4.51 2.34 6.04 1.51 1.52 3.43 2.31 5.99 2.34-5e-3 -2.19-0.677-4.49-2.17-6.01-1.54-1.57-3.63-2.49-6.16-2.37z" style="fill:#50970d"/><path d="m405 61.3c0.13 2.46-0.813 4.51-2.34 6.04-1.51 1.52-3.43 2.31-5.99 2.34 5e-3 -2.19 0.677-4.49 2.17-6.01 1.54-1.57 3.63-2.49 6.16-2.37z" style="fill:#50970d"/><ellipse transform="matrix(.793 -.61 .647 .762 0 0)" cx="358" cy="306" rx=".864" ry="1.22" style="fill:#fff;paint-order:markers fill stroke"/><circle cx="388" cy="82.3" r="2.08" style="fill:#7c0000;opacity:.99;paint-order:markers fill stroke"/><circle cx="397" cy="90.8" r="2.08" style="fill:#7c0000;opacity:.99;paint-order:markers fill stroke"/><circle cx="401" cy="84.4" r="2.08" style="fill:#7c0000;opacity:.99;paint-order:markers fill stroke"/><circle cx="395" cy="78.1" r="2.08" style="fill:#7c0000;opacity:.99;paint-order:markers fill stroke"/><circle cx="386" cy="110" r="2.08" style="fill:#7c0000;opacity:.99;paint-order:markers fill stroke"/><circle cx="374" cy="108" r="2.08" style="fill:#7c0000;opacity:.99;paint-order:markers fill stroke"/><circle cx="380" cy="103" r="2.08" style="fill:#7c0000;opacity:.99;paint-order:markers fill stroke"/><circle cx="382" cy="116" r="2.08" style="fill:#7c0000;opacity:.99;paint-order:markers fill stroke"/><circle cx="397" cy="112" r="2.08" style="fill:#7c0000;opacity:.99;paint-order:markers fill stroke"/><circle cx="403" cy="106" r="2.08" style="fill:#7c0000;opacity:.99;paint-order:markers fill stroke"/><circle cx="403" cy="118" r="2.08" style="fill:#7c0000;opacity:.99;paint-order:markers fill stroke"/><circle cx="412" cy="116" r="2.08" style="fill:#7c0000;opacity:.99;paint-order:markers fill stroke"/><ellipse transform="matrix(.796 -.605 .633 .774 0 0)" cx="263" cy="305" rx="1.78" ry="2.28" style="fill:#fff;paint-order:markers fill stroke"/><ellipse transform="matrix(.796 -.605 .633 .774 0 0)" cx="251" cy="330" rx="1.78" ry="2.28" style="fill:#fff;paint-order:markers fill stroke"/><ellipse transform="matrix(.796 -.605 .633 .774 0 0)" cx="233" cy="315" rx="1.78" ry="2.28" style="fill:#fff;paint-order:markers fill stroke"/><path d="m428 64.3c-0.2-4.29 4.4-9.08 8.67-9.52 9.95-1.03 15.8 14.2 11.1 19.1-4.24 4.41-19.2 1.63-19.7-9.6z" style="fill:#b30000"/><path d="m466 78.3c3.42-3.28 10.8-2.93 14.2 0.297 8.09 7.53-0.285 23.5-7.87 23.1-6.75-0.326-15.3-14.8-6.36-23.4z" style="fill:#b30000"/><circle cx="435" cy="86.5" r="4.22" style="fill:#950000;paint-order:markers fill stroke"/><circle cx="448" cy="97.1" r="4.22" style="fill:#950000;paint-order:markers fill stroke"/><circle cx="479" cy="59" r="4.22" style="fill:#950000;paint-order:markers fill stroke"/><ellipse transform="matrix(.637 -.771 .741 .671 0 0)" cx="275" cy="418" rx="3.39" ry="4.85" style="fill:#fff;paint-order:markers fill stroke"/><ellipse transform="matrix(.637 -.771 .741 .671 0 0)" cx="267" cy="425" rx="1.71" ry="2.44" style="fill:#fff;paint-order:markers fill stroke"/><path transform="translate(175)" d="m254 64.3c-0.2-4.29 4.4-9.08 8.67-9.52 9.95-1.03 15.8 14.2 11.1 19.1-4.24 4.41-19.2 1.63-19.7-9.6z" clip-path="url(#clipPath977)" style="fill:#d80000"/><path transform="translate(175)" d="m292 78.3c3.42-3.28 10.8-2.93 14.2 0.297 8.09 7.53-0.285 23.5-7.87 23.1-6.75-0.326-15.3-14.8-6.36-23.4z" clip-path="url(#clipPath985)" style="fill:#d80000"/><circle transform="translate(175)" cx="273" cy="97.1" r="4.22" clip-path="url(#clipPath993)" style="fill:#b30000;paint-order:markers fill stroke"/><circle transform="translate(175)" cx="260" cy="86.5" r="4.22" clip-path="url(#clipPath1001)" style="fill:#b30000;paint-order:markers fill stroke"/><path d="m497 65.7c1.24 0.043 3.12 1.24 3.28 3.11 0.48 5.94 1.08 15.4-0.561 22.7-0.391 1.74-1.88 2.65-3.27 2.61-1.38-0.0393-3.48-1.13-3.38-3.24 0.289-1.57 1.13-15.6 0.615-22 0.283-2.3 2.08-3.26 3.32-3.22z" style="fill:#e1dbd2;paint-order:markers fill stroke"/><path d="m496 62c1.24 0 3.17 1.14 3.38 3 0.686 5.92 1.62 14 0.279 20.5-0.33 1.61-1.31 3.72-3.18 3.55s-3.41-1.62-3.38-3.73c0.355-6.43 0.432-13.6-0.303-20 0.203-2.31 1.96-3.33 3.2-3.33z" style="fill:#fffbf4;paint-order:markers fill stroke"/><circle transform="translate(175)" cx="305" cy="59" r="4.22" clip-path="url(#clipPath1069)" style="fill:#b30000;paint-order:markers fill stroke"/><circle cx="439" cy="61.2" r="2.02" style="fill:#7b0000;paint-order:markers fill stroke"/><circle cx="437" cy="67.5" r="2.02" style="fill:#7b0000;paint-order:markers fill stroke"/><circle cx="443" cy="69.7" r="2.02" style="fill:#7b0000;paint-order:markers fill stroke"/><circle cx="469" cy="88.7" r="2.02" style="fill:#7b0000;paint-order:markers fill stroke"/><circle cx="475" cy="84.5" r="2.02" style="fill:#7b0000;paint-order:markers fill stroke"/><circle cx="475" cy="92.9" r="2.02" style="fill:#7b0000;paint-order:markers fill stroke"/><path d="m416 65.7c-1.24 0.043-3.12 1.24-3.28 3.11-0.48 5.94-1.08 15.4 0.561 22.7 0.469 2.09 2.86 3.83 4.25 3.79 1.38-0.0393 2.86-2.72 2.65-4.49-0.0625-0.446-1.38-15.5-0.862-21.9-0.283-2.3-2.08-3.26-3.32-3.22z" style="fill:#998d7d;paint-order:markers fill stroke"/><path d="m416 62c-1.24 0-3.17 1.14-3.38 3-0.686 5.92-1.23 15.3-0.568 21.4 0.163 1.5 2.21 2.92 4.08 2.76s3.12-1.63 3.1-3.74c-0.355-6.43-0.759-13.7-0.0237-20.1-0.203-2.31-1.96-3.33-3.2-3.33z" style="fill:#b6aaa0;paint-order:markers fill stroke"/><path d="m415 86.6c-1.81 1.73-2.58 3.95-2.57 6.21 6e-3 2.24 0.809 4.25 2.59 6.16 1.52-1.63 2.66-3.83 2.67-6.06 0.0127-2.3-0.819-4.54-2.68-6.32z" style="fill:#50970d"/><path d="m426 91.2c-2.86-0.268-5.38 0.539-7.14 2.32-1.72 1.73-2.19 4.24-2.21 6.99 2.45 0.273 5.41-0.736 7.17-2.56 1.64-1.7 2.47-4.03 2.17-6.74z" style="fill:#69c017;opacity:.94"/></g></g></svg>
