<svg width="128" height="128" version="1.1" viewBox="0 -16 96 96" xmlns="http://www.w3.org/2000/svg"><path d="m59.3-0.877v22.4h-22.4v-22.4c0-5.2 3.58-9.57 8.39-10.8l2.8 5.2 2.8-5.2c4.81 1.23 8.39 5.59 8.39 10.8z" fill="#68544f" style="stroke-width:.186"/><path d="m59.3-0.877v22.4h-11.2v-28l2.8-5.2c4.81 1.23 8.39 5.59 8.39 10.8z" fill="#53433f" style="stroke-width:.186"/><path d="m73.3-11.7-2.8 5.2-2.8-5.2c-4.82 1.25-8.39 5.59-8.39 10.8v22.4h22.4v-22.4c0-5.21-3.57-9.55-8.39-10.8z" fill="#53433f" style="stroke-width:.186"/><g transform="matrix(.186 0 0 .186 .343 -12.1)" fill="#68544f"><path d="m151 2.12-15 27.9-15-27.9c-25.8 6.69-45 30-45 57.9v120h120v-120c0-27.9-19.2-51.2-45-57.9z"/><path d="m331 62.1-15 27.9-15-27.9c-25.8 6.69-45 30-45 57.9 0 33.1 26.9 60 60 60s60-26.9 60-60c0-27.9-19.2-51.2-45-57.9z"/><path d="m451 62.1-15 27.9-15-27.9c-25.8 6.69-45 30-45 57.9 0 33.1 26.9 60 60 60s61-26.9 61-60c0-27.9-20.2-51.2-46-57.9z"/></g><path d="m17.3-0.482-2.8 5.2-2.8-5.2c-4.82 1.25-8.58 5.59-8.58 10.8 0 6.18 5.2 11.2 11.4 11.2 6.18 0 11.2-5.01 11.2-11.2 0-5.21-3.57-9.55-8.39-10.8z" fill="#725d57" style="stroke-width:.186"/><path d="m39.7-0.482-2.8 5.2-2.8-5.2c-4.82 1.25-8.39 5.59-8.39 10.8 0 6.18 5.01 11.2 11.2 11.2 6.18 0 11.2-5.01 11.2-11.2 0-5.21-3.57-9.55-8.39-10.8z" fill="#725d57" style="stroke-width:.186"/><path d="m0.343 15.9v11.8c0 18.9 11.1 35.6 28.2 43.2v6.55h39.2v-6.55c17.1-7.61 28.2-24.3 28.2-43.2v-11.8z" fill="#ff637b" style="stroke-width:.186"/><path d="m95.8 15.9v11.8c0 18.9-11.1 35.6-28.2 43.2v6.55h-19.6v-61.5z" fill="#ff3636" style="stroke-width:.186"/><path d="m62.1 39.9v-7.22h-7.22l-6.77-6.77-6.77 6.77h-7.22v7.22l-6.77 6.77 6.77 6.77v7.22h7.22l6.77 6.77 6.77-6.77h7.22v-7.22l6.77-6.77z" fill="#ffda2d" style="stroke-width:.186"/><g fill="#3e322e"><path d="m28.5-0.877v-10.8c-0.899-0.233-1.83-0.396-2.8-0.396s-1.9 0.162-2.8 0.396v10.8z" style="stroke-width:.186"/><path d="m50.9-11.7v10.8h-5.59v-10.8c0.895-0.224 1.85-0.392 2.8-0.392s1.9 0.168 2.8 0.392z" style="stroke-width:.186"/><path d="m73.3-0.877v-10.8c-0.899-0.233-1.83-0.396-2.8-0.396-0.972 0-1.9 0.162-2.8 0.396v10.8z" style="stroke-width:.186"/></g><path d="m45.3 43.9h5.59v5.59h-5.59z" fill="#fdbf00" style="stroke-width:.186"/><path d="m17.3 10.3v-10.8c-0.899-0.233-1.83-0.396-2.8-0.396-0.972 0-1.9 0.162-2.8 0.396v10.8z" fill="#53433f" style="stroke-width:.186"/><path d="m39.7 10.3v-10.8c-0.899-0.233-1.83-0.396-2.8-0.396s-1.9 0.162-2.8 0.396v10.8z" fill="#53433f" style="stroke-width:.186"/><g fill="#3e322e"><path d="m62.1 10.3v-10.8c-0.899-0.233-1.83-0.396-2.8-0.396-0.972 0-1.9 0.162-2.8 0.396v10.8z" style="stroke-width:.186"/><path d="m84.4 10.3v-10.8c-0.899-0.233-1.83-0.396-2.8-0.396s-1.9 0.162-2.8 0.396v10.8z" style="stroke-width:.186"/><path d="m50.9-11.7v10.8h-2.8v-11.2c0.951 0 1.9 0.168 2.8 0.392z" style="stroke-width:.186"/></g><path d="m68.8 46.7-6.77 6.77v7.22h-7.22l-6.77 6.77v-41.5l6.77 6.77h7.22v7.22z" fill="#fdbf00" style="stroke-width:.186"/><path d="m48.1 43.9h2.8v5.59h-2.8z" fill="#ff9100" style="stroke-width:.186"/></svg>
