<?xml version="1.0" encoding="UTF-8" standalone="no"?>
<svg
   xmlns:dc="http://purl.org/dc/elements/1.1/"
   xmlns:cc="http://creativecommons.org/ns#"
   xmlns:rdf="http://www.w3.org/1999/02/22-rdf-syntax-ns#"
   xmlns:svg="http://www.w3.org/2000/svg"
   xmlns="http://www.w3.org/2000/svg"
   xmlns:sodipodi="http://sodipodi.sourceforge.net/DTD/sodipodi-0.dtd"
   xmlns:inkscape="http://www.inkscape.org/namespaces/inkscape"
   inkscape:version="1.0 (4035a4f, 2020-05-01)"
   sodipodi:docname="عسل و فرآورده‌های عسلی.svg"
   id="svg863"
   version="1.1"
   width="128"
   viewBox="-17 0 96 96.029647"
   height="128">
  <metadata
     id="metadata869">
    <rdf:RDF>
      <cc:Work
         rdf:about="">
        <dc:format>image/svg+xml</dc:format>
        <dc:type
           rdf:resource="http://purl.org/dc/dcmitype/StillImage" />
        <dc:title></dc:title>
      </cc:Work>
    </rdf:RDF>
  </metadata>
  <defs
     id="defs867" />
  <sodipodi:namedview
     inkscape:current-layer="g1520"
     inkscape:window-maximized="0"
     inkscape:window-y="0"
     inkscape:window-x="0"
     inkscape:cy="106.85457"
     inkscape:cx="-56.731975"
     inkscape:zoom="1.4455336"
     inkscape:showpageshadow="false"
     units="px"
     showgrid="false"
     id="namedview865"
     inkscape:window-height="768"
     inkscape:window-width="1366"
     inkscape:pageshadow="2"
     inkscape:pageopacity="0"
     guidetolerance="10"
     gridtolerance="10"
     objecttolerance="10"
     borderopacity="1"
     bordercolor="#666666"
     pagecolor="#ffffff" />
  <g
     transform="matrix(1.0060634,0,0,1.0060634,0.05207957,-0.00228109)"
     id="g1520">
    <g
       inkscape:export-ydpi="91.290001"
       inkscape:export-xdpi="91.290001"
       id="g1542">
      <path
         style="stroke-width:0.207033"
         id="path833"
         fill="#ffc018"
         d="M 58.167675,95.379093 H 5.1674021 L -1.3994042,32.328857 C -1.8369215,28.129174 -0.47261115,23.941624 2.3538646,20.805406 5.1803422,17.669191 9.2037228,15.878685 13.426051,15.878685 h 36.483784 c 4.221516,0 8.245708,1.790506 11.072185,4.926721 2.826476,3.136218 4.189977,7.323768 3.753269,11.523451 z m 0,0" />
      <path
         style="stroke-width:0.207033"
         id="path835"
         fill="#e87425"
         d="M -1.3880821,32.441271 2.4064317,68.878957 H 60.928646 l 3.794513,-36.437686 z m 0,0" />
      <path
         style="stroke-width:0.207033"
         id="path837"
         fill="#ccdce5"
         d="m 25.970106,53.54239 -2.269268,3.75893 c -0.332385,0.549123 -0.50464,1.180733 -0.496555,1.822049 -0.0047,1.652216 1.127356,3.090926 2.734282,3.473452 1.606926,0.383332 3.266422,-0.389804 4.006401,-1.866527 l 1.722572,-3.445147 1.722573,3.445147 c 0.602498,1.204995 1.832559,1.967616 3.179887,1.970852 0.552356,-0.0057 1.095816,-0.135865 1.590752,-0.380908 0.886357,-0.443987 1.548699,-1.236531 1.828516,-2.188396 0.279816,-0.951864 0.151231,-1.976512 -0.355026,-2.830522 l -2.26927,-3.75893 v -5.764554 l 2.26927,-3.758932 c 0.506257,-0.854007 0.634842,-1.878655 0.355026,-2.830519 -0.279817,-0.951864 -0.942159,-1.744408 -1.828516,-2.188396 -0.494936,-0.245043 -1.038396,-0.375245 -1.590752,-0.380908 -1.347328,0.0032 -2.577389,0.765859 -3.179887,1.97085 l -1.722573,3.445148 -1.722572,-3.445148 c -0.739979,-1.476722 -2.399475,-2.249857 -4.006401,-1.866525 -1.606926,0.382526 -2.739135,1.821238 -2.734282,3.473453 -0.008,0.641315 0.16417,1.272925 0.496555,1.822045 l 2.269268,3.758932 z m 0,0" />
      <path
         style="stroke-width:0.207033"
         id="path839"
         fill="#8e662b"
         d="m 4.4411715,66.550653 c 1.7994016,0.328338 2.9914549,2.054147 2.6631141,3.85355 L 3.5297442,89.955816 C 3.2014033,91.755218 1.4755961,92.947273 -0.32380673,92.618933 -2.1240172,92.289782 -3.3160705,90.563975 -2.9869216,88.764572 L 0.58681248,69.212957 C 0.91596072,67.413556 2.6417698,66.221502 4.4411715,66.550653 Z m 0,0" />
      <path
         style="stroke-width:0.207033"
         id="path841"
         fill="#d69f44"
         d="m 10.957837,67.741089 c 1.799404,0.329148 2.991456,2.054148 2.663116,3.854356 L 10.046409,91.146253 C 9.7180687,92.945654 7.99226,94.138516 6.1928593,93.809368 4.3926478,93.480217 3.2005955,91.754412 3.5297442,89.955007 L 7.1034767,70.404203 c 0.3291497,-1.800211 2.0549581,-2.992265 3.8543603,-2.663114 z m 0,0" />
      <path
         style="stroke-width:0.207033"
         id="path843"
         fill="#d69f44"
         d="m -2.9861129,88.763763 -2.6865676,-1.217122 c -2.0759841,-0.941352 -3.2445846,-3.175035 -2.8353723,-5.417616 l 1.5850912,-8.660582 c 0.4092124,-2.24339 2.2935298,-3.919867 4.5692679,-4.066244 l 2.94374056,-0.188432 z m 0,0" />
      <path
         style="stroke-width:0.207033"
         id="path845"
         fill="#8e662b"
         d="m 10.048835,91.147061 2.942934,-0.188431 c 2.274928,-0.147187 4.158439,-1.823664 4.56765,-4.066245 l 1.583472,-8.658964 c 0.410831,-2.24258 -0.758579,-4.477075 -2.835372,-5.419232 l -2.693038,-1.218744 z m 0,0" />
      <path
         style="stroke-width:0.207033"
         id="path847"
         fill="#d69f44"
         d="m 18.947181,79.305782 52.13656,9.529959 c 1.7994,0.329147 2.991456,2.054149 2.662305,3.854359 -0.328341,1.7994 -2.054147,2.991456 -3.853551,2.662305 L 17.75594,85.822449 Z m 0,0" />
      <path
         style="stroke-width:0.207033"
         id="path853"
         fill="#354f5c"
         d="m 28.355022,52.316372 h -6.625035 c -0.914661,0 -1.656258,-0.741596 -1.656258,-1.656258 0,-0.914663 0.741597,-1.656259 1.656258,-1.656259 h 6.625035 z m 0,0" />
      <path
         style="stroke-width:0.207033"
         id="path855"
         fill="#354f5c"
         d="m 44.917605,50.660114 c 0,1.829325 -1.482382,3.312516 -3.312516,3.312516 -1.829325,0 -3.312517,-1.483191 -3.312517,-3.312516 0,-1.829325 1.483192,-3.312518 3.312517,-3.312518 1.830134,0 3.312516,1.483193 3.312516,3.312518 z m 0,0" />
      <path
         style="stroke-width:0.207033"
         id="path859"
         fill="#fde700"
         d="m 30.011279,45.691339 h 3.312518 c 2.744794,0 4.968775,2.224787 4.968775,4.968775 0,2.743988 -2.223981,4.968776 -4.968775,4.968776 h -3.312518 c -2.743987,0 -4.968776,-2.224788 -4.968776,-4.968776 0,-2.743988 2.224789,-4.968775 4.968776,-4.968775 z m 0,0" />
      <path
         style="stroke-width:0.207033"
         id="path861"
         fill="#354f5c"
         d="m 30.011279,45.691339 h 3.312518 v 9.937551 h -3.312518 z m 0,0" />
      <path
         style="stroke-width:0.161005"
         d="M 58.869512,0.37620647 H 3.0273035 c -1.4685385,0 -2.65909254,1.19055383 -2.65909254,2.65909343 v 5.3181855 c 0,1.4685394 1.19055404,2.6590946 2.65909254,2.6590946 H 58.870142 c 1.468539,0 2.659092,-1.1905552 2.659092,-2.6590946 V 3.0352999 C 61.528612,1.5667603 60.338681,0.37620647 58.869512,0.37620647 Z m 0,0"
         fill="#ff8b5a"
         id="path879" />
      <path
         style="stroke-width:0.161005"
         d="m 67.539238,22.341399 c 0.748422,0.748419 0.356601,2.005638 -0.676095,2.240857 -3.950274,0.899991 -4.813789,3.715058 -10.214995,3.715058 -6.429492,0 -6.429492,-3.98864 -12.85899,-3.98864 -6.425091,0 -6.425091,3.98864 -12.849557,3.98864 -6.426982,0 -6.426982,-3.98864 -12.85396,-3.98864 -6.42446,0 -6.42446,3.98864 -12.8495542,3.98864 -5.39491471,0 -6.2584282,-2.814436 -10.2036735,-3.715058 -1.0320642,-0.235219 -1.4238847,-1.491808 -0.6754637,-2.240227 l 4.84271957,-4.84272 C -0.05253968,16.751515 0.96191608,16.331394 2.0197669,16.331394 H 59.876422 c 1.057849,0 2.072305,0.420121 2.820727,1.167915 z m 0,0"
         fill="#ff8b5a"
         id="path881" />
      <path
         style="stroke-width:0.161005"
         d="m 42.314331,15.001848 h -2.916954 l 1.973566,4.369768 c 0.222009,0.49119 0.705025,0.782381 1.212568,0.782381 0.181756,0 0.36855,-0.03774 0.545277,-0.118238 0.669805,-0.301883 0.967288,-1.089297 0.664772,-1.758472 z m 0,0"
         fill="#ff7350"
         id="path883" />
      <path
         style="stroke-width:0.161005"
         d="M 19.288774,16.331394 H 2.0203956 c -1.05785078,0 -2.07230651,0.420121 -2.82072643,1.167915 l -4.84271957,4.84272 c -0.748421,0.748419 -0.3566005,2.005008 0.6754637,2.240227 3.9452453,0.900622 4.80875879,3.715685 10.2043031,3.715685 5.7068616,0 6.3540246,-3.141475 10.9281926,-3.844614 z m 0,0"
         fill="#ff7350"
         id="path885" />
      <path
         style="stroke-width:0.161005"
         d="m 11.297662,15.001848 -3.4238656,5.623844 c -0.3817563,0.627037 -0.1830164,1.445267 0.4459078,1.827026 0.2150921,0.132075 0.4540836,0.194336 0.6893014,0.194336 0.449053,0 0.8867845,-0.227669 1.1370954,-0.638357 l 4.265367,-7.006849 z m 0,0"
         fill="#ff8b5a"
         id="path887" />
      <path
         style="stroke-width:0.161005"
         d="M 14.993223,4.3648463 V 0.37620647 H 3.0273035 c -1.4685385,0 -2.65909254,1.19055383 -2.65909254,2.65909343 v 5.3181855 c 0,1.4691694 1.19055404,2.6590946 2.65909254,2.6590946 H 58.870142 c 1.468539,0 2.659092,-1.1905552 2.659092,-2.6590946 H 18.981858 c -2.202493,0 -3.988635,-1.7855169 -3.988635,-3.9886391 z m 0,0"
         fill="#ff7350"
         id="path889" />
      <path
         style="stroke-width:0.161005"
         d="M 57.539966,16.331394 H 4.3568507 c -1.4685395,0 -2.6590923,-1.190553 -2.6590923,-2.659093 0,-1.468539 1.1905528,-2.659093 2.6590923,-2.659093 H 57.540595 c 1.468539,0 2.659092,1.190554 2.659092,2.659093 -6.21e-4,1.46854 -1.191182,2.659093 -2.659721,2.659093 z m 0,0"
         fill="#9f6e50"
         id="path891" />
      <path
         style="stroke-width:0.161005"
         d="M 57.539966,11.013208 H 14.993223 c -0.733955,0 -1.329546,0.594963 -1.329546,1.329547 0,0.733956 0.595591,1.329546 1.329546,1.329546 h 45.205835 c 0,-1.468539 -1.190553,-2.659093 -2.659092,-2.659093 z m 0,0"
         fill="#b57f5f"
         id="path893" />
    </g>
  </g>
</svg>
