<?xml version="1.0" encoding="UTF-8" standalone="no"?>
<svg
   xmlns:dc="http://purl.org/dc/elements/1.1/"
   xmlns:cc="http://creativecommons.org/ns#"
   xmlns:rdf="http://www.w3.org/1999/02/22-rdf-syntax-ns#"
   xmlns:svg="http://www.w3.org/2000/svg"
   xmlns="http://www.w3.org/2000/svg"
   xmlns:sodipodi="http://sodipodi.sourceforge.net/DTD/sodipodi-0.dtd"
   xmlns:inkscape="http://www.inkscape.org/namespaces/inkscape"
   inkscape:version="1.0 (4035a4f, 2020-05-01)"
   sodipodi:docname="انواع رب‌ها.svg"
   id="svg181"
   viewBox="-24 0 95.999997 95.999997"
   version="1.1"
   height="128"
   width="128">
  <metadata
     id="metadata187">
    <rdf:RDF>
      <cc:Work
         rdf:about="">
        <dc:format>image/svg+xml</dc:format>
        <dc:type
           rdf:resource="http://purl.org/dc/dcmitype/StillImage" />
        <dc:title></dc:title>
      </cc:Work>
    </rdf:RDF>
  </metadata>
  <defs
     id="defs185" />
  <sodipodi:namedview
     inkscape:current-layer="svg181"
     inkscape:window-maximized="0"
     inkscape:window-y="0"
     inkscape:window-x="0"
     inkscape:cy="76.65529"
     inkscape:cx="23.511605"
     inkscape:zoom="2.2439884"
     inkscape:showpageshadow="false"
     units="px"
     showgrid="false"
     id="namedview183"
     inkscape:window-height="768"
     inkscape:window-width="1366"
     inkscape:pageshadow="2"
     inkscape:pageopacity="0"
     guidetolerance="10"
     gridtolerance="10"
     objecttolerance="10"
     borderopacity="1"
     bordercolor="#666666"
     pagecolor="#ffffff" />
  <g
     transform="matrix(0.75070685,0,0,0.75070685,-5.8573918,0.09837606)"
     id="g276">
    <g
       transform="matrix(0.206,0,0,0.206,-8.18,-0.176)"
       id="g86">
      <path
         d="M 443,161 394.8,101.1 H 57.8 L 17.9,161 C 1.5,185.6 -4,216 2.8,244.8 l 57.2,242 c 3.51,14.8 16.7,25.3 32,25.3 h 277 c 15.2,0 28.5,-10.5 32,-25.3 l 57.2,-242 c 6.83,-28.8 1.37,-59.2 -15.1,-83.8 z"
         fill="#f9eac7"
         style="fill:#e6e6e6;stroke-width:0.995"
         id="path10" />
      <path
         d="M 443,161 394.8,101.1 H 57.8 L 17.9,161 C 1.5,185.6 -4,216 2.8,244.8 l 57.2,242 c 3.51,14.8 16.7,25.3 32,25.3 h 50.4 l -33.8,-267 c -2.18,-17.2 -2,-35 0.365,-51.7 0.96,-6.81 4.89,-12.8 10.7,-16.4 0.0272,-0.0194 0.0544,-0.035 0.0816,-0.0506 9.21,-5.72 15.9,-9.85 31,-9.85 15.2,0 21.8,4.13 31,9.85 10.6,6.59 23.8,14.8 48.4,14.8 24.5,0 37.7,-8.2 48.4,-14.8 9.21,-5.72 15.9,-9.85 31,-9.85 15.2,0 21.8,4.13 31.1,9.85 10.6,6.59 23.8,14.8 48.4,14.8 24.5,0 37.8,-8.2 48.4,-14.8 3.87,-2.4 7.27,-4.43 11,-6.06 -1.72,-3.28 -3.61,-6.48 -5.68,-9.58 z"
         fill="#f4dbb3"
         style="fill:#cccccc;stroke-width:0.995"
         id="path12" />
      <path
         d="m 88.2,479 h 284 c 7.61,0 14.2,-5.23 16,-12.6 l 53.3,-225 c 5.7,-24.1 1.2,-49.7 -12.4,-70.4 l -42.7,-53.2 h -320 l -35.1,52.6 c -13.9,20.9 -18.5,46.5 -12.7,70.9 l 53.3,225 c 1.76,7.41 8.37,12.6 16,12.6 z"
         fill="#ffc269"
         style="fill:#5d000c;stroke-width:0.995"
         id="path14" />
      <path
         d="m 434,179 c -1.41,-2.73 -2.96,-5.4 -4.66,-7.98 l -42.7,-53.2 h -320 l -35.1,52.6 c -13.9,20.9 -18.5,46.5 -12.7,70.9 l 53.3,225 c 1.76,7.41 8.37,12.6 16,12.6 h 50.2 l -29.6,-234 c -2.18,-17.2 -2,-35 0.365,-51.7 0.96,-6.81 4.89,-12.8 10.7,-16.4 0.0272,-0.0156 0.0544,-0.031 0.0816,-0.0506 9.21,-5.72 15.9,-9.85 31,-9.85 15.2,0 21.8,4.13 31,9.85 10.6,6.59 23.8,14.8 48.4,14.8 24.5,0 37.7,-8.2 48.4,-14.8 9.21,-5.72 15.9,-9.85 31,-9.85 15.2,0 21.8,4.13 31.1,9.85 10.6,6.59 23.8,14.8 48.4,14.8 22.1,0 35,-6.62 45,-12.7 z"
         fill="#ffa95f"
         style="fill:#420008;stroke-width:0.995"
         id="path16" />
      <path
         d="M 403,2.77 H 58 c -9.07,0 -16.4,7.35 -16.4,16.4 v 32.9 c 0,9.07 7.35,16.4 16.4,16.4 h 345 c 9.07,0 16.4,-7.35 16.4,-16.4 V 19.17 C 419.39599,10.1 412.05,2.77 403,2.77 Z"
         fill="#ff8b5a"
         style="fill:#d6001b;stroke-width:0.995"
         id="path18" />
      <path
         d="m 456,138 c 4.62,4.62 2.2,12.4 -4.18,13.8 -24.4,5.56 -29.7,22.9 -63.1,22.9 -39.7,0 -39.7,-24.6 -79.4,-24.6 -39.7,0 -39.7,24.6 -79.4,24.6 -39.7,0 -39.7,-24.6 -79.4,-24.6 -39.7,0 -39.7,24.6 -79.4,24.6 -33.3,0 -38.7,-17.4 -63,-22.9 -6.38,-1.45 -8.8,-9.22 -4.17,-13.8 l 29.9,-29.9 c 4.62,-4.62 10.9,-7.21 17.4,-7.21 h 357 c 6.53,0 12.8,2.6 17.4,7.21 z"
         fill="#ff8b5a"
         style="fill:#d6001b;stroke-width:0.995"
         id="path20" />
      <path
         d="m 301,93.1 h -18 l 12.2,27 c 1.37,3.03 4.36,4.83 7.49,4.83 1.12,0 2.28,-0.233 3.37,-0.73 4.14,-1.86 5.98,-6.73 4.11,-10.9 z"
         fill="#ff7350"
         style="fill:#bf0016;stroke-width:0.995"
         id="path22" />
      <path
         d="M 158,101 H 51 c -6.53,0 -12.8,2.6 -17.4,7.21 l -29.9,29.9 c -4.62,4.62 -2.2,12.4 4.17,13.8 24.4,5.56 29.7,23 63,23 35.3,0 39.3,-19.4 67.5,-23.7 z"
         fill="#ff7350"
         style="fill:#bf0016;stroke-width:0.995"
         id="path24" />
      <path
         d="m 109,93.1 -21.2,34.7 c -2.36,3.87 -1.13,8.93 2.75,11.3 1.33,0.816 2.81,1.2 4.26,1.2 2.77,0 5.48,-1.41 7.02,-3.94 l 26.3,-43.3 z"
         fill="#ff8b5a"
         style="fill:#d6001b;stroke-width:0.995"
         id="path26" />
      <path
         d="M 132,27.4 V 2.8 H 58.1 c -9.07,0 -16.4,7.35 -16.4,16.4 v 32.9 c 0,9.08 7.35,16.4 16.4,16.4 h 345 c 9.07,0 16.4,-7.35 16.4,-16.4 h -263 c -13.6,0 -24.6,-11 -24.6,-24.6 z"
         fill="#ff7350"
         style="fill:#bf0016;stroke-width:0.995"
         id="path28" />
      <path
         d="M 395,101 H 66 C 56.93,101 49.6,93.65 49.6,84.6 49.6,75.55 56.95,68.2 66,68.2 h 329 c 9.07,0 16.4,7.35 16.4,16.4 -0.004,9.07 -7.36,16.4 -16.4,16.4 z"
         fill="#9f6e50"
         style="fill:#f3b600;stroke-width:0.995"
         id="path30" />
      <path
         d="M 395,68.5 H 132 c -4.53,0 -8.21,3.68 -8.21,8.21 0,4.53 3.68,8.21 8.21,8.21 h 279 c 0,-9.07 -7.35,-16.4 -16.4,-16.4 z"
         fill="#b57f5f"
         style="fill:#f3d55b;stroke-width:0.995"
         id="path32" />
      <ellipse
         transform="rotate(-52.2)"
         cx="84"
         cy="448"
         rx="14.4"
         ry="22"
         style="opacity:0.923;fill:#ffffff;stroke-width:8.5;stroke-linecap:round;stroke-linejoin:round"
         id="ellipse34" />
      <ellipse
         transform="rotate(-52.2)"
         cx="50.200001"
         cy="459"
         rx="9.7200003"
         ry="14.8"
         style="opacity:0.923;fill:#ffffff;stroke-width:5.73;stroke-linecap:round;stroke-linejoin:round"
         id="ellipse36" />
      <g
         transform="matrix(1.07,0,0,1.07,526,-149)"
         id="g84">
        <path
           d="m -300,339 c 9.89,8.01 12.2,20.7 11.9,31.8 -0.247,6.69 -4.56,12.5 -10.9,14.8 -34.6,12.6 -59.1,43.3 -59.1,79.2 0,47.2 42.2,85.4 94.2,85.4 52,0 94.2,-38.2 94.2,-85.4 0,-35.9 -24.4,-66.6 -59,-79.2 -6.31,-2.22 -10.6,-8.07 -10.9,-14.8 -0.315,-11 1.96,-23.7 11.9,-31.8 l 0.0799,-0.0387 L -227.7,339 c -1.22,0.431 -18.4,6.36 -25.9,15.5 -0.479,0.649 -1.29,0.964 -2.08,0.804 -0.792,-0.16 -1.42,-0.765 -1.61,-1.55 -0.608,-2.99 -1.63,-5.89 -3.03,-8.6 -0.69,-1.29 -2.03,-2.09 -3.49,-2.09 -1.46,0 -2.8,0.801 -3.49,2.09 -1.4,2.71 -2.42,5.6 -3.03,8.6 -0.189,0.784 -0.816,1.39 -1.61,1.55 -0.792,0.16 -1.61,-0.155 -2.08,-0.804 -7.54,-9.19 -24.7,-15.1 -25.9,-15.5 l -0.0799,-0.0387 z"
           fill="#cc4b4c"
           style="fill:#d6001b;stroke-width:0.62"
           id="path38" />
        <path
           d="m -263,542 c -47.6,0 -86.4,-34.8 -86.4,-77.6 0,-31.7 21.1,-59.9 53.9,-71.8 9.37,-3.3 15.7,-12 16,-22 0.143,-4.18 -0.121,-8.36 -0.784,-12.5 0.344,0.358 0.671,0.719 0.966,1.07 1.91,2.34 4.77,3.7 7.8,3.7 3.47,0.029 6.7,-1.79 8.47,-4.78 1.77,2.99 5,4.81 8.48,4.78 3.01,-0.002 5.86,-1.35 7.78,-3.68 0.303,-0.368 0.634,-0.738 0.993,-1.1 -0.666,4.14 -0.93,8.34 -0.787,12.5 0.305,9.9 6.66,18.6 16,21.9 32.8,11.9 53.9,40.1 53.9,71.9 -0.002,42.8 -38.7,77.6 -86.4,77.6 z"
           fill="#f5efca"
           style="fill:#fe3b00;stroke-width:0.62"
           id="path40" />
        <g
           transform="matrix(0.87,0,0,0.87,158,38.3)"
           id="g82">
          <path
             d="m -488,407 c -40,0.776 -84.4,37.7 -82.4,85.5 1.6,38 41,83.2 82,79.3 41.2,3.33 84,-26.1 85.5,-80.8 1.2,-42.8 -33.3,-84.9 -85.1,-83.9 z"
             style="fill:#ffc2aa;stroke:#ffc2aa;stroke-width:0.602px"
             id="path42" />
          <path
             d="m -492,420 c -35.2,0.155 -65,38.3 -64.9,70.2 0.082,31.9 31,70.2 65.2,69.9 0.575,-37.1 1.03,-93.1 -0.35,-140 z"
             style="fill:#fe3b00;stroke:#fe3b00;stroke-width:0.602px"
             id="path44" />
          <path
             d="m -479,420 c 35.2,0.155 65,38.3 64.9,70.2 -0.082,31.9 -31,70.2 -65.2,69.9 -0.575,-37.1 -1.03,-93.1 0.35,-140 z"
             style="fill:#fe3b00;stroke:#fe3b00;stroke-width:0.602px"
             id="path46" />
          <path
             d="m -543,460 c -8.13,-1.26 -16.3,4.61 -17,13.1 -0.491,5.81 5.19,12.8 11,13.6 6.68,0.896 15.3,-4.32 16.4,-11.9 0.898,-5.97 -4.15,-13.9 -10.3,-14.9 z"
             style="fill:#d6001b;stroke:#d6001b;stroke-width:0.602px"
             id="path48" />
          <path
             d="m -493,507 c -7.96,-6.3 -22.3,-4.28 -28.1,4.29 -4.66,6.84 -4,19.3 2.27,24.7 7.34,6.32 22.8,5.76 29,-1.64 6.58,-7.8 4.73,-21.1 -3.15,-27.4 z"
             style="fill:#d6001b;stroke:#d6001b;stroke-width:0.602px"
             id="path50" />
          <path
             d="m -478,478 c -7.63,8.18 -6.23,23 1.14,29.5 7.41,6.58 23.4,5.33 29.6,-2.4 6.35,-7.91 5.58,-23.2 -4.16,-30.1 -7.27,-5.18 -20.5,-3.5 -26.6,3.03 z"
             style="fill:#d6001b;stroke:#d6001b;stroke-width:0.602px"
             id="path52" />
          <path
             d="m -445,526 c 9.51,6.41 22.1,2.48 27.6,-5.05 6.36,-8.59 3.61,-21.9 -3.82,-27.3 -7.74,-5.61 -22.6,-3.85 -28.2,5.07 -5.12,8.11 -4.2,21.4 4.41,27.2 z"
             style="fill:#d6001b;stroke:#d6001b;stroke-width:0.602px"
             id="path54" />
          <path
             d="m -509,438 c -5.41,6.18 -3.48,15.4 1.56,19.6 4.99,4.17 15.2,3.03 19.4,-1.95 4,-4.77 3.26,-14.5 -1.4,-18.6 -4.89,-4.32 -15.3,-3.97 -19.6,0.935 z"
             style="fill:#d6001b;stroke:#d6001b;stroke-width:0.602px"
             id="path56" />
          <path
             d="m -453,434 c -4.66,4.45 -5.29,14.7 -0.807,19.3 4.72,4.87 15.6,4.62 20.3,-0.234 4.42,-4.53 4.22,-14.5 -0.276,-19 -4.56,-4.52 -14.6,-4.52 -19.3,-0.0924 z"
             style="fill:#d6001b;stroke:#d6001b;stroke-width:0.602px"
             id="path58" />
          <path
             d="m -445,436 c -1.88,2.09 -0.393,6.32 1.64,8.26 1.88,1.8 5.89,3.02 7.71,1.17 2.07,-2.1 0.687,-6.72 -1.48,-8.73 -1.93,-1.79 -6.11,-2.66 -7.87,-0.701 z"
             style="fill:#fe3b00;stroke:#fe3b00;stroke-width:0.602px"
             id="path60" />
          <path
             d="m -460,480 c -2.02,2.39 -0.258,7.29 2.19,9.14 2.28,1.72 6.9,2.39 8.58,0.0728 1.79,-2.46 -0.497,-6.79 -2.9,-8.65 -2.08,-1.61 -6.17,-2.56 -7.87,-0.557 z"
             style="fill:#ea1e0e;stroke:#fe3b00;stroke-width:0.602px"
             id="path62" />
          <path
             d="m -437,497 c -2.65,2.86 -0.66,8.9 2.27,11.5 2.41,2.11 7.47,3.03 9.59,0.631 2.46,-2.8 0.59,-8.44 -2.14,-11 -2.39,-2.21 -7.5,-3.53 -9.71,-1.14 z"
             style="fill:#ea1e0e;stroke:#ea1e0e;stroke-width:0.602px"
             id="path64" />
          <path
             d="m -500,440 c -2.18,2.02 -1.08,6.8 1.07,8.85 1.93,1.84 6.12,2.49 7.97,0.577 1.81,-1.88 0.908,-5.86 -0.857,-7.79 -1.88,-2.05 -6.14,-3.52 -8.18,-1.64 z"
             style="fill:#fe3b00;stroke:#fe3b00;stroke-width:0.602px"
             id="path66" />
          <path
             d="m -545,466 c -2.03,2.23 -0.276,6.87 2.02,8.83 1.86,1.59 5.71,2.35 7.32,0.504 1.86,-2.14 0.315,-6.4 -1.77,-8.32 -1.87,-1.73 -5.85,-2.89 -7.57,-1.01 z"
             style="fill:#fe3b00;stroke:#fe3b00;stroke-width:0.602px"
             id="path68" />
          <path
             d="m -508,523 c -2.55,-2.68 -8.25,-4.9 -10.8,-2.27 -2.76,2.78 -0.386,8.85 2.52,11.5 2.48,2.24 7.65,3.55 9.96,1.14 2.41,-2.52 0.767,-7.81 -1.64,-10.3 z"
             style="fill:#ea1e0e;stroke:#ea1e0e;stroke-width:0.602px"
             id="path70" />
          <path
             d="m -533,450 c -2.74,2.41 -1.28,8.14 1.12,10.9 2.08,2.38 6.81,4.28 9.21,2.23 2.77,-2.36 1.53,-8.12 -0.838,-10.9 -2.11,-2.47 -7.05,-4.38 -9.49,-2.23 z"
             style="fill:#ff6e31;stroke:#ff6e31;stroke-width:0.524px"
             id="path72" />
          <path
             d="m -525,493 c -1.75,1.54 -0.82,5.2 0.714,6.96 1.33,1.52 4.35,2.74 5.89,1.43 1.77,-1.51 0.978,-5.19 -0.535,-6.96 -1.35,-1.58 -4.51,-2.8 -6.07,-1.43 z"
             style="fill:#ff6e31;stroke:#ff6e31;stroke-width:0.335px"
             id="path74" />
          <path
             d="m -544,508 c -3.07,2.7 -1.44,9.12 1.25,12.2 2.33,2.67 7.63,4.8 10.3,2.5 3.11,-2.64 1.71,-9.1 -0.938,-12.2 -2.37,-2.77 -7.9,-4.91 -10.6,-2.5 z"
             style="fill:#ff6e31;stroke:#ff6e31;stroke-width:0.587px"
             id="path76" />
          <path
             d="m -438,471 c -3.07,2.7 -1.44,9.12 1.25,12.2 2.33,2.67 7.63,4.8 10.3,2.5 3.11,-2.64 1.71,-9.1 -0.938,-12.2 -2.37,-2.77 -7.9,-4.91 -10.6,-2.5 z"
             style="fill:#ff6e31;stroke:#ff6e31;stroke-width:0.587px"
             id="path78" />
          <path
             d="m -466,526 c -2.13,1.87 -0.996,6.32 0.868,8.46 1.61,1.85 5.29,3.33 7.16,1.74 2.15,-1.83 1.19,-6.31 -0.651,-8.46 -1.64,-1.92 -5.48,-3.4 -7.38,-1.74 z"
             style="fill:#ff6e31;stroke:#ff6e31;stroke-width:0.407px"
             id="path80" />
        </g>
      </g>
    </g>
    <g
       transform="matrix(-0.238,0,0,0.238,31.9,-31.3)"
       id="g129">
      <g
         id="015---Tomato"
         transform="matrix(3.86,0,0,3.86,122,212)"
         style="fill:none">
        <path
           id="Shape"
           d="m -64.6,96 c 0.414,-1.64 0.685,-3.31 0.81,-5 0.373,-5.45 -1.56,-10.8 -5.33,-14.8 0.211,-0.0981 0.311,-0.342 0.23,-0.56 -0.35,-1.26 -1.7,-2.54 -4.79,-3.67 -0.49,-0.18 -0.96,-0.34 -1.41,-0.48 2.02,-1.79 3.68,-3.94 4.89,-6.35 0.0894,-0.188 0.056,-0.412 -0.0846,-0.565 -0.141,-0.154 -0.36,-0.207 -0.555,-0.135 -2.69,1.06 -9.5,3.44 -14.2,2.46 0.159,-1.49 0.537,-2.96 1.12,-4.34 0.02,-0.05 0.05,-0.11 0.07,-0.16 0.0483,-0.138 0.072,-0.284 0.07,-0.43 0,-1.1 -1.34,-2 -3,-2 -1.17,-0.107 -2.3,0.474 -2.9,1.49 -0.0177,0.0349 -0.0311,0.0719 -0.04,0.11 -0.797,1.75 -1.24,3.64 -1.3,5.56 -4.35,-0.04 -9.39,-1.81 -11.6,-2.69 -0.195,-0.0717 -0.413,-0.0176 -0.552,0.137 -0.139,0.154 -0.17,0.377 -0.0778,0.563 1.21,2.41 2.87,4.57 4.9,6.35 -0.45,0.14 -0.92,0.3 -1.42,0.48 -3.09,1.13 -4.44,2.41 -4.79,3.67 -0.0781,0.199 0.003,0.426 0.19,0.53 -3.78,3.97 -5.71,9.34 -5.34,14.8 0.94,12.2 8.08,19.1 20.6,19.9 z"
           fill="#e64c3c" />
        <path
           d="m -51.8,100 c -0.89,11.6 -7.99,17.8 -20.4,17.8 h -0.06 c -7.75,-0.01 -13.4,-2.44 -16.8,-7.08 -2.18,-3.17 -3.42,-6.88 -3.59,-10.7 -0.0614,-0.769 -0.0681,-1.54 -0.02,-2.31 0.0609,-1.06 0.938,-1.89 2,-1.89 h 36.9 c 1.07,0.0022 1.94,0.836 2,1.9 0.0431,0.766 0.0364,1.53 -0.02,2.3 z"
           fill="#e64c3c"
           id="path89" />
        <path
           d="m -61.6,100 c 1.58,0.002 3.05,0.815 3.89,2.15 0.84,1.335 0.936,3.01 0.254,4.44 -2.39,4.96 -7.28,7.4 -14.8,7.41 h -0.06 c -7.49,-0.015 -12.4,-2.45 -14.8,-7.41 -0.683,-1.42 -0.588,-3.1 0.252,-4.44 0.84,-1.34 2.31,-2.15 3.89,-2.15 1.56,0.035 3.01,0.831 3.88,2.13 1.21,1.7 3.79,2.87 6.79,2.87 3,0 5.58,-1.17 6.79,-2.87 0.866,-1.3 2.31,-2.1 3.88,-2.13 z"
           fill="#fb7b76"
           id="path91" />
        <path
           d="m -96,106 c -0.122,1.2e-4 -0.242,-0.0223 -0.356,-0.066 -5.24,-2 -8.56,-6.02 -9.85,-11.9 -0.0859,-0.525 0.254,-1.02 0.773,-1.14 0.519,-0.114 1.04,0.199 1.18,0.712 1.16,5.3 3.97,8.73 8.61,10.5 0.452,0.171 0.716,0.641 0.629,1.12 -0.0874,0.475 -0.502,0.82 -0.985,0.819 z"
           fill="#ffffff"
           id="path93" />
        <path
           d="m -72.6,85.2 c 0.0209,0.218 -0.102,0.424 -0.304,0.509 -0.202,0.0848 -0.435,0.0286 -0.576,-0.139 -2.31,-2.81 -4.6,-3.28 -9.57,-5.76 -0.991,-0.478 -1.92,-1.08 -2.75,-1.8 -0.652,-0.566 -1.03,-1.39 -1.03,-2.25 -0.0026,-1.45 1,-2.71 2.42,-3.03 h 0.01 c 0.217,-0.049 0.438,-0.0725 0.66,-0.07 h 0.09 c 1.83,0.05 4.25,0.93 6.88,4.03 0.3,0.33 0.58,0.69 0.87,1.07 1.74,2.14 2.88,4.71 3.3,7.44 z"
           fill="#4fba6f"
           id="path95" />
        <path
           d="m -90.7,71 c -1.05,-0.65 -3.21,-0.88 -7.64,0.56 -2.03,-1.78 -3.69,-3.94 -4.9,-6.35 -0.0918,-0.186 -0.0609,-0.409 0.0778,-0.563 0.1387,-0.154 0.357,-0.208 0.552,-0.137 2.22,0.88 7.26,2.65 11.6,2.69 -0.0497,1.27 0.051,2.55 0.3,3.8 z"
           fill="#4fba6f"
           id="path97" />
        <path
           d="m -69.1,76.2 c -0.107,0.0451 -0.225,0.059 -0.34,0.04 -2.43,-0.298 -4.9,-0.138 -7.27,0.47 -2.63,-3.1 -5.05,-3.98 -6.88,-4.03 h -0.09 c -0.01,-0.96 0.6,-3.79 8.6,-1.19 h 0.01 c 0.45,0.14 0.92,0.3 1.41,0.48 3.09,1.13 4.44,2.41 4.79,3.67 0.0812,0.218 -0.019,0.462 -0.23,0.56 z"
           fill="#4c8056"
           id="path99" />
        <path
           d="m -70.2,65.1 c -1.21,2.41 -2.87,4.56 -4.89,6.35 h -0.01 c -8,-2.6 -8.61,0.23 -8.6,1.19 -0.222,-0.0025 -0.443,0.021 -0.66,0.07 h -0.01 c -0.688,-1.87 -0.921,-3.87 -0.68,-5.85 4.71,0.98 11.5,-1.4 14.2,-2.46 0.195,-0.0722 0.415,-0.019 0.555,0.135 0.141,0.154 0.174,0.377 0.0846,0.565 z"
           fill="#4fba6f"
           id="path101" />
        <path
           d="m -83.8,62 c 0.002,0.146 -0.0217,0.292 -0.07,0.43 -0.02,0.05 -0.05,0.11 -0.07,0.16 -0.617,0.965 -1.72,1.51 -2.86,1.41 -1.66,0 -3,-0.9 -3,-2 -4.16e-4,-0.136 0.0198,-0.27 0.06,-0.4 0.0089,-0.0381 0.0223,-0.0751 0.04,-0.11 0.597,-1.02 1.73,-1.6 2.9,-1.49 1.66,0 3,0.9 3,2 z"
           fill="#4c8056"
           id="path103" />
        <path
           d="m -86.8,75.8 c -0.0028,0.863 -0.378,1.68 -1.03,2.25 -0.837,0.719 -1.76,1.32 -2.76,1.8 -4.96,2.48 -7.25,2.95 -9.57,5.76 -0.141,0.167 -0.374,0.223 -0.576,0.139 -0.202,-0.0848 -0.325,-0.291 -0.304,-0.509 0.427,-2.73 1.57,-5.3 3.31,-7.44 0.3,-0.39 0.59,-0.76 0.89,-1.1 2.63,-3.07 5.03,-3.95 6.86,-4 0.0668,-0.0019 0.134,0.0014 0.2,0.01 1.67,0.0499 2.99,1.42 2.98,3.09 z"
           fill="#4fba6f"
           id="path105" />
        <path
           d="m -89.8,72.7 c -0.0663,-0.0086 -0.133,-0.0119 -0.2,-0.01 -1.83,0.05 -4.23,0.93 -6.86,4 -2.35,-0.587 -4.78,-0.736 -7.18,-0.44 -0.131,0.0207 -0.265,-0.004 -0.38,-0.07 -0.187,-0.104 -0.268,-0.331 -0.19,-0.53 0.35,-1.26 1.7,-2.54 4.79,-3.67 0.5,-0.18 0.97,-0.34 1.42,-0.48 4.43,-1.44 6.59,-1.21 7.64,-0.56 0.615,0.369 0.983,1.04 0.96,1.76 z"
           fill="#4c8056"
           id="path107" />
        <path
           d="m -84.4,72.8 c -1.42,0.319 -2.42,1.58 -2.42,3.03 0.0105,-1.67 -1.31,-3.04 -2.98,-3.09 0.0228,-0.717 -0.345,-1.39 -0.96,-1.76 -0.249,-1.25 -0.35,-2.53 -0.3,-3.8 0.0611,-1.92 0.503,-3.81 1.3,-5.56 -0.0402,0.13 -0.0604,0.264 -0.06,0.4 0,1.1 1.34,2 3,2 1.14,0.098 2.24,-0.445 2.86,-1.41 -0.583,1.38 -0.961,2.85 -1.12,4.34 -0.241,1.98 -0.0079,3.98 0.68,5.85 z"
           fill="#24ae5f"
           id="path109" />
        <circle
           id="Oval"
           cx="-106"
           cy="91"
           r="1"
           fill="#ffffff" />
        <g
           transform="translate(-110,59)"
           fill="#f3d55b"
           id="g124">
          <path
             d="m 26,48 c -0.404,-8.6e-5 -0.769,-0.244 -0.924,-0.617 -0.155,-0.373 -0.0692,-0.804 0.217,-1.09 l 2,-2 c 0.392,-0.379 1.02,-0.374 1.4,0.0122 0.386,0.386 0.391,1.01 0.0122,1.4 l -2,2 c -0.187,0.188 -0.442,0.293 -0.707,0.293 z"
             id="path112" />
          <path
             d="m 30,51 c -0.346,-1.85e-4 -0.668,-0.18 -0.85,-0.474 -0.182,-0.295 -0.199,-0.663 -0.0438,-0.973 l 1,-2 c 0.247,-0.494 0.848,-0.695 1.34,-0.448 0.492,0.247 0.695,0.848 0.448,1.34 l -1,2 c -0.17,0.339 -0.517,0.554 -0.896,0.553 z"
             id="path114" />
          <path
             d="m 49,48 c -0.265,-5.7e-5 -0.52,-0.105 -0.707,-0.293 l -2,-2 c -0.379,-0.392 -0.374,-1.02 0.0122,-1.4 0.386,-0.386 1.01,-0.391 1.4,-0.0122 l 2,2 c 0.286,0.286 0.371,0.716 0.217,1.09 -0.155,0.374 -0.519,0.617 -0.924,0.617 z"
             id="path116" />
          <path
             d="m 45,51 c -0.381,0.0021 -0.73,-0.212 -0.9,-0.553 l -1,-2 c -0.247,-0.494 -0.0463,-1.1 0.448,-1.34 0.494,-0.247 1.1,-0.0463 1.34,0.448 l 1,2 c 0.155,0.309 0.138,0.676 -0.0428,0.971 -0.181,0.294 -0.502,0.475 -0.847,0.476 z"
             id="path118" />
          <path
             d="m 35,52 c -0.552,0 -1,-0.448 -1,-1 v -2 c 0,-0.552 0.448,-1 1,-1 0.552,0 1,0.448 1,1 v 2 c 0,0.552 -0.448,1 -1,1 z"
             id="path120" />
          <path
             d="m 40,52 c -0.552,0 -1,-0.448 -1,-1 v -2 c 0,-0.552 0.448,-1 1,-1 0.552,0 1,0.448 1,1 v 2 c 0,0.552 -0.448,1 -1,1 z"
             id="path122" />
        </g>
        <path
           d="m -92.8,97.9 c -0.0481,0.77 -0.0414,1.54 0.02,2.31 0.17,3.84 1.41,7.55 3.59,10.7 -0.88,-0.06 -1.74,-0.14 -2.56,-0.26 -1.79,-3.15 -2.82,-6.68 -3.02,-10.3 -0.0694,-0.868 -0.0794,-1.74 -0.03,-2.61 0.136,-2.11 1.89,-3.75 4,-3.75 h 26.6 c -0.12,0.69 -0.26,1.35 -0.43,2 h -26.2 c -1.06,9e-4 -1.94,0.83 -2,1.89 z"
           fill="#c03a2b"
           id="path126" />
      </g>
    </g>
    <g
       transform="matrix(0.188,0,0,0.188,83.1,64.5)"
       id="g179">
      <g
         transform="matrix(0.485,0,0,0.485,-567,98.4)"
         id="g177">
        <path
           d="m 125,220 c -0.401,-5.06 -0.601,-10.2 -0.601,-15.3 0,-107 86.8,-182 194,-182 107.2,0 194,75 194,182 0,91.2 -63,168 -148,188"
           style="fill:#ffa91f"
           id="path131" />
        <path
           d="m 198,220 c -0.401,-5.06 -0.601,-10.2 -0.601,-15.3 0,-94.6 67.7,-164 157,-179 -11.8,-1.98 -24,-3.01 -36.5,-3.01 -107,0 -194,75 -194,182 0,5.15 0.2,10.3 0.601,15.3 l 151,180 c 16.8,-4.1 -9.66,-57 5.09,-65.1 z"
           style="fill:#e2901a"
           id="path133" />
        <path
           d="m 0,293 c 0,108 87.7,196 196,196 108.3,0 196,-87.7 196,-196"
           style="fill:#ffa91f"
           id="path135" />
        <path
           d="m 330,71.8 c 0,-6.7 -5.43,-12.1 -12.1,-12.1 -6.67,0 -12.1,5.43 -12.1,12.1 0,6.67 5.43,6.23 12.1,6.23 6.67,0 12.1,0.466 12.1,-6.23 z"
           style="fill:#b25719"
           id="path137" />
        <path
           d="M 66.4,293 H 0 c 0,108 87.7,196 196,196 11.3,0 22.4,-0.973 33.2,-2.82 -92.4,-15.8 -163,-96.2 -163,-193 z"
           style="fill:#e2901a"
           id="path139" />
        <ellipse
           cx="196"
           cy="293"
           rx="196"
           ry="78.099998"
           style="fill:#fce275"
           id="ellipse141" />
        <path
           d="m 116,240 72.6,40.5 v -47.9 c -25.2,0.4 -49.9,2.96 -72.6,7.42 z"
           style="fill:#ffc522"
           id="path143" />
        <path
           d="m 189,354 v -47.9 l -72.6,40.5 c 22.7,4.46 47.4,7.02 72.6,7.42 z"
           style="fill:#ffc522"
           id="path145" />
        <path
           d="m 203,233 v 47.9 l 72.6,-40.5 c -22.7,-4.46 -47.4,-7.02 -72.6,-7.42 z"
           style="fill:#ffc522"
           id="path147" />
        <path
           d="m 225,285 h 148 c -5.35,-7.55 -17.6,-18 -39.6,-27.8 -10.8,-4.78 -22.8,-8.95 -35.8,-12.4 z"
           style="fill:#ffc522"
           id="path149" />
        <path
           d="M 166,285 93.9,244.8 c -13,3.49 -25.1,7.66 -35.8,12.4 -22,9.78 -34.2,20.2 -39.6,27.8 h 148 z"
           style="fill:#ffc522"
           id="path151" />
        <path
           d="M 166,301 H 18 c 5.35,7.55 17.6,18 39.6,27.8 10.8,4.78 22.8,8.95 35.8,12.4 z"
           style="fill:#ffc522"
           id="path153" />
        <path
           d="m 225,301 72.1,40.2 c 13,-3.49 25.1,-7.66 35.8,-12.4 22,-9.78 34.2,-20.2 39.6,-27.8 z"
           style="fill:#ffc522"
           id="path155" />
        <path
           d="m 203,306 v 47.9 c 25.2,-0.398 50,-2.96 72.6,-7.42 z"
           style="fill:#ffc522"
           id="path157" />
        <path
           d="m 342,65.9 c 0.601,1.21 0.721,2.81 0.338,4.3 -0.397,1.45 -1.12,2.87 -2.03,4.03 -1.81,2.4 -4.18,4.15 -6.63,5.51 -4.96,2.72 -10.4,3.79 -15.8,3.84 -5.4,-0.034 -10.9,-1.11 -15.8,-3.83 -2.46,-1.36 -4.82,-3.12 -6.63,-5.51 -0.906,-1.16 -1.63,-2.59 -2.03,-4.04 -0.383,-1.49 -0.259,-3.09 0.347,-4.3 0.694,1.22 1.57,1.98 2.44,2.56 0.965,0.546 1.85,0.973 2.88,1.27 1.97,0.634 4.03,1.02 6.13,1.29 2.1,0.264 4.2,0.457 6.32,0.585 2.13,0.103 4.26,0.15 6.4,0.178 2.14,-0.02 4.27,-0.065 6.4,-0.166 2.12,-0.13 4.23,-0.312 6.32,-0.582 2.09,-0.276 4.16,-0.66 6.13,-1.3 1.03,-0.301 1.91,-0.73 2.88,-1.28 0.872,-0.59 1.74,-1.36 2.43,-2.57 z"
           style="fill:#e2901a"
           id="path159" />
        <path
           d="m 431,309 c -3.6,0 -6.6,-3.1 -6.48,-6.7 0.125,-3.6 3.29,-6.51 6.91,-6.26 3.5,0.238 6.25,3.33 6.04,6.84 -0.196,3.38 -3.08,6.12 -6.47,6.12 z"
           style="fill:#e2901a"
           id="path161" />
        <path
           d="m 80,404 c -3.53,0 -6.49,-2.96 -6.48,-6.48 0.007,-3.79 3.4,-6.85 7.17,-6.44 3.46,0.377 6.07,3.5 5.78,6.98 -0.283,3.32 -3.12,5.94 -6.46,5.94 z"
           style="fill:#e2901a"
           id="path163" />
        <path
           d="m 272,151 c -3.7,0 -6.7,-3.23 -6.47,-6.91 0.215,-3.48 3.31,-6.24 6.79,-6.05 3.25,0.18 5.93,2.78 6.15,6.05 0.249,3.67 -2.79,6.91 -6.47,6.91 z"
           style="fill:#e2901a"
           id="path165" />
        <path
           d="m 301,404 c -3.4,0 -6.28,-2.73 -6.47,-6.12 -0.205,-3.58 2.68,-6.72 6.26,-6.84 3.54,-0.114 6.59,2.74 6.7,6.29 0.103,3.6 -2.87,6.67 -6.48,6.67 z"
           style="fill:#e2901a"
           id="path167" />
        <path
           d="m 217,452 c -3.8,0 -6.88,-3.44 -6.44,-7.21 0.401,-3.49 3.63,-6.08 7.13,-5.71 3.2,0.343 5.7,3.04 5.79,6.26 0.11,3.6 -2.88,6.67 -6.48,6.67 z"
           style="fill:#e2901a"
           id="path169" />
        <path
           d="m 301,431 c -3.39,0 -6.28,-2.75 -6.47,-6.13 -0.196,-3.41 2.43,-6.48 5.83,-6.81 3.62,-0.354 6.9,2.45 7.11,6.08 0.211,3.65 -2.81,6.86 -6.47,6.86 z"
           style="fill:#e2901a"
           id="path171" />
        <path
           d="m 450,158 c -3.52,0 -6.49,-2.95 -6.48,-6.48 0.008,-3.16 2.35,-5.89 5.46,-6.4 3.55,-0.585 6.98,1.99 7.45,5.55 0.502,3.82 -2.57,7.33 -6.42,7.33 z"
           style="fill:#e2901a"
           id="path173" />
        <path
           d="m 424,184 c -3.68,0 -6.72,-3.22 -6.47,-6.91 0.246,-3.62 3.53,-6.42 7.14,-6.02 3.33,0.364 5.92,3.29 5.8,6.66 -0.119,3.45 -3.03,6.27 -6.48,6.27 z"
           style="fill:#e2901a"
           id="path175" />
      </g>
    </g>
  </g>
</svg>
