<svg
   xmlns="http://www.w3.org/2000/svg"
   width="512"
   height="512">
  <rect fill="#80c904" height="512" width="512"/>
  <g
     id="kuze"
     transform="matrix(0.47121317,0,0,0.38461262,-5199.0911,-4575.7829)">
    <path
       fill="#9a4121"
       d="m 11179.01,12429.446 c 2.416,-10.763 6.095,-26.751 9.85,-40.167 3.755,-13.415 30.525,-80.559 33.247,-81.031 192.243,86.25 597.736,42.934 617.677,38.986 1.228,0.446 2.211,1.286 3.032,2.306 0.821,1.021 1.481,2.222 2.064,3.391 8.814,17.678 13.464,38.637 16.198,60.041 2.734,21.404 3.552,43.251 4.701,62.705 1.921,32.54 0.979,64.948 -1.518,97.268 -2.497,32.32 -6.55,64.552 -10.85,96.738 -12.141,90.879 -34.418,180.073 -65.867,265.925 -31.449,85.852 -72.07,168.362 -120.902,245.872 -0.946,1.502 -1.919,3.03 -3.032,4.416 -1.114,1.385 -2.369,2.628 -3.88,3.559 -1.753,1.08 -3.715,1.658 -5.753,1.975 -2.038,0.317 -4.152,0.373 -6.211,0.408 -37.937,0.65 -75.927,-0.277 -113.733,-3.284 -37.806,-3.007 -75.428,-8.091 -112.629,-15.758 -10.594,-2.194 -28.119,-6.526 -42.256,-14.147 -14.137,-7.621 -24.885,-18.532 -21.923,-33.883 0.473,-2.452 1.386,-4.806 2.224,-7.17 0.838,-2.364 1.601,-4.738 1.775,-7.229 0.362,-5.187 -1.765,-9.774 -4.986,-13.892 -3.22,-4.118 -7.534,-7.767 -11.543,-11.078 -21.622,-17.856 -39.564,-38.726 -55.07,-61.394 -15.506,-22.668 -28.576,-47.133 -40.456,-72.179 -30.668,-64.654 -55.964,-134.231 -71.891,-205.624 -15.927,-71.393 -22.482,-144.602 -15.669,-216.52 1.417,-14.956 3.364,-29.862 5.838,-44.68 2.474,-14.818 5.474,-29.548 8.997,-44.152 0.206,-0.855 0.536,-2.321 0.97,-4.265 0.434,-1.944 0.974,-4.368 1.596,-7.137 z"
       id="kuz1" />
    <path
       fill="#7e3a1a"
       d="m 11824.485,12755.615 c 9.765,-49.741 17.279,-99.862 22.7,-150.247 5.42,-50.385 8.75,-101.033 10.151,-151.828 0.614,-22.298 -1.56,-44.664 -6.378,-66.443 -4.82,-21.779 -1.21,-19.906 -11.174,-39.863 40.816,-4.222 111.893,-16.225 111.893,-16.225 3.114,-0.258 13.407,39.463 18.758,61.769 5.352,22.306 10.148,45.847 11.046,50.527 9.657,50.326 12.936,101.609 11.053,152.771 -1.882,51.161 -8.926,102.2 -19.917,152.042 -5.574,25.276 -12.188,50.32 -19.766,75.069 -7.58,24.75 -16.123,49.205 -25.559,73.304 -15.884,40.567 -34.418,83.734 -58.183,123.366 -23.766,39.632 -52.763,75.727 -89.575,102.15 -0.99,0.711 -2.003,1.435 -2.909,2.251 -0.906,0.816 -1.707,1.726 -2.269,2.806 -1.006,1.931 -1.106,4.057 -0.886,6.24 0.221,2.182 0.763,4.421 1.042,6.582 0.753,5.82 -0.579,11.603 -3.268,16.818 -2.688,5.215 -12.162,11.897 -16.837,15.443 -36.578,14.992 -61.441,20.253 -103.144,19.32 29.16,-52.757 64.413,-114.573 88.752,-166.055 19.889,-42.942 36.456,-87.208 50.325,-132.329 13.867,-45.124 25.041,-91.101 34.145,-137.468 z"
       id="kuz2" />
  </g>
  <g
     id="dar"
     transform="matrix(0.49831682,0,0,0.45283965,-5512.9558,-5404.837)">
    <path
       id="dar1"
       d="m 11833.706,12326.112 c -0.01,-0.04 -0.02,-0.09 -0.03,-0.13 -0.01,-0.04 -0.02,-0.09 -0.03,-0.13 -2.347,-10.237 -6.068,-25.125 -12.336,-37.95 -6.268,-12.825 -15.084,-23.588 -27.619,-25.574 -4.928,-0.78 -10.416,-0.519 -15.922,-0.02 -5.506,0.502 -11.032,1.244 -16.037,1.425 -10.652,0.583 -21.344,0.871 -32.038,1.04 -10.695,0.169 -21.393,0.219 -32.058,0.328 -69.209,0.703 -138.87,-1.79 -208.101,-8.573 -69.231,-6.783 -138.032,-17.858 -205.52,-34.318 -3.18,-0.776 -6.35,-1.489 -9.545,-1.937 -3.195,-0.448 -6.415,-0.629 -9.695,-0.341 -1.014,1.408 -1.912,2.954 -3.039,4.228 -1.127,1.274 -2.484,2.276 -4.418,2.597 -0.555,0.441 -1.109,0.883 -1.664,1.324 -0.555,0.441 -1.109,0.883 -1.664,1.324 -12.158,9.673 -25.731,17.229 -39.063,25.341 -13.332,8.112 -26.423,16.781 -37.615,28.68 -9.262,9.847 -16.165,20.997 -19.006,32.854 -2.841,11.857 -1.619,24.422 5.367,37.099 1.747,3.169 3.943,6.147 6.54,8.607 2.597,2.46 5.595,4.401 8.945,5.495 1.877,0.613 3.82,0.948 5.783,1.087 1.963,0.139 3.948,0.08 5.908,-0.09 10.532,-0.933 20.262,-5.004 29.368,-10.627 9.105,-5.624 17.586,-12.801 25.619,-19.948 1.967,-1.75 4.008,-3.546 6.2,-4.987 2.192,-1.441 4.534,-2.527 7.102,-2.858 4.881,-0.629 9.322,1.357 13.22,4.404 3.897,3.047 7.25,7.155 9.955,10.771 3.948,5.277 8.418,9.924 13.19,14.209 4.772,4.285 9.848,8.209 15.006,12.04 4.377,3.25 9.003,5.272 13.84,6.193 4.838,0.92 9.887,0.738 15.112,-0.422 4.98,-1.105 9.874,-2.457 14.658,-4.141 4.784,-1.685 9.456,-3.702 13.991,-6.138 4.701,-2.525 9.563,-4.553 14.533,-6.253 4.97,-1.7 10.048,-3.073 15.181,-4.287 6.451,-1.526 12.541,-1.506 18.299,-0.05 5.758,1.461 11.184,4.363 16.307,8.599 0.566,0.468 1.102,0.978 1.638,1.485 0.537,0.507 1.075,1.012 1.647,1.471 4.148,3.327 8.173,6.811 12.329,10.12 4.156,3.309 8.442,6.442 13.112,9.068 6.935,3.899 14.046,7.096 21.38,9.58 7.335,2.484 14.893,4.254 22.723,5.3 9.013,1.204 17.843,1.412 26.482,0.258 8.639,-1.154 17.086,-3.67 25.333,-7.914 5.873,-3.022 11.406,-6.586 16.826,-10.331 5.421,-3.745 10.728,-7.672 16.15,-11.42 2.104,-1.455 4.242,-2.871 6.414,-4.224 2.172,-1.353 4.38,-2.644 6.624,-3.847 3.13,-1.678 6.314,-2.823 9.616,-3.326 3.302,-0.503 6.721,-0.363 10.32,0.53 2.487,0.616 4.927,1.274 7.32,2.064 2.393,0.79 4.736,1.712 7.032,2.858 8.486,4.235 16.966,8.482 25.456,12.709 8.489,4.227 16.988,8.434 25.51,12.588 3.93,1.915 7.871,3.829 11.85,5.645 3.979,1.815 7.995,3.532 12.073,5.053 5.558,2.073 11.266,2.963 17.032,3.276 5.766,0.312 11.59,0.05 17.38,-0.193 10.764,-0.445 20.804,-2.718 30.061,-6.861 9.257,-4.143 17.73,-10.157 25.361,-18.083 3.065,-3.183 5.94,-6.563 8.789,-9.97 2.849,-3.408 5.673,-6.843 8.637,-10.138 2.069,-2.301 3.926,-4.895 6.076,-7.126 2.15,-2.231 4.595,-4.102 7.84,-4.957 0.258,-0.33 0.517,-0.66 0.775,-0.99 0.258,-0.33 0.516,-0.661 0.774,-0.992 0,-3.519 0.07,-6.912 -0.06,-10.292 -0.129,-3.382 -0.455,-6.749 -1.228,-10.217 z"
       fill="#fcb431" />
    <path
       id="dar2"
       d="m 11262.734,12220.392 c -65.945,-25.376 -44.253,-105.699 3.415,-119.999 8.115,-2.262 16.447,-3.412 24.857,-3.978 8.41,-0.566 16.896,-0.549 25.32,-0.478 41.756,0.352 83.48,1.825 125.202,3.414 41.722,1.589 83.441,3.295 125.185,4.113 20.812,0.408 41.633,0.604 62.45,0.455 20.817,-0.149 41.631,-0.644 62.428,-1.615 18.797,-0.878 38.915,-1.142 58.913,-2.185 19.998,-1.043 39.875,-2.864 58.188,-6.857 3.181,-0.694 8.642,-1.364 13.933,-1.204 5.291,0.16 10.411,1.151 12.91,3.78 1.682,1.769 2.898,3.872 3.858,6.12 0.96,2.248 1.663,4.642 2.322,6.993 2.957,10.554 5.55,21.262 7.372,32.071 1.822,10.809 2.871,21.72 2.741,32.68 -0.171,14.42 -2.705,28.533 -7.545,41.79 -4.84,13.257 -11.985,25.657 -21.377,36.652 -9.254,10.834 -21.335,13.847 -34.244,14.272 -12.909,0.424 -26.646,-1.74 -39.214,-1.261 -12.109,0.462 -24.222,0.815 -36.337,1.053 -12.115,0.238 -24.232,0.359 -36.35,0.356 -24.291,0 -48.582,-0.486 -72.854,-1.439 -24.272,-0.953 -48.526,-2.378 -72.743,-4.275 -25.627,-2.007 -51.213,-4.541 -76.736,-7.6 -25.523,-3.059 -50.983,-6.644 -76.358,-10.752 -18.854,-3.052 -38.35,-5.839 -57.801,-9.233 -19.452,-3.394 -38.859,-7.394 -57.535,-12.873 z m 74.594,-79.73 c 0.31,5.418 2.283,9.959 4.942,14.132 2.658,4.173 6.002,7.979 9.05,11.924 2.74,3.545 5.552,7.035 8.389,10.506 2.837,3.47 5.7,6.92 8.542,10.386 2.994,3.65 6.206,7.058 9.713,10.119 3.507,3.061 7.308,5.775 11.48,8.037 1.939,1.051 3.928,1.9 5.918,2.122 1.989,0.221 3.979,-0.185 5.918,-1.643 0.854,-2.223 1.027,-4.297 0.715,-6.242 -0.312,-1.946 -1.11,-3.763 -2.198,-5.475 -2.982,-4.69 -5.907,-9.43 -8.922,-14.104 -3.015,-4.674 -6.121,-9.281 -9.464,-13.707 -2.912,-3.856 -6.124,-7.484 -9.412,-11.057 -3.287,-3.572 -6.65,-7.089 -9.864,-10.72 -0.71,-0.802 -1.35,-1.665 -1.972,-2.545 -0.622,-0.88 -1.224,-1.776 -1.859,-2.645 -3.977,-5.438 -7.233,-8.104 -10.49,-7.963 -3.255,0.14 -6.511,3.087 -10.486,8.875 z m 9.11,57.443 c 0.928,-1.187 1.416,-2.539 1.527,-3.922 0.111,-1.383 -0.155,-2.796 -0.735,-4.103 -0.944,-2.129 -2.009,-4.214 -3.153,-6.257 -1.144,-2.043 -2.366,-4.046 -3.624,-6.012 -0.965,-1.508 -2.012,-2.981 -3.128,-4.399 -1.116,-1.418 -2.301,-2.783 -3.542,-4.073 -3.384,-3.52 -6.784,-7.028 -10.223,-10.496 -3.439,-3.468 -6.918,-6.895 -10.461,-10.254 -1.473,-1.396 -3.388,-1.632 -5.03,-1.029 -1.642,0.603 -3.012,2.047 -3.394,4.01 -0.586,3.013 -0.549,5.876 0.14,8.579 0.689,2.703 2.029,5.248 4.048,7.624 1.281,1.508 2.485,3.083 3.694,4.651 1.21,1.569 2.426,3.132 3.731,4.617 3.231,3.673 6.549,7.262 10.129,10.552 3.58,3.291 7.422,6.284 11.7,8.765 1.208,0.701 2.432,1.537 3.782,1.998 1.352,0.461 2.828,0.547 4.539,-0.251 z"
       fill="#ffc431" />
    <path
       id="dar3"
       d="m 11800.944,12260.598 c 1.546,0.687 3.119,1.437 4.738,1.85 1.619,0.412 3.284,0.489 5.013,-0.17 2.375,-0.906 4.794,-1.22 7.23,-1.356 2.436,-0.136 4.886,-0.1 7.325,-0.294 4.125,-0.335 8.25,-0.718 12.366,-1.16 4.117,-0.443 8.226,-0.945 12.32,-1.52 6.137,-0.861 12.261,-1.805 18.382,-2.769 6.121,-0.965 12.239,-1.949 18.364,-2.892 9.053,-1.393 16.389,-2.775 23.508,-2.54 7.12,0.236 14.024,2.088 22.212,7.163 11.648,7.218 24.098,16.504 34.674,27.174 10.576,10.67 19.276,22.726 23.42,35.485 5.817,17.907 -1.37,31.186 -14.181,40.104 -12.81,8.919 -31.245,13.477 -47.925,13.945 -9.234,0.258 -18.471,-0.413 -27.591,-1.799 -9.119,-1.385 -18.12,-3.487 -26.883,-6.088 -8.469,-2.513 -16.495,-5.995 -24.527,-9.469 -8.033,-3.474 -16.071,-6.94 -24.562,-9.424 -0.292,-0.08 -0.588,-0.174 -0.867,-0.289 -0.279,-0.116 -0.54,-0.26 -0.759,-0.457 -0.45,-0.403 -0.644,-0.938 -0.704,-1.515 -0.06,-0.578 0.01,-1.198 0.09,-1.771 0.876,-6.216 0.68,-12.438 -0.324,-18.564 -1.004,-6.126 -2.815,-12.155 -5.168,-17.986 -1.031,-2.555 -2.125,-5.159 -3.306,-7.726 -1.181,-2.568 -2.45,-5.099 -3.832,-7.512 -1.465,-2.557 -3.393,-4.843 -5.286,-7.148 -1.893,-2.305 -3.748,-4.628 -5.069,-7.257 -0.288,-0.573 -0.547,-1.162 -0.831,-1.738 -0.284,-0.577 -0.591,-1.14 -0.976,-1.664 -0.641,-0.872 -1.476,-1.607 -2.294,-2.352 -0.817,-0.744 -1.618,-1.499 -2.19,-2.411 -1.089,-1.738 -0.784,-2.975 0.111,-3.978 0.895,-1.004 2.38,-1.774 3.654,-2.575 0.645,-0.217 1.29,-0.433 1.934,-0.65 0.645,-0.217 1.287,-0.43 1.932,-0.647 z"
       fill="#f0a02a" />
    <path
       id="dar4"
       d="m 11958.309,12148.97 c 8.297,10.225 13.893,21.508 15.498,33.594 1.605,12.085 -0.783,24.971 -8.454,38.402 -7.459,13.058 -18.628,19.624 -31.149,23.862 -12.521,4.239 -26.395,6.149 -39.263,9.899 -2.862,0.834 -5.817,1.343 -8.798,1.769 -2.98,0.425 -5.986,0.765 -8.949,1.262 -6.105,1.02 -12.202,2.087 -18.303,3.132 -6.101,1.044 -12.205,2.067 -18.323,3 -4.081,0.623 -8.176,1.167 -12.28,1.647 -4.103,0.479 -8.214,0.894 -12.326,1.256 -2.431,0.214 -4.875,0.171 -7.302,0.319 -2.427,0.148 -4.839,0.488 -7.206,1.469 -1.724,0.714 -3.383,0.632 -4.997,0.184 -1.613,-0.447 -3.181,-1.26 -4.722,-2.004 0.552,-0.961 1.078,-1.938 1.62,-2.906 0.542,-0.969 1.097,-1.926 1.708,-2.848 2.682,-4.048 5.526,-8.005 8.284,-12.008 2.758,-4.004 5.43,-8.054 7.768,-12.289 11.138,-20.171 15.275,-43.484 14.243,-66.806 -1.032,-23.322 -7.235,-46.652 -16.775,-66.857 -0.605,-1.282 -1.111,-2.611 -1.618,-4.032 -0.508,-1.421 -1.019,-2.934 -1.635,-4.585 2.255,-0.367 4.28,-0.696 6.189,-1.006 1.908,-0.31 3.702,-0.602 5.496,-0.894 19.216,-3.125 46.613,1.215 73.168,11.22 26.555,10.008 52.27,25.68 68.126,45.22 z"
       fill="#fcb431" />
    <path
       id="darlak1"
       d="m 11337.328,12140.662 c 3.975,-5.788 7.231,-8.735 10.487,-8.876 3.256,-0.141 6.513,2.525 10.49,7.963 0.635,0.868 1.238,1.765 1.859,2.645 0.622,0.88 1.262,1.743 1.972,2.545 3.214,3.631 6.577,7.148 9.864,10.72 3.287,3.572 6.499,7.201 9.412,11.057 3.343,4.426 6.448,9.034 9.464,13.707 3.016,4.673 5.94,9.414 8.922,14.104 1.088,1.711 1.885,3.529 2.198,5.475 0.312,1.946 0.139,4.019 -0.715,6.242 -1.939,1.458 -3.929,1.864 -5.918,1.643 -1.989,-0.221 -3.979,-1.07 -5.918,-2.122 -4.172,-2.263 -7.973,-4.977 -11.48,-8.037 -3.507,-3.061 -6.719,-6.469 -9.713,-10.119 -2.842,-3.465 -5.705,-6.916 -8.542,-10.386 -2.837,-3.47 -5.649,-6.96 -8.389,-10.506 -3.049,-3.945 -6.392,-7.751 -9.05,-11.924 -2.659,-4.172 -4.633,-8.714 -4.943,-14.131 z"
       fill="#fcb22e" />
    <path
       id="darlak2"
       d="m 11346.438,12198.105 c -1.712,0.798 -3.187,0.712 -4.537,0.251 -1.35,-0.461 -2.574,-1.297 -3.782,-1.998 -4.278,-2.482 -8.12,-5.474 -11.7,-8.765 -3.58,-3.291 -6.898,-6.879 -10.129,-10.552 -1.306,-1.485 -2.522,-3.048 -3.731,-4.617 -1.21,-1.569 -2.413,-3.144 -3.694,-4.651 -2.019,-2.376 -3.359,-4.921 -4.048,-7.624 -0.689,-2.703 -0.726,-5.566 -0.14,-8.579 0.382,-1.964 1.752,-3.407 3.394,-4.01 1.642,-0.603 3.557,-0.367 5.03,1.029 3.543,3.358 7.022,6.786 10.461,10.254 3.439,3.468 6.839,6.976 10.223,10.496 1.241,1.291 2.426,2.655 3.542,4.073 1.116,1.418 2.163,2.891 3.128,4.399 1.258,1.966 2.481,3.968 3.624,6.012 1.143,2.044 2.209,4.128 3.153,6.257 0.58,1.308 0.846,2.721 0.735,4.103 -0.111,1.382 -0.601,2.735 -1.529,3.922 z"
       fill="#fcb22e" />
  </g>
  <path
     fill="#f4e8d7"
     d="m 265.40218,270.34305 c -7.89839,-9.25004 42.20848,-40.04684 59.22954,-40.32158 17.02072,-0.2751 55.81201,129.39666 12.36734,138.32168 -18.62879,3.82814 -118.54465,10.23492 -193.70443,-1.06432 -15.7078,-2.36169 -16.47023,-40.20342 -6.8568,-54.65938 12.90734,-19.41432 42.34773,-13.65279 62.2538,-6.37555 44.46045,16.25386 73.65393,29.06544 85.54516,10.91686 9.27482,-14.15576 -10.93555,-37.56733 -18.83461,-46.81771 z"
     id="be"
     style="stroke-width:0.339612" />
  <ellipse
     fill="#f4e8d7"
     id="noq"
     cx="259.8812"
     cy="421.44305"
     rx="33.410366"
     ry="32.366295"
     style="stroke-width:0.339612" />
  <path
  id="tanH"
  fill="#c18142"
     d="m 223.41066,147.39876 c -3.13759,-0.18979 -5.96141,-0.36063 -9.09901,-0.55042 -83.13055,-5.29314 -114.09369,-14.30399 -115.333447,-14.64332 -2.479477,-0.67871 -3.030597,-2.03387 -1.722073,-2.88001 1.31619,-0.97781 4.15528,-1.07044 6.63478,-0.39173 0.61986,0.16969 30.97079,8.87913 110.97141,13.85075 72.14901,4.62883 124.38567,5.14511 155.57761,4.78493 34.02341,-0.32111 49.26869,-4.15311 53.53649,-5.13908 1.51994,-0.23106 1.58362,-0.5934 2.18258,0.39365 0.60025,0.98916 0.0703,1.87286 -1.33603,2.67583 -1.40614,0.80297 -18.08651,5.98362 -52.73738,6.26676 -30.24304,0.28545 -80.27571,-0.22971 -148.67493,-4.36736 z"
      />
  <path
  id="tanVL"
  fill="#c18142"
     d="m 146.12106,280.23006 h 0.84447 c 2.25188,-0.22512 3.94081,-2.02616 3.65932,-4.05227 0,-0.45025 -6.47422,-37.37094 -6.75571,-62.58507 -0.28149,-24.989 18.85966,-68.88859 19.14113,-69.33886 0.84444,-1.80098 -0.28149,-3.82712 -2.81483,-4.50249 -2.25194,-0.67539 -4.78531,0.22511 -5.62977,2.25126 -0.84444,1.80101 -19.98558,45.7006 -19.70409,71.81524 0.28149,25.66436 6.7557,63.03529 7.03719,63.48555 0.28149,1.80102 2.25186,2.92664 4.22229,2.92664 z"
     />
  <path
    id="tanVR"
  fill="#c18142"
     d="m 175.11422,283.37902 h 0.563 c 2.53336,-0.21304 4.22231,-1.70421 3.94081,-3.62144 0,-0.63907 -6.19274,-56.87805 -5.91124,-79.24581 0.2815,-22.79384 -2.81489,-56.45201 -2.81489,-56.66504 -0.28148,-1.91725 -2.25187,-3.19539 -4.78526,-3.19539 -2.53337,0.21302 -4.22229,1.70418 -4.22229,3.62142 0,0.42608 2.81486,33.65819 2.81486,56.23901 -0.28153,22.79382 5.62974,77.54158 5.91125,79.8849 0.28151,1.70418 1.97038,2.98235 4.22231,2.98235 z"/>
</svg>
