<svg width="128" height="128" version="1.1" viewBox="0 0 128 128" xml:space="preserve" xmlns="http://www.w3.org/2000/svg">
<path d="m106 40.4h-85.2c-3.35 0-6.09 2.73-6.09 6.09v54.8c0 3.36 2.73 6.09 6.09 6.09h85.2c3.36 0 6.09-2.73 6.09-6.09v-54.8c0-3.35-2.73-6.09-6.09-6.09z" style="fill:#035000;stroke-width:.19"/>
<rect x="15" y="52.5" width="97.4" height="18.3" style="fill:#ffc300;stroke-width:.19"/>
<g transform="matrix(.19 0 0 .19 15 16)">
	<path d="m144 384h-64c-8.83 0-16-7.17-16-16s7.17-16 16-16h64c8.83 0 16 7.17 16 16s-7.17 16-16 16z" style="fill:#fafafa"/>
	<path d="m512 286v-126c0-17.6-14.3-32-32-32h-256v32c0 100 38.1 161 136 218 7.23 4.13 15.5 6.3 23.8 6.3s16.6-2.18 23.9-6.37c48.5-27.9 82.3-57 104-91.4z" style="fill:#fafafa"/>
</g>
<path d="m111 31.5-21.3-9.13c-0.773-0.329-1.63-0.329-2.4 0l-21.3 9.13c-1.11 0.475-1.84 1.58-1.84 2.79v12.2c0 16.7 6.19 26.5 22.8 36.1 0.469 0.268 0.992 0.402 1.52 0.402 0.524 0 1.05-0.134 1.52-0.402 16.6-9.56 22.8-19.4 22.8-36.1v-12.2c0-1.22-0.724-2.32-1.84-2.79z" style="fill:#32d74b;stroke-width:.19"/>
<path d="m85.1 61.7h-0.128c-0.968-0.0426-1.86-0.542-2.4-1.35l-6.09-9.13c-0.931-1.4-0.554-3.29 0.846-4.22 1.39-0.925 3.28-0.56 4.22 0.846l3.78 5.67 9.57-12c1.05-1.31 2.97-1.52 4.28-0.475 1.31 1.05 1.52 2.96 0.475 4.28l-12.2 15.2c-0.578 0.712-1.45 1.13-2.37 1.13z" style="fill:#fafafa;stroke-width:.19"/>















</svg>
