<svg width="128" height="128" data-name="Layer 1" version="1.1" viewBox="0 0 128 128" xmlns="http://www.w3.org/2000/svg"><g transform="matrix(.266 0 0 .266 -4.1 -4.67)"><path d="m274 254a7.23 7.23 0 0 0-0.12-1.33h0.01l0.01-0.01c0.01 0 0.01-0.01 0.02-0.01 1.03-0.68 26.4-16.8 83.4 0.06 58.3 17.2 36.4-19.8 72.4-18.3s65.9 26.8 65.9 26.8-41.6 68.6-79.6 57.4-61.6-30-82.9-41.5c-21-11.4-60.1-17.6-61.3-17.8a0.077 0.077 0 0 0-0.03-0.01l-0.01-0.01a7.48 7.48 0 0 0 1.51-2.25 7.67 7.67 0 0 0 0.64-3.07z" fill="#a674b2"/><path d="m293 237c14.3-9.48 33.1-24.4 39.9-40.6a40.8 40.8 0 0 0 2.23-6.69s71.3-53.3 110-27.3a4.95 4.95 0 0 1 2.16 4.92c-10.2 60.9-72.1 69.7-116 69.7-43.6 0-56.8 14.6-57.4 15.3-0.01 0-0.01 0.01-0.02 0.01a50.4 50.4 0 0 1 1.58-4.9 205 205 0 0 0 17.6-10.5z" fill="#9f6fa8"/><path d="m269 261a7.55 7.55 0 0 0 3.07-1.97l0.01 0.01a0.077 0.077 0 0 1 0.03 0.01c0.96 0.49 27.6 14.1 42.9 42.8 15.6 29.2 62.3 53.1 79.9 61.4 8.76 4.13 8.76 10.8 6.57 16.5a12.2 12.2 0 0 1-15.3 7.03c-12-3.96-36-10.2-69.7-10.9-49.7-0.97-57.5-55.5-49.7-76.4 7.59-20.6-2.63-37.9-2.96-38.5a7.46 7.46 0 0 0 2.72 0.5 7.54 7.54 0 0 0 2.48-0.41z" fill="#9f6fa8"/><path d="m276 247a50.4 50.4 0 0 0-1.58 4.9l-0.01 0.01h-0.01a7.68 7.68 0 0 0-6.73-6.31v-0.01s7.32-23.5 3.59-58c-3.64-33.6-10.8-136 74.9-144a6.96 6.96 0 0 1 7.52 6.51c0.4 6.2 1.23 16 2.92 26.7 5.16 32.5-5.52 65-28.9 95.5q-1.65 2.16-3.39 4.3-4.76 5.88-10.2 11.6c-17.8 19.1-28 36.2-33.6 47.9-2.11 4.38-3.56 7.97-4.53 10.6z" fill="#a674b2"/><path d="m331 425a2.24 2.24 0 0 1-0.48 2.58l-0.9 0.88a2.26 2.26 0 0 1-3.33-0.14c-14.3-17.5-98.2-37.2-120-42.8-17.8-4.68-41.7-6.45-50.7-6.97a2.23 2.23 0 0 1-1.8-3.33l7.44-13.2a2.25 2.25 0 0 1 3.25-0.72c4.82 3.43 19.4 11.9 53.1 19 42.2 8.85 104 26.7 113 44.8z" fill="#de5742"/><path d="m279 464a2.26 2.26 0 0 1-0.48 2.58l-0.91 0.89a2.27 2.27 0 0 1-3.33-0.14c-11.1-13.6-64-28.5-97.3-37.1 5.01-1.62 10.2-3.25 15.4-4.82h0.01c37.9 9.68 79.4 24.1 86.6 38.6z" fill="#e75163"/><path d="m264 246a7.48 7.48 0 0 0-2.43 1.49 7.64 7.64 0 0 0-2.42 4.41c-9.23-19.9-32.9-51.1-83.1-66-25.4-7.52-46.6-15.2-31.3-28.5a36.6 36.6 0 0 1 7.71-5.08 51.5 51.5 0 0 0 22.6-21.5c6.92-12.8 21.3-24.5 49.5-1.1 40.3 33.4 34.3 50.3 42.9 116a7.56 7.56 0 0 0-0.83-0.04 7.74 7.74 0 0 0-2.73 0.5z" fill="#9f6fa8"/><path d="m261 259a7.74 7.74 0 0 0 2.78 1.83c-0.12 0.51-4.41 19-14.5 19.5-10.2 0.49-23.9 12.7-34.1 29.7s-24.8 11.2-33.1 8.77-37 10.7-37-2.92a98 98 0 0 0-0.99-14.3 55.2 55.2 0 0 1 2.84-27.7c20.4-53.4 112-20.2 112-20.2a7.62 7.62 0 0 0 0.83 3.47 7.72 7.72 0 0 0 1.35 1.9z" fill="#a674b2"/><path d="m176 421c34.2-11.3 70.3-19.6 83-12.2a2.23 2.23 0 0 1 1.03 2.41l-0.26 1.24a2.27 2.27 0 0 1-2.85 1.73c-11.2-3.46-38.1 2.9-64.4 10.8h-0.01c-5.19 1.57-10.4 3.2-15.4 4.82-18.8 6.09-35.5 12.2-43.5 14.9-17.4 5.95-38.3 17.7-46 22.2a2.23 2.23 0 0 1-3.35-1.76l-1.09-15.1a2.23 2.23 0 0 1 2.3-2.39c5.92 0.18 22.8-0.85 54.7-13.6 6.72-2.68 14-5.47 21.6-8.19 4.64-1.66 9.39-3.29 14.2-4.87z" fill="#cf4239"/><path d="m90 385c-8.71-0.91-15.9-1.58-20.4-2.07-18.3-1.98-42.2-0.16-51.1 0.66a2.23 2.23 0 0 1-2.28-3.02l5.4-14.1a2.24 2.24 0 0 1 3.1-1.19c5.28 2.67 21 8.86 55.3 10.8 6.38 0.36 13.2 0.86 20.3 1.5 3.51 0.31 7.07 0.66 10.7 1.04q3.39 0.36 6.79 0.77c35.8 4.24 72.3 12 80.7 24.1a2.24 2.24 0 0 1-0.09 2.62l-0.76 1.01a2.25 2.25 0 0 1-3.31 0.36c-11.6-10.6-56.5-17.1-90.3-20.9-3.57-0.4-7.03-0.78-10.3-1.13-1.25-0.13-2.48-0.25-3.67-0.37z" fill="#e75163"/><path d="m188 347v1.27a2.26 2.26 0 0 1-2.43 2.27c-12.7-1.16-42.4 13.7-68.4 28.2q-3.4-0.4-6.79-0.77c3.32-3.74 6.74-7.52 10.2-11.2l0.01-0.01c28.2-15.6 53.3-26 65.9-21.9a2.24 2.24 0 0 1 1.51 2.15z" fill="#cf4239"/><path d="m170 324a2.26 2.26 0 0 1-1.57 2.94c-10.9 2.63-29.7 20.5-47.7 39.9l-0.01 0.01c-3.44 3.72-6.86 7.5-10.2 11.2-3.59-0.38-7.15-0.73-10.7-1.04v-0.01c24.2-28.1 52.4-55.6 67.6-55.8a2.25 2.25 0 0 1 2.12 1.55z" fill="#de5742"/><path d="m166 419c3.18 0.67 6.48 1.39 9.86 2.16-4.78 1.58-9.53 3.21-14.2 4.87-2.76-0.7-5.13-1.31-7.02-1.8-17.8-4.68-41.7-6.45-50.7-6.98a2.22 2.22 0 0 1-1.81-3.32l7.45-13.2a2.23 2.23 0 0 1 3.24-0.72c4.83 3.42 19.4 11.9 53.1 19z" fill="#e75163"/><path d="m104 386v0.03c-11.2 12.9-20.7 24.4-25.6 30.2-11.9 14-23.9 34.8-28.2 42.6a2.22 2.22 0 0 1-3.78 0.19l-8.65-12.4a2.23 2.23 0 0 1 0.76-3.23c5.18-2.87 19.1-12.4 40.1-39.6 0.83-1.08 1.68-2.18 2.55-3.29l0.01-0.01c3.89-5 8.11-10.2 12.5-15.6 3.27 0.35 6.73 0.73 10.3 1.13z" fill="#de5742"/><path d="m90 385c1.19 0.12 2.42 0.24 3.67 0.37-4.41 5.32-8.63 10.6-12.5 15.6l-0.01 0.01c-3.49 2.11-7.18 4.24-9.39 5.56-15.8 9.42-33.8 25.2-40.5 31.3a2.22 2.22 0 0 1-3.63-1.04l-4.19-14.5a2.24 2.24 0 0 1 1.76-2.82c5.82-1.05 22.1-5.53 50.7-24.6 5-3.34 8.43-6.25 14-9.76z" fill="#cf4239"/><path d="m295 187c-3.36-31-9.72-121 56.7-140a6.88 6.88 0 0 0-5.8-2.36c-85.7 7.54-78.8 110-75.1 144 3.73 34.5-3.83 58-3.83 58v0.01c4 0.37 6.63 2.97 7.21 5.97h0.01a0.808 0.808 0 0 0 0.01 0.16c0.02-0.1 0.46-1.76 1.58-4.82 0.97-2.63 2.42-6.18 4.53-10.6a175 175 0 0 1 15.7-26.1 181 181 0 0 0-1.01-23.6z" fill="#835e8c"/><path d="m200 185c-25.4-7.52-46.6-15.2-31.3-28.5a36.6 36.6 0 0 1 7.71-5.08 51.5 51.5 0 0 0 22.6-21.5 31.1 31.1 0 0 1 9-10.7c-17.6-7.61-27.6 1.71-33 11.7a51.5 51.5 0 0 1-22.6 21.5 36.6 36.6 0 0 0-7.71 5.08c-15.2 13.2 5.89 21 31.3 28.5 50.2 14.8 73.9 46.1 83.1 66a7.64 7.64 0 0 1 2.42-4.41 7.48 7.48 0 0 1 2.43-1.49 7.74 7.74 0 0 1 2.73-0.5 7.56 7.56 0 0 1 0.83 0.04c-1.03-7.82-1.85-14.9-2.57-21.5-13.6-15-34.4-30.1-64.9-39.2z" fill="#7e5987"/><path d="m169 315a98 98 0 0 0-0.99-14.3 55.2 55.2 0 0 1 2.84-27.7c6.94-18.2 22.1-26.3 39.1-29.1-25.3-1.54-53 3.6-63.1 30.1a55.2 55.2 0 0 0-2.84 27.7 98 98 0 0 1 0.99 14.3c0 9.73 14.6 5.81 26 3.66a5.49 5.49 0 0 1-2.03-4.66z" fill="#85618e"/><g fill="#d8a43d"><path d="m263 256a2.92 2.92 0 0 0-0.076-0.324 2.98 2.98 0 0 0-0.917-1.32 2.99 2.99 0 0 0-3.23-4.14 223 223 0 0 0-25.1 5.92c-18.9 5.55-33.8 12.5-44.5 20.6a3 3 0 0 0 3.62 4.79c15.9-12 39.7-19.2 54.2-22.7-9.9 4.58-23.9 12.2-34.3 22.7a3 3 0 1 0 4.24 4.24c10.2-10.2 24.5-17.8 34-22.1a95.9 95.9 0 0 0-7.46 7.17 3 3 0 1 0 4.53 3.94c3.53-4.05 15.3-13.8 15.4-13.9a2.97 2.97 0 0 0-0.352-4.86z"/><path d="m361 261c-48.4-18.9-85.5-11-87.1-10.7a2.9 2.9 0 0 0-2.16 3.94 2.98 2.98 0 0 0-0.83 2.06 3.06 3.06 0 0 0 0.049 0.492 2.97 2.97 0 0 0-1.93 0.639c-0.048 0.038-0.084 0.085-0.128 0.125a2.97 2.97 0 0 0-2.36 4.06c0.118 0.3 11.9 30.3 18.1 50a3 3 0 0 0 5.73-1.79c-3.54-11.3-8.91-25.9-12.9-36.5 7.44 9.98 18.1 24.9 26.4 38.9a3 3 0 0 0 5.17-3.04c-12.4-21-30.1-44.1-34.6-49.9 3.94 0.039 33.8 0.578 53.8 7.82a3 3 0 1 0 2.04-5.64c-10.8-3.92-24.1-5.96-35-7.03a172 172 0 0 1 63.6 12.1 3 3 0 1 0 2.18-5.59z"/><path d="m267 246c-3.71-21.1-15.1-45.7-15.6-46.7a3 3 0 1 0-5.43 2.54 257 257 0 0 1 10.6 27.4c-11.3-19.5-29.7-40.7-30.8-41.9a3 3 0 0 0-4.52 3.95c0.327 0.374 32.7 37.6 37.4 57.3a3 3 0 0 0 2.92 2.3 3.06 3.06 0 0 0 0.7-0.082 2.99 2.99 0 0 0 1.89-1.42 3.27 3.27 0 0 0 0.367-0.032 3 3 0 0 0 2.44-3.47z"/><path d="m382 190a3 3 0 0 0-4.23-0.284c-0.161 0.141-15 12.8-58.1 30.5 2.01-1.94 3.85-3.86 5.55-5.78 10.1-4.26 30.4-17.3 31.3-17.9a3 3 0 0 0-3.25-5.04c-0.148 0.1-10.5 6.74-19.9 12a49.9 49.9 0 0 0 3.2-6.22c3.69-8.73 4.1-15.7 1.24-20.9a13.2 13.2 0 0 0-5.54-5.29 2.99 2.99 0 0 0-4.34 2.21 2.95 2.95 0 0 0 1.53 3.07 7.35 7.35 0 0 1 3.12 2.94c1.89 3.36 1.36 8.75-1.53 15.6-5.02 11.9-17 23.2-28.6 32a79.4 79.4 0 0 0 16.7-36.3 3 3 0 1 0-5.9-1.11c-5.48 30-26.7 45.8-36.5 51.7 15-38.3 15.2-53.6 15.2-54.2a2.99 2.99 0 0 0-2.99-2.99h-0.013a3.01 3.01 0 0 0-3 2.98c0 0.164-0.336 16.9-17.5 58.8a3 3 0 0 0 5.3 2.75l0.377 0.877 3.6 0.493c0.381-0.2 7.73-4.01 17.3-10.3 18.3-2.6 72.5-22 74.8-22.8a3 3 0 1 0-2.03-5.65c-0.409 0.147-29.7 10.6-52.5 17.3 49.5-19.6 65.8-33.6 66.5-34.3a3 3 0 0 0 0.279-4.23z"/></g><path d="m266 261a8.48 8.48 0 0 1-4.56-4.12 8.42 8.42 0 0 1-0.917-3.83 8.58 8.58 0 0 1 0.122-1.42 8.44 8.44 0 0 1 2.67-4.87 8.27 8.27 0 0 1 2.68-1.65 8.56 8.56 0 0 1 3.02-0.552 8.38 8.38 0 0 1 0.916 0.044c0.011 0 0.011 0.011 0.022 0.011a8.49 8.49 0 0 1 7.43 6.97 7.93 7.93 0 0 1 0.133 1.47 8.48 8.48 0 0 1-0.707 3.39 8.49 8.49 0 0 1-10.8 4.56z" fill="#edb740"/></g></svg>
