<svg width="128" height="128" version="1.1" viewBox="0 0 128 128" xml:space="preserve" xmlns="http://www.w3.org/2000/svg">
















<g transform="scale(.266)">
	<path d="m408 128h-16v-14.4c0-4-1.6-8-4.8-11.2l-1.6-1.6c-6.4-5.6-9.6-14.4-9.6-22.4v-22.4h16v22.4c0 4 1.6 8 4.8 11.2l1.6 1.6c6.4 5.6 9.6 14.4 9.6 22.4z" style="fill:#735127"/>
	<path d="m88 144h-16v-31.2c0-8.8-3.2-16.8-9.6-22.4l-0.8-0.8c-8.8-9.6-13.6-21.6-13.6-34.4v-31.2h16v31.2c0 8.8 3.2 16.8 9.6 22.4l0.8 0.8c8.8 8.8 14.4 20.8 14.4 33.6v32z" style="fill:#735127"/>
	<path d="m248 184h-16v-36c0-15.2 5.6-28.8 16.8-39.2l4-4c7.2-7.2 12-17.6 12-28v-20.8h16v20c0 15.2-5.6 28.8-16.8 39.2l-4 4c-7.2 7.2-12 17.6-12 28z" style="fill:#735127"/>
</g><path d="m128 8.52h-9.59c-3.41 0-6.61 1.28-8.95 3.84l-1.07 1.07c-2.34 2.34-5.75 3.84-8.95 3.84h-51.1c-3.41 0-6.61-1.28-8.95-3.84l-1.07-1.07c-2.77-2.56-5.97-3.84-9.38-3.84h-28.8v-8.52h35.2c3.41 0 6.61 1.28 8.95 3.84l1.07 1.07c2.56 2.34 5.75 3.62 9.16 3.62h38.4c3.41 0 6.61-1.28 8.95-3.84l1.07-1.07c2.56-2.34 5.75-3.62 9.16-3.62h16z" style="fill:#a4895a;stroke-width:.266"/><ellipse cx="107" cy="61.8" rx="21.3" ry="29.8" style="fill:#898c27;stroke-width:.266"/><ellipse cx="21.3" cy="66.1" rx="21.3" ry="29.8" style="fill:#52591e;stroke-width:.266"/><ellipse cx="63.9" cy="87.4" rx="32" ry="40.5" style="fill:#bbbf39;stroke-width:.266"/><path d="m42.6 27.7h8.52c7.03 0 12.8 5.75 12.8 12.8h-8.52c-7.03 0-12.8-5.75-12.8-12.8z" style="fill:#06a24b;stroke-width:.266"/><path d="m63.9 42.6h-8.52c-8.31 0-14.9-6.61-14.9-14.9 0-1.28 0.852-2.13 2.13-2.13h8.52c8.31 0 14.9 6.61 14.9 14.9 0 1.28-0.852 2.13-2.13 2.13zm-19-12.8c1.07 4.9 5.33 8.52 10.4 8.52h6.18c-1.07-4.9-5.33-8.52-10.4-8.52z" style="fill:#06a24b;stroke-width:.266"/><path d="m119 21.3v4.26c0 4.69-3.84 8.52-8.52 8.52v-4.26c0-4.69 3.84-8.52 8.52-8.52z" style="fill:#50734d;stroke-width:.266"/><path d="m111 36.2c-1.28 0-2.13-0.852-2.13-2.13v-4.26c0-5.97 4.69-10.7 10.7-10.7 1.28 0 2.13 0.852 2.13 2.13v4.26c0 5.97-4.69 10.7-10.7 10.7zm6.39-12.4c-2.56 0.852-4.26 3.41-4.26 5.97v1.7c2.56-0.852 4.26-3.41 4.26-5.97z" style="fill:#50734d;stroke-width:.266"/><path d="m4.26 29.8h8.52c4.69 0 8.52 3.84 8.52 8.52h-8.52c-4.69 0-8.52-3.84-8.52-8.52z" style="fill:#50734d;stroke-width:.266"/><path d="m21.3 40.5h-8.52c-5.97 0-10.7-4.69-10.7-10.7 0-1.28 0.852-2.13 2.13-2.13h8.52c5.97 0 10.7 4.69 10.7 10.7 0 1.28-0.852 2.13-2.13 2.13zm-14.5-8.52c0.852 2.56 3.41 4.26 5.97 4.26h5.97c-0.852-2.56-3.41-4.26-5.97-4.26z" style="fill:#50734d;stroke-width:.266"/>
















</svg>
