<?xml version="1.0" encoding="UTF-8" standalone="no"?>
<svg
   xmlns:dc="http://purl.org/dc/elements/1.1/"
   xmlns:cc="http://creativecommons.org/ns#"
   xmlns:rdf="http://www.w3.org/1999/02/22-rdf-syntax-ns#"
   xmlns:svg="http://www.w3.org/2000/svg"
   xmlns="http://www.w3.org/2000/svg"
   xmlns:sodipodi="http://sodipodi.sourceforge.net/DTD/sodipodi-0.dtd"
   xmlns:inkscape="http://www.inkscape.org/namespaces/inkscape"
   inkscape:version="1.0 (4035a4f, 2020-05-01)"
   sodipodi:docname="انگور و فرآورده‌های انگور.svg"
   id="svg190"
   viewBox="0 0 33.866666 33.866666"
   version="1.1"
   height="128"
   width="128">
  <metadata
     id="metadata196">
    <rdf:RDF>
      <cc:Work
         rdf:about="">
        <dc:format>image/svg+xml</dc:format>
        <dc:type
           rdf:resource="http://purl.org/dc/dcmitype/StillImage" />
        <dc:title></dc:title>
      </cc:Work>
    </rdf:RDF>
  </metadata>
  <defs
     id="defs194" />
  <sodipodi:namedview
     inkscape:current-layer="svg190"
     inkscape:window-maximized="0"
     inkscape:window-y="0"
     inkscape:window-x="0"
     inkscape:cy="49.684859"
     inkscape:cx="64.910764"
     inkscape:zoom="2.426768"
     inkscape:showpageshadow="false"
     units="px"
     showgrid="false"
     id="namedview192"
     inkscape:window-height="768"
     inkscape:window-width="1366"
     inkscape:pageshadow="2"
     inkscape:pageopacity="0"
     guidetolerance="10"
     gridtolerance="10"
     objecttolerance="10"
     borderopacity="1"
     bordercolor="#666666"
     pagecolor="#ffffff" />
  <g
     id="g188"
     transform="matrix(0.06647445,0,0,0.06647445,-0.11613181,-0.10242216)">
    <g
       id="g126"
       transform="translate(-367,-4.69)">
      <path
         id="path104"
         style="fill:#e1dbd2"
         d="m 680,35.7 99.3,0.595 c 0,0 -0.0158,17.1 0,24.4 25.8,-8.02 55.4,-8.81 76,6.27 27.8,18.5 26,55.4 18.2,69.9 -1.95,3.65 -17.6,-6.22 -17.9,-18.1 0.805,-14.9 -3.64,-41.6 -37.2,-41.7 -28.4,-0.146 -36.4,26.9 -33.8,41.9 -7.32,7.05 46.5,47.9 41.6,48.7 8.72,9.54 16.4,18.2 21.4,29.1 4.53,9.98 8.54,21.2 7.13,32.1 -13.1,101 -42.2,287 -42.2,287 l -165,-0.595 c 0,0 -28.9,-186 -42.2,-285 -0.711,-5.31 0.265,-12.8 1.43,-18.2 1.45,-6.67 3.52,-11.1 6.89,-16.9 7.47,-12.7 14.9,-24.5 26.8,-31.5 14.8,-8.65 26.5,-13.8 33.6,-22.4 4.45,-5.4 5.22,-12.1 6.28,-18.6 4.66,-28.4 0,-86.2 0,-86.2 z" />
      <path
         id="path106"
         style="fill:#d45500"
         d="m 631,170 c 22.7,-18.3 48.5,-21.2 49.7,-51.4 l 104,0.444 c 0.702,8.13 13.2,27.3 36.3,27.7 25.9,0.478 35.1,-21.4 34.9,-27.9 7.81,-0.0215 14.7,-0.0429 22.5,-0.0644 0,0 1.72,12.7 -11.2,27.6 -3.69,4.28 -7.65,8.46 -13.3,12 -10.3,6.46 -20.1,10.6 -27.9,9.3 16.6,14 24.2,33.7 26.6,41.3 4.88,17.3 1.31,28.5 -1.38,48.9 -13,87.7 -38.7,258 -38.7,258 l -165,-0.595 c 0,0 -27.4,-186 -42.7,-282 -0.267,-29.6 7.46,-47.4 26.3,-62.6 z" />
      <path
         id="path108"
         style="fill:#b6aaa0"
         d="m 669,8.17 c 32,0.712 80,0.131 125,0.272 5.39,0.017 13.2,8.27 13.2,16.3 -0.009,8.25 -7.98,16.3 -13.5,16.3 -37.4,0.136 -81.3,0.108 -125,0 -5.5,-0.0136 -14.4,-8.61 -14.4,-16.9 0.0758,-8.26 9.16,-16.2 14.6,-16.1 z" />
      <path
         id="path110"
         style="fill:#d9d2c4"
         d="m 669,8.17 c 32.3,-0.107 80,0.0707 125,0.147 14.4,3.82 8.67,13.9 0.805,15.2 -37.4,0.0734 -82.4,0.187 -126,0.129 -13.2,-3.55 -9.84,-14.6 0.272,-15.4 z" />
      <ellipse
         id="ellipse112"
         style="opacity:0.923;fill:#fc944f"
         ry="16.4"
         rx="16.299999"
         cy="404"
         cx="798" />
      <ellipse
         id="ellipse114"
         style="opacity:0.923;fill:#fc944f"
         ry="10.6"
         rx="10.2"
         cy="465"
         cx="751" />
      <ellipse
         id="ellipse116"
         style="opacity:0.923;fill:#ff9955"
         ry="22.700001"
         rx="22.1"
         cy="333"
         cx="781" />
      <path
         id="path118"
         style="fill:#fc6b00"
         d="m 780,41.3 -0.152,19.4 c -31.8,-1.26 -54.9,1.83 -62.6,11.8 -13.6,17.5 -1.54,37 -14.7,75.5 -4.67,9.36 -16.2,16.9 -25.7,23.6 -28.3,14.6 -45.1,29.2 -42.1,63.2 -3.15,65.8 33.5,195 33.5,195 17.9,78.6 79,57.6 149,56.9 l -4.26,29 -165,-0.588 -42.7,-279 c -0.782,-25 5.37,-48.7 20.6,-61.9 20.9,-17.4 37.9,-19.4 48.7,-37.3 14.2,-23.9 6.13,-95.3 6.13,-95.3 z" />
      <path
         id="path120"
         style="fill:#d9d2c4"
         d="m 780,41.3 -0.152,19.4 c -31.8,-0.0081 -49.9,1.67 -62,12.6 -8.69,10.5 -7.51,32.7 -8.92,45.4 -6.65,0.0854 -23.6,-0.168 -28.6,-0.144 0.799,-6.35 3.36,-55.9 -0.679,-77.5 z" />
      <ellipse
         id="ellipse122"
         style="opacity:0.923;fill:#ff9955"
         ry="23.200001"
         rx="22.6"
         cy="229"
         cx="695" />
      <ellipse
         id="ellipse124"
         style="opacity:0.923;fill:#ff9955"
         ry="13.2"
         rx="12.8"
         cy="304"
         cx="686" />
    </g>
    <g
       id="g184"
       transform="matrix(-0.592,-0.217,-0.217,0.592,397,310)">
      <circle
         id="circle128"
         style="fill:#744eaa"
         r="60.5"
         cy="411"
         cx="451" />
      <path
         id="path130"
         style="fill:#67449e"
         d="m 458,470 c -32.6,-7.58 -52.8,-40.1 -45.2,-72.7 5.68,-24.4 25.4,-41.9 48.6,-45.9 -31.4,-5.4 -61.9,14.5 -69.2,45.9 -7.58,32.6 12.7,65.1 45.2,72.7 8.16,1.9 16.3,2.05 24.1,0.698 -1.16,-0.201 -2.33,-0.426 -3.5,-0.698 z" />
      <path
         id="path132"
         style="fill:#93603e"
         d="m 172,169 c 1.5,0.35 2.98,0.765 4.43,1.22 0.593,-2.53 1.36,-4.98 2.24,-7.36 -60.8,-69.1 -136,-94.5 -164,-101 -5.81,-1.41 -11.4,2.66 -11.9,8.6 l -2.98,37.1 c -0.407,5.07 3.96,9.33 9.01,8.74 63,-7.3 121,24.8 158,52 1.62,0.24 3.25,0.53 4.88,0.909 z" />
      <path
         id="path134"
         style="fill:#7f573c"
         d="M 149,133 C 112.6,109.6 62.6,87.6 9,93.8 5.87,94.163 3,92.66 1.37,90.26 l -1.38,17.2 c -0.407,5.07 3.96,9.33 9.01,8.74 63,-7.3 121,24.8 158,52 1.62,0.241 3.25,0.531 4.88,0.909 1.51,0.35 2.98,0.765 4.43,1.22 0.593,-2.53 1.36,-4.98 2.24,-7.36 -9.7,-11 -19.8,-20.9 -30,-29.8 z" />
      <path
         id="path136"
         style="fill:#3bbc56"
         d="m 83.1,284 c 7.71,-9.39 18.1,-16.3 29.7,-19.6 1.88,2.21 -20.5,-19.9 -12.9,-52.7 5.36,-23 23.3,-39.8 44.8,-44.9 -28.4,-9.37 -69,-11.9 -111,13.9 -3.69,2.23 -4.45,7.28 -1.52,10.4 5.96,6.45 16.8,16.8 31.3,25.3 3.82,2.23 4.34,7.47 1.04,10.4 -12,10.7 -23.2,24.9 -32.3,43.7 -1.88,3.88 0.238,8.53 4.42,9.59 9.28,2.36 28,5.49 46.7,3.86 z" />
      <path
         id="path138"
         style="fill:#30aa44"
         d="m 58.2,280 c -4.18,-1.06 -6.29,-5.71 -4.42,-9.59 9.05,-18.7 20.2,-32.9 32.3,-43.7 3.3,-2.94 2.78,-8.19 -1.04,-10.4 -14.6,-8.5 -25.4,-18.9 -31.3,-25.3 -2.92,-3.17 -2.17,-8.21 1.52,-10.4 20.8,-12.6 41.1,-18.4 59.8,-20 -24.1,-2.06 -52.4,2.29 -81.6,20 -3.69,2.23 -4.45,7.28 -1.52,10.4 5.96,6.45 16.8,16.8 31.3,25.3 3.82,2.23 4.34,7.47 1.04,10.4 -12,10.7 -23.2,24.9 -32.3,43.7 -1.88,3.88 0.238,8.53 4.42,9.59 9.25,2.36 27.9,5.47 46.6,3.87 C 72.7,283.092 63.8,281.41 58.2,280 Z" />
      <path
         id="path140"
         style="fill:#3bbc56"
         d="m 249,125 c 3.42,0.796 6.7,1.88 9.83,3.2 7.7,-11.9 19.4,-20.7 32.8,-24.8 3.43,-23.9 -3.96,-47.9 -7.51,-59 -1.31,-4.11 -6.07,-5.94 -9.84,-3.84 -18.2,10.1 -31.7,22.1 -41.7,34.8 -2.74,3.47 -8.01,3.26 -10.5,-0.415 -9.36,-14 -20.4,-24.2 -27.2,-29.8 -3.34,-2.73 -8.32,-1.68 -10.3,2.14 -23.5,44.6 -17.2,85.5 -5.81,113 11,-26.7 41.1,-42.3 70.1,-35.5 z" />
      <path
         id="path142"
         style="fill:#30aa44"
         d="m 203,52.6 c -2.98,-2.85 -5.71,-5.22 -7.97,-7.07 -3.34,-2.73 -8.32,-1.68 -10.3,2.14 -23.5,44.6 -17.2,85.5 -5.81,113 3.25,-7.88 8.16,-14.8 14.2,-20.4 -5.86,-24.6 -5.9,-55.2 9.91,-88 z" />
      <circle
         id="circle144"
         style="fill:#744eaa"
         r="60.5"
         cy="160"
         cx="308" />
      <path
         id="path146"
         style="fill:#67449e"
         d="m 314,219 c -32.6,-7.58 -52.8,-40.1 -45.2,-72.7 5.68,-24.4 25.4,-41.9 48.6,-45.9 -31.4,-5.4 -61.9,14.5 -69.2,45.9 -7.58,32.6 12.7,65.1 45.2,72.7 8.16,1.9 16.3,2.05 24.1,0.698 -1.16,-0.201 -2.33,-0.427 -3.5,-0.698 z" />
      <circle
         id="circle148"
         style="fill:#744eaa"
         r="60.5"
         cy="357"
         cx="241" />
      <path
         id="path150"
         style="fill:#67449e"
         d="m 248,415 c -32.6,-7.58 -52.8,-40.1 -45.2,-72.7 5.68,-24.4 25.4,-41.9 48.6,-45.9 -31.4,-5.4 -61.9,14.5 -69.2,45.9 -7.58,32.6 12.7,65.1 45.2,72.7 8.16,1.9 16.3,2.05 24.1,0.698 -1.16,-0.201 -2.33,-0.427 -3.5,-0.698 z" />
      <circle
         id="circle152"
         style="fill:#744eaa"
         r="60.5"
         cy="322"
         cx="127" />
      <path
         id="path154"
         style="fill:#67449e"
         d="m 134,381 c -32.6,-7.58 -52.8,-40.1 -45.2,-72.7 5.68,-24.4 25.4,-41.9 48.6,-45.9 -31.4,-5.4 -61.9,14.5 -69.2,45.9 -7.58,32.6 12.7,65.1 45.2,72.7 8.16,1.9 16.3,2.05 24.1,0.698 -1.16,-0.201 -2.33,-0.427 -3.5,-0.698 z" />
      <circle
         id="circle156"
         style="fill:#553788"
         r="60.5"
         cy="181"
         cx="233" />
      <path
         id="path158"
         style="fill:#462e7a"
         d="m 240,240 c -32.6,-7.58 -52.8,-40.1 -45.2,-72.7 5.68,-24.4 25.4,-41.9 48.6,-45.9 -31.4,-5.41 -61.9,14.5 -69.2,45.9 -7.58,32.6 12.7,65.1 45.2,72.7 8.16,1.9 16.3,2.05 24.1,0.695 -1.16,-0.2 -2.32,-0.425 -3.48,-0.695 z" />
      <circle
         id="circle160"
         style="fill:#9266cc"
         r="60.099998"
         cy="240"
         cx="319" />
      <path
         id="path162"
         style="fill:#7b54ba"
         d="m 326,299 c -32.3,-7.52 -52.4,-39.8 -44.9,-72.1 5.63,-24.2 25.1,-41.5 48.1,-45.6 -31.2,-5.42 -61.5,14.4 -68.8,45.6 -7.52,32.3 12.6,64.6 44.9,72.1 8.12,1.89 16.2,2.03 24,0.677 -1.12,-0.195 -2.24,-0.415 -3.37,-0.677 z" />
      <circle
         id="circle164"
         style="fill:#9266cc"
         r="60.099998"
         cy="324"
         cx="412" />
      <path
         id="path166"
         style="fill:#7b54ba"
         d="m 419,383 c -32.3,-7.52 -52.4,-39.8 -44.9,-72.1 5.63,-24.2 25.1,-41.5 48.1,-45.6 -31.2,-5.42 -61.5,14.4 -68.8,45.6 -7.52,32.3 12.6,64.6 44.9,72.1 8.12,1.89 16.2,2.03 24,0.677 -1.12,-0.195 -2.24,-0.415 -3.37,-0.677 z" />
      <circle
         id="circle168"
         style="fill:#9266cc"
         r="60.099998"
         cy="404"
         cx="354" />
      <path
         id="path170"
         style="fill:#7b54ba"
         d="m 361,462 c -32.3,-7.52 -52.4,-39.8 -44.9,-72.1 5.63,-24.2 25.1,-41.5 48.1,-45.6 -31.2,-5.42 -61.5,14.4 -68.8,45.6 -7.52,32.3 12.6,64.6 44.9,72.1 8.12,1.89 16.2,2.03 24,0.677 -1.12,-0.196 -2.25,-0.416 -3.37,-0.677 z" />
      <circle
         id="circle172"
         style="fill:#9266cc"
         r="60.099998"
         cy="225"
         cx="156" />
      <path
         id="path174"
         style="fill:#7b54ba"
         d="m 163,284 c -32.3,-7.52 -52.4,-39.8 -44.9,-72.1 5.63,-24.2 25.1,-41.5 48.1,-45.6 -31.2,-5.42 -61.5,14.4 -68.8,45.6 -7.52,32.3 12.6,64.6 44.9,72.1 8.12,1.89 16.2,2.03 24,0.677 -1.12,-0.195 -2.25,-0.415 -3.37,-0.677 z" />
      <circle
         id="circle176"
         style="fill:#aa8dd8"
         r="60.099998"
         cy="285"
         cx="229" />
      <path
         id="path178"
         style="fill:#987fc9"
         d="m 236,343 c -32.3,-7.52 -52.4,-39.8 -44.9,-72.1 5.63,-24.2 25.1,-41.5 48.1,-45.6 -31.2,-5.42 -61.5,14.4 -68.7,45.6 -7.52,32.3 12.6,64.6 44.9,72.1 8.12,1.89 16.2,2.03 24,0.677 -1.12,-0.195 -2.24,-0.415 -3.37,-0.677 z" />
      <circle
         id="circle180"
         style="fill:#aa8dd8"
         r="60.099998"
         cy="324"
         cx="323" />
      <path
         id="path182"
         style="fill:#987fc9"
         d="m 329,383 c -32.3,-7.52 -52.4,-39.8 -44.9,-72.1 5.63,-24.2 25.1,-41.5 48.1,-45.6 -31.2,-5.42 -61.5,14.4 -68.7,45.6 -7.52,32.3 12.6,64.6 44.9,72.1 8.12,1.89 16.2,2.03 24,0.677 -1.12,-0.195 -2.24,-0.415 -3.37,-0.677 z" />
    </g>
    <path
       id="path186"
       style="fill:#ffffff;stroke-width:10.9"
       d="m 463,246 c 0.625,0.141 1.25,0.226 1.93,0.254 5.99,0.255 11.1,-4.38 11.3,-10.4 1.79,-40.8 -28.6,-65.4 -29.9,-66.5 -4.75,-3.72 -11.5,-2.93 -15.3,1.75 -3.72,4.69 -2.95,11.5 1.72,15.2 0.462,0.371 23.1,19.2 21.8,48.5 -0.239,5.33 3.41,9.93 8.45,11.1 z" />
  </g>
</svg>
