<?xml version="1.0" encoding="UTF-8" standalone="no"?>
<svg
   xmlns:dc="http://purl.org/dc/elements/1.1/"
   xmlns:cc="http://creativecommons.org/ns#"
   xmlns:rdf="http://www.w3.org/1999/02/22-rdf-syntax-ns#"
   xmlns:svg="http://www.w3.org/2000/svg"
   xmlns="http://www.w3.org/2000/svg"
   xmlns:sodipodi="http://sodipodi.sourceforge.net/DTD/sodipodi-0.dtd"
   xmlns:inkscape="http://www.inkscape.org/namespaces/inkscape"
   inkscape:version="1.0 (4035a4f, 2020-05-01)"
   sodipodi:docname="میوه و سبزیجات تازه.svg"
   id="svg88"
   viewBox="0 -18 95.999997 94.499997"
   version="1.1"
   height="126"
   width="128">
  <metadata
     id="metadata94">
    <rdf:RDF>
      <cc:Work
         rdf:about="">
        <dc:format>image/svg+xml</dc:format>
        <dc:type
           rdf:resource="http://purl.org/dc/dcmitype/StillImage" />
        <dc:title></dc:title>
      </cc:Work>
    </rdf:RDF>
  </metadata>
  <defs
     id="defs92" />
  <sodipodi:namedview
     inkscape:current-layer="svg88"
     inkscape:window-maximized="0"
     inkscape:window-y="0"
     inkscape:window-x="0"
     inkscape:cy="46.795764"
     inkscape:cx="137.12813"
     inkscape:zoom="2.6755546"
     inkscape:showpageshadow="false"
     units="px"
     showgrid="false"
     id="namedview90"
     inkscape:window-height="768"
     inkscape:window-width="1366"
     inkscape:pageshadow="2"
     inkscape:pageopacity="0"
     guidetolerance="10"
     gridtolerance="10"
     objecttolerance="10"
     borderopacity="1"
     bordercolor="#666666"
     pagecolor="#ffffff" />
  <g
     id="g86"
     transform="matrix(0.18887241,0,0,0.18887241,-0.31032803,-16.428434)">
    <path
       id="path10"
       style="fill:#ff6e31;stroke:#ff6e31;stroke-width:0.862px"
       d="M 285,84.7 C 272.7,53.9 292.51,3.5 292.51,3.5 l 26.8,32.4 17.8,-34.3 16.9,33.3 27.2,-30 c 0,0 18.2,41.8 7.98,79.3 55.3,14.2 172,140 45.1,260 -78.2,2.28 -128,2.04 -197,1.65 -77.5,-59.9 -77.9,-210 47.6,-261 z" />
    <path
       id="path12"
       style="fill:#ffc2aa;stroke:#ffc2aa;stroke-width:0.862px"
       d="m 334,110 c -57.3,1.11 -121,54 -118,122 2.29,54.4 58.7,119 117,114 58.9,4.77 120,-37.4 122,-116 1.71,-61.4 -47.7,-122 -122,-120 z" />
    <path
       id="path14"
       style="fill:#d6001b;stroke:#d6001b;stroke-width:0.862px"
       d="m 153,435 c -7.62,10.8 -6.63,30.6 5.5,39.2 11.6,8.24 31.2,4.96 39.2,-5.5 7.84,-10.2 5.53,-30.3 -4.55,-38.3 -10.6,-8.37 -31.7,-7.5 -40.2,4.55 z" />
    <path
       id="path16"
       style="fill:#d6001b;stroke:#d6001b;stroke-width:0.862px"
       d="m 254,419 c -7.07,11.2 -7.38,27.3 1.2,35.4 10.4,9.86 32.2,10.9 43.1,-0.957 8.47,-9.22 8.38,-28.5 -0.239,-37.6 -12.7,-13.4 -33.2,-13.9 -44,3.11 z" />
    <path
       id="path18"
       style="fill:#fe3b00;stroke:#fe3b00;stroke-width:0.862px"
       d="m 319,35.9 c -3.89,14.4 -6.33,28.1 -6.23,42.8 -16.3,14.5 -27.5,28.8 -39.7,49.4 -19.4,17.5 -57.3,40 -58.3,105 2.13,36.4 34.7,98.2 94.5,111 l -72.2,0.691 c -31.4,-21 -54.9,-75.6 -54.5,-115 2.71,-67.5 41.5,-122 102,-146 -8.03,-25.4 -2.08,-54.3 7.51,-81.2 z" />
    <path
       id="path20"
       style="fill:#d6001b;stroke:#d6001b;stroke-width:0.862px"
       d="M 262,94.9 C 235,77.9 211.1,74.7 178.9,73 174.82,48.3 165.2,25.3 142.7,0.9 L 129.5,40.4 100.2,15.7 96.36,53.5 59.86,34 c 2.73,34 6.15,53.1 22.8,78.1 0,0 -66.4,59.9 -49.4,145 10.2,51.1 55.9,87.4 55.9,87.4 l 148,0.387 c -28.8,-20.6 -54.6,-72.7 -54.7,-110 2.15,-55 25.4,-109 79.8,-141 z" />
    <path
       id="path22"
       style="fill:#bf0016;stroke:#bf0016;stroke-width:0.862px"
       d="m 146,108 c -0.332,4.65 5.83,8.68 10.4,9.31 5.47,0.739 14.2,-1.86 14.9,-7.35 0.599,-5.42 -7.28,-10 -12.7,-10.3 -5.02,-0.237 -12.2,3.31 -12.6,8.33 z" />
    <path
       id="path24"
       style="fill:#bf0016;stroke:#bf0016;stroke-width:0.862px"
       d="m 201,90 c -6.2,-0.709 -15.9,2.92 -16.3,9.14 -0.467,6.19 8.5,11.1 14.7,11.4 5.64,0.289 13.9,-3.35 14.4,-8.98 0.515,-5.72 -7.03,-10.9 -12.7,-11.6 z" />
    <path
       id="path26"
       style="fill:#bf0016;stroke:#bf0016;stroke-width:0.862px"
       d="m 187,123 c -3.76,-0.201 -9.23,2.14 -9.63,5.88 -0.4,3.67 4.33,7.27 8,7.67 4.17,0.46 10.5,-2.34 10.8,-6.53 0.211,-3.84 -5.31,-6.81 -9.14,-7.02 z" />
    <path
       id="path28"
       style="fill:#bf0016;stroke:#bf0016;stroke-width:0.862px"
       d="m 129,251 c -5.03,0.122 -12.6,3.29 -12.6,8.32 0.0331,4.99 7.61,8.16 12.6,8.08 5.19,-0.0787 13,-3.61 12.8,-8.79 -0.163,-4.97 -7.86,-7.73 -12.8,-7.61 z" />
    <path
       id="path30"
       style="fill:#bf0016;stroke:#bf0016;stroke-width:0.862px"
       d="m 159,274 c -4.38,-0.352 -11.5,1.79 -11.6,6.18 -0.109,4.16 6.54,6.64 10.7,6.42 3.67,-0.197 8.79,-2.98 8.79,-6.65 8.5e-4,-3.28 -4.57,-5.68 -7.84,-5.94 z" />
    <path
       id="path32"
       style="fill:#bf0016;stroke:#bf0016;stroke-width:0.862px"
       d="m 47.3,161 c 21,88.6 68.8,151 144,184 l -102,0.0753 c -52.8,-43.7 -78,-111 -42.1,-184 z" />
    <path
       id="path34"
       style="fill:#6548b4;stroke:#6548b4;stroke-width:0.862px"
       d="m 14.3,347 c 165,-2.2 341,-1.78 483,-1.5 15.4,-0.179 15.1,18.6 0,18.5 -158,1.96 -345,1.88 -483,1 C 0,364.9618 -0.6,347.1 13.8,347 Z" />
    <path
       id="path36"
       style="fill:#573c9e;stroke:#573c9e;stroke-width:0.862px"
       d="m 65.5,365 c 6.45,18.7 17.7,33.5 41.9,36.7 h 307 c 22.8,-2.99 36.5,-19.3 40.5,-37.5 z" />
    <path
       id="path38"
       style="fill:#6f56b9;stroke:#6f56b9;stroke-width:0.862px"
       d="m 144,346 c -12.5,-0.549 -13.2,19.1 -0.229,18.8 l 358,-0.86 c 10.3,0.0393 11.1,-18.6 -0.476,-18.5 z" />
    <path
       id="path40"
       style="fill:#fe3b00;stroke:#fe3b00;stroke-width:0.862px"
       d="m 327,128 c -50.4,0.222 -93.1,54.9 -92.9,101 0.117,45.6 44.4,101 93.4,100 0.823,-53.1 1.48,-133 -0.501,-201 z" />
    <path
       id="path42"
       style="fill:#fe3b00;stroke:#fe3b00;stroke-width:0.862px"
       d="m 346,129 c 50.4,0.222 93.1,54.9 92.9,101 -0.118,45.6 -44.4,101 -93.4,100 -0.823,-53.1 -1.48,-133 0.501,-201 z" />
    <path
       id="path44"
       style="fill:#d6001b;stroke:#d6001b;stroke-width:0.862px"
       d="m 254,186 c -11.6,-1.8 -23.4,6.61 -24.4,18.8 -0.703,8.32 7.44,18.4 15.7,19.5 9.57,1.28 21.9,-6.19 23.5,-17 1.29,-8.56 -5.94,-19.9 -14.8,-21.3 z" />
    <path
       id="path46"
       style="fill:#d6001b;stroke:#d6001b;stroke-width:0.862px"
       d="m 326,253 c -11.4,-9.03 -31.9,-6.13 -40.3,6.14 -6.68,9.79 -5.73,27.7 3.25,35.4 10.5,9.06 32.6,8.25 41.5,-2.35 9.42,-11.2 6.78,-30.3 -4.52,-39.2 z" />
    <path
       id="path48"
       style="fill:#d6001b;stroke:#d6001b;stroke-width:0.862px"
       d="m 348,211 c -10.9,11.7 -8.92,32.9 1.63,42.3 10.6,9.42 33.6,7.64 42.4,-3.43 9.09,-11.3 7.99,-33.2 -5.96,-43.2 -10.4,-7.41 -29.4,-5.01 -38.1,4.34 z" />
    <path
       id="path50"
       style="fill:#d6001b;stroke:#d6001b;stroke-width:0.862px"
       d="m 394,280 c 13.6,9.18 31.6,3.55 39.6,-7.23 9.11,-12.3 5.18,-31.3 -5.47,-39.1 -11.1,-8.03 -32.3,-5.52 -40.4,7.27 -7.33,11.6 -6.01,30.7 6.32,39 z" />
    <path
       id="path52"
       style="fill:#d6001b;stroke:#d6001b;stroke-width:0.862px"
       d="m 303,154 c -7.75,8.85 -4.98,22.1 2.23,28.1 7.14,5.97 21.8,4.34 27.8,-2.79 5.73,-6.83 4.67,-20.8 -2.01,-26.7 -7,-6.19 -21.8,-5.69 -28,1.34 z" />
    <path
       id="path54"
       style="fill:#d6001b;stroke:#d6001b;stroke-width:0.862px"
       d="m 383,149 c -6.67,6.37 -7.58,21 -1.16,27.6 6.76,6.97 22.3,6.62 29.1,-0.335 6.32,-6.49 6.04,-20.8 -0.395,-27.2 -6.53,-6.47 -20.9,-6.48 -27.6,-0.132 z" />
    <path
       id="path56"
       style="fill:#fe3b00;stroke:#fe3b00;stroke-width:0.862px"
       d="m 395,151 c -2.69,2.99 -0.562,9.05 2.34,11.8 2.69,2.57 8.44,4.33 11,1.67 2.96,-3.01 0.984,-9.63 -2.12,-12.5 -2.77,-2.56 -8.75,-3.81 -11.3,-1 z" />
    <path
       id="path58"
       style="fill:#ea1e0e;stroke:#fe3b00;stroke-width:0.862px"
       d="m 373,214 c -2.9,3.42 -0.369,10.4 3.14,13.1 3.27,2.46 9.88,3.42 12.3,0.104 2.56,-3.53 -0.711,-9.72 -4.16,-12.4 -2.98,-2.31 -8.84,-3.67 -11.3,-0.797 z" />
    <path
       id="path60"
       style="fill:#ea1e0e;stroke:#ea1e0e;stroke-width:0.862px"
       d="m 406,239 c -3.79,4.1 -0.945,12.8 3.25,16.4 3.45,3.03 10.7,4.35 13.7,0.903 3.53,-4.01 0.845,-12.1 -3.07,-15.7 -3.42,-3.17 -10.7,-5.05 -13.9,-1.63 z" />
    <path
       id="path62"
       style="fill:#fe3b00;stroke:#fe3b00;stroke-width:0.862px"
       d="m 316,156 c -3.12,2.89 -1.55,9.74 1.53,12.7 2.76,2.63 8.77,3.57 11.4,0.826 2.6,-2.69 1.3,-8.4 -1.23,-11.2 -2.69,-2.94 -8.79,-5.05 -11.7,-2.34 z" />
    <path
       id="path64"
       style="fill:#fe3b00;stroke:#fe3b00;stroke-width:0.862px"
       d="m 251,193 c -2.91,3.19 -0.396,9.83 2.89,12.6 2.66,2.27 8.18,3.36 10.5,0.722 2.66,-3.07 0.451,-9.16 -2.53,-11.9 -2.67,-2.48 -8.38,-4.14 -10.8,-1.44 z" />
    <path
       id="path66"
       style="fill:#ea1e0e;stroke:#ea1e0e;stroke-width:0.862px"
       d="m 305,276 c -3.65,-3.83 -11.8,-7.01 -15.5,-3.25 -3.95,3.99 -0.553,12.7 3.61,16.4 3.55,3.21 11,5.08 14.3,1.63 3.46,-3.61 1.1,-11.2 -2.35,-14.8 z" />
    <path
       id="path68"
       style="fill:#d6001b;stroke:#d6001b;stroke-width:0.862px"
       d="m 214,388 c -9.33,9.84 -10.8,31.6 -0.718,40.7 12.9,11.7 30.9,11.8 42.3,-1.44 9.18,-10.6 11.4,-31.3 -1.2,-42.1 -10.8,-9.24 -31.1,-6.93 -40.4,2.87 z" />
    <path
       id="path70"
       style="fill:#ff6e31;stroke:#ff6e31;stroke-width:0.862px"
       d="m 240,392 c -2.93,2.88 -1.19,9.26 1.67,12.2 2.7,2.78 8.77,4.69 11.5,1.91 2.95,-3.02 0.646,-9.51 -2.39,-12.4 -2.61,-2.52 -8.17,-4.22 -10.8,-1.67 z" />
    <path
       id="path72"
       style="fill:#ff6e31;stroke:#ff6e31;stroke-width:0.862px"
       d="m 272,416 c -3.74,3.68 -1.32,11.8 2.39,15.5 3.71,3.71 11.9,6.13 15.5,2.39 3.63,-3.69 1.03,-11.6 -2.63,-15.3 -3.66,-3.66 -11.6,-6.26 -15.3,-2.63 z" />
    <path
       id="path74"
       style="fill:#ff6e31;stroke:#ff6e31;stroke-width:0.862px"
       d="m 168,438 c -3.9,4.53 -0.277,13.4 4.07,17.5 4.06,3.84 12.5,6.75 16.5,2.87 4.57,-4.42 2,-14.5 -2.63,-18.9 -4.36,-4.12 -14,-5.98 -17.9,-1.44 z" />
    <path
       id="path76"
       style="fill:#ff6e31;stroke:#ff6e31;stroke-width:0.75px"
       d="m 269,172 c -3.93,3.45 -1.84,11.7 1.6,15.6 2.98,3.41 9.75,6.13 13.2,3.2 3.97,-3.38 2.19,-11.6 -1.2,-15.6 -3.03,-3.54 -10.1,-6.27 -13.6,-3.2 z" />
    <path
       id="path78"
       style="fill:#ff6e31;stroke:#ff6e31;stroke-width:0.479px"
       d="m 280,232 c -2.51,2.2 -1.17,7.45 1.02,9.97 1.9,2.18 6.23,3.92 8.43,2.04 2.54,-2.16 1.4,-7.44 -0.767,-9.97 -1.94,-2.26 -6.45,-4.01 -8.69,-2.04 z" />
    <path
       id="path80"
       style="fill:#ff6e31;stroke:#ff6e31;stroke-width:0.84px"
       d="m 253,255 c -4.4,3.86 -2.06,13.1 1.79,17.5 3.33,3.82 10.9,6.87 14.8,3.58 4.45,-3.78 2.46,-13 -1.34,-17.5 -3.39,-3.96 -11.3,-7.03 -15.2,-3.58 z" />
    <path
       id="path82"
       style="fill:#ff6e31;stroke:#ff6e31;stroke-width:0.84px"
       d="m 404,201 c -4.4,3.86 -2.06,13.1 1.79,17.5 3.33,3.82 10.9,6.87 14.8,3.58 4.45,-3.78 2.46,-13 -1.34,-17.5 -3.39,-3.96 -11.3,-7.03 -15.2,-3.58 z" />
    <path
       id="path84"
       style="fill:#ff6e31;stroke:#ff6e31;stroke-width:0.583px"
       d="m 364,280 c -3.05,2.68 -1.43,9.06 1.24,12.1 2.31,2.65 7.57,4.76 10.3,2.49 3.09,-2.62 1.7,-9.04 -0.932,-12.1 -2.35,-2.75 -7.85,-4.87 -10.6,-2.49 z" />
  </g>
</svg>
