<?xml version="1.0" encoding="UTF-8" standalone="no"?>
<svg
   xmlns:dc="http://purl.org/dc/elements/1.1/"
   xmlns:cc="http://creativecommons.org/ns#"
   xmlns:rdf="http://www.w3.org/1999/02/22-rdf-syntax-ns#"
   xmlns:svg="http://www.w3.org/2000/svg"
   xmlns="http://www.w3.org/2000/svg"
   xmlns:sodipodi="http://sodipodi.sourceforge.net/DTD/sodipodi-0.dtd"
   xmlns:inkscape="http://www.inkscape.org/namespaces/inkscape"
   inkscape:version="1.0 (4035a4f, 2020-05-01)"
   sodipodi:docname="محصولات پروتئینی٬ ماهی و میگو.svg"
   id="svg78"
   viewBox="0 0 95.999997 95.999997"
   version="1.1"
   height="128"
   width="128">
  <metadata
     id="metadata84">
    <rdf:RDF>
      <cc:Work
         rdf:about="">
        <dc:format>image/svg+xml</dc:format>
        <dc:type
           rdf:resource="http://purl.org/dc/dcmitype/StillImage" />
        <dc:title></dc:title>
      </cc:Work>
    </rdf:RDF>
  </metadata>
  <defs
     id="defs82" />
  <sodipodi:namedview
     units="px"
     inkscape:current-layer="svg78"
     inkscape:window-maximized="0"
     inkscape:window-y="0"
     inkscape:window-x="0"
     inkscape:cy="74.722623"
     inkscape:cx="16.368547"
     inkscape:zoom="1.5630728"
     inkscape:snap-nodes="false"
     inkscape:showpageshadow="false"
     showgrid="false"
     id="namedview80"
     inkscape:window-height="768"
     inkscape:window-width="1366"
     inkscape:pageshadow="2"
     inkscape:pageopacity="0"
     guidetolerance="10"
     gridtolerance="10"
     objecttolerance="10"
     borderopacity="1"
     bordercolor="#666666"
     pagecolor="#ffffff"
     inkscape:document-rotation="0" />
  <g
     inkscape:export-ydpi="91.290001"
     inkscape:export-xdpi="91.290001"
     inkscape:export-filename="/Users/SaaMoj/Downloads/mahijat.png"
     id="g76"
     transform="matrix(-0.18677253,0,0,0.18677253,96.015529,0.48843048)">
    <path
       id="path10"
       fill="#004ed6"
       d="m 303,46.5 c 0,0 46.5,-23.3 93.1,-23.3 69.8,0 116,46.5 116,116 0,46.6 -46.5,93.1 -46.5,93.1 z" />
    <path
       id="path12"
       fill="#99cefa"
       d="M 7.68,47.7 C 16.56,29.9 33.08,17.1 52.48,12.9 83.68,6.18 93.08,0 186.48,0 c 116,0 303,93.1 303,233 0,139.9 -163,209 -256,209 -69.8,0 -116,-23.3 -116,-23.3 0,0 -16.2,50.7 -45.7,80.6 -12.5,12.8 -31.9,16 -47.9,8 -15.3,-7.59 -24.3,-23.9 -22.5,-40.9 2.41,-22.1 32.9,-57.6 46.3,-71 0,0 -41.1,-22.9 -46.3,-69.8 -2.04,-17.1 6.81,-33.7 22.2,-41.5 14.6,-7.35 32.1,-5.21 44.5,5.4 20.5,17.7 49.4,53.3 49.4,82.6 0,0 209,0 209,-93.1 0,0 -46.5,-46.5 -116,-46.5 -44,0 -174,-2.28 -207,-140 C -0.1,77.4 1.74,61.6 8.68,47.7 Z" />
    <path
       id="path14"
       fill="#c9e5fc"
       d="m 243,88.3 c -6.43,0 -11.6,5.21 -11.6,11.6 0,0.672 0.0586,1.34 0.172,2 0.816,4.75 1.22,9.56 1.2,14.4 0,12.5 -4.31,23.1 -13.2,32.4 -0.105,0.113 -0.207,0.223 -0.305,0.336 -0.113,0.105 -0.223,0.211 -0.328,0.32 -4.11,4.11 -8.71,7.69 -13.7,10.7 -5.51,3.31 -7.29,10.5 -3.98,16 3.3,5.5 10.4,7.29 15.9,3.99 0.438,-0.262 0.879,-0.531 1.33,-0.809 l 0.004,-0.004 0.0586,-0.0352 0.0156,-0.0117 0.0312,-0.0195 0.043,-0.0273 0.0273,-0.0156 0.043,-0.0273 0.0234,-0.0156 0.0469,-0.0273 0.0234,-0.0156 0.0391,-0.0234 0.0273,-0.0195 0.043,-0.0273 0.0273,-0.0156 0.0391,-0.0234 0.0234,-0.0156 0.0508,-0.0352 0.0117,-0.004 0.0703,-0.0469 0.0586,-0.0352 0.008,-0.008 0.0625,-0.0391 0.008,-0.004 0.0625,-0.0391 0.004,-0.004 c 4.32,-2.73 8.41,-5.82 12.2,-9.22 0.0469,-0.043 0.0977,-0.0859 0.145,-0.133 l 0.0742,-0.0625 v -0.004 c 0.0469,-0.043 0.0977,-0.0859 0.141,-0.125 l 0.008,-0.004 c 0.0195,-0.0195 0.0391,-0.0391 0.0625,-0.0586 l 0.0117,-0.0117 0.0586,-0.0508 0.0156,-0.0156 0.0547,-0.0508 0.0195,-0.0195 0.0547,-0.0469 0.0234,-0.0195 0.0508,-0.0469 0.0195,-0.0195 0.0508,-0.0469 0.0273,-0.0234 0.043,-0.0391 0.0312,-0.0312 0.0352,-0.0312 0.0391,-0.0391 0.0312,-0.0273 0.0469,-0.043 0.0234,-0.0195 0.0547,-0.0547 0.0195,-0.0156 0.0625,-0.0586 0.0117,-0.008 c 0.91,-0.848 1.81,-1.73 2.71,-2.64 0.141,-0.145 0.277,-0.289 0.41,-0.438 0.152,-0.148 0.305,-0.297 0.453,-0.449 6.92,-7.14 12.3,-15.7 15.7,-25 v -0.004 c 0.0703,-0.199 0.141,-0.398 0.211,-0.602 0.0352,-0.0977 0.0703,-0.199 0.102,-0.301 l 0.004,-0.004 0.102,-0.297 v -0.008 c 0.0352,-0.0977 0.0664,-0.199 0.102,-0.297 v -0.004 c 0.0352,-0.102 0.0664,-0.203 0.0977,-0.301 l 0.004,-0.008 0.0312,-0.0977 c 0.0234,-0.0703 0.043,-0.137 0.0664,-0.203 v -0.004 c 0.0312,-0.102 0.0625,-0.199 0.0977,-0.301 v -0.0117 c 0.0312,-0.0977 0.0625,-0.199 0.0938,-0.301 l 0.004,-0.008 c 0.008,-0.0312 0.0195,-0.0664 0.0312,-0.0977 0.0195,-0.0703 0.0391,-0.133 0.0586,-0.203 l 0.004,-0.008 c 0.0117,-0.0352 0.0195,-0.0664 0.0312,-0.0977 v -0.004 l 0.0312,-0.0977 v -0.004 c 0.0117,-0.0352 0.0195,-0.0664 0.0312,-0.102 v -0.008 l 0.0312,-0.0977 c 0.0195,-0.0703 0.0391,-0.137 0.0586,-0.203 l 0.004,-0.0117 0.0273,-0.0977 0.0312,-0.105 c 0.0117,-0.0352 0.0195,-0.0664 0.0273,-0.102 l 0.004,-0.008 c 0.0117,-0.0312 0.0195,-0.0664 0.0273,-0.0977 l 0.004,-0.008 0.0273,-0.0977 v -0.004 l 0.0273,-0.0977 0.004,-0.0117 0.0273,-0.0977 0.004,-0.004 0.0273,-0.0977 v -0.008 l 0.0273,-0.0977 0.004,-0.0117 c 0.008,-0.0312 0.0156,-0.0625 0.0273,-0.0977 v -0.008 c 0.0117,-0.0312 0.0195,-0.0625 0.0273,-0.0938 v -0.008 l 0.0273,-0.0938 0.004,-0.0195 0.0273,-0.0938 v -0.008 c 0.0117,-0.0312 0.0195,-0.0625 0.0273,-0.0977 v -0.004 l 0.0273,-0.0977 0.004,-0.0117 0.0273,-0.102 v -0.004 c 0.008,-0.0352 0.0156,-0.0664 0.0273,-0.102 l 0.0273,-0.102 v -0.0117 c 0.0117,-0.0352 0.0195,-0.0664 0.0273,-0.102 0.0117,-0.0352 0.0195,-0.0664 0.0273,-0.102 v -0.008 c 0.0117,-0.0312 0.0195,-0.0625 0.0273,-0.0977 l 0.004,-0.0117 c 0.008,-0.0352 0.0156,-0.0664 0.0234,-0.0977 l 0.004,-0.008 c 0.008,-0.0352 0.0156,-0.0664 0.0234,-0.0977 v -0.008 c 0.008,-0.0312 0.0195,-0.0625 0.0273,-0.0977 l 0.0273,-0.109 v -0.0117 l 0.0234,-0.0938 0.004,-0.0117 0.0273,-0.109 c 0.008,-0.0352 0.0156,-0.0664 0.0234,-0.0977 l 0.004,-0.0117 c 0.008,-0.0312 0.0156,-0.0625 0.0195,-0.0938 l 0.004,-0.008 0.0234,-0.0977 0.004,-0.0156 c 0.008,-0.0312 0.0156,-0.0664 0.0234,-0.0977 l 0.004,-0.0117 c 0.004,-0.0312 0.0117,-0.0586 0.0195,-0.0898 l 0.004,-0.0117 0.0234,-0.0977 0.004,-0.0156 c 0.008,-0.0312 0.0117,-0.0664 0.0195,-0.0977 l 0.004,-0.0117 c 0.008,-0.0312 0.0156,-0.0625 0.0234,-0.0938 v -0.008 l 0.0234,-0.0977 0.004,-0.0195 0.0234,-0.0938 v -0.0117 l 0.0234,-0.0938 0.004,-0.0117 0.0195,-0.0977 0.004,-0.0156 0.0195,-0.0977 0.004,-0.0156 0.0195,-0.0859 0.004,-0.0156 c 0.008,-0.0312 0.0156,-0.0625 0.0195,-0.0938 l 0.008,-0.0234 c 0.004,-0.0312 0.0117,-0.0625 0.0195,-0.0938 l 0.004,-0.0156 c 0.004,-0.0273 0.0117,-0.0547 0.0156,-0.082 l 0.008,-0.0234 0.0195,-0.0898 0.004,-0.0234 0.0195,-0.0938 0.004,-0.0156 0.0195,-0.0898 v -0.0117 l 0.0195,-0.0977 0.008,-0.0234 c 0.004,-0.0312 0.0117,-0.0625 0.0195,-0.0938 v -0.0117 l 0.0195,-0.0898 0.004,-0.0195 c 0.008,-0.0312 0.0117,-0.0625 0.0195,-0.0938 l 0.0234,-0.117 v -0.0117 l 0.0195,-0.0898 0.004,-0.0195 0.0195,-0.0938 0.0234,-0.117 v -0.0117 l 0.0195,-0.0938 0.004,-0.0156 c 0.004,-0.0352 0.0117,-0.0664 0.0195,-0.0977 l 0.004,-0.0195 0.0156,-0.0977 0.004,-0.0117 0.0156,-0.0898 0.004,-0.0195 c 0.008,-0.0312 0.0117,-0.0625 0.0195,-0.0938 l 0.004,-0.0234 c 0.008,-0.0312 0.0117,-0.0625 0.0156,-0.0938 l 0.004,-0.0156 c 0.008,-0.0312 0.0117,-0.0625 0.0156,-0.0898 l 0.0273,-0.137 c 0.004,-0.0312 0.0117,-0.0664 0.0156,-0.0977 l 0.004,-0.0117 0.0156,-0.0938 0.004,-0.0156 0.0156,-0.0977 0.004,-0.0195 c 0.008,-0.0312 0.0117,-0.0664 0.0195,-0.0977 v -0.0117 c 0.008,-0.0312 0.0117,-0.0586 0.0156,-0.0898 l 0.004,-0.0234 c 0.008,-0.0312 0.0117,-0.0625 0.0156,-0.0938 l 0.004,-0.0234 c 0.008,-0.0352 0.0117,-0.0664 0.0195,-0.0977 v -0.0156 c 0.008,-0.0312 0.0117,-0.0586 0.0156,-0.0898 l 0.004,-0.0156 c 0.004,-0.0352 0.0117,-0.0664 0.0156,-0.0977 l 0.004,-0.0234 c 0.008,-0.0352 0.0117,-0.0664 0.0156,-0.0977 l 0.004,-0.0156 0.0156,-0.0898 v -0.0195 c 0.008,-0.0312 0.0117,-0.0625 0.0156,-0.0938 l 0.004,-0.0234 0.0156,-0.0977 0.004,-0.0156 c 0.004,-0.0312 0.008,-0.0586 0.0117,-0.0898 l 0.004,-0.0195 0.0156,-0.0977 0.004,-0.0234 0.0156,-0.0977 0.004,-0.0156 c 0.004,-0.0273 0.008,-0.0586 0.0117,-0.0859 l 0.004,-0.0234 0.0156,-0.0977 0.004,-0.0195 0.0156,-0.102 v -0.0117 l 0.0156,-0.0938 v -0.0156 l 0.0156,-0.0977 0.004,-0.0273 c 0.004,-0.0312 0.008,-0.0664 0.0117,-0.0977 l 0.004,-0.0117 0.0117,-0.0938 0.004,-0.0195 c 0.004,-0.0312 0.0117,-0.0625 0.0156,-0.0977 v -0.0234 l 0.0156,-0.0977 0.004,-0.0156 0.0117,-0.0898 v -0.0234 l 0.0156,-0.0977 0.004,-0.0195 c 0.004,-0.0352 0.008,-0.0703 0.0117,-0.102 v -0.0117 l 0.0156,-0.0938 v -0.0234 l 0.0156,-0.0977 0.004,-0.0195 0.0117,-0.102 v -0.0117 l 0.0117,-0.102 0.004,-0.0117 0.0117,-0.102 0.004,-0.0234 0.0117,-0.102 v -0.008 c 0.004,-0.0352 0.0117,-0.0664 0.0156,-0.0977 v -0.0195 c 0.004,-0.0312 0.008,-0.0664 0.0117,-0.0977 l 0.004,-0.0273 c 0.004,-0.0312 0.008,-0.0664 0.0117,-0.0977 l 0.004,-0.0117 0.008,-0.0977 0.004,-0.0195 c 0.004,-0.0312 0.008,-0.0625 0.0117,-0.0977 l 0.004,-0.0234 0.008,-0.102 0.004,-0.0117 c 0.004,-0.0312 0.008,-0.0625 0.008,-0.0938 l 0.004,-0.0234 c 0.004,-0.0312 0.008,-0.0664 0.0117,-0.102 l 0.004,-0.0195 c 0.004,-0.0352 0.008,-0.0703 0.0117,-0.102 v -0.0117 l 0.008,-0.0977 0.004,-0.0195 0.0117,-0.0977 v -0.0273 l 0.0117,-0.102 v -0.0117 c 0.004,-0.0312 0.008,-0.0664 0.0117,-0.0938 l 0.004,-0.0234 c 0,-0.0312 0.004,-0.0664 0.008,-0.0977 l 0.004,-0.0273 c 0,-0.0312 0.004,-0.0664 0.008,-0.102 l 0.004,-0.0117 0.008,-0.0938 0.004,-0.0195 c 0,-0.0352 0.004,-0.0703 0.008,-0.105 v -0.0195 c 0.004,-0.0352 0.008,-0.0703 0.0117,-0.105 v -0.008 c 0.004,-0.0352 0.008,-0.0664 0.0117,-0.0977 v -0.0234 c 0.004,-0.0352 0.008,-0.0664 0.008,-0.102 l 0.004,-0.0234 0.008,-0.102 v -0.008 c 0.004,-0.0352 0.008,-0.0703 0.0117,-0.102 v -0.0195 c 0.004,-0.0352 0.008,-0.0664 0.008,-0.102 l 0.004,-0.0273 0.008,-0.102 0.004,-0.0156 0.008,-0.0898 v -0.0234 c 0.004,-0.0352 0.004,-0.0664 0.008,-0.102 l 0.004,-0.0234 0.008,-0.105 v -0.0117 c 0.004,-0.0312 0.004,-0.0625 0.008,-0.0977 v -0.0195 c 0.004,-0.0352 0.008,-0.0703 0.008,-0.105 l 0.004,-0.0195 0.008,-0.105 v -0.008 c 0.004,-0.0352 0.004,-0.0703 0.008,-0.102 v -0.0234 c 0.004,-0.0352 0.008,-0.0664 0.008,-0.102 l 0.004,-0.0195 c 0,-0.0391 0.004,-0.0742 0.004,-0.109 l 0.004,-0.004 c 0,-0.0352 0.004,-0.0703 0.008,-0.105 v -0.0195 c 0,-0.0352 0.004,-0.0703 0.008,-0.105 v -0.0195 c 0.004,-0.0391 0.004,-0.0742 0.008,-0.109 0.004,-0.0391 0.004,-0.0742 0.008,-0.109 v -0.0195 l 0.008,-0.105 v -0.0195 l 0.008,-0.109 v -0.004 l 0.004,-0.105 0.004,-0.0195 0.004,-0.105 v -0.0234 c 0.004,-0.0352 0.004,-0.0703 0.008,-0.105 v -0.008 c 0.004,-0.0352 0.004,-0.0703 0.004,-0.102 l 0.004,-0.0234 c 0,-0.0352 0.004,-0.0703 0.004,-0.105 v -0.0195 l 0.008,-0.109 v -0.008 c 0,-0.0352 0.004,-0.0664 0.004,-0.105 l 0.004,-0.0195 0.004,-0.105 v -0.0234 c 0,-0.0352 0.004,-0.0703 0.004,-0.105 v -0.008 c 0.004,-0.0352 0.004,-0.0703 0.008,-0.105 v -0.0234 l 0.004,-0.102 v -0.0234 c 0,-0.0352 0.004,-0.0703 0.004,-0.109 v -0.004 l 0.004,-0.105 0.004,-0.0234 0.004,-0.105 v -0.0234 l 0.004,-0.105 v -0.0117 c 0,-0.0312 0,-0.0664 0.004,-0.102 v -0.0234 c 0,-0.0352 0.004,-0.0703 0.004,-0.105 v -0.0195 c 0,-0.0391 0.004,-0.0742 0.004,-0.109 v -0.008 c 0,-0.0352 0,-0.0703 0.004,-0.105 v -0.0234 c 0,-0.0352 0,-0.0703 0.004,-0.102 v -0.133 l 0.004,-0.0117 v -0.102 l 0.004,-0.0273 v -0.129 l 0.004,-0.105 v -0.113 l 0.004,-0.0234 v -0.128 c 0.004,-0.0391 0.004,-0.0742 0.004,-0.113 v -0.132 c 0,-0.0352 0,-0.0703 0.004,-0.109 v -0.375 l 0.004,-0.0234 v -1.11 c -0.004,-0.0312 -0.004,-0.0625 -0.004,-0.0977 v -0.211 l -0.004,-0.191 v -0.117 c 0,-0.0664 0,-0.129 -0.004,-0.195 v -0.195 l -0.004,-0.0156 v -0.207 l -0.004,-0.0898 v -0.211 l -0.004,-0.0938 v -0.008 l -0.004,-0.199 -0.004,-0.0977 v -0.004 c 0,-0.0977 -0.004,-0.199 -0.008,-0.297 v -0.105 c -0.004,-0.0977 -0.008,-0.195 -0.008,-0.297 v -0.004 c -0.137,-5.09 -0.645,-10.2 -1.52,-15.2 -0.996,-5.54 -5.81,-9.57 -11.4,-9.59 z" />
    <path
       id="path16"
       fill="#c9e5fc"
       d="m 198,442 c -6.43,0 -11.6,-5.21 -11.6,-11.6 0,-6.42 5.2,-11.6 11.6,-11.6 0.684,0 67.4,-0.73 133,-44.6 63.9,-42.6 64.6,-106 64.6,-107 0,-6.43 5.21,-11.6 11.6,-11.6 6.43,0 11.6,5.21 11.6,11.6 0,3.11 -0.863,76.6 -75,126 -71.9,47.9 -143,48.5 -146,48.5 z" />
    <path
       id="path18"
       fill="#64aef7"
       d="m 217,186 c -12.9,0.0625 -23.2,10.5 -23.2,23.4 0.0625,12.4 9.91,22.6 22.3,23.1 l 0.043,0.004 c 0.0352,0 0.0742,0 0.113,0.004 h 0.0234 c 0.0469,0.004 0.0859,0.004 0.133,0.008 h 0.0156 l 0.148,0.004 0.0234,0.004 c 0.0352,0 0.0703,0 0.109,0.004 0.223,0.008 0.449,0.0195 0.672,0.0312 0.199,0.008 0.398,0.0117 0.598,0.0156 0.215,0.0195 0.434,0.0352 0.652,0.0469 45.3,2.53 79.8,24.1 96.5,36.9 10.2,7.79 24.8,5.81 32.6,-4.42 7.77,-10.2 5.82,-24.8 -4.37,-32.6 -20.8,-15.9 -64.3,-43.1 -122,-46.3 -0.258,-0.0156 -0.512,-0.0234 -0.766,-0.0312 -0.293,-0.0234 -0.59,-0.0391 -0.887,-0.0547 l -1.66,-0.0703 c -0.348,-0.0156 -0.691,-0.0234 -1.04,-0.0234 z" />
    <g
       id="g26"
       fill="#0a86e3">
      <path
         id="path20"
         d="M 489,233 C 489,93 303,0 186,0 92.9,0 84,6.2 52,12.9 c -8.43,1.91 -16.4,5.46 -23.4,10.5 31.3,0.832 194,9.14 320,93 140,93.1 140,281 -116,326 93.1,0 256,-69.8 256,-209 z" />
      <path
         id="path22"
         d="m 256,46.5 c 0,12.9 -10.4,23.3 -23.3,23.3 -12.9,0 -23.3,-10.4 -23.3,-23.3 0,-12.9 10.4,-23.3 23.3,-23.3 12.9,0 23.3,10.4 23.3,23.3 z" />
      <path
         id="path24"
         d="m 326,93.1 c 0,12.9 -10.4,23.3 -23.3,23.3 -12.9,0 -23.3,-10.4 -23.3,-23.3 0,-12.9 10.4,-23.3 23.3,-23.3 12.9,0 23.3,10.4 23.3,23.3 z" />
    </g>
    <path
       id="path28"
       fill="#001386"
       d="m 140,46.5 c 0,12.9 -10.4,23.3 -23.3,23.3 -12.9,0 -23.3,-10.4 -23.3,-23.3 0,-12.9 10.4,-23.3 23.3,-23.3 12.9,0 23.3,10.4 23.3,23.3 z" />
    <path
       id="path30"
       fill="#46a4f2"
       d="m 116,34.9 c 0,6.43 -5.21,11.6 -11.6,11.6 -6.39,0 -11.6,-5.21 -11.6,-11.6 0,-6.39 5.21,-11.6 11.6,-11.6 6.39,0 11.6,5.21 11.6,11.6 z" />
    <path
       id="path32"
       fill="#64aef7"
       d="m 58.2,116 c -6.42,0.004 -11.6,-5.2 -11.6,-11.6 v -9.56 c 0.0234,-4 -2.04,-7.71 -5.46,-9.79 -39.9,-23.8 -41.1,-47.8 -41.1,-50.5 0,-6.43 5.21,-11.6 11.6,-11.6 6.24,0 11.4,4.92 11.6,11.2 0.137,1 2.64,14.8 29.7,31 10.4,6.3 16.8,17.6 16.8,29.8 v 9.55 c 0.0039,6.42 -5.2,11.6 -11.6,11.6 -0.0039,-0.004 -0.0078,-0.004 -0.0156,-0.004 z" />
    <path
       id="path34"
       fill="#006ce2"
       d="m 69.8,105 c 0,6.43 -5.21,11.6 -11.6,11.6 -6.39,0 -11.6,-5.21 -11.6,-11.6 0,-6.43 5.21,-11.6 11.6,-11.6 6.39,0 11.6,5.21 11.6,11.6 z" />
    <path
       id="path36"
       fill="#c9e5fc"
       d="m 22,74.9 c -6.43,-0.0039 -11.6,5.2 -11.6,11.6 -0.0039,3.68 1.73,7.14 4.68,9.33 2.63,1.96 5.41,3.9 8.31,5.79 v 3.03 c 0.0078,15.8 10.7,29.7 26,33.8 0.625,0.164 1.26,0.277 1.9,0.336 0.609,0.195 1.24,0.344 1.88,0.438 1.26,0.188 2.53,0.309 3.8,0.355 0.152,0.008 0.305,0.0117 0.457,0.0117 6.43,-0.008 11.6,-5.22 11.6,-11.6 -0.0039,-6.25 -4.95,-11.4 -11.2,-11.6 h -0.043 c -0.414,-0.0195 -0.828,-0.0586 -1.24,-0.121 -0.211,-0.0312 -0.422,-0.0547 -0.629,-0.0742 -0.203,-0.0664 -0.406,-0.125 -0.617,-0.18 -3.91,-1.04 -7.01,-4.04 -8.17,-7.93 l -0.0117,-0.0352 c -0.0117,-0.0469 -0.0234,-0.0898 -0.0391,-0.137 v -0.004 l -0.0078,-0.0312 c -0.0156,-0.0469 -0.0273,-0.0938 -0.0391,-0.137 v -0.004 l -0.0078,-0.0312 v -0.004 l -0.0117,-0.0312 c -0.0078,-0.0352 -0.0156,-0.0703 -0.0273,-0.105 l -0.0156,-0.0703 c -0.0117,-0.0469 -0.0234,-0.0938 -0.0312,-0.141 l -0.0039,-0.004 -0.0039,-0.0273 -0.0039,-0.004 -0.0078,-0.0352 c -0.0039,-0.0234 -0.0078,-0.0469 -0.0117,-0.0703 l -0.0078,-0.0352 -0.0039,-0.004 -0.0039,-0.0312 -0.0039,-0.004 -0.0273,-0.137 v -0.008 l -0.0039,-0.0273 -0.0039,-0.008 -0.0039,-0.0273 v -0.008 l -0.0117,-0.0664 -0.0039,-0.004 -0.0039,-0.0312 v -0.008 l -0.0078,-0.0273 v -0.008 l -0.0039,-0.0273 -0.0039,-0.008 -0.0039,-0.0273 v -0.004 l -0.0117,-0.0703 v -0.008 l -0.0078,-0.0273 v -0.008 l -0.0039,-0.0273 v -0.008 l -0.0039,-0.0273 -0.0039,-0.008 -0.0078,-0.0664 v -0.008 l -0.0078,-0.0273 v -0.008 l -0.0039,-0.0273 v -0.008 l -0.0039,-0.0273 v -0.008 c -0.0039,-0.0234 -0.0078,-0.0469 -0.0117,-0.0703 v -0.008 l -0.0039,-0.0273 v -0.008 l -0.0039,-0.0273 v -0.008 L 46.73,106.1714 v -0.008 l -0.0039,-0.0273 v -0.008 l -0.0039,-0.0352 -0.0039,-0.004 v -0.0273 l -0.0039,-0.0117 v -0.0234 l -0.0039,-0.0117 v -0.0234 l -0.0039,-0.0117 v -0.0352 l -0.0039,-0.0352 -0.0039,-0.0312 v -0.0117 l -0.0039,-0.0234 v -0.0117 l -0.0039,-0.0234 v -0.0117 l -0.0039,-0.0234 v -0.0117 l -0.0039,-0.0352 v -0.0312 l -0.0039,-0.0117 v -0.0352 l -0.0039,-0.0234 v -0.0391 l -0.0039,-0.008 -0.0039,-0.0703 V 105.5 l -0.0039,-0.0234 v -0.0469 l -0.0039,-0.0234 v -0.0469 l -0.0039,-0.0352 v -0.0469 l -0.0039,-0.0234 v -0.082 l -0.0039,-0.0312 v -0.0859 l -0.0039,-0.0195 v -9.82 c 0.0234,-4 -2.05,-7.71 -5.46,-9.8 l -0.109,-0.0664 -0.0469,-0.0273 -0.0625,-0.0391 -0.0586,-0.0312 -0.0547,-0.0352 -0.0586,-0.0352 -0.0508,-0.0312 c -0.0195,-0.0117 -0.043,-0.0234 -0.0625,-0.0352 l -0.0469,-0.0312 c -0.0195,-0.0078 -0.043,-0.0234 -0.0625,-0.0352 l -0.0469,-0.0273 c -0.0234,-0.0156 -0.0469,-0.0273 -0.0664,-0.043 L 40.4188,84.9544 C 40.3954,84.9427 40.368,84.9271 40.3485,84.9114 L 40.3133,84.8919 40.2352,84.845 40.2118,84.8294 40.1259,84.7786 H 40.122 c -0.133,-0.082 -0.273,-0.168 -0.406,-0.25 L 39.7082,84.5247 C 39.677,84.5052 39.6457,84.4856 39.6144,84.4661 L 39.6027,84.4583 39.5089,84.4036 39.4933,84.3958 39.4035,84.3372 39.3918,84.3294 C 39.3606,84.3099 39.3293,84.2942 39.298,84.2747 l -0.0117,-0.0078 -0.0938,-0.0586 -0.0078,-0.0039 c -0.309,-0.188 -0.613,-0.379 -0.918,-0.57 -1.15,-0.719 -2.27,-1.44 -3.35,-2.16 H 34.9128 L 34.823,81.4119 34.8191,81.408 34.7293,81.3494 34.7176,81.3416 C 34.6903,81.3221 34.659,81.3025 34.6317,81.283 h -0.0039 c -0.215,-0.145 -0.43,-0.289 -0.645,-0.434 l -0.0195,-0.0156 -0.0742,-0.0508 -0.0234,-0.0117 -0.0703,-0.0508 -0.0273,-0.0156 -0.0664,-0.0469 -0.0312,-0.0195 -0.0664,-0.0469 -0.0312,-0.0195 -0.0664,-0.0469 -0.0273,-0.0195 -0.0664,-0.043 -0.0273,-0.0195 -0.223,-0.152 -0.0352,-0.0234 -0.0508,-0.0352 -0.0469,-0.0312 -0.0469,-0.0352 -0.0938,-0.0625 -0.0547,-0.0391 -0.0391,-0.0273 -0.0547,-0.0391 -0.043,-0.0273 -0.0547,-0.0391 -0.043,-0.0273 -0.0547,-0.0391 -0.043,-0.0273 -0.0586,-0.043 -0.0312,-0.0234 c -0.0273,-0.0195 -0.0508,-0.0352 -0.0781,-0.0508 l -0.0195,-0.0156 c -0.0977,-0.0664 -0.195,-0.137 -0.293,-0.203 L 32.0177,79.498 31.9239,79.4316 31.9161,79.4238 31.8302,79.3652 31.8185,79.3574 C 31.7873,79.334 31.7599,79.3144 31.7326,79.2949 L 31.717,79.2871 31.635,79.2285 31.6233,79.2168 31.5374,79.1582 31.5257,79.1504 c -0.875,-0.621 -1.72,-1.24 -2.55,-1.85 -2,-1.51 -4.44,-2.32 -6.95,-2.32 z" />
    <path
       id="path38"
       fill="#64aef7"
       d="m 209,233 c -12.9,-0.004 -23.3,-10.4 -23.3,-23.3 0.004,-10 6.41,-18.9 15.9,-22.1 2.09,-0.727 53.9,-19.3 53.9,-71 0,-35.3 -16,-52.9 -16.7,-53.6 -8.7,-9.3 -8.39,-23.8 0.684,-32.8 9.05,-8.85 23.5,-8.79 32.5,0.137 3.09,3.07 30.1,31.7 30.1,86.3 0,85.6 -82.2,114 -85.7,115 -2.38,0.797 -4.86,1.2 -7.36,1.21 z" />
    <path
       id="path40"
       fill="#64aef7"
       d="m 209,233 c -12.9,-0.004 -23.3,-10.4 -23.3,-23.3 0.004,-10 6.41,-18.9 15.9,-22.1 2.09,-0.727 53.9,-19.3 53.9,-71 0,-35.3 -16,-52.9 -16.7,-53.6 -8.7,-9.3 -8.39,-23.8 0.684,-32.8 9.05,-8.85 23.5,-8.79 32.5,0.137 3.09,3.07 30.1,31.7 30.1,86.3 0,85.6 -82.2,114 -85.7,115 -2.38,0.797 -4.86,1.2 -7.36,1.21 z" />
    <path
       id="path42"
       fill="#006ce2"
       d="m 277,116 c -11.2,-0.0117 -20.8,-8.04 -22.9,-19.1 -4.16,-22.7 -14.6,-34.1 -15,-34.5 -8.7,-9.3 -8.39,-23.8 0.68,-32.8 9.05,-8.85 23.5,-8.79 32.5,0.137 2.11,2.11 20.8,21.7 27.6,58.8 2.32,12.6 -6.04,24.7 -18.7,27.1 -0.0117,0.004 -0.0195,0.004 -0.0312,0.008 -1.38,0.262 -2.79,0.391 -4.2,0.383 z" />
    <path
       id="path44"
       fill="#0a86e3"
       d="m 419,163 c 0,12.9 -10.4,23.3 -23.3,23.3 -12.9,0 -23.3,-10.4 -23.3,-23.3 0,-12.9 10.4,-23.3 23.3,-23.3 12.9,0 23.3,10.4 23.3,23.3 z" />
    <path
       id="path46"
       fill="#64aef7"
       d="m 349,326 c 0,12.9 -10.4,23.3 -23.3,23.3 -12.9,0 -23.3,-10.4 -23.3,-23.3 0,-12.9 10.4,-23.3 23.3,-23.3 12.9,0 23.3,10.4 23.3,23.3 z" />
    <path
       id="path48"
       fill="#c9e5fc"
       d="m 233,407 c 0,6.43 -5.21,11.6 -11.6,11.6 -6.39,0 -11.6,-5.21 -11.6,-11.6 0,-6.39 5.21,-11.6 11.6,-11.6 6.39,0 11.6,5.21 11.6,11.6 z" />
    <path
       id="path50"
       fill="#c9e5fc"
       d="m 279,361 c 0,6.43 -5.21,11.6 -11.6,11.6 -6.43,0 -11.6,-5.21 -11.6,-11.6 0,-6.39 5.21,-11.6 11.6,-11.6 6.43,0 11.6,5.21 11.6,11.6 z" />
    <path
       id="path52"
       fill="#e1ebfc"
       d="m 372,186 c 0,12.9 -10.4,23.3 -23.3,23.3 -12.9,0 -23.3,-10.4 -23.3,-23.3 0,-12.9 10.4,-23.3 23.3,-23.3 12.9,0 23.3,10.4 23.3,23.3 z" />
    <path
       id="path54"
       fill="#64aef7"
       d="m 163,105 c 0,6.43 -5.21,11.6 -11.6,11.6 -6.39,0 -11.6,-5.21 -11.6,-11.6 0,-6.43 5.21,-11.6 11.6,-11.6 6.39,0 11.6,5.21 11.6,11.6 z" />
    <g
       id="g62"
       fill="#006ce2">
      <path
         id="path56"
         d="m 465,268 c 0,6.43 -5.21,11.6 -11.6,11.6 -6.43,0 -11.6,-5.21 -11.6,-11.6 0,-6.43 5.21,-11.6 11.6,-11.6 6.43,0 11.6,5.21 11.6,11.6 z" />
      <path
         id="path58"
         d="m 419,361 c 0,6.43 -5.21,11.6 -11.6,11.6 -6.43,0 -11.6,-5.21 -11.6,-11.6 0,-6.39 5.21,-11.6 11.6,-11.6 6.43,0 11.6,5.21 11.6,11.6 z" />
      <path
         id="path60"
         d="m 465,314 c 0,6.43 -5.21,11.6 -11.6,11.6 -6.43,0 -11.6,-5.21 -11.6,-11.6 0,-6.43 5.21,-11.6 11.6,-11.6 6.43,0 11.6,5.21 11.6,11.6 z" />
    </g>
    <path
       id="path64"
       fill="#64aef7"
       d="m 349,384 c 0,6.43 -5.21,11.6 -11.6,11.6 -6.43,0 -11.6,-5.21 -11.6,-11.6 0,-6.43 5.21,-11.6 11.6,-11.6 6.43,0 11.6,5.21 11.6,11.6 z" />
    <path
       id="path66"
       fill="#64aef7"
       d="m 140,407 c 0,6.43 -5.21,11.6 -11.6,11.6 -6.43,0 -11.6,-5.21 -11.6,-11.6 0,-6.39 5.21,-11.6 11.6,-11.6 6.43,0 11.6,5.21 11.6,11.6 z" />
    <path
       id="path68"
       fill="#006ce2"
       d="m 419,151 c 0,6.43 -5.21,11.6 -11.6,11.6 -6.43,0 -11.6,-5.21 -11.6,-11.6 0,-6.39 5.21,-11.6 11.6,-11.6 6.43,0 11.6,5.21 11.6,11.6 z" />
    <path
       id="path70"
       fill="#0a86e3"
       d="M 116,372 C 116,342.7 87.1,307.1 66.6,289.4 54.2,278.8 36.7,276.6 22.1,284 c -15.3,7.82 -24.2,24.4 -22.2,41.5 5.21,46.9 46.3,69.8 46.3,69.8 -13.4,13.4 -43.9,48.9 -46.3,71 -2.27,22.6 14.2,42.8 36.9,45.1 12.4,1.24 24.8,-3.23 33.5,-12.2 29.5,-30 45.7,-80.7 45.7,-80.7 -23.3,0 -23.3,-23.3 -23.3,-23.3 0,0 0,-23.3 23.3,-23.3 z" />
    <path
       id="path72"
       fill="#006ce2"
       d="m 396,93.1 c 0,12.9 -10.4,23.3 -23.3,23.3 -12.9,0 -23.3,-10.4 -23.3,-23.3 0,-12.9 10.4,-23.3 23.3,-23.3 12.9,0 23.3,10.4 23.3,23.3 z" />
    <path
       id="path74"
       fill="#e1ebfc"
       d="m 151,186 c -2.09,0 -51.7,-0.297 -78,-26.7 -4.54,-4.54 -4.54,-11.9 0,-16.5 4.54,-4.54 11.9,-4.54 16.5,0 19.5,19.5 61.2,19.9 61.6,19.9 6.43,0.0156 11.6,5.24 11.6,11.7 -0.0117,6.41 -5.21,11.6 -11.6,11.6 z" />
  </g>
  <g
     inkscape:export-ydpi="91.290001"
     inkscape:export-xdpi="91.290001"
     inkscape:export-filename="/Users/SaaMoj/Downloads/mahijat.png"
     transform="matrix(0.15750962,0,0,0.15750962,47.426931,69.252153)"
     id="g157" />
</svg>
