<svg width="128" height="128" version="1.1" xmlns="http://www.w3.org/2000/svg"><g transform="matrix(.249 0 0 .249 -.365 .204)"><title>Layer 1</title><g stroke="null"><path d="m210 392-16.5 46.7c-0.472 1.34 0.0602 2.82 1.27 3.57 1.43 0.878 3 1.57 4.09 1.57 5.14 0 10.1-5.88 15-11.6 3.59-4.24 7.67-9.05 10.9-10.4 0.894-0.357 2.44-1.36 2.72-4.07 0.531-5.1-5.72-19.5-13.6-26.8-1.26-1.16-3.31-0.588-3.88 1.03z" fill="#ffafc3"/><g transform="matrix(.346 0 0 .346 -541 -749)" fill="#ffa5b9"><path d="m1830 3377-7.86-13.1c-15.4-25.7-44.6-39.6-74.3-35.4l-8.2 1.16c-2.74 0.392-5.14 2.04-6.48 4.46-11 19.9-6.13 37.3-1.82 52.7 3.26 11.6 6.08 21.7 2.22 31.9-0.97 2.57-0.672 5.5 0.78 7.83 3 4.82 42.3 33 83.5 36.9 0.28 0.025 0.561 0.039 0.841 0.039 2.76 0 5.39-1.3 7.06-3.53 18.3-24.3 19.9-56.9 4.29-83z"/><path d="m1926 3077c-26.6-21.6-72.7-19-78.2-17.1-2.87 0.983-5.13 3.42-5.82 6.38-1.96 8.3-8.12 17.7-14.1 26.8-10.1 15.4-20.5 31.4-16.6 48.7 0.909 4.04 4.5 6.89 8.61 6.89 0.134 0 0.267 0 0.396-0.01l22-0.983c38-1.7 71.7-25.2 86.4-60.3 1.53-3.66 0.389-7.86-2.69-10.4z"/><path d="m2211 3243c-14.1-57.8-79-81.1-81.8-82-4.6-1.6-9.63 0.81-11.2 5.42-0.699 1.99-17 49.4-7.81 95.4 9.11 45.5 41.2 89.8 42.5 91.7 1.68 2.31 4.35 3.63 7.14 3.63 0.595 0 1.2-0.061 1.8-0.185 3.4-0.707 6.06-3.34 6.82-6.72 2.26-10.1 16.8-42.7 27.4-66.5 16.2-36.4 16.2-36.7 15.2-40.7z"/></g><g transform="matrix(.346 0 0 .346 -541 -749)" fill="#ff9baf"><path d="m1854 3131c-1.56-2.13-4-3.44-6.64-3.59-37.8-2.07-104 60.2-112 67.3-1.02 0.979-1.79 2.18-2.25 3.52-1.12 3.27-27.1 80.6 0.392 133 10.9 20.7 28.6 34.5 52.6 41.1 0.771 0.215 1.56 0.319 2.34 0.319 1.54 0 3.07-0.405 4.43-1.19 2.05-1.19 3.54-3.16 4.12-5.45l58-227c0.655-2.56 0.124-5.28-1.44-7.41z"/><path d="m2088 3113c-40.2-23.2-55.7-57.8-55.9-58.2-1.19-2.75-3.69-4.7-6.64-5.2-0.88-0.151-89-14.2-119 54.4-1.73 4.02-0.258 8.7 3.47 11l211 130c1.41 0.871 3.02 1.32 4.64 1.32 0.905 0 1.81-0.138 2.69-0.418 2.46-0.789 4.45-2.61 5.45-4.99 13.3-31.7 12.5-94.5-46.1-128z"/><path d="m2114 3446c-0.258-4.47-3.82-8.03-8.28-8.3l-278-16.9c-3.56-0.194-6.99 1.78-8.53 5.07-4.88 10.4-7.5 27.8-0.22 45.6 9.31 22.7 31.8 40.8 67 53.7 17.9 6.6 30.5 12.9 41.7 18.4 13.9 6.86 25.8 12.8 41.5 15.9 4.4 0.858 8.88 1.28 13.4 1.28 21.4 0 44-9.42 64.9-27.3 4.14-3.54 10.1-7.01 16.4-10.7 22.2-13 52.6-30.7 49.9-76.8z"/></g><path d="m206 400c-1.59-4.84-3.24-9.85-3.88-14.8-1.11-8.64-4.5-15.1-10.1-19.2-8.5-6.26-18.9-4.54-19.3-4.46-1 0.175-1.85 0.836-2.27 1.76l-40.7 91c-0.533 1.19-0.249 2.59 0.705 3.48 5.17 4.84 12.4 8.28 19.9 8.28 5.42 0 11-1.81 16-6.21 6.06-5.32 12-8.1 17.7-10.8 9.57-4.5 18.6-8.75 24.5-23.6 3.21-8.09 0.418-16.6-2.53-25.5z" fill="#ff91a5"/><path d="m175 350c-3.06-6.12-6.12-9.17-17.5-12.8-6.58-2.1-14.4-3.31-22.3-7.98-15-8.84-27-2.8-32.8 1.59-9.86 7.46-16 20.8-13.6 29.8 0.345 1.31 1.51 2.24 2.86 2.28l79.2 2.42c0.0312 1e-3 0.0627 1e-3 0.0942 1e-3 0.56 0 1.11-0.154 1.59-0.446 2.97-1.81 5.92-7.91 2.45-14.9z" fill="#ff879b"/><path d="m143 445-32.8-88.8c-0.214-0.581-0.6-1.08-1.11-1.44-4.58-3.23-11.2-2.63-18.3 1.64-12.7 7.68-25.4 22.6-22.9 41.6 1.19 8.78 5.13 13.3 8.95 17.7 2.54 2.92 6.48 8.71 8.57 13.2 7.67 16.7 20.4 28 33.3 29.5 1.03 0.127 2.06 0.188 3.07 0.188 7.85 0 15.1-3.73 20.7-10.7 0.669-0.838 0.851-1.96 0.479-2.97z" fill="#ff7d91"/><path d="m173 361c-6.55-6.21-13.6-8.32-20-5.95-0.405 0.152-0.773 0.388-1.08 0.694l-50.2 49.9c-0.229 0.227-0.42 0.49-0.567 0.776-2.56 5.01-2.02 13.6 1.34 21.4 2.51 5.8 8.8 16.1 22.8 20.2 3.32 0.963 6.78 1.42 10.3 1.42 20.9 0 43.5-16.3 50.5-38.2 5.95-18.9-2.29-39.9-13.1-50.1z" fill="#ff7387"/><path d="m141 349c-12.4-4.74-26.8-2.2-36.6 6.47-6.8 6.01-16.8 19.9-16.5 33.5 0.137 6.77 2.95 12.6 8.15 16.8 6.48 5.28 13 6.98 18.7 6.98 7.57-1e-3 13.7-3.01 16.3-4.57 0.321-0.151 0.621-0.361 0.882-0.629l28.6-29.2c0.646-0.661 0.96-1.58 0.851-2.5-1.5-12.7-8.92-22.4-20.4-26.8z" fill="#ff6478"/><path d="m161 374c-5.69-7.24-14.1-11.8-23.1-12.6-7.29-0.646-14.2 1.39-18.8 5.56-8.49 7.58-11.6 16.9-8.52 25.6 1.57 4.44 4.7 8.24 8.44 10.6-5.05 0.685-7.94 6.2-5.56 10.7 3.38 6.38 8.98 12 16.1 13.3 1.76 0.331 3.51 0.494 5.26 0.494 9.17 0 20.6-2.76 27.4-11.1 7.96-9.77 12.7-25-1.09-42.6z" fill="#ff5064"/><path d="m145 397c-1.81-0.131-6.23 3.98-11.3-1.39-2.63-2.77-3.1-7.12-1.44-10.6 0.405-0.836 0.902-1.57 1.47-2.2 1.09-1.22 0.215-3.11-1.41-2.93-4.32 0.479-8.41 2.93-10.8 7.22-2.76 4.92-2.25 11.2 1.31 15.6 5.89 7.27 16.5 6.98 22.1 0.141 0.581-0.714 1.06-1.47 1.46-2.26 0.709-1.39 0.854-3.51-1.35-3.67z" fill="#d24150"/></g><path d="m236 504c2.23 0 5.74 0.06 10 0.15-12.2 0.23-30.5 0.65-42.7 0.4 13.4-0.17 27.1-0.55 32.7-0.55z" fill="#60b7ff"/><path d="m289 505c-12.2 0.25-30.5-0.17-42.7-0.4 4.27-0.09 7.78-0.15 10-0.15 5.59 0 19.3 0.38 32.7 0.55z" fill="#60b7ff"/><path d="m298 72.4-84.5-0.098v-31.6l84.5 0.098z" fill="#c4e2ff"/><path d="m214 42.1h84.5v14.6h-84.5z" fill="#b3dafe"/><path d="m340 383c-1.91-25.1-0.876-50.3 4.38-75 4.12-19.3 5.29-42 5.29-61.6h-188c0 19.7 1.08 42.3 5.2 61.6 5.26 24.6 6.29 49.9 4.38 75-2.25 29.5-11.1 58.1-10.8 87.6 0.16 18.3 9.84 38.4 30.5 41.1 11 1.46 53.4 0 64.6 0s53.5 1.46 64.6 0c20.7-2.74 30.4-22.8 30.5-41.1 0.258-29.5-8.58-58-10.8-87.6z" fill="#fcd4d4"/><path d="m351 470c-0.164 18.3-9.84 38.4-30.5 41.1-5.32 0.699-17.9 0.73-30.8 0.566 4.37-0.093 7.96-0.267 10.2-0.566 20.7-2.74 30.4-22.8 30.5-41.1 0.257-29.5-8.58-58-10.8-87.6-1.9-25.1-0.874-50.3 4.39-75 4.12-19.3 5.28-42 5.28-61.6h20.6c0 19.7-1.16 42.3-5.28 61.6-5.26 24.6-6.29 49.9-4.39 75 2.25 29.6 11.1 58.1 10.8 87.6z" fill="#faa"/><path d="m305 42.1h-97.1c-2.92 0-5.29-2.37-5.29-5.29v-31.5c0-2.92 2.37-5.29 5.29-5.29h97.1c2.92 0 5.29 2.37 5.29 5.29v31.5c0 2.92-2.37 5.29-5.29 5.29z" fill="#f66"/><path d="m350 144-51.8-72.9h-84.5l-51.4 72.9h-1e-3l-0.157 0.223v2.77h188v-2.99z" fill="#fcd4d4"/><path d="m350 144h-20.6l-51.7-72.9h20.5z" fill="#faa"/><path d="m350 249h-188v-105l188-0.225v105z" fill="#0593fc"/><path d="m329 144h20.6v105h-20.6z" fill="#0182fc"/><g stroke="null"><path d="m286 257c-23.4-2.44-41.4-14.9-40-27.8 1.34-12.9 21.4-21.4 44.9-19 23.4 2.44 51.2 17.7 50 28.9-1.16 11.2-31.5 20.4-54.9 17.9z" fill="#5eac24"/><path d="m290 210c-23.4-2.44-43.5 6.06-44.9 19l25.9-4.78c14.4-2.64 29.2-1.18 42.7 4.21l26.2 10.4c1.16-11.2-26.6-26.4-50-28.9z" fill="#4e901e"/><path d="m322 240-74.8-7.79c-1.68-0.175-2.9-1.68-2.73-3.36s1.68-2.9 3.36-2.73l74.8 7.79c1.68 0.175 2.9 1.68 2.73 3.36-0.163 1.57-1.38 2.9-3.36 2.73z" fill="#47821c"/><path d="m295 232c-19.7-12.9-41.5-14.6-48.6-3.73s3.08 30.1 22.8 43.1 50.8 18.6 57 9.25c6.16-9.4-11.5-35.7-31.2-48.6z" fill="#6dc82a"/><path d="m269 271c-19.7-12.9-29.9-32.2-22.8-43.1l18.4 23.6c7.91 10.1 18.9 17.4 31.3 20.7l30 8.01c-6.16 9.4-37.3 3.68-57-9.25z" fill="#5eac24"/><path d="m313 268-20.6-13.5 9.13-1.74c1.66-0.316 2.75-1.92 2.43-3.58-0.316-1.66-1.92-2.75-3.58-2.43l-15.4 2.92-11-7.23 9.13-1.74c1.66-0.316 2.75-1.92 2.43-3.58s-1.92-2.75-3.58-2.43l-15.4 2.92-16.6-10.9c-1.41-0.927-3.31-0.532-4.24 0.881-0.927 1.41-0.532 3.31 0.881 4.24l16.6 10.9 3.44 15.2c0.775 3.02 3.43 2.36 3.66 2.31 1.65-0.372 2.68-2.01 2.31-3.66l-2.05-9.07 11 7.23 3.44 15.2c0.776 2.99 3.43 2.36 3.66 2.31 1.65-0.372 2.68-2.01 2.31-3.66l-2.05-9.07 20.6 13.5c2.08 1.16 3.65 0.0148 4.24-0.881 0.927-1.41 0.533-3.31-0.88-4.24z" fill="#47821c"/><path d="m223 257c23.4-2.44 41.4-14.9 40-27.8-1.34-12.9-21.4-21.4-44.9-19-23.4 2.44-51.2 17.7-50 28.9s31.5 20.4 54.9 17.9z" fill="#91dc5a"/><path d="m219 210c23.4-2.44 43.5 6.06 44.9 19l-29.1-6.39c-13.8-3.03-28.3-1.4-41.1 4.63l-24.7 11.6c-1.16-11.2 26.6-26.4 50-28.9z" fill="#6dc82a"/><path d="m214 232c19.7-12.9 41.5-14.6 48.6-3.73s-3.08 30.1-22.8 43.1-50.8 18.6-57 9.25 11.5-35.7 31.2-48.6z" fill="#b6e892"/><path d="m240 271c19.7-12.9 29.9-32.2 22.8-43.1l-13.1 18.1c-9.72 13.5-23.8 23.1-39.9 27.3l-26.8 6.91c6.16 9.4 37.3 3.68 57-9.25z" fill="#91dc5a"/><g transform="matrix(.336 0 0 .336 -463 -552)" fill="#47821c"><path d="m1926 2352c-0.521-5.01 3.12-9.49 8.12-10l223-23.2c5.01-0.521 9.49 3.12 10 8.12s-3.12 9.49-8.12 10l-223 23.2c-7.25 0.46-9.52-3.44-10-8.12z"/><path d="m2164 2323c-2.76-4.21-8.41-5.39-12.6-2.62l-49.3 32.3-45.7-8.7c-4.94-0.943-9.72 2.3-10.7 7.25-0.942 4.94 2.3 9.72 7.25 10.7l27.2 5.18-32.9 21.5-45.7-8.7c-4.94-0.942-9.72 2.3-10.7 7.25-0.942 4.94 2.3 9.72 7.25 10.7l27.2 5.18-61.3 40.2c-4.21 2.76-5.38 8.41-2.62 12.6 1.75 2.67 7.61 5.18 12.6 2.62l61.3-40.2-6.1 27c-1.11 4.91 1.97 9.79 6.88 10.9 0.676 0.152 8.59 1.86 10.9-6.88l10.2-45.4 32.9-21.5-6.1 27c-1.11 4.91 1.97 9.79 6.88 10.9 0.676 0.152 9.26 1.24 10.9-6.88l10.2-45.4 49.3-32.3c4.21-2.76 5.39-8.41 2.63-12.6z"/></g><path d="m317 161s3.57-29.4-25-24.2c-2.65 0.482-5.35-0.498-7.14-2.52-6.15-6.94-21.9-19.3-39.1 10.4-0.81 0.22 37.8 28.6 37.8 28.6l33.5-12.2z" fill="#c70024"/><g transform="matrix(.336 0 0 .336 -463 -552)" fill="#d80027"><path d="m1952 2124s-10.6-87.6 74.6-72.1c7.9 1.44 15.9-1.48 21.3-7.5 18.3-20.7 65.3-57.4 116 30.8 2.41 0.654-113 85.1-113 85.1l-99.7-36.3z"/><path d="m2235 2123s53.8-26.7 113-5.54c9.34 3.34 13.5 14.2 8.87 22.9-12.5 23.3-33.6 71.1-32.3 126 1.93 77.7-101 155-204 70.5 1.92-2.78 114-214 114-214z"/></g><path d="m297 157c-0.658 7.01-0.563 17.2 3.99 24.7 7.6 12.4 16.8 48.2-16.2 62.5-10.9 1.41-23.4-1.76-35.9-12.1 0.644-0.933 38.4-71.9 38.4-71.9s3.76-1.87 9.74-3.23z" fill="#c70024"/><path d="m222 160s-18.1-8.98-38-1.86c-3.14 1.12-4.55 4.76-2.98 7.7 4.18 7.83 11.3 23.9 10.8 42.4-0.649 26.1 33.8 52.2 68.5 23.7-0.643-0.934-38.4-71.9-38.4-71.9z" fill="#ff0c38"/><path d="m212 157c0.658 7.01 0.563 17.2-3.99 24.7-7.6 12.4-16.8 48.2 16.2 62.5 10.9 1.41 23.4-1.76 35.9-12.1-0.644-0.933-38.4-71.9-38.4-71.9s-3.76-1.87-9.74-3.23z" fill="#d80027"/><path d="m288 148s-21.5-27.3-49.2 18.6c0.211 0.156 19.1 15.2 19.1 15.2z" fill="#ff0c38"/><path d="m239 167c1.18 0.931 19.1 15.2 19.1 15.2l30.1-33.8s-0.988-1.25-2.81-2.77h-1e-3s-23.6-5.79-46.3 21.5z" fill="#d80027"/><path d="m221 148s21.5-27.3 49.2 18.6c-0.211 0.156-19.1 15.2-19.1 15.2z" fill="#ff3f62"/><path d="m223 151 27.6 31s18.9-15.1 19.1-15.2c-1.77-2.94-3.52-5.58-5.23-7.95-2.77-2.7-16.7-14.6-41.5-7.87z" fill="#ff0c38"/><path d="m292 187c-5.39-9.52-2.88-24.2-2.88-24.2l-6.56-7.05-28.3 26.7-28.3-26.7-6.56 7.05s2.51 14.7-2.88 24.2c-6.18 10.9-10.4 45.9 37.8 45.9s44-35 37.8-45.9z" fill="#ff3f62"/><path d="m265 173-10.3 9.68-28.3-26.7-6.56 7.05s2.51 14.7-2.88 24.2c-6.18 10.9-10.4 45.9 37.8 45.9 11.9 0 20.6-2.14 26.9-5.52-2.28-25.1-8.76-42.5-16.6-54.6z" fill="#ff0c38"/><path d="m293 143c-23.9 6.08-36.3 25.5-42.1 39l7.67 10.4c7.84-2.91 14.3-6.81 19.5-11.2 2.99-2.49 4.46-6.37 3.93-10.2l-0.982-7.11 4.7-3.4e-4c4.44-3.3e-4 8.5-2.59 10.3-6.64 1.31-2.91 2.28-5.61 3-7.91 1.17-3.75-2.23-7.37-6.04-6.4z" fill="#ff728b"/><path d="m260 166c-3.99 5.48-6.92 11.1-9.01 15.9l7.67 10.4c4.94-1.83 9.32-4.07 13.2-6.56-3.48-8.11-7.57-14.6-11.9-19.8z" fill="#ff3f62"/><path d="m264 196-7.34-14.8-1.66 1.57-28.3-26.7-6.56 7.05s2.51 14.7-2.88 24.2c-6.18 10.9-10.4 45.9 37.8 45.9 4.49 0 8.53-0.305 12.2-0.866 1.33-17.9-3.15-36.4-3.15-36.4z" fill="#ff728b"/><path d="m245 232c-9.51-9.28-14.5-25.3-10.3-43 2.09-8.7 1.94-17.3 0.724-24.9l-9.25-8.72-6.56 7.05s2.51 14.7-2.88 24.2c-5.74 10.1-9.8 41 28.2 45.4z" fill="#ff3f62"/><path d="m211 149c0.717 2.31 1.69 5 3 7.91 1.82 4.06 5.88 6.64 10.3 6.64l4.7 3.4e-4 -0.982 7.11c-0.532 3.86 0.937 7.73 3.93 10.2 7.75 6.46 18.1 11.9 31.8 14.6 0 0-8.69-43.3-46.7-52.9-3.81-0.967-7.2 2.65-6.04 6.4z" fill="#ffa5b5"/><g fill="#fff" stroke-opacity="null" stroke-width="null"><circle cx="216" cy="334" r="19.5"/><circle cx="260" cy="380" r="8.5"/><circle cx="297" cy="420" r="6.5"/></g><path d="m493 414-17.6 49.9c-0.505 1.43 0.0644 3.02 1.36 3.81 1.53 0.938 3.2 1.68 4.37 1.68 5.49 0 10.8-6.28 16-12.4 3.84-4.53 8.19-9.67 11.7-11.1 0.956-0.382 2.6-1.45 2.9-4.35 0.567-5.45-6.11-20.8-14.6-28.6-1.34-1.24-3.53-0.628-4.14 1.1z" fill="#ffafc3"/><g transform="matrix(.37 0 0 .37 -659 -872)" fill="#ffa5b9"><path d="m2775 3556-7.86-13.1c-15.4-25.7-44.6-39.6-74.3-35.4l-8.2 1.16c-2.74 0.392-5.14 2.04-6.48 4.46-11 19.9-6.13 37.3-1.82 52.7 3.26 11.6 6.08 21.7 2.22 31.9-0.97 2.57-0.672 5.5 0.78 7.83 3 4.82 42.3 33 83.5 36.9 0.28 0.025 0.561 0.039 0.841 0.039 2.76 0 5.39-1.3 7.06-3.53 18.3-24.3 19.9-56.9 4.29-83z"/><path d="m2870 3257c-26.6-21.6-72.7-19-78.2-17.1-2.87 0.983-5.13 3.42-5.82 6.38-1.96 8.3-8.12 17.7-14.1 26.8-10.1 15.4-20.5 31.4-16.6 48.7 0.909 4.04 4.5 6.89 8.61 6.89 0.134 0 0.267 0 0.396-0.01l22-0.983c38-1.7 71.7-25.2 86.4-60.3 1.53-3.66 0.389-7.86-2.69-10.4z"/><path d="m3156 3423c-14.1-57.8-79-81.1-81.8-82-4.6-1.6-9.63 0.81-11.2 5.42-0.699 1.99-17 49.4-7.81 95.4 9.11 45.5 41.2 89.8 42.5 91.7 1.68 2.31 4.35 3.63 7.14 3.63 0.595 0 1.2-0.061 1.8-0.185 3.4-0.707 6.06-3.34 6.82-6.72 2.26-10.1 16.8-42.7 27.4-66.5 16.2-36.4 16.2-36.7 15.2-40.7z"/></g><g transform="matrix(.37 0 0 .37 -659 -872)" fill="#ff9baf"><path d="m2799 3311c-1.56-2.13-4-3.44-6.64-3.59-37.8-2.07-104 60.2-112 67.3-1.02 0.979-1.79 2.18-2.25 3.52-1.12 3.27-27.1 80.6 0.392 133 10.9 20.7 28.6 34.5 52.6 41.1 0.771 0.215 1.56 0.319 2.34 0.319 1.54 0 3.07-0.405 4.43-1.19 2.05-1.19 3.54-3.16 4.12-5.45l58-227c0.655-2.56 0.124-5.28-1.44-7.41z"/><path d="m3032 3293c-40.2-23.2-55.7-57.8-55.9-58.2-1.19-2.75-3.69-4.7-6.64-5.2-0.88-0.151-89-14.2-119 54.4-1.73 4.02-0.258 8.7 3.47 11l211 130c1.41 0.871 3.02 1.32 4.64 1.32 0.905 0 1.81-0.138 2.69-0.418 2.46-0.789 4.45-2.61 5.45-4.99 13.3-31.7 12.5-94.5-46.1-128z"/><path d="m3059 3625c-0.258-4.47-3.82-8.03-8.28-8.3l-278-16.9c-3.56-0.194-6.99 1.78-8.53 5.07-4.88 10.4-7.5 27.8-0.22 45.6 9.31 22.7 31.8 40.8 67 53.7 17.9 6.6 30.5 12.9 41.7 18.4 13.9 6.86 25.8 12.8 41.5 15.9 4.4 0.858 8.88 1.28 13.4 1.28 21.4 0 44-9.42 64.9-27.3 4.14-3.54 10.1-7.01 16.4-10.7 22.2-13 52.6-30.7 49.9-76.8z"/></g><path d="m488 422c-1.7-5.17-3.46-10.5-4.14-15.8-1.19-9.23-4.81-16.1-10.8-20.5-9.08-6.69-20.2-4.85-20.6-4.76-1.07 0.187-1.98 0.894-2.42 1.88l-43.5 97.2c-0.57 1.27-0.266 2.77 0.753 3.72 5.53 5.17 13.3 8.85 21.3 8.85 5.79 0 11.7-1.93 17.1-6.63 6.48-5.69 12.8-8.66 18.9-11.5 10.2-4.81 19.9-9.35 26.1-25.2 3.43-8.65 0.447-17.7-2.71-27.3z" fill="#ff91a5"/><path d="m455 368c-3.27-6.53-6.53-9.8-18.7-13.7-7.03-2.24-15.3-3.53-23.8-8.52-16-9.45-28.8-2.99-35 1.7-10.5 7.97-17.1 22.2-14.5 31.8 0.369 1.4 1.61 2.39 3.06 2.44l84.6 2.59c0.0333 1e-3 0.067 1e-3 0.101 1e-3 0.598 0 1.19-0.164 1.7-0.477 3.17-1.93 6.33-8.45 2.62-15.9z" fill="#ff879b"/><path d="m420 471-35-94.8c-0.228-0.621-0.641-1.16-1.18-1.54-4.89-3.45-12-2.81-19.6 1.76-13.5 8.2-27.2 24.1-24.4 44.4 1.27 9.38 5.49 14.2 9.57 18.9 2.71 3.12 6.92 9.3 9.15 14.1 8.2 17.8 21.8 29.9 35.6 31.6 1.1 0.135 2.2 0.201 3.28 0.201 8.39 0 16.1-3.99 22.1-11.5 0.715-0.896 0.909-2.1 0.512-3.17z" fill="#ff7d91"/><path d="m453 381c-7-6.64-14.6-8.89-21.3-6.35-0.433 0.162-0.826 0.415-1.15 0.742l-53.6 53.3c-0.244 0.243-0.448 0.523-0.606 0.83-2.73 5.35-2.16 14.5 1.43 22.8 2.68 6.19 9.4 17.2 24.3 21.6 3.55 1.03 7.24 1.52 11 1.52 22.3 0 46.5-17.4 53.9-40.8 6.36-20.2-2.45-42.7-14-53.6z" fill="#ff7387"/><path d="m419 368c-13.3-5.07-28.6-2.35-39.1 6.92-7.27 6.42-18 21.2-17.7 35.7 0.147 7.23 3.16 13.4 8.71 18 6.93 5.64 13.9 7.46 20 7.46 8.09-1e-3 14.6-3.22 17.5-4.89 0.343-0.161 0.664-0.386 0.943-0.672l30.5-31.2c0.691-0.706 1.03-1.69 0.91-2.67-1.6-13.5-9.53-24-21.8-28.6z" fill="#ff6478"/><path d="m440 395c-6.08-7.73-15.1-12.7-24.7-13.5-7.79-0.691-15.1 1.48-20.1 5.94-9.07 8.1-12.4 18.1-9.11 27.3 1.68 4.75 5.02 8.81 9.02 11.4-5.4 0.732-8.49 6.62-5.94 11.4 3.61 6.82 9.59 12.8 17.2 14.3 1.88 0.354 3.76 0.528 5.62 0.528 9.79 0 22-2.95 29.3-11.9 8.5-10.4 13.6-26.7-1.17-45.5z" fill="#ff5064"/><path d="m423 420c-1.94-0.14-6.66 4.26-12.1-1.48-2.81-2.96-3.31-7.61-1.54-11.3 0.433-0.893 0.964-1.67 1.57-2.35 1.17-1.3 0.23-3.32-1.51-3.13-4.61 0.512-8.99 3.13-11.6 7.72-2.95 5.26-2.4 12 1.4 16.7 6.3 7.77 17.7 7.46 23.6 0.151 0.621-0.763 1.13-1.57 1.56-2.42 0.757-1.49 0.912-3.75-1.44-3.92z" fill="#d24150"/><path d="m105 454-10.6 29.9c-0.303 0.859 0.0386 1.81 0.814 2.29 0.916 0.563 1.92 1.01 2.62 1.01 3.3 0 6.49-3.77 9.6-7.43 2.3-2.72 4.92-5.8 7.02-6.64 0.574-0.229 1.56-0.872 1.74-2.61 0.34-3.27-3.67-12.5-8.75-17.2-0.807-0.743-2.12-0.377-2.49 0.658z" fill="#ffafc3"/><g transform="matrix(.222 0 0 .222 -332 -319)" fill="#ffa5b9"><path d="m1633 3561-7.86-13.1c-15.4-25.7-44.6-39.6-74.3-35.4l-8.2 1.16c-2.74 0.392-5.14 2.04-6.48 4.46-11 19.9-6.13 37.3-1.82 52.7 3.26 11.6 6.08 21.7 2.22 31.9-0.97 2.57-0.672 5.5 0.78 7.83 3 4.82 42.3 33 83.5 36.9 0.28 0.025 0.561 0.039 0.841 0.039 2.76 0 5.39-1.3 7.06-3.53 18.3-24.3 19.9-56.9 4.29-83z"/><path d="m1728 3261c-26.6-21.6-72.7-19-78.2-17.1-2.87 0.983-5.13 3.42-5.82 6.38-1.96 8.3-8.12 17.7-14.1 26.8-10.1 15.4-20.5 31.4-16.6 48.7 0.909 4.04 4.5 6.89 8.61 6.89 0.134 0 0.267 0 0.396-0.01l22-0.983c38-1.7 71.7-25.2 86.4-60.3 1.53-3.66 0.389-7.86-2.69-10.4z"/><path d="m2014 3427c-14.1-57.8-79-81.1-81.8-82-4.6-1.6-9.63 0.81-11.2 5.42-0.699 1.99-17 49.4-7.81 95.4 9.11 45.5 41.2 89.8 42.5 91.7 1.68 2.31 4.35 3.63 7.14 3.63 0.595 0 1.2-0.061 1.8-0.185 3.4-0.707 6.06-3.34 6.82-6.72 2.26-10.1 16.8-42.7 27.4-66.5 16.2-36.4 16.2-36.7 15.2-40.7z"/></g><g transform="matrix(.222 0 0 .222 -332 -319)" fill="#ff9baf"><path d="m1657 3315c-1.56-2.13-4-3.44-6.64-3.59-37.8-2.07-104 60.2-112 67.3-1.02 0.979-1.79 2.18-2.25 3.52-1.12 3.27-27.1 80.6 0.392 133 10.9 20.7 28.6 34.5 52.6 41.1 0.771 0.215 1.56 0.319 2.34 0.319 1.54 0 3.07-0.405 4.43-1.19 2.05-1.19 3.54-3.16 4.12-5.45l58-227c0.655-2.56 0.124-5.28-1.44-7.41z"/><path d="m1890 3297c-40.2-23.2-55.7-57.8-55.9-58.2-1.19-2.75-3.69-4.7-6.64-5.2-0.88-0.151-89-14.2-119 54.4-1.73 4.02-0.258 8.7 3.47 11l211 130c1.41 0.871 3.02 1.32 4.64 1.32 0.905 0 1.81-0.138 2.69-0.418 2.46-0.789 4.45-2.61 5.45-4.99 13.3-31.7 12.5-94.5-46.1-128z"/><path d="m1917 3630c-0.258-4.47-3.82-8.03-8.28-8.3l-278-16.9c-3.56-0.194-6.99 1.78-8.53 5.07-4.88 10.4-7.5 27.8-0.22 45.6 9.31 22.7 31.8 40.8 67 53.7 17.9 6.6 30.5 12.9 41.7 18.4 13.9 6.86 25.8 12.8 41.5 15.9 4.4 0.858 8.88 1.28 13.4 1.28 21.4 0 44-9.42 64.9-27.3 4.14-3.54 10.1-7.01 16.4-10.7 22.2-13 52.6-30.7 49.9-76.8z"/></g><path d="m103 459c-1.02-3.1-2.08-6.31-2.49-9.49-0.712-5.54-2.89-9.68-6.46-12.3-5.45-4.02-12.1-2.91-12.4-2.86-0.643 0.112-1.19 0.536-1.45 1.13l-26.1 58.4c-0.342 0.764-0.16 1.66 0.452 2.23 3.32 3.1 7.96 5.31 12.8 5.31 3.48 0 7.05-1.16 10.3-3.98 3.89-3.41 7.68-5.2 11.4-6.92 6.14-2.89 11.9-5.61 15.7-15.1 2.06-5.19 0.268-10.6-1.62-16.4z" fill="#ff91a5"/><path d="m82.7 427c-1.96-3.92-3.92-5.88-11.2-8.21-4.22-1.34-9.21-2.12-14.3-5.12-9.63-5.67-17.3-1.79-21 1.02-6.32 4.78-10.2 13.4-8.72 19.1 0.221 0.841 0.968 1.44 1.84 1.46l50.8 1.56c0.02 8.9e-4 0.0402 8.9e-4 0.0604 8.9e-4 0.359 0 0.712-0.0986 1.02-0.286 1.9-1.16 3.8-5.07 1.57-9.53z" fill="#ff879b"/><path d="m62.2 488-21-56.9c-0.137-0.373-0.385-0.694-0.709-0.923-2.94-2.07-7.21-1.69-11.7 1.05-8.12 4.92-16.3 14.5-14.7 26.7 0.76 5.63 3.29 8.54 5.74 11.4 1.63 1.87 4.15 5.58 5.49 8.49 4.92 10.7 13.1 17.9 21.4 18.9 0.663 0.0813 1.32 0.121 1.97 0.121 5.04 0 9.69-2.39 13.3-6.87 0.429-0.538 0.546-1.26 0.307-1.9z" fill="#ff7d91"/><path d="m81.8 434c-4.2-3.98-8.75-5.34-12.8-3.81-0.26 0.0975-0.496 0.249-0.693 0.445l-32.2 32c-0.147 0.146-0.269 0.314-0.364 0.498-1.64 3.21-1.29 8.72 0.859 13.7 1.61 3.72 5.64 10.3 14.6 12.9 2.13 0.618 4.35 0.911 6.59 0.911 13.4 0 27.9-10.4 32.4-24.5 3.81-12.1-1.47-25.6-8.38-32.2z" fill="#ff7387"/><path d="m61.5 427c-7.97-3.04-17.2-1.41-23.5 4.15-4.36 3.86-10.8 12.8-10.6 21.5 0.088 4.34 1.9 8.07 5.23 10.8 4.16 3.39 8.33 4.48 12 4.48 4.86-8.9e-4 8.78-1.93 10.5-2.93 0.206-0.0968 0.398-0.232 0.566-0.403l18.3-18.8c0.414-0.424 0.616-1.01 0.546-1.6-0.96-8.12-5.72-14.4-13.1-17.2z" fill="#ff6478"/><path d="m74.1 443c-3.65-4.64-9.06-7.6-14.8-8.11-4.67-0.414-9.08 0.889-12.1 3.57-5.44 4.86-7.44 10.8-5.47 16.4 1.01 2.85 3.01 5.29 5.41 6.83-3.24 0.44-5.09 3.97-3.56 6.86 2.17 4.09 5.76 7.7 10.3 8.56 1.13 0.213 2.25 0.317 3.37 0.317 5.88 0 13.2-1.77 17.6-7.12 5.1-6.27 8.15-16-0.702-27.3z" fill="#ff5064"/><path d="m64 458c-1.16-0.0837-4 2.56-7.26-0.889-1.68-1.78-1.99-4.57-0.922-6.77 0.26-0.536 0.579-1 0.943-1.41 0.702-0.78 0.138-1.99-0.905-1.88-2.77 0.307-5.39 1.88-6.94 4.63-1.77 3.16-1.44 7.21 0.838 10 3.78 4.66 10.6 4.48 14.2 0.0904 0.373-0.458 0.681-0.944 0.939-1.45 0.454-0.894 0.548-2.25-0.864-2.35z" fill="#d24150"/></g></g></svg>
