<?xml version="1.0" encoding="UTF-8" standalone="no"?>
<svg
   xmlns:dc="http://purl.org/dc/elements/1.1/"
   xmlns:cc="http://creativecommons.org/ns#"
   xmlns:rdf="http://www.w3.org/1999/02/22-rdf-syntax-ns#"
   xmlns:svg="http://www.w3.org/2000/svg"
   xmlns="http://www.w3.org/2000/svg"
   xmlns:sodipodi="http://sodipodi.sourceforge.net/DTD/sodipodi-0.dtd"
   xmlns:inkscape="http://www.inkscape.org/namespaces/inkscape"
   inkscape:version="1.0 (4035a4f, 2020-05-01)"
   sodipodi:docname="لبنیات.svg"
   id="svg857"
   xml:space="preserve"
   viewBox="0 0 128 128"
   version="1.1"
   height="128"
   width="128"><metadata
   id="metadata863"><rdf:RDF><cc:Work
       rdf:about=""><dc:format>image/svg+xml</dc:format><dc:type
         rdf:resource="http://purl.org/dc/dcmitype/StillImage" /><dc:title></dc:title></cc:Work></rdf:RDF></metadata><defs
   id="defs861" /><sodipodi:namedview
   inkscape:current-layer="svg857"
   inkscape:window-maximized="0"
   inkscape:window-y="0"
   inkscape:window-x="0"
   inkscape:cy="92.929329"
   inkscape:cx="61.27826"
   inkscape:zoom="1.403174"
   inkscape:showpageshadow="false"
   showgrid="false"
   id="namedview859"
   inkscape:window-height="768"
   inkscape:window-width="1366"
   inkscape:pageshadow="2"
   inkscape:pageopacity="0"
   guidetolerance="10"
   gridtolerance="10"
   objecttolerance="10"
   borderopacity="1"
   bordercolor="#666666"
   pagecolor="#ffffff" />

























<g
   id="g1077"><g
     transform="matrix(0.21930649,0,0,0.21930649,41.617943,15.352157)"
     id="g855"><path
   d="m 196,54.1 v 31.1 c 0,14.9 -3.69,29.5 -10.8,42.6 L 146,200.6 c -17.3,32.1 -26.3,67.9 -26.3,104 v 172 c 0,19.3 15.7,35 35,35 h 203 c 19.3,0 35,-15.7 35,-35 v -172 c 0,-36.4 -9.04,-72.2 -26.3,-104 L 327.2,127.8 C 320.14,114.7 316.4,100.1 316.4,85.2 V 54.1 Z"
   style="fill:#e4e7e9"
   id="path833" />
	<path
   d="m 187,460 -17.4,-17.3 c -8.54,-8.48 -9.43,-22 -2.08,-31.5 8.06,-10.5 6.1,-25.5 -4.37,-33.5 -13.5,-10.3 -29.7,-12.4 -43.9,-8.07 v 108 c 0,19.3 15.7,35 35,35 h 34 c 3.89,-4.26 6.86,-9.45 8.5,-15.3 3.72,-13.2 -0.029,-27.5 -9.79,-37.2 z"
   style="fill:#3e4b58"
   id="path835" />
	<path
   d="m 327,128 c -3.9,-7.23 -6.76,-14.9 -8.55,-22.9 -6.18,-0.298 -12.4,-0.299 -18.6,0.012 -13.6,0.681 -26.2,7.65 -33.9,18.9 -13.7,19.7 -9.56,46.6 9.32,61.4 13,10.2 30.4,12.8 45.8,6.96 8.72,-3.3 18.3,-3.43 27.1,-0.376 l 16.4,5.68 z"
   style="fill:#3e4b58"
   id="path837" />
<path
   d="M 314,0 H 199 c -12.5,0 -22.7,10.2 -22.7,22.7 v 18.9 c 0,6.9 5.6,12.5 12.5,12.5 h 136 c 6.9,0 12.5,-5.6 12.5,-12.5 V 22.7 C 337.301,10.2 327.1,0 314.6,0 Z"
   style="fill:#59a8ed"
   id="path839" /><path
   d="m 314,0 h -29.6 c 12.5,0 22.7,10.2 22.7,22.7 v 18.9 c 0,6.9 -5.6,12.5 -12.5,12.5 h 29.6 c 6.9,0 12.5,-5.6 12.5,-12.5 V 22.7 C 336.7,10.2 326.5,0 314,0 Z"
   style="opacity:0.1;enable-background:new"
   id="path841" /><path
   d="M 366,201 326.8,128.2 C 319.74,115.1 316,100.5 316,85.6 V 54.5 H 195 v 27.7 h 83.6 c 1.89,0 3.42,1.53 3.42,3.42 0,14.9 3.69,29.5 10.8,42.6 l 39.2,72.8 c 17.3,32.1 26.3,67.9 26.3,104 v 172 c 0,19.3 -15.7,35 -35,35 h 33.5 c 19.3,0 35,-15.7 35,-35 v -172 c 0.002,-36.4 -9.04,-72.2 -26.3,-104 z"
   style="opacity:0.1;enable-background:new"
   id="path843" /><circle
   cx="256"
   cy="337"
   r="32.099998"
   style="fill:#fda354"
   id="circle845" /><path
   d="m 273,310 h -33.4 c -9.27,5.64 -15.5,15.8 -15.5,27.5 0,5.65 1.46,11 4.02,15.6 h 56.3 c 2.56,-4.61 4.02,-9.92 4.02,-15.6 0,-11.6 -6.2,-21.8 -15.5,-27.5 z"
   style="opacity:0.1;enable-background:new"
   id="path847" /><path
   d="m 282,222 h -51.5 c -8.97,0 -16.9,5.93 -19.4,14.5 l -3.58,12.4 c -5.88,20.3 -8.86,41.4 -8.86,62.5 v 13.1 c 0,6.93 5.62,12.6 12.6,12.6 h 90 c 6.93,0 12.6,-5.62 12.6,-12.6 v -13.1 c 0,-21.2 -2.98,-42.2 -8.86,-62.5 l -3.58,-12.4 c -2.49,-8.62 -10.4,-14.5 -19.4,-14.5 z"
   style="fill:#fda354"
   id="path849" /><path
   d="m 305,249 -3.58,-12.4 c -2.49,-8.62 -10.4,-14.5 -19.4,-14.5 h -18.3 c 8.97,0 16.9,5.93 19.4,14.5 l 3.58,12.4 c 5.88,20.3 8.86,41.4 8.86,62.5 v 13.1 c 0,6.93 -5.62,12.6 -12.6,12.6 h 18.3 c 6.93,0 12.6,-5.62 12.6,-12.6 v -13.1 c 0,-21.2 -2.98,-42.2 -8.86,-62.5 z"
   style="opacity:0.1;enable-background:new"
   id="path851" /><path
   d="m 291,397 13.3,-4.94 c 6.02,-2.24 12.7,-2.14 18.6,0.26 l 15.8,6.38 c 16.4,6.63 21.4,27.5 9.78,40.8 l -3.07,3.52 c -6.02,6.9 -15.2,10.1 -24.2,8.38 l -26,-4.96 c -13.8,-2.64 -23,-15.9 -20.5,-29.8 1.6,-8.99 7.83,-16.5 16.4,-19.7 z"
   style="fill:#3e4b58"
   id="path853" /></g><g
     id="g1037"
     transform="matrix(0.38473593,0,0,0.38473593,138.30691,53.498638)"><polygon
       transform="matrix(0.42672407,0,0,0.42672407,-1043.3149,-836.29344)"
       points="1805,2115 1805,1980 1949,2007 2011,2077 "
       fill="#fff3ad"
       id="polygon869" /><polygon
       transform="matrix(0.42672407,0,0,0.42672407,-1043.3149,-836.29344)"
       points="1810,1980 1810,2115 1632,2077 1694,2007 "
       fill="#fff"
       style="fill:#fffbe7"
       id="polygon871" /><path
       style="stroke-width:0.426724"
       d="m -282.46588,99.93917 11.64956,87.05171 43.95258,-5.88879 c 26.11552,-13.91121 43.52586,-39.8987 43.52586,-69.55603 z"
       fill="#c7cacc"
       id="path873" /><path
       style="stroke-width:0.426724"
       d="m -358.42277,111.46072 c 0,29.78534 17.58103,55.90085 43.52586,69.55602 l 43.95258,5.8888 V 99.853825 Z"
       fill="#e4e7e9"
       id="path875" /><path
       style="stroke-width:0.426724"
       d="m -194.98745,47.452109 c 0,21.677583 11.64957,42.672407 11.64957,64.435331 -13.22845,0 -20.44008,3.60582 -26.20086,6.48621 -4.95,2.47927 -8.87586,4.43793 -17.53836,4.43793 -8.6625,0 -12.54569,-1.95866 -17.53836,-4.43793 -5.80345,-2.89319 -12.97241,-6.48621 -26.20086,-6.48621 l -23.3418,-32.174991 23.3418,-32.174995 z"
       fill="#c7cacc"
       id="path877" /><path
       style="stroke-width:0.426724"
       d="m -270.94433,47.452109 v 64.435331 c -13.22845,0 -20.44009,3.60582 -26.20086,6.48621 -4.95,2.47927 -8.87586,4.43793 -17.53836,4.43793 -8.6625,0 -12.54569,-1.95866 -17.53836,-4.43793 -5.80345,-2.89319 -12.97241,-6.48621 -26.20086,-6.48621 0,-21.677579 11.64957,-42.672403 11.64957,-64.435331 z"
       fill="#e4e7e9"
       id="path879" /><polygon
       transform="matrix(0.42672407,0,0,0.42672407,-1043.3149,-836.29344)"
       points="1791,2398 1810,2385 1913,2385 1913,2412 1810,2412 "
       fill="#2178ba"
       id="polygon881" /><polygon
       transform="matrix(0.42672407,0,0,0.42672407,-1043.3149,-836.29344)"
       points="1791,2071 1810,2057 1865,2057 1893,2066 1920,2057 2015,2057 2015,2084 1920,2084 1894,2075 1865,2084 1810,2084 "
       fill="#2178ba"
       id="polygon883" /><rect
       x="-358.42276"
       y="41.47797"
       width="87.478432"
       height="11.649567"
       fill="#59a8ed"
       style="stroke-width:0.524871"
       id="rect885" /><g
       transform="matrix(0.42668069,-0.0060846,0.0060846,0.42668069,-1056.1835,-824.21442)"
       id="g891"><g
         stroke="null"
         id="g889"><path
           d="m 1992,2110 c -1.68,-6.46 -2.45,-13.1 -2.33,-19.7 -4.82,-1.43 -9.72,-2.62 -14.7,-3.58 -10.9,-2.09 -22.1,0.998 -30.4,8.35 -14.6,12.9 -16.5,34.9 -4.48,50.2 8.3,10.5 21.5,15.9 34.8,14.3 7.51,-0.922 15.1,0.822 21.4,4.92 l 11.8,7.64 z"
           fill="#3e4b58"
           stroke="null"
           id="path887" /></g></g><circle
       style="stroke-width:0.336259"
       cx="-271.19183"
       cy="120.78554"
       r="10.7939"
       fill="#fda354"
       id="circle893" /><path
       style="stroke-width:0.426724"
       d="m -265.82364,111.46072 h -11.22285 c -3.11935,1.89465 -5.20603,5.33405 -5.20603,9.25991 0,1.89892 0.49073,3.68263 1.35271,5.24871 h 18.90388 c 0.86198,-1.54901 1.35272,-3.33272 1.35272,-5.24871 0,-3.91733 -2.08242,-7.33965 -5.20604,-9.25991 z"
       opacity="0.1"
       id="path895" /><path
       style="stroke-width:0.426724"
       d="m -262.83658,82.016759 h -17.32499 c -3.01694,0 -5.67543,1.992801 -6.52888,4.907326 l -1.20336,4.156293 c -1.97574,6.827585 -2.97854,13.911202 -2.97854,21.037492 v 4.39526 c 0,2.32992 1.89039,4.2203 4.2203,4.2203 h 30.25474 c 2.32991,0 4.2203,-1.89038 4.2203,-4.2203 v -4.39526 c 0,-7.12629 -1.0028,-14.209907 -2.97853,-21.037492 l -1.20336,-4.156293 c -0.83638,-2.897456 -3.49061,-4.907326 -6.48621,-4.907326 z"
       fill="#fda354"
       id="path897" /><path
       style="stroke-width:0.426724"
       d="m -255.15554,90.977964 -1.20336,-4.156292 c -0.83638,-2.897457 -3.49061,-4.907327 -6.52888,-4.907327 h -6.14483 c 3.01694,0 5.67543,1.992801 6.52888,4.907327 l 1.20336,4.156292 c 1.97573,6.827585 2.97853,13.911206 2.97853,21.037496 v 4.39526 c 0,2.32991 -1.89038,4.2203 -4.2203,4.2203 h 6.14483 c 2.32991,0 4.2203,-1.89039 4.2203,-4.2203 v -4.39526 c 0,-7.12629 -1.0028,-14.209911 -2.97853,-21.037496 z"
       opacity="0.1"
       id="path899" /><g
       transform="matrix(0.41595406,0.0952662,-0.0952662,0.41595406,-827.84662,-977.11008)"
       id="g905"><g
         transform="matrix(1.03,0,0,1.03,-4300,-404)"
         stroke="null"
         id="g903"><path
           d="m 5833,2523 -17.4,-17.3 c -8.54,-8.48 -9.43,-22 -2.08,-31.5 8.06,-10.5 6.1,-25.5 -4.37,-33.5 -13.5,-10.3 -29.7,-12.4 -43.9,-8.07 v 108 c 0,19.3 15.7,35 35,35 h 34 c 3.89,-4.26 6.86,-9.45 8.5,-15.3 3.72,-13.2 -0.029,-27.5 -9.79,-37.2 z"
           fill="#3e4b58"
           stroke="null"
           id="path901" /></g></g><g
       transform="matrix(-0.35377029,0.23862107,-0.23862107,-0.35377029,1011.8876,487.204)"
       id="g909"><path
         d="m 1900,2252 19.3,-7.17 c 8.74,-3.25 18.4,-3.11 27,0.377 l 22.9,9.26 c 23.8,9.62 31.1,39.9 14.2,59.3 l -4.46,5.11 c -8.74,10 -22.1,14.7 -35.2,12.2 l -37.8,-7.2 c -20.1,-3.83 -33.4,-23.1 -29.8,-43.3 2.32,-13.1 11.4,-23.9 23.8,-28.5 z"
         fill="#3e4b58"
         stroke="null"
         id="path907" /></g><g
       transform="matrix(-0.1032339,0.41404854,-0.41404854,-0.1032339,865.09171,-314.01993)"
       id="g915"><g
         stroke="null"
         id="g913"><path
           d="m 1780,2340 c -1.68,-6.46 -2.45,-13.1 -2.33,-19.7 -4.82,-1.43 -9.72,-2.62 -14.7,-3.58 -10.9,-2.09 -22.1,0.998 -30.4,8.35 -14.6,12.9 -16.5,34.9 -4.48,50.2 8.3,10.5 21.5,15.9 34.8,14.3 7.51,-0.922 15.1,0.822 21.4,4.92 l 11.8,7.64 z"
           fill="#3e4b58"
           stroke="null"
           id="path911" /></g></g><rect
       x="-314.47018"
       y="181.44347"
       width="43.952579"
       height="11.649567"
       fill="#59a8ed"
       style="stroke-width:0.524871"
       id="rect917" /></g></g></svg>
