<svg width="128" height="128" enable-background="new 0 0 512 512" version="1.1" viewBox="0 0 128 128" xmlns="http://www.w3.org/2000/svg"><g id="007---Poppadom-and-Dips" transform="matrix(2.2 0 0 2.2 -2.04 13.6)" style="fill-rule:evenodd;fill:none"><path id="Path" d="m59 22.3c0 8.13-5.99 15.2-14.8 18.9-0.0349-0.418-0.203-0.814-0.48-1.13l-30.4-35.5c5.17-2.67 10.9-4.03 16.7-3.98 16 0 29 9.7 29 21.7z" fill="#7f8c8d"/><path d="m55 22.3c0 6.41-5.1 12.4-13.2 15.6l-25.8-30.1c3.08-1.49 6.38-2.45 9.78-2.85-0.456 0.595-0.708 1.32-0.72 2.07 0 2.76 3.58 5 8 5s8-2.24 8-5c-0.00131-0.184-0.018-0.368-0.05-0.55 8.31 2.88 14 8.91 14 15.9z" fill="#95a5a5"/><path d="m44.2 41.2c0.0731 0.985-0.572 1.88-1.53 2.12-4.01 0.995-8.14 1.36-12.3 1.09-17-1.08-30.1-12.2-29.3-25 0.39-6.14 3.97-11.5 9.49-15.3 0.842-0.581 1.99-0.43 2.65 0.35l0.09 0.1 28.5 33.2 1.9 2.22c0.277 0.316 0.445 0.712 0.48 1.13z" fill="#f9eab0"/><g fill="#e4c05c"><path d="m5.03 20.8h-0.063c-0.551-0.0343-0.97-0.509-0.936-1.06 0.28-4.43 2.66-8.66 6.69-11.9 0.277-0.232 0.658-0.297 0.996-0.169s0.581 0.429 0.635 0.786c0.0538 0.358-0.0896 0.716-0.375 0.938-3.65 2.94-5.7 6.57-5.95 10.5-0.0347 0.525-0.471 0.934-0.997 0.934z"/><path d="m30.6 41.5h-0.064c-7.15-0.313-14-2.91-19.6-7.4-0.421-0.359-0.471-0.991-0.112-1.41s0.991-0.471 1.41-0.112c5.24 4.22 11.7 6.65 18.4 6.93 0.552 0.0174 0.986 0.479 0.968 1.03-0.0174 0.552-0.479 0.986-1.03 0.968z"/><path d="m25.7 37c-0.0896 2.04e-4 -0.179-0.0119-0.265-0.036-8.2-2.25-14.2-6.59-16.5-11.9-1.38-3.02-1.26-6.51 0.319-9.44 0.259-0.488 0.865-0.673 1.35-0.414s0.673 0.865 0.414 1.35c-1.29 2.39-1.38 5.24-0.248 7.7 2.02 4.69 7.7 8.71 15.2 10.8 0.484 0.132 0.796 0.601 0.729 1.1-0.0668 0.497-0.491 0.868-0.993 0.867z"/><path d="m18.6 29.6c-0.195 5.3e-5 -0.386-0.057-0.549-0.164-2.35-1.42-4.24-3.48-5.44-5.95-0.978-2.27-1.29-5.67 2.76-8.99 0.276-0.227 0.652-0.289 0.987-0.163 0.334 0.126 0.576 0.42 0.634 0.773 0.0582 0.353-0.076 0.709-0.352 0.936-2.52 2.06-3.23 4.24-2.19 6.66 1.05 2.11 2.69 3.87 4.71 5.07 0.369 0.243 0.535 0.699 0.408 1.12-0.127 0.423-0.517 0.713-0.959 0.712z"/><circle id="Oval" cx="6" cy="26" r="1"/><circle cx="13" cy="12" r="1"/><circle cx="24" cy="31" r="1"/><circle cx="30" cy="37" r="1"/><circle cx="19" cy="21" r="1"/></g></g><g transform="matrix(.113 0 0 .113 49 .951)"><path d="m75 256c-41.4 0-75 33.6-75 75 0 36.3 25.8 68 60 75l91-75c0-41.4-34.6-75-76-75z" style="fill:#ff9100"/><path d="m181 241c0 41.4-33.6 75-75 75s-76-33.6-76-75 34.6-75 76-75 75 33.6 75 75z" style="fill:#fdbf00"/><circle cx="166" cy="181" r="75" style="fill:#ff9100"/><path d="m331 151c0 41.4-33.6 75-75 75s-75-33.6-75-75 33.6-75 75-75 75 33.6 75 75z" style="fill:#fdbf00"/><path d="m331 151c0 41.4-33.6 75-75 75v-150c41.4 0 75 33.6 75 75z" style="fill:#ff9100"/><path d="m422 181c0 41.4-33.6 75-75 75s-76-33.6-76-75 34.6-75 76-75 75 33.6 75 75z" style="fill:#ff641a"/><path d="m482 241c0 41.4-33.6 75-75 75s-76-33.6-76-75 34.6-75 76-75 75 33.6 75 75z" style="fill:#ff9100"/><path d="m437 256c-41.4 0-75 33.6-75 75l90 75c34.2-6.95 60-38.7 60-75 0-41.4-33.6-75-75-75z" style="fill:#ff641a"/><path d="m262 166h-6c-108 0-196 87.3-196 195v45h27.1c41.7 0 78.6 6.3 110 18.3 19.8 7.8 39.6 11.7 58.5 11.7s38.7-3.9 58.5-11.7c31.8-12 69.7-18.3 111-18.3h26.1v-37.5c0-109-85.9-199-190-202z" style="fill:#ffda2d"/><path d="m452 368v37.5h-26.1c-41.7 0-79.6 6.3-111 18.3-19.8 7.8-39.6 11.7-58.5 11.7v-270h6c104 3.3 190 93.9 190 202z" style="fill:#fdbf00"/><circle cx="166" cy="331" r="15" style="fill:#ff9100"/><circle cx="226" cy="331" r="15" style="fill:#ff9100"/><circle cx="196" cy="271" r="15" style="fill:#ff9100"/></g><g transform="matrix(.113 0 0 .113 68.6 31.9)"><path d="m75 256c-41.4 0-75 33.6-75 75 0 36.3 25.8 68 60 75l91-75c0-41.4-34.6-75-76-75z" style="fill:#ff9100"/><path d="m181 241c0 41.4-33.6 75-75 75s-76-33.6-76-75 34.6-75 76-75 75 33.6 75 75z" style="fill:#fdbf00"/><circle cx="166" cy="181" r="75" style="fill:#ff9100"/><path d="m331 151c0 41.4-33.6 75-75 75s-75-33.6-75-75 33.6-75 75-75 75 33.6 75 75z" style="fill:#fdbf00"/><path d="m331 151c0 41.4-33.6 75-75 75v-150c41.4 0 75 33.6 75 75z" style="fill:#ff9100"/><path d="m422 181c0 41.4-33.6 75-75 75s-76-33.6-76-75 34.6-75 76-75 75 33.6 75 75z" style="fill:#ff641a"/><path d="m482 241c0 41.4-33.6 75-75 75s-76-33.6-76-75 34.6-75 76-75 75 33.6 75 75z" style="fill:#ff9100"/><path d="m437 256c-41.4 0-75 33.6-75 75l90 75c34.2-6.95 60-38.7 60-75 0-41.4-33.6-75-75-75z" style="fill:#ff641a"/><path d="m262 166h-6c-108 0-196 87.3-196 195v45h27.1c41.7 0 78.6 6.3 110 18.3 19.8 7.8 39.6 11.7 58.5 11.7s38.7-3.9 58.5-11.7c31.8-12 69.7-18.3 111-18.3h26.1v-37.5c0-109-85.9-199-190-202z" style="fill:#ffda2d"/><path d="m452 368v37.5h-26.1c-41.7 0-79.6 6.3-111 18.3-19.8 7.8-39.6 11.7-58.5 11.7v-270h6c104 3.3 190 93.9 190 202z" style="fill:#fdbf00"/><circle cx="166" cy="331" r="15" style="fill:#ff9100"/><circle cx="226" cy="331" r="15" style="fill:#ff9100"/><circle cx="196" cy="271" r="15" style="fill:#ff9100"/></g></svg>
