<svg width="128" height="128" version="1.1" xmlns="http://www.w3.org/2000/svg"><g transform="matrix(.253 0 0 .253 -2.05 -.856)"><title>Layer 1</title><g stroke="null"><g transform="matrix(8.42 0 0 8.42 -4.48 -1.04)" stroke="null"><path d="m16.9 13 2.14 0.855c1.1 0.441 2.28 0.668 3.47 0.668 1.45 0 2.88-0.337 4.17-0.985l0.059-0.03c1.3-0.648 2.72-0.985 4.17-0.985h0.594c1.45 0 2.88 0.337 4.17 0.985l0.059 0.03c1.3 0.648 2.72 0.985 4.17 0.985h0.283c1 0 2-0.162 2.95-0.479l3.34-1.11h-1e-3c0.767 1.57 2.07 2.85 3.73 3.59 2.74 1.22 4.5 3.93 4.5 6.92v31.1c0 3.31-2.69 6-6 6h-34c-3.31 0-6-2.69-6-6v-31.1c0-3 1.76-5.71 4.5-6.92 1.63-0.726 2.92-1.99 3.69-3.52z" fill="#ace54b"/><path d="m33.5 12.8c-0.668-0.149-1.35-0.231-2.04-0.231h-0.594c-1.45 0-2.88 0.337-4.17 0.985l-0.059 0.03c-1.3 0.648-2.72 0.985-4.17 0.985-1.19 0-2.36-0.227-3.47-0.667l-2.14-0.855c-0.771 1.54-2.06 2.8-3.69 3.52-2.74 1.22-4.5 3.93-4.5 6.92v17.3c12.7-4.04 22.3-14.8 24.8-28z" fill="#d0f669"/><path d="m46.4 13-3.34 1.11c-0.951 0.317-1.95 0.479-2.95 0.479h-0.283c-1.45 0-2.88-0.337-4.17-0.985l-0.059-0.03c-1.3-0.648-2.72-0.985-4.17-0.985h-0.594c-1.45 0-2.88 0.337-4.17 0.985l-0.059 0.03c-1.3 0.648-2.72 0.985-4.17 0.985-1.19 0-2.36-0.227-3.47-0.667l-2.14-0.855c0.521-1.04 0.807-2.2 0.807-3.4v-1.08h28v1.08c0 1.18 0.274 2.32 0.773 3.33z" fill="#c7e2fc"/><path d="m34.5 53.4c5.82-4.06 10.3-9.8 12.8-16.5l2.81-7.42c0.706-1.87 0.749-3.92 0.122-5.82-0.622-1.88-1.96-3.44-3.72-4.32-1.95-0.983-4.23-1.05-6.24-0.185-2.34 1.01-4.2 2.87-5.22 5.22l-0.383 0.881c-3.18 7.33-7.87 13.9-13.7 19.3-1.14 1.05-1.9 2.45-2.16 3.99-0.363 2.2 0.348 4.43 1.91 6.01 1.49 1.5 3.59 2.23 5.69 1.96 2.92-0.367 5.71-1.44 8.13-3.13z" fill="#50761e"/><path d="m19.7 53.3c0.853 0.235 1.75 0.304 2.65 0.191 2.92-0.368 5.71-1.44 8.13-3.13 5.82-4.06 10.3-9.8 12.8-16.5l2.81-7.42c0.706-1.87 0.749-3.92 0.122-5.82-0.21-0.636-0.503-1.23-0.865-1.78-1.63-0.503-3.4-0.428-5 0.236 0.48 1.77 0.392 3.65-0.258 5.37l-2.81 7.42c-2.52 6.66-6.99 12.4-12.8 16.5-1.74 1.21-3.66 2.1-5.69 2.65l-9e-3 -0.04c0.158 0.824 0.466 1.61 0.91 2.33z" fill="#6ea22a"/><path d="m28.8 53.4c-5.82-4.06-10.3-9.8-12.8-16.5l-2.81-7.42c-0.706-1.87-0.749-3.92-0.122-5.82 0.622-1.88 1.96-3.44 3.72-4.32 1.95-0.983 4.23-1.05 6.24-0.185 2.34 1.01 4.2 2.87 5.22 5.22l0.383 0.881c3.18 7.33 7.87 13.9 13.7 19.3 1.14 1.05 1.9 2.45 2.16 3.99 0.363 2.2-0.348 4.43-1.91 6.01-1.49 1.5-3.59 2.23-5.69 1.96-2.92-0.367-5.71-1.44-8.13-3.13z" fill="#50761e"/><path d="m43.6 53.3c-0.853 0.235-1.75 0.304-2.65 0.191-2.92-0.368-5.71-1.44-8.13-3.13-5.82-4.06-10.3-9.8-12.8-16.5l-2.81-7.42c-0.706-1.87-0.749-3.92-0.122-5.82 0.21-0.636 0.503-1.23 0.865-1.78 1.63-0.503 3.4-0.428 5 0.236-0.48 1.77-0.392 3.65 0.258 5.37l2.81 7.42c2.52 6.66 6.99 12.4 12.8 16.5 1.74 1.21 3.66 2.1 5.69 2.65l9e-3 -0.04c-0.158 0.824-0.466 1.61-0.91 2.33z" fill="#6ea22a"/><path d="m45.7 8.56h-28c-1.1 0-2-0.895-2-2v-4c0-1.1 0.895-2 2-2h28c1.1 0 2 0.895 2 2v4c0 1.1-0.895 2-2 2z" fill="#758190"/><path d="m45.7 3.56h-28c-1.1 0-2 0.895-2 2v1c0 1.1 0.895 2 2 2h28c1.1 0 2-0.895 2-2v-1c0-1.1-0.895-2-2-2z" fill="#8892a0"/><path d="m18.7 3.56h2v5h-2z" fill="#a8b0bc" stroke="null"/><path d="m22.7 3.56h2v5h-2z" fill="#a8b0bc" stroke="null"/><path d="m26.7 3.56h2v5h-2z" fill="#a8b0bc" stroke="null"/><path d="m30.7 3.56h2v5h-2z" fill="#a8b0bc" stroke="null"/><path d="m34.7 3.56h2v5h-2z" fill="#a8b0bc" stroke="null"/><path d="m38.7 3.56h2v5h-2z" fill="#a8b0bc" stroke="null"/><path d="m42.7 3.56h2v5h-2z" fill="#a8b0bc" stroke="null"/><g fill="#ebf7fe"><path d="m16.9 13h-1e-3z"/><path d="m17.7 8.56v1.08c0 1.21-0.286 2.37-0.806 3.4l2.14 0.855c1.1 0.44 2.28 0.667 3.46 0.667 1.45 0 2.88-0.337 4.17-0.985l0.059-0.03c1.3-0.648 2.72-0.985 4.17-0.985h0.594c0.689 0 1.37 0.082 2.04 0.231 0.263-1.38 0.446-2.8 0.549-4.23h-16.4z"/></g></g></g><g fill="#8cc736" stroke="null" stroke-opacity="null" stroke-width="null"><ellipse cx="418" cy="302" rx="9.9" ry="16.1"/><ellipse transform="rotate(-42.3 411 334)" cx="411" cy="334" rx="9.9" ry="16.1"/><ellipse transform="rotate(38 426 334)" cx="426" cy="334" rx="9.9" ry="16.1"/><ellipse transform="rotate(-42.3 411 366)" cx="411" cy="366" rx="9.9" ry="16.1"/><ellipse transform="rotate(38 427 365)" cx="427" cy="365" rx="9.9" ry="16.1"/><ellipse transform="rotate(-42.3 411 396)" cx="411" cy="396" rx="9.9" ry="16.1"/><ellipse transform="rotate(38 427 396)" cx="427" cy="396" rx="9.9" ry="16.1"/><ellipse transform="rotate(37.7 411 465)" cx="411" cy="465" rx="9.9" ry="16.1"/><ellipse cx="421" cy="431" rx="9.9" ry="16.1"/><ellipse transform="rotate(-32.2 426 466)" cx="426" cy="466" rx="9.9" ry="16.1"/><ellipse cx="261" cy="138" rx="9.9" ry="16.1"/><ellipse transform="rotate(-42.3 254 170)" cx="254" cy="170" rx="9.9" ry="16.1"/><ellipse transform="rotate(38 269 169)" cx="269" cy="169" rx="9.9" ry="16.1"/><ellipse transform="rotate(-42.3 254 201)" cx="254" cy="201" rx="9.9" ry="16.1"/><ellipse transform="rotate(38 270 200)" cx="270" cy="200" rx="9.9" ry="16.1"/><ellipse cx="113" cy="364" rx="9.9" ry="16.1"/><ellipse transform="rotate(-42.3 106 396)" cx="106" cy="396" rx="9.9" ry="16.1"/><ellipse transform="rotate(38 121 396)" cx="121" cy="396" rx="9.9" ry="16.1"/><ellipse transform="rotate(-42.3 106 428)" cx="106" cy="428" rx="9.9" ry="16.1"/><ellipse transform="rotate(38 122 427)" cx="122" cy="427" rx="9.9" ry="16.1"/><ellipse transform="rotate(-42.3 106 458)" cx="106" cy="458" rx="9.9" ry="16.1"/><ellipse transform="rotate(38 122 458)" cx="122" cy="458" rx="9.9" ry="16.1"/></g><g fill="#fff" stroke="null" stroke-opacity="null" stroke-width="null"><ellipse transform="rotate(-33.7 181 220)" cx="181" cy="220" rx="10" ry="13"/><ellipse transform="rotate(-33.7 231 268)" cx="231" cy="268" rx="20.2" ry="26.1"/><ellipse transform="rotate(21.3 369 228)" cx="369" cy="228" rx="25.2" ry="19.2"/><ellipse transform="rotate(21.3 337 251)" cx="337" cy="251" rx="12" ry="9.2"/><ellipse transform="rotate(-38.3 93.8 274)" cx="93.8" cy="274" rx="9.04" ry="11.7"/><ellipse transform="rotate(-39.1 96.6 318)" cx="96.6" cy="318" rx="13.7" ry="19.1"/><ellipse transform="rotate(-38.3 386 416)" cx="386" cy="416" rx="5.1" ry="6.61"/><ellipse transform="rotate(-38.3 391 445)" cx="391" cy="445" rx="8.33" ry="10.8"/></g></g></svg>
