<svg width="128" height="128" enable-background="new 0 0 512 512" version="1.1" viewBox="0 0 128 128" xmlns="http://www.w3.org/2000/svg"><g transform="matrix(.162 0 0 .162 -3.34 45.5)"><path d="m363 467-107-21.1-107 21.1s-24.8 14.7-28.1 45.2h269c-3.26-30.4-28.1-45.2-28.1-45.2z" fill="#dc8758"/><path d="m391 512h-21c-3.26-30.4-28.1-45.2-28.1-45.2h21c1e-3 0 24.8 14.8 28.1 45.2z" fill="#d77f4a"/><path d="m373 71.7c0-15.6-12.6-28.2-28.2-28.2-3.88 0-7.57 0.799-10.9 2.23-1.53 0.649-3.18-0.524-3.18-2.19v-0.041c0-15.6-12.6-28.2-28.2-28.2-6.03 0-11.6 1.91-16.2 5.14-1.27 0.894-3.03 0.337-3.52-1.13-3.74-11.2-14.3-19.3-26.8-19.3s-23 8.07-26.8 19.3c-0.491 1.47-2.25 2.03-3.52 1.13-4.58-3.23-10.2-5.14-16.2-5.14-15.6 0-28.2 12.6-28.2 28.2v0.041c3e-3 1.66-1.65 2.84-3.18 2.19-3.36-1.43-7.05-2.23-10.9-2.23-15.6 0-28.2 12.6-28.2 28.2z" fill="#fef0ae"/><path d="m373 71.7h-19.7c-5.05-7.63-13.7-12.7-23.5-12.7-3.89 0-7.57 0.796-10.9 2.22-1.53 0.652-3.19-0.517-3.18-2.18v-0.041c0-15.6-12.6-28.2-28.2-28.2-6.03 0-11.6 1.9-16.2 5.14-1.27 0.89-3.03 0.331-3.53-1.14-3.73-11.2-14.3-19.3-26.7-19.3-3.97 0-7.75 0.817-11.2 2.3 4.13-10.4 14.3-17.8 26.2-17.8 12.5 0 23 8.08 26.8 19.3 0.486 1.47 2.26 2.03 3.52 1.14 4.58-3.24 10.2-5.14 16.2-5.14 15.6 0 28.2 12.6 28.2 28.2v0.041c0 1.66 1.64 2.83 3.18 2.18 3.36-1.43 7.06-2.22 10.9-2.22 15.6 1e-3 28.2 12.6 28.2 28.2z" fill="#fee45a"/><path d="m84.8 220-51.3-29.6c-10.2-5.91-13.7-19-7.83-29.2s19-13.7 29.2-7.83l51.3 29.6z" fill="#dc8758"/><path d="m106 183-21.4 37.1-31.7-18.3c3.26-6.49 7.12-12.8 11.6-19 4.08-5.59 8.39-11 12.9-16.2z" fill="#d77f4a"/><path d="m427 220 51.3-29.6c10.2-5.91 13.7-19 7.83-29.2s-19-13.7-29.2-7.83l-51.3 29.6z" fill="#dc8758"/><path d="m478 190-15.9 9.16c7.69-6.57 9.85-17.9 4.61-27-3.96-6.86-11.2-10.7-18.5-10.7-3.63 0-7.3 0.921-10.7 2.86l19.1-11.4c3.37-1.94 7.04-2.86 10.7-2.86 7.4 0 14.6 3.84 18.5 10.7 5.91 10.2 2.4 23.3-7.83 29.2z" fill="#d77f4a"/><path d="m427 188c-5.73-7.86-17-20-22.9-26.3-2.48-2.63-3.86-6.11-3.86-9.73v-51.9h-288v51.5c0 3.84-1.58 7.5-4.32 10.2-8.11 7.95-15.6 16.9-22.4 26.3-15.8 21.6-23.6 45.3-25.7 69.7-0.239 2.83 3.39 5.67 3.3 8.51-0.939 30.9 6.98 62.6 19.4 91.9 1.17 2.77-1.42 5.51-0.175 8.23 9.47 20.8 21 40.2 33 57.2 5.26 7.45 34.4 42.8 34.4 42.8h213s29.2-35.4 34.4-42.8c11.9-16.9 23.4-36.2 32.8-56.8 1.04-2.28-5.84-7.51-4.85-9.82 6.34-14.8 11.8-26.1 15.3-41.7 3.78-16.6 5.65-33.5 4.92-50.2-0.093-2.11 7.48-5.34 7.3-7.44-2.06-24.3-9.89-48-25.7-69.7z" fill="#e8ad8c"/><path d="m397 424c-5.26 7.45-34.4 42.8-34.4 42.8h-21.1s29.2-35.4 34.5-42.8c45-63.6 83.7-157 29.8-230-5.74-7.86-17-20-22.9-26.3-2.48-2.64-3.86-6.11-3.86-9.73v-43.1h21.1v38c0 3.62 1.38 7.1 3.86 9.73 5.92 6.27 17.2 18.4 22.9 26.3 53.9 73.8 15.1 172-29.8 236z" fill="#e19974"/><path d="m430 367h-348c-15.6-34.2-25.6-72.1-22.5-109h393c3.1 36.5-6.85 74.4-22.5 109z" fill="#fdf6ec"/><path d="m430 367h-20.7c16-34.4 25.9-72.1 21.6-109h21.5c3.1 36.5-6.85 74.4-22.5 109z" fill="#fef1da"/><path d="m403 114h-293c-12.4 0-22.4-10-22.4-22.4s10-22.4 22.4-22.4h293c12.4 0 22.4 10 22.4 22.4s-10 22.4-22.4 22.4z" fill="#dc8758"/><path d="m425 92c0 6.19-2.51 11.8-6.57 15.8-4.06 4.06-9.65 6.56-15.8 6.56h-20.7c6.19 0 11.8-2.5 15.8-6.56s6.57-9.65 6.57-15.8c0-12.4-10-22.4-22.4-22.4h20.7c12.4 0 22.4 10 22.4 22.4z" fill="#d77f4a"/><g fill="#d9b1ee"><path d="m118 332-22.8-39.5c-1.45-2.52 0.363-5.66 3.27-5.66h45.6c2.9 0 4.72 3.14 3.27 5.66l-22.8 39.5c-1.45 2.51-5.08 2.51-6.53-1e-3z"/><path d="m185 293-22.8 39.5c-1.45 2.52 0.363 5.66 3.27 5.66h45.6c2.9 0 4.72-3.14 3.27-5.66l-22.8-39.5c-1.45-2.52-5.08-2.52-6.53 0z"/><path d="m252 332-22.8-39.5c-1.45-2.52 0.363-5.66 3.27-5.66h45.6c2.9 0 4.72 3.14 3.27 5.66l-22.8 39.5c-1.45 2.51-5.08 2.51-6.53-1e-3z"/><path d="m319 293-22.8 39.5c-1.45 2.52 0.363 5.66 3.27 5.66h45.6c2.9 0 4.72-3.14 3.27-5.66l-22.8-39.5c-1.45-2.52-5.08-2.52-6.53 0z"/><path d="m388 332-22.8-39.5c-1.45-2.52 0.363-5.66 3.27-5.66h45.6c2.9 0 4.72 3.14 3.27 5.66l-22.8 39.5c-1.45 2.52-5.08 2.52-6.53 0z"/></g><g fill="#cb97e7"><path d="m147 293-22.8 39.5c-1.46 2.51-5.09 2.51-6.54 0l-6.86-11.9 16-27.6c1.45-2.51-0.362-5.66-3.27-5.66h20.2c2.91 1e-3 4.72 3.15 3.27 5.66z"/><path d="m211 338h-20.3c2.91 0 4.72-3.14 3.27-5.66l-16-27.6 6.85-11.9c1.46-2.51 5.08-2.51 6.54 0l22.8 39.5c1.46 2.52-0.363 5.66-3.26 5.66z"/><path d="m282 293-22.8 39.5c-1.46 2.51-5.09 2.51-6.54 0l-6.86-11.9 16-27.6c1.45-2.51-0.362-5.66-3.27-5.66h20.2c2.91 1e-3 4.73 3.15 3.27 5.66z"/><path d="m345 338h-20.3c2.91 0 4.73-3.14 3.27-5.66l-16-27.6 6.85-11.9c1.46-2.51 5.09-2.51 6.54 0l22.8 39.5c1.45 2.52-0.373 5.66-3.27 5.66z"/><path d="m417 293-22.8 39.5c-1.45 2.51-5.08 2.51-6.54 0l-6.85-11.9 16-27.6c1.46-2.51-0.362-5.66-3.27-5.66h20.3c2.9 1e-3 4.72 3.15 3.27 5.66z"/></g></g><g transform="matrix(.648 0 0 .648 -7.13 25.1)"><path d="m168 2.68e-4h-38.1v50.6h76.2v-50.6z" fill="#e6e9ed" style="stroke-width:.501"/><path d="m177-38.1c1.75 0 3.17 1.43 3.17 3.17v6.36c0 1.75-1.43 3.17-3.17 3.17h-19c-1.75 0-3.17-1.43-3.17-3.17v-6.36c0-1.75 1.43-3.17 3.17-3.17z" fill="#656d78" style="stroke-width:.501"/><path d="m130 73.1c0-5.26 4.26-9.51 9.51-9.51-5.26 0-9.51-4.26-9.51-9.51v-3.17h76.2v3.17c0 5.26-4.26 9.51-9.51 9.51 5.26 0 9.51 4.26 9.51 9.51v66.7c0 10.6-8.51 19-19 19h-38.1c-10.5 0-19-8.51-19-19v-66.7z" fill="#ffce54" style="stroke-width:.501"/><path d="m206 2.68e-4h-76.2v-3.17c0-5.26 4.26-9.51 9.51-9.51h12.7c3.52 0 6.36-2.82 6.36-6.36v-6.36h19v6.36c0 3.49 2.86 6.36 6.36 6.36h12.7c5.26 0 9.51 4.26 9.51 9.51z" fill="#ffce54" style="stroke-width:.501"/><g transform="matrix(3.17 0 0 3.17 53.1 -159)" fill="#f6bb42"><path d="m48.1 77.1v-2c-1e-3 0-2e-3 -1e-3 -3e-3 -1e-3h-1.99c-0.553 0-1 0.447-1 1s0.447 1 1 1h1.99c1e-3 0 2e-3 -1e-3 3e-3 -1e-3z"/><path d="m48.1 81.1v-2c-1e-3 0-2e-3 -1e-3 -3e-3 -1e-3h-1.99c-0.553 0-1 0.447-1 1s0.447 1 1 1h1.99c1e-3 0 2e-3 -1e-3 3e-3 -1e-3z"/><path d="m48.1 85.1v-2c-1e-3 0-2e-3 -1e-3 -3e-3 -1e-3h-1.99c-0.553 0-1 0.447-1 1s0.447 1 1 1h1.99c1e-3 0 2e-3 -1e-3 3e-3 -1e-3z"/><path d="m24.1 83.1v2c1e-3 0 2e-3 1e-3 3e-3 1e-3h1.99c0.553 0 1-0.447 1-1s-0.447-1-1-1h-1.99c-1e-3 0-2e-3 1e-3 -3e-3 1e-3z"/><path d="m24.1 79.1v2c1e-3 0 2e-3 1e-3 3e-3 1e-3h1.99c0.553 0 1-0.447 1-1s-0.447-1-1-1h-1.99c-1e-3 0-2e-3 1e-3 -3e-3 1e-3z"/><path d="m24.1 75.1v2c1e-3 0 2e-3 1e-3 3e-3 1e-3h1.99c0.553 0 1-0.447 1-1s-0.447-1-1-1h-1.99c-1e-3 0-2e-3 1e-3 -3e-3 1e-3z"/></g><g transform="matrix(.0946 0 0 .0946 -249 -343)" stroke="null"><path d="m4446 3954c-18.1 21.2-35.7 33.7-35.7 33.7s-104-23.2-124-103c-0.37-1.45-0.7-2.93-1-4.42-17-83.6 6.5-166 56.9-227 70.2 36.5 124 103 141 187 9.46 46.6-14.4 87.2-37.3 114z" fill="#5b5b68"/><g fill="#40404c"><path d="m4343 3869c16.8 82.9 66.9 119 67.7 119-1.66-0.373-108-24.7-125-108-17-83.6 6.51-166 56.9-227-15.6 53.9-16.8 132 0.128 215z"/><path d="m4393 3908c-3.49 0-6.62-2.45-7.34-6.01l-35.6-175c-0.824-4.06 1.8-8.02 5.86-8.84 4.06-0.826 8.02 1.8 8.84 5.86l35.6 175c0.824 4.06-1.8 8.02-5.86 8.84-0.502 0.103-1 0.152-1.5 0.152z"/><path d="m4446 3954c-18.1 21.2-35.7 33.7-35.7 33.7s-104-23.2-124-103c58.4 2.39 116 25.9 159 69.4z" stroke="null"/></g><path d="m4452 3858c-59.2 61.3-17.9 164-17.9 164s104 37.7 163-23.6c59.2-61.3 83.7-143 74-222-78.8-6.98-160 20.4-219 81.7z" fill="#5b5b68"/><path d="m4494 3898c-58.8 60.9-59.8 122-59.8 123-0.635-1.58-40.8-103 17.9-164 59.2-61.3 140-88.7 219-81.7-53.3 17.7-118 60.8-177 122z" fill="#40404c"/><path d="m4489 3973c-1.89 0-3.78-0.708-5.23-2.13-2.97-2.89-3.03-7.64-0.136-10.6l79.3-81.4 26.8-27.8 25.5-27.2c2.83-3.02 7.58-3.17 10.6-0.336 3.02 2.83 3.17 7.58 0.336 10.6l-25.6 27.3c-0.024 0.026-0.049 0.052-0.074 0.078l-26.9 27.9-79.3 81.4c-1.47 1.51-3.42 2.26-5.37 2.26z" fill="#40404c"/><path d="m4313 4105c48 58.3 142 32.3 142 32.3s43.7-87.6-4.32-146c-48-58.3-118-88.2-188-87.6-14.1 68.7 1.78 143 49.8 201z" fill="#ffca5e"/><path d="m4353 4073c47.6 57.9 102 65 103 65.1-1.46 0.399-94.8 25.6-142-32.3-48-58.3-63.9-133-49.8-201 10.2 48.7 41.6 110 89.6 168z" fill="#e8a328"/></g></g></svg>
