<svg width="512" height="512" version="1.1" viewBox="0 0 135 135" xmlns="http://www.w3.org/2000/svg" xmlns:xlink="http://www.w3.org/1999/xlink"><defs><linearGradient id="linearGradient16265-1" x1="-615" x2="-405" y1="681" y2="681" gradientTransform="matrix(.135 0 0 .135 91 4.67)" gradientUnits="userSpaceOnUse"><stop stop-color="#338000" offset="0"/><stop stop-color="#80c904" offset="1"/></linearGradient><linearGradient id="linearGradient16273-1-4" x1="-764" x2="-556" y1="29" y2="294" gradientTransform="matrix(.0233 -.133 -.133 -.0233 66.7 -26.7)" gradientUnits="userSpaceOnUse"><stop stop-color="#803a18" offset="0"/><stop stop-color="#8a3d1c" offset="1"/></linearGradient></defs><path d="m33.7 38.1c7.41-0.417 17.5-3.92 19.3-6 2.13-2.35 5.62-1.38 9.13-5.09 1.34-1.41 3.99-0.535 4.73 0.824 1.61 2.96-1.23 6.08-8.08 12.4-3.94 3.7-14.3 7.97-21.3 9.65-4.73 1.14-6.49-11.7-3.9-11.9" style="fill:#803a18;stroke-width:.192;white-space:pre"/><path d="m38.4 58.7c0.607 0.522 0.887 1.15 0.783 1.77-0.0924 0.557-0.486 1.04-1.03 1.26-0.595 0.239-1.66 1.29-2.17 1.84l2.95 3.59c2.57 1.44 7.58 4.18 8.38 4.46 0.998 0.333 2.45 2.26 2.83 2.78 0.819 0.0504 5.48 0.338 6.09 0.338 0.606 0 1.08 0.42 1.62 0.906 0.193 0.173 0.394 0.352 0.619 0.534 0.998 0.798 1.13 1.82 1.13 2.79 0 1.02 0.171 4.81 0.173 4.84-0.0306 0.425-0.21 2.41-0.767 2.97-0.189 0.189 0.325 1.45 1.06 2.6 0.267 0.201 1.79 1.36 2.33 2.05 0.621 0.779 1.07 2.71 1.07 3.64 0 0.64 0.796 1.77 1.1 2.15l0.0208 0.0301 1.8 3.05c1.34-0.156 3.73-0.448 4.15-0.555 0.472-0.118 1.82-0.0629 2.79 0.0328-0.252-0.911-0.944-3.47-0.944-3.99 0-0.668-0.293-7.96-0.43-8.66-0.148-0.739-0.418-1.15-0.824-1.25-0.387-0.0968-0.907-0.762-1.73-1.84-0.517-0.682-1.05-1.39-1.42-1.7-0.352-0.293-0.512-0.581-0.489-0.88 0.0379-0.498 0.578-0.822 1.1-1.13 0.628-0.376 2.71-1.87 3.21-2.24l-0.291-11.7 0.173-0.0649c0.0478-0.0181 1.17-0.439 1.6-0.583 0.469-0.156 1.93-0.592 3.09-0.737 1.11-0.137 3.35 0.795 3.82 0.998 0.647-0.182 4.6-1.3 5.26-1.56 0.718-0.286 5.9-2.31 5.95-2.33 0.04-0.0126 2.34-0.737 3.92-1.31 1.84-0.668 5.67-2.93 5.93-4.16 0.155-0.776 0.512-1.22 0.798-1.58 0.279-0.35 0.5-0.625 0.5-1.13 0-1.33 1.84-2 2.86-2 0.75 0 1.38 0.538 1.65 0.81l0.987-0.494c0.486-0.203 1.79-0.784 2.12-1.11 0.378-0.378 1.41-0.798 2.41-1.21 0.255-0.104 0.501-0.205 0.722-0.298 0.75-0.321 0.729-1.28 0.715-1.98-1e-3 -0.0888-3e-3 -0.173-3e-3 -0.252 0-0.736 0.281-2.85 0.293-2.93-3e-3 -0.0494-1e-3 -2.03 0.146-2.91 0.11-0.661 0.446-1.1 0.654-1.32-0.448-0.779-2.29-3.9-3.45-4.86-1.11-0.906-2.83-3.85-3.85-5.6-0.278-0.472-0.494-0.843-0.604-1.01-0.496-0.744-2.32-2.41-3.21-2.53-1.01-0.127-5.76-1.46-5.95-1.52l-0.0926-0.0258-0.0527-0.0795c-0.286-0.43-2.81-4.22-2.93-5-0.0976-0.586-1.01-2.41-1.36-3.07l-3.68-5.27c-0.347 0.212-0.685 0.257-0.994 0.257h-2c-0.335 0.489-1.32 1.87-1.93 2.12-0.488 0.196-2.5 1.68-3.21 2.24l-0.0439 0.0335-0.0542 0.0126c-0.0794 0.0186-1.94 0.453-2.86 0.269-0.404-0.0793-0.718 0.193-1.2 0.645-0.264 0.248-0.534 0.507-0.866 0.704-0.187 0.112-0.35 0.217-0.496 0.311-0.536 0.342-0.923 0.592-1.54 0.592h-5.88c-1.09 0-1.82 1.3-1.82 2.17 0 1.2-1.16 2.67-2.83 2.85-1.04 0.115-1.36 0.227-1.84 0.396-0.232 0.0821-0.498 0.175-0.887 0.286-0.155 0.0444-0.311 0.0859-0.463 0.127-1.1 0.293-1.77 0.508-1.77 1.18 0 1.18-1.16 2.33-2.33 2.33-0.479 0-1.82 0.0373-3.24 0.077-1.69 0.0472-3.45 0.0958-4.18 0.0958-1.36 0-3.05 0-3.85 0.482-0.765 0.458-4.63 2.81-5.52 3.35 0.186 0.529 0.635 1.87 0.635 2.5 0 0.349-0.0423 2.19-0.0864 4.16-0.0428 1.87-0.0864 3.8-0.0864 4.15 0 0.647-0.43 4.7-0.508 5.47l3.89 4.58-2.67 3.05-0.141-0.0219c-0.0219-0.0056-2.19-0.323-3.82 0.494-0.272 0.136-0.571 0.229-0.883 0.293 0.366 0.503 1.13 1.49 1.98 2.2z" fill="#ffc431" stroke="null" stroke-width=".0835" style="white-space:pre"/><g transform="matrix(.199 0 0 .199 -103 -13.6)" stroke-width=".589" style="fill:#ffe4c2;white-space:pre"><path d="m1028 123c-22.1-67.7-117-67.7-139 0-4.25 13-6.54 26.9-6.54 41.3 0 53.1 31.2 99 76 120 45-21.3 76-67.1 76-120-6e-4 -14.4-2.3-28.3-6.54-41.3z" fill="#dd636e"/><path d="m959 285c-45-21.3-76-67.1-76-120 0-14.4 2.29-28.3 6.54-41.3 11.1-33.9 40.3-50.8 69.5-50.8-19.1 0-38.3 17-45.6 50.8-2.78 13-4.29 26.9-4.29 41.3 0 53.1 20.4 99 49.9 120z" fill="#c63d4f"/><circle cx="959" cy="148" r="46.2" fill="#dfeaef"/><path d="m966 193c-2.3 0.358-4.66 0.54-7.07 0.54-25.5 0-46.2-20.7-46.2-46.2s20.7-46.2 46.2-46.2c2.4 0 4.77 0.182 7.07 0.54-22.1 3.4-39.1 22.6-39.1 45.6s17 42.2 39.1 45.6z" fill="#b4d0d5"/></g><path d="m43.9 75s4.63 2.42 5.58 1.46c0.934-0.967 3.39-3.02 2.85-3.29-0.535-0.276-2.17 1.42-2.17 1.42s1.97-2.53 1.8-2.86c-0.157-0.336-0.642-0.0963-0.642-0.0963s-0.0306-0.488-0.339-0.701c-0.305-0.207-2.36 1.5-2.36 1.5s-4.21-3.28-5.83-0.315c-1.64 2.98 1.11 2.87 1.11 2.87" fill="#ff6161" style="stroke-width:.208;white-space:pre"/><g transform="matrix(.259 0 0 .259 -97.5 29.5)" fill="#803a18" stroke-width=".787" style="white-space:pre" aria-label="یزد"><path d="m651 88.1-4.14 4.14-4.19-4.16 4.14-4.16zm10.5 0.0256-4.14 4.16-4.19-4.19 4.14-4.14zm-22.8-11.3q0-1.07 0.741-1.79 0.715-0.715 1.76-0.715h2.84q0.894 0.0256 1.94 0.0256 1.05-0.0256 2.12-0.128 1.07-0.102 2.09-0.281 1.05-0.204 1.92-0.536 0.869-0.358 1.53-0.869 0.664-0.511 0.996-1.23 0.511-1.1 0.281-3.12-0.204-2.04-1.02-4.75-0.281-0.818-0.664-1.76-0.358-0.971-0.715-1.79-0.409-0.971-0.843-1.92l4.55-2.25q0 0.0256 0.23 0.536 0.255 0.485 0.613 1.33 0.358 0.843 0.792 1.97 0.434 1.1 0.818 2.35 2.38 7.33 0.588 11.4-1.81 4.11-6.44 5.42-0.69 0.204-1.76 0.332-1.07 0.102-2.2 0.153-1.12 0.0511-2.15 0.0766-1.02 0-1.58 0h-3.93q-1.05 0-1.76-0.715-0.741-0.715-0.741-1.79z"/><path d="m637 77.6q0 2.22-0.664 4.32-0.639 2.09-1.81 4.04-1.15 1.94-2.76 3.68-1.58 1.76-3.47 3.32-1.86 1.56-3.96 2.86-2.07 1.33-4.22 2.4l-2.2-4.52q1.84-0.945 3.65-2.07t3.42-2.43q1.61-1.3 2.96-2.76t2.27-3.04q0.945-1.58 1.41-3.3 0.46-1.69 0.281-3.5v0.0511q-0.179-1.46-0.562-3.12-0.358-1.69-0.818-3.3-0.434-1.61-0.869-3.01-0.409-1.43-0.715-2.38l4.8-1.48q0.971 2.96 1.89 5.06 0.945 2.07 1.92 3.4 0.996 1.3 2.07 1.92t2.35 0.613h0.128q0.536 0 0.996 0.204t0.792 0.562q0.358 0.332 0.536 0.792 0.204 0.46 0.204 0.971 0 1.07-0.741 1.79-0.715 0.69-1.79 0.69h-0.0256q-0.358 0-0.945-0.0256-0.562-0.0256-1.28-0.204-0.69-0.179-1.43-0.562-0.741-0.383-1.43-1.07zm-2.09-24.9-4.16 4.16-4.19-4.19 4.16-4.16z"/><path d="m606 79.3q-1.23 0-2.91-0.307-1.66-0.307-3.32-0.766-1.66-0.485-3.04-1.07t-2.02-1.18l2.09-4.8q0.945 0.613 2.27 1.2 1.33 0.562 2.84 0.996 1.51 0.409 3.09 0.613 1.61 0.204 3.09 0.0766 1.48-0.128 2.76-0.639t2.15-1.56q0.69-0.792 0.179-2.96-0.281-1.25-0.92-2.61-0.613-1.38-1.51-2.73-0.869-1.38-1.94-2.68-1.07-1.3-2.25-2.4-1.15-1.12-2.35-1.99-1.2-0.869-2.35-1.38l2.07-4.65q1.51 0.69 3.04 1.79t2.96 2.48q1.46 1.38 2.76 2.99 1.33 1.58 2.4 3.3 1.07 1.69 1.86 3.4 0.792 1.71 1.18 3.35 0.307 1.43 0.307 2.58t-0.23 2.04q-0.204 0.894-0.562 1.56t-0.766 1.15q-2.35 2.84-6.57 3.76-0.971 0.255-2.04 0.358-1.07 0.102-2.27 0.102z"/></g><g transform="matrix(.313 0 0 .313 -40.7 32.5)" style="fill:#ffe4c2;white-space:pre"><g stroke="null"><path d="m535 324h-80.7c-9.06 0-16.4-7.35-16.4-16.4v-79.4c0-9.06 7.35-16.4 16.4-16.4h80.7c9.06 0 16.4 7.35 16.4 16.4v79.4c0 9.07-7.35 16.4-16.4 16.4z" fill="#ffe4c2" style="stroke-width:.35"/><path d="m535 212h-40.5v112h40.5c9.06 0 16.4-7.35 16.4-16.4v-79.4c0-9.07-7.35-16.4-16.4-16.4z" fill="#f2bb88" style="stroke-width:.35"/><path d="m445 190h100v21.7h-100z" fill="#ffd400" style="stroke-width:.35"/><path d="m495 190h50.4v21.7h-50.4z" fill="#fcaf03" style="stroke-width:.35"/><path d="m438 242h113v49h-113z" fill="#b46e5a" style="stroke-width:.35"/><path d="m495 242h56.9v49h-56.9z" fill="#915041" style="stroke-width:.35"/></g><path d="m547 260q0.0696 2.77-0.087 7.11-0.157 4.33-0.522 7.01-0.33 2.05-0.957 3.08-0.609 1.03-1.17 0.522-0.539-0.522-0.678-3.1l-0.278-13.4q0.0522-1.98 0.922-2.64 0.887-0.661 1.77-0.243 0.887 0.417 0.991 1.67z" style="fill:#ffe4c2"/><path d="m540 269q0.365 2.26 0.0696 4.56-0.278 2.3-1.41 4.23-1.11 1.93-3.27 3.1-0.957 0.504-2.07 0.765-1.1 0.278-2.19 0.122-0.435-0.0522-0.991-0.296-0.574-0.243-0.678-0.713-0.0348-0.417 0.383-0.748 0.417-0.313 0.957-0.539 0.522-0.209 0.817-0.278 1.74-0.522 2.82-1.76 1.1-1.22 1.69-2.9 0.47-1.53 0.261-3.13-0.0522-0.626-0.139-1.25-0.104-0.748-0.157-1.51-0.0522-0.435-0.0174-0.939 0.0522-0.504 0.296-0.887 0.243-0.33 0.626-0.47t0.783-0.174q0.4-0.0348 0.8 0.0348 0.417 0.0696 0.713 0.383 0.313 0.365 0.452 0.974t0.209 1.17q0.0174 0.139 0.0522 0.278z" style="fill:#ffe4c2"/><path d="m529 271q-0.452-1.48-2.83-2.82-1.29-0.696-1.98-1.37-0.678-0.835-0.504-1.7 0.191-0.87 0.991-1.29 0.817-0.435 2.07 0.087 1.37 0.661 3.53 2.47 2.05 1.84 2.42 4.38l0.0174-0.0174q0.0174 0.209 0.0174 0.417 0 1.76-0.73 3.11-1.06 1.84-3.08 2.82-2 0.957-4.3 1.06-2.21 0.0522-3.17-0.696-0.939-0.748-0.904-1.67 0.0522-0.939 0.8-1.41 0.574-0.243 2.09-0.174 0.904 0.0174 1.9-0.0348 2.43-0.139 3.23-0.974t0.435-2.19z" style="fill:#ffe4c2"/><path d="m505 273q-0.348-2.23 0.8-3.91 1.15-1.7 3.11-2.7 1.98-0.991 4.14-1.06 2.16-0.087 3.81 0.974 1.65 1.04 2.16 3.41 0.487 3.2-1.17 5.29-1.65 2.07-4.26 2.57-1.67 0.296-3.27 0.0522-1.58-0.261-2.5-0.904-0.852-0.626-1.7-1.62-0.852-0.991-1.11-2.1zm10.3-0.765q0.73-1.15 0.191-2.24-0.522-1.1-1.72-1.69-1.18-0.609-2.49-0.226-1.29 0.365-2.1 2.16-0.643 1.62-0.0696 2.5 0.574 0.87 1.77 1.08 1.2 0.209 2.45-0.191 1.25-0.417 1.97-1.39z" style="fill:#ffe4c2"/><path d="m496 256q0.243-0.0696 2.14-1.13 1.91-1.08 4.4-2.5 2.49-1.44 4.52-2.63 1.98-1.15 2.52-1.44 1.77-0.87 2.23-0.539 0.47 0.33-0.0348 1.29-0.504 0.939-1.65 1.91-1.6 1.36-4.8 3.63-3.18 2.28-6.45 4.07t-5.08 1.69q-1.67-0.296-0.713-1.79 0.73-1.18 2.92-2.56zm-4.82 17.6h0.296q1.74-0.0348 2.68-0.591 0.939-0.557 1.1-1.44 0.174-1.22-0.417-2.97-0.574-1.76-1.3-3.48-0.348-0.835-0.643-1.57-0.191-1.23 0.487-1.91 0.678-0.678 1.9-0.348 0.974 0.348 1.36 1.41 0.313 0.817 0.696 1.69 0.661 1.53 1.18 3.1t0.574 3.03q-0.104 3.2-2.4 5.15-2.28 1.95-5.5 1.9-0.504 0-0.974-0.261t-0.73-0.73-0.261-0.991q0-0.504 0.261-0.974 0.261-0.487 0.73-0.73 0.47-0.261 0.974-0.261z" style="fill:#ffe4c2"/><path d="m491 274v3.95q-0.609 0.0174-1.2 0-1.84 0.0348-3.63-0.661-1.79-0.713-2.75-2.35-0.539 1.36-1.7 2.17-1.15 0.817-2.56 0.835v-3.95q1.3 0.0174 1.91-0.348 0.626-0.383 0.887-0.922 0.243-0.504 0.278-1.13 0.0522-0.626 0.0174-1.34-0.0522-0.991 0.0696-2.02 0.174-0.991 0.852-1.36 0.696-0.365 1.37 0.157t0.852 2.17q0.0348 0.348 0.104 0.678 0.0696 0.47 0.122 0.904 0.174 0.817 0.748 1.55 0.591 0.713 1.69 1.18 1.11 0.47 2.94 0.47zm0 0q0.504 0 0.974 0.261 0.47 0.243 0.73 0.73 0.278 0.47 0.278 0.974 0 0.522-0.261 0.991t-0.73 0.73q-0.47 0.261-0.991 0.261-0.504 0-0.991-0.261-0.47-0.261-0.73-0.73-0.243-0.47-0.243-0.991 0-0.504 0.261-0.974 0.261-0.487 0.73-0.73 0.47-0.261 0.974-0.261zm-11.8 0q0.504 0 0.974 0.261 0.47 0.243 0.73 0.73 0.278 0.47 0.278 0.974 0 0.522-0.261 0.991t-0.73 0.73q-0.47 0.261-0.991 0.261-0.504 0-0.974-0.261t-0.73-0.73q-0.261-0.47-0.261-0.991 0-0.504 0.261-0.974 0.261-0.487 0.748-0.73 0.47-0.261 0.957-0.261zm2.49-14.4q1.29-0.348 2.37 0.209 1.08 0.539 1.39 1.6 0.261 1.29-0.487 2.14-0.73 0.852-1.63 1.08-1.79 0.348-2.83-0.661-1.03-1.03-0.852-2.37 0.191-1.34 2.05-2z" style="fill:#ffe4c2"/><path d="m457 278q-0.522 0-0.991-0.261-0.47-0.261-0.713-0.73-0.261-0.47-0.261-0.991 0-0.504 0.261-0.974 0.261-0.487 0.73-0.73 0.47-0.261 0.974-0.261h0.974q1.6 0.0174 3.39-0.139 1.79-0.157 3.5-0.817 1.72-0.661 3.08-2.16-0.696-0.383-1.41-0.87-1.23-0.887-2.56-1.36-1.25-0.33-1.77-0.0174-0.504 0.313-0.73 0.904-0.591 1.1-1.18 1.23-0.574 0.122-0.974-0.4-0.4-0.539-0.435-1.41-0.0174-1.2 0.957-2.28 0.991-1.1 2.92-1.36 1.93-0.278 4.77 1.03l0.835 0.4q1.27 0.696 2.52 1.06 1.27 0.348 3.44 0.209 0.609-0.0522 1.25-0.226 0.626-0.174 1.25-0.243 0.643-0.0696 1.25 0.209 0.713 0.365 1.03 1.15 0.33 0.783-0.191 1.63-0.748 1.03-1.74 1.3-0.991 0.261-2.07 0.278-0.243 0-0.487 0.0174 0.174 0.678 0.765 1.23 0.609 0.557 1.77 0.609h2.03q0.47 0.0174 0.922 0.243 0.47 0.261 0.73 0.748 0.278 0.47 0.278 0.974 0 0.522-0.261 0.991t-0.73 0.73q-0.47 0.261-0.991 0.261h-2.23q-0.313 0-0.626 0-0.313-0.0174-0.539-0.0348-1.53-0.139-2.75-0.87-1.2-0.748-2.09-2.31 0-0.0174-0.087-0.209-0.087-0.191-0.226-0.487-0.0696-0.139-0.139-0.296-0.557 0.313-1.11 0.609-1.2 0.696-2.42 1.34-1.93 1.04-3.93 1.65-2 0.609-4.16 0.609zm9.74 1.83q1.29-0.348 2.37 0.209t1.39 1.6q0.261 1.3-0.487 2.16-0.73 0.852-1.63 1.08-1.79 0.33-2.83-0.678-1.03-1.01-0.852-2.35 0.191-1.34 2.05-2.02z" style="fill:#ffe4c2"/><path d="m457 274v3.93q-1.74 0-2.77-0.835t-1.65-2.35q-1.11 1.81-2.83 2.59-1.72 0.765-3.77 0.835-2.21 0.0348-3.15-0.713-0.939-0.748-0.904-1.67 0.0348-0.922 0.783-1.41 0.574-0.243 2.1-0.174 0.904 0.0348 1.9-0.0174 2.3-0.139 3.13-0.887 0.835-0.765 0.591-2-0.243-1.25-1.18-2.82-0.765-1.25-1.03-2.21-0.174-1.04 0.417-1.7 0.591-0.678 1.5-0.626 0.922 0.0348 1.76 1.1 0.591 0.939 1.34 2.8 0.226 0.539 0.47 1.11 0.296 0.73 0.522 1.57 0.296 1.29 0.87 2.3t1.91 1.18z" style="fill:#ffe4c2"/></g><g transform="matrix(.0884 0 0 .0884 46.5 88.5)" style="fill:#ffe4c2;white-space:pre"><g transform="matrix(1.29,0,0,1.29,-172,-135)" stroke="null"><g transform="matrix(6.73,0,0,6.73,-16,-3.64)" fill="none" fill-rule="evenodd" stroke="null"><g fill-rule="nonzero" stroke="null"><path d="m80.1 42.3-0.25-2.14c-0.0702-0.497-0.498-0.865-1-0.86h-54.6c-0.502-5e-3 -0.93 0.363-1 0.86l-0.24 2.14-0.47 4c-0.0408 0.288 0.0462 0.58 0.238 0.799s0.47 0.343 0.762 0.341h1l3.63 24.3c0.209 1.48 1.48 2.58 2.97 2.58h40.8c1.51 0.0148 2.79-1.09 3-2.58l3.6-24.3h1c0.291 0.0029 0.569-0.121 0.762-0.341s0.279-0.511 0.238-0.799z" fill="#f0c419"/><path d="m80.5 46.3c0.0408 0.288-0.0462 0.58-0.238 0.799s-0.47 0.343-0.762 0.341h-56c-0.291 0.0029-0.569-0.121-0.762-0.341s-0.279-0.511-0.238-0.799l0.46-4 0.25-2.14c0.0702-0.497 0.498-0.865 1-0.86h54.6c0.502-5e-3 0.93 0.363 1 0.86l0.24 2.14 0.47 4z" fill="#f3d55b"/><g fill="#f29c1f"><path id="Shape" d="m35.5 43.3c0 0.552-0.448 1-1 1h-11.8l0.23-2h11.5c0.552 0 1 0.448 1 1z"/><path d="m62.5 44.3h-22c-0.552 0-1-0.448-1-1s0.448-1 1-1h22c0.552 0 1 0.448 1 1s-0.448 1-1 1z"/><path d="m80.3 44.3h-12.8c-0.552 0-1-0.448-1-1s0.448-1 1-1h12.5z"/></g></g></g></g><g transform="matrix(1.01,0,0,1.01,-5.44,-5.03)" style="fill:#7f3f00;stroke-width:0" aria-label="حلوا ارده"><path d="m372 405q-2.05 0-3.96-1.06t-2.97-2.97-1.06-3.96q0-2.12 1.13-4.03 1.06-1.91 2.97-2.97t3.89-1.06h3.96q6.44 0 13.7-0.566 7.29-0.637 14.3-3.33 7.01-2.69 12.5-8.78-2.83-1.56-5.73-3.54-5.02-3.68-10.4-5.52-5.1-1.34-7.22-0.0708-2.05 1.27-3.04 3.61-3.68 6.51-6.94 4.88-3.18-1.7-3.54-7.15-0.0708-4.88 3.89-9.34 4.03-4.46 11.9-5.52 7.86-1.06 19.4 4.18 1.77 0.849 3.4 1.7 5.1 2.76 10.2 4.25 5.17 1.42 14.1 0.92 2.48-0.283 5.02-0.991 2.62-0.708 5.17-0.991 2.62-0.283 5.1 0.849 2.9 1.49 4.18 4.74 1.34 3.18-0.778 6.58-3.04 4.18-7.08 5.31-4.03 1.06-8.42 1.13-5.59-0.0708-10.5 1.98-6.44 3.33-13 7.08-4.95 2.76-9.84 5.38-7.86 4.25-16 6.79-8.14 2.48-16.9 2.48z" style="fill:#7f3f00;stroke-width:0"/><path d="m372 389q0.495-0.0708 0.991-0.0708 2.05 0 3.96 1.06 1.91 0.991 2.97 2.97 1.13 1.91 1.13 3.96 0 2.12-1.06 4.03t-2.97 2.97-4.03 1.06h-0.425q-2.9 0.0708-6.86-0.495-3.96-0.637-7.86-2.34-5.31-2.48-8.28-6.94-2.41 2.69-5.59 4.67-8.07 5.02-22.5 5.1h-0.0708q-2.05 0-3.96-1.06t-2.97-2.97-1.06-4.03q0-2.05 1.06-3.96 1.06-1.98 2.97-2.97 1.91-1.06 3.96-1.06 6.16 0 10.3-1.34 4.1-1.34 6.65-3.61 4.53-3.89 4.81-10.1v-0.849l-0.566-37.6q0.212-7.57 3.82-9.62 3.61-2.05 7.29 0.212 3.61 2.19 3.89 7.43l0.283 28.2v1.91q0.0708 1.7 0.0708 3.33v0.566q0 1.34 0 2.41 0.0708 0.991 0.354 2.48 0.778 4.53 2.19 8.35 1.49 3.75 4.39 6.02 2.69 2.19 7.08 2.34z" style="fill:#7f3f00;stroke-width:0"/><path d="m299 394q4.95-0.354 6.16-3.89 1.2-3.54-1.2-6.86-2.34-3.4-8.07-3.33-2.9 0.212-4.81 2.34-1.91 2.12-1.56 5.52 0.495 2.62 3.26 4.46 2.83 1.77 6.23 1.77zm22.8-4.53q1.98 0 3.89 0.991 1.91 1.06 2.97 3.04 1.13 1.91 1.13 3.96 0 2.12-1.06 4.03t-2.97 2.97-3.96 1.06h-8.49q-4.25 12.3-16.4 19.1-3.89 2.12-8.42 3.18t-8.92 0.495q-1.77-0.212-4.1-1.2-2.26-0.991-2.76-2.97-0.0708-1.63 1.63-2.97 1.7-1.27 3.82-2.19 2.12-0.849 3.4-1.2 10.4-3.26 15.3-12.4-6.79-0.0708-12.5-3.89-5.66-3.82-7.57-10.9-1.34-5.38 0.566-10.8 1.91-5.52 6.58-9.41 4.67-3.96 11.7-4.6 10.5-0.566 16.1 6.09 4.6 5.87 4.67 13.2 0.0708 2.12 0 4.32z" style="fill:#7f3f00;stroke-width:0"/><path d="m268 333q0.283 11.3-0.354 28.9t-2.12 28.5q-1.34 8.35-3.89 12.5-2.48 4.18-4.74 2.12-2.19-2.12-2.76-12.6l-1.13-54.6q0.212-8.07 3.75-10.8 3.61-2.69 7.22-0.991 3.61 1.7 4.03 6.79z" style="fill:#7f3f00;stroke-width:0"/><path d="m229 333q0.283 11.3-0.354 28.9t-2.12 28.5q-1.34 8.35-3.89 12.5-2.48 4.18-4.74 2.12-2.19-2.12-2.76-12.6l-1.13-54.6q0.212-8.07 3.75-10.8 3.61-2.69 7.22-0.991t4.03 6.79z" style="fill:#7f3f00;stroke-width:0"/><path d="m201 371q1.49 9.2 0.283 18.5-1.13 9.34-5.73 17.2-4.53 7.86-13.3 12.6-3.89 2.05-8.42 3.11-4.46 1.13-8.92 0.495-1.77-0.212-4.03-1.2-2.34-0.991-2.76-2.9-0.142-1.7 1.56-3.04 1.7-1.27 3.89-2.19 2.12-0.849 3.33-1.13 7.08-2.12 11.5-7.15 4.46-4.95 6.86-11.8 1.91-6.23 1.06-12.7-0.212-2.55-0.566-5.1-0.425-3.04-0.637-6.16-0.212-1.77-0.0708-3.82 0.212-2.05 1.2-3.61 0.991-1.34 2.55-1.91 1.56-0.566 3.18-0.708t3.26 0.142q1.7 0.283 2.9 1.56 1.27 1.49 1.84 3.96 0.566 2.48 0.849 4.74 0.0708 0.566 0.212 1.13z" style="fill:#7f3f00;stroke-width:0"/><path d="m155 377q-1.84-6.02-11.5-11.5-5.24-2.83-8.07-5.59-2.76-3.4-2.05-6.94 0.778-3.54 4.03-5.24 3.33-1.77 8.42 0.354 5.59 2.69 14.4 10 8.35 7.5 9.84 17.8l0.0708-0.0708q0.0708 0.849 0.0708 1.7 0 7.15-2.97 12.7-4.32 7.5-12.5 11.5-8.14 3.89-17.5 4.32-8.99 0.212-12.9-2.83-3.82-3.04-3.68-6.79 0.212-3.82 3.26-5.73 2.34-0.991 8.49-0.708 3.68 0.0708 7.71-0.142 9.91-0.566 13.2-3.96t1.77-8.92z" style="fill:#7f3f00;stroke-width:0"/><path d="m56.3 386q-1.42-9.06 3.26-15.9 4.67-6.94 12.7-11 8.07-4.03 16.8-4.32 8.78-0.354 15.5 3.96 6.72 4.25 8.78 13.9 1.98 13-4.74 21.5-6.72 8.42-17.3 10.5-6.79 1.2-13.3 0.212-6.44-1.06-10.2-3.68-3.47-2.55-6.94-6.58t-4.53-8.56zm41.9-3.11q2.97-4.67 0.778-9.13-2.12-4.46-7.01-6.86-4.81-2.48-10.1-0.92-5.24 1.49-8.56 8.78-2.62 6.58-0.283 10.2 2.34 3.54 7.22 4.39 4.88 0.849 9.98-0.778 5.1-1.7 8-5.66z" style="fill:#7f3f00;stroke-width:0"/></g></g><g transform="matrix(-.0742 0 0 .0742 117 -6.56)" style="fill:#ffe4c2;font-family:Aviny;font-size:40px;line-height:1.25;text-align:end;text-anchor:end;white-space:pre"><title>background</title><rect x="-1" y="-1" width="1082" height="1082" fill="none"/></g><path d="m8.74 47c-0.434 2.02-0.717 4.23-0.887 6.54 11.5 3.51 21.1 3.99 27.3 3.74 0.567-2.53 1.2-4.32 1.95-6.23 0.305-0.788 0.506-1.31 0.625-1.88-10.3 0.114-23.9-1.5-29.1-2.17" style="fill:#796bf9;stroke-width:.192;white-space:pre"/><path d="m10.5 64.8c0.107-0.163 16-1.7 19.5-2.84-0.0031 0.0175-0.0047 0.0309-0.0047 0.0309 15 40.1-1.3 68.1-7.75 68.7-7.34 0.652 1.18-26 1.71-28 1.82-6.83 2.69-12.3-0.882-18.4-2.62-4.48-0.482 45.7-10.1 44.6-6.09-0.692-6.79-11-0.604-28.4 1.47-4.14-9.16-24.8-1.95-35.6" style="fill:url(#linearGradient16265-1);stroke-width:.192;white-space:pre"/><path d="m23.2 84c-0.669-0.851-3.23-2.02-4.54 1.59-1.5 4.12 0.233 9.99-0.703 16-0.936 6.05 0.24 3.99-2.22 13-2.08 7.55-3.72 11.2-2.69 14.1 0.0693 0.01 0.135 0.0258 0.206 0.0342 9.43 1.07 7.55-47.2 9.96-44.8" style="fill:#338000;stroke-width:.192;white-space:pre"/><path d="m30.2 62s0.0016-0.0134 0.0047-0.0309c-1.19 0.378-2.78 0.815-4.72 1.19-0.208 5.62-0.148 14.3 1.81 18.8 3.05 7.12 5.91 15.9 4.63 19.7-1.29 3.81-6.04 11.5-7.08 17.9-0.65 3.92-1.81 8.02-1.49 10.9 6.9-2.75 21.1-30 6.87-68.5" style="fill:#338000;stroke-width:.192;white-space:pre"/><path d="m7.83 72.4c-0.0929-9.87-1.09-24.4 3.09-31.4 2.71-4.54 9.47-4.46 13.7-3.87 2.4 0.336 8.28 0.086 11.4 1.79 1.43 0.788 1.58 2.89 1.67 4.08 0.399 5.62 0.399 5.62-0.51 7.97-1.04 2.69-1.88 5.08-2.6 9.68-0.958 6.14 0.224 15.8 0.0793 16.2-4.37 4.68-24.2 2.91-26.9-4.39" style="fill:#8f3e1e;stroke-width:.192;white-space:pre"/><path d="m8.74 47c-0.434 2.02-0.717 4.23-0.887 6.54 11.5 3.51 21.1 3.99 27.3 3.74 0.567-2.53 1.2-4.32 1.95-6.23 0.305-0.788 0.506-1.31 0.625-1.88-10.3 0.114-23.9-1.5-29.1-2.17" style="fill:#f4a72c;stroke-width:.192;white-space:pre"/><path d="m29.5 31.2s0.551-1.77-0.186-2.89c-0.737-1.11-2.49-1.82-3.72-0.806-0.513 0.421-0.759 0.853-0.873 1.21-0.163 0.519-0.144 0.929-0.45 1.38-0.165 0.242-0.499 1.31-0.524 1.72-0.066 1.09 0.696 2.82 0.696 2.82s4.75-1.59 5.06-3.43" style="stroke-width:.192;white-space:pre"/><path d="m25 33-1.71 5.31c0.0047 0.744 4.05 2.75 5.2 1.79 0.342-0.282 0.233-0.992-0.103-1.76l-1.99-4.17-1.4-1.16" style="fill:#ff6161;stroke-width:.192;white-space:pre"/><path d="m26.1 31.2-1.11 2.89c-0.289 0.983 0.255 2.02 1.23 2.33 0.779 0.251 1.29 0.278 2.31 0.204 0.847-0.0602 1.32-0.847 1.37-1.95 0.0695-1.43-0.273-2.76-0.497-3.47-0.51-1.61-2.44-1.84-3.31-0.0125" style="fill:#ff6161;stroke-width:.192;white-space:pre"/><path d="m29.5 33.9s-0.853 1.55-1.92-0.24c0 0 1.01 0.0625 1.92 0.24" style="fill:#fff;stroke-width:.192;white-space:pre"/><path d="m26.1 32.3c-0.0319-0.19-0.0343-0.381-0.0255-0.573 0.018-0.365-0.0409-0.911-0.594-0.67-0.806 0.351-0.903 2.11-0.0081 2.31 0.665 0.142 0.708-0.591 0.629-1.07" style="fill:#ff6161;stroke-width:.192;white-space:pre"/><path d="m29.5 31.6c-0.0446 0.0101-0.155 0.169-0.174 0.435-0.0081 0.122 0.0047 0.24 0.0369 0.332l0.199 0.578c0.0658 0.193 0.17 0.32 0.267 0.329l0.169 0.0108c0.226 0.0151 0.511-0.439 0.555-1.07 0.0112-0.16-0.0097-0.316-0.0576-0.428-0.0376-0.0876-0.0793-0.119-0.0927-0.119zm0.598 2.02c-0.0406 0.0057-0.0823 0.0084-0.124 5e-3l-0.169-0.0108c-0.248-0.0176-0.457-0.222-0.573-0.562l-0.199-0.578c-0.0473-0.135-0.0661-0.302-0.0547-0.468 0.0128-0.193 0.0652-0.372 0.148-0.51 0.101-0.17 0.246-0.26 0.398-0.249l0.903 0.0625c0.165 0.0116 0.304 0.128 0.39 0.331 0.0701 0.164 0.1 0.372 0.0842 0.589-0.0517 0.755-0.387 1.32-0.802 1.39" style="fill:#338000;stroke-width:.192;white-space:pre"/><path d="m26.8 31.4c-0.167 0.0284-0.314 0.246-0.332 0.508-0.0424 0.611 0.266 1.13 0.688 1.16l0.242 0.0175c0.188 0.0125 0.378-0.095 0.52-0.295l0.381-0.538c0.0574-0.0793 0.0932-0.186 0.1-0.298 0.0097-0.127-0.0186-0.251-0.0756-0.342-0.0276-0.0434-0.0863-0.117-0.173-0.123l-1.3-0.0902c-0.017-2e-3 -0.0343 0-0.0513 0.0027zm0.766 2.02c-0.0629 0.0101-0.127 0.0134-0.192 0.0101l-0.242-0.0175c-0.613-0.0427-1.07-0.73-1.01-1.53 0.0348-0.495 0.367-0.862 0.755-0.835l1.3 0.0902c0.176 0.0125 0.338 0.116 0.444 0.284 0.0969 0.154 0.142 0.351 0.129 0.551-0.0128 0.176-0.0701 0.345-0.164 0.477l-0.381 0.537c-0.171 0.24-0.396 0.39-0.638 0.432" style="fill:#338000;stroke-width:.192;white-space:pre"/><path d="m29.2 32.1c-0.0531 0.0091-0.109-0.0068-0.15-0.0468-0.186-0.179-0.338-0.0517-0.356-0.0376-0.0708 0.0643-0.181 0.0593-0.246-0.0116-0.0645-0.0717-0.0587-0.182 0.0112-0.246 0.14-0.127 0.493-0.28 0.831 0.0443 0.0692 0.0676 0.0717 0.177 0.0047 0.246-0.0271 0.0293-0.0613 0.045-0.0961 0.0517" style="fill:#338000;stroke-width:.192;white-space:pre"/><path d="m11.4 130c0.208-0.537 0.314-0.914 0.374-1.25 0.134-0.741 0.535-1.41 1.15-1.84 0.932-0.665 2.22-1.42 2.73-0.918 0.553 0.555-0.233 2.55 0.267 3.29 0.219 0.329 4.3 2.57 4.37 3.02 0.114 0.761-7.77 0.929-9.11 0.222-0.694-0.37-0.201-1.47 0.206-2.51" style="fill:#f8ad2f;stroke-width:.192;white-space:pre"/><path d="m22.5 130c0.208-0.537 0.314-0.914 0.374-1.25 0.134-0.741 0.535-1.41 1.15-1.84 0.932-0.665 2.22-1.42 2.73-0.918 0.553 0.555-0.233 2.55 0.267 3.29 0.219 0.329 4.3 2.57 4.37 3.02 0.113 0.761-7.77 0.929-9.11 0.222-0.694-0.37-0.201-1.47 0.206-2.51" style="fill:#f8ad2f;stroke-width:.192;white-space:pre"/><path d="m37.1 51.1c0.909-2.35 0.909-2.35 0.51-7.97-0.085-1.2-0.235-3.31-1.67-4.08-1.9-1.04-4.82-1.36-7.37-1.52 0.24 4.52 0.963 19.5 0.199 23.3-0.665 3.32-1.86 12.6-1.64 18.6 3.31-0.249 6.11-1.08 7.44-2.51 0.145-0.32-1.04-10-0.0784-16.2 0.717-4.61 1.55-6.99 2.6-9.68" style="fill:#803a18;stroke-width:.192;white-space:pre"/><path d="m37.5 50.4c0.186-0.493 0.318-0.889 0.407-1.3-2.75 0.03-5.71-0.0643-8.69-0.228 0.0765 3 0.108 5.98 0.0343 8.33 2.28 0.1 4.32 0.0934 6.07 0.0226 0.0016-0.0055 0.0031-0.0108 0.0047-0.0167 0.139-0.622 0.284-1.2 0.432-1.74 0.0016-0.0043 0.0031-0.0099 0.0047-0.0159 0.0691-0.257 0.141-0.506 0.213-0.75 0.0144-0.0526 0.0318-0.104 0.0468-0.156 0.145-0.481 0.295-0.949 0.45-1.4 5.45e-4 -0.0031 0.0016-0.0055 0.0031-0.0091 0.0584-0.166 0.117-0.331 0.175-0.495 0.0542-0.15 0.108-0.302 0.164-0.45 0.0449-0.125 0.0918-0.251 0.139-0.376 0.104-0.276 0.21-0.553 0.316-0.831 0.0717-0.184 0.136-0.351 0.197-0.51 0.0081-0.0208 0.0145-0.0417 0.0226-0.0618" style="fill:#d5870b;stroke-width:.192;white-space:pre"/><path d="m22.4 38.4c3.12 7.91 4.64 13.9 8.18 18 3.86 4.46 22.2 11.5 16.2 19.8-2.09 2.84-14.3-3.74-22.1-9.99-4.4-3.56-8.68-12.1-12.5-18.5-2.63-4.37 9.31-11.8 10.3-9.23" style="fill:url(#linearGradient16273-1-4);stroke-width:.192;white-space:pre"/></svg>
