<svg width="512" height="512" version="1.1" viewBox="0 0 135 135" xmlns="http://www.w3.org/2000/svg" xmlns:xlink="http://www.w3.org/1999/xlink"><defs><clipPath id="clipPath3469"><g transform="matrix(.929 0 0 .929 658 -50)"><g transform="matrix(.545 0 0 .545 -612 85.2)" style="opacity:.46"><path d="m384 231h-158c-16 0-29-13-29-29v-158c-8.9e-4 -16 13-29 29-29h158c16 0 29 13 29 29v158c0 16-13 29-29 29z" fill="#6bbef6" style="fill:#80c904;stroke-width:.895"/></g></g></clipPath><linearGradient id="linearGradient1827" x1="-27.5" x2="-27" y1="154" y2="176" gradientTransform="matrix(1.18 0 0 1 9.47 -.529)" gradientUnits="userSpaceOnUse" xlink:href="#linearGradient2416"/><linearGradient id="linearGradient2416"><stop style="stop-color:#fff" offset="0"/><stop style="stop-color:#fff;stop-opacity:0" offset="1"/></linearGradient><filter id="filter2476-2" x="-.018" y="-.0696" width="1.04" height="1.14" style="color-interpolation-filters:sRGB"><feGaussianBlur stdDeviation="0.88589281"/></filter><filter id="filter2476-2-3" x="-.018" y="-.0696" width="1.04" height="1.14" style="color-interpolation-filters:sRGB"><feGaussianBlur stdDeviation="0.88589281"/></filter><filter id="filter2476-2-0" x="-.018" y="-.0696" width="1.04" height="1.14" style="color-interpolation-filters:sRGB"><feGaussianBlur stdDeviation="0.88589281"/></filter><filter id="filter2476-2-9" x="-.018" y="-.0696" width="1.04" height="1.14" style="color-interpolation-filters:sRGB"><feGaussianBlur stdDeviation="0.88589281"/></filter></defs><path d="m119 63.1h-33.8c-3.43 0-6.21-2.78-6.21-6.21v-33.8c-1.93e-4 -3.43 2.78-6.21 6.21-6.21h33.8c3.43 0 6.21 2.78 6.21 6.21v33.8c0 3.43-2.78 6.21-6.21 6.21z" fill="#6bbef6" style="fill:#80c904;stroke-width:.192"/><g transform="matrix(.423 0 0 .423 -.95 1.25)" clip-path="url(#clipPath3469)"><rect x="189" y="116" width="109" height="21.5" ry="0" style="fill:#7ee100;paint-order:markers fill stroke"/><rect x="189" y="128" width="109" height="22.4" ry="0" style="fill:#d17636;paint-order:markers fill stroke"/><ellipse cx="217" cy="134" rx="1.62" ry="1.37" style="fill:#ffa560;paint-order:markers fill stroke"/><ellipse cx="233" cy="134" rx="1.62" ry="1.37" style="fill:#ffa560;paint-order:markers fill stroke"/><ellipse cx="250" cy="134" rx="1.62" ry="1.37" style="fill:#ffa560;paint-order:markers fill stroke"/><ellipse cx="267" cy="134" rx="1.62" ry="1.37" style="fill:#ffa560;paint-order:markers fill stroke"/><ellipse cx="284" cy="134" rx="1.62" ry="1.37" style="fill:#ffa560;paint-order:markers fill stroke"/><ellipse cx="203" cy="134" rx="1.62" ry="1.37" style="fill:#ffa560;paint-order:markers fill stroke"/><path d="m190 137s5.89 3.75 9.42 3.96c3.38 0.201 6.21-2.72 9.6-2.67 3.41 0.0467 6.13 3.07 9.53 2.95 3.08-0.109 5.21-3.31 8.3-3.27 2.89 0.0376 4.77 3.22 7.66 3.27 3.26 0.0561 5.56-3.35 8.82-3.39 3.04-0.0359 5.3 2.97 8.34 2.96 2.98-9e-3 5.17-2.95 8.15-2.96 2.89-6e-3 5.03 2.79 7.93 2.84 3.41 0.0529 6.09-3.12 9.5-3.06 3.5 0.0657 6.05 3.41 9.54 3.49 4.34 0.102 5.85-3.5 12.1-3.77l-0.0379 13.8-109 1.9e-4z" style="fill:#ffa560"/><path d="m222 91.3a15.2 12.1 0 0 0-15.2 12.1 15.2 12.1 0 0 0 0.0831 1.26 15.3 11.9 0 0 0-2.27-0.132 15.3 11.9 0 0 0-15.3 11.9 15.3 11.9 0 0 0 15.3 11.9 15.3 11.9 0 0 0 13.7-6.61 17.9 12.1 0 0 0 13.2 3.9 17.9 12.1 0 0 0 17.9-12.1 17.9 12.1 0 0 0-0.192-1.76 10.4 8.98 0 0 0 1.9-5.16 10.4 8.98 0 0 0-10.4-8.98 10.4 8.98 0 0 0-4.6 0.917 15.2 12.1 0 0 0-14-7.34 15.2 12.1 0 0 0-0.0175 0zm52.4 7.64a13.8 10.9 0 0 0-13.8 10.9 13.8 10.9 0 0 0 13.8 10.9 13.8 10.9 0 0 0 8.12-2.09 8.13 6.44 0 0 0 7.78 4.56 8.13 6.44 0 0 0 8.13-6.44 8.13 6.44 0 0 0-8.13-6.44 8.13 6.44 0 0 0-2.13 0.224 13.8 10.9 0 0 0 0.032-0.742 13.8 10.9 0 0 0-13.8-10.9z" style="fill:#7ee100;paint-order:markers fill stroke"/><g transform="matrix(1.51 0 0 1.51 198 56.9)"><path d="m18.5 6.96c1.04 0.231 2.03 0.188 3.07 0v21.3h-3.04z" style="fill:#ff6900;stroke-width:.117px;stroke:#ff6900"/><path d="m20.7 7.08c-0.254 0.0229-0.507 0.0342-0.761 0.0325l0.0256 21.1h1.64v-21.1c-0.3 0.0083-0.6 6.15e-4 -0.902-0.03z" style="fill:#ff7c00;stroke-width:.117px;stroke:#ff7c00"/><path d="m18.6 28.3h3.04v3.76s5.59-0.429 6.41 0.546c0.697 3.44 0.562 11.7-3.8 14.6-2.65 0.0053-5.41-0.039-8.28-0.0063-5.4-3.79-4.22-13.2-3.59-14.6 0.339-0.781 6.34-0.454 6.34-0.454z" style="fill:#574d57;stroke-width:.117px;stroke:#574d57"/><path d="m19 47.1c0.141-2.3-0.627-11.2 1.01-11.2 1.64 0.012 1.07 8.51 1.13 11.2z" style="fill:#443f43;stroke-width:.117px;stroke:#443f43"/><path d="m15.6-0.285s-0.777 4.37 1.17 6.29c1.2 1.18 2.97 1.62 4.62 1.17h2.29e-4c6.98e-4 -1.9e-4 0.0014-4.96e-4 0.0021-6.87e-4 0.294-0.0803 0.584-0.189 0.867-0.327 0.0112-0.00543 0.0223-0.011 0.0334-0.0165 0.0845-0.042 0.168-0.0864 0.251-0.134 0.0079-0.0045 0.0159-0.00873 0.0238-0.0133 0.091-0.0525 0.181-0.108 0.27-0.167 7.36e-4 -4.88e-4 0.0016-8.85e-4 0.0023-0.00137 0.0033-0.00216 0.0064-0.0047 0.0096-0.00687 0.0798-0.0532 0.159-0.11 0.236-0.168 0.0204-0.0153 0.0406-0.0312 0.0609-0.0469 0.0637-0.0493 0.127-0.1 0.189-0.153 0.0201-0.017 0.0403-0.0336 0.0602-0.051 0.0792-0.0694 0.158-0.141 0.234-0.216 0.0564-0.0555 0.11-0.114 0.162-0.174 0.103-0.121 0.196-0.251 0.28-0.389 0.0421-0.0688 0.082-0.14 0.12-0.212v-2.29e-4c0.0377-0.0724 0.0733-0.146 0.107-0.222v-2.29e-4c0.0336-0.0756 0.0653-0.153 0.095-0.231v-2.29e-4c0.0297-0.0783 0.0574-0.158 0.0833-0.238v-2.29e-4c0.026-0.0807 0.0501-0.162 0.0726-0.245 0.0449-0.165 0.0831-0.334 0.115-0.504 0.352-1.87-0.0215-3.94-0.0215-3.94h-6.46zm1.8 1.79h5.4s0.473 2.3-0.605 3.24c-1.22 1.06-3.04 0.988-4.1 0.0673-1.16-1.01-0.697-3.3-0.697-3.3z" style="fill:#443f43;stroke-width:.117px;stroke:#433e42"/></g><ellipse cx="255" cy="116" rx="9.6" ry="8.25" style="fill:#7ee100;paint-order:markers fill stroke"/><path d="m261 111 7.89 7.02h-3.96l-3.98-3.45z" style="fill:#574d57;stroke-width:.178px;stroke:#574d57"/><path d="m257 111-7.96 6.88h4.13l3.83-3.43z" style="fill:#574d57;stroke-width:.178px;stroke:#574d57"/><path d="m261 118s11.4-0.534 13.5 0.657c1.7 0.953 0.996 9.13 0.996 9.13h-2.62v-7.19h-4.68v7.19h-2.78v-7.26h-5.22v7.26h-2.82v-7.23h-5.25v7.19h-2.74v-7.11h-4.6v7.15h-2.7c0-3.25-0.425-7.75 0.843-9.01 0.856-1.3 12.1-0.738 18.1-0.779z" style="fill:#574d57;stroke-width:.178px;stroke:#574d57"/><path d="m256 67c1.57 0.395 3.08 0.321 4.65 0v36.4h-4.61z" style="fill:#ff6900;stroke-width:.189px;stroke:#ff6900"/><path d="m260 67.2c-0.385 0.0392-0.768 0.0585-1.15 0.0556l0.0388 36.1h2.48v-36.2c-0.454 0.0141-0.908 0.0014-1.37-0.0513z" style="fill:#ff7c00;stroke-width:.189px;stroke:#ff7c00"/><path d="m256 103h4.57v15.1h-4.46z" style="fill:#443f43;stroke-width:.178px;stroke:#443f43"/><path d="m252 56.4s-1.18 6.62 1.77 9.53c1.81 1.79 4.5 2.46 7 1.78h3.5e-4c2e-3 -2.82e-4 2e-3 -6.71e-4 3e-3 -0.0014 0.445-0.122 0.885-0.286 1.31-0.495 0.017-0.0083 0.0337-0.0166 0.0506-0.025 0.128-0.0636 0.255-0.131 0.38-0.202 0.0119-0.0068 0.0241-0.0132 0.036-0.0201 0.138-0.0795 0.275-0.163 0.409-0.252 2e-3 -6.72e-4 3e-3 -0.0014 3e-3 -2e-3 5e-3 -0.0033 0.01-0.0071 0.0146-0.0104 0.121-0.0806 0.24-0.166 0.358-0.254 0.031-0.0232 0.0614-0.0473 0.0922-0.0711 0.0965-0.0747 0.192-0.152 0.286-0.232 0.0304-0.0258 0.061-0.0509 0.0912-0.0773 0.12-0.105 0.239-0.213 0.355-0.328 0.0854-0.0841 0.167-0.172 0.245-0.264 0.156-0.183 0.297-0.38 0.424-0.589 0.0637-0.104 0.124-0.211 0.181-0.321v-3.56e-4c0.0571-0.11 0.111-0.222 0.162-0.336v-3.55e-4c0.0509-0.114 0.099-0.231 0.144-0.35v-3.48e-4c0.0449-0.119 0.087-0.239 0.126-0.361v-3.55e-4c0.0393-0.122 0.0759-0.246 0.11-0.371 0.068-0.25 0.126-0.506 0.174-0.763 0.534-2.84-0.0327-5.98-0.0327-5.98h-9.79zm2.72 2.71h8.18s0.716 3.49-0.916 4.9c-1.85 1.6-4.6 1.5-6.21 0.102-1.76-1.53-1.06-5.01-1.06-5.01z" style="fill:#443f43;stroke-width:.178px;stroke:#433e42"/></g><rect transform="matrix(.352 0 0 .369 110 -37.5)" x="-81.3" y="153" width="118" height="30.5" ry="11.7" style="fill:url(#linearGradient1827);filter:url(#filter2476-2);paint-order:markers fill stroke;stroke-linecap:round;stroke-linejoin:round;stroke-miterlimit:10;stroke-width:1.4"/><g transform="matrix(.224 0 0 .224 55.7 -3.95)" style="shape-inside:url(#rect3247);white-space:pre" aria-label="باغـدار"><path d="m262 59.7q0.89 0 1.72 0.46 0.828 0.429 1.29 1.29 0.491 0.828 0.491 1.72 0 0.92-0.46 1.75-0.46 0.828-1.29 1.29-0.828 0.46-1.75 0.46-0.89 0-1.72-0.46-0.859-0.46-1.29-1.29-0.46-0.828-0.46-1.75 0-0.89 0.46-1.72 0.46-0.859 1.29-1.29 0.828-0.46 1.72-0.46zm0.0307 6.96v-6.96h4.72q3.22-0.276 4.48-2.94 1.29-2.7 0.522-5.52-0.92-3.28-0.276-4.48t1.99-0.706q1.38 0.491 2.61 2.27 1.26 1.75 1.56 4.42 0.337 3.44-0.767 6.5-1.1 3.04-3.71 5.06-2.52 1.96-6.56 2.36-4.45 0-4.57 0zm5.77 3.22q2.27-0.614 4.17 0.368 1.9 0.982 2.45 2.82 0.46 2.3-0.859 3.8-1.29 1.5-2.88 1.9-3.16 0.583-5-1.2-1.81-1.78-1.5-4.14 0.337-2.36 3.62-3.56z"/><path d="m262 59.7v6.96h-1.32q-4.08 0-6.29-1.47-2.21-1.5-3.16-4.02-0.951-2.52-1.14-5.68-0.153-3.16-0.092-6.56 0-0.245 0-0.491l0.123-12.8q0.153-2.27 1.72-3.22 1.6-0.951 3.13-0.0614 1.56 0.89 1.66 4.17l-0.245 18.2q0.153 2.94 1.6 4.02 1.47 1.07 3.53 1.01zm-0.123 0q0.859 0 1.69 0.46 0.859 0.429 1.32 1.29 0.46 0.828 0.46 1.72 0 0.92-0.46 1.75-0.429 0.828-1.29 1.29-0.828 0.46-1.72 0.46-0.92 0-1.75-0.46-0.828-0.46-1.29-1.29-0.46-0.828-0.46-1.75 0-0.89 0.46-1.72 0.491-0.859 1.32-1.29 0.828-0.46 1.72-0.46z"/><path d="m219 59.7h5.4q-2.67-2.09-3.1-4.88-0.399-2.82 0.951-5.49 1.35-2.7 3.99-4.51 2.64-1.72 5.8-2.02 3.16-0.307 5.83 0.92 2.39 1.14 3.5 3.25 0.583 1.41 0.368 2.76-0.215 1.32-1.01 1.84-0.767 0.491-1.78-0.644-0.307-0.368-0.583-0.859-0.491-1.07-1.66-1.81t-4.02-0.153q-2.79 0.767-3.44 3.25-0.644 2.45 1.32 4.33 2.12 1.63 4.79 1.44 2.67-0.184 4.82-1.29 0.859-0.491 2.67-1.17 1.81-0.675 3.31-0.276 1.5 0.399 1.53 3.04-0.245 2.24-2.27 3.47-2.02 1.23-3.96 1.84-0.399 0.153-0.736 0.276-2.48 0.859-4.94 0.89-2.42 0.0614-4.85 0.859-3.25 1.23-6.01 1.6-2.73 0.368-5.89 0.307h-0.0307q-0.89 0-1.72-0.46-0.828-0.46-1.29-1.29-0.46-0.828-0.46-1.75 0-0.89 0.46-1.72 0.46-0.859 1.29-1.29 0.828-0.46 1.72-0.46zm7.36-30.2q2.27-0.614 4.17 0.368 1.9 0.951 2.45 2.82 0.46 2.27-0.859 3.77-1.29 1.5-2.88 1.9-3.16 0.614-5-1.17-1.81-1.81-1.5-4.17 0.337-2.36 3.62-3.53z"/><path d="m218 59.7q0.215-0.0307 0.46-0.0307 0.89 0 1.72 0.46 0.828 0.429 1.29 1.29 0.491 0.828 0.491 1.72 0 0.92-0.46 1.75-0.46 0.828-1.29 1.29-0.828 0.46-1.75 0.46h-16.4v-0.0307q-0.215 0.0307-0.429 0.0307-0.89 0-1.72-0.46-0.828-0.46-1.29-1.29-0.46-0.828-0.46-1.75 0-0.89 0.46-1.72 0.46-0.859 1.29-1.29 0.828-0.46 1.72-0.46 0.245 0 0.46 0.0307z"/><path d="m202 59.7v6.93q-3.07 0-4.88-1.47-1.81-1.47-2.91-4.14-1.96 3.19-5 4.57-3.04 1.35-6.66 1.47-3.9 0.0614-5.55-1.26-1.66-1.32-1.6-2.94 0.0614-1.63 1.38-2.48 1.01-0.429 3.71-0.307 1.6 0.0614 3.34-0.0307 4.05-0.245 5.52-1.56 1.47-1.35 1.04-3.53-0.429-2.21-2.09-4.97-1.35-2.21-1.81-3.9-0.307-1.84 0.736-3.01 1.04-1.2 2.64-1.1 1.63 0.0614 3.1 1.93 1.04 1.66 2.36 4.94 0.399 0.951 0.828 1.96 0.522 1.29 0.92 2.76 0.522 2.27 1.53 4.05t3.37 2.09z"/><path d="m174 35.3q0.123 4.88-0.153 12.5-0.276 7.64-0.92 12.4-0.583 3.62-1.69 5.43-1.07 1.81-2.06 0.92-0.951-0.92-1.2-5.46l-0.491-23.7q0.092-3.5 1.63-4.66 1.56-1.17 3.13-0.429 1.56 0.736 1.75 2.94z"/><path d="m162 52q0.644 3.99 0.123 8.04-0.491 4.05-2.48 7.45-1.96 3.41-5.77 5.46-1.69 0.89-3.65 1.35-1.93 0.491-3.87 0.215-0.767-0.092-1.75-0.521-1.01-0.429-1.2-1.26-0.0614-0.736 0.675-1.32 0.736-0.552 1.69-0.951 0.92-0.368 1.44-0.491 3.07-0.92 4.97-3.1 1.93-2.15 2.98-5.12 0.828-2.7 0.46-5.52-0.092-1.1-0.245-2.21-0.184-1.32-0.276-2.67-0.092-0.767-0.0307-1.66 0.092-0.89 0.522-1.56 0.429-0.583 1.1-0.828t1.38-0.307q0.706-0.0614 1.41 0.0614 0.736 0.123 1.26 0.675 0.552 0.644 0.798 1.72 0.245 1.07 0.368 2.06 0.0307 0.245 0.092 0.491z"/></g><g transform="matrix(.224 0 0 .224 .844 -.545)"><g transform="translate(-35.5 -8.47)" style="shape-inside:url(#rect3247-8);white-space:pre" aria-label="تولیدکننده"><path d="m263 57.2q0.845 0 1.63 0.437 0.787 0.408 1.22 1.22 0.466 0.787 0.466 1.63 0 0.874-0.437 1.66t-1.22 1.22q-0.787 0.437-1.66 0.437-0.845 0-1.63-0.437-0.816-0.437-1.22-1.22-0.437-0.787-0.437-1.66 0-0.845 0.437-1.63 0.437-0.816 1.22-1.22 0.787-0.437 1.63-0.437zm0.0291 6.62v-6.62h4.49q3.06-0.262 4.25-2.8 1.22-2.56 0.495-5.25-0.874-3.12-0.262-4.25 0.612-1.14 1.89-0.67 1.31 0.466 2.48 2.16 1.19 1.66 1.49 4.2 0.321 3.26-0.729 6.18-1.05 2.89-3.53 4.81-2.39 1.87-6.24 2.24-4.23 0-4.34 0zm6.79-30.6q3.26 0.321 4.78 1.17 1.54 0.845 0.699 1.72-0.816 0.874-4.66 1.31-2.01 0.262-5.01 0.583-2.97 0.321-5.36 0.321-0.233 0-0.495 0-1.31 0.0291-2.1-0.262-0.816-0.291-0.816-1.63 0.146-1.66 1.75-2.39 1.57-0.729 3.73-0.845 2.16-0.146 3.93-0.117 0.554 0.0291 0.991 0.0291 0.175 0 0.379 0 1.08-0.0291 1.02 0-0.0583 0 1.17 0.117z"/><path d="m254 59.1q2.04-0.146 2.54-1.6 0.495-1.46-0.495-2.83-0.962-1.4-3.32-1.37-1.19 0.0874-1.98 0.962-0.787 0.874-0.641 2.27 0.204 1.08 1.34 1.84 1.17 0.729 2.56 0.729zm9.38-1.87q0.816 0 1.6 0.408 0.787 0.437 1.22 1.25 0.466 0.787 0.466 1.63 0 0.874-0.437 1.66t-1.22 1.22q-0.787 0.437-1.63 0.437h-3.5q-1.75 5.07-6.76 7.87-1.6 0.874-3.47 1.31t-3.67 0.204q-0.729-0.0874-1.69-0.495-0.933-0.408-1.14-1.22-0.0291-0.67 0.67-1.22 0.699-0.525 1.57-0.903 0.874-0.35 1.4-0.495 4.28-1.34 6.29-5.1-2.8-0.0291-5.13-1.6-2.33-1.57-3.12-4.49-0.554-2.21 0.233-4.46 0.787-2.27 2.71-3.88 1.92-1.63 4.81-1.89 4.31-0.233 6.64 2.51 1.89 2.42 1.92 5.45 0.0291 0.874 0 1.78z"/><path d="m227 63.8q-0.845 0-1.63-0.437-0.787-0.437-1.22-1.22t-0.437-1.66q0-0.845 0.437-1.63 0.437-0.816 1.22-1.22 0.787-0.437 1.63-0.437 2.54 0 4.23-0.554 1.72-0.554 2.77-1.49 1.84-1.63 1.98-4.2v-0.321l-0.233-15.5q0.0874-3.12 1.57-3.96 1.49-0.845 2.97 0.0583 1.52 0.933 1.63 3.09l0.117 12.2q0.117 5.36-1.17 9.24-1.28 3.85-4.6 5.95-3.29 2.07-9.24 2.1z"/><path d="m227 57.2q0.845 0 1.63 0.437 0.787 0.408 1.22 1.22 0.466 0.787 0.466 1.63 0 0.874-0.437 1.66-0.437 0.787-1.22 1.22-0.787 0.437-1.66 0.437-1.02 0.0291-2.01 0-3.09 0.0583-6.09-1.11-3-1.19-4.6-3.93-0.903 2.27-2.83 3.64-1.78 1.25-3.91 1.37-0.146 0.0291-0.321 0.0291h-0.0874q-0.787-0.0291-1.54-0.437-0.787-0.437-1.22-1.22t-0.437-1.66q0-0.845 0.437-1.63 0.437-0.816 1.25-1.25 0.758-0.379 1.52-0.408h0.175q2.04 0 3.06-0.612t1.46-1.52q0.408-0.845 0.466-1.89 0.0874-1.05 0.0291-2.24-0.0874-1.66 0.117-3.38 0.291-1.66 1.43-2.27 1.17-0.612 2.3 0.262t1.43 3.64q0.0583 0.583 0.175 1.14 0.117 0.787 0.204 1.52 0.291 1.37 1.25 2.59 0.991 1.19 2.83 1.98 1.87 0.787 4.93 0.787zm-12.1 11.6q3.26 0.321 4.78 1.17 1.54 0.845 0.699 1.72-0.816 0.874-4.66 1.31-2.01 0.262-5.01 0.583-2.97 0.321-5.36 0.321-0.233 0-0.495 0-1.31 0.0291-2.1-0.262-0.816-0.291-0.816-1.63 0.146-1.66 1.75-2.39 1.57-0.729 3.73-0.874 2.16-0.117 3.93-0.0874 0.554 0.0291 0.991 0.0291 0.175 0 0.379 0 1.08-0.0291 1.02-0.0291-0.0583 0.0291 1.17 0.146z"/><path d="m207 57.2v6.59q-2.91 0-4.63-1.4t-2.77-3.93q-1.87 3.03-4.75 4.34-2.89 1.28-6.32 1.4-3.7 0.0583-5.27-1.19-1.57-1.25-1.52-2.8 0.0583-1.54 1.31-2.36 0.962-0.408 3.53-0.291 1.52 0.0583 3.18-0.0291 3.85-0.233 5.25-1.49 1.4-1.28 0.991-3.35-0.408-2.1-1.98-4.72-1.28-2.1-1.72-3.7-0.291-1.75 0.699-2.86 0.991-1.14 2.51-1.05 1.54 0.0583 2.94 1.84 0.991 1.57 2.24 4.69 0.379 0.903 0.787 1.87 0.495 1.22 0.874 2.62 0.495 2.16 1.46 3.85 0.962 1.69 3.21 1.98z"/><path d="m175 27.7q0.408-0.117 3.58-1.89 3.21-1.81 7.37-4.2 4.17-2.42 7.58-4.4 3.32-1.92 4.23-2.42 2.97-1.46 3.73-0.903 0.787 0.554-0.0583 2.16-0.845 1.57-2.77 3.21-2.68 2.27-8.04 6.09-5.33 3.82-10.8 6.82-5.48 3-8.51 2.83-2.8-0.495-1.19-3 1.22-1.98 4.9-4.28zm-8.07 29.5h0.495q2.91-0.0583 4.49-0.991 1.57-0.933 1.84-2.42 0.291-2.04-0.699-4.98-0.962-2.94-2.19-5.83-0.583-1.4-1.08-2.62-0.321-2.07 0.816-3.21 1.14-1.14 3.18-0.583 1.63 0.583 2.27 2.36 0.525 1.37 1.17 2.83 1.11 2.56 1.98 5.19 0.874 2.62 0.962 5.07-0.175 5.36-4.02 8.63-3.82 3.26-9.21 3.18-0.845 0-1.63-0.437-0.787-0.437-1.22-1.22-0.437-0.787-0.437-1.66 0-0.845 0.437-1.63 0.437-0.816 1.22-1.22 0.787-0.437 1.63-0.437z"/><path d="m167 57.2v6.62q-1.02 0.0291-2.01 0-3.09 0.0583-6.09-1.11-3-1.19-4.6-3.93-0.903 2.27-2.86 3.64-1.92 1.37-4.28 1.4v-6.62q2.19 0.0291 3.21-0.583 1.05-0.641 1.49-1.54 0.408-0.845 0.466-1.89 0.0874-1.05 0.0291-2.24-0.0874-1.66 0.117-3.38 0.291-1.66 1.43-2.27 1.17-0.612 2.3 0.262t1.43 3.64q0.0583 0.583 0.175 1.14 0.117 0.787 0.204 1.52 0.291 1.37 1.25 2.59 0.991 1.19 2.83 1.98 1.87 0.787 4.93 0.787zm0 0q0.845 0 1.63 0.437 0.787 0.408 1.22 1.22 0.466 0.787 0.466 1.63 0 0.874-0.437 1.66-0.437 0.787-1.22 1.22-0.787 0.437-1.66 0.437-0.845 0-1.66-0.437-0.787-0.437-1.22-1.22-0.408-0.787-0.408-1.66 0-0.845 0.437-1.63 0.437-0.816 1.22-1.22 0.787-0.437 1.63-0.437zm-19.8 0q0.845 0 1.63 0.437 0.787 0.408 1.22 1.22 0.466 0.787 0.466 1.63 0 0.874-0.437 1.66-0.437 0.787-1.22 1.22-0.787 0.437-1.66 0.437-0.845 0-1.63-0.437-0.787-0.437-1.22-1.22-0.437-0.787-0.437-1.66 0-0.845 0.437-1.63 0.437-0.816 1.25-1.22 0.787-0.437 1.6-0.437zm4.17-24.2q2.16-0.583 3.96 0.35 1.81 0.903 2.33 2.68 0.437 2.16-0.816 3.58-1.22 1.43-2.74 1.81-3 0.583-4.75-1.11-1.72-1.72-1.43-3.96 0.321-2.24 3.44-3.35z"/><path d="m147 57.2v6.62q-1.02 0.0291-2.01 0-3.09 0.0583-6.09-1.11-3-1.19-4.6-3.93-0.903 2.27-2.86 3.64-1.92 1.37-4.28 1.4v-6.62q2.19 0.0291 3.21-0.583 1.05-0.641 1.49-1.54 0.408-0.845 0.466-1.89 0.0874-1.05 0.0292-2.24-0.0874-1.66 0.117-3.38 0.291-1.66 1.43-2.27 1.17-0.612 2.3 0.262t1.43 3.64q0.0583 0.583 0.175 1.14 0.117 0.787 0.204 1.52 0.291 1.37 1.25 2.59 0.991 1.19 2.83 1.98 1.87 0.787 4.93 0.787zm0 0q0.845 0 1.63 0.437 0.787 0.408 1.22 1.22 0.466 0.787 0.466 1.63 0 0.874-0.437 1.66-0.437 0.787-1.22 1.22-0.787 0.437-1.66 0.437-0.845 0-1.66-0.437-0.787-0.437-1.22-1.22-0.408-0.787-0.408-1.66 0-0.845 0.437-1.63 0.437-0.816 1.22-1.22 0.787-0.437 1.63-0.437zm-19.8 0q0.845 0 1.63 0.437 0.787 0.408 1.22 1.22 0.466 0.787 0.466 1.63 0 0.874-0.437 1.66-0.437 0.787-1.22 1.22-0.787 0.437-1.66 0.437-0.845 0-1.63-0.437-0.787-0.437-1.22-1.22-0.437-0.787-0.437-1.66 0-0.845 0.437-1.63 0.437-0.816 1.25-1.22 0.787-0.437 1.6-0.437zm4.17-24.2q2.16-0.583 3.96 0.35 1.81 0.903 2.33 2.68 0.437 2.16-0.816 3.58-1.22 1.43-2.74 1.81-3 0.583-4.75-1.11-1.72-1.72-1.43-3.96 0.321-2.24 3.44-3.35z"/><path d="m127 57.2v6.59q-2.91 0-4.63-1.4t-2.77-3.93q-1.87 3.03-4.75 4.34-2.89 1.28-6.32 1.4-3.7 0.0583-5.27-1.19-1.57-1.25-1.52-2.8 0.0583-1.54 1.31-2.36 0.962-0.408 3.53-0.291 1.52 0.0583 3.18-0.0291 3.85-0.233 5.25-1.49 1.4-1.28 0.991-3.35-0.408-2.1-1.98-4.72-1.28-2.1-1.72-3.7-0.291-1.75 0.699-2.86 0.991-1.14 2.51-1.05 1.54 0.0583 2.94 1.84 0.991 1.57 2.24 4.69 0.379 0.903 0.787 1.87 0.495 1.22 0.874 2.62 0.495 2.16 1.46 3.85 0.962 1.69 3.21 1.98z"/><path d="m76.8 55.9q-0.583-3.73 1.34-6.56 1.92-2.86 5.22-4.52 3.32-1.66 6.94-1.78 3.61-0.146 6.38 1.63 2.77 1.75 3.61 5.71 0.816 5.36-1.95 8.86-2.77 3.47-7.14 4.31-2.8 0.495-5.48 0.0874-2.65-0.437-4.2-1.52-1.43-1.05-2.86-2.71-1.43-1.66-1.87-3.53zm17.3-1.28q1.22-1.92 0.321-3.76-0.874-1.84-2.89-2.83-1.98-1.02-4.17-0.379-2.16 0.612-3.53 3.61-1.08 2.71-0.117 4.2 0.962 1.46 2.97 1.81t4.11-0.321q2.1-0.699 3.29-2.33z"/></g><g transform="matrix(1.76 0 0 1.76 25.3 -205)"><g transform="matrix(3.47 0 0 3.47 496 -597)"><g transform="matrix(.286 0 0 .286 -41.1 202)"></g><g transform="matrix(.286 0 0 .286 -47.2 203)"><g transform="matrix(.545 0 0 .545 -434 43)"><path d="m384 231h-158c-16 0-29-13-29-29v-158c-8.9e-4 -16 13-29 29-29h158c16 0 29 13 29 29v158c0 16-13 29-29 29z" fill="#6bbef6" style="fill:#80c904;stroke-width:.895"/></g><rect transform="matrix(.894 0 0 .939 -247 -87.2)" x="-81.3" y="153" width="118" height="30.5" ry="11.7" style="fill:url(#linearGradient1827);filter:url(#filter2476-2-3);paint-order:markers fill stroke;stroke-linecap:round;stroke-linejoin:round;stroke-miterlimit:10;stroke-width:1.4"/></g></g><g transform="matrix(.202 0 0 .202 15.5 176)"><g><title>background</title><rect id="canvas_background" x="-1" y="-1" width="514" height="514" fill="none"/><g id="canvasGrid" x="0" y="0" width="100%" height="100%" display="none" overflow="visible"><rect width="100%" height="100%" fill="url(#gridpattern)" stroke-width="0"/></g></g><g><title>Layer 1</title><g stroke="null"><g transform="matrix(1 0 0 1 -123 -128)"><title transform="translate(122 132)">background</title><rect x="121" y="131" width="514" height="402" fill="none"/><g display="none"><rect x="122" y="132" width="512" height="512" fill="url(#gridpattern)" stroke="null" stroke-width="0"/></g></g><g transform="matrix(1 0 0 1 -123 -128)"><title transform="translate(122 132)">Layer 1</title><g transform="matrix(.725 0 0 .725 -1398 -1075)" stroke="null"><path d="m2356 1862c-7.68-36.2-29.6-60.9-39.5-65.8-22.2-11.1-29.6 6.58-39.5 6.58s-17.3-17.7-39.5-6.58c-9.87 4.94-31.8 29.6-39.5 65.8s79 6.58 79 6.58 86.6 29.6 79-6.58z" fill="#ffd24f" stroke="null"/><ellipse cx="2277" cy="1914" rx="151" ry="55.9" fill="#ffbe1e" stroke="null"/><path d="m2188 1954c-9.86-2.47-16.3 2.8-16.3 13.2 0 13.7 13.3 47.3 27.2 26.3s-10.9-39.5-10.9-39.5z" fill="#ffe1b2" stroke="null"/><path d="m2364 1954c10.8-2.47 17.8 2.8 17.8 13.2 0 13.7-14.5 47.3-29.7 26.3s11.9-39.5 11.9-39.5z" fill="#ffe1b2" stroke="null"/><path d="m2205 2074c14.7-9.48 13.1-37.7 13.1-44.3h118c0 6.58-1.82 34.8 12.9 44.3l-72.1 80.8z" fill="#ffd7a3" stroke="null"/><path d="m2323 2102 26.1-28.1c-14.7-9.47-12.9-37.7-12.9-44.3h-118c8.5 24.4 64.7 66.4 105 72.4z" fill="#fdc88e" stroke="null"/><path d="m2428 2213c10.9 0 19.7-8.84 19.7-19.7v-39.2c0-29-22.6-59.9-50.1-68.7l-41.2-13.2c-22.1 16.9-53.8 40-79.8 40s-57.6-23.1-79.8-40l-41.2 13.2c-27.6 8.82-50.1 39.7-50.1 68.7v39.2c0 10.9 8.84 19.7 19.7 19.7z" fill="#ff6953" stroke="null"/><path d="m2448 2197h-10.2v-13.8h10.6v-10.1h-10.6v-13.8h10.6v-5.54c0-1.51-0.097-3.02-0.217-4.54h-10.4v-13.8h7.74c-1.04-3.42-2.34-6.78-3.88-10.1h-3.85v-7.22c-3.67-6.11-8.14-11.8-13.2-16.7h-10.7v-8.69c-4.91-3.27-10.1-5.9-15.6-7.64l-23.7-7.58h-8.55v-2.74l-8.94-2.86c-0.37 0.283-0.763 0.58-1.14 0.866v4.73h-6.27c-5.53 4.13-11.5 8.4-17.6 12.5v11.4h-13.8v-2.9c-11.6 6.54-23.5 11.5-34.7 13h0.684v13.8h-13.8v-13.8h0.684c-11.1-1.44-23.1-6.44-34.7-13v2.9h-13.8v-11.4c-6.18-4.09-12.1-8.36-17.6-12.5h-6.27v-4.73c-0.375-0.286-0.769-0.583-1.14-0.866l-8.94 2.86v2.74h-8.55l-23.7 7.58c-5.44 1.74-10.7 4.37-15.6 7.64v8.69h-10.7c-5.08 4.94-9.56 10.6-13.2 16.7v7.22h-3.85c-1.55 3.29-2.84 6.66-3.88 10.1h7.74v13.8h-10.4c-0.12 1.52-0.217 3.03-0.217 4.54v5.54h10.6v13.8h-10.6v10.1h10.6v13.8h-10.2c0.822 3.92 2.81 7.39 5.58 10.1h4.64v3.28c2.73 1.43 5.8 2.32 9.1 2.32h0.978v-5.6h13.8v5.6h10.1v-5.6h13.8v5.6h10.1v-5.6h13.8v5.6h10.1v-5.6h13.8v5.6h10.1v-5.6h13.8v5.6h10.1v-5.6h13.8v5.6h10.1v-5.6h13.8v5.6h10.1v-5.6h13.8v5.6h10.1v-5.6h13.8v5.6h10.1v-5.6h13.8v5.6h10.1v-5.6h13.8v5.6h10.1v-5.6h13.8v5.6h10.1v-5.6h13.8v5.6h0.978c3.3 0 6.36-0.887 9.1-2.32v-3.28h4.64c2.76-2.69 4.75-6.16 5.57-10.1zm-307 0h-13.8v-13.8h13.8zm0-23.9h-13.8v-13.8h13.8zm0-23.9h-13.8v-13.8h13.8zm0-23.9h-13.8v-13.8h13.8zm23.9 71.7h-13.8v-13.8h13.8zm0-23.9h-13.8v-13.8h13.8zm0-23.9h-13.8v-13.8h13.8zm0-23.9h-13.8v-13.8h13.8zm0-23.9h-13.8v-13.8h13.8zm23.9 95.6h-13.8v-13.8h13.8zm0-23.9h-13.8v-13.8h13.8zm0-23.9h-13.8v-13.8h13.8zm0-23.9h-13.8v-13.8h13.8zm0-23.9h-13.8v-13.8h13.8zm23.9 95.6h-13.8v-13.8h13.8zm0-23.9h-13.8v-13.8h13.8zm0-23.9h-13.8v-13.8h13.8zm0-23.9h-13.8v-13.8h13.8zm0-23.9h-13.8v-13.8h13.8zm23.9 95.6h-13.8v-13.8h13.8zm0-23.9h-13.8v-13.8h13.8zm0-23.9h-13.8v-13.8h13.8zm0-23.9h-13.8v-13.8h13.8zm23.9 71.7h-13.8v-13.8h13.8zm0-23.9h-13.8v-13.8h13.8zm0-23.9h-13.8v-13.8h13.8zm0-23.9h-13.8v-13.8h13.8zm23.9 71.7h-13.8v-13.8h13.8zm0-23.9h-13.8v-13.8h13.8zm0-23.9h-13.8v-13.8h13.8zm23.9 47.8h-13.8v-13.8h13.8zm0-23.9h-13.8v-13.8h13.8zm0-23.9h-13.8v-13.8h13.8zm0-23.9h-13.8v-13.8h13.8zm23.9 71.7h-13.8v-13.8h13.8zm0-23.9h-13.8v-13.8h13.8zm0-23.9h-13.8v-13.8h13.8zm0-23.9h-13.8v-13.8h13.8zm23.9 71.7h-13.8v-13.8h13.8zm0-23.9h-13.8v-13.8h13.8zm0-23.9h-13.8v-13.8h13.8zm0-23.9h-13.8v-13.8h13.8zm0-23.9h-13.8v-13.8h13.8zm23.9 95.6h-13.8v-13.8h13.8zm0-23.9h-13.8v-13.8h13.8zm0-23.9h-13.8v-13.8h13.8zm0-23.9h-13.8v-13.8h13.8zm0-23.9h-13.8v-13.8h13.8zm23.9 95.6h-13.8v-13.8h13.8zm0-23.9h-13.8v-13.8h13.8zm0-23.9h-13.8v-13.8h13.8zm0-23.9h-13.8v-13.8h13.8zm0-23.9h-13.8v-13.8h13.8zm23.9 95.6h-13.8v-13.8h13.8zm0-23.9h-13.8v-13.8h13.8zm0-23.9h-13.8v-13.8h13.8zm0-23.9h-13.8v-13.8h13.8z" fill="#e95f43" stroke="null"/><path d="m2277 2112-27.5 27.5c-2.86 2.86-7.6 2.49-9.98-0.783l-48.1-66.2 15.3-15.3c2.48-2.48 6.45-2.58 9.06-0.238z" fill="#ffbe1e" stroke="null"/><path d="m2277 2112 27.5 27.5c2.86 2.86 7.6 2.49 9.98-0.783l48.1-66.2-15.3-15.3c-2.48-2.48-6.45-2.58-9.06-0.238z" fill="#ffbe1e" stroke="null"/><path d="m2189 1910c-1.54 9.31-1.62 20.5-1.62 33.8 0 52.7 29.5 118 89.6 118s89.6-65.8 89.6-118c0-13.3-0.084-24.5-1.62-33.8-24.1-8.13-54.7-13-88-13s-63.9 4.87-88 13z" fill="#ffe1b2" stroke="null"/><path d="m2367 1921c-5.27-6.76-10.9-13.7-10.9-13.7v6.58c1.63 59.6-19.6 85.5-19.6 85.5l-27 3.03c-21.1 2.36-42.4 2.36-63.5 0l-27-3.03s-21.2-25.9-19.6-85.5v-6.58s-5.65 6.94-10.9 13.7c-1.37 5.87-3.57 12.2-3.57 19.3 0 52.7 31.5 129 92.8 129s91.4-76 91.4-129c0-7-0.769-13.4-2.14-19.3zm-109 94h39.2c5.37 0 9.98 3.27 12 7.94-7.23 3.17-18.3 5.22-30.8 5.22-13.2 0-24.8-2.28-32-5.76 2.13-4.36 6.54-7.4 11.7-7.4z" fill="#a7795e" stroke="null"/><path d="m2280 2009c0-8.69-8.43-10.7-14-8.55-10.2 3.86-21.4 14.6-30.8 7.97 0 0 3.29 13.9 8.84 13.9 11.1-1e-3 36 1.45 36-13.3z" fill="#543d38" stroke="null"/><path d="m2278 2009c0-8.69 8.43-10.7 14-8.55 10.2 3.86 21.4 14.6 30.8 7.97 0 0-3.29 13.9-8.84 13.9-11.1-1e-3 -36 1.45-36-13.3z" fill="#543d38" stroke="null"/><path d="m2389 2081-26.3-8.42v81c0 3.01-2 5.68-4.92 6.4-22.3 5.49-50.2 8.77-80.6 8.77s-58.3-3.28-80.6-8.77c-2.92-0.72-4.92-3.38-4.92-6.4v-81l-26.3 8.42v131h224v-131z" fill="#c55f54" stroke="null"/><path d="m2185 1955 17.8 3.28s6.94-38.9 10.7-55.1c-9.7 1.94-18.9 4.27-27.2 7-1.58 9.31-1.67 20.5-1.67 33.8 0 3.61 0.157 7.29 0.442 11z" fill="#543d38" stroke="null"/><path d="m2369 1955-17.8 3.28s-6.94-38.9-10.7-55.1c9.7 1.94 18.9 4.27 27.2 7 1.58 9.31 1.67 20.5 1.67 33.8 0 3.61-0.157 7.29-0.442 11z" fill="#543d38" stroke="null"/><path d="m2316 1920 15.8-18c-16.8-2.96-35.1-4.65-54.4-4.65-11.8 0-23.2 0.637-34.1 1.78 10.3-0.706 50.9 4.76 72.7 20.8z" fill="#543d38" stroke="null"/></g><path d="m597 446-32.6-23.3c-1.41-1.01-3.1-1.55-4.84-1.55l-8.92-2e-3c-2.21 0-4.33 0.883-5.89 2.44-7.95 7.96-18.5 12.3-29.8 12.3s-21.8-4.39-29.8-12.3c-1.56-1.56-3.68-2.44-5.89-2.44l-8.92 2e-3c-1.73 0-3.43 0.542-4.84 1.55l-32.6 23.3c-20.9 14.9-33.4 39.2-33.4 64.8v7.88c0 4.6 3.73 8.33 8.33 8.33h214c4.6 0 8.33-3.73 8.33-8.33v-7.88c0-25.7-12.5-49.9-33.4-64.8z" fill="#c55f54"/><path d="m622 527c4.6 0 8.33-3.73 8.33-8.33v-7.88c0-25.7-12.5-49.9-33.4-64.8l-32.6-23.3c-1.41-1.01-3.11-1.55-4.84-1.55l-8.92-2e-3c-2.21 0-4.33 0.883-5.89 2.44-7.95 7.96-18.5 12.3-29.8 12.3v91.1z" fill="#c55f54"/><path d="m558 483c-4.6 0-8.33-3.73-8.33-8.33v-53.5c0-4.6 3.73-8.33 8.33-8.33 4.6 0 8.33 3.73 8.33 8.33v53.5c0 4.6-3.73 8.33-8.33 8.33z" fill="#ecb402"/><path d="m471 483c-4.6 0-8.33-3.73-8.33-8.33v-53.5c0-4.6 3.73-8.33 8.33-8.33s8.33 3.73 8.33 8.33v53.5c0 4.6-3.73 8.33-8.33 8.33z" fill="#ffe100"/><path d="m595 527h-159v-26.2c0-14.5 11.7-26.2 26.2-26.2h107c14.5 0 26.2 11.7 26.2 26.2z" fill="#ecb402"/><path d="m515 475v52.3h79.7v-26.2c0-14.5-11.7-26.2-26.2-26.2z" fill="#bb8901"/><path d="m587 441c-27.3 17.8-62.6 10.6-92.3-2.79-13.2 14.5-31.8 20.7-51.3 18.6v-14.6c0-13.8 8.08-25.8 19.8-31.4-3.74-7.37-5.78-15.6-5.78-24.2v-80.9c0-31.9 25.9-57.8 57.8-57.8s57.8 25.9 57.8 57.8c5e-3 110-0.0326 109 0.014 109 8.17 6.11 13.6 15.7 13.9 26.6z" fill="#ff6953"/><path d="m528 289c-7.7-0.68-15.7-0.724-23.9 0-19.4 1.7-34.2 17.9-34.2 37.3v15.4c0 25.5 20.7 46.1 46.1 46.1s46.1-20.7 46.1-46.1v-15.4c-4.6e-4 -19.3-14.8-35.6-34.2-37.3z" fill="#ffdfba"/><path d="m495 438c-2.47 2.71-5.66 5.72-9.7 8.54-0.924-0.434-4.1-1.95-4.49-2.15-11.7-5.67-20.9-15.4-26-27.7 2.57-2.41 5.51-4.43 8.73-5.97 8.75 17.3 22.3 23.2 31.5 27.3z" fill="#e85e43"/><path d="m531 262c-27.6-0.334-54.1 19.4-58.2 50-0.0643 0.479-0.187 0.95-0.364 1.4-3.09 7.92-2.49 13.2-2.49 28.8 0 4.75 0.716 9.33 2.05 13.6 0.179 0.577 0.278 1.17 0.278 1.78 0 0.275-4.7e-4 43.1 9.3e-4 43.3 0.0424 6.77-9.45 8.29-11.5 1.84-1.63-5.16-2.49-10.6-2.49-16.2v-80.2c0-37.2 36.2-67.6 74.5-56 6.48 1.96 4.98 11.6-1.78 11.5z" fill="#e95f43"/><path d="m504 380c-2.41 3.59-6.68 4.38-9.92 2.64-14.7-7.87-24.6-23.5-24.6-41.3-5e-3 -15.9-0.168-17.3 0.597-21.5 2.34-13 11.4-23.7 23.6-28.3-4.89 5.18-8.31 11.7-9.62 19-0.769 4.25-0.597 5.62-0.597 22.1 0 15.6 7.54 28.8 18.7 37.1 3.28 2.43 4.14 6.97 1.87 10.4z" fill="#ffebd2"/><path d="m539 235h-47.7c-21.6 0-39.2 17.6-39.2 39.2v7.43c0 4.1 3.32 7.43 7.43 7.43h111c4.1 0 7.43-3.32 7.43-7.43v-7.43c0-21.6-17.6-39.2-39.2-39.2z" fill="#ffe100"/><path d="m578 274v7.43c0 4.1-3.33 7.43-7.43 7.43h-55.7v-54.1h23.9c21.6 0 39.2 17.6 39.2 39.2z" fill="#ecb402"/><path d="m619 281h-207c-4.1 0-7.43 3.33-7.43 7.43 0 13.5 10.9 24.4 24.4 24.4h173c13.5 0 24.4-10.9 24.4-24.4 0-4.1-3.33-7.43-7.43-7.43z" fill="#ecb402"/><path d="m626 289c0 13.5-10.9 24.4-24.4 24.4h-86.5v-31.8h103c4.1 0 7.43 3.33 7.43 7.43z" fill="#bb8901"/></g></g></g></g></g></g><g transform="matrix(.224 0 0 .224 .292 70.3)"><g transform="translate(-24.9 -9.52)" style="shape-inside:url(#rect3247-4);white-space:pre" aria-label="تولید خانگی"><path d="m263 57.2q0.845 0 1.63 0.437 0.787 0.408 1.22 1.22 0.466 0.787 0.466 1.63 0 0.874-0.437 1.66-0.437 0.787-1.22 1.22-0.787 0.437-1.66 0.437-0.845 0-1.63-0.437-0.816-0.437-1.22-1.22-0.437-0.787-0.437-1.66 0-0.845 0.437-1.63 0.437-0.816 1.22-1.22 0.787-0.437 1.63-0.437zm0.0291 6.62v-6.62h4.49q3.06-0.262 4.25-2.8 1.22-2.56 0.495-5.25-0.874-3.12-0.262-4.25 0.612-1.14 1.89-0.67 1.31 0.466 2.48 2.16 1.19 1.66 1.49 4.2 0.321 3.26-0.729 6.18-1.05 2.89-3.53 4.81-2.39 1.87-6.24 2.24-4.23 0-4.34 0zm6.79-30.6q3.26 0.321 4.78 1.17 1.54 0.845 0.699 1.72-0.816 0.874-4.66 1.31-2.01 0.262-5.01 0.583-2.97 0.321-5.36 0.321-0.233 0-0.495 0-1.31 0.0291-2.1-0.262-0.816-0.291-0.816-1.63 0.146-1.66 1.75-2.39 1.57-0.729 3.73-0.845 2.16-0.146 3.93-0.117 0.554 0.0291 0.991 0.0291 0.175 0 0.379 0 1.08-0.0291 1.02 0-0.0583 0 1.17 0.117z"/><path d="m254 59.1q2.04-0.146 2.54-1.6 0.495-1.46-0.495-2.83-0.962-1.4-3.32-1.37-1.19 0.0874-1.98 0.962-0.787 0.874-0.641 2.27 0.204 1.08 1.34 1.84 1.17 0.729 2.56 0.729zm9.38-1.87q0.816 0 1.6 0.408 0.787 0.437 1.22 1.25 0.466 0.787 0.466 1.63 0 0.874-0.437 1.66-0.437 0.787-1.22 1.22-0.787 0.437-1.63 0.437h-3.5q-1.75 5.07-6.76 7.87-1.6 0.874-3.47 1.31t-3.67 0.204q-0.729-0.0874-1.69-0.495-0.933-0.408-1.14-1.22-0.0291-0.67 0.67-1.22 0.699-0.525 1.57-0.903 0.874-0.35 1.4-0.495 4.28-1.34 6.29-5.1-2.8-0.0291-5.13-1.6-2.33-1.57-3.12-4.49-0.554-2.21 0.233-4.46 0.787-2.27 2.71-3.88 1.92-1.63 4.81-1.89 4.31-0.233 6.64 2.51 1.89 2.42 1.92 5.45 0.0291 0.874 0 1.78z"/><path d="m227 63.8q-0.845 0-1.63-0.437-0.787-0.437-1.22-1.22t-0.437-1.66q0-0.845 0.437-1.63 0.437-0.816 1.22-1.22 0.787-0.437 1.63-0.437 2.54 0 4.23-0.554 1.72-0.554 2.77-1.49 1.84-1.63 1.98-4.2v-0.321l-0.233-15.5q0.0874-3.12 1.57-3.96 1.49-0.845 2.97 0.0583 1.52 0.933 1.63 3.09l0.117 12.2q0.117 5.36-1.17 9.24-1.28 3.85-4.6 5.95-3.29 2.07-9.24 2.1z"/><path d="m227 57.2q0.845 0 1.63 0.437 0.787 0.408 1.22 1.22 0.466 0.787 0.466 1.63 0 0.874-0.437 1.66-0.437 0.787-1.22 1.22-0.787 0.437-1.66 0.437-1.02 0.0291-2.01 0-3.09 0.0583-6.09-1.11-3-1.19-4.6-3.93-0.903 2.27-2.83 3.64-1.78 1.25-3.91 1.37-0.146 0.0291-0.321 0.0291h-0.0874q-0.787-0.0291-1.54-0.437-0.787-0.437-1.22-1.22t-0.437-1.66q0-0.845 0.437-1.63 0.437-0.816 1.25-1.25 0.758-0.379 1.52-0.408h0.175q2.04 0 3.06-0.612t1.46-1.52q0.408-0.845 0.466-1.89 0.0874-1.05 0.0291-2.24-0.0874-1.66 0.117-3.38 0.291-1.66 1.43-2.27 1.17-0.612 2.3 0.262t1.43 3.64q0.0583 0.583 0.175 1.14 0.117 0.787 0.204 1.52 0.291 1.37 1.25 2.59 0.991 1.19 2.83 1.98 1.87 0.787 4.93 0.787zm-12.1 11.6q3.26 0.321 4.78 1.17 1.54 0.845 0.699 1.72-0.816 0.874-4.66 1.31-2.01 0.262-5.01 0.583-2.97 0.321-5.36 0.321-0.233 0-0.495 0-1.31 0.0291-2.1-0.262-0.816-0.291-0.816-1.63 0.146-1.66 1.75-2.39 1.57-0.729 3.73-0.874 2.16-0.117 3.93-0.0874 0.554 0.0291 0.991 0.0291 0.175 0 0.379 0 1.08-0.0291 1.02-0.0291-0.0583 0.0291 1.17 0.146z"/><path d="m207 57.2v6.59q-2.91 0-4.63-1.4-1.72-1.4-2.77-3.93-1.87 3.03-4.75 4.34-2.89 1.28-6.32 1.4-3.7 0.0583-5.27-1.19-1.57-1.25-1.52-2.8 0.0583-1.54 1.31-2.36 0.962-0.408 3.53-0.291 1.52 0.0583 3.18-0.0291 3.85-0.233 5.25-1.49 1.4-1.28 0.991-3.35-0.408-2.1-1.98-4.72-1.28-2.1-1.72-3.7-0.291-1.75 0.699-2.86 0.991-1.14 2.51-1.05 1.54 0.0583 2.94 1.84 0.991 1.57 2.24 4.69 0.379 0.903 0.787 1.87 0.495 1.22 0.874 2.62 0.495 2.16 1.46 3.85 0.962 1.69 3.21 1.98z"/><path d="m138 63.8q-0.845 0-1.63-0.437-0.787-0.437-1.22-1.22t-0.437-1.63q0-0.874 0.466-1.66 0.437-0.787 1.22-1.22 0.787-0.437 1.6-0.437h1.63q2.65 0 5.65-0.233 3-0.262 5.89-1.37t5.16-3.61q-1.17-0.641-2.36-1.46-2.07-1.52-4.28-2.27-2.1-0.554-2.97-0.0291-0.845 0.525-1.25 1.49-1.52 2.68-2.86 2.01-1.31-0.699-1.46-2.94-0.0291-2.01 1.6-3.85 1.66-1.84 4.9-2.27t7.99 1.72q0.729 0.35 1.4 0.699 2.1 1.14 4.2 1.75 2.13 0.583 5.8 0.379 1.02-0.117 2.07-0.408 1.08-0.291 2.13-0.408 1.08-0.117 2.1 0.35 1.19 0.612 1.72 1.95 0.554 1.31-0.321 2.71-1.25 1.72-2.91 2.19-1.66 0.437-3.47 0.466-2.3-0.0291-4.31 0.816-2.65 1.37-5.33 2.91-2.04 1.14-4.05 2.21-3.23 1.75-6.59 2.8-3.35 1.02-6.97 1.02zm8.01-36q2.16-0.583 3.96 0.35 1.81 0.903 2.33 2.68 0.437 2.16-0.816 3.58-1.22 1.43-2.74 1.81-3 0.583-4.75-1.11-1.72-1.72-1.43-3.96 0.321-2.24 3.44-3.35z"/><path d="m138 57.2v6.62h-1.25q-3.88 0-5.97-1.4-2.1-1.43-3-3.82-0.903-2.39-1.08-5.39-0.146-3-0.0874-6.24 0-0.233 0-0.466l0.117-12.2q0.146-2.16 1.63-3.06 1.52-0.903 2.97-0.0583 1.49 0.845 1.57 3.96l-0.233 17.3q0.146 2.8 1.52 3.82 1.4 1.02 3.35 0.962zm-0.117 0q0.816 0 1.6 0.437 0.816 0.408 1.25 1.22 0.437 0.787 0.437 1.63 0 0.874-0.437 1.66-0.408 0.787-1.22 1.22-0.787 0.437-1.63 0.437-0.874 0-1.66-0.437-0.787-0.437-1.22-1.22t-0.437-1.66q0-0.845 0.437-1.63 0.466-0.816 1.25-1.22 0.787-0.437 1.63-0.437z"/><path d="m101 27.7q0.437-0.117 3.61-1.89 3.18-1.81 7.34-4.2 4.17-2.42 7.58-4.4 3.32-1.92 4.23-2.45 2.97-1.43 3.73-0.874 0.787 0.554-0.0583 2.16-0.845 1.57-2.74 3.21-2.68 2.27-8.04 6.09-5.36 3.79-10.8 6.79-5.45 3-8.48 2.86-2.8-0.495-1.22-3.03 1.25-1.95 4.9-4.25zm6.7-10.7q0.321-0.175 1.02-0.554 1.25-0.699 3.12-1.66 1.89-0.991 3.67-1.81 1.81-0.845 2.8-1.05 1.02-0.233 0.525 0.641-0.466 0.845-3.15 3.23-1.57 1.4-4.84 3.56-3.26 2.13-6.44 3.61-3.15 1.46-4.4 0.816-0.437-0.291-0.729-0.816-0.262-0.554-0.204-1.17 0.146-0.583 0.816-0.991 0.67-0.408 1.37-0.67 0.379-0.146 0.641-0.291zm2.07 18.1q2.16-0.583 3.96 0.35 1.81 0.903 2.33 2.68 0.437 2.19-0.816 3.61-1.25 1.43-2.77 1.78-2.97 0.583-4.72-1.11-1.72-1.69-1.43-3.93 0.321-2.27 3.44-3.38zm1.84 28.7q-2.16 0.0291-4.55-0.903-2.39-0.962-3.96-3.15-4.02 4.11-10.2 4.05v-6.62q0.204 0 0.495 0 0.321 0 0.525-0.0291 2.65-0.117 4.11-1.02 1.46-0.933 1.72-2.39 0.291-2.01-0.699-4.93-0.991-2.94-2.19-5.86-0.583-1.43-1.08-2.62-0.321-2.07 0.787-3.21 1.14-1.17 3.18-0.583 1.63 0.583 2.27 2.33 0.525 1.34 1.08 2.77 1.25 3.18 2.39 6.27 1.4 3.96 3.21 6.59 1.81 2.59 4.23 2.68h0.262q3.06-0.262 4.25-2.8 1.22-2.56 0.466-5.25-0.845-3.12-0.262-4.25 0.612-1.14 1.89-0.67 1.31 0.466 2.51 2.16 1.19 1.66 1.49 4.17 0.291 3.26-0.729 6.18-1.02 2.91-3.53 4.87-2.42 1.87-6.32 2.19zm-18.7-6.62q0.845 0 1.63 0.437 0.787 0.408 1.22 1.22 0.466 0.787 0.466 1.63 0 0.874-0.437 1.66t-1.22 1.22q-0.787 0.437-1.66 0.437-0.845 0-1.63-0.437-0.787-0.437-1.22-1.22t-0.437-1.66q0-0.845 0.437-1.63 0.437-0.816 1.22-1.22 0.787-0.437 1.63-0.437z"/><path d="m92.9 57.2q0.816 0 1.57 0.408 0.787 0.437 1.22 1.25 0.466 0.787 0.466 1.63 0 0.874-0.437 1.66t-1.22 1.22q-0.758 0.408-1.6 0.437h-1.46q2.33 4.02 1.22 6.88-1.11 2.86-4.25 4.6-3.15 1.75-6.97 2.45-4.37 0.874-8.8 0.175-4.75-0.758-8.48-3.56-3.73-2.8-5.33-7.64-1.25-3.76-0.262-7.9 0.991-3.47 3.5-6 2.54-2.56 5.6-4.05 3.09-1.52 5.77-1.87 2.94-0.321 3.76 0.554 0.845 0.845-1.95 2.45-0.758 0.408-1.49 0.787-2.16 1.05-4.11 2.39-1.92 1.31-3.47 3.64-2.07 3.41-1.6 6.62 0.466 3.21 2.8 5.48 3.23 3 7.78 3.47 4.58 0.495 8.57-1.14 3.56-1.52 4.25-3.26 0.729-1.75-1.08-2.97-1.81-1.19-5.86-1.11-0.787 0.0583-1.66 0.204-1.49 0.291-2.8 0.146-1.87-0.379-2.33-2.04t1.22-3.23q1.72-1.57 6.29-1.66z"/></g><g transform="matrix(1.77 0 0 1.77 25.8 -206)"><g transform="matrix(3.47 0 0 3.47 570 -597)"><g transform="matrix(.286 0 0 .286 -68.5 203)"><g transform="matrix(.545 0 0 .545 -434 43)"><path d="m384 231h-158c-16 0-29-13-29-29v-158c-8.9e-4 -16 13-29 29-29h158c16 0 29 13 29 29v158c0 16-13 29-29 29z" fill="#6bbef6" style="fill:#80c904;stroke-width:.895"/></g><rect transform="matrix(.894 0 0 .939 -247 -87.2)" x="-81.3" y="153" width="118" height="30.5" ry="11.7" style="fill:url(#linearGradient1827);filter:url(#filter2476-2-0);paint-order:markers fill stroke;stroke-linecap:round;stroke-linejoin:round;stroke-miterlimit:10;stroke-width:1.4"/></g></g><g transform="matrix(.15 0 0 .15 29.4 189)"><rect x="383" y="73.6" width="58.7" height="102" style="fill:#f05540"/><rect x="361" y="21.3" width="103" height="55.5" style="fill:#f3705a"/><path d="m44.8 276v236h418v-236l-209-209c-81.1 82.1-127 128-209 209z" style="fill:#ffd15c"/><path d="m464 276-209-209c-41.6 40.5-73.6 72.5-106 105l-105 105v48l209-209 209 209v6.4-54.4h1.07z" style="fill:#f7b64c"/><path d="m217 512h-126v-124c0-35.2 28.8-62.9 62.9-62.9 35.2 0 62.9 28.8 62.9 62.9z" style="fill:#415a6b"/><rect x="254" y="325" width="164" height="144" style="fill:#344a5e"/><rect x="271" y="342" width="56.5" height="110" style="fill:#8ad7f8"/><rect x="345" y="342" width="56.5" height="110" style="fill:#8ad7f8"/><path d="m502 233-223-223c-12.8-12.8-35.2-12.8-48 0l-222 223c-12.8 12.8-12.8 35.2 0 48s35.2 12.8 48 0l198-198 198 198c12.8 12.8 35.2 12.8 48 0 12.8-13.9 12.8-35.2 0-48z" style="fill:#f3705a"/></g></g></g><g transform="matrix(.224 0 0 .224 70.9 70.2)"><g transform="translate(-4.76 -14.8)" style="shape-inside:url(#rect3247-3);white-space:pre" aria-label="بازارچه محلی"><path d="m263 57.2q0.845 0 1.63 0.437 0.787 0.408 1.22 1.22 0.466 0.787 0.466 1.63 0 0.874-0.437 1.66t-1.22 1.22q-0.787 0.437-1.66 0.437-0.845 0-1.63-0.437-0.816-0.437-1.22-1.22-0.437-0.787-0.437-1.66 0-0.845 0.437-1.63 0.437-0.816 1.22-1.22 0.787-0.437 1.63-0.437zm0.0291 6.62v-6.62h4.49q3.06-0.262 4.25-2.8 1.22-2.56 0.495-5.25-0.874-3.12-0.262-4.25 0.612-1.14 1.89-0.67 1.31 0.466 2.48 2.16 1.19 1.66 1.49 4.2 0.321 3.26-0.729 6.18-1.05 2.89-3.53 4.81-2.39 1.87-6.24 2.24-4.23 0-4.34 0zm5.48 3.06q2.16-0.583 3.96 0.35 1.81 0.933 2.33 2.68 0.437 2.19-0.816 3.61-1.22 1.43-2.74 1.81-3 0.554-4.75-1.14-1.72-1.69-1.43-3.93 0.321-2.24 3.44-3.38z"/><path d="m263 57.2v6.62h-1.25q-3.88 0-5.97-1.4-2.1-1.43-3-3.82t-1.08-5.39q-0.146-3-0.0874-6.24 0-0.233 0-0.466l0.117-12.2q0.146-2.16 1.63-3.06 1.52-0.903 2.97-0.0583 1.49 0.845 1.57 3.96l-0.233 17.3q0.146 2.8 1.52 3.82 1.4 1.02 3.35 0.962zm-0.117 0q0.816 0 1.6 0.437 0.816 0.408 1.25 1.22 0.437 0.787 0.437 1.63 0 0.874-0.437 1.66-0.408 0.787-1.22 1.22-0.787 0.437-1.63 0.437-0.874 0-1.66-0.437-0.787-0.437-1.22-1.22t-0.437-1.66q0-0.845 0.437-1.63 0.466-0.816 1.25-1.22 0.787-0.437 1.63-0.437z"/><path d="m248 49.9q0.612 3.79 0.117 7.64-0.466 3.85-2.36 7.08-1.87 3.23-5.48 5.19-1.6 0.845-3.47 1.28-1.84 0.466-3.67 0.204-0.729-0.0874-1.66-0.495-0.962-0.408-1.14-1.19-0.0583-0.699 0.641-1.25 0.699-0.525 1.6-0.903 0.874-0.35 1.37-0.466 2.91-0.874 4.72-2.94 1.84-2.04 2.83-4.87 0.787-2.56 0.437-5.25-0.0874-1.05-0.233-2.1-0.175-1.25-0.262-2.54-0.0874-0.729-0.0292-1.57 0.0874-0.845 0.495-1.49 0.408-0.554 1.05-0.787 0.641-0.233 1.31-0.291 0.67-0.0583 1.34 0.0583 0.699 0.117 1.19 0.641 0.525 0.612 0.758 1.63 0.233 1.02 0.35 1.95 0.0291 0.233 0.0874 0.466zm-5.68-18q2.16-0.583 3.96 0.35 1.81 0.903 2.33 2.68 0.437 2.16-0.816 3.58-1.22 1.43-2.74 1.81-3 0.583-4.75-1.11-1.72-1.72-1.43-3.96 0.321-2.24 3.44-3.35z"/><path d="m234 34.1q0.117 4.63-0.146 11.9-0.262 7.26-0.874 11.7-0.554 3.44-1.6 5.16-1.02 1.72-1.95 0.874-0.903-0.874-1.14-5.19l-0.466-22.5q0.0874-3.32 1.54-4.43 1.49-1.11 2.97-0.408 1.49 0.699 1.66 2.8z"/><path d="m222 49.9q0.612 3.79 0.117 7.64-0.466 3.85-2.36 7.08-1.87 3.23-5.48 5.19-1.6 0.845-3.47 1.28-1.84 0.466-3.67 0.204-0.729-0.0874-1.66-0.495-0.962-0.408-1.14-1.19-0.0583-0.699 0.641-1.25 0.699-0.525 1.6-0.903 0.874-0.35 1.37-0.466 2.91-0.874 4.72-2.94 1.84-2.04 2.83-4.87 0.787-2.56 0.437-5.25-0.0874-1.05-0.233-2.1-0.175-1.25-0.262-2.54-0.0874-0.729-0.0291-1.57 0.0874-0.845 0.495-1.49 0.408-0.554 1.05-0.787t1.31-0.291q0.67-0.0583 1.34 0.0583 0.699 0.117 1.19 0.641 0.525 0.612 0.758 1.63 0.233 1.02 0.35 1.95 0.0291 0.233 0.0874 0.466z"/><path d="m172 63.8q-0.845 0-1.63-0.437-0.787-0.437-1.22-1.22-0.437-0.787-0.437-1.63 0-0.874 0.466-1.66 0.437-0.787 1.22-1.22 0.787-0.437 1.6-0.437h1.63q2.65 0 5.65-0.233 3-0.262 5.89-1.37t5.16-3.61q-1.17-0.641-2.36-1.46-2.07-1.52-4.28-2.27-2.1-0.554-2.97-0.0291-0.845 0.525-1.25 1.49-1.52 2.68-2.86 2.01-1.31-0.699-1.46-2.94-0.0291-2.01 1.6-3.85 1.66-1.84 4.9-2.27t7.99 1.72q0.729 0.35 1.4 0.699 2.1 1.14 4.2 1.75 2.13 0.583 5.8 0.379 1.02-0.117 2.07-0.408 1.08-0.291 2.13-0.408 1.08-0.117 2.1 0.35 1.19 0.612 1.72 1.95 0.554 1.31-0.321 2.71-1.25 1.72-2.91 2.19-1.66 0.437-3.47 0.466-2.3-0.0291-4.31 0.816-2.65 1.37-5.33 2.91-2.04 1.14-4.05 2.21-3.23 1.75-6.59 2.8-3.35 1.02-6.97 1.02zm9.3 10.8q-0.117-3.12 1.49-5.57 1.6-2.42 4.11-3.61 2.54-1.19 5.19-0.612 2.86 0.787 4.11 3.06 1.28 2.3-0.117 5.1-1.66 2.77-4.28 3.7-2.62 0.962-4.95 0.729-2.33-0.204-3.15-0.845-1.57-1.34-0.641-1.87 0.933-0.525 3.06-0.816 2.27-0.321 4.28-1.14 2.19-1.11 2.04-2.45-0.146-1.31-1.87-1.87-2.16-0.554-4.05 0.321-1.89 0.903-3.26 2.54t-1.95 3.32z"/><path d="m172 57.2q0.816 0 1.6 0.408 0.787 0.437 1.22 1.25 0.466 0.787 0.466 1.63 0 0.874-0.437 1.66-0.437 0.787-1.22 1.22-0.787 0.437-1.63 0.437h-1.08q-3.58 0.0291-6.47-1.05-2.86-1.11-4.6-3.7-1.72-2.68-1.89-5.45-0.175-2.8 0.262-5.83 0.35-2.27-0.874-2.94-1.22-0.67-2.83-0.117-1.95 0.699-3.09 2.3-1.72 2.45-1.52 4.69 0.233 2.21 1.87 3.56 1.66 1.31 4.31 1.02 1.25-0.0291 1.66 1.43 0.437 1.46-0.437 3-0.874 1.52-3.47 1.66-3.29 0.0583-6.41-2.24-2.07-1.75-2.77-4.87-0.699-3.15 0.0874-6.67 0.787-3.56 3.12-6.5 2.36-2.94 6.35-4.28 2.33-0.729 4.4-0.379 2.07 0.35 3.64 1.49 1.92 1.46 2.59 3.5 0.699 2.01 0.466 4.31-0.0583 0.583-0.117 1.19-0.321 2.33-0.175 4.46 0.146 2.1 1.66 3.44t5.3 1.37z"/><path d="m127 52.1q-1.92-0.262-3.26 0.466-1.31 0.729-1.69 1.63-0.379 0.991 0.0874 2.33 0.495 1.31 1.6 2.24 1.37 1.08 3.06 1.08 1.72-0.0291 2.94-1.34 1.34-1.57 0.845-3.64-0.466-2.07-3.58-2.77zm-14.6 5.07h0.466q1.43-0.0874 2.1-1.08 0.699-0.991 1.17-2.45 0.262-0.67 0.554-1.34 0.437-1.37 1.25-2.56 1.4-2.04 3.58-3.23 2.19-1.19 4.9-1.22 3.64 0.0583 6 1.72 2.39 1.66 3.47 4.23 1.11 2.56 0.903 5.36-0.525 4.93-3.79 7.2-3.23 2.3-7.29 2.04-4.02-0.262-6.91-2.97-0.758-0.787-1.31-1.69-1.49 1.52-3.47 2.21-0.787 0.408-1.63 0.408-0.845 0-1.63-0.437-0.787-0.437-1.22-1.22-0.437-0.787-0.437-1.66 0-0.845 0.437-1.63 0.437-0.816 1.22-1.22 0.787-0.437 1.63-0.437z"/><path d="m75.8 63.8q-0.874 0-1.66-0.437-0.787-0.437-1.19-1.22-0.437-0.787-0.437-1.66 0-0.845 0.437-1.63 0.437-0.816 1.22-1.22 0.787-0.437 1.63-0.437h1.63q2.68 0.0291 5.68-0.233 3-0.262 5.86-1.37 2.89-1.11 5.16-3.61-1.17-0.641-2.36-1.46-2.07-1.49-4.28-2.27-2.1-0.554-2.97-0.0291-0.845 0.525-1.22 1.52-0.991 1.84-1.98 2.07-0.962 0.204-1.63-0.67-0.67-0.903-0.729-2.36-0.0291-2.01 1.6-3.82 1.66-1.84 4.9-2.27 3.23-0.466 7.99 1.72l1.4 0.67q2.13 1.17 4.23 1.78 2.13 0.583 5.77 0.35 1.02-0.0874 2.1-0.379 1.05-0.291 2.1-0.408 1.08-0.117 2.1 0.35 1.19 0.612 1.72 1.92 0.554 1.31-0.321 2.74-1.25 1.72-2.91 2.19-1.66 0.437-3.47 0.466-0.408 0-0.816 0.0291 0.291 1.14 1.28 2.07 1.02 0.933 2.97 1.02h3.41q0.787 0.0291 1.54 0.408 0.787 0.437 1.22 1.25 0.466 0.787 0.466 1.63 0 0.874-0.437 1.66t-1.22 1.22q-0.787 0.437-1.66 0.437h-3.73q-0.525 0-1.05 0-0.525-0.0291-0.903-0.0583-2.56-0.233-4.6-1.46-2.01-1.25-3.5-3.88 0-0.0291-0.146-0.35-0.146-0.321-0.379-0.816-0.117-0.233-0.233-0.495-0.933 0.525-1.87 1.02-2.01 1.17-4.05 2.24-3.23 1.75-6.59 2.77t-6.97 1.02z"/><path d="m75.6 57.2q0.204-0.0291 0.408-0.0291 0.845 0 1.63 0.437 0.787 0.408 1.22 1.22 0.466 0.787 0.466 1.63 0 0.874-0.437 1.66t-1.22 1.22q-0.787 0.437-1.66 0.437h-0.175q-1.19 0.0291-2.83-0.204-1.63-0.262-3.23-0.962-2.19-1.02-3.41-2.86-0.991 1.11-2.3 1.92-3.32 2.07-9.27 2.1h-0.0291q-0.845 0-1.63-0.437-0.787-0.437-1.22-1.22t-0.437-1.66q0-0.845 0.437-1.63 0.437-0.816 1.22-1.22 0.787-0.437 1.63-0.437 2.54 0 4.25-0.554 1.69-0.554 2.74-1.49 1.87-1.6 1.98-4.17v-0.35l-0.233-15.5q0.0874-3.12 1.57-3.96 1.49-0.845 3 0.0874 1.49 0.903 1.6 3.06l0.117 11.6v0.787q0.0291 0.699 0.0291 1.37v0.233q0 0.554 0 0.991 0.0291 0.408 0.146 1.02 0.321 1.87 0.903 3.44 0.612 1.54 1.81 2.48 1.11 0.903 2.91 0.962z"/><path d="m54.7 57.2q0.816 0 1.57 0.408 0.787 0.437 1.22 1.25 0.466 0.787 0.466 1.63 0 0.874-0.437 1.66t-1.22 1.22q-0.758 0.408-1.6 0.437h-1.46q2.33 4.02 1.22 6.88-1.11 2.86-4.25 4.6-3.15 1.75-6.97 2.45-4.37 0.874-8.8 0.175-4.75-0.758-8.48-3.56-3.73-2.8-5.33-7.64-1.25-3.76-0.262-7.9 0.991-3.47 3.5-6 2.54-2.56 5.6-4.05 3.09-1.52 5.77-1.87 2.94-0.321 3.76 0.554 0.845 0.845-1.95 2.45-0.758 0.408-1.49 0.787-2.16 1.05-4.11 2.39-1.92 1.31-3.47 3.64-2.07 3.41-1.6 6.62 0.466 3.21 2.8 5.48 3.23 3 7.78 3.47 4.58 0.495 8.57-1.14 3.56-1.52 4.25-3.26 0.729-1.75-1.08-2.97-1.81-1.19-5.86-1.11-0.787 0.0583-1.66 0.204-1.49 0.291-2.8 0.146-1.87-0.379-2.33-2.04t1.22-3.23q1.72-1.57 6.29-1.66z"/></g><g transform="matrix(1.76 0 0 1.76 24.9 -199)"><g transform="matrix(3.47 0 0 3.47 480 -600)"><g transform="matrix(.286 0 0 .286 -36.5 202)"></g><g transform="matrix(.286 0 0 .286 -42.6 203)"><g transform="matrix(.545 0 0 .545 -434 43)"><path d="m384 231h-158c-16 0-29-13-29-29v-158c-8.9e-4 -16 13-29 29-29h158c16 0 29 13 29 29v158c0 16-13 29-29 29z" fill="#6bbef6" style="fill:#80c904;stroke-width:.895"/></g><rect transform="matrix(.894 0 0 .939 -247 -87.2)" x="-81.3" y="153" width="118" height="30.5" ry="11.7" style="fill:url(#linearGradient1827);filter:url(#filter2476-2-9);paint-order:markers fill stroke;stroke-linecap:round;stroke-linejoin:round;stroke-miterlimit:10;stroke-width:1.4"/></g></g><g transform="matrix(.187 0 0 .187 19.2 176)"><path d="m24 448h400c-8.84 0-16-7.16-16-16v-80h-400v80c0 8.84 7.16 16 16 16z" fill="#d26e28"/><path d="m88 112h32v160h-32z" fill="#d26e28"/><path d="m104 112h16v160h-16z" fill="#a55023"/><path d="m368 152c22.1 0 40-17.9 40-40h-80c0 22.1 17.9 40 40 40z" fill="#f5871e"/><path d="m408 112h-80v-8c0-22.1 17.9-40 40-40h80c-22.1 0-40 17.9-40 40z" fill="#fabe19"/><path d="m288 152c22.1 0 40-17.9 40-40h-80c0 22.1 17.9 40 40 40z" fill="#d7322d"/><path d="m328 112h-80v-8c0-22.1 17.9-40 40-40h80c-22.1 0-40 17.9-40 40z" fill="#f04b37"/><path d="m208 152c22.1 0 40-17.9 40-40h-80c0 22.1 17.9 40 40 40z" fill="#f5871e"/><path d="m248 112h-80v-8c0-22.1 17.9-40 40-40h80c-22.1 0-40 17.9-40 40z" fill="#fabe19"/><path d="m128 152c22.1 0 40-17.9 40-40h-80c0 22.1 17.9 40 40 40z" fill="#d7322d"/><path d="m168 112h-80v-8c0-22.1 17.9-40 40-40h80c-22.1 0-40 17.9-40 40z" fill="#f04b37"/><path d="m48 152c22.1 0 40-17.9 40-40h-80c0 22.1 17.9 40 40 40z" fill="#f5871e"/><path d="m88 112h-80v-8c0-22.1 17.9-40 40-40h82.7-2.67c-22.1 0-40 17.9-40 40z" fill="#fabe19"/><path d="m464 64h-16c-22.1 0-40 17.9-40 40v8h96v-8c0-22.1-17.9-40-40-40z" fill="#f5871e"/><path d="m472 112h16v160h-16z" fill="#d26e28"/><path d="m488 112v160l-80 80v80c0 8.84 7.16 16 16 16h64c8.84 0 16-7.16 16-16v-320z" fill="#a55023"/><path d="m8 352 80-80h400l-80 80z" fill="#faa037"/><path d="m449 284h-168l-56 56h171c4.24 0 8.31-1.69 11.3-4.69l44.5-44.5c2.52-2.52 0.735-6.83-2.83-6.83z" fill="#a55023"/><path d="m265 284h-166c-4.24 0-8.31 1.69-11.3 4.69l-44.5 44.5c-2.52 2.52-0.735 6.83 2.83 6.83h163z" fill="#a55023"/><path d="m92 320c6.63 0 12 5.37 12 12v-24c0-6.63-5.37-12-12-12s-12 5.37-12 12v24c0-6.63 5.37-12 12-12z" fill="#69a041"/><path d="m116 320c6.63 0 12 5.37 12 12v-24c0-6.63-5.37-12-12-12s-12 5.37-12 12v24c0-6.63 5.37-12 12-12z" fill="#4b8c41"/><path d="m140 320c6.63 0 12 5.37 12 12v-24c0-6.63-5.37-12-12-12s-12 5.37-12 12v24c0-6.63 5.37-12 12-12z" fill="#69a041"/><path d="m164 320c6.63 0 12 5.37 12 12v-24c0-6.63-5.37-12-12-12s-12 5.37-12 12v24c0-6.63 5.37-12 12-12z" fill="#4b8c41"/><path d="m188 320c6.63 0 12 5.37 12 12v-24c0-6.63-5.37-12-12-12s-12 5.37-12 12v24c0-6.63 5.37-12 12-12z" fill="#69a041"/><path d="m224 308c0-6.63-5.37-12-12-12s-12 5.37-12 12v32h9.33l14.7-14.7z" fill="#4b8c41"/><path d="m80 332c0-6.63-5.37-12-12-12s-12 5.37-12 12v8h24v-1.33z" fill="#afd763"/><path d="m92 320c-6.63 0-12 5.37-12 12v8h24v-8c0-6.63-5.37-12-12-12z" fill="#91b945"/><path d="m128 332c0-6.63-5.37-12-12-12s-12 5.37-12 12v8h24v-1.33z" fill="#afd763"/><path d="m140 320c-6.63 0-12 5.37-12 12v8h24v-8c0-6.63-5.37-12-12-12z" fill="#91b945"/><path d="m176 332c0-6.63-5.37-12-12-12s-12 5.37-12 12v8h24v-1.33z" fill="#afd763"/><path d="m188 320c-6.63 0-12 5.37-12 12v8h24v-8c0-6.63-5.37-12-12-12z" fill="#91b945"/><path d="m303 330c-0.902-0.601-1.06-1.88-0.312-2.66 3.19-3.31 7.31-5.7 12-6.76v-3.27c0-1.51 0.629-2.86 1.63-3.83-0.857-2.68-2.23-5.13-4-7.23-0.435 0.076-0.89 4e-3 -1.27-0.251l-7.03-4.68-7.03 4.68c-0.589 0.393-1.36 0.393-1.95 0l-7.03-4.68-7.03 4.68c-0.391 0.26-0.858 0.332-1.3 0.247-1.78 2.12-3.17 4.58-4.02 7.29 1.03 1.03 1.67 2.47 1.67 4.01v3.04c4.64 1.05 8.76 3.45 12 6.76 0.752 0.78 0.59 2.06-0.312 2.66-0.203 0.135-0.43 0.207-0.66 0.249 2.31 2.74 3.94 6.07 4.63 9.73h6.11c0.696-3.66 2.32-6.99 4.63-9.74-0.227-0.044-0.448-0.115-0.647-0.247z" fill="#d7322d"/><path d="m351 330c-0.901-0.601-1.06-1.88-0.312-2.66 3.19-3.31 7.31-5.7 12-6.76v-3.27c0-1.52 0.638-2.89 1.66-3.86-0.858-2.67-2.23-5.11-4-7.21-0.444 0.085-0.911 0.014-1.3-0.247l-7.03-4.68-7.03 4.68c-0.59 0.393-1.36 0.393-1.95 0l-7.03-4.68-7.03 4.68c-0.382 0.255-0.837 0.327-1.27 0.251-1.78 2.11-3.16 4.57-4.02 7.27 1.04 1.03 1.68 2.48 1.68 4.02v3.04c4.64 1.05 8.76 3.45 12 6.76 0.752 0.78 0.59 2.06-0.312 2.66-0.207 0.138-0.439 0.21-0.675 0.251 2.31 2.74 3.94 6.07 4.63 9.73h6.11c0.695-3.66 2.32-6.99 4.63-9.73-0.236-0.041-0.468-0.113-0.675-0.251z" fill="#d7322d"/><path d="m408 306c-0.452 0.094-0.931 0.024-1.33-0.242l-7.03-4.68-7.03 4.68c-0.59 0.393-1.36 0.393-1.95 0l-7.03-4.68-7.03 4.68c-0.374 0.249-0.817 0.322-1.24 0.255-1.78 2.12-3.17 4.59-4.02 7.29 1.02 1.03 1.66 2.46 1.66 4v3.04c4.64 1.05 8.76 3.45 12 6.76 0.752 0.78 0.59 2.06-0.312 2.66-0.199 0.133-0.42 0.204-0.646 0.247 2.31 2.74 3.94 6.07 4.63 9.74h7.46c1.57 0 3.12-0.234 4.6-0.677 7.28-3.4 12.3-10.8 12.3-19.3 0-5.24-1.89-10-5.03-13.7z" fill="#d7322d"/><path d="m287 330-7.03-4.68-7.03 4.68c-0.59 0.393-1.36 0.393-1.95 0l-7.03-4.68-7.03 4.68c-0.386 0.258-0.848 0.329-1.29 0.249-2.31 2.74-3.94 6.07-4.63 9.73h41.9c-0.696-3.66-2.32-6.99-4.63-9.73-0.44 0.081-0.901 9e-3 -1.29-0.248z" fill="#f04b37"/><path d="m335 330-7.03-4.68-7.03 4.68c-0.589 0.393-1.36 0.393-1.95 0l-7.03-4.68-7.03 4.68c-0.391 0.26-0.858 0.332-1.3 0.247-2.31 2.74-3.94 6.07-4.63 9.74h41.9c-0.695-3.66-2.32-6.99-4.63-9.73-0.437 0.074-0.892 2e-3 -1.27-0.252z" fill="#f04b37"/><path d="m383 330-7.03-4.68-7.03 4.68c-0.59 0.393-1.36 0.393-1.95 0l-7.03-4.68-7.03 4.68c-0.382 0.255-0.837 0.327-1.27 0.251-2.31 2.74-3.94 6.07-4.63 9.73h41.9c-0.696-3.66-2.32-6.99-4.63-9.74-0.445 0.085-0.912 0.014-1.3-0.246z" fill="#f04b37"/><path d="m257 330 7.03-4.68 7.03 4.68c0.59 0.393 1.36 0.393 1.95 0l7.03-4.68 7.03 4.68c0.386 0.258 0.848 0.329 1.29 0.249 0.231-0.042 0.457-0.114 0.66-0.249 0.901-0.601 1.06-1.88 0.312-2.66-3.19-3.31-7.31-5.7-12-6.76v-3.04c0-1.54-0.64-2.98-1.67-4.01-0.828-0.832-1.9-1.41-3.14-1.53-3.18-0.303-5.86 2.19-5.86 5.31v3.27c-4.64 1.05-8.76 3.45-12 6.76-0.752 0.78-0.59 2.06 0.312 2.66 0.203 0.135 0.43 0.207 0.66 0.249 0.441 0.081 0.902 9e-3 1.29-0.248z" fill="#69a041"/><path d="m315 321c-4.64 1.05-8.76 3.45-12 6.76-0.752 0.78-0.59 2.06 0.312 2.66 0.199 0.133 0.42 0.204 0.646 0.247 0.444 0.085 0.911 0.014 1.3-0.247l7.03-4.68 7.03 4.68c0.59 0.393 1.36 0.393 1.95 0l7.03-4.68 7.03 4.68c0.382 0.255 0.837 0.327 1.27 0.251 0.236-0.041 0.468-0.113 0.675-0.251 0.901-0.601 1.06-1.88 0.312-2.66-3.19-3.31-7.31-5.7-12-6.76v-3.04c0-1.55-0.645-2.99-1.68-4.02-0.827-0.825-1.9-1.4-3.13-1.51-1.64-0.156-3.15 0.437-4.22 1.47-1 0.97-1.63 2.33-1.63 3.83z" fill="#69a041"/><path d="m281 306 7.03-4.68 7.03 4.68c0.59 0.393 1.36 0.393 1.95 0l7.03-4.68 7.03 4.68c0.382 0.255 0.837 0.327 1.27 0.251 0.236-0.041 0.468-0.113 0.675-0.251 0.901-0.601 1.06-1.88 0.312-2.66-3.19-3.31-7.31-5.7-12-6.76v-3.04c0-2.78-2.04-5.27-4.81-5.54-3.18-0.303-5.86 2.19-5.86 5.31v3.27c-4.64 1.05-8.76 3.45-12 6.76-0.752 0.78-0.59 2.06 0.312 2.66 0.199 0.133 0.42 0.204 0.646 0.247 0.444 0.084 0.911 0.013 1.3-0.247z" fill="#4b8c41"/><path d="m329 306 7.03-4.68 7.03 4.68c0.589 0.393 1.36 0.393 1.95 0l7.03-4.68 7.03 4.68c0.391 0.26 0.858 0.332 1.3 0.247 0.226-0.043 0.447-0.114 0.646-0.247 0.902-0.601 1.06-1.88 0.312-2.66-3.19-3.31-7.31-5.7-12-6.76v-3.04c0-2.78-2.04-5.27-4.81-5.54-3.18-0.303-5.86 2.19-5.86 5.31v3.27c-4.64 1.05-8.76 3.45-12 6.76-0.752 0.78-0.59 2.06 0.312 2.66 0.207 0.138 0.439 0.21 0.675 0.251 0.435 0.075 0.89 3e-3 1.27-0.251z" fill="#4b8c41"/><path d="m377 306 7.03-4.68 7.03 4.68c0.59 0.393 1.36 0.393 1.95 0l7.03-4.68 7.03 4.68c0.399 0.266 0.878 0.337 1.33 0.242 0.216-0.045 0.426-0.116 0.617-0.242 0.901-0.601 1.06-1.88 0.312-2.66-3.19-3.31-7.31-5.7-12-6.76v-3.04c0-2.78-2.04-5.27-4.81-5.54-3.18-0.303-5.86 2.19-5.86 5.31v3.27c-4.64 1.05-8.76 3.45-12 6.76-0.752 0.78-0.59 2.06 0.312 2.66 0.216 0.144 0.458 0.217 0.704 0.255 0.427 0.066 0.87-6e-3 1.24-0.255z" fill="#4b8c41"/><path d="m363 321c-4.64 1.05-8.76 3.45-12 6.76-0.752 0.78-0.59 2.06 0.312 2.66 0.207 0.138 0.439 0.21 0.675 0.251 0.435 0.076 0.89 4e-3 1.27-0.251l7.03-4.68 7.03 4.68c0.589 0.393 1.36 0.393 1.95 0l7.03-4.68 7.03 4.68c0.391 0.26 0.858 0.332 1.3 0.247 0.226-0.043 0.447-0.114 0.646-0.247 0.902-0.601 1.06-1.88 0.312-2.66-3.19-3.31-7.31-5.7-12-6.76v-3.04c0-1.54-0.635-2.97-1.66-4-0.83-0.838-1.91-1.42-3.15-1.54-1.63-0.155-3.13 0.428-4.2 1.45-1.02 0.971-1.66 2.34-1.66 3.86v3.27z" fill="#69a041"/></g></g></g><g transform="matrix(.188 0 0 .188 38.9 .681)"></g></svg>
