<svg width="512" height="512" version="1.1" viewBox="0 0 135 135" xmlns="http://www.w3.org/2000/svg" xmlns:xlink="http://www.w3.org/1999/xlink"><defs><linearGradient id="linearGradient15750"><stop stop-color="#9a4121" offset="0"/><stop stop-color="#7f3a19" stop-opacity=".953" offset="1"/></linearGradient><linearGradient id="linearGradient15770-7" x1="132" x2="198" y1="219" y2="218" gradientTransform="matrix(2.18 0 0 2.18 -34.7 -19)" gradientUnits="userSpaceOnUse" xlink:href="#linearGradient15768"/><linearGradient id="linearGradient15768"><stop stop-color="#112b00" offset="0"/><stop stop-color="#250" offset="1"/></linearGradient><linearGradient id="linearGradient67865-6" x1="188" x2="212" y1="205" y2="205" gradientTransform="matrix(2.18 0 0 2.18 -34.7 -19)" gradientUnits="userSpaceOnUse" xlink:href="#linearGradient15768"/><linearGradient id="linearGradient9943-1" x1="569" x2="624" y1="363" y2="363" gradientTransform="matrix(2.96,0,0,2.96,-888,-400)" gradientUnits="userSpaceOnUse" xlink:href="#linearGradient15750"/><linearGradient id="linearGradient4285-1" x1="569" x2="644" y1="365" y2="365" gradientTransform="matrix(2.96,0,0,2.96,-888,-400)" gradientUnits="userSpaceOnUse"><stop stop-color="#338000" offset="0"/><stop stop-color="#80c904" offset="1"/></linearGradient><linearGradient id="linearGradient4245-8" x1="582" x2="619" y1="289" y2="289" gradientTransform="matrix(2.96,0,0,2.96,-888,-400)" gradientUnits="userSpaceOnUse" xlink:href="#linearGradient7932"/><linearGradient id="linearGradient7932"><stop stop-color="#f0a02a" offset="0"/><stop stop-color="#fcb431" offset="1"/></linearGradient><linearGradient id="linearGradient4261-7" x1="600" x2="650" y1="329" y2="329" gradientTransform="matrix(2.96,0,0,2.96,-888,-400)" gradientUnits="userSpaceOnUse" xlink:href="#linearGradient15750"/><linearGradient id="linearGradient4293-6" x1="586" x2="608" y1="452" y2="452" gradientTransform="matrix(2.96,0,0,2.96,-888,-400)" gradientUnits="userSpaceOnUse" xlink:href="#linearGradient7932"/><linearGradient id="linearGradient4301-1" x1="646" x2="663" y1="419" y2="419" gradientTransform="matrix(2.96,0,0,2.96,-888,-400)" gradientUnits="userSpaceOnUse" xlink:href="#linearGradient7932"/><linearGradient id="linearGradient4269-8" x1="556" x2="600" y1="329" y2="329" gradientTransform="matrix(2.96,0,0,2.96,-888,-400)" gradientUnits="userSpaceOnUse" xlink:href="#linearGradient15750"/><linearGradient id="linearGradient4253-8" x1="520" x2="621" y1="279" y2="279" gradientTransform="matrix(2.96,0,0,2.96,-888,-400)" gradientUnits="userSpaceOnUse" xlink:href="#linearGradient15750"/></defs><g transform="matrix(.188 0 0 .188 38.9 .681)"></g><g transform="matrix(.125 0 0 .125 -.0757 5)"><path d="m663 137v774h54.3v-774h-54.3" style="fill:#a55f30"/><path d="m703 467s-8.49 73.9-4.81 87.7c3.68 13.9 3.5 12.1 3.5 12.1s6.94-73 1.31-99.8" style="fill:#8e5026"/><path d="m679 229s1.17 182 4.69 220c3.51 37.5 3.51 70.3 3.51 70.3s3.49-59.5 0.713-97.1c-2.77-37.6-8.92-193-8.92-193" style="fill:#8e5026"/><path d="m700 258s-14.5 44.8-9.28 77.5c5.18 32.7 12.8 76.2 11.9 89-0.881 12.9-1.76 21.7-1.76 21.7s5.56-0.537 5.86-30c0.291-29.5-16.7-88-13.5-102 3.22-14.2 6.74-56.1 6.74-56.1" style="fill:#8e5026"/><path d="m378 402s44.4 67.1 62.9 66.2c18.4-0.876 77.3-60.6 99-45.1s-74.7 142-128 116c-53.4-26.4-33.7-137-33.7-137" style="fill:#ad263d"/><path d="m380 531s31.5 113 30.2 175c-1.24 57.7-15 192-51 202-10.1 2.78-24.5 4.71-28.4-3.21-9.96-20.2 26.9-144 22.1-193-4.27-43.7-61.4-158-40-172 21.4-14.5 67-8.41 67-8.41" style="fill:#614cd4"/><path d="m274 533s-11.1 20.6-13.5 34.2c-5.61 32.6 3.47 136 10.4 198 3.45 30.9-11.2 129-2.33 137 14.7 13.2 23.8 7.96 33.2 6.18 21.3-4.01 31.1-275 31.1-302 0-27.6-2.44-67.7-2.44-67.7l-56.5-5.22" style="fill:#614cd4"/><path d="m288 911c-5.45 0.0177-11.6-1.87-19.2-8.71-8.84-7.93 5.79-106 2.33-137-4.31-38.5-9.46-93.3-11.4-137 9.77 0.128 49.3 1.31 53.2 18.7 2.15 9.75-37.3 5.65-38.5 14.9-0.722 5.58 18.2 12.1 24.8 27.6 4.34 10.2-3.04 29-2.38 37.2 2.56 32.1 9.1 71.6 2.28 101-5.22 22.2-9.47 64.7-11.2 83.5" style="fill:#311e69"/><path d="m330 607c14.1-12.4 45.5 14.1 48.6 40.5 0.652 5.53 2.4 25 2.55 27.1 2.28 31.8 3.22 78.6-4.68 127-8.71 52.8-24.5 95.2-30 109-6.63 0.367-12.7-0.862-15-5.57-9.96-20.2 26.9-144 22.1-193-2.1-21.4-16.9-59.9-29-95.1 0.917-3.96 2.59-7.39 5.36-9.82" style="fill:#311e69"/><path d="m260 663c-0.792-0.41-3.39-100-3.03-142 0.194-22.5-7.43-43.8-8.49-50-3.05-18-18-49.7 21.4-71.3 29.8-16.3 87.2-12.9 106-2.15 34.4 19.4 47.9 239 43.8 245-6.29 10.2-21 19.9-53.6 23.2-3.55 0.353-17 1.46-20.1 1.64-26.9 1.61-57.7 1.05-86.3-5.13" style="fill:#250"/><path d="m376 398c-3.72-2.11-8.9-3.92-15-5.36 5.33 8 11.3 20.8 13.4 39.8 4.19 37.2-8.89 183-11.4 207-0.837 7.86 4.14 17.7 12.4 26.1 26.3-4.09 38.8-12.8 44.5-22.1 4.11-6.66-9.43-226-43.8-245" style="fill:#250"/><path d="m15.8 946h717v-336h-717z" style="fill:#964f20"/><path d="m312 393c-13.5 8.75-3.65 22 9.97 21.7 8.91-0.266 20.3-17.6 7.78-22.2-12.5-4.57-17.7 0.509-17.7 0.509" style="fill:#ff6161"/><path d="m121 869h745l-105-259h-745l105 259" style="fill:#a55f30"/><path d="m793 101s15.2 92.7 191 170h-841s-113-49.5-126-170h777" style="fill:#ff6161"/><path d="m793 101s15.2 92.7 191 170h-105s-140-49.5-153-170h67.1" style="fill:#ffefd9"/><path d="m641 101s15.6 98.8 131 170h-79.6s-98.2-42.8-107-170h55.6" style="fill:#ffefd9"/><path d="m480 101s8.89 117 147 170h-79.6s-109-35.6-113-170h45.2" style="fill:#ffefd9"/><path d="m335 101s-14.8 99.9 134 170h-79.6s-112-33.9-115-170h61.1" style="fill:#ffefd9"/><path d="m179 101s-1.09 98.8 114 170h-79.6s-87-42.8-95.9-170h61.1" style="fill:#ffefd9"/><path d="m983 271v38.3c0 11.5-26.9 20.9-60.1 20.9-22.5 0-42.2-4.31-52.5-10.7-4.44-2.76-10.7-2.76-15.2 0-10.3 6.39-29.9 10.7-52.5 10.7s-42.2-4.31-52.5-10.7c-4.44-2.76-10.7-2.76-15.2 0-10.3 6.39-29.9 10.7-52.5 10.7s-42.2-4.31-52.5-10.7c-4.44-2.76-10.7-2.76-15.2 0-10.3 6.39-29.9 10.7-52.5 10.7s-42.2-4.31-52.5-10.7c-4.44-2.76-10.7-2.76-15.2 0-10.3 6.39-29.9 10.7-52.5 10.7-22.5 0-42.2-4.31-52.5-10.7-4.44-2.76-10.7-2.76-15.2 0-10.3 6.39-29.9 10.7-52.5 10.7-22.5 0-42.2-4.31-52.5-10.7-4.44-2.76-10.7-2.76-15.2 0-10.3 6.39-29.9 10.7-52.5 10.7-33.2 0-60.1-9.34-60.1-20.9v-38.3h841" style="fill:#ad263d"/><path d="m241 326c5.54-1.61 10.2-3.58 13.8-5.78 4.44-2.76 10.7-2.76 15.2 0 4.16 2.59 9.88 4.82 16.7 6.59 16.9-16.7 6.4-55 6.4-55h-79.6s5.35 37.2 27.6 54.2" style="fill:#e5c8aa"/><path d="m422 329c6.41 0.82 13.3 1.26 20.5 1.26 5.22 0 10.3-0.24 15.1-0.679 23-13.9 10.8-58.5 10.8-58.5h-79.6s6.23 43.3 33.2 57.9" style="fill:#e5c8aa"/><path d="m581 329c14.7-1.61 27-5.13 34.4-9.73 3.1-1.94 7.11-2.47 10.8-1.71 8.42-18.5 0.722-46.7 0.722-46.7h-79.6s6.32 43.9 33.8 58.2" style="fill:#e5c8aa"/><path d="m721 326c6.05-1.68 11.2-3.77 15-6.14 4.44-2.76 10.7-2.76 15.2 0 3.9 2.42 9.15 4.55 15.4 6.25 16.4-16.8 6.05-54.7 6.05-54.7h-79.6s5.43 37.7 28 54.6" style="fill:#e5c8aa"/><path d="m928 330c31.1-0.806 55.6-9.81 55.6-20.8v-38.3h-105s9.13 45.9 49.2 59.1" style="fill:#e5c8aa"/><path d="m321 336-7.13-5.32c-1.37-0.551-2.91-0.551-4.26 0.044-2.65 1.16-7.11 3.76-11 9.15-0.881 1.23-1.2 2.76-0.926 4.24 0.44 2.35 5.58 10.2 5.33 11.5-0.308 1.5 13.3-3.49 20.1-10.7 2.64-2.81 1.5-7.44-2.08-8.86" style="fill:#ffbf80"/><path d="m360 341s0.0881-5.27-7.08-8.84c-7.16-3.56-19.4-2.86-37.4 9.7-18 12.5-33.1 31-29.2 40.1 1.95 4.55 3.15 8.3 10.1 7.96 4.41-0.212 63.6-49 63.6-49" style="fill:#ffbf80"/><path d="m289 382c0.908-14.6 27.4-40.7 56.6-47.6 17.5-4.16 15 10.3 15 10.3s-0.449 12.7-23.2 29.3c-26.4 19.2-49.2 20.3-48.4 8.03" style="fill:#e8a35f"/><path d="m339 363s5.8-6.32 4.7-11.3c-1.69-7.69-20.6 1.33-20.6 1.33s-9.82 4.64-12.7 12.6c-2.93 8-5.33 15.5 4.74 16.3 10.1 0.735 23.9-18.9 23.9-18.9" style="fill:#1a1a1a"/><path d="m315 369-5.06 28c-0.185 3.92 15.5 14.3 21.9 9.53 1.87-1.39 1.51-5.16 0-9.3l-9.3-22.6-7.45-5.7" style="fill:#ff6161"/><path d="m322 360-6.65 14.9c-1.8 5.09 0.766 10.7 5.81 12.6 4.03 1.54 6.71 1.82 12.1 1.72 4.47-0.0704 7.18-4.09 7.77-9.88 0.775-7.51-0.652-14.6-1.63-18.4-2.23-8.61-12.3-10.4-17.4-1" style="fill:#ff6161"/><path d="m321 367c-0.115-1-0.0881-2.01 0-3.03 0.194-1.91 0-4.81-2.94-3.69-4.34 1.61-4.82 11.9-0.167 13.1 3.46 0.933 3.36-3.87 3.08-6.42" style="fill:#ff6161"/><path d="m330 372s3.56 1.29 8.79 1.17c0 0-0.211 3.39-2.37 4.34-2.16 0.961-5.62-1.37-6.43-5.51" style="fill:#fff"/><path d="m336 369s2.5-0.693 4.18 0.537c0.766 0.565 1.13 1.4 1.73 1.91 0.713 0.579 1.94-0.381 2.03 0.353 0.264 2.11-5.22 2.93-8.35 0.778 0 0-3.39 1.78-6.7-0.311-3.31-2.09-2.35-3.08-0.247-2.66 2.1 0.424 2.6-2.45 7.35-0.608" style="fill:#1a1a1a"/><path d="m469 539h202v80.6h-184l-18.3-80.6" style="fill:#e59351"/><path d="m671 620v-80.6l54.9 120v80.6l-54.9-120" style="fill:#ffb675"/><path d="m504 617-3.48 2.52c-0.141-0.212-0.273-0.424-0.414-0.651 0 0 2.22-1.92 3.9-1.87" style="fill:#311e69"/><path d="m469 604v-64.6l54.9 120v80.6l-54.9-136" style="fill:#ffb675"/><path d="m524 659h202v80.6h-202v-80.6" style="fill:#e59351"/><path d="m245 539h202v80.6h-184l-18.3-80.6" style="fill:#e59351"/><path d="m447 620v-80.6l54.9 120v80.6l-54.9-120" style="fill:#ffb675"/><path d="m245 604v-64.6l54.9 120v80.6l-54.9-136" style="fill:#ffb675"/><path d="m300 739h202v-80.6h-202z" style="fill:#e59351"/><path d="m26.3 539h202v80.6h-184l-18.3-80.6" style="fill:#e59351"/><path d="m228 620v-80.6l54.9 120v80.6l-54.9-120" style="fill:#ffb675"/><path d="m26.3 604v-64.6l54.9 120v80.6l-54.9-136" style="fill:#ffb675"/><path d="m81.2 739h202v-80.6h-202z" style="fill:#e59351"/><path d="m536 673h202v80.6h-184l-18.3-80.6" style="fill:#e59351"/><path d="m738 753v-80.6l54.9 120v80.6l-54.9-120" style="fill:#ffb675"/><path d="m313 673h202v80.6h-184l-18.3-80.6" style="fill:#e59351"/><path d="m515 753v-80.6l54.9 120v80.6l-54.9-120" style="fill:#ffb675"/><path d="m93.9 673h202v80.6h-184l-18.3-80.6" style="fill:#e59351"/><path d="m296 753v-80.6l54.9 120v80.6l-54.9-120" style="fill:#ffb675"/><path d="m123 724c-9e-4 -0.0176 0-0.0264 0-0.0529v0.0529m0-0.24c-9e-4 -0.0177 0-0.0177 0-0.0264v0.0264m0-0.254c0-0.0177 0-0.0177-9e-4 -0.0177 9e-4 0 9e-4 0 9e-4 0.0177m0-0.24c-9e-4 0-9e-4 -0.0177 0-0.0264v0.0264" style="fill:#80551b"/><path d="m253 807c3.07-7.86 4.71-16.6 4.71-25.8 0 9.19-1.64 17.9-4.71 25.8m4.18-35c-0.317-2.73-0.784-5.4-1.4-8.02 0.616 2.62 1.09 5.29 1.4 8.02m-1.41-8.04v-0.142 0.142m-0.0881-0.184v-0.0704 0.0704" style="fill:#78842f"/><path d="m133 786c-8e-4 -0.0177 0-0.0177 0-0.0264v0.0264" style="fill:#8e5322"/><path d="m257 422c-23.4 24.2 67.8 123 150 108 84.2-15.6 147-86.9 123-107-12.1-10-98.1 55.2-139 55-30-0.156-112-79-134-56.2" style="fill:#ff6161"/><path d="m15.8 101v845h64.9v-845h-64.9" style="fill:#a55f30"/><path d="m65.7 461s-8.49 80.7-4.81 95.8c3.68 15.1 3.5 13.2 3.5 13.2s6.94-79.7 1.31-109" style="fill:#8e5026"/><path d="m42 201s1.17 199 4.69 240c3.51 41 3.51 76.7 3.51 76.7s3.49-65 0.713-106c-2.77-41-8.92-211-8.92-211" style="fill:#8e5026"/><path d="m62.8 233s-14.5 48.9-9.28 84.6c5.18 35.7 12.8 83.2 11.9 97.2-0.88 14.1-1.76 23.7-1.76 23.7s5.56-0.594 5.86-32.8c0.291-32.2-16.7-96.1-13.5-112 3.22-15.5 6.74-61.2 6.74-61.2" style="fill:#8e5026"/><g transform="matrix(.0104 -.00521 -.00521 -.0104 651 534)" style="clip-rule:evenodd;fill-rule:evenodd;image-rendering:optimizeQuality;shape-rendering:geometricPrecision"><path d="m-3053 7920c55 0 142-1.48 247-3.7-300-5.68-752-16-1053-9.87 331 4.2 668 13.6 806 13.6z" fill="#60b7ff" style="stroke-width:24.7"/><path d="m-1753 7906c-301-6.17-753 4.2-1053 9.87 105 2.22 192 3.7 247 3.7 138 0 475-9.38 806-13.6z" fill="#60b7ff" style="stroke-width:24.7"/><path d="m-1519 18583-2087 2.42v781l2087-2.42z" fill="#c4e2ff" style="stroke-width:24.7"/><path d="m-3606 19331h2087v-361h-2087z" fill="#b3dafe" style="stroke-width:24.7"/><path d="m-479 10923c-47 619-21.6 1243 108 1851 102 477 131 1036 131 1522h-4636c0-486 26.6-1045 128-1522 130-608 155-1232 108-1851-55.5-729-274-1434-267-2162 3.95-452 243-947 754-1014 272-36 1319 0 1594 0 275 0 1322-36 1594 0 511 67.7 750 562 754 1014 6.37 728-212 1432-267 2162z" fill="#fcd4d4" style="stroke-width:24.7"/><path d="m-212 8762c-4.05-452-243-947-754-1014-131-17.3-442-18-760-14 108 2.3 196 6.59 252 14 511 67.5 750 562 754 1014 6.34 728-212 1432-267 2162-47 618-21.6 1243 108 1851 102 477 130 1036 130 1522h508c0-486-28.7-1045-130-1522-130-608-155-1232-108-1851 55.6-729 274-1434 267-2162z" fill="#faa" style="stroke-width:24.7"/><path d="m-1361 19331h-2397c-72.2 0-131 58.5-131 131v777c0 72.2 58.5 131 131 131h2397c72.2 0 131-58.5 131-131v-777c0-72.2-58.5-131-131-131z" fill="#f66" style="stroke-width:24.7"/><path d="m-240 16812-1278 1800h-2086l-1268-1800-3.87-5.51v-68.4h4636z" fill="#fcd4d4" style="stroke-width:24.7"/><path d="m-240 16812h-509l-1276 1800h507z" fill="#faa" style="stroke-width:24.7"/><path d="m-240 14225h-4636v2582l4636 5.56z" fill="#0593fc" style="stroke-width:24.7"/><path d="m-749 16812h509v-2587h-509z" fill="#0182fc" style="stroke-width:24.7"/><g stroke="null"><g transform="matrix(24.7 0 0 -24.7 -8879 20370)"><path d="m286 257c-23.4-2.44-41.4-14.9-40-27.8 1.34-12.9 21.4-21.4 44.9-19 23.4 2.44 51.2 17.7 50 28.9-1.16 11.2-31.5 20.4-54.9 17.9z" fill="#5eac24"/><path d="m290 210c-23.4-2.44-43.5 6.06-44.9 19l25.9-4.78c14.4-2.64 29.2-1.18 42.7 4.21l26.2 10.4c1.16-11.2-26.6-26.4-50-28.9z" fill="#4e901e"/><path d="m322 240-74.8-7.79c-1.68-0.175-2.9-1.68-2.73-3.36s1.68-2.9 3.36-2.73l74.8 7.79c1.68 0.175 2.9 1.68 2.73 3.36-0.163 1.57-1.38 2.9-3.36 2.73z" fill="#47821c"/><path d="m295 232c-19.7-12.9-41.5-14.6-48.6-3.73s3.08 30.2 22.8 43.1c19.7 12.9 50.8 18.6 57 9.25 6.16-9.4-11.5-35.7-31.2-48.6z" fill="#6dc82a"/><path d="m269 271c-19.7-12.9-29.9-32.2-22.8-43.1l18.4 23.6c7.91 10.1 18.9 17.4 31.3 20.7l30 8.01c-6.16 9.4-37.3 3.68-57-9.25z" fill="#5eac24"/><path d="m313 268-20.6-13.5 9.13-1.74c1.66-0.316 2.75-1.92 2.43-3.58-0.316-1.66-1.92-2.75-3.58-2.43l-15.4 2.92-11-7.23 9.13-1.74c1.66-0.316 2.75-1.92 2.43-3.58-0.316-1.66-1.92-2.75-3.58-2.43l-15.4 2.92-16.6-10.9c-1.41-0.927-3.31-0.532-4.24 0.881-0.927 1.41-0.532 3.31 0.881 4.24l16.6 10.9 3.44 15.2c0.775 3.02 3.43 2.36 3.66 2.31 1.65-0.372 2.68-2.01 2.31-3.66l-2.05-9.07 11 7.23 3.44 15.2c0.776 2.99 3.43 2.36 3.66 2.31 1.65-0.372 2.68-2.01 2.31-3.66l-2.05-9.07 20.6 13.5c2.08 1.16 3.65 0.0148 4.24-0.881 0.927-1.41 0.533-3.31-0.88-4.24z" fill="#47821c"/><path d="m223 257c23.4-2.44 41.4-14.9 40-27.8-1.34-12.9-21.4-21.4-44.9-19-23.4 2.44-51.2 17.7-50 28.9 1.16 11.2 31.5 20.4 54.9 17.9z" fill="#91dc5a"/><path d="m219 210c23.4-2.44 43.5 6.06 44.9 19l-29.1-6.38c-13.8-3.03-28.3-1.4-41.1 4.63l-24.7 11.6c-1.16-11.2 26.6-26.4 50-28.9z" fill="#6dc82a"/><path d="m214 232c19.7-12.9 41.5-14.6 48.6-3.73s-3.08 30.2-22.8 43.1c-19.7 12.9-50.8 18.6-57 9.25s11.5-35.7 31.2-48.6z" fill="#b6e892"/><path d="m240 271c19.7-12.9 29.9-32.2 22.8-43.1l-13.1 18.1c-9.72 13.5-23.8 23.1-39.9 27.3l-26.8 6.91c6.16 9.4 37.3 3.68 57-9.25z" fill="#91dc5a"/><g transform="matrix(.336 0 0 .336 -463 -552)" fill="#47821c"><path d="m1926 2352c-0.521-5.01 3.12-9.49 8.12-10l223-23.2c5.01-0.521 9.49 3.12 10 8.12s-3.12 9.49-8.12 10l-223 23.2c-7.25 0.46-9.52-3.44-10-8.12z"/><path d="m2164 2323c-2.76-4.21-8.41-5.39-12.6-2.62l-49.3 32.3-45.7-8.7c-4.94-0.943-9.72 2.3-10.7 7.25-0.942 4.94 2.3 9.72 7.25 10.7l27.2 5.18-32.9 21.5-45.7-8.7c-4.94-0.942-9.72 2.3-10.7 7.25-0.942 4.94 2.3 9.72 7.25 10.7l27.2 5.18-61.3 40.2c-4.21 2.76-5.38 8.41-2.62 12.6 1.75 2.67 7.61 5.18 12.6 2.62l61.3-40.2-6.1 27c-1.11 4.91 1.97 9.79 6.88 10.9 0.676 0.152 8.59 1.86 10.9-6.88l10.2-45.4 32.9-21.5-6.1 27c-1.11 4.91 1.97 9.79 6.88 10.9 0.676 0.152 9.26 1.24 10.9-6.88l10.2-45.4 49.3-32.3c4.21-2.76 5.39-8.41 2.63-12.6z"/></g><path d="m317 161s3.57-29.4-25-24.2c-2.65 0.482-5.35-0.498-7.14-2.52-6.15-6.94-21.9-19.3-39.1 10.4-0.81 0.22 37.8 28.6 37.8 28.6z" fill="#c70024"/><g transform="matrix(.336 0 0 .336 -463 -552)" fill="#d80027"><path d="m1952 2124s-10.6-87.6 74.6-72.1c7.9 1.44 15.9-1.48 21.3-7.5 18.3-20.7 65.3-57.4 116 30.8 2.41 0.654-113 85.1-113 85.1z"/><path d="m2235 2123s53.8-26.7 113-5.54c9.34 3.34 13.5 14.2 8.87 22.9-12.5 23.3-33.6 71.1-32.3 126 1.93 77.7-101 155-204 70.5 1.92-2.78 114-214 114-214z"/></g><path d="m297 157c-0.658 7.01-0.563 17.2 3.99 24.7 7.6 12.4 16.8 48.2-16.2 62.5-10.8 1.41-23.4-1.76-35.9-12.1 0.644-0.933 38.4-71.9 38.4-71.9s3.76-1.87 9.74-3.23z" fill="#c70024"/><path d="m222 160s-18.1-8.98-38-1.86c-3.14 1.12-4.55 4.76-2.98 7.7 4.18 7.83 11.3 23.9 10.8 42.4-0.649 26.1 33.8 52.2 68.5 23.7-0.643-0.934-38.4-71.9-38.4-71.9z" fill="#ff0c38"/><path d="m212 157c0.658 7.01 0.563 17.2-3.99 24.7-7.6 12.4-16.8 48.2 16.2 62.5 10.8 1.41 23.4-1.76 35.9-12.1-0.644-0.933-38.4-71.9-38.4-71.9s-3.76-1.87-9.74-3.23z" fill="#d80027"/><path d="m288 148s-21.5-27.3-49.2 18.6c0.211 0.156 19.1 15.2 19.1 15.2z" fill="#ff0c38"/><path d="m239 167c1.18 0.931 19.1 15.2 19.1 15.2l30.1-33.8s-0.988-1.25-2.81-2.77h-1e-3s-23.6-5.79-46.3 21.5z" fill="#d80027"/><path d="m221 148s21.5-27.3 49.2 18.6c-0.211 0.156-19.1 15.2-19.1 15.2z" fill="#ff3f62"/><path d="m223 151 27.6 31s18.9-15.1 19.1-15.2c-1.77-2.94-3.52-5.58-5.23-7.95-2.77-2.7-16.7-14.6-41.5-7.87z" fill="#ff0c38"/><path d="m292 187c-5.39-9.52-2.88-24.2-2.88-24.2l-6.56-7.05-28.3 26.7-28.3-26.7-6.56 7.05s2.51 14.7-2.88 24.2c-6.18 10.9-10.4 45.9 37.8 45.9s44-35 37.8-45.9z" fill="#ff3f62"/><path d="m265 173-10.3 9.68-28.3-26.7-6.56 7.05s2.51 14.7-2.88 24.2c-6.18 10.9-10.4 45.9 37.8 45.9 11.9 0 20.6-2.14 26.9-5.52-2.28-25.1-8.76-42.5-16.6-54.6z" fill="#ff0c38"/><path d="m293 143c-23.9 6.08-36.3 25.5-42.1 39l7.67 10.4c7.84-2.91 14.3-6.81 19.5-11.2 2.99-2.49 4.46-6.37 3.93-10.2l-0.982-7.11 4.7-3.4e-4c4.44-3.4e-4 8.5-2.59 10.3-6.64 1.31-2.91 2.28-5.61 3-7.91 1.17-3.75-2.23-7.37-6.04-6.4z" fill="#ff728b"/><path d="m260 166c-3.99 5.48-6.92 11.1-9.01 15.9l7.67 10.4c4.94-1.83 9.32-4.07 13.2-6.56-3.48-8.11-7.57-14.6-11.9-19.8z" fill="#ff3f62"/><path d="m264 196-7.34-14.8-1.66 1.57-28.3-26.7-6.56 7.05s2.51 14.7-2.88 24.2c-6.18 10.9-10.4 45.9 37.8 45.9 4.49 0 8.53-0.305 12.2-0.866 1.33-17.9-3.15-36.4-3.15-36.4z" fill="#ff728b"/><path d="m245 232c-9.51-9.28-14.5-25.3-10.3-43 2.09-8.7 1.94-17.3 0.724-24.9l-9.25-8.72-6.56 7.05s2.51 14.7-2.88 24.2c-5.74 10.1-9.8 41 28.2 45.4z" fill="#ff3f62"/><path d="m211 149c0.717 2.31 1.69 5 3 7.91 1.82 4.06 5.88 6.64 10.3 6.64l4.7 3.3e-4 -0.982 7.11c-0.532 3.86 0.937 7.73 3.93 10.2 7.74 6.46 18.1 11.9 31.8 14.6 0 0-8.69-43.3-46.7-52.9-3.81-0.967-7.2 2.65-6.04 6.4z" fill="#ffa5b5"/></g><circle transform="scale(1,-1)" cx="-2461" cy="-10977" r="210" fill="#fff" stroke-opacity="null" stroke-width="24.7"/><circle transform="scale(1,-1)" cx="-1548" cy="-1e4" r="160" fill="#fff" stroke-opacity="null" stroke-width="24.7"/></g></g><path d="m523 440s13.4 6.32 24.8 0.226c10.1-5.41 15.7-14 12.1-20.5-2.95-5.41-15.9 5.48-21.6 4.13-5.7-1.37-14.2-5.85-17.2 0.82-3.03 6.67-4.59 14.2 1.88 15.3" style="fill:#ff6161"/><path d="m520 424s9.47-6.94 14.8-8.13c5.32-1.19 8.35-8.24 9.93-4.88 1.58 3.36-2.12 8.93-5.14 10-3.01 1.09-1.64 9.77-6.46 11.1-4.82 1.3-17.8-4.45-13.1-8.09" style="fill:#ff6161"/><g transform="matrix(.0101 .004 .004 -.0101 178 737)" style="clip-rule:evenodd;fill-rule:evenodd;image-rendering:optimizeQuality;shape-rendering:geometricPrecision"><path d="m-3053 7920c55 0 142-1.48 247-3.7-300-5.68-752-16-1053-9.87 331 4.2 668 13.6 806 13.6z" fill="#60b7ff" style="stroke-width:24.7"/><path d="m-1753 7906c-301-6.17-753 4.2-1053 9.87 105 2.22 192 3.7 247 3.7 138 0 475-9.38 806-13.6z" fill="#60b7ff" style="stroke-width:24.7"/><path d="m-1519 18583-2087 2.42v781l2087-2.42z" fill="#c4e2ff" style="stroke-width:24.7"/><path d="m-3606 19331h2087v-361h-2087z" fill="#b3dafe" style="stroke-width:24.7"/><path d="m-479 10923c-47 619-21.6 1243 108 1851 102 477 131 1036 131 1522h-4636c0-486 26.6-1045 128-1522 130-608 155-1232 108-1851-55.5-729-274-1434-267-2162 3.95-452 243-947 754-1014 272-36 1319 0 1594 0 275 0 1322-36 1594 0 511 67.7 750 562 754 1014 6.37 728-212 1432-267 2162z" fill="#fcd4d4" style="stroke-width:24.7"/><path d="m-212 8762c-4.05-452-243-947-754-1014-131-17.3-442-18-760-14 108 2.3 196 6.59 252 14 511 67.5 750 562 754 1014 6.34 728-212 1432-267 2162-47 618-21.6 1243 108 1851 102 477 130 1036 130 1522h508c0-486-28.7-1045-130-1522-130-608-155-1232-108-1851 55.6-729 274-1434 267-2162z" fill="#faa" style="stroke-width:24.7"/><path d="m-1361 19331h-2397c-72.2 0-131 58.5-131 131v777c0 72.2 58.5 131 131 131h2397c72.2 0 131-58.5 131-131v-777c0-72.2-58.5-131-131-131z" fill="#f66" style="stroke-width:24.7"/><path d="m-240 16812-1278 1800h-2086l-1268-1800-3.87-5.51v-68.4h4636z" fill="#fcd4d4" style="stroke-width:24.7"/><path d="m-240 16812h-509l-1276 1800h507z" fill="#faa" style="stroke-width:24.7"/><path d="m-240 14225h-4636v2582l4636 5.56z" fill="#0593fc" style="stroke-width:24.7"/><path d="m-749 16812h509v-2587h-509z" fill="#0182fc" style="stroke-width:24.7"/><g stroke="null"><g transform="matrix(24.7 0 0 -24.7 -8879 20370)"><path d="m286 257c-23.4-2.44-41.4-14.9-40-27.8 1.34-12.9 21.4-21.4 44.9-19 23.4 2.44 51.2 17.7 50 28.9-1.16 11.2-31.5 20.4-54.9 17.9z" fill="#5eac24"/><path d="m290 210c-23.4-2.44-43.5 6.06-44.9 19l25.9-4.78c14.4-2.64 29.2-1.18 42.7 4.21l26.2 10.4c1.16-11.2-26.6-26.4-50-28.9z" fill="#4e901e"/><path d="m322 240-74.8-7.79c-1.68-0.175-2.9-1.68-2.73-3.36s1.68-2.9 3.36-2.73l74.8 7.79c1.68 0.175 2.9 1.68 2.73 3.36-0.163 1.57-1.38 2.9-3.36 2.73z" fill="#47821c"/><path d="m295 232c-19.7-12.9-41.5-14.6-48.6-3.73s3.08 30.2 22.8 43.1c19.7 12.9 50.8 18.6 57 9.25 6.16-9.4-11.5-35.7-31.2-48.6z" fill="#6dc82a"/><path d="m269 271c-19.7-12.9-29.9-32.2-22.8-43.1l18.4 23.6c7.91 10.1 18.9 17.4 31.3 20.7l30 8.01c-6.16 9.4-37.3 3.68-57-9.25z" fill="#5eac24"/><path d="m313 268-20.6-13.5 9.13-1.74c1.66-0.316 2.75-1.92 2.43-3.58-0.316-1.66-1.92-2.75-3.58-2.43l-15.4 2.92-11-7.23 9.13-1.74c1.66-0.316 2.75-1.92 2.43-3.58-0.316-1.66-1.92-2.75-3.58-2.43l-15.4 2.92-16.6-10.9c-1.41-0.927-3.31-0.532-4.24 0.881-0.927 1.41-0.532 3.31 0.881 4.24l16.6 10.9 3.44 15.2c0.775 3.02 3.43 2.36 3.66 2.31 1.65-0.372 2.68-2.01 2.31-3.66l-2.05-9.07 11 7.23 3.44 15.2c0.776 2.99 3.43 2.36 3.66 2.31 1.65-0.372 2.68-2.01 2.31-3.66l-2.05-9.07 20.6 13.5c2.08 1.16 3.65 0.0148 4.24-0.881 0.927-1.41 0.533-3.31-0.88-4.24z" fill="#47821c"/><path d="m223 257c23.4-2.44 41.4-14.9 40-27.8-1.34-12.9-21.4-21.4-44.9-19-23.4 2.44-51.2 17.7-50 28.9 1.16 11.2 31.5 20.4 54.9 17.9z" fill="#91dc5a"/><path d="m219 210c23.4-2.44 43.5 6.06 44.9 19l-29.1-6.38c-13.8-3.03-28.3-1.4-41.1 4.63l-24.7 11.6c-1.16-11.2 26.6-26.4 50-28.9z" fill="#6dc82a"/><path d="m214 232c19.7-12.9 41.5-14.6 48.6-3.73s-3.08 30.2-22.8 43.1c-19.7 12.9-50.8 18.6-57 9.25s11.5-35.7 31.2-48.6z" fill="#b6e892"/><path d="m240 271c19.7-12.9 29.9-32.2 22.8-43.1l-13.1 18.1c-9.72 13.5-23.8 23.1-39.9 27.3l-26.8 6.91c6.16 9.4 37.3 3.68 57-9.25z" fill="#91dc5a"/><g transform="matrix(.336 0 0 .336 -463 -552)" fill="#47821c"><path d="m1926 2352c-0.521-5.01 3.12-9.49 8.12-10l223-23.2c5.01-0.521 9.49 3.12 10 8.12s-3.12 9.49-8.12 10l-223 23.2c-7.25 0.46-9.52-3.44-10-8.12z"/><path d="m2164 2323c-2.76-4.21-8.41-5.39-12.6-2.62l-49.3 32.3-45.7-8.7c-4.94-0.943-9.72 2.3-10.7 7.25-0.942 4.94 2.3 9.72 7.25 10.7l27.2 5.18-32.9 21.5-45.7-8.7c-4.94-0.942-9.72 2.3-10.7 7.25-0.942 4.94 2.3 9.72 7.25 10.7l27.2 5.18-61.3 40.2c-4.21 2.76-5.38 8.41-2.62 12.6 1.75 2.67 7.61 5.18 12.6 2.62l61.3-40.2-6.1 27c-1.11 4.91 1.97 9.79 6.88 10.9 0.676 0.152 8.59 1.86 10.9-6.88l10.2-45.4 32.9-21.5-6.1 27c-1.11 4.91 1.97 9.79 6.88 10.9 0.676 0.152 9.26 1.24 10.9-6.88l10.2-45.4 49.3-32.3c4.21-2.76 5.39-8.41 2.63-12.6z"/></g><path d="m317 161s3.57-29.4-25-24.2c-2.65 0.482-5.35-0.498-7.14-2.52-6.15-6.94-21.9-19.3-39.1 10.4-0.81 0.22 37.8 28.6 37.8 28.6z" fill="#c70024"/><g transform="matrix(.336 0 0 .336 -463 -552)" fill="#d80027"><path d="m1952 2124s-10.6-87.6 74.6-72.1c7.9 1.44 15.9-1.48 21.3-7.5 18.3-20.7 65.3-57.4 116 30.8 2.41 0.654-113 85.1-113 85.1z"/><path d="m2235 2123s53.8-26.7 113-5.54c9.34 3.34 13.5 14.2 8.87 22.9-12.5 23.3-33.6 71.1-32.3 126 1.93 77.7-101 155-204 70.5 1.92-2.78 114-214 114-214z"/></g><path d="m297 157c-0.658 7.01-0.563 17.2 3.99 24.7 7.6 12.4 16.8 48.2-16.2 62.5-10.8 1.41-23.4-1.76-35.9-12.1 0.644-0.933 38.4-71.9 38.4-71.9s3.76-1.87 9.74-3.23z" fill="#c70024"/><path d="m222 160s-18.1-8.98-38-1.86c-3.14 1.12-4.55 4.76-2.98 7.7 4.18 7.83 11.3 23.9 10.8 42.4-0.649 26.1 33.8 52.2 68.5 23.7-0.643-0.934-38.4-71.9-38.4-71.9z" fill="#ff0c38"/><path d="m212 157c0.658 7.01 0.563 17.2-3.99 24.7-7.6 12.4-16.8 48.2 16.2 62.5 10.8 1.41 23.4-1.76 35.9-12.1-0.644-0.933-38.4-71.9-38.4-71.9s-3.76-1.87-9.74-3.23z" fill="#d80027"/><path d="m288 148s-21.5-27.3-49.2 18.6c0.211 0.156 19.1 15.2 19.1 15.2z" fill="#ff0c38"/><path d="m239 167c1.18 0.931 19.1 15.2 19.1 15.2l30.1-33.8s-0.988-1.25-2.81-2.77h-1e-3s-23.6-5.79-46.3 21.5z" fill="#d80027"/><path d="m221 148s21.5-27.3 49.2 18.6c-0.211 0.156-19.1 15.2-19.1 15.2z" fill="#ff3f62"/><path d="m223 151 27.6 31s18.9-15.1 19.1-15.2c-1.77-2.94-3.52-5.58-5.23-7.95-2.77-2.7-16.7-14.6-41.5-7.87z" fill="#ff0c38"/><path d="m292 187c-5.39-9.52-2.88-24.2-2.88-24.2l-6.56-7.05-28.3 26.7-28.3-26.7-6.56 7.05s2.51 14.7-2.88 24.2c-6.18 10.9-10.4 45.9 37.8 45.9s44-35 37.8-45.9z" fill="#ff3f62"/><path d="m265 173-10.3 9.68-28.3-26.7-6.56 7.05s2.51 14.7-2.88 24.2c-6.18 10.9-10.4 45.9 37.8 45.9 11.9 0 20.6-2.14 26.9-5.52-2.28-25.1-8.76-42.5-16.6-54.6z" fill="#ff0c38"/><path d="m293 143c-23.9 6.08-36.3 25.5-42.1 39l7.67 10.4c7.84-2.91 14.3-6.81 19.5-11.2 2.99-2.49 4.46-6.37 3.93-10.2l-0.982-7.11 4.7-3.4e-4c4.44-3.4e-4 8.5-2.59 10.3-6.64 1.31-2.91 2.28-5.61 3-7.91 1.17-3.75-2.23-7.37-6.04-6.4z" fill="#ff728b"/><path d="m260 166c-3.99 5.48-6.92 11.1-9.01 15.9l7.67 10.4c4.94-1.83 9.32-4.07 13.2-6.56-3.48-8.11-7.57-14.6-11.9-19.8z" fill="#ff3f62"/><path d="m264 196-7.34-14.8-1.66 1.57-28.3-26.7-6.56 7.05s2.51 14.7-2.88 24.2c-6.18 10.9-10.4 45.9 37.8 45.9 4.49 0 8.53-0.305 12.2-0.866 1.33-17.9-3.15-36.4-3.15-36.4z" fill="#ff728b"/><path d="m245 232c-9.51-9.28-14.5-25.3-10.3-43 2.09-8.7 1.94-17.3 0.724-24.9l-9.25-8.72-6.56 7.05s2.51 14.7-2.88 24.2c-5.74 10.1-9.8 41 28.2 45.4z" fill="#ff3f62"/><path d="m211 149c0.717 2.31 1.69 5 3 7.91 1.82 4.06 5.88 6.64 10.3 6.64l4.7 3.3e-4 -0.982 7.11c-0.532 3.86 0.937 7.73 3.93 10.2 7.74 6.46 18.1 11.9 31.8 14.6 0 0-8.69-43.3-46.7-52.9-3.81-0.967-7.2 2.65-6.04 6.4z" fill="#ffa5b5"/></g><circle transform="scale(1,-1)" cx="-2461" cy="-10977" r="210" fill="#fff" stroke-opacity="null" stroke-width="24.7"/><circle transform="scale(1,-1)" cx="-1548" cy="-1e4" r="160" fill="#fff" stroke-opacity="null" stroke-width="24.7"/></g></g><g transform="matrix(.0109 -.000652 -.000652 -.0109 197 738)" style="clip-rule:evenodd;fill-rule:evenodd;image-rendering:optimizeQuality;shape-rendering:geometricPrecision"><path d="m-3053 7920c55 0 142-1.48 247-3.7-300-5.68-752-16-1053-9.87 331 4.2 668 13.6 806 13.6z" fill="#60b7ff" style="stroke-width:24.7"/><path d="m-1753 7906c-301-6.17-753 4.2-1053 9.87 105 2.22 192 3.7 247 3.7 138 0 475-9.38 806-13.6z" fill="#60b7ff" style="stroke-width:24.7"/><path d="m-1519 18583-2087 2.42v781l2087-2.42z" fill="#c4e2ff" style="stroke-width:24.7"/><path d="m-3606 19331h2087v-361h-2087z" fill="#b3dafe" style="stroke-width:24.7"/><path d="m-479 10923c-47 619-21.6 1243 108 1851 102 477 131 1036 131 1522h-4636c0-486 26.6-1045 128-1522 130-608 155-1232 108-1851-55.5-729-274-1434-267-2162 3.95-452 243-947 754-1014 272-36 1319 0 1594 0 275 0 1322-36 1594 0 511 67.7 750 562 754 1014 6.37 728-212 1432-267 2162z" fill="#fcd4d4" style="stroke-width:24.7"/><path d="m-212 8762c-4.05-452-243-947-754-1014-131-17.3-442-18-760-14 108 2.3 196 6.59 252 14 511 67.5 750 562 754 1014 6.34 728-212 1432-267 2162-47 618-21.6 1243 108 1851 102 477 130 1036 130 1522h508c0-486-28.7-1045-130-1522-130-608-155-1232-108-1851 55.6-729 274-1434 267-2162z" fill="#faa" style="stroke-width:24.7"/><path d="m-1361 19331h-2397c-72.2 0-131 58.5-131 131v777c0 72.2 58.5 131 131 131h2397c72.2 0 131-58.5 131-131v-777c0-72.2-58.5-131-131-131z" fill="#f66" style="stroke-width:24.7"/><path d="m-240 16812-1278 1800h-2086l-1268-1800-3.87-5.51v-68.4h4636z" fill="#fcd4d4" style="stroke-width:24.7"/><path d="m-240 16812h-509l-1276 1800h507z" fill="#faa" style="stroke-width:24.7"/><path d="m-240 14225h-4636v2582l4636 5.56z" fill="#0593fc" style="stroke-width:24.7"/><path d="m-749 16812h509v-2587h-509z" fill="#0182fc" style="stroke-width:24.7"/><g stroke="null"><g transform="matrix(24.7 0 0 -24.7 -8879 20370)"><path d="m286 257c-23.4-2.44-41.4-14.9-40-27.8 1.34-12.9 21.4-21.4 44.9-19 23.4 2.44 51.2 17.7 50 28.9-1.16 11.2-31.5 20.4-54.9 17.9z" fill="#5eac24"/><path d="m290 210c-23.4-2.44-43.5 6.06-44.9 19l25.9-4.78c14.4-2.64 29.2-1.18 42.7 4.21l26.2 10.4c1.16-11.2-26.6-26.4-50-28.9z" fill="#4e901e"/><path d="m322 240-74.8-7.79c-1.68-0.175-2.9-1.68-2.73-3.36s1.68-2.9 3.36-2.73l74.8 7.79c1.68 0.175 2.9 1.68 2.73 3.36-0.163 1.57-1.38 2.9-3.36 2.73z" fill="#47821c"/><path d="m295 232c-19.7-12.9-41.5-14.6-48.6-3.73s3.08 30.2 22.8 43.1c19.7 12.9 50.8 18.6 57 9.25 6.16-9.4-11.5-35.7-31.2-48.6z" fill="#6dc82a"/><path d="m269 271c-19.7-12.9-29.9-32.2-22.8-43.1l18.4 23.6c7.91 10.1 18.9 17.4 31.3 20.7l30 8.01c-6.16 9.4-37.3 3.68-57-9.25z" fill="#5eac24"/><path d="m313 268-20.6-13.5 9.13-1.74c1.66-0.316 2.75-1.92 2.43-3.58-0.316-1.66-1.92-2.75-3.58-2.43l-15.4 2.92-11-7.23 9.13-1.74c1.66-0.316 2.75-1.92 2.43-3.58-0.316-1.66-1.92-2.75-3.58-2.43l-15.4 2.92-16.6-10.9c-1.41-0.927-3.31-0.532-4.24 0.881-0.927 1.41-0.532 3.31 0.881 4.24l16.6 10.9 3.44 15.2c0.775 3.02 3.43 2.36 3.66 2.31 1.65-0.372 2.68-2.01 2.31-3.66l-2.05-9.07 11 7.23 3.44 15.2c0.776 2.99 3.43 2.36 3.66 2.31 1.65-0.372 2.68-2.01 2.31-3.66l-2.05-9.07 20.6 13.5c2.08 1.16 3.65 0.0148 4.24-0.881 0.927-1.41 0.533-3.31-0.88-4.24z" fill="#47821c"/><path d="m223 257c23.4-2.44 41.4-14.9 40-27.8-1.34-12.9-21.4-21.4-44.9-19-23.4 2.44-51.2 17.7-50 28.9 1.16 11.2 31.5 20.4 54.9 17.9z" fill="#91dc5a"/><path d="m219 210c23.4-2.44 43.5 6.06 44.9 19l-29.1-6.38c-13.8-3.03-28.3-1.4-41.1 4.63l-24.7 11.6c-1.16-11.2 26.6-26.4 50-28.9z" fill="#6dc82a"/><path d="m214 232c19.7-12.9 41.5-14.6 48.6-3.73s-3.08 30.2-22.8 43.1c-19.7 12.9-50.8 18.6-57 9.25s11.5-35.7 31.2-48.6z" fill="#b6e892"/><path d="m240 271c19.7-12.9 29.9-32.2 22.8-43.1l-13.1 18.1c-9.72 13.5-23.8 23.1-39.9 27.3l-26.8 6.91c6.16 9.4 37.3 3.68 57-9.25z" fill="#91dc5a"/><g transform="matrix(.336 0 0 .336 -463 -552)" fill="#47821c"><path d="m1926 2352c-0.521-5.01 3.12-9.49 8.12-10l223-23.2c5.01-0.521 9.49 3.12 10 8.12s-3.12 9.49-8.12 10l-223 23.2c-7.25 0.46-9.52-3.44-10-8.12z"/><path d="m2164 2323c-2.76-4.21-8.41-5.39-12.6-2.62l-49.3 32.3-45.7-8.7c-4.94-0.943-9.72 2.3-10.7 7.25-0.942 4.94 2.3 9.72 7.25 10.7l27.2 5.18-32.9 21.5-45.7-8.7c-4.94-0.942-9.72 2.3-10.7 7.25-0.942 4.94 2.3 9.72 7.25 10.7l27.2 5.18-61.3 40.2c-4.21 2.76-5.38 8.41-2.62 12.6 1.75 2.67 7.61 5.18 12.6 2.62l61.3-40.2-6.1 27c-1.11 4.91 1.97 9.79 6.88 10.9 0.676 0.152 8.59 1.86 10.9-6.88l10.2-45.4 32.9-21.5-6.1 27c-1.11 4.91 1.97 9.79 6.88 10.9 0.676 0.152 9.26 1.24 10.9-6.88l10.2-45.4 49.3-32.3c4.21-2.76 5.39-8.41 2.63-12.6z"/></g><path d="m317 161s3.57-29.4-25-24.2c-2.65 0.482-5.35-0.498-7.14-2.52-6.15-6.94-21.9-19.3-39.1 10.4-0.81 0.22 37.8 28.6 37.8 28.6z" fill="#c70024"/><g transform="matrix(.336 0 0 .336 -463 -552)" fill="#d80027"><path d="m1952 2124s-10.6-87.6 74.6-72.1c7.9 1.44 15.9-1.48 21.3-7.5 18.3-20.7 65.3-57.4 116 30.8 2.41 0.654-113 85.1-113 85.1z"/><path d="m2235 2123s53.8-26.7 113-5.54c9.34 3.34 13.5 14.2 8.87 22.9-12.5 23.3-33.6 71.1-32.3 126 1.93 77.7-101 155-204 70.5 1.92-2.78 114-214 114-214z"/></g><path d="m297 157c-0.658 7.01-0.563 17.2 3.99 24.7 7.6 12.4 16.8 48.2-16.2 62.5-10.8 1.41-23.4-1.76-35.9-12.1 0.644-0.933 38.4-71.9 38.4-71.9s3.76-1.87 9.74-3.23z" fill="#c70024"/><path d="m222 160s-18.1-8.98-38-1.86c-3.14 1.12-4.55 4.76-2.98 7.7 4.18 7.83 11.3 23.9 10.8 42.4-0.649 26.1 33.8 52.2 68.5 23.7-0.643-0.934-38.4-71.9-38.4-71.9z" fill="#ff0c38"/><path d="m212 157c0.658 7.01 0.563 17.2-3.99 24.7-7.6 12.4-16.8 48.2 16.2 62.5 10.8 1.41 23.4-1.76 35.9-12.1-0.644-0.933-38.4-71.9-38.4-71.9s-3.76-1.87-9.74-3.23z" fill="#d80027"/><path d="m288 148s-21.5-27.3-49.2 18.6c0.211 0.156 19.1 15.2 19.1 15.2z" fill="#ff0c38"/><path d="m239 167c1.18 0.931 19.1 15.2 19.1 15.2l30.1-33.8s-0.988-1.25-2.81-2.77h-1e-3s-23.6-5.79-46.3 21.5z" fill="#d80027"/><path d="m221 148s21.5-27.3 49.2 18.6c-0.211 0.156-19.1 15.2-19.1 15.2z" fill="#ff3f62"/><path d="m223 151 27.6 31s18.9-15.1 19.1-15.2c-1.77-2.94-3.52-5.58-5.23-7.95-2.77-2.7-16.7-14.6-41.5-7.87z" fill="#ff0c38"/><path d="m292 187c-5.39-9.52-2.88-24.2-2.88-24.2l-6.56-7.05-28.3 26.7-28.3-26.7-6.56 7.05s2.51 14.7-2.88 24.2c-6.18 10.9-10.4 45.9 37.8 45.9s44-35 37.8-45.9z" fill="#ff3f62"/><path d="m265 173-10.3 9.68-28.3-26.7-6.56 7.05s2.51 14.7-2.88 24.2c-6.18 10.9-10.4 45.9 37.8 45.9 11.9 0 20.6-2.14 26.9-5.52-2.28-25.1-8.76-42.5-16.6-54.6z" fill="#ff0c38"/><path d="m293 143c-23.9 6.08-36.3 25.5-42.1 39l7.67 10.4c7.84-2.91 14.3-6.81 19.5-11.2 2.99-2.49 4.46-6.37 3.93-10.2l-0.982-7.11 4.7-3.4e-4c4.44-3.4e-4 8.5-2.59 10.3-6.64 1.31-2.91 2.28-5.61 3-7.91 1.17-3.75-2.23-7.37-6.04-6.4z" fill="#ff728b"/><path d="m260 166c-3.99 5.48-6.92 11.1-9.01 15.9l7.67 10.4c4.94-1.83 9.32-4.07 13.2-6.56-3.48-8.11-7.57-14.6-11.9-19.8z" fill="#ff3f62"/><path d="m264 196-7.34-14.8-1.66 1.57-28.3-26.7-6.56 7.05s2.51 14.7-2.88 24.2c-6.18 10.9-10.4 45.9 37.8 45.9 4.49 0 8.53-0.305 12.2-0.866 1.33-17.9-3.15-36.4-3.15-36.4z" fill="#ff728b"/><path d="m245 232c-9.51-9.28-14.5-25.3-10.3-43 2.09-8.7 1.94-17.3 0.724-24.9l-9.25-8.72-6.56 7.05s2.51 14.7-2.88 24.2c-5.74 10.1-9.8 41 28.2 45.4z" fill="#ff3f62"/><path d="m211 149c0.717 2.31 1.69 5 3 7.91 1.82 4.06 5.88 6.64 10.3 6.64l4.7 3.3e-4 -0.982 7.11c-0.532 3.86 0.937 7.73 3.93 10.2 7.74 6.46 18.1 11.9 31.8 14.6 0 0-8.69-43.3-46.7-52.9-3.81-0.967-7.2 2.65-6.04 6.4z" fill="#ffa5b5"/></g><circle transform="scale(1,-1)" cx="-2461" cy="-10977" r="210" fill="#fff" stroke-opacity="null" stroke-width="24.7"/><circle transform="scale(1,-1)" cx="-1548" cy="-1e4" r="160" fill="#fff" stroke-opacity="null" stroke-width="24.7"/></g></g><g transform="matrix(.0108 .00111 .00111 -.0108 123 743)" style="clip-rule:evenodd;fill-rule:evenodd;image-rendering:optimizeQuality;shape-rendering:geometricPrecision"><path d="m-3053 7920c55 0 142-1.48 247-3.7-300-5.68-752-16-1053-9.87 331 4.2 668 13.6 806 13.6z" fill="#60b7ff" style="stroke-width:24.7"/><path d="m-1753 7906c-301-6.17-753 4.2-1053 9.87 105 2.22 192 3.7 247 3.7 138 0 475-9.38 806-13.6z" fill="#60b7ff" style="stroke-width:24.7"/><path d="m-1519 18583-2087 2.42v781l2087-2.42z" fill="#c4e2ff" style="stroke-width:24.7"/><path d="m-3606 19331h2087v-361h-2087z" fill="#b3dafe" style="stroke-width:24.7"/><path d="m-479 10923c-47 619-21.6 1243 108 1851 102 477 131 1036 131 1522h-4636c0-486 26.6-1045 128-1522 130-608 155-1232 108-1851-55.5-729-274-1434-267-2162 3.95-452 243-947 754-1014 272-36 1319 0 1594 0 275 0 1322-36 1594 0 511 67.7 750 562 754 1014 6.37 728-212 1432-267 2162z" fill="#fcd4d4" style="stroke-width:24.7"/><path d="m-212 8762c-4.05-452-243-947-754-1014-131-17.3-442-18-760-14 108 2.3 196 6.59 252 14 511 67.5 750 562 754 1014 6.34 728-212 1432-267 2162-47 618-21.6 1243 108 1851 102 477 130 1036 130 1522h508c0-486-28.7-1045-130-1522-130-608-155-1232-108-1851 55.6-729 274-1434 267-2162z" fill="#faa" style="stroke-width:24.7"/><path d="m-1361 19331h-2397c-72.2 0-131 58.5-131 131v777c0 72.2 58.5 131 131 131h2397c72.2 0 131-58.5 131-131v-777c0-72.2-58.5-131-131-131z" fill="#f66" style="stroke-width:24.7"/><path d="m-240 16812-1278 1800h-2086l-1268-1800-3.87-5.51v-68.4h4636z" fill="#fcd4d4" style="stroke-width:24.7"/><path d="m-240 16812h-509l-1276 1800h507z" fill="#faa" style="stroke-width:24.7"/><path d="m-240 14225h-4636v2582l4636 5.56z" fill="#0593fc" style="stroke-width:24.7"/><path d="m-749 16812h509v-2587h-509z" fill="#0182fc" style="stroke-width:24.7"/><g stroke="null"><g transform="matrix(24.7 0 0 -24.7 -8879 20370)"><path d="m286 257c-23.4-2.44-41.4-14.9-40-27.8 1.34-12.9 21.4-21.4 44.9-19 23.4 2.44 51.2 17.7 50 28.9-1.16 11.2-31.5 20.4-54.9 17.9z" fill="#5eac24"/><path d="m290 210c-23.4-2.44-43.5 6.06-44.9 19l25.9-4.78c14.4-2.64 29.2-1.18 42.7 4.21l26.2 10.4c1.16-11.2-26.6-26.4-50-28.9z" fill="#4e901e"/><path d="m322 240-74.8-7.79c-1.68-0.175-2.9-1.68-2.73-3.36s1.68-2.9 3.36-2.73l74.8 7.79c1.68 0.175 2.9 1.68 2.73 3.36-0.163 1.57-1.38 2.9-3.36 2.73z" fill="#47821c"/><path d="m295 232c-19.7-12.9-41.5-14.6-48.6-3.73s3.08 30.2 22.8 43.1c19.7 12.9 50.8 18.6 57 9.25 6.16-9.4-11.5-35.7-31.2-48.6z" fill="#6dc82a"/><path d="m269 271c-19.7-12.9-29.9-32.2-22.8-43.1l18.4 23.6c7.91 10.1 18.9 17.4 31.3 20.7l30 8.01c-6.16 9.4-37.3 3.68-57-9.25z" fill="#5eac24"/><path d="m313 268-20.6-13.5 9.13-1.74c1.66-0.316 2.75-1.92 2.43-3.58-0.316-1.66-1.92-2.75-3.58-2.43l-15.4 2.92-11-7.23 9.13-1.74c1.66-0.316 2.75-1.92 2.43-3.58-0.316-1.66-1.92-2.75-3.58-2.43l-15.4 2.92-16.6-10.9c-1.41-0.927-3.31-0.532-4.24 0.881-0.927 1.41-0.532 3.31 0.881 4.24l16.6 10.9 3.44 15.2c0.775 3.02 3.43 2.36 3.66 2.31 1.65-0.372 2.68-2.01 2.31-3.66l-2.05-9.07 11 7.23 3.44 15.2c0.776 2.99 3.43 2.36 3.66 2.31 1.65-0.372 2.68-2.01 2.31-3.66l-2.05-9.07 20.6 13.5c2.08 1.16 3.65 0.0148 4.24-0.881 0.927-1.41 0.533-3.31-0.88-4.24z" fill="#47821c"/><path d="m223 257c23.4-2.44 41.4-14.9 40-27.8-1.34-12.9-21.4-21.4-44.9-19-23.4 2.44-51.2 17.7-50 28.9 1.16 11.2 31.5 20.4 54.9 17.9z" fill="#91dc5a"/><path d="m219 210c23.4-2.44 43.5 6.06 44.9 19l-29.1-6.38c-13.8-3.03-28.3-1.4-41.1 4.63l-24.7 11.6c-1.16-11.2 26.6-26.4 50-28.9z" fill="#6dc82a"/><path d="m214 232c19.7-12.9 41.5-14.6 48.6-3.73s-3.08 30.2-22.8 43.1c-19.7 12.9-50.8 18.6-57 9.25s11.5-35.7 31.2-48.6z" fill="#b6e892"/><path d="m240 271c19.7-12.9 29.9-32.2 22.8-43.1l-13.1 18.1c-9.72 13.5-23.8 23.1-39.9 27.3l-26.8 6.91c6.16 9.4 37.3 3.68 57-9.25z" fill="#91dc5a"/><g transform="matrix(.336 0 0 .336 -463 -552)" fill="#47821c"><path d="m1926 2352c-0.521-5.01 3.12-9.49 8.12-10l223-23.2c5.01-0.521 9.49 3.12 10 8.12s-3.12 9.49-8.12 10l-223 23.2c-7.25 0.46-9.52-3.44-10-8.12z"/><path d="m2164 2323c-2.76-4.21-8.41-5.39-12.6-2.62l-49.3 32.3-45.7-8.7c-4.94-0.943-9.72 2.3-10.7 7.25-0.942 4.94 2.3 9.72 7.25 10.7l27.2 5.18-32.9 21.5-45.7-8.7c-4.94-0.942-9.72 2.3-10.7 7.25-0.942 4.94 2.3 9.72 7.25 10.7l27.2 5.18-61.3 40.2c-4.21 2.76-5.38 8.41-2.62 12.6 1.75 2.67 7.61 5.18 12.6 2.62l61.3-40.2-6.1 27c-1.11 4.91 1.97 9.79 6.88 10.9 0.676 0.152 8.59 1.86 10.9-6.88l10.2-45.4 32.9-21.5-6.1 27c-1.11 4.91 1.97 9.79 6.88 10.9 0.676 0.152 9.26 1.24 10.9-6.88l10.2-45.4 49.3-32.3c4.21-2.76 5.39-8.41 2.63-12.6z"/></g><path d="m317 161s3.57-29.4-25-24.2c-2.65 0.482-5.35-0.498-7.14-2.52-6.15-6.94-21.9-19.3-39.1 10.4-0.81 0.22 37.8 28.6 37.8 28.6z" fill="#c70024"/><g transform="matrix(.336 0 0 .336 -463 -552)" fill="#d80027"><path d="m1952 2124s-10.6-87.6 74.6-72.1c7.9 1.44 15.9-1.48 21.3-7.5 18.3-20.7 65.3-57.4 116 30.8 2.41 0.654-113 85.1-113 85.1z"/><path d="m2235 2123s53.8-26.7 113-5.54c9.34 3.34 13.5 14.2 8.87 22.9-12.5 23.3-33.6 71.1-32.3 126 1.93 77.7-101 155-204 70.5 1.92-2.78 114-214 114-214z"/></g><path d="m297 157c-0.658 7.01-0.563 17.2 3.99 24.7 7.6 12.4 16.8 48.2-16.2 62.5-10.8 1.41-23.4-1.76-35.9-12.1 0.644-0.933 38.4-71.9 38.4-71.9s3.76-1.87 9.74-3.23z" fill="#c70024"/><path d="m222 160s-18.1-8.98-38-1.86c-3.14 1.12-4.55 4.76-2.98 7.7 4.18 7.83 11.3 23.9 10.8 42.4-0.649 26.1 33.8 52.2 68.5 23.7-0.643-0.934-38.4-71.9-38.4-71.9z" fill="#ff0c38"/><path d="m212 157c0.658 7.01 0.563 17.2-3.99 24.7-7.6 12.4-16.8 48.2 16.2 62.5 10.8 1.41 23.4-1.76 35.9-12.1-0.644-0.933-38.4-71.9-38.4-71.9s-3.76-1.87-9.74-3.23z" fill="#d80027"/><path d="m288 148s-21.5-27.3-49.2 18.6c0.211 0.156 19.1 15.2 19.1 15.2z" fill="#ff0c38"/><path d="m239 167c1.18 0.931 19.1 15.2 19.1 15.2l30.1-33.8s-0.988-1.25-2.81-2.77h-1e-3s-23.6-5.79-46.3 21.5z" fill="#d80027"/><path d="m221 148s21.5-27.3 49.2 18.6c-0.211 0.156-19.1 15.2-19.1 15.2z" fill="#ff3f62"/><path d="m223 151 27.6 31s18.9-15.1 19.1-15.2c-1.77-2.94-3.52-5.58-5.23-7.95-2.77-2.7-16.7-14.6-41.5-7.87z" fill="#ff0c38"/><path d="m292 187c-5.39-9.52-2.88-24.2-2.88-24.2l-6.56-7.05-28.3 26.7-28.3-26.7-6.56 7.05s2.51 14.7-2.88 24.2c-6.18 10.9-10.4 45.9 37.8 45.9s44-35 37.8-45.9z" fill="#ff3f62"/><path d="m265 173-10.3 9.68-28.3-26.7-6.56 7.05s2.51 14.7-2.88 24.2c-6.18 10.9-10.4 45.9 37.8 45.9 11.9 0 20.6-2.14 26.9-5.52-2.28-25.1-8.76-42.5-16.6-54.6z" fill="#ff0c38"/><path d="m293 143c-23.9 6.08-36.3 25.5-42.1 39l7.67 10.4c7.84-2.91 14.3-6.81 19.5-11.2 2.99-2.49 4.46-6.37 3.93-10.2l-0.982-7.11 4.7-3.4e-4c4.44-3.4e-4 8.5-2.59 10.3-6.64 1.31-2.91 2.28-5.61 3-7.91 1.17-3.75-2.23-7.37-6.04-6.4z" fill="#ff728b"/><path d="m260 166c-3.99 5.48-6.92 11.1-9.01 15.9l7.67 10.4c4.94-1.83 9.32-4.07 13.2-6.56-3.48-8.11-7.57-14.6-11.9-19.8z" fill="#ff3f62"/><path d="m264 196-7.34-14.8-1.66 1.57-28.3-26.7-6.56 7.05s2.51 14.7-2.88 24.2c-6.18 10.9-10.4 45.9 37.8 45.9 4.49 0 8.53-0.305 12.2-0.866 1.33-17.9-3.15-36.4-3.15-36.4z" fill="#ff728b"/><path d="m245 232c-9.51-9.28-14.5-25.3-10.3-43 2.09-8.7 1.94-17.3 0.724-24.9l-9.25-8.72-6.56 7.05s2.51 14.7-2.88 24.2c-5.74 10.1-9.8 41 28.2 45.4z" fill="#ff3f62"/><path d="m211 149c0.717 2.31 1.69 5 3 7.91 1.82 4.06 5.88 6.64 10.3 6.64l4.7 3.3e-4 -0.982 7.11c-0.532 3.86 0.937 7.73 3.93 10.2 7.74 6.46 18.1 11.9 31.8 14.6 0 0-8.69-43.3-46.7-52.9-3.81-0.967-7.2 2.65-6.04 6.4z" fill="#ffa5b5"/></g><circle transform="scale(1,-1)" cx="-2461" cy="-10977" r="210" fill="#fff" stroke-opacity="null" stroke-width="24.7"/><circle transform="scale(1,-1)" cx="-1548" cy="-1e4" r="160" fill="#fff" stroke-opacity="null" stroke-width="24.7"/></g></g><path d="m93.9 737v-64.6l54.9 120v80.6l-54.9-136" style="fill:#ffb675"/><g transform="matrix(.227 -.0558 .0584 .238 320 541)" style="clip-rule:evenodd;fill-rule:evenodd;image-rendering:optimizeQuality;shape-rendering:geometricPrecision;text-rendering:geometricPrecision"><g><title>background</title><rect x="-1" y="-1" width="514" height="514" fill="none"/><g x="0" y="0" width="100%" height="100%" display="none" overflow="visible"><rect width="100%" height="100%" fill="url(#gridpattern)" stroke-width="0"/></g></g><g><title>Layer 1</title><g stroke="null"><g transform="matrix(8.42 0 0 8.42 -4.48 -1.04)" stroke="null"><path d="m16.9 13 2.14 0.855c1.1 0.441 2.28 0.668 3.47 0.668 1.45 0 2.88-0.337 4.17-0.985l0.059-0.03c1.3-0.648 2.72-0.985 4.17-0.985h0.594c1.45 0 2.88 0.337 4.17 0.985l0.059 0.03c1.3 0.648 2.72 0.985 4.17 0.985h0.283c1 0 2-0.162 2.95-0.479l3.34-1.11h-1e-3c0.767 1.57 2.07 2.85 3.73 3.59 2.74 1.22 4.5 3.93 4.5 6.92v31.1c0 3.31-2.69 6-6 6h-34c-3.31 0-6-2.69-6-6v-31.1c0-3 1.76-5.71 4.5-6.92 1.63-0.726 2.92-1.99 3.69-3.52z" fill="#ace54b"/><path d="m33.5 12.8c-0.668-0.149-1.35-0.231-2.04-0.231h-0.594c-1.45 0-2.88 0.337-4.17 0.985l-0.059 0.03c-1.3 0.648-2.72 0.985-4.17 0.985-1.19 0-2.36-0.227-3.47-0.667l-2.14-0.855c-0.771 1.54-2.06 2.8-3.69 3.52-2.74 1.22-4.5 3.93-4.5 6.92v17.3c12.7-4.04 22.3-14.8 24.8-28z" fill="#d0f669"/><path d="m46.4 13-3.34 1.11c-0.951 0.317-1.95 0.479-2.95 0.479h-0.283c-1.45 0-2.88-0.337-4.17-0.985l-0.059-0.03c-1.3-0.648-2.72-0.985-4.17-0.985h-0.594c-1.45 0-2.88 0.337-4.17 0.985l-0.059 0.03c-1.3 0.648-2.72 0.985-4.17 0.985-1.19 0-2.36-0.227-3.47-0.667l-2.14-0.855c0.521-1.04 0.807-2.2 0.807-3.4v-1.08h28v1.08c0 1.18 0.274 2.32 0.773 3.33z" fill="#c7e2fc"/><path d="m34.5 53.4c5.82-4.06 10.3-9.8 12.8-16.5l2.81-7.42c0.706-1.87 0.749-3.92 0.122-5.82-0.622-1.88-1.96-3.44-3.72-4.32-1.95-0.983-4.23-1.05-6.24-0.185-2.34 1.01-4.2 2.87-5.22 5.22l-0.383 0.881c-3.18 7.33-7.87 13.9-13.7 19.3-1.14 1.05-1.9 2.45-2.16 3.99-0.363 2.2 0.348 4.43 1.91 6.01 1.49 1.5 3.59 2.23 5.69 1.96 2.92-0.367 5.71-1.44 8.13-3.13z" fill="#50761e"/><path d="m19.7 53.3c0.853 0.235 1.75 0.304 2.65 0.191 2.92-0.368 5.71-1.44 8.13-3.13 5.82-4.06 10.3-9.8 12.8-16.5l2.81-7.42c0.706-1.87 0.749-3.92 0.122-5.82-0.21-0.636-0.503-1.23-0.865-1.78-1.63-0.503-3.4-0.428-5 0.236 0.48 1.77 0.392 3.65-0.258 5.37l-2.81 7.42c-2.52 6.66-6.99 12.4-12.8 16.5-1.74 1.21-3.66 2.1-5.69 2.65l-9e-3 -0.04c0.158 0.824 0.466 1.61 0.91 2.33z" fill="#6ea22a"/><path d="m28.8 53.4c-5.82-4.06-10.3-9.8-12.8-16.5l-2.81-7.42c-0.706-1.87-0.749-3.92-0.122-5.82 0.622-1.88 1.96-3.44 3.72-4.32 1.95-0.983 4.23-1.05 6.24-0.185 2.34 1.01 4.2 2.87 5.22 5.22l0.383 0.881c3.18 7.33 7.87 13.9 13.7 19.3 1.14 1.05 1.9 2.45 2.16 3.99 0.363 2.2-0.348 4.43-1.91 6.01-1.49 1.5-3.59 2.23-5.69 1.96-2.92-0.367-5.71-1.44-8.13-3.13z" fill="#50761e"/><path d="m43.6 53.3c-0.853 0.235-1.75 0.304-2.65 0.191-2.92-0.368-5.71-1.44-8.13-3.13-5.82-4.06-10.3-9.8-12.8-16.5l-2.81-7.42c-0.706-1.87-0.749-3.92-0.122-5.82 0.21-0.636 0.503-1.23 0.865-1.78 1.63-0.503 3.4-0.428 5 0.236-0.48 1.77-0.392 3.65 0.258 5.37l2.81 7.42c2.52 6.66 6.99 12.4 12.8 16.5 1.74 1.21 3.66 2.1 5.69 2.65l9e-3 -0.04c-0.158 0.824-0.466 1.61-0.91 2.33z" fill="#6ea22a"/><path d="m45.7 8.56h-28c-1.1 0-2-0.895-2-2v-4c0-1.1 0.895-2 2-2h28c1.1 0 2 0.895 2 2v4c0 1.1-0.895 2-2 2z" fill="#758190"/><path d="m45.7 3.56h-28c-1.1 0-2 0.895-2 2v1c0 1.1 0.895 2 2 2h28c1.1 0 2-0.895 2-2v-1c0-1.1-0.895-2-2-2z" fill="#8892a0"/><g fill="#a8b0bc" stroke="null"><path d="m18.7 3.56h2v5h-2z"/><path d="m22.7 3.56h2v5h-2z"/><path d="m26.7 3.56h2v5h-2z"/><path d="m30.7 3.56h2v5h-2z"/><path d="m34.7 3.56h2v5h-2z"/><path d="m38.7 3.56h2v5h-2z"/><path d="m42.7 3.56h2v5h-2z"/></g><g fill="#ebf7fe"><path d="m16.9 13h-1e-3z"/><path d="m17.7 8.56v1.08c0 1.21-0.286 2.37-0.806 3.4l2.14 0.855c1.1 0.44 2.28 0.667 3.46 0.667 1.45 0 2.88-0.337 4.17-0.985l0.059-0.03c1.3-0.648 2.72-0.985 4.17-0.985h0.594c0.689 0 1.37 0.082 2.04 0.231 0.263-1.38 0.446-2.8 0.549-4.23z"/></g></g><g fill="#8cc736" stroke-opacity="null" stroke-width="null"><ellipse cx="418" cy="302" rx="9.9" ry="16.1"/><ellipse transform="rotate(-42.3 411 334)" cx="411" cy="334" rx="9.9" ry="16.1"/><ellipse transform="rotate(38 426 334)" cx="426" cy="334" rx="9.9" ry="16.1"/><ellipse transform="rotate(-42.3 411 366)" cx="411" cy="366" rx="9.9" ry="16.1"/><ellipse transform="rotate(38 427 365)" cx="427" cy="365" rx="9.9" ry="16.1"/><ellipse transform="rotate(-42.3 411 396)" cx="411" cy="396" rx="9.9" ry="16.1"/><ellipse transform="rotate(38 427 396)" cx="427" cy="396" rx="9.9" ry="16.1"/><ellipse transform="rotate(37.7 411 465)" cx="411" cy="465" rx="9.9" ry="16.1"/><ellipse cx="421" cy="431" rx="9.9" ry="16.1"/><ellipse transform="rotate(-32.2 426 466)" cx="426" cy="466" rx="9.9" ry="16.1"/><ellipse cx="261" cy="138" rx="9.9" ry="16.1"/><ellipse transform="rotate(-42.3 254 170)" cx="254" cy="170" rx="9.9" ry="16.1"/><ellipse transform="rotate(38 269 169)" cx="269" cy="169" rx="9.9" ry="16.1"/><ellipse transform="rotate(-42.3 254 201)" cx="254" cy="201" rx="9.9" ry="16.1"/><ellipse transform="rotate(38 270 200)" cx="270" cy="200" rx="9.9" ry="16.1"/><ellipse cx="113" cy="364" rx="9.9" ry="16.1"/><ellipse transform="rotate(-42.3 106 396)" cx="106" cy="396" rx="9.9" ry="16.1"/><ellipse transform="rotate(38 121 396)" cx="121" cy="396" rx="9.9" ry="16.1"/><ellipse transform="rotate(-42.3 106 428)" cx="106" cy="428" rx="9.9" ry="16.1"/><ellipse transform="rotate(38 122 427)" cx="122" cy="427" rx="9.9" ry="16.1"/><ellipse transform="rotate(-42.3 106 458)" cx="106" cy="458" rx="9.9" ry="16.1"/><ellipse transform="rotate(38 122 458)" cx="122" cy="458" rx="9.9" ry="16.1"/></g><g fill="#fff" stroke-opacity="null" stroke-width="null"><ellipse transform="rotate(-33.7 181 220)" cx="181" cy="220" rx="10" ry="13"/><ellipse transform="rotate(-33.7 231 268)" cx="231" cy="268" rx="20.2" ry="26.1"/><ellipse transform="rotate(21.3 369 228)" cx="369" cy="228" rx="25.2" ry="19.2"/><ellipse transform="rotate(21.3 337 251)" cx="337" cy="251" rx="12" ry="9.2"/><ellipse transform="rotate(-38.3 93.8 274)" cx="93.8" cy="274" rx="9.04" ry="11.7"/><ellipse transform="rotate(-39.1 96.6 318)" cx="96.6" cy="318" rx="13.7" ry="19.1"/><ellipse transform="rotate(-38.3 386 416)" cx="386" cy="416" rx="5.1" ry="6.61"/><ellipse transform="rotate(-38.3 391 445)" cx="391" cy="445" rx="8.33" ry="10.8"/></g></g></g></g><g transform="matrix(.234 0 0 .245 281 533)" style="clip-rule:evenodd;fill-rule:evenodd;image-rendering:optimizeQuality;shape-rendering:geometricPrecision;text-rendering:geometricPrecision"><g><title>background</title><rect x="-1" y="-1" width="514" height="514" fill="none"/><g x="0" y="0" width="100%" height="100%" display="none" overflow="visible"><rect width="100%" height="100%" fill="url(#gridpattern)" stroke-width="0"/></g></g><g><title>Layer 1</title><g stroke="null"><g transform="matrix(8.42 0 0 8.42 -4.48 -1.04)" stroke="null"><path d="m16.9 13 2.14 0.855c1.1 0.441 2.28 0.668 3.47 0.668 1.45 0 2.88-0.337 4.17-0.985l0.059-0.03c1.3-0.648 2.72-0.985 4.17-0.985h0.594c1.45 0 2.88 0.337 4.17 0.985l0.059 0.03c1.3 0.648 2.72 0.985 4.17 0.985h0.283c1 0 2-0.162 2.95-0.479l3.34-1.11h-1e-3c0.767 1.57 2.07 2.85 3.73 3.59 2.74 1.22 4.5 3.93 4.5 6.92v31.1c0 3.31-2.69 6-6 6h-34c-3.31 0-6-2.69-6-6v-31.1c0-3 1.76-5.71 4.5-6.92 1.63-0.726 2.92-1.99 3.69-3.52z" fill="#ace54b"/><path d="m33.5 12.8c-0.668-0.149-1.35-0.231-2.04-0.231h-0.594c-1.45 0-2.88 0.337-4.17 0.985l-0.059 0.03c-1.3 0.648-2.72 0.985-4.17 0.985-1.19 0-2.36-0.227-3.47-0.667l-2.14-0.855c-0.771 1.54-2.06 2.8-3.69 3.52-2.74 1.22-4.5 3.93-4.5 6.92v17.3c12.7-4.04 22.3-14.8 24.8-28z" fill="#d0f669"/><path d="m46.4 13-3.34 1.11c-0.951 0.317-1.95 0.479-2.95 0.479h-0.283c-1.45 0-2.88-0.337-4.17-0.985l-0.059-0.03c-1.3-0.648-2.72-0.985-4.17-0.985h-0.594c-1.45 0-2.88 0.337-4.17 0.985l-0.059 0.03c-1.3 0.648-2.72 0.985-4.17 0.985-1.19 0-2.36-0.227-3.47-0.667l-2.14-0.855c0.521-1.04 0.807-2.2 0.807-3.4v-1.08h28v1.08c0 1.18 0.274 2.32 0.773 3.33z" fill="#c7e2fc"/><path d="m34.5 53.4c5.82-4.06 10.3-9.8 12.8-16.5l2.81-7.42c0.706-1.87 0.749-3.92 0.122-5.82-0.622-1.88-1.96-3.44-3.72-4.32-1.95-0.983-4.23-1.05-6.24-0.185-2.34 1.01-4.2 2.87-5.22 5.22l-0.383 0.881c-3.18 7.33-7.87 13.9-13.7 19.3-1.14 1.05-1.9 2.45-2.16 3.99-0.363 2.2 0.348 4.43 1.91 6.01 1.49 1.5 3.59 2.23 5.69 1.96 2.92-0.367 5.71-1.44 8.13-3.13z" fill="#50761e"/><path d="m19.7 53.3c0.853 0.235 1.75 0.304 2.65 0.191 2.92-0.368 5.71-1.44 8.13-3.13 5.82-4.06 10.3-9.8 12.8-16.5l2.81-7.42c0.706-1.87 0.749-3.92 0.122-5.82-0.21-0.636-0.503-1.23-0.865-1.78-1.63-0.503-3.4-0.428-5 0.236 0.48 1.77 0.392 3.65-0.258 5.37l-2.81 7.42c-2.52 6.66-6.99 12.4-12.8 16.5-1.74 1.21-3.66 2.1-5.69 2.65l-9e-3 -0.04c0.158 0.824 0.466 1.61 0.91 2.33z" fill="#6ea22a"/><path d="m28.8 53.4c-5.82-4.06-10.3-9.8-12.8-16.5l-2.81-7.42c-0.706-1.87-0.749-3.92-0.122-5.82 0.622-1.88 1.96-3.44 3.72-4.32 1.95-0.983 4.23-1.05 6.24-0.185 2.34 1.01 4.2 2.87 5.22 5.22l0.383 0.881c3.18 7.33 7.87 13.9 13.7 19.3 1.14 1.05 1.9 2.45 2.16 3.99 0.363 2.2-0.348 4.43-1.91 6.01-1.49 1.5-3.59 2.23-5.69 1.96-2.92-0.367-5.71-1.44-8.13-3.13z" fill="#50761e"/><path d="m43.6 53.3c-0.853 0.235-1.75 0.304-2.65 0.191-2.92-0.368-5.71-1.44-8.13-3.13-5.82-4.06-10.3-9.8-12.8-16.5l-2.81-7.42c-0.706-1.87-0.749-3.92-0.122-5.82 0.21-0.636 0.503-1.23 0.865-1.78 1.63-0.503 3.4-0.428 5 0.236-0.48 1.77-0.392 3.65 0.258 5.37l2.81 7.42c2.52 6.66 6.99 12.4 12.8 16.5 1.74 1.21 3.66 2.1 5.69 2.65l9e-3 -0.04c-0.158 0.824-0.466 1.61-0.91 2.33z" fill="#6ea22a"/><path d="m45.7 8.56h-28c-1.1 0-2-0.895-2-2v-4c0-1.1 0.895-2 2-2h28c1.1 0 2 0.895 2 2v4c0 1.1-0.895 2-2 2z" fill="#758190"/><path d="m45.7 3.56h-28c-1.1 0-2 0.895-2 2v1c0 1.1 0.895 2 2 2h28c1.1 0 2-0.895 2-2v-1c0-1.1-0.895-2-2-2z" fill="#8892a0"/><g fill="#a8b0bc" stroke="null"><path d="m18.7 3.56h2v5h-2z"/><path d="m22.7 3.56h2v5h-2z"/><path d="m26.7 3.56h2v5h-2z"/><path d="m30.7 3.56h2v5h-2z"/><path d="m34.7 3.56h2v5h-2z"/><path d="m38.7 3.56h2v5h-2z"/><path d="m42.7 3.56h2v5h-2z"/></g><g fill="#ebf7fe"><path d="m16.9 13h-1e-3z"/><path d="m17.7 8.56v1.08c0 1.21-0.286 2.37-0.806 3.4l2.14 0.855c1.1 0.44 2.28 0.667 3.46 0.667 1.45 0 2.88-0.337 4.17-0.985l0.059-0.03c1.3-0.648 2.72-0.985 4.17-0.985h0.594c0.689 0 1.37 0.082 2.04 0.231 0.263-1.38 0.446-2.8 0.549-4.23z"/></g></g><g fill="#8cc736" stroke-opacity="null" stroke-width="null"><ellipse cx="418" cy="302" rx="9.9" ry="16.1"/><ellipse transform="rotate(-42.3 411 334)" cx="411" cy="334" rx="9.9" ry="16.1"/><ellipse transform="rotate(38 426 334)" cx="426" cy="334" rx="9.9" ry="16.1"/><ellipse transform="rotate(-42.3 411 366)" cx="411" cy="366" rx="9.9" ry="16.1"/><ellipse transform="rotate(38 427 365)" cx="427" cy="365" rx="9.9" ry="16.1"/><ellipse transform="rotate(-42.3 411 396)" cx="411" cy="396" rx="9.9" ry="16.1"/><ellipse transform="rotate(38 427 396)" cx="427" cy="396" rx="9.9" ry="16.1"/><ellipse transform="rotate(37.7 411 465)" cx="411" cy="465" rx="9.9" ry="16.1"/><ellipse cx="421" cy="431" rx="9.9" ry="16.1"/><ellipse transform="rotate(-32.2 426 466)" cx="426" cy="466" rx="9.9" ry="16.1"/><ellipse cx="261" cy="138" rx="9.9" ry="16.1"/><ellipse transform="rotate(-42.3 254 170)" cx="254" cy="170" rx="9.9" ry="16.1"/><ellipse transform="rotate(38 269 169)" cx="269" cy="169" rx="9.9" ry="16.1"/><ellipse transform="rotate(-42.3 254 201)" cx="254" cy="201" rx="9.9" ry="16.1"/><ellipse transform="rotate(38 270 200)" cx="270" cy="200" rx="9.9" ry="16.1"/><ellipse cx="113" cy="364" rx="9.9" ry="16.1"/><ellipse transform="rotate(-42.3 106 396)" cx="106" cy="396" rx="9.9" ry="16.1"/><ellipse transform="rotate(38 121 396)" cx="121" cy="396" rx="9.9" ry="16.1"/><ellipse transform="rotate(-42.3 106 428)" cx="106" cy="428" rx="9.9" ry="16.1"/><ellipse transform="rotate(38 122 427)" cx="122" cy="427" rx="9.9" ry="16.1"/><ellipse transform="rotate(-42.3 106 458)" cx="106" cy="458" rx="9.9" ry="16.1"/><ellipse transform="rotate(38 122 458)" cx="122" cy="458" rx="9.9" ry="16.1"/></g><g fill="#fff" stroke-opacity="null" stroke-width="null"><ellipse transform="rotate(-33.7 181 220)" cx="181" cy="220" rx="10" ry="13"/><ellipse transform="rotate(-33.7 231 268)" cx="231" cy="268" rx="20.2" ry="26.1"/><ellipse transform="rotate(21.3 369 228)" cx="369" cy="228" rx="25.2" ry="19.2"/><ellipse transform="rotate(21.3 337 251)" cx="337" cy="251" rx="12" ry="9.2"/><ellipse transform="rotate(-38.3 93.8 274)" cx="93.8" cy="274" rx="9.04" ry="11.7"/><ellipse transform="rotate(-39.1 96.6 318)" cx="96.6" cy="318" rx="13.7" ry="19.1"/><ellipse transform="rotate(-38.3 386 416)" cx="386" cy="416" rx="5.1" ry="6.61"/><ellipse transform="rotate(-38.3 391 445)" cx="391" cy="445" rx="8.33" ry="10.8"/></g></g></g></g><g transform="matrix(.24 0 0 .237 575 538)" style="clip-rule:evenodd;fill-rule:evenodd;image-rendering:optimizeQuality;shape-rendering:geometricPrecision;text-rendering:geometricPrecision"><g><title>background</title><rect x="-1" y="-1" width="514" height="514" fill="none"/><g x="0" y="0" width="100%" height="100%" display="none" overflow="visible"><rect width="100%" height="100%" fill="url(#gridpattern)" stroke-width="0"/></g></g><g><title>Layer 1</title><g stroke="null"><g transform="matrix(.992 0 0 .992 -170 -279)" stroke="null"><path d="m591 436c-106-7.06-212-7.06-318 0-31.8 2.12-57.4 26.9-60.4 58.6-7.35 79.1-7.35 158 0 237 2.95 31.7 28.6 56.5 60.4 58.6 106 7.06 212 7.06 318 0 31.8-2.12 57.4-26.9 60.4-58.6 7.35-79.1 7.35-158 0-237-2.95-31.7-28.6-56.5-60.4-58.6z" fill="#dd636e"/><path d="m287 740c1.31 22.6 9.31 41.8 20.8 52.8-11.4-0.594-22.9-1.28-34.3-2.04-31.8-2.11-57.4-26.9-60.4-58.6-7.35-79.1-7.35-158 0-237 2.95-31.7 28.6-56.5 60.4-58.6 11.4-0.758 22.9-1.44 34.3-2.04-11.5 11-19.5 30.2-20.8 52.8-4.87 84.3-4.87 169 0 253z" fill="#da4a54"/><ellipse cx="432" cy="619" rx="152" ry="120" fill="#f9efda"/><path d="m568 385h-0.035c6.39-4.23 11-11 12.4-19 3.2-18.8 3.2-37.6 0-56.4-2.26-13.3-13.5-23.2-27-23.7-81-2.7-162-2.7-243 0-13.5 0.45-24.7 10.4-27 23.7-3.2 18.8-3.2 37.6 0 56.4 1.36 8 5.98 14.8 12.4 19h-0.035c-46.2 29.3-109 46.1-88.7 85.4 20.3 39.3 74.1-23.1 106-18 31.9 5.07-12.5 84 25.4 84 37.9 0 58.8-66 93.4-66s55.5 66 93.4 66-6.54-78.9 25.4-84 85.7 57.3 106 18c20.3-39.3-42.5-56.1-88.7-85.4z" fill="#ffe07d"/><path d="m356 366c0.7 7.99 3.05 21.9 6.3 26.1l-0.02-7.15c-19.7 24.5-45.4 40.3-47.1 67.9-0.731-0.237-1.5-0.412-2.34-0.546-31.9-5.07-85.7 57.3-106 18-20.3-39.3 42.5-56.1 88.7-85.4h0.031c-6.39-4.22-11-11-12.4-19-3.19-18.8-3.19-37.6 0-56.4 2.26-13.3 13.5-23.2 27-23.7 17.9-0.597 35.7-1.06 53.6-1.39-4.03 5.64-7 15.9-7.79 25.1-1.63 18.8-1.63 37.6-1e-3 56.4z" fill="#ffd064"/><path d="m432 403c-49 0-98-3.24-147-9.71-4.23-0.563-7.2-4.45-6.64-8.68 0.563-4.23 4.46-7.2 8.68-6.64 96 12.8 193 12.8 289 0 4.23-0.561 8.12 2.41 8.68 6.64 0.562 4.23-2.41 8.12-6.64 8.68-48.7 6.47-97.7 9.71-147 9.71z" fill="#f9efda"/><path d="m471 335c-8.97-6.32-19.1-6.7-27.7-1.01-4.74 3.13-8.61 7.8-11.5 13.5-2.9-5.72-6.77-10.4-11.5-13.5-8.6-5.68-18.7-5.32-27.7 1.01-9.41 6.63-10.9 14.4-10.6 19.7 1.31 18.4 28.3 35.1 39.4 41.1 0.384 1.76 0.974 3.94 1.86 6.37-3.57 6.15-10.2 12.9-22.4 15.8-4.15 0.983-6.72 5.14-5.74 9.3 0.842 3.55 4.01 5.95 7.51 5.95 0.589 0 1.19-0.067 1.79-0.209 12.5-2.96 21.3-9.19 27.3-16.2 5.54 6.56 14.1 13.1 27.3 16.2 0.599 0.142 1.2 0.209 1.79 0.209 3.5 0 6.67-2.39 7.51-5.95 0.982-4.15-1.59-8.32-5.74-9.3-12.1-2.87-18.7-9.62-22.3-15.8 0.85-2.27 1.47-4.45 1.89-6.45 11.1-6.1 38-22.7 39.3-41.1 0.378-5.31-1.14-13-10.6-19.7zm-73.5 18.6c-0.057-0.802-0.208-2.93 4.04-5.93 2.31-1.63 4.25-2.19 5.88-2.19 1.85 0 3.28 0.727 4.36 1.44 7.75 5.12 11 18.4 10.5 31.4-11.8-7.48-24.2-17.8-24.7-24.7zm68.6 0c-0.496 6.99-12.9 17.3-24.7 24.7-0.524-13 2.71-26.3 10.5-31.4 1.08-0.715 2.52-1.44 4.37-1.44 1.62 0 3.57 0.562 5.88 2.19 4.25 3 4.1 5.13 4.04 5.93z" fill="#f9efda"/><path d="m433 576c40.8 0 64.3-26 54.9-35.3s-19.5 8.8-27.5 8.8 3.39-16-4.93-19.2-15 18.1-23.4 18.1-15-21.3-23.4-18.1c-8.32 3.19 3.01 19.2-4.93 19.2s-18.1-18.1-27.5-8.8c-9.33 9.33 14.1 35.3 54.9 35.3" fill="#b3e59f"/><path d="m432 576h-0.44c-40.8 0-64.3-26-54.9-35.3 9.33-9.33 19.5 8.8 27.5 8.8 0.783 0 1.38-0.155 1.82-0.44 1.68 11.4 11.5 27 26.1 27z" fill="#95d6a4"/><path d="m432 574c-38.2 0-69.2 0.613-69.2 38.8 0 8.18 1.42 17.4 4.03 26.9 5.24 19.1 15.3 39.1 28.3 53.2 1.79 1.96 3.64 3.81 5.53 5.53 9.42 8.54 20.1 13.9 31.4 13.9 16.8 0 32.1-11.8 44.1-28.3 15.3-21.1 25.1-49.8 25.1-71.3 0-38.2-31-38.8-69.2-38.8z" fill="#dd636e"/><path d="m432 712c-38.2 0-69.2-61.3-69.2-99.6 0-38.2 31-38.8 69.2-38.8-17.9 0-32.4 0.614-32.4 38.8 1e-3 38.2 14.5 99.6 32.4 99.6z" fill="#da4a54"/><g fill="#664545"><path d="m395 631c-4.27 0-7.73-3.46-7.73-7.73v-10c0-4.27 3.46-7.73 7.73-7.73s7.73 3.46 7.73 7.73v10c0 4.27-3.46 7.73-7.73 7.73z"/><path d="m432 631c-4.27 0-7.73-3.46-7.73-7.73v-10c0-4.27 3.46-7.73 7.73-7.73s7.73 3.46 7.73 7.73v10c0 4.27-3.46 7.73-7.73 7.73z"/><path d="m469 631c-4.27 0-7.73-3.46-7.73-7.73v-10c0-4.27 3.46-7.73 7.73-7.73 4.27 0 7.73 3.46 7.73 7.73v10c0 4.27-3.46 7.73-7.73 7.73z"/><path d="m414 674c-4.27 0-7.73-3.46-7.73-7.73v-10c0-4.27 3.46-7.73 7.73-7.73 4.27 0 7.73 3.46 7.73 7.73v10c0 4.27-3.46 7.73-7.73 7.73z"/><path d="m451 674c-4.27 0-7.73-3.46-7.73-7.73v-10c0-4.27 3.46-7.73 7.73-7.73s7.73 3.46 7.73 7.73v10c1e-3 4.27-3.46 7.73-7.73 7.73z"/></g></g></g></g></g><g transform="matrix(.24 0 0 .237 508 539)" style="clip-rule:evenodd;fill-rule:evenodd;image-rendering:optimizeQuality;shape-rendering:geometricPrecision;text-rendering:geometricPrecision"><g><title>background</title><rect x="-1" y="-1" width="514" height="514" fill="none"/><g x="0" y="0" width="100%" height="100%" display="none" overflow="visible"><rect width="100%" height="100%" fill="url(#gridpattern)" stroke-width="0"/></g></g><g><title>Layer 1</title><g stroke="null"><g transform="matrix(.992 0 0 .992 -170 -279)" stroke="null"><path d="m591 436c-106-7.06-212-7.06-318 0-31.8 2.12-57.4 26.9-60.4 58.6-7.35 79.1-7.35 158 0 237 2.95 31.7 28.6 56.5 60.4 58.6 106 7.06 212 7.06 318 0 31.8-2.12 57.4-26.9 60.4-58.6 7.35-79.1 7.35-158 0-237-2.95-31.7-28.6-56.5-60.4-58.6z" fill="#dd636e"/><path d="m287 740c1.31 22.6 9.31 41.8 20.8 52.8-11.4-0.594-22.9-1.28-34.3-2.04-31.8-2.11-57.4-26.9-60.4-58.6-7.35-79.1-7.35-158 0-237 2.95-31.7 28.6-56.5 60.4-58.6 11.4-0.758 22.9-1.44 34.3-2.04-11.5 11-19.5 30.2-20.8 52.8-4.87 84.3-4.87 169 0 253z" fill="#da4a54"/><ellipse cx="432" cy="619" rx="152" ry="120" fill="#f9efda"/><path d="m568 385h-0.035c6.39-4.23 11-11 12.4-19 3.2-18.8 3.2-37.6 0-56.4-2.26-13.3-13.5-23.2-27-23.7-81-2.7-162-2.7-243 0-13.5 0.45-24.7 10.4-27 23.7-3.2 18.8-3.2 37.6 0 56.4 1.36 8 5.98 14.8 12.4 19h-0.035c-46.2 29.3-109 46.1-88.7 85.4 20.3 39.3 74.1-23.1 106-18 31.9 5.07-12.5 84 25.4 84 37.9 0 58.8-66 93.4-66s55.5 66 93.4 66-6.54-78.9 25.4-84 85.7 57.3 106 18c20.3-39.3-42.5-56.1-88.7-85.4z" fill="#ffe07d"/><path d="m356 366c0.7 7.99 3.05 21.9 6.3 26.1l-0.02-7.15c-19.7 24.5-45.4 40.3-47.1 67.9-0.731-0.237-1.5-0.412-2.34-0.546-31.9-5.07-85.7 57.3-106 18-20.3-39.3 42.5-56.1 88.7-85.4h0.031c-6.39-4.22-11-11-12.4-19-3.19-18.8-3.19-37.6 0-56.4 2.26-13.3 13.5-23.2 27-23.7 17.9-0.597 35.7-1.06 53.6-1.39-4.03 5.64-7 15.9-7.79 25.1-1.63 18.8-1.63 37.6-1e-3 56.4z" fill="#ffd064"/><path d="m432 403c-49 0-98-3.24-147-9.71-4.23-0.563-7.2-4.45-6.64-8.68 0.563-4.23 4.46-7.2 8.68-6.64 96 12.8 193 12.8 289 0 4.23-0.561 8.12 2.41 8.68 6.64 0.562 4.23-2.41 8.12-6.64 8.68-48.7 6.47-97.7 9.71-147 9.71z" fill="#f9efda"/><path d="m471 335c-8.97-6.32-19.1-6.7-27.7-1.01-4.74 3.13-8.61 7.8-11.5 13.5-2.9-5.72-6.77-10.4-11.5-13.5-8.6-5.68-18.7-5.32-27.7 1.01-9.41 6.63-10.9 14.4-10.6 19.7 1.31 18.4 28.3 35.1 39.4 41.1 0.384 1.76 0.974 3.94 1.86 6.37-3.57 6.15-10.2 12.9-22.4 15.8-4.15 0.983-6.72 5.14-5.74 9.3 0.842 3.55 4.01 5.95 7.51 5.95 0.589 0 1.19-0.067 1.79-0.209 12.5-2.96 21.3-9.19 27.3-16.2 5.54 6.56 14.1 13.1 27.3 16.2 0.599 0.142 1.2 0.209 1.79 0.209 3.5 0 6.67-2.39 7.51-5.95 0.982-4.15-1.59-8.32-5.74-9.3-12.1-2.87-18.7-9.62-22.3-15.8 0.85-2.27 1.47-4.45 1.89-6.45 11.1-6.1 38-22.7 39.3-41.1 0.378-5.31-1.14-13-10.6-19.7zm-73.5 18.6c-0.057-0.802-0.208-2.93 4.04-5.93 2.31-1.63 4.25-2.19 5.88-2.19 1.85 0 3.28 0.727 4.36 1.44 7.75 5.12 11 18.4 10.5 31.4-11.8-7.48-24.2-17.8-24.7-24.7zm68.6 0c-0.496 6.99-12.9 17.3-24.7 24.7-0.524-13 2.71-26.3 10.5-31.4 1.08-0.715 2.52-1.44 4.37-1.44 1.62 0 3.57 0.562 5.88 2.19 4.25 3 4.1 5.13 4.04 5.93z" fill="#f9efda"/><path d="m433 576c40.8 0 64.3-26 54.9-35.3s-19.5 8.8-27.5 8.8 3.39-16-4.93-19.2-15 18.1-23.4 18.1-15-21.3-23.4-18.1c-8.32 3.19 3.01 19.2-4.93 19.2s-18.1-18.1-27.5-8.8c-9.33 9.33 14.1 35.3 54.9 35.3" fill="#b3e59f"/><path d="m432 576h-0.44c-40.8 0-64.3-26-54.9-35.3 9.33-9.33 19.5 8.8 27.5 8.8 0.783 0 1.38-0.155 1.82-0.44 1.68 11.4 11.5 27 26.1 27z" fill="#95d6a4"/><path d="m432 574c-38.2 0-69.2 0.613-69.2 38.8 0 8.18 1.42 17.4 4.03 26.9 5.24 19.1 15.3 39.1 28.3 53.2 1.79 1.96 3.64 3.81 5.53 5.53 9.42 8.54 20.1 13.9 31.4 13.9 16.8 0 32.1-11.8 44.1-28.3 15.3-21.1 25.1-49.8 25.1-71.3 0-38.2-31-38.8-69.2-38.8z" fill="#dd636e"/><path d="m432 712c-38.2 0-69.2-61.3-69.2-99.6 0-38.2 31-38.8 69.2-38.8-17.9 0-32.4 0.614-32.4 38.8 1e-3 38.2 14.5 99.6 32.4 99.6z" fill="#da4a54"/><g fill="#664545"><path d="m395 631c-4.27 0-7.73-3.46-7.73-7.73v-10c0-4.27 3.46-7.73 7.73-7.73s7.73 3.46 7.73 7.73v10c0 4.27-3.46 7.73-7.73 7.73z"/><path d="m432 631c-4.27 0-7.73-3.46-7.73-7.73v-10c0-4.27 3.46-7.73 7.73-7.73s7.73 3.46 7.73 7.73v10c0 4.27-3.46 7.73-7.73 7.73z"/><path d="m469 631c-4.27 0-7.73-3.46-7.73-7.73v-10c0-4.27 3.46-7.73 7.73-7.73 4.27 0 7.73 3.46 7.73 7.73v10c0 4.27-3.46 7.73-7.73 7.73z"/><path d="m414 674c-4.27 0-7.73-3.46-7.73-7.73v-10c0-4.27 3.46-7.73 7.73-7.73 4.27 0 7.73 3.46 7.73 7.73v10c0 4.27-3.46 7.73-7.73 7.73z"/><path d="m451 674c-4.27 0-7.73-3.46-7.73-7.73v-10c0-4.27 3.46-7.73 7.73-7.73s7.73 3.46 7.73 7.73v10c1e-3 4.27-3.46 7.73-7.73 7.73z"/></g></g></g></g></g><g transform="matrix(.259 0 0 .229 339 689)" style="clip-rule:evenodd;fill-rule:evenodd;image-rendering:optimizeQuality;shape-rendering:geometricPrecision;text-rendering:geometricPrecision"><g><title>background</title><rect x="-1" y="-1" width="514" height="514" fill="none"/><g x="0" y="0" width="100%" height="100%" display="none" overflow="visible"><rect width="100%" height="100%" fill="url(#gridpattern)" stroke-width="0"/></g></g><g><title>Layer 1</title><g stroke="null"><path d="m401 511h-289l-6.4-8a291 291 0 0 1-55-252l37.3-149h337l37.3 149a291 291 0 0 1-55 252z" fill="#ebebeb"/><g transform="matrix(1.51 0 0 1.51 -2629 -3429)" fill="#e4e4e2"><path d="m2054 2444-24.8-99.2h-207l-24.8 99.2a193 193 0 0 0 36.5 167l4.25 5.32h175l4.25-5.32a193 193 0 0 0 36.5-167z"/><path d="m2054 2444-24.8-99.2h-207l-24.8 99.2a193 193 0 0 0 36.5 167l4.25 5.32h175l4.25-5.32a193 193 0 0 0 36.5-167z"/></g><path d="m69.5 174h373l-9.03-36.1h-355z" fill="#d2d2d1"/><rect transform="matrix(1.51 0 0 1.51 -2629 -3429)" x="1789" y="2281" width="256" height="64" rx="16" fill="#ce9c77"/><g fill="#be906e"><path d="m509 174c-31.6 0-31.6 24.1-63.3 24.1s-31.6-48.2-63.2-48.2c-31.6 0-31.6 48.2-63.2 48.2s-31.6-48.2-63.2-48.2-31.6 48.2-63.2 48.2c-31.6 0-31.6-48.2-63.2-48.2s-31.6 48.2-63.2 48.2-31.6-24.1-63.2-24.1v-0.0662a50.5 50.5 0 0 1 34.1-47.8l47.2-24.4h343l47.1 24.4a50.5 50.5 0 0 1 34.1 47.8z"/><path d="m401 65.2h-48.2a12 12 0 0 1 0-24.1h48.2a12 12 0 0 1-1e-5 24.1z"/><path d="m304 65.2h-12a12 12 0 0 1 0-24.1h12a12 12 0 0 1 0 24.1z"/></g><path d="m473 125v-0.686l-45.2-23.4h-343l-46.5 24.1z" fill="#b28768"/><path d="m462 251-1.2-4.84h-409l-1.2 4.84a291 291 0 0 0 55 252l6.4 8h289l6.4-8a291 291 0 0 0 55-252z" fill="#ffc45b"/><path d="m462 251-1.2-4.84h-383l-1.2 4.84a291 291 0 0 0 55 252l6.4 8h263l6.4-8a291 291 0 0 0 55-252z" fill="#fdb62f"/><path d="m190 381v38.1l33 19 33-19v-38.1l48.2-3.06-12-12-36.1-48.2v12l-24.1 24.1-8.89 8.1z" fill="#d38e14"/><path d="m118 425a12.1 12.1 0 0 1-11-7.23l-5.84-13.4a223 223 0 0 1-16.1-123 12 12 0 1 1 23.8 3.64 199 199 0 0 0 14.4 110l5.85 13.4a12.1 12.1 0 0 1-11 16.9z" fill="#ffc45b"/><path d="m223 324v38.1l33 19 33-19v-38.1l-33-19z" fill="#dc9315"/><path d="m256 381v38.1l33 19 33-19v-38.1l-33-19z" fill="#ec9e15"/></g></g></g><g transform="matrix(.353 0 0 .353 138 659)"><g><title>background</title><rect x="-1" y="-1" width="514" height="514" fill="none"/><g x="0" y="0" width="100%" height="100%" display="none" overflow="visible"><rect width="100%" height="100%" fill="url(#gridpattern)" stroke-width="0"/></g></g><g><title>Layer 1</title><g stroke="null"><g transform="matrix(1.13 0 0 1.13 -1800 -2225)"><title transform="translate(1599 1901)">background</title><rect x="1598" y="1900" width="514" height="514" fill="none"/><g display="none"><rect x="1599" y="1901" width="512" height="512" fill="url(#gridpattern)" stroke="null" stroke-width="0"/></g></g><g transform="matrix(1.13 0 0 1.13 -1800 -2225)"><title transform="translate(1599 1901)">Layer 1</title><polygon points="2011 2077 1805 2115 1805 1980 1949 2007" fill="#fff3ad"/><polygon points="1694 2008 1810 1980 1810 2115 1632 2077" fill="#fff"/><path d="m1783 2194 27.3 204 103-13.8c61.2-32.6 102-93.5 102-163z" fill="#c7cacc"/><path d="m1605 2221c0 69.8 41.2 131 102 163l103 13.8v-204z" fill="#e4e7e9"/><path d="m1988 2071c0 50.8 27.3 100 27.3 151-31 0-47.9 8.45-61.4 15.2-11.6 5.81-20.8 10.4-41.1 10.4-20.3 0-29.4-4.59-41.1-10.4-13.6-6.78-30.4-15.2-61.4-15.2l-54.7-75.4 54.7-75.4z" fill="#c7cacc"/><path d="m1810 2071v151c-31 0-47.9 8.45-61.4 15.2-11.6 5.81-20.8 10.4-41.1 10.4-20.3 0-29.4-4.59-41.1-10.4-13.6-6.78-30.4-15.2-61.4-15.2 0-50.8 27.3-100 27.3-151z" fill="#e4e7e9"/><polygon points="1791 2398 1810 2385 1913 2385 1913 2412 1810 2412" fill="#2178ba"/><polygon points="1865 2057 1893 2066 1920 2057 2015 2057 2015 2084 1920 2084 1894 2075 1865 2084 1810 2084 1791 2071 1810 2057" fill="#2178ba"/><rect transform="matrix(1.23 0 0 1.23 -1922 -2345)" x="2873" y="3586" width="167" height="22.3" fill="#59a8ed"/><rect transform="matrix(1.23 0 0 1.23 -1922 -2345)" x="2956" y="3853" width="83.6" height="22.3" fill="#59a8ed"/><g transform="rotate(-.817 1970 2130)"><g stroke="null"><path d="m1992 2110c-1.68-6.46-2.45-13.1-2.33-19.7-4.82-1.43-9.72-2.62-14.7-3.58-10.9-2.09-22.1 0.998-30.4 8.35-14.6 12.9-16.5 34.9-4.48 50.2 8.3 10.5 21.5 15.9 34.8 14.3 7.51-0.922 15.1 0.822 21.4 4.92l11.8 7.64z" fill="#3e4b58" stroke="null"/></g></g><circle transform="matrix(.788 0 0 .788 -2891 -735)" cx="5965" cy="3779" r="32.1" fill="#fda354"/><path d="m1822 2221h-26.3c-7.31 4.44-12.2 12.5-12.2 21.7 0 4.45 1.15 8.63 3.17 12.3h44.3c2.02-3.63 3.17-7.81 3.17-12.3 0-9.18-4.88-17.2-12.2-21.7z" opacity=".1"/><path d="m1829 2152h-40.6c-7.07 0-13.3 4.67-15.2 11.5l-2.82 9.74c-4.63 16-6.98 32.6-6.98 49.3v10.3c0 5.46 4.43 9.89 9.89 9.89h70.9c5.46 0 9.89-4.43 9.89-9.89v-10.3c0-16.7-2.35-33.3-6.98-49.3l-2.82-9.74c-1.96-6.79-8.18-11.5-15.2-11.5z" fill="#fda354"/><path d="m1848 2173-2.82-9.74c-1.96-6.79-8.18-11.5-15.2-11.5h-14.4c7.07 0 13.3 4.67 15.2 11.5l2.82 9.74c4.63 16 6.98 32.6 6.98 49.3v10.3c0 5.46-4.43 9.89-9.89 9.89h14.4c5.46 0 9.89-4.43 9.89-9.89v-10.3c0-16.7-2.35-33.3-6.98-49.3z" opacity=".1"/><g transform="rotate(12.9 1657 2164)"><g transform="matrix(1.03 0 0 1.03 -4300 -404)" stroke="null"><path d="m5833 2523-17.4-17.3c-8.54-8.48-9.43-22-2.08-31.5 8.06-10.5 6.1-25.5-4.37-33.5-13.5-10.3-29.7-12.4-43.9-8.07v108c0 19.3 15.7 35 35 35h34c3.89-4.26 6.86-9.45 8.5-15.3 3.72-13.2-0.029-27.5-9.79-37.2z" fill="#3e4b58" stroke="null"/></g></g><g transform="rotate(146 1934 2287)"><path d="m1900 2252 19.3-7.17c8.74-3.25 18.4-3.11 27 0.377l22.9 9.26c23.8 9.62 31.1 39.9 14.2 59.3l-4.46 5.11c-8.74 10-22.1 14.7-35.2 12.2l-37.8-7.2c-20.1-3.83-33.4-23.1-29.8-43.3 2.32-13.1 11.4-23.9 23.8-28.5z" fill="#3e4b58" stroke="null"/></g><g transform="rotate(104 1758 2359)"><g stroke="null"><path d="m1780 2340c-1.68-6.46-2.45-13.1-2.33-19.7-4.82-1.43-9.72-2.62-14.7-3.58-10.9-2.09-22.1 0.998-30.4 8.35-14.6 12.9-16.5 34.9-4.48 50.2 8.3 10.5 21.5 15.9 34.8 14.3 7.51-0.922 15.1 0.822 21.4 4.92l11.8 7.64z" fill="#3e4b58" stroke="null"/></g></g></g></g></g></g><g transform="matrix(.275 0 0 .275 642 669)"><g><title>background</title><rect x="-1" y="-1" width="514" height="514" fill="none"/><g x="0" y="0" width="100%" height="100%" display="none" overflow="visible"><rect width="100%" height="100%" fill="url(#gridpattern)" stroke-width="0"/></g></g><g><title>Layer 1</title><g stroke="null"><g transform="matrix(1.05 0 0 1.05 -128 -91.5)" stroke="null"><path d="m501 163v-24h-256v24c-17.7 0-32 14.3-32 32v344c0 17.7 14.3 32 32 32h256c17.7 0 32-14.3 32-32v-344c0-17.7-14.3-32-32-32z" fill="#91b945"/><path d="m245 139h256v24h-256z" fill="#69a041"/><path d="m373 539h-160c0 17.7 14.3 32 32 32h256c17.7 0 32-14.3 32-32v-344h-152c-4.42 0-8 3.58-8 8z" fill="#69a041"/><path d="m501 90.6h-256c-4.42 0-8 3.58-8 8v32c0 4.42 3.58 8 8 8h256c4.42 0 8-3.58 8-8v-32c0-4.42-3.58-8-8-8z" fill="#fabe19"/><path d="m373 139h128c4.42 0 8-3.58 8-8v-32h-128c-4.42 0-8 3.58-8 8z" fill="#f5871e"/><path d="m213 251h320v224h-320z" fill="#fabe19"/><path d="m373 251h160v224h-160z" fill="#f5871e"/><circle cx="373" cy="363" r="112" fill="#d7e6e6"/><circle cx="329" cy="215" r="12" fill="#69a041"/><circle cx="225" cy="504" r="12" fill="#69a041"/><circle cx="489" cy="223" r="12" fill="#4b8c41"/><circle cx="261" cy="227" r="8" fill="#69a041"/><circle cx="301" cy="531" r="8" fill="#69a041"/><circle cx="445" cy="515" r="8" fill="#4b8c41"/><path d="m365 418-30.2 0.172c-4.85 0.028-9.5-1.88-12.9-5.31-3.4-3.4-5.31-8.01-5.31-12.8v-29.8c0-44.2 35.8-80 80-80h29.8c4.82 0 9.45 1.92 12.9 5.33 3.42 3.42 5.34 8.06 5.33 12.9l-0.042 29.7c-0.063 44-35.6 79.6-79.5 79.9z" fill="#4b8c41"/><path d="m440 296-0.016-0.016c-3.42-3.42-8.05-5.33-12.9-5.33h-29.8c-44.2 0-80 35.8-80 80v29.8c0 4.83 1.92 9.46 5.33 12.9z" fill="#69a041"/><path d="m309 431c-1.02 0-2.05-0.391-2.83-1.17-1.56-1.56-1.56-4.1 0-5.66l131-131c1.56-1.56 4.1-1.56 5.66 0 1.56 1.56 1.56 4.1 0 5.66l-131 131c-0.782 0.781-1.81 1.17-2.83 1.17z" fill="#91b945"/><circle cx="376" cy="317" r="10.7" fill="#91b945"/><path d="m245 187c-4.42 0-8 3.58-8 8v56h16v-56c0-4.42-3.58-8-8-8z" fill="#afd763"/><path d="m237 475h16v64h-16z" fill="#afd763"/><path d="m237 251h16v224h-16z" fill="#ffdc37"/></g></g></g></g><g transform="matrix(.275 0 0 .275 552 683)"><g><title>background</title><rect x="-1" y="-1" width="514" height="514" fill="none"/><g x="0" y="0" width="100%" height="100%" display="none" overflow="visible"><rect width="100%" height="100%" fill="url(#gridpattern)" stroke-width="0"/></g></g><g><title>Layer 1</title><g stroke="null"><g transform="matrix(1.05 0 0 1.05 -128 -91.5)" stroke="null"><path d="m501 163v-24h-256v24c-17.7 0-32 14.3-32 32v344c0 17.7 14.3 32 32 32h256c17.7 0 32-14.3 32-32v-344c0-17.7-14.3-32-32-32z" fill="#91b945"/><path d="m245 139h256v24h-256z" fill="#69a041"/><path d="m373 539h-160c0 17.7 14.3 32 32 32h256c17.7 0 32-14.3 32-32v-344h-152c-4.42 0-8 3.58-8 8z" fill="#69a041"/><path d="m501 90.6h-256c-4.42 0-8 3.58-8 8v32c0 4.42 3.58 8 8 8h256c4.42 0 8-3.58 8-8v-32c0-4.42-3.58-8-8-8z" fill="#fabe19"/><path d="m373 139h128c4.42 0 8-3.58 8-8v-32h-128c-4.42 0-8 3.58-8 8z" fill="#f5871e"/><path d="m213 251h320v224h-320z" fill="#fabe19"/><path d="m373 251h160v224h-160z" fill="#f5871e"/><circle cx="373" cy="363" r="112" fill="#d7e6e6"/><circle cx="329" cy="215" r="12" fill="#69a041"/><circle cx="225" cy="504" r="12" fill="#69a041"/><circle cx="489" cy="223" r="12" fill="#4b8c41"/><circle cx="261" cy="227" r="8" fill="#69a041"/><circle cx="301" cy="531" r="8" fill="#69a041"/><circle cx="445" cy="515" r="8" fill="#4b8c41"/><path d="m365 418-30.2 0.172c-4.85 0.028-9.5-1.88-12.9-5.31-3.4-3.4-5.31-8.01-5.31-12.8v-29.8c0-44.2 35.8-80 80-80h29.8c4.82 0 9.45 1.92 12.9 5.33 3.42 3.42 5.34 8.06 5.33 12.9l-0.042 29.7c-0.063 44-35.6 79.6-79.5 79.9z" fill="#4b8c41"/><path d="m440 296-0.016-0.016c-3.42-3.42-8.05-5.33-12.9-5.33h-29.8c-44.2 0-80 35.8-80 80v29.8c0 4.83 1.92 9.46 5.33 12.9z" fill="#69a041"/><path d="m309 431c-1.02 0-2.05-0.391-2.83-1.17-1.56-1.56-1.56-4.1 0-5.66l131-131c1.56-1.56 4.1-1.56 5.66 0 1.56 1.56 1.56 4.1 0 5.66l-131 131c-0.782 0.781-1.81 1.17-2.83 1.17z" fill="#91b945"/><circle cx="376" cy="317" r="10.7" fill="#91b945"/><path d="m245 187c-4.42 0-8 3.58-8 8v56h16v-56c0-4.42-3.58-8-8-8z" fill="#afd763"/><path d="m237 475h16v64h-16z" fill="#afd763"/><path d="m237 251h16v224h-16z" fill="#ffdc37"/></g></g></g></g><path d="m149 792h202v80.6h-202v-80.6" style="fill:#e59351"/><path d="m313 737v-64.6l54.9 120v80.6l-54.9-136" style="fill:#ffb675"/><path d="m536 737v-64.6l54.9 120v80.6l-54.9-136" style="fill:#ffb675"/><path d="m591 792h202v80.6h-202v-80.6" style="fill:#e59351"/><g transform="matrix(.259 0 0 .229 427 678)" style="clip-rule:evenodd;fill-rule:evenodd;image-rendering:optimizeQuality;shape-rendering:geometricPrecision;text-rendering:geometricPrecision"><g><title>background</title><rect x="-1" y="-1" width="514" height="514" fill="none"/><g x="0" y="0" width="100%" height="100%" display="none" overflow="visible"><rect width="100%" height="100%" fill="url(#gridpattern)" stroke-width="0"/></g></g><g><title>Layer 1</title><g stroke="null"><path d="m401 511h-289l-6.4-8a291 291 0 0 1-55-252l37.3-149h337l37.3 149a291 291 0 0 1-55 252z" fill="#ebebeb"/><g transform="matrix(1.51 0 0 1.51 -2629 -3429)" fill="#e4e4e2"><path d="m2054 2444-24.8-99.2h-207l-24.8 99.2a193 193 0 0 0 36.5 167l4.25 5.32h175l4.25-5.32a193 193 0 0 0 36.5-167z"/><path d="m2054 2444-24.8-99.2h-207l-24.8 99.2a193 193 0 0 0 36.5 167l4.25 5.32h175l4.25-5.32a193 193 0 0 0 36.5-167z"/></g><path d="m69.5 174h373l-9.03-36.1h-355z" fill="#d2d2d1"/><rect transform="matrix(1.51 0 0 1.51 -2629 -3429)" x="1789" y="2281" width="256" height="64" rx="16" fill="#ce9c77"/><g fill="#be906e"><path d="m509 174c-31.6 0-31.6 24.1-63.3 24.1s-31.6-48.2-63.2-48.2c-31.6 0-31.6 48.2-63.2 48.2s-31.6-48.2-63.2-48.2-31.6 48.2-63.2 48.2c-31.6 0-31.6-48.2-63.2-48.2s-31.6 48.2-63.2 48.2-31.6-24.1-63.2-24.1v-0.0662a50.5 50.5 0 0 1 34.1-47.8l47.2-24.4h343l47.1 24.4a50.5 50.5 0 0 1 34.1 47.8z"/><path d="m401 65.2h-48.2a12 12 0 0 1 0-24.1h48.2a12 12 0 0 1-1e-5 24.1z"/><path d="m304 65.2h-12a12 12 0 0 1 0-24.1h12a12 12 0 0 1 0 24.1z"/></g><path d="m473 125v-0.686l-45.2-23.4h-343l-46.5 24.1z" fill="#b28768"/><path d="m462 251-1.2-4.84h-409l-1.2 4.84a291 291 0 0 0 55 252l6.4 8h289l6.4-8a291 291 0 0 0 55-252z" fill="#ffc45b"/><path d="m462 251-1.2-4.84h-383l-1.2 4.84a291 291 0 0 0 55 252l6.4 8h263l6.4-8a291 291 0 0 0 55-252z" fill="#fdb62f"/><path d="m190 381v38.1l33 19 33-19v-38.1l48.2-3.06-12-12-36.1-48.2v12l-24.1 24.1-8.89 8.1z" fill="#d38e14"/><path d="m118 425a12.1 12.1 0 0 1-11-7.23l-5.84-13.4a223 223 0 0 1-16.1-123 12 12 0 1 1 23.8 3.64 199 199 0 0 0 14.4 110l5.85 13.4a12.1 12.1 0 0 1-11 16.9z" fill="#ffc45b"/><path d="m223 324v38.1l33 19 33-19v-38.1l-33-19z" fill="#dc9315"/><path d="m256 381v38.1l33 19 33-19v-38.1l-33-19z" fill="#ec9e15"/></g></g></g><path d="m368 792h202v80.6h-202v-80.6" style="fill:#e59351"/><path d="m121 878h771c4.83 0 8.74-4.23 8.74-9.46s-3.91-9.47-8.74-9.47h-771c-4.83 0-8.74 4.24-8.74 9.47s3.91 9.46 8.74 9.46" style="fill:#ffb675"/><path d="m367 443-83 80.2s-51-76.6-28-101c25.2-27 111 21.1 111 21.1z" style="fill:url(#linearGradient15770-7)"/><path d="m428 441-27.4 16.5-24.9-59.4c22.7 11.9 38.8 25.6 52.3 42.9z" style="fill:url(#linearGradient67865-6)"/><path d="m670 399c2.16-3.38 6.75-5.89-2.47-15.9-5.66-6.12-2.55-15.3-8.25-11.6-2.42 1.57-0.9 9.52-2.5 9.69-1.6 0.172-18.9-7.58-23.2-1.69-4.25 5.87 9.4 13.5 18 18.2 5.54 3.03 14.5 7.46 18.4 1.34" fill="#ff6161"/><path d="m879 464s-66.3 10.6-83.6 2.32c-41.6-24-111-70.4-123-75.5 0 0-5.35 7-6.68 11.6 9.99 8.05 84.8 95.2 106 105 54.5 22.3 124-5.83 107-42.9" fill="#7f3a19" fill-opacity=".953"/><g transform="translate(1.9 69.9)"><circle cx="673" cy="368" r=".574" fill="#250" style="paint-order:markers fill stroke"/><path d="m890 339s-2.92 3.07 6.57 1.3c9.49-1.78 9.4 5.46 11.9 16.6 2.48 11.2 9.16 22.8-9.68 27.9-10.5 2.84-26.8-1.26-28.7-17.7-1.24-10.7 2.04-31.4 19.9-28.1" fill="#602f0f"/><path d="m795 751s129 16.5 157-6.46c28.4-23-40.6-161-70.4-155-29.8 5.9-92.9 145-86.8 161" fill="url(#linearGradient9943)" style="fill:url(#linearGradient9943-1)"/><path d="m957 737c-8.62-2.95 5.48-129 6.07-140 2.34-43.6-12.5-66.5-24.9-82.7-45.2 9.51-83.5 0.302-102-6.07-3.76 8.1-7.86 16.1-10.6 22.5-12.4 28.4-22 45-27.7 108-7.36 81.5 16.8 190 82.9 294 3.51 5.54 19.4 0.624 19.4 0.624 0.645-8.47-10.1-130-35.1-174-9.11-16 4.48-147 8.39-147 2.79 0.422-24.6 201 170 218l6.08-16.4s-40.8-60.5-92.6-78.3" fill="#ff6161"/><path d="m904 911c-14.7 3.85-25.7-0.333-42.9 1.19-65.8-75.5-69.6-209-63.8-273 5.72-63.3 15.4-80 27.7-108 4.58-10.5 12.9-25.8 17.2-38.2 20.1 0.154 58.7 0.392 81.1 0.194 7.07 19.4 43.2 38.1 39.6 104-0.59 11.1-14.7 137-6.07 140 28.1 6.4 70.8 47.3 84.3 65.9-8.86 10.4-10.5 17.9-29 31.3-180-32.9-137-220-139-220-3.91-0.59-11 131-1.85 147 33.6 73.7 32.1 114 33.1 150" fill="url(#linearGradient4285)" style="fill:url(#linearGradient4285-1)"/><path d="m957 737c-8.62-2.95 5.48-129 6.07-140 3.56-66.2-32.5-84.9-39.6-104-6.97 0.0577-15.5 0.0824-24.6 0.066 0.511 37.4 2.82 86.4 11 104 13.9 30.5 3.2 118 15.5 138 8.51 14.1 7.59 43.7 0.813 60.9 12.9 12.7 56 35 86.2 38 18.5-13.5 20.2-21 29-31.3-15.8-22.5-56.1-58.4-84.3-65.9" fill="#338000"/><path d="m938 515c-6.97-9.07-13.2-16-15.2-23.2-6.73-24 39.2-49.9 15.2-81-10.4-13.4-66.8-25.7-80.9-8.65-3.46 4.19-17.4 14.9-19.1 22.6-3.64 16.3 7.28 34.5 7.08 55.7-0.0576 7.12-4.4 17.8-9.32 28.4 18.9 6.37 57.1 15.6 102 6.07" fill="url(#linearGradient4245)" style="fill:url(#linearGradient4245-8)"/><path d="m842 714c1.44 43.8-11.7 90.6-29.5 102 5.22 17.9 27 84.2 49.2 97.1 17.4 0.0821 25.6 2.24 42.9-1.19 8.88-37.9-20.9-129-33.1-150-8.62-15.1-2.78-133 1.18-146-4.59 7.38-32.2 53.7-30.8 98.5" fill="#338000"/><path d="m901 395s-11 56.4-11.9 77.7c-2.72 68.9 6.05 174 17.4 234 5.13 27.3 30.2 46.4 57.9 43.8 21.1-1.96 46.9-9.07 72.5-28 0 0-55-28.1-56.1-74.5-1.18-46.4-12.9-112-25.2-133-12.2-21.7-19.3-40.8-13.8-55 5.51-14.2 27.1-54.7-40.9-64.8" fill="url(#linearGradient4261)" style="fill:url(#linearGradient4261-7)"/><path d="m906 936c-4.32-5.5-4.17-9.16-5.01-14.4 0 0-27.3-10.6-30.7-3.62-1.74 3.56 6.86 8.87 3.96 14.3-1.26 2.36-3.12 4.64-8.68 7.45-8.74 5.29-19.5 12.1-19.7 15.2-0.283 5.2 53.1 1.31 61.6-4.32 4.46-2.94 3.2-8.61-1.54-14.6" fill="url(#linearGradient4293)" style="fill:url(#linearGradient4293-6)"/><path d="m1062 810c-5.2 0.0743-8.96-0.828-12.4-2.32-2.46-1.05-5.29-0.634-7.46 0.942-7.32 5.33-21.9 17.5-16.3 26.5 2.11 3.35 15.4 4.68 14.3 10.8-1.1 10.2-2.24 22.8 0.144 24.9 3.97 3.38 33.3-41.4 34-51.6 0.362-5.33-4.51-9.29-12.2-9.18" fill="url(#linearGradient4301)" style="fill:url(#linearGradient4301-1)"/><path d="m885 397s-22.3 11.7-28.2 30-5.9 70.7-10 99.8c-4.13 29.1-41.4 206-43.6 223-2.25 16.1-44.2-2.65-44.2-2.65s19.2-73.7 23.9-89.7c4.72-15.9 11.2-97.3 27.7-119s25.4-62.7 27.1-68.6c1.77-5.9-10.6-41 6.49-58.1 17.1-17.1 23.7-19.7 42.9-18.4l-2.08 4.08" fill="url(#linearGradient4269)" style="fill:url(#linearGradient4269-8)"/></g><path d="m973 820c19.8-2.74 43-10.2 66.1-27.3 0 0-55-28.1-56.1-74.5-1.19-46.4-12.9-112-25.2-133-12.2-21.7-19.3-40.8-13.8-55 4.69-12.1 21-43.3-16.2-58.5-0.923 11.5-3.89 50.6-4.22 82.8-0.392 38.1 36 135 37.9 176 1.28 28.5 7.73 67.9 11.6 89.3" fill="#7f3a19" fill-opacity=".953"/><g transform="translate(1.9 69.9)"><path d="m898 372 0.68 26c0.094 4.29-10.3 15.4-17.1 10.1-2-1.56 0.521-7.48 2.32-12l4.79-22.4 9.34-1.75" fill="#ff6161"/><path d="m900 357 1.66 9.97c1.31 7.9-3.68 15.8-11.6 17.3-7.27 1.36-14.3-2.77-15.5-12-1.04-8.17 4.71-15.3 6.77-19 4.71-8.48 15.9-7.61 18.6 3.72" fill="#ff6161"/><path d="m879 370s6.49 2.9 10.3 2.73c0 0-5.05 1.69-7.25 0.67-2.18-1.02-3.06-3.4-3.06-3.4" fill="#ffe6e6"/><path d="m948 424c-7.3-17.5-103 13.5-135 13.6-31.4 0.0742-160-105-175-75.9-11.6 22.8 105 121 175 128 75.6 7.31 148-33.5 134-65.8" fill="#ff6161"/><path d="m651 357s-14.8-20.7-21-18.6c-6.17 2.15-21.3 5.66-19.6 8.02 1.71 2.36 12.5-1.4 12.5-1.4s-14 6.66-14.1 8.46c-0.0494 1.8 2.56 1.82 2.56 1.82s-0.94 2.19-0.066 3.78c0.873 1.57 13.5-1.36 13.5-1.36s11.1 23.4 24.6 14.1c13.6-9.31 1.45-14.9 1.45-14.9" fill="#ff6161"/><path d="m948 424c-0.948-6.12-11.3-23-30.5-22.9-33.1 0.234-83.6 36.3-105 36.4-49.8-16.1-107-62.1-139-73.9 0 0-17.1 20.4-21.7 27.9 18.9 33.1 103 92.6 162 98.2 75.6 7.31 146-32.3 135-65.6" fill="url(#linearGradient4253)" style="fill:url(#linearGradient4253-8)"/></g><g transform="matrix(-.538 -.0784 -.0892 .612 827 331)" stroke-width=".387px"><path d="m-142 105s-43.3 0.409-47.7 37.6c-4.2 24.6-3.6 59.7 6.28 76.2 0 0 6.32 17.7 35.7 22.5 6.52 0.539 18.5-2.16 26.3-5.6l-0.488 0.195-7.27 26 32.9 6.39-1.14-47.9s-0.672 1.83-2.63 4.26c1.01-1.28 1.9-2.69 2.63-4.26-12.2-15.1-31.8-17-31.8-17-27.4-1.23-37.8-23.1-37.8-23.1-12.9-28 6.33-46.2 6.33-46.2v-0.203c16.7-12.7 33.5-4.49 33.5-4.49 25.6 10.6 10.4 46.1 2.9 74.3l6e-3 0.224c14.6 7.83 26.9 16.4 26.9 16.4l0.277-69.5s0.227-45-44.8-45.9zm32.7 127c-0.247 0.125-0.505 0.245-0.762 0.367 0.255-0.119 0.509-0.242 0.762-0.367zm-1.23 0.592c-1.87 0.856-4 1.63-6.41 2.26 2.16-0.585 4.32-1.32 6.41-2.26zm-7.03 2.42c-0.133 0.0332-0.265 0.0673-0.4 0.0996 0.133-0.0333 0.267-0.0651 0.4-0.0996z" fill="#ffc431" stroke="#ffc431"/><path d="m-108 266 3.17-29.1 0.343 29.8zm-63.5-64.3c11.3 23.2 39.1 26 60.2 17.9-9.63 8.56-23.8 8.5-23.8 8.5-21.5-0.665-35-17.4-36.4-26.4zm73.7 13.3c-4.2-4.79-10.5-6.5-16.3-7.37 12.1 5.78 16.4 12.8 16.4 12.8z" fill="#fcb431" stroke="#fcb431"/></g><g transform="translate(1.9 69.9)"><path d="m890 343c-8.76-0.782-16.2 1.99-17.5 16.8 0 0 16.2-2.22 16.7-7.62-0.482 5.4 15.1 10.5 15.1 10.5 1.34-14.9-5.47-18.9-14.2-19.7z" clip-rule="evenodd" fill="#602f0f" fill-rule="evenodd" image-rendering="optimizeQuality" shape-rendering="geometricPrecision" stroke-width=".171"/><path d="m898 366c0.536-0.709 0.957-1.49 1.33-2.3 0.714-1.53 2.13-3.64 3.88-1.46 2.54 3.16-1.7 11.1-5.77 9.97-3.02-0.848-0.789-4.42 0.56-6.21" fill="#ff6161"/><path d="m878 364c-0.139-0.883-0.144-1.77-0.094-2.65 0.094-1.69-0.159-4.22-2.73-3.12-3.74 1.59-3.74 10.6 0.392 11.5 3.07 0.68 2.78-3.53 2.43-5.74" fill="#ff6161"/></g></g></svg>
