<svg width="512" height="512" enable-background="new 0 0 512 512" version="1.1" viewBox="0 0 512 512" xmlns="http://www.w3.org/2000/svg"><path d="m489 105c-3.31-17.9-19.3-30.6-37.5-29.9-36.2 1.47-102 12.4-177 63.7 18.9 48.5 32.6 111 32.6 190 0 95.7-45.3 159-107 178 57.5 17.2 127-6.14 183-76.3 119-149 115-272 105-325z" fill="#994e37"/><path d="m139 8.93c13.7-11.9 34.2-11.9 47.9 0 41.1 35.6 121 129 121 320 0 114-64.7 183-144 183s-144-68.7-144-183c1e-3 -191 79.5-284 121-320z" fill="#cc624e"/><path d="m307 329c0 95.7-45.3 159-107 178 10.2 3.04 20.7 4.81 31.5 5.28 56-23.5 95.9-86.1 95.9-177 0-87.4-16.3-155-38.1-206-4.99 3.12-10 6.4-15.1 9.88 18.9 48.5 32.6 111 32.6 190z" fill="#8c4534"/><path d="m187 8.93c-9.38-8.13-21.9-10.7-33.3-7.73 5.28 1.38 10.3 3.96 14.7 7.73 41.1 35.6 121 129 121 320 0 110-59.7 178-135 183 3.07 0.209 6.17 0.327 9.29 0.327 79.8 0 144-68.7 144-183-1e-3 -191-79.5-284-121-320z" fill="#bc574a"/><g fill="#994e37"><path d="m199 20.3c-4.34-4.29-8.45-8.06-12.2-11.3-4.18-3.62-8.98-6.13-14-7.55 10.6 19.5 24.4 51.2 36.1 98.8 15.9 64.4 23.9 141 23.9 229 0 106-26.6 168-56.4 182 10.9-1.09 21.4-3.49 31.4-7.14 6.33-8.24 12.1-18.4 17.1-30.2 15.3-36.2 23.4-86.3 23.4-145 0-88.6-8.2-167-24.4-232-7.86-31.9-16.7-57-24.9-76.2z"/><path d="m93 329c0-87.3 8.04-164 23.9-229 11.7-47.7 25.5-79.4 36.1-98.8-5.04 1.42-9.84 3.93-14 7.55-3.78 3.28-7.89 7.05-12.2 11.3-8.25 19.3-17.1 44.3-24.9 76.2-16.2 65.6-24.4 144-24.4 232 0 58.8 8.08 109 23.4 145 5.02 11.9 10.8 22 17.1 30.2 10 3.65 20.5 6.05 31.4 7.14-29.8-14.4-56.4-76.5-56.4-182z"/><path d="m171 512v-511c-5.1-1.1-10.4-1.1-15.5 0v511c2.56 0.145 5.14 0.221 7.74 0.221 2.6 0 5.18-0.077 7.74-0.221z"/></g><g fill="#70362b"><path d="m295 207c70.1-68.2 141-115 172-129-4.92-2.14-10.4-3.22-16-2.99-4.15 0.169-8.7 0.464-13.6 0.93-36.4 20.9-91 60.2-147 113 1.46 5.7 2.83 11.5 4.12 17.5z"/><path d="m492 122c-0.727-6.22-1.6-11.9-2.54-16.9-1.02-5.5-3.24-10.5-6.36-14.8-4.46 28.1-16.9 66.3-34.1 104-28.6 62.7-70 126-123 189-12.2 14.5-24 26.7-35 37-6.59 15.8-14.9 29.8-24.7 41.8 18.8-15.3 44-36.1 71.5-68.8 53.9-64.1 96.1-129 125-193 14.7-32.3 23.6-58.8 28.9-78.7z"/><path d="m306 284c0.534 7.6 0.944 15.4 1.2 23.3l174-218c-3.3-4.04-7.43-7.34-12.1-9.66z"/></g><g fill="#5e2b25"><path d="m311 192c-5.32 4.93-10.7 10-16 15.2-1.29-5.87-2.64-11.7-4.13-17.5 5.16-4.93 10.3-9.74 15.5-14.4 1.63 5.45 3.18 11 4.66 16.8z"/><path d="m323 386c-2.19 11.5-5.12 22.3-8.72 32.5-18.6 19-35.3 32.8-48.8 43.7 5.21-6.4 9.9-13.2 14.1-20.3 2-3.43 3.9-6.93 5.65-10.5 1.77-3.59 3.3-7.29 4.98-10.9 10.3-9.71 21.4-21 32.8-34.5z"/><path d="m326 283v0.01l-19 23.8-0.01 0.01c-0.134-3.97-0.299-7.91-0.495-11.8-0.206-3.88-0.444-7.72-0.712-11.5l0.021-0.021 18-22.6c0.834 7.2 1.57 14.6 2.16 22.1z"/></g></svg>
