<svg width="512" height="512" version="1.1" xmlns="http://www.w3.org/2000/svg"><g><title>background</title><rect id="canvas_background" x="-1" y="-1" width="514" height="514" fill="none"/><g id="canvasGrid" x="0" y="0" width="100%" height="100%" display="none" overflow="visible"><rect width="100%" height="100%" fill="url(#gridpattern)" stroke-width="0"/></g></g><g><title>Layer 1</title><g stroke="null"><g transform="matrix(2.4 0 0 2.4 -93.6 -91.4)"><title transform="translate(28.7 24.8)">background</title><rect x="27.7" y="23.8" width="235" height="247" fill="none"/><g display="none"><rect x="28.7" y="24.8" width="512" height="512" fill="url(#gridpattern)" stroke="null" stroke-width="0"/></g></g><g transform="matrix(2.4 0 0 2.4 -93.6 -91.4)"><title transform="translate(28.7 24.8)">Layer 1</title><g fill="#b6cf50" stroke-opacity="null" stroke-width="null"><ellipse transform="rotate(-2.72 189 88)" cx="189" cy="88" rx="14.4" ry="14.3"/><ellipse transform="rotate(-2.72 113 64.4)" cx="113" cy="64.4" rx="14.4" ry="14.3"/><ellipse transform="rotate(-2.72 97.7 87.7)" cx="97.7" cy="87.7" rx="14.4" ry="14.3"/><ellipse transform="rotate(-2.72 136 68.7)" cx="136" cy="68.7" rx="14.4" ry="14.3"/><ellipse transform="rotate(-2.72 162 79.8)" cx="162" cy="79.8" rx="14.4" ry="14.3"/></g><g transform="matrix(.327 0 0 .392 -414 -576)" stroke="null"><path d="m1761 1674h-106c-90.9 0-165 73.7-165 165v39.8h436v-39.8c0-90.9-73.7-165-165-165z" fill="#81a54a" stroke="null"/></g><g transform="matrix(.392 0 0 .392 -576 -576)" stroke="null"><path d="m1893 1698h-106c-90.9 0-165 73.7-165 165v39.8h436v-39.8c0-90.9-73.7-165-165-165z" fill="#fdf781" stroke="null"/></g><g transform="matrix(.392 0 0 .392 -576 -576)" stroke="null"><path d="m1893 1738h-106c-90.9 0-165 73.7-165 165v39.8h436v-39.8c0-90.9-73.7-165-165-165z" fill="#ef8a35" stroke="null"/></g><g transform="matrix(.392 0 0 .392 -576 -576)" stroke="null"><path d="m1893 1768h-106c-90.9 0-165 73.7-165 165v39.8h436v-39.8c0-90.9-73.7-165-165-165z" fill="#f4b43c" stroke="null"/></g><g transform="matrix(.392 0 0 .184 -576 -135)" stroke="null"><path d="m1894 1516h-106c-90.9 0-165 73.7-165 165v39.8h436v-39.8c0-90.9-73.7-165-165-165z" fill="#98c95b" stroke="null"/></g><g transform="matrix(.392 0 0 .184 -576 -135)" stroke="null"><path d="m1894 1565h-106c-90.9 0-165 73.7-165 165v39.8h436v-39.8c0-90.9-73.7-165-165-165z" fill="#81a54a" stroke="null"/></g><g transform="matrix(.392 0 0 .149 -576 21.8)" stroke="null"><path d="m1624 1444h436v87.1h-436v-87.1z" fill="#a34b2e" stroke="null"/></g><g transform="matrix(.392 0 0 .149 -576 -6.41)" stroke="null"><path d="m1624 1547h436v87.1h-436v-87.1z" fill="#d56234" stroke="null"/></g><g transform="matrix(.392 0 0 .144 -576 -21.5)" stroke="null"><path d="m1623 1620h436v87.1h-436v-87.1z" fill="#e79334" stroke="null"/></g><g transform="matrix(.392 0 0 .27 -576 -283)" stroke="null"><path d="m1623 1748h436v87.1h-436v-87.1z" fill="#5b8836" stroke="null"/></g><g fill="#b6ab31" stroke-opacity="null" stroke-width="null"><ellipse transform="rotate(24.1 80.6 172)" cx="80.6" cy="172" rx="7.34" ry="12.7"/><ellipse transform="rotate(-8.48 96.2 182)" cx="96.2" cy="182" rx="4.86" ry="8.31"/><ellipse transform="rotate(-36.8 99.8 161)" cx="99.8" cy="161" rx="3.65" ry="7.19"/><ellipse transform="rotate(-56.9 146 171)" cx="146" cy="171" rx="3.65" ry="4.36"/><ellipse transform="rotate(38.3 219 181)" cx="219" cy="181" rx="4.43" ry="7.4"/><ellipse transform="rotate(225 130 178)" cx="130" cy="178" rx="3.65" ry="7.19"/><ellipse transform="rotate(-2.72 178 166)" cx="178" cy="166" rx="5.29" ry="5.25"/><ellipse transform="rotate(-61.9 155 163)" cx="155" cy="163" rx="5.45" ry="8.16"/><ellipse transform="rotate(-61.9 181 183)" cx="181" cy="183" rx="5.45" ry="8.16"/><ellipse transform="rotate(166 133 159)" cx="133" cy="159" rx="7.34" ry="6.25"/><ellipse transform="rotate(-61.9 117 164)" cx="117" cy="164" rx="5.45" ry="7.15"/><ellipse transform="rotate(-61.9 113 183)" cx="113" cy="183" rx="5.45" ry="8.16"/><ellipse transform="rotate(27.2 165 177)" cx="165" cy="177" rx="5.45" ry="8.16"/><ellipse transform="rotate(-61.9 193 164)" cx="193" cy="164" rx="5.45" ry="8.16"/><ellipse transform="rotate(260 147 185)" cx="147" cy="185" rx="4.65" ry="8.16"/><ellipse transform="rotate(-56.9 198 179)" cx="198" cy="179" rx="3.65" ry="4.36"/><ellipse transform="rotate(1.33 209 173)" cx="209" cy="173" rx="5.45" ry="8.16"/><ellipse transform="rotate(-56.9 167 155)" cx="167" cy="155" rx="3.96" ry="6.47"/></g><g fill="#b6cf50" stroke-opacity="null" stroke-width="null"><ellipse transform="rotate(-56.9 76.7 130)" cx="76.7" cy="130" rx="3.98" ry="5.92"/><ellipse transform="rotate(-2.72 116 109)" cx="116" cy="109" rx="5.29" ry="5.25"/><ellipse transform="rotate(-61.9 185 109)" cx="185" cy="109" rx="5.45" ry="8.16"/><ellipse transform="rotate(-61.9 205 119)" cx="205" cy="119" rx="5.45" ry="8.16"/><ellipse transform="rotate(27.2 137 105)" cx="137" cy="105" rx="5.45" ry="8.16"/><ellipse transform="rotate(260 161 112)" cx="161" cy="112" rx="4.65" ry="8.16"/><ellipse transform="rotate(23.5 89.5 115)" cx="89.5" cy="115" rx="5.45" ry="8.16"/></g><g fill="#4a9d4d" stroke-opacity="null" stroke-width="null"><ellipse transform="rotate(-56.9 163 71.8)" cx="163" cy="71.8" rx="3.7" ry="5.51"/><ellipse transform="rotate(-11.5 155 80.7)" cx="155" cy="80.7" rx="3.57" ry="5.31"/><ellipse transform="rotate(37.3 166 81.5)" cx="166" cy="81.5" rx="4.39" ry="5.4"/><ellipse transform="rotate(-56.9 139 61.5)" cx="139" cy="61.5" rx="4.63" ry="6.9"/><ellipse transform="rotate(-16.2 130 70.4)" cx="130" cy="70.4" rx="5.1" ry="7.59"/><ellipse transform="rotate(-16.2 141 71.6)" cx="141" cy="71.6" rx="4.14" ry="5.09"/></g><ellipse transform="rotate(-2.72 159 52.9)" cx="159" cy="52.9" rx="14.4" ry="14.3" fill="#b6cf50" stroke-opacity="null" stroke-width="null"/><g fill="#4a9d4d" stroke-opacity="null" stroke-width="null"><ellipse transform="rotate(-56.9 115 57.2)" cx="115" cy="57.2" rx="4.71" ry="4.81"/><ellipse transform="rotate(-16.2 108 66.1)" cx="108" cy="66.1" rx="5.1" ry="6.05"/><ellipse transform="rotate(-16.2 119 68.4)" cx="119" cy="68.4" rx="4.14" ry="5.09"/><ellipse transform="rotate(-56.9 156 46.9)" cx="156" cy="46.9" rx="4.71" ry="4.81"/><ellipse transform="rotate(-16.2 166 49.3)" cx="166" cy="49.3" rx="3.23" ry="5.09"/><ellipse transform="rotate(-83.9 159 57.5)" cx="159" cy="57.5" rx="3.23" ry="5.09"/><ellipse transform="rotate(-16.2 102 87)" cx="102" cy="87" rx="6.24" ry="3.68"/><ellipse transform="rotate(-16.2 89.4 88)" cx="89.4" cy="88" rx="3.79" ry="6.05"/><ellipse transform="rotate(-56.9 97.7 79.6)" cx="97.7" cy="79.6" rx="3.55" ry="3.63"/></g><ellipse transform="rotate(-2.72 185 60.8)" cx="185" cy="60.8" rx="14.4" ry="14.3" fill="#b6cf50" stroke-opacity="null" stroke-width="null"/><g fill="#4a9d4d" stroke-opacity="null" stroke-width="null"><ellipse transform="rotate(-56.9 191 60.1)" cx="191" cy="60.1" rx="5.41" ry="5.05"/><ellipse transform="rotate(-16.2 180 65.4)" cx="180" cy="65.4" rx="3.33" ry="5.09"/><ellipse transform="rotate(-56.9 187 82.1)" cx="187" cy="82.1" rx="3.34" ry="5.54"/><ellipse transform="rotate(-16.2 197 86.7)" cx="197" cy="86.7" rx="4.14" ry="5.09"/><ellipse transform="rotate(54.6 183 53.6)" cx="183" cy="53.6" rx="3.33" ry="5.09"/></g></g></g></g></svg>
