<svg width="512" height="512" version="1.1" viewBox="0 0 135 135" xmlns="http://www.w3.org/2000/svg"><path d="m0.665 123h134c-0.899 6.91-4.11 11.1-11 12.3h-112c-7.56-1.93-10.3-6.09-11-12.3z" style="fill:#7787b2"/><path d="m1.05 123c1.23 4.51 4.17 7.63 10.4 9.22h112c5.8-0.956 8.99-4.11 10.4-9.22z" style="fill:#cbd2ed"/><ellipse cx="110" cy="69.3" rx="5.94" ry="5.9" style="fill:#74ac40;paint-order:markers fill stroke"/><ellipse cx="87.1" cy="69.3" rx="5.94" ry="5.9" style="fill:#74ac40;paint-order:markers fill stroke"/><path d="m73.1 120v-2.77h52.6v2.91z" style="fill:#e5561c"/><path d="m73.1 117v-2.77h52.6v2.91z" style="fill:#ff9800"/><path d="m73.1 123v-2.77h52.6v2.91z" style="fill:#b04221"/><ellipse cx="98.7" cy="66.6" rx="5.94" ry="5.9" style="fill:#74ac40;paint-order:markers fill stroke"/><path d="m73.1 115h52.6v-25.7s-2.58-18.8-26.8-18.7c-24.2 0.124-25.6 18.7-25.6 18.7z" style="fill:#ffd500"/><path d="m98.9 73.4c-24.2 0.124-25.6 18.7-25.6 18.7l-0.194 22.4h52.6v-22.4s-2.58-18.8-26.8-18.7z" style="fill:#ffb400"/><path d="m98.9 76.1c-24.2 0.124-25.6 18.7-25.6 18.7l-0.17 19.7h52.5v-19.7s-2.58-18.8-26.8-18.7z" style="fill:#e88b00"/><path d="m98.2 82c-6.37 0.0437-15.2 1.63-18.9 2.9-4.54 1.84-5.75 3.94-5.98 7.03l-0.0241 2.77c0.015 0.456 0.0297 0.908 0.0508 1.4l-0.131 18.4h52.5v-18.4c-0.0521-6.57 0.725-8.32-7.74-11.3-4.27-1.53-13.1-2.8-19.8-2.75z" style="fill:#ff9d00"/><path d="m98.2 84.7c-6.37 0.0437-15.2 1.63-18.9 2.9-4.54 1.84-5.75 3.94-5.98 7.03l-0.0052 0.565c0.0093 0.286 0.0184 0.566 0.0315 0.874l-0.0165 2.28c0.0052 0.152 0.0093 0.292 0.0165 0.45l-0.112 15.7h52.5v-15.7c-0.052-6.57 0.725-8.32-7.74-11.3-4.27-1.53-13.1-2.8-19.8-2.75z" style="fill:#ff8300"/><path d="m98.2 88c-6.37 0.0437-15.2 1.63-18.9 2.9-4.47 1.81-5.71 3.88-5.97 6.89l-0.0041 0.58c0.0052 0.152 0.0093 0.292 0.0165 0.45l-0.0031 0.457c1e-3 0.0313 0.0021 0.0584 0.0031 0.0903l-0.0165 2.28c0.0052 0.152 0.0093 0.292 0.0165 0.45l-0.0882 12.4h52.5v-12.4c-6e-3 -0.821 2.8e-4 -1.57 0-2.25-2e-3 -4.78-0.334-6.45-7.74-9.1-4.27-1.52-13.1-2.8-19.8-2.75z" style="fill:#ffc61d"/><path d="m98.2 90.7c-6.37 0.0437-15.2 1.63-18.9 2.9-4.45 1.81-5.7 3.86-5.97 6.85l-0.0052 0.708c0.0041 0.118 0.0072 0.233 0.0133 0.36l-0.0031 0.457c1e-3 0.0306 0.0021 0.0584 0.0031 0.0903l-0.016 2.29c0.0052 0.149 0.0093 0.287 0.016 0.443l-0.069 9.67h52.4v-9.67c-6e-3 -0.821 2.8e-4 -1.57 0-2.25-2e-3 -4.78-0.334-6.45-7.74-9.1-4.27-1.52-13.1-2.8-19.8-2.75z" style="fill:#f49000"/><path d="m98.2 93.5c-6.37 0.0388-15.2 1.45-18.9 2.57-4.42 1.59-5.68 3.4-5.96 6.03 3.93e-4 0.0112 6.83e-4 0.0222 1e-3 0.0342l-0.0062 0.828c0.0021 0.0458 0.0031 0.0897 0.0062 0.138l-0.0031 0.405c1e-3 0.0272 0.0021 0.0517 0.0031 0.0801l-0.0082 1.05c0.0031 0.0752 0.0052 0.149 0.0082 0.23l-0.0072 0.972c0.0021 0.056 0.0041 0.11 0.0072 0.17l-0.0683 8.53h52.4v-8.53c-6e-3 -0.729 2.8e-4 -1.39 0-2-2e-3 -4.24-0.334-5.72-7.74-8.07-4.27-1.35-13.1-2.48-19.8-2.44z" style="fill:#ff8300"/><path d="m98.2 96.8c-5.35 0.347-23.9 0.418-24.9 7.18 3.93e-4 9e-3 7.24e-4 0.0183 1e-3 0.0283l-0.0062 0.691c0.0021 0.0382 0.0031 0.0746 0.0062 0.115l-5.38e-4 0.0545c1.87e-4 5e-3 3.41e-4 9e-3 5.38e-4 0.0138l-0.0021 0.29c7.23e-4 0.0153 1e-3 0.03 0.0021 0.0465l-0.0062 0.66c0.0021 0.0475 0.0041 0.0941 0.0062 0.145l-0.0021 0.227c5.78e-4 0.0138 9.4e-4 0.0263 0.0021 0.0406l-0.0072 0.811c0.0021 0.0467 0.0041 0.092 0.0072 0.142l-0.0593 6.19-0.0072 0.931h52.4v-7.12c-6e-3 -0.609 2.8e-4 -1.16 0-1.67-2e-3 -3.54-0.334-4.78-7.74-6.74-4.27-1.13-13.1-2.07-19.8-2.04z" style="fill:#ff9800"/><path d="m101 99.5c-22.5 0-26.8 5.85-27.7 7.87l-0.0577 6-0.0072 0.931h52.4v-7.12c-4.4e-4 -0.0437 3.3e-4 -0.0765 0-0.12-3.49-5.72-17-7.53-24.7-7.56z" style="fill:#86d14f"/><path d="m73.2 114-0.0072 0.69-5.37e-4 0.0337h52.4c-1.16-10.8-19.2-12.1-26.2-12.3-5.95-0.107-25.5 1.6-26.2 11.5z" style="fill:#74ac40"/><path d="m99.3 105c-6.43 0.043-23.5 1.3-26.1 8.37l-0.0072 0.488h52.4c-1.43-7.13-18-8.83-25.2-8.85-0.326-6e-3 -0.707-8e-3 -1.14-6e-3z" style="fill:#4a8f2c"/><ellipse transform="scale(-1,1)" cx="-124" cy="113" rx="1.58" ry="1.55" style="fill:#b7af00;paint-order:markers fill stroke"/><ellipse transform="matrix(-.814 .581 .47 .883 0 0)" cx="-56.2" cy="161" rx="1.68" ry="1.42" style="fill:#b7af00;paint-order:markers fill stroke"/><circle transform="scale(-1,1)" cx="-118" cy="113" r="1.49" style="fill:#b7af00;paint-order:markers fill stroke"/><ellipse transform="matrix(-.603 .798 .825 .566 0 0)" cx="25.1" cy="159" rx="1.75" ry="1.24" style="fill:#b7af00;paint-order:markers fill stroke"/><ellipse transform="scale(-1,1)" cx="-113" cy="113" rx="1.32" ry="1.71" style="fill:#b7af00;paint-order:markers fill stroke"/><ellipse transform="scale(-1,1)" cx="-110" cy="107" rx="1.32" ry="1.75" style="fill:#b7af00;paint-order:markers fill stroke"/><ellipse transform="matrix(-.797 .604 .602 .799 0 0)" cx="-19.8" cy="156" rx="1.73" ry="1.29" style="fill:#b7af00;paint-order:markers fill stroke"/><ellipse transform="matrix(-.828 .56 .595 .804 0 0)" cx="-20.6" cy="151" rx="1.23" ry="1.8" style="fill:#b7af00;paint-order:markers fill stroke"/><ellipse transform="scale(-1,1)" cx="-106" cy="113" rx="1.45" ry="1.46" style="fill:#b7af00;paint-order:markers fill stroke"/><ellipse transform="scale(-1,1)" cx="-103" cy="110" rx="1.51" ry="1.49" style="fill:#b7af00;paint-order:markers fill stroke"/><ellipse transform="matrix(-.777 .63 .59 .807 0 0)" cx="-18.5" cy="147" rx="1.72" ry="1.28" style="fill:#b7af00;paint-order:markers fill stroke"/><ellipse transform="scale(-1,1)" cx="-100" cy="113" rx="1.56" ry="1.47" style="fill:#b7af00;paint-order:markers fill stroke"/><ellipse transform="scale(-1,1)" cx="-96" cy="108" rx="2.49" ry="3.24" style="fill:#b7af00;paint-order:markers fill stroke"/><ellipse transform="scale(-1,1)" cx="-92.2" cy="110" rx="1.27" ry="1.72" style="fill:#b7af00;paint-order:markers fill stroke"/><ellipse transform="matrix(-.841 -.542 -.549 .836 0 0)" cx="-141" cy="43.2" rx="1.73" ry="1.23" style="fill:#b7af00;paint-order:markers fill stroke"/><ellipse transform="matrix(-.811 .586 .586 .811 0 0)" cx="-6.5" cy="144" rx="1.76" ry="1.31" style="fill:#b7af00;paint-order:markers fill stroke"/><ellipse transform="scale(-1,1)" cx="-86.4" cy="110" rx="1.29" ry="1.75" style="fill:#b7af00;paint-order:markers fill stroke"/><ellipse transform="scale(-1,1)" cx="-82.8" cy="113" rx="1.58" ry="1.56" style="fill:#b7af00;paint-order:markers fill stroke"/><ellipse transform="matrix(-.83 .557 .553 .833 0 0)" cx="-2.51" cy="137" rx="1.85" ry="1.29" style="fill:#b7af00;paint-order:markers fill stroke"/><ellipse cx="105" cy="57.4" rx="5.94" ry="5.9" style="fill:#74ac40;paint-order:markers fill stroke"/><ellipse cx="85.7" cy="67.9" rx="1.52" ry="1.5" style="fill:#007337;paint-order:markers fill stroke"/><ellipse transform="rotate(45.4)" cx="111" cy="-15.9" rx="1.81" ry="1.3" style="fill:#007337;paint-order:markers fill stroke"/><ellipse transform="rotate(37)" cx="108" cy="-.134" rx="1.69" ry="1.21" style="fill:#007337;paint-order:markers fill stroke"/><ellipse transform="matrix(.859 -.512 .517 .856 0 0)" cx="51.8" cy="104" rx="1.84" ry="1.16" style="fill:#007337;paint-order:markers fill stroke"/><ellipse cx="97.3" cy="64.9" rx="1.53" ry="1.42" style="fill:#007337;paint-order:markers fill stroke"/><ellipse transform="rotate(36.4)" cx="120" cy="-7.69" rx="1.61" ry="1.27" style="fill:#007337;paint-order:markers fill stroke"/><ellipse transform="rotate(45.8)" cx="111" cy="-33.2" rx="1.69" ry="1.27" style="fill:#007337;paint-order:markers fill stroke"/><ellipse cx="106" cy="56.2" rx="1.48" ry="1.44" style="fill:#007337;paint-order:markers fill stroke"/><ellipse transform="matrix(.796 .606 -.662 .749 0 0)" cx="117" cy="-16" rx="1.22" ry="1.64" style="fill:#007337;paint-order:markers fill stroke"/><ellipse cx="109" cy="67.9" rx="1.55" ry="1.53" style="fill:#007337;paint-order:markers fill stroke"/><ellipse transform="matrix(.684 .729 -.749 .663 0 0)" cx="126" cy="-35.8" rx="1.74" ry="1.24" style="fill:#007337;paint-order:markers fill stroke"/><ellipse cx="86.4" cy="80.6" rx="1.47" ry="1.5" style="fill:#add63b;paint-order:markers fill stroke"/><ellipse transform="rotate(42.3)" cx="113" cy="1.83" rx="1.76" ry="1.24" style="fill:#add63b;paint-order:markers fill stroke"/><ellipse cx="89.3" cy="74.7" rx="1.47" ry="1.5" style="fill:#add63b;paint-order:markers fill stroke"/><ellipse cx="92.2" cy="71.9" rx="1.47" ry="1.5" style="fill:#add63b;paint-order:markers fill stroke"/><ellipse transform="matrix(.738 .675 -.708 .707 0 0)" cx="120" cy="-12.6" rx="1.21" ry="1.8" style="fill:#add63b;paint-order:markers fill stroke"/><ellipse transform="rotate(49.1)" cx="118" cy="-22.3" rx="1.67" ry="1.21" style="fill:#add63b;paint-order:markers fill stroke"/><ellipse transform="rotate(128)" cx="6.02" cy="-113" rx="1.67" ry="1.21" style="fill:#add63b;paint-order:markers fill stroke"/><ellipse transform="matrix(-.449 .893 -.872 -.489 0 0)" cx="16.2" cy="-123" rx="1.21" ry="1.8" style="fill:#add63b;paint-order:markers fill stroke"/><ellipse transform="matrix(.702 .712 -.743 .67 0 0)" cx="123" cy="-23" rx="1.21" ry="1.8" style="fill:#add63b;paint-order:markers fill stroke"/><ellipse transform="matrix(.702 .712 -.743 .67 0 0)" cx="131" cy="-22.9" rx="1.21" ry="1.8" style="fill:#add63b;paint-order:markers fill stroke"/><ellipse transform="matrix(.702 .712 -.743 .67 0 0)" cx="130" cy="-27.1" rx="1.21" ry="1.8" style="fill:#add63b;paint-order:markers fill stroke"/><ellipse transform="matrix(.702 .712 -.743 .67 0 0)" cx="139" cy="-27.1" rx="1.21" ry="1.8" style="fill:#add63b;paint-order:markers fill stroke"/><ellipse cx="107" cy="74.8" rx="1.47" ry="1.5" style="fill:#add63b;paint-order:markers fill stroke"/><ellipse cx="116" cy="77.7" rx="1.47" ry="1.5" style="fill:#add63b;paint-order:markers fill stroke"/><ellipse transform="rotate(-39.5)" cx="31.4" cy="147" rx="2.64" ry="3.44" style="fill:#fff;paint-order:markers fill stroke"/><ellipse transform="matrix(.787 -.617 .655 .756 0 0)" cx="32" cy="140" rx="1.36" ry="1.76" style="fill:#fff;paint-order:markers fill stroke"/><ellipse transform="rotate(43.3)" cx="136" cy="-15.1" rx="6.84" ry="4.81" style="fill:#fff;paint-order:markers fill stroke"/><ellipse cx="78.2" cy="16.9" rx="5.94" ry="5.9" style="fill:#74ac40;paint-order:markers fill stroke"/><ellipse cx="55" cy="16.9" rx="5.94" ry="5.9" style="fill:#74ac40;paint-order:markers fill stroke"/><path d="m40.9 67.6v-2.77h52.6v2.91z" style="fill:#e5561c"/><path d="m40.9 64.9v-2.77h52.6v2.91z" style="fill:#ff9800"/><path d="m40.9 70.4v-2.77h52.6v2.91z" style="fill:#b04221"/><ellipse cx="66.6" cy="14.3" rx="5.94" ry="5.9" style="fill:#74ac40;paint-order:markers fill stroke"/><path d="m40.9 62.1h52.6v-25.7s-2.58-18.8-26.8-18.7c-24.2 0.124-25.6 18.7-25.6 18.7z" style="fill:#ffd500"/><path d="m66.8 21c-24.2 0.124-25.6 18.7-25.6 18.7l-0.194 22.4h52.6v-22.4s-2.58-18.8-26.8-18.7z" style="fill:#ffb400"/><path d="m66.8 23.7c-24.2 0.124-25.6 18.7-25.6 18.7l-0.17 19.7h52.5v-19.7s-2.58-18.8-26.8-18.7z" style="fill:#e88b00"/><path d="m66 29.6c-6.37 0.0437-15.2 1.63-18.9 2.9-4.54 1.84-5.75 3.94-5.98 7.03l-0.0241 2.77c0.015 0.456 0.0297 0.908 0.0508 1.4l-0.131 18.4h52.5v-18.4c-0.0521-6.57 0.725-8.32-7.74-11.3-4.27-1.53-13.1-2.8-19.8-2.75z" style="fill:#ff9d00"/><path d="m66 32.3c-6.37 0.0437-15.2 1.63-18.9 2.9-4.54 1.84-5.75 3.94-5.98 7.03l-0.0052 0.565c0.0093 0.286 0.0184 0.566 0.0315 0.874l-0.0165 2.28c0.0052 0.152 0.0093 0.292 0.0165 0.45l-0.112 15.7h52.5v-15.7c-0.0521-6.57 0.725-8.32-7.74-11.3-4.27-1.53-13.1-2.8-19.8-2.75z" style="fill:#ff8300"/><path d="m66 35.6c-6.37 0.0437-15.2 1.63-18.9 2.9-4.47 1.81-5.71 3.88-5.97 6.89l-0.0041 0.58c0.0052 0.152 0.0093 0.292 0.0165 0.45l-0.0031 0.457c1e-3 0.0313 0.0021 0.0584 0.0031 0.0903l-0.0165 2.28c0.0052 0.152 0.0093 0.292 0.0165 0.45l-0.0882 12.4h52.5v-12.4c-6e-3 -0.821 2.8e-4 -1.57 0-2.25-2e-3 -4.78-0.334-6.45-7.74-9.1-4.27-1.52-13.1-2.8-19.8-2.75z" style="fill:#ffc61d"/><path d="m66 38.3c-6.37 0.0437-15.2 1.63-18.9 2.9-4.45 1.81-5.7 3.86-5.97 6.85l-0.0052 0.708c0.0041 0.118 0.0072 0.233 0.0133 0.36l-0.0031 0.457c1e-3 0.0306 0.0021 0.0584 0.0031 0.0903l-0.016 2.29c0.0052 0.149 0.0093 0.287 0.016 0.443l-0.069 9.67h52.4v-9.67c-6e-3 -0.821 2.8e-4 -1.57 0-2.25-2e-3 -4.78-0.334-6.45-7.74-9.1-4.27-1.53-13.1-2.8-19.8-2.75z" style="fill:#f49000"/><path d="m66 41.1c-6.37 0.0388-15.2 1.45-18.9 2.57-4.42 1.59-5.68 3.4-5.96 6.03 3.93e-4 0.0112 6.83e-4 0.0222 1e-3 0.0342l-0.0062 0.828c0.0021 0.0458 0.0031 0.0897 0.0062 0.138l-0.0031 0.405c1e-3 0.0272 0.0021 0.0517 0.0031 0.0801l-0.0082 1.05c0.0031 0.0752 0.0052 0.149 0.0082 0.23l-0.0072 0.972c0.0021 0.056 0.0041 0.11 0.0072 0.17l-0.0683 8.53h52.4v-8.53c-6e-3 -0.729 2.8e-4 -1.39 0-2-2e-3 -4.24-0.334-5.72-7.74-8.07-4.27-1.35-13.1-2.48-19.8-2.44z" style="fill:#ff8300"/><path d="m66 44.4c-5.35 0.347-23.9 0.418-24.9 7.18 3.93e-4 9e-3 7.24e-4 0.0183 1e-3 0.0283l-0.0062 0.691c0.0021 0.0382 0.0031 0.0746 0.0062 0.115l-5.38e-4 0.0545c1.87e-4 5e-3 3.41e-4 9e-3 5.38e-4 0.0138l-0.0021 0.29c7.24e-4 0.0153 1e-3 0.03 0.0021 0.0465l-0.0062 0.66c0.0021 0.0475 0.0041 0.0941 0.0062 0.145l-0.0021 0.227c5.79e-4 0.0138 9.41e-4 0.0263 0.0021 0.0406l-0.0072 0.811c0.0021 0.0467 0.0041 0.092 0.0072 0.142l-0.0593 6.19-0.0072 0.931h52.4v-7.12c-6e-3 -0.609 2.8e-4 -1.16 0-1.67-2e-3 -3.54-0.334-4.78-7.74-6.74-4.27-1.13-13.1-2.07-19.8-2.04z" style="fill:#ff9800"/><path d="m68.8 47.1c-22.5 0-26.8 5.85-27.7 7.87l-0.0577 6-0.0072 0.931h52.4v-7.12c-4.4e-4 -0.0437 3.2e-4 -0.0765 0-0.12-3.49-5.72-17-7.53-24.7-7.56z" style="fill:#86d14f"/><path d="m41.1 61.2-0.0072 0.69-5.37e-4 0.0337h52.4c-1.16-10.8-19.2-12.1-26.2-12.3-5.95-0.107-25.5 1.6-26.2 11.5z" style="fill:#74ac40"/><path d="m67.2 53.1c-6.43 0.043-23.5 1.3-26.1 8.37l-0.0072 0.488h52.4c-1.43-7.13-18-8.83-25.2-8.85-0.326-6e-3 -0.707-8e-3 -1.14-6e-3z" style="fill:#4a8f2c"/><ellipse cx="45.4" cy="60.3" rx="1.58" ry="1.55" style="fill:#b7af00;paint-order:markers fill stroke"/><ellipse transform="matrix(.814 .581 -.47 .883 0 0)" cx="69.6" cy="19.1" rx="1.68" ry="1.42" style="fill:#b7af00;paint-order:markers fill stroke"/><circle cx="51.3" cy="60.3" r="1.49" style="fill:#b7af00;paint-order:markers fill stroke"/><ellipse transform="matrix(.603 .798 -.825 .566 0 0)" cx="77.6" cy="-7.96" rx="1.75" ry="1.24" style="fill:#b7af00;paint-order:markers fill stroke"/><ellipse cx="56.4" cy="60.3" rx="1.32" ry="1.71" style="fill:#b7af00;paint-order:markers fill stroke"/><ellipse cx="59.4" cy="54.4" rx="1.32" ry="1.75" style="fill:#b7af00;paint-order:markers fill stroke"/><ellipse transform="matrix(.797 .604 -.602 .799 0 0)" cx="83.7" cy="12.2" rx="1.73" ry="1.29" style="fill:#b7af00;paint-order:markers fill stroke"/><ellipse transform="matrix(.828 .56 -.595 .804 0 0)" cx="84.2" cy="12.6" rx="1.23" ry="1.8" style="fill:#b7af00;paint-order:markers fill stroke"/><ellipse cx="63" cy="60.3" rx="1.45" ry="1.46" style="fill:#b7af00;paint-order:markers fill stroke"/><ellipse cx="65.9" cy="57.3" rx="1.51" ry="1.49" style="fill:#b7af00;paint-order:markers fill stroke"/><ellipse transform="matrix(.777 .63 -.59 .807 0 0)" cx="87.2" cy="-.485" rx="1.72" ry="1.28" style="fill:#b7af00;paint-order:markers fill stroke"/><ellipse cx="68.8" cy="60.3" rx="1.56" ry="1.47" style="fill:#b7af00;paint-order:markers fill stroke"/><ellipse cx="73.1" cy="55.9" rx="2.49" ry="3.24" style="fill:#b7af00;paint-order:markers fill stroke"/><ellipse cx="76.9" cy="57.4" rx="1.27" ry="1.72" style="fill:#b7af00;paint-order:markers fill stroke"/><ellipse transform="matrix(.841 -.542 .549 .836 0 0)" cx="28.8" cy="90.8" rx="1.73" ry="1.23" style="fill:#b7af00;paint-order:markers fill stroke"/><ellipse transform="rotate(35.8)" cx="99.9" cy="2.17" rx="1.76" ry="1.31" style="fill:#b7af00;paint-order:markers fill stroke"/><ellipse cx="82.7" cy="57.4" rx="1.29" ry="1.75" style="fill:#b7af00;paint-order:markers fill stroke"/><ellipse cx="86.3" cy="60.2" rx="1.58" ry="1.56" style="fill:#b7af00;paint-order:markers fill stroke"/><ellipse transform="matrix(.83 .557 -.553 .833 0 0)" cx="109" cy="-.907" rx="1.85" ry="1.29" style="fill:#b7af00;paint-order:markers fill stroke"/><ellipse cx="58.9" cy="6.67" rx="5.94" ry="5.9" style="fill:#74ac40;paint-order:markers fill stroke"/><ellipse cx="53.5" cy="15.5" rx="1.52" ry="1.5" style="fill:#007337;paint-order:markers fill stroke"/><ellipse transform="rotate(45.4)" cx="51.2" cy="-29.8" rx="1.81" ry="1.3" style="fill:#007337;paint-order:markers fill stroke"/><ellipse transform="rotate(37)" cx="51" cy="-22.6" rx="1.69" ry="1.21" style="fill:#007337;paint-order:markers fill stroke"/><ellipse transform="matrix(.859 -.512 .517 .856 0 0)" cx="51.3" cy="42.1" rx="1.84" ry="1.16" style="fill:#007337;paint-order:markers fill stroke"/><ellipse cx="65.2" cy="12.5" rx="1.53" ry="1.42" style="fill:#007337;paint-order:markers fill stroke"/><ellipse transform="rotate(36.4)" cx="62.8" cy="-30.8" rx="1.61" ry="1.27" style="fill:#007337;paint-order:markers fill stroke"/><ellipse transform="rotate(226)" cx="-47.9" cy="39" rx="1.69" ry="1.27" style="fill:#007337;paint-order:markers fill stroke"/><ellipse transform="scale(-1)" cx="-56.3" cy="-7.2" rx="1.48" ry="1.44" style="fill:#007337;paint-order:markers fill stroke"/><ellipse transform="matrix(-.796 -.606 .662 -.749 0 0)" cx="-46.9" cy="32.2" rx="1.22" ry="1.64" style="fill:#007337;paint-order:markers fill stroke"/><ellipse cx="76.7" cy="15.5" rx="1.55" ry="1.53" style="fill:#007337;paint-order:markers fill stroke"/><ellipse transform="matrix(.684 .729 -.749 .663 0 0)" cx="65" cy="-48.2" rx="1.74" ry="1.24" style="fill:#007337;paint-order:markers fill stroke"/><ellipse cx="54.2" cy="28.2" rx="1.47" ry="1.5" style="fill:#add63b;paint-order:markers fill stroke"/><ellipse transform="rotate(42.3)" cx="54.4" cy="-15.3" rx="1.76" ry="1.24" style="fill:#add63b;paint-order:markers fill stroke"/><ellipse cx="57.1" cy="22.3" rx="1.47" ry="1.5" style="fill:#add63b;paint-order:markers fill stroke"/><ellipse cx="60.1" cy="19.5" rx="1.47" ry="1.5" style="fill:#add63b;paint-order:markers fill stroke"/><ellipse transform="matrix(.738 .675 -.708 .707 0 0)" cx="59.9" cy="-29.6" rx="1.21" ry="1.8" style="fill:#add63b;paint-order:markers fill stroke"/><ellipse transform="rotate(49.1)" cx="57.7" cy="-32.4" rx="1.67" ry="1.21" style="fill:#add63b;paint-order:markers fill stroke"/><ellipse transform="rotate(128)" cx="-15.4" cy="-55.8" rx="1.67" ry="1.21" style="fill:#add63b;paint-order:markers fill stroke"/><ellipse transform="matrix(-.449 .893 -.872 -.489 0 0)" cx="-13.8" cy="-70.9" rx="1.21" ry="1.8" style="fill:#add63b;paint-order:markers fill stroke"/><ellipse transform="matrix(.702 .712 -.743 .67 0 0)" cx="62" cy="-36.9" rx="1.21" ry="1.8" style="fill:#add63b;paint-order:markers fill stroke"/><ellipse transform="matrix(.702 .712 -.743 .67 0 0)" cx="70.2" cy="-36.9" rx="1.21" ry="1.8" style="fill:#add63b;paint-order:markers fill stroke"/><ellipse transform="matrix(.702 .712 -.743 .67 0 0)" cx="70" cy="-41.1" rx="1.21" ry="1.8" style="fill:#add63b;paint-order:markers fill stroke"/><ellipse transform="matrix(.702 .712 -.743 .67 0 0)" cx="78.3" cy="-41" rx="1.21" ry="1.8" style="fill:#add63b;paint-order:markers fill stroke"/><ellipse cx="74.7" cy="22.4" rx="1.47" ry="1.5" style="fill:#add63b;paint-order:markers fill stroke"/><ellipse cx="83.4" cy="25.3" rx="1.47" ry="1.5" style="fill:#add63b;paint-order:markers fill stroke"/><ellipse cx="49.7" cy="69.3" rx="5.94" ry="5.9" style="fill:#74ac40;paint-order:markers fill stroke"/><ellipse cx="26.4" cy="69.3" rx="5.94" ry="5.9" style="fill:#74ac40;paint-order:markers fill stroke"/><path d="m12.4 120v-2.77h52.6v2.91z" style="fill:#e5561c"/><path d="m12.4 117v-2.77h52.6v2.91z" style="fill:#ff9800"/><path d="m12.4 123v-2.77h52.6v2.91z" style="fill:#b04221"/><ellipse cx="38" cy="66.6" rx="5.94" ry="5.9" style="fill:#74ac40;paint-order:markers fill stroke"/><path d="m12.4 115h52.6v-25.7s-2.58-18.8-26.8-18.7c-24.2 0.124-25.6 18.7-25.6 18.7z" style="fill:#ffd500"/><path d="m38.2 73.4c-24.2 0.124-25.6 18.7-25.6 18.7l-0.194 22.4h52.6v-22.4s-2.58-18.8-26.8-18.7z" style="fill:#ffb400"/><path d="m38.2 76.1c-24.2 0.124-25.6 18.7-25.6 18.7l-0.17 19.7h52.5v-19.7s-2.58-18.8-26.8-18.7z" style="fill:#e88b00"/><path d="m37.4 82c-6.37 0.0437-15.2 1.63-18.9 2.9-4.54 1.84-5.75 3.94-5.98 7.03l-0.0241 2.77c0.015 0.456 0.0297 0.908 0.0508 1.4l-0.131 18.4h52.5v-18.4c-0.0521-6.57 0.725-8.32-7.74-11.3-4.27-1.53-13.1-2.8-19.8-2.75z" style="fill:#ff9d00"/><path d="m37.4 84.7c-6.37 0.0437-15.2 1.63-18.9 2.9-4.54 1.84-5.75 3.94-5.98 7.03l-0.0052 0.565c0.0093 0.286 0.0184 0.566 0.0315 0.874l-0.0165 2.28c0.0052 0.152 0.0093 0.292 0.0165 0.45l-0.112 15.7h52.5v-15.7c-0.0521-6.57 0.725-8.32-7.74-11.3-4.27-1.53-13.1-2.8-19.8-2.75z" style="fill:#ff8300"/><path d="m37.4 88c-6.37 0.0437-15.2 1.63-18.9 2.9-4.47 1.81-5.71 3.88-5.97 6.89l-0.0041 0.58c0.0052 0.152 0.0093 0.292 0.0165 0.45l-0.0031 0.457c1e-3 0.0313 0.0021 0.0584 0.0031 0.0903l-0.0165 2.28c0.0052 0.152 0.0093 0.292 0.0165 0.45l-0.0882 12.4h52.5v-12.4c-0.0062-0.821 2.79e-4 -1.57 0-2.25-0.0021-4.78-0.334-6.45-7.74-9.1-4.27-1.52-13.1-2.8-19.8-2.75z" style="fill:#ffc61d"/><path d="m37.4 90.7c-6.37 0.0437-15.2 1.63-18.9 2.9-4.45 1.81-5.7 3.86-5.97 6.85l-0.0052 0.708c0.0041 0.118 0.0072 0.233 0.0133 0.36l-0.0031 0.457c1e-3 0.0306 0.0021 0.0584 0.0031 0.0903l-0.016 2.29c0.0052 0.149 0.0093 0.287 0.016 0.443l-0.069 9.67h52.4v-9.67c-0.0062-0.821 2.8e-4 -1.57 0-2.25-0.0021-4.78-0.334-6.45-7.74-9.1-4.27-1.53-13.1-2.8-19.8-2.75z" style="fill:#f49000"/><path d="m37.4 93.5c-6.37 0.0388-15.2 1.45-18.9 2.57-4.42 1.59-5.68 3.4-5.96 6.03 3.93e-4 0.0112 6.83e-4 0.0222 1e-3 0.0342l-0.0062 0.828c0.0021 0.0458 0.0031 0.0897 0.0062 0.138l-0.0031 0.405c1e-3 0.0272 0.0021 0.0517 0.0031 0.0801l-0.0082 1.05c0.0031 0.0752 0.0052 0.149 0.0082 0.23l-0.0072 0.972c0.0021 0.056 0.0041 0.11 0.0072 0.17l-0.0683 8.53h52.4v-8.53c-0.0062-0.729 2.8e-4 -1.39 0-2-0.0021-4.24-0.334-5.72-7.74-8.07-4.27-1.35-13.1-2.48-19.8-2.44z" style="fill:#ff8300"/><path d="m37.4 96.8c-5.35 0.347-23.9 0.418-24.9 7.18 3.93e-4 9e-3 7.24e-4 0.0183 1e-3 0.0283l-0.0062 0.691c0.0021 0.0382 0.0031 0.0746 0.0062 0.115l-5.38e-4 0.0545c1.87e-4 5e-3 3.41e-4 9e-3 5.38e-4 0.0138l-0.0021 0.29c7.24e-4 0.0153 1e-3 0.03 0.0021 0.0465l-0.0062 0.66c0.0021 0.0475 0.0041 0.0941 0.0062 0.145l-0.0021 0.227c5.79e-4 0.0138 9.41e-4 0.0263 0.0021 0.0406l-0.0072 0.811c0.0021 0.0467 0.0041 0.092 0.0072 0.142l-0.0593 6.19-0.0072 0.931h52.4v-7.12c-0.0062-0.609 2.79e-4 -1.16 0-1.67-0.0021-3.54-0.334-4.78-7.74-6.74-4.27-1.13-13.1-2.07-19.8-2.04z" style="fill:#ff9800"/><path d="m40.2 99.5c-22.5 0-26.8 5.85-27.7 7.87l-0.0577 6-0.0072 0.931h52.4v-7.12c-4.44e-4 -0.0437 3.2e-4 -0.0765 0-0.12-3.49-5.72-17-7.53-24.7-7.56z" style="fill:#86d14f"/><path d="m12.5 114-0.0072 0.69-5.37e-4 0.0337h52.4c-1.16-10.8-19.2-12.1-26.2-12.3-5.95-0.107-25.5 1.6-26.2 11.5z" style="fill:#74ac40"/><path d="m38.6 105c-6.43 0.043-23.5 1.3-26.1 8.37l-0.0072 0.488h52.4c-1.43-7.13-18-8.83-25.2-8.85-0.326-6e-3 -0.707-8e-3 -1.14-6e-3z" style="fill:#4a8f2c"/><ellipse cx="16.9" cy="113" rx="1.58" ry="1.55" style="fill:#b7af00;paint-order:markers fill stroke"/><ellipse transform="matrix(.814 .581 -.47 .883 0 0)" cx="69" cy="78.9" rx="1.68" ry="1.42" style="fill:#b7af00;paint-order:markers fill stroke"/><circle cx="22.7" cy="113" r="1.49" style="fill:#b7af00;paint-order:markers fill stroke"/><ellipse transform="matrix(.603 .798 -.825 .566 0 0)" cx="105" cy="46.5" rx="1.75" ry="1.24" style="fill:#b7af00;paint-order:markers fill stroke"/><ellipse cx="27.8" cy="113" rx="1.32" ry="1.71" style="fill:#b7af00;paint-order:markers fill stroke"/><ellipse cx="30.8" cy="107" rx="1.32" ry="1.75" style="fill:#b7af00;paint-order:markers fill stroke"/><ellipse transform="matrix(.797 .604 -.602 .799 0 0)" cx="92.4" cy="71.2" rx="1.73" ry="1.29" style="fill:#b7af00;paint-order:markers fill stroke"/><ellipse transform="matrix(.828 .56 -.595 .804 0 0)" cx="92.4" cy="72.1" rx="1.23" ry="1.8" style="fill:#b7af00;paint-order:markers fill stroke"/><ellipse cx="34.4" cy="113" rx="1.45" ry="1.46" style="fill:#b7af00;paint-order:markers fill stroke"/><ellipse cx="37.3" cy="110" rx="1.51" ry="1.49" style="fill:#b7af00;paint-order:markers fill stroke"/><ellipse transform="matrix(.777 .63 -.59 .807 0 0)" cx="95.1" cy="58.3" rx="1.72" ry="1.28" style="fill:#b7af00;paint-order:markers fill stroke"/><ellipse cx="40.2" cy="113" rx="1.56" ry="1.47" style="fill:#b7af00;paint-order:markers fill stroke"/><ellipse cx="44.5" cy="108" rx="2.49" ry="3.24" style="fill:#b7af00;paint-order:markers fill stroke"/><ellipse cx="48.3" cy="110" rx="1.27" ry="1.72" style="fill:#b7af00;paint-order:markers fill stroke"/><ellipse transform="matrix(.841 -.542 .549 .836 0 0)" cx="-23.9" cy="119" rx="1.73" ry="1.23" style="fill:#b7af00;paint-order:markers fill stroke"/><ellipse transform="rotate(35.8)" cx="107" cy="61.4" rx="1.76" ry="1.31" style="fill:#b7af00;paint-order:markers fill stroke"/><ellipse cx="54.1" cy="110" rx="1.29" ry="1.75" style="fill:#b7af00;paint-order:markers fill stroke"/><ellipse cx="57.7" cy="113" rx="1.58" ry="1.56" style="fill:#b7af00;paint-order:markers fill stroke"/><ellipse transform="matrix(.83 .557 -.553 .833 0 0)" cx="115" cy="58.5" rx="1.85" ry="1.29" style="fill:#b7af00;paint-order:markers fill stroke"/><ellipse transform="matrix(.729 .684 -.701 .713 0 0)" cx="112" cy="32.1" rx="3.61" ry="2.39" style="fill:#fff;paint-order:markers fill stroke"/><ellipse transform="matrix(.742 .671 -.715 .7 0 0)" cx="107" cy="37.5" rx="1.85" ry="1.23" style="fill:#fff;paint-order:markers fill stroke"/><ellipse cx="30.3" cy="59.1" rx="5.94" ry="5.9" style="fill:#74ac40;paint-order:markers fill stroke"/><ellipse cx="25" cy="67.9" rx="1.52" ry="1.5" style="fill:#007337;paint-order:markers fill stroke"/><ellipse transform="rotate(45.4)" cx="68.4" cy="27.3" rx="1.81" ry="1.3" style="fill:#007337;paint-order:markers fill stroke"/><ellipse transform="rotate(37)" cx="59.8" cy="36.4" rx="1.69" ry="1.21" style="fill:#007337;paint-order:markers fill stroke"/><ellipse transform="matrix(.859 -.512 .517 .856 0 0)" cx="-.211" cy="72.5" rx="1.84" ry="1.16" style="fill:#007337;paint-order:markers fill stroke"/><ellipse cx="36.6" cy="64.9" rx="1.53" ry="1.42" style="fill:#007337;paint-order:markers fill stroke"/><ellipse transform="rotate(36.4)" cx="70.9" cy="28.4" rx="1.61" ry="1.27" style="fill:#007337;paint-order:markers fill stroke"/><ellipse transform="rotate(226)" cx="-65.5" cy="-18" rx="1.69" ry="1.27" style="fill:#007337;paint-order:markers fill stroke"/><ellipse transform="scale(-1)" cx="-27.7" cy="-59.6" rx="1.48" ry="1.44" style="fill:#007337;paint-order:markers fill stroke"/><ellipse transform="matrix(-.796 -.606 .662 -.749 0 0)" cx="-60.2" cy="-27" rx="1.22" ry="1.64" style="fill:#007337;paint-order:markers fill stroke"/><ellipse cx="48.2" cy="67.9" rx="1.55" ry="1.53" style="fill:#007337;paint-order:markers fill stroke"/><ellipse transform="matrix(.684 .729 -.749 .663 0 0)" cx="85.3" cy="8.5" rx="1.74" ry="1.24" style="fill:#007337;paint-order:markers fill stroke"/><ellipse cx="25.6" cy="80.6" rx="1.47" ry="1.5" style="fill:#add63b;paint-order:markers fill stroke"/><ellipse transform="rotate(42.3)" cx="68.5" cy="42.7" rx="1.76" ry="1.24" style="fill:#add63b;paint-order:markers fill stroke"/><ellipse cx="28.6" cy="74.7" rx="1.47" ry="1.5" style="fill:#add63b;paint-order:markers fill stroke"/><ellipse cx="31.5" cy="71.9" rx="1.47" ry="1.5" style="fill:#add63b;paint-order:markers fill stroke"/><ellipse transform="matrix(.738 .675 -.708 .707 0 0)" cx="76.8" cy="28.4" rx="1.21" ry="1.8" style="fill:#add63b;paint-order:markers fill stroke"/><ellipse transform="rotate(49.1)" cx="78.6" cy="23.5" rx="1.67" ry="1.21" style="fill:#add63b;paint-order:markers fill stroke"/><ellipse transform="rotate(128)" cx="43.5" cy="-65.7" rx="1.67" ry="1.21" style="fill:#add63b;paint-order:markers fill stroke"/><ellipse transform="matrix(-.449 .893 -.872 -.489 0 0)" cx="46" cy="-68.9" rx="1.21" ry="1.8" style="fill:#add63b;paint-order:markers fill stroke"/><ellipse transform="matrix(.702 .712 -.743 .67 0 0)" cx="81.8" cy="20.3" rx="1.21" ry="1.8" style="fill:#add63b;paint-order:markers fill stroke"/><ellipse transform="matrix(.702 .712 -.743 .67 0 0)" cx="90" cy="20.3" rx="1.21" ry="1.8" style="fill:#add63b;paint-order:markers fill stroke"/><ellipse transform="matrix(.702 .712 -.743 .67 0 0)" cx="89.8" cy="16.1" rx="1.21" ry="1.8" style="fill:#add63b;paint-order:markers fill stroke"/><ellipse transform="matrix(.702 .712 -.743 .67 0 0)" cx="98.1" cy="16.2" rx="1.21" ry="1.8" style="fill:#add63b;paint-order:markers fill stroke"/><ellipse cx="46.1" cy="74.8" rx="1.47" ry="1.5" style="fill:#add63b;paint-order:markers fill stroke"/><ellipse cx="54.8" cy="77.7" rx="1.47" ry="1.5" style="fill:#add63b;paint-order:markers fill stroke"/><ellipse transform="rotate(-40.6)" cx="38.3" cy="63.7" rx="2.31" ry="3.24" style="fill:#fff;paint-order:markers fill stroke"/><ellipse transform="rotate(-40.6)" cx="41.1" cy="73.6" rx="4.72" ry="6.63" style="fill:#fff;paint-order:markers fill stroke"/><ellipse transform="rotate(-40.6)" cx="40.2" cy="87.6" rx="2.48" ry="3.48" style="fill:#fff;paint-order:markers fill stroke"/><ellipse transform="rotate(-40.6)" cx="30.9" cy="88.6" rx="1.24" ry="1.74" style="fill:#fff;paint-order:markers fill stroke"/></svg>
