<svg width="512" height="512" version="1.1" xmlns="http://www.w3.org/2000/svg"><g><title>background</title><rect id="canvas_background" x="-1" y="-1" width="514" height="514" fill="none"/></g><g><title>Layer 1</title><g stroke="null"><path d="m187 4.15c2.59-2.59 6.94-2.05 8.83 1.07 13.5 22.3 57.5 106-1.3 165s-142 14.8-164 1.3c-3.12-1.89-3.66-6.24-1.07-8.83 15.6-15.7 42.2-23.4 54.4-26.3 2.79-0.662 3.83-4.06 1.95-6.2-36.9-42.1-33.7-83.6-31.6-96.1 0.398-2.39 2.26-4.25 4.65-4.65 12.6-2.1 54-5.38 96.1 31.6 2.15 1.88 5.54 0.839 6.2-1.95 2.88-12.1 10.7-38.7 26.3-54.4z" fill="#35b24d"/><path d="m196 5.22c-1.89-3.12-6.24-3.66-8.83-1.07-15.6 15.6-23.4 42.2-26.3 54.4 13.5 22.3 15.6 66.5-23 111-12.3 14.3-26.4 22.9-41.1 27.4 31.4 5.84 67.9 2.62 97.9-27.4 58.8-58.8 14.8-142 1.3-165z" fill="#2f9e44" stroke="null"/><ellipse cx="71.9" cy="169" rx="46" ry="46" fill="#cf323d"/><path d="m71.9 123c-8.07 0-15.6 2.09-22.2 5.74 14.1 7.84 23.7 22.9 23.7 40.2s-9.58 32.4-23.7 40.2c6.59 3.65 14.2 5.74 22.2 5.74 25.4 0 46-20.6 46-46s-20.6-46-46-46z" fill="#c22e39"/><ellipse cx="48.3" cy="239" rx="46" ry="46" fill="#cf323d"/><path d="m48.3 193c-8.07 0-15.6 2.09-22.2 5.74 14.1 7.84 23.7 22.9 23.7 40.2s-9.58 32.4-23.7 40.2c6.59 3.65 14.2 5.74 22.2 5.74 25.4 0 46-20.6 46-46s-20.6-46-46-46z" fill="#c22e39"/><ellipse cx="130" cy="216" rx="46" ry="46" fill="#cf323d"/><path d="m130 170c-8.07 0-15.6 2.09-22.2 5.74 14.1 7.84 23.7 22.9 23.7 40.2s-9.58 32.4-23.7 40.2c6.59 3.65 14.2 5.74 22.2 5.74 25.4 0 46-20.6 46-46s-20.6-46-46-46z" fill="#c22e39"/><ellipse cx="201" cy="214" rx="46" ry="46" fill="#cf323d"/><path d="m201 168c-8.07 0-15.6 2.09-22.2 5.74 14.1 7.84 23.7 22.9 23.7 40.2s-9.58 32.4-23.7 40.2c6.59 3.65 14.2 5.74 22.2 5.74 25.4 0 46-20.6 46-46s-20.6-46-46-46z" fill="#c22e39"/><ellipse cx="116" cy="282" rx="46" ry="46" fill="#cf323d"/><path d="m116 236c-8.07 0-15.6 2.09-22.2 5.74 14.1 7.84 23.7 22.9 23.7 40.2s-9.58 32.4-23.7 40.2c6.59 3.65 14.2 5.74 22.2 5.74 25.4 0 46-20.6 46-46s-20.6-46-46-46z" fill="#c22e39"/><ellipse cx="239" cy="161" rx="46" ry="46" fill="#cf323d"/><path d="m239 115c-8.07 0-15.6 2.09-22.2 5.74 14.1 7.84 23.7 22.9 23.7 40.2s-9.58 32.4-23.7 40.2c6.59 3.65 14.2 5.74 22.2 5.74 25.4 0 46-20.6 46-46s-20.6-46-46-46z" fill="#c22e39"/><ellipse cx="188" cy="279" rx="46" ry="46" fill="#cf323d"/><path d="m188 233c-8.07 0-15.6 2.09-22.2 5.74 14.1 7.84 23.7 22.9 23.7 40.2s-9.58 32.4-23.7 40.2c6.59 3.65 14.2 5.74 22.2 5.74 25.4 0 46-20.6 46-46s-20.6-46-46-46z" fill="#c22e39"/><ellipse cx="265" cy="271" rx="46" ry="46" fill="#cf323d"/><path d="m265 225c-8.07 0-15.6 2.09-22.2 5.74 14.1 7.84 23.7 22.9 23.7 40.2s-9.58 32.4-23.7 40.2c6.59 3.65 14.2 5.74 22.2 5.74 25.4 0 46-20.6 46-46s-20.6-46-46-46z" fill="#c22e39"/><ellipse cx="283" cy="204" rx="46" ry="46" fill="#cf323d"/><path d="m283 158c-8.07 0-15.6 2.09-22.2 5.74 14.1 7.84 23.7 22.9 23.7 40.2s-9.58 32.4-23.7 40.2c6.59 3.65 14.2 5.74 22.2 5.74 25.4 0 46-20.6 46-46s-20.6-46-46-46z" fill="#c22e39"/><ellipse cx="338" cy="238" rx="46" ry="46" fill="#cf323d"/><path d="m338 192c-8.07 0-15.6 2.09-22.2 5.74 14.1 7.84 23.7 22.9 23.7 40.2s-9.58 32.4-23.7 40.2c6.59 3.65 14.2 5.74 22.2 5.74 25.4 0 46-20.6 46-46s-20.6-46-46-46z" fill="#c22e39"/><ellipse cx="352" cy="158" rx="46" ry="46" fill="#cf323d"/><path d="m352 112c-8.07 0-15.6 2.09-22.2 5.74 14.1 7.84 23.7 22.9 23.7 40.2s-9.58 32.4-23.7 40.2c6.59 3.65 14.2 5.74 22.2 5.74 25.4 0 46-20.6 46-46s-20.6-46-46-46z" fill="#c22e39"/><ellipse cx="139" cy="348" rx="46" ry="46" fill="#cf323d"/><path d="m139 302c-8.07 0-15.6 2.09-22.2 5.74 14.1 7.84 23.7 22.9 23.7 40.2s-9.58 32.4-23.7 40.2c6.59 3.65 14.2 5.74 22.2 5.74 25.4 0 46-20.6 46-46s-20.6-46-46-46z" fill="#c22e39"/><ellipse cx="410" cy="218" rx="46" ry="46" fill="#cf323d"/><path d="m410 172c-8.07 0-15.6 2.09-22.2 5.74 14.1 7.84 23.7 22.9 23.7 40.2s-9.58 32.4-23.7 40.2c6.59 3.65 14.2 5.74 22.2 5.74 25.4 0 46-20.6 46-46s-20.6-46-46-46z" fill="#c22e39"/><ellipse cx="393" cy="289" rx="46" ry="46" fill="#cf323d"/><path d="m393 243c-8.07 0-15.6 2.09-22.2 5.74 14.1 7.84 23.7 22.9 23.7 40.2s-9.58 32.4-23.7 40.2c6.59 3.65 14.2 5.74 22.2 5.74 25.4 0 46-20.6 46-46s-20.6-46-46-46z" fill="#c22e39"/><ellipse cx="462" cy="273" rx="46" ry="46" fill="#cf323d"/><path d="m462 227c-8.07 0-15.6 2.09-22.2 5.74 14.1 7.84 23.7 22.9 23.7 40.2s-9.58 32.4-23.7 40.2c6.59 3.65 14.2 5.74 22.2 5.74 25.4 0 46-20.6 46-46s-20.6-46-46-46z" fill="#c22e39"/><ellipse cx="323" cy="315" rx="46" ry="46" fill="#cf323d"/><path d="m323 269c-8.07 0-15.6 2.09-22.2 5.74 14.1 7.84 23.7 22.9 23.7 40.2s-9.58 32.4-23.7 40.2c6.59 3.65 14.2 5.74 22.2 5.74 25.4 0 46-20.6 46-46s-20.6-46-46-46z" fill="#c22e39"/><ellipse cx="219" cy="341" rx="46" ry="46" fill="#cf323d"/><path d="m219 295c-8.07 0-15.6 2.09-22.2 5.74 14.1 7.84 23.7 22.9 23.7 40.2s-9.58 32.4-23.7 40.2c6.59 3.65 14.2 5.74 22.2 5.74 25.4 0 46-20.6 46-46s-20.6-46-46-46z" fill="#c22e39"/><ellipse cx="266" cy="336" rx="46" ry="46" fill="#cf323d"/><path d="m266 290c-8.07 0-15.6 2.09-22.2 5.74 14.1 7.84 23.7 22.9 23.7 40.2s-9.58 32.4-23.7 40.2c6.59 3.65 14.2 5.74 22.2 5.74 25.4 0 46-20.6 46-46s-20.6-46-46-46z" fill="#c22e39"/><ellipse cx="186" cy="408" rx="46" ry="46" fill="#cf323d"/><path d="m186 362c-8.07 0-15.6 2.09-22.2 5.74 14.1 7.84 23.7 22.9 23.7 40.2s-9.58 32.4-23.7 40.2c6.59 3.65 14.2 5.74 22.2 5.74 25.4 0 46-20.6 46-46s-20.6-46-46-46z" fill="#c22e39"/><ellipse cx="271" cy="394" rx="46" ry="46" fill="#cf323d"/><path d="m271 348c-8.07 0-15.6 2.09-22.2 5.74 14.1 7.84 23.7 22.9 23.7 40.2s-9.58 32.4-23.7 40.2c6.59 3.65 14.2 5.74 22.2 5.74 25.4 0 46-20.6 46-46s-20.6-46-46-46z" fill="#c22e39"/><ellipse cx="443" cy="376" rx="46" ry="46" fill="#cf323d"/><path d="m443 330c-8.07 0-15.6 2.09-22.2 5.74 14.1 7.84 23.7 22.9 23.7 40.2s-9.58 32.4-23.7 40.2c6.59 3.65 14.2 5.74 22.2 5.74 25.4 0 46-20.6 46-46s-20.6-46-46-46z" fill="#c22e39"/><ellipse cx="74.3" cy="452" rx="46" ry="46" fill="#cf323d"/><path d="m74.3 406c-8.07 0-15.6 2.09-22.2 5.74 14.1 7.84 23.7 22.9 23.7 40.2s-9.58 32.4-23.7 40.2c6.59 3.65 14.2 5.74 22.2 5.74 25.4 0 46-20.6 46-46s-20.6-46-46-46z" fill="#c22e39"/><ellipse cx="234" cy="454" rx="46" ry="46" fill="#cf323d"/><path d="m234 408c-8.07 0-15.6 2.09-22.2 5.74 14.1 7.84 23.7 22.9 23.7 40.2s-9.58 32.4-23.7 40.2c6.59 3.65 14.2 5.74 22.2 5.74 25.4 0 46-20.6 46-46s-20.6-46-46-46z" fill="#c22e39"/><ellipse cx="365" cy="461" rx="46" ry="46" fill="#cf323d"/><path d="m365 415c-8.07 0-15.6 2.09-22.2 5.74 14.1 7.84 23.7 22.9 23.7 40.2s-9.58 32.4-23.7 40.2c6.59 3.65 14.2 5.74 22.2 5.74 25.4 0 46-20.6 46-46s-20.6-46-46-46z" fill="#c22e39"/></g><g stroke="null" stroke-opacity="null" stroke-width="null"><ellipse cx="417" cy="374" rx="5.17" ry="5.17"/><ellipse cx="342" cy="458" rx="5.17" ry="5.17"/><ellipse cx="213" cy="450" rx="5.17" ry="5.17"/><ellipse cx="48.8" cy="450" rx="5.17" ry="5.17"/><ellipse cx="164" cy="405" rx="5.17" ry="5.17"/><ellipse cx="117" cy="345" rx="5.17" ry="5.17"/><ellipse cx="92.4" cy="278" rx="5.17" ry="5.17"/><ellipse cx="25.3" cy="238" rx="5.17" ry="5.17"/><ellipse cx="48.8" cy="167" rx="5.17" ry="5.17"/><ellipse cx="105" cy="216" rx="5.17" ry="5.17"/><ellipse cx="164" cy="278" rx="5.17" ry="5.17"/><ellipse cx="177" cy="213" rx="5.17" ry="5.17"/><ellipse cx="215" cy="160" rx="5.17" ry="5.17"/><ellipse cx="195" cy="340" rx="5.17" ry="5.17"/><ellipse cx="241" cy="269" rx="5.17" ry="5.17"/><ellipse cx="260" cy="203" rx="5.17" ry="5.17"/><ellipse cx="329" cy="158" rx="5.17" ry="5.17"/><ellipse cx="316" cy="240" rx="5.17" ry="5.17"/><ellipse cx="386" cy="216" rx="5.17" ry="5.17"/><ellipse cx="439" cy="272" rx="5.17" ry="5.17"/><ellipse cx="372" cy="288" rx="5.17" ry="5.17"/><ellipse cx="245" cy="332" rx="5.17" ry="5.17"/><ellipse cx="247" cy="389" rx="5.17" ry="5.17"/></g></g></svg>
