<svg width="512" height="512" xmlns="http://www.w3.org/2000/svg">

 <g>
  <title>background</title>
  <rect fill="none" id="canvas_background" height="514" width="514" y="-1" x="-1"/>
 </g>
 <g>
  <title>Layer 1</title>
  <g stroke="null" id="svg_60">
   <path stroke="null" id="svg_33" fill="#35b24d" d="m187.381859,4.146673c2.591146,-2.589371 6.941077,-2.04807 8.832968,1.071954c13.50058,22.267882 57.473747,105.724079 -1.302672,164.511146s-142.214868,14.805027 -164.479201,1.302672c-3.118249,-1.891891 -3.661325,-6.243597 -1.071954,-8.834743c15.637388,-15.651586 42.219706,-23.435673 54.353723,-26.319654c2.788144,-0.661985 3.833476,-4.057096 1.950458,-6.204552c-36.945127,-42.097248 -33.668925,-83.552034 -31.569386,-96.138614c0.397546,-2.387049 2.262816,-4.252319 4.649865,-4.649865c12.583031,-2.101313 54.028943,-5.377515 96.119091,31.574711c2.145682,1.884792 5.540793,0.83946 6.202777,-1.950458c2.882206,-12.134017 10.666293,-38.721659 26.314329,-54.362597z"/>
   <g stroke="null" id="svg_35">
    <path stroke="null" id="svg_34" fill="#2f9e44" d="m196.214827,5.218626c-1.891891,-3.118249 -6.241822,-3.661325 -8.832968,-1.071954c-15.648037,15.639163 -23.432123,42.22858 -26.314329,54.364372c13.50058,22.267882 15.612542,66.500164 -22.98311,111.218728c-12.348763,14.308095 -26.433238,22.860651 -41.087411,27.398706c31.448703,5.837177 67.896898,2.624866 97.915146,-27.398706c58.774644,-58.787067 14.803252,-142.243264 1.302672,-164.511146z"/>
   </g>
  </g>
  <g stroke="null" id="svg_88">
   <ellipse stroke="null" id="svg_72" ry="45.961046" rx="45.952413" fill="#cf323d" cy="168.538047" cx="71.906856"/>
   <path stroke="null" id="svg_73" fill="#c22e39" d="m71.906856,122.577c-8.06786,0 -15.645058,2.086391 -22.235178,5.738296c14.139979,7.836199 23.717235,22.908579 23.717235,40.22275s-9.577256,32.386552 -23.717235,40.22275c6.590119,3.651905 14.167318,5.738296 22.235178,5.738296c25.379154,0 45.952413,-20.577576 45.952413,-45.961046s-20.573259,-45.961046 -45.952413,-45.961046z"/>
   <ellipse stroke="null" id="svg_82" ry="45.961046" rx="45.952413" fill="#cf323d" cy="238.967429" cx="48.300415"/>
   <path stroke="null" id="svg_83" fill="#c22e39" d="m48.300415,193.006383c-8.06786,0 -15.645058,2.086391 -22.235178,5.738296c14.139979,7.836199 23.717235,22.908579 23.717235,40.22275s-9.577256,32.386552 -23.717235,40.22275c6.590119,3.651905 14.167318,5.738296 22.235178,5.738296c25.379154,0 45.952413,-20.577576 45.952413,-45.961046s-20.573259,-45.961046 -45.952413,-45.961046z"/>
   <ellipse stroke="null" id="svg_86" ry="45.961046" rx="45.952413" fill="#cf323d" cy="215.930789" cx="130.154589"/>
   <path stroke="null" id="svg_87" fill="#c22e39" d="m130.154589,169.969743c-8.06786,0 -15.645058,2.086391 -22.235178,5.738296c14.139979,7.836199 23.717235,22.908579 23.717235,40.22275s-9.577256,32.386552 -23.717235,40.22275c6.590119,3.651905 14.167318,5.738296 22.235178,5.738296c25.379154,0 45.952413,-20.577576 45.952413,-45.961046s-20.573259,-45.961046 -45.952413,-45.961046z"/>
  </g>
  <g stroke="null" id="svg_102">
   <ellipse stroke="null" id="svg_98" ry="45.961046" rx="45.952413" fill="#cf323d" cy="213.967429" cx="201.300415"/>
   <path stroke="null" id="svg_99" fill="#c22e39" d="m201.30042,168.00638c-8.06787,0 -15.64506,2.08639 -22.23518,5.7383c14.13998,7.8362 23.71723,22.90858 23.71723,40.22275s-9.57725,32.38655 -23.71723,40.22275c6.59012,3.6519 14.16731,5.7383 22.23518,5.7383c25.37915,0 45.95241,-20.57758 45.95241,-45.96105s-20.57326,-45.96105 -45.95241,-45.96105z"/>
  </g>
  <g stroke="null" id="svg_105">
   <ellipse stroke="null" id="svg_103" ry="45.961046" rx="45.952413" fill="#cf323d" cy="281.967429" cx="116.300415"/>
   <path stroke="null" id="svg_104" fill="#c22e39" d="m116.30042,236.00638c-8.06787,0 -15.64506,2.08639 -22.23518,5.7383c14.13998,7.8362 23.71723,22.90858 23.71723,40.22275s-9.57725,32.38655 -23.71723,40.22275c6.59012,3.6519 14.16731,5.7383 22.23518,5.7383c25.37915,0 45.95241,-20.57758 45.95241,-45.96105s-20.57326,-45.96105 -45.95241,-45.96105z"/>
  </g>
  <g stroke="null" id="svg_108">
   <ellipse stroke="null" id="svg_106" ry="45.961046" rx="45.952413" fill="#cf323d" cy="160.967429" cx="239.300415"/>
   <path stroke="null" id="svg_107" fill="#c22e39" d="m239.30042,115.00638c-8.06787,0 -15.64506,2.08639 -22.23518,5.7383c14.13998,7.8362 23.71723,22.90858 23.71723,40.22275s-9.57725,32.38655 -23.71723,40.22275c6.59012,3.6519 14.16731,5.7383 22.23518,5.7383c25.37915,0 45.95241,-20.57758 45.95241,-45.96105s-20.57326,-45.96105 -45.95241,-45.96105z"/>
  </g>
  <g stroke="null" id="svg_111">
   <ellipse stroke="null" id="svg_109" ry="45.961046" rx="45.952413" fill="#cf323d" cy="278.967429" cx="188.300415"/>
   <path stroke="null" id="svg_110" fill="#c22e39" d="m188.30042,233.00638c-8.06787,0 -15.64506,2.08639 -22.23518,5.7383c14.13998,7.8362 23.71723,22.90858 23.71723,40.22275s-9.57725,32.38655 -23.71723,40.22275c6.59012,3.6519 14.16731,5.7383 22.23518,5.7383c25.37915,0 45.95241,-20.57758 45.95241,-45.96105s-20.57326,-45.96105 -45.95241,-45.96105z"/>
  </g>
  <g stroke="null" id="svg_114">
   <ellipse stroke="null" id="svg_112" ry="45.961046" rx="45.952413" fill="#cf323d" cy="270.967429" cx="265.300415"/>
   <path stroke="null" id="svg_113" fill="#c22e39" d="m265.30042,225.00638c-8.06787,0 -15.64506,2.08639 -22.23518,5.7383c14.13998,7.8362 23.71723,22.90858 23.71723,40.22275s-9.57725,32.38655 -23.71723,40.22275c6.59012,3.6519 14.16731,5.7383 22.23518,5.7383c25.37915,0 45.95241,-20.57758 45.95241,-45.96105s-20.57326,-45.96105 -45.95241,-45.96105z"/>
  </g>
  <g stroke="null" id="svg_117">
   <ellipse stroke="null" id="svg_115" ry="45.961046" rx="45.952413" fill="#cf323d" cy="203.967429" cx="283.300415"/>
   <path stroke="null" id="svg_116" fill="#c22e39" d="m283.30042,158.00638c-8.06787,0 -15.64506,2.08639 -22.23518,5.7383c14.13998,7.8362 23.71723,22.90858 23.71723,40.22275s-9.57725,32.38655 -23.71723,40.22275c6.59012,3.6519 14.16731,5.7383 22.23518,5.7383c25.37915,0 45.95241,-20.57758 45.95241,-45.96105s-20.57326,-45.96105 -45.95241,-45.96105z"/>
  </g>
  <g stroke="null" id="svg_120">
   <ellipse stroke="null" id="svg_118" ry="45.961046" rx="45.952413" fill="#cf323d" cy="237.967429" cx="338.300415"/>
   <path stroke="null" id="svg_119" fill="#c22e39" d="m338.30042,192.00638c-8.06787,0 -15.64506,2.08639 -22.23518,5.7383c14.13998,7.8362 23.71723,22.90858 23.71723,40.22275s-9.57725,32.38655 -23.71723,40.22275c6.59012,3.6519 14.16731,5.7383 22.23518,5.7383c25.37915,0 45.95241,-20.57758 45.95241,-45.96105s-20.57326,-45.96105 -45.95241,-45.96105z"/>
  </g>
  <g stroke="null" id="svg_123">
   <ellipse stroke="null" id="svg_121" ry="45.961046" rx="45.952413" fill="#cf323d" cy="157.967429" cx="352.300415"/>
   <path stroke="null" id="svg_122" fill="#c22e39" d="m352.30042,112.00638c-8.06787,0 -15.64506,2.08639 -22.23518,5.7383c14.13998,7.8362 23.71723,22.90858 23.71723,40.22275s-9.57725,32.38655 -23.71723,40.22275c6.59012,3.6519 14.16731,5.7383 22.23518,5.7383c25.37915,0 45.95241,-20.57758 45.95241,-45.96105s-20.57326,-45.96105 -45.95241,-45.96105z"/>
  </g>
  <g stroke="null" id="svg_126">
   <ellipse stroke="null" id="svg_124" ry="45.961046" rx="45.952413" fill="#cf323d" cy="347.967429" cx="139.300415"/>
   <path stroke="null" id="svg_125" fill="#c22e39" d="m139.30042,302.00638c-8.06787,0 -15.64506,2.08639 -22.23518,5.7383c14.13998,7.8362 23.71723,22.90858 23.71723,40.22275s-9.57725,32.38655 -23.71723,40.22275c6.59012,3.6519 14.16731,5.7383 22.23518,5.7383c25.37915,0 45.95241,-20.57758 45.95241,-45.96105s-20.57326,-45.96105 -45.95241,-45.96105z"/>
  </g>
  <g stroke="null" id="svg_129">
   <ellipse stroke="null" id="svg_127" ry="45.961046" rx="45.952413" fill="#cf323d" cy="217.967429" cx="410.300415"/>
   <path stroke="null" id="svg_128" fill="#c22e39" d="m410.30042,172.00638c-8.06787,0 -15.64506,2.08639 -22.23518,5.7383c14.13998,7.8362 23.71723,22.90858 23.71723,40.22275s-9.57725,32.38655 -23.71723,40.22275c6.59012,3.6519 14.16731,5.7383 22.23518,5.7383c25.37915,0 45.95241,-20.57758 45.95241,-45.96105s-20.57326,-45.96105 -45.95241,-45.96105z"/>
  </g>
  <g stroke="null" id="svg_132">
   <ellipse stroke="null" id="svg_130" ry="45.961046" rx="45.952413" fill="#cf323d" cy="288.967429" cx="393.300415"/>
   <path stroke="null" id="svg_131" fill="#c22e39" d="m393.30042,243.00638c-8.06787,0 -15.64506,2.08639 -22.23518,5.7383c14.13998,7.8362 23.71723,22.90858 23.71723,40.22275s-9.57725,32.38655 -23.71723,40.22275c6.59012,3.6519 14.16731,5.7383 22.23518,5.7383c25.37915,0 45.95241,-20.57758 45.95241,-45.96105s-20.57326,-45.96105 -45.95241,-45.96105z"/>
  </g>
  <g stroke="null" id="svg_135">
   <ellipse stroke="null" id="svg_133" ry="45.961046" rx="45.952413" fill="#cf323d" cy="272.967429" cx="462.300415"/>
   <path stroke="null" id="svg_134" fill="#c22e39" d="m462.30042,227.00638c-8.06787,0 -15.64506,2.08639 -22.23518,5.7383c14.13998,7.8362 23.71723,22.90858 23.71723,40.22275s-9.57725,32.38655 -23.71723,40.22275c6.59012,3.6519 14.16731,5.7383 22.23518,5.7383c25.37915,0 45.95241,-20.57758 45.95241,-45.96105s-20.57326,-45.96105 -45.95241,-45.96105z"/>
  </g>
  <g stroke="null" id="svg_138">
   <ellipse stroke="null" id="svg_136" ry="45.961046" rx="45.952413" fill="#cf323d" cy="314.967429" cx="323.300415"/>
   <path stroke="null" id="svg_137" fill="#c22e39" d="m323.30042,269.00638c-8.06787,0 -15.64506,2.08639 -22.23518,5.7383c14.13998,7.8362 23.71723,22.90858 23.71723,40.22275s-9.57725,32.38655 -23.71723,40.22275c6.59012,3.6519 14.16731,5.7383 22.23518,5.7383c25.37915,0 45.95241,-20.57758 45.95241,-45.96105s-20.57326,-45.96105 -45.95241,-45.96105z"/>
  </g>
  <g stroke="null" id="svg_141">
   <ellipse stroke="null" id="svg_139" ry="45.961046" rx="45.952413" fill="#cf323d" cy="340.967429" cx="219.300415"/>
   <path stroke="null" id="svg_140" fill="#c22e39" d="m219.30042,295.00638c-8.06787,0 -15.64506,2.08639 -22.23518,5.7383c14.13998,7.8362 23.71723,22.90858 23.71723,40.22275s-9.57725,32.38655 -23.71723,40.22275c6.59012,3.6519 14.16731,5.7383 22.23518,5.7383c25.37915,0 45.95241,-20.57758 45.95241,-45.96105s-20.57326,-45.96105 -45.95241,-45.96105z"/>
  </g>
  <g stroke="null" id="svg_144">
   <ellipse stroke="null" id="svg_142" ry="45.961046" rx="45.952413" fill="#cf323d" cy="335.967429" cx="266.300415"/>
   <path stroke="null" id="svg_143" fill="#c22e39" d="m266.30042,290.00638c-8.06787,0 -15.64506,2.08639 -22.23518,5.7383c14.13998,7.8362 23.71723,22.90858 23.71723,40.22275s-9.57725,32.38655 -23.71723,40.22275c6.59012,3.6519 14.16731,5.7383 22.23518,5.7383c25.37915,0 45.95241,-20.57758 45.95241,-45.96105s-20.57326,-45.96105 -45.95241,-45.96105z"/>
  </g>
  <g stroke="null" id="svg_147">
   <ellipse stroke="null" id="svg_145" ry="45.961046" rx="45.952413" fill="#cf323d" cy="407.967429" cx="186.300415"/>
   <path stroke="null" id="svg_146" fill="#c22e39" d="m186.30042,362.00638c-8.06787,0 -15.64506,2.08639 -22.23518,5.7383c14.13998,7.8362 23.71723,22.90858 23.71723,40.22275s-9.57725,32.38655 -23.71723,40.22275c6.59012,3.6519 14.16731,5.7383 22.23518,5.7383c25.37915,0 45.95241,-20.57758 45.95241,-45.96105s-20.57326,-45.96105 -45.95241,-45.96105z"/>
  </g>
  <g stroke="null" id="svg_150">
   <ellipse stroke="null" id="svg_148" ry="45.961046" rx="45.952413" fill="#cf323d" cy="393.967429" cx="271.300415"/>
   <path stroke="null" id="svg_149" fill="#c22e39" d="m271.30042,348.00638c-8.06787,0 -15.64506,2.08639 -22.23518,5.7383c14.13998,7.8362 23.71723,22.90858 23.71723,40.22275s-9.57725,32.38655 -23.71723,40.22275c6.59012,3.6519 14.16731,5.7383 22.23518,5.7383c25.37915,0 45.95241,-20.57758 45.95241,-45.96105s-20.57326,-45.96105 -45.95241,-45.96105z"/>
  </g>
  <g stroke="null" id="svg_153">
   <ellipse stroke="null" id="svg_151" ry="45.961046" rx="45.952413" fill="#cf323d" cy="375.967429" cx="443.300415"/>
   <path stroke="null" id="svg_152" fill="#c22e39" d="m443.30042,330.00638c-8.06787,0 -15.64506,2.08639 -22.23518,5.7383c14.13998,7.8362 23.71723,22.90858 23.71723,40.22275s-9.57725,32.38655 -23.71723,40.22275c6.59012,3.6519 14.16731,5.7383 22.23518,5.7383c25.37915,0 45.95241,-20.57758 45.95241,-45.96105s-20.57326,-45.96105 -45.95241,-45.96105z"/>
  </g>
  <g stroke="null" id="svg_156">
   <ellipse stroke="null" id="svg_154" ry="45.961046" rx="45.952413" fill="#cf323d" cy="451.967429" cx="74.300415"/>
   <path stroke="null" id="svg_155" fill="#c22e39" d="m74.30042,406.00638c-8.06787,0 -15.64506,2.08639 -22.23518,5.7383c14.13998,7.8362 23.71723,22.90858 23.71723,40.22275s-9.57725,32.38655 -23.71723,40.22275c6.59012,3.6519 14.16731,5.7383 22.23518,5.7383c25.37915,0 45.95241,-20.57758 45.95241,-45.96105s-20.57326,-45.96105 -45.95241,-45.96105z"/>
  </g>
  <g stroke="null" id="svg_159">
   <ellipse stroke="null" id="svg_157" ry="45.961046" rx="45.952413" fill="#cf323d" cy="453.967429" cx="234.300415"/>
   <path stroke="null" id="svg_158" fill="#c22e39" d="m234.30042,408.00638c-8.06787,0 -15.64506,2.08639 -22.23518,5.7383c14.13998,7.8362 23.71723,22.90858 23.71723,40.22275s-9.57725,32.38655 -23.71723,40.22275c6.59012,3.6519 14.16731,5.7383 22.23518,5.7383c25.37915,0 45.95241,-20.57758 45.95241,-45.96105s-20.57326,-45.96105 -45.95241,-45.96105z"/>
  </g>
  <g stroke="null" id="svg_162">
   <ellipse stroke="null" id="svg_160" ry="45.961046" rx="45.952413" fill="#cf323d" cy="460.967429" cx="365.300415"/>
   <path stroke="null" id="svg_161" fill="#c22e39" d="m365.30042,415.00638c-8.06787,0 -15.64506,2.08639 -22.23518,5.7383c14.13998,7.8362 23.71723,22.90858 23.71723,40.22275s-9.57725,32.38655 -23.71723,40.22275c6.59012,3.6519 14.16731,5.7383 22.23518,5.7383c25.37915,0 45.95241,-20.57758 45.95241,-45.96105s-20.57326,-45.96105 -45.95241,-45.96105z"/>
  </g>
  <ellipse stroke="null" ry="5.166699" rx="5.166699" id="svg_163" cy="374.48782" cx="417.363575" stroke-opacity="null" stroke-width="null" fill="#000000"/>
  <ellipse stroke="null" ry="5.166699" rx="5.166699" id="svg_164" cy="457.552365" cx="342.363544" stroke-opacity="null" stroke-width="null" fill="#000000"/>
  <ellipse stroke="null" ry="5.166699" rx="5.166699" id="svg_165" cy="450.294298" cx="212.524784" stroke-opacity="null" stroke-width="null" fill="#000000"/>
  <ellipse stroke="null" ry="5.166699" rx="5.166699" id="svg_166" cy="450.294298" cx="48.766392" stroke-opacity="null" stroke-width="null" fill="#000000"/>
  <ellipse stroke="null" ry="5.166699" rx="5.166699" id="svg_167" cy="404.656713" cx="163.53149" stroke-opacity="null" stroke-width="null" fill="#000000"/>
  <ellipse stroke="null" ry="5.166699" rx="5.166699" id="svg_168" cy="344.925169" cx="116.551624" stroke-opacity="null" stroke-width="null" fill="#000000"/>
  <ellipse stroke="null" ry="5.166699" rx="5.166699" id="svg_169" cy="278.482214" cx="92.390551" stroke-opacity="null" stroke-width="null" fill="#000000"/>
  <ellipse stroke="null" ry="5.166699" rx="5.166699" id="svg_170" cy="237.542616" cx="25.276461" stroke-opacity="null" stroke-width="null" fill="#000000"/>
  <ellipse stroke="null" ry="5.166699" rx="5.166699" id="svg_171" cy="167.07282" cx="48.766394" stroke-opacity="null" stroke-width="null" fill="#000000"/>
  <ellipse stroke="null" ry="5.166699" rx="5.166699" id="svg_172" cy="216.06611" cx="105.142233" stroke-opacity="null" stroke-width="null" fill="#000000"/>
  <ellipse stroke="null" ry="5.166699" rx="5.166699" id="svg_173" cy="278.482218" cx="163.531496" stroke-opacity="null" stroke-width="null" fill="#000000"/>
  <ellipse stroke="null" ry="5.166699" rx="5.166699" id="svg_174" cy="212.710403" cx="176.954314" stroke-opacity="null" stroke-width="null" fill="#000000"/>
  <ellipse stroke="null" ry="5.166699" rx="5.166699" id="svg_175" cy="159.690269" cx="215.209346" stroke-opacity="null" stroke-width="null" fill="#000000"/>
  <ellipse stroke="null" ry="5.166699" rx="5.166699" id="svg_176" cy="340.22718" cx="195.075118" stroke-opacity="null" stroke-width="null" fill="#000000"/>
  <ellipse stroke="null" ry="5.166699" rx="5.166699" id="svg_177" cy="269.086242" cx="240.712703" stroke-opacity="null" stroke-width="null" fill="#000000"/>
  <ellipse stroke="null" ry="5.166699" rx="5.166699" id="svg_178" cy="202.643287" cx="259.504649" stroke-opacity="null" stroke-width="null" fill="#000000"/>
  <ellipse stroke="null" ry="5.166699" rx="5.166699" id="svg_179" cy="157.676845" cx="328.632167" stroke-opacity="null" stroke-width="null" fill="#000000"/>
  <ellipse stroke="null" ry="5.166699" rx="5.166699" id="svg_180" cy="240.227184" cx="315.88049" stroke-opacity="null" stroke-width="null" fill="#000000"/>
  <ellipse stroke="null" ry="5.166699" rx="5.166699" id="svg_181" cy="216.06611" cx="386.350285" stroke-opacity="null" stroke-width="null" fill="#000000"/>
  <ellipse stroke="null" ry="5.166699" rx="5.166699" id="svg_182" cy="271.770807" cx="439.370419" stroke-opacity="null" stroke-width="null" fill="#000000"/>
  <ellipse stroke="null" ry="5.166699" rx="5.166699" id="svg_183" cy="287.878188" cx="371.585186" stroke-opacity="null" stroke-width="null" fill="#000000"/>
  <ellipse stroke="null" ry="5.166699" rx="5.166699" id="svg_184" cy="332.173492" cx="244.739552" stroke-opacity="null" stroke-width="null" fill="#000000"/>
  <ellipse stroke="null" ry="5.166699" rx="5.166699" id="svg_185" cy="389.22047" cx="246.752974" stroke-opacity="null" stroke-width="null" fill="#000000"/>
 </g>
</svg>