<svg width="512" height="512" xmlns="http://www.w3.org/2000/svg">
 <!-- Created with Method Draw - http://github.com/duopixel/Method-Draw/ -->

 <g>
  <title>background</title>
  <rect fill="none" id="canvas_background" height="514" width="514" y="-1" x="-1"/>
  <g display="none" overflow="visible" y="0" x="0" height="100%" width="100%" id="canvasGrid">
   <rect fill="url(#gridpattern)" stroke-width="0" y="0" x="0" height="100%" width="100%"/>
  </g>
 </g>
 <g>
  <title>Layer 1</title>
  <g stroke="null" id="svg_101">
   <circle stroke="null" transform="matrix(0.9880640781289476,0,0,0.9880640781289476,-1551.9594623428404,-1529.700888941279) " id="svg_5" fill="#FAEBC8" r="256" cy="1807.449848" cx="1828.551117"/>
   <circle stroke="null" transform="matrix(0.9880640781289476,0,0,0.9880640781289476,-1551.9594623428404,-1529.700888941279) " id="svg_6" fill="#EBC9A0" r="238.345001" cy="1807.449848" cx="1828.551117"/>
   <g stroke="null" transform="matrix(0.9880640781289476,0,0,0.9880640781289476,-1551.9594623428404,-1529.700888941279) " id="svg_7">
    <path stroke="null" id="svg_8" fill="#D7AF8C" d="m1828.551096,1569.104823c-72.559,0 -137.498,32.465 -181.215,83.613c41.644,-35.591 95.657,-57.13 154.732,-57.13c131.634,0 238.345,106.711 238.345,238.345c0,59.075 -21.539,113.088 -57.13,154.732c51.148,-43.717 83.613,-108.656 83.613,-181.215c0,-131.634 -106.711,-238.345 -238.345,-238.345z"/>
    <circle stroke="null" id="svg_9" fill="#D7AF8C" r="70.621002" cy="1745.656823" cx="1947.723096"/>
   </g>
   <circle stroke="null" transform="matrix(0.9880640781289476,0,0,0.9880640781289476,-1551.9594623428404,-1529.700888941279) " id="svg_10" fill="#FFFFFF" r="70.621002" cy="1732.415848" cx="1960.965117"/>
   <path stroke="null" id="svg_11" fill="#FAEBC8" d="m416.999416,220.414376c-38.537463,0 -69.778073,-31.24061 -69.778073,-69.778073c0,-11.16216 2.687534,-21.675162 7.347244,-31.030152c-22.944824,11.427949 -38.746933,35.054537 -38.746933,62.430829c0,38.536475 31.24061,69.778073 69.778073,69.778073c27.374315,0 51.001892,-15.801121 62.430829,-38.746933c-9.355979,4.658722 -19.868981,7.346256 -31.03114,7.346256z"/>
   <g stroke="null" transform="matrix(0.9880640781289476,0,0,0.9880640781289476,-1551.9594623428404,-1529.700888941279) " id="svg_12">
    <path stroke="null" id="svg_13" fill="#F5DCB4" d="m1943.310096,1741.242823c-14.603,0 -26.483,-11.88 -26.483,-26.483c0,-4.875 3.948,-8.828 8.828,-8.828c4.879,0 8.828,3.953 8.828,8.828c0,4.866 3.957,8.828 8.828,8.828c4.879,0 8.828,3.953 8.828,8.828s-3.95,8.827 -8.829,8.827z"/>
    <path stroke="null" id="svg_14" fill="#F5DCB4" d="m1996.275096,1758.897823c-4.879,0 -8.828,-3.953 -8.828,-8.828c0,-4.866 -3.957,-8.828 -8.828,-8.828c-4.879,0 -8.828,-3.953 -8.828,-8.828s3.948,-8.828 8.828,-8.828c14.603,0 26.483,11.88 26.483,26.483c0.001,4.877 -3.947,8.829 -8.827,8.829z"/>
    <path stroke="null" id="svg_15" fill="#F5DCB4" d="m1936.801096,1765.355823c-4.491,0 -9.043,-1.142 -13.198,-3.548c-4.224,-2.435 -5.673,-7.837 -3.233,-12.056c2.44,-4.228 7.837,-5.685 12.061,-3.229c4.242,2.431 9.638,0.974 12.061,-3.238c2.44,-4.22 7.844,-5.681 12.061,-3.224c4.224,2.44 5.673,7.837 3.233,12.061c-4.908,8.483 -13.83,13.234 -22.985,13.234z"/>
    <path stroke="null" id="svg_16" fill="#F5DCB4" d="m1969.784096,1725.954823c-1.5,0 -3.017,-0.38 -4.405,-1.185c-4.224,-2.44 -5.673,-7.837 -3.233,-12.061c7.319,-12.638 23.561,-16.988 36.181,-9.685c4.224,2.435 5.673,7.837 3.233,12.056c-2.449,4.224 -7.853,5.668 -12.061,3.229c-4.233,-2.44 -9.638,-0.979 -12.061,3.238c-1.637,2.825 -4.602,4.408 -7.654,4.408z"/>
    <path stroke="null" id="svg_17" fill="#F5DCB4" d="m1963.335096,1780.647823c-3.052,0 -6.017,-1.582 -7.656,-4.414c-2.44,-4.224 -0.991,-9.625 3.233,-12.061c2.044,-1.176 3.509,-3.082 4.12,-5.357c0.604,-2.276 0.293,-4.655 -0.888,-6.694c-2.44,-4.224 -0.991,-9.621 3.233,-12.061c4.199,-2.457 9.612,-0.995 12.061,3.224c3.534,6.13 4.474,13.267 2.646,20.099c-1.836,6.836 -6.216,12.543 -12.345,16.082c-1.386,0.803 -2.903,1.182 -4.404,1.182z"/>
    <path stroke="null" id="svg_18" fill="#F5DCB4" d="m1952.146096,1725.954823c-3.052,0 -6.017,-1.582 -7.656,-4.409c-3.534,-6.13 -4.474,-13.267 -2.646,-20.099c1.836,-6.836 6.216,-12.543 12.345,-16.082c4.207,-2.444 9.612,-0.995 12.061,3.233c2.44,4.224 0.991,9.625 -3.233,12.061c-2.044,1.176 -3.509,3.082 -4.12,5.357c-0.604,2.276 -0.294,4.655 0.888,6.694c2.44,4.224 0.991,9.621 -3.233,12.061c-1.389,0.804 -2.906,1.184 -4.406,1.184z"/>
   </g>
   <circle stroke="null" transform="matrix(0.9880640781289476,0,0,0.9880640781289476,-1551.9594623428404,-1529.700888941279) " id="svg_19" fill="#FFFFFF" r="17.655001" cy="1732.415848" cx="1960.965117"/>
   <circle stroke="null" transform="matrix(0.9880640781289476,0,0,0.9880640781289476,-1551.9594623428404,-1529.700888941279) " id="svg_20" fill="#D7AF8C" r="70.621002" cy="1895.725848" cx="1947.723117"/>
   <circle stroke="null" transform="matrix(0.9880640781289476,0,0,0.9880640781289476,-1551.9594623428404,-1529.700888941279) " id="svg_21" fill="#FFFFFF" r="70.621002" cy="1882.483848" cx="1960.965117"/>
   <path stroke="null" id="svg_22" fill="#FAEBC8" d="m416.999416,368.692164c-38.537463,0 -69.778073,-31.24061 -69.778073,-69.778073c0,-11.16216 2.687534,-21.675162 7.347244,-31.030152c-22.944824,11.427949 -38.746933,35.054537 -38.746933,62.430829c0,38.537463 31.24061,69.778073 69.778073,69.778073c27.374315,0 51.001892,-15.801121 62.430829,-38.746933c-9.355979,4.658722 -19.868981,7.346256 -31.03114,7.346256z"/>
   <g stroke="null" transform="matrix(0.9880640781289476,0,0,0.9880640781289476,-1551.9594623428404,-1529.700888941279) " id="svg_23">
    <path stroke="null" id="svg_24" fill="#F5DCB4" d="m1943.310096,1891.311823c-14.603,0 -26.483,-11.88 -26.483,-26.483c0,-4.875 3.948,-8.828 8.828,-8.828c4.879,0 8.828,3.953 8.828,8.828c0,4.866 3.957,8.828 8.828,8.828c4.879,0 8.828,3.953 8.828,8.828s-3.95,8.827 -8.829,8.827z"/>
    <path stroke="null" id="svg_25" fill="#F5DCB4" d="m1996.275096,1908.966823c-4.879,0 -8.828,-3.953 -8.828,-8.828c0,-4.866 -3.957,-8.828 -8.828,-8.828c-4.879,0 -8.828,-3.953 -8.828,-8.828s3.948,-8.828 8.828,-8.828c14.603,0 26.483,11.88 26.483,26.483c0.001,4.877 -3.947,8.829 -8.827,8.829z"/>
    <path stroke="null" id="svg_26" fill="#F5DCB4" d="m1936.801096,1915.424823c-4.491,0 -9.043,-1.142 -13.198,-3.548c-4.224,-2.435 -5.673,-7.837 -3.233,-12.056c2.44,-4.228 7.837,-5.685 12.061,-3.229c4.242,2.431 9.638,0.974 12.061,-3.237c2.44,-4.22 7.844,-5.681 12.061,-3.224c4.224,2.44 5.673,7.837 3.233,12.061c-4.908,8.482 -13.83,13.233 -22.985,13.233z"/>
    <path stroke="null" id="svg_27" fill="#F5DCB4" d="m1969.784096,1876.023823c-1.5,0 -3.017,-0.38 -4.405,-1.185c-4.224,-2.44 -5.673,-7.837 -3.233,-12.061c7.319,-12.638 23.561,-16.988 36.181,-9.685c4.224,2.435 5.673,7.837 3.233,12.056c-2.449,4.224 -7.853,5.668 -12.061,3.229c-4.233,-2.44 -9.638,-0.979 -12.061,3.237c-1.637,2.826 -4.602,4.409 -7.654,4.409z"/>
    <path stroke="null" id="svg_28" fill="#F5DCB4" d="m1963.335096,1930.716823c-3.052,0 -6.017,-1.582 -7.656,-4.414c-2.44,-4.224 -0.991,-9.625 3.233,-12.061c2.044,-1.176 3.509,-3.082 4.12,-5.357c0.604,-2.276 0.293,-4.655 -0.888,-6.694c-2.44,-4.224 -0.991,-9.621 3.233,-12.061c4.199,-2.457 9.612,-0.995 12.061,3.224c3.534,6.13 4.474,13.267 2.646,20.099c-1.836,6.836 -6.216,12.543 -12.345,16.082c-1.386,0.803 -2.903,1.182 -4.404,1.182z"/>
    <path stroke="null" id="svg_29" fill="#F5DCB4" d="m1952.146096,1876.023823c-3.052,0 -6.017,-1.582 -7.656,-4.409c-3.534,-6.13 -4.474,-13.267 -2.646,-20.099c1.836,-6.836 6.216,-12.543 12.345,-16.082c4.207,-2.444 9.612,-0.995 12.061,3.233c2.44,4.224 0.991,9.625 -3.233,12.061c-2.044,1.176 -3.509,3.082 -4.12,5.357c-0.604,2.276 -0.294,4.655 0.888,6.694c2.44,4.224 0.991,9.621 -3.233,12.061c-1.389,0.804 -2.906,1.184 -4.406,1.184z"/>
   </g>
   <circle stroke="null" transform="matrix(0.9880640781289476,0,0,0.9880640781289476,-1551.9594623428404,-1529.700888941279) " id="svg_30" fill="#FFFFFF" r="17.655001" cy="1882.483848" cx="1960.965117"/>
   <circle stroke="null" transform="matrix(0.9880640781289476,0,0,0.9880640781289476,-1551.9594623428404,-1529.700888941279) " id="svg_31" fill="#D7AF8C" r="70.621002" cy="1670.621848" cx="1815.310117"/>
   <circle stroke="null" transform="matrix(0.9880640781289476,0,0,0.9880640781289476,-1551.9594623428404,-1529.700888941279) " id="svg_32" fill="#FFFFFF" r="70.621002" cy="1657.380848" cx="1828.551117"/>
   <path stroke="null" id="svg_33" fill="#FAEBC8" d="m286.165899,146.274988c-38.536475,0 -69.778073,-31.24061 -69.778073,-69.778073c0,-11.16216 2.687534,-21.675162 7.347244,-31.030152c-22.944824,11.427949 -38.746933,35.054537 -38.746933,62.430829c0,38.537463 31.24061,69.778073 69.778073,69.778073c27.374315,0 51.001892,-15.801121 62.430829,-38.746933c-9.355979,4.658722 -19.868981,7.346256 -31.03114,7.346256z"/>
   <g stroke="null" transform="matrix(0.9880640781289476,0,0,0.9880640781289476,-1551.9594623428404,-1529.700888941279) " id="svg_34">
    <path stroke="null" id="svg_35" fill="#F5DCB4" d="m1810.896096,1666.208823c-14.603,0 -26.483,-11.88 -26.483,-26.483c0,-4.875 3.948,-8.828 8.828,-8.828s8.828,3.953 8.828,8.828c0,4.866 3.957,8.828 8.828,8.828c4.879,0 8.828,3.953 8.828,8.828c-0.002,4.874 -3.95,8.827 -8.829,8.827z"/>
    <path stroke="null" id="svg_36" fill="#F5DCB4" d="m1863.861096,1683.863823c-4.879,0 -8.828,-3.953 -8.828,-8.828c0,-4.866 -3.957,-8.828 -8.828,-8.828c-4.879,0 -8.828,-3.953 -8.828,-8.828c0,-4.875 3.948,-8.828 8.828,-8.828c14.603,0 26.483,11.88 26.483,26.483c0.001,4.876 -3.947,8.829 -8.827,8.829z"/>
    <path stroke="null" id="svg_37" fill="#F5DCB4" d="m1804.388096,1690.320823c-4.491,0 -9.043,-1.142 -13.198,-3.548c-4.224,-2.435 -5.673,-7.837 -3.233,-12.056c2.44,-4.228 7.837,-5.685 12.061,-3.229c4.242,2.431 9.638,0.974 12.061,-3.238c2.44,-4.22 7.844,-5.681 12.061,-3.224c4.224,2.44 5.673,7.837 3.233,12.061c-4.909,8.484 -13.831,13.234 -22.985,13.234z"/>
    <path stroke="null" id="svg_38" fill="#F5DCB4" d="m1837.370096,1650.919823c-1.5,0 -3.017,-0.38 -4.405,-1.185c-4.224,-2.44 -5.673,-7.837 -3.233,-12.061c7.319,-12.638 23.561,-16.988 36.181,-9.685c4.224,2.435 5.673,7.837 3.233,12.056c-2.449,4.224 -7.853,5.668 -12.061,3.229c-4.233,-2.44 -9.638,-0.979 -12.061,3.238c-1.637,2.826 -4.602,4.408 -7.654,4.408z"/>
    <path stroke="null" id="svg_39" fill="#F5DCB4" d="m1830.921096,1705.613823c-3.052,0 -6.017,-1.582 -7.656,-4.414c-2.44,-4.224 -0.991,-9.625 3.233,-12.061c2.044,-1.176 3.509,-3.082 4.12,-5.357c0.604,-2.276 0.294,-4.655 -0.888,-6.694c-2.44,-4.224 -0.991,-9.621 3.233,-12.061c4.199,-2.457 9.612,-0.995 12.061,3.224c3.534,6.13 4.474,13.267 2.646,20.099c-1.836,6.836 -6.216,12.543 -12.345,16.082c-1.386,0.802 -2.903,1.182 -4.404,1.182z"/>
    <path stroke="null" id="svg_40" fill="#F5DCB4" d="m1819.732096,1650.919823c-3.052,0 -6.017,-1.582 -7.656,-4.409c-3.534,-6.13 -4.474,-13.267 -2.646,-20.099c1.836,-6.836 6.216,-12.543 12.345,-16.082c4.207,-2.444 9.612,-0.995 12.061,3.233c2.44,4.224 0.991,9.625 -3.233,12.061c-2.044,1.176 -3.509,3.082 -4.12,5.357c-0.604,2.276 -0.294,4.655 0.888,6.694c2.44,4.224 0.991,9.621 -3.233,12.061c-1.389,0.805 -2.906,1.184 -4.406,1.184z"/>
   </g>
   <circle stroke="null" transform="matrix(0.9880640781289476,0,0,0.9880640781289476,-1551.9594623428404,-1529.700888941279) " id="svg_41" fill="#FFFFFF" r="17.655001" cy="1657.380848" cx="1828.551117"/>
   <circle stroke="null" transform="matrix(0.9880640781289476,0,0,0.9880640781289476,-1551.9594623428404,-1529.700888941279) " id="svg_42" fill="#D7AF8C" r="70.621002" cy="1820.690848" cx="1815.310117"/>
   <circle stroke="null" transform="matrix(0.9880640781289476,0,0,0.9880640781289476,-1551.9594623428404,-1529.700888941279) " id="svg_43" fill="#FFFFFF" r="70.621002" cy="1807.449848" cx="1828.551117"/>
   <path stroke="null" id="svg_44" fill="#FAEBC8" d="m286.165899,294.552776c-38.536475,0 -69.778073,-31.24061 -69.778073,-69.778073c0,-11.16216 2.687534,-21.675162 7.347244,-31.030152c-22.944824,11.427949 -38.746933,35.054537 -38.746933,62.430829c0,38.537463 31.24061,69.778073 69.778073,69.778073c27.374315,0 51.001892,-15.801121 62.430829,-38.746933c-9.355979,4.658722 -19.868981,7.346256 -31.03114,7.346256z"/>
   <g stroke="null" transform="matrix(0.9880640781289476,0,0,0.9880640781289476,-1551.9594623428404,-1529.700888941279) " id="svg_45">
    <path stroke="null" id="svg_46" fill="#F5DCB4" d="m1810.896096,1816.277823c-14.603,0 -26.483,-11.88 -26.483,-26.483c0,-4.875 3.948,-8.828 8.828,-8.828s8.828,3.953 8.828,8.828c0,4.866 3.957,8.828 8.828,8.828c4.879,0 8.828,3.953 8.828,8.828s-3.95,8.827 -8.829,8.827z"/>
    <path stroke="null" id="svg_47" fill="#F5DCB4" d="m1863.861096,1833.932823c-4.879,0 -8.828,-3.953 -8.828,-8.828c0,-4.866 -3.957,-8.828 -8.828,-8.828c-4.879,0 -8.828,-3.953 -8.828,-8.828s3.948,-8.828 8.828,-8.828c14.603,0 26.483,11.88 26.483,26.483c0.001,4.876 -3.947,8.829 -8.827,8.829z"/>
    <path stroke="null" id="svg_48" fill="#F5DCB4" d="m1804.388096,1840.389823c-4.491,0 -9.043,-1.142 -13.198,-3.548c-4.224,-2.435 -5.673,-7.837 -3.233,-12.056c2.44,-4.228 7.837,-5.685 12.061,-3.229c4.242,2.431 9.638,0.974 12.061,-3.238c2.44,-4.22 7.844,-5.681 12.061,-3.224c4.224,2.44 5.673,7.837 3.233,12.061c-4.909,8.484 -13.831,13.234 -22.985,13.234z"/>
    <path stroke="null" id="svg_49" fill="#F5DCB4" d="m1837.370096,1800.988823c-1.5,0 -3.017,-0.38 -4.405,-1.185c-4.224,-2.44 -5.673,-7.837 -3.233,-12.061c7.319,-12.638 23.561,-16.988 36.181,-9.685c4.224,2.435 5.673,7.837 3.233,12.056c-2.449,4.224 -7.853,5.668 -12.061,3.229c-4.233,-2.44 -9.638,-0.979 -12.061,3.238c-1.637,2.826 -4.602,4.408 -7.654,4.408z"/>
    <path stroke="null" id="svg_50" fill="#F5DCB4" d="m1830.921096,1855.682823c-3.052,0 -6.017,-1.582 -7.656,-4.414c-2.44,-4.224 -0.991,-9.625 3.233,-12.061c2.044,-1.176 3.509,-3.082 4.12,-5.357c0.604,-2.276 0.294,-4.655 -0.888,-6.694c-2.44,-4.224 -0.991,-9.621 3.233,-12.061c4.199,-2.457 9.612,-0.995 12.061,3.224c3.534,6.13 4.474,13.267 2.646,20.099c-1.836,6.836 -6.216,12.543 -12.345,16.082c-1.386,0.802 -2.903,1.182 -4.404,1.182z"/>
    <path stroke="null" id="svg_51" fill="#F5DCB4" d="m1819.732096,1800.988823c-3.052,0 -6.017,-1.582 -7.656,-4.409c-3.534,-6.13 -4.474,-13.267 -2.646,-20.099c1.836,-6.836 6.216,-12.543 12.345,-16.082c4.207,-2.444 9.612,-0.995 12.061,3.233c2.44,4.224 0.991,9.625 -3.233,12.061c-2.044,1.176 -3.509,3.082 -4.12,5.357c-0.604,2.276 -0.294,4.655 0.888,6.694c2.44,4.224 0.991,9.621 -3.233,12.061c-1.389,0.805 -2.906,1.184 -4.406,1.184z"/>
   </g>
   <circle stroke="null" transform="matrix(0.9880640781289476,0,0,0.9880640781289476,-1551.9594623428404,-1529.700888941279) " id="svg_52" fill="#FFFFFF" r="17.655001" cy="1807.449848" cx="1828.551117"/>
   <circle stroke="null" transform="matrix(0.9880640781289476,0,0,0.9880640781289476,-1551.9594623428404,-1529.700888941279) " id="svg_53" fill="#D7AF8C" r="70.621002" cy="1970.759848" cx="1815.310117"/>
   <circle stroke="null" transform="matrix(0.9880640781289476,0,0,0.9880640781289476,-1551.9594623428404,-1529.700888941279) " id="svg_54" fill="#FFFFFF" r="70.621002" cy="1957.518848" cx="1828.551117"/>
   <path stroke="null" id="svg_55" fill="#FAEBC8" d="m286.165899,442.830564c-38.536475,0 -69.778073,-31.24061 -69.778073,-69.778073c0,-11.16216 2.687534,-21.675162 7.347244,-31.030152c-22.944824,11.427949 -38.746933,35.054537 -38.746933,62.430829c0,38.536475 31.24061,69.778073 69.778073,69.778073c27.374315,0 51.001892,-15.801121 62.430829,-38.746933c-9.355979,4.658722 -19.868981,7.346256 -31.03114,7.346256z"/>
   <g stroke="null" transform="matrix(0.9880640781289476,0,0,0.9880640781289476,-1551.9594623428404,-1529.700888941279) " id="svg_56">
    <path stroke="null" id="svg_57" fill="#F5DCB4" d="m1810.896096,1966.346823c-14.603,0 -26.483,-11.88 -26.483,-26.483c0,-4.875 3.948,-8.828 8.828,-8.828s8.828,3.953 8.828,8.828c0,4.866 3.957,8.828 8.828,8.828c4.879,0 8.828,3.953 8.828,8.828s-3.95,8.827 -8.829,8.827z"/>
    <path stroke="null" id="svg_58" fill="#F5DCB4" d="m1863.861096,1984.001823c-4.879,0 -8.828,-3.953 -8.828,-8.828c0,-4.866 -3.957,-8.828 -8.828,-8.828c-4.879,0 -8.828,-3.953 -8.828,-8.828s3.948,-8.828 8.828,-8.828c14.603,0 26.483,11.88 26.483,26.483c0.001,4.876 -3.947,8.829 -8.827,8.829z"/>
    <path stroke="null" id="svg_59" fill="#F5DCB4" d="m1804.388096,1990.458823c-4.491,0 -9.043,-1.142 -13.198,-3.548c-4.224,-2.435 -5.673,-7.837 -3.233,-12.056c2.44,-4.228 7.837,-5.685 12.061,-3.229c4.242,2.431 9.638,0.974 12.061,-3.237c2.44,-4.22 7.844,-5.681 12.061,-3.224c4.224,2.44 5.673,7.837 3.233,12.061c-4.909,8.483 -13.831,13.233 -22.985,13.233z"/>
    <path stroke="null" id="svg_60" fill="#F5DCB4" d="m1837.370096,1951.057823c-1.5,0 -3.017,-0.38 -4.405,-1.185c-4.224,-2.44 -5.673,-7.837 -3.233,-12.061c7.319,-12.638 23.561,-16.988 36.181,-9.685c4.224,2.435 5.673,7.837 3.233,12.056c-2.449,4.224 -7.853,5.668 -12.061,3.229c-4.233,-2.44 -9.638,-0.979 -12.061,3.237c-1.637,2.827 -4.602,4.409 -7.654,4.409z"/>
    <path stroke="null" id="svg_61" fill="#F5DCB4" d="m1830.921096,2005.751823c-3.052,0 -6.017,-1.582 -7.656,-4.414c-2.44,-4.224 -0.991,-9.625 3.233,-12.061c2.044,-1.176 3.509,-3.082 4.12,-5.357c0.604,-2.276 0.294,-4.655 -0.888,-6.694c-2.44,-4.224 -0.991,-9.621 3.233,-12.061c4.199,-2.457 9.612,-0.995 12.061,3.224c3.534,6.13 4.474,13.267 2.646,20.099c-1.836,6.836 -6.216,12.543 -12.345,16.082c-1.386,0.802 -2.903,1.182 -4.404,1.182z"/>
    <path stroke="null" id="svg_62" fill="#F5DCB4" d="m1819.732096,1951.057823c-3.052,0 -6.017,-1.582 -7.656,-4.409c-3.534,-6.13 -4.474,-13.267 -2.646,-20.099c1.836,-6.836 6.216,-12.543 12.345,-16.082c4.207,-2.444 9.612,-0.995 12.061,3.233c2.44,4.224 0.991,9.625 -3.233,12.061c-2.044,1.176 -3.509,3.082 -4.12,5.357c-0.604,2.276 -0.294,4.655 0.888,6.694c2.44,4.224 0.991,9.621 -3.233,12.061c-1.389,0.805 -2.906,1.184 -4.406,1.184z"/>
   </g>
   <circle stroke="null" transform="matrix(0.9880640781289476,0,0,0.9880640781289476,-1551.9594623428404,-1529.700888941279) " id="svg_63" fill="#FFFFFF" r="17.655001" cy="1957.518848" cx="1828.551117"/>
   <circle stroke="null" transform="matrix(0.9880640781289476,0,0,0.9880640781289476,-1551.9594623428404,-1529.700888941279) " id="svg_64" fill="#D7AF8C" r="70.621002" cy="1745.656848" cx="1687.310117"/>
   <circle stroke="null" transform="matrix(0.9880640781289476,0,0,0.9880640781289476,-1551.9594623428404,-1529.700888941279) " id="svg_65" fill="#FFFFFF" r="70.621002" cy="1732.415848" cx="1700.551117"/>
   <path stroke="null" id="svg_66" fill="#FAEBC8" d="m159.693697,220.414376c-38.536475,0 -69.778073,-31.24061 -69.778073,-69.778073c0,-11.16216 2.687534,-21.675162 7.347244,-31.030152c-22.944824,11.427949 -38.746933,35.054537 -38.746933,62.430829c0,38.536475 31.24061,69.778073 69.778073,69.778073c27.374315,0 51.001892,-15.801121 62.430829,-38.746933c-9.355979,4.658722 -19.868981,7.346256 -31.03114,7.346256z"/>
   <g stroke="null" transform="matrix(0.9880640781289476,0,0,0.9880640781289476,-1551.9594623428404,-1529.700888941279) " id="svg_67">
    <path stroke="null" id="svg_68" fill="#F5DCB4" d="m1682.896096,1741.242823c-14.603,0 -26.483,-11.88 -26.483,-26.483c0,-4.875 3.948,-8.828 8.828,-8.828c4.879,0 8.828,3.953 8.828,8.828c0,4.866 3.957,8.828 8.828,8.828c4.879,0 8.828,3.953 8.828,8.828s-3.95,8.827 -8.829,8.827z"/>
    <path stroke="null" id="svg_69" fill="#F5DCB4" d="m1735.861096,1758.897823c-4.879,0 -8.828,-3.953 -8.828,-8.828c0,-4.866 -3.957,-8.828 -8.828,-8.828c-4.879,0 -8.828,-3.953 -8.828,-8.828s3.948,-8.828 8.828,-8.828c14.603,0 26.483,11.88 26.483,26.483c0.001,4.877 -3.947,8.829 -8.827,8.829z"/>
    <path stroke="null" id="svg_70" fill="#F5DCB4" d="m1676.388096,1765.355823c-4.491,0 -9.043,-1.142 -13.198,-3.548c-4.224,-2.435 -5.673,-7.837 -3.233,-12.056c2.44,-4.228 7.837,-5.685 12.061,-3.229c4.242,2.431 9.638,0.974 12.061,-3.238c2.44,-4.22 7.844,-5.681 12.061,-3.224c4.224,2.44 5.673,7.837 3.233,12.061c-4.909,8.483 -13.831,13.234 -22.985,13.234z"/>
    <path stroke="null" id="svg_71" fill="#F5DCB4" d="m1709.370096,1725.954823c-1.5,0 -3.017,-0.38 -4.405,-1.185c-4.224,-2.44 -5.673,-7.837 -3.233,-12.061c7.319,-12.638 23.561,-16.988 36.181,-9.685c4.224,2.435 5.673,7.837 3.233,12.056c-2.449,4.224 -7.853,5.668 -12.061,3.229c-4.233,-2.44 -9.638,-0.979 -12.061,3.238c-1.637,2.825 -4.602,4.408 -7.654,4.408z"/>
    <path stroke="null" id="svg_72" fill="#F5DCB4" d="m1702.921096,1780.647823c-3.052,0 -6.017,-1.582 -7.656,-4.414c-2.44,-4.224 -0.991,-9.625 3.233,-12.061c2.044,-1.176 3.509,-3.082 4.12,-5.357c0.604,-2.276 0.294,-4.655 -0.888,-6.694c-2.44,-4.224 -0.991,-9.621 3.233,-12.061c4.199,-2.457 9.612,-0.995 12.061,3.224c3.534,6.13 4.474,13.267 2.646,20.099c-1.836,6.836 -6.216,12.543 -12.345,16.082c-1.386,0.803 -2.903,1.182 -4.404,1.182z"/>
    <path stroke="null" id="svg_73" fill="#F5DCB4" d="m1691.732096,1725.954823c-3.052,0 -6.017,-1.582 -7.656,-4.409c-3.534,-6.13 -4.474,-13.267 -2.646,-20.099c1.836,-6.836 6.216,-12.543 12.345,-16.082c4.207,-2.444 9.612,-0.995 12.061,3.233c2.44,4.224 0.991,9.625 -3.233,12.061c-2.044,1.176 -3.509,3.082 -4.12,5.357c-0.604,2.276 -0.294,4.655 0.888,6.694c2.44,4.224 0.991,9.621 -3.233,12.061c-1.389,0.804 -2.906,1.184 -4.406,1.184z"/>
   </g>
   <circle stroke="null" transform="matrix(0.9880640781289476,0,0,0.9880640781289476,-1551.9594623428404,-1529.700888941279) " id="svg_74" fill="#FFFFFF" r="17.655001" cy="1732.415848" cx="1700.551117"/>
   <circle stroke="null" transform="matrix(0.9880640781289476,0,0,0.9880640781289476,-1551.9594623428404,-1529.700888941279) " id="svg_75" fill="#D7AF8C" r="70.621002" cy="1895.725848" cx="1687.310117"/>
   <circle stroke="null" transform="matrix(0.9880640781289476,0,0,0.9880640781289476,-1551.9594623428404,-1529.700888941279) " id="svg_76" fill="#FFFFFF" r="70.621002" cy="1882.483848" cx="1700.551117"/>
   <path stroke="null" id="svg_77" fill="#FAEBC8" d="m159.693697,368.692164c-38.536475,0 -69.778073,-31.24061 -69.778073,-69.778073c0,-11.16216 2.687534,-21.675162 7.347244,-31.030152c-22.944824,11.427949 -38.746933,35.054537 -38.746933,62.430829c0,38.537463 31.24061,69.778073 69.778073,69.778073c27.374315,0 51.001892,-15.801121 62.430829,-38.746933c-9.355979,4.658722 -19.868981,7.346256 -31.03114,7.346256z"/>
   <g stroke="null" transform="matrix(0.9880640781289476,0,0,0.9880640781289476,-1551.9594623428404,-1529.700888941279) " id="svg_78">
    <path stroke="null" id="svg_79" fill="#F5DCB4" d="m1682.896096,1891.311823c-14.603,0 -26.483,-11.88 -26.483,-26.483c0,-4.875 3.948,-8.828 8.828,-8.828c4.879,0 8.828,3.953 8.828,8.828c0,4.866 3.957,8.828 8.828,8.828c4.879,0 8.828,3.953 8.828,8.828s-3.95,8.827 -8.829,8.827z"/>
    <path stroke="null" id="svg_80" fill="#F5DCB4" d="m1735.861096,1908.966823c-4.879,0 -8.828,-3.953 -8.828,-8.828c0,-4.866 -3.957,-8.828 -8.828,-8.828c-4.879,0 -8.828,-3.953 -8.828,-8.828s3.948,-8.828 8.828,-8.828c14.603,0 26.483,11.88 26.483,26.483c0.001,4.877 -3.947,8.829 -8.827,8.829z"/>
    <path stroke="null" id="svg_81" fill="#F5DCB4" d="m1676.388096,1915.424823c-4.491,0 -9.043,-1.142 -13.198,-3.548c-4.224,-2.435 -5.673,-7.837 -3.233,-12.056c2.44,-4.228 7.837,-5.685 12.061,-3.229c4.242,2.431 9.638,0.974 12.061,-3.237c2.44,-4.22 7.844,-5.681 12.061,-3.224c4.224,2.44 5.673,7.837 3.233,12.061c-4.909,8.482 -13.831,13.233 -22.985,13.233z"/>
    <path stroke="null" id="svg_82" fill="#F5DCB4" d="m1709.370096,1876.023823c-1.5,0 -3.017,-0.38 -4.405,-1.185c-4.224,-2.44 -5.673,-7.837 -3.233,-12.061c7.319,-12.638 23.561,-16.988 36.181,-9.685c4.224,2.435 5.673,7.837 3.233,12.056c-2.449,4.224 -7.853,5.668 -12.061,3.229c-4.233,-2.44 -9.638,-0.979 -12.061,3.237c-1.637,2.826 -4.602,4.409 -7.654,4.409z"/>
    <path stroke="null" id="svg_83" fill="#F5DCB4" d="m1702.921096,1930.716823c-3.052,0 -6.017,-1.582 -7.656,-4.414c-2.44,-4.224 -0.991,-9.625 3.233,-12.061c2.044,-1.176 3.509,-3.082 4.12,-5.357c0.604,-2.276 0.294,-4.655 -0.888,-6.694c-2.44,-4.224 -0.991,-9.621 3.233,-12.061c4.199,-2.457 9.612,-0.995 12.061,3.224c3.534,6.13 4.474,13.267 2.646,20.099c-1.836,6.836 -6.216,12.543 -12.345,16.082c-1.386,0.803 -2.903,1.182 -4.404,1.182z"/>
    <path stroke="null" id="svg_84" fill="#F5DCB4" d="m1691.732096,1876.023823c-3.052,0 -6.017,-1.582 -7.656,-4.409c-3.534,-6.13 -4.474,-13.267 -2.646,-20.099c1.836,-6.836 6.216,-12.543 12.345,-16.082c4.207,-2.444 9.612,-0.995 12.061,3.233c2.44,4.224 0.991,9.625 -3.233,12.061c-2.044,1.176 -3.509,3.082 -4.12,5.357c-0.604,2.276 -0.294,4.655 0.888,6.694c2.44,4.224 0.991,9.621 -3.233,12.061c-1.389,0.804 -2.906,1.184 -4.406,1.184z"/>
   </g>
   <circle stroke="null" transform="matrix(0.9880640781289476,0,0,0.9880640781289476,-1551.9594623428404,-1529.700888941279) " id="svg_85" fill="#FFFFFF" r="17.655001" cy="1882.483848" cx="1700.551117"/>
   <g stroke="null" transform="matrix(0.9880640781289476,0,0,0.9880640781289476,-1551.9594623428404,-1529.700888941279) " id="svg_86"/>
   <g stroke="null" transform="matrix(0.9880640781289476,0,0,0.9880640781289476,-1551.9594623428404,-1529.700888941279) " id="svg_87"/>
   <g stroke="null" transform="matrix(0.9880640781289476,0,0,0.9880640781289476,-1551.9594623428404,-1529.700888941279) " id="svg_88"/>
   <g stroke="null" transform="matrix(0.9880640781289476,0,0,0.9880640781289476,-1551.9594623428404,-1529.700888941279) " id="svg_89"/>
   <g stroke="null" transform="matrix(0.9880640781289476,0,0,0.9880640781289476,-1551.9594623428404,-1529.700888941279) " id="svg_90"/>
   <g stroke="null" transform="matrix(0.9880640781289476,0,0,0.9880640781289476,-1551.9594623428404,-1529.700888941279) " id="svg_91"/>
   <g stroke="null" transform="matrix(0.9880640781289476,0,0,0.9880640781289476,-1551.9594623428404,-1529.700888941279) " id="svg_92"/>
   <g stroke="null" transform="matrix(0.9880640781289476,0,0,0.9880640781289476,-1551.9594623428404,-1529.700888941279) " id="svg_93"/>
   <g stroke="null" transform="matrix(0.9880640781289476,0,0,0.9880640781289476,-1551.9594623428404,-1529.700888941279) " id="svg_94"/>
   <g stroke="null" transform="matrix(0.9880640781289476,0,0,0.9880640781289476,-1551.9594623428404,-1529.700888941279) " id="svg_95"/>
   <g stroke="null" transform="matrix(0.9880640781289476,0,0,0.9880640781289476,-1551.9594623428404,-1529.700888941279) " id="svg_96"/>
   <g stroke="null" transform="matrix(0.9880640781289476,0,0,0.9880640781289476,-1551.9594623428404,-1529.700888941279) " id="svg_97"/>
   <g stroke="null" transform="matrix(0.9880640781289476,0,0,0.9880640781289476,-1551.9594623428404,-1529.700888941279) " id="svg_98"/>
   <g stroke="null" transform="matrix(0.9880640781289476,0,0,0.9880640781289476,-1551.9594623428404,-1529.700888941279) " id="svg_99"/>
   <g stroke="null" transform="matrix(0.9880640781289476,0,0,0.9880640781289476,-1551.9594623428404,-1529.700888941279) " id="svg_100"/>
  </g>
  <ellipse ry="3" rx="2.666666" id="svg_102" cy="174.999972" cx="125.000021" stroke-width="1.5" stroke="#000" fill="#000000"/>
  <ellipse ry="2.571427" rx="2.571427" id="svg_104" cy="160.857055" cx="140.000059" stroke-width="1.5" stroke="#000" fill="#000000"/>
  <ellipse ry="3.459113" rx="3.144648" id="svg_106" cy="182.704043" cx="139.962493" fill-opacity="null" stroke-opacity="null" stroke-width="1.5" stroke="#000" fill="#000000"/>
  <ellipse ry="3.459113" rx="3.459113" id="svg_107" cy="196.540493" cx="120.151211" fill-opacity="null" stroke-opacity="null" stroke-width="1.5" stroke="#000" fill="#000000"/>
  <ellipse ry="3.459113" rx="3.144648" id="svg_108" cy="182.704043" cx="105.371366" fill-opacity="null" stroke-opacity="null" stroke-width="1.5" stroke="#000" fill="#000000"/>
  <ellipse ry="3.773577" rx="2.830183" id="svg_109" cy="196.226028" cx="140.276958" fill-opacity="null" stroke-opacity="null" stroke-width="1.5" stroke="#000" fill="#000000"/>
  <ellipse ry="4.088042" rx="4.716972" id="svg_110" cy="214.150521" cx="135.874451" fill-opacity="null" stroke-opacity="null" stroke-width="1.5" stroke="#000" fill="#000000"/>
  <ellipse ry="3.459113" rx="3.773577" id="svg_111" cy="158.175789" cx="122.352465" fill-opacity="null" stroke-opacity="null" stroke-width="1.5" stroke="#000" fill="#000000"/>
  <ellipse ry="3.459113" rx="3.459113" id="svg_112" cy="163.836155" cx="103.170112" fill-opacity="null" stroke-opacity="null" stroke-width="1.5" stroke="#000" fill="#000000"/>
  <ellipse ry="3.773577" rx="3.773577" id="svg_113" cy="174.213493" cx="153.798944" fill-opacity="null" stroke-opacity="null" stroke-width="1.5" stroke="#000" fill="#000000"/>
  <ellipse ry="3.144648" rx="3.144648" id="svg_114" cy="199.999606" cx="106.000296" fill-opacity="null" stroke-opacity="null" stroke-width="1.5" stroke="#000" fill="#000000"/>
  <ellipse ry="4.402507" rx="3.773577" id="svg_115" cy="194.33924" cx="154.427873" fill-opacity="null" stroke-opacity="null" stroke-width="1.5" stroke="#000" fill="#000000"/>
  <ellipse ry="3.459113" rx="4.402507" id="svg_116" cy="148.112916" cx="143.107141" fill-opacity="null" stroke-opacity="null" stroke-width="1.5" stroke="#000" fill="#000000"/>
  <ellipse ry="3.144648" rx="4.716972" id="svg_117" cy="144.024873" cx="115.119774" fill-opacity="null" stroke-opacity="null" stroke-width="1.5" stroke="#000" fill="#000000"/>
  <ellipse ry="3.144648" rx="2.515718" id="svg_118" cy="156.603465" cx="93.421704" fill-opacity="null" stroke-opacity="null" stroke-width="1.5" stroke="#000" fill="#000000"/>
  <ellipse ry="3.773577" rx="2.830183" id="svg_119" cy="174.842423" cx="93.736169" fill-opacity="null" stroke-opacity="null" stroke-width="1.5" stroke="#000" fill="#000000"/>
  <ellipse ry="2.830183" rx="2.830183" id="svg_120" cy="183.332972" cx="127.069436" fill-opacity="null" stroke-opacity="null" stroke-width="1.5" stroke="#000" fill="#000000"/>
  <ellipse ry="3.773577" rx="4.402507" id="svg_121" cy="157.232395" cx="153.170014" fill-opacity="null" stroke-opacity="null" stroke-width="1.5" stroke="#000" fill="#000000"/>
  <ellipse ry="1.886789" rx="1.572324" id="svg_122" cy="205.031043" cx="158.515915" fill-opacity="null" stroke-opacity="null" stroke-width="1.5" stroke="#000" fill="#000000"/>
  <ellipse ry="3.773577" rx="3.459113" id="svg_123" cy="181.131719" cx="160.402704" fill-opacity="null" stroke-opacity="null" stroke-width="1.5" stroke="#000" fill="#000000"/>
  <ellipse ry="4.088042" rx="3.459113" id="svg_124" cy="211.634803" cx="119.522281" fill-opacity="null" stroke-opacity="null" stroke-width="1.5" stroke="#000" fill="#000000"/>
  <ellipse ry="4.088042" rx="3.773577" id="svg_125" cy="233.647338" cx="258.201254" fill-opacity="null" stroke-opacity="null" stroke-width="1.5" stroke="#000" fill="#000000"/>
  <ellipse ry="4.088042" rx="3.144648" id="svg_126" cy="241.823423" cx="238.075507" fill-opacity="null" stroke-opacity="null" stroke-width="1.5" stroke="#000" fill="#000000"/>
  <ellipse ry="3.144648" rx="2.830183" id="svg_127" cy="250.942902" cx="250.339634" fill-opacity="null" stroke-opacity="null" stroke-width="1.5" stroke="#000" fill="#000000"/>
  <ellipse ry="4.088042" rx="3.459113" id="svg_128" cy="258.804522" cx="267.320732" fill-opacity="null" stroke-opacity="null" stroke-width="1.5" stroke="#000" fill="#000000"/>
  <ellipse ry="3.773577" rx="4.088042" id="svg_129" cy="237.106451" cx="272.981099" fill-opacity="null" stroke-opacity="null" stroke-width="1.5" stroke="#000" fill="#000000"/>
  <ellipse ry="2.515718" rx="1.886789" id="svg_130" cy="265.408282" cx="253.798746" fill-opacity="null" stroke-opacity="null" stroke-width="1.5" stroke="#000" fill="#000000"/>
  <ellipse ry="4.088042" rx="3.773577" id="svg_131" cy="263.835958" cx="239.333366" fill-opacity="null" stroke-opacity="null" stroke-width="1.5" stroke="#000" fill="#000000"/>
  <ellipse ry="3.773577" rx="4.402507" id="svg_132" cy="277.357944" cx="250.025169" fill-opacity="null" stroke-opacity="null" stroke-width="1.5" stroke="#000" fill="#000000"/>
  <ellipse ry="3.459113" rx="3.144648" id="svg_133" cy="272.640972" cx="267.006268" fill-opacity="null" stroke-opacity="null" stroke-width="1.5" stroke="#000" fill="#000000"/>
  <ellipse ry="3.459113" rx="2.830183" id="svg_134" cy="249.999507" cx="280.528254" fill-opacity="null" stroke-opacity="null" stroke-width="1.5" stroke="#000" fill="#000000"/>
  <ellipse ry="2.830183" rx="2.201254" id="svg_135" cy="230.50269" cx="245.937127" fill-opacity="null" stroke-opacity="null" stroke-width="1.5" stroke="#000" fill="#000000"/>
  <ellipse ry="2.830183" rx="3.144648" id="svg_136" cy="224.213395" cx="268.893056" fill-opacity="null" stroke-opacity="null" stroke-width="1.5" stroke="#000" fill="#000000"/>
  <ellipse ry="2.830183" rx="2.201254" id="svg_137" cy="254.402014" cx="226.44031" fill-opacity="null" stroke-opacity="null" stroke-width="1.5" stroke="#000" fill="#000000"/>
  <ellipse ry="2.515718" rx="3.144648" id="svg_138" cy="252.829691" cx="239.333366" fill-opacity="null" stroke-opacity="null" stroke-width="1.5" stroke="#000" fill="#000000"/>
  <ellipse ry="3.144648" rx="3.459113" id="svg_139" cy="244.024676" cx="263.547155" fill-opacity="null" stroke-opacity="null" stroke-width="1.5" stroke="#000" fill="#000000"/>
  <ellipse ry="3.459113" rx="3.144648" id="svg_140" cy="265.093817" cx="278.327" fill-opacity="null" stroke-opacity="null" stroke-width="1.5" stroke="#000" fill="#000000"/>
  <ellipse ry="2.515718" rx="2.515718" id="svg_141" cy="282.389381" cx="269.521986" fill-opacity="null" stroke-opacity="null" stroke-width="1.5" stroke="#000" fill="#000000"/>
  <ellipse ry="3.144648" rx="2.830183" id="svg_142" cy="237.106451" cx="288.075408" fill-opacity="null" stroke-opacity="null" stroke-width="1.5" stroke="#000" fill="#000000"/>
  <ellipse ry="2.201254" rx="2.201254" id="svg_143" cy="261.32024" cx="288.075408" fill-opacity="null" stroke-opacity="null" stroke-width="1.5" stroke="#000" fill="#000000"/>
  <ellipse ry="3.459113" rx="2.830183" id="svg_144" cy="228.615902" cx="236.503183" fill-opacity="null" stroke-opacity="null" stroke-width="1.5" stroke="#000" fill="#000000"/>
  <ellipse ry="4.716972" rx="3.773577" id="svg_147" cy="393.395451" cx="235.559789" fill-opacity="null" stroke-opacity="null" stroke-width="1.5" stroke="#000" fill="#000000"/>
  <ellipse ry="3.773577" rx="3.144648" id="svg_148" cy="381.760254" cx="246.251592" fill-opacity="null" stroke-opacity="null" stroke-width="1.5" stroke="#000" fill="#000000"/>
  <ellipse ry="3.773577" rx="3.773577" id="svg_149" cy="401.257071" cx="267.006268" fill-opacity="null" stroke-opacity="null" stroke-width="1.5" stroke="#000" fill="#000000"/>
  <ellipse ry="4.716972" rx="4.402507" id="svg_151" cy="367.609339" cx="241.849084" fill-opacity="null" stroke-opacity="null" stroke-width="1.5" stroke="#000" fill="#000000"/>
  <ellipse ry="3.773577" rx="5.031437" id="svg_155" cy="402.51493" cx="247.509451" fill-opacity="null" stroke-opacity="null" stroke-width="1.5" stroke="#000" fill="#000000"/>
  <ellipse ry="3.459113" rx="2.515718" id="svg_158" cy="412.263339" cx="258.201254" fill-opacity="null" stroke-opacity="null" stroke-width="1.5" stroke="#000" fill="#000000"/>
  <ellipse ry="3.773577" rx="3.459113" id="svg_159" cy="424.527465" cx="233.987465" fill-opacity="null" stroke-opacity="null" stroke-width="1.5" stroke="#000" fill="#000000"/>
  <ellipse ry="3.144648" rx="3.459113" id="svg_161" cy="427.043184" cx="267.949662" fill-opacity="null" stroke-opacity="null" stroke-width="1.5" stroke="#000" fill="#000000"/>
  <ellipse ry="2.830183" rx="3.773577" id="svg_162" cy="375.156494" cx="275.182352" fill-opacity="null" stroke-opacity="null" stroke-width="1.5" stroke="#000" fill="#000000"/>
  <ellipse ry="4.088042" rx="3.459113" id="svg_163" cy="401.571536" cx="217.006366" fill-opacity="null" stroke-opacity="null" stroke-width="1.5" stroke="#000" fill="#000000"/>
  <ellipse ry="4.128445" rx="3.669729" id="svg_164" cy="308.752358" cx="364.715724" fill-opacity="null" stroke-opacity="null" stroke-width="1.5" stroke="#000" fill="#000000"/>
  <ellipse ry="2.645502" rx="2.910053" id="svg_165" cy="346.560827" cx="379.809513" fill-opacity="null" stroke-opacity="null" stroke-width="1.5" stroke="#000" fill="#000000"/>
  <ellipse ry="2.380952" rx="2.116402" id="svg_166" cy="336.243368" cx="402.296284" fill-opacity="null" stroke-opacity="null" stroke-width="1.5" stroke="#000" fill="#000000"/>
  <ellipse ry="3.439153" rx="2.645502" id="svg_167" cy="314.550247" cx="413.407395" fill-opacity="null" stroke-opacity="null" stroke-width="1.5" stroke="#000" fill="#000000"/>
  <ellipse ry="3.968254" rx="5.026455" id="svg_168" cy="302.910036" cx="395.682528" fill-opacity="null" stroke-opacity="null" stroke-width="1.5" stroke="#000" fill="#000000"/>
  <ellipse ry="4.761904" rx="3.174603" id="svg_169" cy="320.634903" cx="382.719566" fill-opacity="null" stroke-opacity="null" stroke-width="1.5" stroke="#000" fill="#000000"/>
  <ellipse ry="1.851852" rx="2.380952" id="svg_170" cy="303.968237" cx="376.63491" fill-opacity="null" stroke-opacity="null" stroke-width="1.5" stroke="#000" fill="#000000"/>
  <ellipse ry="4.232804" rx="3.439153" id="svg_171" cy="325.925908" cx="362.878297" fill-opacity="null" stroke-opacity="null" stroke-width="1.5" stroke="#000" fill="#000000"/>
  <ellipse ry="2.116402" rx="3.439153" id="svg_172" cy="330.687812" cx="373.989407" fill-opacity="null" stroke-opacity="null" stroke-width="1.5" stroke="#000" fill="#000000"/>
  <ellipse ry="3.968254" rx="3.703703" id="svg_173" cy="335.714267" cx="387.48147" fill-opacity="null" stroke-opacity="null" stroke-width="1.5" stroke="#000" fill="#000000"/>
  <ellipse ry="3.439153" rx="2.645502" id="svg_174" cy="349.999981" cx="397.53438" fill-opacity="null" stroke-opacity="null" stroke-width="1.5" stroke="#000" fill="#000000"/>
  <ellipse ry="4.232804" rx="3.703703" id="svg_175" cy="334.391516" cx="417.111098" fill-opacity="null" stroke-opacity="null" stroke-width="1.5" stroke="#000" fill="#000000"/>
  <ellipse ry="2.910053" rx="3.703703" id="svg_176" cy="321.428554" cx="402.296284" fill-opacity="null" stroke-opacity="null" stroke-width="1.5" stroke="#000" fill="#000000"/>
  <ellipse ry="4.088042" rx="3.773577" id="svg_178" cy="209.308715" cx="252.381148" fill-opacity="null" stroke-opacity="null" stroke-width="1.5" stroke="#000" fill="#000000"/>
  <ellipse ry="4.088042" rx="3.144648" id="svg_179" cy="241.823423" cx="238.075507" fill-opacity="null" stroke-opacity="null" stroke-width="1.5" stroke="#000" fill="#000000"/>
  <ellipse ry="3.144648" rx="2.830183" id="svg_180" cy="250.942902" cx="250.339634" fill-opacity="null" stroke-opacity="null" stroke-width="1.5" stroke="#000" fill="#000000"/>
  <ellipse ry="4.088042" rx="3.459113" id="svg_181" cy="258.804522" cx="267.320732" fill-opacity="null" stroke-opacity="null" stroke-width="1.5" stroke="#000" fill="#000000"/>
  <ellipse ry="4.088042" rx="3.773577" id="svg_182" cy="263.835958" cx="239.333366" fill-opacity="null" stroke-opacity="null" stroke-width="1.5" stroke="#000" fill="#000000"/>
  <ellipse ry="3.773577" rx="4.402507" id="svg_183" cy="277.357944" cx="250.025169" fill-opacity="null" stroke-opacity="null" stroke-width="1.5" stroke="#000" fill="#000000"/>
  <ellipse ry="2.515718" rx="3.144648" id="svg_184" cy="252.829691" cx="239.333366" fill-opacity="null" stroke-opacity="null" stroke-width="1.5" stroke="#000" fill="#000000"/>
  <ellipse ry="3.144648" rx="3.459113" id="svg_185" cy="244.024676" cx="263.547155" fill-opacity="null" stroke-opacity="null" stroke-width="1.5" stroke="#000" fill="#000000"/>
  <ellipse ry="4.088042" rx="3.773577" id="svg_186" cy="79.624357" cx="262.224243" fill-opacity="null" stroke-opacity="null" stroke-width="1.5" stroke="#000" fill="#000000"/>
  <ellipse ry="3.773577" rx="4.088042" id="svg_187" cy="83.083469" cx="277.004088" fill-opacity="null" stroke-opacity="null" stroke-width="1.5" stroke="#000" fill="#000000"/>
  <ellipse ry="2.515718" rx="1.886789" id="svg_188" cy="111.3853" cx="257.821736" fill-opacity="null" stroke-opacity="null" stroke-width="1.5" stroke="#000" fill="#000000"/>
  <ellipse ry="3.459113" rx="3.144648" id="svg_189" cy="118.617991" cx="271.029257" fill-opacity="null" stroke-opacity="null" stroke-width="1.5" stroke="#000" fill="#000000"/>
  <ellipse ry="3.459113" rx="2.830183" id="svg_190" cy="95.976526" cx="284.551243" fill-opacity="null" stroke-opacity="null" stroke-width="1.5" stroke="#000" fill="#000000"/>
  <ellipse ry="2.830183" rx="3.144648" id="svg_191" cy="70.190413" cx="272.916046" fill-opacity="null" stroke-opacity="null" stroke-width="1.5" stroke="#000" fill="#000000"/>
  <ellipse ry="3.459113" rx="3.144648" id="svg_192" cy="111.070836" cx="282.349989" fill-opacity="null" stroke-opacity="null" stroke-width="1.5" stroke="#000" fill="#000000"/>
  <ellipse ry="3.144648" rx="2.830183" id="svg_193" cy="83.083469" cx="292.098398" fill-opacity="null" stroke-opacity="null" stroke-width="1.5" stroke="#000" fill="#000000"/>
  <ellipse ry="2.201254" rx="2.201254" id="svg_194" cy="107.297258" cx="292.098398" fill-opacity="null" stroke-opacity="null" stroke-width="1.5" stroke="#000" fill="#000000"/>
  <ellipse ry="3.144648" rx="2.830183" id="svg_195" cy="96.91992" cx="254.362623" fill-opacity="null" stroke-opacity="null" stroke-width="1.5" stroke="#000" fill="#000000"/>
  <ellipse ry="4.088042" rx="3.459113" id="svg_196" cy="104.78154" cx="271.343722" fill-opacity="null" stroke-opacity="null" stroke-width="1.5" stroke="#000" fill="#000000"/>
  <ellipse ry="3.144648" rx="3.459113" id="svg_197" cy="90.001695" cx="267.570144" fill-opacity="null" stroke-opacity="null" stroke-width="1.5" stroke="#000" fill="#000000"/>
  <ellipse ry="4.088042" rx="3.773577" id="svg_198" cy="68.704817" cx="222.569069" fill-opacity="null" stroke-opacity="null" stroke-width="1.5" stroke="#000" fill="#000000"/>
  <ellipse ry="3.773577" rx="4.088042" id="svg_199" cy="128.48577" cx="235.624777" fill-opacity="null" stroke-opacity="null" stroke-width="1.5" stroke="#000" fill="#000000"/>
  <ellipse ry="2.515718" rx="1.886789" id="svg_200" cy="109.661163" cx="214.143574" fill-opacity="null" stroke-opacity="null" stroke-width="1.5" stroke="#000" fill="#000000"/>
  <ellipse ry="3.459113" rx="3.144648" id="svg_201" cy="131.836381" cx="260.109716" fill-opacity="null" stroke-opacity="null" stroke-width="1.5" stroke="#000" fill="#000000"/>
  <ellipse ry="3.459113" rx="2.830183" id="svg_202" cy="94.252388" cx="240.873081" fill-opacity="null" stroke-opacity="null" stroke-width="1.5" stroke="#000" fill="#000000"/>
  <ellipse ry="2.830183" rx="3.144648" id="svg_203" cy="76.512252" cx="234.410298" fill-opacity="null" stroke-opacity="null" stroke-width="1.5" stroke="#000" fill="#000000"/>
  <ellipse ry="3.459113" rx="3.144648" id="svg_204" cy="117.967387" cx="249.591368" fill-opacity="null" stroke-opacity="null" stroke-width="1.5" stroke="#000" fill="#000000"/>
  <ellipse ry="3.144648" rx="2.830183" id="svg_205" cy="81.359332" cx="248.420236" fill-opacity="null" stroke-opacity="null" stroke-width="1.5" stroke="#000" fill="#000000"/>
  <ellipse ry="2.201254" rx="2.201254" id="svg_206" cy="105.57312" cx="248.420236" fill-opacity="null" stroke-opacity="null" stroke-width="1.5" stroke="#000" fill="#000000"/>
  <ellipse ry="3.144648" rx="2.830183" id="svg_207" cy="91.747506" cx="216.431588" fill-opacity="null" stroke-opacity="null" stroke-width="1.5" stroke="#000" fill="#000000"/>
  <ellipse ry="4.088042" rx="3.459113" id="svg_208" cy="109.379241" cx="235.136824" fill-opacity="null" stroke-opacity="null" stroke-width="1.5" stroke="#000" fill="#000000"/>
  <ellipse ry="3.144648" rx="3.459113" id="svg_209" cy="95.748821" cx="227.914971" fill-opacity="null" stroke-opacity="null" stroke-width="1.5" stroke="#000" fill="#000000"/>
  <ellipse ry="2.571427" rx="2.571427" id="svg_210" cy="306.83406" cx="138.850634" stroke-width="1.5" stroke="#000" fill="#000000"/>
  <ellipse ry="3.773577" rx="2.830183" id="svg_211" cy="342.203033" cx="139.127532" fill-opacity="null" stroke-opacity="null" stroke-width="1.5" stroke="#000" fill="#000000"/>
  <ellipse ry="4.088042" rx="4.716972" id="svg_212" cy="360.127526" cx="134.725025" fill-opacity="null" stroke-opacity="null" stroke-width="1.5" stroke="#000" fill="#000000"/>
  <ellipse ry="3.459113" rx="3.459113" id="svg_213" cy="309.81316" cx="102.020687" fill-opacity="null" stroke-opacity="null" stroke-width="1.5" stroke="#000" fill="#000000"/>
  <ellipse ry="3.773577" rx="3.773577" id="svg_214" cy="320.190498" cx="152.649518" fill-opacity="null" stroke-opacity="null" stroke-width="1.5" stroke="#000" fill="#000000"/>
  <ellipse ry="4.402507" rx="3.773577" id="svg_215" cy="340.316245" cx="153.278448" fill-opacity="null" stroke-opacity="null" stroke-width="1.5" stroke="#000" fill="#000000"/>
  <ellipse ry="3.144648" rx="4.716972" id="svg_216" cy="290.001878" cx="113.970349" fill-opacity="null" stroke-opacity="null" stroke-width="1.5" stroke="#000" fill="#000000"/>
  <ellipse ry="3.773577" rx="3.459113" id="svg_217" cy="327.108724" cx="159.253279" fill-opacity="null" stroke-opacity="null" stroke-width="1.5" stroke="#000" fill="#000000"/>
  <ellipse ry="3.773577" rx="2.830183" id="svg_218" cy="326.685792" cx="123.035579" fill-opacity="null" stroke-opacity="null" stroke-width="1.5" stroke="#000" fill="#000000"/>
  <ellipse ry="3.16092" rx="2.873563" id="svg_219" cy="325.574711" cx="105.137932" fill-opacity="null" stroke-opacity="null" stroke-width="1.5" stroke="#000" fill="#000000"/>
  <ellipse ry="3.16092" rx="3.16092" id="svg_220" cy="342.241377" cx="109.448277" fill-opacity="null" stroke-opacity="null" stroke-width="1.5" stroke="#000" fill="#000000"/>
  <ellipse ry="3.448276" rx="3.16092" id="svg_221" cy="351.724136" cx="89.333334" fill-opacity="null" stroke-opacity="null" stroke-width="1.5" stroke="#000" fill="#000000"/>
  <ellipse ry="4.310345" rx="4.310345" id="svg_222" cy="339.367814" cx="74.965518" fill-opacity="null" stroke-opacity="null" stroke-width="1.5" stroke="#000" fill="#000000"/>
  <ellipse ry="4.022988" rx="3.448276" id="svg_223" cy="288.505746" cx="139.045978" fill-opacity="null" stroke-opacity="null" stroke-width="1.5" stroke="#000" fill="#000000"/>
  <ellipse ry="3" rx="2.666666" id="svg_224" cy="177.873535" cx="385.91956" stroke-width="1.5" stroke="#000" fill="#000000"/>
  <ellipse ry="2.571427" rx="2.571427" id="svg_225" cy="163.730618" cx="400.919598" stroke-width="1.5" stroke="#000" fill="#000000"/>
  <ellipse ry="3.459113" rx="3.144648" id="svg_226" cy="185.577606" cx="400.882032" fill-opacity="null" stroke-opacity="null" stroke-width="1.5" stroke="#000" fill="#000000"/>
  <ellipse ry="3.459113" rx="3.459113" id="svg_227" cy="199.414057" cx="381.070751" fill-opacity="null" stroke-opacity="null" stroke-width="1.5" stroke="#000" fill="#000000"/>
  <ellipse ry="3.459113" rx="3.144648" id="svg_228" cy="185.577606" cx="366.290905" fill-opacity="null" stroke-opacity="null" stroke-width="1.5" stroke="#000" fill="#000000"/>
  <ellipse ry="3.773577" rx="2.830183" id="svg_229" cy="199.099592" cx="401.196497" fill-opacity="null" stroke-opacity="null" stroke-width="1.5" stroke="#000" fill="#000000"/>
  <ellipse ry="4.088042" rx="4.716972" id="svg_230" cy="217.024085" cx="396.79399" fill-opacity="null" stroke-opacity="null" stroke-width="1.5" stroke="#000" fill="#000000"/>
  <ellipse ry="3.459113" rx="3.773577" id="svg_231" cy="161.049352" cx="383.272004" fill-opacity="null" stroke-opacity="null" stroke-width="1.5" stroke="#000" fill="#000000"/>
  <ellipse ry="3.459113" rx="3.459113" id="svg_232" cy="166.709718" cx="364.089652" fill-opacity="null" stroke-opacity="null" stroke-width="1.5" stroke="#000" fill="#000000"/>
  <ellipse ry="3.773577" rx="3.773577" id="svg_233" cy="177.087057" cx="414.718483" fill-opacity="null" stroke-opacity="null" stroke-width="1.5" stroke="#000" fill="#000000"/>
  <ellipse ry="3.144648" rx="3.144648" id="svg_234" cy="202.873169" cx="366.919835" fill-opacity="null" stroke-opacity="null" stroke-width="1.5" stroke="#000" fill="#000000"/>
  <ellipse ry="4.402507" rx="3.773577" id="svg_235" cy="197.212803" cx="415.347413" fill-opacity="null" stroke-opacity="null" stroke-width="1.5" stroke="#000" fill="#000000"/>
  <ellipse ry="3.459113" rx="4.402507" id="svg_236" cy="150.986479" cx="404.02668" fill-opacity="null" stroke-opacity="null" stroke-width="1.5" stroke="#000" fill="#000000"/>
  <ellipse ry="3.144648" rx="4.716972" id="svg_237" cy="146.898437" cx="376.039314" fill-opacity="null" stroke-opacity="null" stroke-width="1.5" stroke="#000" fill="#000000"/>
  <ellipse ry="3.144648" rx="2.515718" id="svg_238" cy="159.477028" cx="354.341243" fill-opacity="null" stroke-opacity="null" stroke-width="1.5" stroke="#000" fill="#000000"/>
  <ellipse ry="3.773577" rx="2.830183" id="svg_239" cy="177.715986" cx="354.655708" fill-opacity="null" stroke-opacity="null" stroke-width="1.5" stroke="#000" fill="#000000"/>
  <ellipse ry="2.830183" rx="2.830183" id="svg_240" cy="186.206535" cx="387.988976" fill-opacity="null" stroke-opacity="null" stroke-width="1.5" stroke="#000" fill="#000000"/>
  <ellipse ry="3.773577" rx="4.402507" id="svg_241" cy="160.105958" cx="414.089553" fill-opacity="null" stroke-opacity="null" stroke-width="1.5" stroke="#000" fill="#000000"/>
  <ellipse ry="1.886789" rx="1.572324" id="svg_242" cy="207.904606" cx="419.435455" fill-opacity="null" stroke-opacity="null" stroke-width="1.5" stroke="#000" fill="#000000"/>
  <ellipse ry="3.773577" rx="3.459113" id="svg_243" cy="184.005282" cx="421.322244" fill-opacity="null" stroke-opacity="null" stroke-width="1.5" stroke="#000" fill="#000000"/>
  <ellipse ry="4.088042" rx="3.459113" id="svg_244" cy="214.508366" cx="380.441821" fill-opacity="null" stroke-opacity="null" stroke-width="1.5" stroke="#000" fill="#000000"/>
  <ellipse ry="4.761904" rx="3.174603" id="svg_245" cy="372.928474" cx="262.536094" fill-opacity="null" stroke-opacity="null" stroke-width="1.5" stroke="#000" fill="#000000"/>
  <ellipse ry="3.439153" rx="2.645502" id="svg_246" cy="402.293552" cx="277.350908" fill-opacity="null" stroke-opacity="null" stroke-width="1.5" stroke="#000" fill="#000000"/>
 </g>
</svg>