<svg width="512" height="512" version="1.1" xmlns="http://www.w3.org/2000/svg"><g><title>background</title><rect id="canvas_background" x="-1" y="-1" width="514" height="514" fill="none"/><g id="canvasGrid" x="0" y="0" width="100%" height="100%" display="none" overflow="visible"><rect width="100%" height="100%" fill="url(#gridpattern)" stroke-width="0"/></g></g><g><title>Layer 1</title><g stroke="null"><circle transform="matrix(.988 0 0 .988 -1552 -1530)" cx="1829" cy="1807" r="256" fill="#FAEBC8"/><circle transform="matrix(.988 0 0 .988 -1552 -1530)" cx="1829" cy="1807" r="238" fill="#EBC9A0"/><g transform="matrix(.988 0 0 .988 -1552 -1530)" fill="#D7AF8C"><path d="m1829 1569c-72.6 0-137 32.5-181 83.6 41.6-35.6 95.7-57.1 155-57.1 132 0 238 107 238 238 0 59.1-21.5 113-57.1 155 51.1-43.7 83.6-109 83.6-181 0-132-107-238-238-238z"/><circle cx="1948" cy="1746" r="70.6"/></g><circle transform="matrix(.988 0 0 .988 -1552 -1530)" cx="1961" cy="1732" r="70.6" fill="#fff"/><path d="m417 220c-38.5 0-69.8-31.2-69.8-69.8 0-11.2 2.69-21.7 7.35-31-22.9 11.4-38.7 35.1-38.7 62.4 0 38.5 31.2 69.8 69.8 69.8 27.4 0 51-15.8 62.4-38.7-9.36 4.66-19.9 7.35-31 7.35z" fill="#FAEBC8"/><g transform="matrix(.988 0 0 .988 -1552 -1530)" fill="#F5DCB4"><path d="m1943 1741c-14.6 0-26.5-11.9-26.5-26.5 0-4.88 3.95-8.83 8.83-8.83 4.88 0 8.83 3.95 8.83 8.83 0 4.87 3.96 8.83 8.83 8.83 4.88 0 8.83 3.95 8.83 8.83s-3.95 8.83-8.83 8.83z"/><path d="m2e3 1759c-4.88 0-8.83-3.95-8.83-8.83 0-4.87-3.96-8.83-8.83-8.83-4.88 0-8.83-3.95-8.83-8.83s3.95-8.83 8.83-8.83c14.6 0 26.5 11.9 26.5 26.5 1e-3 4.88-3.95 8.83-8.83 8.83z"/><path d="m1937 1765c-4.49 0-9.04-1.14-13.2-3.55-4.22-2.44-5.67-7.84-3.23-12.1 2.44-4.23 7.84-5.68 12.1-3.23 4.24 2.43 9.64 0.974 12.1-3.24 2.44-4.22 7.84-5.68 12.1-3.22 4.22 2.44 5.67 7.84 3.23 12.1-4.91 8.48-13.8 13.2-23 13.2z"/><path d="m1970 1726c-1.5 0-3.02-0.38-4.4-1.18-4.22-2.44-5.67-7.84-3.23-12.1 7.32-12.6 23.6-17 36.2-9.68 4.22 2.44 5.67 7.84 3.23 12.1-2.45 4.22-7.85 5.67-12.1 3.23-4.23-2.44-9.64-0.979-12.1 3.24-1.64 2.82-4.6 4.41-7.65 4.41z"/><path d="m1963 1781c-3.05 0-6.02-1.58-7.66-4.41-2.44-4.22-0.991-9.62 3.23-12.1 2.04-1.18 3.51-3.08 4.12-5.36 0.604-2.28 0.293-4.66-0.888-6.69-2.44-4.22-0.991-9.62 3.23-12.1 4.2-2.46 9.61-0.995 12.1 3.22 3.53 6.13 4.47 13.3 2.65 20.1-1.84 6.84-6.22 12.5-12.3 16.1-1.39 0.803-2.9 1.18-4.4 1.18z"/><path d="m1952 1726c-3.05 0-6.02-1.58-7.66-4.41-3.53-6.13-4.47-13.3-2.65-20.1 1.84-6.84 6.22-12.5 12.3-16.1 4.21-2.44 9.61-0.995 12.1 3.23 2.44 4.22 0.991 9.62-3.23 12.1-2.04 1.18-3.51 3.08-4.12 5.36-0.604 2.28-0.294 4.66 0.888 6.69 2.44 4.22 0.991 9.62-3.23 12.1-1.39 0.804-2.91 1.18-4.41 1.18z"/></g><circle transform="matrix(.988 0 0 .988 -1552 -1530)" cx="1961" cy="1732" r="17.7" fill="#fff"/><circle transform="matrix(.988 0 0 .988 -1552 -1530)" cx="1948" cy="1896" r="70.6" fill="#D7AF8C"/><circle transform="matrix(.988 0 0 .988 -1552 -1530)" cx="1961" cy="1882" r="70.6" fill="#fff"/><path d="m417 369c-38.5 0-69.8-31.2-69.8-69.8 0-11.2 2.69-21.7 7.35-31-22.9 11.4-38.7 35.1-38.7 62.4 0 38.5 31.2 69.8 69.8 69.8 27.4 0 51-15.8 62.4-38.7-9.36 4.66-19.9 7.35-31 7.35z" fill="#FAEBC8"/><g transform="matrix(.988 0 0 .988 -1552 -1530)" fill="#F5DCB4"><path d="m1943 1891c-14.6 0-26.5-11.9-26.5-26.5 0-4.88 3.95-8.83 8.83-8.83 4.88 0 8.83 3.95 8.83 8.83 0 4.87 3.96 8.83 8.83 8.83 4.88 0 8.83 3.95 8.83 8.83s-3.95 8.83-8.83 8.83z"/><path d="m2e3 1909c-4.88 0-8.83-3.95-8.83-8.83 0-4.87-3.96-8.83-8.83-8.83-4.88 0-8.83-3.95-8.83-8.83s3.95-8.83 8.83-8.83c14.6 0 26.5 11.9 26.5 26.5 1e-3 4.88-3.95 8.83-8.83 8.83z"/><path d="m1937 1915c-4.49 0-9.04-1.14-13.2-3.55-4.22-2.44-5.67-7.84-3.23-12.1 2.44-4.23 7.84-5.68 12.1-3.23 4.24 2.43 9.64 0.974 12.1-3.24 2.44-4.22 7.84-5.68 12.1-3.22 4.22 2.44 5.67 7.84 3.23 12.1-4.91 8.48-13.8 13.2-23 13.2z"/><path d="m1970 1876c-1.5 0-3.02-0.38-4.4-1.18-4.22-2.44-5.67-7.84-3.23-12.1 7.32-12.6 23.6-17 36.2-9.68 4.22 2.44 5.67 7.84 3.23 12.1-2.45 4.22-7.85 5.67-12.1 3.23-4.23-2.44-9.64-0.979-12.1 3.24-1.64 2.83-4.6 4.41-7.65 4.41z"/><path d="m1963 1931c-3.05 0-6.02-1.58-7.66-4.41-2.44-4.22-0.991-9.62 3.23-12.1 2.04-1.18 3.51-3.08 4.12-5.36 0.604-2.28 0.293-4.66-0.888-6.69-2.44-4.22-0.991-9.62 3.23-12.1 4.2-2.46 9.61-0.995 12.1 3.22 3.53 6.13 4.47 13.3 2.65 20.1-1.84 6.84-6.22 12.5-12.3 16.1-1.39 0.803-2.9 1.18-4.4 1.18z"/><path d="m1952 1876c-3.05 0-6.02-1.58-7.66-4.41-3.53-6.13-4.47-13.3-2.65-20.1 1.84-6.84 6.22-12.5 12.3-16.1 4.21-2.44 9.61-0.995 12.1 3.23 2.44 4.22 0.991 9.62-3.23 12.1-2.04 1.18-3.51 3.08-4.12 5.36-0.604 2.28-0.294 4.66 0.888 6.69 2.44 4.22 0.991 9.62-3.23 12.1-1.39 0.804-2.91 1.18-4.41 1.18z"/></g><circle transform="matrix(.988 0 0 .988 -1552 -1530)" cx="1961" cy="1882" r="17.7" fill="#fff"/><circle transform="matrix(.988 0 0 .988 -1552 -1530)" cx="1815" cy="1671" r="70.6" fill="#D7AF8C"/><circle transform="matrix(.988 0 0 .988 -1552 -1530)" cx="1829" cy="1657" r="70.6" fill="#fff"/><path d="m286 146c-38.5 0-69.8-31.2-69.8-69.8 0-11.2 2.69-21.7 7.35-31-22.9 11.4-38.7 35.1-38.7 62.4 0 38.5 31.2 69.8 69.8 69.8 27.4 0 51-15.8 62.4-38.7-9.36 4.66-19.9 7.35-31 7.35z" fill="#FAEBC8"/><g transform="matrix(.988 0 0 .988 -1552 -1530)" fill="#F5DCB4"><path d="m1811 1666c-14.6 0-26.5-11.9-26.5-26.5 0-4.88 3.95-8.83 8.83-8.83s8.83 3.95 8.83 8.83c0 4.87 3.96 8.83 8.83 8.83 4.88 0 8.83 3.95 8.83 8.83-2e-3 4.87-3.95 8.83-8.83 8.83z"/><path d="m1864 1684c-4.88 0-8.83-3.95-8.83-8.83 0-4.87-3.96-8.83-8.83-8.83-4.88 0-8.83-3.95-8.83-8.83s3.95-8.83 8.83-8.83c14.6 0 26.5 11.9 26.5 26.5 1e-3 4.88-3.95 8.83-8.83 8.83z"/><path d="m1804 1690c-4.49 0-9.04-1.14-13.2-3.55-4.22-2.44-5.67-7.84-3.23-12.1 2.44-4.23 7.84-5.68 12.1-3.23 4.24 2.43 9.64 0.974 12.1-3.24 2.44-4.22 7.84-5.68 12.1-3.22 4.22 2.44 5.67 7.84 3.23 12.1-4.91 8.48-13.8 13.2-23 13.2z"/><path d="m1837 1651c-1.5 0-3.02-0.38-4.4-1.18-4.22-2.44-5.67-7.84-3.23-12.1 7.32-12.6 23.6-17 36.2-9.68 4.22 2.44 5.67 7.84 3.23 12.1-2.45 4.22-7.85 5.67-12.1 3.23-4.23-2.44-9.64-0.979-12.1 3.24-1.64 2.83-4.6 4.41-7.65 4.41z"/><path d="m1831 1706c-3.05 0-6.02-1.58-7.66-4.41-2.44-4.22-0.991-9.62 3.23-12.1 2.04-1.18 3.51-3.08 4.12-5.36 0.604-2.28 0.294-4.66-0.888-6.69-2.44-4.22-0.991-9.62 3.23-12.1 4.2-2.46 9.61-0.995 12.1 3.22 3.53 6.13 4.47 13.3 2.65 20.1-1.84 6.84-6.22 12.5-12.3 16.1-1.39 0.802-2.9 1.18-4.4 1.18z"/><path d="m1820 1651c-3.05 0-6.02-1.58-7.66-4.41-3.53-6.13-4.47-13.3-2.65-20.1 1.84-6.84 6.22-12.5 12.3-16.1 4.21-2.44 9.61-0.995 12.1 3.23 2.44 4.22 0.991 9.62-3.23 12.1-2.04 1.18-3.51 3.08-4.12 5.36-0.604 2.28-0.294 4.66 0.888 6.69 2.44 4.22 0.991 9.62-3.23 12.1-1.39 0.805-2.91 1.18-4.41 1.18z"/></g><circle transform="matrix(.988 0 0 .988 -1552 -1530)" cx="1829" cy="1657" r="17.7" fill="#fff"/><circle transform="matrix(.988 0 0 .988 -1552 -1530)" cx="1815" cy="1821" r="70.6" fill="#D7AF8C"/><circle transform="matrix(.988 0 0 .988 -1552 -1530)" cx="1829" cy="1807" r="70.6" fill="#fff"/><path d="m286 295c-38.5 0-69.8-31.2-69.8-69.8 0-11.2 2.69-21.7 7.35-31-22.9 11.4-38.7 35.1-38.7 62.4 0 38.5 31.2 69.8 69.8 69.8 27.4 0 51-15.8 62.4-38.7-9.36 4.66-19.9 7.35-31 7.35z" fill="#FAEBC8"/><g transform="matrix(.988 0 0 .988 -1552 -1530)" fill="#F5DCB4"><path d="m1811 1816c-14.6 0-26.5-11.9-26.5-26.5 0-4.88 3.95-8.83 8.83-8.83s8.83 3.95 8.83 8.83c0 4.87 3.96 8.83 8.83 8.83 4.88 0 8.83 3.95 8.83 8.83s-3.95 8.83-8.83 8.83z"/><path d="m1864 1834c-4.88 0-8.83-3.95-8.83-8.83 0-4.87-3.96-8.83-8.83-8.83-4.88 0-8.83-3.95-8.83-8.83s3.95-8.83 8.83-8.83c14.6 0 26.5 11.9 26.5 26.5 1e-3 4.88-3.95 8.83-8.83 8.83z"/><path d="m1804 1840c-4.49 0-9.04-1.14-13.2-3.55-4.22-2.44-5.67-7.84-3.23-12.1 2.44-4.23 7.84-5.68 12.1-3.23 4.24 2.43 9.64 0.974 12.1-3.24 2.44-4.22 7.84-5.68 12.1-3.22 4.22 2.44 5.67 7.84 3.23 12.1-4.91 8.48-13.8 13.2-23 13.2z"/><path d="m1837 1801c-1.5 0-3.02-0.38-4.4-1.18-4.22-2.44-5.67-7.84-3.23-12.1 7.32-12.6 23.6-17 36.2-9.68 4.22 2.44 5.67 7.84 3.23 12.1-2.45 4.22-7.85 5.67-12.1 3.23-4.23-2.44-9.64-0.979-12.1 3.24-1.64 2.83-4.6 4.41-7.65 4.41z"/><path d="m1831 1856c-3.05 0-6.02-1.58-7.66-4.41-2.44-4.22-0.991-9.62 3.23-12.1 2.04-1.18 3.51-3.08 4.12-5.36 0.604-2.28 0.294-4.66-0.888-6.69-2.44-4.22-0.991-9.62 3.23-12.1 4.2-2.46 9.61-0.995 12.1 3.22 3.53 6.13 4.47 13.3 2.65 20.1-1.84 6.84-6.22 12.5-12.3 16.1-1.39 0.802-2.9 1.18-4.4 1.18z"/><path d="m1820 1801c-3.05 0-6.02-1.58-7.66-4.41-3.53-6.13-4.47-13.3-2.65-20.1 1.84-6.84 6.22-12.5 12.3-16.1 4.21-2.44 9.61-0.995 12.1 3.23 2.44 4.22 0.991 9.62-3.23 12.1-2.04 1.18-3.51 3.08-4.12 5.36-0.604 2.28-0.294 4.66 0.888 6.69 2.44 4.22 0.991 9.62-3.23 12.1-1.39 0.805-2.91 1.18-4.41 1.18z"/></g><circle transform="matrix(.988 0 0 .988 -1552 -1530)" cx="1829" cy="1807" r="17.7" fill="#fff"/><circle transform="matrix(.988 0 0 .988 -1552 -1530)" cx="1815" cy="1971" r="70.6" fill="#D7AF8C"/><circle transform="matrix(.988 0 0 .988 -1552 -1530)" cx="1829" cy="1958" r="70.6" fill="#fff"/><path d="m286 443c-38.5 0-69.8-31.2-69.8-69.8 0-11.2 2.69-21.7 7.35-31-22.9 11.4-38.7 35.1-38.7 62.4 0 38.5 31.2 69.8 69.8 69.8 27.4 0 51-15.8 62.4-38.7-9.36 4.66-19.9 7.35-31 7.35z" fill="#FAEBC8"/><g transform="matrix(.988 0 0 .988 -1552 -1530)" fill="#F5DCB4"><path d="m1811 1966c-14.6 0-26.5-11.9-26.5-26.5 0-4.88 3.95-8.83 8.83-8.83s8.83 3.95 8.83 8.83c0 4.87 3.96 8.83 8.83 8.83 4.88 0 8.83 3.95 8.83 8.83s-3.95 8.83-8.83 8.83z"/><path d="m1864 1984c-4.88 0-8.83-3.95-8.83-8.83 0-4.87-3.96-8.83-8.83-8.83-4.88 0-8.83-3.95-8.83-8.83s3.95-8.83 8.83-8.83c14.6 0 26.5 11.9 26.5 26.5 1e-3 4.88-3.95 8.83-8.83 8.83z"/><path d="m1804 1990c-4.49 0-9.04-1.14-13.2-3.55-4.22-2.44-5.67-7.84-3.23-12.1 2.44-4.23 7.84-5.68 12.1-3.23 4.24 2.43 9.64 0.974 12.1-3.24 2.44-4.22 7.84-5.68 12.1-3.22 4.22 2.44 5.67 7.84 3.23 12.1-4.91 8.48-13.8 13.2-23 13.2z"/><path d="m1837 1951c-1.5 0-3.02-0.38-4.4-1.18-4.22-2.44-5.67-7.84-3.23-12.1 7.32-12.6 23.6-17 36.2-9.68 4.22 2.44 5.67 7.84 3.23 12.1-2.45 4.22-7.85 5.67-12.1 3.23-4.23-2.44-9.64-0.979-12.1 3.24-1.64 2.83-4.6 4.41-7.65 4.41z"/><path d="m1831 2006c-3.05 0-6.02-1.58-7.66-4.41-2.44-4.22-0.991-9.62 3.23-12.1 2.04-1.18 3.51-3.08 4.12-5.36 0.604-2.28 0.294-4.66-0.888-6.69-2.44-4.22-0.991-9.62 3.23-12.1 4.2-2.46 9.61-0.995 12.1 3.22 3.53 6.13 4.47 13.3 2.65 20.1-1.84 6.84-6.22 12.5-12.3 16.1-1.39 0.802-2.9 1.18-4.4 1.18z"/><path d="m1820 1951c-3.05 0-6.02-1.58-7.66-4.41-3.53-6.13-4.47-13.3-2.65-20.1 1.84-6.84 6.22-12.5 12.3-16.1 4.21-2.44 9.61-0.995 12.1 3.23 2.44 4.22 0.991 9.62-3.23 12.1-2.04 1.18-3.51 3.08-4.12 5.36-0.604 2.28-0.294 4.66 0.888 6.69 2.44 4.22 0.991 9.62-3.23 12.1-1.39 0.805-2.91 1.18-4.41 1.18z"/></g><circle transform="matrix(.988 0 0 .988 -1552 -1530)" cx="1829" cy="1958" r="17.7" fill="#fff"/><circle transform="matrix(.988 0 0 .988 -1552 -1530)" cx="1687" cy="1746" r="70.6" fill="#D7AF8C"/><circle transform="matrix(.988 0 0 .988 -1552 -1530)" cx="1701" cy="1732" r="70.6" fill="#fff"/><path d="m160 220c-38.5 0-69.8-31.2-69.8-69.8 0-11.2 2.69-21.7 7.35-31-22.9 11.4-38.7 35.1-38.7 62.4 0 38.5 31.2 69.8 69.8 69.8 27.4 0 51-15.8 62.4-38.7-9.36 4.66-19.9 7.35-31 7.35z" fill="#FAEBC8"/><g transform="matrix(.988 0 0 .988 -1552 -1530)" fill="#F5DCB4"><path d="m1683 1741c-14.6 0-26.5-11.9-26.5-26.5 0-4.88 3.95-8.83 8.83-8.83 4.88 0 8.83 3.95 8.83 8.83 0 4.87 3.96 8.83 8.83 8.83 4.88 0 8.83 3.95 8.83 8.83s-3.95 8.83-8.83 8.83z"/><path d="m1736 1759c-4.88 0-8.83-3.95-8.83-8.83 0-4.87-3.96-8.83-8.83-8.83-4.88 0-8.83-3.95-8.83-8.83s3.95-8.83 8.83-8.83c14.6 0 26.5 11.9 26.5 26.5 1e-3 4.88-3.95 8.83-8.83 8.83z"/><path d="m1676 1765c-4.49 0-9.04-1.14-13.2-3.55-4.22-2.44-5.67-7.84-3.23-12.1 2.44-4.23 7.84-5.68 12.1-3.23 4.24 2.43 9.64 0.974 12.1-3.24 2.44-4.22 7.84-5.68 12.1-3.22 4.22 2.44 5.67 7.84 3.23 12.1-4.91 8.48-13.8 13.2-23 13.2z"/><path d="m1709 1726c-1.5 0-3.02-0.38-4.4-1.18-4.22-2.44-5.67-7.84-3.23-12.1 7.32-12.6 23.6-17 36.2-9.68 4.22 2.44 5.67 7.84 3.23 12.1-2.45 4.22-7.85 5.67-12.1 3.23-4.23-2.44-9.64-0.979-12.1 3.24-1.64 2.82-4.6 4.41-7.65 4.41z"/><path d="m1703 1781c-3.05 0-6.02-1.58-7.66-4.41-2.44-4.22-0.991-9.62 3.23-12.1 2.04-1.18 3.51-3.08 4.12-5.36 0.604-2.28 0.294-4.66-0.888-6.69-2.44-4.22-0.991-9.62 3.23-12.1 4.2-2.46 9.61-0.995 12.1 3.22 3.53 6.13 4.47 13.3 2.65 20.1-1.84 6.84-6.22 12.5-12.3 16.1-1.39 0.803-2.9 1.18-4.4 1.18z"/><path d="m1692 1726c-3.05 0-6.02-1.58-7.66-4.41-3.53-6.13-4.47-13.3-2.65-20.1 1.84-6.84 6.22-12.5 12.3-16.1 4.21-2.44 9.61-0.995 12.1 3.23 2.44 4.22 0.991 9.62-3.23 12.1-2.04 1.18-3.51 3.08-4.12 5.36-0.604 2.28-0.294 4.66 0.888 6.69 2.44 4.22 0.991 9.62-3.23 12.1-1.39 0.804-2.91 1.18-4.41 1.18z"/></g><circle transform="matrix(.988 0 0 .988 -1552 -1530)" cx="1701" cy="1732" r="17.7" fill="#fff"/><circle transform="matrix(.988 0 0 .988 -1552 -1530)" cx="1687" cy="1896" r="70.6" fill="#D7AF8C"/><circle transform="matrix(.988 0 0 .988 -1552 -1530)" cx="1701" cy="1882" r="70.6" fill="#fff"/><path d="m160 369c-38.5 0-69.8-31.2-69.8-69.8 0-11.2 2.69-21.7 7.35-31-22.9 11.4-38.7 35.1-38.7 62.4 0 38.5 31.2 69.8 69.8 69.8 27.4 0 51-15.8 62.4-38.7-9.36 4.66-19.9 7.35-31 7.35z" fill="#FAEBC8"/><g transform="matrix(.988 0 0 .988 -1552 -1530)" fill="#F5DCB4"><path d="m1683 1891c-14.6 0-26.5-11.9-26.5-26.5 0-4.88 3.95-8.83 8.83-8.83 4.88 0 8.83 3.95 8.83 8.83 0 4.87 3.96 8.83 8.83 8.83 4.88 0 8.83 3.95 8.83 8.83s-3.95 8.83-8.83 8.83z"/><path d="m1736 1909c-4.88 0-8.83-3.95-8.83-8.83 0-4.87-3.96-8.83-8.83-8.83-4.88 0-8.83-3.95-8.83-8.83s3.95-8.83 8.83-8.83c14.6 0 26.5 11.9 26.5 26.5 1e-3 4.88-3.95 8.83-8.83 8.83z"/><path d="m1676 1915c-4.49 0-9.04-1.14-13.2-3.55-4.22-2.44-5.67-7.84-3.23-12.1 2.44-4.23 7.84-5.68 12.1-3.23 4.24 2.43 9.64 0.974 12.1-3.24 2.44-4.22 7.84-5.68 12.1-3.22 4.22 2.44 5.67 7.84 3.23 12.1-4.91 8.48-13.8 13.2-23 13.2z"/><path d="m1709 1876c-1.5 0-3.02-0.38-4.4-1.18-4.22-2.44-5.67-7.84-3.23-12.1 7.32-12.6 23.6-17 36.2-9.68 4.22 2.44 5.67 7.84 3.23 12.1-2.45 4.22-7.85 5.67-12.1 3.23-4.23-2.44-9.64-0.979-12.1 3.24-1.64 2.83-4.6 4.41-7.65 4.41z"/><path d="m1703 1931c-3.05 0-6.02-1.58-7.66-4.41-2.44-4.22-0.991-9.62 3.23-12.1 2.04-1.18 3.51-3.08 4.12-5.36 0.604-2.28 0.294-4.66-0.888-6.69-2.44-4.22-0.991-9.62 3.23-12.1 4.2-2.46 9.61-0.995 12.1 3.22 3.53 6.13 4.47 13.3 2.65 20.1-1.84 6.84-6.22 12.5-12.3 16.1-1.39 0.803-2.9 1.18-4.4 1.18z"/><path d="m1692 1876c-3.05 0-6.02-1.58-7.66-4.41-3.53-6.13-4.47-13.3-2.65-20.1 1.84-6.84 6.22-12.5 12.3-16.1 4.21-2.44 9.61-0.995 12.1 3.23 2.44 4.22 0.991 9.62-3.23 12.1-2.04 1.18-3.51 3.08-4.12 5.36-0.604 2.28-0.294 4.66 0.888 6.69 2.44 4.22 0.991 9.62-3.23 12.1-1.39 0.804-2.91 1.18-4.41 1.18z"/></g><circle transform="matrix(.988 0 0 .988 -1552 -1530)" cx="1701" cy="1882" r="17.7" fill="#fff"/></g><g stroke="#000" stroke-width="1.5"><ellipse cx="125" cy="175" rx="2.67" ry="3"/><ellipse cx="140" cy="161" rx="2.57" ry="2.57"/><g fill-opacity="null" stroke-opacity="null"><ellipse cx="140" cy="183" rx="3.14" ry="3.46"/><ellipse cx="120" cy="197" rx="3.46" ry="3.46"/><ellipse cx="105" cy="183" rx="3.14" ry="3.46"/><ellipse cx="140" cy="196" rx="2.83" ry="3.77"/><ellipse cx="136" cy="214" rx="4.72" ry="4.09"/><ellipse cx="122" cy="158" rx="3.77" ry="3.46"/><ellipse cx="103" cy="164" rx="3.46" ry="3.46"/><ellipse cx="154" cy="174" rx="3.77" ry="3.77"/><ellipse cx="106" cy="200" rx="3.14" ry="3.14"/><ellipse cx="154" cy="194" rx="3.77" ry="4.4"/><ellipse cx="143" cy="148" rx="4.4" ry="3.46"/><ellipse cx="115" cy="144" rx="4.72" ry="3.14"/><ellipse cx="93.4" cy="157" rx="2.52" ry="3.14"/><ellipse cx="93.7" cy="175" rx="2.83" ry="3.77"/><ellipse cx="127" cy="183" rx="2.83" ry="2.83"/><ellipse cx="153" cy="157" rx="4.4" ry="3.77"/><ellipse cx="159" cy="205" rx="1.57" ry="1.89"/><ellipse cx="160" cy="181" rx="3.46" ry="3.77"/><ellipse cx="120" cy="212" rx="3.46" ry="4.09"/><ellipse cx="258" cy="234" rx="3.77" ry="4.09"/><ellipse cx="238" cy="242" rx="3.14" ry="4.09"/><ellipse cx="250" cy="251" rx="2.83" ry="3.14"/><ellipse cx="267" cy="259" rx="3.46" ry="4.09"/><ellipse cx="273" cy="237" rx="4.09" ry="3.77"/><ellipse cx="254" cy="265" rx="1.89" ry="2.52"/><ellipse cx="239" cy="264" rx="3.77" ry="4.09"/><ellipse cx="250" cy="277" rx="4.4" ry="3.77"/><ellipse cx="267" cy="273" rx="3.14" ry="3.46"/><ellipse cx="281" cy="250" rx="2.83" ry="3.46"/><ellipse cx="246" cy="231" rx="2.2" ry="2.83"/><ellipse cx="269" cy="224" rx="3.14" ry="2.83"/><ellipse cx="226" cy="254" rx="2.2" ry="2.83"/><ellipse cx="239" cy="253" rx="3.14" ry="2.52"/><ellipse cx="264" cy="244" rx="3.46" ry="3.14"/><ellipse cx="278" cy="265" rx="3.14" ry="3.46"/><ellipse cx="270" cy="282" rx="2.52" ry="2.52"/><ellipse cx="288" cy="237" rx="2.83" ry="3.14"/><ellipse cx="288" cy="261" rx="2.2" ry="2.2"/><ellipse cx="237" cy="229" rx="2.83" ry="3.46"/><ellipse cx="236" cy="393" rx="3.77" ry="4.72"/><ellipse cx="246" cy="382" rx="3.14" ry="3.77"/><ellipse cx="267" cy="401" rx="3.77" ry="3.77"/><ellipse cx="242" cy="368" rx="4.4" ry="4.72"/><ellipse cx="248" cy="403" rx="5.03" ry="3.77"/><ellipse cx="258" cy="412" rx="2.52" ry="3.46"/><ellipse cx="234" cy="425" rx="3.46" ry="3.77"/><ellipse cx="268" cy="427" rx="3.46" ry="3.14"/><ellipse cx="275" cy="375" rx="3.77" ry="2.83"/><ellipse cx="217" cy="402" rx="3.46" ry="4.09"/><ellipse cx="365" cy="309" rx="3.67" ry="4.13"/><ellipse cx="380" cy="347" rx="2.91" ry="2.65"/><ellipse cx="402" cy="336" rx="2.12" ry="2.38"/><ellipse cx="413" cy="315" rx="2.65" ry="3.44"/><ellipse cx="396" cy="303" rx="5.03" ry="3.97"/><ellipse cx="383" cy="321" rx="3.17" ry="4.76"/><ellipse cx="377" cy="304" rx="2.38" ry="1.85"/><ellipse cx="363" cy="326" rx="3.44" ry="4.23"/><ellipse cx="374" cy="331" rx="3.44" ry="2.12"/><ellipse cx="387" cy="336" rx="3.7" ry="3.97"/><ellipse cx="398" cy="350" rx="2.65" ry="3.44"/><ellipse cx="417" cy="334" rx="3.7" ry="4.23"/><ellipse cx="402" cy="321" rx="3.7" ry="2.91"/><ellipse cx="252" cy="209" rx="3.77" ry="4.09"/><ellipse cx="238" cy="242" rx="3.14" ry="4.09"/><ellipse cx="250" cy="251" rx="2.83" ry="3.14"/><ellipse cx="267" cy="259" rx="3.46" ry="4.09"/><ellipse cx="239" cy="264" rx="3.77" ry="4.09"/><ellipse cx="250" cy="277" rx="4.4" ry="3.77"/><ellipse cx="239" cy="253" rx="3.14" ry="2.52"/><ellipse cx="264" cy="244" rx="3.46" ry="3.14"/><ellipse cx="262" cy="79.6" rx="3.77" ry="4.09"/><ellipse cx="277" cy="83.1" rx="4.09" ry="3.77"/><ellipse cx="258" cy="111" rx="1.89" ry="2.52"/><ellipse cx="271" cy="119" rx="3.14" ry="3.46"/><ellipse cx="285" cy="96" rx="2.83" ry="3.46"/><ellipse cx="273" cy="70.2" rx="3.14" ry="2.83"/><ellipse cx="282" cy="111" rx="3.14" ry="3.46"/><ellipse cx="292" cy="83.1" rx="2.83" ry="3.14"/><ellipse cx="292" cy="107" rx="2.2" ry="2.2"/><ellipse cx="254" cy="96.9" rx="2.83" ry="3.14"/><ellipse cx="271" cy="105" rx="3.46" ry="4.09"/><ellipse cx="268" cy="90" rx="3.46" ry="3.14"/><ellipse cx="223" cy="68.7" rx="3.77" ry="4.09"/><ellipse cx="236" cy="128" rx="4.09" ry="3.77"/><ellipse cx="214" cy="110" rx="1.89" ry="2.52"/><ellipse cx="260" cy="132" rx="3.14" ry="3.46"/><ellipse cx="241" cy="94.3" rx="2.83" ry="3.46"/><ellipse cx="234" cy="76.5" rx="3.14" ry="2.83"/><ellipse cx="250" cy="118" rx="3.14" ry="3.46"/><ellipse cx="248" cy="81.4" rx="2.83" ry="3.14"/><ellipse cx="248" cy="106" rx="2.2" ry="2.2"/><ellipse cx="216" cy="91.7" rx="2.83" ry="3.14"/><ellipse cx="235" cy="109" rx="3.46" ry="4.09"/><ellipse cx="228" cy="95.7" rx="3.46" ry="3.14"/></g><ellipse cx="139" cy="307" rx="2.57" ry="2.57"/><g fill-opacity="null" stroke-opacity="null"><ellipse cx="139" cy="342" rx="2.83" ry="3.77"/><ellipse cx="135" cy="360" rx="4.72" ry="4.09"/><ellipse cx="102" cy="310" rx="3.46" ry="3.46"/><ellipse cx="153" cy="320" rx="3.77" ry="3.77"/><ellipse cx="153" cy="340" rx="3.77" ry="4.4"/><ellipse cx="114" cy="290" rx="4.72" ry="3.14"/><ellipse cx="159" cy="327" rx="3.46" ry="3.77"/><ellipse cx="123" cy="327" rx="2.83" ry="3.77"/><ellipse cx="105" cy="326" rx="2.87" ry="3.16"/><ellipse cx="109" cy="342" rx="3.16" ry="3.16"/><ellipse cx="89.3" cy="352" rx="3.16" ry="3.45"/><ellipse cx="75" cy="339" rx="4.31" ry="4.31"/><ellipse cx="139" cy="289" rx="3.45" ry="4.02"/></g><ellipse cx="386" cy="178" rx="2.67" ry="3"/><ellipse cx="401" cy="164" rx="2.57" ry="2.57"/><g fill-opacity="null" stroke-opacity="null"><ellipse cx="401" cy="186" rx="3.14" ry="3.46"/><ellipse cx="381" cy="199" rx="3.46" ry="3.46"/><ellipse cx="366" cy="186" rx="3.14" ry="3.46"/><ellipse cx="401" cy="199" rx="2.83" ry="3.77"/><ellipse cx="397" cy="217" rx="4.72" ry="4.09"/><ellipse cx="383" cy="161" rx="3.77" ry="3.46"/><ellipse cx="364" cy="167" rx="3.46" ry="3.46"/><ellipse cx="415" cy="177" rx="3.77" ry="3.77"/><ellipse cx="367" cy="203" rx="3.14" ry="3.14"/><ellipse cx="415" cy="197" rx="3.77" ry="4.4"/><ellipse cx="404" cy="151" rx="4.4" ry="3.46"/><ellipse cx="376" cy="147" rx="4.72" ry="3.14"/><ellipse cx="354" cy="159" rx="2.52" ry="3.14"/><ellipse cx="355" cy="178" rx="2.83" ry="3.77"/><ellipse cx="388" cy="186" rx="2.83" ry="2.83"/><ellipse cx="414" cy="160" rx="4.4" ry="3.77"/><ellipse cx="419" cy="208" rx="1.57" ry="1.89"/><ellipse cx="421" cy="184" rx="3.46" ry="3.77"/><ellipse cx="380" cy="215" rx="3.46" ry="4.09"/><ellipse cx="263" cy="373" rx="3.17" ry="4.76"/><ellipse cx="277" cy="402" rx="2.65" ry="3.44"/></g></g></g></svg>
