<svg width="512" height="512" enable-background="new 0 0 512 512" version="1.1" viewBox="0 0 512 512" xmlns="http://www.w3.org/2000/svg"><path d="m481 412h-180c-8.28 0-15-6.72-15-15v-120c0-8.28 6.72-15 15-15h180c8.28 0 15 6.72 15 15v120c0 8.28-6.72 15-15 15z" fill="#ffa500"/><path d="m481 262h-90v150h90c8.28 0 15-6.72 15-15v-120c0-8.28-6.72-15-15-15z" fill="#fa8b00"/><path d="m491 192h-200c-5.38 0-10.4-2.88-13-7.55-2.67-4.67-2.64-10.4 0.092-15.1l60-102c2.7-4.58 7.61-7.39 12.9-7.39h80c5.32 0 10.2 2.81 12.9 7.4l60 102c2.73 4.64 2.76 10.4 0.092 15.1-2.67 4.67-7.64 7.55-13 7.55z" fill="#eaf1ff"/><path d="m444 67.4c-2.7-4.58-7.61-7.4-12.9-7.4h-40v132h100c5.38 0 10.4-2.88 13-7.55 2.67-4.67 2.64-10.4-0.092-15.1z" fill="#b1d5f1"/><path d="m506 177v100c0 8.28-6.72 15-15 15h-200c-8.28 0-15-6.72-15-15v-100z" fill="#fdbe00"/><path d="m391 177v115h100c8.28 0 15-6.72 15-15v-100z" fill="#ffa500"/><path d="m451 80h-120c-8.28 0-15-6.72-15-15v-30c0-19.3 15.7-35 35-35h80c19.3 0 35 15.7 35 35v30c0 8.28-6.72 15-15 15z" fill="#22a6ff"/><path d="m431 0h-40v80h60c8.28 0 15-6.72 15-15v-30c0-19.3-15.7-35-35-35z" fill="#1885ff"/><path d="m461 512h-140c-24.8 0-45-20.2-45-45v-70c0-8.28 6.72-15 15-15h200c8.28 0 15 6.72 15 15v70c0 24.8-20.2 45-45 45z" fill="#fdbe00"/><path d="m491 382h-100v130h70c24.8 0 45-20.2 45-45v-70c0-8.28-6.72-15-15-15z" fill="#ffa500"/><g transform="matrix(.54 0 0 .54 5 247)"><path d="m125 220c-0.401-5.06-0.601-10.2-0.601-15.3 0-107 86.8-182 194-182s194 75 194 182c0 91.2-63 168-148 188" style="fill:#ffa91f"/><path d="m198 220c-0.401-5.06-0.601-10.2-0.601-15.3 0-94.6 67.7-164 157-179-11.8-1.98-24-3.01-36.5-3.01-107 0-194 75-194 182 0 5.15 0.2 10.3 0.601 15.3l151 180c16.8-4.1-9.66-57 5.09-65.1z" style="fill:#e2901a"/><path d="m0 293c0 108 87.7 196 196 196s196-87.7 196-196" style="fill:#ffa91f"/><path d="m330 71.8c0-6.7-5.43-12.1-12.1-12.1s-12.1 5.43-12.1 12.1 5.43 6.23 12.1 6.23 12.1 0.466 12.1-6.23z" style="fill:#b25719"/><path d="m66.4 293h-66.4c0 108 87.7 196 196 196 11.3 0 22.4-0.973 33.2-2.82-92.4-15.8-163-96.2-163-193z" style="fill:#e2901a"/><ellipse cx="196" cy="293" rx="196" ry="78.1" style="fill:#fce275"/><path d="m116 240 72.6 40.5v-47.9c-25.2 0.4-49.9 2.96-72.6 7.42z" style="fill:#ffc522"/><path d="m189 354v-47.9l-72.6 40.5c22.7 4.46 47.4 7.02 72.6 7.42z" style="fill:#ffc522"/><path d="m203 233v47.9l72.6-40.5c-22.7-4.46-47.4-7.02-72.6-7.42z" style="fill:#ffc522"/><path d="m225 285h148c-5.35-7.55-17.6-18-39.6-27.8-10.8-4.78-22.8-8.95-35.8-12.4z" style="fill:#ffc522"/><path d="m166 285-72.1-40.2c-13 3.49-25.1 7.66-35.8 12.4-22 9.78-34.2 20.2-39.6 27.8h148z" style="fill:#ffc522"/><path d="m166 301h-148c5.35 7.55 17.6 18 39.6 27.8 10.8 4.78 22.8 8.95 35.8 12.4z" style="fill:#ffc522"/><path d="m225 301 72.1 40.2c13-3.49 25.1-7.66 35.8-12.4 22-9.78 34.2-20.2 39.6-27.8z" style="fill:#ffc522"/><path d="m203 306v47.9c25.2-0.398 50-2.96 72.6-7.42z" style="fill:#ffc522"/><path d="m342 65.9c0.601 1.21 0.721 2.81 0.338 4.3-0.397 1.45-1.12 2.87-2.03 4.03-1.81 2.4-4.18 4.15-6.63 5.51-4.96 2.72-10.4 3.79-15.8 3.84-5.4-0.034-10.9-1.11-15.8-3.83-2.46-1.36-4.82-3.12-6.63-5.51-0.906-1.16-1.63-2.59-2.03-4.04-0.383-1.49-0.259-3.09 0.347-4.3 0.694 1.22 1.57 1.98 2.44 2.56 0.965 0.546 1.85 0.973 2.88 1.27 1.97 0.634 4.03 1.02 6.13 1.29 2.1 0.264 4.2 0.457 6.32 0.585 2.13 0.103 4.26 0.15 6.4 0.178 2.14-0.02 4.27-0.065 6.4-0.166 2.12-0.13 4.23-0.312 6.32-0.582 2.09-0.276 4.16-0.66 6.13-1.3 1.03-0.301 1.91-0.73 2.88-1.28 0.872-0.59 1.74-1.36 2.43-2.57z" style="fill:#e2901a"/><path d="m431 309c-3.6 0-6.6-3.1-6.48-6.7 0.125-3.6 3.29-6.51 6.91-6.26 3.5 0.238 6.25 3.33 6.04 6.84-0.196 3.38-3.08 6.12-6.47 6.12z" style="fill:#e2901a"/><path d="m80 404c-3.53 0-6.49-2.96-6.48-6.48 7e-3 -3.79 3.4-6.85 7.17-6.44 3.46 0.377 6.07 3.5 5.78 6.98-0.283 3.32-3.12 5.94-6.46 5.94z" style="fill:#e2901a"/><path d="m272 151c-3.7 0-6.7-3.23-6.47-6.91 0.215-3.48 3.31-6.24 6.79-6.05 3.25 0.18 5.93 2.78 6.15 6.05 0.249 3.67-2.79 6.91-6.47 6.91z" style="fill:#e2901a"/><path d="m301 404c-3.4 0-6.28-2.73-6.47-6.12-0.205-3.58 2.68-6.72 6.26-6.84 3.54-0.114 6.59 2.74 6.7 6.29 0.103 3.6-2.87 6.67-6.48 6.67z" style="fill:#e2901a"/><path d="m217 452c-3.8 0-6.88-3.44-6.44-7.21 0.401-3.49 3.63-6.08 7.13-5.71 3.2 0.343 5.7 3.04 5.79 6.26 0.11 3.6-2.88 6.67-6.48 6.67z" style="fill:#e2901a"/><path d="m301 431c-3.39 0-6.28-2.75-6.47-6.13-0.196-3.41 2.43-6.48 5.83-6.81 3.62-0.354 6.9 2.45 7.11 6.08 0.211 3.65-2.81 6.86-6.47 6.86z" style="fill:#e2901a"/><path d="m450 158c-3.52 0-6.49-2.95-6.48-6.48 8e-3 -3.16 2.35-5.89 5.46-6.4 3.55-0.585 6.98 1.99 7.45 5.55 0.502 3.82-2.57 7.33-6.42 7.33z" style="fill:#e2901a"/><path d="m424 184c-3.68 0-6.72-3.22-6.47-6.91 0.246-3.62 3.53-6.42 7.14-6.02 3.33 0.364 5.92 3.29 5.8 6.66-0.119 3.45-3.03 6.27-6.48 6.27z" style="fill:#e2901a"/></g></svg>
