<svg width="512" height="512" xmlns="http://www.w3.org/2000/svg">
 <!-- Created with Method Draw - http://github.com/duopixel/Method-Draw/ -->

 <g>
  <title>background</title>
  <rect fill="none" id="canvas_background" height="514" width="514" y="-1" x="-1"/>
  <g display="none" overflow="visible" y="0" x="0" height="100%" width="100%" id="canvasGrid">
   <rect fill="url(#gridpattern)" stroke-width="0" y="0" x="0" height="100%" width="100%"/>
  </g>
 </g>
 <g>
  <title>Layer 1</title>
  <!-- Created with Method Draw - http://github.com/duopixel/Method-Draw/ -->
  <g stroke="null" id="svg_97">
   <g stroke="null" transform="matrix(1.3014960975475358,0,0,1.3014960975475358,-38.30137510860561,-169.03638901482202) " id="svg_94">
    <title stroke="null" transform="translate(-15.366838455200195,0) translate(19.758108139038086,-2.195345401763916) translate(-10.702459335327148,-17.12393569946289) translate(-223.3316192626953,-37.94469451904297) translate(0,18.430278778076172) translate(-1943.9998779296875,-1943.9998779296875) translate(2047.9998779296875,0) translate(0,2103.999755859375) ">background</title>
    <rect stroke="null" x="-126.642809" y="120.166181" width="514" height="402" id="svg_92" fill="none"/>
    <g stroke="null" id="svg_91" display="none">
     <rect stroke="null" id="svg_95" width="512" height="512" x="-125.642809" y="121.166181" stroke-width="0" fill="url(#gridpattern)"/>
    </g>
   </g>
   <g stroke="null" transform="matrix(1.2959372905403443,0,0,1.2959372905403443,-38.91993675728091,-166.13376814397907) " id="svg_96">
    <title stroke="null" transform="translate(-15.43275260925293,0) translate(19.758108139038086,-2.195345401763916) translate(-10.702459335327148,-17.12393569946289) translate(-223.3316192626953,-37.94469451904297) translate(0,18.430278778076172) translate(-1943.9998779296875,-1943.9998779296875) translate(2047.9998779296875,0) translate(0,2103.999755859375) ">Layer 1</title>
    <g stroke="null" id="svg_52">
     <path stroke="null" d="m250.041097,257.763981l133.83777,71.34065l-45.94851,9.56379l-141.65395,-16.83057l-74.17757,-49.33428l127.94226,-14.73959z" fill="#fcf3cd" id="svg_62"/>
     <g stroke="null" fill="#eed572" id="svg_58" transform="matrix(0.5583389882492805,0,0,0.5583389882492805,-1673.7527557512044,-1302.2055037881637) ">
      <path stroke="null" d="m3445.56595,3170.931859s205.916,-47.519 209.084,-48.575s23.232,-17.952 23.232,-17.952l7.392,-182.685l-234.428,49.631l-5.28,199.581z" id="svg_61"/>
      <path stroke="null" d="m3211.13795,3007.254859l234.428,163.677l5.28,-199.58l-234.428,-151.006l-5.28,186.909z" id="svg_60"/>
      <path stroke="null" d="m3269.39295,3125.140859c49.278,35.199 68.99,80.255 59.135,135.166c-3.252,8.738 -105.624,-20.261 -123.55,-21.12c-18.851,-0.903 -28.604,-17.802 -23.931,-32.777c14.383,-46.095 41.401,-76.251 88.346,-81.269z" id="svg_59"/>
     </g>
     <path stroke="null" d="m121.580697,290.841661c11.22708,16.52125 25.17271,37.19431 36.19768,54.02264c22.14596,33.80296 25.61771,5.45609 38.49803,34.68905s3.07477,68.20948 46.51187,69.98165c2.43659,0.09938 5.02673,0.17643 7.74193,0.22221l2.45892,-92.9411l-130.89029,-84.31254l-0.51814,18.33809z" fill="#fee67b" id="svg_57"/>
     <path stroke="null" d="m196.276407,321.837841s70.1257,-11.92109 87.65699,0s53.99696,16.83002 53.99696,16.83002l-31.55676,57.50277s-33.66002,-5.61019 -39.27021,4.90892s-20.33639,26.64784 -20.33639,26.64784l-14.02491,-26.64784l-21.03766,-6.31147l-15.42802,-72.93024z" fill="#eed572" id="svg_56"/>
     <path stroke="null" d="m208.452667,320.034411c23.7361,24.08507 -2.02119,-0.58179 30.34572,21.93881c32.36747,22.52061 28.67127,3.03234 28.305,18.09186c-0.36683,15.05896 12.49395,1.99104 41.05466,12.0685c2.71855,0.95923 6.43207,1.23951 10.88985,0.94303l18.88302,-34.40875s-36.46512,-4.90892 -53.99696,-16.83001c-12.95179,-8.80669 -54.60053,-4.60183 -75.48129,-1.80344z" fill="#fee67b" id="svg_55"/>
     <path stroke="null" d="m298.758407,329.125281c-5.50968,-2.05803 -10.6933,-4.47787 -14.82501,-7.28744c-17.53129,-11.92165 -87.65699,0 -87.65699,0l15.42746,72.93024s12.90433,-5.20595 27.09452,-21.57924s12.53471,45.70061 41.05355,-12.05901c5.76541,-11.67598 12.52187,-22.32965 18.90647,-32.00454l0,-0.00001z" fill="#feeb95" id="svg_54"/>
     <path stroke="null" d="m151.676847,442.683061c-17.20968,1.83973 -29.62323,9.72962 -38.39251,22.21687c1.61528,4.98596 3.81011,10.03502 6.52922,15.14159c4.09374,7.68777 14.6095,10.52692 22.41061,3.35004c3.56499,-3.2808 17.48829,-11.82395 30.67179,-20.30735c-5.40919,-7.35556 -12.4772,-14.15724 -21.21911,-20.40115z" fill="#fee67b" id="svg_53"/>
    </g>
    <g stroke="null" id="svg_48" transform="rotate(100.99280548095703 252.02189636230472,243.5458068847656) ">
     <path stroke="null" d="m252.407387,274.479161l-42.56515,42.56515c-3.6206,3.62059 -3.32009,7.43698 -3.32009,10.49231c0,18.19788 -18.90914,30.29532 -35.43123,22.65743c-19.43695,-8.97827 -19.3084,-37.71145 -3.83512,-53.18516l46.6131,-46.61735c1.84732,-1.84732 4.49913,-2.40918 6.83596,-1.68558c32.74026,16.27607 30.60136,15.0438 31.70252,16.14497c2.65607,2.65606 2.65607,6.96791 0,9.62823l0.00001,0z" fill="#a07765" id="svg_51"/>
     <path stroke="null" d="m328.194627,220.374601l-61.33212,61.33212c-1.31101,1.30675 -3.05192,1.99631 -4.81838,1.99631c-2.28404,0 0.65721,1.13096 -46.40878,-22.40204c-3.44224,-1.72091 -4.76985,-5.96848 -2.94125,-9.33028c0,-0.62401 0.51334,-0.91771 114.99826,-115.40263c3.1643,-3.16174 8.39598,-2.45644 10.65832,1.31101c15.97044,26.62024 11.7948,60.54466 -10.15605,82.49551z" fill="#b2b2b2" id="svg_50"/>
     <path stroke="null" d="m310.742917,202.922891c-73.75135,74.20595 -69.27265,69.90985 -70.62409,70.61984l-24.48348,-12.24174c-1.95799,-0.979 -3.32433,-2.83909 -3.67337,-5.0014c-0.41288,-2.5139 0.73212,-4.28546 0.73212,-4.33314c119.33778,-119.75279 115.06807,-115.47456 115.18129,-115.57289c6.74233,23.21078 0.61294,48.78392 -17.13247,66.52933z" fill="#999" id="svg_49"/>
    </g>
   </g>
  </g>
 </g>
</svg>