<svg width="512" height="512" version="1.1" xmlns="http://www.w3.org/2000/svg"><g><title>background</title><rect id="canvas_background" x="-1" y="-1" width="514" height="514" fill="none"/><g id="canvasGrid" x="0" y="0" width="100%" height="100%" display="none" overflow="visible"><rect width="100%" height="100%" fill="url(#gridpattern)" stroke-width="0"/></g></g><g><title>Layer 1</title><g stroke="null"><g transform="matrix(1.3 0 0 1.3 -38.3 -169)"><title transform="translate(-126 121)">background</title><rect x="-127" y="120" width="514" height="402" fill="none"/><g display="none"><rect x="-126" y="121" width="512" height="512" fill="url(#gridpattern)" stroke="null" stroke-width="0"/></g></g><g transform="matrix(1.3 0 0 1.3 -38.9 -166)"><title transform="translate(-126 121)">Layer 1</title><path d="m250 258 134 71.3-45.9 9.56-142-16.8-74.2-49.3 128-14.7z" fill="#fcf3cd"/><g transform="matrix(.558 0 0 .558 -1674 -1302)" fill="#eed572"><path d="m3446 3171s206-47.5 209-48.6 23.2-18 23.2-18l7.39-183-234 49.6-5.28 200z"/><path d="m3211 3007 234 164 5.28-200-234-151-5.28 187z"/><path d="m3269 3125c49.3 35.2 69 80.3 59.1 135-3.25 8.74-106-20.3-124-21.1-18.9-0.903-28.6-17.8-23.9-32.8 14.4-46.1 41.4-76.3 88.3-81.3z"/></g><path d="m122 291c11.2 16.5 25.2 37.2 36.2 54 22.1 33.8 25.6 5.46 38.5 34.7s3.07 68.2 46.5 70c2.44 0.0994 5.03 0.176 7.74 0.222l2.46-92.9-131-84.3-0.518 18.3z" fill="#fee67b"/><path d="m196 322s70.1-11.9 87.7 0 54 16.8 54 16.8l-31.6 57.5s-33.7-5.61-39.3 4.91-20.3 26.6-20.3 26.6l-14-26.6-21-6.31-15.4-72.9z" fill="#eed572"/><path d="m208 320c23.7 24.1-2.02-0.582 30.3 21.9 32.4 22.5 28.7 3.03 28.3 18.1-0.367 15.1 12.5 1.99 41.1 12.1 2.72 0.959 6.43 1.24 10.9 0.943l18.9-34.4s-36.5-4.91-54-16.8c-13-8.81-54.6-4.6-75.5-1.8z" fill="#fee67b"/><path d="m299 329c-5.51-2.06-10.7-4.48-14.8-7.29-17.5-11.9-87.7 0-87.7 0l15.4 72.9s12.9-5.21 27.1-21.6 12.5 45.7 41.1-12.1c5.77-11.7 12.5-22.3 18.9-32v-1e-5z" fill="#feeb95"/><path d="m152 443c-17.2 1.84-29.6 9.73-38.4 22.2 1.62 4.99 3.81 10 6.53 15.1 4.09 7.69 14.6 10.5 22.4 3.35 3.56-3.28 17.5-11.8 30.7-20.3-5.41-7.36-12.5-14.2-21.2-20.4z" fill="#fee67b"/><g transform="rotate(101 252 244)"><path d="m252 274-42.6 42.6c-3.62 3.62-3.32 7.44-3.32 10.5 0 18.2-18.9 30.3-35.4 22.7-19.4-8.98-19.3-37.7-3.84-53.2l46.6-46.6c1.85-1.85 4.5-2.41 6.84-1.69 32.7 16.3 30.6 15 31.7 16.1 2.66 2.66 2.66 6.97 0 9.63h1e-5z" fill="#a07765"/><path d="m328 220-61.3 61.3c-1.31 1.31-3.05 2-4.82 2-2.28 0 0.657 1.13-46.4-22.4-3.44-1.72-4.77-5.97-2.94-9.33 0-0.624 0.513-0.918 115-115 3.16-3.16 8.4-2.46 10.7 1.31 16 26.6 11.8 60.5-10.2 82.5z" fill="#b2b2b2"/><path d="m311 203c-73.8 74.2-69.3 69.9-70.6 70.6l-24.5-12.2c-1.96-0.979-3.32-2.84-3.67-5-0.413-2.51 0.732-4.29 0.732-4.33 119-120 115-115 115-116 6.74 23.2 0.613 48.8-17.1 66.5z" fill="#999"/></g></g></g></g></svg>
