<svg style="enable-background:new 0 0 512 512" version="1.1" viewBox="0 0 512 512" xml:space="preserve" xmlns="http://www.w3.org/2000/svg">
<path d="m512 173-259-123c-15.8-7.44-33.3-10.5-50.8-9.11-151 12-202 118-202 165h512v-33z" style="fill:#FFF082"/>
<path d="m505 315c3.93-0.828 6.85-4.09 6.85-8.1v-133h-479c-18.2 0-33 14.8-33 33v231c0 18.2 14.8 33 33 33h168c3.47 0 6.56-2.18 7.72-5.45 5.65-16.1 21-27.6 39-27.6s33.3 11.5 39 27.6c1.15 3.27 4.24 5.45 7.72 5.45h209c4.56 0 8.26-3.7 8.26-8.26v-75.2c0-4.01-2.92-7.27-6.85-8.1-15-3.15-26.2-16.4-26.2-32.3 0-15.9 11.2-29.2 26.2-32.3z" style="fill:#FFDC64"/>

	<circle cx="421" cy="256" r="16.5" style="fill:#E1A546"/>
	<circle cx="206" cy="372" r="16.5" style="fill:#E1A546"/>

<circle cx="82.6" cy="396" r="24.8" style="fill:#FFC850"/>
<path d="m82.6 372c-10.1 0-18.7 6.01-22.5 14.6 3.11-1.4 6.53-2.23 10.2-2.23 13.7 0 24.8 11.1 24.8 24.8 0 3.63-0.824 7.05-2.23 10.2 8.6-3.88 14.6-12.5 14.6-22.5 0-13.7-11.1-24.8-24.8-24.8z" style="fill:#E1A546"/>
<circle cx="297" cy="239" r="24.8" style="fill:#FFC850"/>
<path d="m297 215c-10.1 0-18.7 6.01-22.5 14.6 3.11-1.4 6.53-2.23 10.2-2.23 13.7 0 24.8 11.1 24.8 24.8 0 3.63-0.824 7.05-2.23 10.2 8.6-3.88 14.6-12.5 14.6-22.5 1e-3 -13.7-11.1-24.8-24.8-24.8z" style="fill:#E1A546"/>
<circle cx="132" cy="273" r="41.3" style="fill:#FFC850"/>
<path d="m132 231c-15.7 0-29.1 8.83-36.1 21.7 5.86-3.19 12.5-5.16 19.6-5.16 22.8 0 41.3 18.5 41.3 41.3 0 7.14-1.98 13.8-5.16 19.6 12.9-7 21.7-20.5 21.7-36.1 1e-3 -22.8-18.5-41.3-41.3-41.3z" style="fill:#E1A546"/>
<circle cx="355" cy="372" r="41.3" style="fill:#FFC850"/>
<path d="m355 330c-15.7 0-29.1 8.83-36.1 21.7 5.86-3.19 12.5-5.16 19.6-5.16 22.8 0 41.3 18.5 41.3 41.3 0 7.14-1.98 13.8-5.16 19.6 12.9-7 21.7-20.5 21.7-36.1 0-22.8-18.5-41.3-41.3-41.3z" style="fill:#E1A546"/>
<path d="m0 215c18.2 0 33 14.8 33 33v149c0 27.4 22.2 49.5 49.5 49.5h111c6.84 0 12.4 5.55 12.4 12.4s-5.55 12.4-12.4 12.4h-161c-18.2 1e-3 -33-14.8-33-33v-223z" style="fill:#FFC850"/>















</svg>
