<svg width="512" height="512" xmlns="http://www.w3.org/2000/svg" xmlns:xlink="http://www.w3.org/1999/xlink">
 <!-- Created with Method Draw - http://github.com/duopixel/Method-Draw/ -->

 <g>
  <title>background</title>
  <rect fill="none" id="canvas_background" height="514" width="514" y="-1" x="-1"/>
  <g display="none" overflow="visible" y="0" x="0" height="100%" width="100%" id="canvasGrid">
   <rect fill="url(#gridpattern)" stroke-width="0" y="0" x="0" height="100%" width="100%"/>
  </g>
 </g>
 <g>
  <title>Layer 1</title>
  <g stroke="null" id="svg_366">
   <g stroke="null" transform="matrix(1.2544745841070843,0,0,1.2544745841070843,-2038.1880267469269,-2321.6136503562957) " id="svg_250">
    <path stroke="null" d="m1999.32882,2204.080357c0,29.402 -74.647,53.237 -166.729,53.237s-166.729,-23.835 -166.729,-53.237s333.458,-29.402 333.458,0z" fill="url(#svg_257)" id="svg_256"/>
    <g stroke="null" id="svg_255"/>
    <path stroke="null" d="m1665.87082,2204.080357c0,29.402 74.647,53.237 166.729,53.237s166.729,-23.835 166.729,-53.237c0,29.402 -333.458,29.402 -333.458,0z" fill="url(#svg_254)" id="svg_253"/>
    <path stroke="null" d="m1832.59982,2257.317357c50.81,0 96.303,-7.259 126.884,-18.704l-17.416,-17.416c-95.322,10.243 -276.196,4.538 -276.196,-17.117c-0.001,29.402 74.647,53.237 166.728,53.237z" fill="url(#svg_252)" id="svg_251"/>
   </g>
  </g>
  <metadata transform="matrix(0.12346090262170506,0,0,0.12346090262170506,0,0) " id="svg_364">image/svg+xml</metadata>

  <linearGradient id="svg_295">
   <stop offset="0" stop-color="#8a7889" id="svg_363"/>
   <stop offset="1" stop-color="#6e566e" id="svg_362"/>
  </linearGradient>
  <linearGradient id="svg_257" x1="0.5" x2="0.5" xlink:href="#svg_295" y1="0.086939" y2="0.529131"/>
  <linearGradient id="svg_265">
   <stop offset="0" stop-color="#ffd945" id="svg_361"/>
   <stop offset="0.4169" stop-color="#ffd744" id="svg_360"/>
   <stop offset="0.6278" stop-color="#ffcf3f" id="svg_359"/>
   <stop offset="0.7926" stop-color="#ffc237" id="svg_358"/>
   <stop offset="0.9326" stop-color="#ffaf2c" id="svg_357"/>
   <stop offset="1" stop-color="#ffa325" id="svg_356"/>
  </linearGradient>
  <linearGradient id="svg_355" gradientTransform="matrix(.871 .492 -.492 .871 252.73 -416.175)" gradientUnits="userSpaceOnUse" x1="429.541" x2="460.88" xlink:href="#svg_265" y1="391.267" y2="391.267"/>
  <linearGradient id="svg_270">
   <stop offset="0" stop-color="#ffd945" id="svg_354"/>
   <stop offset="0.2501" stop-color="#ffd241" id="svg_353"/>
   <stop offset="0.6071" stop-color="#ffbf36" id="svg_352"/>
   <stop offset="1" stop-color="#ffa325" id="svg_351"/>
  </linearGradient>
  <linearGradient id="svg_350" gradientTransform="matrix(.871 .492 -.492 .871 252.73 -416.175)" gradientUnits="userSpaceOnUse" x1="465.244" x2="433.465" xlink:href="#svg_270" y1="397.213" y2="397.213"/>
  <linearGradient id="svg_268">
   <stop offset="0" stop-color="#ffa325" id="svg_349"/>
   <stop offset="1" stop-color="#ff7044" id="svg_348"/>
  </linearGradient>
  <linearGradient id="svg_347" gradientTransform="matrix(.871 .492 -.492 .871 252.73 -416.175)" gradientUnits="userSpaceOnUse" x1="439.438" x2="452.888" xlink:href="#svg_268" y1="399.534" y2="404.356"/>
  <linearGradient id="svg_346" gradientTransform="matrix(-.871 -.492 .492 -.871 292.816 550.278)" gradientUnits="userSpaceOnUse" x1="49.12" x2="80.459" xlink:href="#svg_265" y1="344.762" y2="344.762"/>
  <linearGradient id="svg_345" gradientTransform="matrix(-.871 -.492 .492 -.871 292.816 550.278)" gradientUnits="userSpaceOnUse" x1="84.823" x2="53.044" xlink:href="#svg_270" y1="350.707" y2="350.707"/>
  <linearGradient id="svg_344" gradientTransform="matrix(-.871 -.492 .492 -.871 292.816 550.278)" gradientUnits="userSpaceOnUse" x1="59.017" x2="72.467" xlink:href="#svg_268" y1="353.029" y2="357.85"/>
  <linearGradient id="svg_343" gradientTransform="matrix(-.492 .871 -.871 -.492 696.854 -165.468)" gradientUnits="userSpaceOnUse" x1="418.539" x2="449.878" xlink:href="#svg_265" y1="21.848" y2="21.848"/>
  <linearGradient id="svg_342" gradientTransform="matrix(-.492 .871 -.871 -.492 696.854 -165.468)" gradientUnits="userSpaceOnUse" x1="454.242" x2="422.463" xlink:href="#svg_270" y1="27.794" y2="27.794"/>
  <linearGradient id="svg_341" gradientTransform="matrix(-.492 .871 -.871 -.492 696.854 -165.468)" gradientUnits="userSpaceOnUse" x1="428.436" x2="441.886" xlink:href="#svg_268" y1="30.115" y2="34.937"/>
  <linearGradient id="svg_340" gradientTransform="matrix(.492 -.871 .871 .492 -269.599 -125.382)" gradientUnits="userSpaceOnUse" x1="60.122" x2="91.461" xlink:href="#svg_265" y1="714.181" y2="714.181"/>
  <linearGradient id="svg_339" gradientTransform="matrix(.492 -.871 .871 .492 -269.599 -125.382)" gradientUnits="userSpaceOnUse" x1="95.825" x2="64.046" xlink:href="#svg_270" y1="720.126" y2="720.126"/>
  <linearGradient id="svg_338" gradientTransform="matrix(.492 -.871 .871 .492 -269.599 -125.382)" gradientUnits="userSpaceOnUse" x1="70.019" x2="83.469" xlink:href="#svg_268" y1="722.448" y2="727.269"/>
  <linearGradient id="svg_337" gradientTransform="matrix(.268 .963 -.963 .268 526.715 -382.803)" gradientUnits="userSpaceOnUse" x1="500.55" x2="531.888" xlink:href="#svg_265" y1="204.279" y2="204.279"/>
  <linearGradient id="svg_336" gradientTransform="matrix(.268 .963 -.963 .268 526.715 -382.803)" gradientUnits="userSpaceOnUse" x1="536.252" x2="504.473" xlink:href="#svg_270" y1="210.225" y2="210.225"/>
  <linearGradient id="svg_335" gradientTransform="matrix(.268 .963 -.963 .268 526.715 -382.803)" gradientUnits="userSpaceOnUse" x1="510.446" x2="523.896" xlink:href="#svg_268" y1="212.546" y2="217.368"/>
  <linearGradient id="svg_334" gradientTransform="matrix(-.268 -.963 .963 -.268 -128.325 328.928)" gradientUnits="userSpaceOnUse" x1="-21.888" x2="9.451" xlink:href="#svg_265" y1="531.75" y2="531.75"/>
  <linearGradient id="svg_333" gradientTransform="matrix(-.268 -.963 .963 -.268 -128.325 328.928)" gradientUnits="userSpaceOnUse" x1="13.814" x2="-17.964" xlink:href="#svg_270" y1="537.695" y2="537.695"/>
  <linearGradient id="svg_332" gradientTransform="matrix(-.268 -.963 .963 -.268 -128.325 328.928)" gradientUnits="userSpaceOnUse" x1="-11.991" x2="1.459" xlink:href="#svg_268" y1="540.017" y2="544.838"/>
  <linearGradient id="svg_331" gradientTransform="matrix(-.963 .268 -.268 -.963 663.481 108.517)" gradientUnits="userSpaceOnUse" x1="231.551" x2="262.89" xlink:href="#svg_265" y1="-49.16" y2="-49.16"/>
  <linearGradient id="svg_330" gradientTransform="matrix(-.963 .268 -.268 -.963 663.481 108.517)" gradientUnits="userSpaceOnUse" x1="267.253" x2="235.475" xlink:href="#svg_270" y1="-43.215" y2="-43.215"/>
  <linearGradient id="svg_329" gradientTransform="matrix(-.963 .268 -.268 -.963 663.481 108.517)" gradientUnits="userSpaceOnUse" x1="241.448" x2="254.898" xlink:href="#svg_268" y1="-40.894" y2="-36.072"/>
  <linearGradient id="svg_328" gradientTransform="matrix(.963 -.268 .268 .963 -48.249 -546.524)" gradientUnits="userSpaceOnUse" x1="247.11" x2="278.449" xlink:href="#svg_265" y1="785.189" y2="785.189"/>
  <linearGradient id="svg_327" gradientTransform="matrix(.963 -.268 .268 .963 -48.249 -546.524)" gradientUnits="userSpaceOnUse" x1="282.813" x2="251.034" xlink:href="#svg_270" y1="791.135" y2="791.135"/>
  <linearGradient id="svg_326" gradientTransform="matrix(.963 -.268 .268 .963 -48.249 -546.524)" gradientUnits="userSpaceOnUse" x1="257.007" x2="270.457" xlink:href="#svg_268" y1="793.456" y2="798.278"/>
  <linearGradient id="svg_261">
   <stop offset="0" stop-color="#e87264" stop-opacity="0" id="svg_325"/>
   <stop offset="1" stop-color="#ff7044" id="svg_324"/>
  </linearGradient>
  <linearGradient id="svg_323" gradientTransform="matrix(.871 .492 -.492 .871 252.73 -416.175)" gradientUnits="userSpaceOnUse" x1="479.523" x2="445.361" xlink:href="#svg_261" y1="468.539" y2="434.377"/>
  <radialGradient id="svg_322" cx="438.866" cy="425.749" gradientTransform="matrix(.871 .492 -.492 .871 252.73 -416.175)" gradientUnits="userSpaceOnUse" r="27.449" xlink:href="#svg_265"/>
  <linearGradient id="svg_263">
   <stop offset="0" stop-color="#ffd945" stop-opacity="0" id="svg_321"/>
   <stop offset="1" stop-color="#fbed21" id="svg_320"/>
  </linearGradient>
  <linearGradient id="svg_319" gradientTransform="matrix(.871 .492 -.492 .871 252.73 -416.175)" gradientUnits="userSpaceOnUse" x1="449.038" x2="422.685" xlink:href="#svg_263" y1="438.036" y2="411.683"/>
  <linearGradient id="svg_318" gradientTransform="matrix(.871 .492 -.492 .871 252.73 -416.175)" gradientUnits="userSpaceOnUse" x1="454.569" x2="495.606" xlink:href="#svg_261" y1="435.036" y2="400.301"/>
  <linearGradient id="svg_259">
   <stop offset="0" stop-color="#fff" stop-opacity="0" id="svg_317"/>
   <stop offset="1" stop-color="#fff" id="svg_316"/>
  </linearGradient>
  <linearGradient id="svg_315" gradientTransform="matrix(.871 .492 -.492 .871 252.73 -416.175)" gradientUnits="userSpaceOnUse" x1="445.211" x2="445.211" xlink:href="#svg_259" y1="427.434" y2="406.66"/>
  <linearGradient id="svg_299">
   <stop offset="0" stop-color="#f8f6fb" id="svg_314"/>
   <stop offset="1" stop-color="#efdcfb" id="svg_313"/>
  </linearGradient>
  <linearGradient id="svg_312" gradientUnits="userSpaceOnUse" x1="185.186" x2="568.977" xlink:href="#svg_299" y1="145.92" y2="402.2"/>
  <linearGradient id="svg_307">
   <stop offset="0" stop-color="#ffd945" id="svg_311"/>
   <stop offset="0.3043" stop-color="#ffcd3e" id="svg_310"/>
   <stop offset="0.8558" stop-color="#ffad2b" id="svg_309"/>
   <stop offset="1" stop-color="#ffa325" id="svg_308"/>
  </linearGradient>
  <linearGradient id="svg_306" gradientUnits="userSpaceOnUse" x1="206.287" x2="497.597" xlink:href="#svg_307" y1="207.181" y2="401.707"/>
  <linearGradient id="svg_305" gradientUnits="userSpaceOnUse" x1="269.504" x2="269.504" xlink:href="#svg_268" y1="178.095" y2="80.819"/>
  <linearGradient id="svg_301" gradientUnits="userSpaceOnUse" x1="353.285" x2="616.17" y1="238.556" y2="542.442">
   <stop offset="0" stop-color="#efdcfb" stop-opacity="0" id="svg_304"/>
   <stop offset="0.4856" stop-color="#baaad6" stop-opacity="0.486" id="svg_303"/>
   <stop offset="1" stop-color="#8679b2" id="svg_302"/>
  </linearGradient>
  <linearGradient id="svg_300" gradientUnits="userSpaceOnUse" x1="294.161" x2="52.094" xlink:href="#svg_259" y1="214.092" y2="107.729" gradientTransform="translate(-14.489226,-13.246767)"/>
  <linearGradient id="svg_298" gradientUnits="userSpaceOnUse" x1="269.504" x2="269.504" xlink:href="#svg_299" y1="68.233" y2="-6.187"/>
  <linearGradient id="svg_297" gradientUnits="userSpaceOnUse" x1="269.504" x2="269.504" xlink:href="#svg_259" y1="70.79" y2="23.579"/>
  <linearGradient id="svg_296" gradientUnits="userSpaceOnUse" x1="370.599" x2="52.204" xlink:href="#svg_261" y1="312.6" y2="297.018"/>
  <linearGradient id="svg_254" x1="0.5" x2="0.5" xlink:href="#svg_295" y1="0.145613" y2="0.816631"/>
  <linearGradient id="svg_252" x1="0.656128" x2="0.604236" y1="1.895936" y2="1.388601">
   <stop offset="0" stop-color="#6e566e" stop-opacity="0" id="svg_294"/>
   <stop offset="1" stop-color="#6e566e" id="svg_293"/>
  </linearGradient>
  <linearGradient id="svg_292" gradientUnits="userSpaceOnUse" x1="115.828" x2="167.526" xlink:href="#svg_265" y1="267.495" y2="267.495"/>
  <linearGradient id="svg_291" gradientUnits="userSpaceOnUse" x1="174.724" x2="122.3" xlink:href="#svg_270" y1="277.303" y2="277.303"/>
  <linearGradient id="svg_290" gradientUnits="userSpaceOnUse" x1="132.154" x2="154.342" xlink:href="#svg_268" y1="281.132" y2="289.086"/>
  <linearGradient id="svg_289" gradientTransform="matrix(-1 0 0 -1 510 821.912)" gradientUnits="userSpaceOnUse" x1="342.475" x2="394.172" xlink:href="#svg_265" y1="412.74" y2="412.74"/>
  <linearGradient id="svg_288" gradientTransform="matrix(-1 0 0 -1 510 821.912)" gradientUnits="userSpaceOnUse" x1="401.371" x2="348.947" xlink:href="#svg_270" y1="422.548" y2="422.548"/>
  <linearGradient id="svg_287" gradientTransform="matrix(-1 0 0 -1 510 821.912)" gradientUnits="userSpaceOnUse" x1="358.801" x2="380.989" xlink:href="#svg_268" y1="426.377" y2="434.332"/>
  <linearGradient id="svg_286" gradientTransform="matrix(0 1 -1 0 510 0)" gradientUnits="userSpaceOnUse" x1="312.484" x2="364.182" xlink:href="#svg_265" y1="297.485" y2="297.485"/>
  <linearGradient id="svg_285" gradientTransform="matrix(0 1 -1 0 510 0)" gradientUnits="userSpaceOnUse" x1="371.381" x2="318.957" xlink:href="#svg_270" y1="307.293" y2="307.293"/>
  <linearGradient id="svg_284" gradientTransform="matrix(0 1 -1 0 510 0)" gradientUnits="userSpaceOnUse" x1="328.81" x2="350.999" xlink:href="#svg_268" y1="311.122" y2="319.076"/>
  <linearGradient id="svg_283" gradientTransform="matrix(0 -1 1 0 -311.912 510)" gradientUnits="userSpaceOnUse" x1="145.818" x2="197.516" xlink:href="#svg_265" y1="382.75" y2="382.75"/>
  <linearGradient id="svg_282" gradientTransform="matrix(0 -1 1 0 -311.912 510)" gradientUnits="userSpaceOnUse" x1="204.715" x2="152.291" xlink:href="#svg_270" y1="392.558" y2="392.558"/>
  <linearGradient id="svg_281" gradientTransform="matrix(0 -1 1 0 -311.912 510)" gradientUnits="userSpaceOnUse" x1="162.144" x2="184.333" xlink:href="#svg_268" y1="396.387" y2="404.341"/>
  <linearGradient id="svg_280" gradientTransform="matrix(.707 .707 -.707 .707 255 -105.625)" gradientUnits="userSpaceOnUse" x1="207.945" x2="259.642" xlink:href="#svg_265" y1="323.219" y2="323.219"/>
  <linearGradient id="svg_279" gradientTransform="matrix(.707 .707 -.707 .707 255 -105.625)" gradientUnits="userSpaceOnUse" x1="266.841" x2="214.417" xlink:href="#svg_270" y1="333.027" y2="333.027"/>
  <linearGradient id="svg_278" gradientTransform="matrix(.707 .707 -.707 .707 255 -105.625)" gradientUnits="userSpaceOnUse" x1="224.271" x2="246.459" xlink:href="#svg_268" y1="336.856" y2="344.81"/>
  <linearGradient id="svg_277" gradientTransform="matrix(-.707 -.707 .707 -.707 34.445 836.179)" gradientUnits="userSpaceOnUse" x1="250.358" x2="302.055" xlink:href="#svg_265" y1="357.016" y2="357.016"/>
  <linearGradient id="svg_276" gradientTransform="matrix(-.707 -.707 .707 -.707 34.445 836.179)" gradientUnits="userSpaceOnUse" x1="309.254" x2="256.83" xlink:href="#svg_270" y1="366.824" y2="366.824"/>
  <linearGradient id="svg_275" gradientTransform="matrix(-.707 -.707 .707 -.707 34.445 836.179)" gradientUnits="userSpaceOnUse" x1="266.684" x2="288.872" xlink:href="#svg_268" y1="370.653" y2="378.607"/>
  <linearGradient id="svg_274" gradientTransform="matrix(-.707 .707 -.707 -.707 615.625 255)" gradientUnits="userSpaceOnUse" x1="368.208" x2="419.906" xlink:href="#svg_265" y1="205.368" y2="205.368"/>
  <linearGradient id="svg_273" gradientTransform="matrix(-.707 .707 -.707 -.707 615.625 255)" gradientUnits="userSpaceOnUse" x1="427.105" x2="374.681" xlink:href="#svg_270" y1="215.176" y2="215.176"/>
  <linearGradient id="svg_272" gradientTransform="matrix(-.707 .707 -.707 -.707 615.625 255)" gradientUnits="userSpaceOnUse" x1="384.534" x2="406.723" xlink:href="#svg_268" y1="219.005" y2="226.959"/>
  <linearGradient id="svg_271" gradientTransform="matrix(.707 -.707 .707 .707 -326.179 34.445)" gradientUnits="userSpaceOnUse" x1="90.094" x2="141.792" xlink:href="#svg_265" y1="474.867" y2="474.867"/>
  <linearGradient id="svg_269" gradientTransform="matrix(.707 -.707 .707 .707 -326.179 34.445)" gradientUnits="userSpaceOnUse" x1="148.991" x2="96.567" xlink:href="#svg_270" y1="484.675" y2="484.675"/>
  <linearGradient id="svg_267" gradientTransform="matrix(.707 -.707 .707 .707 -326.179 34.445)" gradientUnits="userSpaceOnUse" x1="106.42" x2="128.608" xlink:href="#svg_268" y1="488.504" y2="496.458"/>
  <linearGradient id="svg_266" gradientUnits="userSpaceOnUse" x1="198.281" x2="141.925" xlink:href="#svg_261" y1="394.967" y2="338.611"/>
  <radialGradient id="svg_264" cx="131.21" cy="324.377" gradientUnits="userSpaceOnUse" r="45.281" xlink:href="#svg_265"/>
  <linearGradient id="svg_262" gradientUnits="userSpaceOnUse" x1="147.99" x2="104.516" xlink:href="#svg_263" y1="344.646" y2="301.173"/>
  <linearGradient id="svg_260" gradientUnits="userSpaceOnUse" x1="157.115" x2="224.812" xlink:href="#svg_261" y1="339.698" y2="282.397"/>
  <linearGradient id="svg_258" gradientUnits="userSpaceOnUse" x1="141.677" x2="141.677" xlink:href="#svg_259" y1="327.157" y2="292.888"/>
  <g stroke="null" id="svg_19">
   <g stroke="null" transform="matrix(1.0284119336137094,0,0,1.0284119336137094,-1568.3828388594409,-1509.0758491646325) " id="svg_5">
    <path stroke="null" id="svg_6" fill="#e5e5e5" d="m1792.907275,1634.753749l-30,0l0,-27.74c0,-22.288 18.132,-40.42 40.42,-40.42l67.826,0c5.745,0 10.42,-4.674 10.42,-10.42l0,-24.087l30,0l0,24.086c0,22.288 -18.132,40.42 -40.42,40.42l-67.826,0c-5.745,0 -10.42,4.674 -10.42,10.42l0,27.741z"/>
    <path stroke="null" id="svg_7" fill="#e5e5e5" d="m1733.573275,1572.753749l-30,0l0,-27.74c0,-22.288 18.132,-40.42 40.42,-40.42l67.827,0c5.745,0 10.42,-4.674 10.42,-10.42l0,-24.087l30,0l0,24.086c0,22.288 -18.132,40.42 -40.42,40.42l-67.827,0c-5.745,0 -10.42,4.674 -10.42,10.42l0,27.741z"/>
    <path stroke="null" id="svg_8" fill="#cccccc" d="m1881.573275,1532.086749l0,24.086c0,5.746 -4.675,10.42 -10.42,10.42l-67.826,0c-9.625,0 -18.471,3.387 -25.42,9.025l0,59.135l15,0l0,-27.74c0,-5.746 4.675,-10.42 10.42,-10.42l67.826,0c22.288,0 40.42,-18.132 40.42,-40.42l0,-24.086l-30,0z"/>
    <path stroke="null" id="svg_9" fill="#cccccc" d="m1852.240275,1494.172749l0,-24.086l-30,0l0,24.086c0,5.746 -4.675,10.42 -10.42,10.42l-33.914,0l0,30l33.914,0c22.288,0 40.42,-18.132 40.42,-40.42z"/>
    <path stroke="null" id="svg_12" fill="#b5dbff" d="m1962.351275,1863.738749l-47.868,0l0,-30l47.868,0c3.526,0 6.395,-2.868 6.395,-6.394l0,-83.364c0,-3.526 -2.868,-6.394 -6.395,-6.394l-47.868,0l0,-30l47.868,0c20.068,0 36.395,16.326 36.395,36.394l0,83.364c0,20.068 -16.326,36.394 -36.395,36.394z"/>
    <path stroke="null" id="svg_15" fill="#edf5ff" d="m1877.362275,1923.919749l-197.244,0c-28.739,0 -52.121,-23.382 -52.121,-52.122l0,-209.711l301.486,0l0,209.712c0,28.74 -23.382,52.121 -52.121,52.121z"/>
    <path stroke="null" id="svg_16" fill="#d5e8fe" d="m1777.906275,1662.086749l0,261.833l99.456,0c28.739,0 52.121,-23.382 52.121,-52.122l0,-209.711l-151.577,0z"/>
    <path stroke="null" id="svg_17" fill="#db0000" d="m1627.997275,1741.086749l0,130.712c0,28.74 23.382,52.122 52.121,52.122l197.244,0c28.739,0 52.121,-23.382 52.121,-52.122l0,-130.712l-301.486,0z"/>
    <path stroke="null" id="svg_18" fill="#bf0000" d="m1777.906275,1741.086749l0,182.833l99.456,0c28.739,0 52.121,-23.382 52.121,-52.122l0,-130.711l-151.577,0z"/>
   </g>
  </g>
  <g stroke="null" transform="rotate(-101.03681945800781 129.39640808105472,421.0946350097656) " id="svg_46">
   <path stroke="null" id="svg_26" fill="#39B54A" d="m183.757531,366.586934c0,0 32.063119,122.7196 -96.377284,96.377284l0.092999,-0.092999c-27.808694,-127.471435 96.393877,-96.393877 96.393877,-96.393877l-0.109592,0.109592z"/>
   <g stroke="null" transform="matrix(0.3858888487729164,0,0,0.3858888487729164,-549.3963427803851,-709.4589100007286) " id="svg_27">
    <path stroke="null" id="svg_28" fill="#009245" d="m1650.319473,3037.633465c0.027,0.123 0.05,0.243 0.077,0.366l-0.241,0.241c332.844,68.263 250.038,-250.038 250.038,-250.038l0,0l-249.874,249.431z"/>
    <polygon stroke="null" id="svg_29" fill="#009245" points="1870.21142578125,2846.7402259111404 1841.925537109375,2818.4555579423904 1794.7353515625,2865.6464759111404 1794.7353515625,2825.2643958330154 1754.7354736328125,2825.2643958330154 1754.7354736328125,2905.6464759111404 1707.7354736328125,2952.6464759111404 1707.7354736328125,2934.2643958330154 1667.7354736328125,2934.2643958330154 1667.7354736328125,2992.6474524736404 1608.7396240234375,3051.6435462236404 1637.0235595703125,3079.9272376298904 1738.9776611328125,2977.9736243486404 1817.402587890625,2977.9736243486404 1817.402587890625,2937.9736243486404 1778.9775390625,2937.9736243486404 "/>
   </g>
   <polygon stroke="null" id="svg_30" fill="#006837" points="166.7019500732422,383.47149658203125 76.71774291992188,473.455810546875 82.31277465820312,479.0508117675781 121.65567016601562,439.7078552246094 151.91903686523438,439.7078552246094 151.91903686523438,424.2723083496094 137.09127807617188,424.2723083496094 172.29733276367188,389.0665283203125 "/>
   <g stroke="null" transform="matrix(0.3858888487729164,0,0,0.3858888487729164,-549.3963427803851,-709.4589100007286) " id="svg_31"/>
   <g stroke="null" transform="matrix(0.3858888487729164,0,0,0.3858888487729164,-549.3963427803851,-709.4589100007286) " id="svg_32"/>
   <g stroke="null" transform="matrix(0.3858888487729164,0,0,0.3858888487729164,-549.3963427803851,-709.4589100007286) " id="svg_33"/>
   <g stroke="null" transform="matrix(0.3858888487729164,0,0,0.3858888487729164,-549.3963427803851,-709.4589100007286) " id="svg_34"/>
   <g stroke="null" transform="matrix(0.3858888487729164,0,0,0.3858888487729164,-549.3963427803851,-709.4589100007286) " id="svg_35"/>
   <g stroke="null" transform="matrix(0.3858888487729164,0,0,0.3858888487729164,-549.3963427803851,-709.4589100007286) " id="svg_36"/>
   <g stroke="null" transform="matrix(0.3858888487729164,0,0,0.3858888487729164,-549.3963427803851,-709.4589100007286) " id="svg_37"/>
   <g stroke="null" transform="matrix(0.3858888487729164,0,0,0.3858888487729164,-549.3963427803851,-709.4589100007286) " id="svg_38"/>
   <g stroke="null" transform="matrix(0.3858888487729164,0,0,0.3858888487729164,-549.3963427803851,-709.4589100007286) " id="svg_39"/>
   <g stroke="null" transform="matrix(0.3858888487729164,0,0,0.3858888487729164,-549.3963427803851,-709.4589100007286) " id="svg_40"/>
   <g stroke="null" transform="matrix(0.3858888487729164,0,0,0.3858888487729164,-549.3963427803851,-709.4589100007286) " id="svg_41"/>
   <g stroke="null" transform="matrix(0.3858888487729164,0,0,0.3858888487729164,-549.3963427803851,-709.4589100007286) " id="svg_42"/>
   <g stroke="null" transform="matrix(0.3858888487729164,0,0,0.3858888487729164,-549.3963427803851,-709.4589100007286) " id="svg_43"/>
   <g stroke="null" transform="matrix(0.3858888487729164,0,0,0.3858888487729164,-549.3963427803851,-709.4589100007286) " id="svg_44"/>
   <g stroke="null" transform="matrix(0.3858888487729164,0,0,0.3858888487729164,-549.3963427803851,-709.4589100007286) " id="svg_45"/>
  </g>
  <g stroke="null" transform="rotate(-13.955583572387695 225.6755065917966,389.4922180175781) " id="svg_67">
   <path stroke="null" id="svg_47" fill="#39B54A" d="m290.032017,324.96198c0,0 37.958674,145.28448 -114.098515,114.098515l0.110101,-0.110101c-32.921977,-150.910061 114.118158,-114.118158 114.118158,-114.118158l-0.129743,0.129743z"/>
   <g stroke="null" transform="matrix(0.4568435829797595,0,0,0.4568435829797595,-674.6544004145659,-931.8442875755368) " id="svg_50">
    <path stroke="null" id="svg_48" fill="#009245" d="m1862.04395,3000.211714c0.027,0.123 0.05,0.243 0.077,0.366l-0.241,0.241c332.844,68.263 250.038,-250.038 250.038,-250.038l0,0l-249.874,249.431z"/>
    <polygon stroke="null" id="svg_49" fill="#009245" points="2081.93505859375,2809.3187667131424 2053.64892578125,2781.0336104631424 2006.4608154296877,2828.2245284318924 2006.4608154296877,2787.8426924943924 1966.4608154296877,2787.8426924943924 1966.4608154296877,2868.2245284318924 1919.4608154296877,2915.2245284318924 1919.4608154296877,2896.8426924943924 1879.4608154296877,2896.8426924943924 1879.4608154296877,2955.2257491350174 1820.4650878906252,3014.2215987443924 1848.7490234375002,3042.5057784318924 1950.7030029296877,2940.5516768693924 2029.1279296875002,2940.5516768693924 2029.1279296875002,2900.5516768693924 1990.7030029296877,2900.5516768693924 "/>
   </g>
   <polygon stroke="null" id="svg_51" fill="#006837" points="269.8403625488281,344.951171875 163.31044006347656,451.481201171875 169.9342498779297,458.10498046875 216.5112762451172,411.5279235839844 252.3392333984375,411.5279235839844 252.3392333984375,393.254150390625 234.78506469726562,393.254150390625 276.464599609375,351.5749816894531 "/>
   <g stroke="null" transform="matrix(0.4568435829797595,0,0,0.4568435829797595,-674.6544004145659,-931.8442875755368) " id="svg_52"/>
   <g stroke="null" transform="matrix(0.4568435829797595,0,0,0.4568435829797595,-674.6544004145659,-931.8442875755368) " id="svg_53"/>
   <g stroke="null" transform="matrix(0.4568435829797595,0,0,0.4568435829797595,-674.6544004145659,-931.8442875755368) " id="svg_54"/>
   <g stroke="null" transform="matrix(0.4568435829797595,0,0,0.4568435829797595,-674.6544004145659,-931.8442875755368) " id="svg_55"/>
   <g stroke="null" transform="matrix(0.4568435829797595,0,0,0.4568435829797595,-674.6544004145659,-931.8442875755368) " id="svg_56"/>
   <g stroke="null" transform="matrix(0.4568435829797595,0,0,0.4568435829797595,-674.6544004145659,-931.8442875755368) " id="svg_57"/>
   <g stroke="null" transform="matrix(0.4568435829797595,0,0,0.4568435829797595,-674.6544004145659,-931.8442875755368) " id="svg_58"/>
   <g stroke="null" transform="matrix(0.4568435829797595,0,0,0.4568435829797595,-674.6544004145659,-931.8442875755368) " id="svg_59"/>
   <g stroke="null" transform="matrix(0.4568435829797595,0,0,0.4568435829797595,-674.6544004145659,-931.8442875755368) " id="svg_60"/>
   <g stroke="null" transform="matrix(0.4568435829797595,0,0,0.4568435829797595,-674.6544004145659,-931.8442875755368) " id="svg_61"/>
   <g stroke="null" transform="matrix(0.4568435829797595,0,0,0.4568435829797595,-674.6544004145659,-931.8442875755368) " id="svg_62"/>
   <g stroke="null" transform="matrix(0.4568435829797595,0,0,0.4568435829797595,-674.6544004145659,-931.8442875755368) " id="svg_63"/>
   <g stroke="null" transform="matrix(0.4568435829797595,0,0,0.4568435829797595,-674.6544004145659,-931.8442875755368) " id="svg_64"/>
   <g stroke="null" transform="matrix(0.4568435829797595,0,0,0.4568435829797595,-674.6544004145659,-931.8442875755368) " id="svg_65"/>
   <g stroke="null" transform="matrix(0.4568435829797595,0,0,0.4568435829797595,-674.6544004145659,-931.8442875755368) " id="svg_66"/>
  </g>
  <g stroke="null" id="svg_390">
   <path stroke="null" id="svg_373" fill="#fff" d="m388.828791,435.212219l-28.289581,22.375918l-28.288073,-22.375918l28.288073,-10.554618l28.289581,10.554618zm0,0"/>
   <path stroke="null" id="svg_374" fill="#e6e6e6" d="m360.53921,445.766841l-28.285055,-10.554622l0,34.727133l28.285055,10.554618l0,-34.727129zm0,0"/>
   <path stroke="null" id="svg_375" fill="#f2f2f2" d="m360.53921,445.766841l28.286562,-10.554622l0,34.727133l-28.286562,10.554618l0,-34.727129zm0,0"/>
   <path stroke="null" id="svg_376" fill="#fff" d="m445.403426,435.212219l-28.288073,22.375918l-28.289581,-22.375918l28.289581,-10.554618l28.288073,10.554618zm0,0"/>
   <path stroke="null" id="svg_377" fill="#e6e6e6" d="m417.115353,445.766841l-28.286562,-10.554622l0,34.727133l28.286562,10.554618l0,-34.727129zm0,0"/>
   <path stroke="null" id="svg_378" fill="#f2f2f2" d="m417.115353,445.766841l28.286562,-10.554622l0,34.727133l-28.286562,10.554618l0,-34.727129zm0,0"/>
   <path stroke="null" id="svg_379" fill="#fff" d="m417.118371,389.930472l-28.289581,22.375914l-28.289581,-22.375914l28.289581,-10.554622l28.289581,10.554622zm0,0"/>
   <path stroke="null" id="svg_380" fill="#e6e6e6" d="m388.828791,400.48509l-28.286562,-10.554618l0,34.727129l28.286562,10.554618l0,-34.727129zm0,0"/>
   <path stroke="null" id="svg_381" fill="#f2f2f2" d="m388.828791,400.48509l28.286562,-10.554618l0,34.727129l-28.286562,10.554618l0,-34.727129zm0,0"/>
   <g stroke="null" transform="matrix(0.3864944450943537,0,0,0.3864944450943537,-629.8666404898138,-810.643672501388) " id="svg_382" fill="#e6e6e6">
    <path stroke="null" id="svg_383" d="m2587.395088,3271.343904c0,3.94922 -3.19922,7.14844 -7.14843,7.14844s-7.14844,-3.19922 -7.14844,-7.14844s3.19922,-7.14844 7.14844,-7.14844s7.14843,3.19922 7.14843,7.14844zm0,0"/>
    <path stroke="null" id="svg_384" d="m2601.012278,3290.066564c0,3.94922 -3.20312,7.14844 -7.14844,7.14844c-3.94922,0 -7.15234,-3.19922 -7.15234,-7.14844c0,-3.94922 3.20312,-7.14844 7.15234,-7.14844c3.94532,0 7.14844,3.19922 7.14844,7.14844zm0,0"/>
    <path stroke="null" id="svg_385" d="m2580.723218,3294.945464c0,3.94922 -3.20313,7.14844 -7.14844,7.14844c-3.94922,0 -7.15234,-3.19922 -7.15234,-7.14844c0,-3.94921 3.20312,-7.14843 7.15234,-7.14843c3.94531,0 7.14844,3.19922 7.14844,7.14843zm0,0"/>
    <path stroke="null" id="svg_386" d="m2662.254468,3145.554844c0,3.94922 -3.20313,7.15234 -7.15235,7.15234c-3.94531,0 -7.14843,-3.20312 -7.14843,-7.15234c0,-3.94531 3.20312,-7.14844 7.14843,-7.14844c3.94922,0 7.15235,3.20313 7.15235,7.14844zm0,0"/>
    <path stroke="null" id="svg_387" d="m2700.918528,3184.324374c0,3.94922 -3.19922,7.14844 -7.14844,7.14844c-3.94922,0 -7.14843,-3.19922 -7.14843,-7.14844s3.19921,-7.14844 7.14843,-7.14844c3.94922,0 7.14844,3.19922 7.14844,7.14844zm0,0"/>
    <path stroke="null" id="svg_388" d="m2682.566968,3190.918124c0,3.94922 -3.20313,7.14844 -7.15235,7.14844c-3.94531,0 -7.14843,-3.19922 -7.14843,-7.14844s3.20312,-7.14844 7.14843,-7.14844c3.94922,0 7.15235,3.19922 7.15235,7.14844zm0,0"/>
    <path stroke="null" id="svg_389" d="m2731.258368,3263.425934c0,3.94922 -3.19921,7.14844 -7.14843,7.14844c-3.94922,0 -7.14844,-3.19922 -7.14844,-7.14844c0,-3.94922 3.19922,-7.14843 7.14844,-7.14843c3.94922,0 7.14843,3.19921 7.14843,7.14843zm0,0"/>
   </g>
  </g>
 </g>
</svg>