<svg width="512" height="512" xmlns="http://www.w3.org/2000/svg">
 <!-- Created with Method Draw - http://github.com/duopixel/Method-Draw/ -->

 <g>
  <title>background</title>
  <rect fill="none" id="canvas_background" height="514" width="514" y="-1" x="-1"/>
  <g display="none" overflow="visible" y="0" x="0" height="100%" width="100%" id="canvasGrid">
   <rect fill="url(#gridpattern)" stroke-width="0" y="0" x="0" height="100%" width="100%"/>
  </g>
 </g>
 <g>
  <title>Layer 1</title>
  <g stroke="null" id="svg_23">
   <path stroke="null" id="svg_20" fill="#d59247" d="m365.06457,60.153026c30.969583,17.880289 59.453033,37.200751 85.448477,57.958377c14.461456,11.516464 14.549719,27.086457 0.248156,38.622199c-51.585189,41.51482 -113.098911,77.262702 -184.601145,107.27839c-19.866731,8.320791 -46.74859,8.321516 -66.677781,-0.017451c-35.920654,-14.989723 -69.366768,-31.426211 -100.33636,-49.306491c-30.969583,-17.880289 -59.462461,-37.204258 -85.47318,-57.970761c-14.46164,-11.516583 -14.548021,-27.08743 -0.217285,-38.604381c51.554318,-41.532638 113.068039,-77.280465 184.601081,-107.27839c19.837613,-8.339573 46.717544,-8.339389 66.646973,-0.000367c35.935938,14.998545 69.39148,31.438531 100.361063,49.318874z"/>
   <g stroke="null" transform="matrix(6.040759667117389,0,0,6.040759667117389,-29.204014167382013,-35.28707372343736) " id="svg_21"/>
   <path stroke="null" id="svg_22" fill="#d69d68" d="m461.423565,137.588381l-0.190342,67.126367c-0.01903,6.716299 -3.572501,13.426494 -10.662307,19.145221c-51.585189,41.514885 -113.098902,77.262711 -184.601145,107.278454c-19.866786,8.320727 -46.74859,8.321452 -66.677781,-0.017515c-35.920654,-14.989659 -69.366768,-31.426202 -100.336351,-49.306427c-30.969592,-17.880353 -59.462461,-37.204322 -85.473189,-57.970761c-7.288235,-5.80408 -10.92538,-12.637807 -10.906047,-19.463382l0.190287,-67.126312c-0.019333,6.825511 3.617813,13.659247 10.906047,19.463263c26.010719,20.766503 54.503597,40.090472 85.47318,57.970761c30.969592,17.880279 64.415707,34.316768 100.33636,49.306427c19.92919,8.339031 46.811049,8.338306 66.677781,0.017515c71.502235,-30.015688 133.015956,-65.763569 184.601145,-107.27839c7.08986,-5.718727 10.643277,-12.428922 10.662362,-19.145221z"/>
  </g>
  <g stroke="null" transform="rotate(-92.44664764404297 235.41455078125006,130.43400573730472) " id="svg_96">
   <path stroke="null" id="svg_67" fill="#F7F0E6" d="m259.727505,-19.109848c-2.356753,-2.265774 -5.523691,-0.972248 -6.748181,2.737687c-3.476355,10.534948 -6.245313,25.882746 -4.601756,46.621367c3.058344,38.661176 -10.974095,45.445439 -30.391058,54.840576c-12.505376,6.045663 -26.67382,12.896793 -35.471436,30.908499c-10.969351,22.451791 -6.71181,50.710214 -2.199145,80.628008c3.395179,22.538646 6.900518,45.78208 4.842648,69.375221c-0.314697,3.606953 1.241885,6.986404 3.690883,7.671977l0.066944,0.018441c2.560746,0.716325 5.100935,-1.784645 5.436708,-5.555301c2.327234,-26.160196 -1.522319,-51.687853 -4.949117,-74.425561c-4.230131,-28.060135 -7.884125,-52.293501 0.691049,-69.841744c7.034405,-14.397833 19.126522,-20.244433 30.818031,-25.903499c19.049036,-9.209133 40.638261,-19.651853 36.707532,-69.275298c-1.381579,-17.442948 0.692639,-30.161431 3.683512,-39.145375c1.026295,-3.085856 0.38743,-6.766588 -1.576612,-8.654998z"/>
   <g stroke="null" transform="matrix(0.5271192752908705,0,0,0.7685812199986343,-865.9409911116762,-1321.9534384429082) " id="svg_71">
    <path stroke="null" id="svg_68" fill="#FFFFFF" d="m2158.848009,1759.804049c-0.07,0 -0.147,0 -0.224,0.004c-4.871,0.12 -8.724,4.172 -8.604,9.047c1.707,67.392 -49.017,84.22 -82.586,95.358c-22.259,7.38 -37.974,14.646 -47.509,28.034c-11.009,15.448 -8.388,40.53 -0.586,75.996c6.753,30.716 14.952,68.006 9.09,106.694c-0.704,4.644 2.12,9.082 6.697,10.142l0,0c4.925,1.14 9.933,-2.058 10.707,-7.052c6.498,-41.937 -2.141,-81.221 -9.252,-113.576c-5.681,-25.858 -9.897,-51.263 -2.276,-61.961c6.75,-9.474 19.81,-15.258 38.69,-21.522c33.802,-11.211 96.715,-32.082 94.681,-112.561c-0.122,-4.797 -4.052,-8.603 -8.828,-8.603z"/>
    <path stroke="null" id="svg_69" fill="#FFFFFF" d="m2157.598009,1744.304049c-0.31,0 -0.629,-0.018 -0.948,-0.052c-4.845,-0.518 -8.353,-4.866 -7.837,-9.711c0.577,-5.418 1.707,-10.517 3.353,-15.155c1.63,-4.595 6.698,-6.987 11.276,-5.362c4.595,1.633 6.991,6.681 5.362,11.276c-1.19,3.336 -2.008,7.073 -2.44,11.112c-0.481,4.53 -4.309,7.892 -8.766,7.892z"/>
    <path stroke="null" id="svg_70" fill="#FFFFFF" d="m2099.822009,1686.309049c-4.439,-1.956 -9.664,0.061 -11.638,4.518c-9.284,21.06 -12.405,45.474 -9.284,72.565c2.457,21.375 2.508,21.784 -33.698,33.793c-27.423,9.095 -61.551,20.414 -84.94,53.246c-27.885,39.157 -20.509,83.855 -11.785,124.332c1.031,4.779 5.768,7.794 10.54,6.734l0,0c4.748,-1.054 7.738,-5.75 6.71,-10.505c-8.575,-39.665 -14.73,-77.119 8.914,-110.319c20.043,-28.129 51.138,-38.444 76.113,-46.729c38.681,-12.832 49.664,-18.065 45.681,-52.569c-2.759,-23.935 -0.095,-45.276 7.905,-63.426c1.965,-4.464 -0.053,-9.675 -4.518,-11.64z"/>
   </g>
   <g stroke="null" transform="matrix(0.5271192752908705,0,0,0.7685812199986343,-865.9409911116762,-1321.9534384429082) " id="svg_75">
    <path stroke="null" id="svg_72" fill="#F7F0E6" d="m2073.693009,2076.882049c-0.258,0 -0.518,-0.013 -0.785,-0.034c-4.853,-0.427 -8.448,-4.712 -8.018,-9.569c0.466,-5.271 0.733,-10.487 0.828,-15.634c0.095,-4.814 4.025,-8.655 8.828,-8.655c0.052,0 0.113,0 0.172,0c4.871,0.095 8.75,4.125 8.655,9c-0.113,5.543 -0.396,11.164 -0.897,16.841c-0.404,4.59 -4.258,8.051 -8.783,8.051z"/>
    <path stroke="null" id="svg_73" fill="#F7F0E6" d="m2191.182009,1720.047049l0,0c-5.224,-1.419 -10.423,2.13 -11.104,7.5c-0.775,6.108 -0.958,13.151 -0.078,21.085c11.966,107.526 -67.423,133.854 -105.569,146.508l-12.586,4.172c-12.552,4.168 -20.129,16.604 -18.026,29.574c1.543,9.479 3.957,20.409 5.922,29.362c3.715,16.927 7.932,36.116 10.216,57.043c0.491,4.522 4.319,7.871 8.767,7.871c0.319,0 0.638,-0.018 0.966,-0.052c4.845,-0.53 8.345,-4.888 7.819,-9.732c-2.388,-21.875 -6.707,-41.551 -10.56,-59.1c-1.885,-8.553 -4.224,-19.191 -5.689,-28.171c-0.718,-4.404 1.912,-8.631 6.146,-10.036l12.577,-4.172c35.862,-11.892 131.112,-43.487 117.569,-165.216c-0.728,-6.568 -0.566,-12.305 0.076,-17.203c0.564,-4.297 -2.264,-8.297 -6.446,-9.433z"/>
    <path stroke="null" id="svg_74" fill="#F7F0E6" d="m1920.451009,1979.024049c-4.113,0 -7.801,-2.892 -8.647,-7.082c-8.888,-44.056 -13.5,-95.38 19.699,-142.001c30.078,-42.22 73.689,-56.69 102.552,-66.268c2.225,-0.737 5.603,-1.854 9.086,-3.064c-1.655,-19.69 -0.534,-38.397 3.353,-55.699c1.069,-4.755 5.818,-7.758 10.543,-6.677c4.759,1.069 7.75,5.789 6.681,10.548c-3.896,17.354 -4.69,36.409 -2.362,56.633c0,0.004 0,0.004 0,0.004c0.052,0.384 0.077,0.785 0.077,1.151c0,3.668 -2.268,6.953 -5.698,8.254c-5.449,2.065 -12.353,4.362 -16.095,5.599c-26.707,8.862 -67.026,22.237 -93.759,59.758c-29.206,41.019 -25.317,85.889 -16.765,128.268c0.966,4.78 -2.13,9.436 -6.905,10.401c-0.595,0.119 -1.183,0.175 -1.76,0.175z"/>
   </g>
   <g stroke="null" transform="matrix(0.5271192752908705,0,0,0.7685812199986343,-865.9409911116762,-1321.9534384429082) " id="svg_78">
    <path stroke="null" id="svg_76" fill="#FFFFFF" d="m2018.960009,1705.442049c-4.879,-0.642 -9.276,2.75 -9.913,7.586c-0.328,2.47 -0.604,5.017 -0.819,7.629c-0.224,2.698 -0.206,12.76 -0.185,21.914c0.012,5.557 5.496,9.408 10.752,7.604c0.055,-0.019 0.11,-0.038 0.164,-0.056c3.496,-1.197 5.746,-4.482 5.769,-8.177c0.041,-6.67 0.559,-13.451 1.087,-19.811c0.199,-2.319 0.439,-4.582 0.733,-6.776c0.644,-4.831 -2.752,-9.271 -7.588,-9.913z"/>
    <path stroke="null" id="svg_77" fill="#FFFFFF" d="m2108.563009,1943.429049c52.767,-18.948 138.415,-67.789 129.729,-183.661c-0.37,-4.932 -4.889,-8.531 -9.804,-7.972c-4.768,0.542 -8.124,4.801 -7.772,9.587c7.253,98.609 -59.468,144.298 -117.821,165.327c-10.731,3.868 -17.11,14.878 -14.665,26.018l0.626,2.851c5.914,26.75 16.649,75.364 11.3,128.427c-0.482,4.783 2.806,9.117 7.571,9.752l0,0c4.899,0.654 9.473,-2.846 9.974,-7.763c5.689,-55.939 -5.464,-106.444 -11.604,-134.228l-0.595,-2.686c-0.533,-2.446 0.751,-4.82 3.061,-5.652z"/>
   </g>
   <path stroke="null" id="svg_79" fill="#F7F0E6" d="m266.0951,188.717594c29.521844,-20.132217 50.036798,-51.000749 59.847013,-89.806414c0.916136,-3.624628 -0.550309,-7.628932 -3.090498,-8.723395l0,0c-2.383108,-1.026822 -4.836842,0.898469 -5.693941,4.298673c-8.9721,35.612984 -27.439719,63.139719 -55.002265,81.937678c-4.566958,3.110443 -7.107147,10.232885 -6.175198,17.329966c3.490052,26.403843 4.912219,50.262905 4.352949,72.936051c-0.095408,3.746834 1.912912,6.891106 4.480511,7.026371c0.059564,0.003078 0.11333,0.003078 0.172894,0.003078c2.490113,0 4.553262,-2.879107 4.643926,-6.53986c0.586153,-23.713035 -0.890307,-48.569724 -4.507921,-75.987321c-0.132315,-0.993001 0.258814,-1.98755 0.972529,-2.474826z"/>
   <path stroke="null" id="svg_80" fill="#FFFFFF" d="m330.298234,132.322945c-2.163301,-2.027518 -5.044007,-1.122893 -6.434547,2.02444c-11.10851,25.119542 -26.442416,45.507699 -45.566302,60.60186c-1.756886,1.386528 -2.728896,4.211827 -2.412627,7.08863c1.436408,13.056654 2.395759,25.848926 2.860684,38.121631c0.140213,3.698407 2.24236,6.545233 4.780967,6.420723l0,0c2.595536,-0.127588 4.654468,-3.305663 4.513192,-7.086318c-0.42222,-11.294301 -1.249265,-22.993649 -2.46902,-34.917412c18.976294,-15.79588 34.87157,-37.455271 46.118193,-62.874555c1.391068,-3.150419 0.768008,-7.34764 -1.39054,-9.379z"/>
   <g stroke="null" transform="matrix(0.5271192752908705,0,0,0.7685812199986343,-865.9409911116762,-1321.9534384429082) " id="svg_81"/>
   <g stroke="null" transform="matrix(0.5271192752908705,0,0,0.7685812199986343,-865.9409911116762,-1321.9534384429082) " id="svg_82"/>
   <g stroke="null" transform="matrix(0.5271192752908705,0,0,0.7685812199986343,-865.9409911116762,-1321.9534384429082) " id="svg_83"/>
   <g stroke="null" transform="matrix(0.5271192752908705,0,0,0.7685812199986343,-865.9409911116762,-1321.9534384429082) " id="svg_84"/>
   <g stroke="null" transform="matrix(0.5271192752908705,0,0,0.7685812199986343,-865.9409911116762,-1321.9534384429082) " id="svg_85"/>
   <g stroke="null" transform="matrix(0.5271192752908705,0,0,0.7685812199986343,-865.9409911116762,-1321.9534384429082) " id="svg_86"/>
   <g stroke="null" transform="matrix(0.5271192752908705,0,0,0.7685812199986343,-865.9409911116762,-1321.9534384429082) " id="svg_87"/>
   <g stroke="null" transform="matrix(0.5271192752908705,0,0,0.7685812199986343,-865.9409911116762,-1321.9534384429082) " id="svg_88"/>
   <g stroke="null" transform="matrix(0.5271192752908705,0,0,0.7685812199986343,-865.9409911116762,-1321.9534384429082) " id="svg_89"/>
   <g stroke="null" transform="matrix(0.5271192752908705,0,0,0.7685812199986343,-865.9409911116762,-1321.9534384429082) " id="svg_90"/>
   <g stroke="null" transform="matrix(0.5271192752908705,0,0,0.7685812199986343,-865.9409911116762,-1321.9534384429082) " id="svg_91"/>
   <g stroke="null" transform="matrix(0.5271192752908705,0,0,0.7685812199986343,-865.9409911116762,-1321.9534384429082) " id="svg_92"/>
   <g stroke="null" transform="matrix(0.5271192752908705,0,0,0.7685812199986343,-865.9409911116762,-1321.9534384429082) " id="svg_93"/>
   <g stroke="null" transform="matrix(0.5271192752908705,0,0,0.7685812199986343,-865.9409911116762,-1321.9534384429082) " id="svg_94"/>
   <g stroke="null" transform="matrix(0.5271192752908705,0,0,0.7685812199986343,-865.9409911116762,-1321.9534384429082) " id="svg_95"/>
  </g>
  <g stroke="null" id="svg_19">
   <path stroke="null" id="svg_4" fill="#eab683" d="m403.454471,206.118734c33.736852,19.477967 64.765423,40.524799 93.083671,63.137203c15.753652,12.545513 15.849793,29.506758 0.270328,42.073263c-56.194549,45.224348 -123.204787,84.166464 -201.09606,116.864185c-21.641908,9.064282 -50.925783,9.065072 -72.635734,-0.019018c-39.130319,-16.329119 -75.56499,-34.234275 -109.301843,-53.712242c-33.736852,-19.477967 -64.775689,-40.528615 -93.110586,-63.150693c-15.753849,-12.545645 -15.847951,-29.50781 -0.236702,-42.05385c56.160922,-45.243761 123.171161,-84.185811 201.095994,-116.864185c21.61019,-9.084748 50.891959,-9.08455 72.602174,-0.000395c39.146968,16.338727 75.591905,34.247699 109.328757,53.725732z"/>
   <g stroke="null" transform="matrix(6.5805277959572495,0,0,6.5805277959572495,-32.57985203992972,-43.67449259090961) " id="svg_8"/>
   <path stroke="null" id="svg_18" fill="#d69d68" d="m508.42356,290.47327l-0.20735,73.1244c-0.02073,7.31643 -3.89172,14.62621 -11.61503,20.85593c-56.19455,45.22442 -123.20478,84.16647 -201.09606,116.86425c-21.64197,9.06422 -50.92578,9.06501 -72.63573,-0.01908c-39.13032,-16.32905 -75.56499,-34.23427 -109.30184,-53.71217c-33.73686,-19.47804 -64.77569,-40.52869 -93.11059,-63.1507c-7.93947,-6.3227 -11.90161,-13.76705 -11.88055,-21.20252l0.20729,-73.12434c-0.02106,7.4354 3.94108,14.87976 11.88055,21.20239c28.33489,22.62208 59.37373,43.67273 93.11058,63.1507c33.73686,19.47796 70.17153,37.38312 109.30185,53.71217c21.70995,9.08416 50.99382,9.08337 72.63573,0.01908c77.89127,-32.69772 144.90151,-71.63983 201.09606,-116.86418c7.72337,-6.22972 11.5943,-13.5395 11.61509,-20.85593z"/>
  </g>
  <g stroke="null" transform="rotate(-92.44664764404297 261.6675109863282,289.6065979003907) " id="svg_66">
   <path stroke="null" id="svg_31" fill="#F7F0E6" d="m288.41058,125.11659c-2.592294,-2.492229 -6.075743,-1.069427 -7.422622,3.011302c-3.823793,11.587849 -6.869492,28.469571 -5.06167,51.280903c3.36401,42.525132 -12.070893,49.987447 -33.428472,60.321573c-13.755218,6.649888 -29.33971,14.185752 -39.016602,33.997618c-12.065675,24.695721 -7.382616,55.778413 -2.418933,88.686315c3.734503,24.791251 7.590185,50.35773 5.326639,76.308865c-0.346142,3.967446 1.366013,7.684654 4.059772,8.438747l0.073635,0.02029c2.816677,0.787909 5.610742,-1.963011 5.980076,-6.110526c2.559825,-28.774759 -1.674468,-56.853757 -5.443759,-81.863965c-4.652909,-30.864579 -8.672095,-57.519929 0.76012,-76.822021c7.737455,-15.836812 21.038108,-22.267743 33.898112,-28.492397c20.952877,-10.12954 44.699819,-21.615942 40.376237,-76.198964c-1.51966,-19.186272 0.76186,-33.175893 4.051655,-43.057732c1.128874,-3.394267 0.426154,-7.44287 -1.734187,-9.520009z"/>
   <g stroke="null" transform="matrix(0.5798017878897236,0,0,0.8453964527246175,-964.6128458197768,-1475.8009920689794) " id="svg_32">
    <path stroke="null" id="svg_33" fill="#FFFFFF" d="m2184.461756,1958.364539c-0.07,0 -0.147,0 -0.224,0.004c-4.871,0.12 -8.724,4.172 -8.604,9.047c1.707,67.392 -49.017,84.22 -82.586,95.358c-22.259,7.38 -37.974,14.646 -47.509,28.034c-11.009,15.448 -8.388,40.53 -0.586,75.996c6.753,30.716 14.952,68.006 9.09,106.694c-0.704,4.644 2.12,9.082 6.697,10.142l0,0c4.925,1.14 9.933,-2.058 10.707,-7.052c6.498,-41.937 -2.141,-81.221 -9.252,-113.576c-5.681,-25.858 -9.897,-51.263 -2.276,-61.961c6.75,-9.474 19.81,-15.258 38.69,-21.522c33.802,-11.211 96.715,-32.082 94.681,-112.561c-0.122,-4.797 -4.052,-8.603 -8.828,-8.603z"/>
    <path stroke="null" id="svg_34" fill="#FFFFFF" d="m2183.211756,1942.864539c-0.31,0 -0.629,-0.018 -0.948,-0.052c-4.845,-0.518 -8.353,-4.866 -7.837,-9.711c0.577,-5.418 1.707,-10.517 3.353,-15.155c1.63,-4.595 6.698,-6.987 11.276,-5.362c4.595,1.633 6.991,6.681 5.362,11.276c-1.19,3.336 -2.008,7.073 -2.44,11.112c-0.481,4.53 -4.309,7.892 -8.766,7.892z"/>
    <path stroke="null" id="svg_35" fill="#FFFFFF" d="m2125.435756,1884.869539c-4.439,-1.956 -9.664,0.061 -11.638,4.518c-9.284,21.06 -12.405,45.474 -9.284,72.565c2.457,21.375 2.508,21.784 -33.698,33.793c-27.423,9.095 -61.551,20.414 -84.94,53.246c-27.885,39.157 -20.509,83.855 -11.785,124.332c1.031,4.779 5.768,7.794 10.54,6.734l0,0c4.748,-1.054 7.738,-5.75 6.71,-10.505c-8.575,-39.665 -14.73,-77.119 8.914,-110.319c20.043,-28.129 51.138,-38.444 76.113,-46.729c38.681,-12.832 49.664,-18.065 45.681,-52.569c-2.759,-23.935 -0.095,-45.276 7.905,-63.426c1.965,-4.464 -0.053,-9.675 -4.518,-11.64z"/>
   </g>
   <g stroke="null" transform="matrix(0.5798017878897236,0,0,0.8453964527246175,-964.6128458197768,-1475.8009920689794) " id="svg_36">
    <path stroke="null" id="svg_37" fill="#F7F0E6" d="m2099.306756,2275.442539c-0.258,0 -0.518,-0.013 -0.785,-0.034c-4.853,-0.427 -8.448,-4.712 -8.018,-9.569c0.466,-5.271 0.733,-10.487 0.828,-15.634c0.095,-4.814 4.025,-8.655 8.828,-8.655c0.052,0 0.113,0 0.172,0c4.871,0.095 8.75,4.125 8.655,9c-0.113,5.543 -0.396,11.164 -0.897,16.841c-0.404,4.59 -4.258,8.051 -8.783,8.051z"/>
    <path stroke="null" id="svg_38" fill="#F7F0E6" d="m2216.795756,1918.607539l0,0c-5.224,-1.419 -10.423,2.13 -11.104,7.5c-0.775,6.108 -0.958,13.151 -0.078,21.085c11.966,107.526 -67.423,133.854 -105.569,146.508l-12.586,4.172c-12.552,4.168 -20.129,16.604 -18.026,29.574c1.543,9.479 3.957,20.409 5.922,29.362c3.715,16.927 7.932,36.116 10.216,57.043c0.491,4.522 4.319,7.871 8.767,7.871c0.319,0 0.638,-0.018 0.966,-0.052c4.845,-0.53 8.345,-4.888 7.819,-9.732c-2.388,-21.875 -6.707,-41.551 -10.56,-59.1c-1.885,-8.553 -4.224,-19.191 -5.689,-28.171c-0.718,-4.404 1.912,-8.631 6.146,-10.036l12.577,-4.172c35.862,-11.892 131.112,-43.487 117.569,-165.216c-0.728,-6.568 -0.566,-12.305 0.076,-17.203c0.564,-4.297 -2.264,-8.297 -6.446,-9.433z"/>
    <path stroke="null" id="svg_39" fill="#F7F0E6" d="m1946.064756,2177.584539c-4.113,0 -7.801,-2.892 -8.647,-7.082c-8.888,-44.056 -13.5,-95.38 19.699,-142.001c30.078,-42.22 73.689,-56.69 102.552,-66.268c2.225,-0.737 5.603,-1.854 9.086,-3.064c-1.655,-19.69 -0.534,-38.397 3.353,-55.699c1.069,-4.755 5.818,-7.758 10.543,-6.677c4.759,1.069 7.75,5.789 6.681,10.548c-3.896,17.354 -4.69,36.409 -2.362,56.633c0,0.004 0,0.004 0,0.004c0.052,0.384 0.077,0.785 0.077,1.151c0,3.668 -2.268,6.953 -5.698,8.254c-5.449,2.065 -12.353,4.362 -16.095,5.599c-26.707,8.862 -67.026,22.237 -93.759,59.758c-29.206,41.019 -25.317,85.889 -16.765,128.268c0.966,4.78 -2.13,9.436 -6.905,10.401c-0.595,0.119 -1.183,0.175 -1.76,0.175z"/>
   </g>
   <g stroke="null" transform="matrix(0.5798017878897236,0,0,0.8453964527246175,-964.6128458197768,-1475.8009920689794) " id="svg_40">
    <path stroke="null" id="svg_41" fill="#FFFFFF" d="m2044.573756,1904.002539c-4.879,-0.642 -9.276,2.75 -9.913,7.586c-0.328,2.47 -0.604,5.017 -0.819,7.629c-0.224,2.698 -0.206,12.76 -0.185,21.914c0.012,5.557 5.496,9.408 10.752,7.604c0.055,-0.019 0.11,-0.038 0.164,-0.056c3.496,-1.197 5.746,-4.482 5.769,-8.177c0.041,-6.67 0.559,-13.451 1.087,-19.811c0.199,-2.319 0.439,-4.582 0.733,-6.776c0.644,-4.831 -2.752,-9.271 -7.588,-9.913z"/>
    <path stroke="null" id="svg_42" fill="#FFFFFF" d="m2134.176756,2141.989539c52.767,-18.948 138.415,-67.789 129.729,-183.661c-0.37,-4.932 -4.889,-8.531 -9.804,-7.972c-4.768,0.542 -8.124,4.801 -7.772,9.587c7.253,98.609 -59.468,144.298 -117.821,165.327c-10.731,3.868 -17.11,14.878 -14.665,26.018l0.626,2.851c5.914,26.75 16.649,75.364 11.3,128.427c-0.482,4.783 2.806,9.117 7.571,9.752l0,0c4.899,0.654 9.473,-2.846 9.974,-7.763c5.689,-55.939 -5.464,-106.444 -11.604,-134.228l-0.595,-2.686c-0.533,-2.446 0.751,-4.82 3.061,-5.652z"/>
   </g>
   <path stroke="null" id="svg_43" fill="#F7F0E6" d="m295.414585,353.715172c32.472379,-22.144315 55.037685,-56.097972 65.828376,-98.782039c1.007696,-3.98689 -0.605313,-8.391405 -3.399378,-9.59525l0,0c-2.621284,-1.12945 -5.320261,0.988268 -6.263019,4.728302c-9.868806,39.17229 -30.182162,69.450164 -60.499418,90.12687c-5.023403,3.421319 -7.817468,11.255608 -6.792378,19.061999c3.838868,29.04275 5.403173,55.286392 4.788003,80.225587c-0.104944,4.121308 2.104101,7.579825 4.928315,7.728614c0.065518,0.003382 0.124657,0.003382 0.190175,0.003382c2.738984,0 5.008328,-3.166855 5.108054,-7.193478c0.64474,-26.083017 -0.979285,-53.423983 -4.958465,-83.581811c-0.14553,-1.092252 0.284683,-2.186195 1.069734,-2.722177z"/>
   <path stroke="null" id="svg_44" fill="#FFFFFF" d="m366.034443,291.684208c-2.379507,-2.230156 -5.548123,-1.235124 -7.07764,2.226774c-12.218743,27.630092 -29.085177,50.055924 -50.120386,66.658665c-1.932479,1.525095 -3.001634,4.632773 -2.653753,7.797091c1.57996,14.361595 2.635199,28.432373 3.146584,41.931664c0.154227,4.068048 2.466477,7.199396 5.258802,7.062442l0,0c2.854944,-0.140336 5.11965,-3.63605 4.964263,-7.794555c-0.464421,-12.423101 -1.37413,-25.291726 -2.715792,-38.407206c20.872864,-17.374588 38.356787,-41.198705 50.727438,-69.158502c1.530097,-3.46528 0.844771,-8.08199 -1.529517,-10.316373z"/>
   <g stroke="null" transform="matrix(0.5798017878897236,0,0,0.8453964527246175,-964.6128458197768,-1475.8009920689794) " id="svg_51"/>
   <g stroke="null" transform="matrix(0.5798017878897236,0,0,0.8453964527246175,-964.6128458197768,-1475.8009920689794) " id="svg_52"/>
   <g stroke="null" transform="matrix(0.5798017878897236,0,0,0.8453964527246175,-964.6128458197768,-1475.8009920689794) " id="svg_53"/>
   <g stroke="null" transform="matrix(0.5798017878897236,0,0,0.8453964527246175,-964.6128458197768,-1475.8009920689794) " id="svg_54"/>
   <g stroke="null" transform="matrix(0.5798017878897236,0,0,0.8453964527246175,-964.6128458197768,-1475.8009920689794) " id="svg_55"/>
   <g stroke="null" transform="matrix(0.5798017878897236,0,0,0.8453964527246175,-964.6128458197768,-1475.8009920689794) " id="svg_56"/>
   <g stroke="null" transform="matrix(0.5798017878897236,0,0,0.8453964527246175,-964.6128458197768,-1475.8009920689794) " id="svg_57"/>
   <g stroke="null" transform="matrix(0.5798017878897236,0,0,0.8453964527246175,-964.6128458197768,-1475.8009920689794) " id="svg_58"/>
   <g stroke="null" transform="matrix(0.5798017878897236,0,0,0.8453964527246175,-964.6128458197768,-1475.8009920689794) " id="svg_59"/>
   <g stroke="null" transform="matrix(0.5798017878897236,0,0,0.8453964527246175,-964.6128458197768,-1475.8009920689794) " id="svg_60"/>
   <g stroke="null" transform="matrix(0.5798017878897236,0,0,0.8453964527246175,-964.6128458197768,-1475.8009920689794) " id="svg_61"/>
   <g stroke="null" transform="matrix(0.5798017878897236,0,0,0.8453964527246175,-964.6128458197768,-1475.8009920689794) " id="svg_62"/>
   <g stroke="null" transform="matrix(0.5798017878897236,0,0,0.8453964527246175,-964.6128458197768,-1475.8009920689794) " id="svg_63"/>
   <g stroke="null" transform="matrix(0.5798017878897236,0,0,0.8453964527246175,-964.6128458197768,-1475.8009920689794) " id="svg_64"/>
   <g stroke="null" transform="matrix(0.5798017878897236,0,0,0.8453964527246175,-964.6128458197768,-1475.8009920689794) " id="svg_65"/>
  </g>
 </g>
</svg>