<svg width="512" height="512" version="1.1" xmlns="http://www.w3.org/2000/svg"><g id="canvasGrid" x="0" y="0" width="100%" height="100%" display="none" overflow="visible"><rect width="100%" height="100%" fill="url(#gridpattern)" stroke-width="0"/></g><g stroke="null"><path d="m365 60.2c31 17.9 59.5 37.2 85.4 58 14.5 11.5 14.5 27.1 0.248 38.6-51.6 41.5-113 77.3-185 107-19.9 8.32-46.7 8.32-66.7-0.0175-35.9-15-69.4-31.4-100-49.3-31-17.9-59.5-37.2-85.5-58-14.5-11.5-14.5-27.1-0.217-38.6 51.6-41.5 113-77.3 185-107 19.8-8.34 46.7-8.34 66.6-3.67e-4 35.9 15 69.4 31.4 100 49.3z" fill="#d59247"/><path d="m461 138-0.19 67.1c-0.019 6.72-3.57 13.4-10.7 19.1-51.6 41.5-113 77.3-185 107-19.9 8.32-46.7 8.32-66.7-0.0175-35.9-15-69.4-31.4-100-49.3-31-17.9-59.5-37.2-85.5-58-7.29-5.8-10.9-12.6-10.9-19.5l0.19-67.1c-0.0193 6.83 3.62 13.7 10.9 19.5 26 20.8 54.5 40.1 85.5 58s64.4 34.3 100 49.3c19.9 8.34 46.8 8.34 66.7 0.0175 71.5-30 133-65.8 185-107 7.09-5.72 10.6-12.4 10.7-19.1z" fill="#d69d68"/><g transform="rotate(268 235 130)"><path d="m260-19.1c-2.36-2.27-5.52-0.972-6.75 2.74-3.48 10.5-6.25 25.9-4.6 46.6 3.06 38.7-11 45.4-30.4 54.8-12.5 6.05-26.7 12.9-35.5 30.9-11 22.5-6.71 50.7-2.2 80.6 3.4 22.5 6.9 45.8 4.84 69.4-0.315 3.61 1.24 6.99 3.69 7.67l0.0669 0.0184c2.56 0.716 5.1-1.78 5.44-5.56 2.33-26.2-1.52-51.7-4.95-74.4-4.23-28.1-7.88-52.3 0.691-69.8 7.03-14.4 19.1-20.2 30.8-25.9 19-9.21 40.6-19.7 36.7-69.3-1.38-17.4 0.693-30.2 3.68-39.1 1.03-3.09 0.387-6.77-1.58-8.65z" fill="#F7F0E6"/><g transform="matrix(.527 0 0 .769 -866 -1322)" fill="#fff"><path d="m2159 1760c-0.07 0-0.147 0-0.224 4e-3 -4.87 0.12-8.72 4.17-8.6 9.05 1.71 67.4-49 84.2-82.6 95.4-22.3 7.38-38 14.6-47.5 28-11 15.4-8.39 40.5-0.586 76 6.75 30.7 15 68 9.09 107-0.704 4.64 2.12 9.08 6.7 10.1 4.92 1.14 9.93-2.06 10.7-7.05 6.5-41.9-2.14-81.2-9.25-114-5.68-25.9-9.9-51.3-2.28-62 6.75-9.47 19.8-15.3 38.7-21.5 33.8-11.2 96.7-32.1 94.7-113-0.122-4.8-4.05-8.6-8.83-8.6z"/><path d="m2158 1744c-0.31 0-0.629-0.018-0.948-0.052-4.84-0.518-8.35-4.87-7.84-9.71 0.577-5.42 1.71-10.5 3.35-15.2 1.63-4.6 6.7-6.99 11.3-5.36s6.99 6.68 5.36 11.3c-1.19 3.34-2.01 7.07-2.44 11.1-0.481 4.53-4.31 7.89-8.77 7.89z"/><path d="m2100 1686c-4.44-1.96-9.66 0.061-11.6 4.52-9.28 21.1-12.4 45.5-9.28 72.6 2.46 21.4 2.51 21.8-33.7 33.8-27.4 9.1-61.6 20.4-84.9 53.2-27.9 39.2-20.5 83.9-11.8 124 1.03 4.78 5.77 7.79 10.5 6.73 4.75-1.05 7.74-5.75 6.71-10.5-8.58-39.7-14.7-77.1 8.91-110 20-28.1 51.1-38.4 76.1-46.7 38.7-12.8 49.7-18.1 45.7-52.6-2.76-23.9-0.095-45.3 7.9-63.4 1.96-4.46-0.053-9.68-4.52-11.6z"/></g><g transform="matrix(.527 0 0 .769 -866 -1322)" fill="#F7F0E6"><path d="m2074 2077c-0.258 0-0.518-0.013-0.785-0.034-4.85-0.427-8.45-4.71-8.02-9.57 0.466-5.27 0.733-10.5 0.828-15.6 0.095-4.81 4.02-8.66 8.83-8.66h0.172c4.87 0.095 8.75 4.12 8.66 9-0.113 5.54-0.396 11.2-0.897 16.8-0.404 4.59-4.26 8.05-8.78 8.05z"/><path d="m2191 1720c-5.22-1.42-10.4 2.13-11.1 7.5-0.775 6.11-0.958 13.2-0.078 21.1 12 108-67.4 134-106 147l-12.6 4.17c-12.6 4.17-20.1 16.6-18 29.6 1.54 9.48 3.96 20.4 5.92 29.4 3.72 16.9 7.93 36.1 10.2 57 0.491 4.52 4.32 7.87 8.77 7.87 0.319 0 0.638-0.018 0.966-0.052 4.84-0.53 8.34-4.89 7.82-9.73-2.39-21.9-6.71-41.6-10.6-59.1-1.88-8.55-4.22-19.2-5.69-28.2-0.718-4.4 1.91-8.63 6.15-10l12.6-4.17c35.9-11.9 131-43.5 118-165-0.728-6.57-0.566-12.3 0.076-17.2 0.564-4.3-2.26-8.3-6.45-9.43z"/><path d="m1920 1979c-4.11 0-7.8-2.89-8.65-7.08-8.89-44.1-13.5-95.4 19.7-142 30.1-42.2 73.7-56.7 103-66.3 2.22-0.737 5.6-1.85 9.09-3.06-1.66-19.7-0.534-38.4 3.35-55.7 1.07-4.76 5.82-7.76 10.5-6.68 4.76 1.07 7.75 5.79 6.68 10.5-3.9 17.4-4.69 36.4-2.36 56.6v4e-3c0.052 0.384 0.077 0.785 0.077 1.15 0 3.67-2.27 6.95-5.7 8.25-5.45 2.06-12.4 4.36-16.1 5.6-26.7 8.86-67 22.2-93.8 59.8-29.2 41-25.3 85.9-16.8 128 0.966 4.78-2.13 9.44-6.9 10.4-0.595 0.119-1.18 0.175-1.76 0.175z"/></g><g transform="matrix(.527 0 0 .769 -866 -1322)" fill="#fff"><path d="m2019 1705c-4.88-0.642-9.28 2.75-9.91 7.59-0.328 2.47-0.604 5.02-0.819 7.63-0.224 2.7-0.206 12.8-0.185 21.9 0.012 5.56 5.5 9.41 10.8 7.6 0.055-0.019 0.11-0.038 0.164-0.056 3.5-1.2 5.75-4.48 5.77-8.18 0.041-6.67 0.559-13.5 1.09-19.8 0.199-2.32 0.439-4.58 0.733-6.78 0.644-4.83-2.75-9.27-7.59-9.91z"/><path d="m2109 1943c52.8-18.9 138-67.8 130-184-0.37-4.93-4.89-8.53-9.8-7.97-4.77 0.542-8.12 4.8-7.77 9.59 7.25 98.6-59.5 144-118 165-10.7 3.87-17.1 14.9-14.7 26l0.626 2.85c5.91 26.8 16.6 75.4 11.3 128-0.482 4.78 2.81 9.12 7.57 9.75 4.9 0.654 9.47-2.85 9.97-7.76 5.69-55.9-5.46-106-11.6-134l-0.595-2.69c-0.533-2.45 0.751-4.82 3.06-5.65z"/></g><path d="m266 189c29.5-20.1 50-51 59.8-89.8 0.916-3.62-0.55-7.63-3.09-8.72-2.38-1.03-4.84 0.898-5.69 4.3-8.97 35.6-27.4 63.1-55 81.9-4.57 3.11-7.11 10.2-6.18 17.3 3.49 26.4 4.91 50.3 4.35 72.9-0.0954 3.75 1.91 6.89 4.48 7.03 0.0596 0.00308 0.113 0.00308 0.173 0.00308 2.49 0 4.55-2.88 4.64-6.54 0.586-23.7-0.89-48.6-4.51-76-0.132-0.993 0.259-1.99 0.973-2.47z" fill="#F7F0E6"/><path d="m330 132c-2.16-2.03-5.04-1.12-6.43 2.02-11.1 25.1-26.4 45.5-45.6 60.6-1.76 1.39-2.73 4.21-2.41 7.09 1.44 13.1 2.4 25.8 2.86 38.1 0.14 3.7 2.24 6.55 4.78 6.42 2.6-0.128 4.65-3.31 4.51-7.09-0.422-11.3-1.25-23-2.47-34.9 19-15.8 34.9-37.5 46.1-62.9 1.39-3.15 0.768-7.35-1.39-9.38z" fill="#fff"/></g><path d="m403 206c33.7 19.5 64.8 40.5 93.1 63.1 15.8 12.5 15.8 29.5 0.27 42.1-56.2 45.2-123 84.2-201 117-21.6 9.06-50.9 9.07-72.6-0.019-39.1-16.3-75.6-34.2-109-53.7-33.7-19.5-64.8-40.5-93.1-63.2-15.8-12.5-15.8-29.5-0.237-42.1 56.2-45.2 123-84.2 201-117 21.6-9.08 50.9-9.08 72.6-3.95e-4 39.1 16.3 75.6 34.2 109 53.7z" fill="#eab683"/><path d="m508 290-0.207 73.1c-0.0207 7.32-3.89 14.6-11.6 20.9-56.2 45.2-123 84.2-201 117-21.6 9.06-50.9 9.07-72.6-0.0191-39.1-16.3-75.6-34.2-109-53.7-33.7-19.5-64.8-40.5-93.1-63.2-7.94-6.32-11.9-13.8-11.9-21.2l0.207-73.1c-0.0211 7.44 3.94 14.9 11.9 21.2 28.3 22.6 59.4 43.7 93.1 63.2s70.2 37.4 109 53.7c21.7 9.08 51 9.08 72.6 0.0191 77.9-32.7 145-71.6 201-117 7.72-6.23 11.6-13.5 11.6-20.9z" fill="#d69d68"/><g transform="rotate(268 262 290)"><path d="m288 125c-2.59-2.49-6.08-1.07-7.42 3.01-3.82 11.6-6.87 28.5-5.06 51.3 3.36 42.5-12.1 50-33.4 60.3-13.8 6.65-29.3 14.2-39 34-12.1 24.7-7.38 55.8-2.42 88.7 3.73 24.8 7.59 50.4 5.33 76.3-0.346 3.97 1.37 7.68 4.06 8.44l0.0736 0.0203c2.82 0.788 5.61-1.96 5.98-6.11 2.56-28.8-1.67-56.9-5.44-81.9-4.65-30.9-8.67-57.5 0.76-76.8 7.74-15.8 21-22.3 33.9-28.5 21-10.1 44.7-21.6 40.4-76.2-1.52-19.2 0.762-33.2 4.05-43.1 1.13-3.39 0.426-7.44-1.73-9.52z" fill="#F7F0E6"/><g transform="matrix(.58 0 0 .845 -965 -1476)" fill="#fff"><path d="m2184 1958c-0.07 0-0.147 0-0.224 4e-3 -4.87 0.12-8.72 4.17-8.6 9.05 1.71 67.4-49 84.2-82.6 95.4-22.3 7.38-38 14.6-47.5 28-11 15.4-8.39 40.5-0.586 76 6.75 30.7 15 68 9.09 107-0.704 4.64 2.12 9.08 6.7 10.1 4.92 1.14 9.93-2.06 10.7-7.05 6.5-41.9-2.14-81.2-9.25-114-5.68-25.9-9.9-51.3-2.28-62 6.75-9.47 19.8-15.3 38.7-21.5 33.8-11.2 96.7-32.1 94.7-113-0.122-4.8-4.05-8.6-8.83-8.6z"/><path d="m2183 1943c-0.31 0-0.629-0.018-0.948-0.052-4.84-0.518-8.35-4.87-7.84-9.71 0.577-5.42 1.71-10.5 3.35-15.2 1.63-4.6 6.7-6.99 11.3-5.36s6.99 6.68 5.36 11.3c-1.19 3.34-2.01 7.07-2.44 11.1-0.481 4.53-4.31 7.89-8.77 7.89z"/><path d="m2125 1885c-4.44-1.96-9.66 0.061-11.6 4.52-9.28 21.1-12.4 45.5-9.28 72.6 2.46 21.4 2.51 21.8-33.7 33.8-27.4 9.1-61.6 20.4-84.9 53.2-27.9 39.2-20.5 83.9-11.8 124 1.03 4.78 5.77 7.79 10.5 6.73 4.75-1.05 7.74-5.75 6.71-10.5-8.58-39.7-14.7-77.1 8.91-110 20-28.1 51.1-38.4 76.1-46.7 38.7-12.8 49.7-18.1 45.7-52.6-2.76-23.9-0.095-45.3 7.9-63.4 1.96-4.46-0.053-9.68-4.52-11.6z"/></g><g transform="matrix(.58 0 0 .845 -965 -1476)" fill="#F7F0E6"><path d="m2099 2275c-0.258 0-0.518-0.013-0.785-0.034-4.85-0.427-8.45-4.71-8.02-9.57 0.466-5.27 0.733-10.5 0.828-15.6 0.095-4.81 4.02-8.66 8.83-8.66h0.172c4.87 0.095 8.75 4.12 8.66 9-0.113 5.54-0.396 11.2-0.897 16.8-0.404 4.59-4.26 8.05-8.78 8.05z"/><path d="m2217 1919c-5.22-1.42-10.4 2.13-11.1 7.5-0.775 6.11-0.958 13.2-0.078 21.1 12 108-67.4 134-106 147l-12.6 4.17c-12.6 4.17-20.1 16.6-18 29.6 1.54 9.48 3.96 20.4 5.92 29.4 3.72 16.9 7.93 36.1 10.2 57 0.491 4.52 4.32 7.87 8.77 7.87 0.319 0 0.638-0.018 0.966-0.052 4.84-0.53 8.34-4.89 7.82-9.73-2.39-21.9-6.71-41.6-10.6-59.1-1.88-8.55-4.22-19.2-5.69-28.2-0.718-4.4 1.91-8.63 6.15-10l12.6-4.17c35.9-11.9 131-43.5 118-165-0.728-6.57-0.566-12.3 0.076-17.2 0.564-4.3-2.26-8.3-6.45-9.43z"/><path d="m1946 2178c-4.11 0-7.8-2.89-8.65-7.08-8.89-44.1-13.5-95.4 19.7-142 30.1-42.2 73.7-56.7 103-66.3 2.22-0.737 5.6-1.85 9.09-3.06-1.66-19.7-0.534-38.4 3.35-55.7 1.07-4.76 5.82-7.76 10.5-6.68 4.76 1.07 7.75 5.79 6.68 10.5-3.9 17.4-4.69 36.4-2.36 56.6v4e-3c0.052 0.384 0.077 0.785 0.077 1.15 0 3.67-2.27 6.95-5.7 8.25-5.45 2.06-12.4 4.36-16.1 5.6-26.7 8.86-67 22.2-93.8 59.8-29.2 41-25.3 85.9-16.8 128 0.966 4.78-2.13 9.44-6.9 10.4-0.595 0.119-1.18 0.175-1.76 0.175z"/></g><g transform="matrix(.58 0 0 .845 -965 -1476)" fill="#fff"><path d="m2045 1904c-4.88-0.642-9.28 2.75-9.91 7.59-0.328 2.47-0.604 5.02-0.819 7.63-0.224 2.7-0.206 12.8-0.185 21.9 0.012 5.56 5.5 9.41 10.8 7.6 0.055-0.019 0.11-0.038 0.164-0.056 3.5-1.2 5.75-4.48 5.77-8.18 0.041-6.67 0.559-13.5 1.09-19.8 0.199-2.32 0.439-4.58 0.733-6.78 0.644-4.83-2.75-9.27-7.59-9.91z"/><path d="m2134 2142c52.8-18.9 138-67.8 130-184-0.37-4.93-4.89-8.53-9.8-7.97-4.77 0.542-8.12 4.8-7.77 9.59 7.25 98.6-59.5 144-118 165-10.7 3.87-17.1 14.9-14.7 26l0.626 2.85c5.91 26.8 16.6 75.4 11.3 128-0.482 4.78 2.81 9.12 7.57 9.75 4.9 0.654 9.47-2.85 9.97-7.76 5.69-55.9-5.46-106-11.6-134l-0.595-2.69c-0.533-2.45 0.751-4.82 3.06-5.65z"/></g><path d="m295 354c32.5-22.1 55-56.1 65.8-98.8 1.01-3.99-0.605-8.39-3.4-9.6-2.62-1.13-5.32 0.988-6.26 4.73-9.87 39.2-30.2 69.5-60.5 90.1-5.02 3.42-7.82 11.3-6.79 19.1 3.84 29 5.4 55.3 4.79 80.2-0.105 4.12 2.1 7.58 4.93 7.73 0.0655 0.00338 0.125 0.00338 0.19 0.00338 2.74 0 5.01-3.17 5.11-7.19 0.645-26.1-0.979-53.4-4.96-83.6-0.146-1.09 0.285-2.19 1.07-2.72z" fill="#F7F0E6"/><path d="m366 292c-2.38-2.23-5.55-1.24-7.08 2.23-12.2 27.6-29.1 50.1-50.1 66.7-1.93 1.53-3 4.63-2.65 7.8 1.58 14.4 2.64 28.4 3.15 41.9 0.154 4.07 2.47 7.2 5.26 7.06 2.85-0.14 5.12-3.64 4.96-7.79-0.464-12.4-1.37-25.3-2.72-38.4 20.9-17.4 38.4-41.2 50.7-69.2 1.53-3.47 0.845-8.08-1.53-10.3z" fill="#fff"/></g></g></svg>
