<svg width="512" height="512" xmlns="http://www.w3.org/2000/svg">
 <!-- Created with Method Draw - http://github.com/duopixel/Method-Draw/ -->

 <g>
  <title>background</title>
  <rect fill="none" id="canvas_background" height="514" width="514" y="-1" x="-1"/>
  <g display="none" overflow="visible" y="0" x="0" height="100%" width="100%" id="canvasGrid">
   <rect fill="url(#gridpattern)" stroke-width="0" y="0" x="0" height="100%" width="100%"/>
  </g>
 </g>
 <g>
  <title>Layer 1</title>
  <!-- Created with Method Draw - http://github.com/duopixel/Method-Draw/ -->
  <g stroke="null" id="svg_247">
   <g stroke="null" transform="matrix(1.1344572312886119,0,0,1.1344572312886119,-1799.6139873165305,-2224.963228967242) " id="svg_244">
    <title stroke="null" transform="translate(1.769025206565857,0.8845126032829285) translate(-3.723888635635376,-17.6884708404541) translate(8.911388397216797,-30.694782257080078) translate(-15.112712860107422,-61.962120056152344) translate(-440.6710510253906,-37.59278869628906) translate(2047.9998779296875,0) translate(0,2047.9998779296875) ">background</title>
    <rect stroke="null" x="1598.172639" y="1899.946229" width="514" height="514" id="svg_242" fill="none"/>
    <g stroke="null" id="svg_241" display="none">
     <rect stroke="null" id="svg_245" width="512" height="512" x="1599.172639" y="1900.946229" stroke-width="0" fill="url(#gridpattern)"/>
    </g>
   </g>
   <g stroke="null" transform="matrix(1.1344572312886119,0,0,1.1344572312886119,-1799.6139873165305,-2224.963228967242) " id="svg_246">
    <title stroke="null" transform="translate(1.769025206565857,0.8845126032829285) translate(-3.723888635635376,-17.6884708404541) translate(8.911388397216797,-30.694782257080078) translate(-15.112712860107422,-61.962120056152344) translate(-440.6710510253906,-37.59278869628906) translate(2047.9998779296875,0) translate(0,2047.9998779296875) ">Layer 1</title>
    <!-- Created with Method Draw - http://github.com/duopixel/Method-Draw/ -->
    <g stroke="null" id="svg_215">
     <polygon stroke="null" points="1805.3261541128159,2115.118155181408 1805.3261541128159,1979.984610259533 1948.8095525503159,2007.314932525158 2010.9245427846909,2076.612051665783 " fill="#FFF3AD" id="svg_240"/>
     <polygon stroke="null" points="1810.2868474721909,1980.129873931408 1810.2868474721909,2115.263418853283 1632.0090154409409,2076.757315337658 1694.1340154409409,2007.460196197033 " fill="#FFFFFF" id="svg_239"/>
     <path stroke="null" d="m1782.951809,2194.097489l27.33022,204.42842l102.59665,-13.80199c61.20538,-32.61799 102.37811,-93.53732 102.37811,-163.29744l-232.30498,-27.32899z" fill="#c7cacc" id="svg_238"/>
     <path stroke="null" d="m1605.306039,2221.427699c0,69.76012 41.17273,130.67823 102.39162,163.29744l102.58314,13.802l0,-204.42965l-204.97476,27.33021z" fill="#e4e7e9" id="svg_237"/>
     <path stroke="null" d="m1987.926569,2070.565809c0,50.80662 27.33022,100.05527 27.33022,150.86189c-30.9925,0 -47.8687,8.44547 -61.42392,15.22247c-11.64245,5.8071 -20.82577,10.39876 -41.06346,10.39876c-20.2512,0 -29.43452,-4.59166 -41.06346,-10.39876c-13.55523,-6.77823 -30.43143,-15.22247 -61.42392,-15.22247l-54.66043,-75.43095l54.66043,-75.43094l177.64454,0z" fill="#c7cacc" id="svg_236"/>
     <path stroke="null" d="m1810.282029,2070.565809l0,150.86189c-30.9925,0 -47.8687,8.44547 -61.42392,15.22247c-11.64245,5.8071 -20.82577,10.39876 -41.06346,10.39876c-20.2512,0 -29.43452,-4.59166 -41.06346,-10.39876c-13.55523,-6.77823 -30.43143,-15.22247 -61.42392,-15.22247c0,-50.80662 27.33021,-100.05527 27.33021,-150.86189l177.64455,0z" fill="#e4e7e9" id="svg_235"/>
     <polygon stroke="null" points="1912.8727849721909,2384.712637603283 1912.8727849721909,2412.042959868908 1810.2831853628159,2412.042959868908 1791.2145818471909,2398.377188384533 1810.2831853628159,2384.712637603283 " fill="#2178ba" id="svg_234"/>
     <polygon stroke="null" points="2015.2582830190659,2056.902579009533 2015.2582830190659,2084.232657134533 1919.6039861440659,2084.232657134533 1893.6367009878159,2074.666495025158 1864.9438298940659,2084.232657134533 1810.2783025503159,2084.232657134533 1791.2106755971909,2070.566885650158 1810.2783025503159,2056.902579009533 1864.9438298940659,2056.902579009533 1892.7270330190659,2066.467520415783 1919.6039861440659,2056.902579009533 " fill="#2178ba" id="svg_233"/>
     <rect stroke="null" x="2872.797266" y="3585.617261" width="166.957" height="22.261" fill="#59a8ed" id="svg_232" transform="matrix(1.2277172452056304,0,0,1.2277172452056304,-1921.6754777240592,-2345.222833491081) "/>
     <g stroke="null" id="svg_231" transform="matrix(1.2277172452056304,0,0,1.2277172452056304,-1921.6754777240592,-2345.222833491081) "/>
     <g stroke="null" id="svg_230" transform="matrix(1.2277172452056304,0,0,1.2277172452056304,-1921.6754777240592,-2345.222833491081) "/>
     <g stroke="null" id="svg_229" transform="matrix(1.2277172452056304,0,0,1.2277172452056304,-1921.6754777240592,-2345.222833491081) "/>
     <g stroke="null" id="svg_228" transform="matrix(1.2277172452056304,0,0,1.2277172452056304,-1921.6754777240592,-2345.222833491081) "/>
     <g stroke="null" id="svg_227" transform="matrix(1.2277172452056304,0,0,1.2277172452056304,-1921.6754777240592,-2345.222833491081) "/>
     <g stroke="null" id="svg_226" transform="matrix(1.2277172452056304,0,0,1.2277172452056304,-1921.6754777240592,-2345.222833491081) "/>
     <g stroke="null" id="svg_225" transform="matrix(1.2277172452056304,0,0,1.2277172452056304,-1921.6754777240592,-2345.222833491081) "/>
     <g stroke="null" id="svg_224" transform="matrix(1.2277172452056304,0,0,1.2277172452056304,-1921.6754777240592,-2345.222833491081) "/>
     <g stroke="null" id="svg_223" transform="matrix(1.2277172452056304,0,0,1.2277172452056304,-1921.6754777240592,-2345.222833491081) "/>
     <g stroke="null" id="svg_222" transform="matrix(1.2277172452056304,0,0,1.2277172452056304,-1921.6754777240592,-2345.222833491081) "/>
     <g stroke="null" id="svg_221" transform="matrix(1.2277172452056304,0,0,1.2277172452056304,-1921.6754777240592,-2345.222833491081) "/>
     <g stroke="null" id="svg_220" transform="matrix(1.2277172452056304,0,0,1.2277172452056304,-1921.6754777240592,-2345.222833491081) "/>
     <g stroke="null" id="svg_219" transform="matrix(1.2277172452056304,0,0,1.2277172452056304,-1921.6754777240592,-2345.222833491081) "/>
     <g stroke="null" id="svg_218" transform="matrix(1.2277172452056304,0,0,1.2277172452056304,-1921.6754777240592,-2345.222833491081) "/>
     <g stroke="null" id="svg_217" transform="matrix(1.2277172452056304,0,0,1.2277172452056304,-1921.6754777240592,-2345.222833491081) "/>
     <rect stroke="null" x="2956.190266" y="3852.625261" width="83.567" height="22.261" fill="#59a8ed" id="svg_216" transform="matrix(1.2277172452056304,0,0,1.2277172452056304,-1921.6754777240592,-2345.222833491081) "/>
    </g>
    <g stroke="null" id="svg_197" transform="rotate(-0.8172167539596558 1970.0427246093388,2129.489746093747) ">
     <g stroke="null" id="svg_213">
      <path stroke="null" d="m1991.858289,2110.387199c-1.6782,-6.45853 -2.45182,-13.09079 -2.32977,-19.71334c-4.81868,-1.42604 -9.71905,-2.62369 -14.689,-3.57746l0,0c-10.87603,-2.08685 -22.10533,0.9977 -30.39649,8.34758l0,0c-14.55772,12.90572 -16.52296,34.93556 -4.47861,50.20693l0,0c8.29503,10.51693 21.47209,15.94092 34.76422,14.3092l0,0c7.5065,-0.92178 15.09642,0.82154 21.44931,4.92419l11.82511,7.63818l-16.14477,-62.13528z" fill="#3E4B58" id="svg_214"/>
     </g>
     <g stroke="null" id="svg_212" transform="rotate(13.724696159362793 -2265.847656249998,1330.870727539062) matrix(0.8115497670181123,0,0,0.8122689021003159,-3651.1310624076823,-476.60932795972315) "/>
     <g stroke="null" id="svg_211" transform="rotate(13.724696159362793 -2265.847656249998,1330.870727539062) matrix(0.8115497670181123,0,0,0.8122689021003159,-3651.1310624076823,-476.60932795972315) "/>
     <g stroke="null" id="svg_210" transform="rotate(13.724696159362793 -2265.847656249998,1330.870727539062) matrix(0.8115497670181123,0,0,0.8122689021003159,-3651.1310624076823,-476.60932795972315) "/>
     <g stroke="null" id="svg_209" transform="rotate(13.724696159362793 -2265.847656249998,1330.870727539062) matrix(0.8115497670181123,0,0,0.8122689021003159,-3651.1310624076823,-476.60932795972315) "/>
     <g stroke="null" id="svg_208" transform="rotate(13.724696159362793 -2265.847656249998,1330.870727539062) matrix(0.8115497670181123,0,0,0.8122689021003159,-3651.1310624076823,-476.60932795972315) "/>
     <g stroke="null" id="svg_207" transform="rotate(13.724696159362793 -2265.847656249998,1330.870727539062) matrix(0.8115497670181123,0,0,0.8122689021003159,-3651.1310624076823,-476.60932795972315) "/>
     <g stroke="null" id="svg_206" transform="rotate(13.724696159362793 -2265.847656249998,1330.870727539062) matrix(0.8115497670181123,0,0,0.8122689021003159,-3651.1310624076823,-476.60932795972315) "/>
     <g stroke="null" id="svg_205" transform="rotate(13.724696159362793 -2265.847656249998,1330.870727539062) matrix(0.8115497670181123,0,0,0.8122689021003159,-3651.1310624076823,-476.60932795972315) "/>
     <g stroke="null" id="svg_204" transform="rotate(13.724696159362793 -2265.847656249998,1330.870727539062) matrix(0.8115497670181123,0,0,0.8122689021003159,-3651.1310624076823,-476.60932795972315) "/>
     <g stroke="null" id="svg_203" transform="rotate(13.724696159362793 -2265.847656249998,1330.870727539062) matrix(0.8115497670181123,0,0,0.8122689021003159,-3651.1310624076823,-476.60932795972315) "/>
     <g stroke="null" id="svg_202" transform="rotate(13.724696159362793 -2265.847656249998,1330.870727539062) matrix(0.8115497670181123,0,0,0.8122689021003159,-3651.1310624076823,-476.60932795972315) "/>
     <g stroke="null" id="svg_201" transform="rotate(13.724696159362793 -2265.847656249998,1330.870727539062) matrix(0.8115497670181123,0,0,0.8122689021003159,-3651.1310624076823,-476.60932795972315) "/>
     <g stroke="null" id="svg_200" transform="rotate(13.724696159362793 -2265.847656249998,1330.870727539062) matrix(0.8115497670181123,0,0,0.8122689021003159,-3651.1310624076823,-476.60932795972315) "/>
     <g stroke="null" id="svg_199" transform="rotate(13.724696159362793 -2265.847656249998,1330.870727539062) matrix(0.8115497670181123,0,0,0.8122689021003159,-3651.1310624076823,-476.60932795972315) "/>
     <g stroke="null" id="svg_198" transform="rotate(13.724696159362793 -2265.847656249998,1330.870727539062) matrix(0.8115497670181123,0,0,0.8122689021003159,-3651.1310624076823,-476.60932795972315) "/>
    </g>
    <g stroke="null" id="svg_176">
     <g stroke="null" id="svg_196" transform="matrix(0.788005484722423,0,0,0.788005484722423,-2891.096156114281,-735.2605933932816) "/>
     <circle stroke="null" cx="5964.683943" cy="3778.983912" r="32.139999" fill="#FDA354" id="svg_195" transform="matrix(0.788005484722423,0,0,0.788005484722423,-2891.096156114281,-735.2605933932816) "/>
     <path stroke="null" d="m1822.248279,2220.937949l-26.28079,0c-7.30796,4.44355 -12.18885,12.48124 -12.18885,21.65833c0,4.44909 1.1505,8.62867 3.16541,12.26217l44.32767,0c2.01495,-3.6335 3.16541,-7.81307 3.16541,-12.26217c0,-9.17788 -4.88168,-17.21556 -12.18885,-21.65833z" opacity="0.1" id="svg_194"/>
     <path stroke="null" d="m1829.402579,2151.905529l-40.59018,0c-7.06918,0 -13.28575,4.67367 -15.25024,11.46388l-2.81871,9.74451c-4.6311,16.01145 -6.98173,32.59583 -6.98173,49.26295l0,10.32916c0,5.46165 4.42781,9.88946 9.88946,9.88946l70.91183,0c5.46165,0 9.88946,-4.42781 9.88946,-9.88946l0,-10.32916c0,-16.6679 -2.35059,-33.25228 -6.98172,-49.26295l-2.81868,-9.74451c-1.9637,-6.79021 -8.1811,-11.46388 -15.24949,-11.46388z" fill="#FDA354" id="svg_193"/>
     <path stroke="null" d="m1847.471539,2173.113919l-2.81868,-9.74451c-1.96449,-6.79021 -8.1811,-11.46388 -15.25028,-11.46388l-14.42995,0c7.06839,0 13.28575,4.67367 15.25025,11.46388l2.81871,9.74451c4.63109,16.01145 6.98172,32.59583 6.98172,49.26294l0,10.32917c0,5.46165 -4.42781,9.88946 -9.88946,9.88946l14.42995,0c5.46165,0 9.88946,-4.42781 9.88946,-9.88946l0,-10.32917c0,-16.66711 -2.3506,-33.25149 -6.98172,-49.26294z" opacity="0.1" id="svg_192"/>
     <g stroke="null" id="svg_191" transform="matrix(0.788005484722423,0,0,0.788005484722423,-2891.096156114281,-735.2605933932816) "/>
     <g stroke="null" id="svg_190" transform="matrix(0.788005484722423,0,0,0.788005484722423,-2891.096156114281,-735.2605933932816) "/>
     <g stroke="null" id="svg_189" transform="matrix(0.788005484722423,0,0,0.788005484722423,-2891.096156114281,-735.2605933932816) "/>
     <g stroke="null" id="svg_188" transform="matrix(0.788005484722423,0,0,0.788005484722423,-2891.096156114281,-735.2605933932816) "/>
     <g stroke="null" id="svg_187" transform="matrix(0.788005484722423,0,0,0.788005484722423,-2891.096156114281,-735.2605933932816) "/>
     <g stroke="null" id="svg_186" transform="matrix(0.788005484722423,0,0,0.788005484722423,-2891.096156114281,-735.2605933932816) "/>
     <g stroke="null" id="svg_185" transform="matrix(0.788005484722423,0,0,0.788005484722423,-2891.096156114281,-735.2605933932816) "/>
     <g stroke="null" id="svg_184" transform="matrix(0.788005484722423,0,0,0.788005484722423,-2891.096156114281,-735.2605933932816) "/>
     <g stroke="null" id="svg_183" transform="matrix(0.788005484722423,0,0,0.788005484722423,-2891.096156114281,-735.2605933932816) "/>
     <g stroke="null" id="svg_182" transform="matrix(0.788005484722423,0,0,0.788005484722423,-2891.096156114281,-735.2605933932816) "/>
     <g stroke="null" id="svg_181" transform="matrix(0.788005484722423,0,0,0.788005484722423,-2891.096156114281,-735.2605933932816) "/>
     <g stroke="null" id="svg_180" transform="matrix(0.788005484722423,0,0,0.788005484722423,-2891.096156114281,-735.2605933932816) "/>
     <g stroke="null" id="svg_179" transform="matrix(0.788005484722423,0,0,0.788005484722423,-2891.096156114281,-735.2605933932816) "/>
     <g stroke="null" id="svg_178" transform="matrix(0.788005484722423,0,0,0.788005484722423,-2891.096156114281,-735.2605933932816) "/>
     <g stroke="null" id="svg_177" transform="matrix(0.788005484722423,0,0,0.788005484722423,-2891.096156114281,-735.2605933932816) "/>
    </g>
    <g stroke="null" id="svg_158" transform="rotate(12.928603172302246 1657.1054687500007,2164.0122070312495) ">
     <g stroke="null" id="svg_174" transform="matrix(1.0261540766225186,0,0,1.0261540766225186,-4299.686390277685,-404.15500888909924) ">
      <path stroke="null" d="m5833.228914,2522.726601l-17.392,-17.277c-8.536,-8.48 -9.428,-21.987 -2.081,-31.515c8.065,-10.46 6.104,-25.48 -4.374,-33.52l0,0c-13.468,-10.333 -29.667,-12.353 -43.871,-8.071l0,107.837c0,19.334 15.673,35.007 35.007,35.007l33.996,0c3.889,-4.259 6.856,-9.447 8.501,-15.311c3.716,-13.242 -0.029,-27.457 -9.786,-37.15z" fill="#3E4B58" id="svg_175"/>
     </g>
     <g stroke="null" id="svg_173" transform="matrix(1.0261540766225186,0,0,1.0261540766225186,-4299.686390277685,-404.15500888909924) "/>
     <g stroke="null" id="svg_172" transform="matrix(1.0261540766225186,0,0,1.0261540766225186,-4299.686390277685,-404.15500888909924) "/>
     <g stroke="null" id="svg_171" transform="matrix(1.0261540766225186,0,0,1.0261540766225186,-4299.686390277685,-404.15500888909924) "/>
     <g stroke="null" id="svg_170" transform="matrix(1.0261540766225186,0,0,1.0261540766225186,-4299.686390277685,-404.15500888909924) "/>
     <g stroke="null" id="svg_169" transform="matrix(1.0261540766225186,0,0,1.0261540766225186,-4299.686390277685,-404.15500888909924) "/>
     <g stroke="null" id="svg_168" transform="matrix(1.0261540766225186,0,0,1.0261540766225186,-4299.686390277685,-404.15500888909924) "/>
     <g stroke="null" id="svg_167" transform="matrix(1.0261540766225186,0,0,1.0261540766225186,-4299.686390277685,-404.15500888909924) "/>
     <g stroke="null" id="svg_166" transform="matrix(1.0261540766225186,0,0,1.0261540766225186,-4299.686390277685,-404.15500888909924) "/>
     <g stroke="null" id="svg_165" transform="matrix(1.0261540766225186,0,0,1.0261540766225186,-4299.686390277685,-404.15500888909924) "/>
     <g stroke="null" id="svg_164" transform="matrix(1.0261540766225186,0,0,1.0261540766225186,-4299.686390277685,-404.15500888909924) "/>
     <g stroke="null" id="svg_163" transform="matrix(1.0261540766225186,0,0,1.0261540766225186,-4299.686390277685,-404.15500888909924) "/>
     <g stroke="null" id="svg_162" transform="matrix(1.0261540766225186,0,0,1.0261540766225186,-4299.686390277685,-404.15500888909924) "/>
     <g stroke="null" id="svg_161" transform="matrix(1.0261540766225186,0,0,1.0261540766225186,-4299.686390277685,-404.15500888909924) "/>
     <g stroke="null" id="svg_160" transform="matrix(1.0261540766225186,0,0,1.0261540766225186,-4299.686390277685,-404.15500888909924) "/>
     <g stroke="null" id="svg_159" transform="matrix(1.0261540766225186,0,0,1.0261540766225186,-4299.686390277685,-404.15500888909924) "/>
    </g>
    <g stroke="null" id="svg_141" transform="rotate(145.9246368408203 1934.3701171875,2287.155517578125) ">
     <path stroke="null" d="m1900.225409,2252.077059l19.28888,-7.16707c8.74069,-3.24745 18.38003,-3.11389 27.02785,0.37746l22.93844,9.25897c23.84281,9.62482 31.08833,39.87985 14.19188,59.26162l-4.45526,5.10999c-8.7364,10.02261 -22.13854,14.65208 -35.19808,12.16242l-37.77203,-7.2034c-20.10611,-3.83393 -33.39506,-23.1184 -29.82092,-43.27099l0,0c2.31542,-13.05666 11.36977,-23.91113 23.79924,-28.529z" fill="#3E4B58" id="svg_157"/>
     <g stroke="null" id="svg_156" transform="matrix(1.4517072284251937,0,0,1.4517072284251937,-6577.31110993451,-1166.080237255606) "/>
     <g stroke="null" id="svg_155" transform="matrix(1.4517072284251937,0,0,1.4517072284251937,-6577.31110993451,-1166.080237255606) "/>
     <g stroke="null" id="svg_154" transform="matrix(1.4517072284251937,0,0,1.4517072284251937,-6577.31110993451,-1166.080237255606) "/>
     <g stroke="null" id="svg_153" transform="matrix(1.4517072284251937,0,0,1.4517072284251937,-6577.31110993451,-1166.080237255606) "/>
     <g stroke="null" id="svg_152" transform="matrix(1.4517072284251937,0,0,1.4517072284251937,-6577.31110993451,-1166.080237255606) "/>
     <g stroke="null" id="svg_151" transform="matrix(1.4517072284251937,0,0,1.4517072284251937,-6577.31110993451,-1166.080237255606) "/>
     <g stroke="null" id="svg_150" transform="matrix(1.4517072284251937,0,0,1.4517072284251937,-6577.31110993451,-1166.080237255606) "/>
     <g stroke="null" id="svg_149" transform="matrix(1.4517072284251937,0,0,1.4517072284251937,-6577.31110993451,-1166.080237255606) "/>
     <g stroke="null" id="svg_148" transform="matrix(1.4517072284251937,0,0,1.4517072284251937,-6577.31110993451,-1166.080237255606) "/>
     <g stroke="null" id="svg_147" transform="matrix(1.4517072284251937,0,0,1.4517072284251937,-6577.31110993451,-1166.080237255606) "/>
     <g stroke="null" id="svg_146" transform="matrix(1.4517072284251937,0,0,1.4517072284251937,-6577.31110993451,-1166.080237255606) "/>
     <g stroke="null" id="svg_145" transform="matrix(1.4517072284251937,0,0,1.4517072284251937,-6577.31110993451,-1166.080237255606) "/>
     <g stroke="null" id="svg_144" transform="matrix(1.4517072284251937,0,0,1.4517072284251937,-6577.31110993451,-1166.080237255606) "/>
     <g stroke="null" id="svg_143" transform="matrix(1.4517072284251937,0,0,1.4517072284251937,-6577.31110993451,-1166.080237255606) "/>
     <g stroke="null" id="svg_142" transform="matrix(1.4517072284251937,0,0,1.4517072284251937,-6577.31110993451,-1166.080237255606) "/>
    </g>
    <g stroke="null" id="svg_123" transform="rotate(103.84087371826172 1758.0861816406255,2359.3811035156245) ">
     <g stroke="null" id="svg_139">
      <path stroke="null" d="m1779.901779,2340.278499c-1.6782,-6.45853 -2.45182,-13.09079 -2.32977,-19.71334c-4.81868,-1.42604 -9.71905,-2.62369 -14.689,-3.57747l0,0c-10.87603,-2.08684 -22.10533,0.99771 -30.39649,8.34759l0,0c-14.55772,12.90572 -16.52296,34.93556 -4.47861,50.20693l0,0c8.29503,10.51693 21.47209,15.94092 34.76422,14.3092l0,0c7.5065,-0.92178 15.09642,0.82154 21.44931,4.92419l11.82511,7.63818l-16.14477,-62.13528z" fill="#3E4B58" id="svg_140"/>
     </g>
     <g stroke="null" id="svg_138" transform="rotate(13.724696159362793 -2217.3564453125005,1387.7230224609366) matrix(0.8115497670181123,0,0,0.8122689021003159,-3651.1310624076823,-476.60932795972315) "/>
     <g stroke="null" id="svg_137" transform="rotate(13.724696159362793 -2217.3564453125005,1387.7230224609366) matrix(0.8115497670181123,0,0,0.8122689021003159,-3651.1310624076823,-476.60932795972315) "/>
     <g stroke="null" id="svg_136" transform="rotate(13.724696159362793 -2217.3564453125005,1387.7230224609366) matrix(0.8115497670181123,0,0,0.8122689021003159,-3651.1310624076823,-476.60932795972315) "/>
     <g stroke="null" id="svg_135" transform="rotate(13.724696159362793 -2217.3564453125005,1387.7230224609366) matrix(0.8115497670181123,0,0,0.8122689021003159,-3651.1310624076823,-476.60932795972315) "/>
     <g stroke="null" id="svg_134" transform="rotate(13.724696159362793 -2217.3564453125005,1387.7230224609366) matrix(0.8115497670181123,0,0,0.8122689021003159,-3651.1310624076823,-476.60932795972315) "/>
     <g stroke="null" id="svg_133" transform="rotate(13.724696159362793 -2217.3564453125005,1387.7230224609366) matrix(0.8115497670181123,0,0,0.8122689021003159,-3651.1310624076823,-476.60932795972315) "/>
     <g stroke="null" id="svg_132" transform="rotate(13.724696159362793 -2217.3564453125005,1387.7230224609366) matrix(0.8115497670181123,0,0,0.8122689021003159,-3651.1310624076823,-476.60932795972315) "/>
     <g stroke="null" id="svg_131" transform="rotate(13.724696159362793 -2217.3564453125005,1387.7230224609366) matrix(0.8115497670181123,0,0,0.8122689021003159,-3651.1310624076823,-476.60932795972315) "/>
     <g stroke="null" id="svg_130" transform="rotate(13.724696159362793 -2217.3564453125005,1387.7230224609366) matrix(0.8115497670181123,0,0,0.8122689021003159,-3651.1310624076823,-476.60932795972315) "/>
     <g stroke="null" id="svg_129" transform="rotate(13.724696159362793 -2217.3564453125005,1387.7230224609366) matrix(0.8115497670181123,0,0,0.8122689021003159,-3651.1310624076823,-476.60932795972315) "/>
     <g stroke="null" id="svg_128" transform="rotate(13.724696159362793 -2217.3564453125005,1387.7230224609366) matrix(0.8115497670181123,0,0,0.8122689021003159,-3651.1310624076823,-476.60932795972315) "/>
     <g stroke="null" id="svg_127" transform="rotate(13.724696159362793 -2217.3564453125005,1387.7230224609366) matrix(0.8115497670181123,0,0,0.8122689021003159,-3651.1310624076823,-476.60932795972315) "/>
     <g stroke="null" id="svg_126" transform="rotate(13.724696159362793 -2217.3564453125005,1387.7230224609366) matrix(0.8115497670181123,0,0,0.8122689021003159,-3651.1310624076823,-476.60932795972315) "/>
     <g stroke="null" id="svg_125" transform="rotate(13.724696159362793 -2217.3564453125005,1387.7230224609366) matrix(0.8115497670181123,0,0,0.8122689021003159,-3651.1310624076823,-476.60932795972315) "/>
     <g stroke="null" id="svg_124" transform="rotate(13.724696159362793 -2217.3564453125005,1387.7230224609366) matrix(0.8115497670181123,0,0,0.8122689021003159,-3651.1310624076823,-476.60932795972315) "/>
    </g>
   </g>
  </g>
 </g>
</svg>