<svg width="512" height="512" version="1.1" xmlns="http://www.w3.org/2000/svg"><g><title>background</title><rect id="canvas_background" x="-1" y="-1" width="514" height="514" fill="none"/><g id="canvasGrid" x="0" y="0" width="100%" height="100%" display="none" overflow="visible"><rect width="100%" height="100%" fill="url(#gridpattern)" stroke-width="0"/></g></g><g><title>Layer 1</title><g stroke="null"><g transform="matrix(1.13 0 0 1.13 -1800 -2225)"><title transform="translate(1599 1901)">background</title><rect x="1598" y="1900" width="514" height="514" fill="none"/><g display="none"><rect x="1599" y="1901" width="512" height="512" fill="url(#gridpattern)" stroke="null" stroke-width="0"/></g></g><g transform="matrix(1.13 0 0 1.13 -1800 -2225)"><title transform="translate(1599 1901)">Layer 1</title><polygon points="1805 2115 1805 1980 1949 2007 2011 2077" fill="#FFF3AD"/><polygon points="1810 1980 1810 2115 1632 2077 1694 2007" fill="#fff"/><path d="m1783 2194 27.3 204 103-13.8c61.2-32.6 102-93.5 102-163l-232-27.3z" fill="#c7cacc"/><path d="m1605 2221c0 69.8 41.2 131 102 163l103 13.8v-204l-205 27.3z" fill="#e4e7e9"/><path d="m1988 2071c0 50.8 27.3 100 27.3 151-31 0-47.9 8.45-61.4 15.2-11.6 5.81-20.8 10.4-41.1 10.4-20.3 0-29.4-4.59-41.1-10.4-13.6-6.78-30.4-15.2-61.4-15.2l-54.7-75.4 54.7-75.4h178z" fill="#c7cacc"/><path d="m1810 2071v151c-31 0-47.9 8.45-61.4 15.2-11.6 5.81-20.8 10.4-41.1 10.4-20.3 0-29.4-4.59-41.1-10.4-13.6-6.78-30.4-15.2-61.4-15.2 0-50.8 27.3-100 27.3-151h178z" fill="#e4e7e9"/><polygon points="1913 2385 1913 2412 1810 2412 1791 2398 1810 2385" fill="#2178ba"/><polygon points="2015 2057 2015 2084 1920 2084 1894 2075 1865 2084 1810 2084 1791 2071 1810 2057 1865 2057 1893 2066 1920 2057" fill="#2178ba"/><rect transform="matrix(1.23 0 0 1.23 -1922 -2345)" x="2873" y="3586" width="167" height="22.3" fill="#59a8ed"/><rect transform="matrix(1.23 0 0 1.23 -1922 -2345)" x="2956" y="3853" width="83.6" height="22.3" fill="#59a8ed"/><g transform="rotate(-.817 1970 2129)"><g stroke="null"><path d="m1992 2110c-1.68-6.46-2.45-13.1-2.33-19.7-4.82-1.43-9.72-2.62-14.7-3.58-10.9-2.09-22.1 0.998-30.4 8.35-14.6 12.9-16.5 34.9-4.48 50.2 8.3 10.5 21.5 15.9 34.8 14.3 7.51-0.922 15.1 0.822 21.4 4.92l11.8 7.64-16.1-62.1z" fill="#3E4B58" stroke="null"/></g></g><circle transform="matrix(.788 0 0 .788 -2891 -735)" cx="5965" cy="3779" r="32.1" fill="#FDA354"/><path d="m1822 2221h-26.3c-7.31 4.44-12.2 12.5-12.2 21.7 0 4.45 1.15 8.63 3.17 12.3h44.3c2.01-3.63 3.17-7.81 3.17-12.3 0-9.18-4.88-17.2-12.2-21.7z" opacity=".1"/><path d="m1829 2152h-40.6c-7.07 0-13.3 4.67-15.3 11.5l-2.82 9.74c-4.63 16-6.98 32.6-6.98 49.3v10.3c0 5.46 4.43 9.89 9.89 9.89h70.9c5.46 0 9.89-4.43 9.89-9.89v-10.3c0-16.7-2.35-33.3-6.98-49.3l-2.82-9.74c-1.96-6.79-8.18-11.5-15.2-11.5z" fill="#FDA354"/><path d="m1847 2173-2.82-9.74c-1.96-6.79-8.18-11.5-15.3-11.5h-14.4c7.07 0 13.3 4.67 15.3 11.5l2.82 9.74c4.63 16 6.98 32.6 6.98 49.3v10.3c0 5.46-4.43 9.89-9.89 9.89h14.4c5.46 0 9.89-4.43 9.89-9.89v-10.3c0-16.7-2.35-33.3-6.98-49.3z" opacity=".1"/><g transform="rotate(12.9 1657 2164)"><g transform="matrix(1.03 0 0 1.03 -4300 -404)" stroke="null"><path d="m5833 2523-17.4-17.3c-8.54-8.48-9.43-22-2.08-31.5 8.06-10.5 6.1-25.5-4.37-33.5-13.5-10.3-29.7-12.4-43.9-8.07v108c0 19.3 15.7 35 35 35h34c3.89-4.26 6.86-9.45 8.5-15.3 3.72-13.2-0.029-27.5-9.79-37.2z" fill="#3E4B58" stroke="null"/></g></g><g transform="rotate(146 1934 2287)"><path d="m1900 2252 19.3-7.17c8.74-3.25 18.4-3.11 27 0.377l22.9 9.26c23.8 9.62 31.1 39.9 14.2 59.3l-4.46 5.11c-8.74 10-22.1 14.7-35.2 12.2l-37.8-7.2c-20.1-3.83-33.4-23.1-29.8-43.3 2.32-13.1 11.4-23.9 23.8-28.5z" fill="#3E4B58" stroke="null"/></g><g transform="rotate(104 1758 2359)"><g stroke="null"><path d="m1780 2340c-1.68-6.46-2.45-13.1-2.33-19.7-4.82-1.43-9.72-2.62-14.7-3.58-10.9-2.09-22.1 0.998-30.4 8.35-14.6 12.9-16.5 34.9-4.48 50.2 8.3 10.5 21.5 15.9 34.8 14.3 7.51-0.922 15.1 0.822 21.4 4.92l11.8 7.64-16.1-62.1z" fill="#3E4B58" stroke="null"/></g></g></g></g></g></svg>
