<svg width="512" height="512" version="1.1" xmlns="http://www.w3.org/2000/svg"><g><title>background</title><rect id="canvas_background" x="-1" y="-1" width="514" height="514" fill="none"/><g id="canvasGrid" x="0" y="0" width="100%" height="100%" display="none" overflow="visible"><rect width="100%" height="100%" fill="url(#gridpattern)" stroke-width="0"/></g></g><g><title>Layer 1</title><g stroke="null"><g transform="matrix(1.05 0 0 1.05 -128 -91.5)" stroke="null"><path d="m501 163v-24h-256v24c-17.7 0-32 14.3-32 32v344c0 17.7 14.3 32 32 32h256c17.7 0 32-14.3 32-32v-344c0-17.7-14.3-32-32-32z" fill="#91b945" stroke="null"/><path d="m245 139h256v24h-256v-24z" fill="#69a041" stroke="null"/><path d="m373 539h-160c0 17.7 14.3 32 32 32h256c17.7 0 32-14.3 32-32v-344h-152c-4.42 0-8 3.58-8 8v336z" fill="#69a041" stroke="null"/><path d="m501 90.6h-256c-4.42 0-8 3.58-8 8v32c0 4.42 3.58 8 8 8h256c4.42 0 8-3.58 8-8v-32c0-4.42-3.58-8-8-8z" fill="#fabe19" stroke="null"/><path d="m373 139h128c4.42 0 8-3.58 8-8v-32h-128c-4.42 0-8 3.58-8 8v32z" fill="#f5871e" stroke="null"/><path d="m213 251h320v224h-320v-224z" fill="#fabe19" stroke="null"/><path d="m373 251h160v224h-160v-224z" fill="#f5871e" stroke="null"/><circle cx="373" cy="363" r="112" fill="#d7e6e6" stroke="null"/><circle cx="329" cy="215" r="12" fill="#69a041" stroke="null"/><circle cx="225" cy="504" r="12" fill="#69a041" stroke="null"/><circle cx="489" cy="223" r="12" fill="#4b8c41" stroke="null"/><circle cx="261" cy="227" r="8" fill="#69a041" stroke="null"/><circle cx="301" cy="531" r="8" fill="#69a041" stroke="null"/><circle cx="445" cy="515" r="8" fill="#4b8c41" stroke="null"/><path d="m365 418-30.2 0.172c-4.85 0.028-9.5-1.88-12.9-5.31-3.4-3.4-5.31-8.01-5.31-12.8v-29.8c0-44.2 35.8-80 80-80h29.8c4.82 0 9.45 1.92 12.9 5.33 3.42 3.42 5.34 8.06 5.33 12.9l-0.042 29.7c-0.063 44-35.6 79.6-79.5 79.9z" fill="#4b8c41" stroke="null"/><path d="m440 296-0.016-0.016c-3.42-3.42-8.05-5.33-12.9-5.33h-29.8c-44.2 0-80 35.8-80 80v29.8c0 4.83 1.92 9.46 5.33 12.9l117-117z" fill="#69a041" stroke="null"/><path d="m309 431c-1.02 0-2.05-0.391-2.83-1.17-1.56-1.56-1.56-4.1 0-5.66l131-131c1.56-1.56 4.1-1.56 5.66 0 1.56 1.56 1.56 4.1 0 5.66l-131 131c-0.782 0.781-1.81 1.17-2.83 1.17z" fill="#91b945" stroke="null"/><circle cx="376" cy="317" r="10.7" fill="#91b945" stroke="null"/><path d="m245 187c-4.42 0-8 3.58-8 8v56h16v-56c0-4.42-3.58-8-8-8z" fill="#afd763" stroke="null"/><path d="m237 475h16v64h-16v-64z" fill="#afd763" stroke="null"/><path d="m237 251h16v224h-16v-224z" fill="#ffdc37" stroke="null"/></g></g></g></svg>
