<svg width="512mm" height="512mm" version="1.1" viewBox="0 0 512 512" xmlns="http://www.w3.org/2000/svg"><g transform="translate(-369 -5.6)"><path d="m680 35.7 99.3 0.595s-0.0158 17.1 0 24.4c25.8-8.02 55.4-8.81 76 6.27 27.8 18.5 26 55.4 18.2 69.9-1.7 3.17-10.4-11.4-9.5-18.1 4.2-32.9-19.8-48.8-41-48.4-20.8 0.37-45.3 17.8-38.5 48.9 4.56 20.8 47.7 49.3 41.7 48.4 8.72 9.54 16.4 18.2 21.4 29.1 4.53 9.98 8.54 21.2 7.13 32.1-13.1 101-42.2 287-42.2 287l-165-0.595s-28.9-186-42.2-285c-0.711-5.31 0.265-12.8 1.43-18.2 1.45-6.67 3.52-11.1 6.89-16.9 7.47-12.7 14.9-24.5 26.8-31.5 14.8-8.65 26.5-13.8 33.6-22.4 4.45-5.4 5.22-12.1 6.28-18.6 4.66-28.4 0-86.2 0-86.2z" style="fill:#e1dbd2"/><path d="m631 170c22.7-18.3 48.5-21.2 49.7-51.4l104 0.444c6.05 17.1 21.7 28.1 40.8 28.8 16.1 0.574 38.5-13.4 38.6-29 1.99-0.0144 12.3-0.0857 14.3-0.0776 0 0 1.73 12.7-11.2 27.7-3.69 4.28-7.65 8.46-13.3 12-10.3 6.46-20.1 10.6-27.9 9.3 16.6 14 24.2 33.7 26.6 41.3 4.88 17.3 1.31 28.5-1.38 48.9-13 87.7-38.7 258-38.7 258l-165-0.595s-27.4-186-42.7-282c-0.267-29.6 7.46-47.4 26.3-62.6z" style="fill:#520"/><path d="m669 8.17c32 0.712 80 0.131 125 0.272 5.39 0.017 13.2 8.27 13.2 16.3-9e-3 8.25-7.98 16.3-13.5 16.3-37.4 0.136-81.3 0.108-125 0-5.5-0.0136-14.4-8.61-14.4-16.9 0.0758-8.26 9.16-16.2 14.6-16.1z" style="fill:#b6aaa0"/><path d="m669 8.17c32.3-0.107 80 0.0707 125 0.147 14.4 3.82 8.67 13.9 0.805 15.2-37.4 0.0734-82.4 0.187-126 0.129-13.2-3.55-9.84-14.6 0.272-15.4z" style="fill:#d9d2c4"/><ellipse cx="798" cy="404" rx="16.3" ry="16.4" style="fill:#803300;opacity:.923"/><ellipse cx="751" cy="465" rx="10.2" ry="10.6" style="fill:#803300;opacity:.923"/><ellipse cx="781" cy="333" rx="22.1" ry="22.7" style="fill:#803300;opacity:.923"/><path d="m780 41.3-0.152 19.4c-31.8-1.26-54.9 1.83-62.6 11.8-13.6 17.5-1.54 37-14.7 75.5-4.67 9.36-16.2 16.9-25.7 23.6-28.3 14.6-45.1 29.2-42.1 63.2-3.15 65.8 33.5 195 33.5 195 17.9 78.6 79 57.6 149 56.9l-4.26 29-165-0.588-42.7-279c-0.782-25 5.37-48.7 20.6-61.9 20.9-17.4 37.9-19.4 48.7-37.3 14.2-23.9 6.13-95.3 6.13-95.3z" style="fill:#803300"/><path d="m780 41.3-0.152 19.4c-31.8-0.0081-49.9 1.67-62 12.6-8.69 10.5-7.51 32.7-8.92 45.4-6.65 0.0854-23.6-0.168-28.6-0.144 0.799-6.35 3.36-55.9-0.679-77.5z" style="fill:#d9d2c4"/><ellipse cx="695" cy="229" rx="22.6" ry="23.2" style="fill:#803300;opacity:.923"/></g><path d="m463 246c0.625 0.141 1.25 0.226 1.93 0.254 5.99 0.255 11.1-4.38 11.3-10.4 1.79-40.8-28.6-65.4-29.9-66.5-4.75-3.72-11.5-2.93-15.3 1.75-3.72 4.69-2.95 11.5 1.72 15.2 0.462 0.371 23.1 19.2 21.8 48.5-0.239 5.33 3.41 9.93 8.45 11.1z" style="fill:#fff;stroke-width:10.9"/><g stroke="null"><g transform="matrix(.916 -.0184 -.0184 -.916 -331 692)"><g transform="matrix(.316 0 0 .316 -878 -673)" stroke="null"><g stroke="null"><path d="m4e3 3272v-14.5c0-59.9 48.7-109 109-109h235c59.9 0 109 48.7 109 109v14.5c0 59.9-48.7 109-109 109h-235c-59.9 0-109-48.7-109-109z" fill="#82401a"/><path d="m4454 3272v-7.25h-452v7.25c0 59.9 48.7 109 109 109h235c59.9 0 109-48.7 109-109z" fill="#6f3716"/><path d="m4102 3302c0-8.28 6.72-15 15-15 11.6 0 16.8-1.92 23.4-4.35 7.89-2.91 16.8-6.21 33.8-6.21s25.9 3.3 33.8 6.21c6.59 2.43 11.8 4.35 23.4 4.35 11.6 0 16.8-1.92 23.4-4.35 7.89-2.91 16.8-6.21 33.8-6.21s25.9 3.3 33.8 6.21c6.59 2.43 11.8 4.35 23.4 4.35 8.28 0 15 6.72 15 15s-6.72 15-15 15c-17 0-25.9-3.3-33.8-6.21-6.59-2.43-11.8-4.35-23.4-4.35-11.6 0-16.8 1.92-23.4 4.35-7.89 2.91-16.8 6.21-33.8 6.21s-25.9-3.3-33.8-6.21c-6.59-2.43-11.8-4.35-23.4-4.35s-16.8 1.92-23.4 4.35c-7.89 2.91-16.8 6.21-33.8 6.21-8.28 0-15-6.72-15-15z" fill="#3b1b14"/><path d="m4102 3239c0-8.28 6.72-15 15-15 11.6 0 16.8-1.92 23.4-4.35 7.89-2.91 16.8-6.21 33.8-6.21s25.9 3.3 33.8 6.21c6.59 2.43 11.8 4.35 23.4 4.35 11.6 0 16.8-1.92 23.4-4.35 7.89-2.91 16.8-6.21 33.8-6.21s25.9 3.3 33.8 6.21c6.59 2.43 11.8 4.35 23.4 4.35 8.28 0 15 6.72 15 15s-6.72 15-15 15c-17 0-25.9-3.3-33.8-6.21-6.59-2.43-11.8-4.35-23.4-4.35-11.6 0-16.8 1.92-23.4 4.35-7.89 2.91-16.8 6.21-33.8 6.21s-25.9-3.3-33.8-6.21c-6.59-2.43-11.8-4.35-23.4-4.35s-16.8 1.92-23.4 4.35c-7.89 2.91-16.8 6.21-33.8 6.21-8.28 0-15-6.72-15-15z" fill="#572b21"/></g></g></g><g transform="matrix(-.00414 -.916 -.916 .00414 426 506)"><g transform="matrix(.307 0 0 .307 -814 -633)" stroke="null"><g stroke="null"><path d="m3431 3502h-14.5c-59.9 0-109-48.7-109-109v-235c0-59.9 48.7-109 109-109h14.5c59.9 0 109 48.7 109 109v235c0 59.9-48.7 109-109 109z" fill="#ba602b"/><path d="m3431 3049h-7.25v452h7.25c59.9 0 109-48.7 109-109v-235c0-59.9-48.7-109-109-109z" fill="#964c22"/><path d="m3460 3402c-8.28 0-15-6.72-15-15 0-11.6-1.92-16.8-4.35-23.4-2.91-7.89-6.21-16.8-6.21-33.8s3.3-25.9 6.21-33.8c2.43-6.59 4.35-11.8 4.35-23.4s-1.92-16.8-4.35-23.4c-2.91-7.89-6.21-16.8-6.21-33.8s3.3-25.9 6.21-33.8c2.43-6.59 4.35-11.8 4.35-23.4 0-8.28 6.72-15 15-15s15 6.72 15 15c0 17-3.3 25.9-6.21 33.8-2.43 6.59-4.35 11.8-4.35 23.4 0 11.6 1.92 16.8 4.35 23.4 2.91 7.89 6.21 16.8 6.21 33.8s-3.3 25.9-6.21 33.8c-2.43 6.59-4.35 11.8-4.35 23.4s1.92 16.8 4.35 23.4c2.91 7.89 6.21 16.8 6.21 33.8 0 8.28-6.72 15-15 15z" fill="#3b1b14"/><path d="m3397 3402c-8.28 0-15-6.72-15-15 0-11.6-1.92-16.8-4.35-23.4-2.91-7.89-6.21-16.8-6.21-33.8s3.3-25.9 6.21-33.8c2.43-6.59 4.35-11.8 4.35-23.4s-1.92-16.8-4.35-23.4c-2.91-7.89-6.21-16.8-6.21-33.8s3.3-25.9 6.21-33.8c2.43-6.59 4.35-11.8 4.35-23.4 0-8.28 6.72-15 15-15s15 6.72 15 15c0 17-3.3 25.9-6.21 33.8-2.43 6.59-4.35 11.8-4.35 23.4 0 11.6 1.92 16.8 4.35 23.4 2.91 7.89 6.21 16.8 6.21 33.8s-3.3 25.9-6.21 33.8c-2.43 6.59-4.35 11.8-4.35 23.4s1.92 16.8 4.35 23.4c2.91 7.89 6.21 16.8 6.21 33.8 0 8.28-6.72 15-15 15z" fill="#572b21"/></g></g></g><g transform="matrix(-.0298 .915 .915 .0298 -268 9.65)"><g transform="matrix(.307 0 0 .307 -814 -633)" stroke="null"><g stroke="null"><path d="m4072 3609h-14.5c-59.9 0-109-48.7-109-109v-235c0-59.9 48.7-109 109-109h14.5c59.9 0 109 48.7 109 109v235c0 59.9-48.7 109-109 109z" fill="#ba602b"/><path d="m4072 3157h-7.25v452h7.25c59.9 0 109-48.7 109-109v-235c0-59.9-48.7-109-109-109z" fill="#964c22"/><path d="m4101 3509c-8.28 0-15-6.72-15-15 0-11.6-1.92-16.8-4.35-23.4-2.91-7.89-6.21-16.8-6.21-33.8s3.3-25.9 6.21-33.8c2.43-6.59 4.35-11.8 4.35-23.4s-1.92-16.8-4.35-23.4c-2.91-7.89-6.21-16.8-6.21-33.8s3.3-25.9 6.21-33.8c2.43-6.59 4.35-11.8 4.35-23.4 0-8.28 6.72-15 15-15s15 6.72 15 15c0 17-3.3 25.9-6.21 33.8-2.43 6.59-4.35 11.8-4.35 23.4 0 11.6 1.92 16.8 4.35 23.4 2.91 7.89 6.21 16.8 6.21 33.8s-3.3 25.9-6.21 33.8c-2.43 6.59-4.35 11.8-4.35 23.4s1.92 16.8 4.35 23.4c2.91 7.89 6.21 16.8 6.21 33.8 0 8.28-6.72 15-15 15z" fill="#3b1b14"/><path d="m4038 3509c-8.28 0-15-6.72-15-15 0-11.6-1.92-16.8-4.35-23.4-2.91-7.89-6.21-16.8-6.21-33.8s3.3-25.9 6.21-33.8c2.43-6.59 4.35-11.8 4.35-23.4s-1.92-16.8-4.35-23.4c-2.91-7.89-6.21-16.8-6.21-33.8s3.3-25.9 6.21-33.8c2.43-6.59 4.35-11.8 4.35-23.4 0-8.28 6.72-15 15-15s15 6.72 15 15c0 17-3.3 25.9-6.21 33.8-2.43 6.59-4.35 11.8-4.35 23.4 0 11.6 1.92 16.8 4.35 23.4 2.91 7.89 6.21 16.8 6.21 33.8s-3.3 25.9-6.21 33.8c-2.43 6.59-4.35 11.8-4.35 23.4s1.92 16.8 4.35 23.4c2.91 7.89 6.21 16.8 6.21 33.8 0 8.28-6.72 15-15 15z" fill="#572b21"/></g></g></g><g transform="matrix(-.00858 -.916 -.916 .00858 556 620)"><g transform="matrix(.307 0 0 .307 -814 -633)" stroke="null"><g stroke="null"><path d="m3632 3615h-14.5c-59.9 0-109-48.7-109-109v-235c0-59.9 48.7-109 109-109h14.5c59.9 0 109 48.7 109 109v235c0 59.9-48.7 109-109 109z" fill="#ba602b"/><path d="m3632 3163h-7.25v452h7.25c59.9 0 109-48.7 109-109v-235c0-59.9-48.7-109-109-109z" fill="#964c22"/><path d="m3662 3516c-8.28 0-15-6.72-15-15 0-11.6-1.92-16.8-4.35-23.4-2.91-7.89-6.21-16.8-6.21-33.8s3.3-25.9 6.21-33.8c2.43-6.59 4.35-11.8 4.35-23.4s-1.92-16.8-4.35-23.4c-2.91-7.89-6.21-16.8-6.21-33.8s3.3-25.9 6.21-33.8c2.43-6.59 4.35-11.8 4.35-23.4 0-8.28 6.72-15 15-15s15 6.72 15 15c0 17-3.3 25.9-6.21 33.8-2.43 6.59-4.35 11.8-4.35 23.4 0 11.6 1.92 16.8 4.35 23.4 2.91 7.89 6.21 16.8 6.21 33.8s-3.3 25.9-6.21 33.8c-2.43 6.59-4.35 11.8-4.35 23.4s1.92 16.8 4.35 23.4c2.91 7.89 6.21 16.8 6.21 33.8 0 8.28-6.72 15-15 15z" fill="#3b1b14"/><path d="m3599 3516c-8.28 0-15-6.72-15-15 0-11.6-1.92-16.8-4.35-23.4-2.91-7.89-6.21-16.8-6.21-33.8s3.3-25.9 6.21-33.8c2.43-6.59 4.35-11.8 4.35-23.4s-1.92-16.8-4.35-23.4c-2.91-7.89-6.21-16.8-6.21-33.8s3.3-25.9 6.21-33.8c2.43-6.59 4.35-11.8 4.35-23.4 0-8.28 6.72-15 15-15s15 6.72 15 15c0 17-3.3 25.9-6.21 33.8-2.43 6.59-4.35 11.8-4.35 23.4 0 11.6 1.92 16.8 4.35 23.4 2.91 7.89 6.21 16.8 6.21 33.8s-3.3 25.9-6.21 33.8c-2.43 6.59-4.35 11.8-4.35 23.4s1.92 16.8 4.35 23.4c2.91 7.89 6.21 16.8 6.21 33.8 0 8.28-6.72 15-15 15z" fill="#572b21"/></g></g></g><g transform="matrix(.916 -.00998 -.00998 -.916 -166 795)"><g transform="matrix(.316 0 0 .316 -878 -673)" stroke="null"><g stroke="null"><path d="m3708 3443v-14.5c0-59.9 48.7-109 109-109h235c59.9 0 109 48.7 109 109v14.5c0 59.9-48.7 109-109 109h-235c-59.9 0-109-48.7-109-109z" fill="#82401a"/><path d="m4160 3443v-7.25h-452v7.25c0 59.9 48.7 109 109 109h235c59.9 0 109-48.7 109-109z" fill="#6f3716"/><path d="m3808 3473c0-8.28 6.72-15 15-15 11.6 0 16.8-1.92 23.4-4.35 7.89-2.91 16.8-6.21 33.8-6.21s25.9 3.3 33.8 6.21c6.59 2.43 11.8 4.35 23.4 4.35 11.6 0 16.8-1.92 23.4-4.35 7.89-2.91 16.8-6.21 33.8-6.21s25.9 3.3 33.8 6.21c6.59 2.43 11.8 4.35 23.4 4.35 8.28 0 15 6.72 15 15s-6.72 15-15 15c-17 0-25.9-3.3-33.8-6.21-6.59-2.43-11.8-4.35-23.4-4.35-11.6 0-16.8 1.92-23.4 4.35-7.89 2.91-16.8 6.21-33.8 6.21s-25.9-3.3-33.8-6.21c-6.59-2.43-11.8-4.35-23.4-4.35s-16.8 1.92-23.4 4.35c-7.89 2.91-16.8 6.21-33.8 6.21-8.28 0-15-6.72-15-15z" fill="#3b1b14"/><path d="m3808 3410c0-8.28 6.72-15 15-15 11.6 0 16.8-1.92 23.4-4.35 7.89-2.91 16.8-6.21 33.8-6.21s25.9 3.3 33.8 6.21c6.59 2.43 11.8 4.35 23.4 4.35 11.6 0 16.8-1.92 23.4-4.35 7.89-2.91 16.8-6.21 33.8-6.21s25.9 3.3 33.8 6.21c6.59 2.43 11.8 4.35 23.4 4.35 8.28 0 15 6.72 15 15s-6.72 15-15 15c-17 0-25.9-3.3-33.8-6.21-6.59-2.43-11.8-4.35-23.4-4.35-11.6 0-16.8 1.92-23.4 4.35-7.89 2.91-16.8 6.21-33.8 6.21s-25.9-3.3-33.8-6.21c-6.59-2.43-11.8-4.35-23.4-4.35s-16.8 1.92-23.4 4.35c-7.89 2.91-16.8 6.21-33.8 6.21-8.28 0-15-6.72-15-15z" fill="#572b21"/></g></g></g><g transform="matrix(-.916 -.00893 -.00893 .916 520 93.9)"><g transform="matrix(.316 0 0 .316 -878 -673)" stroke="null"><g stroke="null"><path d="m4100 3478v-14.5c0-59.9 48.7-109 109-109h235c59.9 0 109 48.7 109 109v14.5c0 59.9-48.7 109-109 109h-235c-59.9 0-109-48.7-109-109z" fill="#82401a"/><path d="m4552 3478v-7.25h-452v7.25c0 59.9 48.7 109 109 109h235c59.9 0 109-48.7 109-109z" fill="#6f3716"/><path d="m4200 3507c0-8.28 6.72-15 15-15 11.6 0 16.8-1.92 23.4-4.35 7.89-2.91 16.8-6.21 33.8-6.21s25.9 3.3 33.8 6.21c6.59 2.43 11.8 4.35 23.4 4.35 11.6 0 16.8-1.92 23.4-4.35 7.89-2.91 16.8-6.21 33.8-6.21s25.9 3.3 33.8 6.21c6.59 2.43 11.8 4.35 23.4 4.35 8.28 0 15 6.72 15 15s-6.72 15-15 15c-17 0-25.9-3.3-33.8-6.21-6.59-2.43-11.8-4.35-23.4-4.35-11.6 0-16.8 1.92-23.4 4.35-7.89 2.91-16.8 6.21-33.8 6.21s-25.9-3.3-33.8-6.21c-6.59-2.43-11.8-4.35-23.4-4.35s-16.8 1.92-23.4 4.35c-7.89 2.91-16.8 6.21-33.8 6.21-8.28 0-15-6.72-15-15z" fill="#3b1b14"/><path d="m4200 3444c0-8.28 6.72-15 15-15 11.6 0 16.8-1.92 23.4-4.35 7.89-2.91 16.8-6.21 33.8-6.21s25.9 3.3 33.8 6.21c6.59 2.43 11.8 4.35 23.4 4.35 11.6 0 16.8-1.92 23.4-4.35 7.89-2.91 16.8-6.21 33.8-6.21s25.9 3.3 33.8 6.21c6.59 2.43 11.8 4.35 23.4 4.35 8.28 0 15 6.72 15 15 0 8.28-6.72 15-15 15-17 0-25.9-3.3-33.8-6.21-6.59-2.43-11.8-4.35-23.4-4.35-11.6 0-16.8 1.92-23.4 4.35-7.89 2.91-16.8 6.21-33.8 6.21s-25.9-3.3-33.8-6.21c-6.59-2.43-11.8-4.35-23.4-4.35s-16.8 1.92-23.4 4.35c-7.89 2.91-16.8 6.21-33.8 6.21-8.28 0-15-6.72-15-15z" fill="#572b21"/></g></g></g><g transform="matrix(-.0194 -.915 -.915 .0194 554 745)"><g transform="matrix(.307 0 0 .307 -814 -633)" stroke="null"><g stroke="null"><path d="m3632 3615h-14.5c-59.9 0-109-48.7-109-109v-235c0-59.9 48.7-109 109-109h14.5c59.9 0 109 48.7 109 109v235c0 59.9-48.7 109-109 109z" fill="#ba602b"/><path d="m3632 3163h-7.25v452h7.25c59.9 0 109-48.7 109-109v-235c0-59.9-48.7-109-109-109z" fill="#964c22"/><path d="m3662 3516c-8.28 0-15-6.72-15-15 0-11.6-1.92-16.8-4.35-23.4-2.91-7.89-6.21-16.8-6.21-33.8s3.3-25.9 6.21-33.8c2.43-6.59 4.35-11.8 4.35-23.4s-1.92-16.8-4.35-23.4c-2.91-7.89-6.21-16.8-6.21-33.8s3.3-25.9 6.21-33.8c2.43-6.59 4.35-11.8 4.35-23.4 0-8.28 6.72-15 15-15s15 6.72 15 15c0 17-3.3 25.9-6.21 33.8-2.43 6.59-4.35 11.8-4.35 23.4 0 11.6 1.92 16.8 4.35 23.4 2.91 7.89 6.21 16.8 6.21 33.8s-3.3 25.9-6.21 33.8c-2.43 6.59-4.35 11.8-4.35 23.4s1.92 16.8 4.35 23.4c2.91 7.89 6.21 16.8 6.21 33.8 0 8.28-6.72 15-15 15z" fill="#3b1b14"/><path d="m3599 3516c-8.28 0-15-6.72-15-15 0-11.6-1.92-16.8-4.35-23.4-2.91-7.89-6.21-16.8-6.21-33.8s3.3-25.9 6.21-33.8c2.43-6.59 4.35-11.8 4.35-23.4s-1.92-16.8-4.35-23.4c-2.91-7.89-6.21-16.8-6.21-33.8s3.3-25.9 6.21-33.8c2.43-6.59 4.35-11.8 4.35-23.4 0-8.28 6.72-15 15-15s15 6.72 15 15c0 17-3.3 25.9-6.21 33.8-2.43 6.59-4.35 11.8-4.35 23.4 0 11.6 1.92 16.8 4.35 23.4 2.91 7.89 6.21 16.8 6.21 33.8s-3.3 25.9-6.21 33.8c-2.43 6.59-4.35 11.8-4.35 23.4s1.92 16.8 4.35 23.4c2.91 7.89 6.21 16.8 6.21 33.8 0 8.28-6.72 15-15 15z" fill="#572b21"/></g></g></g><g transform="matrix(-.916 .0117 .0117 .916 417 -93.7)"><g transform="matrix(.316 0 0 .316 -878 -673)" stroke="null"><g stroke="null"><path d="m3553 3237v-14.5c0-59.9 48.7-109 109-109h235c59.9 0 109 48.7 109 109v14.5c0 59.9-48.7 109-109 109h-235c-59.9 0-109-48.7-109-109z" fill="#82401a"/><path d="m4e3 3237v-7.25h-452v7.25c0 59.9 48.7 109 109 109h235c59.9 0 109-48.7 109-109z" fill="#6f3716"/><path d="m3653 3267c0-8.28 6.72-15 15-15 11.6 0 16.8-1.92 23.4-4.35 7.89-2.91 16.8-6.21 33.8-6.21s25.9 3.3 33.8 6.21c6.59 2.43 11.8 4.35 23.4 4.35 11.6 0 16.8-1.92 23.4-4.35 7.89-2.91 16.8-6.21 33.8-6.21s25.9 3.3 33.8 6.21c6.59 2.43 11.8 4.35 23.4 4.35 8.28 0 15 6.72 15 15s-6.72 15-15 15c-17 0-25.9-3.3-33.8-6.21-6.59-2.43-11.8-4.35-23.4-4.35-11.6 0-16.8 1.92-23.4 4.35-7.89 2.91-16.8 6.21-33.8 6.21s-25.9-3.3-33.8-6.21c-6.59-2.43-11.8-4.35-23.4-4.35s-16.8 1.92-23.4 4.35c-7.89 2.91-16.8 6.21-33.8 6.21-8.28 0-15-6.72-15-15z" fill="#3b1b14"/><path d="m3653 3204c0-8.28 6.72-15 15-15 11.6 0 16.8-1.92 23.4-4.35 7.89-2.91 16.8-6.21 33.8-6.21s25.9 3.3 33.8 6.21c6.59 2.43 11.8 4.35 23.4 4.35 11.6 0 16.8-1.92 23.4-4.35 7.89-2.91 16.8-6.21 33.8-6.21s25.9 3.3 33.8 6.21c6.59 2.43 11.8 4.35 23.4 4.35 8.28 0 15 6.72 15 15s-6.72 15-15 15c-17 0-25.9-3.3-33.8-6.21-6.59-2.43-11.8-4.35-23.4-4.35-11.6 0-16.8 1.92-23.4 4.35-7.89 2.91-16.8 6.21-33.8 6.21s-25.9-3.3-33.8-6.21c-6.59-2.43-11.8-4.35-23.4-4.35s-16.8 1.92-23.4 4.35c-7.89 2.91-16.8 6.21-33.8 6.21-8.28 0-15-6.72-15-15z" fill="#572b21"/></g></g></g><g transform="matrix(-.873 .278 .278 .873 484 23.6)"><g transform="matrix(.307 0 0 .307 -814 -633)" stroke="null"><g stroke="null"><path d="m3932 3469h-14.5c-59.9 0-109-48.7-109-109v-235c0-59.9 48.7-109 109-109h14.5c59.9 0 109 48.7 109 109v235c0 59.9-48.7 109-109 109z" fill="#ba602b"/><path d="m3932 3017h-7.25v452h7.25c59.9 0 109-48.7 109-109v-235c0-59.9-48.7-109-109-109z" fill="#964c22"/><path d="m3961 3369c-8.28 0-15-6.72-15-15 0-11.6-1.92-16.8-4.35-23.4-2.91-7.89-6.21-16.8-6.21-33.8s3.3-25.9 6.21-33.8c2.43-6.59 4.35-11.8 4.35-23.4s-1.92-16.8-4.35-23.4c-2.91-7.89-6.21-16.8-6.21-33.8s3.3-25.9 6.21-33.8c2.43-6.59 4.35-11.8 4.35-23.4 0-8.28 6.72-15 15-15s15 6.72 15 15c0 17-3.3 25.9-6.21 33.8-2.43 6.59-4.35 11.8-4.35 23.4 0 11.6 1.92 16.8 4.35 23.4 2.91 7.89 6.21 16.8 6.21 33.8s-3.3 25.9-6.21 33.8c-2.43 6.59-4.35 11.8-4.35 23.4s1.92 16.8 4.35 23.4c2.91 7.89 6.21 16.8 6.21 33.8 0 8.28-6.72 15-15 15z" fill="#3b1b14"/><path d="m3898 3369c-8.28 0-15-6.72-15-15 0-11.6-1.92-16.8-4.35-23.4-2.91-7.89-6.21-16.8-6.21-33.8s3.3-25.9 6.21-33.8c2.43-6.59 4.35-11.8 4.35-23.4s-1.92-16.8-4.35-23.4c-2.91-7.89-6.21-16.8-6.21-33.8s3.3-25.9 6.21-33.8c2.43-6.59 4.35-11.8 4.35-23.4 0-8.28 6.72-15 15-15s15 6.72 15 15c0 17-3.3 25.9-6.21 33.8-2.43 6.59-4.35 11.8-4.35 23.4 0 11.6 1.92 16.8 4.35 23.4 2.91 7.89 6.21 16.8 6.21 33.8s-3.3 25.9-6.21 33.8c-2.43 6.59-4.35 11.8-4.35 23.4s1.92 16.8 4.35 23.4c2.91 7.89 6.21 16.8 6.21 33.8 0 8.28-6.72 15-15 15z" fill="#572b21"/></g></g></g><g transform="matrix(.915 .0302 .0302 -.915 -57.9 691)"><g transform="matrix(.316 0 0 .316 -878 -673)" stroke="null"><g stroke="null"><path d="m3341 3563v-14.5c0-59.9 48.7-109 109-109h235c59.9 0 109 48.7 109 109v14.5c0 59.9-48.7 109-109 109h-235c-59.9 0-109-48.7-109-109z" fill="#82401a"/><path d="m3793 3563v-7.25h-452v7.25c0 59.9 48.7 109 109 109h235c59.9 0 109-48.7 109-109z" fill="#6f3716"/><path d="m3441 3593c0-8.28 6.72-15 15-15 11.6 0 16.8-1.92 23.4-4.35 7.89-2.91 16.8-6.21 33.8-6.21s25.9 3.3 33.8 6.21c6.59 2.43 11.8 4.35 23.4 4.35 11.6 0 16.8-1.92 23.4-4.35 7.89-2.91 16.8-6.21 33.8-6.21s25.9 3.3 33.8 6.21c6.59 2.43 11.8 4.35 23.4 4.35 8.28 0 15 6.72 15 15s-6.72 15-15 15c-17 0-25.9-3.3-33.8-6.21-6.59-2.43-11.8-4.35-23.4-4.35-11.6 0-16.8 1.92-23.4 4.35-7.89 2.91-16.8 6.21-33.8 6.21s-25.9-3.3-33.8-6.21c-6.59-2.43-11.8-4.35-23.4-4.35s-16.8 1.92-23.4 4.35c-7.89 2.91-16.8 6.21-33.8 6.21-8.28 0-15-6.72-15-15z" fill="#3b1b14"/><path d="m3441 3530c0-8.28 6.72-15 15-15 11.6 0 16.8-1.92 23.4-4.35 7.89-2.91 16.8-6.21 33.8-6.21s25.9 3.3 33.8 6.21c6.59 2.43 11.8 4.35 23.4 4.35 11.6 0 16.8-1.92 23.4-4.35 7.89-2.91 16.8-6.21 33.8-6.21s25.9 3.3 33.8 6.21c6.59 2.43 11.8 4.35 23.4 4.35 8.28 0 15 6.72 15 15s-6.72 15-15 15c-17 0-25.9-3.3-33.8-6.21-6.59-2.43-11.8-4.35-23.4-4.35-11.6 0-16.8 1.92-23.4 4.35-7.89 2.91-16.8 6.21-33.8 6.21s-25.9-3.3-33.8-6.21c-6.59-2.43-11.8-4.35-23.4-4.35s-16.8 1.92-23.4 4.35c-7.89 2.91-16.8 6.21-33.8 6.21-8.28 0-15-6.72-15-15z" fill="#572b21"/></g></g></g><g transform="matrix(-.00414 -.916 -.916 .00414 456 382)"><g transform="matrix(.307 0 0 .307 -814 -633)" stroke="null"><g stroke="null"><path d="m3431 3502h-14.5c-59.9 0-109-48.7-109-109v-235c0-59.9 48.7-109 109-109h14.5c59.9 0 109 48.7 109 109v235c0 59.9-48.7 109-109 109z" fill="#ba602b"/><path d="m3431 3049h-7.25v452h7.25c59.9 0 109-48.7 109-109v-235c0-59.9-48.7-109-109-109z" fill="#964c22"/><path d="m3460 3402c-8.28 0-15-6.72-15-15 0-11.6-1.92-16.8-4.35-23.4-2.91-7.89-6.21-16.8-6.21-33.8s3.3-25.9 6.21-33.8c2.43-6.59 4.35-11.8 4.35-23.4s-1.92-16.8-4.35-23.4c-2.91-7.89-6.21-16.8-6.21-33.8s3.3-25.9 6.21-33.8c2.43-6.59 4.35-11.8 4.35-23.4 0-8.28 6.72-15 15-15s15 6.72 15 15c0 17-3.3 25.9-6.21 33.8-2.43 6.59-4.35 11.8-4.35 23.4 0 11.6 1.92 16.8 4.35 23.4 2.91 7.89 6.21 16.8 6.21 33.8s-3.3 25.9-6.21 33.8c-2.43 6.59-4.35 11.8-4.35 23.4s1.92 16.8 4.35 23.4c2.91 7.89 6.21 16.8 6.21 33.8 0 8.28-6.72 15-15 15z" fill="#3b1b14"/><path d="m3397 3402c-8.28 0-15-6.72-15-15 0-11.6-1.92-16.8-4.35-23.4-2.91-7.89-6.21-16.8-6.21-33.8s3.3-25.9 6.21-33.8c2.43-6.59 4.35-11.8 4.35-23.4s-1.92-16.8-4.35-23.4c-2.91-7.89-6.21-16.8-6.21-33.8s3.3-25.9 6.21-33.8c2.43-6.59 4.35-11.8 4.35-23.4 0-8.28 6.72-15 15-15s15 6.72 15 15c0 17-3.3 25.9-6.21 33.8-2.43 6.59-4.35 11.8-4.35 23.4 0 11.6 1.92 16.8 4.35 23.4 2.91 7.89 6.21 16.8 6.21 33.8s-3.3 25.9-6.21 33.8c-2.43 6.59-4.35 11.8-4.35 23.4s1.92 16.8 4.35 23.4c2.91 7.89 6.21 16.8 6.21 33.8 0 8.28-6.72 15-15 15z" fill="#572b21"/></g></g></g></g></svg>
