<svg width="512" height="512" version="1.1" xmlns="http://www.w3.org/2000/svg"><g><title>background</title><rect id="canvas_background" x="-1" y="-1" width="514" height="514" fill="none"/><g id="canvasGrid" x="0" y="0" width="100%" height="100%" display="none" overflow="visible"><rect width="100%" height="100%" fill="url(#gridpattern)" stroke-width="0"/></g></g><g><title>Layer 1</title><g stroke="null"><g transform="matrix(.99 0 0 .99 -179 -226)"><title transform="translate(184 274)">background</title><rect x="183" y="273" width="514" height="402" fill="none"/><g display="none"><rect x="184" y="274" width="512" height="512" fill="url(#gridpattern)" stroke="null" stroke-width="0"/></g></g><g transform="matrix(.99 0 0 .99 -179 -226)"><title transform="translate(184 274)">Layer 1</title><g transform="rotate(6.01 392 363)"><g transform="matrix(.307 0 0 .307 -814 -633)" stroke="null"><g stroke="null"><path d="m3932 3469h-14.5c-59.9 0-109-48.7-109-109v-235c0-59.9 48.7-109 109-109h14.5c59.9 0 109 48.7 109 109v235c0 59.9-48.7 109-109 109z" fill="#ba602b"/><path d="m3932 3017h-7.25v452h7.25c59.9 0 109-48.7 109-109v-235c0-59.9-48.7-109-109-109z" fill="#964c22"/><path d="m3961 3369c-8.28 0-15-6.72-15-15 0-11.6-1.92-16.8-4.35-23.4-2.91-7.89-6.21-16.8-6.21-33.8s3.3-25.9 6.21-33.8c2.43-6.59 4.35-11.8 4.35-23.4s-1.92-16.8-4.35-23.4c-2.91-7.89-6.21-16.8-6.21-33.8s3.3-25.9 6.21-33.8c2.43-6.59 4.35-11.8 4.35-23.4 0-8.28 6.72-15 15-15s15 6.72 15 15c0 17-3.3 25.9-6.21 33.8-2.43 6.59-4.35 11.8-4.35 23.4 0 11.6 1.92 16.8 4.35 23.4 2.91 7.89 6.21 16.8 6.21 33.8s-3.3 25.9-6.21 33.8c-2.43 6.59-4.35 11.8-4.35 23.4s1.92 16.8 4.35 23.4c2.91 7.89 6.21 16.8 6.21 33.8 0 8.28-6.72 15-15 15z" fill="#3b1b14"/><path d="m3898 3369c-8.28 0-15-6.72-15-15 0-11.6-1.92-16.8-4.35-23.4-2.91-7.89-6.21-16.8-6.21-33.8s3.3-25.9 6.21-33.8c2.43-6.59 4.35-11.8 4.35-23.4s-1.92-16.8-4.35-23.4c-2.91-7.89-6.21-16.8-6.21-33.8s3.3-25.9 6.21-33.8c2.43-6.59 4.35-11.8 4.35-23.4 0-8.28 6.72-15 15-15s15 6.72 15 15c0 17-3.3 25.9-6.21 33.8-2.43 6.59-4.35 11.8-4.35 23.4 0 11.6 1.92 16.8 4.35 23.4 2.91 7.89 6.21 16.8 6.21 33.8s-3.3 25.9-6.21 33.8c-2.43 6.59-4.35 11.8-4.35 23.4s1.92 16.8 4.35 23.4c2.91 7.89 6.21 16.8 6.21 33.8 0 8.28-6.72 15-15 15z" fill="#572b21"/></g></g></g><g transform="rotate(260 458 359)"><g transform="matrix(.316 0 0 .316 -878 -673)" stroke="null"><g stroke="null"><path d="m4e3 3272v-14.5c0-59.9 48.7-109 109-109h235c59.9 0 109 48.7 109 109v14.5c0 59.9-48.7 109-109 109h-235c-59.9 0-109-48.7-109-109z" fill="#82401a"/><path d="m4454 3272v-7.25h-452v7.25c0 59.9 48.7 109 109 109h235c59.9 0 109-48.7 109-109z" fill="#6f3716"/><path d="m4102 3302c0-8.28 6.72-15 15-15 11.6 0 16.8-1.92 23.4-4.35 7.89-2.91 16.8-6.21 33.8-6.21s25.9 3.3 33.8 6.21c6.59 2.43 11.8 4.35 23.4 4.35 11.6 0 16.8-1.92 23.4-4.35 7.89-2.91 16.8-6.21 33.8-6.21s25.9 3.3 33.8 6.21c6.59 2.43 11.8 4.35 23.4 4.35 8.28 0 15 6.72 15 15s-6.72 15-15 15c-17 0-25.9-3.3-33.8-6.21-6.59-2.43-11.8-4.35-23.4-4.35-11.6 0-16.8 1.92-23.4 4.35-7.89 2.91-16.8 6.21-33.8 6.21s-25.9-3.3-33.8-6.21c-6.59-2.43-11.8-4.35-23.4-4.35s-16.8 1.92-23.4 4.35c-7.89 2.91-16.8 6.21-33.8 6.21-8.28 0-15-6.72-15-15h-1e-5z" fill="#3b1b14"/><path d="m4102 3239c0-8.28 6.72-15 15-15 11.6 0 16.8-1.92 23.4-4.35 7.89-2.91 16.8-6.21 33.8-6.21s25.9 3.3 33.8 6.21c6.59 2.43 11.8 4.35 23.4 4.35 11.6 0 16.8-1.92 23.4-4.35 7.89-2.91 16.8-6.21 33.8-6.21s25.9 3.3 33.8 6.21c6.59 2.43 11.8 4.35 23.4 4.35 8.28 0 15 6.72 15 15s-6.72 15-15 15c-17 0-25.9-3.3-33.8-6.21-6.59-2.43-11.8-4.35-23.4-4.35-11.6 0-16.8 1.92-23.4 4.35-7.89 2.91-16.8 6.21-33.8 6.21s-25.9-3.3-33.8-6.21c-6.59-2.43-11.8-4.35-23.4-4.35s-16.8 1.92-23.4 4.35c-7.89 2.91-16.8 6.21-33.8 6.21-8.28 0-15-6.72-15-15h-1e-5z" fill="#572b21"/></g></g></g><g transform="rotate(-5.41 238 373)"><g transform="matrix(.307 0 0 .307 -814 -633)" stroke="null"><g stroke="null"><path d="m3431 3502h-14.5c-59.9 0-109-48.7-109-109v-235c0-59.9 48.7-109 109-109h14.5c59.9 0 109 48.7 109 109v235c0 59.9-48.7 109-109 109z" fill="#ba602b"/><path d="m3431 3049h-7.25v452h7.25c59.9 0 109-48.7 109-109v-235c0-59.9-48.7-109-109-109z" fill="#964c22"/><path d="m3460 3402c-8.28 0-15-6.72-15-15 0-11.6-1.92-16.8-4.35-23.4-2.91-7.89-6.21-16.8-6.21-33.8s3.3-25.9 6.21-33.8c2.43-6.59 4.35-11.8 4.35-23.4s-1.92-16.8-4.35-23.4c-2.91-7.89-6.21-16.8-6.21-33.8s3.3-25.9 6.21-33.8c2.43-6.59 4.35-11.8 4.35-23.4 0-8.28 6.72-15 15-15s15 6.72 15 15c0 17-3.3 25.9-6.21 33.8-2.43 6.59-4.35 11.8-4.35 23.4 0 11.6 1.92 16.8 4.35 23.4 2.91 7.89 6.21 16.8 6.21 33.8s-3.3 25.9-6.21 33.8c-2.43 6.59-4.35 11.8-4.35 23.4s1.92 16.8 4.35 23.4c2.91 7.89 6.21 16.8 6.21 33.8 0 8.28-6.72 15-15 15z" fill="#3b1b14"/><path d="m3397 3402c-8.28 0-15-6.72-15-15 0-11.6-1.92-16.8-4.35-23.4-2.91-7.89-6.21-16.8-6.21-33.8s3.3-25.9 6.21-33.8c2.43-6.59 4.35-11.8 4.35-23.4s-1.92-16.8-4.35-23.4c-2.91-7.89-6.21-16.8-6.21-33.8s3.3-25.9 6.21-33.8c2.43-6.59 4.35-11.8 4.35-23.4 0-8.28 6.72-15 15-15s15 6.72 15 15c0 17-3.3 25.9-6.21 33.8-2.43 6.59-4.35 11.8-4.35 23.4 0 11.6 1.92 16.8 4.35 23.4 2.91 7.89 6.21 16.8 6.21 33.8s-3.3 25.9-6.21 33.8c-2.43 6.59-4.35 11.8-4.35 23.4s1.92 16.8 4.35 23.4c2.91 7.89 6.21 16.8 6.21 33.8 0 8.28-6.72 15-15 15z" fill="#572b21"/></g></g></g><g transform="rotate(-62 316 348)"><g transform="matrix(.316 0 0 .316 -878 -673)" stroke="null"><g stroke="null"><path d="m3553 3237v-14.5c0-59.9 48.7-109 109-109h235c59.9 0 109 48.7 109 109v14.5c0 59.9-48.7 109-109 109h-235c-59.9 0-109-48.7-109-109z" fill="#82401a"/><path d="m4e3 3237v-7.25h-452v7.25c0 59.9 48.7 109 109 109h235c59.9 0 109-48.7 109-109z" fill="#6f3716"/><path d="m3653 3267c0-8.28 6.72-15 15-15 11.6 0 16.8-1.92 23.4-4.35 7.89-2.91 16.8-6.21 33.8-6.21s25.9 3.3 33.8 6.21c6.59 2.43 11.8 4.35 23.4 4.35 11.6 0 16.8-1.92 23.4-4.35 7.89-2.91 16.8-6.21 33.8-6.21s25.9 3.3 33.8 6.21c6.59 2.43 11.8 4.35 23.4 4.35 8.28 0 15 6.72 15 15s-6.72 15-15 15c-17 0-25.9-3.3-33.8-6.21-6.59-2.43-11.8-4.35-23.4-4.35-11.6 0-16.8 1.92-23.4 4.35-7.89 2.91-16.8 6.21-33.8 6.21s-25.9-3.3-33.8-6.21c-6.59-2.43-11.8-4.35-23.4-4.35s-16.8 1.92-23.4 4.35c-7.89 2.91-16.8 6.21-33.8 6.21-8.28 0-15-6.72-15-15z" fill="#3b1b14"/><path d="m3653 3204c0-8.28 6.72-15 15-15 11.6 0 16.8-1.92 23.4-4.35 7.89-2.91 16.8-6.21 33.8-6.21s25.9 3.3 33.8 6.21c6.59 2.43 11.8 4.35 23.4 4.35 11.6 0 16.8-1.92 23.4-4.35 7.89-2.91 16.8-6.21 33.8-6.21s25.9 3.3 33.8 6.21c6.59 2.43 11.8 4.35 23.4 4.35 8.28 0 15 6.72 15 15s-6.72 15-15 15c-17 0-25.9-3.3-33.8-6.21-6.59-2.43-11.8-4.35-23.4-4.35-11.6 0-16.8 1.92-23.4 4.35-7.89 2.91-16.8 6.21-33.8 6.21s-25.9-3.3-33.8-6.21c-6.59-2.43-11.8-4.35-23.4-4.35s-16.8 1.92-23.4 4.35c-7.89 2.91-16.8 6.21-33.8 6.21-8.28 0-15-6.72-15-15z" fill="#572b21"/></g></g></g><g transform="rotate(12.9 435 406)"><g transform="matrix(.307 0 0 .307 -814 -633)" stroke="null"><g stroke="null"><path d="m4072 3609h-14.5c-59.9 0-109-48.7-109-109v-235c0-59.9 48.7-109 109-109h14.5c59.9 0 109 48.7 109 109v235c0 59.9-48.7 109-109 109z" fill="#ba602b"/><path d="m4072 3157h-7.25v452h7.25c59.9 0 109-48.7 109-109v-235c0-59.9-48.7-109-109-109z" fill="#964c22"/><path d="m4101 3509c-8.28 0-15-6.72-15-15 0-11.6-1.92-16.8-4.35-23.4-2.91-7.89-6.21-16.8-6.21-33.8s3.3-25.9 6.21-33.8c2.43-6.59 4.35-11.8 4.35-23.4s-1.92-16.8-4.35-23.4c-2.91-7.89-6.21-16.8-6.21-33.8s3.3-25.9 6.21-33.8c2.43-6.59 4.35-11.8 4.35-23.4 0-8.28 6.72-15 15-15s15 6.72 15 15c0 17-3.3 25.9-6.21 33.8-2.43 6.59-4.35 11.8-4.35 23.4 0 11.6 1.92 16.8 4.35 23.4 2.91 7.89 6.21 16.8 6.21 33.8s-3.3 25.9-6.21 33.8c-2.43 6.59-4.35 11.8-4.35 23.4s1.92 16.8 4.35 23.4c2.91 7.89 6.21 16.8 6.21 33.8 0 8.28-6.72 15-15 15z" fill="#3b1b14"/><path d="m4038 3509c-8.28 0-15-6.72-15-15 0-11.6-1.92-16.8-4.35-23.4-2.91-7.89-6.21-16.8-6.21-33.8s3.3-25.9 6.21-33.8c2.43-6.59 4.35-11.8 4.35-23.4s-1.92-16.8-4.35-23.4c-2.91-7.89-6.21-16.8-6.21-33.8s3.3-25.9 6.21-33.8c2.43-6.59 4.35-11.8 4.35-23.4 0-8.28 6.72-15 15-15s15 6.72 15 15c0 17-3.3 25.9-6.21 33.8-2.43 6.59-4.35 11.8-4.35 23.4 0 11.6 1.92 16.8 4.35 23.4 2.91 7.89 6.21 16.8 6.21 33.8s-3.3 25.9-6.21 33.8c-2.43 6.59-4.35 11.8-4.35 23.4s1.92 16.8 4.35 23.4c2.91 7.89 6.21 16.8 6.21 33.8 0 8.28-6.72 15-15 15z" fill="#572b21"/></g></g></g><g transform="rotate(-14 300 408)"><g transform="matrix(.307 0 0 .307 -814 -633)" stroke="null"><g stroke="null"><path d="m3632 3615h-14.5c-59.9 0-109-48.7-109-109v-235c0-59.9 48.7-109 109-109h14.5c59.9 0 109 48.7 109 109v235c0 59.9-48.7 109-109 109z" fill="#ba602b"/><path d="m3632 3163h-7.25v452h7.25c59.9 0 109-48.7 109-109v-235c0-59.9-48.7-109-109-109z" fill="#964c22"/><path d="m3662 3516c-8.28 0-15-6.72-15-15 0-11.6-1.92-16.8-4.35-23.4-2.91-7.89-6.21-16.8-6.21-33.8s3.3-25.9 6.21-33.8c2.43-6.59 4.35-11.8 4.35-23.4s-1.92-16.8-4.35-23.4c-2.91-7.89-6.21-16.8-6.21-33.8s3.3-25.9 6.21-33.8c2.43-6.59 4.35-11.8 4.35-23.4 0-8.28 6.72-15 15-15s15 6.72 15 15c0 17-3.3 25.9-6.21 33.8-2.43 6.59-4.35 11.8-4.35 23.4 0 11.6 1.92 16.8 4.35 23.4 2.91 7.89 6.21 16.8 6.21 33.8s-3.3 25.9-6.21 33.8c-2.43 6.59-4.35 11.8-4.35 23.4s1.92 16.8 4.35 23.4c2.91 7.89 6.21 16.8 6.21 33.8 0 8.28-6.72 15-15 15z" fill="#3b1b14"/><path d="m3599 3516c-8.28 0-15-6.72-15-15 0-11.6-1.92-16.8-4.35-23.4-2.91-7.89-6.21-16.8-6.21-33.8s3.3-25.9 6.21-33.8c2.43-6.59 4.35-11.8 4.35-23.4s-1.92-16.8-4.35-23.4c-2.91-7.89-6.21-16.8-6.21-33.8s3.3-25.9 6.21-33.8c2.43-6.59 4.35-11.8 4.35-23.4 0-8.28 6.72-15 15-15s15 6.72 15 15c0 17-3.3 25.9-6.21 33.8-2.43 6.59-4.35 11.8-4.35 23.4 0 11.6 1.92 16.8 4.35 23.4 2.91 7.89 6.21 16.8 6.21 33.8s-3.3 25.9-6.21 33.8c-2.43 6.59-4.35 11.8-4.35 23.4s1.92 16.8 4.35 23.4c2.91 7.89 6.21 16.8 6.21 33.8 0 8.28-6.72 15-15 15z" fill="#572b21"/></g></g></g><g transform="rotate(-72.5 365 413)"><g transform="matrix(.316 0 0 .316 -878 -673)" stroke="null"><g stroke="null"><path d="m3708 3443v-14.5c0-59.9 48.7-109 109-109h235c59.9 0 109 48.7 109 109v14.5c0 59.9-48.7 109-109 109h-235c-59.9 0-109-48.7-109-109z" fill="#82401a"/><path d="m4160 3443v-7.25h-452v7.25c0 59.9 48.7 109 109 109h235c59.9 0 109-48.7 109-109z" fill="#6f3716"/><path d="m3808 3473c0-8.28 6.72-15 15-15 11.6 0 16.8-1.92 23.4-4.35 7.89-2.91 16.8-6.21 33.8-6.21s25.9 3.3 33.8 6.21c6.59 2.43 11.8 4.35 23.4 4.35 11.6 0 16.8-1.92 23.4-4.35 7.89-2.91 16.8-6.21 33.8-6.21s25.9 3.3 33.8 6.21c6.59 2.43 11.8 4.35 23.4 4.35 8.28 0 15 6.72 15 15s-6.72 15-15 15c-17 0-25.9-3.3-33.8-6.21-6.59-2.43-11.8-4.35-23.4-4.35-11.6 0-16.8 1.92-23.4 4.35-7.89 2.91-16.8 6.21-33.8 6.21s-25.9-3.3-33.8-6.21c-6.59-2.43-11.8-4.35-23.4-4.35s-16.8 1.92-23.4 4.35c-7.89 2.91-16.8 6.21-33.8 6.21-8.28 0-15-6.72-15-15z" fill="#3b1b14"/><path d="m3808 3410c0-8.28 6.72-15 15-15 11.6 0 16.8-1.92 23.4-4.35 7.89-2.91 16.8-6.21 33.8-6.21s25.9 3.3 33.8 6.21c6.59 2.43 11.8 4.35 23.4 4.35 11.6 0 16.8-1.92 23.4-4.35 7.89-2.91 16.8-6.21 33.8-6.21s25.9 3.3 33.8 6.21c6.59 2.43 11.8 4.35 23.4 4.35 8.28 0 15 6.72 15 15s-6.72 15-15 15c-17 0-25.9-3.3-33.8-6.21-6.59-2.43-11.8-4.35-23.4-4.35-11.6 0-16.8 1.92-23.4 4.35-7.89 2.91-16.8 6.21-33.8 6.21s-25.9-3.3-33.8-6.21c-6.59-2.43-11.8-4.35-23.4-4.35s-16.8 1.92-23.4 4.35c-7.89 2.91-16.8 6.21-33.8 6.21-8.28 0-15-6.72-15-15z" fill="#572b21"/></g></g></g><g transform="rotate(226 249 451)"><g transform="matrix(.316 0 0 .316 -878 -673)" stroke="null"><g stroke="null"><path d="m3341 3563v-14.5c0-59.9 48.7-109 109-109h235c59.9 0 109 48.7 109 109v14.5c0 59.9-48.7 109-109 109h-235c-59.9 0-109-48.7-109-109h-1e-5z" fill="#82401a"/><path d="m3793 3563v-7.25h-452v7.25c0 59.9 48.7 109 109 109h235c59.9 0 109-48.7 109-109h-1e-5z" fill="#6f3716"/><path d="m3441 3593c0-8.28 6.72-15 15-15 11.6 0 16.8-1.92 23.4-4.35 7.89-2.91 16.8-6.21 33.8-6.21s25.9 3.3 33.8 6.21c6.59 2.43 11.8 4.35 23.4 4.35 11.6 0 16.8-1.92 23.4-4.35 7.89-2.91 16.8-6.21 33.8-6.21s25.9 3.3 33.8 6.21c6.59 2.43 11.8 4.35 23.4 4.35 8.28 0 15 6.72 15 15s-6.72 15-15 15c-17 0-25.9-3.3-33.8-6.21-6.59-2.43-11.8-4.35-23.4-4.35-11.6 0-16.8 1.92-23.4 4.35-7.89 2.91-16.8 6.21-33.8 6.21s-25.9-3.3-33.8-6.21c-6.59-2.43-11.8-4.35-23.4-4.35s-16.8 1.92-23.4 4.35c-7.89 2.91-16.8 6.21-33.8 6.21-8.28 0-15-6.72-15-15z" fill="#3b1b14"/><path d="m3441 3530c0-8.28 6.72-15 15-15 11.6 0 16.8-1.92 23.4-4.35 7.89-2.91 16.8-6.21 33.8-6.21s25.9 3.3 33.8 6.21c6.59 2.43 11.8 4.35 23.4 4.35 11.6 0 16.8-1.92 23.4-4.35 7.89-2.91 16.8-6.21 33.8-6.21s25.9 3.3 33.8 6.21c6.59 2.43 11.8 4.35 23.4 4.35 8.28 0 15 6.72 15 15s-6.72 15-15 15c-17 0-25.9-3.3-33.8-6.21-6.59-2.43-11.8-4.35-23.4-4.35-11.6 0-16.8 1.92-23.4 4.35-7.89 2.91-16.8 6.21-33.8 6.21s-25.9-3.3-33.8-6.21c-6.59-2.43-11.8-4.35-23.4-4.35s-16.8 1.92-23.4 4.35c-7.89 2.91-16.8 6.21-33.8 6.21-8.28 0-15-6.72-15-15z" fill="#572b21"/></g></g></g><g transform="rotate(-33.9 489 424)"><g transform="matrix(.316 0 0 .316 -878 -673)" stroke="null"><g stroke="null"><path d="m4100 3478v-14.5c0-59.9 48.7-109 109-109h235c59.9 0 109 48.7 109 109v14.5c0 59.9-48.7 109-109 109h-235c-59.9 0-109-48.7-109-109z" fill="#82401a"/><path d="m4552 3478v-7.25h-452v7.25c0 59.9 48.7 109 109 109h235c59.9 0 109-48.7 109-109z" fill="#6f3716"/><path d="m4200 3507c0-8.28 6.72-15 15-15 11.6 0 16.8-1.92 23.4-4.35 7.89-2.91 16.8-6.21 33.8-6.21s25.9 3.3 33.8 6.21c6.59 2.43 11.8 4.35 23.4 4.35 11.6 0 16.8-1.92 23.4-4.35 7.89-2.91 16.8-6.21 33.8-6.21s25.9 3.3 33.8 6.21c6.59 2.43 11.8 4.35 23.4 4.35 8.28 0 15 6.72 15 15s-6.72 15-15 15c-17 0-25.9-3.3-33.8-6.21-6.59-2.43-11.8-4.35-23.4-4.35-11.6 0-16.8 1.92-23.4 4.35-7.89 2.91-16.8 6.21-33.8 6.21s-25.9-3.3-33.8-6.21c-6.59-2.43-11.8-4.35-23.4-4.35s-16.8 1.92-23.4 4.35c-7.89 2.91-16.8 6.21-33.8 6.21-8.28 0-15-6.72-15-15z" fill="#3b1b14"/><path d="m4200 3444c0-8.28 6.72-15 15-15 11.6 0 16.8-1.92 23.4-4.35 7.89-2.91 16.8-6.21 33.8-6.21s25.9 3.3 33.8 6.21c6.59 2.43 11.8 4.35 23.4 4.35 11.6 0 16.8-1.92 23.4-4.35 7.89-2.91 16.8-6.21 33.8-6.21s25.9 3.3 33.8 6.21c6.59 2.43 11.8 4.35 23.4 4.35 8.28 0 15 6.72 15 15s-6.72 15-15 15c-17 0-25.9-3.3-33.8-6.21-6.59-2.43-11.8-4.35-23.4-4.35-11.6 0-16.8 1.92-23.4 4.35-7.89 2.91-16.8 6.21-33.8 6.21s-25.9-3.3-33.8-6.21c-6.59-2.43-11.8-4.35-23.4-4.35s-16.8 1.92-23.4 4.35c-7.89 2.91-16.8 6.21-33.8 6.21-8.28 0-15-6.72-15-15z" fill="#572b21"/></g></g></g><g transform="matrix(.394 0 0 .394 -1156 -885)" stroke="null"><g stroke="null"><path d="m4366 3962h-14.5c-59.9 0-109-48.7-109-109v-235c0-59.9 48.7-109 109-109h14.5c59.9 0 109 48.7 109 109v235c0 59.9-48.7 109-109 109z" fill="#ba602b"/><path d="m4366 3510h-7.25v452h7.25c59.9 0 109-48.7 109-109v-235c0-59.9-48.7-109-109-109z" fill="#964c22"/><path d="m4396 3862c-8.28 0-15-6.72-15-15 0-11.6-1.92-16.8-4.35-23.4-2.91-7.89-6.21-16.8-6.21-33.8s3.3-25.9 6.21-33.8c2.43-6.59 4.35-11.8 4.35-23.4s-1.92-16.8-4.35-23.4c-2.91-7.89-6.21-16.8-6.21-33.8s3.3-25.9 6.21-33.8c2.43-6.59 4.35-11.8 4.35-23.4 0-8.28 6.72-15 15-15s15 6.72 15 15c0 17-3.3 25.9-6.21 33.8-2.43 6.59-4.35 11.8-4.35 23.4 0 11.6 1.92 16.8 4.35 23.4 2.91 7.89 6.21 16.8 6.21 33.8s-3.3 25.9-6.21 33.8c-2.43 6.59-4.35 11.8-4.35 23.4s1.92 16.8 4.35 23.4c2.91 7.89 6.21 16.8 6.21 33.8 0 8.28-6.72 15-15 15z" fill="#3b1b14"/><path d="m4333 3862c-8.28 0-15-6.72-15-15 0-11.6-1.92-16.8-4.35-23.4-2.91-7.89-6.21-16.8-6.21-33.8s3.3-25.9 6.21-33.8c2.43-6.59 4.35-11.8 4.35-23.4s-1.92-16.8-4.35-23.4c-2.91-7.89-6.21-16.8-6.21-33.8s3.3-25.9 6.21-33.8c2.43-6.59 4.35-11.8 4.35-23.4 0-8.28 6.72-15 15-15s15 6.72 15 15c0 17-3.3 25.9-6.21 33.8-2.43 6.59-4.35 11.8-4.35 23.4 0 11.6 1.92 16.8 4.35 23.4 2.91 7.89 6.21 16.8 6.21 33.8s-3.3 25.9-6.21 33.8c-2.43 6.59-4.35 11.8-4.35 23.4s1.92 16.8 4.35 23.4c2.91 7.89 6.21 16.8 6.21 33.8 0 8.28-6.72 15-15 15z" fill="#572b21"/></g><g stroke="null"><path d="m4243 3854v-14.5c0-59.9 48.7-109 109-109h235c59.9 0 109 48.7 109 109v14.5c0 59.9-48.7 109-109 109h-235c-59.9 0-109-48.7-109-109z" fill="#82401a"/><path d="m4695 3854v-7.25h-452v7.25c0 59.9 48.7 109 109 109h235c59.9 0 109-48.7 109-109z" fill="#6f3716"/><path d="m4343 3883c0-8.28 6.72-15 15-15 11.6 0 16.8-1.92 23.4-4.35 7.89-2.91 16.8-6.21 33.8-6.21s25.9 3.3 33.8 6.21c6.59 2.43 11.8 4.35 23.4 4.35 11.6 0 16.8-1.92 23.4-4.35 7.89-2.91 16.8-6.21 33.8-6.21s25.9 3.3 33.8 6.21c6.59 2.43 11.8 4.35 23.4 4.35 8.28 0 15 6.72 15 15s-6.72 15-15 15c-17 0-25.9-3.3-33.8-6.21-6.59-2.43-11.8-4.35-23.4-4.35-11.6 0-16.8 1.92-23.4 4.35-7.89 2.91-16.8 6.21-33.8 6.21s-25.9-3.3-33.8-6.21c-6.59-2.43-11.8-4.35-23.4-4.35s-16.8 1.92-23.4 4.35c-7.89 2.91-16.8 6.21-33.8 6.21-8.28 0-15-6.72-15-15z" fill="#3b1b14"/><path d="m4343 3820c0-8.28 6.72-15 15-15 11.6 0 16.8-1.92 23.4-4.35 7.89-2.91 16.8-6.21 33.8-6.21s25.9 3.3 33.8 6.21c6.59 2.43 11.8 4.35 23.4 4.35 11.6 0 16.8-1.92 23.4-4.35 7.89-2.91 16.8-6.21 33.8-6.21s25.9 3.3 33.8 6.21c6.59 2.43 11.8 4.35 23.4 4.35 8.28 0 15 6.72 15 15s-6.72 15-15 15c-17 0-25.9-3.3-33.8-6.21-6.59-2.43-11.8-4.35-23.4-4.35-11.6 0-16.8 1.92-23.4 4.35-7.89 2.91-16.8 6.21-33.8 6.21s-25.9-3.3-33.8-6.21c-6.59-2.43-11.8-4.35-23.4-4.35s-16.8 1.92-23.4 4.35c-7.89 2.91-16.8 6.21-33.8 6.21-8.28 0-15-6.72-15-15z" fill="#572b21"/></g></g><g transform="matrix(.761 0 0 .761 -2614 -2043)" stroke="null"><path d="m4129 3285c0-8.4-6.6-15-15-15h-420c-8.4 0-15 6.6-15 15 0 88.2 69.6 160 157 165-4.8 11.1-8.7 21.9-12.6 31.8-14.1 36.3-23.7 59.5-39 59.5-8.4 0-15 6.6-15 15s6.6 15 15 15h240c8.4 0 15-6.6 15-15s-6.6-15-15-15c-15.9 0-25.2-23.5-39.3-60.4-3.9-9.6-7.8-20.1-12.3-30.9 87-4.2 157-76.5 157-165z" fill="#ff6c6c"/><path d="m3973 3450c4.5 10.8 8.4 21.3 12.3 30.9 14.1 36.9 23.4 60.4 39.3 60.4 8.4 0 15 6.6 15 15s-6.6 15-15 15h-120v-301h210c8.4 0 15 6.6 15 15 0 88.2-69.6 160-157 165z" fill="#e63950"/></g></g></g></g></svg>
