<svg width="512" height="512" xmlns="http://www.w3.org/2000/svg">
 <!-- Created with Method Draw - http://github.com/duopixel/Method-Draw/ -->

 <g>
  <title>background</title>
  <rect fill="none" id="canvas_background" height="514" width="514" y="-1" x="-1"/>
  <g display="none" overflow="visible" y="0" x="0" height="100%" width="100%" id="canvasGrid">
   <rect fill="url(#gridpattern)" stroke-width="0" y="0" x="0" height="100%" width="100%"/>
  </g>
 </g>
 <g>
  <title>Layer 1</title>
  <!-- Created with Method Draw - http://github.com/duopixel/Method-Draw/ -->
  <g stroke="null" id="svg_293">
   <g stroke="null" transform="matrix(0.9901772432503895,0,0,0.9901772432503895,-179.48988285242854,-226.1723319421718) " id="svg_290">
    <title stroke="null" transform="translate(1.0099202394485474,-2.842170943040401e-14) translate(-1.0099202394485474,-2.842170943040401e-14) translate(0,-1.0099202394485474) translate(0,1.0099202394485474) translate(0,1.0099202394485474) translate(0,1.0099202394485474) translate(0,1.0099202394485474) translate(-1.0099202394485474,-2.842170943040401e-14) translate(1.0099202394485474,-2.842170943040401e-14) translate(-2.0276498794555664,-1.0138249397277832) translate(-30.706924438476562,10.588594436645508) translate(-1835.9998779296875,-1844.9998779296875) translate(2053.2099609375,0) translate(0,2106.562744140625) ">background</title>
    <rect stroke="null" x="183.475509" y="273.167396" width="514" height="402" id="svg_288" fill="none"/>
    <g stroke="null" id="svg_287" display="none">
     <rect stroke="null" id="svg_291" width="512" height="512" x="184.475509" y="274.167396" stroke-width="0" fill="url(#gridpattern)"/>
    </g>
   </g>
   <g stroke="null" transform="matrix(0.9901772432503895,0,0,0.9901772432503895,-179.48988285242854,-226.1723319421718) " id="svg_292">
    <title stroke="null" transform="translate(1.0099202394485474,-2.842170943040401e-14) translate(-1.0099202394485474,-2.842170943040401e-14) translate(0,-1.0099202394485474) translate(0,1.0099202394485474) translate(0,1.0099202394485474) translate(0,1.0099202394485474) translate(0,1.0099202394485474) translate(-1.0099202394485474,-2.842170943040401e-14) translate(1.0099202394485474,-2.842170943040401e-14) translate(-2.0276498794555664,-1.0138249397277832) translate(-30.706924438476562,10.588594436645508) translate(-1835.9998779296875,-1844.9998779296875) translate(2053.2099609375,0) translate(0,2106.562744140625) ">Layer 1</title>
    <g stroke="null" id="svg_274" transform="rotate(6.006000995635986 391.7350158691396,363.03897094726545) ">
     <g stroke="null" id="svg_275" transform="matrix(0.3072595876691846,0,0,0.3072595876691846,-814.1370666167888,-633.373598299191) ">
      <g stroke="null" id="svg_278">
       <g stroke="null" id="svg_286"/>
       <g stroke="null" id="svg_279">
        <g stroke="null" id="svg_283">
         <path stroke="null" d="m3931.855294,3469.008631l-14.504,0c-59.86,0 -108.559,-48.7 -108.559,-108.561l0,-235.094c0,-59.86 48.7,-108.56 108.559,-108.56l14.504,0c59.86,0 108.56,48.699 108.56,108.56l0,235.094c0,59.86 -48.699,108.561 -108.56,108.561z" fill="#ba602b" id="svg_285"/>
         <path stroke="null" d="m3931.855294,3016.794631l-7.252,0l0,452.214l7.252,0c59.86,0 108.56,-48.7 108.56,-108.561l0,-235.094c0,-59.86 -48.699,-108.559 -108.56,-108.559z" fill="#964c22" id="svg_284"/>
        </g>
        <g stroke="null" id="svg_280">
         <path stroke="null" d="m3961.348294,3369.118631c-8.284,0 -15,-6.716 -15,-15c0,-11.635 -1.921,-16.842 -4.353,-23.435c-2.91,-7.887 -6.208,-16.826 -6.208,-33.817s3.298,-25.931 6.208,-33.817c2.432,-6.593 4.353,-11.8 4.353,-23.434s-1.921,-16.841 -4.353,-23.434c-2.91,-7.886 -6.208,-16.825 -6.208,-33.816s3.298,-25.93 6.208,-33.816c2.432,-6.592 4.353,-11.799 4.353,-23.432c0,-8.284 6.716,-15 15,-15s15,6.716 15,15c0,16.991 -3.29799,25.93 -6.208,33.816c-2.432,6.592 -4.353,11.799 -4.353,23.432c0,11.634 1.921,16.841 4.353,23.434c2.91,7.886 6.208,16.825 6.208,33.816s-3.29799,25.931 -6.208,33.817c-2.432,6.593 -4.353,11.8 -4.353,23.435s1.921,16.842 4.353,23.435c2.91,7.887 6.208,16.826 6.208,33.817c0,8.283 -6.715,14.999 -15,14.999z" fill="#3b1b14" id="svg_282"/>
         <path stroke="null" d="m3898.418294,3369.118631c-8.284,0 -15,-6.716 -15,-15c0,-11.635 -1.92099,-16.842 -4.353,-23.435c-2.90999,-7.887 -6.20699,-16.826 -6.20699,-33.817s3.29799,-25.931 6.20699,-33.817c2.432,-6.593 4.353,-11.8 4.353,-23.434s-1.92099,-16.841 -4.353,-23.434c-2.90999,-7.886 -6.20699,-16.825 -6.20699,-33.816s3.29799,-25.93 6.20699,-33.816c2.432,-6.592 4.353,-11.799 4.353,-23.432c0,-8.284 6.716,-15 15,-15s15,6.716 15,15c0,16.991 -3.29799,25.93 -6.208,33.816c-2.43199,6.592 -4.353,11.799 -4.353,23.432c0,11.634 1.921,16.841 4.353,23.434c2.91,7.886 6.208,16.825 6.208,33.816s-3.29799,25.931 -6.208,33.817c-2.43199,6.593 -4.353,11.8 -4.353,23.435s1.921,16.842 4.353,23.435c2.91,7.887 6.208,16.826 6.208,33.817c0,8.283 -6.71599,14.999 -15,14.999z" fill="#572b21" id="svg_281"/>
        </g>
       </g>
      </g>
      <g stroke="null" id="svg_276">
       <g stroke="null" id="svg_277"/>
      </g>
     </g>
    </g>
    <g stroke="null" id="svg_261" transform="rotate(-100.38533020019531 458.2389526367187,358.8797912597656) ">
     <g stroke="null" id="svg_262" transform="matrix(0.31614966576620507,0,0,0.31614966576620507,-878.4253358413587,-673.3465041897292) ">
      <g stroke="null" id="svg_272">
       <g stroke="null" id="svg_273"/>
      </g>
      <g stroke="null" id="svg_263">
       <g stroke="null" id="svg_271"/>
       <g stroke="null" id="svg_264">
        <g stroke="null" id="svg_268">
         <path stroke="null" d="m4001.840226,3272.244519l0,-14.504c0,-59.86 48.7,-108.56 108.561,-108.56l235.094,0c59.86,0 108.56,48.7 108.56,108.56l0,14.504c0,59.86 -48.699,108.56 -108.56,108.56l-235.095,0c-59.86,0 -108.56,-48.7 -108.56,-108.56z" fill="#82401a" id="svg_270"/>
         <path stroke="null" d="m4454.054226,3272.244519l0,-7.252l-452.214,0l0,7.252c0,59.86 48.7,108.56 108.561,108.56l235.094,0c59.859,0 108.559,-48.7 108.559,-108.56z" fill="#6f3716" id="svg_269"/>
        </g>
        <g stroke="null" id="svg_265">
         <path stroke="null" d="m4101.729216,3301.737519c0,-8.284 6.716,-15 15,-15c11.63501,0 16.842,-1.921 23.43401,-4.353c7.887,-2.91 16.826,-6.208 33.817,-6.208s25.931,3.298 33.817,6.208c6.59299,2.432 11.8,4.353 23.435,4.353c11.634,0 16.84099,-1.921 23.434,-4.353c7.886,-2.91 16.825,-6.208 33.816,-6.208s25.92999,3.298 33.81599,6.208c6.592,2.432 11.799,4.353 23.432,4.353c8.284,0 15,6.716 15,15s-6.716,15 -15,15c-16.991,0 -25.93,-3.298 -33.816,-6.207c-6.592,-2.432 -11.799,-4.353 -23.43199,-4.353c-11.634,0 -16.841,1.921 -23.43401,4.353c-7.886,2.91 -16.82499,6.207 -33.81599,6.207s-25.93101,-3.298 -33.817,-6.207c-6.593,-2.432 -11.80001,-4.353 -23.435,-4.353s-16.84201,1.921 -23.435,4.353c-7.88701,2.91 -16.826,6.207 -33.817,6.207c-8.283,0 -14.999,-6.716 -14.999,-15l-0.00001,0z" fill="#3b1b14" id="svg_267"/>
         <path stroke="null" d="m4101.729216,3238.807519c0,-8.284 6.716,-15 15,-15c11.63501,0 16.842,-1.921 23.43401,-4.353c7.887,-2.91 16.826,-6.207 33.817,-6.207s25.931,3.298 33.817,6.207c6.59299,2.432 11.8,4.353 23.435,4.353c11.634,0 16.84099,-1.921 23.434,-4.353c7.886,-2.91 16.825,-6.207 33.816,-6.207s25.92999,3.298 33.81599,6.207c6.592,2.432 11.799,4.353 23.432,4.353c8.284,0 15,6.716 15,15s-6.716,15 -15,15c-16.991,0 -25.93,-3.298 -33.816,-6.207c-6.592,-2.432 -11.799,-4.353 -23.43199,-4.353c-11.634,0 -16.841,1.921 -23.43401,4.353c-7.886,2.91 -16.82499,6.207 -33.81599,6.207s-25.93101,-3.298 -33.817,-6.207c-6.593,-2.432 -11.80001,-4.353 -23.435,-4.353s-16.84201,1.921 -23.435,4.353c-7.88701,2.91 -16.826,6.207 -33.817,6.207c-8.283,0 -14.999,-6.716 -14.999,-15l-0.00001,0z" fill="#572b21" id="svg_266"/>
        </g>
       </g>
      </g>
     </g>
    </g>
    <g stroke="null" id="svg_248" transform="rotate(-5.4118733406066895 237.73503112793003,373.0389709472658) ">
     <g stroke="null" id="svg_249" transform="matrix(0.3072595876691846,0,0,0.3072595876691846,-814.1370666167888,-633.373598299191) ">
      <g stroke="null" id="svg_252">
       <g stroke="null" id="svg_260"/>
       <g stroke="null" id="svg_253">
        <g stroke="null" id="svg_257">
         <path stroke="null" d="m3430.650444,3501.554411l-14.504,0c-59.86,0 -108.559,-48.7 -108.559,-108.561l0,-235.094c0,-59.86 48.7,-108.56 108.559,-108.56l14.504,0c59.86,0 108.56,48.699 108.56,108.56l0,235.094c0,59.86 -48.699,108.561 -108.56,108.561z" fill="#ba602b" id="svg_259"/>
         <path stroke="null" d="m3430.650444,3049.340411l-7.252,0l0,452.214l7.252,0c59.86,0 108.56,-48.7 108.56,-108.561l0,-235.094c0,-59.86 -48.699,-108.559 -108.56,-108.559z" fill="#964c22" id="svg_258"/>
        </g>
        <g stroke="null" id="svg_254">
         <path stroke="null" d="m3460.143444,3401.664411c-8.284,0 -15,-6.716 -15,-15c0,-11.635 -1.921,-16.842 -4.353,-23.435c-2.91,-7.887 -6.208,-16.826 -6.208,-33.817s3.298,-25.931 6.208,-33.817c2.432,-6.593 4.353,-11.8 4.353,-23.434s-1.921,-16.841 -4.353,-23.434c-2.91,-7.886 -6.208,-16.825 -6.208,-33.816s3.298,-25.93 6.208,-33.816c2.432,-6.592 4.353,-11.799 4.353,-23.432c0,-8.284 6.716,-15 15,-15s15,6.716 15,15c0,16.991 -3.298,25.93 -6.208,33.816c-2.432,6.592 -4.353,11.799 -4.353,23.432c0,11.634 1.921,16.841 4.353,23.434c2.91,7.886 6.208,16.825 6.208,33.816s-3.298,25.931 -6.208,33.817c-2.432,6.593 -4.353,11.8 -4.353,23.435s1.921,16.842 4.353,23.435c2.91,7.887 6.208,16.826 6.208,33.817c0,8.283 -6.715,14.999 -15,14.999z" fill="#3b1b14" id="svg_256"/>
         <path stroke="null" d="m3397.213444,3401.664411c-8.284,0 -15,-6.716 -15,-15c0,-11.635 -1.921,-16.842 -4.353,-23.435c-2.91,-7.887 -6.207,-16.826 -6.207,-33.817s3.298,-25.931 6.207,-33.817c2.432,-6.593 4.353,-11.8 4.353,-23.434s-1.921,-16.841 -4.353,-23.434c-2.91,-7.886 -6.207,-16.825 -6.207,-33.816s3.298,-25.93 6.207,-33.816c2.432,-6.592 4.353,-11.799 4.353,-23.432c0,-8.284 6.716,-15 15,-15s15,6.716 15,15c0,16.991 -3.298,25.93 -6.208,33.816c-2.432,6.592 -4.353,11.799 -4.353,23.432c0,11.634 1.921,16.841 4.353,23.434c2.91,7.886 6.208,16.825 6.208,33.816s-3.298,25.931 -6.208,33.817c-2.432,6.593 -4.353,11.8 -4.353,23.435s1.921,16.842 4.353,23.435c2.91,7.887 6.208,16.826 6.208,33.817c0,8.283 -6.716,14.999 -15,14.999z" fill="#572b21" id="svg_255"/>
        </g>
       </g>
      </g>
      <g stroke="null" id="svg_250">
       <g stroke="null" id="svg_251"/>
      </g>
     </g>
    </g>
    <g stroke="null" id="svg_235" transform="rotate(-61.98815155029297 316.23895263671886,347.8797912597657) ">
     <g stroke="null" id="svg_236" transform="matrix(0.31614966576620507,0,0,0.31614966576620507,-878.4253358413587,-673.3465041897292) ">
      <g stroke="null" id="svg_246">
       <g stroke="null" id="svg_247"/>
      </g>
      <g stroke="null" id="svg_237">
       <g stroke="null" id="svg_245"/>
       <g stroke="null" id="svg_238">
        <g stroke="null" id="svg_242">
         <path stroke="null" d="m3552.685886,3237.450869l0,-14.504c0,-59.86 48.7,-108.56 108.561,-108.56l235.094,0c59.86,0 108.56,48.7 108.56,108.56l0,14.504c0,59.86 -48.699,108.56 -108.56,108.56l-235.095,0c-59.86,0 -108.56,-48.7 -108.56,-108.56z" fill="#82401a" id="svg_244"/>
         <path stroke="null" d="m4004.899886,3237.450869l0,-7.252l-452.214,0l0,7.252c0,59.86 48.7,108.56 108.561,108.56l235.094,0c59.859,0 108.559,-48.7 108.559,-108.56z" fill="#6f3716" id="svg_243"/>
        </g>
        <g stroke="null" id="svg_239">
         <path stroke="null" d="m3652.574886,3266.943869c0,-8.284 6.716,-15 15,-15c11.635,0 16.842,-1.921 23.434,-4.353c7.887,-2.91 16.826,-6.208 33.817,-6.208s25.931,3.298 33.817,6.208c6.593,2.432 11.8,4.353 23.435,4.353c11.634,0 16.841,-1.921 23.434,-4.353c7.886,-2.91 16.825,-6.208 33.816,-6.208s25.93,3.298 33.816,6.208c6.592,2.432 11.799,4.353 23.432,4.353c8.284,0 15,6.716 15,15s-6.716,15 -15,15c-16.991,0 -25.93,-3.298 -33.816,-6.207c-6.592,-2.432 -11.799,-4.353 -23.432,-4.353c-11.634,0 -16.841,1.921 -23.434,4.353c-7.886,2.91 -16.825,6.207 -33.816,6.207s-25.931,-3.298 -33.817,-6.207c-6.593,-2.432 -11.8,-4.353 -23.435,-4.353s-16.842,1.921 -23.435,4.353c-7.887,2.91 -16.826,6.207 -33.817,6.207c-8.283,0 -14.999,-6.716 -14.999,-15z" fill="#3b1b14" id="svg_241"/>
         <path stroke="null" d="m3652.574886,3204.013869c0,-8.284 6.716,-15 15,-15c11.635,0 16.842,-1.921 23.434,-4.353c7.887,-2.91 16.826,-6.207 33.817,-6.207s25.931,3.298 33.817,6.207c6.593,2.432 11.8,4.353 23.435,4.353c11.634,0 16.841,-1.921 23.434,-4.353c7.886,-2.91 16.825,-6.207 33.816,-6.207s25.93,3.298 33.816,6.207c6.592,2.432 11.799,4.353 23.432,4.353c8.284,0 15,6.716 15,15s-6.716,15 -15,15c-16.991,0 -25.93,-3.298 -33.816,-6.207c-6.592,-2.432 -11.799,-4.353 -23.432,-4.353c-11.634,0 -16.841,1.921 -23.434,4.353c-7.886,2.91 -16.825,6.207 -33.816,6.207s-25.931,-3.298 -33.817,-6.207c-6.593,-2.432 -11.8,-4.353 -23.435,-4.353s-16.842,1.921 -23.435,4.353c-7.887,2.91 -16.826,6.207 -33.817,6.207c-8.283,0 -14.999,-6.716 -14.999,-15z" fill="#572b21" id="svg_240"/>
        </g>
       </g>
      </g>
     </g>
    </g>
    <g stroke="null" id="svg_222" transform="rotate(12.937633514404297 434.7350158691406,406.03897094726545) ">
     <g stroke="null" id="svg_223" transform="matrix(0.3072595876691846,0,0,0.3072595876691846,-814.1370666167888,-633.373598299191) ">
      <g stroke="null" id="svg_226">
       <g stroke="null" id="svg_234"/>
       <g stroke="null" id="svg_227">
        <g stroke="null" id="svg_231">
         <path stroke="null" d="m4071.802114,3608.955451l-14.504,0c-59.86,0 -108.559,-48.7 -108.559,-108.561l0,-235.094c0,-59.86 48.7,-108.56 108.559,-108.56l14.504,0c59.86,0 108.56,48.699 108.56,108.56l0,235.094c0,59.86 -48.699,108.561 -108.56,108.561z" fill="#ba602b" id="svg_233"/>
         <path stroke="null" d="m4071.802114,3156.741451l-7.252,0l0,452.214l7.252,0c59.86,0 108.56,-48.7 108.56,-108.561l0,-235.094c0,-59.86 -48.699,-108.559 -108.56,-108.559z" fill="#964c22" id="svg_232"/>
        </g>
        <g stroke="null" id="svg_228">
         <path stroke="null" d="m4101.295114,3509.065451c-8.284,0 -15,-6.716 -15,-15c0,-11.635 -1.921,-16.842 -4.353,-23.435c-2.91,-7.887 -6.208,-16.826 -6.208,-33.817s3.298,-25.931 6.208,-33.817c2.432,-6.593 4.353,-11.8 4.353,-23.434s-1.921,-16.841 -4.353,-23.434c-2.91,-7.886 -6.208,-16.825 -6.208,-33.816s3.298,-25.93 6.208,-33.816c2.432,-6.592 4.353,-11.799 4.353,-23.432c0,-8.284 6.716,-15 15,-15s15,6.716 15,15c0,16.991 -3.298,25.93 -6.208,33.816c-2.432,6.592 -4.353,11.799 -4.353,23.432c0,11.634 1.921,16.841 4.353,23.434c2.91,7.886 6.208,16.825 6.208,33.816s-3.298,25.931 -6.208,33.817c-2.432,6.593 -4.353,11.8 -4.353,23.435s1.921,16.842 4.353,23.435c2.91,7.887 6.208,16.826 6.208,33.817c0,8.283 -6.715,14.999 -15,14.999z" fill="#3b1b14" id="svg_230"/>
         <path stroke="null" d="m4038.365114,3509.065451c-8.284,0 -15,-6.716 -15,-15c0,-11.635 -1.921,-16.842 -4.353,-23.435c-2.91,-7.887 -6.207,-16.826 -6.207,-33.817s3.298,-25.931 6.207,-33.817c2.432,-6.593 4.353,-11.8 4.353,-23.434s-1.921,-16.841 -4.353,-23.434c-2.91,-7.886 -6.207,-16.825 -6.207,-33.816s3.298,-25.93 6.207,-33.816c2.432,-6.592 4.353,-11.799 4.353,-23.432c0,-8.284 6.716,-15 15,-15s15,6.716 15,15c0,16.991 -3.298,25.93 -6.208,33.816c-2.432,6.592 -4.353,11.799 -4.353,23.432c0,11.634 1.921,16.841 4.353,23.434c2.91,7.886 6.208,16.825 6.208,33.816s-3.298,25.931 -6.208,33.817c-2.432,6.593 -4.353,11.8 -4.353,23.435s1.921,16.842 4.353,23.435c2.91,7.887 6.208,16.826 6.208,33.817c0,8.283 -6.716,14.999 -15,14.999z" fill="#572b21" id="svg_229"/>
        </g>
       </g>
      </g>
      <g stroke="null" id="svg_224">
       <g stroke="null" id="svg_225"/>
      </g>
     </g>
    </g>
    <g stroke="null" id="svg_209" transform="rotate(-14.000760078430176 299.7350158691405,408.0389709472656) ">
     <g stroke="null" id="svg_210" transform="matrix(0.3072595876691846,0,0,0.3072595876691846,-814.1370666167888,-633.373598299191) ">
      <g stroke="null" id="svg_213">
       <g stroke="null" id="svg_221"/>
       <g stroke="null" id="svg_214">
        <g stroke="null" id="svg_218">
         <path stroke="null" d="m3632.434224,3615.464601l-14.504,0c-59.86,0 -108.559,-48.7 -108.559,-108.561l0,-235.094c0,-59.86 48.7,-108.56 108.559,-108.56l14.504,0c59.86,0 108.56,48.699 108.56,108.56l0,235.094c0,59.86 -48.699,108.561 -108.56,108.561z" fill="#ba602b" id="svg_220"/>
         <path stroke="null" d="m3632.434224,3163.250601l-7.252,0l0,452.214l7.252,0c59.86,0 108.56,-48.7 108.56,-108.561l0,-235.094c0,-59.86 -48.699,-108.559 -108.56,-108.559z" fill="#964c22" id="svg_219"/>
        </g>
        <g stroke="null" id="svg_215">
         <path stroke="null" d="m3661.927224,3515.574601c-8.284,0 -15,-6.716 -15,-15c0,-11.635 -1.921,-16.842 -4.353,-23.435c-2.91,-7.887 -6.208,-16.826 -6.208,-33.817s3.298,-25.931 6.208,-33.817c2.432,-6.593 4.353,-11.8 4.353,-23.434s-1.921,-16.841 -4.353,-23.434c-2.91,-7.886 -6.208,-16.825 -6.208,-33.816s3.298,-25.93 6.208,-33.816c2.432,-6.592 4.353,-11.799 4.353,-23.432c0,-8.284 6.716,-15 15,-15s15,6.716 15,15c0,16.991 -3.298,25.93 -6.208,33.816c-2.432,6.592 -4.353,11.799 -4.353,23.432c0,11.634 1.921,16.841 4.353,23.434c2.91,7.886 6.208,16.825 6.208,33.816s-3.298,25.931 -6.208,33.817c-2.432,6.593 -4.353,11.8 -4.353,23.435s1.921,16.842 4.353,23.435c2.91,7.887 6.208,16.826 6.208,33.817c0,8.283 -6.715,14.999 -15,14.999z" fill="#3b1b14" id="svg_217"/>
         <path stroke="null" d="m3598.997224,3515.574601c-8.284,0 -15,-6.716 -15,-15c0,-11.635 -1.921,-16.842 -4.353,-23.435c-2.91,-7.887 -6.207,-16.826 -6.207,-33.817s3.298,-25.931 6.207,-33.817c2.432,-6.593 4.353,-11.8 4.353,-23.434s-1.921,-16.841 -4.353,-23.434c-2.91,-7.886 -6.207,-16.825 -6.207,-33.816s3.298,-25.93 6.207,-33.816c2.432,-6.592 4.353,-11.799 4.353,-23.432c0,-8.284 6.716,-15 15,-15s15,6.716 15,15c0,16.991 -3.298,25.93 -6.208,33.816c-2.432,6.592 -4.353,11.799 -4.353,23.432c0,11.634 1.921,16.841 4.353,23.434c2.91,7.886 6.208,16.825 6.208,33.816s-3.298,25.931 -6.208,33.817c-2.432,6.593 -4.353,11.8 -4.353,23.435s1.921,16.842 4.353,23.435c2.91,7.887 6.208,16.826 6.208,33.817c0,8.283 -6.716,14.999 -15,14.999z" fill="#572b21" id="svg_216"/>
        </g>
       </g>
      </g>
      <g stroke="null" id="svg_211">
       <g stroke="null" id="svg_212"/>
      </g>
     </g>
    </g>
    <g stroke="null" id="svg_196" transform="rotate(-72.48052215576172 365.23895263671875,412.8797912597656) ">
     <g stroke="null" id="svg_197" transform="matrix(0.31614966576620507,0,0,0.31614966576620507,-878.4253358413587,-673.3465041897292) ">
      <g stroke="null" id="svg_207">
       <g stroke="null" id="svg_208"/>
      </g>
      <g stroke="null" id="svg_198">
       <g stroke="null" id="svg_206"/>
       <g stroke="null" id="svg_199">
        <g stroke="null" id="svg_203">
         <path stroke="null" d="m3707.675756,3443.049709l0,-14.504c0,-59.86 48.7,-108.56 108.561,-108.56l235.094,0c59.86,0 108.56,48.7 108.56,108.56l0,14.504c0,59.86 -48.699,108.56 -108.56,108.56l-235.095,0c-59.86,0 -108.56,-48.7 -108.56,-108.56z" fill="#82401a" id="svg_205"/>
         <path stroke="null" d="m4159.889756,3443.049709l0,-7.252l-452.214,0l0,7.252c0,59.86 48.7,108.56 108.561,108.56l235.094,0c59.859,0 108.559,-48.7 108.559,-108.56z" fill="#6f3716" id="svg_204"/>
        </g>
        <g stroke="null" id="svg_200">
         <path stroke="null" d="m3807.564756,3472.542709c0,-8.284 6.716,-15 15,-15c11.635,0 16.842,-1.921 23.434,-4.353c7.887,-2.91 16.826,-6.208 33.817,-6.208s25.931,3.298 33.817,6.208c6.593,2.432 11.8,4.353 23.435,4.353c11.634,0 16.841,-1.921 23.434,-4.353c7.886,-2.91 16.825,-6.208 33.816,-6.208s25.93,3.298 33.816,6.208c6.592,2.432 11.799,4.353 23.432,4.353c8.284,0 15,6.716 15,15s-6.716,15 -15,15c-16.991,0 -25.93,-3.298 -33.816,-6.207c-6.592,-2.432 -11.799,-4.353 -23.432,-4.353c-11.634,0 -16.841,1.921 -23.434,4.353c-7.886,2.91 -16.825,6.207 -33.816,6.207s-25.931,-3.298 -33.817,-6.207c-6.593,-2.432 -11.8,-4.353 -23.435,-4.353s-16.842,1.921 -23.435,4.353c-7.887,2.91 -16.826,6.207 -33.817,6.207c-8.283,0 -14.999,-6.716 -14.999,-15z" fill="#3b1b14" id="svg_202"/>
         <path stroke="null" d="m3807.564756,3409.612709c0,-8.284 6.716,-15 15,-15c11.635,0 16.842,-1.921 23.434,-4.353c7.887,-2.91 16.826,-6.207 33.817,-6.207s25.931,3.298 33.817,6.207c6.593,2.432 11.8,4.353 23.435,4.353c11.634,0 16.841,-1.921 23.434,-4.353c7.886,-2.91 16.825,-6.207 33.816,-6.207s25.93,3.298 33.816,6.207c6.592,2.432 11.799,4.353 23.432,4.353c8.284,0 15,6.716 15,15s-6.716,15 -15,15c-16.991,0 -25.93,-3.298 -33.816,-6.207c-6.592,-2.432 -11.799,-4.353 -23.432,-4.353c-11.634,0 -16.841,1.921 -23.434,4.353c-7.886,2.91 -16.825,6.207 -33.816,6.207s-25.931,-3.298 -33.817,-6.207c-6.593,-2.432 -11.8,-4.353 -23.435,-4.353s-16.842,1.921 -23.435,4.353c-7.887,2.91 -16.826,6.207 -33.817,6.207c-8.283,0 -14.999,-6.716 -14.999,-15z" fill="#572b21" id="svg_201"/>
        </g>
       </g>
      </g>
     </g>
    </g>
    <g stroke="null" id="svg_183" transform="rotate(-134.421142578125 249.23893737792972,450.8797912597657) ">
     <g stroke="null" id="svg_184" transform="matrix(0.31614966576620507,0,0,0.31614966576620507,-878.4253358413587,-673.3465041897292) ">
      <g stroke="null" id="svg_194">
       <g stroke="null" id="svg_195"/>
      </g>
      <g stroke="null" id="svg_185">
       <g stroke="null" id="svg_193"/>
       <g stroke="null" id="svg_186">
        <g stroke="null" id="svg_190">
         <path stroke="null" d="m3340.760916,3563.245939l0,-14.504c0,-59.86 48.7,-108.56 108.56101,-108.56l235.094,0c59.86,0 108.56,48.7 108.56,108.56l0,14.504c0,59.86 -48.69901,108.56 -108.56,108.56l-235.095,0c-59.86,0 -108.56,-48.7 -108.56,-108.56l-0.00001,0z" fill="#82401a" id="svg_192"/>
         <path stroke="null" d="m3792.974916,3563.245939l0,-7.252l-452.214,0l0,7.252c0,59.86 48.7,108.56 108.56101,108.56l235.094,0c59.859,0 108.559,-48.7 108.559,-108.56l-0.00001,0z" fill="#6f3716" id="svg_191"/>
        </g>
        <g stroke="null" id="svg_187">
         <path stroke="null" d="m3440.649926,3592.738939c0,-8.284 6.71599,-15 15,-15c11.635,0 16.842,-1.921 23.434,-4.353c7.887,-2.91 16.826,-6.208 33.817,-6.208s25.931,3.298 33.817,6.208c6.593,2.432 11.8,4.353 23.435,4.353c11.634,0 16.841,-1.921 23.434,-4.353c7.886,-2.91 16.825,-6.208 33.816,-6.208s25.92999,3.298 33.81599,6.208c6.59201,2.432 11.799,4.353 23.432,4.353c8.284,0 15,6.716 15,15s-6.716,15 -15,15c-16.991,0 -25.93,-3.298 -33.816,-6.207c-6.592,-2.432 -11.799,-4.353 -23.43199,-4.353c-11.634,0 -16.841,1.921 -23.43401,4.353c-7.886,2.91 -16.82499,6.207 -33.81599,6.207s-25.931,-3.298 -33.817,-6.207c-6.593,-2.432 -11.80001,-4.353 -23.435,-4.353s-16.842,1.921 -23.435,4.353c-7.887,2.91 -16.826,6.207 -33.817,6.207c-8.283,0 -14.999,-6.716 -14.999,-15z" fill="#3b1b14" id="svg_189"/>
         <path stroke="null" d="m3440.649926,3529.808939c0,-8.284 6.71599,-15 15,-15c11.635,0 16.842,-1.921 23.434,-4.353c7.887,-2.91 16.826,-6.207 33.817,-6.207s25.931,3.298 33.817,6.207c6.593,2.432 11.8,4.353 23.435,4.353c11.634,0 16.841,-1.921 23.434,-4.353c7.886,-2.91 16.825,-6.207 33.816,-6.207s25.92999,3.298 33.81599,6.207c6.59201,2.432 11.799,4.353 23.432,4.353c8.284,0 15,6.716 15,15s-6.716,15 -15,15c-16.991,0 -25.93,-3.298 -33.816,-6.207c-6.592,-2.432 -11.799,-4.353 -23.43199,-4.353c-11.634,0 -16.841,1.921 -23.43401,4.353c-7.886,2.91 -16.82499,6.207 -33.81599,6.207s-25.931,-3.298 -33.817,-6.207c-6.593,-2.432 -11.80001,-4.353 -23.435,-4.353s-16.842,1.921 -23.435,4.353c-7.887,2.91 -16.826,6.207 -33.817,6.207c-8.283,0 -14.999,-6.716 -14.999,-15z" fill="#572b21" id="svg_188"/>
        </g>
       </g>
      </g>
     </g>
    </g>
    <g stroke="null" id="svg_170" transform="rotate(-33.85696029663086 489.2389526367187,423.87979125976574) ">
     <g stroke="null" id="svg_171" transform="matrix(0.31614966576620507,0,0,0.31614966576620507,-878.4253358413587,-673.3465041897292) ">
      <g stroke="null" id="svg_181">
       <g stroke="null" id="svg_182"/>
      </g>
      <g stroke="null" id="svg_172">
       <g stroke="null" id="svg_180"/>
       <g stroke="null" id="svg_173">
        <g stroke="null" id="svg_177">
         <path stroke="null" d="m4099.895046,3477.843339l0,-14.50399c0,-59.86001 48.7,-108.56 108.561,-108.56l235.094,0c59.86,0 108.56,48.69999 108.56,108.56l0,14.50399c0,59.86001 -48.699,108.56 -108.56,108.56l-235.095,0c-59.86,0 -108.56,-48.69999 -108.56,-108.56z" fill="#82401a" id="svg_179"/>
         <path stroke="null" d="m4552.109046,3477.843339l0,-7.252l-452.214,0l0,7.252c0,59.86001 48.7,108.56 108.561,108.56l235.094,0c59.859,0 108.559,-48.69999 108.559,-108.56z" fill="#6f3716" id="svg_178"/>
        </g>
        <g stroke="null" id="svg_174">
         <path stroke="null" d="m4199.784046,3507.336339c0,-8.284 6.716,-15 15,-15c11.635,0 16.842,-1.92099 23.434,-4.353c7.887,-2.91 16.826,-6.208 33.817,-6.208s25.931,3.298 33.817,6.208c6.593,2.432 11.8,4.353 23.435,4.353c11.634,0 16.841,-1.92099 23.434,-4.353c7.886,-2.91 16.825,-6.208 33.816,-6.208s25.93,3.298 33.816,6.208c6.592,2.432 11.799,4.353 23.432,4.353c8.284,0 15,6.716 15,15s-6.716,15 -15,15c-16.991,0 -25.93,-3.29799 -33.816,-6.207c-6.592,-2.43199 -11.799,-4.353 -23.432,-4.353c-11.634,0 -16.841,1.921 -23.434,4.353c-7.886,2.91 -16.825,6.207 -33.816,6.207s-25.931,-3.29799 -33.817,-6.207c-6.593,-2.43199 -11.8,-4.353 -23.435,-4.353s-16.842,1.921 -23.435,4.353c-7.887,2.91 -16.826,6.207 -33.817,6.207c-8.283,0 -14.999,-6.716 -14.999,-15z" fill="#3b1b14" id="svg_176"/>
         <path stroke="null" d="m4199.784046,3444.406349c0,-8.28401 6.716,-15 15,-15c11.635,0 16.842,-1.921 23.434,-4.35301c7.887,-2.90999 16.826,-6.20699 33.817,-6.20699s25.931,3.29799 33.817,6.20699c6.593,2.432 11.8,4.35301 23.435,4.35301c11.634,0 16.841,-1.921 23.434,-4.35301c7.886,-2.90999 16.825,-6.20699 33.816,-6.20699s25.93,3.29799 33.816,6.20699c6.592,2.432 11.799,4.35301 23.432,4.35301c8.284,0 15,6.71599 15,15s-6.716,15 -15,15c-16.991,0 -25.93,-3.298 -33.816,-6.207c-6.592,-2.432 -11.799,-4.353 -23.432,-4.353c-11.634,0 -16.841,1.92099 -23.434,4.353c-7.886,2.91 -16.825,6.207 -33.816,6.207s-25.931,-3.298 -33.817,-6.207c-6.593,-2.432 -11.8,-4.353 -23.435,-4.353s-16.842,1.92099 -23.435,4.353c-7.887,2.91 -16.826,6.207 -33.817,6.207c-8.283,0 -14.999,-6.716 -14.999,-15z" fill="#572b21" id="svg_175"/>
        </g>
       </g>
      </g>
     </g>
    </g>
    <g stroke="null" id="svg_150">
     <g stroke="null" id="svg_151" transform="matrix(0.3939226734360985,0,0,0.3939226734360985,-1156.2440312280137,-885.1763385795675) ">
      <g stroke="null" id="svg_161">
       <g stroke="null" id="svg_169"/>
       <g stroke="null" id="svg_162">
        <g stroke="null" id="svg_166">
         <path stroke="null" d="m4366.01721,3961.90582l-14.504,0c-59.86,0 -108.559,-48.7 -108.559,-108.561l0,-235.094c0,-59.86 48.7,-108.56 108.559,-108.56l14.504,0c59.86,0 108.56,48.699 108.56,108.56l0,235.094c0,59.86 -48.699,108.561 -108.56,108.561z" fill="#ba602b" id="svg_168"/>
         <path stroke="null" d="m4366.01721,3509.69182l-7.252,0l0,452.214l7.252,0c59.86,0 108.56,-48.7 108.56,-108.561l0,-235.094c0,-59.86 -48.699,-108.559 -108.56,-108.559z" fill="#964c22" id="svg_167"/>
        </g>
        <g stroke="null" id="svg_163">
         <path stroke="null" d="m4395.51021,3862.01582c-8.284,0 -15,-6.716 -15,-15c0,-11.635 -1.921,-16.842 -4.353,-23.435c-2.91,-7.887 -6.208,-16.826 -6.208,-33.817s3.298,-25.931 6.208,-33.817c2.432,-6.593 4.353,-11.8 4.353,-23.434s-1.921,-16.841 -4.353,-23.434c-2.91,-7.886 -6.208,-16.825 -6.208,-33.816s3.298,-25.93 6.208,-33.816c2.432,-6.592 4.353,-11.799 4.353,-23.432c0,-8.284 6.716,-15 15,-15s15,6.716 15,15c0,16.991 -3.298,25.93 -6.208,33.816c-2.432,6.592 -4.353,11.799 -4.353,23.432c0,11.634 1.921,16.841 4.353,23.434c2.91,7.886 6.208,16.825 6.208,33.816s-3.298,25.931 -6.208,33.817c-2.432,6.593 -4.353,11.8 -4.353,23.435s1.921,16.842 4.353,23.435c2.91,7.887 6.208,16.826 6.208,33.817c0,8.283 -6.715,14.999 -15,14.999z" fill="#3b1b14" id="svg_165"/>
         <path stroke="null" d="m4332.58021,3862.01582c-8.284,0 -15,-6.716 -15,-15c0,-11.635 -1.921,-16.842 -4.353,-23.435c-2.91,-7.887 -6.207,-16.826 -6.207,-33.817s3.298,-25.931 6.207,-33.817c2.432,-6.593 4.353,-11.8 4.353,-23.434s-1.921,-16.841 -4.353,-23.434c-2.91,-7.886 -6.207,-16.825 -6.207,-33.816s3.298,-25.93 6.207,-33.816c2.432,-6.592 4.353,-11.799 4.353,-23.432c0,-8.284 6.716,-15 15,-15s15,6.716 15,15c0,16.991 -3.298,25.93 -6.208,33.816c-2.432,6.592 -4.353,11.799 -4.353,23.432c0,11.634 1.921,16.841 4.353,23.434c2.91,7.886 6.208,16.825 6.208,33.816s-3.298,25.931 -6.208,33.817c-2.432,6.593 -4.353,11.8 -4.353,23.435s1.921,16.842 4.353,23.435c2.91,7.887 6.208,16.826 6.208,33.817c0,8.283 -6.716,14.999 -15,14.999z" fill="#572b21" id="svg_164"/>
        </g>
       </g>
      </g>
      <g stroke="null" id="svg_152">
       <g stroke="null" id="svg_160"/>
       <g stroke="null" id="svg_153">
        <g stroke="null" id="svg_157">
         <path stroke="null" d="m4242.87321,3853.66682l0,-14.504c0,-59.86 48.7,-108.56 108.561,-108.56l235.094,0c59.86,0 108.56,48.7 108.56,108.56l0,14.504c0,59.86 -48.699,108.56 -108.56,108.56l-235.095,0c-59.86,0 -108.56,-48.7 -108.56,-108.56z" fill="#82401a" id="svg_159"/>
         <path stroke="null" d="m4695.08721,3853.66682l0,-7.252l-452.214,0l0,7.252c0,59.86 48.7,108.56 108.561,108.56l235.094,0c59.859,0 108.559,-48.7 108.559,-108.56z" fill="#6f3716" id="svg_158"/>
        </g>
        <g stroke="null" id="svg_154">
         <path stroke="null" d="m4342.76221,3883.15982c0,-8.284 6.716,-15 15,-15c11.635,0 16.842,-1.921 23.434,-4.353c7.887,-2.91 16.826,-6.208 33.817,-6.208s25.931,3.298 33.817,6.208c6.593,2.432 11.8,4.353 23.435,4.353c11.634,0 16.841,-1.921 23.434,-4.353c7.886,-2.91 16.825,-6.208 33.816,-6.208s25.93,3.298 33.816,6.208c6.592,2.432 11.799,4.353 23.432,4.353c8.284,0 15,6.716 15,15s-6.716,15 -15,15c-16.991,0 -25.93,-3.298 -33.816,-6.207c-6.592,-2.432 -11.799,-4.353 -23.432,-4.353c-11.634,0 -16.841,1.921 -23.434,4.353c-7.886,2.91 -16.825,6.207 -33.816,6.207s-25.931,-3.298 -33.817,-6.207c-6.593,-2.432 -11.8,-4.353 -23.435,-4.353s-16.842,1.921 -23.435,4.353c-7.887,2.91 -16.826,6.207 -33.817,6.207c-8.283,0 -14.999,-6.716 -14.999,-15z" fill="#3b1b14" id="svg_156"/>
         <path stroke="null" d="m4342.76221,3820.22982c0,-8.284 6.716,-15 15,-15c11.635,0 16.842,-1.921 23.434,-4.353c7.887,-2.91 16.826,-6.207 33.817,-6.207s25.931,3.298 33.817,6.207c6.593,2.432 11.8,4.353 23.435,4.353c11.634,0 16.841,-1.921 23.434,-4.353c7.886,-2.91 16.825,-6.207 33.816,-6.207s25.93,3.298 33.816,6.207c6.592,2.432 11.799,4.353 23.432,4.353c8.284,0 15,6.716 15,15s-6.716,15 -15,15c-16.991,0 -25.93,-3.298 -33.816,-6.207c-6.592,-2.432 -11.799,-4.353 -23.432,-4.353c-11.634,0 -16.841,1.921 -23.434,4.353c-7.886,2.91 -16.825,6.207 -33.816,6.207s-25.931,-3.298 -33.817,-6.207c-6.593,-2.432 -11.8,-4.353 -23.435,-4.353s-16.842,1.921 -23.435,4.353c-7.887,2.91 -16.826,6.207 -33.817,6.207c-8.283,0 -14.999,-6.716 -14.999,-15z" fill="#572b21" id="svg_155"/>
        </g>
       </g>
      </g>
     </g>
    </g>
    <g stroke="null" id="svg_146">
     <g stroke="null" id="svg_147" transform="matrix(0.7609338928768025,0,0,0.7609338928768025,-2613.5330567597184,-2043.135733285102) ">
      <path stroke="null" d="m4129.424009,3284.936652c0,-8.401 -6.599,-15 -15,-15l-420,0c-8.401,0 -15,6.599 -15,15c0,88.2 69.6,160.499 156.599,164.7c-4.799,11.1 -8.699,21.899 -12.599,31.8c-14.099,36.3 -23.7,59.5 -39,59.5c-8.401,0 -15,6.599 -15,15s6.599,15 15,15l240,0c8.401,0 15,-6.599 15,-15s-6.599,-15 -15,-15c-15.901,0 -25.201,-23.5 -39.3,-60.399c-3.9,-9.6 -7.8,-20.101 -12.299,-30.901c86.999,-4.201 156.599,-76.5 156.599,-164.7z" fill="#ff6c6c" id="svg_149"/>
      <path stroke="null" d="m3972.825009,3449.636652c4.499,10.8 8.399,21.301 12.299,30.901c14.099,36.899 23.399,60.399 39.3,60.399c8.401,0 15,6.599 15,15s-6.599,15 -15,15l-120,0l0,-301l210,0c8.401,0 15,6.599 15,15c0,88.2 -69.6,160.499 -156.599,164.7z" fill="#e63950" id="svg_148"/>
     </g>
    </g>
   </g>
  </g>
 </g>
</svg>