<?xml version="1.0" encoding="UTF-8" standalone="no"?>
<svg
   xmlns:dc="http://purl.org/dc/elements/1.1/"
   xmlns:cc="http://creativecommons.org/ns#"
   xmlns:rdf="http://www.w3.org/1999/02/22-rdf-syntax-ns#"
   xmlns:svg="http://www.w3.org/2000/svg"
   xmlns="http://www.w3.org/2000/svg"
   xmlns:sodipodi="http://sodipodi.sourceforge.net/DTD/sodipodi-0.dtd"
   xmlns:inkscape="http://www.inkscape.org/namespaces/inkscape"
   sodipodi:docname="datemolasses.svg"
   inkscape:version="1.0 (4035a4f, 2020-05-01)"
   id="svg8"
   version="1.1"
   viewBox="0 0 512 512"
   height="512mm"
   width="512mm">
  <defs
     id="defs2" />
  <sodipodi:namedview
     inkscape:window-maximized="0"
     inkscape:window-y="0"
     inkscape:window-x="0"
     inkscape:window-height="768"
     inkscape:window-width="1366"
     showgrid="false"
     inkscape:document-rotation="0"
     inkscape:current-layer="g1054"
     inkscape:document-units="mm"
     inkscape:cy="1234.5438"
     inkscape:cx="1405.731"
     inkscape:zoom="0.24303713"
     inkscape:pageshadow="2"
     inkscape:pageopacity="0.0"
     borderopacity="1.0"
     bordercolor="#666666"
     pagecolor="#ffffff"
     id="base" />
  <metadata
     id="metadata5">
    <rdf:RDF>
      <cc:Work
         rdf:about="">
        <dc:format>image/svg+xml</dc:format>
        <dc:type
           rdf:resource="http://purl.org/dc/dcmitype/StillImage" />
        <dc:title />
      </cc:Work>
    </rdf:RDF>
  </metadata>
  <g
     id="layer1"
     inkscape:groupmode="layer"
     inkscape:label="Layer 1">
    <g
       transform="matrix(-0.70022966,0,0,0.70022966,122.16927,8.9901983)"
       stroke="null"
       id="svg_146" />
    <g
       transform="translate(-368.81342,-5.5993983)"
       id="g1054">
      <path
         sodipodi:nodetypes="ccccssascasccsssssac"
         id="path24-8"
         d="m 680.15434,35.669791 99.28328,0.59451 c 0,0 -0.0158,17.10186 0,24.37492 25.78053,-8.02319 55.37282,-8.80874 76.04881,6.27429 27.84344,18.51837 25.96926,55.424059 18.22023,69.913809 -1.69612,3.17153 -10.36195,-11.35072 -9.49893,-18.1136 4.19632,-32.88349 -19.83394,-48.774465 -40.96664,-48.397627 -20.75503,0.370103 -45.34767,17.77513 -38.51427,48.936947 4.56026,20.79582 47.69858,49.25959 41.67714,48.3981 8.71615,9.54373 16.42155,18.15934 21.40237,29.13102 4.53145,9.98181 8.54494,21.23249 7.13413,32.10357 -13.08771,100.84941 -42.21024,286.5541 -42.21024,286.5541 l -165.27395,-0.59452 c 0,0 -28.89415,-185.80642 -42.21025,-285.36507 -0.71052,-5.31222 0.26503,-12.82696 1.43099,-18.19869 1.44828,-6.67235 3.5201,-11.13748 6.89215,-16.87744 7.46601,-12.70874 14.86436,-24.54494 26.75298,-31.50905 14.7652,-8.64916 26.45689,-13.82427 33.55445,-22.43688 4.45404,-5.40476 5.21743,-12.13222 6.27775,-18.58436 4.65969,-28.354359 0,-86.204029 0,-86.204029 z"
         style="fill:#e1dbd2;fill-opacity:1;stroke:none;stroke-width:0.328168px;stroke-linecap:butt;stroke-linejoin:miter;stroke-opacity:1" />
      <path
         sodipodi:nodetypes="sccsccssccccccs"
         id="path868-1"
         d="m 631.1061,169.83441 c 22.68261,-18.32653 48.45342,-21.17879 49.72759,-51.35391 l 103.9531,0.44414 c 6.04813,17.14283 21.67426,28.14436 40.82532,28.82798 16.08972,0.57434 38.53559,-13.41247 38.59562,-29.0389 1.99049,-0.0144 12.3296,-0.0857 14.28642,-0.0776 0,0 1.73202,12.7146 -11.16556,27.67793 -3.68625,4.27668 -7.65059,8.46288 -13.2629,11.9733 -10.32301,6.45691 -20.12715,10.55269 -27.90052,9.2987 16.63688,13.97802 24.16621,33.7183 26.64991,41.26568 4.88458,17.25835 1.31093,28.50529 -1.38134,48.86297 -12.99763,87.69147 -38.70352,257.72513 -38.70352,257.72513 l -165.27395,-0.59452 c 0,0 -27.39073,-186.12223 -42.66726,-282.39933 -0.26712,-29.58992 7.46203,-47.37754 26.31709,-62.61157 z"
         style="fill:#552200;fill-opacity:1;stroke:none;stroke-width:0.328168px;stroke-linecap:butt;stroke-linejoin:miter;stroke-opacity:1" />
      <path
         sodipodi:nodetypes="sssssss"
         id="path1069-71"
         d="m 668.70773,8.171581 c 32.01136,0.71193 79.9825,0.13129 124.76099,0.27241 5.38818,0.017 13.22102,8.27277 13.21308,16.34463 -0.009,8.25185 -7.97719,16.32377 -13.4855,16.34385 -37.42842,0.13645 -81.31129,0.10803 -124.76096,0 -5.50113,-0.0136 -14.44428,-8.60995 -14.36828,-16.88842 0.0758,-8.25599 9.15583,-16.19445 14.64067,-16.07247 z"
         style="fill:#b6aaa0;fill-opacity:1;stroke:none;stroke-width:0.328168px;stroke-linecap:butt;stroke-linejoin:miter;stroke-opacity:1" />
      <path
         style="fill:#d9d2c4;fill-opacity:1;stroke:none;stroke-width:0.240733px;stroke-linecap:butt;stroke-linejoin:miter;stroke-opacity:1"
         d="m 668.70773,8.171581 c 32.28594,-0.10716 79.9825,0.0707 124.761,0.1466 14.37315,3.82488 8.67437,13.90057 0.80457,15.16724 -37.42844,0.0734 -82.38828,0.18697 -125.83796,0.12883 -13.17446,-3.54541 -9.83731,-14.61813 0.27239,-15.44267 z"
         id="path1069-7-3"
         sodipodi:nodetypes="ccccc" />
      <ellipse
         ry="16.357393"
         rx="16.251156"
         cy="404.31259"
         cx="798.49103"
         id="path870-72-0"
         style="opacity:0.923;fill:#803300;fill-opacity:1;stroke:none;stroke-width:3.25318;stroke-linecap:round;stroke-linejoin:round;stroke-opacity:1" />
      <ellipse
         style="opacity:0.923;fill:#803300;fill-opacity:1;stroke:none;stroke-width:2.07851;stroke-linecap:round;stroke-linejoin:round;stroke-opacity:1"
         id="path870-72-9-0-4-4"
         cx="751.35443"
         cy="464.54117"
         rx="10.202239"
         ry="10.636378" />
      <ellipse
         ry="22.662849"
         rx="22.066471"
         cy="333.18002"
         cx="780.61487"
         id="path870-9-6"
         style="opacity:0.923;fill:#803300;fill-opacity:1;stroke:none;stroke-width:4.46204;stroke-linecap:round;stroke-linejoin:round;stroke-opacity:1" />
      <path
         style="fill:#803300;fill-opacity:1;stroke:none;stroke-width:0.263116px;stroke-linecap:butt;stroke-linejoin:miter;stroke-opacity:1"
         d="m 779.59,41.256572 -0.15238,19.382649 c -31.8255,-1.26398 -54.85646,1.831956 -62.6465,11.846805 -13.63638,17.530873 -1.53724,36.971604 -14.6609,75.537224 -4.66914,9.36142 -16.17552,16.90079 -25.67043,23.60867 -28.28683,14.56553 -45.09431,29.2379 -42.13173,63.18923 -3.14566,65.77743 33.54903,194.68834 33.54903,194.68834 17.89288,78.61179 79.00312,57.55523 149.10821,56.92699 l -4.25508,29.00335 -165.27396,-0.58795 -42.66727,-279.27756 c -0.78249,-25.04312 5.37427,-48.66823 20.57387,-61.91944 20.94734,-17.42538 37.93951,-19.35861 48.66014,-37.34126 14.24404,-23.89277 6.13134,-95.340233 6.13134,-95.340233 z"
         id="path202"
         sodipodi:nodetypes="ccscccccccccscc" />
      <path
         sodipodi:nodetypes="ccccccc"
         id="path202-1"
         d="m 779.59,41.256572 -0.15238,19.382649 c -31.8255,-0.0081 -49.85791,1.667609 -61.96681,12.607928 -8.69294,10.472476 -7.50855,32.704951 -8.91661,45.414391 -6.64691,0.0854 -23.61366,-0.16762 -28.60707,-0.14409 0.79857,-6.35157 3.35887,-55.902695 -0.67935,-77.507113 z"
         style="fill:#d9d2c4;fill-opacity:1;stroke:none;stroke-width:0.263116px;stroke-linecap:butt;stroke-linejoin:miter;stroke-opacity:1" />
      <ellipse
         style="opacity:0.923;fill:#803300;fill-opacity:1;stroke:none;stroke-width:4.57046;stroke-linecap:round;stroke-linejoin:round;stroke-opacity:1"
         id="path870-9-6-9"
         cx="695.09064"
         cy="229.02856"
         rx="22.602638"
         ry="23.213509" />
    </g>
    <path
       style="fill:#ffffff;stroke-width:10.8652"
       d="m 463.44554,246.21489 c 0.62542,0.14057 1.25222,0.22568 1.9251,0.25432 5.98968,0.25483 11.06365,-4.38446 11.33148,-10.38237 1.79052,-40.76812 -28.64601,-65.43786 -29.93049,-66.46154 -4.75451,-3.71895 -11.54693,-2.92929 -15.27046,1.74632 -3.71528,4.68852 -2.95372,11.50803 1.71928,15.24208 0.46226,0.37118 23.05698,19.20257 21.77601,48.53698 -0.23909,5.32504 3.41377,9.93233 8.44911,11.06402 z"
       id="path18" />
    <g
       transform="matrix(0.91551547,-0.0183856,-0.0183856,-0.91551547,-330.66014,691.66733)"
       id="svg_261-6"
       stroke="null">
      <g
         transform="matrix(0.31614967,0,0,0.31614967,-878.42534,-673.3465)"
         id="svg_262-3"
         stroke="null">
        <g
           id="svg_272-0"
           stroke="null">
          <g
             id="svg_273-8"
             stroke="null" />
        </g>
        <g
           id="svg_263-4"
           stroke="null">
          <g
             id="svg_271-0"
             stroke="null" />
          <g
             id="svg_264-4"
             stroke="null">
            <g
               id="svg_268-6"
               stroke="null">
              <path
                 id="svg_270-4"
                 fill="#82401a"
                 d="m 4001.8402,3272.2445 v -14.504 c 0,-59.86 48.7,-108.56 108.561,-108.56 h 235.094 c 59.86,0 108.56,48.7 108.56,108.56 v 14.504 c 0,59.86 -48.699,108.56 -108.56,108.56 h -235.095 c -59.86,0 -108.56,-48.7 -108.56,-108.56 z"
                 stroke="null" />
              <path
                 id="svg_269-6"
                 fill="#6f3716"
                 d="m 4454.0542,3272.2445 v -7.252 h -452.214 v 7.252 c 0,59.86 48.7,108.56 108.561,108.56 h 235.094 c 59.859,0 108.559,-48.7 108.559,-108.56 z"
                 stroke="null" />
            </g>
            <g
               id="svg_265-4"
               stroke="null">
              <path
                 id="svg_267-3"
                 fill="#3b1b14"
                 d="m 4101.7292,3301.7375 c 0,-8.284 6.716,-15 15,-15 11.635,0 16.842,-1.921 23.434,-4.353 7.887,-2.91 16.826,-6.208 33.817,-6.208 16.991,0 25.931,3.298 33.817,6.208 6.593,2.432 11.8,4.353 23.435,4.353 11.634,0 16.841,-1.921 23.434,-4.353 7.886,-2.91 16.825,-6.208 33.816,-6.208 16.991,0 25.93,3.298 33.816,6.208 6.592,2.432 11.799,4.353 23.432,4.353 8.284,0 15,6.716 15,15 0,8.284 -6.716,15 -15,15 -16.991,0 -25.93,-3.298 -33.816,-6.207 -6.592,-2.432 -11.799,-4.353 -23.432,-4.353 -11.634,0 -16.841,1.921 -23.434,4.353 -7.886,2.91 -16.825,6.207 -33.816,6.207 -16.991,0 -25.931,-3.298 -33.817,-6.207 -6.593,-2.432 -11.8,-4.353 -23.435,-4.353 -11.635,0 -16.842,1.921 -23.435,4.353 -7.887,2.91 -16.826,6.207 -33.817,6.207 -8.283,0 -14.999,-6.716 -14.999,-15 z"
                 stroke="null" />
              <path
                 id="svg_266-8"
                 fill="#572b21"
                 d="m 4101.7292,3238.8075 c 0,-8.284 6.716,-15 15,-15 11.635,0 16.842,-1.921 23.434,-4.353 7.887,-2.91 16.826,-6.207 33.817,-6.207 16.991,0 25.931,3.298 33.817,6.207 6.593,2.432 11.8,4.353 23.435,4.353 11.634,0 16.841,-1.921 23.434,-4.353 7.886,-2.91 16.825,-6.207 33.816,-6.207 16.991,0 25.93,3.298 33.816,6.207 6.592,2.432 11.799,4.353 23.432,4.353 8.284,0 15,6.716 15,15 0,8.284 -6.716,15 -15,15 -16.991,0 -25.93,-3.298 -33.816,-6.207 -6.592,-2.432 -11.799,-4.353 -23.432,-4.353 -11.634,0 -16.841,1.921 -23.434,4.353 -7.886,2.91 -16.825,6.207 -33.816,6.207 -16.991,0 -25.931,-3.298 -33.817,-6.207 -6.593,-2.432 -11.8,-4.353 -23.435,-4.353 -11.635,0 -16.842,1.921 -23.435,4.353 -7.887,2.91 -16.826,6.207 -33.817,6.207 -8.283,0 -14.999,-6.716 -14.999,-15 z"
                 stroke="null" />
            </g>
          </g>
        </g>
      </g>
    </g>
    <g
       transform="matrix(-0.00414001,-0.91569071,-0.91569071,0.00414001,425.66519,505.95673)"
       id="svg_248-4"
       stroke="null">
      <g
         transform="matrix(0.30725959,0,0,0.30725959,-814.13707,-633.3736)"
         id="svg_249-0"
         stroke="null">
        <g
           id="svg_252-0"
           stroke="null">
          <g
             id="svg_260-9"
             stroke="null" />
          <g
             id="svg_253-3"
             stroke="null">
            <g
               id="svg_257-7"
               stroke="null">
              <path
                 id="svg_259-5"
                 fill="#ba602b"
                 d="m 3430.6504,3501.5544 h -14.504 c -59.86,0 -108.559,-48.7 -108.559,-108.561 v -235.094 c 0,-59.86 48.7,-108.56 108.559,-108.56 h 14.504 c 59.86,0 108.56,48.699 108.56,108.56 v 235.094 c 0,59.86 -48.699,108.561 -108.56,108.561 z"
                 stroke="null" />
              <path
                 id="svg_258-7"
                 fill="#964c22"
                 d="m 3430.6504,3049.3404 h -7.252 v 452.214 h 7.252 c 59.86,0 108.56,-48.7 108.56,-108.561 v -235.094 c 0,-59.86 -48.699,-108.559 -108.56,-108.559 z"
                 stroke="null" />
            </g>
            <g
               id="svg_254-2"
               stroke="null">
              <path
                 id="svg_256-97"
                 fill="#3b1b14"
                 d="m 3460.1434,3401.6644 c -8.284,0 -15,-6.716 -15,-15 0,-11.635 -1.921,-16.842 -4.353,-23.435 -2.91,-7.887 -6.208,-16.826 -6.208,-33.817 0,-16.991 3.298,-25.931 6.208,-33.817 2.432,-6.593 4.353,-11.8 4.353,-23.434 0,-11.634 -1.921,-16.841 -4.353,-23.434 -2.91,-7.886 -6.208,-16.825 -6.208,-33.816 0,-16.991 3.298,-25.93 6.208,-33.816 2.432,-6.592 4.353,-11.799 4.353,-23.432 0,-8.284 6.716,-15 15,-15 8.284,0 15,6.716 15,15 0,16.991 -3.298,25.93 -6.208,33.816 -2.432,6.592 -4.353,11.799 -4.353,23.432 0,11.634 1.921,16.841 4.353,23.434 2.91,7.886 6.208,16.825 6.208,33.816 0,16.991 -3.298,25.931 -6.208,33.817 -2.432,6.593 -4.353,11.8 -4.353,23.435 0,11.635 1.921,16.842 4.353,23.435 2.91,7.887 6.208,16.826 6.208,33.817 0,8.283 -6.715,14.999 -15,14.999 z"
                 stroke="null" />
              <path
                 id="svg_255-56"
                 fill="#572b21"
                 d="m 3397.2134,3401.6644 c -8.284,0 -15,-6.716 -15,-15 0,-11.635 -1.921,-16.842 -4.353,-23.435 -2.91,-7.887 -6.207,-16.826 -6.207,-33.817 0,-16.991 3.298,-25.931 6.207,-33.817 2.432,-6.593 4.353,-11.8 4.353,-23.434 0,-11.634 -1.921,-16.841 -4.353,-23.434 -2.91,-7.886 -6.207,-16.825 -6.207,-33.816 0,-16.991 3.298,-25.93 6.207,-33.816 2.432,-6.592 4.353,-11.799 4.353,-23.432 0,-8.284 6.716,-15 15,-15 8.284,0 15,6.716 15,15 0,16.991 -3.298,25.93 -6.208,33.816 -2.432,6.592 -4.353,11.799 -4.353,23.432 0,11.634 1.921,16.841 4.353,23.434 2.91,7.886 6.208,16.825 6.208,33.816 0,16.991 -3.298,25.931 -6.208,33.817 -2.432,6.593 -4.353,11.8 -4.353,23.435 0,11.635 1.921,16.842 4.353,23.435 2.91,7.887 6.208,16.826 6.208,33.817 0,8.283 -6.716,14.999 -15,14.999 z"
                 stroke="null" />
            </g>
          </g>
        </g>
        <g
           id="svg_250-5"
           stroke="null">
          <g
             id="svg_251-3"
             stroke="null" />
        </g>
      </g>
    </g>
    <g
       transform="matrix(-0.02977052,0.91521601,0.91521601,0.02977052,-267.92399,9.6511774)"
       id="svg_222-8"
       stroke="null">
      <g
         transform="matrix(0.30725959,0,0,0.30725959,-814.13707,-633.3736)"
         id="svg_223-6"
         stroke="null">
        <g
           id="svg_226-2"
           stroke="null">
          <g
             id="svg_234-5"
             stroke="null" />
          <g
             id="svg_227-1"
             stroke="null">
            <g
               id="svg_231-3"
               stroke="null">
              <path
                 id="svg_233-9"
                 fill="#ba602b"
                 d="m 4071.8021,3608.9555 h -14.504 c -59.86,0 -108.559,-48.7 -108.559,-108.561 v -235.094 c 0,-59.86 48.7,-108.56 108.559,-108.56 h 14.504 c 59.86,0 108.56,48.699 108.56,108.56 v 235.094 c 0,59.86 -48.699,108.561 -108.56,108.561 z"
                 stroke="null" />
              <path
                 id="svg_232-7"
                 fill="#964c22"
                 d="m 4071.8021,3156.7415 h -7.252 v 452.214 h 7.252 c 59.86,0 108.56,-48.7 108.56,-108.561 v -235.094 c 0,-59.86 -48.699,-108.559 -108.56,-108.559 z"
                 stroke="null" />
            </g>
            <g
               id="svg_228-3"
               stroke="null">
              <path
                 id="svg_230-7"
                 fill="#3b1b14"
                 d="m 4101.2951,3509.0655 c -8.284,0 -15,-6.716 -15,-15 0,-11.635 -1.921,-16.842 -4.353,-23.435 -2.91,-7.887 -6.208,-16.826 -6.208,-33.817 0,-16.991 3.298,-25.931 6.208,-33.817 2.432,-6.593 4.353,-11.8 4.353,-23.434 0,-11.634 -1.921,-16.841 -4.353,-23.434 -2.91,-7.886 -6.208,-16.825 -6.208,-33.816 0,-16.991 3.298,-25.93 6.208,-33.816 2.432,-6.592 4.353,-11.799 4.353,-23.432 0,-8.284 6.716,-15 15,-15 8.284,0 15,6.716 15,15 0,16.991 -3.298,25.93 -6.208,33.816 -2.432,6.592 -4.353,11.799 -4.353,23.432 0,11.634 1.921,16.841 4.353,23.434 2.91,7.886 6.208,16.825 6.208,33.816 0,16.991 -3.298,25.931 -6.208,33.817 -2.432,6.593 -4.353,11.8 -4.353,23.435 0,11.635 1.921,16.842 4.353,23.435 2.91,7.887 6.208,16.826 6.208,33.817 0,8.283 -6.715,14.999 -15,14.999 z"
                 stroke="null" />
              <path
                 id="svg_229-5"
                 fill="#572b21"
                 d="m 4038.3651,3509.0655 c -8.284,0 -15,-6.716 -15,-15 0,-11.635 -1.921,-16.842 -4.353,-23.435 -2.91,-7.887 -6.207,-16.826 -6.207,-33.817 0,-16.991 3.298,-25.931 6.207,-33.817 2.432,-6.593 4.353,-11.8 4.353,-23.434 0,-11.634 -1.921,-16.841 -4.353,-23.434 -2.91,-7.886 -6.207,-16.825 -6.207,-33.816 0,-16.991 3.298,-25.93 6.207,-33.816 2.432,-6.592 4.353,-11.799 4.353,-23.432 0,-8.284 6.716,-15 15,-15 8.284,0 15,6.716 15,15 0,16.991 -3.298,25.93 -6.208,33.816 -2.432,6.592 -4.353,11.799 -4.353,23.432 0,11.634 1.921,16.841 4.353,23.434 2.91,7.886 6.208,16.825 6.208,33.816 0,16.991 -3.298,25.931 -6.208,33.817 -2.432,6.593 -4.353,11.8 -4.353,23.435 0,11.635 1.921,16.842 4.353,23.435 2.91,7.887 6.208,16.826 6.208,33.817 0,8.283 -6.716,14.999 -15,14.999 z"
                 stroke="null" />
            </g>
          </g>
        </g>
        <g
           id="svg_224-0"
           stroke="null">
          <g
             id="svg_225-2"
             stroke="null" />
        </g>
      </g>
    </g>
    <g
       transform="matrix(-0.00858226,-0.91565983,-0.91565983,0.00858226,555.79119,620.4738)"
       id="svg_209-1"
       stroke="null">
      <g
         transform="matrix(0.30725959,0,0,0.30725959,-814.13707,-633.3736)"
         id="svg_210-8"
         stroke="null">
        <g
           id="svg_213-7"
           stroke="null">
          <g
             id="svg_221-1"
             stroke="null" />
          <g
             id="svg_214-5"
             stroke="null">
            <g
               id="svg_218-5"
               stroke="null">
              <path
                 id="svg_220-8"
                 fill="#ba602b"
                 d="m 3632.4342,3615.4646 h -14.504 c -59.86,0 -108.559,-48.7 -108.559,-108.561 v -235.094 c 0,-59.86 48.7,-108.56 108.559,-108.56 h 14.504 c 59.86,0 108.56,48.699 108.56,108.56 v 235.094 c 0,59.86 -48.699,108.561 -108.56,108.561 z"
                 stroke="null" />
              <path
                 id="svg_219-5"
                 fill="#964c22"
                 d="m 3632.4342,3163.2506 h -7.252 v 452.214 h 7.252 c 59.86,0 108.56,-48.7 108.56,-108.561 v -235.094 c 0,-59.86 -48.699,-108.559 -108.56,-108.559 z"
                 stroke="null" />
            </g>
            <g
               id="svg_215-6"
               stroke="null">
              <path
                 id="svg_217-7"
                 fill="#3b1b14"
                 d="m 3661.9272,3515.5746 c -8.284,0 -15,-6.716 -15,-15 0,-11.635 -1.921,-16.842 -4.353,-23.435 -2.91,-7.887 -6.208,-16.826 -6.208,-33.817 0,-16.991 3.298,-25.931 6.208,-33.817 2.432,-6.593 4.353,-11.8 4.353,-23.434 0,-11.634 -1.921,-16.841 -4.353,-23.434 -2.91,-7.886 -6.208,-16.825 -6.208,-33.816 0,-16.991 3.298,-25.93 6.208,-33.816 2.432,-6.592 4.353,-11.799 4.353,-23.432 0,-8.284 6.716,-15 15,-15 8.284,0 15,6.716 15,15 0,16.991 -3.298,25.93 -6.208,33.816 -2.432,6.592 -4.353,11.799 -4.353,23.432 0,11.634 1.921,16.841 4.353,23.434 2.91,7.886 6.208,16.825 6.208,33.816 0,16.991 -3.298,25.931 -6.208,33.817 -2.432,6.593 -4.353,11.8 -4.353,23.435 0,11.635 1.921,16.842 4.353,23.435 2.91,7.887 6.208,16.826 6.208,33.817 0,8.283 -6.715,14.999 -15,14.999 z"
                 stroke="null" />
              <path
                 id="svg_216-9"
                 fill="#572b21"
                 d="m 3598.9972,3515.5746 c -8.284,0 -15,-6.716 -15,-15 0,-11.635 -1.921,-16.842 -4.353,-23.435 -2.91,-7.887 -6.207,-16.826 -6.207,-33.817 0,-16.991 3.298,-25.931 6.207,-33.817 2.432,-6.593 4.353,-11.8 4.353,-23.434 0,-11.634 -1.921,-16.841 -4.353,-23.434 -2.91,-7.886 -6.207,-16.825 -6.207,-33.816 0,-16.991 3.298,-25.93 6.207,-33.816 2.432,-6.592 4.353,-11.799 4.353,-23.432 0,-8.284 6.716,-15 15,-15 8.284,0 15,6.716 15,15 0,16.991 -3.298,25.93 -6.208,33.816 -2.432,6.592 -4.353,11.799 -4.353,23.432 0,11.634 1.921,16.841 4.353,23.434 2.91,7.886 6.208,16.825 6.208,33.816 0,16.991 -3.298,25.931 -6.208,33.817 -2.432,6.593 -4.353,11.8 -4.353,23.435 0,11.635 1.921,16.842 4.353,23.435 2.91,7.887 6.208,16.826 6.208,33.817 0,8.283 -6.716,14.999 -15,14.999 z"
                 stroke="null" />
            </g>
          </g>
        </g>
        <g
           id="svg_211-4"
           stroke="null">
          <g
             id="svg_212-1"
             stroke="null" />
        </g>
      </g>
    </g>
    <g
       transform="matrix(0.91564566,-0.0099797,-0.0099797,-0.91564566,-165.58768,795.2878)"
       id="svg_196-6"
       stroke="null">
      <g
         transform="matrix(0.31614967,0,0,0.31614967,-878.42534,-673.3465)"
         id="svg_197-1"
         stroke="null">
        <g
           id="svg_207-2"
           stroke="null">
          <g
             id="svg_208-0"
             stroke="null" />
        </g>
        <g
           id="svg_198-4"
           stroke="null">
          <g
             id="svg_206-4"
             stroke="null" />
          <g
             id="svg_199-5"
             stroke="null">
            <g
               id="svg_203-9"
               stroke="null">
              <path
                 id="svg_205-7"
                 fill="#82401a"
                 d="m 3707.6758,3443.0497 v -14.504 c 0,-59.86 48.7,-108.56 108.561,-108.56 h 235.094 c 59.86,0 108.56,48.7 108.56,108.56 v 14.504 c 0,59.86 -48.699,108.56 -108.56,108.56 h -235.095 c -59.86,0 -108.56,-48.7 -108.56,-108.56 z"
                 stroke="null" />
              <path
                 id="svg_204-5"
                 fill="#6f3716"
                 d="m 4159.8898,3443.0497 v -7.252 h -452.214 v 7.252 c 0,59.86 48.7,108.56 108.561,108.56 h 235.094 c 59.859,0 108.559,-48.7 108.559,-108.56 z"
                 stroke="null" />
            </g>
            <g
               id="svg_200-3"
               stroke="null">
              <path
                 id="svg_202-9"
                 fill="#3b1b14"
                 d="m 3807.5648,3472.5427 c 0,-8.284 6.716,-15 15,-15 11.635,0 16.842,-1.921 23.434,-4.353 7.887,-2.91 16.826,-6.208 33.817,-6.208 16.991,0 25.931,3.298 33.817,6.208 6.593,2.432 11.8,4.353 23.435,4.353 11.634,0 16.841,-1.921 23.434,-4.353 7.886,-2.91 16.825,-6.208 33.816,-6.208 16.991,0 25.93,3.298 33.816,6.208 6.592,2.432 11.799,4.353 23.432,4.353 8.284,0 15,6.716 15,15 0,8.284 -6.716,15 -15,15 -16.991,0 -25.93,-3.298 -33.816,-6.207 -6.592,-2.432 -11.799,-4.353 -23.432,-4.353 -11.634,0 -16.841,1.921 -23.434,4.353 -7.886,2.91 -16.825,6.207 -33.816,6.207 -16.991,0 -25.931,-3.298 -33.817,-6.207 -6.593,-2.432 -11.8,-4.353 -23.435,-4.353 -11.635,0 -16.842,1.921 -23.435,4.353 -7.887,2.91 -16.826,6.207 -33.817,6.207 -8.283,0 -14.999,-6.716 -14.999,-15 z"
                 stroke="null" />
              <path
                 id="svg_201-0"
                 fill="#572b21"
                 d="m 3807.5648,3409.6127 c 0,-8.284 6.716,-15 15,-15 11.635,0 16.842,-1.921 23.434,-4.353 7.887,-2.91 16.826,-6.207 33.817,-6.207 16.991,0 25.931,3.298 33.817,6.207 6.593,2.432 11.8,4.353 23.435,4.353 11.634,0 16.841,-1.921 23.434,-4.353 7.886,-2.91 16.825,-6.207 33.816,-6.207 16.991,0 25.93,3.298 33.816,6.207 6.592,2.432 11.799,4.353 23.432,4.353 8.284,0 15,6.716 15,15 0,8.284 -6.716,15 -15,15 -16.991,0 -25.93,-3.298 -33.816,-6.207 -6.592,-2.432 -11.799,-4.353 -23.432,-4.353 -11.634,0 -16.841,1.921 -23.434,4.353 -7.886,2.91 -16.825,6.207 -33.816,6.207 -16.991,0 -25.931,-3.298 -33.817,-6.207 -6.593,-2.432 -11.8,-4.353 -23.435,-4.353 -11.635,0 -16.842,1.921 -23.435,4.353 -7.887,2.91 -16.826,6.207 -33.817,6.207 -8.283,0 -14.999,-6.716 -14.999,-15 z"
                 stroke="null" />
            </g>
          </g>
        </g>
      </g>
    </g>
    <g
       transform="matrix(-0.91565654,-0.0089285,-0.0089285,0.91565654,520.29949,93.94707)"
       id="svg_170-5"
       stroke="null">
      <g
         transform="matrix(0.31614967,0,0,0.31614967,-878.42534,-673.3465)"
         id="svg_171-5"
         stroke="null">
        <g
           id="svg_181-6"
           stroke="null">
          <g
             id="svg_182-3"
             stroke="null" />
        </g>
        <g
           id="svg_172-2"
           stroke="null">
          <g
             id="svg_180-6"
             stroke="null" />
          <g
             id="svg_173-8"
             stroke="null">
            <g
               id="svg_177-9"
               stroke="null">
              <path
                 id="svg_179-1"
                 fill="#82401a"
                 d="m 4099.895,3477.8433 v -14.504 c 0,-59.86 48.7,-108.56 108.561,-108.56 h 235.094 c 59.86,0 108.56,48.7 108.56,108.56 v 14.504 c 0,59.86 -48.699,108.56 -108.56,108.56 h -235.095 c -59.86,0 -108.56,-48.7 -108.56,-108.56 z"
                 stroke="null" />
              <path
                 id="svg_178-4"
                 fill="#6f3716"
                 d="m 4552.109,3477.8433 v -7.252 h -452.214 v 7.252 c 0,59.86 48.7,108.56 108.561,108.56 h 235.094 c 59.859,0 108.559,-48.7 108.559,-108.56 z"
                 stroke="null" />
            </g>
            <g
               id="svg_174-8"
               stroke="null">
              <path
                 id="svg_176-8"
                 fill="#3b1b14"
                 d="m 4199.784,3507.3363 c 0,-8.284 6.716,-15 15,-15 11.635,0 16.842,-1.921 23.434,-4.353 7.887,-2.91 16.826,-6.208 33.817,-6.208 16.991,0 25.931,3.298 33.817,6.208 6.593,2.432 11.8,4.353 23.435,4.353 11.634,0 16.841,-1.921 23.434,-4.353 7.886,-2.91 16.825,-6.208 33.816,-6.208 16.991,0 25.93,3.298 33.816,6.208 6.592,2.432 11.799,4.353 23.432,4.353 8.284,0 15,6.716 15,15 0,8.284 -6.716,15 -15,15 -16.991,0 -25.93,-3.298 -33.816,-6.207 -6.592,-2.432 -11.799,-4.353 -23.432,-4.353 -11.634,0 -16.841,1.921 -23.434,4.353 -7.886,2.91 -16.825,6.207 -33.816,6.207 -16.991,0 -25.931,-3.298 -33.817,-6.207 -6.593,-2.432 -11.8,-4.353 -23.435,-4.353 -11.635,0 -16.842,1.921 -23.435,4.353 -7.887,2.91 -16.826,6.207 -33.817,6.207 -8.283,0 -14.999,-6.716 -14.999,-15 z"
                 stroke="null" />
              <path
                 id="svg_175-7"
                 fill="#572b21"
                 d="m 4199.784,3444.4063 c 0,-8.284 6.716,-15 15,-15 11.635,0 16.842,-1.921 23.434,-4.353 7.887,-2.91 16.826,-6.207 33.817,-6.207 16.991,0 25.931,3.298 33.817,6.207 6.593,2.432 11.8,4.353 23.435,4.353 11.634,0 16.841,-1.921 23.434,-4.353 7.886,-2.91 16.825,-6.207 33.816,-6.207 16.991,0 25.93,3.298 33.816,6.207 6.592,2.432 11.799,4.353 23.432,4.353 8.284,0 15,6.716 15,15 0,8.2841 -6.716,15 -15,15 -16.991,0 -25.93,-3.298 -33.816,-6.207 -6.592,-2.432 -11.799,-4.353 -23.432,-4.353 -11.634,0 -16.841,1.921 -23.434,4.353 -7.886,2.91 -16.825,6.207 -33.816,6.207 -16.991,0 -25.931,-3.298 -33.817,-6.207 -6.593,-2.432 -11.8,-4.353 -23.435,-4.353 -11.635,0 -16.842,1.921 -23.435,4.353 -7.887,2.91 -16.826,6.207 -33.817,6.207 -8.283,0 -14.999,-6.716 -14.999,-15 z"
                 stroke="null" />
            </g>
          </g>
        </g>
      </g>
    </g>
    <g
       stroke="null"
       id="svg_209-1-1"
       transform="matrix(-0.01937564,-0.91549504,-0.91549504,0.01937564,554.37459,745.4342)">
      <g
         stroke="null"
         id="svg_210-8-0"
         transform="matrix(0.30725959,0,0,0.30725959,-814.13707,-633.3736)">
        <g
           stroke="null"
           id="svg_213-7-2">
          <g
             stroke="null"
             id="svg_221-1-3" />
          <g
             stroke="null"
             id="svg_214-5-7">
            <g
               stroke="null"
               id="svg_218-5-1">
              <path
                 stroke="null"
                 d="m 3632.4342,3615.4646 h -14.504 c -59.86,0 -108.559,-48.7 -108.559,-108.561 v -235.094 c 0,-59.86 48.7,-108.56 108.559,-108.56 h 14.504 c 59.86,0 108.56,48.699 108.56,108.56 v 235.094 c 0,59.86 -48.699,108.561 -108.56,108.561 z"
                 fill="#ba602b"
                 id="svg_220-8-8" />
              <path
                 stroke="null"
                 d="m 3632.4342,3163.2506 h -7.252 v 452.214 h 7.252 c 59.86,0 108.56,-48.7 108.56,-108.561 v -235.094 c 0,-59.86 -48.699,-108.559 -108.56,-108.559 z"
                 fill="#964c22"
                 id="svg_219-5-9" />
            </g>
            <g
               stroke="null"
               id="svg_215-6-3">
              <path
                 stroke="null"
                 d="m 3661.9272,3515.5746 c -8.284,0 -15,-6.716 -15,-15 0,-11.635 -1.921,-16.842 -4.353,-23.435 -2.91,-7.887 -6.208,-16.826 -6.208,-33.817 0,-16.991 3.298,-25.931 6.208,-33.817 2.432,-6.593 4.353,-11.8 4.353,-23.434 0,-11.634 -1.921,-16.841 -4.353,-23.434 -2.91,-7.886 -6.208,-16.825 -6.208,-33.816 0,-16.991 3.298,-25.93 6.208,-33.816 2.432,-6.592 4.353,-11.799 4.353,-23.432 0,-8.284 6.716,-15 15,-15 8.284,0 15,6.716 15,15 0,16.991 -3.298,25.93 -6.208,33.816 -2.432,6.592 -4.353,11.799 -4.353,23.432 0,11.634 1.921,16.841 4.353,23.434 2.91,7.886 6.208,16.825 6.208,33.816 0,16.991 -3.298,25.931 -6.208,33.817 -2.432,6.593 -4.353,11.8 -4.353,23.435 0,11.635 1.921,16.842 4.353,23.435 2.91,7.887 6.208,16.826 6.208,33.817 0,8.283 -6.715,14.999 -15,14.999 z"
                 fill="#3b1b14"
                 id="svg_217-7-7" />
              <path
                 stroke="null"
                 d="m 3598.9972,3515.5746 c -8.284,0 -15,-6.716 -15,-15 0,-11.635 -1.921,-16.842 -4.353,-23.435 -2.91,-7.887 -6.207,-16.826 -6.207,-33.817 0,-16.991 3.298,-25.931 6.207,-33.817 2.432,-6.593 4.353,-11.8 4.353,-23.434 0,-11.634 -1.921,-16.841 -4.353,-23.434 -2.91,-7.886 -6.207,-16.825 -6.207,-33.816 0,-16.991 3.298,-25.93 6.207,-33.816 2.432,-6.592 4.353,-11.799 4.353,-23.432 0,-8.284 6.716,-15 15,-15 8.284,0 15,6.716 15,15 0,16.991 -3.298,25.93 -6.208,33.816 -2.432,6.592 -4.353,11.799 -4.353,23.432 0,11.634 1.921,16.841 4.353,23.434 2.91,7.886 6.208,16.825 6.208,33.816 0,16.991 -3.298,25.931 -6.208,33.817 -2.432,6.593 -4.353,11.8 -4.353,23.435 0,11.635 1.921,16.842 4.353,23.435 2.91,7.887 6.208,16.826 6.208,33.817 0,8.283 -6.716,14.999 -15,14.999 z"
                 fill="#572b21"
                 id="svg_216-9-4" />
            </g>
          </g>
        </g>
        <g
           stroke="null"
           id="svg_211-4-8">
          <g
             stroke="null"
             id="svg_212-1-0" />
        </g>
      </g>
    </g>
    <g
       transform="matrix(-0.915625,0.01172408,0.01172408,0.915625,416.65238,-93.666796)"
       id="svg_235-0"
       stroke="null">
      <g
         transform="matrix(0.31614967,0,0,0.31614967,-878.42534,-673.3465)"
         id="svg_236-4"
         stroke="null">
        <g
           id="svg_246-8"
           stroke="null">
          <g
             id="svg_247-5"
             stroke="null" />
        </g>
        <g
           id="svg_237-5"
           stroke="null">
          <g
             id="svg_245-5"
             stroke="null" />
          <g
             id="svg_238-4"
             stroke="null">
            <g
               id="svg_242-2"
               stroke="null">
              <path
                 id="svg_244-1"
                 fill="#82401a"
                 d="m 3552.6859,3237.4509 v -14.504 c 0,-59.86 48.7,-108.56 108.561,-108.56 h 235.094 c 59.86,0 108.56,48.7 108.56,108.56 v 14.504 c 0,59.86 -48.699,108.56 -108.56,108.56 h -235.095 c -59.86,0 -108.56,-48.7 -108.56,-108.56 z"
                 stroke="null" />
              <path
                 id="svg_243-9"
                 fill="#6f3716"
                 d="m 4004.8999,3237.4509 v -7.252 h -452.214 v 7.252 c 0,59.86 48.7,108.56 108.561,108.56 h 235.094 c 59.859,0 108.559,-48.7 108.559,-108.56 z"
                 stroke="null" />
            </g>
            <g
               id="svg_239-2"
               stroke="null">
              <path
                 id="svg_241-4"
                 fill="#3b1b14"
                 d="m 3652.5749,3266.9439 c 0,-8.284 6.716,-15 15,-15 11.635,0 16.842,-1.921 23.434,-4.353 7.887,-2.91 16.826,-6.208 33.817,-6.208 16.991,0 25.931,3.298 33.817,6.208 6.593,2.432 11.8,4.353 23.435,4.353 11.634,0 16.841,-1.921 23.434,-4.353 7.886,-2.91 16.825,-6.208 33.816,-6.208 16.991,0 25.93,3.298 33.816,6.208 6.592,2.432 11.799,4.353 23.432,4.353 8.284,0 15,6.716 15,15 0,8.284 -6.716,15 -15,15 -16.991,0 -25.93,-3.298 -33.816,-6.207 -6.592,-2.432 -11.799,-4.353 -23.432,-4.353 -11.634,0 -16.841,1.921 -23.434,4.353 -7.886,2.91 -16.825,6.207 -33.816,6.207 -16.991,0 -25.931,-3.298 -33.817,-6.207 -6.593,-2.432 -11.8,-4.353 -23.435,-4.353 -11.635,0 -16.842,1.921 -23.435,4.353 -7.887,2.91 -16.826,6.207 -33.817,6.207 -8.283,0 -14.999,-6.716 -14.999,-15 z"
                 stroke="null" />
              <path
                 id="svg_240-5"
                 fill="#572b21"
                 d="m 3652.5749,3204.0139 c 0,-8.284 6.716,-15 15,-15 11.635,0 16.842,-1.921 23.434,-4.353 7.887,-2.91 16.826,-6.207 33.817,-6.207 16.991,0 25.931,3.298 33.817,6.207 6.593,2.432 11.8,4.353 23.435,4.353 11.634,0 16.841,-1.921 23.434,-4.353 7.886,-2.91 16.825,-6.207 33.816,-6.207 16.991,0 25.93,3.298 33.816,6.207 6.592,2.432 11.799,4.353 23.432,4.353 8.284,0 15,6.716 15,15 0,8.284 -6.716,15 -15,15 -16.991,0 -25.93,-3.298 -33.816,-6.207 -6.592,-2.432 -11.799,-4.353 -23.432,-4.353 -11.634,0 -16.841,1.921 -23.434,4.353 -7.886,2.91 -16.825,6.207 -33.816,6.207 -16.991,0 -25.931,-3.298 -33.817,-6.207 -6.593,-2.432 -11.8,-4.353 -23.435,-4.353 -11.635,0 -16.842,1.921 -23.435,4.353 -7.887,2.91 -16.826,6.207 -33.817,6.207 -8.283,0 -14.999,-6.716 -14.999,-15 z"
                 stroke="null" />
            </g>
          </g>
        </g>
      </g>
    </g>
    <g
       transform="matrix(-0.87253794,0.27782033,0.27782033,0.87253794,483.88139,23.559533)"
       id="svg_274-5"
       stroke="null">
      <g
         transform="matrix(0.30725959,0,0,0.30725959,-814.13707,-633.3736)"
         id="svg_275-6"
         stroke="null">
        <g
           id="svg_278-2"
           stroke="null">
          <g
             id="svg_286-8"
             stroke="null" />
          <g
             id="svg_279-5"
             stroke="null">
            <g
               id="svg_283-9"
               stroke="null">
              <path
                 id="svg_285-4"
                 fill="#ba602b"
                 d="m 3931.8553,3469.0086 h -14.504 c -59.86,0 -108.559,-48.7 -108.559,-108.561 v -235.094 c 0,-59.86 48.7,-108.56 108.559,-108.56 h 14.504 c 59.86,0 108.56,48.699 108.56,108.56 v 235.094 c 0,59.86 -48.699,108.561 -108.56,108.561 z"
                 stroke="null" />
              <path
                 id="svg_284-3"
                 fill="#964c22"
                 d="m 3931.8553,3016.7946 h -7.252 v 452.214 h 7.252 c 59.86,0 108.56,-48.7 108.56,-108.561 v -235.094 c 0,-59.86 -48.699,-108.559 -108.56,-108.559 z"
                 stroke="null" />
            </g>
            <g
               id="svg_280-9"
               stroke="null">
              <path
                 id="svg_282-0"
                 fill="#3b1b14"
                 d="m 3961.3483,3369.1186 c -8.284,0 -15,-6.716 -15,-15 0,-11.635 -1.921,-16.842 -4.353,-23.435 -2.91,-7.887 -6.208,-16.826 -6.208,-33.817 0,-16.991 3.298,-25.931 6.208,-33.817 2.432,-6.593 4.353,-11.8 4.353,-23.434 0,-11.634 -1.921,-16.841 -4.353,-23.434 -2.91,-7.886 -6.208,-16.825 -6.208,-33.816 0,-16.991 3.298,-25.93 6.208,-33.816 2.432,-6.592 4.353,-11.799 4.353,-23.432 0,-8.284 6.716,-15 15,-15 8.284,0 15,6.716 15,15 0,16.991 -3.298,25.93 -6.208,33.816 -2.432,6.592 -4.353,11.799 -4.353,23.432 0,11.634 1.921,16.841 4.353,23.434 2.91,7.886 6.208,16.825 6.208,33.816 0,16.991 -3.298,25.931 -6.208,33.817 -2.432,6.593 -4.353,11.8 -4.353,23.435 0,11.635 1.921,16.842 4.353,23.435 2.91,7.887 6.208,16.826 6.208,33.817 0,8.283 -6.715,14.999 -15,14.999 z"
                 stroke="null" />
              <path
                 id="svg_281-5"
                 fill="#572b21"
                 d="m 3898.4183,3369.1186 c -8.284,0 -15,-6.716 -15,-15 0,-11.635 -1.921,-16.842 -4.353,-23.435 -2.91,-7.887 -6.207,-16.826 -6.207,-33.817 0,-16.991 3.298,-25.931 6.207,-33.817 2.432,-6.593 4.353,-11.8 4.353,-23.434 0,-11.634 -1.921,-16.841 -4.353,-23.434 -2.91,-7.886 -6.207,-16.825 -6.207,-33.816 0,-16.991 3.298,-25.93 6.207,-33.816 2.432,-6.592 4.353,-11.799 4.353,-23.432 0,-8.284 6.716,-15 15,-15 8.284,0 15,6.716 15,15 0,16.991 -3.298,25.93 -6.208,33.816 -2.432,6.592 -4.353,11.799 -4.353,23.432 0,11.634 1.921,16.841 4.353,23.434 2.91,7.886 6.208,16.825 6.208,33.816 0,16.991 -3.298,25.931 -6.208,33.817 -2.432,6.593 -4.353,11.8 -4.353,23.435 0,11.635 1.921,16.842 4.353,23.435 2.91,7.887 6.208,16.826 6.208,33.817 0,8.283 -6.716,14.999 -15,14.999 z"
                 stroke="null" />
            </g>
          </g>
        </g>
        <g
           id="svg_276-6"
           stroke="null">
          <g
             id="svg_277-3"
             stroke="null" />
        </g>
      </g>
    </g>
    <g
       transform="matrix(0.91520329,0.03015807,0.03015807,-0.91520329,-57.93807,690.98228)"
       id="svg_183-1"
       stroke="null">
      <g
         transform="matrix(0.31614967,0,0,0.31614967,-878.42534,-673.3465)"
         id="svg_184-5"
         stroke="null">
        <g
           id="svg_194-2"
           stroke="null">
          <g
             id="svg_195-1"
             stroke="null" />
        </g>
        <g
           id="svg_185-1"
           stroke="null">
          <g
             id="svg_193-0"
             stroke="null" />
          <g
             id="svg_186-1"
             stroke="null">
            <g
               id="svg_190-8"
               stroke="null">
              <path
                 id="svg_192-7"
                 fill="#82401a"
                 d="m 3340.7609,3563.2459 v -14.504 c 0,-59.86 48.7,-108.56 108.561,-108.56 h 235.094 c 59.86,0 108.56,48.7 108.56,108.56 v 14.504 c 0,59.86 -48.699,108.56 -108.56,108.56 h -235.095 c -59.86,0 -108.56,-48.7 -108.56,-108.56 z"
                 stroke="null" />
              <path
                 id="svg_191-6"
                 fill="#6f3716"
                 d="m 3792.9749,3563.2459 v -7.252 h -452.214 v 7.252 c 0,59.86 48.7,108.56 108.561,108.56 h 235.094 c 59.859,0 108.559,-48.7 108.559,-108.56 z"
                 stroke="null" />
            </g>
            <g
               id="svg_187-0"
               stroke="null">
              <path
                 id="svg_189-0"
                 fill="#3b1b14"
                 d="m 3440.6499,3592.7389 c 0,-8.284 6.716,-15 15,-15 11.635,0 16.842,-1.921 23.434,-4.353 7.887,-2.91 16.826,-6.208 33.817,-6.208 16.991,0 25.931,3.298 33.817,6.208 6.593,2.432 11.8,4.353 23.435,4.353 11.634,0 16.841,-1.921 23.434,-4.353 7.886,-2.91 16.825,-6.208 33.816,-6.208 16.991,0 25.93,3.298 33.816,6.208 6.592,2.432 11.799,4.353 23.432,4.353 8.284,0 15,6.716 15,15 0,8.284 -6.716,15 -15,15 -16.991,0 -25.93,-3.298 -33.816,-6.207 -6.592,-2.432 -11.799,-4.353 -23.432,-4.353 -11.634,0 -16.841,1.921 -23.434,4.353 -7.886,2.91 -16.825,6.207 -33.816,6.207 -16.991,0 -25.931,-3.298 -33.817,-6.207 -6.593,-2.432 -11.8,-4.353 -23.435,-4.353 -11.635,0 -16.842,1.921 -23.435,4.353 -7.887,2.91 -16.826,6.207 -33.817,6.207 -8.283,0 -14.999,-6.716 -14.999,-15 z"
                 stroke="null" />
              <path
                 id="svg_188-9"
                 fill="#572b21"
                 d="m 3440.6499,3529.8089 c 0,-8.284 6.716,-15 15,-15 11.635,0 16.842,-1.921 23.434,-4.353 7.887,-2.91 16.826,-6.207 33.817,-6.207 16.991,0 25.931,3.298 33.817,6.207 6.593,2.432 11.8,4.353 23.435,4.353 11.634,0 16.841,-1.921 23.434,-4.353 7.886,-2.91 16.825,-6.207 33.816,-6.207 16.991,0 25.93,3.298 33.816,6.207 6.592,2.432 11.799,4.353 23.432,4.353 8.284,0 15,6.716 15,15 0,8.284 -6.716,15 -15,15 -16.991,0 -25.93,-3.298 -33.816,-6.207 -6.592,-2.432 -11.799,-4.353 -23.432,-4.353 -11.634,0 -16.841,1.921 -23.434,4.353 -7.886,2.91 -16.825,6.207 -33.816,6.207 -16.991,0 -25.931,-3.298 -33.817,-6.207 -6.593,-2.432 -11.8,-4.353 -23.435,-4.353 -11.635,0 -16.842,1.921 -23.435,4.353 -7.887,2.91 -16.826,6.207 -33.817,6.207 -8.283,0 -14.999,-6.716 -14.999,-15 z"
                 stroke="null" />
            </g>
          </g>
        </g>
      </g>
    </g>
    <g
       stroke="null"
       id="svg_248-4-3"
       transform="matrix(-0.00414001,-0.91569072,-0.91569072,0.00414001,456.0753,381.79812)">
      <g
         stroke="null"
         id="svg_249-0-9"
         transform="matrix(0.30725959,0,0,0.30725959,-814.13707,-633.3736)">
        <g
           stroke="null"
           id="svg_252-0-6">
          <g
             stroke="null"
             id="svg_260-9-6" />
          <g
             stroke="null"
             id="svg_253-3-4">
            <g
               stroke="null"
               id="svg_257-7-0">
              <path
                 stroke="null"
                 d="m 3430.6504,3501.5544 h -14.504 c -59.86,0 -108.559,-48.7 -108.559,-108.561 v -235.094 c 0,-59.86 48.7,-108.56 108.559,-108.56 h 14.504 c 59.86,0 108.56,48.699 108.56,108.56 v 235.094 c 0,59.86 -48.699,108.561 -108.56,108.561 z"
                 fill="#ba602b"
                 id="svg_259-5-8" />
              <path
                 stroke="null"
                 d="m 3430.6504,3049.3404 h -7.252 v 452.214 h 7.252 c 59.86,0 108.56,-48.7 108.56,-108.561 v -235.094 c 0,-59.86 -48.699,-108.559 -108.56,-108.559 z"
                 fill="#964c22"
                 id="svg_258-7-2" />
            </g>
            <g
               stroke="null"
               id="svg_254-2-0">
              <path
                 stroke="null"
                 d="m 3460.1434,3401.6644 c -8.284,0 -15,-6.716 -15,-15 0,-11.635 -1.921,-16.842 -4.353,-23.435 -2.91,-7.887 -6.208,-16.826 -6.208,-33.817 0,-16.991 3.298,-25.931 6.208,-33.817 2.432,-6.593 4.353,-11.8 4.353,-23.434 0,-11.634 -1.921,-16.841 -4.353,-23.434 -2.91,-7.886 -6.208,-16.825 -6.208,-33.816 0,-16.991 3.298,-25.93 6.208,-33.816 2.432,-6.592 4.353,-11.799 4.353,-23.432 0,-8.284 6.716,-15 15,-15 8.284,0 15,6.716 15,15 0,16.991 -3.298,25.93 -6.208,33.816 -2.432,6.592 -4.353,11.799 -4.353,23.432 0,11.634 1.921,16.841 4.353,23.434 2.91,7.886 6.208,16.825 6.208,33.816 0,16.991 -3.298,25.931 -6.208,33.817 -2.432,6.593 -4.353,11.8 -4.353,23.435 0,11.635 1.921,16.842 4.353,23.435 2.91,7.887 6.208,16.826 6.208,33.817 0,8.283 -6.715,14.999 -15,14.999 z"
                 fill="#3b1b14"
                 id="svg_256-97-6" />
              <path
                 stroke="null"
                 d="m 3397.2134,3401.6644 c -8.284,0 -15,-6.716 -15,-15 0,-11.635 -1.921,-16.842 -4.353,-23.435 -2.91,-7.887 -6.207,-16.826 -6.207,-33.817 0,-16.991 3.298,-25.931 6.207,-33.817 2.432,-6.593 4.353,-11.8 4.353,-23.434 0,-11.634 -1.921,-16.841 -4.353,-23.434 -2.91,-7.886 -6.207,-16.825 -6.207,-33.816 0,-16.991 3.298,-25.93 6.207,-33.816 2.432,-6.592 4.353,-11.799 4.353,-23.432 0,-8.284 6.716,-15 15,-15 8.284,0 15,6.716 15,15 0,16.991 -3.298,25.93 -6.208,33.816 -2.432,6.592 -4.353,11.799 -4.353,23.432 0,11.634 1.921,16.841 4.353,23.434 2.91,7.886 6.208,16.825 6.208,33.816 0,16.991 -3.298,25.931 -6.208,33.817 -2.432,6.593 -4.353,11.8 -4.353,23.435 0,11.635 1.921,16.842 4.353,23.435 2.91,7.887 6.208,16.826 6.208,33.817 0,8.283 -6.716,14.999 -15,14.999 z"
                 fill="#572b21"
                 id="svg_255-56-0" />
            </g>
          </g>
        </g>
        <g
           stroke="null"
           id="svg_250-5-7">
          <g
             stroke="null"
             id="svg_251-3-2" />
        </g>
      </g>
    </g>
  </g>
</svg>
