<svg width="512" height="512" enable-background="new 0 0 512 512" version="1.1" viewBox="0 0 512 512" xmlns="http://www.w3.org/2000/svg"><g transform="translate(-2,26)"><path d="m512 336c0 47.2-38.3 85.5-85.5 85.5s-85.5-38.3-85.5-85.5c0-47.2 38.3-85.5 85.5-85.5s85.5 38.3 85.5 85.5z" fill="#afdc82" style="stroke-width:.545"/><path d="m503 336c0 42.2-34.2 76.5-76.5 76.5-42.2 0-76.5-34.2-76.5-76.5 0-42.2 34.2-76.5 76.5-76.5 42.2 0 76.5 34.2 76.5 76.5z" fill="#cdf5a0" style="stroke-width:.545"/><path d="m476 331h-25.2c-0.0405-0.219-0.0723-0.438-0.117-0.655l13.5-5.6c2.29-0.951 3.38-3.58 2.43-5.88-0.947-2.29-3.59-3.38-5.88-2.43l-13.5 5.6c-0.121-0.187-0.24-0.374-0.366-0.557l17.8-17.8c1.76-1.76 1.76-4.6 0-6.36-1.76-1.76-4.6-1.76-6.36 0l-17.8 17.8c-0.183-0.126-0.37-0.243-0.555-0.362l5.6-13.5c0.949-2.3-0.14-4.93-2.43-5.87-2.28-0.942-4.93 0.136-5.88 2.44l-5.6 13.5c-0.217-0.0468-0.436-0.0788-0.655-0.117v-25.2c0-2.48-2.01-4.5-4.5-4.5-2.49 0-4.5 2.01-4.5 4.5v25.2c-0.219 0.0404-0.438 0.0703-0.653 0.117l-5.6-13.5c-0.953-2.3-3.59-3.37-5.88-2.43-2.29 0.951-3.38 3.58-2.43 5.88l5.6 13.5c-0.185 0.121-0.372 0.238-0.555 0.364l-17.8-17.8c-1.76-1.76-4.6-1.76-6.36 0-1.76 1.76-1.76 4.6 0 6.36l17.8 17.8c-0.126 0.183-0.243 0.37-0.364 0.557l-13.5-5.6c-2.28-0.945-4.93 0.136-5.88 2.43-0.949 2.3 0.14 4.93 2.43 5.88l13.5 5.6c-0.0446 0.217-0.0766 0.436-0.117 0.655h-25.2c-2.49 0-4.5 2.01-4.5 4.5 0 2.48 2.01 4.5 4.5 4.5h25.2c0.0405 0.219 0.0703 0.438 0.117 0.655l-13.5 5.6c-2.29 0.949-3.38 3.58-2.43 5.87 0.717 1.73 2.39 2.78 4.15 2.78 0.577 0 1.16-0.113 1.72-0.345l13.5-5.6c0.121 0.187 0.24 0.374 0.366 0.557l-17.8 17.8c-1.76 1.76-1.76 4.6 0 6.36 0.879 0.879 2.03 1.32 3.18 1.32s2.3-0.44 3.18-1.32l17.8-17.8c0.183 0.126 0.37 0.243 0.555 0.364l-5.6 13.5c-0.949 2.3 0.14 4.93 2.43 5.88 0.562 0.234 1.15 0.345 1.72 0.345 1.76 0 3.44-1.05 4.15-2.78l5.6-13.5c0.217 0.0446 0.436 0.0766 0.655 0.117v25.2c0 2.48 2.01 4.5 4.5 4.5s4.5-2.01 4.5-4.5v-25.2c0.219-0.0404 0.44-0.0723 0.657-0.119l5.59 13.5c0.717 1.73 2.39 2.78 4.15 2.78 0.574 0 1.16-0.111 1.72-0.345 2.29-0.949 3.38-3.58 2.43-5.87l-5.6-13.5c0.185-0.121 0.372-0.238 0.555-0.364l17.8 17.8c0.879 0.879 2.03 1.32 3.18 1.32 1.15 0 2.3-0.44 3.18-1.32 1.76-1.76 1.76-4.6 0-6.36l-17.8-17.8c0.126-0.183 0.243-0.372 0.364-0.56l13.5 5.6c0.562 0.232 1.15 0.345 1.72 0.345 1.76 0 3.44-1.05 4.15-2.78 0.949-2.3-0.14-4.93-2.43-5.88l-13.5-5.6c0.0446-0.215 0.0766-0.436 0.117-0.653h25.2c2.49 0 4.5-2.01 4.5-4.5 0-2.48-2.01-4.5-4.5-4.5z" fill="#afdc82" style="stroke-width:.545"/><path d="m447 336c0 11.2-9.06 20.2-20.2 20.2s-20.2-9.06-20.2-20.2c0-11.2 9.06-20.2 20.2-20.2s20.2 9.06 20.2 20.2z" fill="#f0ffc3" style="stroke-width:.545"/><g transform="matrix(.545 0 0 .545 233 156)" fill="#785353"><path d="m297 339h-8.26c-4.56 0-8.26-3.7-8.26-8.26 0-4.56 3.7-8.26 8.26-8.26h8.26c4.57 0 8.26 3.7 8.26 8.26 0 4.56-3.69 8.26-8.26 8.26z"/><path d="m421 339h-8.26c-4.56 0-8.26-3.7-8.26-8.26 0-4.56 3.7-8.26 8.26-8.26h8.26c4.57 0 8.26 3.7 8.26 8.26 0 4.56-3.69 8.26-8.26 8.26z"/><path d="m355 281c-4.57 0-8.26-3.7-8.26-8.26v-8.26c0-4.56 3.69-8.26 8.26-8.26 4.56 0 8.26 3.7 8.26 8.26v8.26c0 4.56-3.7 8.26-8.26 8.26z"/><path d="m355 405c-4.57 0-8.26-3.7-8.26-8.26v-8.26c0-4.56 3.69-8.26 8.26-8.26 4.56 0 8.26 3.7 8.26 8.26v8.26c0 4.56-3.7 8.26-8.26 8.26z"/><path d="m384 310c-2.11 0-4.23-0.805-5.84-2.42-3.22-3.23-3.22-8.45 0-11.7l5.84-5.84c3.23-3.23 8.45-3.23 11.7 0 3.22 3.23 3.22 8.45 0 11.7l-5.84 5.84c-1.61 1.61-3.73 2.42-5.84 2.42z"/><path d="m320 374c-2.11 0-4.23-0.805-5.84-2.42-3.23-3.23-3.23-8.45 0-11.7l5.84-5.84c3.22-3.23 8.45-3.23 11.7 0 3.23 3.22 3.23 8.45 0 11.7l-5.84 5.84c-1.61 1.61-3.73 2.42-5.84 2.42z"/><path d="m390 374c-2.11 0-4.23-0.805-5.84-2.42l-5.84-5.84c-3.22-3.23-3.22-8.45 0-11.7 3.23-3.23 8.45-3.23 11.7 0l5.84 5.84c3.22 3.23 3.22 8.45 0 11.7-1.61 1.61-3.73 2.42-5.84 2.42z"/><path d="m326 310c-2.11 0-4.23-0.805-5.84-2.42l-5.84-5.84c-3.23-3.23-3.23-8.45 0-11.7 3.22-3.23 8.45-3.23 11.7 0l5.84 5.84c3.23 3.23 3.23 8.45 0 11.7-1.61 1.61-3.73 2.42-5.84 2.42z"/></g></g><g transform="matrix(.799 0 0 .799 -60.6 109)"><path d="m389 212c2.33-4.05 8.1-4.05 10.4 0 20.7 35.9 96.4 55.1 102 113 4.81 51.5-33.8 93.6-107 93.6-73.3 0-112-42.1-107-93.6 5.45-58.3 81.2-77.5 102-113z" fill="#c8afeb" style="stroke-width:.651"/><path d="m491 326c-2.89-30.9-29.9-50-56.1-68.4-13.9-9.77-27.2-19.1-36.8-30.1-1.84-2.12-5.21-2.12-7.06 0-9.58 11-22.9 20.4-36.8 30.1-26.2 18.4-53.2 37.5-56.1 68.4-1.92 20.6 3.92 39 16.9 53.2 16.8 18.5 45.1 28.7 79.5 28.7 34.4 0 62.7-10.2 79.5-28.7 13-14.2 18.8-32.6 16.9-53.2z" fill="#fff6d8" style="stroke-width:.651"/><path d="m480 327c-2.43-26-26.3-42.8-51.6-60.6-5.89-4.15-11.7-8.22-17.2-12.4-5.01-3.81-11-5.72-16.9-5.72-5.95 0-11.9 1.91-16.9 5.72-5.5 4.18-11.3 8.25-17.2 12.4-25.3 17.8-49.2 34.6-51.6 60.6-1.63 17.5 3.25 33 14.1 44.9 9.13 10 22.3 17.2 38.5 21.3 13.6 3.39 27-6.09 28.6-20l1.77-16c0.181-1.63 1.46-2.45 2.74-2.45 1.28 0 2.56 0.819 2.74 2.45l1.77 16c1.55 13.9 15 23.4 28.6 20 16.2-4.04 29.4-11.2 38.5-21.3 10.9-11.9 15.8-27.5 14.1-44.9z" fill="#e6646e" style="stroke-width:.651"/><path d="m432 327c0-20.8-16.8-37.6-37.6-37.6s-37.6 16.8-37.6 37.6c0 19.6 15 35.6 34.1 37.4l0.826-7.42c0.181-1.63 1.46-2.45 2.74-2.45 1.28 0 2.56 0.816 2.74 2.45l0.826 7.42c19.1-1.8 34.1-17.9 34.1-37.4z" fill="#ff8087" style="stroke-width:.651"/><g transform="matrix(.651 0 0 .651 169 112)" fill="#ffaa5f"><path d="m268 372c-2.46 0-4.89-1.09-6.52-3.19-2.8-3.6-2.15-8.79 1.45-11.6l4.64-3.61c3.61-2.79 8.79-2.14 11.6 1.45 2.81 3.6 2.16 8.79-1.44 11.6l-4.64 3.61c-1.51 1.17-3.3 1.74-5.07 1.74z"/><path d="m265 331c-1.81 0-3.63-0.594-5.15-1.81l-2.58-2.07c-3.56-2.85-4.14-8.04-1.29-11.6 2.86-3.56 8.05-4.14 11.6-1.29l2.58 2.07c3.56 2.85 4.14 8.04 1.29 11.6-1.64 2.04-4.03 3.1-6.46 3.1z"/><path d="m305 292c-2.37 0-4.72-1.01-6.36-2.97l-2.58-3.1c-2.92-3.5-2.44-8.71 1.06-11.6 3.52-2.93 8.72-2.45 11.6 1.05l2.58 3.1c2.92 3.5 2.44 8.71-1.06 11.6-1.55 1.29-3.42 1.91-5.28 1.91z"/><path d="m348 253c-2.8 0-5.54-1.43-7.09-4.01-2.35-3.91-1.08-8.98 2.83-11.3l2.58-1.55c3.92-2.35 8.98-1.08 11.3 2.83 2.35 3.91 1.08 8.98-2.83 11.3l-2.58 1.55c-1.33 0.797-2.8 1.18-4.24 1.18z"/><path d="m388 291c-2.55 0-5.07-1.18-6.68-3.4-2.69-3.69-1.87-8.86 1.82-11.5l5.68-4.13c3.69-2.68 8.86-1.86 11.5 1.82 2.68 3.69 1.87 8.86-1.82 11.5l-5.68 4.13c-1.47 1.07-3.16 1.58-4.85 1.58z"/><path d="m418 323c-3.86 0-7.3-2.71-8.09-6.64l-1.03-5.16c-0.895-4.47 2.01-8.82 6.48-9.71 4.52-0.887 8.82 2.01 9.72 6.48l1.03 5.16c0.895 4.47-2.01 8.82-6.48 9.72-0.547 0.105-1.1 0.16-1.63 0.16z"/><path d="m437 360c-1.24 0-2.5-0.277-3.68-0.871l-4.13-2.07c-4.08-2.04-5.73-7-3.7-11.1 2.04-4.08 7-5.73 11.1-3.7l4.13 2.07c4.08 2.04 5.73 7 3.7 11.1-1.45 2.9-4.37 4.57-7.4 4.57z"/></g><g fill="#ffc369"><path d="m435 371c-2.97 0-5.38-2.41-5.38-5.38v-0.671c0-2.97 2.4-5.38 5.38-5.38 2.97 0 5.38 2.41 5.38 5.38v0.671c0 2.97-2.41 5.38-5.38 5.38z" style="stroke-width:.651"/><path d="m371 338c-1.83 0-3.61-0.933-4.62-2.62l-3.25-5.45c-1.52-2.55-0.692-5.85 1.86-7.37 2.53-1.53 5.84-0.694 7.37 1.86l3.25 5.45c1.52 2.55 0.692 5.85-1.86 7.37-0.862 0.516-1.81 0.76-2.75 0.76z" style="stroke-width:.651"/><path d="m401 328c-1.64 0-3.25-0.742-4.3-2.15-1.78-2.38-1.3-5.75 1.08-7.53l1.34-1.01c2.37-1.79 5.74-1.3 7.52 1.07 1.78 2.37 1.3 5.75-1.08 7.52l-1.34 1.01c-0.966 0.727-2.1 1.08-3.22 1.08z" style="stroke-width:.651"/><path d="m365 373c-1.01 0-2.04-0.285-2.95-0.887l-1.4-0.923c-2.48-1.63-3.16-4.97-1.53-7.45 1.64-2.47 4.97-3.16 7.45-1.53l1.4 0.923c2.48 1.63 3.16 4.97 1.53 7.44-1.03 1.57-2.75 2.42-4.5 2.42z" style="stroke-width:.651"/></g><path d="m390 305c-1.12 0-2.25-0.348-3.22-1.08l-1.35-1.01c-2.38-1.78-2.86-5.15-1.08-7.53 1.78-2.37 5.16-2.86 7.52-1.07l1.34 1.01c2.38 1.78 2.86 5.15 1.08 7.53-1.05 1.41-2.66 2.15-4.3 2.15z" fill="#ffaa5f" style="stroke-width:.651"/><path d="m419 348c-1.97 0-3.87-1.09-4.81-2.97l-0.336-0.671c-1.33-2.66-0.252-5.88 2.4-7.21 2.66-1.33 5.89-0.252 7.21 2.41l0.336 0.671c1.33 2.66 0.252 5.88-2.4 7.21-0.773 0.384-1.59 0.567-2.4 0.567z" fill="#ffaa5f" style="stroke-width:.651"/></g><g transform="matrix(.729 0 0 .729 -417 152)"><g transform="matrix(.547 0 0 .547 201 180)"><path d="m935-107c-4.84-3.63-11.7-2.65-15.3 2.19-1.43 1.91-35.1 47.5-35.1 115v14.1h21.9v-14.1c0-59.5 30.4-101 30.7-101 3.64-4.84 2.66-11.7-2.19-15.3z" fill="#b67f5f" style="stroke-width:1.33"/><path d="m920-105c-0.598 0.795-6.77 9.2-13.8 23.6-3.57 7.31 1.73 15.9 9.87 15.9 4.18 0 8.04-2.39 9.86-6.15 6.17-12.7 11.5-20 11.6-20.2 3.64-4.84 2.66-11.7-2.19-15.3-4.84-3.63-11.7-2.65-15.3 2.19z" fill="#a06e50" style="stroke-width:1.33"/><path d="m903 5.58c-4.91 2.17-10.5 2.17-15.4 0-14.9-6.55-30.7-10.2-47.1-10.2-84.8 0-153 93.3-153 208 0 115 68.7 208 153 208 19.3 0 37.8-5.06 54.8-13.9 17 8.86 35.5 13.9 54.8 13.9 84.8 0 153-93.3 153-208 0-115-68.7-208-153-208-16.5 0-32.3 3.67-47.1 10.2z" fill="#ffaa5f" style="stroke-width:1.33"/><path d="m950 17.3c-11.3 0-22.6 2.21-33.8 6.54-6.05 2.35-10.1 8.19-10.1 14.7v0.702c0 6.06-4.91 11-11 11-6.06 0-11-4.91-11-11v-0.702c0-6.49-4.02-12.3-10.1-14.7-11.1-4.33-22.5-6.54-33.8-6.54-72.5 0-132 83.6-132 186 0 103 59 186 132 186 12.6 0 25.2-2.73 37.5-8.08 3.91-1.69 6.33-5.71 6.33-9.97v-3.87c0-6.02 4.86-10.9 10.9-11 6.09-0.0467 11 4.88 11 11v3.87c0 4.26 2.42 8.28 6.33 9.97 12.3 5.35 24.9 8.08 37.5 8.08 72.5 0 132-83.6 132-186 0-103-59-186-132-186z" fill="#ffc369" style="stroke-width:1.33"/><path d="m928 110c-2.09-2.58-4.1-5.05-5.95-7.41-6.38-8.16-16-12.8-26.4-12.8-10.4 0-20 4.68-26.4 12.8-1.85 2.36-3.85 4.82-5.94 7.4-17.7 21.8-44.4 54.7-44.4 102 0 47.5 26.7 80.4 44.4 102 2.09 2.58 4.1 5.05 5.94 7.41 6.39 8.16 16 12.8 26.4 12.8 10.4 0 20-4.68 26.4-12.8 1.85-2.36 3.85-4.82 5.94-7.41 17.7-21.8 44.4-54.7 44.4-102 0-47.5-26.7-80.4-44.4-102z" fill="#ffaa5f" style="stroke-width:1.33"/><path d="m950 213c0 44.9-28.9 74.7-45.7 96.1-4.62 5.9-13.6 5.9-18.3 0-16.7-21.4-45.7-51.2-45.7-96.1s28.9-74.7 45.7-96.1c4.62-5.9 13.6-5.9 18.3 0 16.7 21.4 45.7 51.2 45.7 96.1z" fill="#cd916e" style="stroke-width:1.33"/><path d="m876 218c-11.2-36.4-3.76-68.4 4.4-93.9-16.8 20.7-39.7 48.7-39.7 88.7 0 44.9 28.9 74.7 45.7 96.1 4.62 5.9 13.6 5.9 18.3 0 5.37-6.87 12-14.6 18.5-23.4-18.5-15.6-37.6-36.3-47.2-67.4z" fill="#b67f5f" style="stroke-width:1.33"/></g></g><path d="m497 466c-20.7 0-33.1 6.93-48.7 16.3-21 12.5-47.1 28.4-102 28.4h-180c-55.2 0-81.3-15.9-102-28.4-15.6-9.39-28-16.3-48.7-16.3l30-11.2h422z" fill="#b36859" style="stroke-width:.863"/><path d="m497 466c-20.7 0-33.1 6.93-48.7 16.3-21 12.5-47.1 28.4-102 28.4h-90v-55.9h211z" fill="#99534d" style="stroke-width:.863"/><g transform="translate(0,124)"><path d="m512 331c0 8.4-6.6 15-15 15h-482c-8.4 0-15-6.6-15-15 0-8.4 6.6-15 15-15h482c8.4 0 15 6.6 15 15z" fill="#99534d"/></g><path d="m512 455c0 8.4-6.6 15-15 15h-241v-30h241c8.4 0 15 6.6 15 15z" fill="#804040"/><g transform="matrix(1.79 0 0 1.73 -1620 -100)"><path d="m1057 140c-0.214-19 16.9-40.7 39.7-41 23.8-0.317 41.4 22 41.2 41.5-0.141 18.8-16.4 40-40.4 39.5-24.9-0.508-40.3-21-40.5-40z" style="fill:#f42a40;stroke-width:1px;stroke:#f42a40"/><path d="m1090 112c3.86-5.36 13.5-5.54 19.6-2.92 6.09 2.64 12.9 9.92 11.3 16.4-0.705 2.95-4.97 4.42-8 4.33-3.76-0.113-6.09-4.57-9.58-5.96-3.69-1.47-8.42 0.337-11.7-2.38-2.45-2.05-3.53-6.85-1.66-9.44z" style="fill:#fff;stroke-width:1px;stroke:#fff"/><path d="m1097 59.4c-7.33-0.0173-8.04 7.51-7.93 12.4 0.151 6.96 1.3 11.7 7.93 11.9 6.43 0.148 8.03-4.62 8.04-11.5 0.012-7.76-1.56-12.8-8.04-12.8z" style="fill:#fe4251;stroke-width:1px;stroke:#fe4251"/><path d="m1041 83.4c-4.91 5.44 0.213 11 3.94 14.2 5.28 4.54 9.6 6.89 14.2 2.05 4.41-4.69 1.93-9.06-3.17-13.6-5.77-5.2-10.6-7.41-14.9-2.6z" style="fill:#f42a40;stroke-width:1px;stroke:#fe4251"/><path d="m1017 139c-0.271 7.33 7.23 8.29 12.1 8.36 6.96 0.0897 11.8-0.888 12.2-7.51 0.371-6.42-4.34-8.18-11.2-8.43-7.76-0.281-12.9 1.11-13.1 7.59z" style="fill:#f42a40;stroke-width:1px;stroke:#f42a40"/><path d="m1041 196c5.07 5.3 11 0.601 14.5-2.88 4.92-4.93 7.58-9.07 3.09-14-4.35-4.74-8.89-2.59-13.8 2.15-5.61 5.37-8.17 10-3.7 14.7z" style="fill:#f42a40;stroke-width:1px;stroke:#f42a40"/><path d="m1098 220c7.33-0.0393 7.98-7.57 7.84-12.5-0.205-6.96-1.39-11.7-8.02-11.8-6.43-0.0987-7.99 4.68-7.95 11.5 0.048 7.76 1.65 12.8 8.13 12.8z" style="fill:#f42a40;stroke-width:1px;stroke:#f42a40"/><path d="m1154 197c5.36-5 0.728-11-2.71-14.5-4.87-4.97-8.98-7.68-13.9-3.25-4.79 4.29-2.7 8.86 1.99 13.9 5.3 5.67 9.9 8.29 14.6 3.87z" style="fill:#f42a40;stroke-width:1px;stroke:#f42a40"/><path d="m1178 140c0.205-7.33-7.3-8.23-12.2-8.25-6.96-0.027-11.8 0.994-12.1 7.62-0.313 6.43 4.41 8.14 11.3 8.33 7.76 0.21 12.9-1.23 13-7.7z" style="fill:#f42a40;stroke-width:1px;stroke:#f42a40"/><path d="m1154 83.2c-4.99-5.38-11-0.761-14.5 2.67-4.99 4.85-7.71 8.95-3.29 13.9 4.28 4.81 8.85 2.72 13.9-1.95 5.69-5.28 8.32-9.88 3.91-14.6z" style="fill:#fe4251;stroke-width:1px;stroke:#fe4251"/></g></svg>
