<?xml version="1.0" encoding="UTF-8" standalone="no"?>
<svg
   xmlns:dc="http://purl.org/dc/elements/1.1/"
   xmlns:cc="http://creativecommons.org/ns#"
   xmlns:rdf="http://www.w3.org/1999/02/22-rdf-syntax-ns#"
   xmlns:svg="http://www.w3.org/2000/svg"
   xmlns="http://www.w3.org/2000/svg"
   xmlns:sodipodi="http://sodipodi.sourceforge.net/DTD/sodipodi-0.dtd"
   xmlns:inkscape="http://www.inkscape.org/namespaces/inkscape"
   id="Capa_1"
   enable-background="new 0 0 512 512"
   height="512"
   viewBox="0 0 512 512"
   width="512"
   version="1.1"
   sodipodi:docname="fruits (1).svg"
   inkscape:version="1.0 (4035a4f, 2020-05-01)">
  <metadata
     id="metadata1553">
    <rdf:RDF>
      <cc:Work
         rdf:about="">
        <dc:format>image/svg+xml</dc:format>
        <dc:type
           rdf:resource="http://purl.org/dc/dcmitype/StillImage" />
        <dc:title></dc:title>
      </cc:Work>
    </rdf:RDF>
  </metadata>
  <defs
     id="defs1551" />
  <sodipodi:namedview
     inkscape:document-rotation="0"
     pagecolor="#ffffff"
     bordercolor="#666666"
     borderopacity="1"
     objecttolerance="10"
     gridtolerance="10"
     guidetolerance="10"
     inkscape:pageopacity="0"
     inkscape:pageshadow="2"
     inkscape:window-width="1366"
     inkscape:window-height="723"
     id="namedview1549"
     showgrid="false"
     inkscape:zoom="0.97289442"
     inkscape:cx="216.12291"
     inkscape:cy="264.88285"
     inkscape:window-x="0"
     inkscape:window-y="23"
     inkscape:window-maximized="0"
     inkscape:current-layer="g1546" />
  <g
     id="g1546">
    <g
       id="g3780"
       transform="translate(-2,26)">
      <path
         style="stroke-width:0.544626"
         d="m 511.79641,335.95868 c 0,47.1931 -38.25783,85.45306 -85.45305,85.45306 -47.19522,0 -85.45306,-38.25996 -85.45306,-85.45306 0,-47.19521 38.25784,-85.45304 85.45306,-85.45304 47.19522,0 85.45305,38.25783 85.45305,85.45304 z m 0,0"
         fill="#afdc82"
         id="path3121" />
      <path
         style="stroke-width:0.544626"
         d="m 502.80157,335.95868 c 0,42.22551 -34.23271,76.45822 -76.45821,76.45822 -42.22766,0 -76.45822,-34.23271 -76.45822,-76.45822 0,-42.22764 34.23056,-76.45822 76.45822,-76.45822 42.2255,0 76.45821,34.23058 76.45821,76.45822 z m 0,0"
         fill="#cdf5a0"
         id="path3123" />
      <path
         style="stroke-width:0.544626"
         d="m 475.81494,331.46127 h -25.1634 c -0.0405,-0.21913 -0.0723,-0.43826 -0.11702,-0.65525 l 13.5114,-5.59518 c 2.29125,-0.95098 3.38051,-3.58261 2.43167,-5.87601 -0.94672,-2.29338 -3.59113,-3.37624 -5.87599,-2.43379 l -13.51991,5.59943 c -0.12127,-0.18721 -0.24041,-0.37443 -0.36593,-0.55739 l 17.78968,-17.78968 c 1.75728,-1.75727 1.75728,-4.60167 0,-6.35895 -1.75725,-1.75726 -4.60166,-1.75726 -6.35892,0 l -17.78969,17.78758 c -0.18296,-0.12552 -0.37018,-0.24254 -0.55526,-0.36168 L 445.401,301.6962 c 0.94884,-2.29553 -0.14041,-4.92504 -2.43379,-5.87388 -2.2785,-0.94245 -4.92716,0.13616 -5.876,2.43593 l -5.5952,13.50927 c -0.21698,-0.0468 -0.43611,-0.0788 -0.65524,-0.11701 v -25.16555 c 0,-2.48273 -2.01255,-4.49741 -4.49741,-4.49741 -2.48698,0 -4.49743,2.01468 -4.49743,4.49741 v 25.16555 c -0.21912,0.0404 -0.43825,0.0703 -0.65312,0.11701 l -5.5973,-13.51139 c -0.9531,-2.29552 -3.589,-3.37414 -5.87601,-2.43381 -2.29338,0.95096 -3.38263,3.58262 -2.43379,5.87812 l 5.59943,13.51779 c -0.18508,0.12126 -0.37231,0.23828 -0.55525,0.3638 l -17.78971,-17.78758 c -1.75726,-1.75726 -4.60378,-1.75726 -6.36105,0 -1.75513,1.75728 -1.75513,4.60381 0,6.36107 l 17.78969,17.78756 c -0.12552,0.18296 -0.24253,0.37018 -0.36379,0.55739 l -13.51991,-5.59943 c -2.28488,-0.94458 -4.92503,0.13616 -5.87813,2.43379 -0.94884,2.29551 0.14041,4.92503 2.4338,5.87601 l 13.5114,5.59518 c -0.0446,0.21699 -0.0766,0.43612 -0.11702,0.65525 h -25.16554 c -2.48697,0 -4.49741,2.01468 -4.49741,4.49741 0,2.48274 2.01256,4.49743 4.49741,4.49743 h 25.16554 c 0.0405,0.21912 0.0703,0.43825 0.11702,0.65525 l -13.5114,5.59517 c -2.29339,0.94885 -3.38264,3.58049 -2.4338,5.87388 0.71695,1.73174 2.38913,2.78057 4.1549,2.78057 0.57654,0 1.15946,-0.11275 1.72323,-0.34464 l 13.51991,-5.59943 c 0.12126,0.18721 0.2404,0.37443 0.36593,0.55737 l -17.79183,17.78757 c -1.75513,1.75727 -1.75513,4.60379 0,6.35892 0.87864,0.87865 2.02958,1.31903 3.18053,1.31903 1.15095,0 2.3019,-0.44038 3.18052,-1.31903 l 17.78971,-17.78755 c 0.18294,0.12551 0.37017,0.24253 0.55525,0.3638 l -5.59943,13.51989 c -0.94884,2.29553 0.14041,4.92504 2.43379,5.876 0.56166,0.23403 1.1467,0.34466 1.72111,0.34466 1.76152,0 3.44008,-1.04671 4.1549,-2.77632 l 5.59517,-13.5114 c 0.217,0.0446 0.43613,0.0766 0.65525,0.11702 v 25.16341 c 0,2.48486 2.01257,4.49954 4.49743,4.49954 2.48486,0 4.49741,-2.01468 4.49741,-4.49954 v -25.16341 c 0.21913,-0.0404 0.44037,-0.0723 0.65738,-0.11914 l 5.59306,13.51138 c 0.71695,1.73175 2.38912,2.77846 4.15489,2.77846 0.57441,0 1.15946,-0.11063 1.72111,-0.34466 2.29338,-0.94883 3.38263,-3.57835 2.43379,-5.87387 l -5.59943,-13.52202 c 0.18508,-0.12127 0.3723,-0.23829 0.55526,-0.3638 l 17.78969,17.78755 c 0.87863,0.87865 2.02958,1.31903 3.18054,1.31903 1.15093,0 2.30187,-0.44038 3.18051,-1.31903 1.75728,-1.75513 1.75728,-4.60165 0,-6.35892 l -17.78969,-17.78757 c 0.12552,-0.18294 0.24254,-0.3723 0.36381,-0.55951 l 13.51991,5.60157 c 0.56163,0.23189 1.14668,0.34464 1.72109,0.34464 1.76152,0 3.44008,-1.04883 4.1549,-2.77844 0.94884,-2.29552 -0.14042,-4.92504 -2.4338,-5.87601 l -13.50927,-5.59731 c 0.0446,-0.21486 0.0766,-0.43612 0.11702,-0.65311 h 25.1634 c 2.48698,0 4.49742,-2.01469 4.49742,-4.49743 0,-2.48486 -2.01044,-4.49741 -4.49742,-4.49741 z m 0,0"
         fill="#afdc82"
         id="path3125" />
      <path
         style="stroke-width:0.544626"
         d="m 446.58173,335.95868 c 0,11.1776 -9.06078,20.23838 -20.23837,20.23838 -11.17759,0 -20.23839,-9.06078 -20.23839,-20.23838 0,-11.17759 9.0608,-20.2405 20.23839,-20.2405 11.17759,0 20.23837,9.06291 20.23837,20.2405 z m 0,0"
         fill="#f0ffc3"
         id="path3127" />
      <g
         transform="matrix(0.54462574,0,0,0.54462574,232.94804,155.7833)"
         fill="#785353"
         id="g3145">
        <path
           d="m 297.28906,339.08203 h -8.25781 c -4.5625,0 -8.25781,-3.69922 -8.25781,-8.25781 0,-4.5625 3.69531,-8.25781 8.25781,-8.25781 h 8.25781 c 4.56641,0 8.25781,3.69531 8.25781,8.25781 0,4.55859 -3.6914,8.25781 -8.25781,8.25781 z m 0,0"
           id="path3129" />
        <path
           d="m 421.16016,339.08203 h -8.25782 c -4.5625,0 -8.25781,-3.69922 -8.25781,-8.25781 0,-4.5625 3.69531,-8.25781 8.25781,-8.25781 h 8.25782 c 4.5664,0 8.25781,3.69531 8.25781,8.25781 0,4.55859 -3.69141,8.25781 -8.25781,8.25781 z m 0,0"
           id="path3131" />
        <path
           d="m 355.09766,281.27344 c -4.56641,0 -8.25782,-3.69922 -8.25782,-8.25782 v -8.25781 c 0,-4.55859 3.69141,-8.25781 8.25782,-8.25781 4.5625,0 8.25781,3.69922 8.25781,8.25781 v 8.25781 c 0,4.5625 -3.69531,8.25782 -8.25781,8.25782 z m 0,0"
           id="path3133" />
        <path
           d="m 355.09766,405.14453 c -4.56641,0 -8.25782,-3.69922 -8.25782,-8.25781 v -8.25781 c 0,-4.5586 3.69141,-8.25782 8.25782,-8.25782 4.5625,0 8.25781,3.69922 8.25781,8.25782 v 8.25781 c 0,4.5625 -3.69531,8.25781 -8.25781,8.25781 z m 0,0"
           id="path3135" />
        <path
           d="m 384.28906,309.88281 c -2.11328,0 -4.22656,-0.80469 -5.83984,-2.41797 -3.22266,-3.22656 -3.22266,-8.45312 0,-11.67968 l 5.83984,-5.83594 c 3.22656,-3.22656 8.45313,-3.22656 11.67969,0 3.22266,3.22656 3.22266,8.44922 0,11.67578 l -5.83984,5.83984 c -1.61329,1.61328 -3.72657,2.41797 -5.83985,2.41797 z m 0,0"
           id="path3137" />
        <path
           d="m 320.06641,374.11719 c -2.11329,0 -4.22657,-0.80469 -5.83985,-2.41797 -3.22656,-3.22656 -3.22656,-8.45313 0,-11.67969 l 5.83985,-5.83594 c 3.22265,-3.22656 8.44921,-3.22656 11.67578,0 3.22656,3.22266 3.22656,8.44922 0,11.67578 l -5.83985,5.83985 c -1.61328,1.61328 -3.72656,2.41797 -5.83593,2.41797 z m 0,0"
           id="path3139" />
        <path
           d="m 390.12891,374.11719 c -2.11329,0 -4.22657,-0.80469 -5.83985,-2.41797 l -5.83984,-5.83985 c -3.22266,-3.22656 -3.22266,-8.45312 0,-11.67578 3.22656,-3.22656 8.45312,-3.22656 11.67969,0 l 5.83984,5.83594 c 3.22266,3.22656 3.22266,8.45313 0,11.67969 -1.61328,1.61328 -3.72656,2.41797 -5.83984,2.41797 z m 0,0"
           id="path3141" />
        <path
           d="m 325.90234,309.88281 c -2.11328,0 -4.22656,-0.80469 -5.83984,-2.41797 l -5.83594,-5.83984 c -3.22656,-3.22656 -3.22656,-8.45313 0,-11.67578 3.22266,-3.22656 8.44922,-3.22656 11.67578,0 l 5.83985,5.83594 c 3.22656,3.22656 3.22656,8.45312 0,11.67968 -1.61328,1.61328 -3.72656,2.41797 -5.83985,2.41797 z m 0,0"
           id="path3143" />
      </g>
    </g>
    <g
       id="g2327"
       transform="matrix(0.79937767,0,0,0.79937767,-60.618129,109.07401)">
      <path
         style="stroke-width:0.650902"
         d="m 389.46525,211.82871 c 2.33411,-4.04781 8.10325,-4.04781 10.43735,0 20.73484,35.9497 96.43541,55.10813 101.88418,113.42755 4.81059,51.48493 -33.82154,93.60805 -107.10159,93.60805 -73.28003,0 -111.9147,-42.12312 -107.10412,-93.60805 5.44878,-58.31942 81.1519,-77.47785 101.88418,-113.42755 z m 0,0"
         fill="#c8afeb"
         id="path843" />
      <path
         style="stroke-width:0.650902"
         d="m 491.08502,326.25549 c -2.89093,-30.92554 -29.9492,-49.967 -56.11755,-68.383 -13.88254,-9.76862 -27.17521,-19.12283 -36.75315,-30.11953 -1.84339,-2.11797 -5.21486,-2.11797 -7.05823,0 -9.58049,10.9967 -22.87062,20.35091 -36.75318,30.11953 -26.16834,18.416 -53.22914,37.45746 -56.11752,68.383 -1.9222,20.56703 3.91558,38.9576 16.87773,53.18848 16.83957,18.48719 45.08268,28.67026 79.52207,28.67026 34.43941,0 62.67997,-10.18307 79.5221,-28.67026 12.96213,-14.23088 18.79738,-32.62145 16.87773,-53.18848 z m 0,0"
         fill="#fff6d8"
         id="path845" />
      <path
         style="stroke-width:0.650902"
         d="m 480.3807,327.25728 c -2.42817,-25.98784 -26.31328,-42.7969 -51.6019,-60.59249 -5.88864,-4.14698 -11.68066,-8.22021 -17.1752,-12.40022 -5.01144,-3.81136 -10.9662,-5.7183 -16.91841,-5.7183 -5.95474,0 -11.90695,1.90694 -16.91839,5.7183 -5.49709,4.18001 -11.28656,8.25324 -17.17775,12.40022 -25.28607,17.79559 -49.17118,34.60211 -51.59936,60.59249 -1.63233,17.47268 3.24944,33.01301 14.12156,44.94793 9.12536,10.02036 22.34429,17.21588 38.50754,21.25861 13.56473,3.39182 27.00742,-6.09205 28.55331,-19.98732 l 1.77474,-15.97001 c 0.18052,-1.63489 1.45943,-2.4536 2.73835,-2.4536 1.27639,0 2.55532,0.81871 2.73839,2.4536 l 1.77217,15.97001 c 1.5459,13.89527 14.99112,23.37914 28.55331,19.98732 16.16325,-4.04273 29.38219,-11.23825 38.51009,-21.25861 10.86957,-11.93238 15.7539,-27.47525 14.12155,-44.94793 z m 0,0"
         fill="#e6646e"
         id="path847" />
      <path
         style="stroke-width:0.650902"
         d="m 432.31047,327.48611 c 0,-20.7806 -16.84468,-37.62782 -37.62528,-37.62782 -20.7806,0 -37.6278,16.84722 -37.6278,37.62782 0,19.57795 14.95552,35.64968 34.06309,37.44474 l 0.82636,-7.42436 c 0.18052,-1.63489 1.45943,-2.45106 2.73835,-2.45106 1.27894,0 2.55786,0.81617 2.73838,2.45106 l 0.82634,7.42436 c 19.10503,-1.79506 34.06056,-17.86679 34.06056,-37.44474 z m 0,0"
         fill="#ff8087"
         id="path849" />
      <g
         transform="matrix(0.65090344,0,0,0.65090344,168.92595,112.47695)"
         fill="#ffaa5f"
         id="g865">
        <path
           d="m 267.87891,371.78516 c -2.46094,0 -4.89454,-1.09375 -6.52344,-3.1875 -2.80469,-3.59766 -2.15235,-8.78907 1.44531,-11.58985 l 4.64453,-3.61328 c 3.61328,-2.79297 8.78906,-2.14062 11.58594,1.45313 2.80859,3.59765 2.15625,8.78515 -1.44141,11.58593 l -4.64453,3.61328 c -1.51172,1.17188 -3.30078,1.73829 -5.0664,1.73829 z m 0,0"
           id="path851" />
        <path
           d="m 265.45312,331.01172 c -1.80859,0 -3.6289,-0.59375 -5.15234,-1.8086 l -2.58203,-2.0664 c -3.55859,-2.84766 -4.13672,-8.04297 -1.28906,-11.60547 2.85937,-3.55859 8.04687,-4.14063 11.60937,-1.28906 l 2.58203,2.0664 c 3.5586,2.84766 4.13672,8.04297 1.28907,11.60547 -1.63672,2.03906 -4.03125,3.09766 -6.45704,3.09766 z m 0,0"
           id="path853" />
        <path
           d="m 304.87109,291.78516 c -2.37109,0 -4.71875,-1.01172 -6.35547,-2.96875 l -2.58203,-3.09766 c -2.91797,-3.50391 -2.4414,-8.71094 1.0586,-11.62891 3.52344,-2.92578 8.71875,-2.44531 11.63672,1.05469 l 2.58203,3.09766 c 2.91797,3.5039 2.4414,8.71093 -1.0586,11.6289 -1.54687,1.28516 -3.41797,1.91407 -5.28125,1.91407 z m 0,0"
           id="path855" />
        <path
           d="m 347.87891,252.90234 c -2.80469,0 -5.53907,-1.42578 -7.08985,-4.00781 -2.34765,-3.91016 -1.07812,-8.98437 2.83203,-11.32812 l 2.58203,-1.55079 c 3.91797,-2.35156 8.98438,-1.08203 11.32813,2.83204 2.34766,3.91015 1.08203,8.98437 -2.82813,11.33203 l -2.58203,1.54687 c -1.33203,0.79688 -2.79687,1.17578 -4.24218,1.17578 z m 0,0"
           id="path857" />
        <path
           d="m 388.13672,290.58203 c -2.55469,0 -5.07422,-1.17578 -6.6836,-3.39844 -2.6875,-3.6914 -1.87109,-8.85547 1.82032,-11.53515 l 5.67968,-4.13282 c 3.69141,-2.68359 8.85547,-1.86328 11.53125,1.82032 2.6836,3.6914 1.8711,8.85547 -1.82421,11.53515 L 392.98437,289 c -1.46875,1.07031 -3.16015,1.58203 -4.84765,1.58203 z m 0,0"
           id="path859" />
        <path
           d="m 418.40234,323.44141 c -3.85547,0 -7.30468,-2.71485 -8.08984,-6.63672 l -1.03125,-5.16407 c -0.89453,-4.46875 2.00781,-8.82031 6.47656,-9.71484 4.51563,-0.88672 8.82422,2.01172 9.71875,6.47656 l 1.03125,5.16016 c 0.89453,4.47266 -2.00781,8.82031 -6.47656,9.71875 -0.54688,0.10547 -1.09766,0.16016 -1.62891,0.16016 z m 0,0"
           id="path861" />
        <path
           d="m 437.15234,359.74219 c -1.24218,0 -2.5,-0.27735 -3.68359,-0.8711 l -4.12891,-2.0664 c -4.08203,-2.03907 -5.73437,-7 -3.69531,-11.07813 2.03906,-4.08203 7,-5.73437 11.08203,-3.69531 l 4.12891,2.06641 c 4.08203,2.03906 5.73437,7 3.69531,11.07812 -1.45312,2.89844 -4.36719,4.56641 -7.39844,4.56641 z m 0,0"
           id="path863" />
      </g>
      <path
         style="stroke-width:0.650902"
         d="m 435.44549,370.93645 c -2.97229,0 -5.37504,-2.40783 -5.37504,-5.37504 v -0.67123 c 0,-2.96975 2.40275,-5.37504 5.37504,-5.37504 2.96974,0 5.37504,2.40529 5.37504,5.37504 v 0.67123 c 0,2.96721 -2.4053,5.37504 -5.37504,5.37504 z m 0,0"
         fill="#ffc369"
         id="path867" />
      <path
         style="stroke-width:0.650902"
         d="m 370.94757,338.23619 c -1.83322,0 -3.61049,-0.93314 -4.6199,-2.61633 l -3.25451,-5.44624 c -1.52301,-2.54767 -0.69159,-5.85049 1.85864,-7.37351 2.53496,-1.53317 5.84287,-0.69413 7.37096,1.8561 l 3.25452,5.44623 c 1.52047,2.54768 0.69158,5.85051 -1.85863,7.37351 -0.86194,0.51614 -1.81032,0.76024 -2.75108,0.76024 z m 0,0"
         fill="#ffc369"
         id="path869" />
      <path
         style="stroke-width:0.650902"
         d="m 401.40782,327.82173 c -1.63744,0 -3.24944,-0.74242 -4.30461,-2.14849 -1.78491,-2.37732 -1.30181,-5.74625 1.07805,-7.52606 l 1.34249,-1.00687 c 2.37224,-1.79253 5.74371,-1.29927 7.52099,1.07296 1.7849,2.37479 1.30181,5.74627 -1.07552,7.52355 l -1.34249,1.0094 c -0.96618,0.72718 -2.0951,1.07551 -3.21891,1.07551 z m 0,0"
         fill="#ffc369"
         id="path871" />
      <path
         style="stroke-width:0.650902"
         d="m 365.11487,373.17394 c -1.01196,0 -2.04171,-0.28478 -2.95451,-0.88737 l -1.40096,-0.92296 c -2.47903,-1.63487 -3.16044,-4.96822 -1.5281,-7.44725 1.63744,-2.47139 4.96569,-3.16298 7.4498,-1.5281 l 1.40096,0.92297 c 2.47649,1.63489 3.16044,4.96822 1.5281,7.4447 -1.03483,1.56879 -2.746,2.41801 -4.49529,2.41801 z m 0,0"
         fill="#ffc369"
         id="path873" />
      <path
         style="stroke-width:0.650902"
         d="m 390.20261,304.64093 c -1.12382,0 -2.25273,-0.34834 -3.21892,-1.07552 l -1.34503,-1.00687 c -2.37733,-1.77981 -2.86041,-5.15128 -1.07552,-7.52607 1.77982,-2.3697 5.15639,-2.85533 7.52353,-1.07296 l 1.3425,1.00685 c 2.37731,1.77982 2.86041,5.15129 1.07551,7.52607 -1.05265,1.40606 -2.66464,2.1485 -4.30207,2.1485 z m 0,0"
         fill="#ffaa5f"
         id="path875" />
      <path
         style="stroke-width:0.650902"
         d="m 418.54233,347.9794 c -1.97305,0 -3.86982,-1.08823 -4.81311,-2.97228 l -0.33563,-0.67125 c -1.32978,-2.657 -0.25172,-5.88356 2.40275,-7.21333 2.65701,-1.32724 5.8861,-0.25173 7.21333,2.40529 l 0.33563,0.67124 c 1.32723,2.65702 0.2517,5.88356 -2.40275,7.21333 -0.77295,0.38393 -1.59168,0.567 -2.40022,0.567 z m 0,0"
         fill="#ffaa5f"
         id="path877" />
    </g>
    <g
       id="g3113"
       transform="matrix(0.72942241,0,0,0.72942241,-416.78698,151.66508)">
      <g
         transform="matrix(0.54708426,0,0,0.54708426,200.52665,179.84243)"
         id="g3103">
        <path
           id="path2480"
           fill="#b67f5f"
           d="m 934.86306,-107.23595 c -4.83949,-3.63351 -11.70107,-2.64587 -15.34498,2.18843 -1.43468,1.91292 -35.08239,47.547567 -35.08239,114.6246357 V 23.679736 h 21.92585 V 9.5771157 c 0,-59.4877497 30.40924,-101.0678337 30.69514,-101.4681037 3.63871,-4.839477 2.65626,-11.716642 -2.19362,-15.344962 z m 0,0"
           style="stroke-width:1.33073" />
        <path
           id="path2482"
           fill="#a06e50"
           d="m 919.51808,-105.04752 c -0.59779,0.79531 -6.7732,9.195536 -13.78032,23.552854 -3.57114,7.313822 1.73098,15.916774 9.87131,15.916774 4.17932,0 8.03635,-2.391148 9.86091,-6.14942 6.16502,-12.688717 11.46714,-19.997335 11.5867,-20.163676 3.64391,-4.84468 2.65626,-11.716642 -2.19362,-15.344962 -4.83949,-3.63351 -11.70107,-2.64587 -15.34498,2.18843 z m 0,0"
           style="stroke-width:1.33073" />
        <path
           id="path2484"
           fill="#ffaa5f"
           d="m 903.09189,5.5849257 c -4.90706,2.16764 -10.47949,2.16764 -15.38655,0 -14.85635,-6.55487996 -30.65876,-10.22478 -47.12653,-10.22478 -84.77162,0 -153.49131,93.2654203 -153.49131,208.3111243 0,115.04051 68.71969,208.30592 153.49131,208.30592 19.34235,0 37.77504,-5.06301 54.81981,-13.92068 17.04476,8.85767 35.47745,13.92068 54.8198,13.92068 84.76638,0 153.48608,-93.26541 153.48608,-208.30592 0,-115.045704 -68.7197,-208.3111243 -153.48608,-208.3111243 -16.46777,0 -32.27537,3.66990004 -47.12653,10.22478 z m 0,0"
           style="stroke-width:1.33073" />
        <path
           id="path2486"
           fill="#ffc369"
           d="m 950.21842,17.285986 c -11.33198,0 -22.64839,2.21443 -33.78804,6.54449 -6.04546,2.35477 -10.06884,8.1923 -10.06884,14.67961 v 0.70176 c 0,6.05586 -4.90707,10.96292 -10.96292,10.96292 -6.05586,0 -10.96293,-4.90706 -10.96293,-10.96292 v -0.70176 c 0,-6.48731 -4.02338,-12.32484 -10.06884,-14.67961 -11.13965,-4.33006 -22.46125,-6.54449 -33.78804,-6.54449 -72.54555,0 -131.56547,83.612434 -131.56547,186.385284 0,102.76766 59.01992,186.38008 131.56547,186.38008 12.60034,0 25.19029,-2.73424 37.52553,-8.08314 3.90901,-1.69461 6.33135,-5.70758 6.33135,-9.97008 v -3.87263 c 0,-6.02467 4.86028,-10.92134 10.87975,-10.96292 6.08705,-0.0467 11.0461,4.87588 11.0461,10.96292 v 3.87263 c 0,4.2625 2.41715,8.27547 6.33137,9.97008 12.33523,5.3489 24.92517,8.08314 37.52551,8.08314 72.54038,0 131.56028,-83.61242 131.56028,-186.38008 0,-102.77285 -59.0199,-186.385284 -131.56028,-186.385284 z m 0,0"
           style="stroke-width:1.33073" />
        <path
           id="path2488"
           fill="#ffaa5f"
           d="m 927.73638,110.48904 c -2.09487,-2.58349 -4.09615,-5.04742 -5.9467,-7.40739 -6.38334,-8.155924 -16.00514,-12.834264 -26.39106,-12.834264 -10.38593,0 -20.00773,4.67834 -26.39627,12.834264 -1.84535,2.35997 -3.84663,4.8239 -5.94149,7.40218 -17.68415,21.78549 -44.40789,54.70545 -44.40789,102.22704 0,47.5216 26.72374,80.44155 44.40789,102.22185 2.09486,2.58348 4.09614,5.04742 5.94149,7.40737 6.38854,8.15592 16.01034,12.83427 26.39627,12.83427 10.38592,0 20.00772,-4.67835 26.39626,-12.83427 1.84535,-2.35995 3.84663,-4.82389 5.9415,-7.40737 17.68414,-21.7803 44.4079,-54.70025 44.4079,-102.22185 0,-47.52159 -26.72376,-80.44155 -44.4079,-102.22183 z m 0,0"
           style="stroke-width:1.33073" />
        <path
           id="path2490"
           fill="#cd916e"
           d="m 950.21323,212.71087 c 0,44.89652 -28.94856,74.73916 -45.68664,96.114 -4.62117,5.89992 -13.63997,5.89992 -18.26114,0 -16.73809,-21.37484 -45.68664,-51.21748 -45.68664,-96.114 0,-44.89652 28.94855,-74.73396 45.68664,-96.10879 4.62117,-5.89993 13.63997,-5.89993 18.26114,0 16.73808,21.37483 45.68664,51.21227 45.68664,96.10879 z m 0,0"
           style="stroke-width:1.33073" />
        <path
           id="path2492"
           fill="#b67f5f"
           d="m 875.91071,217.98701 c -11.24362,-36.39753 -3.76348,-68.43899 4.39765,-93.94117 -16.84204,20.74586 -39.72955,48.74315 -39.72955,88.66503 0,44.89652 28.94855,74.73916 45.68664,96.114 4.62117,5.89992 13.63997,5.89992 18.26114,0 5.3749,-6.86676 12.00775,-14.60683 18.53664,-23.43851 -18.51065,-15.64646 -37.55671,-36.34034 -47.15252,-67.39935 z m 0,0"
           style="stroke-width:1.33073" />
      </g>
    </g>
    <path
       style="stroke-width:0.863438"
       d="m 497,466.18289 c -20.7,0 -33.1,6.93339 -48.701,16.32627 C 427.301,495.03399 401.201,510.91444 346,510.91444 H 166 c -55.201,0 -81.301,-15.88045 -102.299,-28.40528 C 48.1,473.11628 35.7,466.18289 15,466.18289 L 45,455 h 422 z"
       fill="#b36859"
       id="path1528" />
    <path
       style="stroke-width:0.863438"
       d="m 497,466.18289 c -20.7,0 -33.1,6.93339 -48.701,16.32627 C 427.301,495.03399 401.201,510.91444 346,510.91444 H 256 V 455 h 211 z"
       fill="#99534d"
       id="path1530" />
    <g
       id="g1536"
       transform="translate(0,124)">
      <g
         id="g1534">
        <path
           d="m 512,331 c 0,8.399 -6.599,15 -15,15 H 15 C 6.599,346 0,339.399 0,331 0,322.599 6.599,316 15,316 h 482 c 8.401,0 15,6.599 15,15 z"
           fill="#99534d"
           id="path1532" />
      </g>
    </g>
    <path
       d="m 512,455 c 0,8.399 -6.599,15 -15,15 H 256 v -30 h 241 c 8.401,0 15,6.599 15,15 z"
       fill="#804040"
       id="path1538" />
    <g
       id="g2464"
       transform="matrix(1.7895267,0,0,1.7308962,-1619.6728,-100.43626)">
      <path
         sodipodi:nodetypes="asasa"
         id="path2343"
         d="m 1056.8961,140.37748 c -0.2138,-19.01274 16.8738,-40.666726 39.6888,-40.970346 23.8391,-0.317248 41.3774,22.010986 41.2314,41.513776 -0.1409,18.8204 -16.4042,39.9505 -40.3841,39.46098 -24.874,-0.50777 -40.3226,-21.02162 -40.5361,-40.00441 z"
         style="fill:#f42a40;fill-opacity:1;stroke:#f42a40;stroke-width:1px;stroke-linecap:butt;stroke-linejoin:miter;stroke-opacity:1" />
      <path
         sodipodi:nodetypes="aaaaasa"
         id="path2345"
         d="m 1089.9512,112.43284 c 3.8581,-5.35512 13.5272,-5.54476 19.5837,-2.92171 6.089,2.63712 12.8688,9.91615 11.3267,16.36998 -0.7047,2.94936 -4.968,4.42368 -7.999,4.33284 -3.7587,-0.11264 -6.0862,-4.56643 -9.5798,-5.95739 -3.6892,-1.4688 -8.4172,0.33683 -11.6715,-2.38364 -2.4513,-2.04916 -3.5276,-6.8478 -1.6601,-9.44008 z"
         style="fill:#ffffff;fill-opacity:1;stroke:#ffffff;stroke-width:1px;stroke-linecap:butt;stroke-linejoin:miter;stroke-opacity:1" />
      <path
         sodipodi:nodetypes="sssss"
         id="path2347"
         d="m 1097.4167,59.379049 c -7.3341,-0.0173 -8.0379,7.507936 -7.9312,12.418466 0.1512,6.957289 1.2951,11.743789 7.9312,11.896681 6.4323,0.148199 8.0252,-4.618568 8.0354,-11.479254 0.012,-7.761123 -1.5561,-12.820613 -8.0354,-12.835893 z"
         style="fill:#fe4251;fill-opacity:1;stroke:#fe4251;stroke-width:1px;stroke-linecap:butt;stroke-linejoin:miter;stroke-opacity:1" />
      <path
         style="fill:#f42a40;fill-opacity:1;stroke:#fe4251;stroke-width:1px;stroke-linecap:butt;stroke-linejoin:miter;stroke-opacity:1"
         d="m 1040.6878,83.350989 c -4.9143,5.444143 0.2132,10.996886 3.9374,14.199274 5.2764,4.537157 9.6015,6.885107 14.1502,2.050807 4.409,-4.685827 1.9277,-9.056435 -3.1691,-13.649098 -5.7653,-5.195772 -10.5769,-7.410605 -14.9185,-2.600983 z"
         id="path2347-5"
         sodipodi:nodetypes="sssss" />
      <path
         sodipodi:nodetypes="sssss"
         id="path2347-5-1"
         d="m 1017.4837,139.06355 c -0.2711,7.32908 7.2253,8.29296 12.1366,8.35626 6.9583,0.0897 11.7815,-0.88782 12.164,-7.51465 0.3708,-6.42331 -4.338,-8.18027 -11.1943,-8.42789 -7.756,-0.28065 -12.8667,1.11136 -13.1063,7.58628 z"
         style="fill:#f42a40;fill-opacity:1;stroke:#f42a40;stroke-width:1px;stroke-linecap:butt;stroke-linejoin:miter;stroke-opacity:1" />
      <path
         style="fill:#f42a40;fill-opacity:1;stroke:#f42a40;stroke-width:1px;stroke-linecap:butt;stroke-linejoin:miter;stroke-opacity:1"
         d="m 1040.6748,196.16781 c 5.0658,5.30353 10.9826,0.6008 14.4517,-2.8763 4.915,-4.92633 7.5765,-9.06584 3.0919,-13.9597 -4.3468,-4.74359 -8.889,-2.59234 -13.8461,2.15077 -5.608,5.36514 -8.1727,9.99972 -3.6975,14.68523 z"
         id="path2347-5-1-6"
         sodipodi:nodetypes="sssss" />
      <path
         sodipodi:nodetypes="sssss"
         id="path2347-5-1-6-3"
         d="m 1097.8128,219.92241 c 7.334,-0.0393 7.9798,-7.56977 7.8352,-12.47935 -0.2048,-6.95586 -1.3855,-11.73342 -8.0226,-11.83512 -6.4333,-0.0987 -7.9894,4.68025 -7.9466,11.54087 0.048,7.76093 1.6548,12.80816 8.134,12.7736 z"
         style="fill:#f42a40;fill-opacity:1;stroke:#f42a40;stroke-width:1px;stroke-linecap:butt;stroke-linejoin:miter;stroke-opacity:1" />
      <path
         style="fill:#f42a40;fill-opacity:1;stroke:#f42a40;stroke-width:1px;stroke-linecap:butt;stroke-linejoin:miter;stroke-opacity:1"
         d="m 1153.8035,196.70411 c 5.362,-5.00373 0.7284,-10.97488 -2.7081,-14.48416 -4.8688,-4.97198 -8.9771,-7.68144 -13.9228,-3.25404 -4.7939,4.29135 -2.6955,8.85828 1.9896,13.87016 5.2998,5.66987 9.904,8.28844 14.6413,3.86804 z"
         id="path2347-5-1-6-3-4"
         sodipodi:nodetypes="sssss" />
      <path
         sodipodi:nodetypes="sssss"
         id="path2347-5-1-6-3-4-1"
         d="m 1177.5947,139.85227 c 0.2049,-7.33119 -7.2999,-8.2274 -12.2115,-8.2464 -6.9588,-0.027 -11.773,0.99402 -12.0957,7.62408 -0.3129,6.42645 4.4116,8.14077 11.2698,8.32651 7.7583,0.2104 12.8562,-1.22738 13.0374,-7.70419 z"
         style="fill:#f42a40;fill-opacity:1;stroke:#f42a40;stroke-width:1px;stroke-linecap:butt;stroke-linejoin:miter;stroke-opacity:1" />
      <path
         style="fill:#fe4251;fill-opacity:1;stroke:#fe4251;stroke-width:1px;stroke-linecap:butt;stroke-linejoin:miter;stroke-opacity:1"
         d="m 1154.1666,83.230669 c -4.988,-5.376677 -10.9727,-0.760613 -14.4921,2.665541 -4.9862,4.854149 -7.7077,8.954483 -3.2948,13.913174 4.2772,4.806486 8.8503,2.721526 13.8759,-1.948862 5.6854,-5.283143 8.3175,-9.879652 3.911,-14.629853 z"
         id="path2347-5-1-6-3-4-1-8"
         sodipodi:nodetypes="sssss" />
    </g>
  </g>
</svg>
