<svg width="512" height="512" version="1.1" viewBox="0 0 58 59" xmlns="http://www.w3.org/2000/svg"><g fill="none" fill-rule="evenodd"><g id="039---Cinnamon-Swirl" fill-rule="nonzero"><path id="Shape" d="m53 30c1.13-0.0811 2.26 0.204 3.21 0.813 0.848 0.767 1.39 1.82 1.53 2.95 0.445 2.62 0.296 5.3-0.436 7.85-1.1 3.68-3.17 6.99-6 9.59-2.45 2.32-5.33 4.12-8.48 5.32-4.89 1.8-10.1 2.63-15.3 2.46-1.41-0.0412-2.82-0.166-4.22-0.373-10.9-1.62-19.4-8.25-22.3-19.1-1.64-6.35-1.3-13.1 0.957-19.2 3.4-9.48 11.4-16.5 21.3-18.7 6.58-1.44 13.5-0.191 19.1 3.48 7.09 4.81 10.5 13.6 10.6 22z" fill="#f0c419"/><path d="m29.9 48.1c-2.92 0.0373-5.82-0.53-8.5-1.67-4.32-1.86-7.52-5.64-8.64-10.2-0.248-0.928-0.415-1.88-0.5-2.83-0.72-8.15 3.98-15.6 11.2-17.7 4.35-1.22 9.01-0.497 12.8 1.98 2.94 1.89 4.86 5 5.24 8.47 0.624 6.15-4.46 12.5-10.7 13.4-3.23 0.35-6.42-0.983-8.45-3.53-1.83-2.14-2.37-5.09-1.43-7.74 1.15-3.06 4.21-4.98 7.46-4.68 0.548 0.0735 0.932 0.577 0.858 1.12s-0.577 0.932-1.12 0.858c-2.33-0.202-4.51 1.18-5.32 3.38-0.695 1.99-0.274 4.2 1.1 5.8 1.58 2 4.08 3.06 6.62 2.81 5.12-0.694 9.46-6.13 8.95-11.2-0.312-2.88-1.92-5.46-4.37-7.01-3.29-2.13-7.32-2.76-11.1-1.72-6.29 1.85-10.4 8.42-9.76 15.6 0.0738 0.842 0.22 1.68 0.436 2.49 0.948 3.99 3.74 7.3 7.52 8.9 5.4 2.38 13.2 1.84 19.3-1.36 1.77-0.895 3.4-2.03 4.84-3.38 2.03-1.88 3.63-4.19 4.69-6.75 0.443-1.11 0.758-2.27 0.938-3.45 0.0536-0.353 0.292-0.651 0.624-0.781 0.333-0.13 0.71-0.0731 0.989 0.15 0.279 0.223 0.418 0.578 0.365 0.931-0.203 1.33-0.558 2.64-1.06 3.89-1.16 2.83-2.92 5.38-5.17 7.46-1.58 1.48-3.37 2.73-5.3 3.71-3.88 2.01-8.19 3.06-12.6 3.08z" fill="#f29c1f"/><g fill="#603e26"><ellipse id="Oval" transform="matrix(.268 -.963 .963 .268 5.41 66)" cx="46.1" cy="29.4" rx="3" ry="2"/><ellipse transform="matrix(.678 -.735 .735 .678 -13.3 32.5)" cx="30.5" cy="31.4" rx="3" ry="2"/><ellipse transform="matrix(.866 -.5 .5 .866 -20 10.1)" cx="8.77" cy="42.4" rx="2" ry="3"/><ellipse transform="matrix(.612 -.791 .791 .612 -31.6 42.3)" cx="27.3" cy="53.4" rx="2" ry="3"/><ellipse transform="matrix(.993 -.116 .116 .993 -1.34 4.96)" cx="42" cy="14" rx="3" ry="2"/><ellipse transform="matrix(.866 -.5 .5 .866 -17.3 29.9)" cx="47.2" cy="47.3" rx="3" ry="2"/><ellipse transform="matrix(.533 -.846 .846 .533 -19.6 18.9)" cx="7.33" cy="27.2" rx="3" ry="2"/><ellipse transform="matrix(.533 -.846 .846 .533 .823 22)" cx="20.3" cy="10.2" rx="3" ry="2"/></g><g fill="#fff"><path d="m40 41c-0.321-2.44e-4 -0.623-0.155-0.811-0.416s-0.239-0.596-0.137-0.9l1-3c0.113-0.339 0.398-0.593 0.749-0.665 0.35-0.0719 0.713 0.0485 0.95 0.316 0.237 0.267 0.314 0.641 0.201 0.981l-1 3c-0.136 0.41-0.52 0.685-0.952 0.684z"/><path d="m45 23c-0.321-2.44e-4 -0.623-0.155-0.811-0.416s-0.239-0.596-0.137-0.9l1-3c0.113-0.339 0.398-0.593 0.749-0.665 0.35-0.0719 0.713 0.0485 0.95 0.316 0.237 0.267 0.314 0.641 0.201 0.981l-1 3c-0.136 0.41-0.52 0.685-0.952 0.684z"/><path d="m32 44c-0.107 7.77e-5 -0.214-0.0171-0.316-0.051l-3-1c-0.525-0.175-0.809-0.741-0.634-1.27s0.741-0.809 1.27-0.634l3 1c0.469 0.152 0.757 0.624 0.678 1.11-0.0789 0.487-0.501 0.843-0.994 0.84z"/><path d="m19 37c-0.381 0.00208-0.73-0.212-0.9-0.553l-1-2c-0.247-0.494-0.0463-1.1 0.448-1.34s1.1-0.0463 1.34 0.448l1 2c0.155 0.309 0.138 0.676-0.0427 0.971-0.181 0.294-0.502 0.475-0.847 0.476z"/><path d="m8 36c-0.381 0.00208-0.73-0.212-0.9-0.553l-1-2c-0.16-0.32-0.137-0.7 0.0604-0.999 0.197-0.298 0.538-0.469 0.895-0.447s0.675 0.232 0.835 0.552l1 2c0.155 0.309 0.138 0.676-0.0427 0.971-0.181 0.294-0.502 0.475-0.847 0.476z"/><path d="m19 26c-0.404-8.63e-5 -0.769-0.244-0.924-0.617-0.155-0.374-0.0692-0.804 0.217-1.09l2-2c0.392-0.379 1.02-0.374 1.4 0.0122s0.391 1.01 0.0122 1.4l-2 2c-0.187 0.188-0.442 0.293-0.707 0.293z"/><path d="m27 11c-0.404-8.63e-5 -0.769-0.244-0.924-0.617-0.155-0.374-0.0692-0.804 0.217-1.09l2-2c0.251-0.26 0.623-0.364 0.973-0.273 0.35 0.0915 0.623 0.365 0.714 0.714 0.0915 0.35-0.0127 0.721-0.273 0.973l-2 2c-0.187 0.188-0.442 0.293-0.707 0.293z"/><path d="m8.32 21c-0.491 3.56e-4 -0.909-0.355-0.988-0.84-0.0785-0.484 0.206-0.954 0.672-1.11l2.68-0.894c0.525-0.175 1.09 0.109 1.27 0.634s-0.109 1.09-0.634 1.27l-2.68 0.9c-0.103 0.0313-0.21 0.0458-0.317 0.043z"/><path d="m33 24c-0.265-5.66e-5 -0.52-0.105-0.707-0.293l-2-2c-0.379-0.392-0.374-1.02 0.0122-1.4s1.01-0.391 1.4-0.0122l2 2c0.286 0.286 0.371 0.716 0.217 1.09-0.155 0.374-0.519 0.617-0.924 0.617z"/><path d="m36 12c-0.265-5.66e-5 -0.52-0.105-0.707-0.293l-2-2c-0.379-0.392-0.374-1.02 0.0122-1.4 0.386-0.386 1.01-0.391 1.4-0.0122l2 2c0.286 0.286 0.371 0.716 0.217 1.09-0.155 0.374-0.519 0.617-0.924 0.617z"/><path d="m14 16c-0.265-5.66e-5 -0.52-0.105-0.707-0.293l-2-2c-0.379-0.392-0.374-1.02 0.0122-1.4s1.01-0.391 1.4-0.0122l2 2c0.286 0.286 0.371 0.716 0.217 1.09-0.155 0.374-0.519 0.617-0.924 0.617z"/><path d="m52 43c-0.346-1.85e-4 -0.668-0.18-0.85-0.474-0.182-0.295-0.199-0.663-0.0438-0.973l1-2c0.247-0.494 0.848-0.695 1.34-0.448 0.494 0.247 0.695 0.848 0.448 1.34l-1 2c-0.17 0.339-0.517 0.554-0.896 0.553z"/><path d="m34 53c-0.468 0.00575-0.878-0.314-0.986-0.77-0.108-0.456 0.116-0.925 0.538-1.13l2-1c0.494-0.247 1.1-0.0463 1.34 0.448s0.0463 1.1-0.448 1.34l-2 1c-0.138 0.0708-0.291 0.108-0.446 0.11z"/><path d="m19 53c-0.468 0.00575-0.878-0.314-0.986-0.77-0.108-0.456 0.116-0.925 0.538-1.13l2-1c0.32-0.16 0.7-0.137 0.999 0.0604 0.298 0.197 0.469 0.538 0.447 0.895-0.0216 0.357-0.232 0.675-0.552 0.835l-2 1c-0.138 0.0708-0.291 0.108-0.446 0.11z"/><path d="m42 53c-0.154 0.00154-0.307-0.0327-0.446-0.1l-2-1c-0.494-0.247-0.695-0.848-0.448-1.34s0.848-0.695 1.34-0.448l2 1c0.41 0.21 0.623 0.673 0.517 1.12s-0.505 0.766-0.965 0.769z"/><path d="m16 49c-0.154 0.00154-0.307-0.0327-0.446-0.1l-2-1c-0.494-0.247-0.695-0.848-0.448-1.34s0.848-0.695 1.34-0.448l2 1c0.41 0.21 0.623 0.673 0.517 1.12s-0.505 0.766-0.965 0.769z"/></g></g></g></svg>
