<svg width="512pt" height="512pt" version="1.1" viewBox="0 0 512 512" xmlns="http://www.w3.org/2000/svg"><path d="m303 46.5s46.5-23.3 93.1-23.3c69.8 0 116 46.5 116 116 0 46.6-46.5 93.1-46.5 93.1z" fill="#004ed6"/><path d="m7.68 47.7c8.88-17.8 25.4-30.6 44.8-34.8 31.2-6.72 40.6-12.9 134-12.9 116 0 303 93.1 303 233s-163 209-256 209c-69.8 0-116-23.3-116-23.3s-16.2 50.7-45.7 80.6c-12.5 12.8-31.9 16-47.9 8-15.3-7.59-24.3-23.9-22.5-40.9 2.41-22.1 32.9-57.6 46.3-71 0 0-41.1-22.9-46.3-69.8-2.04-17.1 6.81-33.7 22.2-41.5 14.6-7.35 32.1-5.21 44.5 5.4 20.5 17.7 49.4 53.3 49.4 82.6 0 0 209 0 209-93.1 0 0-46.5-46.5-116-46.5-44 0-174-2.28-207-140-3.58-15.1-1.74-30.9 5.2-44.8z" fill="#99cefa"/><path d="m243 88.3c-6.43 0-11.6 5.21-11.6 11.6 0 0.672 0.0586 1.34 0.172 2 0.816 4.75 1.22 9.56 1.2 14.4 0 12.5-4.31 23.1-13.2 32.4-0.105 0.113-0.207 0.223-0.305 0.336-0.113 0.105-0.223 0.211-0.328 0.32-4.11 4.11-8.71 7.69-13.7 10.7-5.51 3.31-7.29 10.5-3.98 16 3.3 5.5 10.4 7.29 15.9 3.99 0.438-0.262 0.879-0.531 1.33-0.809l0.00391-0.00391 0.0586-0.0352 0.0156-0.0117 0.0312-0.0195 0.043-0.0273 0.0273-0.0156 0.043-0.0273 0.0234-0.0156 0.0469-0.0273 0.0234-0.0156 0.0391-0.0234 0.0273-0.0195 0.043-0.0273 0.0273-0.0156 0.0391-0.0234 0.0234-0.0156 0.0508-0.0352 0.0117-0.00391 0.0703-0.0469 0.0586-0.0352 0.00781-0.00781 0.0625-0.0391 0.00781-0.00391 0.0625-0.0391 0.00391-0.00391c4.32-2.73 8.41-5.82 12.2-9.22 0.0469-0.043 0.0977-0.0859 0.145-0.133l0.0742-0.0625v-0.00391c0.0469-0.043 0.0977-0.0859 0.141-0.125l0.00781-0.00391c0.0195-0.0195 0.0391-0.0391 0.0625-0.0586l0.0117-0.0117 0.0586-0.0508 0.0156-0.0156 0.0547-0.0508 0.0195-0.0195 0.0547-0.0469 0.0234-0.0195 0.0508-0.0469 0.0195-0.0195 0.0508-0.0469 0.0273-0.0234 0.043-0.0391 0.0312-0.0312 0.0352-0.0312 0.0391-0.0391 0.0312-0.0273 0.0469-0.043 0.0234-0.0195 0.0547-0.0547 0.0195-0.0156 0.0625-0.0586 0.0117-0.00781c0.91-0.848 1.81-1.73 2.71-2.64 0.141-0.145 0.277-0.289 0.41-0.438 0.152-0.148 0.305-0.297 0.453-0.449 6.92-7.14 12.3-15.7 15.7-25v-0.00391c0.0703-0.199 0.141-0.398 0.211-0.602 0.0352-0.0977 0.0703-0.199 0.102-0.301l0.00391-0.00391 0.102-0.297v-0.00781c0.0352-0.0977 0.0664-0.199 0.102-0.297v-0.00391c0.0352-0.102 0.0664-0.203 0.0977-0.301l0.00391-0.00781 0.0312-0.0977c0.0234-0.0703 0.043-0.137 0.0664-0.203v-0.00391c0.0312-0.102 0.0625-0.199 0.0977-0.301v-0.0117c0.0312-0.0977 0.0625-0.199 0.0938-0.301l0.00391-0.00781c0.00781-0.0312 0.0195-0.0664 0.0312-0.0977 0.0195-0.0703 0.0391-0.133 0.0586-0.203l0.00391-0.00781c0.0117-0.0352 0.0195-0.0664 0.0312-0.0977v-0.00391l0.0312-0.0977v-0.00391c0.0117-0.0352 0.0195-0.0664 0.0312-0.102v-0.00781l0.0312-0.0977c0.0195-0.0703 0.0391-0.137 0.0586-0.203l0.00391-0.0117 0.0273-0.0977 0.0312-0.105c0.0117-0.0352 0.0195-0.0664 0.0273-0.102l0.00391-0.00781c0.0117-0.0312 0.0195-0.0664 0.0273-0.0977l0.00391-0.00781 0.0273-0.0977v-0.00391l0.0273-0.0977 0.00391-0.0117 0.0273-0.0977 0.00391-0.00391 0.0273-0.0977v-0.00781l0.0273-0.0977 0.00391-0.0117c0.00781-0.0312 0.0156-0.0625 0.0273-0.0977v-0.00781c0.0117-0.0312 0.0195-0.0625 0.0273-0.0938v-0.00781l0.0273-0.0938 0.00391-0.0195 0.0273-0.0938v-0.00781c0.0117-0.0312 0.0195-0.0625 0.0273-0.0977v-0.00391l0.0273-0.0977 0.00391-0.0117 0.0273-0.102v-0.00391c0.00781-0.0352 0.0156-0.0664 0.0273-0.102l0.0273-0.102v-0.0117c0.0117-0.0352 0.0195-0.0664 0.0273-0.102 0.0117-0.0352 0.0195-0.0664 0.0273-0.102v-0.00781c0.0117-0.0312 0.0195-0.0625 0.0273-0.0977l0.00391-0.0117c0.00781-0.0352 0.0156-0.0664 0.0234-0.0977l0.00391-0.00781c0.00781-0.0352 0.0156-0.0664 0.0234-0.0977v-0.00781c0.00781-0.0312 0.0195-0.0625 0.0273-0.0977l0.0273-0.109v-0.0117l0.0234-0.0938 0.00391-0.0117 0.0273-0.109c0.00781-0.0352 0.0156-0.0664 0.0234-0.0977l0.00391-0.0117c0.00781-0.0312 0.0156-0.0625 0.0195-0.0938l0.00391-0.00781 0.0234-0.0977 0.00391-0.0156c0.00781-0.0312 0.0156-0.0664 0.0234-0.0977l0.00391-0.0117c0.00391-0.0312 0.0117-0.0586 0.0195-0.0898l0.00391-0.0117 0.0234-0.0977 0.00391-0.0156c0.00781-0.0312 0.0117-0.0664 0.0195-0.0977l0.00391-0.0117c0.00781-0.0312 0.0156-0.0625 0.0234-0.0938v-0.00781l0.0234-0.0977 0.00391-0.0195 0.0234-0.0938v-0.0117l0.0234-0.0938 0.00391-0.0117 0.0195-0.0977 0.00391-0.0156 0.0195-0.0977 0.00391-0.0156 0.0195-0.0859 0.00391-0.0156c0.00781-0.0312 0.0156-0.0625 0.0195-0.0938l0.00781-0.0234c0.00391-0.0312 0.0117-0.0625 0.0195-0.0938l0.00391-0.0156c0.00391-0.0273 0.0117-0.0547 0.0156-0.082l0.00781-0.0234 0.0195-0.0898 0.00391-0.0234 0.0195-0.0938 0.00391-0.0156 0.0195-0.0898v-0.0117l0.0195-0.0977 0.00781-0.0234c0.00391-0.0312 0.0117-0.0625 0.0195-0.0938v-0.0117l0.0195-0.0898 0.00391-0.0195c0.00781-0.0312 0.0117-0.0625 0.0195-0.0938l0.0234-0.117v-0.0117l0.0195-0.0898 0.00391-0.0195 0.0195-0.0938 0.0234-0.117v-0.0117l0.0195-0.0938 0.00391-0.0156c0.00391-0.0352 0.0117-0.0664 0.0195-0.0977l0.00391-0.0195 0.0156-0.0977 0.00391-0.0117 0.0156-0.0898 0.00391-0.0195c0.00781-0.0312 0.0117-0.0625 0.0195-0.0938l0.00391-0.0234c0.00781-0.0312 0.0117-0.0625 0.0156-0.0938l0.00391-0.0156c0.00781-0.0312 0.0117-0.0625 0.0156-0.0898l0.0273-0.137c0.00391-0.0312 0.0117-0.0664 0.0156-0.0977l0.00391-0.0117 0.0156-0.0938 0.00391-0.0156 0.0156-0.0977 0.00391-0.0195c0.00781-0.0312 0.0117-0.0664 0.0195-0.0977v-0.0117c0.00781-0.0312 0.0117-0.0586 0.0156-0.0898l0.00391-0.0234c0.00781-0.0312 0.0117-0.0625 0.0156-0.0938l0.00391-0.0234c0.00781-0.0352 0.0117-0.0664 0.0195-0.0977v-0.0156c0.00781-0.0312 0.0117-0.0586 0.0156-0.0898l0.00391-0.0156c0.00391-0.0352 0.0117-0.0664 0.0156-0.0977l0.00391-0.0234c0.00781-0.0352 0.0117-0.0664 0.0156-0.0977l0.00391-0.0156 0.0156-0.0898v-0.0195c0.00781-0.0312 0.0117-0.0625 0.0156-0.0938l0.00391-0.0234 0.0156-0.0977 0.00391-0.0156c0.00391-0.0312 0.00781-0.0586 0.0117-0.0898l0.00391-0.0195 0.0156-0.0977 0.00391-0.0234 0.0156-0.0977 0.00391-0.0156c0.00391-0.0273 0.00781-0.0586 0.0117-0.0859l0.00391-0.0234 0.0156-0.0977 0.00391-0.0195 0.0156-0.102v-0.0117l0.0156-0.0938v-0.0156l0.0156-0.0977 0.00391-0.0273c0.00391-0.0312 0.00781-0.0664 0.0117-0.0977l0.00391-0.0117 0.0117-0.0938 0.00391-0.0195c0.00391-0.0312 0.0117-0.0625 0.0156-0.0977v-0.0234l0.0156-0.0977 0.00391-0.0156 0.0117-0.0898v-0.0234l0.0156-0.0977 0.00391-0.0195c0.00391-0.0352 0.00781-0.0703 0.0117-0.102v-0.0117l0.0156-0.0938v-0.0234l0.0156-0.0977 0.00391-0.0195 0.0117-0.102v-0.0117l0.0117-0.102 0.00391-0.0117 0.0117-0.102 0.00391-0.0234 0.0117-0.102v-0.00781c0.00391-0.0352 0.0117-0.0664 0.0156-0.0977v-0.0195c0.00391-0.0312 0.00781-0.0664 0.0117-0.0977l0.00391-0.0273c0.00391-0.0312 0.00781-0.0664 0.0117-0.0977l0.00391-0.0117 0.00781-0.0977 0.00391-0.0195c0.00391-0.0312 0.00781-0.0625 0.0117-0.0977l0.00391-0.0234 0.00781-0.102 0.00391-0.0117c0.00391-0.0312 0.00781-0.0625 0.00781-0.0938l0.00391-0.0234c0.00391-0.0312 0.00781-0.0664 0.0117-0.102l0.00391-0.0195c0.00391-0.0352 0.00781-0.0703 0.0117-0.102v-0.0117l0.00781-0.0977 0.00391-0.0195 0.0117-0.0977v-0.0273l0.0117-0.102v-0.0117c0.00391-0.0312 0.00781-0.0664 0.0117-0.0938l0.00391-0.0234c0-0.0312 0.00391-0.0664 0.00781-0.0977l0.00391-0.0273c0-0.0312 0.00391-0.0664 0.00781-0.102l0.00391-0.0117 0.00781-0.0938 0.00391-0.0195c0-0.0352 0.00391-0.0703 0.00781-0.105v-0.0195c0.00391-0.0352 0.00781-0.0703 0.0117-0.105v-0.00781c0.00391-0.0352 0.00781-0.0664 0.0117-0.0977v-0.0234c0.00391-0.0352 0.00781-0.0664 0.00781-0.102l0.00391-0.0234 0.00781-0.102v-0.00781c0.00391-0.0352 0.00781-0.0703 0.0117-0.102v-0.0195c0.00391-0.0352 0.00781-0.0664 0.00781-0.102l0.00391-0.0273 0.00781-0.102 0.00391-0.0156 0.00781-0.0898v-0.0234c0.00391-0.0352 0.00391-0.0664 0.00781-0.102l0.00391-0.0234 0.00781-0.105v-0.0117c0.00391-0.0312 0.00391-0.0625 0.00781-0.0977v-0.0195c0.00391-0.0352 0.00781-0.0703 0.00781-0.105l0.00391-0.0195 0.00781-0.105v-0.00781c0.00391-0.0352 0.00391-0.0703 0.00781-0.102v-0.0234c0.00391-0.0352 0.00781-0.0664 0.00781-0.102l0.00391-0.0195c0-0.0391 0.00391-0.0742 0.00391-0.109l0.00391-0.00391c0-0.0352 0.00391-0.0703 0.00781-0.105v-0.0195c0-0.0352 0.00391-0.0703 0.00781-0.105v-0.0195c0.00391-0.0391 0.00391-0.0742 0.00781-0.109 0.00391-0.0391 0.00391-0.0742 0.00781-0.109v-0.0195l0.00781-0.105v-0.0195l0.00781-0.109v-0.00391l0.00391-0.105 0.00391-0.0195 0.00391-0.105v-0.0234c0.00391-0.0352 0.00391-0.0703 0.00781-0.105v-0.00781c0.00391-0.0352 0.00391-0.0703 0.00391-0.102l0.00391-0.0234c0-0.0352 0.00391-0.0703 0.00391-0.105v-0.0195l0.00781-0.109v-0.00781c0-0.0352 0.00391-0.0664 0.00391-0.105l0.00391-0.0195 0.00391-0.105v-0.0234c0-0.0352 0.00391-0.0703 0.00391-0.105v-0.00781c0.00391-0.0352 0.00391-0.0703 0.00781-0.105v-0.0234l0.00391-0.102v-0.0234c0-0.0352 0.00391-0.0703 0.00391-0.109v-0.00391l0.00391-0.105 0.00391-0.0234 0.00391-0.105v-0.0234l0.00391-0.105v-0.0117c0-0.0312 0-0.0664 0.00391-0.102v-0.0234c0-0.0352 0.00391-0.0703 0.00391-0.105v-0.0195c0-0.0391 0.00391-0.0742 0.00391-0.109v-0.00781c0-0.0352 0-0.0703 0.00391-0.105v-0.0234c0-0.0352 0-0.0703 0.00391-0.102v-0.133l0.00391-0.0117v-0.102l0.00391-0.0273v-0.129l0.00391-0.105v-0.113l0.00391-0.0234v-0.105-0.0234c0.00391-0.0391 0.00391-0.0742 0.00391-0.113v-0.109-0.0234c0-0.0352 0-0.0703 0.00391-0.109v-0.266-0.109l0.00391-0.0234v-0.227-0.0195-0.109-0.758c-0.00391-0.0312-0.00391-0.0625-0.00391-0.0977v-0.0117-0.0781-0.0312-0.0703-0.0195l-0.00391-0.191v-0.117c0-0.0664 0-0.129-0.00391-0.195v-0.195l-0.00391-0.0156v-0.191-0.0156l-0.00391-0.0898v-0.00781-0.195-0.00781l-0.00391-0.0938v-0.00781l-0.00391-0.199-0.00391-0.0977v-0.00391c0-0.0977-0.00391-0.199-0.00781-0.297v-0.105c-0.00391-0.0977-0.00781-0.195-0.00781-0.297v-0.00391c-0.137-5.09-0.645-10.2-1.52-15.2-0.996-5.54-5.81-9.57-11.4-9.59z" fill="#c9e5fc"/><path d="m198 442c-6.43 0-11.6-5.21-11.6-11.6 0-6.42 5.2-11.6 11.6-11.6 0.684 0 67.4-0.73 133-44.6 63.9-42.6 64.6-106 64.6-107 0-6.43 5.21-11.6 11.6-11.6 6.43 0 11.6 5.21 11.6 11.6 0 3.11-0.863 76.6-75 126-71.9 47.9-143 48.5-146 48.5z" fill="#c9e5fc"/><path d="m217 186c-12.9 0.0625-23.2 10.5-23.2 23.4 0.0625 12.4 9.91 22.6 22.3 23.1l0.043 0.00391c0.0352 0 0.0742 0 0.113 0.00391h0.0234c0.0469 0.00391 0.0859 0.00391 0.133 0.00781h0.0156l0.148 0.00391 0.0234 0.00391c0.0352 0 0.0703 0 0.109 0.00391 0.223 0.00781 0.449 0.0195 0.672 0.0312 0.199 0.00781 0.398 0.0117 0.598 0.0156 0.215 0.0195 0.434 0.0352 0.652 0.0469 45.3 2.53 79.8 24.1 96.5 36.9 10.2 7.79 24.8 5.81 32.6-4.42 7.77-10.2 5.82-24.8-4.37-32.6-20.8-15.9-64.3-43.1-122-46.3-0.258-0.0156-0.512-0.0234-0.766-0.0312-0.293-0.0234-0.59-0.0391-0.887-0.0547l-1.66-0.0703c-0.348-0.0156-0.691-0.0234-1.04-0.0234z" fill="#64aef7"/><g fill="#0a86e3"><path d="m489 233c0-140-186-233-303-233-93.1 0-102 6.2-134 12.9-8.43 1.91-16.4 5.46-23.4 10.5 31.3 0.832 194 9.14 320 93 140 93.1 140 281-116 326 93.1 0 256-69.8 256-209z"/><path d="m256 46.5c0 12.9-10.4 23.3-23.3 23.3-12.9 0-23.3-10.4-23.3-23.3 0-12.9 10.4-23.3 23.3-23.3 12.9 0 23.3 10.4 23.3 23.3z"/><path d="m326 93.1c0 12.9-10.4 23.3-23.3 23.3-12.9 0-23.3-10.4-23.3-23.3 0-12.9 10.4-23.3 23.3-23.3 12.9 0 23.3 10.4 23.3 23.3z"/></g><path d="m140 46.5c0 12.9-10.4 23.3-23.3 23.3-12.9 0-23.3-10.4-23.3-23.3 0-12.9 10.4-23.3 23.3-23.3 12.9 0 23.3 10.4 23.3 23.3z" fill="#001386"/><path d="m116 34.9c0 6.43-5.21 11.6-11.6 11.6s-11.6-5.21-11.6-11.6 5.21-11.6 11.6-11.6 11.6 5.21 11.6 11.6z" fill="#46a4f2"/><path d="m58.2 116c-6.42 0.00391-11.6-5.2-11.6-11.6v-0.0117-9.55c0.0234-4-2.04-7.71-5.46-9.79-39.9-23.8-41.1-47.8-41.1-50.5 0-6.43 5.21-11.6 11.6-11.6 6.24 0 11.4 4.92 11.6 11.2 0.137 1 2.64 14.8 29.7 31 10.4 6.3 16.8 17.6 16.8 29.8v9.55c0.00391 6.42-5.2 11.6-11.6 11.6-0.00391-0.00391-0.00781-0.00391-0.0156-0.00391z" fill="#64aef7"/><path d="m69.8 105c0 6.43-5.21 11.6-11.6 11.6s-11.6-5.21-11.6-11.6c0-6.43 5.21-11.6 11.6-11.6s11.6 5.21 11.6 11.6z" fill="#006ce2"/><path d="m22 74.9c-6.43-0.00391-11.6 5.2-11.6 11.6-0.00391 3.68 1.73 7.14 4.68 9.33 2.63 1.96 5.41 3.9 8.31 5.79v3.03c0.00781 15.8 10.7 29.7 26 33.8 0.625 0.164 1.26 0.277 1.9 0.336 0.609 0.195 1.24 0.344 1.88 0.438 1.26 0.188 2.53 0.309 3.8 0.355 0.152 0.00781 0.305 0.0117 0.457 0.0117 6.43-0.00781 11.6-5.22 11.6-11.6-0.00391-6.25-4.95-11.4-11.2-11.6h-0.043c-0.414-0.0195-0.828-0.0586-1.24-0.121-0.211-0.0312-0.422-0.0547-0.629-0.0742-0.203-0.0664-0.406-0.125-0.617-0.18-3.91-1.04-7.01-4.04-8.17-7.93l-0.0117-0.0352c-0.0117-0.0469-0.0234-0.0898-0.0391-0.137v-0.00391l-0.00781-0.0312c-0.0156-0.0469-0.0273-0.0938-0.0391-0.137v-0.00391l-0.00781-0.0312v-0.00391l-0.0117-0.0312c-0.00781-0.0352-0.0156-0.0703-0.0273-0.105l-0.0156-0.0703c-0.0117-0.0469-0.0234-0.0938-0.0312-0.141l-0.00391-0.00391-0.00391-0.0273-0.00391-0.00391-0.00781-0.0352c-0.00391-0.0234-0.00781-0.0469-0.0117-0.0703l-0.00781-0.0352-0.00391-0.00391-0.00391-0.0312-0.00391-0.00391-0.0273-0.137v-0.00781l-0.00391-0.0273-0.00391-0.00781-0.00391-0.0273v-0.00781l-0.0117-0.0664-0.00391-0.00391-0.00391-0.0312v-0.00781l-0.00781-0.0273v-0.00781l-0.00391-0.0273-0.00391-0.00781-0.00391-0.0273v-0.00391l-0.0117-0.0703v-0.00781l-0.00781-0.0273v-0.00781l-0.00391-0.0273v-0.00781l-0.00391-0.0273-0.00391-0.00781-0.00781-0.0664v-0.00781l-0.00781-0.0273v-0.00781l-0.00391-0.0273v-0.00781l-0.00391-0.0273v-0.00781c-0.00391-0.0234-0.00781-0.0469-0.0117-0.0703v-0.00781l-0.00391-0.0273v-0.00781l-0.00391-0.0273v-0.00781l-0.00391-0.0273v-0.00781l-0.00391-0.0273v-0.00781l-0.00391-0.0352-0.00391-0.00391v-0.0273l-0.00391-0.0117v-0.0234l-0.00391-0.0117v-0.0234l-0.00391-0.0117v-0.0352l-0.00391-0.0352-0.00391-0.0312v-0.0117l-0.00391-0.0234v-0.0117l-0.00391-0.0234v-0.0117l-0.00391-0.0234v-0.0117l-0.00391-0.0352v-0.0312l-0.00391-0.0117v-0.0352l-0.00391-0.0234v-0.0391l-0.00391-0.00781-0.00391-0.0703v-0.0117l-0.00391-0.0234v-0.0469l-0.00391-0.0234v-0.0469l-0.00391-0.0352v-0.0469l-0.00391-0.0234v-0.082l-0.00391-0.0312v-0.0859l-0.00391-0.0195v-9.82c0.0234-4-2.05-7.71-5.46-9.8l-0.109-0.0664-0.0469-0.0273-0.0625-0.0391-0.0586-0.0312-0.0547-0.0352-0.0586-0.0352-0.0508-0.0312c-0.0195-0.0117-0.043-0.0234-0.0625-0.0352l-0.0469-0.0312c-0.0195-0.00781-0.043-0.0234-0.0625-0.0352l-0.0469-0.0273c-0.0234-0.0156-0.0469-0.0273-0.0664-0.043l-0.0391-0.0234c-0.0234-0.0117-0.0508-0.0273-0.0703-0.043l-0.0352-0.0195-0.0781-0.0469-0.0234-0.0156-0.0859-0.0508h-0.00391c-0.133-0.082-0.273-0.168-0.406-0.25l-0.00781-0.00391c-0.0312-0.0195-0.0625-0.0391-0.0938-0.0586l-0.0117-0.00781-0.0938-0.0547-0.0156-0.00781-0.0898-0.0586-0.0117-0.00781c-0.0312-0.0195-0.0625-0.0352-0.0938-0.0547l-0.0117-0.00781-0.0938-0.0586-0.00781-0.00391c-0.309-0.188-0.613-0.379-0.918-0.57-1.15-0.719-2.27-1.44-3.35-2.16h-0.00391l-0.0898-0.0625-0.00391-0.00391-0.0898-0.0586-0.0117-0.00781c-0.0273-0.0195-0.0586-0.0391-0.0859-0.0586h-0.00391c-0.215-0.145-0.43-0.289-0.645-0.434l-0.0195-0.0156-0.0742-0.0508-0.0234-0.0117-0.0703-0.0508-0.0273-0.0156-0.0664-0.0469-0.0312-0.0195-0.0664-0.0469-0.0312-0.0195-0.0664-0.0469-0.0273-0.0195-0.0664-0.043-0.0273-0.0195-0.223-0.152-0.0352-0.0234-0.0508-0.0352-0.0469-0.0312-0.0469-0.0352-0.0938-0.0625-0.0547-0.0391-0.0391-0.0273-0.0547-0.0391-0.043-0.0273-0.0547-0.0391-0.043-0.0273-0.0547-0.0391-0.043-0.0273-0.0586-0.043-0.0312-0.0234c-0.0273-0.0195-0.0508-0.0352-0.0781-0.0508l-0.0195-0.0156c-0.0977-0.0664-0.195-0.137-0.293-0.203l-0.00391-0.00391-0.0938-0.0664-0.00781-0.00781-0.0859-0.0586-0.0117-0.00781c-0.0312-0.0234-0.0586-0.043-0.0859-0.0625l-0.0156-0.00781-0.082-0.0586-0.0117-0.0117-0.0859-0.0586-0.0117-0.00781c-0.875-0.621-1.72-1.24-2.55-1.85-2-1.51-4.44-2.32-6.95-2.32z" fill="#c9e5fc"/><path d="m209 233c-12.9-0.00391-23.3-10.4-23.3-23.3 0.00391-10 6.41-18.9 15.9-22.1 2.09-0.727 53.9-19.3 53.9-71 0-35.3-16-52.9-16.7-53.6-8.7-9.3-8.39-23.8 0.684-32.8 9.05-8.85 23.5-8.79 32.5 0.137 3.09 3.07 30.1 31.7 30.1 86.3 0 85.6-82.2 114-85.7 115-2.38 0.797-4.86 1.2-7.36 1.21z" fill="#64aef7"/><path d="m209 233c-12.9-0.00391-23.3-10.4-23.3-23.3 0.00391-10 6.41-18.9 15.9-22.1 2.09-0.727 53.9-19.3 53.9-71 0-35.3-16-52.9-16.7-53.6-8.7-9.3-8.39-23.8 0.684-32.8 9.05-8.85 23.5-8.79 32.5 0.137 3.09 3.07 30.1 31.7 30.1 86.3 0 85.6-82.2 114-85.7 115-2.38 0.797-4.86 1.2-7.36 1.21z" fill="#64aef7"/><path d="m277 116c-11.2-0.0117-20.8-8.04-22.9-19.1-4.16-22.7-14.6-34.1-15-34.5-8.7-9.3-8.39-23.8 0.68-32.8 9.05-8.85 23.5-8.79 32.5 0.137 2.11 2.11 20.8 21.7 27.6 58.8 2.32 12.6-6.04 24.7-18.7 27.1-0.0117 0.00391-0.0195 0.00391-0.0312 0.00781-1.38 0.262-2.79 0.391-4.2 0.383z" fill="#006ce2"/><path d="m419 163c0 12.9-10.4 23.3-23.3 23.3-12.9 0-23.3-10.4-23.3-23.3 0-12.9 10.4-23.3 23.3-23.3 12.9 0 23.3 10.4 23.3 23.3z" fill="#0a86e3"/><path d="m349 326c0 12.9-10.4 23.3-23.3 23.3-12.9 0-23.3-10.4-23.3-23.3 0-12.9 10.4-23.3 23.3-23.3 12.9 0 23.3 10.4 23.3 23.3z" fill="#64aef7"/><path d="m233 407c0 6.43-5.21 11.6-11.6 11.6s-11.6-5.21-11.6-11.6 5.21-11.6 11.6-11.6 11.6 5.21 11.6 11.6z" fill="#c9e5fc"/><path d="m279 361c0 6.43-5.21 11.6-11.6 11.6-6.43 0-11.6-5.21-11.6-11.6s5.21-11.6 11.6-11.6c6.43 0 11.6 5.21 11.6 11.6z" fill="#c9e5fc"/><path d="m372 186c0 12.9-10.4 23.3-23.3 23.3-12.9 0-23.3-10.4-23.3-23.3s10.4-23.3 23.3-23.3c12.9 0 23.3 10.4 23.3 23.3z" fill="#e1ebfc"/><path d="m163 105c0 6.43-5.21 11.6-11.6 11.6s-11.6-5.21-11.6-11.6c0-6.43 5.21-11.6 11.6-11.6s11.6 5.21 11.6 11.6z" fill="#64aef7"/><g fill="#006ce2"><path d="m465 268c0 6.43-5.21 11.6-11.6 11.6-6.43 0-11.6-5.21-11.6-11.6 0-6.43 5.21-11.6 11.6-11.6 6.43 0 11.6 5.21 11.6 11.6z"/><path d="m419 361c0 6.43-5.21 11.6-11.6 11.6-6.43 0-11.6-5.21-11.6-11.6s5.21-11.6 11.6-11.6c6.43 0 11.6 5.21 11.6 11.6z"/><path d="m465 314c0 6.43-5.21 11.6-11.6 11.6-6.43 0-11.6-5.21-11.6-11.6 0-6.43 5.21-11.6 11.6-11.6 6.43 0 11.6 5.21 11.6 11.6z"/></g><path d="m349 384c0 6.43-5.21 11.6-11.6 11.6-6.43 0-11.6-5.21-11.6-11.6 0-6.43 5.21-11.6 11.6-11.6 6.43 0 11.6 5.21 11.6 11.6z" fill="#64aef7"/><path d="m140 407c0 6.43-5.21 11.6-11.6 11.6-6.43 0-11.6-5.21-11.6-11.6s5.21-11.6 11.6-11.6c6.43 0 11.6 5.21 11.6 11.6z" fill="#64aef7"/><path d="m419 151c0 6.43-5.21 11.6-11.6 11.6-6.43 0-11.6-5.21-11.6-11.6s5.21-11.6 11.6-11.6c6.43 0 11.6 5.21 11.6 11.6z" fill="#006ce2"/><path d="m116 372c0-29.3-28.9-64.9-49.4-82.6-12.4-10.6-29.9-12.8-44.5-5.4-15.3 7.82-24.2 24.4-22.2 41.5 5.21 46.9 46.3 69.8 46.3 69.8-13.4 13.4-43.9 48.9-46.3 71-2.27 22.6 14.2 42.8 36.9 45.1 12.4 1.24 24.8-3.23 33.5-12.2 29.5-30 45.7-80.7 45.7-80.7-23.3 0-23.3-23.3-23.3-23.3s0-23.3 23.3-23.3z" fill="#0a86e3"/><path d="m396 93.1c0 12.9-10.4 23.3-23.3 23.3-12.9 0-23.3-10.4-23.3-23.3 0-12.9 10.4-23.3 23.3-23.3 12.9 0 23.3 10.4 23.3 23.3z" fill="#006ce2"/><path d="m151 186c-2.09 0-51.7-0.297-78-26.7-4.54-4.54-4.54-11.9 0-16.5 4.54-4.54 11.9-4.54 16.5 0 19.5 19.5 61.2 19.9 61.6 19.9 6.43 0.0156 11.6 5.24 11.6 11.7-0.0117 6.41-5.21 11.6-11.6 11.6z" fill="#e1ebfc"/></svg>
