<?xml version="1.0" encoding="UTF-8" standalone="no"?>
<svg
   xmlns:dc="http://purl.org/dc/elements/1.1/"
   xmlns:cc="http://creativecommons.org/ns#"
   xmlns:rdf="http://www.w3.org/1999/02/22-rdf-syntax-ns#"
   xmlns:svg="http://www.w3.org/2000/svg"
   xmlns="http://www.w3.org/2000/svg"
   xmlns:sodipodi="http://sodipodi.sourceforge.net/DTD/sodipodi-0.dtd"
   xmlns:inkscape="http://www.inkscape.org/namespaces/inkscape"
   inkscape:version="1.0 (4035a4f, 2020-05-01)"
   sodipodi:docname="fish.svg"
   id="svg100"
   version="1.1"
   width="512pt"
   viewBox="0 0 512.00047 512"
   height="512pt">
  <metadata
     id="metadata106">
    <rdf:RDF>
      <cc:Work
         rdf:about="">
        <dc:format>image/svg+xml</dc:format>
        <dc:type
           rdf:resource="http://purl.org/dc/dcmitype/StillImage" />
        <dc:title></dc:title>
      </cc:Work>
    </rdf:RDF>
  </metadata>
  <defs
     id="defs104" />
  <sodipodi:namedview
     inkscape:current-layer="svg100"
     inkscape:window-maximized="0"
     inkscape:window-y="0"
     inkscape:window-x="0"
     inkscape:cy="343.60423"
     inkscape:cx="341.33333"
     inkscape:zoom="0.88071102"
     showgrid="false"
     id="namedview102"
     inkscape:window-height="768"
     inkscape:window-width="1366"
     inkscape:pageshadow="2"
     inkscape:pageopacity="0"
     guidetolerance="10"
     gridtolerance="10"
     objecttolerance="10"
     borderopacity="1"
     bordercolor="#666666"
     pagecolor="#ffffff" />
  <path
     id="path10"
     fill="#004ed6"
     d="m302.558594 46.542969s46.542968-23.273438 93.085937-23.273438c69.8125 0 116.355469 46.542969 116.355469 116.359375 0 46.632813-46.542969 93.085938-46.542969 93.085938zm0 0" />
  <path
     id="path22"
     fill="#99cefa"
     d="m7.679688 47.675781c8.875-17.800781 25.371093-30.59375 44.824218-34.761719 31.207032-6.71875 40.613282-12.914062 133.695313-12.914062 116.359375 0 302.53125 93.085938 302.53125 232.714844s-162.902344 209.441406-255.988281 209.441406c-69.8125 0-116.355469-23.269531-116.355469-23.269531s-16.222657 50.695312-45.714844 80.648437c-12.542969 12.757813-31.871094 15.988282-47.878906 8-15.324219-7.589844-24.308594-23.910156-22.523438-40.917968 2.40625-22.054688 32.894531-57.597657 46.304688-71.003907 0 0-41.078125-22.878906-46.285157-69.8125-2.035156-17.109375 6.808594-33.671875 22.15625-41.496093 14.566407-7.347657 32.121094-5.214844 44.507813 5.402343 20.496094 17.691407 49.433594 53.347657 49.433594 82.636719 0 0 209.441406 0 209.441406-93.085938 0 0-46.542969-46.542968-116.355469-46.542968-44.039062 0-173.703125-2.28125-206.992187-140.285156-3.578125-15.066407-1.738281-30.910157 5.199219-44.753907zm0 0" />
  <path
     id="path24"
     fill="#c9e5fc"
     d="m243.015625 88.324219c-6.433594 0-11.648437 5.214843-11.648437 11.644531 0 .671875.058593 1.339844.171874 2.003906.816407 4.75 1.21875 9.5625 1.203126 14.382813 0 12.519531-4.3125 23.121093-13.183594 32.414062-.105469.113281-.207032.222657-.304688.335938-.113281.105469-.222656.210937-.328125.320312-4.105469 4.113281-8.707031 7.691407-13.707031 10.652344-5.507812 3.308594-7.289062 10.457031-3.976562 15.964844 3.304687 5.5 10.441406 7.285156 15.945312 3.992187.4375-.261718.878906-.53125 1.328125-.808594l.003906-.003906.058594-.035156.015625-.011719.03125-.019531.042969-.027344.027343-.015625.042969-.027343.023438-.015626.046875-.027343.023437-.015625.039063-.023438.027344-.019531.042968-.027344.027344-.015625.039062-.023437.023438-.015625.050781-.035156.011719-.003907.070312-.046875.058594-.035156.007813-.007812.0625-.039063.007812-.003906.0625-.039063.003907-.003906c4.324218-2.734375 8.414062-5.820312 12.238281-9.21875.046875-.042969.097656-.085938.144531-.132812l.074219-.0625v-.003907c.046875-.042969.097656-.085937.140625-.125l.007812-.003906c.019532-.019531.039063-.039063.0625-.058594l.011719-.011719.058594-.050781.015625-.015625.054687-.050781.019531-.019531.054688-.046875.023438-.019531.050781-.046876.019531-.019531.050781-.046875.027344-.023437.042969-.039063.03125-.03125.035156-.03125.039062-.039062.03125-.027344.046876-.042969.023437-.019531.054687-.054688.019532-.015624.0625-.058594.011718-.007813c.910157-.847656 1.8125-1.726562 2.710938-2.636719.140625-.144531.277344-.289062.410156-.4375.152344-.148437.304688-.296874.453125-.449218 6.921875-7.136719 12.261719-15.65625 15.664063-24.996094v-.003906c.070312-.199219.140625-.398438.210937-.601563.035157-.097656.070313-.199219.101563-.300781l.003906-.003906.101562-.296875v-.007813c.035157-.097656.066407-.199218.101563-.296875v-.003906c.035156-.101563.066406-.203125.097656-.300781l.003907-.007813.03125-.097656c.023437-.070313.042968-.136719.066406-.203125v-.003906c.03125-.101563.0625-.199219.097656-.300782v-.011718c.03125-.097656.0625-.199219.09375-.300782l.003906-.007812c.007813-.03125.019532-.066406.03125-.097656.019532-.070313.039063-.132813.058594-.203125l.003906-.007813c.011719-.035156.019532-.066406.03125-.097656v-.003906l.03125-.097656v-.003907c.011719-.035156.019532-.066406.03125-.101562v-.007813l.03125-.097656c.019532-.070312.039063-.136719.058594-.203125l.003906-.011719.027344-.097656.03125-.105469c.011719-.035156.019531-.066406.027344-.101562l.003906-.007813c.011719-.03125.019531-.066406.027344-.097656l.003906-.007812.027344-.097657v-.003906l.027344-.097656.003906-.011719.027344-.097656.003906-.003906.027344-.097657v-.007812l.027343-.097657.003907-.011718c.007812-.03125.015624-.0625.027343-.097656v-.007813c.011719-.03125.019531-.0625.027344-.09375v-.007813l.027344-.09375.003906-.019531.027344-.09375v-.007812c.011719-.03125.019531-.0625.027343-.097657v-.003906l.027344-.097656.003906-.011719.027344-.101562v-.003907c.007813-.035156.015625-.066406.027344-.101562l.027344-.101562v-.011719c.011718-.035157.019531-.066407.027344-.101563.011718-.035156.019531-.066406.027343-.101562v-.007813c.011719-.03125.019531-.0625.027344-.097656l.003906-.011719c.007813-.035156.015625-.066406.023438-.097656l.003906-.007812c.007813-.035157.015625-.066407.023437-.097657v-.007812c.007813-.03125.019532-.0625.027344-.097657l.027344-.109374v-.011719l.023438-.09375.003906-.011719.027344-.109375c.007812-.035156.015624-.066406.023437-.097656l.003906-.011719c.007813-.03125.015625-.0625.019531-.09375l.003907-.007812.023437-.097657.003906-.015625c.007813-.03125.015626-.066406.023438-.097656l.003906-.011719c.003906-.03125.011719-.058593.019532-.089843l.003906-.011719.023437-.097657.003907-.015624c.007812-.03125.011718-.066407.019531-.097657l.003906-.011719c.007813-.03125.015625-.0625.023437-.09375v-.007812l.023438-.097656.003906-.019532.023438-.09375v-.011718l.023437-.09375.003907-.011719.019531-.097656.003906-.015625.019531-.097656.003906-.015626.019532-.085937.003906-.015625c.007812-.03125.015625-.0625.019531-.09375l.007813-.023438c.003906-.03125.011718-.0625.019531-.09375l.003906-.015624c.003907-.027344.011719-.054688.015625-.082032l.007813-.023437.019531-.089844.003906-.023437.019532-.09375.003906-.015626.019531-.089843v-.011719l.019531-.097656.007813-.023438c.003906-.03125.011719-.0625.019531-.09375v-.011718l.019531-.089844.003907-.019532c.007812-.03125.011718-.0625.019531-.09375l.023437-.117187v-.011719l.019532-.089844.003906-.019531.019531-.09375.023437-.117187v-.011719l.019532-.09375.003906-.015625c.003906-.035156.011719-.066406.019531-.097656l.003907-.019532.015624-.097656.003907-.011718.015625-.089844.003906-.019532c.007812-.03125.011719-.0625.019531-.09375l.003907-.023437c.007812-.03125.011718-.0625.015624-.09375l.003907-.015625c.007812-.03125.011719-.0625.015625-.089844l.027344-.136718c.003906-.03125.011718-.066407.015624-.097657l.003907-.011719.015625-.09375.003906-.015624.015625-.097657.003906-.019531c.007813-.03125.011719-.066406.019531-.097656v-.011719c.007813-.03125.011719-.058594.015626-.089844l.003906-.023437c.007812-.03125.011718-.0625.015625-.09375l.003906-.023438c.007813-.035156.011719-.066406.019531-.097656v-.015625c.007813-.03125.011719-.058594.015625-.089844l.003907-.015625c.003906-.035156.011718-.066406.015624-.097656l.003907-.023438c.007812-.035156.011719-.066406.015625-.097656l.003906-.015625.015625-.089843v-.019532c.007813-.03125.011719-.0625.015625-.09375l.003906-.023437.015625-.097657.003907-.015624c.003906-.03125.007812-.058594.011718-.089844l.003906-.019532.015626-.097656.003906-.023437.015625-.097657.003906-.015624c.003906-.027344.007813-.058594.011719-.085938l.003906-.023438.015625-.097656.003906-.019531.015625-.101563v-.011718l.015625-.09375v-.015625l.015625-.097657.003906-.027343c.003907-.03125.007813-.066407.011719-.097657l.003907-.011718.011718-.09375.003906-.019532c.003907-.03125.011719-.0625.015626-.097656v-.023437l.015624-.097657.003907-.015624.011719-.089844v-.023438l.015624-.097656.003907-.019531c.003906-.035157.007812-.070313.011719-.101563v-.011718l.015624-.09375v-.023438l.015626-.097656.003906-.019532.011718-.101562v-.011719l.011719-.101562.003907-.011719.011718-.101562.003906-.023438.011719-.101562v-.007813c.003907-.035156.011719-.066406.015625-.097656v-.019531c.003906-.03125.007813-.066407.011719-.097657l.003906-.027343c.003907-.03125.007813-.066407.011719-.097657l.003906-.011719.007813-.097656.003906-.019531c.003906-.03125.007813-.0625.011719-.097656l.003906-.023438.007812-.101562.003907-.011719c.003906-.03125.007812-.0625.007812-.09375l.003907-.023438c.003906-.03125.007812-.066406.011718-.101562l.003906-.019531c.003907-.035157.007813-.070313.011719-.101563v-.011718l.007813-.097657.003906-.019531.011719-.097656v-.027344l.011719-.101562v-.011719c.003906-.03125.007812-.066407.011718-.09375l.003906-.023438c0-.03125.003907-.066406.007813-.097656l.003906-.027344c0-.03125.003907-.066406.007813-.101562l.003906-.011719.007812-.09375.003907-.019531c0-.035157.003906-.070313.007812-.105469v-.019531c.003907-.035157.007813-.070313.011719-.105469v-.007812c.003906-.035157.007812-.066407.011719-.097657v-.023437c.003906-.035156.007812-.066406.007812-.101563l.003907-.023437.007812-.101563v-.007812c.003906-.035157.007812-.070313.011719-.101563v-.019531c.003906-.035156.007812-.066406.007812-.101563l.003907-.027343.007812-.101563.003906-.015625.007813-.089843v-.023438c.003906-.035156.003906-.066406.007812-.101562l.003907-.023438.007812-.105469v-.011719c.003906-.03125.003906-.0625.007812-.097656v-.019531c.003907-.035156.007813-.070313.007813-.105469l.003906-.019531.007813-.105469v-.007812c.003906-.035156.003906-.070313.007812-.101563v-.023437c.003906-.035156.007813-.066406.007813-.101563l.003906-.019531c0-.039062.003906-.074219.003906-.109375l.003907-.003906c0-.035157.003906-.070313.007812-.105469v-.019531c0-.035157.003906-.070313.007812-.105469v-.019531c.003907-.039063.003907-.074219.007813-.109375.003906-.039063.003906-.074219.007813-.109375v-.019531l.007812-.105469v-.019531l.007812-.109376v-.003906l.003907-.105468.003906-.019532.003906-.105468v-.023438c.003907-.035156.003907-.070312.007813-.105469v-.007812c.003906-.035157.003906-.070313.003906-.101563l.003906-.023437c0-.035157.003906-.070313.003906-.105469v-.019531l.007813-.109375v-.007813c0-.035156.003906-.066406.003906-.105469l.003907-.019531.003906-.105469v-.023437c0-.035156.003906-.070313.003906-.105469v-.007812c.003906-.035156.003906-.070313.007812-.105469v-.023437l.003907-.101563v-.023437c0-.035157.003906-.070313.003906-.109376v-.003906l.003906-.105468.003907-.023438.003906-.105469v-.023437l.003906-.105469v-.011719c0-.03125 0-.066406.003906-.101562v-.023438c0-.035156.003906-.070312.003906-.105468v-.019532c0-.039062.003907-.074218.003907-.109375v-.007812c0-.035157 0-.070313.003906-.105469v-.023438c0-.035156 0-.070312.003906-.101562v-.132812l.003907-.011719v-.101563l.003906-.027344v-.128906l.003906-.105468v-.113282l.003906-.023437c0-.035157 0-.070313 0-.105469v-.023438c.003906-.039062.003906-.074218.003906-.113281 0-.039062 0-.074219 0-.109375v-.023437c0-.035157 0-.070313.003907-.109375v-.265625c0-.035157 0-.074219 0-.109375l.003906-.023438c0-.074218 0-.148437 0-.226562v-.019532c0-.035156 0-.070312 0-.109374v-.757813c-.003906-.03125-.003906-.0625-.003906-.097656v-.011719c0-.023438 0-.054688 0-.078125v-.03125c0-.023437 0-.046875 0-.070313v-.019531l-.003907-.191406v-.117187c0-.066407 0-.128907-.003906-.195313v-.195313l-.003906-.015624c0-.0625 0-.128907 0-.191407v-.015625l-.003906-.089844v-.007812c0-.066406 0-.128906 0-.195312v-.007813l-.003906-.09375v-.007813l-.003907-.199218-.003906-.097656v-.003907c0-.097656-.003906-.199219-.007813-.296875v-.105468c-.003906-.097657-.007812-.195313-.007812-.296876v-.003906c-.136719-5.09375-.644531-10.167968-1.515625-15.1875-.996094-5.539062-5.8125-9.574218-11.441406-9.585937zm0 0" />
  <path
     id="path26"
     fill="#c9e5fc"
     d="m197.835938 442.15625c-6.425782 0-11.636719-5.210938-11.636719-11.636719 0-6.417969 5.195312-11.621093 11.613281-11.632812.683594 0 67.382812-.730469 133.199219-44.589844 63.882812-42.589844 64.632812-106.039063 64.632812-106.675781 0-6.425782 5.207031-11.636719 11.632813-11.636719 6.425781 0 11.636718 5.210937 11.636718 11.636719 0 3.113281-.863281 76.609375-74.996093 126.039062-71.925781 47.949219-143.082031 48.496094-146.082031 48.496094zm0 0" />
  <path
     id="path28"
     fill="#64aef7"
     d="m216.507812 186.308594c-12.855468.0625-23.222656 10.535156-23.160156 23.386718.0625 12.449219 9.910156 22.648438 22.347656 23.140626l.042969.003906c.035157 0 .074219 0 .113281.003906h.023438c.046875.003906.085938.003906.132812.007812h.015626l.148437.003907.023437.003906c.035157 0 .070313 0 .109376.003906.222656.007813.449218.019531.671874.03125.199219.007813.398438.011719.597657.015625.214843.019532.433593.035156.652343.046875 45.3125 2.527344 79.789063 24.078125 96.484376 36.867188 10.226562 7.785156 24.824218 5.808593 32.609374-4.417969 7.773438-10.207031 5.816407-24.777344-4.371093-32.574219-20.792969-15.921875-64.308594-43.109375-122.097657-46.34375-.257812-.015625-.511718-.023437-.765624-.03125-.292969-.023437-.589844-.039062-.886719-.054687l-1.65625-.070313c-.347657-.015625-.691407-.023437-1.035157-.023437zm0 0" />
  <path
     id="path30"
     fill="#0a86e3"
     d="m488.730469 232.714844c0-139.628906-186.171875-232.714844-302.53125-232.714844-93.082031 0-102.488281 6.195312-133.695313 12.914062-8.429687 1.90625-16.398437 5.464844-23.441406 10.472657 31.285156.832031 194.300781 9.144531 320.039062 92.96875 139.628907 93.085937 139.628907 281.242187-116.359374 325.800781 93.085937 0 255.988281-69.8125 255.988281-209.441406zm0 0" />
  <path
     id="path34"
     fill="#0a86e3"
     d="m256.015625 46.542969c0 12.851562-10.417969 23.269531-23.273437 23.269531-12.851563 0-23.269532-10.417969-23.269532-23.269531 0-12.851563 10.417969-23.273438 23.269532-23.273438 12.855468 0 23.273437 10.421875 23.273437 23.273438zm0 0" />
  <path
     id="path36"
     fill="#0a86e3"
     d="m325.828125 93.085938c0 12.851562-10.417969 23.269531-23.269531 23.269531-12.851563 0-23.273438-10.417969-23.273438-23.269531 0-12.851563 10.421875-23.273438 23.273438-23.273438 12.851562 0 23.269531 10.421875 23.269531 23.273438zm0 0" />
  <path
     id="path38"
     fill="#001386"
     d="m139.65625 46.542969c0 12.851562-10.417969 23.269531-23.269531 23.269531-12.851563 0-23.273438-10.417969-23.273438-23.269531 0-12.851563 10.421875-23.273438 23.273438-23.273438 12.851562 0 23.269531 10.421875 23.269531 23.273438zm0 0" />
  <path
     id="path40"
     fill="#46a4f2"
     d="m116.386719 34.90625c0 6.425781-5.210938 11.636719-11.636719 11.636719s-11.632812-5.210938-11.632812-11.636719 5.207031-11.632812 11.632812-11.632812 11.636719 5.207031 11.636719 11.632812zm0 0" />
  <path
     id="path42"
     fill="#64aef7"
     d="m58.207031 116.355469c-6.421875.003906-11.628906-5.199219-11.632812-11.621094 0-.003906 0-.007813 0-.011719v-9.546875c.023437-3.996093-2.042969-7.710937-5.457031-9.792969-39.929688-23.796874-41.085938-47.816406-41.085938-50.476562 0-6.429688 5.214844-11.636719 11.644531-11.632812 6.238281 0 11.367188 4.921874 11.625 11.15625.136719 1 2.636719 14.816406 29.726563 30.953124 10.4375 6.300782 16.816406 17.601563 16.816406 29.792969v9.546875c.003906 6.421875-5.199219 11.632813-11.621094 11.636719-.003906-.003906-.007812-.003906-.015625-.003906zm0 0" />
  <path
     id="path44"
     fill="#006ce2"
     d="m69.84375 104.722656c0 6.425782-5.210938 11.632813-11.636719 11.632813s-11.632812-5.207031-11.632812-11.632813c0-6.425781 5.207031-11.636718 11.632812-11.636718s11.636719 5.210937 11.636719 11.636718zm0 0" />
  <path
     id="path46"
     fill="#c9e5fc"
     d="m21.960938 74.949219c-6.425782-.003907-11.640626 5.203125-11.644532 11.628906-.003906 3.675781 1.730469 7.136719 4.675782 9.332031 2.628906 1.964844 5.410156 3.898438 8.308593 5.785156v3.027344c.007813 15.835938 10.667969 29.691406 25.976563 33.75.625.164063 1.257812.277344 1.898437.335938.609375.195312 1.238281.34375 1.875.4375 1.257813.1875 2.527344.308594 3.800781.355468.152344.007813.304688.011719.457032.011719 6.425781-.007812 11.632812-5.21875 11.628906-11.644531-.003906-6.25-4.945312-11.378906-11.1875-11.621094h-.042969c-.414062-.019531-.828125-.058594-1.238281-.121094-.210938-.03125-.421875-.054687-.628906-.074218-.203125-.066406-.40625-.125-.617188-.179688-3.914062-1.042968-7.007812-4.042968-8.167968-7.925781l-.011719-.035156c-.011719-.046875-.023438-.089844-.039063-.136719v-.003906l-.007812-.03125c-.015625-.046875-.027344-.09375-.039063-.136719v-.003906l-.007812-.03125v-.003907l-.011719-.03125c-.007812-.035156-.015625-.070312-.027344-.105468l-.015625-.070313c-.011719-.046875-.023437-.09375-.03125-.140625l-.003906-.003906-.003906-.027344-.003907-.003906-.007812-.035156c-.003906-.023438-.007812-.046875-.011719-.070313l-.007812-.035156-.003907-.003906-.003906-.03125-.003906-.003907-.027344-.136718v-.007813l-.003906-.027343-.003906-.007813-.003906-.027344v-.007812l-.011719-.066407-.003907-.003906-.003906-.03125v-.007812l-.007812-.027344v-.007812l-.003906-.027344-.003907-.007813-.003906-.027343v-.003907l-.011719-.070312v-.007813l-.007812-.027344v-.007812l-.003906-.027344v-.007812l-.003907-.027344-.003906-.007812-.007813-.066407v-.007812l-.007812-.027344v-.007813l-.003906-.027343v-.007813l-.003906-.027344v-.007812c-.003907-.023438-.007813-.046875-.011719-.070312v-.007813l-.003907-.027344v-.007812l-.003906-.027344v-.007813l-.003906-.027343v-.007813l-.003906-.027344v-.007812l-.003906-.035156-.003907-.003906v-.027344l-.003906-.011719v-.023437l-.003906-.011719v-.023438l-.003907-.011719v-.035156l-.003906-.035156-.003906-.03125v-.011719l-.003906-.023437v-.011719l-.003906-.023437v-.011719l-.003907-.023438v-.011719l-.003906-.035156v-.03125l-.003906-.011718v-.035157l-.003907-.023437v-.039063l-.003906-.007812-.003906-.070313v-.011718l-.003906-.023438v-.046875l-.003906-.023437v-.046876l-.003907-.035156v-.046875l-.003906-.023437v-.082032l-.003906-.03125v-.085937l-.003907-.019531v-9.816406c.023438-3.996094-2.046874-7.714844-5.457031-9.796876l-.109375-.066406-.046875-.027344-.0625-.039062-.058593-.03125-.054688-.035156-.058594-.035156-.050781-.03125c-.019531-.011719-.042969-.023438-.0625-.035157l-.046875-.03125c-.019531-.007812-.042969-.023437-.0625-.035156l-.046875-.027344c-.023437-.015625-.046875-.027343-.066406-.042969l-.039063-.023437c-.023437-.011719-.050781-.027344-.070312-.042969l-.035156-.019531-.078126-.046875-.023437-.015625-.085937-.050781h-.003907c-.132812-.082032-.273437-.167969-.40625-.25l-.007812-.003906c-.03125-.019532-.0625-.039063-.09375-.058594l-.011719-.007813-.09375-.054687-.015625-.007813-.089844-.058593-.011719-.007813c-.03125-.019531-.0625-.035156-.09375-.054687l-.011718-.007813-.09375-.058594-.007813-.003906c-.308593-.1875-.613281-.378906-.917969-.570313-1.148437-.71875-2.265624-1.441406-3.351562-2.160156h-.003906l-.089844-.0625-.003906-.003906-.089844-.058594-.011719-.007812c-.027343-.019532-.058593-.039063-.085937-.058594h-.003906c-.214844-.144531-.429688-.289062-.644532-.433594l-.019531-.015625-.074219-.050781-.023437-.011719-.070313-.050781-.027344-.015625-.066406-.046875-.03125-.019531-.066406-.046875-.03125-.019532-.066406-.046874-.027344-.019532-.066406-.042968-.027344-.019532-.222656-.152344-.035156-.023437-.050782-.035156-.046875-.03125-.046875-.035157-.09375-.0625-.054687-.039062-.039063-.027344-.054687-.039062-.042969-.027344-.054688-.039062-.042968-.027344-.054688-.039063-.042968-.027343-.058594-.042969-.03125-.023438c-.027344-.019531-.050782-.035156-.078125-.050781l-.019531-.015625c-.097657-.066406-.195313-.136719-.292969-.203125l-.003907-.003906-.09375-.066406-.007812-.007813-.085938-.058594-.011718-.007812c-.03125-.023438-.058594-.042969-.085938-.0625l-.015625-.007813-.082031-.058594-.011719-.011718-.085937-.058594-.011719-.007812c-.875-.621094-1.722656-1.238282-2.546875-1.851563-2-1.507813-4.441406-2.316406-6.945312-2.316406zm0 0" />
  <path
     id="path48"
     fill="#64aef7"
     d="m209.472656 232.714844c-12.851562-.003906-23.265625-10.425782-23.261718-23.277344.003906-10.007812 6.40625-18.890625 15.898437-22.0625 2.089844-.726562 53.90625-19.269531 53.90625-71.019531 0-35.335938-16.042969-52.90625-16.726563-53.632813-8.695312-9.300781-8.394531-23.839844.683594-32.769531 9.046875-8.847656 23.523438-8.789063 32.496094.136719 3.089844 3.066406 30.089844 31.65625 30.089844 86.265625 0 85.609375-82.222656 113.996093-85.722656 115.152343-2.375.796876-4.859376 1.203126-7.363282 1.207032zm0 0" />
  <path
     id="path50"
     fill="#64aef7"
     d="m209.472656 232.714844c-12.851562-.003906-23.265625-10.425782-23.261718-23.277344.003906-10.007812 6.40625-18.890625 15.898437-22.0625 2.089844-.726562 53.90625-19.269531 53.90625-71.019531 0-35.335938-16.042969-52.90625-16.726563-53.632813-8.695312-9.300781-8.394531-23.839844.683594-32.769531 9.046875-8.847656 23.523438-8.789063 32.496094.136719 3.089844 3.066406 30.089844 31.65625 30.089844 86.265625 0 85.609375-82.222656 113.996093-85.722656 115.152343-2.375.796876-4.859376 1.203126-7.363282 1.207032zm0 0" />
  <path
     id="path52"
     fill="#006ce2"
     d="m277.195312 116.355469c-11.226562-.011719-20.84375-8.042969-22.863281-19.089844-4.15625-22.703125-14.589843-34.066406-15.042969-34.542969-8.695312-9.300781-8.394531-23.839844.679688-32.769531 9.050781-8.847656 23.527344-8.789063 32.5.136719 2.113281 2.113281 20.839844 21.726562 27.632812 58.8125 2.316407 12.632812-6.042968 24.746094-18.671874 27.0625-.011719.003906-.019532.003906-.03125.007812-1.382813.261719-2.792969.390625-4.203126.382813zm0 0" />
  <path
     id="path54"
     fill="#0a86e3"
     d="m418.914062 162.898438c0 12.855468-10.417968 23.273437-23.269531 23.273437-12.855469 0-23.273437-10.417969-23.273437-23.273437 0-12.851563 10.417968-23.269532 23.273437-23.269532 12.851563 0 23.269531 10.417969 23.269531 23.269532zm0 0" />
  <path
     id="path56"
     fill="#64aef7"
     d="m349.101562 325.800781c0 12.851563-10.417968 23.269531-23.273437 23.269531-12.851563 0-23.269531-10.417968-23.269531-23.269531 0-12.855469 10.417968-23.273437 23.269531-23.273437 12.855469 0 23.273437 10.417968 23.273437 23.273437zm0 0" />
  <path
     id="path58"
     fill="#c9e5fc"
     d="m232.742188 407.25c0 6.425781-5.207032 11.636719-11.632813 11.636719s-11.636719-5.210938-11.636719-11.636719 5.210938-11.636719 11.636719-11.636719 11.632813 5.210938 11.632813 11.636719zm0 0" />
  <path
     id="path60"
     fill="#c9e5fc"
     d="m279.285156 360.707031c0 6.425781-5.207031 11.636719-11.632812 11.636719-6.429688 0-11.636719-5.210938-11.636719-11.636719s5.207031-11.636719 11.636719-11.636719c6.425781 0 11.632812 5.210938 11.632812 11.636719zm0 0" />
  <path
     id="path62"
     fill="#e1ebfc"
     d="m372.371094 186.171875c0 12.851563-10.417969 23.269531-23.269532 23.269531-12.851562 0-23.273437-10.417968-23.273437-23.269531s10.421875-23.273437 23.273437-23.273437c12.851563 0 23.269532 10.421874 23.269532 23.273437zm0 0" />
  <path
     id="path64"
     fill="#64aef7"
     d="m162.929688 104.722656c0 6.425782-5.210938 11.632813-11.636719 11.632813s-11.636719-5.207031-11.636719-11.632813c0-6.425781 5.210938-11.636718 11.636719-11.636718s11.636719 5.210937 11.636719 11.636718zm0 0" />
  <path
     id="path66"
     fill="#006ce2"
     d="m465.457031 267.621094c0 6.425781-5.210937 11.636718-11.636719 11.636718-6.425781 0-11.632812-5.210937-11.632812-11.636718 0-6.425782 5.207031-11.636719 11.632812-11.636719 6.425782 0 11.636719 5.210937 11.636719 11.636719zm0 0" />
  <path
     id="path68"
     fill="#006ce2"
     d="m418.914062 360.707031c0 6.425781-5.207031 11.636719-11.636718 11.636719-6.425782 0-11.632813-5.210938-11.632813-11.636719s5.207031-11.636719 11.632813-11.636719c6.429687 0 11.636718 5.210938 11.636718 11.636719zm0 0" />
  <path
     id="path70"
     fill="#006ce2"
     d="m465.457031 314.164062c0 6.425782-5.210937 11.636719-11.636719 11.636719-6.425781 0-11.632812-5.210937-11.632812-11.636719 0-6.425781 5.207031-11.636718 11.632812-11.636718 6.425782 0 11.636719 5.210937 11.636719 11.636718zm0 0" />
  <path
     id="path72"
     fill="#64aef7"
     d="m349.101562 383.976562c0 6.425782-5.210937 11.636719-11.636718 11.636719-6.425782 0-11.636719-5.210937-11.636719-11.636719 0-6.425781 5.210937-11.632812 11.636719-11.632812 6.425781 0 11.636718 5.207031 11.636718 11.632812zm0 0" />
  <path
     id="path74"
     fill="#64aef7"
     d="m139.65625 407.25c0 6.425781-5.207031 11.636719-11.632812 11.636719-6.425782 0-11.636719-5.210938-11.636719-11.636719s5.210937-11.636719 11.636719-11.636719c6.425781 0 11.632812 5.210938 11.632812 11.636719zm0 0" />
  <path
     id="path76"
     fill="#006ce2"
     d="m418.914062 151.265625c0 6.425781-5.207031 11.632813-11.636718 11.632813-6.425782 0-11.632813-5.207032-11.632813-11.632813s5.207031-11.636719 11.632813-11.636719c6.429687 0 11.636718 5.210938 11.636718 11.636719zm0 0" />
  <path
     id="path78"
     fill="#0a86e3"
     d="m116.386719 372.429688c0-29.289063-28.9375-64.945313-49.433594-82.636719-12.386719-10.617188-29.941406-12.75-44.507813-5.402344-15.347656 7.824219-24.1875 24.386719-22.15625 41.496094 5.207032 46.933593 46.285157 69.8125 46.285157 69.8125-13.40625 13.40625-43.894531 48.949219-46.304688 71.003906-2.265625 22.632813 14.246094 42.816406 36.878907 45.082031 12.441406 1.242188 24.773437-3.230468 33.523437-12.160156 29.496094-29.957031 45.714844-80.652344 45.714844-80.652344-23.269531 0-23.269531-23.273437-23.269531-23.273437s0-23.269531 23.269531-23.269531zm0 0" />
  <path
     id="path82"
     fill="#006ce2"
     d="m395.644531 93.085938c0 12.851562-10.421875 23.269531-23.273437 23.269531-12.851563 0-23.269532-10.417969-23.269532-23.269531 0-12.851563 10.417969-23.273438 23.269532-23.273438 12.851562 0 23.273437 10.421875 23.273437 23.273438zm0 0" />
  <path
     id="path84"
     fill="#e1ebfc"
     d="m151.292969 186.171875c-2.089844 0-51.65625-.296875-78.039063-26.679687-4.542968-4.542969-4.542968-11.910157 0-16.453126 4.542969-4.542968 11.910156-4.542968 16.453125 0 19.519531 19.519532 61.175781 19.859376 61.609375 19.859376 6.425782.015624 11.621094 5.238281 11.605469 11.664062-.011719 6.414062-5.214844 11.605469-11.628906 11.609375zm0 0" />
</svg>
