<?xml version="1.0" encoding="UTF-8" standalone="no"?>
<svg
   xmlns:dc="http://purl.org/dc/elements/1.1/"
   xmlns:cc="http://creativecommons.org/ns#"
   xmlns:rdf="http://www.w3.org/1999/02/22-rdf-syntax-ns#"
   xmlns:svg="http://www.w3.org/2000/svg"
   xmlns="http://www.w3.org/2000/svg"
   xmlns:sodipodi="http://sodipodi.sourceforge.net/DTD/sodipodi-0.dtd"
   xmlns:inkscape="http://www.inkscape.org/namespaces/inkscape"
   height="512pt"
   viewBox="0 -18 512 512"
   width="512pt"
   version="1.1"
   id="svg68"
   sodipodi:docname="002-pomegranate.svg"
   inkscape:version="1.0 (4035a4f, 2020-05-01)">
  <metadata
     id="metadata74">
    <rdf:RDF>
      <cc:Work
         rdf:about="">
        <dc:format>image/svg+xml</dc:format>
        <dc:type
           rdf:resource="http://purl.org/dc/dcmitype/StillImage" />
        <dc:title />
      </cc:Work>
    </rdf:RDF>
  </metadata>
  <defs
     id="defs72" />
  <sodipodi:namedview
     inkscape:document-rotation="0"
     pagecolor="#ffffff"
     bordercolor="#666666"
     borderopacity="1"
     objecttolerance="10"
     gridtolerance="10"
     guidetolerance="10"
     inkscape:pageopacity="0"
     inkscape:pageshadow="2"
     inkscape:window-width="1366"
     inkscape:window-height="768"
     id="namedview70"
     showgrid="false"
     inkscape:zoom="0.48208596"
     inkscape:cx="735.38307"
     inkscape:cy="336.11257"
     inkscape:window-x="0"
     inkscape:window-y="0"
     inkscape:window-maximized="0"
     inkscape:current-layer="svg68" />
  <path
     style="fill:#ff6e31;fill-opacity:1;stroke:#ff6e31;stroke-width:0.862319px;stroke-linecap:butt;stroke-linejoin:miter;stroke-opacity:1"
     d="M 284.80342,84.674786 C 272.52814,53.857872 292.31388,3.4682093 292.31388,3.4682093 L 319.06986,35.85696 336.90712,1.5906009 353.80556,34.918152 381.0309,4.8764155 c 0,0 18.18433,41.7753015 7.97982,79.3289705 55.25195,14.17486 171.53912,139.979574 45.13602,259.553954 -78.15016,2.2816 -128.03985,2.03667 -196.94493,1.65038 -77.49802,-59.87609 -77.87654,-210.16933 47.60161,-260.734934 z"
     id="path118"
     sodipodi:nodetypes="cccccccccc" />
  <path
     style="fill:#ffc2aa;fill-opacity:1;stroke:#ffc2aa;stroke-width:0.862319px;stroke-linecap:butt;stroke-linejoin:miter;stroke-opacity:1"
     d="m 333.74123,109.77455 c -57.32073,1.11099 -120.86445,54.0093 -117.98539,122.43767 2.28873,54.39786 58.70767,119.16317 117.42889,113.53309 58.94738,4.76578 120.24968,-37.37499 122.43756,-115.75924 1.71257,-61.35642 -47.69822,-121.64934 -121.88106,-120.21152 z"
     id="path137"
     sodipodi:nodetypes="sscss" />
  <path
     style="fill:#d6001b;fill-opacity:1;stroke:#d6001b;stroke-width:0.862319px;stroke-linecap:butt;stroke-linejoin:miter;stroke-opacity:1"
     d="m 152.64634,434.68016 c -7.62026,10.785 -6.62789,30.61423 5.50212,39.23248 11.5932,8.23685 31.17121,4.95734 39.23254,-5.50211 7.8432,-10.17643 5.52546,-30.29714 -4.54529,-38.27559 -10.56745,-8.37194 -31.67623,-7.50345 -40.18937,4.54522 z"
     id="path165"
     sodipodi:nodetypes="ssaas" />
  <path
     style="fill:#d6001b;fill-opacity:1;stroke:#d6001b;stroke-width:0.862319px;stroke-linecap:butt;stroke-linejoin:miter;stroke-opacity:1"
     d="m 253.83742,419.13071 c -7.07386,11.16081 -7.3841,27.29214 1.19613,35.40492 10.43204,9.86371 32.1699,10.88677 43.06003,-0.9569 8.4739,-9.21588 8.3845,-28.48207 -0.23921,-37.55791 -12.69796,-13.36374 -33.24887,-13.87946 -44.01695,3.10989 z"
     id="path173"
     sodipodi:nodetypes="sasss" />
  <path
     style="fill:#fe3b00;fill-opacity:1;stroke:#fe3b00;stroke-width:0.862319px;stroke-linecap:butt;stroke-linejoin:miter;stroke-opacity:1"
     d="m 319.06986,35.85696 c -3.89254,14.43739 -6.3319,28.148191 -6.2282,42.767227 -16.30989,14.479915 -27.53366,28.778193 -39.66568,49.434103 -19.43369,17.52209 -57.26427,40.00975 -58.3011,105.38296 2.12692,36.36717 34.74048,98.17372 94.51906,111.27774 l -72.19213,0.69073 C 205.82528,324.41945 182.26953,269.79556 182.6981,230.75986 185.41035,163.21072 224.16184,108.41905 284.80342,84.674786 276.77138,59.240749 282.72616,30.355422 292.31388,3.4682093 Z"
     id="path175"
     sodipodi:nodetypes="cccccccccc" />
  <path
     style="fill:#d6001b;fill-opacity:1;stroke:#d6001b;stroke-width:0.862319px;stroke-linecap:butt;stroke-linejoin:miter;stroke-opacity:1"
     d="M 262.23928,94.850817 C 235.24304,77.822126 211.37035,74.675877 179.1682,72.91786 175.08746,48.188875 165.45375,25.195195 142.97879,0.81327392 L 129.81901,40.292588 100.48371,15.618017 96.64544,53.452364 60.18191,33.986865 c 2.726299,34.027782 6.146709,53.131954 22.755438,78.136155 0,0 -66.382351,59.92495 -49.364158,145.45519 10.175352,51.13938 55.855404,87.44432 55.855404,87.44432 l 147.773216,0.38719 C 208.4287,324.83434 182.58883,272.71058 182.4799,235.47335 184.62965,180.4775 207.92678,126.54613 262.23928,94.850817 Z"
     id="path177"
     sodipodi:nodetypes="ccccccccscccc" />
  <path
     style="fill:#bf0016;fill-opacity:1;stroke:#bf0016;stroke-width:0.862319px;stroke-linecap:butt;stroke-linejoin:miter;stroke-opacity:1"
     d="m 146.08081,108.16491 c -0.33226,4.65183 5.82627,8.68138 10.44805,9.30529 5.47464,0.73905 14.24885,-1.8554 14.85577,-7.34627 0.59943,-5.42306 -7.28352,-10.02733 -12.73352,-10.284811 -5.02024,-0.237173 -12.21222,3.312731 -12.5703,8.325791 z"
     id="path179"
     sodipodi:nodetypes="aaaaa" />
  <path
     style="fill:#bf0016;fill-opacity:1;stroke:#bf0016;stroke-width:0.862319px;stroke-linecap:butt;stroke-linejoin:miter;stroke-opacity:1"
     d="m 201.25954,90.044084 c -6.19639,-0.709344 -15.85605,2.92284 -16.3251,9.142041 -0.46661,6.186935 8.49628,11.109895 14.69265,11.427555 5.63965,0.28912 13.85895,-3.35456 14.36607,-8.9788 0.51545,-5.716454 -7.03121,-10.937996 -12.73362,-11.590796 z"
     id="path181"
     sodipodi:nodetypes="aaaaa" />
  <path
     style="fill:#bf0016;fill-opacity:1;stroke:#bf0016;stroke-width:0.862319px;stroke-linecap:butt;stroke-linejoin:miter;stroke-opacity:1"
     d="m 186.89346,123.02074 c -3.75569,-0.20106 -9.22506,2.13802 -9.63177,5.87703 -0.39954,3.67308 4.32684,7.26774 7.99931,7.67278 4.17432,0.4604 10.54373,-2.33676 10.77452,-6.53003 0.21114,-3.83628 -5.30547,-6.81439 -9.14206,-7.01978 z"
     id="path183"
     sodipodi:nodetypes="aaaaa" />
  <path
     style="fill:#bf0016;fill-opacity:1;stroke:#bf0016;stroke-width:0.862319px;stroke-linecap:butt;stroke-linejoin:miter;stroke-opacity:1"
     d="m 129.21591,250.7875 c -5.03001,0.12245 -12.62917,3.2866 -12.59583,8.31799 0.0331,4.98817 7.60812,8.15599 12.59584,8.08034 5.18506,-0.0787 13.00393,-3.61044 12.83346,-8.79331 -0.16346,-4.96983 -7.86242,-7.72604 -12.83347,-7.60502 z"
     id="path185"
     sodipodi:nodetypes="aaaaa" />
  <path
     style="fill:#bf0016;fill-opacity:1;stroke:#bf0016;stroke-width:0.862319px;stroke-linecap:butt;stroke-linejoin:miter;stroke-opacity:1"
     d="m 159.16065,273.84023 c -4.38019,-0.35226 -11.52969,1.78626 -11.6452,6.17908 -0.10934,4.15587 6.54327,6.63985 10.69458,6.41673 3.67051,-0.19728 8.79237,-2.97859 8.79333,-6.6544 8.5e-4,-3.27971 -4.57355,-5.67851 -7.84271,-5.94141 z"
     id="path187"
     sodipodi:nodetypes="aaaaa" />
  <path
     style="fill:#bf0016;fill-opacity:1;stroke:#bf0016;stroke-width:0.862319px;stroke-linecap:butt;stroke-linejoin:miter;stroke-opacity:1"
     d="M 47.289492,160.70126 C 68.28413,249.26479 116.06501,312.12802 191.71806,344.9472 L 89.428594,345.0225 C 36.650764,301.31893 11.383136,233.72492 47.289492,160.70126 Z"
     id="path189"
     sodipodi:nodetypes="cccc" />
  <path
     style="fill:#6548b4;fill-opacity:1;stroke:#6548b4;stroke-width:0.862319px;stroke-linecap:butt;stroke-linejoin:miter;stroke-opacity:1"
     d="m 14.296639,346.55758 c 165.426891,-2.19777 340.894181,-1.77686 483.107231,-1.50034 15.41185,-0.17885 15.06047,18.58126 0,18.50411 -158.32452,1.95532 -344.63757,1.87887 -482.60712,1.00022 -14.28313308,-0.0382 -14.93615024,-17.92423 -0.500111,-18.00399 z"
     id="path191"
     sodipodi:nodetypes="ccccc" />
  <path
     style="fill:#573c9e;fill-opacity:1;stroke:#573c9e;stroke-width:0.862319px;stroke-linecap:butt;stroke-linejoin:miter;stroke-opacity:1"
     d="m 65.522464,364.69659 c 6.451039,18.70515 17.74352,33.46541 41.946546,36.74962 H 414.0871 c 22.81158,-2.99375 36.47809,-19.25666 40.46177,-37.49203 z"
     id="path1016"
     sodipodi:nodetypes="ccccc" />
  <path
     style="fill:#6f56b9;fill-opacity:1;stroke:#6f56b9;stroke-width:0.862319px;stroke-linecap:butt;stroke-linejoin:miter;stroke-opacity:1"
     d="m 144.07358,345.7236 c -12.52812,-0.54937 -13.19751,19.06111 -0.22937,18.80821 l 357.65384,-0.86011 c 10.30898,0.0393 11.0761,-18.55084 -0.47599,-18.51254 z"
     id="path1018"
     sodipodi:nodetypes="ccccc" />
  <path
     style="fill:#fe3b00;fill-opacity:1;stroke:#fe3b00;stroke-width:0.862319px;stroke-linecap:butt;stroke-linejoin:miter;stroke-opacity:1"
     d="m 327.09526,128.14978 c -50.36217,0.22227 -93.05362,54.91795 -92.93612,100.56087 0.11746,45.63543 44.38291,100.5513 93.43725,100.06467 0.82294,-53.12626 1.47969,-133.33651 -0.50113,-200.62554 z"
     id="path120"
     sodipodi:nodetypes="cacc" />
  <path
     sodipodi:nodetypes="cacc"
     id="path120-9"
     d="m 346.40828,128.5662 c 50.36218,0.22227 93.05356,54.91795 92.93617,100.56088 -0.1175,45.63544 -44.38291,100.5513 -93.4373,100.06468 -0.82294,-53.12628 -1.47969,-133.33653 0.50113,-200.62556 z"
     style="fill:#fe3b00;fill-opacity:1;stroke:#fe3b00;stroke-width:0.862319px;stroke-linecap:butt;stroke-linejoin:miter;stroke-opacity:1" />
  <path
     style="fill:#d6001b;fill-opacity:1;stroke:#d6001b;stroke-width:0.862319px;stroke-linecap:butt;stroke-linejoin:miter;stroke-opacity:1"
     d="m 254.11319,186.06732 c -11.637,-1.79738 -23.35486,6.60902 -24.38347,18.78428 -0.7029,8.31994 7.43832,18.39695 15.7138,19.50678 9.57282,1.28381 21.85848,-6.19241 23.48036,-16.97812 1.28646,-8.55507 -5.93836,-19.94259 -14.81069,-21.31294 z"
     id="path141"
     sodipodi:nodetypes="ssass" />
  <path
     style="fill:#d6001b;fill-opacity:1;stroke:#d6001b;stroke-width:0.862319px;stroke-linecap:butt;stroke-linejoin:miter;stroke-opacity:1"
     d="m 325.73982,252.74584 c -11.39904,-9.02838 -31.91173,-6.13416 -40.28172,6.14161 -6.6763,9.79171 -5.72538,27.66719 3.25146,35.40456 10.50664,9.05595 32.60294,8.25451 41.54613,-2.34827 9.41845,-11.16622 6.7798,-30.25138 -4.51587,-39.1979 z"
     id="path145"
     sodipodi:nodetypes="ssass" />
  <path
     style="fill:#d6001b;fill-opacity:1;stroke:#d6001b;stroke-width:0.862319px;stroke-linecap:butt;stroke-linejoin:miter;stroke-opacity:1"
     d="m 347.77734,210.83841 c -10.93066,11.71475 -8.92024,32.90964 1.62573,42.2687 10.61772,9.42276 33.56222,7.63788 42.44928,-3.43207 9.0946,-11.32821 7.98555,-33.24542 -5.96092,-43.17189 -10.41729,-7.4146 -29.39087,-5.01371 -38.11409,4.33526 z"
     id="path149"
     sodipodi:nodetypes="saass" />
  <path
     style="fill:#d6001b;fill-opacity:1;stroke:#d6001b;stroke-width:0.862319px;stroke-linecap:butt;stroke-linejoin:miter;stroke-opacity:1"
     d="m 394.02,280.38307 c 13.6204,9.18299 31.58241,3.54731 39.55921,-7.22541 9.11426,-12.30881 5.17633,-31.34676 -5.47079,-39.0586 -11.08414,-8.02839 -32.3386,-5.51512 -40.41061,7.26674 -7.33224,11.61051 -6.00898,30.70348 6.32219,39.01727 z"
     id="path153"
     sodipodi:nodetypes="ssass" />
  <path
     style="fill:#d6001b;fill-opacity:1;stroke:#d6001b;stroke-width:0.862319px;stroke-linecap:butt;stroke-linejoin:miter;stroke-opacity:1"
     d="m 303.28198,153.59526 c -7.75246,8.85259 -4.98489,22.09019 2.23143,28.11636 7.14379,5.9656 21.80163,4.34244 27.78162,-2.78932 5.72728,-6.83038 4.67007,-20.76202 -2.00826,-26.66591 -7.00181,-6.18989 -21.84778,-5.69188 -28.00479,1.33887 z"
     id="path157"
     sodipodi:nodetypes="saaas" />
  <path
     style="fill:#d6001b;fill-opacity:1;stroke:#d6001b;stroke-width:0.862319px;stroke-linecap:butt;stroke-linejoin:miter;stroke-opacity:1"
     d="m 382.98495,148.81829 c -6.67286,6.36908 -7.57899,21.0287 -1.15575,27.64942 6.75957,6.96735 22.34628,6.61827 29.12055,-0.33474 6.32368,-6.49049 6.04348,-20.80608 -0.39529,-27.18242 -6.52982,-6.46655 -20.92171,-6.47747 -27.56951,-0.13226 z"
     id="path161"
     sodipodi:nodetypes="aaaaa" />
  <path
     style="fill:#fe3b00;fill-opacity:1;stroke:#fe3b00;stroke-width:0.862319px;stroke-linecap:butt;stroke-linejoin:miter;stroke-opacity:1"
     d="m 395.1064,151.47536 c -2.68606,2.98926 -0.56223,9.04992 2.3431,11.82673 2.69205,2.57302 8.43579,4.32996 11.04563,1.67359 2.96098,-3.01373 0.98351,-9.62927 -2.11981,-12.49616 -2.77,-2.55901 -8.74818,-3.80919 -11.26892,-1.00416 z"
     id="path159"
     sodipodi:nodetypes="aaaaa" />
  <path
     style="fill:#ea1e0e;fill-opacity:1;stroke:#fe3b00;stroke-width:0.862319px;stroke-linecap:butt;stroke-linejoin:miter;stroke-opacity:1"
     d="m 373.176,214.37622 c -2.89958,3.42233 -0.36895,10.44026 3.14184,13.08457 3.27083,2.46362 9.87873,3.41821 12.28414,0.10427 2.55902,-3.5257 -0.71112,-9.724 -4.15558,-12.39139 -2.97775,-2.30593 -8.83578,-3.67095 -11.2704,-0.79744 z"
     id="path147"
     sodipodi:nodetypes="asaaaa" />
  <path
     style="fill:#ea1e0e;fill-opacity:1;stroke:#ea1e0e;stroke-width:0.862319px;stroke-linecap:butt;stroke-linejoin:miter;stroke-opacity:1"
     d="m 406.1226,238.65627 c -3.79064,4.10226 -0.94545,12.75235 3.2514,16.43783 3.44607,3.02602 10.6984,4.34563 13.72837,0.90319 3.52654,-4.00656 0.84519,-12.08842 -3.07078,-15.7153 -3.42467,-3.17186 -10.74105,-5.05407 -13.90899,-1.62572 z"
     id="path151"
     sodipodi:nodetypes="aaaaa" />
  <path
     style="fill:#fe3b00;fill-opacity:1;stroke:#fe3b00;stroke-width:0.862319px;stroke-linecap:butt;stroke-linejoin:miter;stroke-opacity:1"
     d="m 316.22437,156.04985 c -3.12323,2.89047 -1.5516,9.73837 1.52857,12.67468 2.76102,2.63208 8.76743,3.57286 11.41391,0.82564 2.5958,-2.69459 1.29969,-8.39802 -1.22726,-11.15728 -2.68963,-2.93691 -8.79242,-5.048 -11.71522,-2.34304 z"
     id="path155"
     sodipodi:nodetypes="aaaaa" />
  <path
     style="fill:#fe3b00;fill-opacity:1;stroke:#fe3b00;stroke-width:0.862319px;stroke-linecap:butt;stroke-linejoin:miter;stroke-opacity:1"
     d="m 250.86207,193.47265 c -2.91284,3.19447 -0.39571,9.83364 2.8899,12.64329 2.6602,2.27485 8.18016,3.36474 10.47581,0.72246 2.66409,-3.06635 0.4513,-9.16042 -2.52866,-11.92079 -2.67355,-2.47654 -8.38156,-4.13785 -10.83705,-1.44496 z"
     id="path139"
     sodipodi:nodetypes="aaaaa" />
  <path
     style="fill:#ea1e0e;fill-opacity:1;stroke:#ea1e0e;stroke-width:0.862319px;stroke-linecap:butt;stroke-linejoin:miter;stroke-opacity:1"
     d="m 304.60548,275.86718 c -3.64796,-3.8316 -11.81258,-7.01104 -15.5347,-3.25144 -3.94699,3.98673 -0.55291,12.6802 3.61278,16.43784 3.55491,3.20668 10.95984,5.0843 14.27018,1.62572 3.4566,-3.6114 1.09876,-11.19157 -2.34826,-14.81212 z"
     id="path143"
     sodipodi:nodetypes="aaaaa" />
  <path
     style="fill:#d6001b;fill-opacity:1;stroke:#d6001b;stroke-width:0.862319px;stroke-linecap:butt;stroke-linejoin:miter;stroke-opacity:1"
     d="m 214.12656,388.0318 c -9.32842,9.83877 -10.7575,31.55609 -0.7177,40.66781 12.851,11.66303 30.91374,11.78755 42.34239,-1.43534 9.18094,-10.6223 11.41549,-31.30874 -1.19612,-42.10314 -10.79125,-9.23637 -31.13314,-6.93332 -40.42857,2.87067 z"
     id="path169"
     sodipodi:nodetypes="asssa" />
  <path
     style="fill:#ff6e31;fill-opacity:1;stroke:#ff6e31;stroke-width:0.86231899999999984px;stroke-linecap:butt;stroke-linejoin:miter;stroke-opacity:1"
     d="m 239.96252,391.62013 c -2.92848,2.87651 -1.18598,9.25632 1.67463,12.20034 2.7041,2.78297 8.77312,4.69148 11.48265,1.91379 2.94844,-3.02262 0.64629,-9.50753 -2.39225,-12.43957 -2.61324,-2.52166 -8.17427,-4.21933 -10.76503,-1.67456 z"
     id="path167"
     sodipodi:nodetypes="aaaaa" />
  <path
     style="fill:#ff6e31;fill-opacity:1;stroke:#ff6e31;stroke-width:0.86231899999999984px;stroke-linecap:butt;stroke-linejoin:miter;stroke-opacity:1"
     d="m 271.77912,415.7816 c -3.74059,3.67545 -1.31591,11.84129 2.39225,15.54945 3.70815,3.70816 11.87397,6.1328 15.54943,2.39223 3.62927,-3.69359 1.03012,-11.64867 -2.63146,-15.31024 -3.66157,-3.66157 -11.61665,-6.26072 -15.31022,-2.63144 z"
     id="path171"
     sodipodi:nodetypes="aaaaa" />
  <path
     style="fill:#ff6e31;fill-opacity:1;stroke:#ff6e31;stroke-width:0.86231899999999984px;stroke-linecap:butt;stroke-linejoin:miter;stroke-opacity:1"
     d="m 167.95657,437.79006 c -3.90004,4.52904 -0.27737,13.35826 4.06679,17.46323 4.05916,3.83565 12.49113,6.75227 16.50636,2.87067 4.57286,-4.42067 1.99561,-14.53467 -2.63145,-18.89857 -4.36471,-4.11647 -14.02675,-5.98168 -17.9417,-1.43533 z"
     id="path163"
     sodipodi:nodetypes="aaaaa" />
  <path
     sodipodi:nodetypes="aaaaa"
     id="path75"
     d="m 268.74935,171.54014 c -3.92537,3.44945 -1.83674,11.6581 1.59945,15.59508 2.97616,3.4099 9.74841,6.13155 13.19588,3.19899 3.97128,-3.37814 2.19188,-11.63522 -1.19963,-15.59508 -3.02849,-3.53601 -10.09848,-6.2722 -13.5957,-3.19899 z"
     style="fill:#ff6e31;stroke:#ff6e31;stroke-width:0.75000000000000000px;stroke-linecap:butt;stroke-linejoin:miter;stroke-opacity:1;fill-opacity:1" />
  <path
     style="fill:#ff6e31;stroke:#ff6e31;stroke-width:0.47930099999999998px;stroke-linecap:butt;stroke-linejoin:miter;stroke-opacity:1;fill-opacity:1"
     d="m 279.67013,232.24921 c -2.50858,2.20443 -1.1738,7.45032 1.02216,9.96632 1.90197,2.17916 6.2299,3.91848 8.43307,2.04437 2.53791,-2.15886 1.40076,-7.4357 -0.76665,-9.96632 -1.93541,-2.25975 -6.45362,-4.00836 -8.68858,-2.04437 z"
     id="path75-8"
     sodipodi:nodetypes="aaaaa" />
  <path
     sodipodi:nodetypes="aaaaa"
     id="path75-8-0"
     d="m 252.77935,254.66681 c -4.39764,3.86445 -2.05772,13.06069 1.79189,17.47133 3.33422,3.82015 10.92125,6.86925 14.78349,3.58386 4.44905,-3.78456 2.45558,-13.03506 -1.34397,-17.47133 -3.39285,-3.96143 -11.31344,-7.02681 -15.23141,-3.58386 z"
     style="fill:#ff6e31;stroke:#ff6e31;stroke-width:0.84023300000000001px;stroke-linecap:butt;stroke-linejoin:miter;stroke-opacity:1;fill-opacity:1" />
  <path
     style="fill:#ff6e31;fill-opacity:1;stroke:#ff6e31;stroke-width:0.840232px;stroke-linecap:butt;stroke-linejoin:miter;stroke-opacity:1"
     d="m 404.38831,200.82457 c -4.39764,3.86445 -2.05772,13.06069 1.79189,17.47133 3.33422,3.82015 10.92125,6.86925 14.78349,3.58386 4.44905,-3.78456 2.45558,-13.03506 -1.34397,-17.47133 -3.39285,-3.96143 -11.31344,-7.02681 -15.23141,-3.58386 z"
     id="path75-8-0-1"
     sodipodi:nodetypes="aaaaa" />
  <path
     sodipodi:nodetypes="aaaaa"
     id="path75-8-0-1-9"
     d="m 364.48021,280.16036 c -3.04974,2.67997 -1.42702,9.0575 1.24266,12.11625 2.31226,2.64925 7.57381,4.76378 10.25225,2.48538 3.08539,-2.62456 1.70293,-9.03972 -0.93203,-12.11624 -2.35292,-2.74723 -7.8458,-4.87305 -10.56288,-2.48539 z"
     style="fill:#ff6e31;stroke:#ff6e31;stroke-width:0.58269499999999996px;stroke-linecap:butt;stroke-linejoin:miter;stroke-opacity:1;fill-opacity:1" />
</svg>
