<svg width="512" height="512" xmlns="http://www.w3.org/2000/svg">
 <!-- Created with Method Draw - http://github.com/duopixel/Method-Draw/ -->

 <g>
  <title>background</title>
  <rect fill="none" id="canvas_background" height="514" width="514" y="-1" x="-1"/>
  <g display="none" overflow="visible" y="0" x="0" height="100%" width="100%" id="canvasGrid">
   <rect fill="url(#gridpattern)" stroke-width="0" y="0" x="0" height="100%" width="100%"/>
  </g>
 </g>
 <g>
  <title>Layer 1</title>
  <!-- Created with Method Draw - http://github.com/duopixel/Method-Draw/ -->
  <g stroke="null" id="svg_79">
   <g stroke="null" transform="matrix(1.2006055841433885,0,0,1.2006055841433885,-158.3971767233646,-105.05180519455223) " id="svg_76">
    <title stroke="null" transform="translate(-0.876749575138092,-1.4210854715202004e-14) translate(0.876749575138092,-1.4210854715202004e-14) translate(0.876749575138092,-1.4210854715202004e-14) translate(0.876749575138092,-1.4210854715202004e-14) translate(0.876749575138092,-1.4210854715202004e-14) translate(-2.842170943040401e-14,-0.876749575138092) translate(-2.842170943040401e-14,-0.876749575138092) translate(-2.842170943040401e-14,-0.876749575138092) translate(-2.842170943040401e-14,-0.876749575138092) translate(0,-0.8222450613975525) translate(8.222631454467773,-12.33394718170166) translate(11.724380493164062,-21.49469757080078) translate(-13.177478790283203,-24.472461700439453) translate(-41.879615783691406,-79.23170471191406) translate(-1889.9998779296875,-1871.9998779296875) translate(2047.9998779296875,0) translate(0,2047.9998779296875) ">background</title>
    <rect stroke="null" x="124.520166" y="33.137945" width="514" height="514" id="svg_74" fill="none"/>
    <g stroke="null" id="svg_73" display="none">
     <rect stroke="null" id="svg_77" width="512" height="512" x="125.520166" y="34.137945" stroke-width="0" fill="url(#gridpattern)"/>
    </g>
   </g>
   <g stroke="null" transform="matrix(1.2006055841433885,0,0,1.2006055841433885,-158.3971767233646,-105.05180519455223) " id="svg_78">
    <title stroke="null" transform="translate(-0.876749575138092,-1.4210854715202004e-14) translate(0.876749575138092,-1.4210854715202004e-14) translate(0.876749575138092,-1.4210854715202004e-14) translate(0.876749575138092,-1.4210854715202004e-14) translate(0.876749575138092,-1.4210854715202004e-14) translate(-2.842170943040401e-14,-0.876749575138092) translate(-2.842170943040401e-14,-0.876749575138092) translate(-2.842170943040401e-14,-0.876749575138092) translate(-2.842170943040401e-14,-0.876749575138092) translate(0,-0.8222450613975525) translate(8.222631454467773,-12.33394718170166) translate(11.724380493164062,-21.49469757080078) translate(-13.177478790283203,-24.472461700439453) translate(-41.879615783691406,-79.23170471191406) translate(-1889.9998779296875,-1871.9998779296875) translate(2047.9998779296875,0) translate(0,2047.9998779296875) ">Layer 1</title>
    <g stroke="null" id="svg_66" transform="rotate(-3.877420425415039 372.4169616699216,167.38363647460963) ">
     <path stroke="null" d="m365.236676,93.368245c4.1152,-3.56639 10.24501,-3.56639 14.36021,0c12.30366,10.6629 36.10513,38.67813 36.10513,95.84336c0,34.27894 -19.37951,54.86182 -43.28523,54.86182s-43.28523,-20.58288 -43.28523,-54.86182c0.0003,-57.16523 23.80177,-85.18046 36.10512,-95.84336z" fill="#cc624e" id="svg_72"/>
     <path stroke="null" d="m379.596886,93.368235c-2.80937,-2.4349 -6.5579,-3.206 -9.96311,-2.31627c1.58263,0.4134 3.09126,1.1848 4.39709,2.31627c12.30366,10.66291 36.10513,38.67814 36.10513,95.84337c0,32.93806 -17.89364,53.22677 -40.50192,54.76416c0.92058,0.06261 1.84805,0.09796 2.78301,0.09796c23.90572,0 43.28523,-20.58288 43.28523,-54.86182c-0.0003,-57.16553 -23.80177,-85.18075 -36.10543,-95.84366l0,-0.00001z" fill="#bc574a" id="svg_71"/>
     <g stroke="null" fill="#994e37" id="svg_67" transform="matrix(0.2995704140127391,0,0,0.2995704140127391,-420.68147235610877,-73.16376483015698) ">
      <path stroke="null" d="m2683.647766,567.239649c-4.339,-4.289 -8.447,-8.061 -12.228,-11.337c-4.178,-3.621 -8.979,-6.133 -14.022,-7.552c10.591,19.477 24.395,51.154 36.138,98.83c15.865,64.414 23.909,141.343 23.909,228.65c0,105.965 -26.591,168.014 -56.383,182.454c10.856,-1.091 21.361,-3.491 31.385,-7.137c6.329,-8.244 12.081,-18.354 17.103,-30.227c15.294,-36.161 23.379,-86.332 23.379,-145.089c0,-88.553 -8.195,-166.728 -24.359,-232.353c-7.86,-31.911 -16.674,-56.986 -24.922,-76.239z" id="svg_70"/>
      <path stroke="null" d="m2577.458766,875.831649c0,-87.306 8.044,-164.235 23.909,-228.65c11.743,-47.676 25.548,-79.354 36.139,-98.831c-5.044,1.418 -9.845,3.931 -14.023,7.552c-3.781,3.277 -7.889,7.048 -12.228,11.337c-8.248,19.253 -17.063,44.327 -24.922,76.238c-16.163,65.625 -24.359,143.8 -24.359,232.353c0,58.757 8.085,108.927 23.38,145.089c5.022,11.873 10.773,21.983 17.102,30.227c10.024,3.646 20.529,6.046 31.385,7.138c-29.792,-14.439 -56.383,-76.488 -56.383,-182.453z" id="svg_69"/>
      <path stroke="null" d="m2655.193766,1058.752649l0,-510.951c-5.099,-1.098 -10.385,-1.098 -15.484,0l0,510.951c2.564,0.145 5.145,0.221 7.742,0.221c2.598,0 5.178,-0.077 7.742,-0.221z" id="svg_68"/>
     </g>
    </g>
    <g stroke="null" id="svg_60" transform="rotate(25.406341552734375 442.7021484375,237.9505462646484) ">
     <g stroke="null" id="svg_61" transform="matrix(0.2947048697775848,0,0,0.2947048697775848,-556.2176076973017,-104.93341906850347) ">
      <path stroke="null" d="m3465.871147,1251.982828l-152.624,0c-8.284,0 -15,-6.716 -15,-15l0,-190.366c0,-2.486 0.618,-4.935 1.799,-7.123c21.777,-40.362 54.404,-63.511 89.513,-63.511s67.736,23.149 89.514,63.511c1.181,2.188 1.799,4.637 1.799,7.123l0,190.366c-0.001,8.284 -6.716,15 -15.001,15z" fill="#9bda05" id="svg_65"/>
      <path stroke="null" d="m3465.871147,1251.982828c8.284,0 15,-6.716 15,-15l0,-190.366c0,-2.486 -0.618,-4.935 -1.799,-7.123c-21.777,-40.362 -54.404,-63.511 -89.513,-63.511l0,276l76.312,0z" fill="#59b154" id="svg_64"/>
      <path stroke="null" d="m3389.559147,1350.982828c-44.947,0 -86.9,-23.286 -118.132,-65.568c-30.223,-40.918 -46.868,-95.08 -46.868,-152.509c0,-51.866 13.965,-102.112 39.32,-141.485c2.242,-3.48 5.823,-5.88 9.895,-6.63c4.071,-0.749 8.272,0.216 11.607,2.671c36.84,27.109 67.152,62.157 87.659,101.354c6.478,12.381 11.996,25.212 16.519,38.346c4.522,-13.134 10.041,-25.965 16.519,-38.346c20.507,-39.196 50.819,-74.244 87.659,-101.354c3.335,-2.454 7.533,-3.419 11.607,-2.671c4.071,0.75 7.652,3.149 9.895,6.63c25.355,39.373 39.32,89.619 39.32,141.485c0,57.429 -16.645,111.591 -46.868,152.509c-31.232,42.282 -73.185,65.568 -118.132,65.568z" fill="#d09875" id="svg_63"/>
      <path stroke="null" d="m3507.691147,1285.413828c30.223,-40.918 46.868,-95.08 46.868,-152.509c0,-51.866 -13.965,-102.112 -39.32,-141.484c-2.242,-3.48 -5.823,-5.88 -9.895,-6.63c-4.074,-0.748 -8.272,0.217 -11.607,2.671c-36.84,27.109 -67.152,62.157 -87.659,101.354c-6.478,12.381 -11.996,25.212 -16.519,38.346l0,223.821c44.947,-0.001 86.9,-23.287 118.132,-65.569z" fill="#c17d4f" id="svg_62"/>
     </g>
    </g>
    <g stroke="null" id="svg_43">
     <g stroke="null" id="svg_44" transform="matrix(0.7185322379688792,0,0,0.7185322379688792,-1132.61882987405,-1245.4627644554291) ">
      <g stroke="null" id="svg_59"/>
      <path stroke="null" d="m2303.25053,2268.64057l-167.466,167.466c-8.581,8.581 -22.493,8.581 -31.073,0l-300.591,-300.591c-8.58,-8.581 -8.58,-22.492 0,-31.073l167.466,-167.466c8.581,-8.58 22.493,-8.58 31.073,0l300.59,300.59c8.581,8.581 8.581,22.493 0.001,31.074z" fill="#fbf1cf" id="svg_58"/>
      <path stroke="null" d="m1984.27753,1930.74857c-4.64,0.603 -9.127,2.664 -12.691,6.228l-167.466,167.466c-8.581,8.58 -8.581,22.492 0,31.073l174.458,174.458c-41.691,-127.18 -21.834,-303.331 5.699,-379.225z" fill="#f5e2a2" id="svg_57"/>
      <path stroke="null" d="m1915.71153,2247.10557l69.53,69.53c20.255,-4.824 35.323,-23.025 35.323,-44.756c0,-25.416 -20.604,-46.02 -46.02,-46.02c-16.292,0 -42.27,8.474 -58.833,21.246z" fill="#9bda05" id="svg_56"/>
      <path stroke="null" d="m1960.31853,2227.49057c-14.853,3.038 -32.318,10.139 -44.607,19.615l62.868,62.868c-8.486,-25.885 -14.421,-53.798 -18.261,-82.483z" fill="#59b154" id="svg_55"/>
      <path stroke="null" d="m1972.45853,2136.96957c25.416,0 74.445,-20.604 74.445,-46.02s-49.029,-46.02 -74.445,-46.02s-46.02,20.604 -46.02,46.02s20.604,46.02 46.02,46.02z" fill="#9bda05" id="svg_54"/>
      <path stroke="null" d="m1954.63353,2133.38857c0.164,-30.003 2.062,-59.365 5.181,-86.685c-19.266,5.495 -33.376,23.217 -33.376,44.247c0,19.095 11.631,35.472 28.195,42.438z" fill="#59b154" id="svg_53"/>
      <path stroke="null" d="m2256.29753,2190.61457l-62.36,-62.36c-17.214,14.415 -29.428,47.948 -29.428,67.512c0,25.416 20.604,46.02 46.02,46.02s46.02,-20.604 46.02,-46.02c-0.001,-1.626 -0.088,-3.352 -0.252,-5.152z" fill="#9bda05" id="svg_52"/>
      <path stroke="null" d="m2147.52253,2314.69457c-17.972,17.972 2.128,67.209 20.1,85.181c0.739,0.739 1.503,1.436 2.278,2.114l64.918,-64.918c-0.678,-0.775 -1.375,-1.539 -2.114,-2.278c-17.972,-17.971 -67.21,-38.071 -85.182,-20.099z" fill="#9bda05" id="svg_51"/>
      <g stroke="null" id="svg_45">
       <path stroke="null" d="m2049.13138,2196.52757l-16.093,0c-4.142,0 -7.5,-3.358 -7.5,-7.5s3.358,-7.5 7.5,-7.5l16.093,0c4.142,0 7.5,3.358 7.5,7.5s-3.358,7.5 -7.5,7.5z" fill="#cc624e" id="svg_50"/>
       <path stroke="null" d="m2071.89111,2303.1603c-4.142,0 -7.5,-3.358 -7.5,-7.5l0,-20.331c0,-4.142 3.358,-7.5 7.5,-7.5s7.5,3.358 7.5,7.5l0,20.331c0,4.142 -3.358,7.5 -7.5,7.5z" fill="#88d37f" id="svg_49"/>
       <path stroke="null" d="m1997.33553,2007.04857c-1.919,0 -3.838,-0.732 -5.303,-2.196l-7.095,-7.094c-2.929,-2.929 -2.929,-7.678 0,-10.607c2.93,-2.929 7.677,-2.929 10.607,0l7.095,7.094c2.929,2.929 2.929,7.678 0.001,10.607c-1.466,1.463 -3.385,2.196 -5.305,2.196z" fill="#88d37f" id="svg_48"/>
       <path stroke="null" d="m1908.32253,2173.37257c-1.919,0 -3.839,-0.732 -5.303,-2.197l-11.096,-11.096c-2.929,-2.929 -2.929,-7.678 0,-10.606c2.929,-2.929 7.678,-2.929 10.606,0l11.096,11.096c2.929,2.929 2.929,7.678 0,10.607c-1.464,1.463 -3.384,2.196 -5.303,2.196z" fill="#cc624e" id="svg_47"/>
       <path stroke="null" d="m2236.25153,2289.70257l-12.172,0c-4.142,0 -7.5,-3.358 -7.5,-7.5s3.358,-7.5 7.5,-7.5l12.172,0c4.142,0 7.5,3.358 7.5,7.5s-3.358,7.5 -7.5,7.5z" fill="#cc624e" id="svg_46"/>
      </g>
     </g>
    </g>
    <ellipse stroke="null" fill="#9bda05" stroke-width="null" stroke-opacity="null" cx="380.321361" cy="275.119385" id="svg_42" rx="20.731343" ry="18.540112"/>
    <ellipse stroke="null" fill="#9bda05" stroke-width="null" stroke-opacity="null" cx="391.258074" cy="357.178877" id="svg_41" rx="23.592329" ry="15.613829" transform="rotate(67.78279876708984 391.2580566406251,357.1788940429687) "/>
    <ellipse stroke="null" fill="#9bda05" stroke-width="null" stroke-opacity="null" cx="375.419483" cy="454.912775" id="svg_40" rx="17.395368" ry="15.071012" transform="rotate(34.64004898071289 375.4194335937499,454.91278076171875) "/>
    <ellipse stroke="null" fill="#59b154" stroke-width="null" stroke-opacity="null" cx="215.220356" cy="262.464713" id="svg_39" rx="16.842455" ry="13.158168"/>
   </g>
  </g>
 </g>
</svg>