<svg width="512" height="512" version="1.1" xmlns="http://www.w3.org/2000/svg"><g><title>background</title><rect id="canvas_background" x="-1" y="-1" width="514" height="514" fill="none"/><g id="canvasGrid" x="0" y="0" width="100%" height="100%" display="none" overflow="visible"><rect width="100%" height="100%" fill="url(#gridpattern)" stroke-width="0"/></g></g><g><title>Layer 1</title><g stroke="null"><g transform="matrix(1.2 0 0 1.2 -158 -105)"><title transform="translate(126 34.1)">background</title><rect x="125" y="33.1" width="514" height="514" fill="none"/><g display="none"><rect x="126" y="34.1" width="512" height="512" fill="url(#gridpattern)" stroke="null" stroke-width="0"/></g></g><g transform="matrix(1.2 0 0 1.2 -158 -105)"><g><title transform="translate(126 34.1)">Layer 1</title><g transform="rotate(-3.88 372 167)"><path d="m365 93.4c4.12-3.57 10.2-3.57 14.4 0 12.3 10.7 36.1 38.7 36.1 95.8 0 34.3-19.4 54.9-43.3 54.9s-43.3-20.6-43.3-54.9c3e-4 -57.2 23.8-85.2 36.1-95.8z" fill="#cc624e"/><path d="m380 93.4c-2.81-2.43-6.56-3.21-9.96-2.32 1.58 0.413 3.09 1.18 4.4 2.32 12.3 10.7 36.1 38.7 36.1 95.8 0 32.9-17.9 53.2-40.5 54.8 0.921 0.0626 1.85 0.098 2.78 0.098 23.9 0 43.3-20.6 43.3-54.9-3e-4 -57.2-23.8-85.2-36.1-95.8v-1e-5z" fill="#bc574a"/><g transform="matrix(.3 0 0 .3 -421 -73.2)" fill="#994e37"><path d="m2684 567c-4.34-4.29-8.45-8.06-12.2-11.3-4.18-3.62-8.98-6.13-14-7.55 10.6 19.5 24.4 51.2 36.1 98.8 15.9 64.4 23.9 141 23.9 229 0 106-26.6 168-56.4 182 10.9-1.09 21.4-3.49 31.4-7.14 6.33-8.24 12.1-18.4 17.1-30.2 15.3-36.2 23.4-86.3 23.4-145 0-88.6-8.2-167-24.4-232-7.86-31.9-16.7-57-24.9-76.2z"/><path d="m2577 876c0-87.3 8.04-164 23.9-229 11.7-47.7 25.5-79.4 36.1-98.8-5.04 1.42-9.84 3.93-14 7.55-3.78 3.28-7.89 7.05-12.2 11.3-8.25 19.3-17.1 44.3-24.9 76.2-16.2 65.6-24.4 144-24.4 232 0 58.8 8.08 109 23.4 145 5.02 11.9 10.8 22 17.1 30.2 10 3.65 20.5 6.05 31.4 7.14-29.8-14.4-56.4-76.5-56.4-182z"/><path d="m2655 1059v-511c-5.1-1.1-10.4-1.1-15.5 0v511c2.56 0.145 5.14 0.221 7.74 0.221 2.6 0 5.18-0.077 7.74-0.221z"/></g></g><g transform="rotate(25.4 443 238)"><g transform="matrix(.295 0 0 .295 -556 -105)" stroke="null"><path d="m3466 1252h-153c-8.28 0-15-6.72-15-15v-190c0-2.49 0.618-4.94 1.8-7.12 21.8-40.4 54.4-63.5 89.5-63.5s67.7 23.1 89.5 63.5c1.18 2.19 1.8 4.64 1.8 7.12v190c-1e-3 8.28-6.72 15-15 15z" fill="#9bda05"/><path d="m3466 1252c8.28 0 15-6.72 15-15v-190c0-2.49-0.618-4.94-1.8-7.12-21.8-40.4-54.4-63.5-89.5-63.5v276h76.3z" fill="#59b154"/><path d="m3390 1351c-44.9 0-86.9-23.3-118-65.6-30.2-40.9-46.9-95.1-46.9-153 0-51.9 14-102 39.3-141 2.24-3.48 5.82-5.88 9.9-6.63 4.07-0.749 8.27 0.216 11.6 2.67 36.8 27.1 67.2 62.2 87.7 101 6.48 12.4 12 25.2 16.5 38.3 4.52-13.1 10-26 16.5-38.3 20.5-39.2 50.8-74.2 87.7-101 3.34-2.45 7.53-3.42 11.6-2.67 4.07 0.75 7.65 3.15 9.9 6.63 25.4 39.4 39.3 89.6 39.3 141 0 57.4-16.6 112-46.9 153-31.2 42.3-73.2 65.6-118 65.6z" fill="#d09875"/><path d="m3508 1285c30.2-40.9 46.9-95.1 46.9-153 0-51.9-14-102-39.3-141-2.24-3.48-5.82-5.88-9.9-6.63-4.07-0.748-8.27 0.217-11.6 2.67-36.8 27.1-67.2 62.2-87.7 101-6.48 12.4-12 25.2-16.5 38.3v224c44.9-1e-3 86.9-23.3 118-65.6z" fill="#c17d4f"/></g></g><g transform="matrix(.719 0 0 .719 -1133 -1245)" stroke="null"><path d="m2303 2269-167 167c-8.58 8.58-22.5 8.58-31.1 0l-301-301c-8.58-8.58-8.58-22.5 0-31.1l167-167c8.58-8.58 22.5-8.58 31.1 0l301 301c8.58 8.58 8.58 22.5 1e-3 31.1z" fill="#fbf1cf"/><path d="m1984 1931c-4.64 0.603-9.13 2.66-12.7 6.23l-167 167c-8.58 8.58-8.58 22.5 0 31.1l174 174c-41.7-127-21.8-303 5.7-379z" fill="#f5e2a2"/><path d="m1916 2247 69.5 69.5c20.3-4.82 35.3-23 35.3-44.8 0-25.4-20.6-46-46-46-16.3 0-42.3 8.47-58.8 21.2z" fill="#9bda05"/><path d="m1960 2227c-14.9 3.04-32.3 10.1-44.6 19.6l62.9 62.9c-8.49-25.9-14.4-53.8-18.3-82.5z" fill="#59b154"/><path d="m1972 2137c25.4 0 74.4-20.6 74.4-46s-49-46-74.4-46-46 20.6-46 46 20.6 46 46 46z" fill="#9bda05"/><path d="m1955 2133c0.164-30 2.06-59.4 5.18-86.7-19.3 5.5-33.4 23.2-33.4 44.2 0 19.1 11.6 35.5 28.2 42.4z" fill="#59b154"/><path d="m2256 2191-62.4-62.4c-17.2 14.4-29.4 47.9-29.4 67.5 0 25.4 20.6 46 46 46s46-20.6 46-46c-1e-3 -1.63-0.088-3.35-0.252-5.15z" fill="#9bda05"/><path d="m2148 2315c-18 18 2.13 67.2 20.1 85.2 0.739 0.739 1.5 1.44 2.28 2.11l64.9-64.9c-0.678-0.775-1.38-1.54-2.11-2.28-18-18-67.2-38.1-85.2-20.1z" fill="#9bda05"/><path d="m2049 2197h-16.1c-4.14 0-7.5-3.36-7.5-7.5s3.36-7.5 7.5-7.5h16.1c4.14 0 7.5 3.36 7.5 7.5s-3.36 7.5-7.5 7.5z" fill="#cc624e"/><path d="m2072 2303c-4.14 0-7.5-3.36-7.5-7.5v-20.3c0-4.14 3.36-7.5 7.5-7.5s7.5 3.36 7.5 7.5v20.3c0 4.14-3.36 7.5-7.5 7.5z" fill="#88d37f"/><path d="m2e3 2007c-1.92 0-3.84-0.732-5.3-2.2l-7.1-7.09c-2.93-2.93-2.93-7.68 0-10.6 2.93-2.93 7.68-2.93 10.6 0l7.1 7.09c2.93 2.93 2.93 7.68 1e-3 10.6-1.47 1.46-3.38 2.2-5.3 2.2z" fill="#88d37f"/><path d="m1908 2173c-1.92 0-3.84-0.732-5.3-2.2l-11.1-11.1c-2.93-2.93-2.93-7.68 0-10.6 2.93-2.93 7.68-2.93 10.6 0l11.1 11.1c2.93 2.93 2.93 7.68 0 10.6-1.46 1.46-3.38 2.2-5.3 2.2z" fill="#cc624e"/><path d="m2236 2290h-12.2c-4.14 0-7.5-3.36-7.5-7.5s3.36-7.5 7.5-7.5h12.2c4.14 0 7.5 3.36 7.5 7.5s-3.36 7.5-7.5 7.5z" fill="#cc624e"/></g></g><g fill="#9bda05" stroke-opacity="null" stroke-width="null"><ellipse cx="380" cy="275" rx="20.7" ry="18.5"/><ellipse transform="rotate(67.8 391 357)" cx="391" cy="357" rx="23.6" ry="15.6"/><ellipse transform="rotate(34.6 375 455)" cx="375" cy="455" rx="17.4" ry="15.1"/></g><ellipse cx="215" cy="262" rx="16.8" ry="13.2" fill="#59b154" stroke-opacity="null" stroke-width="null"/></g></g></g></svg>
