<?xml version="1.0" encoding="UTF-8" standalone="no"?>
<svg
   xmlns:dc="http://purl.org/dc/elements/1.1/"
   xmlns:cc="http://creativecommons.org/ns#"
   xmlns:rdf="http://www.w3.org/1999/02/22-rdf-syntax-ns#"
   xmlns:svg="http://www.w3.org/2000/svg"
   xmlns="http://www.w3.org/2000/svg"
   xmlns:sodipodi="http://sodipodi.sourceforge.net/DTD/sodipodi-0.dtd"
   xmlns:inkscape="http://www.inkscape.org/namespaces/inkscape"
   inkscape:version="1.0 (4035a4f, 2020-05-01)"
   sodipodi:docname="ghee.svg"
   id="svg6696"
   version="1.1"
   height="512"
   width="512">
  <metadata
     id="metadata6702">
    <rdf:RDF>
      <cc:Work
         rdf:about="">
        <dc:format>image/svg+xml</dc:format>
        <dc:type
           rdf:resource="http://purl.org/dc/dcmitype/StillImage" />
        <dc:title></dc:title>
      </cc:Work>
    </rdf:RDF>
  </metadata>
  <defs
     id="defs6700" />
  <sodipodi:namedview
     inkscape:current-layer="svg6696"
     inkscape:window-maximized="0"
     inkscape:window-y="0"
     inkscape:window-x="0"
     inkscape:cy="388.79753"
     inkscape:cx="157.99468"
     inkscape:zoom="0.57944081"
     showgrid="false"
     id="namedview6698"
     inkscape:window-height="768"
     inkscape:window-width="1366"
     inkscape:pageshadow="2"
     inkscape:pageopacity="0"
     guidetolerance="10"
     gridtolerance="10"
     objecttolerance="10"
     borderopacity="1"
     bordercolor="#666666"
     pagecolor="#ffffff" />
  <g
     overflow="visible"
     display="none"
     height="100%"
     width="100%"
     y="0"
     x="0"
     id="canvasGrid">
    <rect
       id="rect6631"
       stroke-width="0"
       fill="url(#gridpattern)"
       height="100%"
       width="100%" />
  </g>
  <g
     id="g6753">
    <g
       id="g6642"
       transform="matrix(16.5,0,0,9.17,-171,8.92)">
      <path
         id="path6634"
         fill="#d2d5d7"
         d="m 25.7,25.4 c -8.01,0 -14.5,-2.69 -14.5,-6 v 29 c 0,3.31 6.49,6 14.5,6 8.01,0 14.5,-2.69 14.5,-6 v -29 c 0,3.31 -6.49,6 -14.5,6 z" />
      <path
         id="path6636"
         fill="#3dabef"
         d="m 25.7,30.3 c -8.01,0 -14.5,-2.69 -14.5,-6 v 19.1 c 0,3.31 6.49,6.95 14.5,6.95 8.01,0 14.5,-3.63 14.5,-6.95 V 24.3 c 0,3.31 -6.49,6 -14.5,6 z" />
      <path
         id="path6638"
         fill="#f9d70b"
         d="m 29.7,13.6 c -1.29,-0.155 -2.64,-0.242 -4.05,-0.242 -8.01,0 -14.5,2.69 -14.5,6 0,3.31 6.49,6 14.5,6 7.2,0 13.2,-2.17 14.3,-5.02 -1.95,-0.113 -5.98,-2.75 -10.2,-6.74 z" />
      <path
         id="path6640"
         fill="#d2d5d7"
         d="M 33,7.48 C 27.34,1.82 21.7,-1.71 20.4,-0.4 19.703,0.297 20.386,2.23 22.02,4.73 l 4.16,0.594 -1.88,2.5 c 1.15,1.41 2.49,2.9 3.98,4.4 5.66,5.66 11.3,9.19 12.6,7.88 1.31,-1.31 -2.22,-6.96 -7.88,-12.6 z" />
    </g>
    <g
       id="g6654"
       transform="rotate(-1,215,168)">
      <path
         id="path6644"
         fill="#f9d70b"
         d="m 57.7,195 c 0,0 -17.1,-43.7 65.9,-54.1 95.7,-11.9 119,-53 119,-53 0,0 71,63.7 26.5,111 z"
         transform="rotate(3.49,170,143)" />
      <g
         id="g6652"
         fill="#f3bb5d">
        <path
           id="path6646"
           d="m 243,90.9 0.202,0.21 0.81,0.777 13.1,14 0.5,0.564 -0.003,0.0709 c 3.09,16.8 -1.8,33.8 -14,48.7 -12.2,12.9 -32.2,21.8 -55,24.4 l -4.44,-13.5 c 17.1,-1.87 32.1,-8.45 41.3,-18.1 14.3,-15.4 12.3,-36.4 9.6,-47.6 l 7.95,-9.53 z"
           transform="rotate(3.49,221,135)" />
        <path
           id="path6648"
           d="m 346,146 0.202,0.21 0.81,0.777 13.1,14 0.5,0.564 -0.003,0.0709 c 3.09,16.8 -1.8,33.8 -14,48.7 -12.2,12.9 -32.2,21.8 -55,24.4 l -4.44,-13.5 c 17.1,-1.87 32.1,-8.45 41.3,-18.1 14.3,-15.4 12.3,-36.4 9.6,-47.6 z"
           transform="rotate(24.2,325,190)" />
        <path
           id="path6650"
           d="m 231,153 0.202,0.21 0.81,0.777 13.1,14 0.5,0.564 -0.003,0.0709 c 3.09,16.8 -1.8,33.8 -14,48.7 -12.2,12.9 -32.2,21.8 -55,24.4 l -4.44,-13.5 c 17.1,-1.87 32.1,-8.45 41.3,-18.1 14.3,-15.4 12.3,-36.4 9.6,-47.6 z"
           transform="rotate(38.6,210,198)" />
      </g>
    </g>
    <g
       id="g6660"
       transform="rotate(1.74,121,147)">
      <path
         id="path6656"
         fill="#f9d70b"
         d="m 29.7,203 c 0,0 -14,-47.6 53.9,-58.9 78.3,-13 97.1,-57.8 97.1,-57.8 0,0 58.1,69.4 21.7,121 z" />
      <path
         id="path6658"
         fill="#f3bb5d"
         d="m 181,85.9 0.165,0.229 0.663,0.846 10.7,15.2 0.409,0.615 -0.003,0.0773 c 2.53,18.3 -1.47,36.8 -11.4,53 -10,14 -26.4,23.7 -45,26.6 l -3.64,-14.7 c 14,-2.03 26.3,-9.21 33.8,-19.7 11.7,-16.7 10,-39.6 7.86,-51.8 z" />
    </g>
    <g
       id="g6666"
       transform="rotate(1.74,80,152)">
      <path
         id="path6662"
         fill="#f9d70b"
         d="m 18.6,198 c 0,0 -9.34,-39.4 36.1,-48.8 52.3,-10.8 64.9,-47.8 64.9,-47.8 0,0 38.8,57.5 14.5,100 z" />
      <path
         id="path6664"
         fill="#f3bb5d"
         d="m 120,102 0.11,0.19 0.443,0.7 7.16,12.6 0.274,0.509 -0.002,0.064 c 1.69,15.1 -0.982,30.5 -7.65,43.9 -6.7,11.6 -17.6,19.6 -30.1,22 l -2.43,-12.2 c 9.35,-1.68 17.6,-7.62 22.6,-16.3 7.85,-13.9 6.7,-32.8 5.25,-42.9 z" />
    </g>
    <g
       id="g6670"
       transform="matrix(33.6,0,0,11.8,-67.4,-250)">
      <path
         id="path6668"
         stroke="null"
         fill="#f9d70b"
         d="M 6.4,46.7 C 4.76,46.314 3.46,45.859 2.4,45.45 v 9.38 c 0.486,0.299 0.989,0.592 1.53,0.87 8.72,4.51 11.9,2.32 11.5,-1 -0.75,-6.08 -2.25,-6.42 -9,-8 z" />
    </g>
    <g
       transform="rotate(7.72)"
       style="fill:#3dabef;stroke-width:0"
       aria-label="روغن حیوانی"
       id="g6694">
      <path
         d="m449 328q0.903 5.59 0.172 11.3-0.688 5.67-3.48 10.4-2.75 4.77-8.08 7.65-2.36 1.25-5.12 1.89-2.71 0.688-5.42 0.301-1.07-0.129-2.45-0.731-1.42-0.602-1.68-1.76-0.086-1.03 0.946-1.85 1.03-0.774 2.36-1.33 1.29-0.516 2.02-0.688 4.3-1.29 6.96-4.34 2.71-3.01 4.17-7.18 1.16-3.78 0.645-7.74-0.129-1.55-0.344-3.1-0.258-1.85-0.387-3.74-0.129-1.07-0.043-2.32 0.129-1.25 0.731-2.19 0.602-0.817 1.55-1.16 0.946-0.344 1.93-0.43 0.989-0.086 1.98 0.086 1.03 0.172 1.76 0.946 0.774 0.903 1.12 2.41 0.344 1.5 0.516 2.88 0.043 0.344 0.129 0.688z"
         style="stroke-width:0"
         id="path6674" />
      <path
         d="m419 339q3.01-0.215 3.7-2.36 0.731-2.15-0.688-4.17-1.42-2.06-4.9-2.02-1.76 0.129-2.97 1.42-1.16 1.29-0.903 3.35 0.301 1.59 1.98 2.71 1.72 1.07 3.78 1.07zm-1.38 6.92q-4.13-0.043-7.57-2.36-3.4-2.32-4.6-6.62-0.774-3.27 0.387-6.58 1.16-3.35 3.95-5.72 2.84-2.41 7.09-2.79 6.41-0.344 9.8 3.7 2.84 3.57 2.84 8.04 0.301 7.31-2.45 13.8-2.71 6.53-9.37 10.2-2.41 1.25-5.16 1.89-2.71 0.688-5.42 0.344-1.03-0.129-2.45-0.731-1.42-0.602-1.68-1.81-0.043-0.989 0.989-1.81 1.03-0.774 2.32-1.33 1.29-0.516 2.02-0.731 6.36-1.98 9.29-7.52z"
         style="stroke-width:0"
         id="path6676" />
      <path
         d="m361 339h7.57q-3.74-2.92-4.34-6.83-0.559-3.95 1.33-7.69 1.89-3.78 5.59-6.32 3.7-2.41 8.12-2.84 4.43-0.43 8.17 1.29 3.35 1.59 4.9 4.56 0.817 1.98 0.516 3.87-0.301 1.85-1.42 2.58-1.07 0.688-2.49-0.903-0.43-0.516-0.817-1.2-0.688-1.5-2.32-2.54-1.63-1.03-5.63-0.215-3.91 1.07-4.81 4.56-0.903 3.44 1.85 6.06 2.97 2.28 6.71 2.02 3.74-0.258 6.75-1.81 1.2-0.688 3.74-1.63 2.54-0.946 4.64-0.387 2.11 0.559 2.15 4.26-0.344 3.14-3.18 4.86-2.84 1.72-5.55 2.58-0.559 0.215-1.03 0.387-3.48 1.2-6.92 1.25-3.4 0.086-6.79 1.2-4.56 1.72-8.43 2.24-3.83 0.516-8.25 0.43h-0.043q-1.25 0-2.41-0.645t-1.81-1.81q-0.645-1.16-0.645-2.45 0-1.25 0.645-2.41 0.645-1.2 1.81-1.81 1.16-0.645 2.41-0.645zm10.3-42.4q3.18-0.86 5.85 0.516 2.67 1.33 3.44 3.95 0.645 3.18-1.2 5.29-1.81 2.11-4.04 2.67-4.43 0.86-7.01-1.63-2.54-2.54-2.11-5.85 0.473-3.31 5.07-4.94z"
         style="stroke-width:0"
         id="path6678" />
      <path
         d="m361 339q1.16 0 2.36 0.602 1.16 0.645 1.81 1.85 0.645 1.16 0.645 2.41 0 1.29-0.645 2.45-0.645 1.16-1.81 1.81t-2.36 0.645h-7.69q-2.36 5.55-6.58 9.76-6.71 6.32-15 7.82-8.25 1.5-16.1-1.29-7.78-2.75-13.2-9.2-5.42-6.45-6.49-16-0.559-7.14 2.71-13.2 3.31-6.06 8.9-9.93 5.59-3.91 12-4.6 2.45-0.301 5.12 0.43 2.67 0.731 2.79 3.1-0.172 1.42-1.85 2.41-1.63 0.989-4.13 1.98-3.57 1.33-7.31 3.7-3.74 2.36-5.93 6.96-3.57 8.73 0.129 16.1 3.7 7.31 12.8 9.5 6.45 1.42 13.4-1.29 4.73-2.02 7.78-5.89 3.05-3.87 2.97-8.98-0.301-3.31-1.12-6.15-0.645-2.41-0.817-4.43-0.043-2.97 1.85-4.56 1.89-1.63 4.3-1.25 2.45 0.387 4.04 3.48 1.12 2.49 1.59 4.99 0.688 3.35 0.516 6.75zm-37.2-8.21q3.18-0.86 5.85 0.516 2.67 1.33 3.44 3.95 0.645 3.18-1.2 5.29-1.81 2.11-4.04 2.67-4.43 0.86-7.01-1.63-2.54-2.54-2.11-5.85 0.473-3.31 5.07-4.94z"
         style="stroke-width:0"
         id="path6680" />
      <path
         d="m228 349q-1.25 0-2.41-0.645-1.16-0.645-1.81-1.81-0.645-1.16-0.645-2.41 0-1.29 0.688-2.45 0.645-1.16 1.81-1.81 1.16-0.645 2.36-0.645h2.41q3.91 0 8.34-0.344 4.43-0.387 8.68-2.02 4.26-1.63 7.61-5.33-1.72-0.946-3.48-2.15-3.05-2.24-6.32-3.35-3.1-0.817-4.38-0.043-1.25 0.774-1.85 2.19-2.24 3.95-4.21 2.97-1.93-1.03-2.15-4.34-0.043-2.97 2.36-5.67 2.45-2.71 7.22-3.35 4.77-0.645 11.8 2.54 1.07 0.516 2.06 1.03 3.1 1.68 6.19 2.58 3.14 0.86 8.55 0.559 1.5-0.172 3.05-0.602 1.59-0.43 3.14-0.602 1.59-0.172 3.1 0.516 1.76 0.903 2.54 2.88 0.817 1.93-0.473 4-1.85 2.54-4.3 3.22-2.45 0.645-5.12 0.688-3.4-0.043-6.36 1.2-3.91 2.02-7.87 4.3-3.01 1.68-5.98 3.27-4.77 2.58-9.72 4.13-4.94 1.5-10.3 1.5z"
         style="stroke-width:0"
         id="path6682" />
      <path
         d="m228 339q1.25 0 2.41 0.645 1.16 0.602 1.81 1.81 0.688 1.16 0.688 2.41 0 1.29-0.645 2.45-0.645 1.16-1.81 1.81t-2.45 0.645q-1.5 0.043-2.97 0-4.56 0.086-8.98-1.63-4.43-1.76-6.79-5.8-1.33 3.35-4.17 5.37-2.62 1.85-5.76 2.02-0.215 0.043-0.473 0.043h-0.129q-1.16-0.043-2.28-0.645-1.16-0.645-1.81-1.81-0.645-1.16-0.645-2.45 0-1.25 0.645-2.41 0.645-1.2 1.85-1.85 1.12-0.559 2.24-0.602h0.258q3.01 0 4.51-0.903 1.5-0.903 2.15-2.24 0.602-1.25 0.688-2.79 0.129-1.55 0.043-3.31-0.129-2.45 0.172-4.99 0.43-2.45 2.11-3.35 1.72-0.903 3.4 0.387 1.68 1.29 2.11 5.37 0.086 0.86 0.258 1.68 0.172 1.16 0.301 2.24 0.43 2.02 1.85 3.83 1.46 1.76 4.17 2.92 2.75 1.16 7.26 1.16zm-17.8 17.1q4.81 0.473 7.05 1.72 2.28 1.25 1.03 2.54-1.2 1.29-6.88 1.93-2.97 0.387-7.39 0.86-4.38 0.473-7.91 0.473-0.344 0-0.731 0-1.93 0.043-3.1-0.387-1.2-0.43-1.2-2.41 0.215-2.45 2.58-3.52 2.32-1.07 5.5-1.29 3.18-0.172 5.8-0.129 0.817 0.043 1.46 0.043 0.258 0 0.559 0 1.59-0.043 1.5-0.043-0.086 0.043 1.72 0.215z"
         style="stroke-width:0"
         id="path6684" />
      <path
         d="m185 342q3.01-0.215 3.74-2.36t-0.731-4.17q-1.42-2.06-4.9-2.02-1.76 0.129-2.92 1.42t-0.946 3.35q0.301 1.59 1.98 2.71 1.72 1.07 3.78 1.07zm13.8-2.75q1.2 0 2.36 0.602 1.16 0.645 1.81 1.85 0.688 1.16 0.688 2.41 0 1.29-0.645 2.45-0.645 1.16-1.81 1.81t-2.41 0.645h-5.16q-2.58 7.48-9.97 11.6-2.36 1.29-5.12 1.93-2.75 0.645-5.42 0.301-1.07-0.129-2.49-0.731-1.38-0.602-1.68-1.81-0.043-0.989 0.989-1.81 1.03-0.774 2.32-1.33 1.29-0.516 2.06-0.731 6.32-1.98 9.29-7.52-4.13-0.043-7.57-2.36-3.44-2.32-4.6-6.62-0.817-3.27 0.344-6.58 1.16-3.35 4-5.72 2.84-2.41 7.09-2.79 6.36-0.344 9.8 3.7 2.79 3.57 2.84 8.04 0.043 1.29 0 2.62z"
         style="stroke-width:0"
         id="path6686" />
      <path
         d="m166 305q0.172 6.83-0.215 17.6-0.387 10.7-1.29 17.3-0.817 5.07-2.36 7.61-1.5 2.54-2.88 1.29-1.33-1.29-1.68-7.65l-0.688-33.1q0.129-4.9 2.28-6.53 2.19-1.63 4.38-0.602t2.45 4.13z"
         style="stroke-width:0"
         id="path6688" />
      <path
         d="m128 339q1.25 0 2.41 0.645 1.16 0.602 1.81 1.81 0.688 1.16 0.688 2.41 0 1.29-0.645 2.45-0.645 1.16-1.81 1.81t-2.45 0.645q-1.25 0-2.41-0.645-1.2-0.645-1.81-1.81-0.645-1.16-0.645-2.45 0-1.25 0.645-2.41 0.645-1.2 1.81-1.81 1.16-0.645 2.41-0.645zm0.043 9.76v-9.76h6.62q4.51-0.387 6.28-4.13 1.81-3.78 0.731-7.74-1.29-4.6-0.387-6.28 0.903-1.68 2.79-0.989 1.93 0.688 3.65 3.18 1.76 2.45 2.19 6.19 0.473 4.81-1.07 9.11-1.55 4.26-5.2 7.09-3.52 2.75-9.2 3.31-6.23 0-6.41 0zm5.93-48.4q3.18-0.86 5.85 0.516 2.67 1.33 3.44 3.95 0.645 3.18-1.2 5.29-1.81 2.11-4.04 2.67-4.43 0.86-7.01-1.63-2.54-2.54-2.11-5.85 0.473-3.31 5.07-4.94z"
         style="stroke-width:0"
         id="path6690" />
      <path
         d="m128 339q1.2 0 2.32 0.602 1.16 0.645 1.81 1.85 0.688 1.16 0.688 2.41 0 1.29-0.645 2.45-0.645 1.16-1.81 1.81-1.12 0.602-2.36 0.645h-2.15q3.44 5.93 1.81 10.1-1.63 4.21-6.28 6.79-4.64 2.58-10.3 3.61-6.45 1.29-13 0.258-7.01-1.12-12.5-5.24-5.5-4.13-7.87-11.3-1.85-5.55-0.387-11.6 1.46-5.12 5.16-8.86 3.74-3.78 8.25-5.98 4.56-2.24 8.51-2.75 4.34-0.473 5.55 0.817 1.25 1.25-2.88 3.61-1.12 0.602-2.19 1.16-3.18 1.55-6.06 3.52-2.84 1.93-5.12 5.37-3.05 5.03-2.36 9.76 0.688 4.73 4.13 8.08 4.77 4.43 11.5 5.12 6.75 0.731 12.6-1.68 5.24-2.24 6.28-4.81 1.07-2.58-1.59-4.38-2.67-1.76-8.64-1.63-1.16 0.086-2.45 0.301-2.19 0.43-4.13 0.215-2.75-0.559-3.44-3.01-0.688-2.45 1.81-4.77 2.54-2.32 9.29-2.45z"
         style="stroke-width:0"
         id="path6692" />
    </g>
  </g>
</svg>
