<svg width="512" height="512" xmlns="http://www.w3.org/2000/svg">
 <g>
  <rect fill="none" id="canvas_background" height="514" width="514" y="-1" x="-1"/>
  <g display="none" overflow="visible" y="0" x="0" height="100%" width="100%" id="canvasGrid">
   <rect fill="url(#gridpattern)" stroke-width="0" y="0" x="0" height="100%" width="100%"/>
  </g>
 </g>
 <g>
   <g stroke="null" transform="matrix(16.543924944435368,0,0,9.169324787404724,-171.3829695668436,8.917416091365567) " id="svg_5">
    <path stroke="null" id="svg_6" fill="#D2D5D7" d="m25.695848,25.379508c-8.008,0 -14.5,-2.686 -14.5,-6l0,29c0,3.314 6.492,6 14.5,6s14.5,-2.686 14.5,-6l0,-29c0,3.314 -6.492,6 -14.5,6z"/>
    <path stroke="null" id="svg_7" fill="#3DABEF" d="m25.69585,30.32751c-8.008,0 -14.5,-2.686 -14.5,-6l0,19.052c0,3.314 6.492,6.948 14.5,6.948s14.5,-3.634 14.5,-6.948l0,-19.052c0,3.314 -6.492,6 -14.5,6z"/>
    <path stroke="null" id="svg_8" fill="#f9d70b" d="m29.745848,13.621508c-1.287,-0.155 -2.643,-0.242 -4.05,-0.242c-8.008,0 -14.5,2.686 -14.5,6s6.492,6 14.5,6c7.197,0 13.153,-2.172 14.289,-5.017c-1.947,-0.113 -5.979,-2.747 -10.239,-6.741z"/>
    <path stroke="null" id="svg_9" fill="#D2D5D7" d="m33.040848,7.482508c-5.663,-5.663 -11.315,-9.191 -12.624,-7.882c-0.697,0.697 -0.014,2.63 1.622,5.133l4.157,0.594l-1.876,2.502c1.147,1.412 2.486,2.902 3.979,4.396c5.663,5.663 11.315,9.191 12.624,7.882c1.31,-1.311 -2.219,-6.963 -7.882,-12.625z"/>
  </g>
  <g transform="rotate(-1.0023308992385864 214.84928894042994,168.32351684570355) " stroke="null" id="svg_57">
   <path transform="rotate(3.4850969314575195 169.87939453124974,143.47154235839878) " stroke="null" id="svg_48" fill="#f9d70b" d="m57.705575,194.909416s-17.082236,-43.71218 65.915591,-54.068015c95.661468,-11.938913 118.703971,-53.015955 118.703971,-53.015955s71.013006,63.719683 26.533959,111.292212l-211.153521,-4.208242zm0,0"/>
   <path transform="rotate(3.4850969314575195 221.2387847900401,135.28297424316418) " stroke="null" id="svg_49" fill="#f3bb5d" d="m242.917894,90.932384l0.201798,0.210223l0.810159,0.776693l13.092113,13.967763l0.500105,0.56432l-0.003293,0.070918c3.090792,16.776842 -1.795465,33.773281 -13.988352,48.663579c-12.243922,12.878034 -32.238233,21.761663 -55.030356,24.447659l-4.44438,-13.518231c17.088511,-1.866728 32.13083,-8.449083 41.313565,-18.075505c14.345629,-15.357798 12.256793,-36.377141 9.603477,-47.574644l7.945165,-9.532777zm0,0"/>
   <path transform="rotate(24.18644142150879 324.52822875976574,190.2662658691406) " stroke="null" id="svg_70" fill="#f3bb5d" d="m346.20735,145.915695l0.2018,0.21022l0.81016,0.7767l13.09211,13.96776l0.5001,0.56432l-0.00329,0.07092c3.09079,16.77684 -1.79546,33.77328 -13.98835,48.66358c-12.24392,12.87803 -32.23823,21.76166 -55.03036,24.44766l-4.44438,-13.51823c17.08851,-1.86673 32.13083,-8.44909 41.31357,-18.07551c14.34563,-15.3578 12.25679,-36.37714 9.60347,-47.57464l7.94517,-9.53278zm0,0"/>
   <path transform="rotate(38.6385383605957 209.52813720703125,197.76628112792966) " stroke="null" id="svg_71" fill="#f3bb5d" d="m231.207266,153.415702l0.2018,0.21022l0.81016,0.7767l13.09211,13.96776l0.5001,0.56432l-0.00329,0.07092c3.09079,16.77684 -1.79546,33.77328 -13.98835,48.66358c-12.24392,12.87803 -32.23823,21.76166 -55.03036,24.44766l-4.44438,-13.51823c17.08851,-1.86673 32.13083,-8.44909 41.31357,-18.07551c14.34563,-15.3578 12.25679,-36.37714 9.60347,-47.57464l7.94517,-9.53278zm0,0"/>
  </g>
  <g stroke="null" transform="rotate(1.7425484657287598 121.49806976318445,146.5653076171874) " id="svg_63">
   <path stroke="null" id="svg_61" fill="#f9d70b" d="m29.706466,202.625606s-13.978356,-47.64034 53.938596,-58.9268c78.279582,-13.011793 97.135225,-57.780197 97.135225,-57.780197s58.109799,69.445808 21.712679,121.29341l-172.7865,-4.586413zm0,0"/>
   <path stroke="null" id="svg_62" fill="#f3bb5d" d="m180.780286,85.918609l0.165122,0.229118l0.662953,0.84649l10.713259,15.222962l0.409227,0.615032l-0.002695,0.077296c2.529185,18.284484 -1.469226,36.808288 -11.446641,53.036697c-10.019171,14.035311 -26.380481,23.71726 -45.031223,26.644628l-3.636835,-14.733037c13.983503,-2.034475 26.292601,-9.208345 33.806812,-19.699842c11.739003,-16.737921 10.029707,-39.646146 7.858506,-51.849905l6.501516,-10.389439zm0,0"/>
  </g>
  <g stroke="null" transform="rotate(1.7425484657287598 79.99011230468521,151.89457702636693) " id="svg_66">
   <path stroke="null" id="svg_64" fill="#f9d70b" d="m18.63965,198.286288s-9.342672,-39.423917 36.050775,-48.763827c52.319479,-10.76768 64.921965,-47.814982 64.921965,-47.814982s38.838666,57.468651 14.512036,100.374206l-115.484776,-3.795397zm0,0"/>
   <path stroke="null" id="svg_65" fill="#f3bb5d" d="m119.61239,101.707478l0.110366,0.189601l0.443093,0.700499l7.160386,12.597498l0.273516,0.508957l-0.001803,0.063961c1.690425,15.131003 -0.981982,30.460051 -7.650554,43.889577c-6.69648,11.614675 -17.631843,19.626801 -30.097378,22.049291l-2.430745,-12.192058c9.346114,-1.683595 17.573105,-7.62021 22.595359,-16.302258c7.84596,-13.851171 6.70352,-32.808469 5.252364,-42.907466l4.345397,-8.597602zm0,0"/>
  </g>
   <g stroke="null" transform="matrix(33.577396192683196,0,0,11.814124464065664,-67.43551122612818,-250.33470270269027) " id="svg_76">
    <path stroke="null" id="svg_85" fill="#F9D70B" d="m6.399631,46.712708c-1.645,-0.386 -2.941,-0.841 -4,-1.25l0,9.379c0.486,0.299 0.989,0.592 1.527,0.87c8.723,4.507 11.882,2.324 11.473,-1c-0.75,-6.082 -2.25,-6.416 -9,-7.999z"/>
   </g>
   <defs><style>@font-face {font-family: "ISW";src: url("https://cdn.jsdelivr.net/gh/aminabedi68/Estedad/Font/FD%20(Farsi%20digits)/instances/Estedad-FD-Medium.woff2");}</style></defs>
  <text xml:space="preserve" text-anchor="start" font-family="ISW" font-size="77" id="svg_102" y="378.887699" x="15" stroke-opacity="null" stroke-width="0" stroke="null" fill="#3dabef">روغن حیوانی</text>
 </g>
</svg>