<svg width="512" height="512" version="1.1" xmlns="http://www.w3.org/2000/svg"><rect id="canvas_background" x="-1" y="-1" width="514" height="514" fill="none"/><g id="canvasGrid" x="0" y="0" width="100%" height="100%" display="none" overflow="visible"><rect width="100%" height="100%" fill="url(#gridpattern)" stroke-width="0"/></g><g stroke="null"><g transform="matrix(16.5 0 0 9.17 -171 8.92)"><path d="m25.7 25.4c-8.01 0-14.5-2.69-14.5-6v29c0 3.31 6.49 6 14.5 6s14.5-2.69 14.5-6v-29c0 3.31-6.49 6-14.5 6z" fill="#D2D5D7"/><path d="m25.7 30.3c-8.01 0-14.5-2.69-14.5-6v19.1c0 3.31 6.49 6.95 14.5 6.95s14.5-3.63 14.5-6.95v-19.1c0 3.31-6.49 6-14.5 6z" fill="#3DABEF"/><path d="m29.7 13.6c-1.29-0.155-2.64-0.242-4.05-0.242-8.01 0-14.5 2.69-14.5 6s6.49 6 14.5 6c7.2 0 13.2-2.17 14.3-5.02-1.95-0.113-5.98-2.75-10.2-6.74z" fill="#f9d70b"/><path d="m33 7.48c-5.66-5.66-11.3-9.19-12.6-7.88-0.697 0.697-0.014 2.63 1.62 5.13l4.16 0.594-1.88 2.5c1.15 1.41 2.49 2.9 3.98 4.4 5.66 5.66 11.3 9.19 12.6 7.88 1.31-1.31-2.22-6.96-7.88-12.6z" fill="#D2D5D7"/></g><g transform="rotate(-1 215 168)"><path transform="rotate(3.49 170 143)" d="m57.7 195s-17.1-43.7 65.9-54.1c95.7-11.9 119-53 119-53s71 63.7 26.5 111l-211-4.21z" fill="#f9d70b"/><g fill="#f3bb5d"><path transform="rotate(3.49 221 135)" d="m243 90.9 0.202 0.21 0.81 0.777 13.1 14 0.5 0.564-0.00329 0.0709c3.09 16.8-1.8 33.8-14 48.7-12.2 12.9-32.2 21.8-55 24.4l-4.44-13.5c17.1-1.87 32.1-8.45 41.3-18.1 14.3-15.4 12.3-36.4 9.6-47.6l7.95-9.53z"/><path transform="rotate(24.2 325 190)" d="m346 146 0.202 0.21 0.81 0.777 13.1 14 0.5 0.564-0.00329 0.0709c3.09 16.8-1.8 33.8-14 48.7-12.2 12.9-32.2 21.8-55 24.4l-4.44-13.5c17.1-1.87 32.1-8.45 41.3-18.1 14.3-15.4 12.3-36.4 9.6-47.6l7.95-9.53z"/><path transform="rotate(38.6 210 198)" d="m231 153 0.202 0.21 0.81 0.777 13.1 14 0.5 0.564-0.00329 0.0709c3.09 16.8-1.8 33.8-14 48.7-12.2 12.9-32.2 21.8-55 24.4l-4.44-13.5c17.1-1.87 32.1-8.45 41.3-18.1 14.3-15.4 12.3-36.4 9.6-47.6l7.95-9.53z"/></g></g><g transform="rotate(1.74 121 147)"><path d="m29.7 203s-14-47.6 53.9-58.9c78.3-13 97.1-57.8 97.1-57.8s58.1 69.4 21.7 121l-173-4.59z" fill="#f9d70b"/><path d="m181 85.9 0.165 0.229 0.663 0.846 10.7 15.2 0.409 0.615-0.0027 0.0773c2.53 18.3-1.47 36.8-11.4 53-10 14-26.4 23.7-45 26.6l-3.64-14.7c14-2.03 26.3-9.21 33.8-19.7 11.7-16.7 10-39.6 7.86-51.8l6.5-10.4z" fill="#f3bb5d"/></g><g transform="rotate(1.74 80 152)"><path d="m18.6 198s-9.34-39.4 36.1-48.8c52.3-10.8 64.9-47.8 64.9-47.8s38.8 57.5 14.5 100l-115-3.8z" fill="#f9d70b"/><path d="m120 102 0.11 0.19 0.443 0.7 7.16 12.6 0.274 0.509-0.0018 0.064c1.69 15.1-0.982 30.5-7.65 43.9-6.7 11.6-17.6 19.6-30.1 22l-2.43-12.2c9.35-1.68 17.6-7.62 22.6-16.3 7.85-13.9 6.7-32.8 5.25-42.9l4.35-8.6z" fill="#f3bb5d"/></g><g transform="matrix(33.6 0 0 11.8 -67.4 -250)"><path d="m6.4 46.7c-1.64-0.386-2.94-0.841-4-1.25v9.38c0.486 0.299 0.989 0.592 1.53 0.87 8.72 4.51 11.9 2.32 11.5-1-0.75-6.08-2.25-6.42-9-8z" fill="#F9D70B" stroke="null"/></g></g><defs><style>@font-face {font-family: "ISW";src: url("https://cdn.jsdelivr.net/gh/aminabedi68/Estedad/Font/FD%20(Farsi%20digits)/instances/Estedad-FD-Medium.woff2");}</style></defs><text x="15" y="378.887699" fill="#3dabef" font-family="ISW" font-size="77" stroke="null" stroke-opacity="null" stroke-width="0" xml:space="preserve">روغن حیوانی</text></svg>
