<svg width="512mm" height="512mm" version="1.1" viewBox="0 0 512 512" xmlns="http://www.w3.org/2000/svg"><g transform="translate(-367 -4.69)"><path d="m680 35.7 99.3 0.595s-0.0158 17.1 0 24.4c25.8-8.02 55.4-8.81 76 6.27 27.8 18.5 26 55.4 18.2 69.9-1.95 3.65-17.6-6.22-17.9-18.1 0.805-14.9-3.64-41.6-37.2-41.7-28.4-0.146-36.4 26.9-33.8 41.9-7.32 7.05 46.5 47.9 41.6 48.7 8.72 9.54 16.4 18.2 21.4 29.1 4.53 9.98 8.54 21.2 7.13 32.1-13.1 101-42.2 287-42.2 287l-165-0.595s-28.9-186-42.2-285c-0.711-5.31 0.265-12.8 1.43-18.2 1.45-6.67 3.52-11.1 6.89-16.9 7.47-12.7 14.9-24.5 26.8-31.5 14.8-8.65 26.5-13.8 33.6-22.4 4.45-5.4 5.22-12.1 6.28-18.6 4.66-28.4 0-86.2 0-86.2z" style="fill:#e1dbd2"/><path d="m631 170c22.7-18.3 48.5-21.2 49.7-51.4l104 0.444c0.702 8.13 13.2 27.3 36.3 27.7 25.9 0.478 35.1-21.4 34.9-27.9 7.81-0.0215 14.7-0.0429 22.5-0.0644 0 0 1.72 12.7-11.2 27.6-3.69 4.28-7.65 8.46-13.3 12-10.3 6.46-20.1 10.6-27.9 9.3 16.6 14 24.2 33.7 26.6 41.3 4.88 17.3 1.31 28.5-1.38 48.9-13 87.7-38.7 258-38.7 258l-165-0.595s-27.4-186-42.7-282c-0.267-29.6 7.46-47.4 26.3-62.6z" style="fill:#d45500"/><path d="m669 8.17c32 0.712 80 0.131 125 0.272 5.39 0.017 13.2 8.27 13.2 16.3-9e-3 8.25-7.98 16.3-13.5 16.3-37.4 0.136-81.3 0.108-125 0-5.5-0.0136-14.4-8.61-14.4-16.9 0.0758-8.26 9.16-16.2 14.6-16.1z" style="fill:#b6aaa0"/><path d="m669 8.17c32.3-0.107 80 0.0707 125 0.147 14.4 3.82 8.67 13.9 0.805 15.2-37.4 0.0734-82.4 0.187-126 0.129-13.2-3.55-9.84-14.6 0.272-15.4z" style="fill:#d9d2c4"/><ellipse cx="798" cy="404" rx="16.3" ry="16.4" style="fill:#fc944f;opacity:.923"/><ellipse cx="751" cy="465" rx="10.2" ry="10.6" style="fill:#fc944f;opacity:.923"/><ellipse cx="781" cy="333" rx="22.1" ry="22.7" style="fill:#f95;opacity:.923"/><path d="m780 41.3-0.152 19.4c-31.8-1.26-54.9 1.83-62.6 11.8-13.6 17.5-1.54 37-14.7 75.5-4.67 9.36-16.2 16.9-25.7 23.6-28.3 14.6-45.1 29.2-42.1 63.2-3.15 65.8 33.5 195 33.5 195 17.9 78.6 79 57.6 149 56.9l-4.26 29-165-0.588-42.7-279c-0.782-25 5.37-48.7 20.6-61.9 20.9-17.4 37.9-19.4 48.7-37.3 14.2-23.9 6.13-95.3 6.13-95.3z" style="fill:#fc6b00"/><path d="m780 41.3-0.152 19.4c-31.8-0.0081-49.9 1.67-62 12.6-8.69 10.5-7.51 32.7-8.92 45.4-6.65 0.0854-23.6-0.168-28.6-0.144 0.799-6.35 3.36-55.9-0.679-77.5z" style="fill:#d9d2c4"/><ellipse cx="695" cy="229" rx="22.6" ry="23.2" style="fill:#f95;opacity:.923"/><ellipse cx="686" cy="304" rx="12.8" ry="13.2" style="fill:#f95;opacity:.923"/></g><g transform="matrix(-.592 -.217 -.217 .592 397 310)"><circle cx="451" cy="411" r="60.5" style="fill:#744eaa"/><path d="m458 470c-32.6-7.58-52.8-40.1-45.2-72.7 5.68-24.4 25.4-41.9 48.6-45.9-31.4-5.4-61.9 14.5-69.2 45.9-7.58 32.6 12.7 65.1 45.2 72.7 8.16 1.9 16.3 2.05 24.1 0.698-1.16-0.201-2.33-0.426-3.5-0.698z" style="fill:#67449e"/><path d="m172 169c1.5 0.35 2.98 0.765 4.43 1.22 0.593-2.53 1.36-4.98 2.24-7.36-60.8-69.1-136-94.5-164-101-5.81-1.41-11.4 2.66-11.9 8.6l-2.98 37.1c-0.407 5.07 3.96 9.33 9.01 8.74 63-7.3 121 24.8 158 52 1.62 0.24 3.25 0.53 4.88 0.909z" style="fill:#93603e"/><path d="m149 133c-36.4-23.4-86.4-45.4-140-39.2-3.13 0.363-6-1.14-7.63-3.54l-1.38 17.2c-0.407 5.07 3.96 9.33 9.01 8.74 63-7.3 121 24.8 158 52 1.62 0.241 3.25 0.531 4.88 0.909 1.51 0.35 2.98 0.765 4.43 1.22 0.593-2.53 1.36-4.98 2.24-7.36-9.7-11-19.8-20.9-30-29.8z" style="fill:#7f573c"/><path d="m83.1 284c7.71-9.39 18.1-16.3 29.7-19.6 1.88 2.21-20.5-19.9-12.9-52.7 5.36-23 23.3-39.8 44.8-44.9-28.4-9.37-69-11.9-111 13.9-3.69 2.23-4.45 7.28-1.52 10.4 5.96 6.45 16.8 16.8 31.3 25.3 3.82 2.23 4.34 7.47 1.04 10.4-12 10.7-23.2 24.9-32.3 43.7-1.88 3.88 0.238 8.53 4.42 9.59 9.28 2.36 28 5.49 46.7 3.86z" style="fill:#3bbc56"/><path d="m58.2 280c-4.18-1.06-6.29-5.71-4.42-9.59 9.05-18.7 20.2-32.9 32.3-43.7 3.3-2.94 2.78-8.19-1.04-10.4-14.6-8.5-25.4-18.9-31.3-25.3-2.92-3.17-2.17-8.21 1.52-10.4 20.8-12.6 41.1-18.4 59.8-20-24.1-2.06-52.4 2.29-81.6 20-3.69 2.23-4.45 7.28-1.52 10.4 5.96 6.45 16.8 16.8 31.3 25.3 3.82 2.23 4.34 7.47 1.04 10.4-12 10.7-23.2 24.9-32.3 43.7-1.88 3.88 0.238 8.53 4.42 9.59 9.25 2.36 27.9 5.47 46.6 3.87-10.3-0.778-19.2-2.46-24.8-3.87z" style="fill:#30aa44"/><path d="m249 125c3.42 0.796 6.7 1.88 9.83 3.2 7.7-11.9 19.4-20.7 32.8-24.8 3.43-23.9-3.96-47.9-7.51-59-1.31-4.11-6.07-5.94-9.84-3.84-18.2 10.1-31.7 22.1-41.7 34.8-2.74 3.47-8.01 3.26-10.5-0.415-9.36-14-20.4-24.2-27.2-29.8-3.34-2.73-8.32-1.68-10.3 2.14-23.5 44.6-17.2 85.5-5.81 113 11-26.7 41.1-42.3 70.1-35.5z" style="fill:#3bbc56"/><path d="m203 52.6c-2.98-2.85-5.71-5.22-7.97-7.07-3.34-2.73-8.32-1.68-10.3 2.14-23.5 44.6-17.2 85.5-5.81 113 3.25-7.88 8.16-14.8 14.2-20.4-5.86-24.6-5.9-55.2 9.91-88z" style="fill:#30aa44"/><circle cx="308" cy="160" r="60.5" style="fill:#744eaa"/><path d="m314 219c-32.6-7.58-52.8-40.1-45.2-72.7 5.68-24.4 25.4-41.9 48.6-45.9-31.4-5.4-61.9 14.5-69.2 45.9-7.58 32.6 12.7 65.1 45.2 72.7 8.16 1.9 16.3 2.05 24.1 0.698-1.16-0.201-2.33-0.427-3.5-0.698z" style="fill:#67449e"/><circle cx="241" cy="357" r="60.5" style="fill:#744eaa"/><path d="m248 415c-32.6-7.58-52.8-40.1-45.2-72.7 5.68-24.4 25.4-41.9 48.6-45.9-31.4-5.4-61.9 14.5-69.2 45.9-7.58 32.6 12.7 65.1 45.2 72.7 8.16 1.9 16.3 2.05 24.1 0.698-1.16-0.201-2.33-0.427-3.5-0.698z" style="fill:#67449e"/><circle cx="127" cy="322" r="60.5" style="fill:#744eaa"/><path d="m134 381c-32.6-7.58-52.8-40.1-45.2-72.7 5.68-24.4 25.4-41.9 48.6-45.9-31.4-5.4-61.9 14.5-69.2 45.9-7.58 32.6 12.7 65.1 45.2 72.7 8.16 1.9 16.3 2.05 24.1 0.698-1.16-0.201-2.33-0.427-3.5-0.698z" style="fill:#67449e"/><circle cx="233" cy="181" r="60.5" style="fill:#553788"/><path d="m240 240c-32.6-7.58-52.8-40.1-45.2-72.7 5.68-24.4 25.4-41.9 48.6-45.9-31.4-5.41-61.9 14.5-69.2 45.9-7.58 32.6 12.7 65.1 45.2 72.7 8.16 1.9 16.3 2.05 24.1 0.695-1.16-0.2-2.32-0.425-3.48-0.695z" style="fill:#462e7a"/><circle cx="319" cy="240" r="60.1" style="fill:#9266cc"/><path d="m326 299c-32.3-7.52-52.4-39.8-44.9-72.1 5.63-24.2 25.1-41.5 48.1-45.6-31.2-5.42-61.5 14.4-68.8 45.6-7.52 32.3 12.6 64.6 44.9 72.1 8.12 1.89 16.2 2.03 24 0.677-1.12-0.195-2.24-0.415-3.37-0.677z" style="fill:#7b54ba"/><circle cx="412" cy="324" r="60.1" style="fill:#9266cc"/><path d="m419 383c-32.3-7.52-52.4-39.8-44.9-72.1 5.63-24.2 25.1-41.5 48.1-45.6-31.2-5.42-61.5 14.4-68.8 45.6-7.52 32.3 12.6 64.6 44.9 72.1 8.12 1.89 16.2 2.03 24 0.677-1.12-0.195-2.24-0.415-3.37-0.677z" style="fill:#7b54ba"/><circle cx="354" cy="404" r="60.1" style="fill:#9266cc"/><path d="m361 462c-32.3-7.52-52.4-39.8-44.9-72.1 5.63-24.2 25.1-41.5 48.1-45.6-31.2-5.42-61.5 14.4-68.8 45.6-7.52 32.3 12.6 64.6 44.9 72.1 8.12 1.89 16.2 2.03 24 0.677-1.12-0.196-2.25-0.416-3.37-0.677z" style="fill:#7b54ba"/><circle cx="156" cy="225" r="60.1" style="fill:#9266cc"/><path d="m163 284c-32.3-7.52-52.4-39.8-44.9-72.1 5.63-24.2 25.1-41.5 48.1-45.6-31.2-5.42-61.5 14.4-68.8 45.6-7.52 32.3 12.6 64.6 44.9 72.1 8.12 1.89 16.2 2.03 24 0.677-1.12-0.195-2.25-0.415-3.37-0.677z" style="fill:#7b54ba"/><circle cx="229" cy="285" r="60.1" style="fill:#aa8dd8"/><path d="m236 343c-32.3-7.52-52.4-39.8-44.9-72.1 5.63-24.2 25.1-41.5 48.1-45.6-31.2-5.42-61.5 14.4-68.7 45.6-7.52 32.3 12.6 64.6 44.9 72.1 8.12 1.89 16.2 2.03 24 0.677-1.12-0.195-2.24-0.415-3.37-0.677z" style="fill:#987fc9"/><circle cx="323" cy="324" r="60.1" style="fill:#aa8dd8"/><path d="m329 383c-32.3-7.52-52.4-39.8-44.9-72.1 5.63-24.2 25.1-41.5 48.1-45.6-31.2-5.42-61.5 14.4-68.7 45.6-7.52 32.3 12.6 64.6 44.9 72.1 8.12 1.89 16.2 2.03 24 0.677-1.12-0.195-2.24-0.415-3.37-0.677z" style="fill:#987fc9"/></g><g transform="matrix(-.565 .209 .209 .565 204 -11.1)"><path d="m7.44 19.4c18-0.016 39.6 2.77 58.8 8.52 31.9 9.56 59.4 28.2 69 60.2 5.64 18.4 3.98 42.2 0.349 57.2-12.9 52.5-59.7 58-81 33.7-16.3-18.5-12.5-47.3 3.17-69.1 25.7-35.7 77.5-48.9 117-8.58 22.2 22.7 43.9 68 45.4 112 0.433 13.1-0.664 24.5-2.13 33.7-1.48 9.24-3.29 16.4-4.6 21.2-0.669 2.4-1.2 4.23-1.59 5.46-0.376 1.23-0.57 1.86-0.57 1.86-2.97 9.7-13.2 15.2-22.9 12.2-9.7-2.97-15.2-13.2-12.2-22.9 0.105-0.34 0.217-0.675 0.339-1l0.09-0.241s0.192-0.513 0.564-1.51c0.38-0.992 0.91-2.47 1.58-4.41 1.32-3.88 3.15-9.6 4.81-17 1.65-7.41 3.09-16.5 3.39-27 0.475-17.6-2.35-32.9-7.54-48.6 9e-3 0.019-0.1-0.285 6e-3 0-6.16-16.2-13.4-31.7-25.1-44.3-27.4-29.7-60.2-16.6-75.9 4.03-6.47 8.42-10.3 18.2-9.46 28.9-0.071-0.654-8e-3 -0.1-0.019-0.209 0.173 1.33 0.524 5.55 3.87 9.68 9.15 11.4 33.2 9.79 42.3-23.4 3.5-12.7 5.18-32.5 1.39-46.4-6.93-26-29.9-41.1-55.3-49.6-17.2-5.77-37-9.05-54-9.62-4.11-0.136-7.33-3.58-7.2-7.69 0.132-4.02 3.45-7.2 7.44-7.2z" style="fill:#708f44"/><path d="m197 302c-3.83 0-7.7-1.2-11-3.67-31.2-23.4-69.5-27.4-114-11.9-9.56 3.36-20-1.67-23.4-11.2-3.36-9.57 1.67-20 11.2-23.4 55.7-19.5 107-13.6 148 17.2 8.11 6.08 9.76 17.6 3.67 25.7-3.61 4.81-9.12 7.34-14.7 7.34z" style="fill:#533f29"/><path d="m145 279c30.2-18 69.2-8.11 87.2 22 18 30.2 8.15 69.2-22 87.2-30.2 18-69.3 8.17-87.3-22-18-30.2-8.14-69.2 22-87.2z" style="fill:#a8da64"/><path d="m202 374c30.2-18 69.2-8.13 87.2 22 18 30.2 8.13 69.2-22 87.2-30.2 18-69.2 8.14-87.2-22-18-30.1-8.14-69.2 22-87.2z" style="fill:#7fa24d"/><path d="m196 185c30.2-18 69.2-8.13 87.2 22.1 18 30.1 8.15 69.2-22 87.2-30.2 18-69.2 8.15-87.2-22-18-30.1-8.14-69.2 22-87.2z" style="fill:#7fa24d"/><path d="m416 374c30.1-18 69.2-8.1 87.2 22 18 30.2 8.16 69.2-22 87.2-30.2 18-69.2 8.16-87.3-22-18-30.2-8.15-69.2 22-87.3z" style="fill:#a8da64"/><path d="m359 280c30.2-18 69.2-8.1 87.2 22.1 18 30.2 8.14 69.2-22 87.2-30.2 18-69.2 8.13-87.2-22-18-30.1-8.14-69.2 22-87.2z" style="fill:#7fa24d"/><path d="m303 185c30.1-18 69.2-8.11 87.2 22 18 30.2 8.15 69.2-22 87.2-30.1 18-69.2 8.16-87.2-22-18-30.1-8.15-69.2 22-87.3z" style="fill:#a8da64"/><path d="m309 374c30.2-18 69.2-8.11 87.2 22 18 30.2 8.13 69.2-22 87.2-30.2 18-69.2 8.14-87.2-22-18-30.2-8.15-69.2 22-87.3z" style="fill:#9bc95c"/><path d="m252 280c30.1-18 69.2-8.07 87.2 22.1 18 30.2 8.14 69.2-22 87.2-30.2 18-69.2 8.14-87.2-22-18-30.1-8.16-69.2 22.1-87.3z" style="fill:#b5db81"/></g><path d="m463 246c0.625 0.141 1.25 0.226 1.93 0.254 5.99 0.255 11.1-4.38 11.3-10.4 1.79-40.8-28.6-65.4-29.9-66.5-4.75-3.72-11.5-2.93-15.3 1.75-3.72 4.69-2.95 11.5 1.72 15.2 0.462 0.371 23.1 19.2 21.8 48.5-0.239 5.33 3.41 9.93 8.45 11.1z" style="fill:#fff;stroke-width:10.9"/></svg>
