<?xml version="1.0" encoding="UTF-8" standalone="no"?>
<svg
   xmlns:dc="http://purl.org/dc/elements/1.1/"
   xmlns:cc="http://creativecommons.org/ns#"
   xmlns:rdf="http://www.w3.org/1999/02/22-rdf-syntax-ns#"
   xmlns:svg="http://www.w3.org/2000/svg"
   xmlns="http://www.w3.org/2000/svg"
   xmlns:sodipodi="http://sodipodi.sourceforge.net/DTD/sodipodi-0.dtd"
   xmlns:inkscape="http://www.inkscape.org/namespaces/inkscape"
   sodipodi:docname="grapemolasses (1).svg"
   inkscape:version="1.0 (4035a4f, 2020-05-01)"
   id="svg8"
   version="1.1"
   viewBox="0 0 512 512"
   height="512mm"
   width="512mm">
  <defs
     id="defs2" />
  <sodipodi:namedview
     inkscape:window-maximized="0"
     inkscape:window-y="23"
     inkscape:window-x="0"
     inkscape:window-height="723"
     inkscape:window-width="1366"
     showgrid="false"
     inkscape:document-rotation="0"
     inkscape:current-layer="layer1"
     inkscape:document-units="mm"
     inkscape:cy="1323.3711"
     inkscape:cx="1286.7044"
     inkscape:zoom="0.11911081"
     inkscape:pageshadow="2"
     inkscape:pageopacity="0.0"
     borderopacity="1.0"
     bordercolor="#666666"
     pagecolor="#ffffff"
     id="base" />
  <metadata
     id="metadata5">
    <rdf:RDF>
      <cc:Work
         rdf:about="">
        <dc:format>image/svg+xml</dc:format>
        <dc:type
           rdf:resource="http://purl.org/dc/dcmitype/StillImage" />
        <dc:title />
      </cc:Work>
    </rdf:RDF>
  </metadata>
  <g
     id="layer1"
     inkscape:groupmode="layer"
     inkscape:label="Layer 1">
    <g
       transform="translate(-367.22591,-4.6920548)"
       id="g1054">
      <path
         sodipodi:nodetypes="ccccscsccasccsssssac"
         id="path24-8"
         d="m 680.15434,35.669791 99.28328,0.59451 c 0,0 -0.0158,17.10186 0,24.37492 25.78053,-8.02319 55.37282,-8.80874 76.04881,6.27429 27.84344,18.51837 25.96926,55.424059 18.22023,69.913809 -1.95302,3.65191 -17.60348,-6.21534 -17.8634,-18.10947 0.80465,-14.92213 -3.63574,-41.550227 -37.24862,-41.722934 -28.44673,-0.146162 -36.4054,26.915884 -33.80785,41.929724 -7.31886,7.05369 46.50046,47.89629 41.61717,48.7265 8.71615,9.54373 16.42155,18.15934 21.40237,29.13102 4.53145,9.98181 8.54494,21.23249 7.13413,32.10357 -13.08771,100.84941 -42.21024,286.5541 -42.21024,286.5541 l -165.27395,-0.59452 c 0,0 -28.89415,-185.80642 -42.21025,-285.36507 -0.71052,-5.31222 0.26503,-12.82696 1.43099,-18.19869 1.44828,-6.67235 3.5201,-11.13748 6.89215,-16.87744 7.46601,-12.70874 14.86436,-24.54494 26.75298,-31.50905 14.7652,-8.64916 26.45689,-13.82427 33.55445,-22.43688 4.45404,-5.40476 5.21743,-12.13222 6.27775,-18.58436 4.65969,-28.354359 0,-86.204029 0,-86.204029 z"
         style="fill:#e1dbd2;fill-opacity:1;stroke:none;stroke-width:0.328168px;stroke-linecap:butt;stroke-linejoin:miter;stroke-opacity:1" />
      <path
         sodipodi:nodetypes="sccsccssccccccss"
         id="path868-1"
         d="m 631.1061,169.83441 c 22.68261,-18.32653 48.45342,-21.17879 49.72759,-51.35391 l 103.9531,0.44414 c 0.70187,8.12949 13.23588,27.30293 36.32398,27.72861 25.91679,0.47784 35.0672,-21.42994 34.88084,-27.92176 7.81035,-0.0215 14.7077,-0.0429 22.51805,-0.0644 0,0 1.71651,12.68359 -11.18107,27.64692 -3.68625,4.27668 -7.65059,8.46288 -13.2629,11.9733 -10.32301,6.45691 -20.12715,10.55269 -27.90052,9.2987 16.63688,13.97802 24.16621,33.7183 26.64991,41.26568 4.88458,17.25835 1.31093,28.50529 -1.38134,48.86297 -12.99763,87.69147 -38.70352,257.72513 -38.70352,257.72513 l -165.27395,-0.59452 c 0,0 -27.39073,-186.12223 -42.66726,-282.39933 -0.26712,-29.58992 7.46203,-47.37754 26.31709,-62.61157 z"
         style="fill:#d45500;fill-opacity:1;stroke:none;stroke-width:0.328168px;stroke-linecap:butt;stroke-linejoin:miter;stroke-opacity:1" />
      <path
         sodipodi:nodetypes="sssssss"
         id="path1069-71"
         d="m 668.70773,8.171581 c 32.01136,0.71193 79.9825,0.13129 124.76099,0.27241 5.38818,0.017 13.22102,8.27277 13.21308,16.34463 -0.009,8.25185 -7.97719,16.32377 -13.4855,16.34385 -37.42842,0.13645 -81.31129,0.10803 -124.76096,0 -5.50113,-0.0136 -14.44428,-8.60995 -14.36828,-16.88842 0.0758,-8.25599 9.15583,-16.19445 14.64067,-16.07247 z"
         style="fill:#b6aaa0;fill-opacity:1;stroke:none;stroke-width:0.328168px;stroke-linecap:butt;stroke-linejoin:miter;stroke-opacity:1" />
      <path
         style="fill:#d9d2c4;fill-opacity:1;stroke:none;stroke-width:0.240733px;stroke-linecap:butt;stroke-linejoin:miter;stroke-opacity:1"
         d="m 668.70773,8.171581 c 32.28594,-0.10716 79.9825,0.0707 124.761,0.1466 14.37315,3.82488 8.67437,13.90057 0.80457,15.16724 -37.42844,0.0734 -82.38828,0.18697 -125.83796,0.12883 -13.17446,-3.54541 -9.83731,-14.61813 0.27239,-15.44267 z"
         id="path1069-7-3"
         sodipodi:nodetypes="ccccc" />
      <ellipse
         ry="16.357393"
         rx="16.251156"
         cy="404.31259"
         cx="798.49103"
         id="path870-72-0"
         style="opacity:0.923;fill:#fc944f;fill-opacity:1;stroke:none;stroke-width:3.25318;stroke-linecap:round;stroke-linejoin:round;stroke-opacity:1" />
      <ellipse
         style="opacity:0.923;fill:#fc944f;fill-opacity:1;stroke:none;stroke-width:2.07851;stroke-linecap:round;stroke-linejoin:round;stroke-opacity:1"
         id="path870-72-9-0-4-4"
         cx="751.35443"
         cy="464.54117"
         rx="10.202239"
         ry="10.636378" />
      <ellipse
         ry="22.662849"
         rx="22.066471"
         cy="333.18002"
         cx="780.61487"
         id="path870-9-6"
         style="opacity:0.923;fill:#ff9955;fill-opacity:1;stroke:none;stroke-width:4.46204;stroke-linecap:round;stroke-linejoin:round;stroke-opacity:1" />
      <path
         style="fill:#fc6b00;fill-opacity:1;stroke:none;stroke-width:0.263116px;stroke-linecap:butt;stroke-linejoin:miter;stroke-opacity:1"
         d="m 779.59,41.256572 -0.15238,19.382649 c -31.8255,-1.26398 -54.85646,1.831956 -62.6465,11.846805 -13.63638,17.530873 -1.53724,36.971604 -14.6609,75.537224 -4.66914,9.36142 -16.17552,16.90079 -25.67043,23.60867 -28.28683,14.56553 -45.09431,29.2379 -42.13173,63.18923 -3.14566,65.77743 33.54903,194.68834 33.54903,194.68834 17.89288,78.61179 79.00312,57.55523 149.10821,56.92699 l -4.25508,29.00335 -165.27396,-0.58795 -42.66727,-279.27756 c -0.78249,-25.04312 5.37427,-48.66823 20.57387,-61.91944 20.94734,-17.42538 37.93951,-19.35861 48.66014,-37.34126 14.24404,-23.89277 6.13134,-95.340233 6.13134,-95.340233 z"
         id="path202"
         sodipodi:nodetypes="ccscccccccccscc" />
      <path
         sodipodi:nodetypes="ccccccc"
         id="path202-1"
         d="m 779.59,41.256572 -0.15238,19.382649 c -31.8255,-0.0081 -49.85791,1.667609 -61.96681,12.607928 -8.69294,10.472476 -7.50855,32.704951 -8.91661,45.414391 -6.64691,0.0854 -23.61366,-0.16762 -28.60707,-0.14409 0.79857,-6.35157 3.35887,-55.902695 -0.67935,-77.507113 z"
         style="fill:#d9d2c4;fill-opacity:1;stroke:none;stroke-width:0.263116px;stroke-linecap:butt;stroke-linejoin:miter;stroke-opacity:1" />
      <ellipse
         style="opacity:0.923;fill:#ff9955;fill-opacity:1;stroke:none;stroke-width:4.57046;stroke-linecap:round;stroke-linejoin:round;stroke-opacity:1"
         id="path870-9-6-9"
         cx="695.09064"
         cy="229.02856"
         rx="22.602638"
         ry="23.213509" />
      <ellipse
         ry="13.193249"
         rx="12.846064"
         cy="303.96387"
         cx="686.13391"
         id="path870-9-6-9-2"
         style="opacity:0.923;fill:#ff9955;fill-opacity:1;stroke:none;stroke-width:2.5976;stroke-linecap:round;stroke-linejoin:round;stroke-opacity:1" />
    </g>
    <g
       transform="matrix(-0.59160153,-0.21669987,-0.21669987,0.59160153,396.63097,309.53333)"
       id="g1245">
      <circle
         style="fill:#744eaa"
         cx="451.47"
         cy="411.42599"
         r="60.52"
         id="circle1109" />
      <path
         style="fill:#67449e"
         d="m 458.328,470.367 c -32.552,-7.577 -52.798,-40.109 -45.22,-72.661 5.679,-24.395 25.372,-41.877 48.586,-45.918 -31.354,-5.403 -61.858,14.532 -69.164,45.918 -7.577,32.552 12.668,65.083 45.22,72.661 8.157,1.899 16.312,2.049 24.074,0.698 -1.164,-0.201 -2.33,-0.426 -3.496,-0.698 z"
         id="path1111" />
      <path
         style="fill:#93603e"
         d="m 172.053,169.022 c 1.505,0.35 2.979,0.765 4.429,1.221 0.593,-2.533 1.355,-4.98 2.241,-7.355 C 117.938,93.787 42.339,68.364 14.9,61.717 9.09,60.31 3.479,64.38 3.003,70.315 l -2.977,37.101 c -0.407,5.074 3.959,9.33 9.007,8.745 62.963,-7.295 121.331,24.772 158.144,51.952 1.624,0.24 3.249,0.53 4.876,0.909 z"
         id="path1113" />
      <path
         style="fill:#7f573c"
         d="M 148.749,133.05 C 112.325,109.657 62.328,87.631 9.034,93.805 5.901,94.168 3.033,92.664 1.403,90.26 l -1.377,17.156 c -0.407,5.074 3.959,9.33 9.007,8.745 62.963,-7.295 121.331,24.772 158.144,51.952 1.623,0.241 3.249,0.531 4.875,0.909 1.506,0.35 2.979,0.765 4.429,1.22 0.593,-2.533 1.355,-4.98 2.241,-7.355 -9.698,-11.025 -19.775,-20.934 -29.973,-29.837 z"
         id="path1115" />
      <path
         style="fill:#3bbc56"
         d="m 83.067,284.142 c 7.706,-9.393 18.096,-16.257 29.723,-19.645 1.882,2.214 -20.481,-19.894 -12.856,-52.653 5.358,-23.018 23.29,-39.825 44.841,-44.875 -28.386,-9.372 -68.967,-11.869 -111.454,13.864 -3.688,2.234 -4.446,7.277 -1.521,10.445 5.956,6.453 16.773,16.835 31.348,25.34 3.82,2.229 4.338,7.473 1.036,10.415 -12.046,10.734 -23.214,24.926 -32.267,43.656 -1.876,3.881 0.238,8.528 4.415,9.592 9.275,2.361 27.99,5.487 46.735,3.861 z"
         id="path1117" />
      <path
         style="fill:#30aa44"
         d="m 58.169,280.28 c -4.177,-1.063 -6.291,-5.711 -4.415,-9.592 9.053,-18.73 20.221,-32.922 32.267,-43.655 3.302,-2.942 2.784,-8.186 -1.036,-10.415 -14.575,-8.505 -25.392,-18.887 -31.348,-25.34 -2.925,-3.168 -2.167,-8.211 1.521,-10.445 20.775,-12.583 41.09,-18.404 59.751,-19.984 -24.066,-2.056 -52.376,2.292 -81.588,19.984 -3.688,2.234 -4.446,7.277 -1.521,10.445 5.956,6.453 16.773,16.835 31.348,25.34 3.82,2.23 4.338,7.473 1.036,10.415 -12.046,10.734 -23.214,24.926 -32.267,43.655 -1.876,3.881 0.238,8.528 4.415,9.592 9.254,2.357 27.905,5.472 46.609,3.87 -10.289,-0.778 -19.224,-2.457 -24.772,-3.87 z"
         id="path1119" />
      <path
         style="fill:#3bbc56"
         d="m 248.579,125.439 c 3.422,0.796 6.7,1.881 9.829,3.204 7.702,-11.945 19.4,-20.697 32.789,-24.842 3.426,-23.897 -3.962,-47.939 -7.506,-59.05 -1.31,-4.107 -6.074,-5.941 -9.837,-3.838 -18.159,10.149 -31.663,22.139 -41.663,34.801 -2.741,3.471 -8.006,3.265 -10.458,-0.415 -9.356,-14.044 -20.361,-24.226 -27.156,-29.789 -3.337,-2.731 -8.325,-1.676 -10.336,2.138 -23.516,44.605 -17.203,85.46 -5.809,113.335 11.015,-26.72 41.083,-42.309 70.147,-35.544 z"
         id="path1121" />
      <path
         style="fill:#30aa44"
         d="m 202.547,52.579 c -2.977,-2.846 -5.709,-5.219 -7.97,-7.069 -3.336,-2.731 -8.325,-1.676 -10.336,2.138 -23.516,44.604 -17.203,85.46 -5.809,113.335 3.247,-7.878 8.161,-14.778 14.207,-20.433 -5.857,-24.582 -5.898,-55.154 9.908,-87.971 z"
         id="path1123" />
      <circle
         style="fill:#744eaa"
         cx="307.53"
         cy="160.006"
         r="60.52"
         id="circle1125" />
      <path
         style="fill:#67449e"
         d="m 314.387,218.949 c -32.552,-7.577 -52.798,-40.109 -45.22,-72.661 5.679,-24.395 25.372,-41.877 48.586,-45.918 -31.354,-5.403 -61.858,14.532 -69.164,45.918 -7.577,32.552 12.668,65.083 45.22,72.661 8.157,1.899 16.312,2.049 24.074,0.698 -1.165,-0.201 -2.33,-0.427 -3.496,-0.698 z"
         id="path1127" />
      <circle
         style="fill:#744eaa"
         cx="241.00999"
         cy="356.526"
         r="60.52"
         id="circle1129" />
      <path
         style="fill:#67449e"
         d="m 247.873,415.467 c -32.552,-7.577 -52.798,-40.109 -45.22,-72.66 5.679,-24.395 25.372,-41.877 48.586,-45.918 -31.354,-5.403 -61.858,14.532 -69.164,45.918 -7.577,32.552 12.668,65.083 45.22,72.66 8.157,1.899 16.312,2.049 24.074,0.698 -1.164,-0.201 -2.33,-0.427 -3.496,-0.698 z"
         id="path1131" />
      <circle
         style="fill:#744eaa"
         cx="127.34"
         cy="321.72601"
         r="60.52"
         id="circle1133" />
      <path
         style="fill:#67449e"
         d="m 134.202,380.664 c -32.552,-7.577 -52.798,-40.109 -45.22,-72.661 5.679,-24.395 25.372,-41.877 48.586,-45.918 -31.354,-5.403 -61.858,14.532 -69.164,45.918 -7.577,32.552 12.668,65.083 45.22,72.661 8.157,1.899 16.312,2.049 24.074,0.698 -1.165,-0.201 -2.33,-0.427 -3.496,-0.698 z"
         id="path1135" />
      <circle
         style="fill:#553788"
         cx="233.25"
         cy="181.42599"
         r="60.52"
         id="circle1137" />
      <path
         style="fill:#462e7a"
         d="m 240.132,240.368 c -32.552,-7.577 -52.798,-40.109 -45.22,-72.661 5.678,-24.391 25.366,-41.871 48.574,-45.916 -31.359,-5.412 -61.872,14.525 -69.179,45.916 -7.577,32.552 12.668,65.083 45.22,72.661 8.161,1.9 16.321,2.049 24.086,0.695 -1.16,-0.2 -2.32,-0.425 -3.481,-0.695 z"
         id="path1139" />
      <circle
         style="fill:#9266cc"
         cx="319.48001"
         cy="240.436"
         r="60.060001"
         id="circle1141" />
      <path
         style="fill:#7b54ba"
         d="m 326.466,298.931 c -32.309,-7.521 -52.403,-39.809 -44.883,-72.118 5.63,-24.185 25.139,-41.523 48.145,-45.56 -31.155,-5.424 -61.49,14.374 -68.75,45.56 -7.521,32.309 12.574,64.597 44.883,72.118 8.124,1.891 16.246,2.033 23.974,0.677 -1.123,-0.195 -2.245,-0.415 -3.369,-0.677 z"
         id="path1143" />
      <circle
         style="fill:#9266cc"
         cx="412.20001"
         cy="324.056"
         r="60.060001"
         id="circle1145" />
      <path
         style="fill:#7b54ba"
         d="m 419.185,382.553 c -32.309,-7.521 -52.403,-39.809 -44.883,-72.118 5.63,-24.185 25.139,-41.523 48.145,-45.56 -31.155,-5.424 -61.49,14.374 -68.75,45.56 -7.521,32.309 12.574,64.597 44.883,72.118 8.124,1.891 16.246,2.033 23.974,0.677 -1.123,-0.195 -2.245,-0.415 -3.369,-0.677 z"
         id="path1147" />
      <circle
         style="fill:#9266cc"
         cx="354"
         cy="403.526"
         r="60.060001"
         id="circle1149" />
      <path
         style="fill:#7b54ba"
         d="m 360.988,462.024 c -32.309,-7.521 -52.403,-39.809 -44.883,-72.118 5.63,-24.185 25.139,-41.523 48.145,-45.56 -31.155,-5.424 -61.49,14.374 -68.75,45.56 -7.521,32.309 12.574,64.597 44.883,72.118 8.124,1.891 16.246,2.033 23.974,0.677 -1.123,-0.196 -2.246,-0.416 -3.369,-0.677 z"
         id="path1151" />
      <circle
         style="fill:#9266cc"
         cx="156.37"
         cy="225.466"
         r="60.060001"
         id="circle1153" />
      <path
         style="fill:#7b54ba"
         d="m 163.354,283.961 c -32.309,-7.521 -52.403,-39.809 -44.883,-72.118 5.63,-24.185 25.139,-41.523 48.145,-45.56 -31.155,-5.424 -61.49,14.374 -68.75,45.56 -7.521,32.309 12.574,64.597 44.883,72.118 8.124,1.891 16.246,2.033 23.974,0.677 -1.123,-0.195 -2.246,-0.415 -3.369,-0.677 z"
         id="path1155" />
      <circle
         style="fill:#aa8dd8"
         cx="228.98"
         cy="284.59601"
         r="60.060001"
         id="circle1157" />
      <path
         style="fill:#987fc9"
         d="m 235.714,343.092 c -32.309,-7.521 -52.404,-39.809 -44.883,-72.118 5.63,-24.185 25.138,-41.523 48.144,-45.56 -31.155,-5.424 -61.49,14.374 -68.749,45.56 -7.521,32.309 12.574,64.597 44.883,72.118 8.124,1.891 16.245,2.033 23.973,0.677 -1.122,-0.195 -2.245,-0.415 -3.368,-0.677 z"
         id="path1159" />
      <circle
         style="fill:#aa8dd8"
         cx="322.73001"
         cy="324.056"
         r="60.060001"
         id="circle1161" />
      <path
         style="fill:#987fc9"
         d="m 329.456,382.553 c -32.309,-7.521 -52.404,-39.809 -44.883,-72.118 5.63,-24.185 25.138,-41.523 48.144,-45.56 -31.155,-5.424 -61.49,14.374 -68.749,45.56 -7.521,32.309 12.574,64.597 44.883,72.118 8.124,1.891 16.245,2.033 23.973,0.677 -1.122,-0.195 -2.244,-0.415 -3.368,-0.677 z"
         id="path1163" />
      <g
         id="g1165" />
      <g
         id="g1167" />
      <g
         id="g1169" />
      <g
         id="g1171" />
      <g
         id="g1173" />
      <g
         id="g1175" />
      <g
         id="g1177" />
      <g
         id="g1179" />
      <g
         id="g1181" />
      <g
         id="g1183" />
      <g
         id="g1185" />
      <g
         id="g1187" />
      <g
         id="g1189" />
      <g
         id="g1191" />
      <g
         id="g1193" />
    </g>
    <g
       transform="matrix(-0.56503039,0.20901222,0.20901222,0.56503039,203.59165,-11.09587)"
       id="g1332">
      <path
         style="fill:#708f44"
         d="m 7.443,19.397 c 18.014,-0.016 39.578,2.768 58.821,8.524 31.877,9.563 59.404,28.179 69.039,60.166 5.641,18.425 3.976,42.206 0.349,57.169 -12.925,52.47 -59.711,58.002 -80.99,33.653 -16.325,-18.456 -12.501,-47.308 3.172,-69.062 25.678,-35.651 77.469,-48.932 116.881,-8.582 22.25,22.696 43.914,67.997 45.422,112.357 0.433,13.091 -0.664,24.499 -2.13,33.732 -1.482,9.243 -3.286,16.352 -4.597,21.157 -0.669,2.398 -1.203,4.232 -1.587,5.457 -0.376,1.229 -0.57,1.864 -0.57,1.864 -2.971,9.703 -13.244,15.159 -22.947,12.189 -9.703,-2.971 -15.16,-13.244 -12.189,-22.947 0.105,-0.34 0.217,-0.675 0.339,-1.004 l 0.09,-0.241 c 0,0 0.192,-0.513 0.564,-1.507 0.38,-0.992 0.91,-2.473 1.582,-4.41 1.319,-3.877 3.149,-9.603 4.811,-17.016 1.65,-7.409 3.09,-16.521 3.394,-27.044 0.475,-17.555 -2.348,-32.947 -7.544,-48.595 0.009,0.019 -0.1,-0.285 0.006,0 -6.16,-16.22 -13.439,-31.727 -25.116,-44.308 -27.419,-29.714 -60.212,-16.642 -75.893,4.027 -6.47,8.424 -10.262,18.167 -9.456,28.856 -0.071,-0.654 -0.008,-0.1 -0.019,-0.209 0.173,1.33 0.524,5.55 3.874,9.678 9.147,11.4 33.159,9.793 42.313,-23.371 3.505,-12.716 5.176,-32.476 1.391,-46.44 C 109.525,67.5 86.562,52.431 61.178,43.907 43.974,38.134 24.195,34.853 7.203,34.291 3.092,34.155 -0.131,30.713 0.004,26.601 0.136,22.577 3.45,19.405 7.443,19.397 Z"
         id="path1247" />
      <path
         style="fill:#533f29"
         d="m 196.559,302.017 c -3.834,0 -7.7,-1.195 -11.003,-3.674 -31.223,-23.417 -69.452,-27.428 -113.632,-11.915 -9.562,3.36 -20.047,-1.673 -23.407,-11.243 -3.359,-9.568 1.673,-20.047 11.243,-23.407 55.66,-19.541 106.779,-13.599 147.83,17.188 8.113,6.084 9.757,17.593 3.673,25.707 -3.607,4.807 -9.122,7.344 -14.704,7.344 z"
         id="path1249" />
      <path
         style="fill:#a8da64"
         d="m 145.36,279.321 c 30.156,-17.981 69.231,-8.11 87.243,22.016 17.999,30.169 8.147,69.246 -22.024,87.228 -30.167,18.017 -69.254,8.166 -87.258,-22.003 -17.98,-30.169 -8.144,-69.238 22.039,-87.241 z"
         id="path1251" />
      <g
         id="g1257">
        <path
           style="fill:#7fa24d"
           d="m 201.796,373.853 c 30.151,-18.002 69.223,-8.128 87.225,22.038 18,30.15 8.126,69.21 -22.022,87.229 -30.171,17.982 -69.223,8.14 -87.227,-22.028 -18.013,-30.148 -8.143,-69.239 22.024,-87.239 z"
           id="path1253" />
        <path
           style="fill:#7fa24d"
           d="m 195.919,185.026 c 30.164,-18.002 69.241,-8.13 87.227,22.058 18.012,30.13 8.154,69.185 -22.01,87.218 -30.18,18.004 -69.238,8.149 -87.241,-22.037 -17.978,-30.132 -8.144,-69.237 22.024,-87.239 z"
           id="path1255" />
      </g>
      <path
         style="fill:#a8da64"
         d="m 415.771,374.331 c 30.134,-17.982 69.248,-8.097 87.227,22.04 18.002,30.167 8.163,69.238 -22.023,87.223 -30.167,18.018 -69.221,8.159 -87.254,-22.005 -17.987,-30.168 -8.15,-69.235 22.05,-87.258 z"
         id="path1259" />
      <path
         style="fill:#7fa24d"
         d="m 359.335,279.799 c 30.169,-17.999 69.233,-8.095 87.233,22.055 18.012,30.15 8.138,69.207 -22.008,87.225 -30.182,18.017 -69.24,8.127 -87.241,-22.037 -17.998,-30.136 -8.144,-69.225 22.016,-87.243 z"
         id="path1261" />
      <path
         style="fill:#a8da64"
         d="m 302.922,185.26 c 30.133,-17.99 69.227,-8.109 87.242,22.042 17.981,30.154 8.146,69.24 -22.04,87.227 -30.149,18.012 -69.238,8.162 -87.237,-22.007 -17.999,-30.148 -8.148,-69.237 22.035,-87.262 z"
         id="path1263" />
      <path
         style="fill:#9bc95c"
         d="m 308.783,374.09 c 30.152,-17.981 69.231,-8.11 87.241,22.024 18.002,30.168 8.13,69.241 -22.037,87.243 -30.167,18.014 -69.239,8.143 -87.237,-22.007 -17.981,-30.15 -8.149,-69.236 22.033,-87.26 z"
         id="path1265" />
      <path
         style="fill:#b5db81"
         d="m 252.365,279.539 c 30.136,-17.977 69.231,-8.074 87.229,22.057 17.982,30.158 8.142,69.206 -22.04,87.23 -30.15,18.012 -69.226,8.14 -87.24,-22.026 -18,-30.149 -8.162,-69.216 22.051,-87.261 z"
         id="path1267" />
      <g
         id="g1269" />
      <g
         id="g1271" />
      <g
         id="g1273" />
      <g
         id="g1275" />
      <g
         id="g1277" />
      <g
         id="g1279" />
      <g
         id="g1281" />
      <g
         id="g1283" />
      <g
         id="g1285" />
      <g
         id="g1287" />
      <g
         id="g1289" />
      <g
         id="g1291" />
      <g
         id="g1293" />
      <g
         id="g1295" />
      <g
         id="g1297" />
    </g>
    <path
       style="fill:#ffffff;stroke-width:10.8652"
       d="m 463.44554,246.21489 c 0.62542,0.14057 1.25222,0.22568 1.9251,0.25432 5.98968,0.25483 11.06365,-4.38446 11.33148,-10.38237 1.79052,-40.76812 -28.64601,-65.43786 -29.93049,-66.46154 -4.75451,-3.71895 -11.54693,-2.92929 -15.27046,1.74632 -3.71528,4.68852 -2.95372,11.50803 1.71928,15.24208 0.46226,0.37118 23.05698,19.20257 21.77601,48.53698 -0.23909,5.32504 3.41377,9.93233 8.44911,11.06402 z"
       id="path18" />
  </g>
</svg>
