<svg width="512" height="512" version="1.1" xmlns="http://www.w3.org/2000/svg"><rect id="canvas_background" x="-1" y="-1" width="514" height="514" fill="none"/><g id="canvasGrid" x="0" y="0" width="100%" height="100%" display="none" overflow="visible"><rect width="100%" height="100%" fill="url(#gridpattern)" stroke-width="0"/></g><g stroke="null"><g transform="matrix(1.29 0 0 1.29 -172 -135)"><rect x="68.9" y="99" width="514" height="402" fill="none"/><g display="none"><rect x="69.9" y="100" width="512" height="512" fill="url(#gridpattern)" stroke="null" stroke-width="0"/></g></g><g transform="matrix(1.29 0 0 1.29 -172 -135)"><g stroke="null"><g transform="matrix(6.73 0 0 6.73 -16 -3.64)" fill="none" fill-rule="evenodd" stroke="null"><g fill-rule="nonzero" stroke="null"><path d="m72.5 19.4v11.8c0 1.1-0.895 2-2 2s-2-0.895-2-2v-3c0-1.1-0.895-2-2-2s-2 0.895-2 2v3c0 1.66-1.34 3-3 3s-3-1.34-3-3v-6.7l14-5.14z" fill="#f3d55b"/><path d="m80.1 42.3-0.25-2.14c-0.0702-0.497-0.498-0.865-1-0.86h-54.6c-0.502-0.00495-0.93 0.363-1 0.86l-0.24 2.14-0.47 4c-0.0408 0.288 0.0462 0.58 0.238 0.799s0.47 0.343 0.762 0.341h1l3.63 24.3c0.209 1.48 1.48 2.58 2.97 2.58h40.8c1.51 0.0148 2.79-1.09 3-2.58l3.6-24.3h1c0.291 0.00287 0.569-0.121 0.762-0.341s0.279-0.511 0.238-0.799l-0.47-4z" fill="#f0c419"/><path d="m80.5 46.3c0.0408 0.288-0.0462 0.58-0.238 0.799s-0.47 0.343-0.762 0.341h-56c-0.291 0.00287-0.569-0.121-0.762-0.341s-0.279-0.511-0.238-0.799l0.46-4 0.25-2.14c0.0702-0.497 0.498-0.865 1-0.86h54.6c0.502-0.00495 0.93 0.363 1 0.86l0.24 2.14 0.47 4h1e-5z" fill="#f3d55b"/><path d="m71.8 16.3c0.488-0.00328 0.947 0.233 1.23 0.631s0.349 0.91 0.182 1.37c-1.2 2.92-4.94 4.28-7.79 5.05-4.03 1.18-8.25 1.58-12.4 1.2-1.59-0.157-3.13-0.662-4.51-1.48-1.24-0.77-2.38-1.77-3.93-1.77h-14.3c-0.707 0.0108-1.39-0.265-1.89-0.764-0.501-0.499-0.779-1.18-0.771-1.89 0.0794-1.32 1.18-2.35 2.5-2.35h41.8-1e-5z" fill="#95a5a5"/><circle cx="52" cy="30.8" r="2.5" fill="#f3d55b"/><g fill="#f29c1f"><path id="Shape" d="m35.5 43.3c0 0.552-0.448 1-1 1h-11.8l0.23-2h11.5c0.552 0 1 0.448 1 1z"/><path d="m62.5 44.3h-22c-0.552 0-1-0.448-1-1s0.448-1 1-1h22c0.552 0 1 0.448 1 1s-0.448 1-1 1z"/><path d="m80.3 44.3h-12.8c-0.552 0-1-0.448-1-1s0.448-1 1-1h12.5l0.23 2z"/></g></g></g></g><defs><style>@font-face {font-family: "ISW";src: url("https://cdn.jsdelivr.net/gh/aminabedi68/Estedad/Font/FD%20(Farsi%20digits)/instances/Estedad-FD-Medium.woff2");}</style></defs><text x="174.5" y="421" fill="#7f3f00" font-family="ISW" font-size="90" stroke="#000" stroke-width="0" xml:space="preserve">حلوا ارده</text></g></g></svg>
