<svg width="512" height="512" version="1.1" xmlns="http://www.w3.org/2000/svg"><g stroke="null"><rect id="canvas_background" x="-1" y="-1" width="514" height="514" fill="none"/><g id="canvasGrid" x="0" y="0" width="100%" height="100%" display="none" overflow="visible"><rect width="100%" height="100%" fill="url(#gridpattern)" stroke-width="0"/></g><g transform="matrix(1.29 0 0 1.29 -172 -135)" stroke="null"><rect x="68.9" y="99" width="514" height="402" fill="none"/><g display="none"><rect x="69.9" y="100" width="512" height="512" fill="url(#gridpattern)" stroke="null" stroke-width="0"/></g></g><g transform="matrix(1.29 0 0 1.29 -172 -135)" stroke="null"><g transform="matrix(6.73 0 0 6.73 -16 -3.64)" fill="none" fill-rule="evenodd" stroke="null"><g fill-rule="nonzero" stroke="null"><path d="m72.5 19.4v11.8c0 1.1-0.895 2-2 2s-2-0.895-2-2v-3c0-1.1-0.895-2-2-2s-2 0.895-2 2v3c0 1.66-1.34 3-3 3s-3-1.34-3-3v-6.7z" fill="#f3d55b"/><path d="m80.1 42.3-0.25-2.14c-0.0702-0.497-0.498-0.865-1-0.86h-54.6c-0.502-5e-3 -0.93 0.363-1 0.86l-0.24 2.14-0.47 4c-0.0408 0.288 0.0462 0.58 0.238 0.799s0.47 0.343 0.762 0.341h1l3.63 24.3c0.209 1.48 1.48 2.58 2.97 2.58h40.8c1.51 0.0148 2.79-1.09 3-2.58l3.6-24.3h1c0.291 0.0029 0.569-0.121 0.762-0.341s0.279-0.511 0.238-0.799z" fill="#f0c419"/><path d="m80.5 46.3c0.0408 0.288-0.0462 0.58-0.238 0.799s-0.47 0.343-0.762 0.341h-56c-0.291 0.0029-0.569-0.121-0.762-0.341s-0.279-0.511-0.238-0.799l0.46-4 0.25-2.14c0.0702-0.497 0.498-0.865 1-0.86h54.6c0.502-5e-3 0.93 0.363 1 0.86l0.24 2.14 0.47 4z" fill="#f3d55b"/><path d="m71.8 16.3c0.488-0.0033 0.947 0.233 1.23 0.631s0.349 0.91 0.182 1.37c-1.2 2.92-4.94 4.28-7.79 5.05-4.03 1.18-8.25 1.58-12.4 1.2-1.59-0.157-3.13-0.662-4.51-1.48-1.24-0.77-2.38-1.77-3.93-1.77h-14.3c-0.707 0.0108-1.39-0.265-1.89-0.764-0.501-0.499-0.779-1.18-0.771-1.89 0.0794-1.32 1.18-2.35 2.5-2.35h41.8z" fill="#95a5a5"/><circle cx="52" cy="30.8" r="2.5" fill="#f3d55b"/><g fill="#f29c1f"><path id="Shape" d="m35.5 43.3c0 0.552-0.448 1-1 1h-11.8l0.23-2h11.5c0.552 0 1 0.448 1 1z"/><path d="m62.5 44.3h-22c-0.552 0-1-0.448-1-1s0.448-1 1-1h22c0.552 0 1 0.448 1 1s-0.448 1-1 1z"/><path d="m80.3 44.3h-12.8c-0.552 0-1-0.448-1-1s0.448-1 1-1h12.5z"/></g></g></g></g><g transform="matrix(1.01 0 0 1.01 -5.44 -5.03)" style="fill:#7f3f00;stroke-width:0" aria-label="حلوا ارده"><path d="m372 405q-2.05 0-3.96-1.06-1.91-1.06-2.97-2.97-1.06-1.91-1.06-3.96 0-2.12 1.13-4.03 1.06-1.91 2.97-2.97 1.91-1.06 3.89-1.06h3.96q6.44 0 13.7-0.566 7.29-0.637 14.3-3.33 7.01-2.69 12.5-8.78-2.83-1.56-5.73-3.54-5.02-3.68-10.4-5.52-5.1-1.34-7.22-0.0708-2.05 1.27-3.04 3.61-3.68 6.51-6.94 4.88-3.18-1.7-3.54-7.15-0.0708-4.88 3.89-9.34 4.03-4.46 11.9-5.52 7.86-1.06 19.4 4.18 1.77 0.849 3.4 1.7 5.1 2.76 10.2 4.25 5.17 1.42 14.1 0.92 2.48-0.283 5.02-0.991 2.62-0.708 5.17-0.991 2.62-0.283 5.1 0.849 2.9 1.49 4.18 4.74 1.34 3.18-0.778 6.58-3.04 4.18-7.08 5.31-4.03 1.06-8.42 1.13-5.59-0.0708-10.5 1.98-6.44 3.33-13 7.08-4.95 2.76-9.84 5.38-7.86 4.25-16 6.79-8.14 2.48-16.9 2.48z" style="fill:#7f3f00;stroke-width:0"/><path d="m372 389q0.495-0.0708 0.991-0.0708 2.05 0 3.96 1.06 1.91 0.991 2.97 2.97 1.13 1.91 1.13 3.96 0 2.12-1.06 4.03-1.06 1.91-2.97 2.97-1.91 1.06-4.03 1.06h-0.425q-2.9 0.0708-6.86-0.495-3.96-0.637-7.86-2.34-5.31-2.48-8.28-6.94-2.41 2.69-5.59 4.67-8.07 5.02-22.5 5.1h-0.0708q-2.05 0-3.96-1.06-1.91-1.06-2.97-2.97-1.06-1.91-1.06-4.03 0-2.05 1.06-3.96 1.06-1.98 2.97-2.97 1.91-1.06 3.96-1.06 6.16 0 10.3-1.34 4.1-1.34 6.65-3.61 4.53-3.89 4.81-10.1v-0.849l-0.566-37.6q0.212-7.57 3.82-9.62 3.61-2.05 7.29 0.212 3.61 2.19 3.89 7.43l0.283 28.2v1.91q0.0708 1.7 0.0708 3.33v0.566q0 1.34 0 2.41 0.0708 0.991 0.354 2.48 0.778 4.53 2.19 8.35 1.49 3.75 4.39 6.02 2.69 2.19 7.08 2.34z" style="fill:#7f3f00;stroke-width:0"/><path d="m299 394q4.95-0.354 6.16-3.89 1.2-3.54-1.2-6.86-2.34-3.4-8.07-3.33-2.9 0.212-4.81 2.34-1.91 2.12-1.56 5.52 0.495 2.62 3.26 4.46 2.83 1.77 6.23 1.77zm22.8-4.53q1.98 0 3.89 0.991 1.91 1.06 2.97 3.04 1.13 1.91 1.13 3.96 0 2.12-1.06 4.03-1.06 1.91-2.97 2.97-1.91 1.06-3.96 1.06h-8.49q-4.25 12.3-16.4 19.1-3.89 2.12-8.42 3.18-4.53 1.06-8.92 0.495-1.77-0.212-4.1-1.2-2.26-0.991-2.76-2.97-0.0708-1.63 1.63-2.97 1.7-1.27 3.82-2.19 2.12-0.849 3.4-1.2 10.4-3.26 15.3-12.4-6.79-0.0708-12.5-3.89-5.66-3.82-7.57-10.9-1.34-5.38 0.566-10.8 1.91-5.52 6.58-9.41 4.67-3.96 11.7-4.6 10.5-0.566 16.1 6.09 4.6 5.87 4.67 13.2 0.0708 2.12 0 4.32z" style="fill:#7f3f00;stroke-width:0"/><path d="m268 333q0.283 11.3-0.354 28.9-0.637 17.6-2.12 28.5-1.34 8.35-3.89 12.5-2.48 4.18-4.74 2.12-2.19-2.12-2.76-12.6l-1.13-54.6q0.212-8.07 3.75-10.8 3.61-2.69 7.22-0.991 3.61 1.7 4.03 6.79z" style="fill:#7f3f00;stroke-width:0"/><path d="m229 333q0.283 11.3-0.354 28.9-0.637 17.6-2.12 28.5-1.34 8.35-3.89 12.5-2.48 4.18-4.74 2.12-2.19-2.12-2.76-12.6l-1.13-54.6q0.212-8.07 3.75-10.8 3.61-2.69 7.22-0.991t4.03 6.79z" style="fill:#7f3f00;stroke-width:0"/><path d="m201 371q1.49 9.2 0.283 18.5-1.13 9.34-5.73 17.2-4.53 7.86-13.3 12.6-3.89 2.05-8.42 3.11-4.46 1.13-8.92 0.495-1.77-0.212-4.03-1.2-2.34-0.991-2.76-2.9-0.142-1.7 1.56-3.04 1.7-1.27 3.89-2.19 2.12-0.849 3.33-1.13 7.08-2.12 11.5-7.15 4.46-4.95 6.86-11.8 1.91-6.23 1.06-12.7-0.212-2.55-0.566-5.1-0.425-3.04-0.637-6.16-0.212-1.77-0.0708-3.82 0.212-2.05 1.2-3.61 0.991-1.34 2.55-1.91 1.56-0.566 3.18-0.708t3.26 0.142q1.7 0.283 2.9 1.56 1.27 1.49 1.84 3.96 0.566 2.48 0.849 4.74 0.0708 0.566 0.212 1.13z" style="fill:#7f3f00;stroke-width:0"/><path d="m155 377q-1.84-6.02-11.5-11.5-5.24-2.83-8.07-5.59-2.76-3.4-2.05-6.94 0.778-3.54 4.03-5.24 3.33-1.77 8.42 0.354 5.59 2.69 14.4 10 8.35 7.5 9.84 17.8l0.0708-0.0708q0.0708 0.849 0.0708 1.7 0 7.15-2.97 12.7-4.32 7.5-12.5 11.5-8.14 3.89-17.5 4.32-8.99 0.212-12.9-2.83-3.82-3.04-3.68-6.79 0.212-3.82 3.26-5.73 2.34-0.991 8.49-0.708 3.68 0.0708 7.71-0.142 9.91-0.566 13.2-3.96t1.77-8.92z" style="fill:#7f3f00;stroke-width:0"/><path d="m56.3 386q-1.42-9.06 3.26-15.9 4.67-6.94 12.7-11 8.07-4.03 16.8-4.32 8.78-0.354 15.5 3.96 6.72 4.25 8.78 13.9 1.98 13-4.74 21.5-6.72 8.42-17.3 10.5-6.79 1.2-13.3 0.212-6.44-1.06-10.2-3.68-3.47-2.55-6.94-6.58-3.47-4.03-4.53-8.56zm41.9-3.11q2.97-4.67 0.778-9.13-2.12-4.46-7.01-6.86-4.81-2.48-10.1-0.92-5.24 1.49-8.56 8.78-2.62 6.58-0.283 10.2 2.34 3.54 7.22 4.39 4.88 0.849 9.98-0.778 5.1-1.7 8-5.66z" style="fill:#7f3f00;stroke-width:0"/></g></g></svg>
