<svg width="512" height="512" xmlns="http://www.w3.org/2000/svg">
 <g>
  <rect fill="none" id="canvas_background" height="514" width="514" y="-1" x="-1"/>
  <g display="none" overflow="visible" y="0" x="0" height="100%" width="100%" id="canvasGrid">
   <rect fill="url(#gridpattern)" stroke-width="0" y="0" x="0" height="100%" width="100%"/>
  </g>
 </g>
 <g>
  <g stroke="null" id="svg_30">
   <g stroke="null" transform="matrix(1.2939904893038723,0,0,1.2939904893038723,-171.7376383342927,-134.9836467945637) " id="svg_27">
    <rect stroke="null" x="68.920209" y="99.02442" width="514" height="402" id="svg_25" fill="none"/>
    <g stroke="null" id="svg_24" display="none">
     <rect stroke="null" id="svg_28" width="512" height="512" x="69.920209" y="100.02442" stroke-width="0" fill="url(#gridpattern)"/>
    </g>
   </g>
   <g stroke="null" transform="matrix(1.2939904893038723,0,0,1.2939904893038723,-171.7376383342927,-134.9836467945637) " id="svg_29">
    <g stroke="null" id="svg_15">
     <g stroke="null" id="svg_16" fill="none" fill-rule="evenodd" transform="matrix(6.732497430627167,0,0,6.732497430627167,-15.960895076153733,-3.6401383425958382) ">
      <g stroke="null" id="svg_17" fill-rule="nonzero">
       <path stroke="null" id="svg_23" d="m72.523383,19.410672l0,11.84c0,1.10456 -0.89542,2 -2,2s-2,-0.89544 -2,-2l0,-3c0,-1.10458 -0.89542,-2 -2,-2s-2,0.89542 -2,2l0,3c0,1.65684 -1.34315,3 -3,3s-3,-1.34316 -3,-3l0,-6.7l14,-5.14z" fill="#f3d55b"/>
       <path stroke="null" id="svg_22" d="m80.053383,42.250672l-0.25,-2.14001c-0.07025,-0.49701 -0.49807,-0.86494 -1,-0.85999l-54.57,0c-0.50193,-0.00495 -0.92975,0.36298 -1,0.85999l-0.24,2.14001l-0.47,4c-0.04081,0.28849 0.04625,0.58044 0.23839,0.79948s0.47025,0.34339 0.76161,0.34052l1,0l3.63,24.28c0.20922,1.4797 1.47559,2.57976 2.97,2.58l40.8,0c1.5058,0.01482 2.78925,-1.08895 3,-2.58l3.6,-24.28l1,0c0.29136,0.00287 0.56947,-0.12148 0.76161,-0.34052c0.19214,-0.21904 0.2792,-0.51099 0.23839,-0.79948l-0.47,-4z" fill="#f0c419"/>
       <path stroke="null" id="svg_21" d="m80.523393,46.250672c0.04081,0.28849 -0.04625,0.58044 -0.23839,0.79948c-0.19214,0.21904 -0.47025,0.34339 -0.76161,0.34052l-56,0c-0.29136,0.00287 -0.56947,-0.12148 -0.76161,-0.34052s-0.2792,-0.51099 -0.23839,-0.79948l0.46,-4l0.25,-2.14001c0.07025,-0.49701 0.49807,-0.86494 1,-0.85999l54.57999,0c0.50194,-0.00495 0.92975,0.36298 1,0.85999l0.24,2.14001l0.47,4l0.00001,0z" fill="#f3d55b"/>
       <path stroke="null" id="svg_19" d="m71.783383,16.250672c0.48797,-0.00328 0.94663,0.23259 1.2278,0.63143s0.34925,0.91007 0.18221,1.36857c-1.20001,2.92 -4.94,4.28 -7.79,5.05c-4.03495,1.17539 -8.25477,1.58245 -12.44,1.2c-1.5936,-0.15701 -3.13323,-0.66225 -4.51,-1.48001c-1.24,-0.76999 -2.38,-1.76999 -3.93,-1.76999l-14.34,0c-0.707,0.01084 -1.38838,-0.26454 -1.8893,-0.76359c-0.50093,-0.49904 -0.77888,-1.17937 -0.7707,-1.88641c0.07945,-1.32181 1.17581,-2.35239 2.5,-2.35l41.76,0l-0.00001,0z" fill="#95a5a5"/>
       <circle stroke="null" id="svg_20" cx="52.023388" cy="30.750667" fill="#f3d55b" r="2.5"/>
       <g stroke="null" fill="#f29c1f" id="svg_18">
        <path stroke="null" id="Shape" d="m35.523383,43.250672c0,0.55227 -0.44772,1 -1,1l-11.76,0l0.23001,-2l11.52999,0c0.55228,0 1,0.44772 1,1z"/>
        <path stroke="null" id="Shape" d="m62.523383,44.250672l-22,0c-0.55228,0 -1,-0.44773 -1,-1s0.44772,-1 1,-1l22,0c0.55229,0 1,0.44772 1,1s-0.44771,1 -1,1z"/>
        <path stroke="null" id="Shape" d="m80.283383,44.250672l-12.76,0c-0.55228,0 -1,-0.44773 -1,-1s0.44772,-1 1,-1l12.53,0l0.23,2z"/>
       </g>
      </g>
     </g>
    </g>
   <defs><style>@font-face {font-family: "ISW";src: url("https://cdn.jsdelivr.net/gh/aminabedi68/Estedad/Font/FD%20(Farsi%20digits)/instances/Estedad-FD-Medium.woff2");}</style></defs>
    <text stroke="#000" xml:space="preserve" text-anchor="start" font-family="ISW" font-size="90" id="svg_31" y="421" x="174.5" stroke-width="0" fill="#7f3f00">حلوا ارده</text>
   </g>
  </g>
 </g>
</svg>