<?xml version="1.0" encoding="UTF-8" standalone="no"?>
<svg
   xmlns:dc="http://purl.org/dc/elements/1.1/"
   xmlns:cc="http://creativecommons.org/ns#"
   xmlns:rdf="http://www.w3.org/1999/02/22-rdf-syntax-ns#"
   xmlns:svg="http://www.w3.org/2000/svg"
   xmlns="http://www.w3.org/2000/svg"
   xmlns:sodipodi="http://sodipodi.sourceforge.net/DTD/sodipodi-0.dtd"
   xmlns:inkscape="http://www.inkscape.org/namespaces/inkscape"
   inkscape:version="1.0 (4035a4f, 2020-05-01)"
   sodipodi:docname="halva.svg"
   id="svg8149"
   version="1.1"
   height="512"
   width="512">
  <metadata
     id="metadata8155">
    <rdf:RDF>
      <cc:Work
         rdf:about="">
        <dc:format>image/svg+xml</dc:format>
        <dc:type
           rdf:resource="http://purl.org/dc/dcmitype/StillImage" />
        <dc:title></dc:title>
      </cc:Work>
    </rdf:RDF>
  </metadata>
  <defs
     id="defs8153" />
  <sodipodi:namedview
     inkscape:current-layer="svg8149"
     inkscape:window-maximized="0"
     inkscape:window-y="0"
     inkscape:window-x="0"
     inkscape:cy="188.9354"
     inkscape:cx="145.65853"
     inkscape:zoom="0.5757941"
     showgrid="false"
     id="namedview8151"
     inkscape:window-height="768"
     inkscape:window-width="1366"
     inkscape:pageshadow="2"
     inkscape:pageopacity="0"
     guidetolerance="10"
     gridtolerance="10"
     objecttolerance="10"
     borderopacity="1"
     bordercolor="#666666"
     pagecolor="#ffffff" />
  <g
     id="canvasGrid"
     x="0"
     y="0"
     width="100%"
     height="100%"
     display="none"
     overflow="visible">
    <rect
       width="100%"
       height="100%"
       fill="url(#gridpattern)"
       stroke-width="0"
       id="rect8095"
       x="0"
       y="0" />
  </g>
  <g
     id="g8243">
    <g
       id="g8127"
       stroke="null"
       transform="matrix(1.29,0,0,1.29,-172,-135)">
      <g
         id="g8125"
         stroke="null"
         fill-rule="evenodd"
         fill="none"
         transform="matrix(6.73,0,0,6.73,-16,-3.64)">
        <g
           id="g8123"
           stroke="null"
           fill-rule="nonzero">
          <path
             id="path8106"
             fill="#f3d55b"
             d="m 72.5,19.4 v 11.8 c 0,1.1 -0.895,2 -2,2 -1.105,0 -2,-0.895 -2,-2 v -3 c 0,-1.1 -0.895,-2 -2,-2 -1.105,0 -2,0.895 -2,2 v 3 c 0,1.66 -1.34,3 -3,3 -1.66,0 -3,-1.34 -3,-3 v -6.7 z" />
          <path
             id="path8108"
             fill="#f0c419"
             d="m 80.1,42.3 -0.25,-2.14 c -0.0702,-0.497 -0.498,-0.865 -1,-0.86 h -54.6 c -0.502,-0.005 -0.93,0.363 -1,0.86 l -0.24,2.14 -0.47,4 c -0.0408,0.288 0.0462,0.58 0.238,0.799 0.1918,0.219 0.47,0.343 0.762,0.341 h 1 l 3.63,24.3 c 0.209,1.48 1.48,2.58 2.97,2.58 h 40.8 c 1.51,0.0148 2.79,-1.09 3,-2.58 l 3.6,-24.3 h 1 c 0.291,0.0029 0.569,-0.121 0.762,-0.341 0.193,-0.22 0.279,-0.511 0.238,-0.799 z" />
          <path
             id="path8110"
             fill="#f3d55b"
             d="m 80.5,46.3 c 0.0408,0.288 -0.0462,0.58 -0.238,0.799 -0.1918,0.219 -0.47,0.343 -0.762,0.341 h -56 C 23.209,47.4429 22.931,47.319 22.738,47.099 22.545,46.879 22.459,46.588 22.5,46.3 l 0.46,-4 0.25,-2.14 c 0.0702,-0.497 0.498,-0.865 1,-0.86 h 54.6 c 0.502,-0.005 0.93,0.363 1,0.86 l 0.24,2.14 0.47,4 z" />
          <path
             id="path8112"
             fill="#95a5a5"
             d="m 71.8,16.3 c 0.488,-0.0033 0.947,0.233 1.23,0.631 0.283,0.398 0.349,0.91 0.182,1.37 -1.2,2.92 -4.94,4.28 -7.79,5.05 -4.03,1.18 -8.25,1.58 -12.4,1.2 -1.59,-0.157 -3.13,-0.662 -4.51,-1.48 -1.24,-0.77 -2.38,-1.77 -3.93,-1.77 h -14.3 c -0.707,0.0108 -1.39,-0.265 -1.89,-0.764 -0.501,-0.499 -0.779,-1.18 -0.771,-1.89 0.0794,-1.32 1.18,-2.35 2.5,-2.35 h 41.8 z" />
          <circle
             id="circle8114"
             fill="#f3d55b"
             r="2.5"
             cy="30.799999"
             cx="52" />
          <g
             id="g8121"
             fill="#f29c1f">
            <path
               d="m 35.5,43.3 c 0,0.552 -0.448,1 -1,1 H 22.7 l 0.23,-2 h 11.5 c 0.552,0 1,0.448 1,1 z"
               id="Shape" />
            <path
               id="path8117"
               d="m 62.5,44.3 h -22 c -0.552,0 -1,-0.448 -1,-1 0,-0.552 0.448,-1 1,-1 h 22 c 0.552,0 1,0.448 1,1 0,0.552 -0.448,1 -1,1 z" />
            <path
               id="path8119"
               d="M 80.3,44.3 H 67.5 c -0.552,0 -1,-0.448 -1,-1 0,-0.552 0.448,-1 1,-1 H 80 Z" />
          </g>
        </g>
      </g>
    </g>
    <g
       id="g8145"
       aria-label="حلوا ارده"
       style="fill:#7f3f00;stroke-width:0"
       transform="matrix(1.01,0,0,1.01,-5.44,-5.03)">
      <path
         id="path8129"
         style="fill:#7f3f00;stroke-width:0"
         d="m 372,405 q -2.05,0 -3.96,-1.06 -1.91,-1.06 -2.97,-2.97 -1.06,-1.91 -1.06,-3.96 0,-2.12 1.13,-4.03 1.06,-1.91 2.97,-2.97 1.91,-1.06 3.89,-1.06 h 3.96 q 6.44,0 13.7,-0.566 7.29,-0.637 14.3,-3.33 7.01,-2.69 12.5,-8.78 -2.83,-1.56 -5.73,-3.54 -5.02,-3.68 -10.4,-5.52 -5.1,-1.34 -7.22,-0.0708 -2.05,1.27 -3.04,3.61 -3.68,6.51 -6.94,4.88 -3.18,-1.7 -3.54,-7.15 -0.0708,-4.88 3.89,-9.34 4.03,-4.46 11.9,-5.52 7.86,-1.06 19.4,4.18 1.77,0.849 3.4,1.7 5.1,2.76 10.2,4.25 5.17,1.42 14.1,0.92 2.48,-0.283 5.02,-0.991 2.62,-0.708 5.17,-0.991 2.62,-0.283 5.1,0.849 2.9,1.49 4.18,4.74 1.34,3.18 -0.778,6.58 -3.04,4.18 -7.08,5.31 -4.03,1.06 -8.42,1.13 -5.59,-0.0708 -10.5,1.98 -6.44,3.33 -13,7.08 -4.95,2.76 -9.84,5.38 -7.86,4.25 -16,6.79 -8.14,2.48 -16.9,2.48 z" />
      <path
         id="path8131"
         style="fill:#7f3f00;stroke-width:0"
         d="m 372,389 q 0.495,-0.0708 0.991,-0.0708 2.05,0 3.96,1.06 1.91,0.991 2.97,2.97 1.13,1.91 1.13,3.96 0,2.12 -1.06,4.03 -1.06,1.91 -2.97,2.97 -1.91,1.06 -4.03,1.06 h -0.425 q -2.9,0.0708 -6.86,-0.495 -3.96,-0.637 -7.86,-2.34 -5.31,-2.48 -8.28,-6.94 -2.41,2.69 -5.59,4.67 -8.07,5.02 -22.5,5.1 h -0.0708 q -2.05,0 -3.96,-1.06 -1.91,-1.06 -2.97,-2.97 -1.06,-1.91 -1.06,-4.03 0,-2.05 1.06,-3.96 1.06,-1.98 2.97,-2.97 1.91,-1.06 3.96,-1.06 6.16,0 10.3,-1.34 4.1,-1.34 6.65,-3.61 4.53,-3.89 4.81,-10.1 v -0.849 l -0.566,-37.6 q 0.212,-7.57 3.82,-9.62 3.61,-2.05 7.29,0.212 3.61,2.19 3.89,7.43 l 0.283,28.2 v 1.91 q 0.0708,1.7 0.0708,3.33 v 0.566 q 0,1.34 0,2.41 0.0708,0.991 0.354,2.48 0.778,4.53 2.19,8.35 1.49,3.75 4.39,6.02 2.69,2.19 7.08,2.34 z" />
      <path
         id="path8133"
         style="fill:#7f3f00;stroke-width:0"
         d="m 299,394 q 4.95,-0.354 6.16,-3.89 1.2,-3.54 -1.2,-6.86 -2.34,-3.4 -8.07,-3.33 -2.9,0.212 -4.81,2.34 -1.91,2.12 -1.56,5.52 0.495,2.62 3.26,4.46 2.83,1.77 6.23,1.77 z m 22.8,-4.53 q 1.98,0 3.89,0.991 1.91,1.06 2.97,3.04 1.13,1.91 1.13,3.96 0,2.12 -1.06,4.03 -1.06,1.91 -2.97,2.97 -1.91,1.06 -3.96,1.06 h -8.49 q -4.25,12.3 -16.4,19.1 -3.89,2.12 -8.42,3.18 -4.53,1.06 -8.92,0.495 -1.77,-0.212 -4.1,-1.2 -2.26,-0.991 -2.76,-2.97 -0.0708,-1.63 1.63,-2.97 1.7,-1.27 3.82,-2.19 2.12,-0.849 3.4,-1.2 10.4,-3.26 15.3,-12.4 -6.79,-0.0708 -12.5,-3.89 -5.66,-3.82 -7.57,-10.9 -1.34,-5.38 0.566,-10.8 1.91,-5.52 6.58,-9.41 4.67,-3.96 11.7,-4.6 10.5,-0.566 16.1,6.09 4.6,5.87 4.67,13.2 0.0708,2.12 0,4.32 z" />
      <path
         id="path8135"
         style="fill:#7f3f00;stroke-width:0"
         d="m 268,333 q 0.283,11.3 -0.354,28.9 -0.637,17.6 -2.12,28.5 -1.34,8.35 -3.89,12.5 -2.48,4.18 -4.74,2.12 -2.19,-2.12 -2.76,-12.6 l -1.13,-54.6 q 0.212,-8.07 3.75,-10.8 3.61,-2.69 7.22,-0.991 3.61,1.7 4.03,6.79 z" />
      <path
         id="path8137"
         style="fill:#7f3f00;stroke-width:0"
         d="m 229,333 q 0.283,11.3 -0.354,28.9 -0.637,17.6 -2.12,28.5 -1.34,8.35 -3.89,12.5 -2.48,4.18 -4.74,2.12 -2.19,-2.12 -2.76,-12.6 l -1.13,-54.6 q 0.212,-8.07 3.75,-10.8 3.61,-2.69 7.22,-0.991 3.61,1.699 4.03,6.79 z" />
      <path
         id="path8139"
         style="fill:#7f3f00;stroke-width:0"
         d="m 201,371 q 1.49,9.2 0.283,18.5 -1.13,9.34 -5.73,17.2 -4.53,7.86 -13.3,12.6 -3.89,2.05 -8.42,3.11 -4.46,1.13 -8.92,0.495 -1.77,-0.212 -4.03,-1.2 -2.34,-0.991 -2.76,-2.9 -0.142,-1.7 1.56,-3.04 1.7,-1.27 3.89,-2.19 2.12,-0.849 3.33,-1.13 7.08,-2.12 11.5,-7.15 4.46,-4.95 6.86,-11.8 1.91,-6.23 1.06,-12.7 -0.212,-2.55 -0.566,-5.1 -0.425,-3.04 -0.637,-6.16 -0.212,-1.77 -0.0708,-3.82 0.212,-2.05 1.2,-3.61 0.991,-1.34 2.55,-1.91 1.56,-0.566 3.18,-0.708 1.62,-0.142 3.26,0.142 1.7,0.283 2.9,1.56 1.27,1.49 1.84,3.96 0.566,2.48 0.849,4.74 0.0708,0.566 0.212,1.13 z" />
      <path
         id="path8141"
         style="fill:#7f3f00;stroke-width:0"
         d="m 155,377 q -1.84,-6.02 -11.5,-11.5 -5.24,-2.83 -8.07,-5.59 -2.76,-3.4 -2.05,-6.94 0.778,-3.54 4.03,-5.24 3.33,-1.77 8.42,0.354 5.59,2.69 14.4,10 8.35,7.5 9.84,17.8 l 0.0708,-0.0708 q 0.0708,0.849 0.0708,1.7 0,7.15 -2.97,12.7 -4.32,7.5 -12.5,11.5 -8.14,3.89 -17.5,4.32 -8.99,0.212 -12.9,-2.83 -3.82,-3.04 -3.68,-6.79 0.212,-3.82 3.26,-5.73 2.34,-0.991 8.49,-0.708 3.68,0.0708 7.71,-0.142 9.91,-0.566 13.2,-3.96 3.29,-3.394 1.77,-8.92 z" />
      <path
         id="path8143"
         style="fill:#7f3f00;stroke-width:0"
         d="m 56.3,386 q -1.42,-9.06 3.26,-15.9 4.67,-6.94 12.7,-11 8.07,-4.03 16.8,-4.32 8.78,-0.354 15.5,3.96 6.72,4.25 8.78,13.9 1.98,13 -4.74,21.5 -6.72,8.42 -17.3,10.5 -6.79,1.2 -13.3,0.212 -6.44,-1.06 -10.2,-3.68 -3.47,-2.55 -6.94,-6.58 -3.47,-4.03 -4.53,-8.56 z m 41.9,-3.11 q 2.97,-4.67 0.778,-9.13 -2.12,-4.46 -7.01,-6.86 -4.81,-2.48 -10.1,-0.92 -5.24,1.49 -8.56,8.78 -2.62,6.58 -0.283,10.2 2.34,3.54 7.22,4.39 4.88,0.849 9.98,-0.778 5.1,-1.7 8,-5.66 z" />
    </g>
  </g>
</svg>
