<svg width="512" height="512" version="1.1" viewBox="0 0 32 58" xmlns="http://www.w3.org/2000/svg"><g fill="none" fill-rule="evenodd"><g id="045---Dream-Catcher" fill-rule="nonzero"><g fill="#e9931f"><path id="Rectangle-path" d="m15 29h2v6h-2z"/><path d="m3 20h2v12h-2z"/><path d="m27 20h2v11h-2z"/></g><circle id="Oval" cx="16" cy="36" r="3" fill="#e7bb19"/><path id="Shape" d="m20 42v8.07c8.16e-4 3.98-2.92 7.35-6.86 7.92-0.288 0.0408-0.58-0.0462-0.799-0.238-0.219-0.192-0.343-0.47-0.341-0.762v-14.8c-0.0172-1.12 0.417-2.2 1.21-3s1.86-1.24 2.98-1.23c2.13 0.102 3.81 1.86 3.81 4z" fill="#8c5b9c"/><circle cx="4" cy="32" r="3" fill="#e7bb19"/><path d="m8 38v8.07c8.16e-4 3.98-2.92 7.35-6.86 7.92-0.288 0.0408-0.58-0.0462-0.799-0.238-0.219-0.192-0.343-0.47-0.341-0.762v-14.8c-0.0172-1.12 0.417-2.2 1.21-3s1.86-1.24 2.98-1.23c2.13 0.102 3.81 1.86 3.81 4z" fill="#ff5364"/><circle cx="28" cy="32" r="3" fill="#e7bb19"/><path d="m32 38v8.07c8.16e-4 3.98-2.92 7.35-6.86 7.92-0.288 0.0408-0.58-0.0462-0.799-0.238-0.219-0.192-0.343-0.47-0.341-0.762v-14.8c-0.0172-1.12 0.417-2.2 1.21-3s1.86-1.24 2.98-1.23c2.13 0.102 3.81 1.86 3.81 4z" fill="#ff5364"/><g fill="#804b94"><path d="m15 44c0 0.552-0.448 1-1 1h-2v-2h2c0.552 0 1 0.448 1 1z"/><path d="m15 48c0 0.552-0.448 1-1 1h-2v-2h2c0.552 0 1 0.448 1 1z"/><path d="m15 52c0 0.552-0.448 1-1 1h-2v-2h2c0.552 0 1 0.448 1 1z"/></g><g fill="#d64d60"><path d="m3 40c0 0.552-0.448 1-1 1h-2v-2h2c0.552 0 1 0.448 1 1z"/><path d="m3 44c0 0.552-0.448 1-1 1h-2v-2h2c0.552 0 1 0.448 1 1z"/><path d="m3 48c0 0.552-0.448 1-1 1h-2v-2h2c0.552 0 1 0.448 1 1z"/><path d="m27 40c0 0.552-0.448 1-1 1h-2v-2h2c0.552 0 1 0.448 1 1z"/><path d="m27 44c0 0.552-0.448 1-1 1h-2v-2h2c0.552 0 1 0.448 1 1z"/><path d="m27 48c0 0.552-0.448 1-1 1h-2v-2h2c0.552 0 1 0.448 1 1z"/></g><g fill="#e9931f"><path d="m15 3h2v8h-2z"/><path transform="matrix(.707 -.707 .707 .707 -3.57 10)" d="m9.34 5.32h2v8.02h-2z"/><path d="m4 14h8v2h-8z"/><path transform="matrix(.707 -.707 .707 .707 -11.6 13.4)" d="m6.32 19.7h8.02v2h-8.02z"/><path d="m15 19h2v8h-2z"/><path transform="matrix(.707 -.707 .707 .707 -8.27 21.4)" d="m20.7 16.7h2v8.02h-2z"/><path d="m20 14h8v2h-8z"/><path transform="matrix(.707 -.707 .707 .707 -.256 18.1)" d="m17.7 8.34h8.02v2h-8.02z"/></g><circle cx="16" cy="15" r="5" fill="#e7bb19"/><path d="m30.1 9.93c-1.36-3.74-4.13-6.79-7.73-8.5-0.601-0.289-1.22-0.533-1.86-0.73-1.46-0.468-2.99-0.704-4.53-0.7-5.81 0.00425-11.1 3.36-13.6 8.61-0.289 0.601-0.533 1.22-0.73 1.86-0.468 1.46-0.704 2.99-0.7 4.53 0.00425 5.81 3.36 11.1 8.61 13.6 0.601 0.289 1.22 0.533 1.86 0.73 1.46 0.468 2.99 0.704 4.53 0.7 5.81-0.00425 11.1-3.36 13.6-8.61 0.289-0.601 0.533-1.22 0.73-1.86 0.468-1.46 0.704-2.99 0.7-4.53 0.00158-1.73-0.296-3.44-0.88-5.07zm-4.29 10c-1 1.99-2.58 3.63-4.53 4.71-0.587 0.323-1.2 0.591-1.84 0.8-1.12 0.37-2.28 0.559-3.46 0.56-1.04 0.0032-2.07-0.145-3.07-0.44-0.643-0.181-1.27-0.425-1.86-0.73-1.99-1-3.63-2.58-4.71-4.53-0.323-0.587-0.591-1.2-0.8-1.84-0.37-1.12-0.559-2.28-0.56-3.46-0.0032-1.04 0.145-2.07 0.44-3.07 0.181-0.643 0.425-1.27 0.73-1.86 1-1.99 2.58-3.63 4.53-4.71 0.587-0.323 1.2-0.591 1.84-0.8 1.12-0.37 2.28-0.559 3.46-0.56 1.04-0.0032 2.07 0.145 3.07 0.44 0.643 0.181 1.27 0.425 1.86 0.73 1.99 1 3.63 2.58 4.71 4.53 0.323 0.587 0.591 1.2 0.8 1.84 0.37 1.12 0.559 2.28 0.56 3.46 0.0032 1.04-0.145 2.07-0.44 3.07-0.181 0.643-0.425 1.27-0.73 1.86z" fill="#eacc5b"/><g fill="#e7bb19"><path d="m12.5 4.56c-0.637 0.209-1.25 0.477-1.84 0.8l-1.61-3.67c0.595-0.311 1.21-0.581 1.84-0.81z"/><path d="m6.17 10.1c-0.305 0.594-0.549 1.22-0.73 1.86l-3.74-1.46c0.197-0.637 0.441-1.26 0.73-1.86z"/><path d="m6.36 20.3-3.67 1.61c-0.311-0.595-0.581-1.21-0.81-1.84l3.68-1.61c0.209 0.637 0.477 1.25 0.8 1.84z"/><path d="m12.9 25.6-1.46 3.74c-0.637-0.197-1.26-0.441-1.86-0.73l1.46-3.74c0.594 0.305 1.22 0.549 1.86 0.73z"/><path d="m22.9 28.3c-0.595 0.311-1.21 0.581-1.84 0.81l-1.61-3.68c0.637-0.209 1.25-0.477 1.84-0.8z"/><path d="m30.3 19.5c-0.197 0.637-0.441 1.26-0.73 1.86l-3.74-1.46c0.305-0.594 0.549-1.22 0.73-1.86z"/><path d="m30.1 9.93-3.68 1.61c-0.209-0.637-0.477-1.25-0.8-1.84l3.67-1.61c0.311 0.595 0.581 1.21 0.81 1.84z"/><path d="m22.4 1.43-1.46 3.74c-0.594-0.305-1.22-0.549-1.86-0.73l1.46-3.74c0.637 0.197 1.26 0.441 1.86 0.73z"/></g></g></g></svg>
