<svg height="512" viewBox="0 0 32 58" width="512" xmlns="http://www.w3.org/2000/svg"><g id="Page-1" fill="none" fill-rule="evenodd"><g id="045---Dream-Catcher" fill-rule="nonzero"><path id="Rectangle-path" d="m15 29h2v6h-2z" fill="#e9931f"/><path id="Rectangle-path" d="m3 20h2v12h-2z" fill="#e9931f"/><path id="Rectangle-path" d="m27 20h2v11h-2z" fill="#e9931f"/><circle id="Oval" cx="16" cy="36" fill="#e7bb19" r="3"/><path id="Shape" d="m20 42v8.07c.0008164 3.978516-2.9220854 7.3530615-6.86 7.92-.2884984.0408059-.5804464-.0462452-.7994864-.2383855-.21904-.1921404-.3433852-.4702587-.3405136-.7616145v-14.76c-.0172291-1.1201128.4173784-2.1999642 1.2057395-2.9958514s1.8640345-1.2407347 2.9842605-1.2341486c2.1346067.101507 3.8124121 1.8629825 3.81 4z" fill="#8c5b9c"/><circle id="Oval" cx="4" cy="32" fill="#e7bb19" r="3"/><path id="Shape" d="m8 38v8.07c.00081637 3.978516-2.92208543 7.3530615-6.86 7.92-.28849836.0408059-.5804464-.0462452-.79948638-.2383855-.21903999-.1921404-.34338518-.4702587-.34051362-.7616145v-14.76c-.01722908-1.1201128.41737841-2.1999642 1.20573948-2.9958514s1.86403455-1.2407347 2.98426052-1.2341486c2.13460673.101507 3.81241212 1.8629825 3.81 4z" fill="#ff5364"/><circle id="Oval" cx="28" cy="32" fill="#e7bb19" r="3"/><path id="Shape" d="m32 38v8.07c.0008164 3.978516-2.9220854 7.3530615-6.86 7.92-.2884984.0408059-.5804464-.0462452-.7994864-.2383855-.21904-.1921404-.3433852-.4702587-.3405136-.7616145v-14.76c-.0172291-1.1201128.4173784-2.1999642 1.2057395-2.9958514s1.8640345-1.2407347 2.9842605-1.2341486c2.1346067.101507 3.8124121 1.8629825 3.81 4z" fill="#ff5364"/><path id="Shape" d="m15 44c0 .5522847-.4477153 1-1 1h-2v-2h2c.5522847 0 1 .4477153 1 1z" fill="#804b94"/><path id="Shape" d="m15 48c0 .5522847-.4477153 1-1 1h-2v-2h2c.5522847 0 1 .4477153 1 1z" fill="#804b94"/><path id="Shape" d="m15 52c0 .5522847-.4477153 1-1 1h-2v-2h2c.5522847 0 1 .4477153 1 1z" fill="#804b94"/><path id="Shape" d="m3 40c0 .5522847-.44771525 1-1 1h-2v-2h2c.55228475 0 1 .4477153 1 1z" fill="#d64d60"/><path id="Shape" d="m3 44c0 .5522847-.44771525 1-1 1h-2v-2h2c.55228475 0 1 .4477153 1 1z" fill="#d64d60"/><path id="Shape" d="m3 48c0 .5522847-.44771525 1-1 1h-2v-2h2c.55228475 0 1 .4477153 1 1z" fill="#d64d60"/><path id="Shape" d="m27 40c0 .5522847-.4477153 1-1 1h-2v-2h2c.5522847 0 1 .4477153 1 1z" fill="#d64d60"/><path id="Shape" d="m27 44c0 .5522847-.4477153 1-1 1h-2v-2h2c.5522847 0 1 .4477153 1 1z" fill="#d64d60"/><path id="Shape" d="m27 48c0 .5522847-.4477153 1-1 1h-2v-2h2c.5522847 0 1 .4477153 1 1z" fill="#d64d60"/><g fill="#e9931f"><path id="Rectangle-path" d="m15 3h2v8h-2z"/><path id="Rectangle-path" d="m9.336 5.325h2v8.021h-2z" transform="matrix(.707 -.707 .707 .707 -3.574 10.042)"/><path id="Rectangle-path" d="m4 14h8v2h-8z"/><path id="Rectangle-path" d="m6.325 19.664h8.021v2h-8.021z" transform="matrix(.707 -.707 .707 .707 -11.584 13.361)"/><path id="Rectangle-path" d="m15 19h2v8h-2z"/><path id="Rectangle-path" d="m20.665 16.654h2v8.021h-2z" transform="matrix(.707 -.707 .707 .707 -8.266 21.371)"/><path id="Rectangle-path" d="m20 14h8v2h-8z"/><path id="Rectangle-path" d="m17.654 8.336h8.021v2h-8.021z" transform="matrix(.707 -.707 .707 .707 -.256 18.053)"/></g><circle id="Oval" cx="16" cy="15" fill="#e7bb19" r="5"/><path id="Shape" d="m30.12 9.93c-1.3574058-3.74035037-4.1349592-6.79458121-7.73-8.5-.6011806-.2887976-1.2228719-.53279475-1.86-.73-1.4643119-.46790384-2.9927536-.70408688-4.53-.7-5.8077672.00425322-11.09233993 3.35725034-13.57 8.61-.2887976.60118055-.53279475 1.22287191-.73 1.86-.46790384 1.4643119-.70408688 2.9927536-.7 4.53.00425322 5.8077672 3.35725034 11.0923399 8.61 13.57.6011806.2887976 1.2228719.5327947 1.86.73 1.4643119.4679038 2.9927536.7040869 4.53.7 5.8077672-.0042532 11.0923399-3.3572503 13.57-8.61.2887976-.6011806.5327947-1.2228719.73-1.86.4679038-1.4643119.7040869-2.9927536.7-4.53.0015846-1.7281319-.2961488-3.4434822-.88-5.07zm-4.29 10c-1.001478 1.9901888-2.580325 3.6317714-4.53 4.71-.5871166.3233143-1.2031199.5911418-1.84.8-1.1159895.3703962-2.284149.5594625-3.46.56-1.0392712.0032041-2.0734654-.1450192-3.07-.44-.6428509-.1805239-1.2659706-.4250817-1.86-.73-1.99018876-1.001478-3.63177136-2.580325-4.71-4.53-.32331429-.5871166-.59114178-1.2031199-.8-1.84-.37039619-1.1159895-.55946245-2.284149-.56-3.46-.00320405-1.0392712.14501922-2.0734654.44-3.07.18052392-.6428509.42508167-1.2659706.73-1.86 1.00147805-1.99018876 2.580325-3.63177136 4.53-4.71.5871166-.32331429 1.2031199-.59114178 1.84-.8 1.1159895-.37039619 2.284149-.55946245 3.46-.56 1.0392712-.00320405 2.0734654.14501922 3.07.44.6428509.18052392 1.2659706.42508167 1.86.73 1.9901888 1.00147805 3.6317714 2.580325 4.71 4.53.3233143.5871166.5911418 1.2031199.8 1.84.3703962 1.1159895.5594625 2.284149.56 3.46.0032041 1.0392712-.1450192 2.0734654-.44 3.07-.1805239.6428509-.4250817 1.2659706-.73 1.86z" fill="#eacc5b"/><path id="Shape" d="m12.54 4.56c-.6368801.20885822-1.2528834.47668571-1.84.8l-1.61-3.67c.59465861-.31057482 1.209354-.5811744 1.84-.81z" fill="#e7bb19"/><path id="Shape" d="m6.17 10.07c-.30491833.5940294-.54947608 1.2171491-.73 1.86l-3.74-1.46c.19720525-.63712809.4412024-1.25881945.73-1.86z" fill="#e7bb19"/><path id="Shape" d="m6.36 20.3-3.67 1.61c-.31057482-.5946586-.5811744-1.209354-.81-1.84l3.68-1.61c.20885822.6368801.47668571 1.2528834.8 1.84z" fill="#e7bb19"/><path id="Shape" d="m12.93 25.56-1.46 3.74c-.6371281-.1972053-1.2588194-.4412024-1.86-.73l1.46-3.74c.5940294.3049183 1.2171491.5494761 1.86.73z" fill="#e7bb19"/><path id="Shape" d="m22.91 28.31c-.5946586.3105748-1.209354.5811744-1.84.81l-1.61-3.68c.6368801-.2088582 1.2528834-.4766857 1.84-.8z" fill="#e7bb19"/><path id="Shape" d="m30.3 19.53c-.1972053.6371281-.4412024 1.2588194-.73 1.86l-3.74-1.46c.3049183-.5940294.5494761-1.2171491.73-1.86z" fill="#e7bb19"/><path id="Shape" d="m30.12 9.93-3.68 1.61c-.2088582-.6368801-.4766857-1.2528834-.8-1.84l3.67-1.61c.3105748.59465861.5811744 1.20935396.81 1.84z" fill="#e7bb19"/><path id="Shape" d="m22.39 1.43-1.46 3.74c-.5940294-.30491833-1.2171491-.54947608-1.86-.73l1.46-3.74c.6371281.19720525 1.2588194.4412024 1.86.73z" fill="#e7bb19"/></g></g></svg>