<svg width="512" height="512" version="1.1" viewBox="0 -48 384 384" xmlns="http://www.w3.org/2000/svg"><g transform="matrix(.237 -.113 .113 .237 107 -12.6)"><g fill="#58af7a"><path d="m149 229-10.4-4.17c-7.59-3.04-11.9-11.1-10.3-19.1 1.84-9.18 10.8-15.1 20-13.3l2.17 0.43c2.86 0.578 5.83-0.164 8.09-2.02 2.26-1.85 3.57-4.62 3.56-7.54 0-3-1.38-5.83-3.75-7.68s-5.45-2.5-8.36-1.77c-7.85 1.96-16.2 0.727-23.1-3.43l-3.85-2.31c-9.78-5.87-15.8-16.4-15.8-27.8v-4.17c0-12.3 6.95-23.5 17.9-29.1 11.3-5.66 24.9-4.22 34.8 3.69l10.3 8.22c2.56 2.05 5.74 3.16 9.02 3.16h0.801c4.44 8e-3 8.64-2.04 11.4-5.54 2.73-3.5 3.7-8.07 2.61-12.4-1.02-4.09-3.78-7.52-7.55-9.4l-19.2-9.6c-7-3.49-11.4-10.6-11.4-18.5-4e-3 -5.98 2.59-11.7 7.11-15.6 4.52-3.92 10.5-5.68 16.4-4.84l19.1 2.72-8.22-12.4c-2.56-3.84-3.92-8.35-3.92-13 0-12.9 10.5-23.4 23.4-23.4h14.2c12.9 0.00391 23.4 10.5 23.4 23.4 0 4.62-1.36 9.13-3.92 13l-8.24 12.4 19.1-2.72c5.92-0.84 11.9 0.922 16.4 4.84 4.52 3.91 7.11 9.59 7.11 15.6 4e-3 7.82-4.41 15-11.4 18.5l-19.2 9.6c-3.77 1.88-6.52 5.31-7.54 9.4-1.09 4.31-0.125 8.88 2.61 12.4 2.73 3.5 6.93 5.55 11.4 5.54h0.797c3.28 0 6.45-1.11 9.01-3.16l10.3-8.23c9.89-7.91 23.5-9.35 34.8-3.69 11 5.5 17.9 16.8 18 29.1v4.17c-4e-3 11.4-5.99 22-15.8 27.8l-3.85 2.31c-6.94 4.16-15.2 5.39-23.1 3.43-2.91-0.73-6-0.0781-8.36 1.77-2.37 1.85-3.75 4.68-3.75 7.68 0 2.92 1.3 5.68 3.56 7.53 2.26 1.85 5.22 2.59 8.09 2.02l2.18-0.43c9.18-1.84 18.1 4.11 19.9 13.3 1.61 8.01-2.73 16-10.3 19.1l-14.8 5.9c-21.8 8.71-41.3 22.1-57.4 39.2l-4.58 4.88h-6.09c-17-20.2-38.7-36-63.3-45.8z"/><path d="m291 386 11.2 15c3.48 4.64 8.93 7.4 14.7 7.44 5.72 0.043 11.1-2.55 14.7-7.03s4.84-10.3 3.49-15.9c-0.641-2.64 0.375-5.41 2.57-7.02 2.2-1.6 5.14-1.72 7.46-0.305l5.46 3.34 10.5 9.66c6.5 6 16 7.48 24 3.74 5.87-2.73 10.2-7.93 11.9-14.2s0.441-12.9-3.31-18.2l-2.82-4c-3.96-5.55-3-13.2 2.21-17.6 2.85-2.41 6.59-3.48 10.3-2.95l13.1 1.88c5.34 0.766 10.7-1.16 14.3-5.15 3.63-3.99 5.04-9.51 3.77-14.8l-1.89-7.77-4.34-17.9c-1.27-5.24-5.05-9.51-10.1-11.4-5.05-1.89-10.7-1.14-15.1 1.98l-10.8 7.66c-3.04 2.16-6.86 2.92-10.5 2.09-6.62-1.52-11-7.87-10-14.6l0.691-4.8c0.91-6.4-1.07-12.9-5.4-17.7-4.34-4.8-10.6-7.42-17-7.16-8.82 0.352-16.6 6-19.6 14.3l-4.92 13.4-3.34 5.47c-1.42 2.32-4.09 3.55-6.77 3.14-2.68-0.422-4.85-2.41-5.49-5.05-1.35-5.55-5.18-10.2-10.4-12.5-5.21-2.36-11.2-2.18-16.3 0.473-5.14 2.69-8.72 7.63-9.69 13.4l-3.59 21.3c-3.18 18.9-14.3 35.5-30.6 45.5l-3.02 1.86 1.89 7.77c20.8 0.16 40.3 10 52.8 26.7z"/><path d="m144 386-11.2 15c-3.48 4.64-8.93 7.4-14.7 7.44-5.71 0.0391-11.1-2.55-14.7-7.04s-4.84-10.3-3.49-15.9c0.641-2.64-0.375-5.41-2.57-7.02-2.2-1.6-5.14-1.72-7.46-0.305l-5.46 3.34-10.5 9.66c-6.5 6-16 7.48-24 3.74-5.87-2.73-10.2-7.93-11.9-14.2s-0.441-12.9 3.31-18.2l2.81-4c3.97-5.55 3.01-13.2-2.21-17.6-2.86-2.41-6.62-3.47-10.3-2.92l-13.1 1.87c-5.34 0.766-10.7-1.16-14.3-5.15-3.62-3.99-5.04-9.52-3.77-14.8l1.88-7.77 4.34-17.9c1.27-5.23 5.06-9.5 10.1-11.4 5.05-1.88 10.7-1.14 15.1 1.99l10.8 7.66c3.05 2.16 6.87 2.92 10.5 2.09 6.62-1.53 11-7.87 10-14.6l-0.688-4.8c-0.918-6.41 1.06-12.9 5.39-17.7 4.34-4.8 10.6-7.43 17.1-7.17 8.82 0.352 16.6 6 19.6 14.3l4.89 13.4 3.34 5.47c1.41 2.32 4.09 3.57 6.77 3.14 2.69-0.418 4.86-2.42 5.49-5.07 1.34-5.56 5.18-10.2 10.4-12.5 5.21-2.36 11.2-2.19 16.3 0.469 5.14 2.69 8.72 7.63 9.69 13.4l3.59 21.3c3.18 18.9 14.3 35.5 30.6 45.5l3.01 1.86-1.88 7.78c-20.8 0.16-40.3 10-52.7 26.7z"/></g><path d="m234 344-9.09 4.97-0.801 0.27v-68.7l0.387-13.4c0.0156-0.504-0.0156-1.01-0.0977-1.5-9.86-61.5-10.1-124-0.848-186l0.566-3.91-15.8-2.4-0.582 3.89c-9.5 62.9-9.25 127 0.75 190l-0.344 12.9v68.9l-12.5-4.17-5.12-3.29c-39-25.2-86-35.2-132-28l2.49 15.8c42-6.6 85 2.51 121 25.6l5.96 3.86c0.566 0.367 1.17 0.66 1.81 0.875l18.5 6.16v106h16v-106l18.5-6.18-0.68-2.04c44.5-24.3 94.8-35.8 145-33.2l0.801-16c-53.7-2.72-107 9.52-154 35.3z" fill="#77c974"/></g><g transform="matrix(1.01 0 0 1.01 -352 231)"><path d="m403-135c-0.137-3.97 1.57-6.99 6.89-7.46h239c6.38 0.626 7.29 4.65 7.75 7.75l0.287 18.4c-0.914 5.15-3.96 6.91-7.75 8.03l-238 0.287c-5.46-1.19-7.85-3.88-8.61-7.46z" style="fill:#c06a19"/><path d="m412-142c82.3 0.188 135 0.298 236 0 7.76 0.011 8.66 4.45 8.98 9.08 0.375 5.55-0.0502 11.6-8.69 11.7-88.7 0.299-152 0.0521-235 0.175-10-0.0614-10.3-5.12-10.3-10.9-0.0162-7.04 1.3-10.1 9.13-10.1z" style="fill:#d28442"/><path d="m437-142c33 0.091 54.1 0.144 94.6 0 5.84 0.0842 6 10.2 0.114 10.1-35.5 0.145-61 0.0247-94.3 0.0847-5.31-0.24-4.88-10-0.454-10.2z" style="fill:#e39a5a"/><path d="m556-142c7.83 0.091 12.8 0.144 22.5 0 5.24 0.22 6.22 2.36 6.26 4.76 0.0414 2.63-0.925 5.45-6.23 5.31-8.44 0.145-14.5 0.0247-22.4 0.0847-4.95 0.0578-6.67-2.42-6.66-4.95 5e-3 -2.47 1.91-5.25 6.56-5.22z" style="fill:#e39a5a"/><path d="m523-142 140-121c25.2-23.7 48.2-0.947 28.3 23.7l-82.7 96.8z" style="fill:#f2b682"/><path d="m523-142 27-22.9s31.2 13.3 48.9 1.08c11-7.57 27.1-25.4 33.6-32.7 27.3-30.6 39.6-43.4 39.6-43.4s10.7-9.47 16.4-11.2c6.14-1.81 9.06 2.58 9.06 2.58s-1.73 4.15-6.33 9.66c-27.7 33.2-82.3 96.7-82.3 96.7z" style="fill:#e39a5a"/><ellipse transform="matrix(.83 .558 -.541 .841 0 0)" cx="434" cy="-596" rx="6.85" ry="5.42" style="fill:#fff;opacity:.923"/><path d="m421-108 220-0.319s2.81 30.1-0.319 44.6c-9 41.9-52 118-52 118s14.9 46.5-0.638 46.6c-37.5 0.0629-73 0.539-115 0.638-15.7 0.0371-0.194-47.1-0.194-47.1s-42.9-75.9-51.9-118c-3.08-14.4-0.255-44.3-0.255-44.3z" style="fill:#824713"/><path d="m421-108c-1.05 14.9-1.79 26.8-0.0395 42.9 73.5-0.344 147-0.689 220-1.03 1.64-13.9 0.954-28.1-0.166-42.2-73.4 0.106-147 0.213-220 0.319z" style="fill:#652d0e"/><path d="m473 54.4 116-0.111c4.88 17.4 12.2 44.3 0.525 46.6-38.9 0.373-78.1 0.421-117 0.631-11.5-2.27-3.34-32.3 1.04-47.1z" style="fill:#e39a5a"/><ellipse transform="rotate(33.5)" cx="446" cy="-359" rx="7.21" ry="5.15" style="fill:#fff;opacity:.923"/><ellipse transform="matrix(.657 .754 -.78 .626 0 0)" cx="340" cy="-475" rx="13.7" ry="9.85" style="fill:#fff;opacity:.923"/></g><g transform="matrix(-.0208 .289 -.289 -.0208 129 47.3)"><path d="m1.72 435 7 0.68c58.4 5.65 116-15.7 157-57.9 40.7-42.2 59.9-101 52.2-159l-0.938-0.121c-59.1-7.63-118 12.6-160 54.7s-62.3 101-54.7 160z" fill="#38876a"/><path d="m219 218 7 0.672c58.4 5.64 116-15.7 157-57.9 40.7-42.2 59.9-101 52.2-159l-0.945-0.121c-59.1-7.63-118 12.6-160 54.7-42.1 42.1-62.3 101-54.7 160z" fill="#38876a"/><path d="m218 219v29.2c0 37.9 17.1 73.7 46.5 97.5 29.4 23.8 68 33.2 105 25.4l0.527-0.113c7.79-37-1.5-75.5-25.3-105-23.8-29.4-59.5-46.5-97.3-46.6-17.8-0.0547-29.7-0.207-29.4-0.527z" fill="#58af7a"/><path d="m218 219v-29.2c0-37.9-17.1-73.7-46.5-97.5-29.4-23.8-68-33.2-105-25.4l-0.52 0.113c-7.77 37 1.52 75.5 25.3 105 23.8 29.4 59.5 46.5 97.3 46.6 17.8 0.0547 29.7 0.207 29.4 0.527z" fill="#58af7a"/><path d="m415 33-11.3-11.3-53 53-5.45-32.7-15.8 2.64 7.32 43.9-33.8 33.8-5.73-40.2-15.8 2.27 7.43 52-26.6 26.6-5.07-25.3-15.7 3.14 7.15 35.8-31.3 31.3-32-32v-36.7h-16v20.7l-24-24v-36.7h-16v20.7l-34.3-34.3-11.3 11.3 34.3 34.3h-20.7v16h36.7l24 24h-20.7v16h36.7l32 32-40 40h-52.7v16h36.7l-24 24h-44.7v16h28.7l-24 24h-36.7v16h20.7l-34.3 34.3 11.3 11.3 37.4-37.4 5.07 25.3 15.7-3.14-7.16-35.8 26-26 5.45 32.7 15.8-2.64-7.32-43.9 25.8-25.8 5.74 40.2 15.8-2.27-7.44-52 39.5-39.5 24 24v36.7h16v-20.7l24 24v36.7h16v-20.7l34.3 34.3 11.3-11.3-34.3-34.3h20.7v-16h-36.7l-24-24h20.7v-16h-36.7l-24-24 32-32h44.7v-16h-28.7l24.4-24.4 61.3-7.66-1.98-15.9-40.9 5.1 29.2-29.2h44.7v-16h-28.7z" fill="#77c974"/></g><g transform="matrix(.239 -.193 .193 .239 -23.9 254)"><path d="m126 411c-35.3-7.05-67.7-24.4-93.1-49.8l-17-17h32c-25.9-25.9-42.5-59.8-47-96.1l-0.984-7.87 40 8-7.71-12.3c-20.2-32.4-23.3-72.6-8.29-108l16 24v-18.7c0-29 11.5-56.8 32-77.3l8 32 1.27-2.98c14.8-34.6 39.4-64.1 70.7-85l7.51 5.01c25.8 17.2 43.4 44.4 48.5 75l16-24c15.6 20.8 24 46 24 72v8l10.7-7.13c8.32-5.54 13.3-14.9 13.3-24.9l7.86 13.8c15.6 27.3 21.3 59.2 16.1 90.2 10.2 0 20.1-4.07 27.3-11.3l4.69-4.69-4 40.2c-2.61 26-12.3 50.9-28 71.8h24l-21.2 42.4c-7.13 14.3-17.1 26.9-29.4 37.1l-0.641 0.488c-18.7 15.6-41.8 25.2-66.1 27.4l-24.5 2.23c-17.4 1.58-35 0.629-52.2-2.82z" fill="#389a6b"/><g fill="#58af7a"><path d="m168 384h-23c-22.6-4e-3 -45-2.77-66.9-8.24l3.89-15.5c20.6 5.16 41.8 7.76 63 7.76h21.9l5.67-1.6c31.5-8.96 60.9-24.1 86.4-44.6l10 12.5c-27.2 21.8-58.5 38-92.1 47.5l-6.75 1.92c-0.711 0.203-1.45 0.301-2.19 0.297z"/><path d="m171 417-22.7-54.5c-29.6-71-38.6-149-25.9-225l13.8-82.7 15.8 2.64-13.8 82.7c-12.2 72.9-3.52 148 24.9 216l22.7 54.5z"/><path d="m136 320h-1.35c-32 0-63.4-8.69-90.8-25.1l8.24-13.7c24.9 15 53.5 22.9 82.5 22.9h0.801l28.9-4.13c33.7-4.82 64.9-20.4 89-44.5l13-13 11.3 11.3-13 13c-26.5 26.5-60.9 43.7-98.1 49l-29.4 4.21c-0.383 0.0547-0.766 0.082-1.15 0.0781z"/><path d="m167 240h-38.7c-0.656 0-1.31-0.082-1.95-0.238l-29.3-7.32c-24.3-6.07-44.7-22.5-55.9-44.9l14.3-7.15c9.1 18.2 25.7 31.6 45.5 36.5l28.3 7.09h37.7c31 4e-3 60.3-14.6 78.9-39.4l4-5.36 12.8 9.6-4 5.36c-21.6 28.9-55.6 45.8-91.7 45.8z"/><path d="m128 160c-1.02 0-2.03-0.195-2.98-0.574l-13.2-5.29c-19-7.55-35.2-20.7-46.5-37.7l13.3-8.88c9.5 14.3 23.1 25.4 39.1 31.7l10.8 4.34 33.5-8.42c17.6-4.39 34.4-11.8 49.5-21.9l8.88 13.3c-16.6 11.1-35.1 19.3-54.5 24.1l-36 9c-0.641 0.172-1.3 0.266-1.96 0.273z"/></g></g><g transform="matrix(-.215 -.377 -.377 .215 396 275)"><g fill="#3d7606"><path d="m12.4 32c-4.78 0.00391-9.13 2.76-11.2 7.08-2.05 4.32-1.43 9.43 1.58 13.1l83.8 103c2.35 2.9 5.88 4.58 9.6 4.59 0.691-0.0391 1.38-0.141 2.05-0.297 4.33-0.711 7.96-3.68 9.52-7.78 1.56-4.11 0.816-8.73-1.95-12.1l-83.8-103c-2.35-2.9-5.89-4.59-9.62-4.59z" style="fill:#38876a"/><path d="m130 160c0.676 0.156 1.36 0.258 2.06 0.297h0.0391c3.73-4e-3 7.25-1.69 9.6-4.59l83.9-103c3.02-3.71 3.63-8.82 1.58-13.1-2.05-4.32-6.4-7.07-11.2-7.08h-0.0391c-3.73 0.0039-7.25 1.69-9.6 4.59l-83.9 103c-2.77 3.41-3.51 8.03-1.95 12.1 1.56 4.11 5.18 7.07 9.52 7.78z" style="fill:#38876a"/><path d="m95.7 252-33.4-89.4c-0.875-1.94-0.945-4.14-0.195-6.13 0.75-1.98 2.26-3.59 4.2-4.46 1.94-0.875 4.14-0.945 6.12-0.195 1.99 0.75 3.59 2.26 4.47 4.2l33.4 89.4c0.875 1.94 0.949 4.14 0.195 6.13-0.75 1.98-2.26 3.59-4.2 4.46-1.93 0.875-4.14 0.945-6.12 0.195-1.98-0.75-3.59-2.26-4.46-4.2z" style="fill:#38876a"/><path d="m122 384c-1.93-0.871-3.45-2.48-4.2-4.46-0.75-1.99-0.68-4.19 0.195-6.13l33.4-89.4c0.871-1.94 2.48-3.45 4.46-4.2 1.99-0.75 4.19-0.68 6.12 0.195 1.94 0.871 3.45 2.48 4.2 4.46 0.754 1.99 0.68 4.19-0.195 6.13l-33.4 89.4c-0.875 1.94-2.48 3.45-4.47 4.2-1.98 0.75-4.19 0.68-6.12-0.195z" style="fill:#38876a"/><path d="m95.7 380-33.4-89.4c-0.875-1.94-0.945-4.14-0.195-6.13 0.75-1.98 2.26-3.59 4.2-4.46 1.94-0.875 4.14-0.945 6.12-0.195 1.99 0.75 3.59 2.26 4.47 4.2l33.4 89.4c0.875 1.94 0.949 4.14 0.195 6.13-0.75 1.98-2.26 3.59-4.2 4.46-1.93 0.875-4.14 0.945-6.12 0.195-1.98-0.75-3.59-2.26-4.46-4.2z" style="fill:#38876a"/><path d="m122 256c-1.93-0.871-3.45-2.48-4.2-4.46-0.75-1.99-0.68-4.19 0.195-6.13l33.4-89.4c0.871-1.94 2.48-3.45 4.46-4.2 1.99-0.75 4.19-0.68 6.12 0.195 1.94 0.871 3.45 2.48 4.2 4.46 0.754 1.99 0.68 4.19-0.195 6.13l-33.4 89.4c-0.875 1.94-2.48 3.45-4.47 4.2-1.98 0.75-4.19 0.68-6.12-0.195z" style="fill:#38876a"/></g><path d="m130 448v-314c0-4.29-1.73-8.41-4.8-11.4-6.22-6.1-16.2-6.1-22.4 0-3.07 3.01-4.8 7.12-4.8 11.4v314z" fill="#d2d76d"/><path d="m114 0c-8.84 0-16 7.16-16 16v87.1l16 28.4 16-28.4v-87.1c0-8.84-7.16-16-16-16z" fill="#3d7606" style="fill:#38876a"/><g fill="#498c07"><path d="m114 260-83.8-103c-2.35-2.9-5.88-4.58-9.6-4.59-4.78 4e-3 -9.13 2.76-11.2 7.08-2.05 4.32-1.43 9.43 1.58 13.1l83.8 103c2.35 2.9 5.87 4.58 9.6 4.59 0.684-0.043 1.36-0.141 2.03-0.297 4.33-0.711 7.96-3.68 9.52-7.78 1.56-4.11 0.816-8.73-1.95-12.1z" style="fill:#58af7a"/><path d="m124 280c3.73-4e-3 7.25-1.69 9.6-4.59l83.9-103c3.02-3.71 3.63-8.82 1.58-13.1-2.05-4.32-6.4-7.07-11.2-7.08h-0.0391c-3.73 4e-3 -7.25 1.69-9.6 4.59l-83.8 103c-2.77 3.41-3.51 8.02-1.96 12.1 1.55 4.1 5.17 7.07 9.5 7.79 0.676 0.156 1.36 0.258 2.06 0.297z" style="fill:#58af7a"/><path d="m10.7 292 83.8 103c2.35 2.9 5.87 4.58 9.6 4.59 0.711-0.0352 1.42-0.137 2.12-0.297 4.33-0.711 7.96-3.68 9.52-7.78 1.56-4.11 0.816-8.73-1.95-12.1l-83.8-103c-2.35-2.9-5.88-4.58-9.6-4.59-4.8-0.0312-9.18 2.71-11.3 7.04-2.07 4.33-1.46 9.46 1.57 13.2z" style="fill:#58af7a"/><path d="m124 400c3.73-4e-3 7.25-1.69 9.6-4.59l83.9-103c3.02-3.71 3.63-8.82 1.58-13.1-2.05-4.32-6.4-7.07-11.2-7.08h-0.0391c-3.73 4e-3 -7.25 1.69-9.6 4.59l-83.8 103c-2.77 3.41-3.51 8.02-1.96 12.1 1.55 4.1 5.17 7.07 9.5 7.79 0.676 0.156 1.36 0.258 2.06 0.297z" style="fill:#58af7a"/><path d="m77.9 116-41.2-73.3c-2.16-3.84-2.12-8.54 0.102-12.3 2.22-3.8 6.29-6.14 10.7-6.14h3.55c4.48 0 8.61 2.42 10.8 6.32l52.4 93.2 52.4-93.2c2.2-3.9 6.32-6.32 10.8-6.32h3.55c4.41 0.0039 8.48 2.34 10.7 6.14 2.22 3.8 2.26 8.5 0.102 12.3l-41.2 73.3c-6.81 12.1-15.3 23.2-25.1 33-6.24 6.21-16.3 6.21-22.6 0-9.85-9.81-18.3-20.9-25.1-33z" style="fill:#58af7a"/></g></g><g transform="matrix(.115 .194 -.194 .115 105 -66.6)" fill="#389a6b"><path d="m177 357-17.1-146 24.8-139 32-72 14.6 6.5-31.6 71.1-23.6 134 14.9 126 86.5-14.4 127-63.5 7.15 14.3-130 64.7z"/><path d="m217 479-24.7-50-15.2-75.9-110-47.2-57.3-73.6 12.6-9.82 54.7 70.4 114 48.8 16.6 83.1 23.5 47z"/><path d="m167 252-53-44.2-40.7-89.7 14.6-6.62 39.3 86.3 43 35.8 98-37.7 62.8-62.8 11.3 11.3-65.2 65.2z"/><path d="m190 85-51.7-68.9 12.8-9.6 44.3 59.1 74.3-29.7 5.95 14.9z"/><path d="m360 195h-79.2l-8.79-79.1 15.9-1.76 7.21 64.9h64.8z"/><path d="m109 182-71.5-26.8 5.61-15 56.5 21.2 21.2-56.5 15 5.63z"/><path d="m405 323-60.9-26.1v-53.3h16v42.7l51.2 21.9z"/><path d="m304 413-15.8-2.62 7.32-43.9-31.4-31.4v-55.3l-28.8-21.6 9.6-12.8 35.2 26.4v56.7l32.6 32.6z"/><path d="m330 408-42.4-53h64.6v16h-31.4l21.6 27z"/><path d="m264 292v-64.6h16v31.4l27-21.6 10 12.5z"/><path d="m240 219h-16v-52l-28.8-21.6 9.6-12.8 35.2 26.4z"/><path d="m224 183v-75.3h16v36.7l18.3-18.3 11.3 11.3z"/><path d="m63.5 283h-63.1v-16h48.9l7.13-57 15.9 1.98z"/><path d="m81.6 356-59.3-16.9 4.4-15.4 52.7 15.1 33.1-19.9v-40.7l-30.2-37.8 12.5-10 33.8 42.2v55.3z"/><path d="m112 291v-56h16v24l19.2-14.4 9.6 12.8z"/><path d="m63.8 406-14.7-6.3 16.1-37.6-37.6 16.1-6.3-14.7 74.4-31.9z"/></g></svg>
