<svg width="512" height="512" xmlns="http://www.w3.org/2000/svg">
 <!-- Created with Method Draw - http://github.com/duopixel/Method-Draw/ -->

 <g>
  <title>background</title>
  <rect fill="none" id="canvas_background" height="514" width="514" y="-1" x="-1"/>
  <g display="none" overflow="visible" y="0" x="0" height="100%" width="100%" id="canvasGrid">
   <rect fill="url(#gridpattern)" stroke-width="0" y="0" x="0" height="100%" width="100%"/>
  </g>
 </g>
 <g>
  <title>Layer 1</title>
  <g stroke="null" id="svg_36">
   <path stroke="null" id="svg_6" fill="#ebebeb" d="m400.614805,510.776581l-289.012808,0l-6.404945,-8.005053a290.668611,290.668611 0 0 1 -55.010276,-252.08239l37.330821,-149.347369l337.18161,0l37.330821,149.347369a290.668611,290.668611 0 0 1 -55.016298,252.08239l-6.398924,8.005053z"/>
   <g stroke="null" transform="matrix(1.505275043213665,0,0,1.505275043213665,-2629.277577705337,-3428.681855942794) " id="svg_7" fill="#e4e4e2">
    <path stroke="null" id="svg_8" d="m2053.64966,2444.318118l-24.8,-99.216l-206.572,0l-24.8,99.216a193.1,193.1 0 0 0 36.549,167.466l4.251,5.318l174.572,0l4.254,-5.318a193.1,193.1 0 0 0 36.546,-167.466z"/>
    <path stroke="null" id="svg_9" d="m2053.64966,2444.318118l-24.8,-99.216l-206.572,0l-24.8,99.216a193.1,193.1 0 0 0 36.549,167.466l4.251,5.318l174.572,0l4.254,-5.318a193.1,193.1 0 0 0 36.546,-167.466z"/>
   </g>
   <path stroke="null" id="svg_17" fill="#d2d2d1" d="m69.454295,173.594971l373.308211,0l-9.03165,-36.126601l-355.24491,0l-9.03165,36.126601z"/>
   <rect stroke="null" transform="matrix(1.505275043213665,0,0,1.505275043213665,-2629.277577705337,-3428.681855942794) " id="svg_18" y="2281.102074" x="1788.849676" width="256" rx="16" height="64" fill="#ce9c77"/>
   <path stroke="null" id="svg_19" fill="#be906e" d="m508.932892,173.594971c-31.642387,0 -31.642387,24.084401 -63.283268,24.084401s-31.621313,-48.168801 -63.24112,-48.168801c-31.592713,0 -31.592713,48.168801 -63.185425,48.168801s-31.610776,-48.168801 -63.221552,-48.168801s-31.601744,48.168801 -63.203489,48.168801s-31.600239,-48.168801 -63.201983,-48.168801s-31.601744,48.168801 -63.201983,48.168801s-31.585186,-24.084401 -63.171878,-24.084401l0,-0.066232a50.48542,50.48542 0 0 1 34.112543,-47.756356l47.172309,-24.430614l343.20271,0l47.115109,24.40954a50.48843,50.48843 0 0 1 34.108027,47.843662z"/>
   <path stroke="null" id="svg_20" fill="#be906e" d="m400.614805,65.215168l-48.168801,0a12.0422,12.0422 0 0 1 0,-24.084401l48.168801,0a12.0422,12.0422 0 0 1 0,24.084401z"/>
   <path stroke="null" id="svg_21" fill="#be906e" d="m304.277202,65.215168l-12.0422,0a12.0422,12.0422 0 0 1 0,-24.084401l12.0422,0a12.0422,12.0422 0 0 1 0,24.084401z"/>
   <path stroke="null" id="svg_22" fill="#b28768" d="m472.868007,125.42617l0,-0.686405l-45.158251,-23.397995l-343.20271,0l-46.505472,24.084401l434.866434,0z"/>
   <path stroke="null" id="svg_30" fill="#ffc45b" d="m462.030027,250.689138l-1.20422,-4.840965l-409.434812,0l-1.20422,4.840965a290.668611,290.668611 0 0 0 55.017803,252.08239l6.397419,8.005053l289.012808,0l6.40344,-8.005053a290.668611,290.668611 0 0 0 55.011782,-252.08239z"/>
   <path stroke="null" id="svg_31" fill="#fdb62f" d="m462.030027,250.689138l-1.20422,-4.840965l-383.200878,0l-1.20422,4.840965a290.668611,290.668611 0 0 0 55.017803,252.08239l6.397419,8.005053l262.778875,0l6.40344,-8.005053a290.668611,290.668611 0 0 0 55.011782,-252.08239z"/>
   <path stroke="null" id="svg_32" fill="#d38e14" d="m190.15628,381.371096l0,38.080448l32.979071,19.040224l32.979071,-19.040224l0,-38.080448l48.16278,-3.058719l-12.0422,-12.0422l-36.126601,-48.168801l0,12.0422l-24.084401,24.084401l-8.888649,8.102896l-32.979071,19.040224z"/>
   <path stroke="null" id="svg_33" fill="#ffc45b" d="m117.799214,424.799786a12.052737,12.052737 0 0 1 -11.042698,-7.22532l-5.841972,-13.371358a222.871023,222.871023 0 0 1 -16.11698,-123.208268a12.0422,12.0422 0 1 1 23.793883,3.644271a198.810707,198.810707 0 0 0 14.382903,109.913678l5.849499,13.377379a12.052737,12.052737 0 0 1 -11.030656,16.869617l0.006021,0z"/>
   <path stroke="null" id="svg_34" fill="#dc9315" d="m223.135351,324.113444l0,38.080448l32.979071,19.040224l32.979071,-19.040224l0,-38.080448l-32.979071,-19.040224l-32.979071,19.040224z"/>
   <path stroke="null" id="svg_35" fill="#ec9e15" d="m256.114422,381.402707l0,38.080448l32.979071,19.040224l32.979071,-19.040224l0,-38.080448l-32.979071,-19.040224l-32.979071,19.040224z"/>
  </g>
 </g>
</svg>