<svg width="512" height="512" version="1.1" xmlns="http://www.w3.org/2000/svg"><g><title>background</title><rect id="canvas_background" x="-1" y="-1" width="514" height="514" fill="none"/><g id="canvasGrid" x="0" y="0" width="100%" height="100%" display="none" overflow="visible"><rect width="100%" height="100%" fill="url(#gridpattern)" stroke-width="0"/></g></g><g><title>Layer 1</title><g stroke="null"><path d="m401 511h-289l-6.4-8.01a291 291 0 0 1-55-252l37.3-149h337l37.3 149a291 291 0 0 1-55 252l-6.4 8.01z" fill="#ebebeb"/><g transform="matrix(1.51 0 0 1.51 -2629 -3429)" fill="#e4e4e2"><path d="m2054 2444-24.8-99.2h-207l-24.8 99.2a193 193 0 0 0 36.5 167l4.25 5.32h175l4.25-5.32a193 193 0 0 0 36.5-167z"/><path d="m2054 2444-24.8-99.2h-207l-24.8 99.2a193 193 0 0 0 36.5 167l4.25 5.32h175l4.25-5.32a193 193 0 0 0 36.5-167z"/></g><path d="m69.5 174h373l-9.03-36.1h-355l-9.03 36.1z" fill="#d2d2d1"/><rect transform="matrix(1.51 0 0 1.51 -2629 -3429)" x="1789" y="2281" width="256" height="64" rx="16" fill="#ce9c77"/><g fill="#be906e"><path d="m509 174c-31.6 0-31.6 24.1-63.3 24.1s-31.6-48.2-63.2-48.2c-31.6 0-31.6 48.2-63.2 48.2s-31.6-48.2-63.2-48.2-31.6 48.2-63.2 48.2-31.6-48.2-63.2-48.2-31.6 48.2-63.2 48.2-31.6-24.1-63.2-24.1v-0.0662a50.5 50.5 0 0 1 34.1-47.8l47.2-24.4h343l47.1 24.4a50.5 50.5 0 0 1 34.1 47.8z"/><path d="m401 65.2h-48.2a12 12 0 0 1 0-24.1h48.2a12 12 0 0 1 0 24.1z"/><path d="m304 65.2h-12a12 12 0 0 1 0-24.1h12a12 12 0 0 1 0 24.1z"/></g><path d="m473 125v-0.686l-45.2-23.4h-343l-46.5 24.1h435z" fill="#b28768"/><path d="m462 251-1.2-4.84h-409l-1.2 4.84a291 291 0 0 0 55 252l6.4 8.01h289l6.4-8.01a291 291 0 0 0 55-252z" fill="#ffc45b"/><path d="m462 251-1.2-4.84h-383l-1.2 4.84a291 291 0 0 0 55 252l6.4 8.01h263l6.4-8.01a291 291 0 0 0 55-252z" fill="#fdb62f"/><path d="m190 381v38.1l33 19 33-19v-38.1l48.2-3.06-12-12-36.1-48.2v12l-24.1 24.1-8.89 8.1-33 19z" fill="#d38e14"/><path d="m118 425a12.1 12.1 0 0 1-11-7.23l-5.84-13.4a223 223 0 0 1-16.1-123 12 12 0 1 1 23.8 3.64 199 199 0 0 0 14.4 110l5.85 13.4a12.1 12.1 0 0 1-11 16.9h0.00602z" fill="#ffc45b"/><path d="m223 324v38.1l33 19 33-19v-38.1l-33-19-33 19z" fill="#dc9315"/><path d="m256 381v38.1l33 19 33-19v-38.1l-33-19-33 19z" fill="#ec9e15"/></g></g></svg>
