<svg width="512" height="512" version="1.1" xmlns="http://www.w3.org/2000/svg"><g><title>background</title><rect id="canvas_background" x="-1" y="-1" width="514" height="514" fill="none"/><g id="canvasGrid" x="0" y="0" width="100%" height="100%" display="none" overflow="visible"><rect width="100%" height="100%" fill="url(#gridpattern)" stroke-width="0"/></g></g><g><title>Layer 1</title><g stroke="null"><g transform="matrix(.992 0 0 .992 -170 -279)" stroke="null"><path d="m591 436c-106-7.06-212-7.06-318 0-31.8 2.12-57.4 26.9-60.4 58.6-7.35 79.1-7.35 158 0 237 2.95 31.7 28.6 56.5 60.4 58.6 106 7.06 212 7.06 318 0 31.8-2.12 57.4-26.9 60.4-58.6 7.35-79.1 7.35-158 0-237-2.95-31.7-28.6-56.5-60.4-58.6z" fill="#dd636e"/><path d="m287 740c1.31 22.6 9.31 41.8 20.8 52.8-11.4-0.594-22.9-1.28-34.3-2.04-31.8-2.11-57.4-26.9-60.4-58.6-7.35-79.1-7.35-158 0-237 2.95-31.7 28.6-56.5 60.4-58.6 11.4-0.758 22.9-1.44 34.3-2.04-11.5 11-19.5 30.2-20.8 52.8-4.87 84.3-4.87 169 0 253z" fill="#da4a54"/><ellipse cx="432" cy="619" rx="152" ry="120" fill="#f9efda"/><path d="m568 385h-0.035c6.39-4.23 11-11 12.4-19 3.2-18.8 3.2-37.6 0-56.4-2.26-13.3-13.5-23.2-27-23.7-81-2.7-162-2.7-243 0-13.5 0.45-24.7 10.4-27 23.7-3.2 18.8-3.2 37.6 0 56.4 1.36 8 5.98 14.8 12.4 19h-0.035c-46.2 29.3-109 46.1-88.7 85.4 20.3 39.3 74.1-23.1 106-18s-12.5 84 25.4 84c37.9 0 58.8-66 93.4-66s55.5 66 93.4 66-6.54-78.9 25.4-84 85.7 57.3 106 18c20.3-39.3-42.5-56.1-88.7-85.4z" fill="#ffe07d"/><path d="m356 366c0.7 7.99 3.05 21.9 6.3 26.1l-0.02-7.15c-19.7 24.5-45.4 40.3-47.1 67.9-0.731-0.237-1.5-0.412-2.34-0.546-31.9-5.07-85.7 57.3-106 18-20.3-39.3 42.5-56.1 88.7-85.4h0.031c-6.39-4.22-11-11-12.4-19-3.19-18.8-3.19-37.6 0-56.4 2.26-13.3 13.5-23.2 27-23.7 17.9-0.597 35.7-1.06 53.6-1.39-4.03 5.64-7 15.9-7.79 25.1-1.63 18.8-1.63 37.6-1e-3 56.4z" fill="#ffd064"/><path d="m432 403c-49 0-98-3.24-147-9.71-4.23-0.563-7.2-4.45-6.64-8.68 0.563-4.23 4.46-7.2 8.68-6.64 96 12.8 193 12.8 289 0 4.23-0.561 8.12 2.41 8.68 6.64 0.562 4.23-2.41 8.12-6.64 8.68-48.7 6.47-97.7 9.71-147 9.71z" fill="#f9efda"/><path d="m471 335c-8.97-6.32-19.1-6.7-27.7-1.01-4.74 3.13-8.61 7.8-11.5 13.5-2.9-5.72-6.77-10.4-11.5-13.5-8.6-5.68-18.7-5.32-27.7 1.01-9.41 6.63-10.9 14.4-10.6 19.7 1.31 18.4 28.3 35.1 39.4 41.1 0.384 1.76 0.974 3.94 1.86 6.37-3.57 6.15-10.2 12.9-22.4 15.8-4.15 0.983-6.72 5.14-5.74 9.3 0.842 3.55 4.01 5.95 7.51 5.95 0.589 0 1.19-0.067 1.79-0.209 12.5-2.96 21.3-9.19 27.3-16.2 5.54 6.56 14.1 13.1 27.3 16.2 0.599 0.142 1.2 0.209 1.79 0.209 3.5 0 6.67-2.39 7.51-5.95 0.982-4.15-1.59-8.32-5.74-9.3-12.1-2.87-18.7-9.62-22.3-15.8 0.85-2.27 1.47-4.45 1.89-6.45 11.1-6.1 38-22.7 39.3-41.1 0.378-5.31-1.14-13-10.6-19.7zm-73.5 18.6c-0.057-0.802-0.208-2.93 4.04-5.93 2.31-1.63 4.25-2.19 5.88-2.19 1.85 0 3.28 0.727 4.36 1.44 7.75 5.12 11 18.4 10.5 31.4-11.8-7.48-24.2-17.8-24.7-24.7zm68.6 0c-0.496 6.99-12.9 17.3-24.7 24.7-0.524-13 2.71-26.3 10.5-31.4 1.08-0.715 2.52-1.44 4.37-1.44 1.62 0 3.57 0.562 5.88 2.19 4.25 3 4.1 5.13 4.04 5.93z" fill="#f9efda"/><path d="m433 576c40.8 0 64.3-26 54.9-35.3s-19.5 8.8-27.5 8.8 3.39-16-4.93-19.2-15 18.1-23.4 18.1-15-21.3-23.4-18.1c-8.32 3.19 3.01 19.2-4.93 19.2s-18.1-18.1-27.5-8.8c-9.33 9.33 14.1 35.3 54.9 35.3" fill="#b3e59f"/><path d="m432 576h-0.44c-40.8 0-64.3-26-54.9-35.3 9.33-9.33 19.5 8.8 27.5 8.8 0.783 0 1.38-0.155 1.82-0.44 1.68 11.4 11.5 27 26.1 27z" fill="#95d6a4"/><path d="m432 574c-38.2 0-69.2 0.613-69.2 38.8 0 8.18 1.42 17.4 4.03 26.9 5.24 19.1 15.3 39.1 28.3 53.2 1.79 1.96 3.64 3.81 5.53 5.53 9.42 8.54 20.1 13.9 31.4 13.9 16.8 0 32.1-11.8 44.1-28.3 15.3-21.1 25.1-49.8 25.1-71.3 0-38.2-31-38.8-69.2-38.8z" fill="#dd636e"/><path d="m432 712c-38.2 0-69.2-61.3-69.2-99.6 0-38.2 31-38.8 69.2-38.8-17.9 0-32.4 0.614-32.4 38.8 1e-3 38.2 14.5 99.6 32.4 99.6z" fill="#da4a54"/><g fill="#664545"><path d="m395 631c-4.27 0-7.73-3.46-7.73-7.73v-10c0-4.27 3.46-7.73 7.73-7.73s7.73 3.46 7.73 7.73v10c0 4.27-3.46 7.73-7.73 7.73z"/><path d="m432 631c-4.27 0-7.73-3.46-7.73-7.73v-10c0-4.27 3.46-7.73 7.73-7.73s7.73 3.46 7.73 7.73v10c0 4.27-3.46 7.73-7.73 7.73z"/><path d="m469 631c-4.27 0-7.73-3.46-7.73-7.73v-10c0-4.27 3.46-7.73 7.73-7.73 4.27 0 7.73 3.46 7.73 7.73v10c0 4.27-3.46 7.73-7.73 7.73z"/><path d="m413 674c-4.27 0-7.73-3.46-7.73-7.73v-10c0-4.27 3.46-7.73 7.73-7.73 4.27 0 7.73 3.46 7.73 7.73v10c0 4.27-3.46 7.73-7.73 7.73z"/><path d="m451 674c-4.27 0-7.73-3.46-7.73-7.73v-10c0-4.27 3.46-7.73 7.73-7.73s7.73 3.46 7.73 7.73v10c1e-3 4.27-3.46 7.73-7.73 7.73z"/></g></g></g></g></svg>
