<svg width="512" height="512" xmlns="http://www.w3.org/2000/svg">
 <!-- Created with Method Draw - http://github.com/duopixel/Method-Draw/ -->

 <g>
  <title>background</title>
  <rect fill="none" id="canvas_background" height="514" width="514" y="-1" x="-1"/>
  <g display="none" overflow="visible" y="0" x="0" height="100%" width="100%" id="canvasGrid">
   <rect fill="url(#gridpattern)" stroke-width="0" y="0" x="0" height="100%" width="100%"/>
  </g>
 </g>
 <g>
  <title>Layer 1</title>
  <g stroke="null" id="svg_26">
   <g stroke="null" transform="matrix(0.991940392786632,0,0,0.991940392786632,-170.13995680351124,-279.28585924978205) " id="svg_5">
    <path stroke="null" id="svg_6" fill="#dd636e" d="m591.078873,436.425615c-105.971,-7.058 -211.943,-7.058 -317.914,0c-31.779,2.116 -57.418,26.877 -60.365,58.59c-7.348,79.078 -7.348,158.155 0,237.233c2.947,31.713 28.585,56.473 60.365,58.59c105.971,7.058 211.943,7.058 317.914,0c31.779,-2.116 57.418,-26.877 60.365,-58.59c7.348,-79.078 7.348,-158.155 0,-237.233c-2.947,-31.713 -28.586,-56.474 -60.365,-58.59z"/>
    <path stroke="null" id="svg_7" fill="#da4a54" d="m286.709873,740.054615c1.311,22.57 9.313,41.832 20.767,52.815c-11.434,-0.594 -22.878,-1.281 -34.311,-2.039c-31.771,-2.11 -57.415,-26.873 -60.365,-58.583c-7.346,-79.083 -7.346,-158.156 0,-237.24c2.951,-31.709 28.595,-56.472 60.365,-58.583c11.434,-0.758 22.878,-1.445 34.311,-2.039c-11.454,10.983 -19.456,30.244 -20.767,52.815c-4.867,84.288 -4.867,168.566 0,252.854z"/>
    <ellipse stroke="null" id="svg_8" ry="119.693" rx="151.502" fill="#f9efda" cy="618.580615" cx="432.121873"/>
    <path stroke="null" id="svg_9" fill="#ffe07d" d="m568.271873,385.173615l-0.035,0c6.388,-4.227 11.007,-10.981 12.367,-18.978c3.195,-18.792 3.195,-37.583 0,-56.375c-2.261,-13.298 -13.497,-23.212 -26.978,-23.662c-81.002,-2.703 -162.005,-2.703 -243.007,0c-13.481,0.45 -24.717,10.364 -26.978,23.662c-3.195,18.792 -3.195,37.583 0,56.375c1.36,7.997 5.979,14.751 12.367,18.978l-0.035,0c-46.169,29.259 -109,46.069 -88.683,85.358c20.318,39.29 74.087,-23.107 106.006,-18.037s-12.519,84.01 25.385,84.01c37.903,0 58.797,-65.97 93.442,-65.97s55.539,65.97 93.442,65.97s-6.535,-78.941 25.385,-84.01s85.689,57.327 106.006,18.037c20.316,-39.29 -42.515,-56.099 -88.684,-85.358z"/>
    <path stroke="null" id="svg_10" fill="#ffd064" d="m356.442873,366.191615c0.7,7.994 3.049,21.903 6.305,26.127l-0.02,-7.151c-19.718,24.508 -45.38,40.29 -47.09,67.868c-0.731,-0.237 -1.504,-0.412 -2.339,-0.546c-31.925,-5.068 -85.69,57.33 -106.005,18.038c-20.325,-39.291 42.505,-56.104 88.678,-85.361l0.031,0c-6.387,-4.224 -11.003,-10.982 -12.362,-18.976c-3.194,-18.79 -3.194,-37.581 0,-56.371c2.256,-13.3 13.495,-23.22 26.98,-23.663c17.873,-0.597 35.747,-1.061 53.611,-1.391c-4.028,5.635 -6.995,15.885 -7.788,25.054c-1.629,18.791 -1.629,37.581 -0.001,56.372z"/>
    <path stroke="null" id="svg_11" fill="#f9efda" d="m432.103873,402.541615c-48.998,0 -97.996,-3.236 -146.651,-9.709c-4.229,-0.563 -7.202,-4.448 -6.64,-8.678c0.563,-4.23 4.456,-7.198 8.678,-6.64c95.958,12.766 193.269,12.766 289.226,0c4.228,-0.561 8.115,2.409 8.678,6.64c0.562,4.229 -2.41,8.115 -6.64,8.678c-48.655,6.473 -97.653,9.709 -146.651,9.709z"/>
    <path stroke="null" id="svg_12" fill="#f9efda" d="m471.273873,335.047615c-8.971,-6.325 -19.055,-6.695 -27.661,-1.01c-4.739,3.13 -8.613,7.796 -11.509,13.51c-2.896,-5.715 -6.77,-10.38 -11.509,-13.51c-8.605,-5.684 -18.687,-5.316 -27.66,1.01c-9.408,6.633 -10.932,14.354 -10.553,19.663c1.314,18.417 28.305,35.061 39.371,41.137c0.384,1.76 0.974,3.937 1.864,6.366c-3.573,6.15 -10.181,12.929 -22.36,15.811c-4.152,0.983 -6.721,5.145 -5.739,9.298c0.842,3.554 4.012,5.949 7.513,5.949c0.589,0 1.187,-0.067 1.786,-0.209c12.525,-2.964 21.293,-9.194 27.258,-16.215c5.539,6.563 14.119,13.091 27.318,16.215c0.599,0.142 1.197,0.209 1.787,0.209c3.499,0 6.67,-2.394 7.512,-5.949c0.982,-4.152 -1.588,-8.315 -5.739,-9.298c-12.143,-2.874 -18.748,-9.62 -22.328,-15.756c0.85,-2.274 1.469,-4.452 1.889,-6.452c11.103,-6.103 38.003,-22.722 39.314,-41.105c0.378,-5.31 -1.145,-13.031 -10.554,-19.664zm-73.478,18.56c-0.057,-0.802 -0.208,-2.934 4.043,-5.932c2.307,-1.626 4.251,-2.188 5.875,-2.188c1.847,0 3.282,0.727 4.365,1.442c7.752,5.121 10.982,18.42 10.458,31.426c-11.849,-7.476 -24.246,-17.755 -24.741,-24.748zm68.618,0c-0.496,6.993 -12.893,17.272 -24.742,24.748c-0.524,-13.005 2.706,-26.304 10.458,-31.425c1.083,-0.715 2.518,-1.443 4.366,-1.443c1.625,0 3.568,0.562 5.875,2.188c4.251,2.998 4.1,5.13 4.043,5.932z"/>
    <g stroke="null" id="svg_13">
     <path stroke="null" id="svg_14" fill="#b3e59f" d="m432.940873,576.126615c40.794,0 64.267,-26.006 54.937,-35.336s-19.529,8.804 -27.463,8.804s3.393,-15.977 -4.927,-19.165s-15.032,18.066 -23.366,18.066s-15.045,-21.254 -23.366,-18.066c-8.32,3.188 3.007,19.165 -4.927,19.165s-18.133,-18.133 -27.463,-8.804c-9.33,9.33 14.143,35.336 54.937,35.336"/>
     <path stroke="null" id="svg_15" fill="#95d6a4" d="m431.744873,576.125615l-0.44,0c-40.796,0 -64.27,-26.008 -54.939,-35.335c9.331,-9.331 19.529,8.803 27.465,8.803c0.783,0 1.378,-0.155 1.822,-0.44c1.675,11.371 11.48,26.972 26.092,26.972z"/>
     <path stroke="null" id="svg_16" fill="#dd636e" d="m432.120873,574.032615c-38.217,0 -69.199,0.613 -69.199,38.83c0,8.183 1.419,17.424 4.028,26.898c5.244,19.06 15.293,39.061 28.254,53.237c1.788,1.961 3.635,3.807 5.53,5.53c9.421,8.54 20.084,13.903 31.387,13.903c16.76,0 32.124,-11.798 44.099,-28.266c15.334,-21.09 25.102,-49.842 25.102,-71.299c0,-38.218 -30.982,-38.836 -69.201,-38.833z"/>
     <path stroke="null" id="svg_17" fill="#da4a54" d="m432.118873,712.431615c-38.22,0 -69.198,-61.347 -69.198,-99.566c0,-38.22 30.978,-38.834 69.198,-38.834c-17.898,0 -32.408,0.614 -32.408,38.834c0.001,38.219 14.511,99.566 32.408,99.566z"/>
     <g stroke="null" id="svg_18" fill="#664545">
      <g stroke="null" id="svg_19">
       <path stroke="null" id="svg_20" d="m394.871873,630.626615c-4.268,0 -7.726,-3.459 -7.726,-7.726l0,-10.036c0,-4.267 3.459,-7.726 7.726,-7.726s7.726,3.459 7.726,7.726l0,10.036c0,4.267 -3.458,7.726 -7.726,7.726z"/>
       <path stroke="null" id="svg_21" d="m432.122873,630.626615c-4.268,0 -7.726,-3.459 -7.726,-7.726l0,-10.036c0,-4.267 3.459,-7.726 7.726,-7.726s7.726,3.459 7.726,7.726l0,10.036c0,4.267 -3.459,7.726 -7.726,7.726z"/>
       <path stroke="null" id="svg_22" d="m469.371873,630.626615c-4.268,0 -7.726,-3.459 -7.726,-7.726l0,-10.036c0,-4.267 3.459,-7.726 7.726,-7.726c4.268,0 7.726,3.459 7.726,7.726l0,10.036c0,4.267 -3.458,7.726 -7.726,7.726z"/>
      </g>
      <g stroke="null" id="svg_23">
       <path stroke="null" id="svg_24" d="m413.496873,673.587615c-4.268,0 -7.726,-3.459 -7.726,-7.726l0,-10.036c0,-4.267 3.459,-7.726 7.726,-7.726c4.268,0 7.726,3.459 7.726,7.726l0,10.036c0,4.267 -3.459,7.726 -7.726,7.726z"/>
       <path stroke="null" id="svg_25" d="m450.746873,673.587615c-4.268,0 -7.726,-3.459 -7.726,-7.726l0,-10.036c0,-4.267 3.459,-7.726 7.726,-7.726s7.726,3.459 7.726,7.726l0,10.036c0.001,4.267 -3.458,7.726 -7.726,7.726z"/>
      </g>
     </g>
    </g>
   </g>
  </g>
 </g>
</svg>