<svg width="512" height="512" xmlns="http://www.w3.org/2000/svg">
 <!-- Created with Method Draw - http://github.com/duopixel/Method-Draw/ -->

 <g>
  <title>background</title>
  <rect fill="none" id="canvas_background" height="514" width="514" y="-1" x="-1"/>
  <g display="none" overflow="visible" y="0" x="0" height="100%" width="100%" id="canvasGrid">
   <rect fill="url(#gridpattern)" stroke-width="0" y="0" x="0" height="100%" width="100%"/>
  </g>
 </g>
 <g>
  <title>Layer 1</title>
  <g stroke="null" transform="rotate(58.845462799072266 300.70593261718756,359.52001953124994) " id="svg_52">
   <g stroke="null" transform="matrix(-1.8953131825233875,-0.17342933985431985,0.09852694268601213,-3.336172879226943,3318.9864176207398,6414.505182284781) " id="svg_21">
    <path stroke="null" id="svg_23" fill="#FFCD6E" d="m1625.912793,1695.890978c-6.473,4.798 -9.399,13.109 -7.361,20.904c3.068,11.725 7.361,23.842 12.949,35.953c5.588,12.11 11.993,23.178 18.872,33.009c4.574,6.535 12.647,9.378 20.306,7.15c11.52,-3.351 23.447,-7.965 35.39,-13.901c11.943,-5.937 22.882,-12.691 32.618,-19.907c6.473,-4.798 9.4,-13.109 7.361,-20.904c-3.068,-11.725 -7.361,-23.843 -12.949,-35.953c-5.588,-12.11 -11.993,-23.178 -18.872,-33.007c-4.574,-6.535 -12.647,-9.378 -20.306,-7.15c-11.52,3.351 -23.447,7.964 -35.39,13.901s-22.882,12.689 -32.618,19.905z"/>
   </g>
   <path stroke="null" id="svg_24" fill="#FFB45A" d="m382.18146,450.14907c-26.864384,17.234556 -53.888189,29.92245 -80.160436,38.384386c-17.46612,5.629042 -36.657405,-6.267111 -48.264793,-29.912428c-17.464222,-35.568195 -34.009873,-75.265468 -48.813278,-118.326803c-7.745217,-22.522849 -14.619311,-44.945477 -20.732358,-67.104192c-5.122358,14.992961 -7.098043,33.039302 -4.490366,50.57786c5.818877,39.166105 13.970239,79.648437 24.57555,120.107384c10.605311,40.455606 22.761184,77.430227 35.816648,110.272429c8.680868,21.831328 24.00429,31.328875 38.538197,23.885845c21.86349,-11.194611 44.499414,-26.608498 67.165704,-46.43876c22.668188,-19.836944 43.427116,-42.39654 61.9067,-66.50287c8.276622,-10.79707 13.159847,-27.046126 14.503541,-44.377562c-12.651217,10.526475 -25.991362,20.414881 -40.045107,29.434711z"/>
   <g stroke="null" transform="matrix(1.8978723925179966,0,0,3.340677658202255,-3367.100365376606,-6243.286889378751) " id="svg_37"/>
   <g stroke="null" transform="matrix(1.8978723925179966,0,0,3.340677658202255,-3367.100365376606,-6243.286889378751) " id="svg_38"/>
   <g stroke="null" transform="matrix(1.8978723925179966,0,0,3.340677658202255,-3367.100365376606,-6243.286889378751) " id="svg_39"/>
   <g stroke="null" transform="matrix(1.8978723925179966,0,0,3.340677658202255,-3367.100365376606,-6243.286889378751) " id="svg_40"/>
   <g stroke="null" transform="matrix(1.8978723925179966,0,0,3.340677658202255,-3367.100365376606,-6243.286889378751) " id="svg_41"/>
   <g stroke="null" transform="matrix(1.8978723925179966,0,0,3.340677658202255,-3367.100365376606,-6243.286889378751) " id="svg_42"/>
   <g stroke="null" transform="matrix(1.8978723925179966,0,0,3.340677658202255,-3367.100365376606,-6243.286889378751) " id="svg_43"/>
   <g stroke="null" transform="matrix(1.8978723925179966,0,0,3.340677658202255,-3367.100365376606,-6243.286889378751) " id="svg_44"/>
   <g stroke="null" transform="matrix(1.8978723925179966,0,0,3.340677658202255,-3367.100365376606,-6243.286889378751) " id="svg_45"/>
   <g stroke="null" transform="matrix(1.8978723925179966,0,0,3.340677658202255,-3367.100365376606,-6243.286889378751) " id="svg_46"/>
   <g stroke="null" transform="matrix(1.8978723925179966,0,0,3.340677658202255,-3367.100365376606,-6243.286889378751) " id="svg_47"/>
   <g stroke="null" transform="matrix(1.8978723925179966,0,0,3.340677658202255,-3367.100365376606,-6243.286889378751) " id="svg_48"/>
   <g stroke="null" transform="matrix(1.8978723925179966,0,0,3.340677658202255,-3367.100365376606,-6243.286889378751) " id="svg_49"/>
   <g stroke="null" transform="matrix(1.8978723925179966,0,0,3.340677658202255,-3367.100365376606,-6243.286889378751) " id="svg_50"/>
   <g stroke="null" transform="matrix(1.8978723925179966,0,0,3.340677658202255,-3367.100365376606,-6243.286889378751) " id="svg_51"/>
  </g>
  <g stroke="null" transform="rotate(58.845462799072266 213.7059326171875,151.52001953124997) " id="svg_71">
   <g stroke="null" transform="matrix(-1.8953131825233875,-0.17342933985431985,0.09852694268601213,-3.336172879226943,3318.9864176207398,6414.505182284781) " id="svg_54">
    <path stroke="null" id="svg_53" fill="#FFCD6E" d="m1674.924118,1755.690033c-6.473,4.798 -9.399,13.109 -7.361,20.904c3.068,11.725 7.361,23.842 12.949,35.953c5.588,12.11 11.993,23.178 18.872,33.009c4.574,6.535 12.647,9.378 20.306,7.15c11.52,-3.351 23.447,-7.965 35.39,-13.901c11.943,-5.937 22.882,-12.691 32.618,-19.907c6.473,-4.798 9.4,-13.109 7.361,-20.904c-3.068,-11.725 -7.361,-23.843 -12.949,-35.953c-5.588,-12.11 -11.993,-23.178 -18.872,-33.007c-4.574,-6.535 -12.647,-9.378 -20.306,-7.15c-11.52,3.351 -23.447,7.964 -35.39,13.901s-22.882,12.689 -32.618,19.905z"/>
   </g>
   <path stroke="null" id="svg_55" fill="#FFB45A" d="m295.18146,242.14907c-26.86438,17.23456 -53.88819,29.92245 -80.16044,38.38439c-17.46612,5.62904 -36.6574,-6.26711 -48.26479,-29.91243c-17.46422,-35.5682 -34.00987,-75.26547 -48.81328,-118.3268c-7.74521,-22.52285 -14.61931,-44.94548 -20.73235,-67.1042c-5.12236,14.99297 -7.09805,33.03931 -4.49037,50.57786c5.81888,39.16611 13.97024,79.64844 24.57555,120.10739c10.60531,40.4556 22.76118,77.43022 35.81665,110.27243c8.68087,21.83133 24.00429,31.32887 38.53819,23.88584c21.86349,-11.19461 44.49942,-26.6085 67.16571,-46.43876c22.66819,-19.83694 43.42711,-42.39654 61.9067,-66.50287c8.27662,-10.79707 13.15984,-27.04612 14.50354,-44.37756c-12.65122,10.52647 -25.99136,20.41488 -40.04511,29.43471z"/>
   <g stroke="null" transform="matrix(1.8978723925179966,0,0,3.340677658202255,-3367.100365376606,-6243.286889378751) " id="svg_56"/>
   <g stroke="null" transform="matrix(1.8978723925179966,0,0,3.340677658202255,-3367.100365376606,-6243.286889378751) " id="svg_57"/>
   <g stroke="null" transform="matrix(1.8978723925179966,0,0,3.340677658202255,-3367.100365376606,-6243.286889378751) " id="svg_58"/>
   <g stroke="null" transform="matrix(1.8978723925179966,0,0,3.340677658202255,-3367.100365376606,-6243.286889378751) " id="svg_59"/>
   <g stroke="null" transform="matrix(1.8978723925179966,0,0,3.340677658202255,-3367.100365376606,-6243.286889378751) " id="svg_60"/>
   <g stroke="null" transform="matrix(1.8978723925179966,0,0,3.340677658202255,-3367.100365376606,-6243.286889378751) " id="svg_61"/>
   <g stroke="null" transform="matrix(1.8978723925179966,0,0,3.340677658202255,-3367.100365376606,-6243.286889378751) " id="svg_62"/>
   <g stroke="null" transform="matrix(1.8978723925179966,0,0,3.340677658202255,-3367.100365376606,-6243.286889378751) " id="svg_63"/>
   <g stroke="null" transform="matrix(1.8978723925179966,0,0,3.340677658202255,-3367.100365376606,-6243.286889378751) " id="svg_64"/>
   <g stroke="null" transform="matrix(1.8978723925179966,0,0,3.340677658202255,-3367.100365376606,-6243.286889378751) " id="svg_65"/>
   <g stroke="null" transform="matrix(1.8978723925179966,0,0,3.340677658202255,-3367.100365376606,-6243.286889378751) " id="svg_66"/>
   <g stroke="null" transform="matrix(1.8978723925179966,0,0,3.340677658202255,-3367.100365376606,-6243.286889378751) " id="svg_67"/>
   <g stroke="null" transform="matrix(1.8978723925179966,0,0,3.340677658202255,-3367.100365376606,-6243.286889378751) " id="svg_68"/>
   <g stroke="null" transform="matrix(1.8978723925179966,0,0,3.340677658202255,-3367.100365376606,-6243.286889378751) " id="svg_69"/>
   <g stroke="null" transform="matrix(1.8978723925179966,0,0,3.340677658202255,-3367.100365376606,-6243.286889378751) " id="svg_70"/>
  </g>
  <ellipse ry="6.74997" rx="6.999969" id="svg_72" cy="73.749675" cx="401.74937" stroke-opacity="null" stroke-width="null" stroke="null" fill="#3f7f00"/>
  <ellipse ry="10.749953" rx="10.499954" id="svg_73" cy="67.749701" cx="378.749472" stroke-opacity="null" stroke-width="null" stroke="null" fill="#3f7f00"/>
  <ellipse ry="6.74997" rx="8.249964" id="svg_74" cy="90.249602" cx="393.499407" stroke-opacity="null" stroke-width="null" stroke="null" fill="#3f7f00"/>
  <ellipse ry="6.249972" rx="5.999974" id="svg_75" cy="51.749772" cx="361.749547" stroke-opacity="null" stroke-width="null" stroke="null" fill="#3f7f00"/>
  <ellipse ry="7.499967" rx="7.249968" id="svg_76" cy="43.499808" cx="340.499641" stroke-opacity="null" stroke-width="null" stroke="null" fill="#3f7f00"/>
  <ellipse ry="7.749966" rx="7.749966" id="svg_77" cy="67.249703" cx="348.999603" stroke-opacity="null" stroke-width="null" stroke="null" fill="#3f7f00"/>
  <ellipse ry="9.499958" rx="8.749961" id="svg_78" cy="50.999775" cx="318.999735" stroke-opacity="null" stroke-width="null" stroke="null" fill="#3f7f00"/>
  <ellipse ry="7.749966" rx="7.749966" id="svg_79" cy="29.749869" cx="307.499786" stroke-opacity="null" stroke-width="null" stroke="null" fill="#3f7f00"/>
  <ellipse ry="7.297294" rx="7.567565" id="svg_80" cy="39.189174" cx="283.297286" stroke-opacity="null" stroke-width="null" stroke="null" fill="#3f7f00"/>
  <ellipse ry="5.945944" rx="5.405403" id="svg_81" cy="46.486468" cx="297.891875" stroke-opacity="null" stroke-width="null" stroke="null" fill="#3f7f00"/>
  <ellipse ry="6.216214" rx="5.945944" id="svg_82" cy="19.729722" cx="283.837827" stroke-opacity="null" stroke-width="null" stroke="null" fill="#3f7f00"/>
  <ellipse ry="7.837835" rx="7.027024" id="svg_83" cy="24.594585" cx="262.756754" stroke-opacity="null" stroke-width="null" stroke="null" fill="#3f7f00"/>
  <ellipse ry="6.216214" rx="5.675673" id="svg_84" cy="25.135125" cx="237.621629" stroke-opacity="null" stroke-width="null" stroke="null" fill="#3f7f00"/>
  <ellipse ry="6.216214" rx="7.297294" id="svg_85" cy="44.054036" cx="257.081081" stroke-opacity="null" stroke-width="null" stroke="null" fill="#3f7f00"/>
  <ellipse ry="4.864863" rx="4.594593" id="svg_86" cy="61.081057" cx="330.594565" stroke-opacity="null" stroke-width="null" stroke="null" fill="#3f7f00"/>
  <ellipse ry="7.027024" rx="6.216214" id="svg_87" cy="80.540508" cx="359.783742" stroke-opacity="null" stroke-width="null" stroke="null" fill="#3f7f00"/>
  <ellipse ry="6.486484" rx="6.756754" id="svg_88" cy="92.432396" cx="371.135089" stroke-opacity="null" stroke-width="null" stroke="null" fill="#3f7f00"/>
  <ellipse ry="6.756754" rx="6.756754" id="svg_89" cy="77.026996" cx="327.891863" stroke-opacity="null" stroke-width="null" stroke="null" fill="#3f7f00"/>
  <ellipse ry="6.756754" rx="7.027024" id="svg_90" cy="64.594569" cx="300.594577" stroke-opacity="null" stroke-width="null" stroke="null" fill="#3f7f00"/>
  <ellipse ry="5.945944" rx="6.486484" id="svg_91" cy="57.837815" cx="274.648641" stroke-opacity="null" stroke-width="null" stroke="null" fill="#3f7f00"/>
  <ellipse ry="7.027024" rx="6.756754" id="svg_92" cy="89.189154" cx="340.864831" stroke-opacity="null" stroke-width="null" stroke="null" fill="#3f7f00"/>
  <ellipse ry="6.486484" rx="7.027024" id="svg_93" cy="107.026984" cx="382.756706" stroke-opacity="null" stroke-width="null" stroke="null" fill="#3f7f00"/>
  <ellipse ry="8.378375" rx="8.378375" id="svg_94" cy="82.432399" cx="304.648629" stroke-opacity="null" stroke-width="null" stroke="null" fill="#3f7f00"/>
  <ellipse ry="7.567565" rx="7.567565" id="svg_95" cy="105.945904" cx="353.026988" stroke-opacity="null" stroke-width="null" stroke="null" fill="#3f7f00"/>
  <ellipse ry="7.297294" rx="8.648645" id="svg_96" cy="43.513496" cx="236.810818" stroke-opacity="null" stroke-width="null" stroke="null" fill="#3f7f00"/>
  <ellipse ry="9.459456" rx="9.189186" id="svg_98" cy="195.945868" cx="109.783842" stroke-opacity="null" stroke-width="null" stroke="null" fill="#ffffff"/>
  <ellipse ry="6.486484" rx="6.756754" id="svg_99" cy="199.45938" cx="129.513564" stroke-opacity="null" stroke-width="null" stroke="null" fill="#ffffff"/>
  <ellipse ry="8.108105" rx="7.837835" id="svg_100" cy="226.486396" cx="148.432475" stroke-opacity="null" stroke-width="null" stroke="null" fill="#ffffff"/>
  <ellipse ry="8.648645" rx="7.027024" id="svg_101" cy="193.513436" cx="149.783826" stroke-opacity="null" stroke-width="null" stroke="null" fill="#ffffff"/>
  <ellipse ry="8.378375" rx="9.999996" id="svg_102" cy="240.810715" cx="175.459492" stroke-opacity="null" stroke-width="null" stroke="null" fill="#ffffff"/>
  <ellipse ry="7.567565" rx="7.297294" id="svg_103" cy="266.48638" cx="213.297314" stroke-opacity="null" stroke-width="null" stroke="null" fill="#ffffff"/>
  <ellipse ry="11.081077" rx="10.270266" id="svg_104" cy="253.243142" cx="236.270278" stroke-opacity="null" stroke-width="null" stroke="null" fill="#ffffff"/>
  <ellipse ry="6.756754" rx="6.486484" id="svg_105" cy="230.540448" cx="216.270286" stroke-opacity="null" stroke-width="null" stroke="null" fill="#ffffff"/>
  <ellipse ry="5.945944" rx="5.135133" id="svg_106" cy="252.432332" cx="197.081105" stroke-opacity="null" stroke-width="null" stroke="null" fill="#ffffff"/>
  <ellipse ry="4.594593" rx="5.405403" id="svg_107" cy="259.189086" cx="178.432463" stroke-opacity="null" stroke-width="null" stroke="null" fill="#ffffff"/>
  <ellipse ry="5.675673" rx="6.216214" id="svg_108" cy="221.351263" cx="125.729782" stroke-opacity="null" stroke-width="null" stroke="null" fill="#ffffff"/>
  <ellipse ry="6.486484" rx="7.567565" id="svg_109" cy="210.810727" cx="164.378415" stroke-opacity="null" stroke-width="null" stroke="null" fill="#ffffff"/>
  <ellipse ry="5.135133" rx="6.486484" id="svg_110" cy="219.729642" cx="189.78381" stroke-opacity="null" stroke-width="null" stroke="null" fill="#ffffff"/>
  <ellipse ry="7.027024" rx="6.756754" id="svg_111" cy="202.162081" cx="179.783814" stroke-opacity="null" stroke-width="null" stroke="null" fill="#ffffff"/>
  <ellipse ry="5.135133" rx="4.594593" id="svg_112" cy="183.51344" cx="128.973024" stroke-opacity="null" stroke-width="null" stroke="null" fill="#ffffff"/>
  <ellipse ry="8.648645" rx="7.837835" id="svg_113" cy="168.648581" cx="115.459516" stroke-opacity="null" stroke-width="null" stroke="null" fill="#ffffff"/>
  <ellipse ry="4.324323" rx="4.594593" id="svg_115" cy="162.702638" cx="132.756806" stroke-opacity="null" stroke-width="null" stroke="null" fill="#ffffff"/>
  <ellipse ry="4.864863" rx="6.486484" id="svg_116" cy="188.648573" cx="173.02706" stroke-opacity="null" stroke-width="null" stroke="null" fill="#ffffff"/>
  <ellipse ry="6.216214" rx="6.216214" id="svg_117" cy="175.405335" cx="158.702742" stroke-opacity="null" stroke-width="null" stroke="null" fill="#ffffff"/>
  <ellipse ry="7.297294" rx="7.027024" id="svg_118" cy="211.080997" cx="207.621641" stroke-opacity="null" stroke-width="null" stroke="null" fill="#ffffff"/>
  <ellipse ry="4.054052" rx="4.054052" id="svg_119" cy="237.567473" cx="199.243266" stroke-opacity="null" stroke-width="null" stroke="null" fill="#ffffff"/>
  <ellipse ry="5.945944" rx="7.837835" id="svg_120" cy="229.729638" cx="240.324331" stroke-opacity="null" stroke-width="null" stroke="null" fill="#ffffff"/>
  <ellipse ry="6.756754" rx="6.216214" id="svg_121" cy="210.540456" cx="226.810822" stroke-opacity="null" stroke-width="null" stroke="null" fill="#ffffff"/>
  <ellipse ry="8.648645" rx="8.648645" id="svg_122" cy="156.216154" cx="146.540584" stroke-opacity="null" stroke-width="null" stroke="null" fill="#ffffff"/>
  <ellipse ry="7.027024" rx="7.837835" id="svg_123" cy="239.459364" cx="261.405403" stroke-opacity="null" stroke-width="null" stroke="null" fill="#ffffff"/>
  <ellipse ry="8.52941" rx="9.705881" id="svg_124" cy="224.999962" cx="334.823516" stroke-opacity="null" stroke-width="null" stroke="null" fill="#ffffff"/>
  <ellipse ry="6.17647" rx="7.647058" id="svg_125" cy="239.117607" cx="353.352925" stroke-opacity="null" stroke-width="null" stroke="null" fill="#ffffff"/>
  <ellipse ry="8.823528" rx="8.823528" id="svg_126" cy="242.941136" cx="387.470566" stroke-opacity="null" stroke-width="null" stroke="null" fill="#ffffff"/>
  <ellipse ry="7.058822" rx="7.058822" id="svg_127" cy="258.235251" cx="360.411747" stroke-opacity="null" stroke-width="null" stroke="null" fill="#ffffff"/>
  <ellipse ry="8.235293" rx="9.411763" id="svg_128" cy="271.76466" cx="397.470564" stroke-opacity="null" stroke-width="null" stroke="null" fill="#ffffff"/>
  <ellipse ry="5.882352" rx="6.764705" id="svg_129" cy="245.294076" cx="413.058797" stroke-opacity="null" stroke-width="null" stroke="null" fill="#ffffff"/>
  <ellipse ry="8.235293" rx="9.705881" id="svg_130" cy="267.647014" cx="428.352912" stroke-opacity="null" stroke-width="null" stroke="null" fill="#ffffff"/>
  <ellipse ry="9.999998" rx="10.294116" id="svg_131" cy="296.470538" cx="441.294086" stroke-opacity="null" stroke-width="null" stroke="null" fill="#ffffff"/>
  <ellipse ry="6.17647" rx="7.058822" id="svg_132" cy="291.470539" cx="492.764666" stroke-opacity="null" stroke-width="null" stroke="null" fill="#ffffff"/>
  <ellipse ry="9.999998" rx="9.411763" id="svg_133" cy="278.823482" cx="467.470553" stroke-opacity="null" stroke-width="null" stroke="null" fill="#ffffff"/>
  <ellipse ry="9.411763" rx="10.294116" id="svg_134" cy="298.235244" cx="407.176445" stroke-opacity="null" stroke-width="null" stroke="null" fill="#ffffff"/>
  <ellipse ry="9.411763" rx="9.411763" id="svg_135" cy="254.705839" cx="320.411754" stroke-opacity="null" stroke-width="null" stroke="null" fill="#ffffff"/>
  <ellipse ry="9.705881" rx="10.882351" id="svg_136" cy="284.999952" cx="369.529393" stroke-opacity="null" stroke-width="null" stroke="null" fill="#ffffff"/>
  <ellipse ry="11.470586" rx="12.941174" id="svg_137" cy="317.352888" cx="466.882317" stroke-opacity="null" stroke-width="null" stroke="null" fill="#ffffff"/>
  <ellipse ry="8.823528" rx="11.176469" id="svg_138" cy="278.823482" cx="338.647045" stroke-opacity="null" stroke-width="null" stroke="null" fill="#ffffff"/>
  <ellipse ry="9.705881" rx="9.411763" id="svg_139" cy="322.647005" cx="432.176441" stroke-opacity="null" stroke-width="null" stroke="null" fill="#ffffff"/>
  <ellipse ry="6.764705" rx="6.764705" id="svg_140" cy="262.058779" cx="453.647026" stroke-opacity="null" stroke-width="null" stroke="null" fill="#ffffff"/>
  <ellipse ry="7.058822" rx="7.941175" id="svg_141" cy="308.235242" cx="383.647037" stroke-opacity="null" stroke-width="null" stroke="null" fill="#ffffff"/>
  <ellipse ry="8.52941" rx="8.235293" id="svg_142" cy="266.176426" cx="294.529405" stroke-opacity="null" stroke-width="null" stroke="null" fill="#ffffff"/>
  <ellipse ry="6.470587" rx="7.35294" id="svg_143" cy="302.35289" cx="348.941161" stroke-opacity="null" stroke-width="null" stroke="null" fill="#ffffff"/>
  <ellipse ry="6.470587" rx="7.941175" id="svg_144" cy="343.529354" cx="460.117613" stroke-opacity="null" stroke-width="null" stroke="null" fill="#ffffff"/>
  <ellipse ry="4.999999" rx="5.588234" id="svg_145" cy="327.352886" cx="404.235269" stroke-opacity="null" stroke-width="null" stroke="null" fill="#ffffff"/>
  <ellipse ry="7.647058" rx="8.235293" id="svg_146" cy="342.941119" cx="439.235263" stroke-opacity="null" stroke-width="null" stroke="null" fill="#ffffff"/>
  <ellipse ry="5.882352" rx="5.882352" id="svg_147" cy="257.647015" cx="342.764691" stroke-opacity="null" stroke-width="null" stroke="null" fill="#ffffff"/>
  <ellipse ry="8.378375" rx="8.378375" id="svg_148" cy="404.197056" cx="195.236882" stroke-opacity="null" stroke-width="null" stroke="null" fill="#3f7f00"/>
  <ellipse ry="7.35294" rx="6.764705" id="svg_149" cy="476.764626" cx="308.941168" fill-opacity="null" stroke-opacity="null" stroke-width="null" stroke="null" fill="#3f7f00"/>
  <ellipse ry="7.35294" rx="7.941175" id="svg_150" cy="459.705805" cx="292.470582" fill-opacity="null" stroke-opacity="null" stroke-width="null" stroke="null" fill="#3f7f00"/>
  <ellipse ry="11.176469" rx="9.705881" id="svg_151" cy="431.176398" cx="271.88235" fill-opacity="null" stroke-opacity="null" stroke-width="null" stroke="null" fill="#3f7f00"/>
  <ellipse ry="6.17647" rx="5.294117" id="svg_152" cy="424.999928" cx="201.588244" fill-opacity="null" stroke-opacity="null" stroke-width="null" stroke="null" fill="#3f7f00"/>
  <ellipse ry="6.764705" rx="7.35294" id="svg_153" cy="424.999928" cx="240.11765" fill-opacity="null" stroke-opacity="null" stroke-width="null" stroke="null" fill="#3f7f00"/>
  <ellipse ry="7.647058" rx="7.058822" id="svg_154" cy="452.352865" cx="251.588236" fill-opacity="null" stroke-opacity="null" stroke-width="null" stroke="null" fill="#3f7f00"/>
  <ellipse ry="7.35294" rx="8.235293" id="svg_155" cy="464.999922" cx="269.235292" fill-opacity="null" stroke-opacity="null" stroke-width="null" stroke="null" fill="#3f7f00"/>
  <ellipse ry="5.882352" rx="6.470587" id="svg_156" cy="435.294044" cx="222.176476" fill-opacity="null" stroke-opacity="null" stroke-width="null" stroke="null" fill="#3f7f00"/>
  <ellipse ry="11.176469" rx="9.705881" id="svg_157" cy="396.470522" cx="228.352946" fill-opacity="null" stroke-opacity="null" stroke-width="null" stroke="null" fill="#3f7f00"/>
  <ellipse ry="4.999999" rx="7.35294" id="svg_158" cy="412.058754" cx="257.17647" fill-opacity="null" stroke-opacity="null" stroke-width="null" stroke="null" fill="#3f7f00"/>
  <ellipse ry="5.294117" rx="6.470587" id="svg_159" cy="382.941112" cx="208.058832" fill-opacity="null" stroke-opacity="null" stroke-width="null" stroke="null" fill="#3f7f00"/>
  <ellipse ry="4.999999" rx="5.294117" id="svg_160" cy="416.764636" cx="217.470595" fill-opacity="null" stroke-opacity="null" stroke-width="null" stroke="null" fill="#3f7f00"/>
  <ellipse ry="7.058822" rx="6.764705" id="svg_161" cy="434.705809" cx="296.588228" fill-opacity="null" stroke-opacity="null" stroke-width="null" stroke="null" fill="#3f7f00"/>
  <ellipse ry="7.35294" rx="5.588234" id="svg_162" cy="460.882275" cx="324.823518" fill-opacity="null" stroke-opacity="null" stroke-width="null" stroke="null" fill="#3f7f00"/>
  <ellipse ry="7.058822" rx="7.35294" id="svg_163" cy="448.823454" cx="311.882344" fill-opacity="null" stroke-opacity="null" stroke-width="null" stroke="null" fill="#3f7f00"/>
  <ellipse ry="5.588234" rx="5.882352" id="svg_164" cy="440.882279" cx="238.647062" fill-opacity="null" stroke-opacity="null" stroke-width="null" stroke="null" fill="#3f7f00"/>
  <ellipse ry="6.17647" rx="6.764705" id="svg_165" cy="410.882284" cx="283.058819" fill-opacity="null" stroke-opacity="null" stroke-width="null" stroke="null" fill="#3f7f00"/>
  <ellipse ry="6.470587" rx="7.058822" id="svg_166" cy="432.941104" cx="330.999987" fill-opacity="null" stroke-opacity="null" stroke-width="null" stroke="null" fill="#3f7f00"/>
  <ellipse ry="6.764705" rx="6.470587" id="svg_167" cy="392.646993" cx="257.470588" fill-opacity="null" stroke-opacity="null" stroke-width="null" stroke="null" fill="#3f7f00"/>
  <ellipse ry="6.764705" rx="6.470587" id="svg_168" cy="374.999937" cx="232.76471" fill-opacity="null" stroke-opacity="null" stroke-width="null" stroke="null" fill="#3f7f00"/>
  <ellipse ry="6.470587" rx="4.999999" id="svg_169" cy="451.76463" cx="341.294103" fill-opacity="null" stroke-opacity="null" stroke-width="null" stroke="null" fill="#3f7f00"/>
  <ellipse ry="6.764705" rx="6.470587" id="svg_170" cy="417.352871" cx="308.058815" fill-opacity="null" stroke-opacity="null" stroke-width="null" stroke="null" fill="#3f7f00"/>
  <ellipse ry="7.058822" rx="5.882352" id="svg_171" cy="359.999939" cx="215.705889" fill-opacity="null" stroke-opacity="null" stroke-width="null" stroke="null" fill="#3f7f00"/>
  <ellipse ry="7.058822" rx="6.17647" id="svg_172" cy="375.88229" cx="247.176472" fill-opacity="null" stroke-opacity="null" stroke-width="null" stroke="null" fill="#3f7f00"/>
  <ellipse ry="8.52941" rx="9.117646" id="svg_173" cy="393.235228" cx="290.117641" fill-opacity="null" stroke-opacity="null" stroke-width="null" stroke="null" fill="#3f7f00"/>
  <ellipse ry="8.52941" rx="7.35294" id="svg_174" cy="376.764642" cx="267.176469" fill-opacity="null" stroke-opacity="null" stroke-width="null" stroke="null" fill="#3f7f00"/>
 </g>
</svg>