<svg width="512" height="512" version="1.1" xmlns="http://www.w3.org/2000/svg"><g><title>background</title><rect id="canvas_background" x="-1" y="-1" width="514" height="514" fill="none"/><g id="canvasGrid" x="0" y="0" width="100%" height="100%" display="none" overflow="visible"><rect width="100%" height="100%" fill="url(#gridpattern)" stroke-width="0"/></g></g><g><title>Layer 1</title><g transform="rotate(58.8 301 360)" stroke="null"><g transform="matrix(-1.9 -.173 .0985 -3.34 3319 6415)"><path d="m1626 1696c-6.47 4.8-9.4 13.1-7.36 20.9 3.07 11.7 7.36 23.8 12.9 36 5.59 12.1 12 23.2 18.9 33 4.57 6.54 12.6 9.38 20.3 7.15 11.5-3.35 23.4-7.96 35.4-13.9 11.9-5.94 22.9-12.7 32.6-19.9 6.47-4.8 9.4-13.1 7.36-20.9-3.07-11.7-7.36-23.8-12.9-36s-12-23.2-18.9-33c-4.57-6.54-12.6-9.38-20.3-7.15-11.5 3.35-23.4 7.96-35.4 13.9s-22.9 12.7-32.6 19.9z" fill="#FFCD6E" stroke="null"/></g><path d="m382 450c-26.9 17.2-53.9 29.9-80.2 38.4-17.5 5.63-36.7-6.27-48.3-29.9-17.5-35.6-34-75.3-48.8-118-7.75-22.5-14.6-44.9-20.7-67.1-5.12 15-7.1 33-4.49 50.6 5.82 39.2 14 79.6 24.6 120 10.6 40.5 22.8 77.4 35.8 110 8.68 21.8 24 31.3 38.5 23.9 21.9-11.2 44.5-26.6 67.2-46.4 22.7-19.8 43.4-42.4 61.9-66.5 8.28-10.8 13.2-27 14.5-44.4-12.7 10.5-26 20.4-40 29.4z" fill="#FFB45A"/></g><g transform="rotate(58.8 214 152)" stroke="null"><g transform="matrix(-1.9 -.173 .0985 -3.34 3319 6415)"><path d="m1675 1756c-6.47 4.8-9.4 13.1-7.36 20.9 3.07 11.7 7.36 23.8 12.9 36 5.59 12.1 12 23.2 18.9 33 4.57 6.54 12.6 9.38 20.3 7.15 11.5-3.35 23.4-7.96 35.4-13.9 11.9-5.94 22.9-12.7 32.6-19.9 6.47-4.8 9.4-13.1 7.36-20.9-3.07-11.7-7.36-23.8-12.9-36s-12-23.2-18.9-33c-4.57-6.54-12.6-9.38-20.3-7.15-11.5 3.35-23.4 7.96-35.4 13.9s-22.9 12.7-32.6 19.9z" fill="#FFCD6E" stroke="null"/></g><path d="m295 242c-26.9 17.2-53.9 29.9-80.2 38.4-17.5 5.63-36.7-6.27-48.3-29.9-17.5-35.6-34-75.3-48.8-118-7.75-22.5-14.6-44.9-20.7-67.1-5.12 15-7.1 33-4.49 50.6 5.82 39.2 14 79.6 24.6 120 10.6 40.5 22.8 77.4 35.8 110 8.68 21.8 24 31.3 38.5 23.9 21.9-11.2 44.5-26.6 67.2-46.4 22.7-19.8 43.4-42.4 61.9-66.5 8.28-10.8 13.2-27 14.5-44.4-12.7 10.5-26 20.4-40 29.4z" fill="#FFB45A"/></g><g fill="#3f7f00" stroke="null" stroke-opacity="null" stroke-width="null"><ellipse cx="402" cy="73.7" rx="7" ry="6.75"/><ellipse cx="379" cy="67.7" rx="10.5" ry="10.7"/><ellipse cx="393" cy="90.2" rx="8.25" ry="6.75"/><ellipse cx="362" cy="51.7" rx="6" ry="6.25"/><ellipse cx="340" cy="43.5" rx="7.25" ry="7.5"/><ellipse cx="349" cy="67.2" rx="7.75" ry="7.75"/><ellipse cx="319" cy="51" rx="8.75" ry="9.5"/><ellipse cx="307" cy="29.7" rx="7.75" ry="7.75"/><ellipse cx="283" cy="39.2" rx="7.57" ry="7.3"/><ellipse cx="298" cy="46.5" rx="5.41" ry="5.95"/><ellipse cx="284" cy="19.7" rx="5.95" ry="6.22"/><ellipse cx="263" cy="24.6" rx="7.03" ry="7.84"/><ellipse cx="238" cy="25.1" rx="5.68" ry="6.22"/><ellipse cx="257" cy="44.1" rx="7.3" ry="6.22"/><ellipse cx="331" cy="61.1" rx="4.59" ry="4.86"/><ellipse cx="360" cy="80.5" rx="6.22" ry="7.03"/><ellipse cx="371" cy="92.4" rx="6.76" ry="6.49"/><ellipse cx="328" cy="77" rx="6.76" ry="6.76"/><ellipse cx="301" cy="64.6" rx="7.03" ry="6.76"/><ellipse cx="275" cy="57.8" rx="6.49" ry="5.95"/><ellipse cx="341" cy="89.2" rx="6.76" ry="7.03"/><ellipse cx="383" cy="107" rx="7.03" ry="6.49"/><ellipse cx="305" cy="82.4" rx="8.38" ry="8.38"/><ellipse cx="353" cy="106" rx="7.57" ry="7.57"/><ellipse cx="237" cy="43.5" rx="8.65" ry="7.3"/></g><g fill="#fff" stroke="null" stroke-opacity="null" stroke-width="null"><ellipse cx="110" cy="196" rx="9.19" ry="9.46"/><ellipse cx="130" cy="199" rx="6.76" ry="6.49"/><ellipse cx="148" cy="226" rx="7.84" ry="8.11"/><ellipse cx="150" cy="194" rx="7.03" ry="8.65"/><ellipse cx="175" cy="241" rx="10" ry="8.38"/><ellipse cx="213" cy="266" rx="7.3" ry="7.57"/><ellipse cx="236" cy="253" rx="10.3" ry="11.1"/><ellipse cx="216" cy="231" rx="6.49" ry="6.76"/><ellipse cx="197" cy="252" rx="5.14" ry="5.95"/><ellipse cx="178" cy="259" rx="5.41" ry="4.59"/><ellipse cx="126" cy="221" rx="6.22" ry="5.68"/><ellipse cx="164" cy="211" rx="7.57" ry="6.49"/><ellipse cx="190" cy="220" rx="6.49" ry="5.14"/><ellipse cx="180" cy="202" rx="6.76" ry="7.03"/><ellipse cx="129" cy="184" rx="4.59" ry="5.14"/><ellipse cx="115" cy="169" rx="7.84" ry="8.65"/><ellipse cx="133" cy="163" rx="4.59" ry="4.32"/><ellipse cx="173" cy="189" rx="6.49" ry="4.86"/><ellipse cx="159" cy="175" rx="6.22" ry="6.22"/><ellipse cx="208" cy="211" rx="7.03" ry="7.3"/><ellipse cx="199" cy="238" rx="4.05" ry="4.05"/><ellipse cx="240" cy="230" rx="7.84" ry="5.95"/><ellipse cx="227" cy="211" rx="6.22" ry="6.76"/><ellipse cx="147" cy="156" rx="8.65" ry="8.65"/><ellipse cx="261" cy="239" rx="7.84" ry="7.03"/><ellipse cx="335" cy="225" rx="9.71" ry="8.53"/><ellipse cx="353" cy="239" rx="7.65" ry="6.18"/><ellipse cx="387" cy="243" rx="8.82" ry="8.82"/><ellipse cx="360" cy="258" rx="7.06" ry="7.06"/><ellipse cx="397" cy="272" rx="9.41" ry="8.24"/><ellipse cx="413" cy="245" rx="6.76" ry="5.88"/><ellipse cx="428" cy="268" rx="9.71" ry="8.24"/><ellipse cx="441" cy="296" rx="10.3" ry="10"/><ellipse cx="493" cy="291" rx="7.06" ry="6.18"/><ellipse cx="467" cy="279" rx="9.41" ry="10"/><ellipse cx="407" cy="298" rx="10.3" ry="9.41"/><ellipse cx="320" cy="255" rx="9.41" ry="9.41"/><ellipse cx="370" cy="285" rx="10.9" ry="9.71"/><ellipse cx="467" cy="317" rx="12.9" ry="11.5"/><ellipse cx="339" cy="279" rx="11.2" ry="8.82"/><ellipse cx="432" cy="323" rx="9.41" ry="9.71"/><ellipse cx="454" cy="262" rx="6.76" ry="6.76"/><ellipse cx="384" cy="308" rx="7.94" ry="7.06"/><ellipse cx="295" cy="266" rx="8.24" ry="8.53"/><ellipse cx="349" cy="302" rx="7.35" ry="6.47"/><ellipse cx="460" cy="344" rx="7.94" ry="6.47"/><ellipse cx="404" cy="327" rx="5.59" ry="5"/><ellipse cx="439" cy="343" rx="8.24" ry="7.65"/><ellipse cx="343" cy="258" rx="5.88" ry="5.88"/></g><g fill="#3f7f00" stroke="null" stroke-opacity="null" stroke-width="null"><ellipse cx="195" cy="404" rx="8.38" ry="8.38"/><g fill-opacity="null"><ellipse cx="309" cy="477" rx="6.76" ry="7.35"/><ellipse cx="292" cy="460" rx="7.94" ry="7.35"/><ellipse cx="272" cy="431" rx="9.71" ry="11.2"/><ellipse cx="202" cy="425" rx="5.29" ry="6.18"/><ellipse cx="240" cy="425" rx="7.35" ry="6.76"/><ellipse cx="252" cy="452" rx="7.06" ry="7.65"/><ellipse cx="269" cy="465" rx="8.24" ry="7.35"/><ellipse cx="222" cy="435" rx="6.47" ry="5.88"/><ellipse cx="228" cy="396" rx="9.71" ry="11.2"/><ellipse cx="257" cy="412" rx="7.35" ry="5"/><ellipse cx="208" cy="383" rx="6.47" ry="5.29"/><ellipse cx="217" cy="417" rx="5.29" ry="5"/><ellipse cx="297" cy="435" rx="6.76" ry="7.06"/><ellipse cx="325" cy="461" rx="5.59" ry="7.35"/><ellipse cx="312" cy="449" rx="7.35" ry="7.06"/><ellipse cx="239" cy="441" rx="5.88" ry="5.59"/><ellipse cx="283" cy="411" rx="6.76" ry="6.18"/><ellipse cx="331" cy="433" rx="7.06" ry="6.47"/><ellipse cx="257" cy="393" rx="6.47" ry="6.76"/><ellipse cx="233" cy="375" rx="6.47" ry="6.76"/><ellipse cx="341" cy="452" rx="5" ry="6.47"/><ellipse cx="308" cy="417" rx="6.47" ry="6.76"/><ellipse cx="216" cy="360" rx="5.88" ry="7.06"/><ellipse cx="247" cy="376" rx="6.18" ry="7.06"/><ellipse cx="290" cy="393" rx="9.12" ry="8.53"/><ellipse cx="267" cy="377" rx="7.35" ry="8.53"/></g></g></g></svg>
