<svg width="512" height="512" xmlns="http://www.w3.org/2000/svg" xmlns:xlink="http://www.w3.org/1999/xlink">
 <!-- Created with Method Draw - http://github.com/duopixel/Method-Draw/ -->

 <g>
  <title>background</title>
  <rect fill="none" id="canvas_background" height="514" width="514" y="-1" x="-1"/>
  <g display="none" overflow="visible" y="0" x="0" height="100%" width="100%" id="canvasGrid">
   <rect fill="url(#gridpattern)" stroke-width="0" y="0" x="0" height="100%" width="100%"/>
  </g>
 </g>
 <g>
  <title>Layer 1</title>
  <linearGradient id="svg_54">
   <stop stop-color="#f9f7fc" offset="0"/>
   <stop stop-color="#f0ddfc" offset="1"/>
  </linearGradient>
  <linearGradient y2="1.214167" y1="0.138663" xlink:href="#svg_54" x2="1.248193" x1="0.106063" id="svg_53"/>
  <linearGradient id="svg_56">
   <stop stop-opacity="0" stop-color="#f0ddfc" offset="0"/>
   <stop stop-opacity="0.289" stop-color="#c8b7e0" offset="0.2889"/>
   <stop stop-opacity="0.592" stop-color="#a595c8" offset="0.5915"/>
   <stop stop-opacity="0.84" stop-color="#8f81b8" offset="0.8395"/>
   <stop stop-color="#8779b3" offset="1"/>
  </linearGradient>
  <linearGradient y2="0.500001" y1="0.500001" xlink:href="#svg_56" x2="-0.624511" x1="0.525238" id="svg_52"/>
  <linearGradient y2="0.110745" y1="0.648721" xlink:href="#svg_56" x2="0.512266" x1="0.8498" id="svg_51"/>
  <linearGradient y2="1.214168" y1="0.138665" x2="1.248194" x1="0.106062" id="svg_50">
   <stop stop-color="#92f37f" offset="0"/>
   <stop stop-color="#4ab272" offset="1"/>
  </linearGradient>
  <linearGradient y2="-0.080116" y1="0.514028" x2="0.126494" x1="0.50073" id="svg_49">
   <stop stop-opacity="0" stop-color="#92f37f" offset="0"/>
   <stop stop-color="#ffee83" offset="1"/>
  </linearGradient>
  <linearGradient id="svg_57">
   <stop stop-opacity="0" stop-color="#4ab272" offset="0"/>
   <stop stop-color="#009245" offset="1"/>
  </linearGradient>
  <linearGradient y2="0.210858" y1="0.8912" xlink:href="#svg_57" x2="0.579904" x1="0.907329" id="svg_48"/>
  <linearGradient y2="0.489722" y1="0.509095" xlink:href="#svg_57" x2="-0.600393" x1="0.674093" id="svg_47"/>
  <linearGradient y2="-5.118426" y1="2.049535" xlink:href="#svg_56" x2="-0.134096" x1="0.753691" id="svg_46"/>
  <linearGradient y2="-0.881373" y1="0.697958" xlink:href="#svg_56" x2="-1.007407" x1="0.961891" id="svg_45"/>
  <linearGradient y2="0.397857" y1="0.516195" x2="-0.58843" x1="0.672565" id="svg_44">
   <stop stop-color="#ffda45" offset="0"/>
   <stop stop-color="#ffa425" offset="1"/>
  </linearGradient>
  <linearGradient y2="-0.410366" y1="1.799896" x2="0.525921" x1="0.462991" id="svg_43">
   <stop stop-opacity="0" stop-color="#ffda45" offset="0"/>
   <stop stop-color="#ffee83" offset="1"/>
  </linearGradient>
  <linearGradient y2="0.430588" y1="0.519256" x2="-0.589239" x1="0.672668" id="svg_42">
   <stop stop-opacity="0" stop-color="#f45227" offset="0"/>
   <stop stop-opacity="0.59" stop-color="#fa6237" offset="0.5898"/>
   <stop stop-color="#ff7044" offset="1"/>
  </linearGradient>
  <linearGradient y2="-0.025002" y1="0.813616" x2="-0.452051" x1="1.06872" id="svg_41">
   <stop stop-color="#7e8595" offset="0"/>
   <stop stop-color="#555a66" offset="1"/>
  </linearGradient>
  <linearGradient y2="1.991661" y1="0.12835" x2="1.159247" x1="0.335749" id="svg_40">
   <stop stop-color="#18cffc" offset="0"/>
   <stop stop-color="#4a98f7" offset="1"/>
  </linearGradient>
  <linearGradient y2="0.5" y1="0.5" xlink:href="#svg_54" x2="0.938438" x1="0.236536" id="svg_39"/>
  <linearGradient y2="-0.338341" y1="1.399649" xlink:href="#svg_56" x2="0.5" x1="0.5" id="svg_38"/>
  <linearGradient y2="-0.38374" y1="1.2321" xlink:href="#svg_56" x2="-0.075448" x1="0.870555" id="svg_37"/>
  <linearGradient y2="-1.226134" y1="0.52099" xlink:href="#svg_54" x2="2.119923" x1="0.352923" id="svg_36"/>
  <linearGradient id="svg_55">
   <stop stop-color="#ff7044" offset="0"/>
   <stop stop-color="#f92814" offset="1"/>
  </linearGradient>
  <linearGradient y2="1.021678" y1="0.169342" xlink:href="#svg_55" x2="1.195874" x1="0.198224" id="svg_35"/>
  <linearGradient y2="0.015668" y1="0.328506" x2="0.018182" x1="0.387149" id="svg_34">
   <stop stop-opacity="0" stop-color="#ff7044" offset="0"/>
   <stop stop-color="#ffa425" offset="1"/>
  </linearGradient>
  <linearGradient y2="-0.195746" y1="0.801494" xlink:href="#svg_55" x2="-0.195739" x1="0.801494" id="svg_33"/>
  <linearGradient y2="0.402309" y1="0.770265" x2="0.411067" x1="0.787033" id="svg_32">
   <stop stop-opacity="0" stop-color="#f92814" offset="0"/>
   <stop stop-color="#c1272d" offset="1"/>
  </linearGradient>
  <linearGradient y2="0.763911" y1="0.313335" xlink:href="#svg_54" x2="0.673061" x1="0.377607" id="svg_31"/>
  <g stroke="null" id="svg_85">
   <path stroke="null" id="svg_59" fill="#ba1220" d="m489.306485,440.672969l-425.905256,0l0,-412.639006l425.905256,0c7.99084,0 14.4695,6.47866 14.4695,14.4695l0,383.700007c0,7.991823 -6.477676,14.4695 -14.4695,14.4695z"/>
   <path stroke="null" id="svg_62" fill="#e6646e" d="m462.64116,413.92894l-370.69841,0l0,-359.15095l370.69841,0c6.95485,0 12.5933,5.63845 12.5933,12.5933l0,333.96435c0,6.95485 -5.63845,12.5933 -12.5933,12.5933z"/>
   <path stroke="null" id="svg_76" fill="#bc1221" d="m123.136739,27.918852c-0.613923,-14.631835 -27.476013,-26.411486 -60.547188,-26.411486c-33.070191,0 -59.933265,11.779651 -60.547188,26.411486l-0.030499,0l0,385.839883c0,14.861073 27.120843,26.914234 60.577687,26.914234s60.577687,-12.053161 60.577687,-26.91325l0,-385.840867l-0.030499,0z"/>
   <path stroke="null" id="svg_77" fill="url(#svg_38)" d="m123.167239,413.759719c0,14.860089 -27.120843,26.91325 -60.577687,26.91325s-60.577687,-12.053161 -60.577687,-26.91325c0,-14.872879 27.120843,-26.92604 60.577687,-26.92604s60.577687,12.053161 60.577687,26.92604z"/>
   <path stroke="null" id="svg_78" fill="url(#svg_37)" d="m123.167239,413.759719c0,14.860089 -27.120843,26.91325 -60.577687,26.91325c-3.808488,0 -7.533349,-0.159384 -11.149986,-0.455523c-0.987787,-0.160368 -1.942122,-0.344348 -2.879733,-0.553908c-1.138316,-0.258753 -2.243181,-0.542102 -3.306724,-0.849064c-0.703454,-0.20956 -1.389198,-0.430927 -2.050346,-0.665083c-0.334509,-0.122981 -0.661148,-0.234157 -0.978932,-0.357138c-4.503087,-1.699111 -7.901309,-3.963937 -9.659451,-6.537691c-0.75363,-1.09601 -1.214072,-2.265809 -1.331151,-3.459221c-0.016725,-0.19677 -0.024596,-0.406331 -0.024596,-0.603101l0,-36.467429c9.157687,-2.46258 19.896423,-3.890148 31.380918,-3.890148c0.267608,0 0.54407,0 0.811677,0.01279c33.081013,0.182996 59.76601,12.162369 59.76601,26.912266z"/>
   <path stroke="null" id="svg_79" fill="#e6646e" d="m63.401229,386.845485l0,26.408534c-0.267608,0 -0.535215,-0.01279 -0.811677,-0.01279c-17.326604,0 -31.380918,6.242536 -31.380918,13.949043l0,-36.467429c9.157687,-2.46258 19.896423,-3.890148 31.380918,-3.890148c0.267608,0.000984 0.54407,0.000984 0.811677,0.01279z"/>
   <g stroke="null" id="svg_172"/>
  </g>
  <g stroke="null" id="svg_359">
   <path stroke="null" id="svg_310" fill="#cc4b4c" d="m282.468506,262.998685c-5.398821,-8.134811 -14.811469,-17.246943 -24.349549,-18.911533l-0.062716,0l0.081006,0c1.147187,-0.190764 17.309659,-3.010375 27.271079,0.961648c0.661132,0.30574 1.439856,0.198598 1.996461,-0.274386c0.553996,-0.470368 0.786564,-1.222962 0.593191,-1.925904c-0.825759,-2.626238 -1.283069,-5.354394 -1.361459,-8.108681c-0.010456,-1.314424 0.697711,-2.526936 1.847508,-3.164554c1.149796,-0.634995 2.555688,-0.58796 3.661058,0.122823c2.289143,1.526093 4.356161,3.360542 6.143568,5.451081c0.49128,0.540924 1.251714,0.744754 1.946817,0.525244s1.199447,-0.820535 1.293518,-1.544383c1.946817,-10.541539 12.940434,-22.724154 13.711324,-23.596955l0.047035,-0.062716l-0.031355,0.062716c-4.107912,10.071171 1.510412,24.150945 6.420562,32.884171l-39.208047,17.581429zm0,0"/>
   <path stroke="null" id="svg_311" fill="#802f34" d="m311.359748,400.352292c-43.893469,-12.624237 -64.568902,-60.670037 -56.180611,-97.531463c8.686184,-38.047801 57.366986,-67.662892 104.056552,-57.027276c6.841292,1.546999 13.463068,3.953734 19.700713,7.160098l30.929521,38.808229l-98.506176,108.590412zm0,0"/>
   <path stroke="null" id="svg_312" fill="#cc4b4c" d="m274.529684,335.657965c-1.729922,-0.002609 -3.284761,-1.05311 -3.927597,-2.657593c-5.315199,-16.057952 -1.86842,-33.725618 9.096452,-46.605944c1.460768,-1.829225 4.128817,-2.127125 5.955426,-0.663748c1.829218,1.460761 2.127118,4.126201 0.666357,5.955419c-9.052032,10.504959 -12.020597,24.945356 -7.84736,38.165393c0.520019,1.30659 0.358007,2.785648 -0.431173,3.951118c-0.791789,1.162868 -2.106219,1.85797 -3.512105,1.855355zm0,0"/>
   <path stroke="null" id="svg_313" fill="#cc4b4c" d="m299.961082,276.341546c0,2.338794 -1.897159,4.235953 -4.235953,4.235953c-2.338787,0 -4.235953,-1.897159 -4.235953,-4.235953c0,-2.341403 1.897165,-4.238562 4.235953,-4.238562c2.338794,0 4.235953,1.897159 4.235953,4.238562zm0,0"/>
   <path stroke="null" id="svg_314" fill="#cc4b4c" d="m366.860931,230.6267c10.677427,8.641758 13.133807,22.368762 12.796712,34.274376c-0.266545,7.220198 -4.920606,13.538849 -11.735762,15.932519c-37.36838,13.59895 -63.735295,46.773187 -63.735295,85.497795c0,50.969945 45.558059,92.192749 101.683794,92.192749s101.683794,-41.222804 101.683794,-92.192749c0,-38.724614 -26.351235,-71.898845 -63.719615,-85.497795c-6.815156,-2.39367 -11.471832,-8.714937 -11.735762,-15.932519c-0.339711,-11.90562 2.116669,-25.632618 12.794096,-34.274383l0.086237,-0.041811l-0.086237,0.041811c-1.311815,0.46515 -19.870565,6.862198 -28.005376,16.776575c-0.51741,0.700327 -1.39282,1.040045 -2.247326,0.86757s-1.531324,-0.825759 -1.735147,-1.672431c-0.655907,-3.229879 -1.756052,-6.352621 -3.266471,-9.279375c-0.744754,-1.387596 -2.19245,-2.252557 -3.765578,-2.252557c-1.575744,0 -3.023441,0.864961 -3.768201,2.252557c-1.510412,2.926754 -2.607942,6.049497 -3.266465,9.279375c-0.203829,0.846671 -0.880635,1.499963 -1.732531,1.672431c-0.854512,0.172474 -1.732538,-0.167243 -2.249941,-0.86757c-8.134811,-9.914377 -26.690952,-16.311425 -28.002767,-16.776575l-0.086231,-0.041811l0.094071,0.041817zm0,0"/>
   <path stroke="null" id="svg_315" fill="#f5efca" d="m405.87038,450.052233c-51.398502,0 -93.209273,-37.556521 -93.209273,-83.720844c0,-34.24563 22.823456,-64.683871 58.145717,-77.535459c10.110366,-3.561756 16.988238,-12.979629 17.307043,-23.696258c0.154178,-4.510332 -0.130657,-9.025895 -0.846665,-13.481358c0.371066,0.386753 0.723848,0.776115 1.042654,1.160252c2.064408,2.52432 5.153181,3.990313 8.414421,3.992929c3.749898,0.031355 7.233263,-1.936367 9.146103,-5.161021c1.915455,3.224654 5.398814,5.18976 9.148718,5.161021c3.248175,-0.002616 6.326491,-1.458152 8.393516,-3.966799c0.326646,-0.397202 0.684646,-0.79702 1.071399,-1.191607c-0.718623,4.471137 -1.003458,8.997156 -0.84928,13.52056c0.329261,10.690486 7.191453,20.082235 17.275689,23.6466c35.358847,12.872493 58.171847,43.302893 58.171847,77.551139c-0.002616,46.164322 -41.80293,83.720844 -93.211889,83.720844zm0,0"/>
   <path stroke="null" id="svg_316" fill="#802d40" d="m416.291718,313.336238c0.449462,-5.315193 3.381441,-10.110366 7.912685,-12.927362c4.531244,-2.819618 10.128663,-3.331797 15.093688,-1.384987c19.956803,7.915301 47.071087,26.079472 47.071087,66.290977c0,40.621779 -27.694411,57.008986 -47.685184,63.552371c-4.912766,1.607106 -10.29329,0.878026 -14.602408,-1.975556c-4.311741,-2.856197 -7.079085,-7.52333 -7.518098,-12.676504c-1.076631,-12.76535 -2.221202,-31.253551 -2.221202,-53.136265c0.002616,-19.977708 0.956423,-36.187222 1.949432,-47.742675zm0,0"/>
   <g stroke="null" transform="matrix(0.6689723312433381,0,0,0.6689723312433381,-606.9610411124681,-311.57268270987913) " id="svg_317" fill="#d75e72">
    <path stroke="null" id="svg_318" d="m1564.694502,935.839765c0,3.49609 -2.83203,6.33203 -6.33203,6.33203c-3.49609,0 -6.33203,-2.83594 -6.33203,-6.33203c0,-3.5 2.83594,-6.33594 6.33203,-6.33594c3.5,0 6.33203,2.83594 6.33203,6.33594zm0,0"/>
    <path stroke="null" id="svg_319" d="m1583.694502,948.503825c0,3.49609 -2.83203,6.33203 -6.33203,6.33203c-3.49609,0 -6.33203,-2.83594 -6.33203,-6.33203c0,-3.4961 2.83594,-6.33203 6.33203,-6.33203c3.5,0 6.33203,2.83593 6.33203,6.33203zm0,0"/>
    <path stroke="null" id="svg_320" d="m1558.362472,954.839765c0,3.49609 -2.83593,6.33203 -6.33203,6.33203c-3.5,0 -6.33203,-2.83594 -6.33203,-6.33203c0,-3.5 2.83203,-6.33594 6.33203,-6.33594c3.4961,0 6.33203,2.83594 6.33203,6.33594zm0,0"/>
    <path stroke="null" id="svg_321" d="m1558.362472,980.171795c0,3.49609 -2.83593,6.33203 -6.33203,6.33203c-3.5,0 -6.33203,-2.83594 -6.33203,-6.33203c0,-3.5 2.83203,-6.33203 6.33203,-6.33203c3.4961,0 6.33203,2.83203 6.33203,6.33203zm0,0"/>
    <path stroke="null" id="svg_322" d="m1577.362472,967.503825c0,3.49609 -2.83593,6.33203 -6.33203,6.33203c-3.49609,0 -6.33203,-2.83594 -6.33203,-6.33203c0,-3.4961 2.83594,-6.33203 6.33203,-6.33203c3.4961,0 6.33203,2.83593 6.33203,6.33203zm0,0"/>
    <path stroke="null" id="svg_323" d="m1602.694502,967.503825c0,3.49609 -2.83203,6.33203 -6.33203,6.33203c-3.49609,0 -6.33203,-2.83594 -6.33203,-6.33203c0,-3.4961 2.83594,-6.33203 6.33203,-6.33203c3.5,0 6.33203,2.83593 6.33203,6.33203zm0,0"/>
    <path stroke="null" id="svg_324" d="m1590.030442,986.503825c0,3.49609 -2.83594,6.33203 -6.33203,6.33203c-3.5,0 -6.33594,-2.83594 -6.33594,-6.33203c0,-3.4961 2.83594,-6.33203 6.33594,-6.33203c3.49609,0 6.33203,2.83593 6.33203,6.33203zm0,0"/>
    <path stroke="null" id="svg_325" d="m1571.030442,999.171795c0,3.49609 -2.83594,6.33203 -6.33203,6.33203c-3.5,0 -6.33594,-2.83594 -6.33594,-6.33203c0,-3.5 2.83594,-6.33203 6.33594,-6.33203c3.49609,0 6.33203,2.83203 6.33203,6.33203zm0,0"/>
    <path stroke="null" id="svg_326" d="m1558.362472,1018.171795c0,3.49609 -2.83593,6.33203 -6.33203,6.33203c-3.5,0 -6.33203,-2.83594 -6.33203,-6.33203c0,-3.5 2.83203,-6.33203 6.33203,-6.33203c3.4961,0 6.33203,2.83203 6.33203,6.33203zm0,0"/>
    <path stroke="null" id="svg_327" d="m1590.030442,1011.839765c0,3.49609 -2.83594,6.33203 -6.33203,6.33203c-3.5,0 -6.33594,-2.83594 -6.33594,-6.33203c0,-3.5 2.83594,-6.33594 6.33594,-6.33594c3.49609,0 6.33203,2.83594 6.33203,6.33594zm0,0"/>
    <path stroke="null" id="svg_328" d="m1615.362472,986.503825c0,3.49609 -2.83593,6.33203 -6.33203,6.33203c-3.49609,0 -6.33203,-2.83594 -6.33203,-6.33203c0,-3.4961 2.83594,-6.33203 6.33203,-6.33203c3.4961,0 6.33203,2.83593 6.33203,6.33203zm0,0"/>
    <path stroke="null" id="svg_329" d="m1615.362472,1005.503825c0,3.49609 -2.83593,6.33203 -6.33203,6.33203c-3.49609,0 -6.33203,-2.83594 -6.33203,-6.33203c0,-3.4961 2.83594,-6.33203 6.33203,-6.33203c3.4961,0 6.33203,2.83593 6.33203,6.33203zm0,0"/>
    <path stroke="null" id="svg_330" d="m1609.030442,1030.839765c0,3.49609 -2.83594,6.33203 -6.33203,6.33203c-3.5,0 -6.33594,-2.83594 -6.33594,-6.33203c0,-3.5 2.83594,-6.33594 6.33594,-6.33594c3.49609,0 6.33203,2.83594 6.33203,6.33594zm0,0"/>
    <path stroke="null" id="svg_331" d="m1609.030442,1049.839765c0,3.49609 -2.83594,6.33203 -6.33203,6.33203c-3.5,0 -6.33594,-2.83594 -6.33594,-6.33203c0,-3.5 2.83594,-6.33594 6.33594,-6.33594c3.49609,0 6.33203,2.83594 6.33203,6.33594zm0,0"/>
    <path stroke="null" id="svg_332" d="m1577.362472,1030.839765c0,3.49609 -2.83593,6.33203 -6.33203,6.33203c-3.49609,0 -6.33203,-2.83594 -6.33203,-6.33203c0,-3.5 2.83594,-6.33594 6.33203,-6.33594c3.4961,0 6.33203,2.83594 6.33203,6.33594zm0,0"/>
    <path stroke="null" id="svg_333" d="m1558.362472,1049.839765c0,3.49609 -2.83593,6.33203 -6.33203,6.33203c-3.5,0 -6.33203,-2.83594 -6.33203,-6.33203c0,-3.5 2.83203,-6.33594 6.33203,-6.33594c3.4961,0 6.33203,2.83594 6.33203,6.33594zm0,0"/>
    <path stroke="null" id="svg_334" d="m1590.030442,1049.839765c0,3.49609 -2.83594,6.33203 -6.33203,6.33203c-3.5,0 -6.33594,-2.83594 -6.33594,-6.33203c0,-3.5 2.83594,-6.33594 6.33594,-6.33594c3.49609,0 6.33203,2.83594 6.33203,6.33594zm0,0"/>
    <path stroke="null" id="svg_335" d="m1596.362472,1068.839765c0,3.49609 -2.83593,6.33203 -6.33203,6.33203c-3.49609,0 -6.33203,-2.83594 -6.33203,-6.33203c0,-3.5 2.83594,-6.33594 6.33203,-6.33594c3.4961,0 6.33203,2.83594 6.33203,6.33594zm0,0"/>
    <path stroke="null" id="svg_336" d="m1571.030442,1068.839765c0,3.49609 -2.83594,6.33203 -6.33203,6.33203c-3.5,0 -6.33594,-2.83594 -6.33594,-6.33203c0,-3.5 2.83594,-6.33594 6.33594,-6.33594c3.49609,0 6.33203,2.83594 6.33203,6.33594zm0,0"/>
    <path stroke="null" id="svg_337" d="m1558.362472,1087.839765c0,3.49609 -2.83593,6.33203 -6.33203,6.33203c-3.5,0 -6.33203,-2.83594 -6.33203,-6.33203c0,-3.5 2.83203,-6.33594 6.33203,-6.33594c3.4961,0 6.33203,2.83594 6.33203,6.33594zm0,0"/>
   </g>
   <path stroke="null" id="svg_338" fill="#802d40" d="m395.469954,313.336238c-0.449469,-5.315193 -3.381448,-10.110366 -7.912692,-12.927362c-4.531244,-2.819618 -10.126047,-3.331797 -15.093688,-1.384987c-19.933282,7.915301 -47.091993,26.079472 -47.091993,66.290977c0,40.621779 27.694411,57.008986 47.685184,63.552371c4.912766,1.607106 10.29329,0.878026 14.602408,-1.975556c4.311741,-2.856197 7.079092,-7.52333 7.518105,-12.676504c1.102754,-12.76535 2.221196,-31.253551 2.221196,-53.136265c-0.002616,-19.977708 -0.932902,-36.187222 -1.92852,-47.742675zm0,0"/>
   <path stroke="null" id="svg_339" fill="#d75e72" d="m380.462496,314.4782c0,2.338787 -1.897165,4.235953 -4.235953,4.235953c-2.341403,0 -4.238569,-1.897165 -4.238569,-4.235953c0,-2.341403 1.897165,-4.238569 4.238569,-4.238569c2.338787,0 4.235953,1.897165 4.235953,4.238569zm0,0"/>
   <path stroke="null" id="svg_340" fill="#d75e72" d="m367.752022,322.950106c0,2.338787 -1.897165,4.235953 -4.235953,4.235953c-2.341403,0 -4.238569,-1.897165 -4.238569,-4.235953c0,-2.338794 1.897165,-4.235953 4.238569,-4.235953c2.338787,0 4.235953,1.897159 4.235953,4.235953zm0,0"/>
   <path stroke="null" id="svg_341" fill="#d75e72" d="m384.698449,327.188674c0,2.338787 -1.897159,4.235953 -4.235953,4.235953c-2.341403,0 -4.235953,-1.897165 -4.235953,-4.235953c0,-2.341403 1.89455,-4.238569 4.235953,-4.238569c2.338794,0 4.235953,1.897165 4.235953,4.238569zm0,0"/>
   <path stroke="null" id="svg_342" fill="#d75e72" d="m384.698449,344.135102c0,2.338787 -1.897159,4.235953 -4.235953,4.235953c-2.341403,0 -4.235953,-1.897165 -4.235953,-4.235953c0,-2.341403 1.89455,-4.235953 4.235953,-4.235953c2.338794,0 4.235953,1.89455 4.235953,4.235953zm0,0"/>
   <path stroke="null" id="svg_343" fill="#d75e72" d="m371.987975,335.66058c0,2.338787 -1.897159,4.235953 -4.235953,4.235953c-2.341403,0 -4.235953,-1.897165 -4.235953,-4.235953c0,-2.338794 1.89455,-4.235953 4.235953,-4.235953c2.338794,0 4.235953,1.897159 4.235953,4.235953zm0,0"/>
   <path stroke="null" id="svg_344" fill="#d75e72" d="m355.041547,335.66058c0,2.338787 -1.897165,4.235953 -4.235953,4.235953c-2.341403,0 -4.238569,-1.897165 -4.238569,-4.235953c0,-2.338794 1.897165,-4.235953 4.238569,-4.235953c2.338787,0 4.235953,1.897159 4.235953,4.235953zm0,0"/>
   <path stroke="null" id="svg_345" fill="#d75e72" d="m363.513453,348.371055c0,2.338787 -1.897159,4.235953 -4.235953,4.235953c-2.338787,0 -4.235953,-1.897165 -4.235953,-4.235953c0,-2.338794 1.897165,-4.235953 4.235953,-4.235953c2.338794,0 4.235953,1.897159 4.235953,4.235953zm0,0"/>
   <path stroke="null" id="svg_346" fill="#d75e72" d="m376.223928,356.845576c0,2.338787 -1.897159,4.235953 -4.235953,4.235953c-2.338787,0 -4.235953,-1.897165 -4.235953,-4.235953c0,-2.341403 1.897165,-4.235953 4.235953,-4.235953c2.338794,0 4.235953,1.89455 4.235953,4.235953zm0,0"/>
   <path stroke="null" id="svg_347" fill="#d75e72" d="m384.698449,369.55605c0,2.338787 -1.897159,4.235953 -4.235953,4.235953c-2.341403,0 -4.235953,-1.897165 -4.235953,-4.235953c0,-2.341403 1.89455,-4.235953 4.235953,-4.235953c2.338794,0 4.235953,1.89455 4.235953,4.235953zm0,0"/>
   <path stroke="null" id="svg_348" fill="#d75e72" d="m363.513453,365.320097c0,2.338787 -1.897159,4.235953 -4.235953,4.235953c-2.338787,0 -4.235953,-1.897165 -4.235953,-4.235953c0,-2.341403 1.897165,-4.238569 4.235953,-4.238569c2.338794,0 4.235953,1.897165 4.235953,4.238569zm0,0"/>
   <path stroke="null" id="svg_349" fill="#d75e72" d="m346.567026,348.371055c0,2.338787 -1.897159,4.235953 -4.235953,4.235953c-2.341403,0 -4.235953,-1.897165 -4.235953,-4.235953c0,-2.338794 1.89455,-4.235953 4.235953,-4.235953c2.338794,0 4.235953,1.897159 4.235953,4.235953zm0,0"/>
   <path stroke="null" id="svg_350" fill="#d75e72" d="m346.567026,361.081529c0,2.338787 -1.897159,4.235953 -4.235953,4.235953c-2.341403,0 -4.235953,-1.897165 -4.235953,-4.235953c0,-2.338794 1.89455,-4.235953 4.235953,-4.235953c2.338794,0 4.235953,1.897159 4.235953,4.235953zm0,0"/>
   <path stroke="null" id="svg_351" fill="#d75e72" d="m350.802979,378.030572c0,2.338787 -1.897159,4.235953 -4.235953,4.235953c-2.338787,0 -4.235953,-1.897165 -4.235953,-4.235953c0,-2.341403 1.897165,-4.238569 4.235953,-4.238569c2.338794,0 4.235953,1.897165 4.235953,4.238569zm0,0"/>
   <path stroke="null" id="svg_352" fill="#d75e72" d="m350.802979,390.741046c0,2.338787 -1.897159,4.235953 -4.235953,4.235953c-2.338787,0 -4.235953,-1.897165 -4.235953,-4.235953c0,-2.341403 1.897165,-4.238569 4.235953,-4.238569c2.338794,0 4.235953,1.897165 4.235953,4.238569zm0,0"/>
   <path stroke="null" id="svg_353" fill="#d75e72" d="m371.987975,378.030572c0,2.338787 -1.897159,4.235953 -4.235953,4.235953c-2.341403,0 -4.235953,-1.897165 -4.235953,-4.235953c0,-2.341403 1.89455,-4.238569 4.235953,-4.238569c2.338794,0 4.235953,1.897165 4.235953,4.238569zm0,0"/>
   <path stroke="null" id="svg_354" fill="#d75e72" d="m384.698449,390.741046c0,2.338787 -1.897159,4.235953 -4.235953,4.235953c-2.341403,0 -4.235953,-1.897165 -4.235953,-4.235953c0,-2.341403 1.89455,-4.238569 4.235953,-4.238569c2.338794,0 4.235953,1.897165 4.235953,4.238569zm0,0"/>
   <path stroke="null" id="svg_355" fill="#d75e72" d="m363.513453,390.741046c0,2.338787 -1.897159,4.235953 -4.235953,4.235953c-2.338787,0 -4.235953,-1.897165 -4.235953,-4.235953c0,-2.341403 1.897165,-4.238569 4.235953,-4.238569c2.338794,0 4.235953,1.897165 4.235953,4.238569zm0,0"/>
   <path stroke="null" id="svg_356" fill="#d75e72" d="m359.2775,403.45152c0,2.338787 -1.897159,4.235953 -4.235953,4.235953c-2.341403,0 -4.235953,-1.897165 -4.235953,-4.235953c0,-2.341403 1.89455,-4.238569 4.235953,-4.238569c2.338794,0 4.235953,1.897165 4.235953,4.238569zm0,0"/>
   <path stroke="null" id="svg_357" fill="#d75e72" d="m376.223928,403.45152c0,2.338787 -1.897159,4.235953 -4.235953,4.235953c-2.338787,0 -4.235953,-1.897165 -4.235953,-4.235953c0,-2.341403 1.897165,-4.238569 4.235953,-4.238569c2.338794,0 4.235953,1.897165 4.235953,4.238569zm0,0"/>
   <path stroke="null" id="svg_358" fill="#d75e72" d="m384.698449,416.161995c0,2.338787 -1.897159,4.235953 -4.235953,4.235953c-2.341403,0 -4.235953,-1.897165 -4.235953,-4.235953c0,-2.341403 1.89455,-4.238569 4.235953,-4.238569c2.338794,0 4.235953,1.897165 4.235953,4.238569zm0,0"/>
  </g>
  <g stroke="null" id="svg_380">
   <path stroke="null" id="svg_364" fill="#c991ff" d="m366.222649,417.380439c0,31.377813 -21.53942,56.814766 -48.109641,56.814766s-48.109641,-25.436953 -48.109641,-56.814766s21.53942,-50.771281 48.109641,-50.771281s48.109641,19.393468 48.109641,50.771281z"/>
   <path stroke="null" id="svg_365" fill="#d3b3ff" d="m344.232048,373.897697c8.333844,8.742876 13.458839,21.196728 13.458839,36.502075c0,11.142457 -2.716251,21.535755 -7.40949,30.306853c-2.943125,5.500674 -8.264939,9.310243 -14.385025,10.519746c-0.098959,0.019425 -0.193521,0.038851 -0.283683,0.05791c-4.114877,0.870842 -7.440644,-0.111054 -10.867203,2.328111c-3.704012,2.636351 -0.067439,12.369553 -16.913254,13.564029l-0.008796,0.000733c-7.652124,-0.324733 -14.848668,-2.7595 -21.184999,-6.827096c8.436468,8.625957 19.439283,13.845147 31.474573,13.845147c26.570221,0 48.109641,-25.436953 48.109641,-56.814766c0,-20.00665 -8.756804,-35.140834 -21.990602,-43.482741z"/>
   <path stroke="null" id="svg_366" fill="#b173ff" d="m270.003733,417.380439c0,19.358649 8.198599,36.455528 20.718791,46.713581c26.033641,-7.301734 45.398521,-34.938517 45.398521,-67.91654c0,-10.506185 -1.965626,-19.919052 -5.486014,-28.053878c-3.99246,-0.998756 -8.19017,-1.514078 -12.521657,-1.514078c-26.570587,-0.000367 -48.109641,19.393102 -48.109641,50.770915z"/>
   <path stroke="null" id="svg_367" fill="#c991ff" d="m329.037022,389.093456c0,38.551633 -26.463931,69.804098 -59.10879,69.804098s-59.108424,-31.252464 -59.108424,-69.804098s26.463931,-62.378847 59.10879,-62.378847s59.108424,23.827214 59.108424,62.378847z"/>
   <path stroke="null" id="svg_368" fill="#d3b3ff" d="m287.699866,455.687239c23.960992,-8.908908 41.337156,-35.35488 41.337156,-66.593416c0,-34.14501 -20.759841,-56.739264 -48.18661,-61.458525c-0.944146,2.368427 1.37187,5.149552 3.856483,7.016585c9.979868,7.500753 19.596885,16.301905 24.842097,27.874285c4.345049,9.58623 5.172642,21.179868 0.262792,30.489744c-3.193822,6.056313 -8.808849,11.626991 -8.126396,18.439793c0.316303,3.15717 1.997513,5.99877 2.861758,9.052216c2.372825,8.385889 -1.664716,17.310191 -7.046273,24.165142c-3.030355,3.859781 -6.513358,7.366241 -9.801008,11.014176z"/>
   <path stroke="null" id="svg_369" fill="#b173ff" d="m228.861931,389.093456c0,-34.929354 21.724511,-57.771373 50.087729,-61.755403c-2.941292,-0.413064 -5.953688,-0.623444 -9.021062,-0.623444c-32.644859,0 -59.10879,23.827214 -59.10879,62.378847s26.463931,69.804098 59.10879,69.804098c3.067007,0 6.07977,-0.275987 9.021062,-0.807802c-28.363218,-5.129393 -50.087729,-34.066575 -50.087729,-68.996296z"/>
   <g stroke="null" transform="matrix(0.3665161369551355,0,0,0.3665161369551355,-1359.4003810218999,-1431.4584658372821) " id="svg_370" fill="#8a56b3">
    <path stroke="null" id="svg_371" d="m4368.875322,5027.68867c-3.997,0 -7.451,-2.99 -7.934,-7.057c-9.896,-83.287 10.647,-141.198 29.622,-175.114c20.778,-37.138 43.951,-54.285 44.927,-54.996c3.57,-2.602 8.575,-1.819 11.177,1.751c2.601,3.567 1.82,8.565 -1.741,11.17c-0.419,0.311 -21.874,16.438 -40.838,50.674c-17.586,31.748 -36.591,86.081 -27.258,164.626c0.562,4.738 -3.13,8.946 -7.955,8.946z"/>
    <path stroke="null" id="svg_372" d="m4436.861322,4804.01467c-3.782,-2.285 -4.995,-7.203 -2.71,-10.984c5.403,-8.941 6.669,-27.275 3.387,-49.042c-0.659,-4.369 2.349,-8.445 6.718,-9.104c4.374,-0.661 8.445,2.349 9.104,6.718c2.279,15.117 4.593,42.976 -5.514,59.703c-2.297,3.798 -7.222,4.984 -10.985,2.709z"/>
    <path stroke="null" id="svg_373" d="m4373.137322,5060.60167c-4.413,0 -8,-3.577 -8,-8c0,-5.101 4.701,-8.831 9.56,-7.84c2.099,0.412 3.942,1.659 5.09,3.4c2.089,3.094 1.734,7.357 -0.99,10.1c-1.427,1.428 -3.474,2.34 -5.66,2.34z"/>
   </g>
   <path stroke="null" id="svg_374" fill="#d3b3ff" d="m304.122721,386.204576c-1.047137,1.489888 -2.916735,2.930297 -4.946868,2.888147c-2.258106,-0.046914 -3.4896,-1.872164 -3.789044,-3.605053c-0.421127,-2.4355 0.842621,-15.240841 7.242359,-14.587709c2.589803,0.264258 2.87202,5.104837 3.123817,6.762589c0.424059,2.793219 0.28515,5.813312 -1.630264,8.542025z"/>
   <path stroke="null" id="svg_375" fill="#d3b3ff" d="m344.309749,442.654659c0.937548,-0.702245 1.895621,-1.6244 1.913947,-2.795785c0.020891,-1.323123 -1.276942,-2.395183 -2.5964,-2.497074s-2.59017,0.547209 -3.625578,1.371503c-1.437843,1.144996 -4.376936,4.209804 -2.754369,6.242503c1.617802,2.027201 5.593769,-1.220865 7.062399,-2.321147z"/>
   <path stroke="null" id="svg_376" fill="#69da61" d="m305.412124,300.099673c-6.496132,29.986151 -37.11489,4.697637 -37.11489,4.697637c13.450043,-17.400354 37.11489,-4.697637 37.11489,-4.697637z"/>
   <path stroke="null" id="svg_377" fill="#5ab161" d="m279.486605,311.77761c7.075228,3.301211 15.914497,5.201597 21.541986,-1.6233c-2.040395,-2.814844 -5.892113,-4.713031 -10.307533,-4.713031c-5.219556,0 -9.651469,2.652477 -11.234453,6.336331z"/>
   <path stroke="null" id="svg_378" fill="#a8ffa9" d="m219.941661,298.384378c8.683134,40.081838 49.610525,6.279154 49.610525,6.279154c-17.978716,-23.258748 -49.610525,-6.279154 -49.610525,-6.279154z"/>
   <path stroke="null" id="svg_379" fill="#c9ffd2" d="m220.055647,298.324269c4.054035,4.201741 10.116945,6.870345 16.891996,6.870345c8.558885,0 15.981203,-4.258551 19.652229,-10.48676c-16.339289,-6.519223 -34.924223,2.777093 -36.544224,3.616415z"/>
  </g>
  <g stroke="null" transform="rotate(-11.89447021484375 191.97154235839858,421.69647216796886) " id="svg_223">
   <path stroke="null" id="svg_209" fill="#96d7a5" d="m188.779337,343.033286c-6.124078,5.363401 -9.609419,12.451476 -10.238469,19.380327c6.951366,0.292088 14.438894,-2.228269 20.563312,-7.590075c5.207928,-4.561075 8.508638,-10.369857 9.765274,-16.268957c0.353198,-1.652032 -0.987903,-3.18425 -2.673118,-3.052998c-6.013522,0.466974 -12.207135,2.971886 -17.416999,7.531702zm0,0"/>
   <path stroke="null" id="svg_210" fill="#78c3a5" d="m206.196332,335.501586c-6.013522,0.466974 -12.207135,2.971886 -17.416999,7.531702c-6.124078,5.363401 -9.609419,12.451476 -10.238469,19.380327l29.759019,-26.047922c-0.501843,-0.575434 -1.259009,-0.928473 -2.103551,-0.864107zm0,0"/>
   <path stroke="null" id="svg_211" fill="#b67f5f" d="m167.443443,344.300254c-1.444474,-1.238322 -3.615148,-1.081613 -4.858943,0.360677c-1.243792,1.442288 -1.080939,3.618344 0.359413,4.860876c0.12184,0.102884 12.067161,10.566836 15.867529,28.609503l1.749846,8.307588l6.744221,-1.42055l-1.749846,-8.307588c-4.275456,-20.2982 -17.549476,-31.926362 -18.112219,-32.410505zm0,0"/>
   <path stroke="null" id="svg_212" fill="#a06e50" d="m167.443446,344.300256c-1.444474,-1.238322 -3.615148,-1.081613 -4.858943,0.360677c-1.243792,1.442288 -1.080939,3.618344 0.359413,4.860876c0.054609,0.045258 2.365758,2.069317 5.268553,5.840218c0.802335,1.043028 2.143083,1.535251 3.4315,1.263869c2.492119,-0.524921 3.556294,-3.493658 1.999419,-5.511315c-3.284564,-4.259772 -5.954917,-6.602161 -6.199941,-6.814326zm0,0"/>
   <path stroke="null" id="svg_213" fill="#ffaa5f" d="m232.272295,431.884351c-7.451913,-35.378782 -36.889201,-59.131717 -65.750754,-53.052543s-46.218191,39.68842 -38.766279,75.067201s36.890465,59.129784 65.752022,53.050609s46.216924,-39.686482 38.765011,-75.065268zm0,0"/>
   <path stroke="null" id="svg_214" fill="#ffaa5f" d="m255.873075,426.913266c-7.451913,-35.378782 -33.116661,-59.926336 -57.32328,-54.827641s-37.787513,37.912647 -30.335601,73.291429s33.114725,59.925077 57.321344,54.826382s37.78945,-37.911384 30.337537,-73.29017zm0,0"/>
   <path stroke="null" id="svg_215" fill="#ff8c5a" d="m236.892063,487.248737c-24.206619,5.098695 -49.871368,-19.448859 -57.323281,-54.827645c-4.40778,-20.926426 -1.418042,-40.916841 6.73872,-54.843646c-16.256254,11.798082 -24.170795,38.946043 -18.093304,67.799604c3.432688,16.297068 10.735193,30.279858 19.976849,40.129641c3.214229,3.426501 -0.090371,9.010723 -4.620004,7.76447c-20.851731,-5.731533 -38.860554,-25.746404 -44.45959,-52.328451c-4.143131,-19.669975 -0.607434,-38.780392 8.300292,-52.930486c-16.824736,13.640701 -25.26494,39.259981 -19.656477,65.886781c7.451913,35.378786 36.890465,59.129784 65.750422,53.050946c6.117595,-1.288563 11.713512,-3.777768 16.655427,-7.311192c5.079132,1.405975 10.239931,1.646162 15.374425,0.564672c9.888538,-2.082845 17.960797,-8.841575 23.594191,-18.460572c-3.676523,2.669229 -7.772959,4.565465 -12.23767,5.505877zm0,0"/>
  </g>
  <g stroke="null" id="svg_446">
   <path stroke="null" id="svg_385" fill="#884D00" d="m335.717284,510.68399c33.439351,0 60.780808,-26.103423 62.759637,-59.045246c2.178708,-36.268027 -27.11699,-66.700229 -63.450101,-66.700229l-20.882564,0l-1.100635,125.745476l22.673664,0z"/>
   <circle stroke="null" transform="matrix(0.28926023971383735,0,0,0.28926023971383735,-473.7288062159024,-482.13045417263334) " id="svg_386" fill="#AA6100" r="217.367996" cy="3214.88541" cx="2721.060671"/>
   <path stroke="null" id="svg_387" fill="#79AB03" d="m313.365566,504.758205c-31.401513,0 -56.948688,-25.547175 -56.948688,-56.948399s25.546886,-56.948688 56.948688,-56.948688c31.401224,0 56.948399,25.547175 56.948399,56.948399s-25.547175,56.948688 -56.948399,56.948688z"/>
   <g stroke="null" transform="matrix(0.28926023971383735,0,0,0.28926023971383735,-473.7288062159024,-482.13045417263334) " id="svg_388">
    <circle stroke="null" id="svg_389" fill="#91CC04" r="176.093002" cy="3214.885346" cx="2721.060557"/>
    <circle stroke="null" id="svg_390" fill="#91CC04" r="176.093002" cy="3214.885346" cx="2721.060557"/>
   </g>
   <path stroke="null" id="svg_391" fill="#85BB04" d="m308.255206,397.126784c1.679734,-0.168349 3.383766,-0.255417 5.108625,-0.255417c28.13374,0 50.939596,22.805856 50.939596,50.939596c0,28.130848 -22.805856,50.936703 -50.939596,50.936703c-1.724859,0 -3.428891,-0.087067 -5.108625,-0.255417c25.735773,-2.560242 45.830971,-24.275298 45.830971,-50.681287c0,-26.408881 -20.095198,-48.123648 -45.830971,-50.684179z"/>
   <g stroke="null" transform="matrix(0.28926023971383735,0,0,0.28926023971383735,-473.7288062159024,-482.13045417263334) " id="svg_392">
    <path stroke="null" id="svg_393" fill="#C2FB3B" d="m2816.694557,3214.890346c0,9.736 -12.049,17.448 -14.902,26.234c-2.957,9.105 2.156,22.407 -3.36,29.986c-5.571,7.655 -19.839,6.875 -27.493,12.446c-7.579,5.515 -11.217,19.356 -20.321,22.312c-8.785,2.853 -19.824,-6.113 -29.56,-6.113s-20.775,8.966 -29.56,6.113c-9.105,-2.957 -12.743,-16.797 -20.322,-22.312c-7.655,-5.571 -21.922,-4.792 -27.492,-12.447c-5.516,-7.579 -0.403,-20.881 -3.36,-29.986c-2.853,-8.785 -14.902,-16.498 -14.902,-26.233c0,-9.735 12.049,-17.448 14.902,-26.234c2.957,-9.105 -2.156,-22.407 3.36,-29.986c5.571,-7.655 19.839,-6.875 27.492,-12.446c7.579,-5.516 11.217,-19.356 20.321,-22.312c8.785,-2.853 19.824,6.113 29.56,6.113c9.736,0 20.775,-8.966 29.56,-6.113c9.105,2.957 12.743,16.797 20.322,22.312c7.655,5.571 21.922,4.792 27.492,12.447c5.515,7.579 0.403,20.881 3.36,29.986c2.854,8.785 14.903,16.498 14.903,26.233z"/>
    <path stroke="null" id="svg_394" fill="#C2FB3B" d="m2721.059557,3064.144346c-4.304,0 -7.792,3.489 -7.792,7.792l0,22.508c0,4.303 3.488,7.792 7.792,7.792c4.304,0 7.792,-3.489 7.792,-7.792l0,-22.508c0,-4.303 -3.489,-7.792 -7.792,-7.792z"/>
    <path stroke="null" id="svg_395" fill="#C2FB3B" d="m2679.879557,3077.681346c-1.471,-4.043 -5.944,-6.132 -9.986,-4.657c-4.044,1.472 -6.129,5.942 -4.657,9.987l7.697,21.15c1.151,3.164 4.139,5.129 7.323,5.129c0.884,0 1.785,-0.152 2.664,-0.472c4.043,-1.472 6.128,-5.942 4.656,-9.987l-7.697,-21.15z"/>
    <path stroke="null" id="svg_396" fill="#C2FB3B" d="m2635.825557,3099.827346c-2.766,-3.295 -7.682,-3.727 -10.977,-0.96c-3.296,2.767 -3.727,7.681 -0.96,10.977l14.469,17.242c1.541,1.837 3.748,2.783 5.973,2.783c1.767,0 3.545,-0.598 5.004,-1.823c3.296,-2.767 3.727,-7.681 0.96,-10.977l-14.469,-17.242z"/>
    <path stroke="null" id="svg_397" fill="#C2FB3B" d="m2594.212557,3149.202346l19.492,11.254c1.227,0.709 2.567,1.045 3.889,1.045c2.693,0 5.312,-1.397 6.755,-3.897c2.152,-3.727 0.875,-8.492 -2.852,-10.643l-19.492,-11.254c-3.725,-2.153 -8.494,-0.876 -10.643,2.852c-2.152,3.726 -0.875,8.491 2.851,10.643z"/>
    <path stroke="null" id="svg_398" fill="#C2FB3B" d="m2579.786557,3196.335346l22.165,3.908c0.458,0.081 0.913,0.119 1.363,0.119c3.71,0 6.997,-2.661 7.664,-6.44c0.748,-4.238 -2.082,-8.279 -6.32,-9.026l-22.165,-3.908c-4.241,-0.744 -8.279,2.082 -9.026,6.321c-0.749,4.238 2.081,8.278 6.319,9.026z"/>
    <path stroke="null" id="svg_399" fill="#C2FB3B" d="m2610.837557,3232.625346c-0.748,-4.239 -4.791,-7.067 -9.026,-6.321l-22.166,3.908c-4.238,0.747 -7.068,4.788 -6.32,9.026c0.667,3.781 3.954,6.44 7.664,6.44c0.45,0 0.905,-0.039 1.363,-0.119l22.166,-3.908c4.238,-0.746 7.067,-4.788 6.319,-9.026z"/>
    <path stroke="null" id="svg_400" fill="#C2FB3B" d="m2623.942557,3269.041346c-2.151,-3.728 -6.918,-5.003 -10.643,-2.852l-19.493,11.253c-3.727,2.152 -5.003,6.917 -2.852,10.643c1.443,2.5 4.062,3.897 6.755,3.897c1.321,0 2.663,-0.337 3.889,-1.045l19.493,-11.254c3.726,-2.15 5.003,-6.915 2.851,-10.642z"/>
    <path stroke="null" id="svg_401" fill="#C2FB3B" d="m2648.711557,3298.780346c-3.296,-2.767 -8.211,-2.336 -10.977,0.96l-14.468,17.242c-2.767,3.296 -2.336,8.211 0.96,10.977c1.46,1.225 3.237,1.823 5.004,1.823c2.224,0 4.432,-0.946 5.973,-2.783l14.468,-17.242c2.767,-3.297 2.337,-8.212 -0.96,-10.977z"/>
    <path stroke="null" id="svg_402" fill="#C2FB3B" d="m2682.158557,3318.253346c-4.044,-1.473 -8.516,0.613 -9.987,4.656l-7.698,21.15c-1.472,4.044 0.613,8.515 4.656,9.987c0.88,0.32 1.78,0.472 2.664,0.472c3.182,0 6.171,-1.965 7.323,-5.129l7.698,-21.15c1.473,-4.044 -0.612,-8.514 -4.656,-9.986z"/>
    <path stroke="null" id="svg_403" fill="#C2FB3B" d="m2720.247557,3325.112346c-4.304,0 -7.792,3.489 -7.792,7.792l0,22.508c0,4.303 3.488,7.792 7.792,7.792s7.792,-3.489 7.792,-7.792l0,-22.508c-0.001,-4.304 -3.488,-7.792 -7.792,-7.792z"/>
    <path stroke="null" id="svg_404" fill="#C2FB3B" d="m2768.374557,3323.188346c-1.471,-4.043 -5.941,-6.131 -9.987,-4.657c-4.043,1.472 -6.128,5.942 -4.656,9.987l7.697,21.15c1.151,3.164 4.139,5.129 7.323,5.129c0.884,0 1.785,-0.152 2.663,-0.472c4.044,-1.472 6.129,-5.942 4.657,-9.987l-7.697,-21.15z"/>
    <path stroke="null" id="svg_405" fill="#C2FB3B" d="m2802.950557,3300.261346c-2.766,-3.296 -7.682,-3.727 -10.977,-0.96c-3.296,2.766 -3.727,7.681 -0.96,10.977l14.468,17.242c1.541,1.837 3.748,2.783 5.973,2.783c1.767,0 3.545,-0.598 5.004,-1.823c3.296,-2.766 3.727,-7.681 0.96,-10.977l-14.468,-17.242z"/>
    <path stroke="null" id="svg_406" fill="#C2FB3B" d="m2847.094557,3278.146346l-19.492,-11.254c-3.727,-2.153 -8.493,-0.875 -10.643,2.852c-2.152,3.727 -0.875,8.492 2.852,10.643l19.492,11.254c1.227,0.709 2.567,1.045 3.889,1.045c2.693,0 5.312,-1.397 6.755,-3.897c2.15,-3.726 0.873,-8.491 -2.853,-10.643z"/>
    <path stroke="null" id="svg_407" fill="#C2FB3B" d="m2861.520557,3231.013346l-22.166,-3.908c-4.241,-0.746 -8.279,2.083 -9.026,6.321c-0.747,4.238 2.082,8.279 6.32,9.026l22.166,3.908c0.458,0.081 0.913,0.119 1.363,0.119c3.71,0 6.997,-2.661 7.664,-6.44c0.745,-4.238 -2.083,-8.279 -6.321,-9.026z"/>
    <path stroke="null" id="svg_408" fill="#C2FB3B" d="m2830.468557,3194.722346c0.667,3.781 3.954,6.44 7.664,6.44c0.45,0 0.904,-0.039 1.362,-0.119l22.166,-3.908c4.239,-0.747 7.069,-4.788 6.321,-9.026c-0.747,-4.238 -4.788,-7.066 -9.026,-6.321l-22.166,3.908c-4.239,0.747 -7.069,4.788 -6.321,9.026z"/>
    <path stroke="null" id="svg_409" fill="#C2FB3B" d="m2817.364557,3158.307346c1.443,2.5 4.062,3.897 6.755,3.897c1.321,0 2.663,-0.337 3.889,-1.045l19.493,-11.254c3.727,-2.152 5.003,-6.917 2.852,-10.643c-2.151,-3.728 -6.918,-5.004 -10.643,-2.852l-19.493,11.254c-3.728,2.15 -5.005,6.915 -2.853,10.643z"/>
    <path stroke="null" id="svg_410" fill="#C2FB3B" d="m2792.594557,3128.568346c1.46,1.225 3.237,1.823 5.004,1.823c2.224,0 4.432,-0.946 5.973,-2.783l14.468,-17.242c2.767,-3.296 2.336,-8.211 -0.96,-10.977c-3.296,-2.767 -8.211,-2.336 -10.977,0.96l-14.468,17.242c-2.766,3.297 -2.336,8.212 0.96,10.977z"/>
    <path stroke="null" id="svg_411" fill="#C2FB3B" d="m2772.176557,3073.301346c-4.049,-1.472 -8.516,0.614 -9.987,4.657l-7.697,21.15c-1.472,4.044 0.614,8.515 4.657,9.987c0.88,0.32 1.779,0.472 2.663,0.472c3.183,0 6.171,-1.965 7.323,-5.129l7.697,-21.15c1.472,-4.044 -0.614,-8.516 -4.656,-9.987z"/>
   </g>
   <circle stroke="null" transform="matrix(0.28926023971383735,0,0,0.28926023971383735,-473.7288062159024,-482.13045417263334) " id="svg_412" r="6.926" cy="3081.30441" cx="2768.423671"/>
   <circle stroke="null" transform="matrix(0.28926023971383735,0,0,0.28926023971383735,-473.7288062159024,-482.13045417263334) " id="svg_413" r="6.926" cy="3080.64941" cx="2672.720671"/>
   <circle stroke="null" transform="matrix(0.28926023971383735,0,0,0.28926023971383735,-473.7288062159024,-482.13045417263334) " id="svg_414" r="6.926" cy="3142.56741" cx="2598.335671"/>
   <circle stroke="null" transform="matrix(0.28926023971383735,0,0,0.28926023971383735,-473.7288062159024,-482.13045417263334) " id="svg_415" r="6.926" cy="3237.81341" cx="2580.882671"/>
   <circle stroke="null" transform="matrix(0.28926023971383735,0,0,0.28926023971383735,-473.7288062159024,-482.13045417263334) " id="svg_416" r="6.926" cy="3321.89141" cx="2629.284671"/>
   <circle stroke="null" transform="matrix(0.28926023971383735,0,0,0.28926023971383735,-473.7288062159024,-482.13045417263334) " id="svg_417" r="6.926" cy="3355.40641" cx="2720.125671"/>
   <circle stroke="null" transform="matrix(0.28926023971383735,0,0,0.28926023971383735,-473.7288062159024,-482.13045417263334) " id="svg_418" r="6.926" cy="3322.26541" cx="2811.049671"/>
   <circle stroke="null" transform="matrix(0.28926023971383735,0,0,0.28926023971383735,-473.7288062159024,-482.13045417263334) " id="svg_419" r="6.926" cy="3238.78041" cx="2859.774671"/>
   <circle stroke="null" transform="matrix(0.28926023971383735,0,0,0.28926023971383735,-473.7288062159024,-482.13045417263334) " id="svg_420" r="6.926" cy="3143.29541" cx="2843.639671"/>
   <circle stroke="null" transform="matrix(0.28926023971383735,0,0,0.28926023971383735,-473.7288062159024,-482.13045417263334) " id="svg_421" r="6.926" cy="3275.30741" cx="2826.622671"/>
   <circle stroke="null" transform="matrix(0.28926023971383735,0,0,0.28926023971383735,-473.7288062159024,-482.13045417263334) " id="svg_422" r="6.926" cy="3192.51741" cx="2841.790671"/>
   <circle stroke="null" transform="matrix(0.28926023971383735,0,0,0.28926023971383735,-473.7288062159024,-482.13045417263334) " id="svg_423" r="6.926" cy="3134.33941" cx="2666.103671"/>
   <circle stroke="null" transform="matrix(0.28926023971383735,0,0,0.28926023971383735,-473.7288062159024,-482.13045417263334) " id="svg_424" r="6.926" cy="3192.60141" cx="2623.435671"/>
   <circle stroke="null" transform="matrix(0.28926023971383735,0,0,0.28926023971383735,-473.7288062159024,-482.13045417263334) " id="svg_425" r="6.926" cy="3252.88841" cx="2629.617671"/>
   <circle stroke="null" transform="matrix(0.28926023971383735,0,0,0.28926023971383735,-473.7288062159024,-482.13045417263334) " id="svg_426" r="6.926" cy="3316.81141" cx="2705.487671"/>
   <circle stroke="null" transform="matrix(0.28926023971383735,0,0,0.28926023971383735,-473.7288062159024,-482.13045417263334) " id="svg_427" r="6.926" cy="3297.78941" cx="2775.581671"/>
   <circle stroke="null" transform="matrix(0.28926023971383735,0,0,0.28926023971383735,-473.7288062159024,-482.13045417263334) " id="svg_428" r="6.926" cy="3247.72441" cx="2810.218671"/>
   <circle stroke="null" transform="matrix(0.28926023971383735,0,0,0.28926023971383735,-473.7288062159024,-482.13045417263334) " id="svg_429" r="6.926" cy="3178.44041" cx="2812.348671"/>
   <circle stroke="null" transform="matrix(0.28926023971383735,0,0,0.28926023971383735,-473.7288062159024,-482.13045417263334) " id="svg_430" r="6.926" cy="3137.85141" cx="2779.020671"/>
   <g stroke="null" transform="matrix(0.28926023971383735,0,0,0.28926023971383735,-473.7288062159024,-482.13045417263334) " id="svg_431"/>
   <g stroke="null" transform="matrix(0.28926023971383735,0,0,0.28926023971383735,-473.7288062159024,-482.13045417263334) " id="svg_432"/>
   <g stroke="null" transform="matrix(0.28926023971383735,0,0,0.28926023971383735,-473.7288062159024,-482.13045417263334) " id="svg_433"/>
   <g stroke="null" transform="matrix(0.28926023971383735,0,0,0.28926023971383735,-473.7288062159024,-482.13045417263334) " id="svg_434"/>
   <g stroke="null" transform="matrix(0.28926023971383735,0,0,0.28926023971383735,-473.7288062159024,-482.13045417263334) " id="svg_435"/>
   <g stroke="null" transform="matrix(0.28926023971383735,0,0,0.28926023971383735,-473.7288062159024,-482.13045417263334) " id="svg_436"/>
   <g stroke="null" transform="matrix(0.28926023971383735,0,0,0.28926023971383735,-473.7288062159024,-482.13045417263334) " id="svg_437"/>
   <g stroke="null" transform="matrix(0.28926023971383735,0,0,0.28926023971383735,-473.7288062159024,-482.13045417263334) " id="svg_438"/>
   <g stroke="null" transform="matrix(0.28926023971383735,0,0,0.28926023971383735,-473.7288062159024,-482.13045417263334) " id="svg_439"/>
   <g stroke="null" transform="matrix(0.28926023971383735,0,0,0.28926023971383735,-473.7288062159024,-482.13045417263334) " id="svg_440"/>
   <g stroke="null" transform="matrix(0.28926023971383735,0,0,0.28926023971383735,-473.7288062159024,-482.13045417263334) " id="svg_441"/>
   <g stroke="null" transform="matrix(0.28926023971383735,0,0,0.28926023971383735,-473.7288062159024,-482.13045417263334) " id="svg_442"/>
   <g stroke="null" transform="matrix(0.28926023971383735,0,0,0.28926023971383735,-473.7288062159024,-482.13045417263334) " id="svg_443"/>
   <g stroke="null" transform="matrix(0.28926023971383735,0,0,0.28926023971383735,-473.7288062159024,-482.13045417263334) " id="svg_444"/>
   <g stroke="null" transform="matrix(0.28926023971383735,0,0,0.28926023971383735,-473.7288062159024,-482.13045417263334) " id="svg_445"/>
  </g>
  <g stroke="null" id="svg_240">
   <path stroke="null" id="svg_227" fill="#f7d291" d="m431.202054,411.190991c-1.708587,0 -3.09173,-1.383143 -3.09173,-3.091734c0,-14.21479 -7.969275,-24.182246 -8.04788,-24.281534c-1.075623,-1.321085 -0.879807,-3.268243 0.441282,-4.348003c1.321088,-1.075626 3.262729,-0.885321 4.341112,0.43025c0.387498,0.470241 9.448946,11.695346 9.448946,28.199288c0,1.70859 -1.383143,3.091734 -3.09173,3.091734zm0,0"/>
   <path stroke="null" id="svg_228" fill="#5fbf00" d="m480.762144,457.659347c0,33.329193 -22.188203,52.475308 -49.56009,52.475308c-27.371888,0 -49.56009,-19.146115 -49.56009,-52.475308c0,-33.329189 22.188203,-52.475308 49.56009,-52.475308c27.371888,0 49.56009,19.146118 49.56009,52.475308zm0,0"/>
   <path stroke="null" id="svg_229" fill="#3f7f00" d="m479.319704,471.436997c-2.986927,7.181862 -7.759666,13.322575 -13.879695,18.143579c-8.919408,7.026033 -21.342872,8.51674 -31.182078,2.850405c-8.639473,-4.976833 -16.224003,-14.141707 -21.27806,-27.355341c-0.35992,-0.941858 -1.252136,-1.584477 -2.26157,-1.584477c-1.424511,0 -2.571844,1.228695 -2.443597,2.646314c0.700533,7.72657 2.349826,14.534719 4.776876,20.326544c1.332117,3.17861 -2.446357,6.104859 -5.099566,3.905344c-10.738315,-8.901481 -17.564395,-22.989404 -17.564395,-41.455673c0,-13.951401 3.892932,-25.416455 10.422527,-34.032483c-11.665011,8.811848 -19.168182,23.394833 -19.168182,42.779519c0,33.327812 22.188203,52.475308 49.56009,52.475308c12.310384,0 23.517566,-3.93706 32.173585,-11.241655c0.001377,-0.00138 0.004137,-0.00138 0.005514,-0.002757c0.220641,-0.184788 0.421978,-0.395777 0.639859,-0.586079c1.361079,-1.194218 2.650452,-2.472555 3.872248,-3.836395c0.50058,-0.558497 0.991507,-1.125269 1.467262,-1.711344c0.30614,-0.377847 0.652271,-0.712946 0.947379,-1.103205c-0.063435,0.048266 -0.132385,0.088256 -0.1972,0.136522c4.305259,-5.60566 7.514204,-12.398643 9.209002,-20.354126zm0,0"/>
   <path stroke="null" id="svg_233" fill="#96d7a5" d="m446.411109,369.560185c-9.180043,5.153342 -15.480718,13.195704 -18.124272,21.797943c8.720831,2.221579 18.866176,1.030118 28.046219,-4.124605c7.807932,-4.38386 13.533564,-10.856914 16.697001,-17.986373c0.886701,-1.998181 -0.401291,-4.292846 -2.569086,-4.576922c-7.734845,-1.010811 -16.24193,0.506097 -24.049861,4.889957zm0,0"/>
   <path stroke="null" id="svg_234" fill="#78c3a5" d="m470.46097,364.670228c-7.734845,-1.010811 -16.24193,0.506097 -24.049861,4.889957c-9.180043,5.153342 -15.480718,13.195704 -18.124272,21.796563l44.606701,-25.03309c-0.481276,-0.86188 -1.34591,-1.51139 -2.432568,-1.65343zm0,0"/>
  </g>
  <g stroke="null" id="svg_479">
   <path stroke="null" id="svg_461" fill="#dc4655" d="m149.716672,196.867803c-1.718835,0 -3.43767,-0.654494 -4.749831,-1.966655l-6.716485,-6.716485c-2.624329,-2.624321 -2.624329,-6.875349 0,-9.496489c2.624321,-2.624321 6.875341,-2.624321 9.499661,0l6.716493,6.716485c2.621141,2.624321 2.621141,6.875349 0,9.496489c-1.31216,1.31216 -3.031004,1.966655 -4.749839,1.966655zm0,0"/>
   <path stroke="null" id="svg_462" fill="#dc4655" d="m151.856105,120.255662c-1.718843,0 -3.437678,-0.657674 -4.749839,-1.966655c-2.624321,-2.624321 -2.624321,-6.875349 0,-9.49967l6.716485,-6.716485c2.624329,-2.624321 6.875349,-2.624321 9.496498,0c2.624321,2.624321 2.624321,6.875341 0,9.49967l-6.716493,6.716485c-1.30898,1.30898 -3.027815,1.966655 -4.746651,1.966655zm0,0"/>
   <path stroke="null" id="svg_463" fill="#ff8087" d="m179.940868,176.468781c-1.718835,0 -3.43767,-0.657674 -4.749831,-1.969835l-6.716493,-6.716485c-2.621141,-2.624321 -2.621141,-6.872169 0,-9.496489c2.624329,-2.624321 6.875349,-2.624321 9.49967,0l6.716485,6.716485c2.624329,2.624321 2.624329,6.875349 0,9.496489c-1.31216,1.31216 -3.030996,1.969835 -4.749831,1.969835zm0,0"/>
   <path stroke="null" id="svg_464" fill="#ff8087" d="m191.710275,104.604592c-3.710907,0 -6.716493,-3.008759 -6.716493,-6.716485l0,-6.716493c0,-3.710907 3.005587,-6.719666 6.716493,-6.719666c3.714079,0 6.716485,3.008759 6.716485,6.719666l0,6.716493c0,3.707727 -3.002406,6.716485 -6.716485,6.716485zm0,0"/>
   <path stroke="null" id="svg_465" fill="#dc4655" d="m158.071358,322.565764c-1.718835,0 -3.43449,-0.657666 -4.746651,-1.969835l-6.716493,-6.716485c-2.624321,-2.624321 -2.624321,-6.872169 0,-9.496489c2.621149,-2.624321 6.872169,-2.624321 9.496498,0l6.716485,6.716485c2.624321,2.624329 2.624321,6.875349 0,9.496489c-1.31216,1.312169 -3.030996,1.969835 -4.749839,1.969835zm0,0"/>
   <path stroke="null" id="svg_466" fill="#ff9ba0" d="m164.310466,240.421604l-6.716493,0c-3.714079,0 -6.716485,-3.008759 -6.716485,-6.719666c0,-3.707727 3.002406,-6.716485 6.716485,-6.716485l6.716493,0c3.710907,0 6.716485,3.008759 6.716485,6.716485c0,3.710907 -3.005578,6.719666 -6.716485,6.719666zm0,0"/>
   <g stroke="null" transform="matrix(0.8133494618910008,0,0,0.8133494618910008,-2699.537165382942,-2950.571515906014) " id="svg_467" fill="#dc4655">
    <path stroke="null" id="svg_468" d="m3576.309874,3810.631112c-2.11328,0 -4.22656,-0.80469 -5.83985,-2.41797c-3.22656,-3.22656 -3.22656,-8.45313 0,-11.67969l5.83985,-5.83594c3.22656,-3.22656 8.44922,-3.22656 11.67578,0c3.22656,3.22657 3.22656,8.44922 0,11.67579l-5.83985,5.83984c-1.61328,1.61328 -3.72265,2.41797 -5.83593,2.41797zm0,0"/>
    <path stroke="null" id="svg_469" d="m3528.260011,3982.228065c-2.11328,0 -4.22656,-0.80859 -5.83984,-2.42188c-3.22266,-3.22656 -3.22266,-8.44921 0,-11.67578l8.26171,-8.25781c3.22266,-3.22656 8.44922,-3.22656 11.67579,0s3.22656,8.45313 0,11.67578l-8.25782,8.25781c-1.61328,1.61329 -3.72656,2.42188 -5.83984,2.42188zm0,0"/>
    <path stroke="null" id="svg_470" d="m3559.12913,3901.633208c-4.5664,0 -8.25781,-3.69532 -8.25781,-8.25782l0,-8.25781c0,-4.55859 3.69531,-8.25781 8.25781,-8.25781c4.56641,0 8.25781,3.69922 8.25781,8.25781l0,8.25781c0,4.5625 -3.6914,8.25782 -8.25781,8.25782zm0,0"/>
    <path stroke="null" id="svg_471" d="m3621.372374,3873.955332c-2.11328,0 -4.22656,-0.8086 -5.83985,-2.42188l-8.25781,-8.25781c-3.22656,-3.22266 -3.22656,-8.44922 0,-11.67578c3.22656,-3.22657 8.45313,-3.22657 11.67969,0l8.25781,8.25781c3.22656,3.22656 3.22656,8.45312 0,11.67578c-1.61328,1.61328 -3.72656,2.42188 -5.83984,2.42188zm0,0"/>
    <path stroke="null" id="svg_472" d="m3609.853746,3750.470812c-2.11328,0 -4.22656,-0.8086 -5.83984,-2.42188l-5.83985,-5.83594c-3.22265,-3.22656 -3.22265,-8.45312 0,-11.67968c3.22656,-3.22657 8.45313,-3.22657 11.67969,0l5.83984,5.83984c3.22266,3.22656 3.22266,8.45313 0,11.67578c-1.61328,1.61328 -3.72656,2.42188 -5.83984,2.42188zm0,0"/>
   </g>
   <path stroke="null" id="svg_473" fill="#ff9ba0" d="m249.881535,152.473406c-3.714079,0 -6.716485,-3.008759 -6.716485,-6.716485l0,-6.719666c0,-3.707735 3.005578,-6.716485 6.716485,-6.716485c3.714087,0 6.716485,3.00875 6.716485,6.716485l0,6.719666c0,3.707727 -3.002398,6.716485 -6.716485,6.716485zm0,0"/>
   <path stroke="null" id="svg_474" fill="#dc4655" d="m279.989204,116.063308c-1.718835,0 -3.43767,-0.654494 -4.746659,-1.966655c-2.624321,-2.624329 -2.624321,-6.875349 0,-9.49967l6.716493,-6.716485c2.621141,-2.624329 6.872169,-2.624329 9.496489,0c2.621141,2.624321 2.624321,6.875341 0,9.499661l-6.716485,6.716493c-1.312169,1.31216 -3.031004,1.966655 -4.749839,1.966655zm0,0"/>
   <path stroke="null" id="svg_475" fill="#ff8087" d="m234.818592,243.145987c-1.718835,0 -3.43767,-0.654494 -4.749831,-1.966655l-6.716493,-6.716485c-2.624321,-2.624329 -2.624321,-6.875349 0,-9.496489c2.624329,-2.624329 6.875349,-2.624329 9.496498,0l6.719657,6.716485c2.621149,2.624321 2.621149,6.875341 0,9.496489c-1.31216,1.31216 -3.030996,1.966655 -4.749831,1.966655zm0,0"/>
   <path stroke="null" id="svg_476" fill="#ff8087" d="m284.049599,203.576059c-3.710907,0 -6.716485,-3.008759 -6.716485,-6.716485l0,-6.716485c0,-3.707735 3.005578,-6.716493 6.716485,-6.716493c3.714087,0 6.716485,3.008759 6.716485,6.716493l0,6.716485c0,3.710907 -3.002398,6.716485 -6.716485,6.716485zm0,0"/>
   <path stroke="null" id="svg_477" fill="#dc4655" d="m218.342719,283.479192l-6.716485,0c-3.714087,0 -6.716485,-3.008759 -6.716485,-6.716485c0,-3.710907 3.002398,-6.716493 6.716485,-6.716493l6.716485,0c3.714087,0 6.716485,3.005587 6.716485,6.716493c0,3.707727 -3.005578,6.716485 -6.716485,6.716485zm0,0"/>
  </g>
  <g stroke="null" id="svg_497">
   <path transform="rotate(178.97132873535156 454.98901367187506,95.06974792480469) " stroke="null" id="svg_480" fill="#dc4655" d="m458.34843,105.143682c-1.71884,0 -3.43768,-0.6545 -4.74984,-1.96666l-6.71648,-6.71648c-2.62433,-2.62432 -2.62433,-6.87535 0,-9.49649c2.62432,-2.62432 6.87534,-2.62432 9.49966,0l6.71649,6.71648c2.62114,2.62432 2.62114,6.87535 0,9.49649c-1.31216,1.31216 -3.031,1.96666 -4.74983,1.96666zm0,0"/>
   <path transform="rotate(178.97132873535156 443.06793212890625,158.81954956054688) " stroke="null" id="svg_481" fill="#dc4655" d="m439.71125,168.895078c-1.71884,0 -3.43768,-0.65768 -4.74984,-1.96666c-2.62432,-2.62432 -2.62432,-6.87535 0,-9.49967l6.71649,-6.71648c2.62433,-2.62433 6.87535,-2.62433 9.4965,0c2.62432,2.62432 2.62432,6.87534 0,9.49967l-6.7165,6.71648c-1.30898,1.30898 -3.02781,1.96666 -4.74665,1.96666zm0,0"/>
   <path transform="rotate(178.97132873535156 434.31149291992193,131.89898681640625) " stroke="null" id="svg_482" fill="#ff8087" d="m437.668575,141.974514c-1.71883,0 -3.43767,-0.65768 -4.74983,-1.96984l-6.71649,-6.71648c-2.62114,-2.62432 -2.62114,-6.87217 0,-9.49649c2.62433,-2.62432 6.87535,-2.62432 9.49967,0l6.71648,6.71648c2.62433,2.62432 2.62433,6.87535 0,9.49649c-1.31216,1.31216 -3.03099,1.96984 -4.74983,1.96984zm0,0"/>
   <path transform="rotate(178.97132873535156 420.14074707031256,198.26852416992188) " stroke="null" id="svg_483" fill="#ff8087" d="m420.14075,208.344841c-3.71091,0 -6.7165,-3.00876 -6.7165,-6.71649l0,-6.71649c0,-3.71091 3.00559,-6.71967 6.7165,-6.71967c3.71408,0 6.71648,3.00876 6.71648,6.71967l0,6.71649c0,3.70773 -3.0024,6.71649 -6.71648,6.71649zm0,0"/>
   <path transform="rotate(178.97132873535156 458.2465209960938,216.17169189453125) " stroke="null" id="svg_484" fill="#dc4655" d="m461.603178,226.247225c-1.71884,0 -3.43449,-0.65766 -4.74665,-1.96983l-6.7165,-6.71649c-2.62432,-2.62432 -2.62432,-6.87216 0,-9.49649c2.62115,-2.62432 6.87217,-2.62432 9.4965,0l6.71649,6.71649c2.62432,2.62433 2.62432,6.87535 0,9.49649c-1.31216,1.31217 -3.031,1.96983 -4.74984,1.96983zm0,0"/>
   <path transform="rotate(178.97132873535156 382.8655090332032,76.0630645751953) " stroke="null" id="svg_485" fill="#ff9ba0" d="m386.22375,82.781145l-6.71649,0c-3.71408,0 -6.71649,-3.00876 -6.71649,-6.71966c0,-3.70773 3.00241,-6.71649 6.71649,-6.71649l6.71649,0c3.71091,0 6.71649,3.00876 6.71649,6.71649c0,3.7109 -3.00558,6.71966 -6.71649,6.71966zm0,0"/>
   <g stroke="null" transform="rotate(178.97132873535156 391.5776977539062,128.41986083984375) matrix(0.8133494618910008,0,0,0.8133494618910008,-2699.537165382942,-2950.571515906014) " id="svg_491" fill="#dc4655">
    <path stroke="null" id="svg_486" d="m3788.102639,3761.123486c-2.11328,0 -4.22656,-0.80469 -5.83985,-2.41797c-3.22656,-3.22656 -3.22656,-8.45313 0,-11.67969l5.83985,-5.83594c3.22656,-3.22656 8.44922,-3.22656 11.67578,0c3.22656,3.22657 3.22656,8.44922 0,11.67579l-5.83985,5.83984c-1.61328,1.61328 -3.72265,2.41797 -5.83593,2.41797zm0,0"/>
    <path stroke="null" id="svg_487" d="m3757.809669,3847.674266c-2.11328,0 -4.22656,-0.80859 -5.83984,-2.42188c-3.22266,-3.22656 -3.22266,-8.44921 0,-11.67578l8.26171,-8.25781c3.22266,-3.22656 8.44922,-3.22656 11.67579,0s3.22656,8.45313 0,11.67578l-8.25782,8.25781c-1.61328,1.61329 -3.72656,2.42188 -5.83984,2.42188zm0,0"/>
    <path stroke="null" id="svg_488" d="m3794.286229,3809.135206c-4.5664,0 -8.25781,-3.69532 -8.25781,-8.25782l0,-8.25781c0,-4.55859 3.69531,-8.25781 8.25781,-8.25781c4.56641,0 8.25781,3.69922 8.25781,8.25781l0,8.25781c0,4.5625 -3.6914,8.25782 -8.25781,8.25782zm0,0"/>
    <path stroke="null" id="svg_489" d="m3833.165139,3824.447706c-2.11328,0 -4.22656,-0.8086 -5.83985,-2.42188l-8.25781,-8.25781c-3.22656,-3.22266 -3.22656,-8.44922 0,-11.67578c3.22656,-3.22657 8.45313,-3.22657 11.67969,0l8.25781,8.25781c3.22656,3.22656 3.22656,8.45312 0,11.67578c-1.61328,1.61328 -3.72656,2.42188 -5.83984,2.42188zm0,0"/>
    <path stroke="null" id="svg_490" d="m3843.141699,3745.822706c-2.11328,0 -4.22656,-0.8086 -5.83984,-2.42188l-5.83985,-5.83594c-3.22265,-3.22656 -3.22265,-8.45312 0,-11.67968c3.22656,-3.22657 8.45313,-3.22657 11.67969,0l5.83984,5.83984c3.22266,3.22656 3.22266,8.45313 0,11.67578c-1.61328,1.61328 -3.72656,2.42188 -5.83984,2.42188zm0,0"/>
   </g>
   <path transform="rotate(178.97132873535156 338.7989807128907,197.63917541503903) " stroke="null" id="svg_492" fill="#ff9ba0" d="m338.798972,207.715489c-3.71408,0 -6.71649,-3.00875 -6.71649,-6.71648l0,-6.71967c0,-3.70773 3.00558,-6.71648 6.71649,-6.71648c3.71409,0 6.71648,3.00875 6.71648,6.71648l0,6.71967c0,3.70773 -3.00239,6.71648 -6.71648,6.71648zm0,0"/>
   <path transform="rotate(178.97132873535156 300.12475585937506,158.7020263671875) " stroke="null" id="svg_493" fill="#dc4655" d="m296.765491,168.777565c-1.71884,0 -3.43767,-0.65449 -4.74666,-1.96665c-2.62432,-2.62433 -2.62432,-6.87535 0,-9.49967l6.71649,-6.71649c2.62114,-2.62433 6.87217,-2.62433 9.49649,0c2.62114,2.62432 2.62432,6.87534 0,9.49966l-6.71648,6.7165c-1.31217,1.31216 -3.03101,1.96665 -4.74984,1.96665zm0,0"/>
   <path transform="rotate(178.97132873535156 336.9029846191407,87.45829772949219) " stroke="null" id="svg_494" fill="#ff8087" d="m340.262398,97.532232c-1.71883,0 -3.43767,-0.65449 -4.74983,-1.96665l-6.71649,-6.71649c-2.62432,-2.62432 -2.62432,-6.87534 0,-9.49649c2.62433,-2.62432 6.87535,-2.62432 9.4965,0l6.71965,6.71649c2.62115,2.62432 2.62115,6.87534 0,9.49649c-1.31216,1.31216 -3.03099,1.96665 -4.74983,1.96665zm0,0"/>
   <path transform="rotate(178.97132873535156 323.1749572753907,125.41124725341797) " stroke="null" id="svg_495" fill="#ff8087" d="m323.174929,135.485976c-3.7109,0 -6.71648,-3.00876 -6.71648,-6.71649l0,-6.71648c0,-3.70774 3.00558,-6.7165 6.71648,-6.7165c3.71409,0 6.71649,3.00876 6.71649,6.7165l0,6.71648c0,3.71091 -3.0024,6.71649 -6.71649,6.71649zm0,0"/>
   <path transform="rotate(178.97132873535156 386.5340576171875,201.0667724609375) " stroke="null" id="svg_496" fill="#dc4655" d="m389.892329,207.783259l-6.71649,0c-3.71408,0 -6.71648,-3.00876 -6.71648,-6.71649c0,-3.71091 3.0024,-6.71649 6.71648,-6.71649l6.71649,0c3.71409,0 6.71648,3.00558 6.71648,6.71649c0,3.70773 -3.00557,6.71649 -6.71648,6.71649zm0,0"/>
  </g>
 </g>
</svg>