<svg width="512" height="512" version="1.1" xmlns="http://www.w3.org/2000/svg" xmlns:xlink="http://www.w3.org/1999/xlink"><g><title>background</title><rect id="canvas_background" x="-1" y="-1" width="514" height="514" fill="none"/><g id="canvasGrid" x="0" y="0" width="100%" height="100%" display="none" overflow="visible"><rect width="100%" height="100%" fill="url(#gridpattern)" stroke-width="0"/></g></g><g><title>Layer 1</title><linearGradient id="a"><stop stop-color="#f0ddfc" stop-opacity="0" offset="0"/><stop stop-color="#c8b7e0" stop-opacity=".289" offset=".289"/><stop stop-color="#a595c8" stop-opacity=".592" offset=".592"/><stop stop-color="#8f81b8" stop-opacity=".84" offset=".84"/><stop stop-color="#8779b3" offset="1"/></linearGradient><linearGradient id="b" x1=".5" x2=".5" y1="1.4" y2="-.338" xlink:href="#a"/><linearGradient id="c" x1=".871" x2="-.0754" y1="1.23" y2="-.384" xlink:href="#a"/><g stroke="null"><path d="m489 441h-426v-413h426c7.99 0 14.5 6.48 14.5 14.5v384c0 7.99-6.48 14.5-14.5 14.5z" fill="#ba1220"/><path d="m463 414h-371v-359h371c6.95 0 12.6 5.64 12.6 12.6v334c0 6.95-5.64 12.6-12.6 12.6z" fill="#e6646e"/><path d="m123 27.9c-0.614-14.6-27.5-26.4-60.5-26.4-33.1 0-59.9 11.8-60.5 26.4h-0.0305v386c0 14.9 27.1 26.9 60.6 26.9s60.6-12.1 60.6-26.9v-386h-0.0305z" fill="#bc1221"/><path d="m123 414c0 14.9-27.1 26.9-60.6 26.9s-60.6-12.1-60.6-26.9c0-14.9 27.1-26.9 60.6-26.9s60.6 12.1 60.6 26.9z" fill="url(#b)"/><path d="m123 414c0 14.9-27.1 26.9-60.6 26.9-3.81 0-7.53-0.159-11.1-0.456-0.988-0.16-1.94-0.344-2.88-0.554-1.14-0.259-2.24-0.542-3.31-0.849-0.703-0.21-1.39-0.431-2.05-0.665-0.335-0.123-0.661-0.234-0.979-0.357-4.5-1.7-7.9-3.96-9.66-6.54-0.754-1.1-1.21-2.27-1.33-3.46-0.0167-0.197-0.0246-0.406-0.0246-0.603v-36.5c9.16-2.46 19.9-3.89 31.4-3.89 0.268 0 0.544 0 0.812 0.0128 33.1 0.183 59.8 12.2 59.8 26.9z" fill="url(#c)"/><path d="m63.4 387v26.4c-0.268 0-0.535-0.0128-0.812-0.0128-17.3 0-31.4 6.24-31.4 13.9v-36.5c9.16-2.46 19.9-3.89 31.4-3.89 0.268 9.84e-4 0.544 9.84e-4 0.812 0.0128z" fill="#e6646e"/><path d="m282 263c-5.4-8.13-14.8-17.2-24.3-18.9h-0.0627 0.081c1.15-0.191 17.3-3.01 27.3 0.962 0.661 0.306 1.44 0.199 2-0.274 0.554-0.47 0.787-1.22 0.593-1.93-0.826-2.63-1.28-5.35-1.36-8.11-0.0105-1.31 0.698-2.53 1.85-3.16 1.15-0.635 2.56-0.588 3.66 0.123 2.29 1.53 4.36 3.36 6.14 5.45 0.491 0.541 1.25 0.745 1.95 0.525s1.2-0.821 1.29-1.54c1.95-10.5 12.9-22.7 13.7-23.6l0.047-0.0627-0.0314 0.0627c-4.11 10.1 1.51 24.2 6.42 32.9l-39.2 17.6z" fill="#cc4b4c"/><path d="m311 400c-43.9-12.6-64.6-60.7-56.2-97.5 8.69-38 57.4-67.7 104-57 6.84 1.55 13.5 3.95 19.7 7.16l30.9 38.8-98.5 109z" fill="#802f34"/><g fill="#cc4b4c"><path d="m275 336c-1.73-0.00261-3.28-1.05-3.93-2.66-5.32-16.1-1.87-33.7 9.1-46.6 1.46-1.83 4.13-2.13 5.96-0.664 1.83 1.46 2.13 4.13 0.666 5.96-9.05 10.5-12 24.9-7.85 38.2 0.52 1.31 0.358 2.79-0.431 3.95-0.792 1.16-2.11 1.86-3.51 1.86z"/><path d="m300 276c0 2.34-1.9 4.24-4.24 4.24-2.34 0-4.24-1.9-4.24-4.24 0-2.34 1.9-4.24 4.24-4.24 2.34 0 4.24 1.9 4.24 4.24z"/><path d="m367 231c10.7 8.64 13.1 22.4 12.8 34.3-0.267 7.22-4.92 13.5-11.7 15.9-37.4 13.6-63.7 46.8-63.7 85.5 0 51 45.6 92.2 102 92.2s102-41.2 102-92.2c0-38.7-26.4-71.9-63.7-85.5-6.82-2.39-11.5-8.71-11.7-15.9-0.34-11.9 2.12-25.6 12.8-34.3l0.0862-0.0418-0.0862 0.0418c-1.31 0.465-19.9 6.86-28 16.8-0.517 0.7-1.39 1.04-2.25 0.868s-1.53-0.826-1.74-1.67c-0.656-3.23-1.76-6.35-3.27-9.28-0.745-1.39-2.19-2.25-3.77-2.25-1.58 0-3.02 0.865-3.77 2.25-1.51 2.93-2.61 6.05-3.27 9.28-0.204 0.847-0.881 1.5-1.73 1.67-0.855 0.172-1.73-0.167-2.25-0.868-8.13-9.91-26.7-16.3-28-16.8l-0.0862-0.0418 0.0941 0.0418z"/></g><path d="m406 450c-51.4 0-93.2-37.6-93.2-83.7 0-34.2 22.8-64.7 58.1-77.5 10.1-3.56 17-13 17.3-23.7 0.154-4.51-0.131-9.03-0.847-13.5 0.371 0.387 0.724 0.776 1.04 1.16 2.06 2.52 5.15 3.99 8.41 3.99 3.75 0.0314 7.23-1.94 9.15-5.16 1.92 3.22 5.4 5.19 9.15 5.16 3.25-0.00262 6.33-1.46 8.39-3.97 0.327-0.397 0.685-0.797 1.07-1.19-0.719 4.47-1 9-0.849 13.5 0.329 10.7 7.19 20.1 17.3 23.6 35.4 12.9 58.2 43.3 58.2 77.6-0.00262 46.2-41.8 83.7-93.2 83.7z" fill="#f5efca"/><path d="m416 313c0.449-5.32 3.38-10.1 7.91-12.9 4.53-2.82 10.1-3.33 15.1-1.38 20 7.92 47.1 26.1 47.1 66.3 0 40.6-27.7 57-47.7 63.6-4.91 1.61-10.3 0.878-14.6-1.98-4.31-2.86-7.08-7.52-7.52-12.7-1.08-12.8-2.22-31.3-2.22-53.1 0.00262-20 0.956-36.2 1.95-47.7z" fill="#802d40"/><g transform="matrix(.669 0 0 .669 -607 -312)" fill="#d75e72"><path d="m1565 936c0 3.5-2.83 6.33-6.33 6.33-3.5 0-6.33-2.84-6.33-6.33 0-3.5 2.84-6.34 6.33-6.34 3.5 0 6.33 2.84 6.33 6.34z"/><path d="m1584 949c0 3.5-2.83 6.33-6.33 6.33-3.5 0-6.33-2.84-6.33-6.33 0-3.5 2.84-6.33 6.33-6.33 3.5 0 6.33 2.84 6.33 6.33z"/><path d="m1558 955c0 3.5-2.84 6.33-6.33 6.33-3.5 0-6.33-2.84-6.33-6.33 0-3.5 2.83-6.34 6.33-6.34 3.5 0 6.33 2.84 6.33 6.34z"/><path d="m1558 980c0 3.5-2.84 6.33-6.33 6.33-3.5 0-6.33-2.84-6.33-6.33 0-3.5 2.83-6.33 6.33-6.33 3.5 0 6.33 2.83 6.33 6.33z"/><path d="m1577 968c0 3.5-2.84 6.33-6.33 6.33-3.5 0-6.33-2.84-6.33-6.33 0-3.5 2.84-6.33 6.33-6.33 3.5 0 6.33 2.84 6.33 6.33z"/><path d="m1603 968c0 3.5-2.83 6.33-6.33 6.33-3.5 0-6.33-2.84-6.33-6.33 0-3.5 2.84-6.33 6.33-6.33 3.5 0 6.33 2.84 6.33 6.33z"/><path d="m1590 987c0 3.5-2.84 6.33-6.33 6.33-3.5 0-6.34-2.84-6.34-6.33 0-3.5 2.84-6.33 6.34-6.33 3.5 0 6.33 2.84 6.33 6.33z"/><path d="m1571 999c0 3.5-2.84 6.33-6.33 6.33-3.5 0-6.34-2.84-6.34-6.33 0-3.5 2.84-6.33 6.34-6.33 3.5 0 6.33 2.83 6.33 6.33z"/><path d="m1558 1018c0 3.5-2.84 6.33-6.33 6.33-3.5 0-6.33-2.84-6.33-6.33 0-3.5 2.83-6.33 6.33-6.33 3.5 0 6.33 2.83 6.33 6.33z"/><path d="m1590 1012c0 3.5-2.84 6.33-6.33 6.33-3.5 0-6.34-2.84-6.34-6.33 0-3.5 2.84-6.34 6.34-6.34 3.5 0 6.33 2.84 6.33 6.34z"/><path d="m1615 987c0 3.5-2.84 6.33-6.33 6.33-3.5 0-6.33-2.84-6.33-6.33 0-3.5 2.84-6.33 6.33-6.33 3.5 0 6.33 2.84 6.33 6.33z"/><path d="m1615 1006c0 3.5-2.84 6.33-6.33 6.33-3.5 0-6.33-2.84-6.33-6.33 0-3.5 2.84-6.33 6.33-6.33 3.5 0 6.33 2.84 6.33 6.33z"/><path d="m1609 1031c0 3.5-2.84 6.33-6.33 6.33-3.5 0-6.34-2.84-6.34-6.33 0-3.5 2.84-6.34 6.34-6.34 3.5 0 6.33 2.84 6.33 6.34z"/><path d="m1609 1050c0 3.5-2.84 6.33-6.33 6.33-3.5 0-6.34-2.84-6.34-6.33 0-3.5 2.84-6.34 6.34-6.34 3.5 0 6.33 2.84 6.33 6.34z"/><path d="m1577 1031c0 3.5-2.84 6.33-6.33 6.33-3.5 0-6.33-2.84-6.33-6.33 0-3.5 2.84-6.34 6.33-6.34 3.5 0 6.33 2.84 6.33 6.34z"/><path d="m1558 1050c0 3.5-2.84 6.33-6.33 6.33-3.5 0-6.33-2.84-6.33-6.33 0-3.5 2.83-6.34 6.33-6.34 3.5 0 6.33 2.84 6.33 6.34z"/><path d="m1590 1050c0 3.5-2.84 6.33-6.33 6.33-3.5 0-6.34-2.84-6.34-6.33 0-3.5 2.84-6.34 6.34-6.34 3.5 0 6.33 2.84 6.33 6.34z"/><path d="m1596 1069c0 3.5-2.84 6.33-6.33 6.33-3.5 0-6.33-2.84-6.33-6.33 0-3.5 2.84-6.34 6.33-6.34 3.5 0 6.33 2.84 6.33 6.34z"/><path d="m1571 1069c0 3.5-2.84 6.33-6.33 6.33-3.5 0-6.34-2.84-6.34-6.33 0-3.5 2.84-6.34 6.34-6.34 3.5 0 6.33 2.84 6.33 6.34z"/><path d="m1558 1088c0 3.5-2.84 6.33-6.33 6.33-3.5 0-6.33-2.84-6.33-6.33 0-3.5 2.83-6.34 6.33-6.34 3.5 0 6.33 2.84 6.33 6.34z"/></g><path d="m395 313c-0.449-5.32-3.38-10.1-7.91-12.9-4.53-2.82-10.1-3.33-15.1-1.38-19.9 7.92-47.1 26.1-47.1 66.3 0 40.6 27.7 57 47.7 63.6 4.91 1.61 10.3 0.878 14.6-1.98 4.31-2.86 7.08-7.52 7.52-12.7 1.1-12.8 2.22-31.3 2.22-53.1-0.00262-20-0.933-36.2-1.93-47.7z" fill="#802d40"/><g fill="#d75e72"><path d="m380 314c0 2.34-1.9 4.24-4.24 4.24-2.34 0-4.24-1.9-4.24-4.24 0-2.34 1.9-4.24 4.24-4.24 2.34 0 4.24 1.9 4.24 4.24z"/><path d="m368 323c0 2.34-1.9 4.24-4.24 4.24-2.34 0-4.24-1.9-4.24-4.24 0-2.34 1.9-4.24 4.24-4.24 2.34 0 4.24 1.9 4.24 4.24z"/><path d="m385 327c0 2.34-1.9 4.24-4.24 4.24-2.34 0-4.24-1.9-4.24-4.24 0-2.34 1.89-4.24 4.24-4.24 2.34 0 4.24 1.9 4.24 4.24z"/><path d="m385 344c0 2.34-1.9 4.24-4.24 4.24-2.34 0-4.24-1.9-4.24-4.24 0-2.34 1.89-4.24 4.24-4.24 2.34 0 4.24 1.89 4.24 4.24z"/><path d="m372 336c0 2.34-1.9 4.24-4.24 4.24-2.34 0-4.24-1.9-4.24-4.24 0-2.34 1.89-4.24 4.24-4.24 2.34 0 4.24 1.9 4.24 4.24z"/><path d="m355 336c0 2.34-1.9 4.24-4.24 4.24-2.34 0-4.24-1.9-4.24-4.24 0-2.34 1.9-4.24 4.24-4.24 2.34 0 4.24 1.9 4.24 4.24z"/><path d="m364 348c0 2.34-1.9 4.24-4.24 4.24-2.34 0-4.24-1.9-4.24-4.24 0-2.34 1.9-4.24 4.24-4.24 2.34 0 4.24 1.9 4.24 4.24z"/><path d="m376 357c0 2.34-1.9 4.24-4.24 4.24-2.34 0-4.24-1.9-4.24-4.24 0-2.34 1.9-4.24 4.24-4.24 2.34 0 4.24 1.89 4.24 4.24z"/><path d="m385 370c0 2.34-1.9 4.24-4.24 4.24-2.34 0-4.24-1.9-4.24-4.24 0-2.34 1.89-4.24 4.24-4.24 2.34 0 4.24 1.89 4.24 4.24z"/><path d="m364 365c0 2.34-1.9 4.24-4.24 4.24-2.34 0-4.24-1.9-4.24-4.24 0-2.34 1.9-4.24 4.24-4.24 2.34 0 4.24 1.9 4.24 4.24z"/><path d="m347 348c0 2.34-1.9 4.24-4.24 4.24-2.34 0-4.24-1.9-4.24-4.24 0-2.34 1.89-4.24 4.24-4.24 2.34 0 4.24 1.9 4.24 4.24z"/><path d="m347 361c0 2.34-1.9 4.24-4.24 4.24-2.34 0-4.24-1.9-4.24-4.24 0-2.34 1.89-4.24 4.24-4.24 2.34 0 4.24 1.9 4.24 4.24z"/><path d="m351 378c0 2.34-1.9 4.24-4.24 4.24-2.34 0-4.24-1.9-4.24-4.24 0-2.34 1.9-4.24 4.24-4.24 2.34 0 4.24 1.9 4.24 4.24z"/><path d="m351 391c0 2.34-1.9 4.24-4.24 4.24-2.34 0-4.24-1.9-4.24-4.24 0-2.34 1.9-4.24 4.24-4.24 2.34 0 4.24 1.9 4.24 4.24z"/><path d="m372 378c0 2.34-1.9 4.24-4.24 4.24-2.34 0-4.24-1.9-4.24-4.24 0-2.34 1.89-4.24 4.24-4.24 2.34 0 4.24 1.9 4.24 4.24z"/><path d="m385 391c0 2.34-1.9 4.24-4.24 4.24-2.34 0-4.24-1.9-4.24-4.24 0-2.34 1.89-4.24 4.24-4.24 2.34 0 4.24 1.9 4.24 4.24z"/><path d="m364 391c0 2.34-1.9 4.24-4.24 4.24-2.34 0-4.24-1.9-4.24-4.24 0-2.34 1.9-4.24 4.24-4.24 2.34 0 4.24 1.9 4.24 4.24z"/><path d="m359 403c0 2.34-1.9 4.24-4.24 4.24-2.34 0-4.24-1.9-4.24-4.24 0-2.34 1.89-4.24 4.24-4.24 2.34 0 4.24 1.9 4.24 4.24z"/><path d="m376 403c0 2.34-1.9 4.24-4.24 4.24-2.34 0-4.24-1.9-4.24-4.24 0-2.34 1.9-4.24 4.24-4.24 2.34 0 4.24 1.9 4.24 4.24z"/><path d="m385 416c0 2.34-1.9 4.24-4.24 4.24-2.34 0-4.24-1.9-4.24-4.24 0-2.34 1.89-4.24 4.24-4.24 2.34 0 4.24 1.9 4.24 4.24z"/></g><path d="m366 417c0 31.4-21.5 56.8-48.1 56.8s-48.1-25.4-48.1-56.8 21.5-50.8 48.1-50.8 48.1 19.4 48.1 50.8z" fill="#c991ff"/><path d="m344 374c8.33 8.74 13.5 21.2 13.5 36.5 0 11.1-2.72 21.5-7.41 30.3-2.94 5.5-8.26 9.31-14.4 10.5-0.099 0.0194-0.194 0.0389-0.284 0.0579-4.11 0.871-7.44-0.111-10.9 2.33-3.7 2.64-0.0674 12.4-16.9 13.6l-0.0088 7.33e-4c-7.65-0.325-14.8-2.76-21.2-6.83 8.44 8.63 19.4 13.8 31.5 13.8 26.6 0 48.1-25.4 48.1-56.8 0-20-8.76-35.1-22-43.5z" fill="#d3b3ff"/><path d="m270 417c0 19.4 8.2 36.5 20.7 46.7 26-7.3 45.4-34.9 45.4-67.9 0-10.5-1.97-19.9-5.49-28.1-3.99-0.999-8.19-1.51-12.5-1.51-26.6-3.67e-4 -48.1 19.4-48.1 50.8z" fill="#b173ff"/><path d="m329 389c0 38.6-26.5 69.8-59.1 69.8s-59.1-31.3-59.1-69.8 26.5-62.4 59.1-62.4 59.1 23.8 59.1 62.4z" fill="#c991ff"/><path d="m288 456c24-8.91 41.3-35.4 41.3-66.6 0-34.1-20.8-56.7-48.2-61.5-0.944 2.37 1.37 5.15 3.86 7.02 9.98 7.5 19.6 16.3 24.8 27.9 4.35 9.59 5.17 21.2 0.263 30.5-3.19 6.06-8.81 11.6-8.13 18.4 0.316 3.16 2 6 2.86 9.05 2.37 8.39-1.66 17.3-7.05 24.2-3.03 3.86-6.51 7.37-9.8 11z" fill="#d3b3ff"/><path d="m229 389c0-34.9 21.7-57.8 50.1-61.8-2.94-0.413-5.95-0.623-9.02-0.623-32.6 0-59.1 23.8-59.1 62.4s26.5 69.8 59.1 69.8c3.07 0 6.08-0.276 9.02-0.808-28.4-5.13-50.1-34.1-50.1-69z" fill="#b173ff"/><g transform="matrix(.367 0 0 .367 -1359 -1431)" fill="#8a56b3"><path d="m4369 5028c-4 0-7.45-2.99-7.93-7.06-9.9-83.3 10.6-141 29.6-175 20.8-37.1 44-54.3 44.9-55 3.57-2.6 8.58-1.82 11.2 1.75 2.6 3.57 1.82 8.56-1.74 11.2-0.419 0.311-21.9 16.4-40.8 50.7-17.6 31.7-36.6 86.1-27.3 165 0.562 4.74-3.13 8.95-7.96 8.95z"/><path d="m4437 4804c-3.78-2.28-5-7.2-2.71-11 5.4-8.94 6.67-27.3 3.39-49-0.659-4.37 2.35-8.44 6.72-9.1 4.37-0.661 8.44 2.35 9.1 6.72 2.28 15.1 4.59 43-5.51 59.7-2.3 3.8-7.22 4.98-11 2.71z"/><path d="m4373 5061c-4.41 0-8-3.58-8-8 0-5.1 4.7-8.83 9.56-7.84 2.1 0.412 3.94 1.66 5.09 3.4 2.09 3.09 1.73 7.36-0.99 10.1-1.43 1.43-3.47 2.34-5.66 2.34z"/></g><path d="m304 386c-1.05 1.49-2.92 2.93-4.95 2.89-2.26-0.0469-3.49-1.87-3.79-3.61-0.421-2.44 0.843-15.2 7.24-14.6 2.59 0.264 2.87 5.1 3.12 6.76 0.424 2.79 0.285 5.81-1.63 8.54z" fill="#d3b3ff"/><path d="m344 443c0.938-0.702 1.9-1.62 1.91-2.8 0.0209-1.32-1.28-2.4-2.6-2.5s-2.59 0.547-3.63 1.37c-1.44 1.14-4.38 4.21-2.75 6.24 1.62 2.03 5.59-1.22 7.06-2.32z" fill="#d3b3ff"/><path d="m305 300c-6.5 30-37.1 4.7-37.1 4.7 13.5-17.4 37.1-4.7 37.1-4.7z" fill="#69da61"/><path d="m279 312c7.08 3.3 15.9 5.2 21.5-1.62-2.04-2.81-5.89-4.71-10.3-4.71-5.22 0-9.65 2.65-11.2 6.34z" fill="#5ab161"/><path d="m220 298c8.68 40.1 49.6 6.28 49.6 6.28-18-23.3-49.6-6.28-49.6-6.28z" fill="#a8ffa9"/><path d="m220 298c4.05 4.2 10.1 6.87 16.9 6.87 8.56 0 16-4.26 19.7-10.5-16.3-6.52-34.9 2.78-36.5 3.62z" fill="#c9ffd2"/><g transform="rotate(-11.9 192 422)"><path d="m189 343c-6.12 5.36-9.61 12.5-10.2 19.4 6.95 0.292 14.4-2.23 20.6-7.59 5.21-4.56 8.51-10.4 9.77-16.3 0.353-1.65-0.988-3.18-2.67-3.05-6.01 0.467-12.2 2.97-17.4 7.53z" fill="#96d7a5"/><path d="m206 336c-6.01 0.467-12.2 2.97-17.4 7.53-6.12 5.36-9.61 12.5-10.2 19.4l29.8-26c-0.502-0.575-1.26-0.928-2.1-0.864z" fill="#78c3a5"/><path d="m167 344c-1.44-1.24-3.62-1.08-4.86 0.361-1.24 1.44-1.08 3.62 0.359 4.86 0.122 0.103 12.1 10.6 15.9 28.6l1.75 8.31 6.74-1.42-1.75-8.31c-4.28-20.3-17.5-31.9-18.1-32.4z" fill="#b67f5f"/><path d="m167 344c-1.44-1.24-3.62-1.08-4.86 0.361-1.24 1.44-1.08 3.62 0.359 4.86 0.0546 0.0453 2.37 2.07 5.27 5.84 0.802 1.04 2.14 1.54 3.43 1.26 2.49-0.525 3.56-3.49 2-5.51-3.28-4.26-5.95-6.6-6.2-6.81z" fill="#a06e50"/><path d="m232 432c-7.45-35.4-36.9-59.1-65.8-53.1s-46.2 39.7-38.8 75.1 36.9 59.1 65.8 53.1 46.2-39.7 38.8-75.1z" fill="#ffaa5f"/><path d="m256 427c-7.45-35.4-33.1-59.9-57.3-54.8s-37.8 37.9-30.3 73.3 33.1 59.9 57.3 54.8 37.8-37.9 30.3-73.3z" fill="#ffaa5f"/><path d="m237 487c-24.2 5.1-49.9-19.4-57.3-54.8-4.41-20.9-1.42-40.9 6.74-54.8-16.3 11.8-24.2 38.9-18.1 67.8 3.43 16.3 10.7 30.3 20 40.1 3.21 3.43-0.0904 9.01-4.62 7.76-20.9-5.73-38.9-25.7-44.5-52.3-4.14-19.7-0.607-38.8 8.3-52.9-16.8 13.6-25.3 39.3-19.7 65.9 7.45 35.4 36.9 59.1 65.8 53.1 6.12-1.29 11.7-3.78 16.7-7.31 5.08 1.41 10.2 1.65 15.4 0.565 9.89-2.08 18-8.84 23.6-18.5-3.68 2.67-7.77 4.57-12.2 5.51z" fill="#ff8c5a"/></g><path d="m336 511c33.4 0 60.8-26.1 62.8-59 2.18-36.3-27.1-66.7-63.5-66.7h-20.9l-1.1 126h22.7z" fill="#884D00"/><circle transform="matrix(.289 0 0 .289 -474 -482)" cx="2721" cy="3215" r="217" fill="#AA6100"/><path d="m313 505c-31.4 0-56.9-25.5-56.9-56.9s25.5-56.9 56.9-56.9c31.4 0 56.9 25.5 56.9 56.9s-25.5 56.9-56.9 56.9z" fill="#79AB03"/><g transform="matrix(.289 0 0 .289 -474 -482)" fill="#91CC04"><circle cx="2721" cy="3215" r="176"/><circle cx="2721" cy="3215" r="176"/></g><path d="m308 397c1.68-0.168 3.38-0.255 5.11-0.255 28.1 0 50.9 22.8 50.9 50.9 0 28.1-22.8 50.9-50.9 50.9-1.72 0-3.43-0.0871-5.11-0.255 25.7-2.56 45.8-24.3 45.8-50.7 0-26.4-20.1-48.1-45.8-50.7z" fill="#85BB04"/><g transform="matrix(.289 0 0 .289 -474 -482)" fill="#C2FB3B"><path d="m2817 3215c0 9.74-12 17.4-14.9 26.2-2.96 9.1 2.16 22.4-3.36 30-5.57 7.66-19.8 6.88-27.5 12.4-7.58 5.52-11.2 19.4-20.3 22.3-8.78 2.85-19.8-6.11-29.6-6.11s-20.8 8.97-29.6 6.11c-9.1-2.96-12.7-16.8-20.3-22.3-7.66-5.57-21.9-4.79-27.5-12.4-5.52-7.58-0.403-20.9-3.36-30-2.85-8.78-14.9-16.5-14.9-26.2s12-17.4 14.9-26.2c2.96-9.1-2.16-22.4 3.36-30 5.57-7.66 19.8-6.88 27.5-12.4 7.58-5.52 11.2-19.4 20.3-22.3 8.78-2.85 19.8 6.11 29.6 6.11s20.8-8.97 29.6-6.11c9.1 2.96 12.7 16.8 20.3 22.3 7.66 5.57 21.9 4.79 27.5 12.4 5.52 7.58 0.403 20.9 3.36 30 2.85 8.78 14.9 16.5 14.9 26.2z"/><path d="m2721 3064c-4.3 0-7.79 3.49-7.79 7.79v22.5c0 4.3 3.49 7.79 7.79 7.79s7.79-3.49 7.79-7.79v-22.5c0-4.3-3.49-7.79-7.79-7.79z"/><path d="m2680 3078c-1.47-4.04-5.94-6.13-9.99-4.66-4.04 1.47-6.13 5.94-4.66 9.99l7.7 21.2c1.15 3.16 4.14 5.13 7.32 5.13 0.884 0 1.78-0.152 2.66-0.472 4.04-1.47 6.13-5.94 4.66-9.99l-7.7-21.2z"/><path d="m2636 3100c-2.77-3.3-7.68-3.73-11-0.96-3.3 2.77-3.73 7.68-0.96 11l14.5 17.2c1.54 1.84 3.75 2.78 5.97 2.78 1.77 0 3.54-0.598 5-1.82 3.3-2.77 3.73-7.68 0.96-11l-14.5-17.2z"/><path d="m2594 3149 19.5 11.3c1.23 0.709 2.57 1.04 3.89 1.04 2.69 0 5.31-1.4 6.76-3.9 2.15-3.73 0.875-8.49-2.85-10.6l-19.5-11.3c-3.72-2.15-8.49-0.876-10.6 2.85-2.15 3.73-0.875 8.49 2.85 10.6z"/><path d="m2580 3196 22.2 3.91c0.458 0.081 0.913 0.119 1.36 0.119 3.71 0 7-2.66 7.66-6.44 0.748-4.24-2.08-8.28-6.32-9.03l-22.2-3.91c-4.24-0.744-8.28 2.08-9.03 6.32-0.749 4.24 2.08 8.28 6.32 9.03z"/><path d="m2611 3233c-0.748-4.24-4.79-7.07-9.03-6.32l-22.2 3.91c-4.24 0.747-7.07 4.79-6.32 9.03 0.667 3.78 3.95 6.44 7.66 6.44 0.45 0 0.905-0.039 1.36-0.119l22.2-3.91c4.24-0.746 7.07-4.79 6.32-9.03z"/><path d="m2624 3269c-2.15-3.73-6.92-5-10.6-2.85l-19.5 11.3c-3.73 2.15-5 6.92-2.85 10.6 1.44 2.5 4.06 3.9 6.76 3.9 1.32 0 2.66-0.337 3.89-1.04l19.5-11.3c3.73-2.15 5-6.92 2.85-10.6z"/><path d="m2649 3299c-3.3-2.77-8.21-2.34-11 0.96l-14.5 17.2c-2.77 3.3-2.34 8.21 0.96 11 1.46 1.22 3.24 1.82 5 1.82 2.22 0 4.43-0.946 5.97-2.78l14.5-17.2c2.77-3.3 2.34-8.21-0.96-11z"/><path d="m2682 3318c-4.04-1.47-8.52 0.613-9.99 4.66l-7.7 21.2c-1.47 4.04 0.613 8.52 4.66 9.99 0.88 0.32 1.78 0.472 2.66 0.472 3.18 0 6.17-1.96 7.32-5.13l7.7-21.2c1.47-4.04-0.612-8.51-4.66-9.99z"/><path d="m2720 3325c-4.3 0-7.79 3.49-7.79 7.79v22.5c0 4.3 3.49 7.79 7.79 7.79s7.79-3.49 7.79-7.79v-22.5c-1e-3 -4.3-3.49-7.79-7.79-7.79z"/><path d="m2768 3323c-1.47-4.04-5.94-6.13-9.99-4.66-4.04 1.47-6.13 5.94-4.66 9.99l7.7 21.2c1.15 3.16 4.14 5.13 7.32 5.13 0.884 0 1.78-0.152 2.66-0.472 4.04-1.47 6.13-5.94 4.66-9.99l-7.7-21.2z"/><path d="m2803 3300c-2.77-3.3-7.68-3.73-11-0.96-3.3 2.77-3.73 7.68-0.96 11l14.5 17.2c1.54 1.84 3.75 2.78 5.97 2.78 1.77 0 3.54-0.598 5-1.82 3.3-2.77 3.73-7.68 0.96-11l-14.5-17.2z"/><path d="m2847 3278-19.5-11.3c-3.73-2.15-8.49-0.875-10.6 2.85-2.15 3.73-0.875 8.49 2.85 10.6l19.5 11.3c1.23 0.709 2.57 1.04 3.89 1.04 2.69 0 5.31-1.4 6.76-3.9 2.15-3.73 0.873-8.49-2.85-10.6z"/><path d="m2862 3231-22.2-3.91c-4.24-0.746-8.28 2.08-9.03 6.32s2.08 8.28 6.32 9.03l22.2 3.91c0.458 0.081 0.913 0.119 1.36 0.119 3.71 0 7-2.66 7.66-6.44 0.745-4.24-2.08-8.28-6.32-9.03z"/><path d="m2830 3195c0.667 3.78 3.95 6.44 7.66 6.44 0.45 0 0.904-0.039 1.36-0.119l22.2-3.91c4.24-0.747 7.07-4.79 6.32-9.03-0.747-4.24-4.79-7.07-9.03-6.32l-22.2 3.91c-4.24 0.747-7.07 4.79-6.32 9.03z"/><path d="m2817 3158c1.44 2.5 4.06 3.9 6.76 3.9 1.32 0 2.66-0.337 3.89-1.04l19.5-11.3c3.73-2.15 5-6.92 2.85-10.6-2.15-3.73-6.92-5-10.6-2.85l-19.5 11.3c-3.73 2.15-5 6.92-2.85 10.6z"/><path d="m2793 3129c1.46 1.22 3.24 1.82 5 1.82 2.22 0 4.43-0.946 5.97-2.78l14.5-17.2c2.77-3.3 2.34-8.21-0.96-11-3.3-2.77-8.21-2.34-11 0.96l-14.5 17.2c-2.77 3.3-2.34 8.21 0.96 11z"/><path d="m2772 3073c-4.05-1.47-8.52 0.614-9.99 4.66l-7.7 21.2c-1.47 4.04 0.614 8.52 4.66 9.99 0.88 0.32 1.78 0.472 2.66 0.472 3.18 0 6.17-1.96 7.32-5.13l7.7-21.2c1.47-4.04-0.614-8.52-4.66-9.99z"/></g><circle transform="matrix(.289 0 0 .289 -474 -482)" cx="2768" cy="3081" r="6.93"/><circle transform="matrix(.289 0 0 .289 -474 -482)" cx="2673" cy="3081" r="6.93"/><circle transform="matrix(.289 0 0 .289 -474 -482)" cx="2598" cy="3143" r="6.93"/><circle transform="matrix(.289 0 0 .289 -474 -482)" cx="2581" cy="3238" r="6.93"/><circle transform="matrix(.289 0 0 .289 -474 -482)" cx="2629" cy="3322" r="6.93"/><circle transform="matrix(.289 0 0 .289 -474 -482)" cx="2720" cy="3355" r="6.93"/><circle transform="matrix(.289 0 0 .289 -474 -482)" cx="2811" cy="3322" r="6.93"/><circle transform="matrix(.289 0 0 .289 -474 -482)" cx="2860" cy="3239" r="6.93"/><circle transform="matrix(.289 0 0 .289 -474 -482)" cx="2844" cy="3143" r="6.93"/><circle transform="matrix(.289 0 0 .289 -474 -482)" cx="2827" cy="3275" r="6.93"/><circle transform="matrix(.289 0 0 .289 -474 -482)" cx="2842" cy="3193" r="6.93"/><circle transform="matrix(.289 0 0 .289 -474 -482)" cx="2666" cy="3134" r="6.93"/><circle transform="matrix(.289 0 0 .289 -474 -482)" cx="2623" cy="3193" r="6.93"/><circle transform="matrix(.289 0 0 .289 -474 -482)" cx="2630" cy="3253" r="6.93"/><circle transform="matrix(.289 0 0 .289 -474 -482)" cx="2705" cy="3317" r="6.93"/><circle transform="matrix(.289 0 0 .289 -474 -482)" cx="2776" cy="3298" r="6.93"/><circle transform="matrix(.289 0 0 .289 -474 -482)" cx="2810" cy="3248" r="6.93"/><circle transform="matrix(.289 0 0 .289 -474 -482)" cx="2812" cy="3178" r="6.93"/><circle transform="matrix(.289 0 0 .289 -474 -482)" cx="2779" cy="3138" r="6.93"/><path d="m431 411c-1.71 0-3.09-1.38-3.09-3.09 0-14.2-7.97-24.2-8.05-24.3-1.08-1.32-0.88-3.27 0.441-4.35 1.32-1.08 3.26-0.885 4.34 0.43 0.387 0.47 9.45 11.7 9.45 28.2 0 1.71-1.38 3.09-3.09 3.09z" fill="#f7d291"/><path d="m481 458c0 33.3-22.2 52.5-49.6 52.5-27.4 0-49.6-19.1-49.6-52.5 0-33.3 22.2-52.5 49.6-52.5 27.4 0 49.6 19.1 49.6 52.5z" fill="#5fbf00"/><path d="m479 471c-2.99 7.18-7.76 13.3-13.9 18.1-8.92 7.03-21.3 8.52-31.2 2.85-8.64-4.98-16.2-14.1-21.3-27.4-0.36-0.942-1.25-1.58-2.26-1.58-1.42 0-2.57 1.23-2.44 2.65 0.701 7.73 2.35 14.5 4.78 20.3 1.33 3.18-2.45 6.1-5.1 3.91-10.7-8.9-17.6-23-17.6-41.5 0-14 3.89-25.4 10.4-34-11.7 8.81-19.2 23.4-19.2 42.8 0 33.3 22.2 52.5 49.6 52.5 12.3 0 23.5-3.94 32.2-11.2 0.00138-0.00138 0.00414-0.00138 0.00551-0.00276 0.221-0.185 0.422-0.396 0.64-0.586 1.36-1.19 2.65-2.47 3.87-3.84 0.501-0.558 0.992-1.13 1.47-1.71 0.306-0.378 0.652-0.713 0.947-1.1-0.0634 0.0483-0.132 0.0883-0.197 0.137 4.31-5.61 7.51-12.4 9.21-20.4z" fill="#3f7f00"/><path d="m446 370c-9.18 5.15-15.5 13.2-18.1 21.8 8.72 2.22 18.9 1.03 28-4.12 7.81-4.38 13.5-10.9 16.7-18 0.887-2-0.401-4.29-2.57-4.58-7.73-1.01-16.2 0.506-24 4.89z" fill="#96d7a5"/><path d="m470 365c-7.73-1.01-16.2 0.506-24 4.89-9.18 5.15-15.5 13.2-18.1 21.8l44.6-25c-0.481-0.862-1.35-1.51-2.43-1.65z" fill="#78c3a5"/><path d="m150 197c-1.72 0-3.44-0.654-4.75-1.97l-6.72-6.72c-2.62-2.62-2.62-6.88 0-9.5 2.62-2.62 6.88-2.62 9.5 0l6.72 6.72c2.62 2.62 2.62 6.88 0 9.5-1.31 1.31-3.03 1.97-4.75 1.97z" fill="#dc4655"/><path d="m152 120c-1.72 0-3.44-0.658-4.75-1.97-2.62-2.62-2.62-6.88 0-9.5l6.72-6.72c2.62-2.62 6.88-2.62 9.5 0 2.62 2.62 2.62 6.88 0 9.5l-6.72 6.72c-1.31 1.31-3.03 1.97-4.75 1.97z" fill="#dc4655"/><path d="m180 176c-1.72 0-3.44-0.658-4.75-1.97l-6.72-6.72c-2.62-2.62-2.62-6.87 0-9.5 2.62-2.62 6.88-2.62 9.5 0l6.72 6.72c2.62 2.62 2.62 6.88 0 9.5-1.31 1.31-3.03 1.97-4.75 1.97z" fill="#ff8087"/><path d="m192 105c-3.71 0-6.72-3.01-6.72-6.72v-6.72c0-3.71 3.01-6.72 6.72-6.72 3.71 0 6.72 3.01 6.72 6.72v6.72c0 3.71-3 6.72-6.72 6.72z" fill="#ff8087"/><path d="m158 323c-1.72 0-3.43-0.658-4.75-1.97l-6.72-6.72c-2.62-2.62-2.62-6.87 0-9.5 2.62-2.62 6.87-2.62 9.5 0l6.72 6.72c2.62 2.62 2.62 6.88 0 9.5-1.31 1.31-3.03 1.97-4.75 1.97z" fill="#dc4655"/><path d="m164 240h-6.72c-3.71 0-6.72-3.01-6.72-6.72 0-3.71 3-6.72 6.72-6.72h6.72c3.71 0 6.72 3.01 6.72 6.72 0 3.71-3.01 6.72-6.72 6.72z" fill="#ff9ba0"/><g transform="matrix(.813 0 0 .813 -2700 -2951)" fill="#dc4655"><path d="m3576 3811c-2.11 0-4.23-0.805-5.84-2.42-3.23-3.23-3.23-8.45 0-11.7l5.84-5.84c3.23-3.23 8.45-3.23 11.7 0 3.23 3.23 3.23 8.45 0 11.7l-5.84 5.84c-1.61 1.61-3.72 2.42-5.84 2.42z"/><path d="m3528 3982c-2.11 0-4.23-0.809-5.84-2.42-3.22-3.23-3.22-8.45 0-11.7l8.26-8.26c3.22-3.23 8.45-3.23 11.7 0s3.23 8.45 0 11.7l-8.26 8.26c-1.61 1.61-3.73 2.42-5.84 2.42z"/><path d="m3559 3902c-4.57 0-8.26-3.7-8.26-8.26v-8.26c0-4.56 3.7-8.26 8.26-8.26 4.57 0 8.26 3.7 8.26 8.26v8.26c0 4.56-3.69 8.26-8.26 8.26z"/><path d="m3621 3874c-2.11 0-4.23-0.809-5.84-2.42l-8.26-8.26c-3.23-3.22-3.23-8.45 0-11.7 3.23-3.23 8.45-3.23 11.7 0l8.26 8.26c3.23 3.23 3.23 8.45 0 11.7-1.61 1.61-3.73 2.42-5.84 2.42z"/><path d="m3610 3750c-2.11 0-4.23-0.809-5.84-2.42l-5.84-5.84c-3.22-3.23-3.22-8.45 0-11.7 3.23-3.23 8.45-3.23 11.7 0l5.84 5.84c3.22 3.23 3.22 8.45 0 11.7-1.61 1.61-3.73 2.42-5.84 2.42z"/></g><path d="m250 152c-3.71 0-6.72-3.01-6.72-6.72v-6.72c0-3.71 3.01-6.72 6.72-6.72 3.71 0 6.72 3.01 6.72 6.72v6.72c0 3.71-3 6.72-6.72 6.72z" fill="#ff9ba0"/><path d="m280 116c-1.72 0-3.44-0.654-4.75-1.97-2.62-2.62-2.62-6.88 0-9.5l6.72-6.72c2.62-2.62 6.87-2.62 9.5 0 2.62 2.62 2.62 6.88 0 9.5l-6.72 6.72c-1.31 1.31-3.03 1.97-4.75 1.97z" fill="#dc4655"/><path d="m235 243c-1.72 0-3.44-0.654-4.75-1.97l-6.72-6.72c-2.62-2.62-2.62-6.88 0-9.5 2.62-2.62 6.88-2.62 9.5 0l6.72 6.72c2.62 2.62 2.62 6.88 0 9.5-1.31 1.31-3.03 1.97-4.75 1.97z" fill="#ff8087"/><path d="m284 204c-3.71 0-6.72-3.01-6.72-6.72v-6.72c0-3.71 3.01-6.72 6.72-6.72 3.71 0 6.72 3.01 6.72 6.72v6.72c0 3.71-3 6.72-6.72 6.72z" fill="#ff8087"/><path d="m218 283h-6.72c-3.71 0-6.72-3.01-6.72-6.72 0-3.71 3-6.72 6.72-6.72h6.72c3.71 0 6.72 3.01 6.72 6.72 0 3.71-3.01 6.72-6.72 6.72z" fill="#dc4655"/><path transform="rotate(179 455 95.1)" d="m458 105c-1.72 0-3.44-0.654-4.75-1.97l-6.72-6.72c-2.62-2.62-2.62-6.88 0-9.5 2.62-2.62 6.88-2.62 9.5 0l6.72 6.72c2.62 2.62 2.62 6.88 0 9.5-1.31 1.31-3.03 1.97-4.75 1.97z" fill="#dc4655"/><path transform="rotate(179 443 159)" d="m440 169c-1.72 0-3.44-0.658-4.75-1.97-2.62-2.62-2.62-6.88 0-9.5l6.72-6.72c2.62-2.62 6.88-2.62 9.5 0 2.62 2.62 2.62 6.88 0 9.5l-6.72 6.72c-1.31 1.31-3.03 1.97-4.75 1.97z" fill="#dc4655"/><path transform="rotate(179 434 132)" d="m438 142c-1.72 0-3.44-0.658-4.75-1.97l-6.72-6.72c-2.62-2.62-2.62-6.87 0-9.5 2.62-2.62 6.88-2.62 9.5 0l6.72 6.72c2.62 2.62 2.62 6.88 0 9.5-1.31 1.31-3.03 1.97-4.75 1.97z" fill="#ff8087"/><path transform="rotate(179 420 198)" d="m420 208c-3.71 0-6.72-3.01-6.72-6.72v-6.72c0-3.71 3.01-6.72 6.72-6.72 3.71 0 6.72 3.01 6.72 6.72v6.72c0 3.71-3 6.72-6.72 6.72z" fill="#ff8087"/><path transform="rotate(179 458 216)" d="m462 226c-1.72 0-3.43-0.658-4.75-1.97l-6.72-6.72c-2.62-2.62-2.62-6.87 0-9.5 2.62-2.62 6.87-2.62 9.5 0l6.72 6.72c2.62 2.62 2.62 6.88 0 9.5-1.31 1.31-3.03 1.97-4.75 1.97z" fill="#dc4655"/><path transform="rotate(179 383 76.1)" d="m386 82.8h-6.72c-3.71 0-6.72-3.01-6.72-6.72 0-3.71 3-6.72 6.72-6.72h6.72c3.71 0 6.72 3.01 6.72 6.72 0 3.71-3.01 6.72-6.72 6.72z" fill="#ff9ba0"/><g transform="rotate(179 392 128) matrix(.813 0 0 .813 -2700 -2951)" fill="#dc4655"><path d="m3788 3761c-2.11 0-4.23-0.805-5.84-2.42-3.23-3.23-3.23-8.45 0-11.7l5.84-5.84c3.23-3.23 8.45-3.23 11.7 0 3.23 3.23 3.23 8.45 0 11.7l-5.84 5.84c-1.61 1.61-3.72 2.42-5.84 2.42z"/><path d="m3758 3848c-2.11 0-4.23-0.809-5.84-2.42-3.22-3.23-3.22-8.45 0-11.7l8.26-8.26c3.22-3.23 8.45-3.23 11.7 0s3.23 8.45 0 11.7l-8.26 8.26c-1.61 1.61-3.73 2.42-5.84 2.42z"/><path d="m3794 3809c-4.57 0-8.26-3.7-8.26-8.26v-8.26c0-4.56 3.7-8.26 8.26-8.26 4.57 0 8.26 3.7 8.26 8.26v8.26c0 4.56-3.69 8.26-8.26 8.26z"/><path d="m3833 3824c-2.11 0-4.23-0.809-5.84-2.42l-8.26-8.26c-3.23-3.22-3.23-8.45 0-11.7 3.23-3.23 8.45-3.23 11.7 0l8.26 8.26c3.23 3.23 3.23 8.45 0 11.7-1.61 1.61-3.73 2.42-5.84 2.42z"/><path d="m3843 3746c-2.11 0-4.23-0.809-5.84-2.42l-5.84-5.84c-3.22-3.23-3.22-8.45 0-11.7 3.23-3.23 8.45-3.23 11.7 0l5.84 5.84c3.22 3.23 3.22 8.45 0 11.7-1.61 1.61-3.73 2.42-5.84 2.42z"/></g><path transform="rotate(179 339 198)" d="m339 208c-3.71 0-6.72-3.01-6.72-6.72v-6.72c0-3.71 3.01-6.72 6.72-6.72 3.71 0 6.72 3.01 6.72 6.72v6.72c0 3.71-3 6.72-6.72 6.72z" fill="#ff9ba0"/><path transform="rotate(179 300 159)" d="m297 169c-1.72 0-3.44-0.654-4.75-1.97-2.62-2.62-2.62-6.88 0-9.5l6.72-6.72c2.62-2.62 6.87-2.62 9.5 0 2.62 2.62 2.62 6.88 0 9.5l-6.72 6.72c-1.31 1.31-3.03 1.97-4.75 1.97z" fill="#dc4655"/><path transform="rotate(179 337 87.5)" d="m340 97.5c-1.72 0-3.44-0.654-4.75-1.97l-6.72-6.72c-2.62-2.62-2.62-6.88 0-9.5 2.62-2.62 6.88-2.62 9.5 0l6.72 6.72c2.62 2.62 2.62 6.88 0 9.5-1.31 1.31-3.03 1.97-4.75 1.97z" fill="#ff8087"/><path transform="rotate(179 323 125)" d="m323 135c-3.71 0-6.72-3.01-6.72-6.72v-6.72c0-3.71 3.01-6.72 6.72-6.72 3.71 0 6.72 3.01 6.72 6.72v6.72c0 3.71-3 6.72-6.72 6.72z" fill="#ff8087"/><path transform="rotate(179 387 201)" d="m390 208h-6.72c-3.71 0-6.72-3.01-6.72-6.72 0-3.71 3-6.72 6.72-6.72h6.72c3.71 0 6.72 3.01 6.72 6.72 0 3.71-3.01 6.72-6.72 6.72z" fill="#dc4655"/></g></g></svg>
