<?xml version="1.0" encoding="UTF-8" standalone="no"?>
<svg
   xmlns:dc="http://purl.org/dc/elements/1.1/"
   xmlns:cc="http://creativecommons.org/ns#"
   xmlns:rdf="http://www.w3.org/1999/02/22-rdf-syntax-ns#"
   xmlns:svg="http://www.w3.org/2000/svg"
   xmlns="http://www.w3.org/2000/svg"
   xmlns:sodipodi="http://sodipodi.sourceforge.net/DTD/sodipodi-0.dtd"
   xmlns:inkscape="http://www.inkscape.org/namespaces/inkscape"
   inkscape:version="1.0 (4035a4f, 2020-05-01)"
   height="512"
   width="512"
   sodipodi:docname="water.svg"
   xml:space="preserve"
   viewBox="0 0 512 512"
   y="0px"
   x="0px"
   id="Capa_1"
   version="1.1"><metadata
   id="metadata61"><rdf:RDF><cc:Work
       rdf:about=""><dc:format>image/svg+xml</dc:format><dc:type
         rdf:resource="http://purl.org/dc/dcmitype/StillImage" /><dc:title></dc:title></cc:Work></rdf:RDF></metadata><defs
   id="defs59" /><sodipodi:namedview
   inkscape:current-layer="g24"
   inkscape:window-maximized="0"
   inkscape:window-y="0"
   inkscape:window-x="0"
   inkscape:cy="247.40841"
   inkscape:cx="328.16551"
   inkscape:zoom="0.46126261"
   showgrid="false"
   id="namedview57"
   inkscape:window-height="768"
   inkscape:window-width="1366"
   inkscape:pageshadow="2"
   inkscape:pageopacity="0"
   guidetolerance="10"
   gridtolerance="10"
   objecttolerance="10"
   borderopacity="1"
   bordercolor="#666666"
   pagecolor="#ffffff" />
<g
   transform="matrix(-8.7552867,0,0,8.7552867,651.10442,2.6075297)"
   id="g24">
	<path
   id="path10"
   d="m 39.216,40.149 c -0.212,-2.626 -0.967,-5.153 -1.917,-7.611 -1.163,-3.009 -0.925,-7.264 0.799,-9.495 0.878,-1.136 1.264,-2.591 1.257,-4.027 C 39.306,9.713 34.252,7.493 32.843,7.055 32.545,6.962 32.293,6.77 32.138,6.498 31.82,5.944 31.637,5.197 31.532,4.486 31.436,3.835 30.868,3.374 30.212,3.429 29.824,3.462 29.419,3.48 29,3.48 c -0.419,0 -0.824,-0.018 -1.212,-0.051 -0.656,-0.055 -1.224,0.406 -1.32,1.057 -0.105,0.711 -0.288,1.458 -0.606,2.012 -0.155,0.271 -0.407,0.464 -0.705,0.557 -1.409,0.438 -6.464,2.659 -6.512,11.961 -0.007,1.436 0.378,2.891 1.257,4.027 1.725,2.231 1.962,6.486 0.799,9.495 -0.95,2.457 -1.704,4.985 -1.917,7.611 -0.35,4.324 -0.674,10.335 -0.226,14.37 0,1.922 2.814,3.48 9.862,3.48 7.048,0 11.022,-1.558 11.022,-3.48 0.448,-4.034 0.124,-10.045 -0.226,-14.37 z"
   style="fill:#f9e109;fill-opacity:1" />
	<path
   id="path12"
   d="m 18.664,18.548 c -0.004,0.159 -0.018,0.305 -0.019,0.468 -0.008,1.436 0.379,2.891 1.257,4.027 1.725,2.231 1.962,6.486 0.799,9.495 -0.95,2.457 -1.704,4.985 -1.917,7.611 -0.012,0.147 -0.023,0.31 -0.035,0.461 2.624,0.709 6.242,1.15 10.251,1.15 4.009,0 7.627,-0.441 10.251,-1.149 -0.012,-0.151 -0.023,-0.314 -0.035,-0.461 -0.212,-2.626 -0.967,-5.154 -1.917,-7.611 -1.163,-3.009 -0.926,-7.264 0.799,-9.495 0.878,-1.136 1.264,-2.591 1.257,-4.027 -10e-4,-0.164 -0.015,-0.309 -0.019,-0.468 -2.63,0.72 -6.284,1.171 -10.336,1.171 -4.052,0 -7.707,-0.451 -10.336,-1.172 z"
   style="fill:#a1d51c;fill-opacity:1" />
	<path
   id="path14"
   d="m 26.742,54.36 c -2.038,0 -3.504,-0.469 -4.363,-1.396 C 21.634,52.16 21.607,51.285 21.62,51 v -1.12 c 0,-0.553 0.447,-1 1,-1 0.553,0 1,0.447 1,1 l -0.007,1.264 v 0 c 0.003,0 0.011,0.244 0.269,0.499 0.306,0.301 1.152,0.801 3.34,0.708 0.563,-0.035 1.018,0.408 1.038,0.96 0.021,0.552 -0.408,1.017 -0.96,1.038 -0.191,0.007 -0.377,0.011 -0.558,0.011 z"
   style="fill:#ffffff" />
	<path
   id="path16"
   d="m 22.619,47.399 c -0.553,0 -1,-0.447 -1,-1 v -1.17 c 0,-0.553 0.447,-1 1,-1 0.553,0 1,0.447 1,1 v 1.17 c 0,0.553 -0.447,1 -1,1 z"
   style="fill:#ffffff" />
	<path
   id="path18"
   d="m 23.781,16.08 c -0.059,0 -0.117,-0.005 -0.178,-0.016 -0.543,-0.098 -0.905,-0.617 -0.808,-1.161 0.662,-3.697 3.893,-5.298 4.029,-5.364 0.502,-0.238 1.096,-0.03 1.336,0.465 0.239,0.496 0.033,1.093 -0.462,1.334 -0.049,0.024 -2.458,1.259 -2.935,3.919 -0.086,0.483 -0.507,0.823 -0.982,0.823 z"
   style="fill:#ffffff" />
	<path
   id="path20"
   d="m 29,0 c -1.794,0 -3.248,0.485 -3.248,1.083 v 3.248 c 0,0.598 1.454,1.083 3.248,1.083 1.794,0 3.248,-0.485 3.248,-1.083 V 1.083 C 32.248,0.485 30.794,0 29,0 Z"
   style="fill:#003879" />
	<path
   id="path22"
   d="m 28.848,2.83 h -0.813 c -0.276,0 -0.5,-0.224 -0.5,-0.5 0,-0.276 0.224,-0.5 0.5,-0.5 h 0.813 c 0.276,0 0.5,0.224 0.5,0.5 0,0.276 -0.224,0.5 -0.5,0.5 z"
   style="fill:#1a69b7" />
</g>
<g
   id="g26">
</g>
<g
   id="g28">
</g>
<g
   id="g30">
</g>
<g
   id="g32">
</g>
<g
   id="g34">
</g>
<g
   id="g36">
</g>
<g
   id="g38">
</g>
<g
   id="g40">
</g>
<g
   id="g42">
</g>
<g
   id="g44">
</g>
<g
   id="g46">
</g>
<g
   id="g48">
</g>
<g
   id="g50">
</g>
<g
   id="g52">
</g>
<g
   id="g54">
</g>
<g
   transform="matrix(5.999467,0,0,5.999467,-12.476008,145.29167)"
   id="g193"><path
     d="m 24,3 h 8 a 12,12 0 0 1 12,12 v 2 H 36 A 12,12 0 0 1 24,5 Z"
     fill="#c4f236"
     transform="rotate(180,34,10)"
     id="path116" /><path
     d="M 40,6.07 V 7 a 5,5 0 0 1 -5,5 H 34 A 13.92,13.92 0 0 1 24.45,8.22 12,12 0 0 0 36,17 h 8 V 15 A 12,12 0 0 0 40,6.07 Z"
     fill="#a1d51c"
     id="path118" /><path
     d="m 31,9 a 11,11 0 0 1 10.58,8 1,1 0 0 0 1,0.73 0.84,0.84 0 0 0 0.27,0 A 1,1 0 0 0 43.54,16.5 13,13 0 0 0 31,7 1,1 0 0 0 31,9 Z"
     fill="#7ab92d"
     id="path120" /><path
     d="M 55,10 42,22 c 0,0 -3,0 -3,-1 C 39,20 51,6 51,6 Z"
     fill="#c4f236"
     id="path122" /><path
     d="m 51.84,10.61 a 4.25,4.25 0 0 1 -5.43,0.82 C 43,15.49 39,20.42 39,21 c 0,1 3,1 3,1 L 55,10 53.6,8.6 Z"
     fill="#a1d51c"
     id="path124" /><path
     d="m 40.83,52.87 c 7.94,-7.94 10.77,-21.15 5.33,-29.44 1.59,-1.93 1.78,-4.47 0.33,-5.92 -1.45,-1.45 -4,-1.26 -5.92,0.33 C 32.28,12.4 19.07,15.23 11.13,23.17 3.19,31.11 0.37,44.31 5.8,52.61 4.22,54.53 4,57.07 5.48,58.52 c 1.48,1.45 4,1.26 5.91,-0.32 8.3,5.43 21.51,2.6 29.44,-5.33 z"
     fill="#f9e109"
     id="path126" /><path
     d="m 46.5,24 c -2.07,6.82 -8.5,13.35 -17.36,16.77 -9.78,3.76 -19.82,2.7 -25.84,-2 -0.75,5 0,10 2.5,13.85 -1.58,1.91 -1.8,4.45 -0.32,5.9 1.48,1.45 4,1.26 5.91,-0.32 8.3,5.43 21.51,2.6 29.44,-5.33 C 48.59,45.11 51.45,32.32 46.5,24 Z"
     fill="#fcbc04"
     id="path128" /><path
     d="M 14,41 A 24.24,24.24 0 0 0 24.69,60.78 28.45,28.45 0 0 0 40.83,52.87 28.44,28.44 0 0 0 47.83,41 Z"
     fill="#fcbc04"
     id="path130" /><path
     d="m 28.48,41 a 32.13,32.13 0 0 1 -14.4,1.86 24.44,24.44 0 0 0 10.61,17.92 28.45,28.45 0 0 0 16.14,-7.91 28.5,28.5 0 0 0 7,-11.87 z"
     fill="#e59730"
     id="path132" /><circle
     cx="9"
     cy="43"
     fill="#e59730"
     r="1"
     id="circle134" /><circle
     cx="10"
     cy="36"
     fill="#fcbc04"
     r="1"
     id="circle136" /><circle
     cx="16"
     cy="36"
     fill="#fcbc04"
     r="1"
     id="circle138" /><path
     d="M 31,9 A 11,11 0 0 1 37.63,11.24 5.06,5.06 0 0 0 39.09,9.86 12.93,12.93 0 0 0 31,7 1,1 0 0 0 31,9 Z"
     fill="#a1d51c"
     id="path140" /><path
     d="M 60,41 C 60,52 50.15,61 38,61 25.85,61 16,52 16,41 Z"
     fill="#f9e109"
     id="path142" /><path
     d="M 49.76,41 C 48.17,47.78 38.59,53 27,53 A 36.49,36.49 0 0 1 19.86,52.31 22.64,22.64 0 0 0 38,61 c 12.15,0 22,-9 22,-20 z"
     fill="#fcbc04"
     id="path144" /><path
     d="M 38,41 H 20 c 0,3.8 2.24,7.87 5.67,11 A 18.81,18.81 0 0 0 38,57 18.81,18.81 0 0 0 50.33,52 C 53.76,48.87 56,44.8 56,41 Z"
     fill="#f9ed86"
     id="path146" /><g
     fill="#f9e109"
     id="g156"><path
       d="m 45.28,47.47 5,4.49 C 53.76,48.87 56,44.8 56,41 h -6.24 a 12,12 0 0 1 -4.48,6.47 z"
       id="path148" /><path
       d="M 38,51.28 A 35,35 0 0 1 27,53 H 26.92 A 18.48,18.48 0 0 0 38,57 Z"
       id="path150" /><path
       d="M 38,51.28 V 57 a 18.81,18.81 0 0 0 12.33,-5 l -5,-4.49 A 23.41,23.41 0 0 1 38,51.28 Z"
       id="path152" /><path
       d="M 36.49,41 25,51.21 24.95,51.27 c 0.24,0.23 0.46,0.47 0.71,0.69 0.25,0.22 0.52,0.43 0.78,0.64 L 37,43.23 v 13.71 c 0.33,0 0.66,0.06 1,0.06 0.34,0 0.67,0 1,-0.06 V 43.23 l 10.55,9.37 c 0.26,-0.21 0.53,-0.42 0.78,-0.64 0.25,-0.22 0.47,-0.46 0.71,-0.69 V 51.21 L 39.51,41 h -3 z"
       id="path154" /></g><path
     d="m 39,50.91 c -0.33,0.12 -0.66,0.26 -1,0.37 l -1,0.31 v 5.35 c 0.33,0 0.66,0.06 1,0.06 0.34,0 0.67,0 1,-0.06 z"
     fill="#fcbc04"
     id="path158" /><path
     d="m 51,51.21 -4.94,-4.39 c -0.25,0.22 -0.5,0.44 -0.77,0.65 -0.27,0.21 -0.55,0.4 -0.83,0.6 l 5.1,4.53 c 0.26,-0.21 0.53,-0.42 0.78,-0.64 0.25,-0.22 0.47,-0.46 0.71,-0.69 z"
     fill="#fcbc04"
     id="path160" /></g></svg>
