<svg width="512" height="512" version="1.1" viewBox="0 0 512 512" xml:space="preserve" xmlns="http://www.w3.org/2000/svg">
<g transform="matrix(-8.76 0 0 8.76 651 2.61)">
	<path d="m39.2 40.1c-0.212-2.63-0.967-5.15-1.92-7.61-1.16-3.01-0.925-7.26 0.799-9.5 0.878-1.14 1.26-2.59 1.26-4.03-0.049-9.3-5.1-11.5-6.51-12-0.298-0.093-0.55-0.285-0.705-0.557-0.318-0.554-0.501-1.3-0.606-2.01-0.096-0.651-0.664-1.11-1.32-1.06-0.388 0.033-0.793 0.051-1.21 0.051s-0.824-0.018-1.21-0.051c-0.656-0.055-1.22 0.406-1.32 1.06-0.105 0.711-0.288 1.46-0.606 2.01-0.155 0.271-0.407 0.464-0.705 0.557-1.41 0.438-6.46 2.66-6.51 12-7e-3 1.44 0.378 2.89 1.26 4.03 1.72 2.23 1.96 6.49 0.799 9.5-0.95 2.46-1.7 4.98-1.92 7.61-0.35 4.32-0.674 10.3-0.226 14.4 0 1.92 2.81 3.48 9.86 3.48s11-1.56 11-3.48c0.448-4.03 0.124-10-0.226-14.4z" style="fill:#f9e109"/>
	<path d="m18.7 18.5c-4e-3 0.159-0.018 0.305-0.019 0.468-8e-3 1.44 0.379 2.89 1.26 4.03 1.72 2.23 1.96 6.49 0.799 9.5-0.95 2.46-1.7 4.98-1.92 7.61-0.012 0.147-0.023 0.31-0.035 0.461 2.62 0.709 6.24 1.15 10.3 1.15s7.63-0.441 10.3-1.15c-0.012-0.151-0.023-0.314-0.035-0.461-0.212-2.63-0.967-5.15-1.92-7.61-1.16-3.01-0.926-7.26 0.799-9.5 0.878-1.14 1.26-2.59 1.26-4.03-1e-3 -0.164-0.015-0.309-0.019-0.468-2.63 0.72-6.28 1.17-10.3 1.17s-7.71-0.451-10.3-1.17z" style="fill:#a1d51c"/>
	<path d="m26.7 54.4c-2.04 0-3.5-0.469-4.36-1.4-0.745-0.804-0.772-1.68-0.759-1.96v-1.12c0-0.553 0.447-1 1-1s1 0.447 1 1l-7e-3 1.26c3e-3 0 0.011 0.244 0.269 0.499 0.306 0.301 1.15 0.801 3.34 0.708 0.563-0.035 1.02 0.408 1.04 0.96 0.021 0.552-0.408 1.02-0.96 1.04-0.191 7e-3 -0.377 0.011-0.558 0.011z" style="fill:#fff"/>
	<path d="m22.6 47.4c-0.553 0-1-0.447-1-1v-1.17c0-0.553 0.447-1 1-1s1 0.447 1 1v1.17c0 0.553-0.447 1-1 1z" style="fill:#fff"/>
	<path d="m23.8 16.1c-0.059 0-0.117-5e-3 -0.178-0.016-0.543-0.098-0.905-0.617-0.808-1.16 0.662-3.7 3.89-5.3 4.03-5.36 0.502-0.238 1.1-0.03 1.34 0.465 0.239 0.496 0.033 1.09-0.462 1.33-0.049 0.024-2.46 1.26-2.94 3.92-0.086 0.483-0.507 0.823-0.982 0.823z" style="fill:#fff"/>
	<path d="m29 0c-1.79 0-3.25 0.485-3.25 1.08v3.25c0 0.598 1.45 1.08 3.25 1.08s3.25-0.485 3.25-1.08v-3.25c0-0.598-1.45-1.08-3.25-1.08z" style="fill:#003879"/>
	<path d="m28.8 2.83h-0.813c-0.276 0-0.5-0.224-0.5-0.5s0.224-0.5 0.5-0.5h0.813c0.276 0 0.5 0.224 0.5 0.5s-0.224 0.5-0.5 0.5z" style="fill:#1a69b7"/>
</g>















<g transform="matrix(6 0 0 6 -12.5 145)"><path transform="rotate(180,34,10)" d="m24 3h8a12 12 0 0 1 12 12v2h-8a12 12 0 0 1-12-12z" fill="#c4f236"/><path d="m40 6.07v0.93a5 5 0 0 1-5 5h-1a13.9 13.9 0 0 1-9.55-3.78 12 12 0 0 0 11.6 8.78h8v-2a12 12 0 0 0-4-8.93z" fill="#a1d51c"/><path d="m31 9a11 11 0 0 1 10.6 8 1 1 0 0 0 1 0.73 0.84 0.84 0 0 0 0.27 0 1 1 0 0 0 0.69-1.23 13 13 0 0 0-12.5-9.5 1 1 0 0 0 0 2z" fill="#7ab92d"/><path d="m55 10-13 12s-3 0-3-1 12-15 12-15z" fill="#c4f236"/><path d="m51.8 10.6a4.25 4.25 0 0 1-5.43 0.82c-3.41 4.06-7.41 8.99-7.41 9.57 0 1 3 1 3 1l13-12-1.4-1.4z" fill="#a1d51c"/><path d="m40.8 52.9c7.94-7.94 10.8-21.2 5.33-29.4 1.59-1.93 1.78-4.47 0.33-5.92s-4-1.26-5.92 0.33c-8.29-5.44-21.5-2.61-29.4 5.33s-10.8 21.1-5.33 29.4c-1.58 1.92-1.8 4.46-0.32 5.91s4 1.26 5.91-0.32c8.3 5.43 21.5 2.6 29.4-5.33z" fill="#f9e109"/><path d="m46.5 24c-2.07 6.82-8.5 13.4-17.4 16.8-9.78 3.76-19.8 2.7-25.8-2-0.75 5 0 10 2.5 13.8-1.58 1.91-1.8 4.45-0.32 5.9s4 1.26 5.91-0.32c8.3 5.43 21.5 2.6 29.4-5.33 7.76-7.76 10.6-20.6 5.67-28.9z" fill="#fcbc04"/><path d="m14 41a24.2 24.2 0 0 0 10.7 19.8 28.4 28.4 0 0 0 16.1-7.91 28.4 28.4 0 0 0 7-11.9z" fill="#fcbc04"/><path d="m28.5 41a32.1 32.1 0 0 1-14.4 1.86 24.4 24.4 0 0 0 10.6 17.9 28.4 28.4 0 0 0 16.1-7.91 28.5 28.5 0 0 0 7-11.9z" fill="#e59730"/><circle cx="9" cy="43" r="1" fill="#e59730"/><circle cx="10" cy="36" r="1" fill="#fcbc04"/><circle cx="16" cy="36" r="1" fill="#fcbc04"/><path d="m31 9a11 11 0 0 1 6.63 2.24 5.06 5.06 0 0 0 1.46-1.38 12.9 12.9 0 0 0-8.09-2.86 1 1 0 0 0 0 2z" fill="#a1d51c"/><path d="m60 41c0 11-9.85 20-22 20s-22-9-22-20z" fill="#f9e109"/><path d="m49.8 41c-1.59 6.78-11.2 12-22.8 12a36.5 36.5 0 0 1-7.14-0.69 22.6 22.6 0 0 0 18.1 8.69c12.2 0 22-9 22-20z" fill="#fcbc04"/><path d="m38 41h-18c0 3.8 2.24 7.87 5.67 11a18.8 18.8 0 0 0 12.3 5 18.8 18.8 0 0 0 12.3-5c3.43-3.13 5.67-7.2 5.67-11z" fill="#f9ed86"/><g fill="#f9e109"><path d="m45.3 47.5 5 4.49c3.48-3.09 5.72-7.16 5.72-11h-6.24a12 12 0 0 1-4.48 6.47z"/><path d="m38 51.3a35 35 0 0 1-11 1.72h-0.08a18.5 18.5 0 0 0 11.1 4z"/><path d="m38 51.3v5.72a18.8 18.8 0 0 0 12.3-5l-5-4.49a23.4 23.4 0 0 1-7.33 3.77z"/><path d="m36.5 41-11.5 10.2-0.05 0.06c0.24 0.23 0.46 0.47 0.71 0.69s0.52 0.43 0.78 0.64l10.6-9.37v13.7c0.33 0 0.66 0.06 1 0.06s0.67 0 1-0.06v-13.7l10.6 9.37c0.26-0.21 0.53-0.42 0.78-0.64s0.47-0.46 0.71-0.69v-0.06l-11.5-10.2h-3z"/></g><path d="m39 50.9c-0.33 0.12-0.66 0.26-1 0.37l-1 0.31v5.35c0.33 0 0.66 0.06 1 0.06s0.67 0 1-0.06z" fill="#fcbc04"/><path d="m51 51.2-4.94-4.39c-0.25 0.22-0.5 0.44-0.77 0.65s-0.55 0.4-0.83 0.6l5.1 4.53c0.26-0.21 0.53-0.42 0.78-0.64s0.47-0.46 0.71-0.69z" fill="#fcbc04"/></g></svg>
