<svg width="512" height="512" xmlns="http://www.w3.org/2000/svg">
 <!-- Created with Method Draw - http://github.com/duopixel/Method-Draw/ -->

 <g>
  <title>background</title>
  <rect fill="none" id="canvas_background" height="514" width="514" y="-1" x="-1"/>
  <g display="none" overflow="visible" y="0" x="0" height="100%" width="100%" id="canvasGrid">
   <rect fill="url(#gridpattern)" stroke-width="0" y="0" x="0" height="100%" width="100%"/>
  </g>
 </g>
 <g>
  <title>Layer 1</title>
  <!-- Created with Method Draw - http://github.com/duopixel/Method-Draw/ -->
  <g stroke="null" id="svg_117">
   <g stroke="null" transform="matrix(1.286208404802259,0,0,1.286208404802259,-208.89064905470454,-232.06248545260146) " id="svg_114">
    <title stroke="null" transform="translate(0,-0.7774789929389954) translate(0,0.7774789929389954) translate(-0.7774789929389954,2.842170943040401e-14) translate(-0.7774789929389954,2.842170943040401e-14) translate(0.7774789929389954,2.842170943040401e-14) translate(0.7774789929389954,2.842170943040401e-14) translate(0.7774789929389954,2.842170943040401e-14) translate(0.7774789929389954,2.842170943040401e-14) translate(0.7774789929389954,2.842170943040401e-14) translate(0.7774789929389954,2.842170943040401e-14) translate(0.7774789929389954,2.842170943040401e-14) translate(0.7774789929389954,2.842170943040401e-14) translate(0.7774789929389954,2.842170943040401e-14) translate(0.7774789929389954,2.842170943040401e-14) translate(0.7774789929389954,2.842170943040401e-14) translate(0.7774789929389954,2.842170943040401e-14) translate(0.7774789929389954,2.842170943040401e-14) translate(0.7774789929389954,2.842170943040401e-14) translate(0.7774789929389954,2.842170943040401e-14) translate(0.7774789929389954,2.842170943040401e-14) translate(0.7774789929389954,2.842170943040401e-14) translate(0.7774789929389954,2.842170943040401e-14) translate(0.7774789929389954,2.842170943040401e-14) translate(0.7774789929389954,2.842170943040401e-14) translate(0.7774789929389954,2.842170943040401e-14) translate(0.7774789929389954,2.842170943040401e-14) translate(-6.276797771453857,-2.3537991046905518) translate(-81.0552749633789,-18.383670806884766) translate(-1862.9998779296875,-1898.9998779296875) translate(2047.9998779296875,0) translate(0,2098.906982421875) ">background</title>
    <rect stroke="null" x="112.217507" y="178.169635" width="514" height="402" id="svg_112" fill="none"/>
    <g stroke="null" id="svg_111" display="none">
     <rect stroke="null" id="svg_115" width="512" height="512" x="113.217507" y="179.169635" stroke-width="0" fill="url(#gridpattern)"/>
    </g>
   </g>
   <g stroke="null" transform="matrix(1.286208404802259,0,0,1.286208404802259,-208.89064905470454,-232.06248545260146) " id="svg_116">
    <title stroke="null" transform="translate(0,-0.7774789929389954) translate(0,0.7774789929389954) translate(-0.7774789929389954,2.842170943040401e-14) translate(-0.7774789929389954,2.842170943040401e-14) translate(0.7774789929389954,2.842170943040401e-14) translate(0.7774789929389954,2.842170943040401e-14) translate(0.7774789929389954,2.842170943040401e-14) translate(0.7774789929389954,2.842170943040401e-14) translate(0.7774789929389954,2.842170943040401e-14) translate(0.7774789929389954,2.842170943040401e-14) translate(0.7774789929389954,2.842170943040401e-14) translate(0.7774789929389954,2.842170943040401e-14) translate(0.7774789929389954,2.842170943040401e-14) translate(0.7774789929389954,2.842170943040401e-14) translate(0.7774789929389954,2.842170943040401e-14) translate(0.7774789929389954,2.842170943040401e-14) translate(0.7774789929389954,2.842170943040401e-14) translate(0.7774789929389954,2.842170943040401e-14) translate(0.7774789929389954,2.842170943040401e-14) translate(0.7774789929389954,2.842170943040401e-14) translate(0.7774789929389954,2.842170943040401e-14) translate(0.7774789929389954,2.842170943040401e-14) translate(0.7774789929389954,2.842170943040401e-14) translate(0.7774789929389954,2.842170943040401e-14) translate(0.7774789929389954,2.842170943040401e-14) translate(0.7774789929389954,2.842170943040401e-14) translate(-6.276797771453857,-2.3537991046905518) translate(-81.0552749633789,-18.383670806884766) translate(-1862.9998779296875,-1898.9998779296875) translate(2047.9998779296875,0) translate(0,2098.906982421875) ">Layer 1</title>
    <g stroke="null" id="svg_58">
     <path stroke="null" d="m476.220187,242.641865l0,-20.46547l-68.21795,0l0,20.46547l-24.21678,24.21678c-10.66266,10.65569 -16.44017,25.2469 -15.96264,40.31641l5.38899,173.13566c0.46359,14.25764 -1.61678,28.48742 -6.13972,42.02219l0,0l0,34.10859c0,11.30349 9.1612,20.46546 20.46546,20.46546l0,0l109.14733,0c11.30349,0 20.46546,-9.1612 20.46546,-20.46546l0,0l0,-34.10859l0,0c-4.52294,-13.534 -6.60331,-27.76455 -6.13971,-42.02219l5.38899,-173.13566c0.47752,-15.06951 -5.30076,-29.66072 -15.96265,-40.31641l-24.21678,-24.21678z" fill="#CFCFCF" id="svg_110"/>
     <rect stroke="null" x="1947.194872" y="1051.929287" width="88.142" height="17.628" fill="#BFBFBF" id="svg_109" transform="matrix(0.773946322146971,0,0,0.773946322146971,-1099.0352273708424,-591.9604031712205) "/>
     <path stroke="null" d="m516.399617,307.175055c0.28636,-8.9979 -1.6578,-17.92769 -5.6622,-25.99067l-13.09749,2.93326c-18.59638,4.15455 -37.88777,4.15455 -56.48415,0l0,0c-21.74093,-4.84335 -44.36183,-4.02452 -65.69334,2.38763l-4.70714,1.43257c-2.13532,6.18074 -3.13139,12.70201 -2.93326,19.23721l5.38899,173.13566c0.4636,14.25764 -1.61677,28.48742 -6.13971,42.02219l0,34.10859c0,11.30349 9.1612,20.46546 20.46546,20.46546l0,0l109.14733,0c11.30348,0 20.46546,-9.1612 20.46546,-20.46546l0,0l0,-34.10859c-4.52294,-13.534 -6.60331,-27.76455 -6.13972,-42.02219l5.38977,-173.13566z" fill="#FDB62F" id="svg_108"/>
     <g stroke="null" id="svg_105" transform="matrix(0.773946322146971,0,0,0.773946322146971,-1099.0352273708424,-591.9604031712205) ">
      <path stroke="null" d="m2086.564895,1184.142019l-190.56299,0l6.258,201.317c0.26399,9.317 -0.264,18.633 -1.587,27.853l181.22,0c-1.322,-9.22 -1.85101,-18.536 -1.587,-27.853l6.259,-201.317l-0.00001,0z" fill="#77A226" id="svg_107"/>
      <path stroke="null" d="m1956.026905,999.044019l70.514,0c9.74,0 17.62799,7.889 17.62799,17.628l0,35.257l0,0l-105.771,0l0,0l0,-35.257c0,-9.739 7.898,-17.628 17.629,-17.628l0.00001,0z" fill="#77A226" id="svg_106"/>
     </g>
     <g stroke="null" id="svg_102" transform="matrix(0.773946322146971,0,0,0.773946322146971,-1099.0352273708424,-591.9604031712205) ">
      <path stroke="null" d="m1750.743895,1437.199019l-12.516,-12.516c43.639,-43.384 68.107,-102.412 67.958,-163.944l0,-173.553l17.628,0l0,173.552c0.158,66.212 -26.152,129.745 -73.07,176.461z" fill="#5A821E" id="svg_104"/>
      <path stroke="null" d="m1835.976895,1413.841019l-17.62799,-1.587l2.20399,-13.221c7.21,-35.627 2.309,-72.638 -13.92599,-105.154l15.777,-7.933c17.95499,36.05 23.375,77.045 15.425,116.524l-1.85201,11.371z" fill="#5A821E" id="svg_103"/>
     </g>
     <g stroke="null" id="svg_96" transform="matrix(0.773946322146971,0,0,0.773946322146971,-1099.0352273708424,-591.9604031712205) ">
      <ellipse stroke="null" transform="matrix(-0.5909,-0.8068,0.8068,-0.5909,-71.4228,641.3492) " cx="-1636.641329" cy="1055.976387" rx="17.629" ry="79.331" fill="#77A226" id="svg_101"/>
      <ellipse stroke="null" transform="matrix(-0.7779,-0.6283,0.6283,-0.7779,117.3145,479.0436) " cx="-1745.354217" cy="459.955645" rx="17.627" ry="79.5" fill="#77A226" id="svg_100"/>
      <ellipse stroke="null" transform="matrix(-0.573,-0.8196,0.8196,-0.573,148.3297,650.8062) " cx="-1503.646557" cy="1042.588957" rx="79.331" ry="17.629" fill="#77A226" id="svg_99"/>
      <ellipse stroke="null" transform="matrix(-0.994,-0.109,0.109,-0.994,356.6425,938.0925) " cx="-1516.064189" cy="-357.161919" rx="35.255" ry="52.883" fill="#77A226" id="svg_98"/>
      <ellipse stroke="null" transform="matrix(-0.7071,-0.7071,0.7071,-0.7071,-177.0391,859.2128) " cx="-1763.035938" cy="905.861793" rx="35.257" ry="52.885" fill="#77A226" id="svg_97"/>
     </g>
     <path stroke="null" d="m475.060047,285.209685c0.34131,0.61374 0.61374,1.22825 1.02315,1.84199c7.25111,-0.39549 14.46196,-1.37762 21.55673,-2.93326l13.0975,-2.93325c0.8939,1.88997 1.69184,3.82716 2.38762,5.7984c-2.68095,-7.57229 -7.01273,-14.4488 -12.68808,-20.12415l-24.21678,-24.21678l0,-20.46624l-34.10858,0l0,13.64313l32.94844,49.39016z" fill="#BFBFBF" id="svg_95"/>
     <g stroke="null" id="svg_91" transform="matrix(0.773946322146971,0,0,0.773946322146971,-1099.0352273708424,-591.9604031712205) ">
      <path stroke="null" d="m2087.005895,1153.557019c0.176,2.732 0.176,5.465 0,8.197c0.176,-2.732 0.176,-5.464 0,-8.197z" fill="#CFCFCF" id="svg_94"/>
      <path stroke="null" d="m2085.771905,1145.360019c0.45,2.001 0.776,4.037 0.97,6.082c-0.194,-2.045 -0.512,-4.081 -0.97,-6.082z" fill="#CFCFCF" id="svg_93"/>
      <path stroke="null" d="m2083.567905,1136.986019c0.70499,2.115 1.23399,4.231 1.76299,6.346c-0.529,-2.115 -1.14599,-4.23 -1.76299,-6.346z" fill="#CFCFCF" id="svg_92"/>
     </g>
     <g stroke="null" id="svg_87" transform="matrix(0.773946322146971,0,0,0.773946322146971,-1099.0352273708424,-591.9604031712205) ">
      <path stroke="null" d="m2086.740905,1151.442019c0.044,0.705 0.044,1.41 0,2.115c0.045,-0.705 0.045,-1.41 0,-2.115z" fill="#FDB62F" id="svg_90"/>
      <path stroke="null" d="m2085.330895,1143.333019c0.04401,0.679 0.04401,1.349 0,2.027c0.04401,-0.679 0.04401,-1.349 0,-2.027z" fill="#FDB62F" id="svg_89"/>
      <path stroke="null" d="m2083.038905,1135.664019l0.529,1.322l-0.529,-1.322z" fill="#FDB62F" id="svg_88"/>
     </g>
     <g stroke="null" id="svg_84" transform="matrix(0.773946322146971,0,0,0.773946322146971,-1099.0352273708424,-591.9604031712205) ">
      <path stroke="null" d="m2081.893905,1413.312019l-40.98601,0l-0.79299,64.696c-0.194,17.875 -14.73701,32.26 -32.613,32.26l54.296,0c14.605,0 26.443,-11.837 26.443,-26.443l0,0l0,-44.071c-2.857,-8.62 -4.981,-17.46 -6.347,-26.442z" fill="#FD9133" id="svg_86"/>
      <path stroke="null" d="m2063.030905,1131.962019c-9.167,2.01 -18.483,3.279 -27.85301,3.79c5.826,9.555 8.885,20.537 8.81401,31.731l0.17599,16.659l42.837,0l-6.699,201.317l6.963,-223.705c0.176,-2.732 0.176,-5.465 0,-8.197c0.044,-0.705 0.044,-1.41 0,-2.115c-0.194,-2.045 -0.52,-4.081 -0.97,-6.082c0.044,-0.679 0.044,-1.349 0,-2.027c-0.529,-2.115 -1.058,-4.231 -1.763,-6.346l-0.529,-1.322c-0.89899,-2.547 -1.93,-5.051 -3.085,-7.492l-17.891,3.789l0.00001,0z" fill="#FD9133" id="svg_85"/>
     </g>
     <g stroke="null" id="svg_81" transform="matrix(0.773946322146971,0,0,0.773946322146971,-1099.0352273708424,-591.9604031712205) ">
      <path stroke="null" d="m2080.306905,1385.459019c0,4.672 0,9.343 0,14.015c-0.088,-4.672 -0.176,-9.343 0,-14.015z" fill="#77A226" id="svg_83"/>
      <path stroke="null" d="m2080.482905,1399.474019c0,4.583 0.79299,8.814 1.41,13.838c-0.616,-4.583 -1.145,-8.814 -1.41,-13.838z" fill="#77A226" id="svg_82"/>
     </g>
     <path stroke="null" d="m483.041757,324.502165l-2.18331,177.36528l31.72097,0c-0.47753,-3.547 -0.88695,-6.82156 -1.09127,-10.70987l0,0c0,-3.61588 0,-7.23098 0,-10.84686l4.36583,-155.80855l-32.81222,0z" fill="#5A821E" id="svg_80"/>
     <ellipse stroke="null" cx="1991.265872" cy="1245.842287" rx="61.699" ry="26.443" fill="#FFFFFF" id="svg_79" transform="matrix(0.773946322146971,0,0,0.773946322146971,-1099.0352273708424,-591.9604031712205) "/>
     <g stroke="null" id="svg_74" transform="matrix(0.773946322146971,0,0,0.773946322146971,-1099.0352273708424,-591.9604031712205) ">
      <rect stroke="null" x="1929.5659" y="1369.241015" width="123.399" height="17.628" fill="#5A821E" id="svg_78"/>
      <rect stroke="null" x="1929.5659" y="1298.727015" width="123.399" height="17.628" fill="#5A821E" id="svg_77"/>
      <rect stroke="null" x="1947.1949" y="1333.984015" width="88.142" height="17.628" fill="#5A821E" id="svg_76"/>
      <path stroke="null" d="m2026.539905,999.044019l-35.25701,0c9.74,0 17.628,7.889 17.628,17.628l0,35.257l35.257,0l0,-35.257c0.001,-9.739 -7.88799,-17.628 -17.62799,-17.628z" fill="#5A821E" id="svg_75"/>
     </g>
     <g stroke="null" id="svg_73" transform="matrix(0.773946322146971,0,0,0.773946322146971,-1099.0352273708424,-591.9604031712205) "/>
     <g stroke="null" id="svg_72" transform="matrix(0.773946322146971,0,0,0.773946322146971,-1099.0352273708424,-591.9604031712205) "/>
     <g stroke="null" id="svg_71" transform="matrix(0.773946322146971,0,0,0.773946322146971,-1099.0352273708424,-591.9604031712205) "/>
     <g stroke="null" id="svg_70" transform="matrix(0.773946322146971,0,0,0.773946322146971,-1099.0352273708424,-591.9604031712205) "/>
     <g stroke="null" id="svg_69" transform="matrix(0.773946322146971,0,0,0.773946322146971,-1099.0352273708424,-591.9604031712205) "/>
     <g stroke="null" id="svg_68" transform="matrix(0.773946322146971,0,0,0.773946322146971,-1099.0352273708424,-591.9604031712205) "/>
     <g stroke="null" id="svg_67" transform="matrix(0.773946322146971,0,0,0.773946322146971,-1099.0352273708424,-591.9604031712205) "/>
     <g stroke="null" id="svg_66" transform="matrix(0.773946322146971,0,0,0.773946322146971,-1099.0352273708424,-591.9604031712205) "/>
     <g stroke="null" id="svg_65" transform="matrix(0.773946322146971,0,0,0.773946322146971,-1099.0352273708424,-591.9604031712205) "/>
     <g stroke="null" id="svg_64" transform="matrix(0.773946322146971,0,0,0.773946322146971,-1099.0352273708424,-591.9604031712205) "/>
     <g stroke="null" id="svg_63" transform="matrix(0.773946322146971,0,0,0.773946322146971,-1099.0352273708424,-591.9604031712205) "/>
     <g stroke="null" id="svg_62" transform="matrix(0.773946322146971,0,0,0.773946322146971,-1099.0352273708424,-591.9604031712205) "/>
     <g stroke="null" id="svg_61" transform="matrix(0.773946322146971,0,0,0.773946322146971,-1099.0352273708424,-591.9604031712205) "/>
     <g stroke="null" id="svg_60" transform="matrix(0.773946322146971,0,0,0.773946322146971,-1099.0352273708424,-591.9604031712205) "/>
     <g stroke="null" id="svg_59" transform="matrix(0.773946322146971,0,0,0.773946322146971,-1099.0352273708424,-591.9604031712205) "/>
    </g>
   </g>
  </g>
 </g>
</svg>