<svg width="512" height="512" version="1.1" xmlns="http://www.w3.org/2000/svg"><g><title>background</title><rect id="canvas_background" x="-1" y="-1" width="514" height="514" fill="none"/><g id="canvasGrid" x="0" y="0" width="100%" height="100%" display="none" overflow="visible"><rect width="100%" height="100%" fill="url(#gridpattern)" stroke-width="0"/></g></g><g><title>Layer 1</title><g stroke="null"><g transform="matrix(1.29 0 0 1.29 -209 -232)"><title>background</title><rect x="112" y="178" width="514" height="402" fill="none"/><g display="none"><rect x="113" y="179" width="512" height="512" fill="url(#gridpattern)" stroke="null" stroke-width="0"/></g></g><g transform="matrix(1.29 0 0 1.29 -209 -232)"><title>Layer 1</title><path d="m476 243v-20.5h-68.2v20.5l-24.2 24.2c-10.7 10.7-16.4 25.2-16 40.3l5.39 173c0.464 14.3-1.62 28.5-6.14 42v34.1c0 11.3 9.16 20.5 20.5 20.5h109c11.3 0 20.5-9.16 20.5-20.5v-34.1c-4.52-13.5-6.6-27.8-6.14-42l5.39-173c0.478-15.1-5.3-29.7-16-40.3l-24.2-24.2z" fill="#CFCFCF"/><rect transform="matrix(.774 0 0 .774 -1099 -592)" x="1947" y="1052" width="88.1" height="17.6" fill="#BFBFBF"/><path d="m516 307c0.286-9-1.66-17.9-5.66-26l-13.1 2.93c-18.6 4.15-37.9 4.15-56.5 0-21.7-4.84-44.4-4.02-65.7 2.39l-4.71 1.43c-2.14 6.18-3.13 12.7-2.93 19.2l5.39 173c0.464 14.3-1.62 28.5-6.14 42v34.1c0 11.3 9.16 20.5 20.5 20.5h109c11.3 0 20.5-9.16 20.5-20.5v-34.1c-4.52-13.5-6.6-27.8-6.14-42l5.39-173z" fill="#FDB62F"/><g transform="matrix(.774 0 0 .774 -1099 -592)" fill="#77A226"><path d="m2087 1184h-191l6.26 201c0.264 9.32-0.264 18.6-1.59 27.9h181c-1.32-9.22-1.85-18.5-1.59-27.9l6.26-201h-1e-5z"/><path d="m1956 999h70.5c9.74 0 17.6 7.89 17.6 17.6v35.3h-106v-35.3c0-9.74 7.9-17.6 17.6-17.6h1e-5z"/></g><g transform="matrix(.774 0 0 .774 -1099 -592)" fill="#5A821E"><path d="m1751 1437-12.5-12.5c43.6-43.4 68.1-102 68-164v-174h17.6v174c0.158 66.2-26.2 130-73.1 176z"/><path d="m1836 1414-17.6-1.59 2.2-13.2c7.21-35.6 2.31-72.6-13.9-105l15.8-7.93c18 36 23.4 77 15.4 117l-1.85 11.4z"/></g><g transform="matrix(.774 0 0 .774 -1099 -592)" fill="#77A226"><ellipse transform="matrix(-.591 -.807 .807 -.591 -71.4 641)" cx="-1637" cy="1056" rx="17.6" ry="79.3"/><ellipse transform="matrix(-.778 -.628 .628 -.778 117 479)" cx="-1745" cy="460" rx="17.6" ry="79.5"/><ellipse transform="matrix(-.573 -.82 .82 -.573 148 651)" cx="-1504" cy="1043" rx="79.3" ry="17.6"/><ellipse transform="matrix(-.994 -.109 .109 -.994 357 938)" cx="-1516" cy="-357" rx="35.3" ry="52.9"/><ellipse transform="matrix(-.707 -.707 .707 -.707 -177 859)" cx="-1763" cy="906" rx="35.3" ry="52.9"/></g><path d="m475 285c0.341 0.614 0.614 1.23 1.02 1.84 7.25-0.395 14.5-1.38 21.6-2.93l13.1-2.93c0.894 1.89 1.69 3.83 2.39 5.8-2.68-7.57-7.01-14.4-12.7-20.1l-24.2-24.2v-20.5h-34.1v13.6l32.9 49.4z" fill="#BFBFBF"/><g transform="matrix(.774 0 0 .774 -1099 -592)" fill="#CFCFCF"><path d="m2087 1154c0.176 2.73 0.176 5.46 0 8.2 0.176-2.73 0.176-5.46 0-8.2z"/><path d="m2086 1145c0.45 2 0.776 4.04 0.97 6.08-0.194-2.04-0.512-4.08-0.97-6.08z"/><path d="m2084 1137c0.705 2.12 1.23 4.23 1.76 6.35-0.529-2.12-1.15-4.23-1.76-6.35z"/></g><g transform="matrix(.774 0 0 .774 -1099 -592)" fill="#FDB62F"><path d="m2087 1151c0.044 0.705 0.044 1.41 0 2.12 0.045-0.705 0.045-1.41 0-2.12z"/><path d="m2085 1143c0.044 0.679 0.044 1.35 0 2.03 0.044-0.679 0.044-1.35 0-2.03z"/><path d="m2083 1136 0.529 1.32-0.529-1.32z"/></g><g transform="matrix(.774 0 0 .774 -1099 -592)" fill="#FD9133"><path d="m2082 1413h-41l-0.793 64.7c-0.194 17.9-14.7 32.3-32.6 32.3h54.3c14.6 0 26.4-11.8 26.4-26.4v-44.1c-2.86-8.62-4.98-17.5-6.35-26.4z"/><path d="m2063 1132c-9.17 2.01-18.5 3.28-27.9 3.79 5.83 9.56 8.88 20.5 8.81 31.7l0.176 16.7h42.8l-6.7 201 6.96-224c0.176-2.73 0.176-5.46 0-8.2 0.044-0.705 0.044-1.41 0-2.12-0.194-2.04-0.52-4.08-0.97-6.08 0.044-0.679 0.044-1.35 0-2.03-0.529-2.12-1.06-4.23-1.76-6.35l-0.529-1.32c-0.899-2.55-1.93-5.05-3.08-7.49l-17.9 3.79h1e-5z"/></g><g transform="matrix(.774 0 0 .774 -1099 -592)" fill="#77A226"><path d="m2080 1385v14c-0.088-4.67-0.176-9.34 0-14z"/><path d="m2080 1399c0 4.58 0.793 8.81 1.41 13.8-0.616-4.58-1.14-8.81-1.41-13.8z"/></g><path d="m483 325-2.18 177h31.7c-0.478-3.55-0.887-6.82-1.09-10.7v-10.8l4.37-156h-32.8z" fill="#5A821E"/><ellipse transform="matrix(.774 0 0 .774 -1099 -592)" cx="1991" cy="1246" rx="61.7" ry="26.4" fill="#fff"/><g transform="matrix(.774 0 0 .774 -1099 -592)" fill="#5A821E"><rect x="1930" y="1369" width="123" height="17.6"/><rect x="1930" y="1299" width="123" height="17.6"/><rect x="1947" y="1334" width="88.1" height="17.6"/><path d="m2027 999h-35.3c9.74 0 17.6 7.89 17.6 17.6v35.3h35.3v-35.3c1e-3 -9.74-7.89-17.6-17.6-17.6z"/></g></g></g></g></svg>
