<svg width="511pt" height="511pt" version="1.1" viewBox="-20 0 511 512" xmlns="http://www.w3.org/2000/svg"><path d="m141 295c-49.7-9.91-99.6 30.3-111 89.7-11.9 59.5 18.8 116 68.5 126 49.7 9.91 99.6-30.3 111-89.7 11.9-59.5-18.8-116-68.5-126z" fill="#4f8e51"/><path d="m141 295c-23.5-4.69-52.1 39.7-64 99.2-11.7 58.8-2.64 110 20.3 116-49.2-10.3-79.5-66.3-67.7-125 11.9-59.5 61.8-99.6 111-89.7z" fill="#337233"/><path d="m432 299c-27.6-63.2-92.7-95.7-145-72.7-52.8 23-73.2 92.9-45.7 156 27.6 63.2 92.7 95.7 145 72.7s73.2-92.9 45.7-156z" fill="#4f8e51"/><path d="m386 455c-52.8 23-118-9.52-145-72.7-27.6-63.2-7.11-133 45.7-156-23.9 10.4-20.9 70.1 6.65 133 27.6 63.2 69.3 106 93.2 95.5z" fill="#337233"/><path d="m141 326c-1.05 0-2.1-0.0938-3.17-0.277-9.86-1.74-16.4-11.1-14.7-21 7.8-44.3 43.2-104 92.5-156 43.4-45.8 119-109 232-148 9.46-3.27 19.8 1.75 23.1 11.2 3.27 9.46-1.75 19.8-11.2 23.1-106 36.6-177 95.4-217 138-53.4 56.3-78.1 109-83.1 137-1.55 8.8-9.2 15-17.8 15z" fill="#7c4f31"/><path d="m334 96.9c-13.6 9.85-24.7 30-30.5 55.4-5.59 24.3-5.41 50.5 0.5 68.3 3.14 9.5-2.02 19.8-11.5 22.9-1.89 0.633-3.8 0.93-5.69 0.93-7.61 0-14.7-4.83-17.2-12.4-7.69-23.3-8.42-53.7-2.49-82.9v-0.0117l38.8-58.9z" fill="#7c4f31"/><path d="m107 91.5c-53.6 32.6-90.1 82.7-107 138 57.1 11 118 1.61 172-31 53.6-32.6 90.1-82.7 107-138-57.1-11-118-1.61-172 31z" fill="#4f8e51"/><g fill="#77b27c"><path d="m347 126c-20.8 46.8-22.1 97.3-7.33 142 43.4-19.1 80.2-53.8 101-101 20.8-46.8 22.1-97.3 7.32-142-43.4 19.1-80.2 53.8-101 101z"/><path d="m175 16.8c-61.5 12.5-113 47.2-147 94 50 29.7 111 41.7 172 29.2 61.5-12.5 113-47.2 147-94-50-29.7-111-41.7-172-29.2z"/><path d="m414 356c0-21.4-8.11-38.8-18.1-38.8-10 0-18.1 17.4-18.1 38.8s8.11 38.8 18.1 38.8c10 0 18.1-17.4 18.1-38.8z"/><path d="m184 407c0-16.9-5.49-30.6-12.3-30.6-6.77 0-12.3 13.7-12.3 30.6s5.48 30.6 12.3 30.6c6.77 0 12.3-13.7 12.3-30.6z"/></g></svg>
