<svg width="512" height="512" xmlns="http://www.w3.org/2000/svg">
 <!-- Created with Method Draw - http://github.com/duopixel/Method-Draw/ -->

 <g>
  <title>background</title>
  <rect fill="none" id="canvas_background" height="514" width="514" y="-1" x="-1"/>
  <g display="none" overflow="visible" y="0" x="0" height="100%" width="100%" id="canvasGrid">
   <rect fill="url(#gridpattern)" stroke-width="0" y="0" x="0" height="100%" width="100%"/>
  </g>
 </g>
 <g>
  <title>Layer 1</title>
  <g stroke="null" id="svg_50">
   <g stroke="null" transform="matrix(1.423471835568318,0,0,1.423471835568318,-480.33988825393857,-817.5487623700594) " id="svg_15" fill="#ffe853">
    <path stroke="null" id="svg_17" d="m523.586081,734.787037c-12.596,0 -25.406,-6.294 -33.302,-15.688c-6.116,-7.276 -13.438,-19.171 -15.793,-46.795c-0.21,-2.47 -0.391,-4.952 -0.572,-7.438c-0.843,-11.604 -1.64,-22.565 -5.538,-32.143c-6.754,-16.597 -24.663,-28.753 -42.581,-28.904c-17.889,-0.146 -36.028,11.702 -43.061,28.184c-2.368,5.549 -8.786,8.125 -14.335,5.759c-5.548,-2.368 -8.127,-8.786 -5.759,-14.334c10.443,-24.47 36.22,-41.457 62.814,-41.457c0.177,0 0.349,0.001 0.525,0.002c26.781,0.225 52.536,17.708 62.632,42.514c5.201,12.781 6.162,26.006 7.091,38.795c0.174,2.395 0.347,4.786 0.55,7.165c1.023,12 3.101,25.495 10.749,34.595c5.646,6.716 17.207,10.663 23.65,5.688c4.775,-3.686 11.634,-2.803 15.322,1.973c3.686,4.775 2.803,11.635 -1.972,15.321c-6.095,4.707 -13.223,6.763 -20.42,6.763z"/>
    <path stroke="null" id="svg_18" d="m412.814081,727.179037c-1.019,0 -2.054,-0.143 -3.081,-0.445c-5.788,-1.699 -9.104,-7.768 -7.406,-13.557c11.668,-39.764 50.183,-69.986 91.581,-71.862c41.4,-1.878 82.489,24.739 97.706,63.285c2.215,5.611 -0.538,11.956 -6.149,14.171c-5.611,2.216 -11.956,-0.538 -14.171,-6.149c-11.897,-30.138 -44.023,-50.945 -76.396,-49.482c-32.369,1.467 -62.484,25.098 -71.607,56.189c-1.398,4.761 -5.753,7.849 -10.477,7.85z"/>
    <circle stroke="null" id="svg_19" r="85.507004" cy="775.337037" cx="436.410081"/>
   </g>
   <circle stroke="null" transform="matrix(1.423471835568318,0,0,1.423471835568318,-480.33988825393857,-817.5487623700594) " id="svg_20" r="69.269997" fill="#fed110" cy="775.337029" cx="436.410075"/>
   <ellipse stroke="null" id="svg_21" transform="matrix(1.006394587746801,-1.006394587746801,1.006394587746801,1.006394587746801,-776.447652545189,-519.8082758834128) " ry="51.263" rx="51.263" fill="#ffe853" cy="856.09933" cx="55.32086"/>
   <ellipse stroke="null" id="svg_22" transform="matrix(1.006394587746801,-1.006394587746801,1.006394587746801,1.006394587746801,-776.447652545189,-519.8082758834128) " ry="34.993" rx="34.993" fill="#fed110" cy="856.09933" cx="55.32086"/>
   <ellipse stroke="null" id="svg_23" transform="matrix(1.006394587746801,-1.006394587746801,1.006394587746801,1.006394587746801,-776.447652545189,-519.8082758834128) " ry="19.59" rx="19.59" fill="#ffe853" cy="856.09933" cx="55.32086"/>
   <ellipse stroke="null" id="svg_24" transform="matrix(1.006394587746801,-1.006394587746801,1.006394587746801,1.006394587746801,-776.447652545189,-519.8082758834128) " ry="7.859" rx="7.859" fill="#fed110" cy="856.09933" cx="55.32086"/>
   <circle stroke="null" transform="matrix(1.423471835568318,0,0,1.423471835568318,-480.33988825393857,-817.5487623700594) " id="svg_25" r="85.507004" fill="#ffe853" cy="775.337029" cx="521.140075"/>
   <circle stroke="null" transform="matrix(1.423471835568318,0,0,1.423471835568318,-480.33988825393857,-817.5487623700594) " id="svg_26" r="69.269997" fill="#fed110" cy="775.337029" cx="521.140075"/>
   <ellipse stroke="null" id="svg_27" transform="matrix(1.006394587746801,-1.006394587746801,1.006394587746801,1.006394587746801,-741.1213520018902,-434.5238077990075) " ry="51.263" rx="51.263" fill="#ffe853" cy="856.09933" cx="140.05086"/>
   <ellipse stroke="null" id="svg_28" transform="matrix(1.006394587746801,-1.006394587746801,1.006394587746801,1.006394587746801,-741.1213520018902,-434.5238077990075) " ry="34.993" rx="34.993" fill="#fed110" cy="856.09933" cx="140.05086"/>
   <ellipse stroke="null" id="svg_29" transform="matrix(1.006394587746801,-1.006394587746801,1.006394587746801,1.006394587746801,-741.1213520018902,-434.5238077990075) " ry="19.59" rx="19.59" fill="#ffe853" cy="856.09933" cx="140.05086"/>
   <ellipse stroke="null" id="svg_30" transform="matrix(1.006394587746801,-1.006394587746801,1.006394587746801,1.006394587746801,-741.1213520018902,-434.5238077990075) " ry="7.859" rx="7.859" fill="#fed110" cy="856.09933" cx="140.05086"/>
   <circle stroke="null" transform="matrix(1.423471835568318,0,0,1.423471835568318,-480.33988825393857,-817.5487623700594) " id="svg_31" r="85.507004" fill="#ffe853" cy="775.337029" cx="601.269075"/>
   <circle stroke="null" transform="matrix(1.423471835568318,0,0,1.423471835568318,-480.33988825393857,-817.5487623700594) " id="svg_32" r="69.269997" fill="#fed110" cy="775.337029" cx="601.269075"/>
   <ellipse stroke="null" id="svg_33" transform="matrix(1.006394587746801,-1.006394587746801,1.006394587746801,1.006394587746801,-707.7138914929373,-353.8698935957068) " ry="51.263" rx="51.263" fill="#ffe853" cy="856.09933" cx="220.17986"/>
   <ellipse stroke="null" id="svg_34" transform="matrix(1.006394587746801,-1.006394587746801,1.006394587746801,1.006394587746801,-707.7138914929373,-353.8698935957068) " ry="34.993" rx="34.993" fill="#fed110" cy="856.09933" cx="220.17986"/>
   <ellipse stroke="null" id="svg_35" transform="matrix(1.006394587746801,-1.006394587746801,1.006394587746801,1.006394587746801,-707.7138914929373,-353.8698935957068) " ry="19.59" rx="19.59" fill="#ffe853" cy="856.09933" cx="220.17986"/>
   <ellipse stroke="null" id="svg_36" transform="matrix(1.006394587746801,-1.006394587746801,1.006394587746801,1.006394587746801,-707.7138914929373,-353.8698935957068) " ry="7.859" rx="7.859" fill="#fed110" cy="856.09933" cx="220.17986"/>
   <path stroke="null" id="svg_37" fill="#d1f6ff" d="m500.254379,313.67723c-1.708166,24.270195 -7.031951,47.543959 -15.444669,69.294609c-7.231237,18.718655 -16.768498,36.312767 -28.241681,52.412233c-14.490943,20.355647 -32.113525,38.348331 -52.127539,53.280551c-2.562249,1.921687 -5.224142,3.701027 -7.942973,5.338019c-32.526331,9.523027 -66.94588,14.63329 -102.561146,14.63329c-82.262437,0 -158.161956,-27.27372 -219.157724,-73.251861c-6.092459,-4.583579 -12.042572,-9.366445 -17.821867,-14.334361c-7.345115,-12.028337 -13.651095,-24.76841 -18.789828,-38.077872c-8.412719,-21.75065 -13.736503,-45.024414 -15.444669,-69.294609c-0.626328,-9.181393 6.647613,-16.996254 15.843242,-16.996254l445.845614,0c9.195628,0 16.469569,7.81486 15.843242,16.996254z"/>
   <path stroke="null" id="svg_38" fill="#8fc8f5" d="m500.242755,313.67723c-2.236438,24.270195 -9.20667,47.543959 -20.221128,69.294609c-9.467588,18.718655 -21.954367,36.312767 -36.975776,52.412233c-18.97245,20.355647 -42.045036,38.348331 -68.248636,53.280551c-3.354657,1.921687 -6.839773,3.701027 -10.399437,5.338019l-0.018637,0c-42.585509,9.523027 -87.631099,14.63329 -134.260833,14.63329c-14.331841,0 -28.495949,-0.48398 -42.492324,-1.437707c-14.909587,-1.010665 -29.614168,-2.53378 -44.095104,-4.569345c-12.449505,-3.587149 -23.799429,-8.740117 -33.621119,-15.345026c-21.805271,-14.66176 -39.939057,-32.170463 -53.749062,-51.899783c-11.256738,-16.099466 -19.624744,-33.693578 -24.731278,-52.412233c-5.926561,-21.75065 -7.473431,-45.024414 -4.044226,-69.294609c1.323226,-9.181393 12.673149,-16.996254 24.731278,-16.996254l427.383318,0c12.039492,0 21.562991,7.81486 20.742963,16.996254z"/>
   <path stroke="null" id="svg_39" fill="#65b2fe" d="m500.254379,313.67723c-1.708166,24.270195 -7.031951,47.543959 -15.444669,69.294609c-7.231237,18.718655 -16.768498,36.312767 -28.241681,52.412233c-14.490943,20.355647 -32.113525,38.348331 -52.127539,53.280551c-2.562249,1.921687 -5.224142,3.701027 -7.942973,5.338019l-0.014235,0c-32.526331,9.523027 -66.931646,14.63329 -102.546911,14.63329c-10.946498,0 -21.764884,-0.48398 -32.455158,-1.437707l0,-210.51725l222.929924,0c9.195628,0 16.469569,7.81486 15.843242,16.996254z"/>
   <path stroke="null" id="svg_40" fill="#d1f6ff" d="m511.525429,303.859545c0,8.781398 -3.561527,16.728641 -9.310929,22.489432c-5.760791,5.749403 -13.708034,9.310929 -22.489432,9.310929l-447.337412,0c-17.562796,0 -31.800361,-14.236142 -31.800361,-31.800361c0,-8.781398 3.561527,-16.728641 9.310929,-22.489432c5.760791,-5.747979 13.708034,-9.310929 22.489432,-9.310929l447.337412,0c17.564219,0 31.800361,14.236142 31.800361,31.800361z"/>
   <path stroke="null" id="svg_41" fill="#d1f6ff" d="m511.525429,303.859545c0,8.781398 -3.561527,16.728641 -9.310929,22.489432c-5.760791,5.749403 -13.708034,9.310929 -22.489432,9.310929l-330.248313,0c-17.562796,0 -31.800361,-14.236142 -31.800361,-31.800361c0,-8.781398 3.561527,-16.728641 9.310929,-22.489432c5.760791,-5.747979 13.708034,-9.310929 22.489432,-9.310929l330.248313,0c17.564219,0 31.800361,14.236142 31.800361,31.800361z"/>
   <path stroke="null" id="svg_42" fill="#d1f6ff" d="m484.809704,382.971841c-7.345397,18.718651 -17.033233,36.312764 -28.687545,52.412225l-387.81697,0c-6.188648,0.618349 -17.267032,-0.864165 -20.2476,-11.611997c-7.46108,-12.028334 -12.710639,-26.502385 -16.942117,-40.800228l453.694232,0z"/>
   <path stroke="null" id="svg_43" fill="#d1f6ff" d="m484.804016,382.964721c-7.229813,18.727195 -16.764228,36.31419 -28.237411,52.41935l-295.497095,0c-8.593499,-16.10516 -14.989158,-33.692155 -18.892318,-52.41935l342.626824,0z"/>
   <path stroke="null" id="svg_44" fill="#8fc8f5" d="m511.525429,303.859545c0,8.781398 -3.561527,16.728641 -9.310929,22.489432c-5.760791,5.749403 -13.708034,9.310929 -22.489432,9.310929l-218.236738,0l0,-63.599298l218.236738,0c17.564219,-0.001423 31.800361,14.234718 31.800361,31.798937z"/>
   <path stroke="null" id="svg_45" fill="#8fc8f5" d="m484.804016,382.964721c-7.229813,18.727195 -16.764228,36.31419 -28.237411,52.41935l-195.078274,0l0,-52.41935l223.315685,0z"/>
  </g>
 </g>
</svg>