<svg width="512" height="512" xmlns="http://www.w3.org/2000/svg">

 <g>
  <title>background</title>
  <rect fill="none" id="canvas_background" height="514" width="514" y="-1" x="-1"/>
 </g>
 <g>
  <title>Layer 1</title>
  <g id="svg_1">
   <path id="svg_2" fill="#9bda05" d="m241.312,276l-152.624,0c-8.284,0 -15,-6.716 -15,-15l0,-190.366c0,-2.486 0.618,-4.935 1.799,-7.123c21.777,-40.362 54.404,-63.511 89.513,-63.511s67.736,23.149 89.514,63.511c1.181,2.188 1.799,4.637 1.799,7.123l0,190.366c-0.001,8.284 -6.716,15 -15.001,15z"/>
   <path id="svg_3" fill="#59b154" d="m241.312,276c8.284,0 15,-6.716 15,-15l0,-190.366c0,-2.486 -0.618,-4.935 -1.799,-7.123c-21.777,-40.362 -54.404,-63.511 -89.513,-63.511l0,276l76.312,0z"/>
   <path id="svg_4" fill="#d09875" d="m165,375c-44.947,0 -86.9,-23.286 -118.132,-65.568c-30.223,-40.918 -46.868,-95.08 -46.868,-152.509c0,-51.866 13.965,-102.112 39.32,-141.485c2.242,-3.48 5.823,-5.88 9.895,-6.63c4.071,-0.749 8.272,0.216 11.607,2.671c36.84,27.109 67.152,62.157 87.659,101.354c6.478,12.381 11.996,25.212 16.519,38.346c4.522,-13.134 10.041,-25.965 16.519,-38.346c20.507,-39.196 50.819,-74.244 87.659,-101.354c3.335,-2.454 7.533,-3.419 11.607,-2.671c4.071,0.75 7.652,3.149 9.895,6.63c25.355,39.373 39.32,89.619 39.32,141.485c0,57.429 -16.645,111.591 -46.868,152.509c-31.232,42.282 -73.185,65.568 -118.132,65.568z"/>
   <path id="svg_5" fill="#c17d4f" d="m283.132,309.431c30.223,-40.918 46.868,-95.08 46.868,-152.509c0,-51.866 -13.965,-102.112 -39.32,-141.484c-2.242,-3.48 -5.823,-5.88 -9.895,-6.63c-4.074,-0.748 -8.272,0.217 -11.607,2.671c-36.84,27.109 -67.152,62.157 -87.659,101.354c-6.478,12.381 -11.996,25.212 -16.519,38.346l0,223.821c44.947,-0.001 86.9,-23.287 118.132,-65.569z"/>
  </g>
  <g transform="rotate(89.81932830810547 323.1666564941407,345.8889160156249) " id="svg_15">
   <path id="svg_9" fill="#9bda05" d="m399.478658,434.388884l-152.624,0c-8.284,0 -15,-6.716 -15,-15l0,-190.366c0,-2.486 0.618,-4.935 1.799,-7.123c21.777,-40.362 54.404,-63.511 89.513,-63.511s67.736,23.149 89.514,63.511c1.181,2.188 1.799,4.637 1.799,7.123l0,190.366c-0.001,8.284 -6.716,15 -15.001,15z"/>
   <path id="svg_10" fill="#59b154" d="m399.478658,434.388884c8.284,0 15,-6.716 15,-15l0,-190.366c0,-2.486 -0.618,-4.935 -1.799,-7.123c-21.777,-40.362 -54.404,-63.511 -89.513,-63.511l0,276l76.312,0z"/>
   <path id="svg_11" fill="#d8aa8b" d="m323.166658,533.388884c-44.947,0 -86.9,-23.286 -118.132,-65.568c-30.223,-40.918 -46.868,-95.08 -46.868,-152.509c0,-51.866 13.965,-102.112 39.32,-141.485c2.242,-3.48 5.823,-5.88 9.895,-6.63c4.071,-0.749 8.272,0.216 11.607,2.671c36.84,27.109 67.152,62.157 87.659,101.354c6.478,12.381 11.996,25.212 16.519,38.346c4.522,-13.134 10.041,-25.965 16.519,-38.346c20.507,-39.196 50.819,-74.244 87.659,-101.354c3.335,-2.454 7.533,-3.419 11.607,-2.671c4.071,0.75 7.652,3.149 9.895,6.63c25.355,39.373 39.32,89.619 39.32,141.485c0,57.429 -16.645,111.591 -46.868,152.509c-31.232,42.282 -73.185,65.568 -118.132,65.568z"/>
   <path id="svg_12" fill="#d09875" d="m441.298657,467.819881c30.223,-40.918 46.868,-95.08 46.868,-152.509c0,-51.866 -13.965,-102.112 -39.32,-141.484c-2.242,-3.48 -5.823,-5.88 -9.895,-6.63c-4.074,-0.748 -8.272,0.217 -11.607,2.671c-36.84,27.109 -67.152,62.157 -87.659,101.354c-6.478,12.381 -11.996,25.212 -16.519,38.346l0,223.821c44.947,-0.001 86.9,-23.287 118.132,-65.569z"/>
  </g>
 </g>
</svg>