<svg width="512" height="512" version="1.1" xmlns="http://www.w3.org/2000/svg"><g><title>background</title><rect id="canvas_background" x="-1" y="-1" width="514" height="514" fill="none"/></g><g><title>Layer 1</title><path d="m241 276h-153c-8.28 0-15-6.72-15-15v-190c0-2.49 0.618-4.94 1.8-7.12 21.8-40.4 54.4-63.5 89.5-63.5s67.7 23.1 89.5 63.5c1.18 2.19 1.8 4.64 1.8 7.12v190c-1e-3 8.28-6.72 15-15 15z" fill="#9bda05"/><path d="m241 276c8.28 0 15-6.72 15-15v-190c0-2.49-0.618-4.94-1.8-7.12-21.8-40.4-54.4-63.5-89.5-63.5v276h76.3z" fill="#59b154"/><path d="m165 375c-44.9 0-86.9-23.3-118-65.6-30.2-40.9-46.9-95.1-46.9-153 0-51.9 14-102 39.3-141 2.24-3.48 5.82-5.88 9.9-6.63 4.07-0.749 8.27 0.216 11.6 2.67 36.8 27.1 67.2 62.2 87.7 101 6.48 12.4 12 25.2 16.5 38.3 4.52-13.1 10-26 16.5-38.3 20.5-39.2 50.8-74.2 87.7-101 3.34-2.45 7.53-3.42 11.6-2.67 4.07 0.75 7.65 3.15 9.9 6.63 25.4 39.4 39.3 89.6 39.3 141 0 57.4-16.6 112-46.9 153-31.2 42.3-73.2 65.6-118 65.6z" fill="#d09875"/><path d="m283 309c30.2-40.9 46.9-95.1 46.9-153 0-51.9-14-102-39.3-141-2.24-3.48-5.82-5.88-9.9-6.63-4.07-0.748-8.27 0.217-11.6 2.67-36.8 27.1-67.2 62.2-87.7 101-6.48 12.4-12 25.2-16.5 38.3v224c44.9-1e-3 86.9-23.3 118-65.6z" fill="#c17d4f"/><g transform="rotate(89.8 323 346)"><path d="m399 434h-153c-8.28 0-15-6.72-15-15v-190c0-2.49 0.618-4.94 1.8-7.12 21.8-40.4 54.4-63.5 89.5-63.5s67.7 23.1 89.5 63.5c1.18 2.19 1.8 4.64 1.8 7.12v190c-1e-3 8.28-6.72 15-15 15z" fill="#9bda05"/><path d="m399 434c8.28 0 15-6.72 15-15v-190c0-2.49-0.618-4.94-1.8-7.12-21.8-40.4-54.4-63.5-89.5-63.5v276h76.3z" fill="#59b154"/><path d="m323 533c-44.9 0-86.9-23.3-118-65.6-30.2-40.9-46.9-95.1-46.9-153 0-51.9 14-102 39.3-141 2.24-3.48 5.82-5.88 9.9-6.63 4.07-0.749 8.27 0.216 11.6 2.67 36.8 27.1 67.2 62.2 87.7 101 6.48 12.4 12 25.2 16.5 38.3 4.52-13.1 10-26 16.5-38.3 20.5-39.2 50.8-74.2 87.7-101 3.34-2.45 7.53-3.42 11.6-2.67 4.07 0.75 7.65 3.15 9.9 6.63 25.4 39.4 39.3 89.6 39.3 141 0 57.4-16.6 112-46.9 153-31.2 42.3-73.2 65.6-118 65.6z" fill="#d8aa8b"/><path d="m441 468c30.2-40.9 46.9-95.1 46.9-153 0-51.9-14-102-39.3-141-2.24-3.48-5.82-5.88-9.9-6.63-4.07-0.748-8.27 0.217-11.6 2.67-36.8 27.1-67.2 62.2-87.7 101-6.48 12.4-12 25.2-16.5 38.3v224c44.9-1e-3 86.9-23.3 118-65.6z" fill="#d09875"/></g></g></svg>
