<svg width="512" height="512" xmlns="http://www.w3.org/2000/svg">
 <!-- Created with Method Draw - http://github.com/duopixel/Method-Draw/ -->

 <g>
  <title>background</title>
  <rect fill="none" id="canvas_background" height="514" width="514" y="-1" x="-1"/>
  <g display="none" overflow="visible" y="0" x="0" height="100%" width="100%" id="canvasGrid">
   <rect fill="url(#gridpattern)" stroke-width="0" y="0" x="0" height="100%" width="100%"/>
  </g>
 </g>
 <g>
  <title>Layer 1</title>
  <g stroke="null" id="svg_59">
   <g stroke="null" transform="matrix(0.9816993133194554,0,0,0.9816993133194554,-136.62486225437664,-390.97862405412275) " id="svg_35">
    <path stroke="null" id="svg_36" fill="#e0f4fe" d="m653.925477,658.926322l0,122c0,74.44 -60.56,135 -135,135l-240,0c-74.44,0 -135,-60.56 -135,-135l0,-122c0,-46.58 23.71,-87.72 59.69,-112l390.62,0c35.98,24.28 59.69,65.42 59.69,112z"/>
    <path stroke="null" id="svg_37" fill="#a6dafa" d="m653.925477,658.926322l0,122c0,74.44 -60.56,135 -135,135l-120,0l0,-369l195.31,0c35.98,24.28 59.69,65.42 59.69,112z"/>
    <path stroke="null" id="svg_38" fill="#a03c4b" d="m278.925477,885.926322c-57.897,0 -105,-47.103 -105,-105l0,-122c0,-57.897 47.103,-105 105,-105l240,0c57.897,0 105,47.103 105,105l0,122c0,57.897 -47.103,105 -105,105l-240,0z"/>
    <path stroke="null" id="svg_39" fill="#be4150" d="m623.92548,658.92632l0,122c0,57.9 -47.1,105 -105,105l-120,0l0,-332l120,0c57.9,0 105,47.1 105,105z"/>
    <path stroke="null" id="svg_40" fill="#b5ff47" d="m308.195477,752.533322l-25.652,-128.26c-1.622,-8.115 -9.528,-13.393 -17.65,-11.768c-43.471,8.695 -71.765,51.136 -63.07,94.606c8.79,43.952 51.43,71.706 94.606,63.071c8.122,-1.623 13.391,-9.526 11.766,-17.649z"/>
    <path stroke="null" id="svg_41" fill="#b5ff47" d="m403.192477,671.881322c-7.751,-2.906 -16.403,1.021 -19.312,8.778l-45,120c-2.909,7.757 1.021,16.402 8.778,19.312c40.922,15.347 86.465,-5.35 101.812,-46.278c15.31,-40.829 -5.45,-86.501 -46.278,-101.812z"/>
    <g stroke="null" id="svg_42" fill="#6ee213">
     <path stroke="null" id="svg_43" d="m449.465477,773.696322c-8.91,23.79 -28.04,40.75 -50.54,47.75l0,-150.48c1.43,0.09 2.86,0.39 4.27,0.92c40.82,15.31 61.58,60.98 46.27,101.81z"/>
     <path stroke="null" id="svg_44" d="m592.84248,708.21832l-60.1,-120.2c-3.701,-7.403 -12.717,-10.415 -20.125,-6.708c-40.537,20.269 -57.026,69.738 -36.758,110.274c20.273,40.546 69.747,57.023 110.274,36.758c7.404,-3.701 10.413,-12.715 6.709,-20.124z"/>
     <path stroke="null" id="svg_45" d="m519.925477,764.926322c-24.813,0 -45,20.187 -45,45s20.187,45 45,45s45,-20.187 45,-45s-20.187,-45 -45,-45zm0,60c-8.271,0 -15,-6.729 -15,-15s6.729,-15 15,-15s15,6.729 15,15s-6.729,15 -15,15z"/>
    </g>
    <circle stroke="null" id="svg_46" r="15" fill="#b5ff47" cy="839.426322" cx="278.925477"/>
    <circle stroke="null" id="svg_47" r="15" fill="#b5ff47" cy="659.926322" cx="338.925477"/>
    <circle stroke="null" id="svg_48" r="15" fill="#6ee213" cy="609.926322" cx="423.925477"/>
    <path stroke="null" id="svg_49" fill="#f94862" d="m608.925477,438.926322l0,80c0,19.3 -15.7,35 -35,35l-350,0c-19.3,0 -35,-15.7 -35,-35l0,-80c0,-19.3 15.7,-35 35,-35l350,0c19.3,0 35,15.7 35,35z"/>
    <path stroke="null" id="svg_50" fill="#db2640" d="m608.925477,438.926322l0,80c0,19.3 -15.7,35 -35,35l-175,0l0,-150l175,0c19.3,0 35,15.7 35,35z"/>
    <circle stroke="null" id="svg_51" r="15" fill="#f7c494" cy="479.926322" cx="278.925477"/>
    <circle stroke="null" id="svg_52" r="15" fill="#f7c494" cy="479.926322" cx="218.925477"/>
    <circle stroke="null" id="svg_53" r="15" fill="#f7c494" cy="479.926322" cx="398.925477"/>
    <path stroke="null" id="svg_54" fill="#f4b981" d="m413.925477,479.926322c0,8.28 -6.72,15 -15,15l0,-30c8.28,0 15,6.72 15,15z"/>
    <circle stroke="null" id="svg_55" r="15" fill="#f7c494" cy="479.926322" cx="338.925477"/>
    <circle stroke="null" id="svg_56" r="15" fill="#f7c494" cy="479.926322" cx="518.925477"/>
    <circle stroke="null" id="svg_57" r="15" fill="#f7c494" cy="479.926322" cx="458.925477"/>
    <circle stroke="null" id="svg_58" r="15" fill="#f7c494" cy="479.926322" cx="578.925477"/>
   </g>
  </g>
 </g>
</svg>