<svg width="512" height="512" version="1.1" xmlns="http://www.w3.org/2000/svg"><g><title>background</title><rect id="canvas_background" x="-1" y="-1" width="514" height="514" fill="none"/><g id="canvasGrid" x="0" y="0" width="100%" height="100%" display="none" overflow="visible"><rect width="100%" height="100%" fill="url(#gridpattern)" stroke-width="0"/></g></g><g><title>Layer 1</title><g stroke="null"><g transform="matrix(.982 0 0 .982 -137 -391)" stroke="null"><path d="m654 659v122c0 74.4-60.6 135-135 135h-240c-74.4 0-135-60.6-135-135v-122c0-46.6 23.7-87.7 59.7-112h391c36 24.3 59.7 65.4 59.7 112z" fill="#e0f4fe"/><path d="m654 659v122c0 74.4-60.6 135-135 135h-120v-369h195c36 24.3 59.7 65.4 59.7 112z" fill="#a6dafa"/><path d="m279 886c-57.9 0-105-47.1-105-105v-122c0-57.9 47.1-105 105-105h240c57.9 0 105 47.1 105 105v122c0 57.9-47.1 105-105 105h-240z" fill="#a03c4b"/><path d="m624 659v122c0 57.9-47.1 105-105 105h-120v-332h120c57.9 0 105 47.1 105 105z" fill="#be4150"/><path d="m308 753-25.7-128c-1.62-8.12-9.53-13.4-17.6-11.8-43.5 8.7-71.8 51.1-63.1 94.6 8.79 44 51.4 71.7 94.6 63.1 8.12-1.62 13.4-9.53 11.8-17.6z" fill="#b5ff47"/><path d="m403 672c-7.75-2.91-16.4 1.02-19.3 8.78l-45 120c-2.91 7.76 1.02 16.4 8.78 19.3 40.9 15.3 86.5-5.35 102-46.3 15.3-40.8-5.45-86.5-46.3-102z" fill="#b5ff47"/><g fill="#6ee213"><path d="m449 774c-8.91 23.8-28 40.8-50.5 47.8v-150c1.43 0.09 2.86 0.39 4.27 0.92 40.8 15.3 61.6 61 46.3 102z"/><path d="m593 708-60.1-120c-3.7-7.4-12.7-10.4-20.1-6.71-40.5 20.3-57 69.7-36.8 110 20.3 40.5 69.7 57 110 36.8 7.4-3.7 10.4-12.7 6.71-20.1z"/><path d="m520 765c-24.8 0-45 20.2-45 45s20.2 45 45 45 45-20.2 45-45-20.2-45-45-45zm0 60c-8.27 0-15-6.73-15-15s6.73-15 15-15 15 6.73 15 15-6.73 15-15 15z"/></g><circle cx="279" cy="839" r="15" fill="#b5ff47"/><circle cx="339" cy="660" r="15" fill="#b5ff47"/><circle cx="424" cy="610" r="15" fill="#6ee213"/><path d="m609 439v80c0 19.3-15.7 35-35 35h-350c-19.3 0-35-15.7-35-35v-80c0-19.3 15.7-35 35-35h350c19.3 0 35 15.7 35 35z" fill="#f94862"/><path d="m609 439v80c0 19.3-15.7 35-35 35h-175v-150h175c19.3 0 35 15.7 35 35z" fill="#db2640"/><g fill="#f7c494"><circle cx="279" cy="480" r="15"/><circle cx="219" cy="480" r="15"/><circle cx="399" cy="480" r="15"/></g><path d="m414 480c0 8.28-6.72 15-15 15v-30c8.28 0 15 6.72 15 15z" fill="#f4b981"/><g fill="#f7c494"><circle cx="339" cy="480" r="15"/><circle cx="519" cy="480" r="15"/><circle cx="459" cy="480" r="15"/><circle cx="579" cy="480" r="15"/></g></g></g></g></svg>
