<svg width="512pt" height="512pt" version="1.1" viewBox="-24 0 512 512" xmlns="http://www.w3.org/2000/svg"><path d="m443 161-48.2-59.9h-337l-39.9 59.9c-16.4 24.6-21.9 55-15.1 83.8l57.2 242c3.51 14.8 16.7 25.3 32 25.3h277c15.2 0 28.5-10.5 32-25.3l57.2-242c6.83-28.8 1.37-59.2-15.1-83.8z" fill="#f9eac7" style="fill:#e6e6e6;stroke-width:.995"/><path d="m443 161-48.2-59.9h-337l-39.9 59.9c-16.4 24.6-21.9 55-15.1 83.8l57.2 242c3.51 14.8 16.7 25.3 32 25.3h50.4l-33.8-267c-2.18-17.2-2-35 0.365-51.7 0.96-6.81 4.89-12.8 10.7-16.4 0.0272-0.0194 0.0544-0.035 0.0816-0.0506 9.21-5.72 15.9-9.85 31-9.85 15.2 0 21.8 4.13 31 9.85 10.6 6.59 23.8 14.8 48.4 14.8 24.5 0 37.7-8.2 48.4-14.8 9.21-5.72 15.9-9.85 31-9.85 15.2 0 21.8 4.13 31.1 9.85 10.6 6.59 23.8 14.8 48.4 14.8 24.5 0 37.8-8.2 48.4-14.8 3.87-2.4 7.27-4.43 11-6.06-1.72-3.28-3.61-6.48-5.68-9.58z" fill="#f4dbb3" style="fill:#ccc;stroke-width:.995"/><path d="m88.2 479h284c7.61 0 14.2-5.23 16-12.6l53.3-225c5.7-24.1 1.2-49.7-12.4-70.4l-42.7-53.2h-320l-35.1 52.6c-13.9 20.9-18.5 46.5-12.7 70.9l53.3 225c1.76 7.41 8.37 12.6 16 12.6z" fill="#ffc269" style="fill:#5d000c;stroke-width:.995"/><path d="m434 179c-1.41-2.73-2.96-5.4-4.66-7.98l-42.7-53.2h-320l-35.1 52.6c-13.9 20.9-18.5 46.5-12.7 70.9l53.3 225c1.76 7.41 8.37 12.6 16 12.6h50.2l-29.6-234c-2.18-17.2-2-35 0.365-51.7 0.96-6.81 4.89-12.8 10.7-16.4 0.0272-0.0156 0.0544-0.031 0.0816-0.0506 9.21-5.72 15.9-9.85 31-9.85 15.2 0 21.8 4.13 31 9.85 10.6 6.59 23.8 14.8 48.4 14.8 24.5 0 37.7-8.2 48.4-14.8 9.21-5.72 15.9-9.85 31-9.85 15.2 0 21.8 4.13 31.1 9.85 10.6 6.59 23.8 14.8 48.4 14.8 22.1 0 35-6.62 45-12.7z" fill="#ffa95f" style="fill:#420008;stroke-width:.995"/><path d="m403 2.77h-345c-9.07 0-16.4 7.35-16.4 16.4v32.9c0 9.07 7.35 16.4 16.4 16.4h345c9.07 0 16.4-7.35 16.4-16.4v-32.9c-0.00401-9.07-7.35-16.4-16.4-16.4z" fill="#ff8b5a" style="fill:#d6001b;stroke-width:.995"/><path d="m456 138c4.62 4.62 2.2 12.4-4.18 13.8-24.4 5.56-29.7 22.9-63.1 22.9-39.7 0-39.7-24.6-79.4-24.6-39.7 0-39.7 24.6-79.4 24.6-39.7 0-39.7-24.6-79.4-24.6-39.7 0-39.7 24.6-79.4 24.6-33.3 0-38.7-17.4-63-22.9-6.38-1.45-8.8-9.22-4.17-13.8l29.9-29.9c4.62-4.62 10.9-7.21 17.4-7.21h357c6.53 0 12.8 2.6 17.4 7.21z" fill="#ff8b5a" style="fill:#d6001b;stroke-width:.995"/><path d="m301 93.1h-18l12.2 27c1.37 3.03 4.36 4.83 7.49 4.83 1.12 0 2.28-0.233 3.37-0.73 4.14-1.86 5.98-6.73 4.11-10.9z" fill="#ff7350" style="fill:#bf0016;stroke-width:.995"/><path d="m158 101h-107c-6.53 0-12.8 2.6-17.4 7.21l-29.9 29.9c-4.62 4.62-2.2 12.4 4.17 13.8 24.4 5.56 29.7 23 63 23 35.3 0 39.3-19.4 67.5-23.7z" fill="#ff7350" style="fill:#bf0016;stroke-width:.995"/><path d="m109 93.1-21.2 34.7c-2.36 3.87-1.13 8.93 2.75 11.3 1.33 0.816 2.81 1.2 4.26 1.2 2.77 0 5.48-1.41 7.02-3.94l26.3-43.3z" fill="#ff8b5a" style="fill:#d6001b;stroke-width:.995"/><path d="m132 27.4v-24.6h-73.9c-9.07 0-16.4 7.35-16.4 16.4v32.9c0 9.08 7.35 16.4 16.4 16.4h345c9.07 0 16.4-7.35 16.4-16.4h-263c-13.6 0-24.6-11-24.6-24.6z" fill="#ff7350" style="fill:#bf0016;stroke-width:.995"/><path d="m395 101h-329c-9.07 0-16.4-7.35-16.4-16.4s7.35-16.4 16.4-16.4h329c9.07 0 16.4 7.35 16.4 16.4-4e-3 9.07-7.36 16.4-16.4 16.4z" fill="#9f6e50" style="fill:#f3b600;stroke-width:.995"/><path d="m395 68.5h-263c-4.53 0-8.21 3.68-8.21 8.21 0 4.53 3.68 8.21 8.21 8.21h279c0-9.07-7.35-16.4-16.4-16.4z" fill="#b57f5f" style="fill:#f3d55b;stroke-width:.995"/><ellipse transform="rotate(-52.2)" cx="84" cy="448" rx="14.4" ry="22" style="fill:#fff;opacity:.923;stroke-linecap:round;stroke-linejoin:round;stroke-width:8.5"/><ellipse transform="rotate(-52.2)" cx="50.2" cy="459" rx="9.72" ry="14.8" style="fill:#fff;opacity:.923;stroke-linecap:round;stroke-linejoin:round;stroke-width:5.73"/><g transform="matrix(1.07 0 0 1.07 526 -149)"><path d="m-300 339c9.89 8.01 12.2 20.7 11.9 31.8-0.247 6.69-4.56 12.5-10.9 14.8-34.6 12.6-59.1 43.3-59.1 79.2 0 47.2 42.2 85.4 94.2 85.4 52 0 94.2-38.2 94.2-85.4 0-35.9-24.4-66.6-59-79.2-6.31-2.22-10.6-8.07-10.9-14.8-0.315-11 1.96-23.7 11.9-31.8l0.0799-0.0387-0.0799 0.0387c-1.22 0.431-18.4 6.36-25.9 15.5-0.479 0.649-1.29 0.964-2.08 0.804-0.792-0.16-1.42-0.765-1.61-1.55-0.608-2.99-1.63-5.89-3.03-8.6-0.69-1.29-2.03-2.09-3.49-2.09-1.46 0-2.8 0.801-3.49 2.09-1.4 2.71-2.42 5.6-3.03 8.6-0.189 0.784-0.816 1.39-1.61 1.55-0.792 0.16-1.61-0.155-2.08-0.804-7.54-9.19-24.7-15.1-25.9-15.5l-0.0799-0.0387z" fill="#cc4b4c" style="fill:#d6001b;stroke-width:.62"/><path d="m-263 542c-47.6 0-86.4-34.8-86.4-77.6 0-31.7 21.1-59.9 53.9-71.8 9.37-3.3 15.7-12 16-22 0.143-4.18-0.121-8.36-0.784-12.5 0.344 0.358 0.671 0.719 0.966 1.07 1.91 2.34 4.77 3.7 7.8 3.7 3.47 0.029 6.7-1.79 8.47-4.78 1.77 2.99 5 4.81 8.48 4.78 3.01-2e-3 5.86-1.35 7.78-3.68 0.303-0.368 0.634-0.738 0.993-1.1-0.666 4.14-0.93 8.34-0.787 12.5 0.305 9.9 6.66 18.6 16 21.9 32.8 11.9 53.9 40.1 53.9 71.9-2e-3 42.8-38.7 77.6-86.4 77.6z" fill="#f5efca" style="fill:#fe3b00;stroke-width:.62"/><g transform="matrix(.87 0 0 .87 158 38.3)"><path d="m-488 407c-40 0.776-84.4 37.7-82.4 85.5 1.6 38 41 83.2 82 79.3 41.2 3.33 84-26.1 85.5-80.8 1.2-42.8-33.3-84.9-85.1-83.9z" style="fill:#ffc2aa;stroke-width:.602px;stroke:#ffc2aa"/><path d="m-492 420c-35.2 0.155-65 38.3-64.9 70.2 0.082 31.9 31 70.2 65.2 69.9 0.575-37.1 1.03-93.1-0.35-140z" style="fill:#fe3b00;stroke-width:.602px;stroke:#fe3b00"/><path d="m-479 420c35.2 0.155 65 38.3 64.9 70.2-0.082 31.9-31 70.2-65.2 69.9-0.575-37.1-1.03-93.1 0.35-140z" style="fill:#fe3b00;stroke-width:.602px;stroke:#fe3b00"/><path d="m-543 460c-8.13-1.26-16.3 4.61-17 13.1-0.491 5.81 5.19 12.8 11 13.6 6.68 0.896 15.3-4.32 16.4-11.9 0.898-5.97-4.15-13.9-10.3-14.9z" style="fill:#d6001b;stroke-width:.602px;stroke:#d6001b"/><path d="m-493 507c-7.96-6.3-22.3-4.28-28.1 4.29-4.66 6.84-4 19.3 2.27 24.7 7.34 6.32 22.8 5.76 29-1.64 6.58-7.8 4.73-21.1-3.15-27.4z" style="fill:#d6001b;stroke-width:.602px;stroke:#d6001b"/><path d="m-478 478c-7.63 8.18-6.23 23 1.14 29.5 7.41 6.58 23.4 5.33 29.6-2.4 6.35-7.91 5.58-23.2-4.16-30.1-7.27-5.18-20.5-3.5-26.6 3.03z" style="fill:#d6001b;stroke-width:.602px;stroke:#d6001b"/><path d="m-445 526c9.51 6.41 22.1 2.48 27.6-5.05 6.36-8.59 3.61-21.9-3.82-27.3-7.74-5.61-22.6-3.85-28.2 5.07-5.12 8.11-4.2 21.4 4.41 27.2z" style="fill:#d6001b;stroke-width:.602px;stroke:#d6001b"/><path d="m-509 438c-5.41 6.18-3.48 15.4 1.56 19.6 4.99 4.17 15.2 3.03 19.4-1.95 4-4.77 3.26-14.5-1.4-18.6-4.89-4.32-15.3-3.97-19.6 0.935z" style="fill:#d6001b;stroke-width:.602px;stroke:#d6001b"/><path d="m-453 434c-4.66 4.45-5.29 14.7-0.807 19.3 4.72 4.87 15.6 4.62 20.3-0.234 4.42-4.53 4.22-14.5-0.276-19-4.56-4.52-14.6-4.52-19.3-0.0924z" style="fill:#d6001b;stroke-width:.602px;stroke:#d6001b"/><path d="m-445 436c-1.88 2.09-0.393 6.32 1.64 8.26 1.88 1.8 5.89 3.02 7.71 1.17 2.07-2.1 0.687-6.72-1.48-8.73-1.93-1.79-6.11-2.66-7.87-0.701z" style="fill:#fe3b00;stroke-width:.602px;stroke:#fe3b00"/><path d="m-460 480c-2.02 2.39-0.258 7.29 2.19 9.14 2.28 1.72 6.9 2.39 8.58 0.0728 1.79-2.46-0.497-6.79-2.9-8.65-2.08-1.61-6.17-2.56-7.87-0.557z" style="fill:#ea1e0e;stroke-width:.602px;stroke:#fe3b00"/><path d="m-437 497c-2.65 2.86-0.66 8.9 2.27 11.5 2.41 2.11 7.47 3.03 9.59 0.631 2.46-2.8 0.59-8.44-2.14-11-2.39-2.21-7.5-3.53-9.71-1.14z" style="fill:#ea1e0e;stroke-width:.602px;stroke:#ea1e0e"/><path d="m-500 440c-2.18 2.02-1.08 6.8 1.07 8.85 1.93 1.84 6.12 2.49 7.97 0.577 1.81-1.88 0.908-5.86-0.857-7.79-1.88-2.05-6.14-3.52-8.18-1.64z" style="fill:#fe3b00;stroke-width:.602px;stroke:#fe3b00"/><path d="m-545 466c-2.03 2.23-0.276 6.87 2.02 8.83 1.86 1.59 5.71 2.35 7.32 0.504 1.86-2.14 0.315-6.4-1.77-8.32-1.87-1.73-5.85-2.89-7.57-1.01z" style="fill:#fe3b00;stroke-width:.602px;stroke:#fe3b00"/><path d="m-508 523c-2.55-2.68-8.25-4.9-10.8-2.27-2.76 2.78-0.386 8.85 2.52 11.5 2.48 2.24 7.65 3.55 9.96 1.14 2.41-2.52 0.767-7.81-1.64-10.3z" style="fill:#ea1e0e;stroke-width:.602px;stroke:#ea1e0e"/><path d="m-533 450c-2.74 2.41-1.28 8.14 1.12 10.9 2.08 2.38 6.81 4.28 9.21 2.23 2.77-2.36 1.53-8.12-0.838-10.9-2.11-2.47-7.05-4.38-9.49-2.23z" style="fill:#ff6e31;stroke-width:.524px;stroke:#ff6e31"/><path d="m-525 493c-1.75 1.54-0.82 5.2 0.714 6.96 1.33 1.52 4.35 2.74 5.89 1.43 1.77-1.51 0.978-5.19-0.535-6.96-1.35-1.58-4.51-2.8-6.07-1.43z" style="fill:#ff6e31;stroke-width:.335px;stroke:#ff6e31"/><path d="m-544 508c-3.07 2.7-1.44 9.12 1.25 12.2 2.33 2.67 7.63 4.8 10.3 2.5 3.11-2.64 1.71-9.1-0.938-12.2-2.37-2.77-7.9-4.91-10.6-2.5z" style="fill:#ff6e31;stroke-width:.587px;stroke:#ff6e31"/><path d="m-438 471c-3.07 2.7-1.44 9.12 1.25 12.2 2.33 2.67 7.63 4.8 10.3 2.5 3.11-2.64 1.71-9.1-0.938-12.2-2.37-2.77-7.9-4.91-10.6-2.5z" style="fill:#ff6e31;stroke-width:.587px;stroke:#ff6e31"/><path d="m-466 526c-2.13 1.87-0.996 6.32 0.868 8.46 1.61 1.85 5.29 3.33 7.16 1.74 2.15-1.83 1.19-6.31-0.651-8.46-1.64-1.92-5.48-3.4-7.38-1.74z" style="fill:#ff6e31;stroke-width:.407px;stroke:#ff6e31"/></g></g></svg>
