<?xml version="1.0" encoding="UTF-8" standalone="no"?>
<svg
   xmlns:dc="http://purl.org/dc/elements/1.1/"
   xmlns:cc="http://creativecommons.org/ns#"
   xmlns:rdf="http://www.w3.org/1999/02/22-rdf-syntax-ns#"
   xmlns:svg="http://www.w3.org/2000/svg"
   xmlns="http://www.w3.org/2000/svg"
   xmlns:sodipodi="http://sodipodi.sourceforge.net/DTD/sodipodi-0.dtd"
   xmlns:inkscape="http://www.inkscape.org/namespaces/inkscape"
   height="512pt"
   viewBox="-24 0 512 512"
   width="512pt"
   version="1.1"
   id="svg34"
   sodipodi:docname="tomatopaste.svg"
   inkscape:version="1.0 (4035a4f, 2020-05-01)">
  <metadata
     id="metadata40">
    <rdf:RDF>
      <cc:Work
         rdf:about="">
        <dc:format>image/svg+xml</dc:format>
        <dc:type
           rdf:resource="http://purl.org/dc/dcmitype/StillImage" />
        <dc:title />
      </cc:Work>
    </rdf:RDF>
  </metadata>
  <defs
     id="defs38" />
  <sodipodi:namedview
     inkscape:snap-nodes="false"
     inkscape:document-rotation="0"
     pagecolor="#ffffff"
     bordercolor="#666666"
     borderopacity="1"
     objecttolerance="10"
     gridtolerance="10"
     guidetolerance="10"
     inkscape:pageopacity="0"
     inkscape:pageshadow="2"
     inkscape:window-width="1366"
     inkscape:window-height="768"
     id="namedview36"
     showgrid="false"
     inkscape:zoom="0.28317717"
     inkscape:cx="-63.963987"
     inkscape:cy="420.98729"
     inkscape:window-x="0"
     inkscape:window-y="0"
     inkscape:window-maximized="0"
     inkscape:current-layer="svg34" />
  <path
     d="M 442.78868,161.24625 394.63246,101.32971 H 57.880724 L 17.933781,161.24625 C 1.5035505,185.89354 -3.951177,216.25974 2.8750024,245.08355 L 60.103022,486.71944 C 63.615182,501.53734 76.847947,512 92.073787,512 H 368.64868 c 15.22584,0 28.45861,-10.46266 31.97077,-25.28056 l 57.22801,-241.63589 c 6.82618,-28.82381 1.37145,-59.19001 -15.05878,-83.8373 z m 0,0"
     fill="#f9eac7"
     id="path10"
     style="fill:#e6e6e6;stroke-width:0.994595" />
  <path
     d="M 442.78868,161.24625 394.63246,101.32971 H 57.880724 L 17.933781,161.24625 C 1.5035505,185.89354 -3.951177,216.25974 2.8750024,245.08355 L 60.106906,486.71944 C 63.615182,501.53734 76.847947,512 92.073787,512 H 142.50671 L 108.69827,245.08355 c -2.17956,-17.20726 -1.99695,-34.95066 0.3652,-51.70724 0.95963,-6.81065 4.89139,-12.81317 10.73463,-16.438 0.0272,-0.0194 0.0544,-0.035 0.0816,-0.0506 9.21165,-5.7189 15.863,-9.85269 31.02279,-9.85269 15.16757,0 21.82668,4.13379 31.03834,9.85269 10.61806,6.58919 23.83139,14.79071 48.36603,14.79071 24.52683,0 37.74018,-8.20152 48.35437,-14.79071 9.20777,-5.7189 15.86299,-9.85269 31.02279,-9.85269 15.17533,0 21.83834,4.13379 31.05776,9.85269 10.61806,6.58919 23.83528,14.79071 48.37768,14.79071 24.5385,0 37.75572,-8.20152 48.3738,-14.79071 3.86571,-2.39713 7.26909,-4.42905 10.97939,-6.05692 -1.72112,-3.27517 -3.61318,-6.47652 -5.68396,-9.58463 z m 0,0"
     fill="#f4dbb3"
     id="path12"
     style="fill:#cccccc;stroke-width:0.994595" />
  <path
     d="M 88.184766,479.14731 H 372.5377 c 7.61486,0 14.23124,-5.23327 15.98732,-12.64223 l 53.339,-225.20953 c 5.6995,-24.07229 1.19662,-49.67144 -12.35861,-70.352 L 386.75729,117.75606 H 66.672782 l -35.0711,52.60471 c -13.904895,20.85152 -18.516548,46.54779 -12.743239,70.93478 l 53.338999,225.20953 c 1.75608,7.40896 8.372463,12.64223 15.987324,12.64223 z m 0,0"
     fill="#ffc269"
     id="path14"
     style="fill:#5d000c;fill-opacity:1;stroke-width:0.994595" />
  <path
     d="m 434.16757,178.92749 c -1.4103,-2.73125 -2.96435,-5.39644 -4.66216,-7.98394 L 386.75729,117.75606 H 66.672782 l -35.0711,52.60471 c -13.904895,20.8554 -18.516548,46.54779 -12.743239,70.93478 l 53.338999,225.20953 c 1.75608,7.40896 8.372463,12.64223 15.987324,12.64223 H 138.34574 L 108.69827,245.08355 c -2.17956,-17.20726 -1.99695,-34.95066 0.3652,-51.70724 0.95963,-6.81065 4.89139,-12.81317 10.73463,-16.44189 0.0272,-0.0156 0.0544,-0.031 0.0816,-0.0506 9.21165,-5.71502 15.863,-9.84881 31.02279,-9.84881 15.16757,0 21.82668,4.13379 31.03834,9.85269 10.61806,6.58919 23.83139,14.78682 48.36603,14.78682 24.52683,0 37.74018,-8.20151 48.35437,-14.7907 9.20777,-5.71502 15.86299,-9.84881 31.02279,-9.84881 15.17533,0 21.83834,4.13379 31.05776,9.85269 10.61806,6.58919 23.83528,14.78682 48.37768,14.78682 22.06367,0 34.95066,-6.62026 45.04812,-12.74712 z m 0,0"
     fill="#ffa95f"
     id="path16"
     style="fill:#420008;fill-opacity:1;stroke-width:0.994595" />
  <path
     d="M 402.84174,2.7677593 H 57.880724 c -9.071786,0 -16.426344,7.3545657 -16.426344,16.4263527 v 32.852681 c 0,9.071788 7.354558,16.426353 16.426344,16.426353 H 402.84562 c 9.07178,0 16.42635,-7.354565 16.42635,-16.426353 V 19.194112 C 419.26796,10.122325 411.9174,2.7677593 402.84174,2.7677593 Z m 0,0"
     fill="#ff8b5a"
     id="path18"
     style="fill:#d6001b;fill-opacity:1;stroke-width:0.994595" />
  <path
     d="m 456.39831,138.45605 c 4.6233,4.62332 2.20286,12.3897 -4.17652,13.84274 -24.40253,5.55962 -29.73681,22.94949 -63.10234,22.94949 -39.71772,0 -39.71772,-24.63954 -79.43544,-24.63954 -39.69053,0 -39.69053,24.63954 -79.37716,24.63954 -39.70219,0 -39.70219,-24.63954 -79.40437,-24.63954 -39.68664,0 -39.68664,24.63954 -79.377167,24.63954 -33.326676,0 -38.660964,-17.38598 -63.0324079,-22.94949 -6.375504,-1.45304 -8.79594245,-9.21553 -4.172633,-13.83885 L 34.235801,108.54441 c 4.619423,-4.61942 10.886146,-7.2147 17.42094,-7.2147 H 409.06183 c 6.5348,0 12.80152,2.59528 17.42484,7.2147 z m 0,0"
     fill="#ff8b5a"
     id="path20"
     style="fill:#d6001b;fill-opacity:1;stroke-width:0.994595" />
  <path
     d="m 300.57337,93.11655 h -18.01925 l 12.19155,26.9939 c 1.37145,3.03429 4.35524,4.83311 7.49053,4.83311 1.12281,0 2.27669,-0.2331 3.36842,-0.7304 4.13766,-1.86486 5.97533,-6.72906 4.10658,-10.86283 z m 0,0"
     fill="#ff7350"
     id="path22"
     style="fill:#bf0016;fill-opacity:1;stroke-width:0.994595" />
  <path
     d="M 158.33474,101.32971 H 51.660625 c -6.534794,0 -12.801515,2.59528 -17.424824,7.2147 L 4.3202721,138.45994 c -4.62330945,4.62332 -2.202871,12.38581 4.172633,13.83885 24.3714439,5.56351 29.7057319,22.95337 63.0362939,22.95337 35.253701,0 39.251511,-19.40625 67.508081,-23.74983 z m 0,0"
     fill="#ff7350"
     id="path24"
     style="fill:#bf0016;fill-opacity:1;stroke-width:0.994595" />
  <path
     d="m 108.97023,93.11655 -21.150666,34.74086 c -2.358277,3.87347 -1.130573,8.92803 2.75456,11.28631 1.328716,0.81588 2.805066,1.2005 4.258106,1.2005 2.773987,0 5.47804,-1.4064 7.02433,-3.9434 l 26.34898,-43.28427 z m 0,0"
     fill="#ff8b5a"
     id="path26"
     style="fill:#d6001b;fill-opacity:1;stroke-width:0.994595" />
  <path
     d="M 131.79928,27.407277 V 2.7677593 H 57.880724 c -9.071786,0 -16.426344,7.3545657 -16.426344,16.4263527 v 32.852681 c 0,9.075675 7.354558,16.426353 16.426344,16.426353 H 402.84562 c 9.07178,0 16.42635,-7.354565 16.42635,-16.426353 H 156.43879 c -13.60574,0 -24.63951,-11.029892 -24.63951,-24.639516 z m 0,0"
     fill="#ff7350"
     id="path28"
     style="fill:#bf0016;fill-opacity:1;stroke-width:0.994595" />
  <path
     d="M 394.62857,101.32971 H 66.093897 c -9.071788,0 -16.426346,-7.354549 -16.426346,-16.426336 0,-9.071787 7.354558,-16.42634 16.426346,-16.42634 H 394.63246 c 9.07178,0 16.42634,7.354553 16.42634,16.42634 -0.004,9.071787 -7.35845,16.426336 -16.43023,16.426336 z m 0,0"
     fill="#9f6e50"
     id="path30"
     style="fill:#f3b600;fill-opacity:1;stroke-width:0.994595" />
  <path
     d="M 394.62857,68.477034 H 131.79928 c -4.53396,0 -8.21318,3.675326 -8.21318,8.213163 0,4.53395 3.67922,8.213177 8.21318,8.213177 H 411.0549 c 0,-9.071787 -7.35455,-16.42634 -16.42633,-16.42634 z m 0,0"
     fill="#b57f5f"
     id="path32"
     style="fill:#f3d55b;fill-opacity:1;stroke-width:0.994595" />
  <ellipse
     style="opacity:0.923;fill:#ffffff;fill-opacity:1;stroke-width:8.50395;stroke-linecap:round;stroke-linejoin:round"
     id="path961"
     cx="83.95726"
     cy="447.89258"
     rx="14.416992"
     ry="22.004883"
     transform="rotate(-52.171322)" />
  <ellipse
     transform="rotate(-52.171322)"
     ry="14.837091"
     rx="9.7208529"
     cy="458.7175"
     cx="50.212364"
     id="path961-3"
     style="opacity:0.923;fill:#ffffff;fill-opacity:1;stroke-width:5.7339;stroke-linecap:round;stroke-linejoin:round" />
  <g
     id="g1452"
     transform="matrix(0.61981277,0,0,0.61981277,516.19445,598.10887)" />
  <g
     transform="matrix(1.0666299,0,0,1.0666299,525.7119,-148.95485)"
     id="g1856">
    <path
       style="fill:#d6001b;fill-opacity:1;stroke-width:0.619813"
       id="path1548"
       fill="#cc4b4c"
       d="m -299.56298,339.04768 c 9.89279,8.00672 12.16867,20.72499 11.85634,31.75572 -0.24696,6.68962 -4.55901,12.54394 -10.87335,14.76171 -34.62236,12.59963 -59.0517,43.33605 -59.0517,79.21497 0,47.22441 42.21022,85.41795 94.21154,85.41795 52.00133,0 94.21154,-38.19354 94.21154,-85.41795 0,-35.87892 -24.41481,-66.61534 -59.03716,-79.21497 -6.31435,-2.21777 -10.62883,-8.07452 -10.87336,-14.76171 -0.31475,-11.03073 1.96112,-23.749 11.85392,-31.75572 l 0.0799,-0.0387 -0.0799,0.0387 c -1.21542,0.43096 -18.41037,6.35792 -25.9474,15.54374 -0.47938,0.64886 -1.29047,0.96361 -2.08218,0.80382 -0.79172,-0.1598 -1.41879,-0.76508 -1.60764,-1.54953 -0.6077,-2.99254 -1.62701,-5.8858 -3.02643,-8.59749 -0.69003,-1.28562 -2.03134,-2.08702 -3.48886,-2.08702 -1.45996,0 -2.80127,0.8014 -3.4913,2.08702 -1.39942,2.71169 -2.4163,5.60495 -3.02643,8.59749 -0.18885,0.78445 -0.81592,1.38973 -1.60521,1.54953 -0.79172,0.15979 -1.60522,-0.15496 -2.08461,-0.80382 -7.53702,-9.18582 -24.72956,-15.11278 -25.94497,-15.54374 l -0.0799,-0.0387 z m 0,0" />
    <path
       style="fill:#fe3b00;fill-opacity:1;stroke-width:0.619813"
       id="path1550"
       fill="#f5efca"
       d="m -263.42015,542.34868 c -47.62147,0 -86.35977,-34.79667 -86.35977,-77.5686 0,-31.72908 21.14627,-59.93056 53.87287,-71.83775 9.3674,-3.30002 15.73985,-12.02582 16.03523,-21.95493 0.14285,-4.17889 -0.12106,-8.36263 -0.78445,-12.49068 0.3438,0.35833 0.67066,0.71908 0.96604,1.07499 1.9127,2.33883 4.77449,3.69709 7.79608,3.69951 3.47434,0.029 6.70172,-1.79407 8.474,-4.78176 1.7747,2.98769 5.00208,4.80839 8.47642,4.78176 3.00949,-0.002 5.86159,-1.351 7.77672,-3.6753 0.30264,-0.36801 0.63434,-0.73845 0.99267,-1.10404 -0.66582,4.14258 -0.92972,8.336 -0.78687,12.527 0.30506,9.9049 6.66298,18.60649 16.00618,21.90892 32.76049,11.92656 53.89708,40.12078 53.89708,71.85228 -0.002,42.77193 -38.73104,77.5686 -86.3622,77.5686 z m 0,0" />
    <g
       id="g1831"
       transform="matrix(0.86952729,0,0,0.86952729,158.21999,38.315493)">
      <path
         style="fill:#ffc2aa;fill-opacity:1;stroke:#ffc2aa;stroke-width:0.602137px;stroke-linecap:butt;stroke-linejoin:miter;stroke-opacity:1"
         d="m -487.55682,407.20655 c -40.02574,0.77578 -84.39685,37.71345 -82.38647,85.4954 1.59816,37.98477 40.99421,83.20889 81.99788,79.27753 41.1616,3.32784 83.96758,-26.09809 85.49533,-80.832 1.19584,-42.84377 -33.30657,-84.94492 -85.10674,-83.94093 z"
         id="path1680"
         sodipodi:nodetypes="sscss" />
      <path
         style="fill:#fe3b00;fill-opacity:1;stroke:#fe3b00;stroke-width:0.602137px;stroke-linecap:butt;stroke-linejoin:miter;stroke-opacity:1"
         d="m -492.19755,420.03755 c -35.16674,0.15521 -64.97719,38.34794 -64.89514,70.21934 0.082,31.86616 30.99156,70.21264 65.24507,69.87284 0.57464,-37.09684 1.03323,-93.1058 -0.34993,-140.09218 z"
         id="path1682"
         sodipodi:nodetypes="cacc" />
      <path
         sodipodi:nodetypes="cacc"
         id="path1684"
         d="m -478.71171,420.32833 c 35.16675,0.15521 64.97716,38.34794 64.89519,70.21934 -0.082,31.86617 -30.99157,70.21265 -65.24512,69.87285 -0.57464,-37.09685 -1.03323,-93.10581 0.34993,-140.09219 z"
         style="fill:#fe3b00;fill-opacity:1;stroke:#fe3b00;stroke-width:0.602137px;stroke-linecap:butt;stroke-linejoin:miter;stroke-opacity:1" />
      <path
         style="fill:#d6001b;fill-opacity:1;stroke:#d6001b;stroke-width:0.602137px;stroke-linecap:butt;stroke-linejoin:miter;stroke-opacity:1"
         d="m -543.15924,460.48003 c -8.12585,-1.25506 -16.30816,4.61493 -17.02642,13.11663 -0.49081,5.80963 5.19401,12.84617 10.97259,13.62114 6.68448,0.89645 15.26327,-4.32402 16.39579,-11.85543 0.89831,-5.97381 -4.14662,-13.92545 -10.34196,-14.88234 z"
         id="path1686"
         sodipodi:nodetypes="ssass" />
      <path
         style="fill:#d6001b;fill-opacity:1;stroke:#d6001b;stroke-width:0.602137px;stroke-linecap:butt;stroke-linejoin:miter;stroke-opacity:1"
         d="m -493.14402,507.0401 c -7.95969,-6.30431 -22.28322,-4.28334 -28.12779,4.28855 -4.66191,6.83732 -3.9979,19.31935 2.27042,24.72218 7.33654,6.32356 22.76588,5.76394 29.0107,-1.63974 6.57669,-7.79711 4.73418,-21.12384 -3.15333,-27.37099 z"
         id="path1688"
         sodipodi:nodetypes="ssass" />
      <path
         style="fill:#d6001b;fill-opacity:1;stroke:#d6001b;stroke-width:0.602137px;stroke-linecap:butt;stroke-linejoin:miter;stroke-opacity:1"
         d="m -477.75573,477.77712 c -7.63262,8.18013 -6.22879,22.98004 1.13521,29.51525 7.41411,6.5797 23.43573,5.33336 29.64136,-2.39653 6.35054,-7.91023 5.57612,-23.21451 -4.16238,-30.14594 -7.27415,-5.17744 -20.52296,-3.50095 -26.61419,3.02722 z"
         id="path1690"
         sodipodi:nodetypes="saass" />
      <path
         style="fill:#d6001b;fill-opacity:1;stroke:#d6001b;stroke-width:0.602137px;stroke-linecap:butt;stroke-linejoin:miter;stroke-opacity:1"
         d="m -445.46554,526.33854 c 9.51081,6.41227 22.05327,2.477 27.62328,-5.04534 6.36428,-8.59495 3.61451,-21.88871 -3.82012,-27.27371 -7.7398,-5.60604 -22.58131,-3.85108 -28.2178,5.07419 -5.11994,8.10736 -4.19594,21.43953 4.41464,27.24486 z"
         id="path1692"
         sodipodi:nodetypes="ssass" />
      <path
         style="fill:#d6001b;fill-opacity:1;stroke:#d6001b;stroke-width:0.602137px;stroke-linecap:butt;stroke-linejoin:miter;stroke-opacity:1"
         d="m -508.82581,437.80554 c -5.41336,6.18156 -3.48083,15.42507 1.55816,19.63301 4.98834,4.16564 15.22357,3.03223 19.39926,-1.94772 3.99923,-4.76949 3.261,-14.49764 -1.40232,-18.62019 -4.8892,-4.32226 -15.2558,-3.97451 -19.5551,0.9349 z"
         id="path1694"
         sodipodi:nodetypes="saaas" />
      <path
         style="fill:#d6001b;fill-opacity:1;stroke:#d6001b;stroke-width:0.602137px;stroke-linecap:butt;stroke-linejoin:miter;stroke-opacity:1"
         d="m -453.17107,434.4699 c -4.6595,4.44738 -5.29223,14.68385 -0.80703,19.30695 4.72005,4.86514 15.60389,4.62138 20.33421,-0.23374 4.41568,-4.53216 4.22003,-14.52841 -0.27602,-18.98086 -4.55963,-4.51544 -14.60915,-4.52307 -19.25116,-0.0924 z"
         id="path1696"
         sodipodi:nodetypes="aaaaa" />
      <path
         style="fill:#fe3b00;fill-opacity:1;stroke:#fe3b00;stroke-width:0.602137px;stroke-linecap:butt;stroke-linejoin:miter;stroke-opacity:1"
         d="m -444.70694,436.32527 c -1.87561,2.08733 -0.39259,6.31935 1.63614,8.25833 1.87979,1.79668 5.89051,3.02351 7.7129,1.16863 2.06759,-2.10442 0.68677,-6.7239 -1.48021,-8.72578 -1.93423,-1.7869 -6.10865,-2.65987 -7.86883,-0.70118 z"
         id="path1698"
         sodipodi:nodetypes="aaaaa" />
      <path
         style="fill:#ea1e0e;fill-opacity:1;stroke:#fe3b00;stroke-width:0.602137px;stroke-linecap:butt;stroke-linejoin:miter;stroke-opacity:1"
         d="m -460.02043,480.24749 c -2.02471,2.38973 -0.25763,7.29019 2.19388,9.13665 2.28394,1.72029 6.89808,2.38685 8.57773,0.0728 1.7869,-2.46192 -0.49656,-6.79005 -2.90175,-8.65262 -2.07929,-1.61018 -6.16982,-2.56334 -7.86986,-0.55684 z"
         id="path1700"
         sodipodi:nodetypes="asaaaa" />
      <path
         style="fill:#ea1e0e;fill-opacity:1;stroke:#ea1e0e;stroke-width:0.602137px;stroke-linecap:butt;stroke-linejoin:miter;stroke-opacity:1"
         d="m -437.01458,497.20168 c -2.64691,2.86452 -0.66018,8.90467 2.27038,11.47816 2.40631,2.113 7.47045,3.03445 9.58621,0.63068 2.4625,-2.79769 0.59017,-8.44107 -2.14426,-10.97363 -2.39137,-2.21484 -7.50023,-3.52914 -9.71233,-1.13521 z"
         id="path1702"
         sodipodi:nodetypes="aaaaa" />
      <path
         style="fill:#fe3b00;fill-opacity:1;stroke:#fe3b00;stroke-width:0.602137px;stroke-linecap:butt;stroke-linejoin:miter;stroke-opacity:1"
         d="m -499.78844,439.51953 c -2.18088,2.01835 -1.08344,6.80008 1.06737,8.85043 1.92795,1.83793 6.12209,2.49485 7.97007,0.57653 1.81258,-1.88157 0.90754,-5.86414 -0.85697,-7.79087 -1.87811,-2.05078 -6.13954,-3.5249 -8.18047,-1.63609 z"
         id="path1704"
         sodipodi:nodetypes="aaaaa" />
      <path
         style="fill:#fe3b00;fill-opacity:1;stroke:#fe3b00;stroke-width:0.602137px;stroke-linecap:butt;stroke-linejoin:miter;stroke-opacity:1"
         d="m -545.42942,465.65101 c -2.03397,2.23062 -0.27632,6.8666 2.01795,8.82851 1.85755,1.58848 5.71201,2.34952 7.31501,0.50448 1.86028,-2.14116 0.31514,-6.39651 -1.7657,-8.32401 -1.86688,-1.72931 -5.85265,-2.88937 -7.56726,-1.00898 z"
         id="path1706"
         sodipodi:nodetypes="aaaaa" />
      <path
         style="fill:#ea1e0e;fill-opacity:1;stroke:#ea1e0e;stroke-width:0.602137px;stroke-linecap:butt;stroke-linejoin:miter;stroke-opacity:1"
         d="m -507.90164,523.1852 c -2.54729,-2.67552 -8.24845,-4.89565 -10.84752,-2.27041 -2.7561,2.78384 -0.38609,8.85429 2.52272,11.47817 2.48231,2.23915 7.653,3.55025 9.96454,1.1352 2.41366,-2.52176 0.76723,-7.81482 -1.63974,-10.34296 z"
         id="path1708"
         sodipodi:nodetypes="aaaaa" />
      <path
         sodipodi:nodetypes="aaaaa"
         id="path1710"
         d="m -532.93915,450.33604 c -2.74099,2.40867 -1.28255,8.14058 1.11686,10.88968 2.07818,2.38106 6.80709,4.28152 9.21438,2.23379 2.77305,-2.35888 1.53054,-8.12461 -0.83768,-10.88969 -2.11472,-2.46911 -7.05153,-4.37973 -9.49356,-2.23378 z"
         style="fill:#ff6e31;fill-opacity:1;stroke:#ff6e31;stroke-width:0.523708px;stroke-linecap:butt;stroke-linejoin:miter;stroke-opacity:1" />
      <path
         style="fill:#ff6e31;fill-opacity:1;stroke:#ff6e31;stroke-width:0.334685px;stroke-linecap:butt;stroke-linejoin:miter;stroke-opacity:1"
         d="m -525.31342,492.72778 c -1.75168,1.5393 -0.81964,5.20239 0.71375,6.95925 1.3281,1.52166 4.3502,2.73619 5.88862,1.42754 1.77216,-1.50748 0.97812,-5.19218 -0.53534,-6.95925 -1.35145,-1.57793 -4.50641,-2.79895 -6.06703,-1.42754 z"
         id="path1712"
         sodipodi:nodetypes="aaaaa" />
      <path
         sodipodi:nodetypes="aaaaa"
         id="path1714"
         d="m -544.09063,508.38147 c -3.07077,2.69846 -1.43686,9.11998 1.25123,12.19983 2.32821,2.66752 7.62606,4.79663 10.32297,2.50252 3.10667,-2.64267 1.71468,-9.10207 -0.93846,-12.19982 -2.36915,-2.76618 -7.89991,-4.90666 -10.63574,-2.50253 z"
         style="fill:#ff6e31;fill-opacity:1;stroke:#ff6e31;stroke-width:0.586715px;stroke-linecap:butt;stroke-linejoin:miter;stroke-opacity:1" />
      <path
         style="fill:#ff6e31;fill-opacity:1;stroke:#ff6e31;stroke-width:0.586715px;stroke-linecap:butt;stroke-linejoin:miter;stroke-opacity:1"
         d="m -438.22559,470.78468 c -3.07077,2.69846 -1.43686,9.11998 1.25123,12.19983 2.32821,2.66752 7.62606,4.79663 10.32298,2.50252 3.10666,-2.64267 1.71467,-9.10208 -0.93847,-12.19982 -2.36915,-2.76618 -7.89991,-4.90666 -10.63574,-2.50253 z"
         id="path1716"
         sodipodi:nodetypes="aaaaa" />
      <path
         sodipodi:nodetypes="aaaaa"
         id="path1718"
         d="m -466.0925,526.18303 c -2.12956,1.87136 -0.99645,6.32464 0.86772,8.46049 1.6146,1.84991 5.28862,3.32644 7.15891,1.73549 2.15446,-1.83267 1.18912,-6.31223 -0.65081,-8.46049 -1.64299,-1.91833 -5.47854,-3.40274 -7.37582,-1.73549 z"
         style="fill:#ff6e31;fill-opacity:1;stroke:#ff6e31;stroke-width:0.406882px;stroke-linecap:butt;stroke-linejoin:miter;stroke-opacity:1" />
    </g>
  </g>
</svg>
