<svg width="512" height="512" version="1.1" xmlns="http://www.w3.org/2000/svg"><g><title>background</title><rect id="canvas_background" x="-1" y="-1" width="514" height="514" fill="none"/><g id="canvasGrid" x="0" y="0" width="100%" height="100%" display="none" overflow="visible"><rect width="100%" height="100%" fill="url(#gridpattern)" stroke-width="0"/></g></g><g><title>Layer 1</title><g stroke="null"><g transform="matrix(12.6 0 0 12.6 -8.86 -21.3)" fill="none" stroke="null"><path d="m38.5 29.5-0.22 1.08c-1.29 6.56-7.04 11.3-13.7 11.3h-7c-6.7 0.0157-12.5-4.72-13.8-11.3l-0.22-1.08h34.9z" fill="#805333"/><path d="m1 18.8v4.62c0 6.81 9 12.4 20 12.4s20-5.52 20-12.3v-4.67h-40z" fill="#cb8252"/><path d="m16.2 7.21c-8.69 1.29-15.2 6.01-15.2 11.6 0 6.66 9 12.1 20 12.1 9.32 0 17.2-3.84 19.4-9 2.36-5.53-2-10.4-7.76-12.8l-16.4-1.88z" fill="#cf976a"/><path d="m36.5 20.8c-1.78 3.45-8 6-15.5 6s-13.7-2.55-15.5-6c-0.117-0.233-0.217-0.473-0.3-0.72 2.78-1.74 7.09-5 7.8-8.2 1-4.46 8.86-9.57 13-9 4.84 0.63 7.38 7.86 9.91 13.1 0.15 0.31 0.88 1.79 1 1.86 0.243 1.02 0.0968 2.09-0.41 3z" fill="#e2832f"/><path d="m13 11.9c-0.72 3.2-5 6.47-7.8 8.2-1.27-4.11 3.6-7 7.8-8.2z" fill="#805333"/><g fill="#f29c1f"><circle id="Oval" cx="20" cy="11.8" r="1"/><circle cx="28" cy="16.8" r="1"/><circle cx="22" cy="21.8" r="1"/><circle cx="14" cy="20.8" r="1"/><circle cx="26" cy="8.85" r="1"/></g></g></g></g></svg>
