<svg width="512" height="512" version="1.1" xmlns="http://www.w3.org/2000/svg"><g><title>background</title><rect id="canvas_background" x="-1" y="-1" width="514" height="514" fill="none"/></g><g><title>Layer 1</title><g stroke="null"><path d="m477 248-24.1 4.83c-8.03 1.61-16.1-2.57-19.4-10.1l-25.9-58.2c-2.19-4.92-6.52-8.57-11.7-9.87l-13.5-3.37c-7.79-1.95-13.3-8.95-13.3-17v-93.3c0-4.36-1.63-8.57-4.57-11.8l-32.5-35.7c-29.3-9.28-60.9-13.4-93.8-11.3-126 8.32-229 111-236 237-8.99 147 108 270 253 270 139 0 251-111 254-249l-20.8-10.4c-3.48-1.74-7.44-2.27-11.3-1.51z" fill="#FFE6A1"/><g transform="matrix(.991 0 0 .991 -1954 -1919)" fill="#FFD796"><path d="m2308 2370c-1.55 0-3.08-0.089-4.63-0.117-9.7 10.9-23.8 17.8-39.5 17.8-23.2 0-42.8-14.9-50-35.6-31.7-12.5-60.3-31.2-84.3-54.5-3.63 1.1-7.41 1.86-11.4 1.86-21.9 0-39.7-17.8-39.7-39.7 0-7.66 2.27-14.8 6.03-20.8-0.269-0.481-0.556-0.948-0.823-1.43-27.6-1.87-49.3-24.8-49.3-52.8 0-16.5 7.57-31.3 19.4-41-1.12-9.73-1.76-19.6-1.76-29.6 0-50.3 14.6-97.3 39.7-137-71.6 45.4-119 125-119 216 0 141 115 256 256 256 91 0 171-47.6 216-119-39.6 25.1-86.5 39.7-137 39.7z"/><circle cx="2171" cy="2127" r="22.1"/><circle cx="2405" cy="2273" r="22.1"/><circle cx="2204" cy="2280" r="15.4"/><circle cx="2324" cy="2138" r="15.4"/><circle cx="2262" cy="2e3" r="15.4"/></g><g transform="matrix(.991 0 0 .991 -1954 -1919)" fill="#9bda05"><g stroke="null"><path d="m2216 2165-10.2 17c-6.1 10.2-0.644 23.3 10.9 26.2l30.4 7.59c9.46 2.36 19-3.39 21.4-12.8l3.48-13.9c0.703-2.81 0.703-5.75 0-8.56l-3.67-14.7c-2.28-9.14-11.3-14.9-20.6-13l-20 3.99c-4.88 0.977-9.12 3.96-11.7 8.23z"/><path d="m2267 2274-10.6 17.7c-5.29 8.82-1.96 20.3 7.24 24.9l33.9 16.9c10.1 5.05 22.3-0.552 25-11.5l7.57-30.3c2.54-10.2-4.27-20.3-14.6-21.8l-30.8-4.4c-7.03-1-14 2.3-17.6 8.4z"/><path d="m2081 2169-13 21.6c-4.17 6.95-3.07 15.8 2.66 21.6l20.4 20.4c7.44 7.44 19.7 6.76 26.3-1.46l17.5-21.9c3.44-4.3 4.68-9.96 3.34-15.3l-4-16c-1.66-6.62-6.98-11.7-13.7-13l-21-4.2c-7.32-1.46-14.8 1.83-18.6 8.23z"/></g><path d="m2153 2026-10 16.7c-5.81 9.68-1.16 22.3 9.56 25.8l21.7 7.24c6.34 2.11 13.3 0.463 18.1-4.26l11.7-11.7c4.38-4.38 6.15-10.8 4.64-16.8l-3.06-12.2c-1.96-7.86-9.03-13.4-17.1-13.4h-20.4c-6.2 1e-3 -11.9 3.26-15.1 8.57z" stroke="#B97850"/><g stroke="null"><path d="m2366 2162-10.2 10.2c-6.89 6.89-6.89 18.1 0 25l5 5c5.37 5.37 13.6 6.71 20.4 3.31l28.9-14.5c7.4-3.7 11.2-12 9.23-20.1l-1.31-5.24c-2.28-9.14-11.3-14.9-20.6-13l-22.4 4.48c-3.42 0.682-6.56 2.36-9.02 4.83z"/><path d="m2300 2036-11.7 15.6c-4.31 5.74-4.71 13.5-1.02 19.7l10.8 18.1c5.19 8.64 16.5 11.2 24.9 5.61l22-14.7c8.43-5.62 10.4-17.2 4.33-25.3l-12-16c-2.16-2.87-5.13-5.02-8.54-6.16l-9.18-3.06c-7.21-2.4-15.1 0.075-19.7 6.16z"/><path d="m2149 2315-11.5 14.4c-7.4 9.25-3.77 23 7.23 27.4l15.5 6.19c4.21 1.68 8.9 1.68 13.1 0l17.4-6.95c10.4-4.16 14.4-16.9 8.13-26.2l-2.98-4.48c-1.7-2.56-4.05-4.62-6.79-6l-18.4-9.18c-7.45-3.72-16.5-1.74-21.7 4.76z"/></g></g><g transform="matrix(.991 0 0 .991 -1954 -1919)" fill="#59b154"><path d="m2113 2231-20.4-20.4c-5.73-5.73-6.82-14.6-2.66-21.6l13-21.6c1.11-1.85 2.57-3.34 4.19-4.63l-7.5-1.5c-7.32-1.46-14.8 1.83-18.6 8.23l-13 21.6c-4.17 6.95-3.07 15.8 2.66 21.6l20.4 20.4c6.9 6.9 17.9 6.73 24.7 0.139-0.976-0.647-1.92-1.37-2.78-2.24z"/><path d="m2192 2069-21.7-7.24c-10.7-3.57-15.4-16.1-9.56-25.8l10-16.7c0.509-0.85 1.18-1.55 1.81-2.29h-4.36c-6.2 0-11.9 3.25-15.1 8.57l-10 16.7c-5.81 9.68-1.16 22.3 9.56 25.8l21.7 7.24c6.34 2.11 13.3 0.463 18.1-4.26l1.64-1.64c-0.676-0.14-1.36-0.153-2.03-0.375z"/><path d="m2264 2211-30.4-7.59c-11.5-2.88-17-16-10.9-26.2l10.2-17c1.22-2.02 2.83-3.73 4.69-5.1l-9.76 1.95c-4.88 0.975-9.12 3.96-11.7 8.23l-10.2 17c-6.1 10.2-0.644 23.3 10.9 26.2l30.4 7.59c6.4 1.6 12.8-0.572 17-5.04-0.096-0.024-0.191-0.019-0.287-0.043z"/><path d="m2315 2088-10.8-18.1c-3.69-6.16-3.29-13.9 1.02-19.7l11.7-15.6c1.28-1.71 2.88-3.06 4.61-4.17l-1.39-0.463c-7.21-2.4-15.1 0.077-19.7 6.16l-11.7 15.6c-4.31 5.74-4.71 13.5-1.02 19.7l10.8 18.1c5.17 8.62 16.5 11.2 24.8 5.65-3.36-1.4-6.33-3.81-8.35-7.18z"/><path d="m2375 2201c-6.9-6.9-6.9-18.1 0-25l10.2-10.2c2.46-2.46 5.6-4.14 9.02-4.83l18.8-3.77c-4.03-3.83-9.79-5.7-15.6-4.54l-22.4 4.48c-3.42 0.684-6.56 2.36-9.02 4.83l-10.2 10.2c-6.89 6.9-6.89 18.1 0 25l5 5c5.04 5.04 12.5 6.36 19.1 3.72l-4.9-4.9z"/><path d="m2285 2315c-9.2-4.6-12.5-16.1-7.24-24.9l10.6-17.7c1.4-2.32 3.37-4.09 5.54-5.52l-9.78-1.4c-7.03-1-14 2.3-17.6 8.39l-10.6 17.7c-5.29 8.82-1.96 20.3 7.24 24.9l33.9 16.9c6.75 3.38 14.4 1.92 19.5-2.64l-31.6-15.8z"/><path d="m2178 2360-15.5-6.19c-11-4.4-14.6-18.2-7.23-27.4l11.5-14.4c0.732-0.915 1.55-1.72 2.42-2.45-7.11-2.72-15.2-0.647-20.1 5.4l-11.5 14.4c-7.4 9.25-3.77 23 7.23 27.4l15.5 6.19c4.21 1.68 8.9 1.68 13.1 0l6.18-2.47c-0.547-0.159-1.1-0.267-1.64-0.48z"/></g><path d="m71.8 361c-1.31 0-2.65-0.298-3.91-0.923-4.32-2.16-6.08-7.42-3.91-11.7l8.75-17.5c2.16-4.32 7.41-6.06 11.7-3.91 4.32 2.16 6.08 7.42 3.91 11.7l-8.75 17.5c-1.53 3.07-4.62 4.84-7.84 4.84z" fill="#C98850"/><path d="m229 474h-8.75c-4.83 0-8.75-3.91-8.75-8.75 0-4.84 3.92-8.75 8.75-8.75h8.75c4.83 0 8.75 3.91 8.75 8.75s-3.92 8.75-8.75 8.75z" fill="#925F4A"/><path d="m194 308c-1.31 0-2.65-0.298-3.91-0.923-4.32-2.16-6.08-7.42-3.91-11.7l8.75-17.5c2.16-4.32 7.4-6.06 11.7-3.91 4.32 2.16 6.08 7.42 3.91 11.7l-8.75 17.5c-1.53 3.07-4.62 4.84-7.84 4.84z" fill="#C98850"/><g transform="matrix(.991 0 0 .991 -1954 -1919)" fill="#925F4A"><path d="m2114 2105c-1.32 0-2.67-0.301-3.94-0.931l-17.7-8.83c-4.36-2.18-6.13-7.48-3.95-11.8 2.18-4.35 7.47-6.12 11.8-3.95l17.7 8.83c4.36 2.18 6.13 7.48 3.95 11.8-1.55 3.1-4.66 4.88-7.9 4.88z"/><path d="m2220 1982h-17.7c-4.88 0-8.83-3.95-8.83-8.83s3.95-8.83 8.83-8.83h17.7c4.88 0 8.83 3.95 8.83 8.83s-3.95 8.83-8.83 8.83z"/></g><path d="m282 177c-3.21 0-6.3-1.77-7.84-4.84l-8.75-17.5c-2.16-4.32-0.41-9.58 3.91-11.7 4.33-2.15 9.59-0.402 11.7 3.91l8.75 17.5c2.16 4.32 0.41 9.58-3.91 11.7-1.26 0.625-2.59 0.923-3.91 0.923z" fill="#C98850"/><g transform="matrix(.991 0 0 .991 -1954 -1919)" fill="#925F4A"><path d="m2013 2157c-1.19-0.585-2.26-1.45-3.12-2.58-2.95-3.88-2.19-9.42 1.69-12.4l15.7-11.9c3.88-2.95 9.41-2.18 12.4 1.69 2.95 3.88 2.19 9.42-1.69 12.4l-15.7 11.9c-2.76 2.09-6.34 2.32-9.25 0.884z"/><path d="m2343 2255c-2.26 0-4.52-0.862-6.24-2.59l-17.7-17.7c-3.45-3.45-3.45-9.04 0-12.5s9.04-3.45 12.5 0l17.7 17.7c3.45 3.45 3.45 9.04 0 12.5-1.72 1.72-3.98 2.59-6.24 2.59z"/></g><path d="m387 404c-2.24 0-4.48-0.855-6.19-2.56-3.42-3.42-3.42-8.96 0-12.4l8.75-8.75c3.42-3.42 8.96-3.42 12.4 0s3.42 8.96 0 12.4l-8.75 8.75c-1.71 1.71-3.95 2.56-6.19 2.56z" fill="#C98850"/><g transform="matrix(.991 0 0 .991 -1954 -1919)" fill="#FFE6A1"><path d="m2379 1973v22.3c0 6.25 6.31 10.5 12.1 8.2l26.5-10.6c3.35-1.34 5.55-4.59 5.55-8.2v-11.7c0-4.88-3.95-8.83-8.83-8.83h-26.5c-4.87 0-8.83 3.95-8.83 8.83z"/><path d="m2398 2043-5.63 39.4c-1.32 9.28 4.83 18 14 19.8l16.2 3.23c7.02 1.4 14.2-1.57 18.2-7.52l6.08-9.12c3.15-4.72 3.84-10.7 1.84-16l-18.4-49.1c-2.29-6.11-10.1-7.8-14.7-3.19l-12.5 12.5c-2.7 2.7-4.45 6.21-5 9.99z"/></g><g transform="matrix(.991 0 0 .991 -1954 -1919)" fill="#FFD796"><path d="m2442 2089-16.2-3.23c-9.19-1.84-15.3-10.5-14-19.8l5.63-39.4c0.503-3.52 2.14-6.73 4.53-9.34-2.4-0.121-4.86 0.65-6.77 2.56l-12.5 12.5c-2.7 2.7-4.45 6.21-4.99 9.99l-5.63 39.4c-1.32 9.28 4.83 18 14 19.8l16.2 3.23c7.02 1.4 14.2-1.57 18.2-7.52l5.32-7.98c-1.25 0.025-2.5 0.072-3.77-0.181z"/><path d="m2408 1986c-5.8 2.32-12.1-1.95-12.1-8.2v-13.4h-8.83c-4.88 0-8.83 3.95-8.83 8.83v22.3c0 6.25 6.31 10.5 12.1 8.2l26.5-10.6c3.35-1.34 5.55-4.59 5.55-8.2v-4.62l-14.4 5.75z"/><path d="m2445 2130-5.22 10.4c-1.24 2.48-1.24 5.41 0 7.9l2.38 4.76c2.38 4.75 8.37 6.34 12.8 3.4l14.2-9.49c2.46-1.64 3.93-4.39 3.93-7.34v-9.51c0-6.02-5.9-10.3-11.6-8.37l-11.4 3.8c-2.22 0.739-4.06 2.33-5.1 4.43z"/></g></g></g></svg>
