<svg width="512" height="512" xmlns="http://www.w3.org/2000/svg">
 <g>
  <title>background</title>
  <rect x="-1" y="-1" width="514" height="514" id="canvas_background" fill="none"/>
 </g>

 <g>
  <title>Layer 1</title>
  <g id="svg_1"/>
  <g stroke="null" id="svg_66">
   <path stroke="null" id="svg_6" fill="#FFE6A1" d="m477.324316,247.924774l-24.133128,4.826427c-8.030826,1.606165 -16.102302,-2.570856 -19.42865,-10.055387l-25.850337,-58.164993c-2.188152,-4.924582 -6.522815,-8.565223 -11.749793,-9.872959l-13.467001,-3.366007c-7.792876,-1.948219 -13.258795,-8.948918 -13.258795,-16.981727l0,-93.33208c0,-4.361433 -1.628969,-8.566214 -4.566665,-11.790442l-32.51394,-35.67868c-29.314498,-9.28304 -60.914312,-13.424369 -93.767331,-11.261003c-126.26739,8.318349 -228.555328,111.033607 -236.259963,237.338672c-8.989568,147.388462 107.881755,269.726696 253.327947,269.726696c138.728059,0 251.388652,-111.316173 253.704702,-249.491989l-20.775053,-10.387527c-3.482008,-1.741995 -7.444873,-2.272426 -11.261994,-1.509002z"/>
   <g stroke="null" transform="matrix(0.9914600111441948,0,0,0.9914600111441948,-1953.9238200100122,-1919.3875976008408) " id="svg_7">
    <path stroke="null" id="svg_8" fill="#FFD796" d="m2308.060778,2370.171698c-1.554,0 -3.085,-0.089 -4.632,-0.117c-9.7,10.881 -23.782,17.772 -39.506,17.772c-23.16,0 -42.796,-14.89 -49.993,-35.598c-31.679,-12.537 -60.253,-31.189 -84.267,-54.537c-3.633,1.095 -7.406,1.859 -11.396,1.859c-21.939,0 -39.724,-17.785 -39.724,-39.724c0,-7.662 2.272,-14.753 6.03,-20.821c-0.269,-0.481 -0.556,-0.948 -0.823,-1.431c-27.555,-1.868 -49.344,-24.753 -49.344,-52.782c0,-16.519 7.566,-31.264 19.417,-40.978c-1.123,-9.731 -1.762,-19.609 -1.762,-29.643c0,-50.349 14.594,-97.262 39.697,-136.854c-71.586,45.388 -119.145,125.267 -119.145,216.303c0,141.385 114.615,256 256,256c91.036,0 170.914,-47.559 216.303,-119.145c-39.592,25.103 -86.505,39.696 -136.855,39.696z"/>
    <circle stroke="null" id="svg_11" fill="#FFD796" r="22.069" cy="2127.413698" cx="2171.233778"/>
    <circle stroke="null" id="svg_12" fill="#FFD796" r="22.069" cy="2273.068698" cx="2405.164778"/>
    <circle stroke="null" id="svg_13" fill="#FFD796" r="15.448" cy="2279.689698" cx="2204.336778"/>
    <circle stroke="null" id="svg_14" fill="#FFD796" r="15.448" cy="2138.447698" cx="2323.509778"/>
    <circle stroke="null" id="svg_16" fill="#FFD796" r="15.448" cy="2001.620698" cx="2261.716778"/>
   </g>
   <g stroke="null" transform="matrix(0.9914600111441948,0,0,0.9914600111441948,-1953.9238200100122,-1919.3875976008408) " id="svg_17">
    <path stroke="null" id="svg_18" fill="#9bda05" d="m2215.766778,2165.006698l-10.205,17.009c-6.1,10.166 -0.644,23.336 10.857,26.211l30.376,7.594c9.46,2.365 19.046,-3.386 21.41,-12.846l3.475,-13.9c0.703,-2.812 0.703,-5.752 0,-8.564l-3.674,-14.697c-2.285,-9.143 -11.349,-14.879 -20.59,-13.031l-19.972,3.994c-4.878,0.977 -9.117,3.965 -11.677,8.23z"/>
    <path stroke="null" id="svg_19" fill="#9bda05" d="m2266.719778,2274.293698l-10.643,17.738c-5.291,8.819 -1.955,20.276 7.243,24.875l33.882,16.941c10.102,5.052 22.284,-0.552 25.024,-11.509l3.49,-13.96l4.079,-16.319c2.539,-10.156 -4.267,-20.279 -14.632,-21.76l-30.809,-4.402c-7.03,-1.004 -13.98,2.305 -17.634,8.396z"/>
    <path stroke="null" id="svg_20" fill="#9bda05" d="m2080.970778,2168.978698l-12.989,21.649c-4.168,6.947 -3.073,15.839 2.655,21.568l20.442,20.443c7.441,7.441 19.697,6.762 26.271,-1.455l17.525,-21.907c3.442,-4.302 4.678,-9.965 3.341,-15.311l-3.997,-15.988c-1.655,-6.62 -6.975,-11.692 -13.665,-13.031l-20.982,-4.196c-7.316,-1.464 -14.762,1.83 -18.601,8.228z"/>
    <path stroke="#B97850" id="svg_21" fill="#9bda05" d="m2152.848778,2025.639698l-10.016,16.694c-5.811,9.685 -1.159,22.261 9.556,25.833l21.735,7.245c6.344,2.114 13.338,0.463 18.067,-4.265l11.699,-11.699c4.385,-4.385 6.148,-10.75 4.644,-16.766l-3.06,-12.239c-1.965,-7.861 -9.027,-13.375 -17.129,-13.375l-20.358,0c-6.2,0.001 -11.947,3.255 -15.138,8.572z"/>
    <path stroke="null" id="svg_22" fill="#9bda05" d="m2366.073778,2162.090698l-10.219,10.219c-6.894,6.894 -6.894,18.073 0,24.968l5.001,5.001c5.374,5.374 13.582,6.706 20.38,3.307l28.917,-14.458c7.401,-3.701 11.24,-12.045 9.233,-20.073l-1.31,-5.239c-2.285,-9.143 -11.349,-14.879 -20.59,-13.031l-22.389,4.478c-3.419,0.682 -6.558,2.363 -9.023,4.828z"/>
    <path stroke="null" id="svg_23" fill="#9bda05" d="m2300.426778,2036.076698l-11.725,15.634c-4.307,5.742 -4.708,13.522 -1.015,19.677l10.849,18.081c5.186,8.644 16.545,11.198 24.932,5.607l22.03,-14.687c8.434,-5.622 10.412,-17.175 4.331,-25.283l-11.976,-15.968c-2.155,-2.873 -5.134,-5.021 -8.541,-6.156l-9.178,-3.06c-7.21,-2.405 -15.148,0.075 -19.707,6.155z"/>
    <path stroke="null" id="svg_24" fill="#9bda05" d="m2149.346778,2315.005698l-11.528,14.41c-7.401,9.251 -3.77,23.021 7.23,27.422l15.485,6.194c4.21,1.684 8.905,1.684 13.114,0l17.378,-6.952c10.412,-4.164 14.354,-16.855 8.134,-26.186l-2.985,-4.477c-1.705,-2.557 -4.046,-4.623 -6.794,-5.998l-18.35,-9.175c-7.449,-3.723 -16.484,-1.738 -21.684,4.762z"/>
   </g>
   <g stroke="null" transform="matrix(0.9914600111441948,0,0,0.9914600111441948,-1953.9238200100122,-1919.3875976008408) " id="svg_25">
    <path stroke="null" id="svg_26" fill="#59b154" d="m2112.985778,2230.541698l-20.442,-20.442c-5.728,-5.728 -6.824,-14.621 -2.655,-21.567l12.989,-21.649c1.108,-1.846 2.572,-3.345 4.191,-4.633l-7.496,-1.498c-7.316,-1.463 -14.763,1.831 -18.602,8.228l-12.989,21.649c-4.168,6.947 -3.073,15.839 2.655,21.568l20.442,20.442c6.897,6.897 17.875,6.731 24.685,0.139c-0.976,-0.647 -1.916,-1.374 -2.778,-2.237z"/>
    <path stroke="null" id="svg_27" fill="#59b154" d="m2191.805778,2069.126698l-21.735,-7.244c-10.714,-3.572 -15.368,-16.148 -9.556,-25.833l10.016,-16.694c0.509,-0.85 1.182,-1.549 1.813,-2.287l-4.358,0c-6.201,0 -11.948,3.254 -15.139,8.572l-10.016,16.693c-5.812,9.685 -1.16,22.261 9.556,25.833l21.735,7.245c6.344,2.114 13.338,0.463 18.067,-4.265l1.645,-1.645c-0.676,-0.14 -1.362,-0.153 -2.028,-0.375z"/>
    <path stroke="null" id="svg_28" fill="#59b154" d="m2263.545778,2210.744698l-30.376,-7.594c-11.502,-2.876 -16.958,-16.045 -10.857,-26.211l10.205,-17.009c1.215,-2.025 2.829,-3.734 4.69,-5.105l-9.764,1.953c-4.877,0.975 -9.118,3.964 -11.677,8.23l-10.205,17.009c-6.1,10.166 -0.644,23.336 10.857,26.211l30.376,7.594c6.399,1.6 12.799,-0.572 17.038,-5.035c-0.096,-0.024 -0.191,-0.019 -0.287,-0.043z"/>
    <path stroke="null" id="svg_29" fill="#59b154" d="m2315.026778,2087.941698l-10.849,-18.081c-3.693,-6.155 -3.292,-13.933 1.015,-19.677l11.725,-15.633c1.284,-1.713 2.878,-3.055 4.606,-4.168l-1.391,-0.463c-7.21,-2.403 -15.148,0.077 -19.708,6.156l-11.724,15.633c-4.307,5.743 -4.708,13.522 -1.015,19.677l10.849,18.081c5.169,8.615 16.466,11.17 24.844,5.653c-3.357,-1.397 -6.329,-3.807 -8.352,-7.178z"/>
    <path stroke="null" id="svg_30" fill="#59b154" d="m2375.024778,2201.102698c-6.895,-6.895 -6.895,-18.073 0,-24.968l10.219,-10.219c2.464,-2.464 5.603,-4.145 9.022,-4.828l18.845,-3.769c-4.032,-3.832 -9.789,-5.703 -15.626,-4.535l-22.389,4.478c-3.418,0.684 -6.557,2.364 -9.022,4.828l-10.219,10.219c-6.894,6.895 -6.894,18.073 0,24.968l5.001,5.001c5.041,5.041 12.541,6.362 19.065,3.723l-4.896,-4.898z"/>
    <path stroke="null" id="svg_31" fill="#59b154" d="m2285.190778,2315.425698c-9.198,-4.599 -12.535,-16.056 -7.243,-24.875l10.643,-17.737c1.396,-2.325 3.369,-4.088 5.545,-5.517l-9.78,-1.397c-7.032,-1.005 -13.981,2.303 -17.635,8.394l-10.643,17.738c-5.291,8.819 -1.955,20.276 7.243,24.875l33.882,16.941c6.753,3.377 14.374,1.919 19.543,-2.643l-31.555,-15.779z"/>
    <path stroke="null" id="svg_32" fill="#59b154" d="m2178.188778,2360.080698l-15.485,-6.194c-10.999,-4.399 -14.63,-18.171 -7.23,-27.422l11.528,-14.41c0.732,-0.915 1.554,-1.715 2.422,-2.447c-7.106,-2.721 -15.242,-0.647 -20.077,5.398l-11.528,14.41c-7.401,9.251 -3.77,23.021 7.23,27.422l15.485,6.194c4.21,1.684 8.905,1.684 13.114,0l6.177,-2.471c-0.547,-0.159 -1.104,-0.267 -1.636,-0.48z"/>
   </g>
   <path stroke="null" id="svg_33" fill="#C98850" d="m71.849889,360.516956c-1.311702,0 -2.650173,-0.298429 -3.905361,-0.923049c-4.324749,-2.162374 -6.07765,-7.418104 -3.914284,-11.742852l8.752609,-17.504226c2.163366,-4.324749 7.406206,-6.059804 11.742852,-3.914284c4.324749,2.163366 6.07765,7.418104 3.914284,11.742852l-8.752609,17.504226c-1.533789,3.067577 -4.623178,4.837333 -7.837491,4.837333z"/>
   <path stroke="null" id="svg_34" fill="#925F4A" d="m229.399825,474.303847l-8.752609,0c-4.833368,0 -8.752609,-3.914284 -8.752609,-8.752609c0,-4.837333 3.919241,-8.752609 8.752609,-8.752609l8.752609,0c4.833368,0 8.752609,3.914284 8.752609,8.752609c0,4.838325 -3.919241,8.752609 -8.752609,8.752609z"/>
   <path stroke="null" id="svg_35" fill="#C98850" d="m194.382449,308.012208c-1.311702,0 -2.650173,-0.298429 -3.905361,-0.923049c-4.324749,-2.163366 -6.07765,-7.419095 -3.914284,-11.742852l8.752609,-17.504226c2.158408,-4.315825 7.40224,-6.059804 11.742852,-3.914284c4.324749,2.163366 6.07765,7.418104 3.914284,11.742852l-8.752609,17.504226c-1.533789,3.068569 -4.624169,4.837333 -7.837491,4.837333z"/>
   <g stroke="null" transform="matrix(0.9914600111441948,0,0,0.9914600111441948,-1953.9238200100122,-1919.3875976008408) " id="svg_36">
    <path stroke="null" id="svg_37" fill="#925F4A" d="m2113.845778,2105.344698c-1.323,0 -2.673,-0.301 -3.939,-0.931l-17.655,-8.828c-4.362,-2.182 -6.13,-7.482 -3.948,-11.844c2.177,-4.353 7.47,-6.121 11.844,-3.948l17.655,8.827c4.362,2.182 6.13,7.482 3.948,11.844c-1.547,3.095 -4.664,4.88 -7.905,4.88z"/>
    <path stroke="null" id="svg_38" fill="#925F4A" d="m2219.785778,1981.757698l-17.655,0c-4.875,0 -8.828,-3.948 -8.828,-8.828s3.953,-8.828 8.828,-8.828l17.655,0c4.875,0 8.828,3.948 8.828,8.828s-3.953,8.828 -8.828,8.828z"/>
   </g>
   <path stroke="null" id="svg_39" fill="#C98850" d="m281.922419,176.729022c-3.214313,0 -6.303703,-1.768765 -7.837491,-4.837333l-8.752609,-17.504226c-2.163366,-4.324749 -0.410464,-9.58147 3.914284,-11.742852c4.333672,-2.154443 9.585435,-0.401541 11.742852,3.914284l8.752609,17.504226c2.163366,4.324749 0.410464,9.58147 -3.914284,11.742852c-1.257171,0.62462 -2.593659,0.923049 -3.905361,0.923049z"/>
   <g stroke="null" transform="matrix(0.9914600111441948,0,0,0.9914600111441948,-1953.9238200100122,-1919.3875976008408) " id="svg_40">
    <path stroke="null" id="svg_41" fill="#925F4A" d="m2012.843778,2157.397698c-1.187,-0.585 -2.264,-1.452 -3.123,-2.577c-2.95,-3.884 -2.191,-9.421 1.694,-12.37l15.722,-11.936c3.881,-2.951 9.414,-2.185 12.37,1.694c2.95,3.884 2.191,9.421 -1.694,12.37l-15.721,11.935c-2.757,2.092 -6.341,2.316 -9.248,0.884z"/>
    <path stroke="null" id="svg_42" fill="#925F4A" d="m2343.371778,2255.413698c-2.259,0 -4.518,-0.862 -6.241,-2.586l-17.655,-17.655c-3.448,-3.448 -3.448,-9.035 0,-12.483s9.035,-3.448 12.483,0l17.655,17.655c3.448,3.448 3.448,9.035 0,12.483c-1.725,1.724 -3.984,2.586 -6.242,2.586z"/>
   </g>
   <path stroke="null" id="svg_43" fill="#C98850" d="m386.939847,404.286941c-2.239708,0 -4.479416,-0.854639 -6.187702,-2.563916c-3.418554,-3.418554 -3.418554,-8.957841 0,-12.376395l8.752609,-8.752609c3.418554,-3.418554 8.957841,-3.418554 12.376395,0c3.418554,3.418554 3.418554,8.957841 0,12.376395l-8.752609,8.752609c-1.710269,1.709277 -3.948985,2.563916 -6.188693,2.563916z"/>
   <g stroke="null" transform="matrix(0.9914600111441948,0,0,0.9914600111441948,-1953.9238200100122,-1919.3875976008408) " id="svg_44">
    <path stroke="null" id="svg_45" fill="#FFE6A1" d="m2378.681778,1972.930698l0,22.272c0,6.246 6.307,10.516 12.106,8.196l26.483,-10.593c3.351,-1.341 5.549,-4.587 5.549,-8.196l0,-11.679c0,-4.875 -3.953,-8.828 -8.828,-8.828l-26.483,0c-4.874,0 -8.827,3.953 -8.827,8.828z"/>
    <path stroke="null" id="svg_46" fill="#FFE6A1" d="m2397.554778,2042.524698l-5.633,39.434c-1.325,9.276 4.828,17.972 14.015,19.809l16.167,3.233c7.016,1.404 14.184,-1.566 18.153,-7.519l6.08,-9.12c3.149,-4.725 3.835,-10.676 1.841,-15.992l-18.417,-49.111c-2.291,-6.108 -10.126,-7.805 -14.739,-3.192l-12.472,12.471c-2.702,2.701 -4.454,6.206 -4.995,9.987z"/>
   </g>
   <g stroke="null" transform="matrix(0.9914600111441948,0,0,0.9914600111441948,-1953.9238200100122,-1919.3875976008408) " id="svg_47">
    <path stroke="null" id="svg_48" fill="#FFD796" d="m2441.810778,2089.319698l-16.167,-3.233c-9.188,-1.838 -15.34,-10.534 -14.015,-19.809l5.633,-39.433c0.503,-3.517 2.143,-6.729 4.529,-9.343c-2.396,-0.121 -4.856,0.65 -6.769,2.562l-12.473,12.472c-2.701,2.701 -4.454,6.206 -4.993,9.987l-5.633,39.433c-1.325,9.277 4.828,17.972 14.015,19.809l16.167,3.233c7.015,1.402 14.184,-1.566 18.153,-7.519l5.319,-7.978c-1.252,0.025 -2.505,0.072 -3.766,-0.181z"/>
    <path stroke="null" id="svg_49" fill="#FFD796" d="m2408.442778,1985.742698c-5.799,2.319 -12.106,-1.951 -12.106,-8.196l0,-13.444l-8.828,0c-4.875,0 -8.828,3.953 -8.828,8.828l0,22.272c0,6.246 6.307,10.516 12.106,8.196l26.483,-10.593c3.351,-1.341 5.549,-4.586 5.549,-8.196l0,-4.617l-14.376,5.75z"/>
    <path stroke="null" id="svg_50" fill="#FFD796" d="m2444.875778,2130.143698l-5.218,10.436c-1.242,2.485 -1.242,5.41 0,7.895l2.381,4.764c2.375,4.749 8.374,6.343 12.792,3.398l14.231,-9.487c2.456,-1.638 3.931,-4.394 3.931,-7.345l0,-9.511c0,-6.025 -5.903,-10.28 -11.619,-8.374l-11.395,3.798c-2.22,0.739 -4.056,2.331 -5.103,4.426z"/>
   </g>
   <g stroke="null" transform="matrix(0.9914600111441948,0,0,0.9914600111441948,-1953.9238200100122,-1919.3875976008408) " id="svg_51"/>
   <g stroke="null" transform="matrix(0.9914600111441948,0,0,0.9914600111441948,-1953.9238200100122,-1919.3875976008408) " id="svg_52"/>
   <g stroke="null" transform="matrix(0.9914600111441948,0,0,0.9914600111441948,-1953.9238200100122,-1919.3875976008408) " id="svg_53"/>
   <g stroke="null" transform="matrix(0.9914600111441948,0,0,0.9914600111441948,-1953.9238200100122,-1919.3875976008408) " id="svg_54"/>
   <g stroke="null" transform="matrix(0.9914600111441948,0,0,0.9914600111441948,-1953.9238200100122,-1919.3875976008408) " id="svg_55"/>
   <g stroke="null" transform="matrix(0.9914600111441948,0,0,0.9914600111441948,-1953.9238200100122,-1919.3875976008408) " id="svg_56"/>
   <g stroke="null" transform="matrix(0.9914600111441948,0,0,0.9914600111441948,-1953.9238200100122,-1919.3875976008408) " id="svg_57"/>
   <g stroke="null" transform="matrix(0.9914600111441948,0,0,0.9914600111441948,-1953.9238200100122,-1919.3875976008408) " id="svg_58"/>
   <g stroke="null" transform="matrix(0.9914600111441948,0,0,0.9914600111441948,-1953.9238200100122,-1919.3875976008408) " id="svg_59"/>
   <g stroke="null" transform="matrix(0.9914600111441948,0,0,0.9914600111441948,-1953.9238200100122,-1919.3875976008408) " id="svg_60"/>
   <g stroke="null" transform="matrix(0.9914600111441948,0,0,0.9914600111441948,-1953.9238200100122,-1919.3875976008408) " id="svg_61"/>
   <g stroke="null" transform="matrix(0.9914600111441948,0,0,0.9914600111441948,-1953.9238200100122,-1919.3875976008408) " id="svg_62"/>
   <g stroke="null" transform="matrix(0.9914600111441948,0,0,0.9914600111441948,-1953.9238200100122,-1919.3875976008408) " id="svg_63"/>
   <g stroke="null" transform="matrix(0.9914600111441948,0,0,0.9914600111441948,-1953.9238200100122,-1919.3875976008408) " id="svg_64"/>
   <g stroke="null" transform="matrix(0.9914600111441948,0,0,0.9914600111441948,-1953.9238200100122,-1919.3875976008408) " id="svg_65"/>
  </g>
 </g>
</svg>