<svg width="512" height="512" version="1.1" xmlns="http://www.w3.org/2000/svg"><g><title>background</title><rect id="canvas_background" x="-1" y="-1" width="514" height="514" fill="none"/><g id="canvasGrid" x="0" y="0" width="100%" height="100%" display="none" overflow="visible"><rect width="100%" height="100%" fill="url(#gridpattern)" stroke-width="0"/></g></g><g><title>Layer 1</title><g stroke="null"><path d="m510 182c0 15.3-1.93 30.1-5.56 44.3-8.58 33.6-26.7 63.3-51.3 86.2-5.39 5.02-12.5 7.75-19.9 7.75h-203c-7.37 0-14.5-2.73-19.9-7.75-20.5-19.1-36.6-42.9-46.3-69.8-1.94-5.33-3.62-10.8-5.04-16.3-3.63-14.2-5.56-29-5.56-44.3 0-98.3 79.6-178 178-178 6.2-0.0117 12.3 0.311 18.4 0.93 75.7 7.76 138 63.3 155 136 3.16 13.2 4.84 27 4.84 41.2z" fill="#ffbc36"/><path d="m506 141-0.603 0.969-35.8 65.6c-6.34 11.6-23.5 9.95-27.5-2.66l-14.6-46.2c-3.67-11.6-18.9-14.2-26.3-4.5l-23.2 30.8c-8 10.6-24.8 6.36-26.8-6.77l-8.5-55.6c-2.29-14.9-22.7-17.5-28.6-3.64l-41.6 97.1c-6.24 14.6-27.9 10.8-28.8-5.03l-3.06-52.2c-0.895-15.4-21.6-19.6-28.4-5.8l-44.6 89.7h-2.25c-1.94-5.33-3.62-10.8-5.04-16.3-3.63-14.2-5.56-29-5.56-44.3 0-98.3 79.6-178 178-178 83.9-0.0817 155 58.5 173 137h1e-5z" fill="#fff"/><path d="m351 4.61c-6.04-0.619-12.2-0.941-18.4-0.93-98.2 0.105-178 79.8-178 178 0 15.3 1.93 30.1 5.56 44.3 1.42 5.56 3.1 11 5.04 16.3h2.25l24.1-48.4c-0.272-4.03-0.408-8.08-0.408-12.2 0-92.1 70-168 160-177z" fill="#ffa426"/><path d="m357 373c0 15.3-1.93 30.1-5.56 44.3-8.58 33.6-26.7 63.3-51.3 86.2-5.39 5.01-12.5 7.75-19.9 7.75h-203c-7.37 0-14.5-2.73-19.9-7.75-20.5-19.1-36.6-43-46.3-69.9-1.93-5.32-3.61-10.8-5.03-16.3-3.63-14.2-5.56-29-5.56-44.3 0-98.3 79.6-178 178-178 6.21-0.0117 12.3 0.311 18.4 0.926 75.8 7.77 138 63.4 155 136 3.14 13.2 4.8 26.9 4.8 41z" fill="#ffa426"/><path d="m357 373c0 15.3-1.93 30.1-5.56 44.3-8.58 33.6-26.7 63.3-51.3 86.2-5.39 5.01-12.5 7.75-19.9 7.75h-166c-7.37 0-14.5-2.73-19.9-7.75-20.5-19.1-36.6-43-46.3-69.9-1.93-5.32-3.61-10.8-5.03-16.3-3.63-14.2-5.56-29-5.56-44.3 0-92.2 70-168 160-177 75.8 7.77 138 63.4 155 136 3.14 13.2 4.8 26.9 4.8 41z" fill="#ffbc36"/><path d="m352 332c-0.42 0.498-0.65 0.77-0.65 0.77l-35.8 65.6c-6.34 11.6-23.5 9.96-27.5-2.66l-14.6-46.1c-3.67-11.6-18.9-14.3-26.3-4.52l-23.2 30.8c-8 10.6-24.8 6.36-26.8-6.77l-8.5-55.6c-2.28-14.9-22.7-17.5-28.6-3.64l-41.6 97.1c-6.24 14.6-27.9 10.8-28.8-5.03l-3.05-52.2c-0.899-15.4-21.6-19.6-28.4-5.8l-44.6 89.7s-0.805-0.00778-2.26-0.0311c-1.93-5.32-3.61-10.8-5.03-16.3-3.63-14.2-5.56-29-5.56-44.3 0-98.3 79.6-178 178-178 84-0.0856 155 58.6 173 137h1e-5z" fill="#fff"/><path d="m197 196c-6.05-0.615-12.2-0.938-18.4-0.926-98.2 0.0934-178 79.8-178 178 0 15.3 1.93 30.1 5.56 44.3 1.42 5.54 3.1 11 5.03 16.3 1.46 0.0233 2.26 0.0311 2.26 0.0311l24.1-48.4c-0.272-4.02-0.408-8.08-0.408-12.2 0-92.2 70-168 160-177z" fill="#ffa426"/><g transform="matrix(.996 0 0 .996 -1536 -1469)" fill="#458901"><path d="m1811 1577c0 6.7-5.43 12.1-12.1 12.1-6.7 0-12.1-5.44-12.1-12.1 0-6.71 5.44-12.1 12.1-12.1 6.71 0 12.1 5.43 12.1 12.1z"/><path d="m1868 1532c0 6.7-5.44 12.1-12.1 12.1-6.71 0-12.1-5.44-12.1-12.1 0-6.71 5.43-12.1 12.1-12.1 6.7 0 12.1 5.43 12.1 12.1z"/><path d="m1934 1589c0 6.7-5.44 12.1-12.1 12.1-6.71 0-12.1-5.44-12.1-12.1 0-6.71 5.43-12.1 12.1-12.1 6.7 0 12.1 5.43 12.1 12.1z"/><path d="m2e3 1589c0 6.7-5.44 12.1-12.1 12.1-6.71 0-12.1-5.44-12.1-12.1 0-6.71 5.43-12.1 12.1-12.1 6.7 0 12.1 5.43 12.1 12.1z"/><path d="m1786 1763c0 6.71-5.44 12.1-12.1 12.1-6.71 0-12.1-5.43-12.1-12.1 0-6.7 5.43-12.1 12.1-12.1 6.7 0 12.1 5.44 12.1 12.1z"/><path d="m1697 1728c0 6.71-5.43 12.1-12.1 12.1-6.7 0-12.1-5.43-12.1-12.1 0-6.7 5.44-12.1 12.1-12.1 6.71 0 12.1 5.44 12.1 12.1z"/><path d="m1641 1775c0 6.7-5.43 12.1-12.1 12.1-6.7 0-12.1-5.44-12.1-12.1 0-6.71 5.43-12.1 12.1-12.1 6.71 0 12.1 5.43 12.1 12.1z"/><path d="m1858 1789c0 6.7-5.44 12.1-12.1 12.1s-12.1-5.44-12.1-12.1c0-6.71 5.44-12.1 12.1-12.1s12.1 5.43 12.1 12.1z"/></g></g></g></svg>
