<svg width="512" height="512" xmlns="http://www.w3.org/2000/svg">
 <!-- Created with Method Draw - http://github.com/duopixel/Method-Draw/ -->

 <g>
  <title>background</title>
  <rect fill="none" id="canvas_background" height="514" width="514" y="-1" x="-1"/>
  <g display="none" overflow="visible" y="0" x="0" height="100%" width="100%" id="canvasGrid">
   <rect fill="url(#gridpattern)" stroke-width="0" y="0" x="0" height="100%" width="100%"/>
  </g>
 </g>
 <g>
  <title>Layer 1</title>
  <g stroke="null" id="svg_20">
   <path stroke="null" id="svg_4" fill="#ffbc36" d="m510.444476,181.720626c0,15.299934 -1.929511,30.129157 -5.559014,44.28928c-8.58166,33.568059 -26.70584,63.296535 -51.314882,86.155014c-5.391747,5.018293 -12.514596,7.749166 -19.874753,7.749166l-202.567564,0c-7.371819,0 -14.494668,-2.730873 -19.886415,-7.749166c-20.539959,-19.069477 -36.559563,-42.939399 -46.27715,-69.824189c-1.941183,-5.329494 -3.617831,-10.771802 -5.037732,-16.330826c-3.629503,-14.160123 -5.559014,-28.989346 -5.559014,-44.28928c0,-98.261142 79.619573,-177.931285 177.861265,-178.036321c6.204771,-0.011672 12.335637,0.311211 18.384812,0.929741c75.706086,7.756954 137.679967,63.347106 154.991114,135.886612c3.158792,13.234276 4.839334,27.040395 4.839334,41.219968zm0,0"/>
   <path stroke="null" id="svg_5" fill="#ffffff" d="m505.605143,140.500658l-0.602974,0.96865l-35.769873,65.583934c-6.340937,11.604295 -23.504256,9.947096 -27.499425,-2.660863l-14.599713,-46.152665c-3.668402,-11.627638 -18.945002,-14.245699 -26.297372,-4.504779l-23.235827,30.802151c-7.998136,10.604534 -24.815228,6.360386 -26.830325,-6.768845l-8.496074,-55.609611c-2.2874,-14.934258 -22.702874,-17.528985 -28.647013,-3.641175l-41.566185,97.094104c-6.235902,14.568582 -27.865101,10.795145 -28.790957,-5.026071l-3.05765,-52.178497c-0.894736,-15.373848 -21.586406,-19.586875 -28.425281,-5.800206l-44.56938,89.733947l-2.252394,0c-1.941183,-5.329494 -3.617831,-10.771802 -5.037732,-16.330826c-3.629503,-14.160123 -5.559014,-28.989346 -5.559014,-44.28928c0,-98.261142 79.619573,-177.931285 177.861255,-178.036321c83.914292,-0.081692 154.679903,58.480534 173.375926,136.816353l0.00001,0zm0,0"/>
   <path stroke="null" id="svg_6" fill="#ffa426" d="m350.602357,4.614046c-6.037503,-0.618529 -12.16837,-0.941412 -18.37314,-0.929741c-98.241692,0.105035 -177.861265,79.775179 -177.861265,178.036321c0,15.299934 1.929511,30.129157 5.559014,44.28928c1.419901,5.559024 3.096559,11.001331 5.037732,16.330826l2.252394,0l24.056649,-48.447853c-0.272303,-4.02629 -0.408459,-8.083711 -0.408459,-12.172254c0,-92.141947 70.007022,-167.929725 159.737074,-177.10658zm0,0"/>
   <path stroke="null" id="svg_7" fill="#ffa426" d="m356.632082,373.076798c0,15.288262 -1.929511,30.125273 -5.559014,44.28928c-8.58166,33.556377 -26.70584,63.296535 -51.314882,86.155014c-5.391747,5.014399 -12.514596,7.749166 -19.878637,7.749166l-202.563671,0c-7.371829,0 -14.494678,-2.734767 -19.886415,-7.749166c-20.543853,-19.085043 -36.571245,-42.962742 -46.288822,-69.859204c-1.929511,-5.317823 -3.610053,-10.76013 -5.026071,-16.295811c-3.629503,-14.164007 -5.559014,-29.001018 -5.559014,-44.28928c0,-98.265036 79.619573,-177.942957 177.861265,-178.036321c6.212558,-0.011672 12.347309,0.311211 18.3926,0.925857c75.783884,7.768616 137.765543,63.444353 155.026119,136.077223c3.139342,13.179812 4.796541,26.912017 4.796541,41.033241zm0,0"/>
   <path stroke="null" id="svg_8" fill="#ffbc36" d="m356.632082,373.076798c0,15.288262 -1.929511,30.125273 -5.559014,44.28928c-8.58166,33.556377 -26.70584,63.296535 -51.314882,86.155014c-5.391747,5.014399 -12.514596,7.749166 -19.878637,7.749166l-166.06635,0c-7.371819,0 -14.494668,-2.734767 -19.886415,-7.749166c-20.539959,-19.085043 -36.571235,-42.962742 -46.288822,-69.859204c-1.929511,-5.317823 -3.60616,-10.76013 -5.026061,-16.295811c-3.629503,-14.164007 -5.559014,-29.001018 -5.559014,-44.28928c0,-92.153619 70.026471,-167.953068 159.756534,-177.110464c75.783884,7.768616 137.765543,63.444353 155.026119,136.077223c3.139342,13.179812 4.796541,26.912017 4.796541,41.033241zm0,0"/>
   <path stroke="null" id="svg_9" fill="#ffffff" d="m351.835541,332.043557c-0.420141,0.497938 -0.64966,0.770251 -0.64966,0.770251l-35.765979,65.583934c-6.340937,11.615967 -23.504246,9.958768 -27.499425,-2.660863l-14.599713,-46.144887c-3.668402,-11.627638 -18.948886,-14.253487 -26.297372,-4.516451l-23.235827,30.817716c-7.998136,10.604534 -24.819122,6.360386 -26.830325,-6.768845l-8.499958,-55.621283c-2.283516,-14.922586 -22.69899,-17.521207 -28.64313,-3.641175l-41.566185,97.105775c-6.235902,14.568582 -27.865101,10.791251 -28.794851,-5.026071l-3.053757,-52.182391c-0.898629,-15.369954 -21.586406,-19.582981 -28.425281,-5.796312l-44.56938,89.730053s-0.805256,-0.007778 -2.264056,-0.031121c-1.929511,-5.317823 -3.610053,-10.76013 -5.026071,-16.295811c-3.629503,-14.164007 -5.559014,-29.001018 -5.559014,-44.28928c0,-98.265036 79.619573,-177.942957 177.861265,-178.036321c83.988196,-0.085586 154.781034,58.573888 173.418709,137.003079l0.00001,0zm0,0"/>
   <path stroke="null" id="svg_10" fill="#ffa426" d="m196.80163,195.96633c-6.04916,-0.61464 -12.18003,-0.93752 -18.38481,-0.92585c-98.24169,0.09336 -177.86126,79.77128 -177.86126,178.03632c0,15.28826 1.92951,30.12527 5.55901,44.28928c1.41602,5.53568 3.09656,10.97799 5.02607,16.29581c1.4588,0.02334 2.26406,0.03112 2.26406,0.03112l24.05665,-48.44784c-0.27231,-4.02242 -0.40846,-8.07984 -0.40846,-12.16837c0,-92.15362 70.01481,-167.94529 159.74874,-177.11047z"/>
   <g stroke="null" transform="matrix(0.9958767953429208,0,0,0.9958767953429208,-1535.7092486740046,-1468.9476558660028) " id="svg_11" fill="#ffe1aa">
    <path fill="#458901" stroke="null" id="svg_12" d="m1810.691775,1576.635358c0,6.70313 -5.4336,12.14063 -12.14063,12.14063c-6.70312,0 -12.14062,-5.4375 -12.14062,-12.14063c0,-6.70703 5.4375,-12.14062 12.14062,-12.14062c6.70703,0 12.14063,5.43359 12.14063,12.14062zm0,0"/>
    <path fill="#458901" stroke="null" id="svg_13" d="m1867.957395,1531.705668c0,6.70313 -5.4375,12.14063 -12.14062,12.14063c-6.70703,0 -12.14063,-5.4375 -12.14063,-12.14063c0,-6.70703 5.4336,-12.14062 12.14063,-12.14062c6.70312,0 12.14062,5.43359 12.14062,12.14062zm0,0"/>
    <path fill="#458901" stroke="null" id="svg_14" d="m1934.348025,1588.775988c0,6.70312 -5.4375,12.14062 -12.14063,12.14062c-6.70703,0 -12.14062,-5.4375 -12.14062,-12.14062c0,-6.70704 5.43359,-12.14063 12.14062,-12.14063c6.70313,0 12.14063,5.43359 12.14063,12.14063zm0,0"/>
    <path fill="#458901" stroke="null" id="svg_15" d="m1998.488645,1588.775988c0,6.70312 -5.4375,12.14062 -12.14062,12.14062c-6.70703,0 -12.14063,-5.4375 -12.14063,-12.14062c0,-6.70704 5.4336,-12.14063 12.14063,-12.14063c6.70312,0 12.14062,5.43359 12.14062,12.14063zm0,0"/>
    <path fill="#458901" stroke="null" id="svg_16" d="m1786.414425,1762.869738c0,6.70703 -5.4375,12.14062 -12.14062,12.14062c-6.70703,0 -12.14063,-5.43359 -12.14063,-12.14062c0,-6.70313 5.4336,-12.14063 12.14063,-12.14063c6.70312,0 12.14062,5.4375 12.14062,12.14063zm0,0"/>
    <path fill="#458901" stroke="null" id="svg_17" d="m1697.074585,1728.041608c0,6.70703 -5.43359,12.14063 -12.14063,12.14063c-6.70312,0 -12.14062,-5.4336 -12.14062,-12.14063c0,-6.70312 5.4375,-12.14062 12.14062,-12.14062c6.70704,0 12.14063,5.4375 12.14063,12.14062zm0,0"/>
    <path fill="#458901" stroke="null" id="svg_18" d="m1641.152705,1775.010358c0,6.70313 -5.43359,12.14063 -12.14062,12.14063c-6.70313,0 -12.13672,-5.4375 -12.13672,-12.14063c0,-6.70703 5.43359,-12.14062 12.13672,-12.14062c6.70703,0 12.14062,5.43359 12.14062,12.14062zm0,0"/>
    <path fill="#458901" stroke="null" id="svg_19" d="m1858.098025,1788.994738c0,6.70312 -5.4375,12.14062 -12.14063,12.14062s-12.14062,-5.4375 -12.14062,-12.14062c0,-6.70704 5.4375,-12.14063 12.14062,-12.14063s12.14063,5.43359 12.14063,12.14063zm0,0"/>
   </g>
  </g>
 </g>
</svg>