<?xml version="1.0" encoding="UTF-8" standalone="no"?>
<svg
   xmlns:dc="http://purl.org/dc/elements/1.1/"
   xmlns:cc="http://creativecommons.org/ns#"
   xmlns:rdf="http://www.w3.org/1999/02/22-rdf-syntax-ns#"
   xmlns:svg="http://www.w3.org/2000/svg"
   xmlns="http://www.w3.org/2000/svg"
   xmlns:sodipodi="http://sodipodi.sourceforge.net/DTD/sodipodi-0.dtd"
   xmlns:inkscape="http://www.inkscape.org/namespaces/inkscape"
   sodipodi:docname="keshmesh.svg"
   inkscape:version="1.0 (4035a4f, 2020-05-01)"
   id="svg8"
   version="1.1"
   viewBox="0 0 135.46666 135.46667"
   height="512"
   width="512">
  <defs
     id="defs2" />
  <sodipodi:namedview
     inkscape:window-maximized="0"
     inkscape:window-y="0"
     inkscape:window-x="0"
     inkscape:window-height="768"
     inkscape:window-width="1366"
     units="px"
     showgrid="false"
     inkscape:document-rotation="0"
     inkscape:current-layer="layer1"
     inkscape:document-units="mm"
     inkscape:cy="258.84768"
     inkscape:cx="404.45209"
     inkscape:zoom="0.91350115"
     inkscape:pageshadow="2"
     inkscape:pageopacity="0.0"
     borderopacity="1.0"
     bordercolor="#666666"
     pagecolor="#ffffff"
     id="base" />
  <metadata
     id="metadata5">
    <rdf:RDF>
      <cc:Work
         rdf:about="">
        <dc:format>image/svg+xml</dc:format>
        <dc:type
           rdf:resource="http://purl.org/dc/dcmitype/StillImage" />
        <dc:title></dc:title>
      </cc:Work>
    </rdf:RDF>
  </metadata>
  <g
     id="layer1"
     inkscape:groupmode="layer"
     inkscape:label="Layer 1">
    <path
       sodipodi:nodetypes="asaaasssaasasssssasassaa"
       id="path885"
       d="M 80.36581,8.8052064 C 79.359083,8.1850629 77.790908,8.856846 76.891627,8.0891403 75.365894,6.7866391 75.308755,4.333547 73.582889,3.8329208 71.56836,3.2485616 69.308518,4.663983 67.661712,5.9631484 66.201367,7.1152151 66.03286,9.4410425 64.602356,10.62996 c -2.651401,2.203628 -5.612941,-0.432502 -9.541037,3.992717 -3.052695,3.439032 -0.224913,6.949544 -2.281552,9.644744 -2.575323,3.374931 -5.525394,2.254925 -6.222415,8.348409 -0.530339,4.636325 2.504946,6.033522 2.281552,9.178062 -0.182413,2.567699 -2.541512,4.607228 -2.903794,7.155778 -0.425526,2.993457 1.190663,6.00992 0.933363,9.022503 -0.435788,5.102414 -0.156049,8.973179 2.800085,11.66703 2.074944,1.890845 4.858845,1.432148 8.336084,1.198276 3.468596,-0.23329 3.169409,4.345829 5.533731,4.315629 4.647931,-0.05937 4.991479,-5.149979 8.282926,-6.136839 3.325413,-0.997045 7.047668,0.611956 10.117082,-2.254051 2.995437,-2.796932 1.130217,-8.133194 2.666715,-11.821952 1.214499,-2.915718 4.878934,-4.49133 5.463505,-7.539409 0.684934,-3.571397 -1.995709,-7.163184 -2.679162,-10.575357 -0.482229,-2.407547 2.142373,-5.285531 2.227804,-8.077136 0.08959,-2.927494 -0.895064,-5.707991 -1.81393,-8.597318 -0.853612,-2.684137 0.431032,-5.98797 -2.081271,-8.189473 -0.91391,-0.80085 -2.518482,-0.208949 -3.54136,-0.864932 C 81.360493,10.570645 81.195406,9.316237 80.36581,8.8052064 Z"
       style="fill:#c991ff;stroke:#c991ff;stroke-width:0.26458300000000001px;stroke-linecap:butt;stroke-linejoin:miter;stroke-opacity:1;fill-opacity:1" />
    <path
       sodipodi:nodetypes="casssssscassasssc"
       id="path891"
       d="M 74.00256,3.7726014 C 72.868386,1.7183187 69.562999,0.45109117 67.092726,0.84499653 63.734714,1.3804594 61.456522,3.868223 59.403257,7.5486357 58.420331,9.3104998 53.795998,6.4798196 49.685797,12.06649 c -1.721927,2.340479 -1.024565,5.875601 -1.774492,8.495092 -0.932202,3.256174 -5.134888,1.742118 -6.506474,8.618964 -0.760627,3.813623 1.969959,6.962992 2.196991,10.252625 0.191421,2.773644 -2.86077,2.805846 -2.872989,7.830302 -0.01236,5.081853 4.319723,8.943907 5.906364,10.524513 0.276285,-1.475106 -1.080213,-6.448293 -0.582886,-9.623184 0.408515,-2.607918 3.026051,-4.744357 2.872988,-7.379636 -0.163629,-2.81719 -3.561092,-2.841421 -2.140659,-9.858293 0.826561,-4.083173 4.991623,-4.531664 6.506475,-7.464136 1.48853,-2.881516 -1.473649,-5.671116 2.281491,-9.458568 2.01141,-2.028718 4.910175,-1.917029 8.111967,-2.765715 2.321623,-0.615383 2.519059,-3.926232 4.442541,-5.672874 1.49241,-1.3552024 3.708255,-2.4594602 5.875446,-1.7929786 z"
       style="fill:#d3b3ff;fill-opacity:1;stroke:#d3b3ff;stroke-width:0.264583px;stroke-linecap:butt;stroke-linejoin:miter;stroke-opacity:1" />
    <path
       sodipodi:nodetypes="cssssssscaaaaaac"
       id="path893"
       d="m 88.486666,21.494077 c 2.526694,1.380533 5.117372,4.474157 5.893129,7.634841 1.192833,4.859982 -3.457595,6.815841 -2.366068,10.095219 1.225443,3.681715 3.653386,6.185328 2.99702,9.41169 -1.343873,6.6058 -5.424454,5.366192 -5.836301,8.885899 -0.620025,5.298827 1.242816,7.93126 -1.892853,10.989066 -4.120256,4.017943 -8.486093,2.069821 -10.805553,2.824851 -2.557501,0.832516 -2.362653,4.547541 -6.072392,5.692991 -2.541905,0.78486 -6.483035,0.499223 -7.733811,-1.930544 4.855824,1.200859 5.782128,-4.779817 9.194686,-6.20152 3.107091,-1.294442 7.500397,0.3885 9.904302,-1.967521 2.812317,-2.756297 0.904404,-7.953749 2.534433,-11.538341 1.345467,-2.958812 5.158324,-4.650851 5.802516,-7.836736 0.802574,-3.969169 -2.99205,-7.757529 -2.867911,-11.805123 0.08774,-2.860701 2.405264,-5.344431 2.534435,-8.20356 0.09307,-2.059991 -0.873157,-4.232337 -1.285632,-6.051212 z"
       style="fill:#b173ff;fill-opacity:1;stroke:#b173ff;stroke-width:0.264583px;stroke-linecap:butt;stroke-linejoin:miter;stroke-opacity:1" />
    <path
       sodipodi:nodetypes="cccc"
       id="path899"
       d="m 80.37507,8.573662 c 1.691727,-0.5909727 4.949996,1.311157 5.458795,3.260033 -1.807718,-0.771361 -2.673009,-0.06054 -3.69274,-0.686338 C 81.282721,10.620572 81.527963,9.3506464 80.37507,8.573662 Z"
       style="fill:#d3b3ff;fill-opacity:1;stroke:#d3b3ff;stroke-width:0.264583px;stroke-linecap:butt;stroke-linejoin:miter;stroke-opacity:1" />
    <path
       sodipodi:nodetypes="aaasasssa"
       id="path901"
       d="m 60.822825,17.140483 c -2.153617,0.138955 -3.484327,3.132754 -3.755547,5.273741 -0.31736,2.505154 2.779627,4.547217 2.716777,7.07161 -0.041,1.645109 -2.168257,2.877895 -1.997627,4.514644 0.16994,1.630175 1.429057,2.161503 2.477057,1.997628 2.39397,-0.374346 3.880567,-3.65245 3.995257,-6.072793 0.10705,-2.259064 -1.832577,-3.575577 -2.475357,-5.905374 -0.44359,-1.607824 0.82634,-3.172958 1.07702,-4.682064 0.16368,-0.985401 -1.04075,-2.261709 -2.03758,-2.197392 z"
       style="fill:#b173ff;fill-opacity:1;stroke:#b173ff;stroke-width:0.264583px;stroke-linecap:butt;stroke-linejoin:miter;stroke-opacity:1" />
    <path
       style="fill:#b173ff;fill-opacity:1;stroke:#b173ff;stroke-width:0.264583px;stroke-linecap:butt;stroke-linejoin:miter;stroke-opacity:1"
       d="m 77.690588,27.988842 c -2.15362,0.138955 -3.48433,3.132755 -3.75555,5.273742 -0.31736,2.505154 2.77963,4.547217 2.71678,7.07161 -0.041,1.645109 -2.16826,2.877895 -1.99763,4.514644 0.16994,1.630175 1.42906,2.161503 2.47706,1.997628 2.393967,-0.374346 3.880557,-3.65245 3.995247,-6.072793 0.10705,-2.259064 -1.83257,-3.575577 -2.47535,-5.905374 -0.443587,-1.607824 0.82634,-3.172958 1.07702,-4.682064 0.16368,-0.985401 -1.04075,-2.26171 -2.037577,-2.197393 z"
       id="path901-5"
       sodipodi:nodetypes="aaasasssa" />
    <path
       sodipodi:nodetypes="aaasasssa"
       id="path901-5-8"
       d="m 66.578093,44.922177 c -2.15362,0.138955 -3.48433,3.132755 -3.75555,5.273742 -0.31736,2.505154 2.77963,4.547217 2.71678,7.07161 -0.041,1.645109 -2.16826,2.877895 -1.99763,4.514644 0.16994,1.630175 1.42906,2.161503 2.47706,1.997628 2.393967,-0.374346 3.880557,-3.65245 3.995247,-6.072793 0.10705,-2.259064 -1.83257,-3.575577 -2.47535,-5.905374 -0.443587,-1.607824 0.82634,-3.172958 1.07702,-4.682064 0.16368,-0.985401 -1.04075,-2.26171 -2.037577,-2.197393 z"
       style="fill:#b173ff;fill-opacity:1;stroke:#b173ff;stroke-width:0.264583px;stroke-linecap:butt;stroke-linejoin:miter;stroke-opacity:1" />
    <path
       sodipodi:nodetypes="casssssscasasssc"
       id="path933"
       d="m 9.8836003,72.885392 c -3.7557361,1.243289 -5.8368261,3.659865 -6.9064328,6.678385 -1.0841,3.059421 1.5675867,6.416123 1.1762867,9.666144 -0.31424,2.60992 -3.1520267,3.1622 -3.0912967,7.533655 0.0584,4.206364 3.9512767,7.400794 5.6086867,9.855774 1.9626967,2.90716 -2.84058,5.19692 1.40559,11.71317 2.5119658,3.85491 7.6738928,3.44505 8.0615928,5.11658 0.80189,3.45733 2.89458,7.24621 4.856347,9.0322 2.22793,2.02829 7.613647,2.01672 9.035874,-0.22684 -1.057447,-0.7504 -3.829507,-1.93627 -5.153797,-3.54741 -1.707167,-2.07695 -1.007427,-6.05792 -3.200347,-7.40346 -3.262397,-2.00176 -6.646267,-3.19484 -8.245084,-6.25075 -1.48032,-2.82941 0.25486,-6.16923 -0.40159,-9.57134 -0.67764,-3.51194 -5.4917058,-4.45893 -5.8900558,-8.968964 -0.51136,-5.789504 3.2641158,-6.254441 3.2127558,-9.236674 -0.0825,-4.793366 -2.6155458,-8.063996 -0.4685297,-14.39047 z"
       style="fill:#445500;stroke:#445500;stroke-width:0.26458300000000001px;stroke-linecap:butt;stroke-linejoin:miter;stroke-opacity:1;fill-opacity:1" />
    <path
       sodipodi:nodetypes="casssssscscasaasassc"
       id="path935"
       d="m 11.88462,66.353917 c 1.56872,-3.016522 4.688017,-4.226653 7.580274,-4.222086 2.74841,0.0043 4.51342,3.180197 7.190547,4.034818 2.67718,0.854638 4.556047,-1.743849 8.418164,-0.462284 4.99638,1.657943 4.23073,6.441374 7.331267,8.944342 2.10803,1.701746 4.627727,0.800111 7.868247,4.891117 2.903887,3.666026 0.11361,8.845616 2.143517,11.432114 1.90554,2.428024 3.979747,3.067923 5.001547,5.261368 3.13941,6.739204 -1.446967,8.047934 -1.32617,12.211604 0.0976,3.36499 2.97197,5.31751 2.10563,9.54841 -0.60814,2.96993 -3.500957,6.5671 -6.365607,6.49552 1.14825,-2.14823 1.13151,-4.24449 0.84442,-6.36561 -0.29019,-2.144 -2.951887,-3.85321 -2.533247,-5.97587 0.664287,-3.36818 3.319517,-6.29151 2.728117,-9.54844 -0.64989,-3.579034 -5.061867,-5.425834 -6.495517,-8.768953 -1.489917,-3.474331 1.21252,-7.063229 -1.948657,-11.172296 -2.25764,-2.934589 -5.618447,-1.872146 -7.794617,-3.767399 -2.590287,-2.255909 -2.702797,-6.925159 -5.716057,-8.574088 -3.220547,-1.762366 -5.975707,0.09898 -9.223634,0.06496 -3.534077,-0.03702 -3.958757,-4.773489 -9.808224,-4.027227 z"
       style="fill:#88aa00;stroke:#88aa00;stroke-width:0.26458300000000001px;stroke-linecap:butt;stroke-linejoin:miter;stroke-opacity:1;fill-opacity:1" />
    <path
       sodipodi:nodetypes="caaasaacccscasaaasssac"
       id="path937"
       d="m 11.773207,66.619479 c -0.29393,2.054683 -1.417939,4.135967 -1.8896067,6.265913 -0.4586154,2.071003 -0.9236097,4.177497 -0.9066497,6.298604 0.0237,2.969592 1.7533694,5.846961 1.4101694,8.79675 -0.33291,2.861319 -3.5323858,2.759416 -3.2903858,7.99094 0.22244,4.808744 4.5923758,5.341924 5.7078158,8.595324 1.172027,3.41842 -0.93151,7.64252 0.8058,10.81127 1.842817,3.36119 7.224974,4.69 9.208894,6.88757 1.15522,6.17051 2.623937,7.57023 7.211004,9.98861 4.23877,-2.14246 6.597637,3.65605 11.917714,2.46324 3.44642,-1.09861 5.215897,-4.64797 6.358657,-8.40031 0.33669,-1.10557 2.28663,-1.86459 3.525417,-1.82855 1.3484,-1.77638 1.30459,-4.42796 0.92719,-6.62598 -0.32867,-1.91421 -2.882017,-3.23831 -2.686027,-5.17061 0.3909,-3.85397 3.446467,-6.72441 2.776417,-10.17596 -0.67218,-3.462564 -5.039677,-5.171564 -6.402557,-8.424825 -1.450627,-3.462731 0.56776,-8.090043 -1.611617,-11.147028 -1.92937,-2.70631 -6.510567,-2.21924 -8.863897,-4.56625 -1.400397,-1.396645 -2.281737,-6.669509 -5.033727,-8.189807 -3.417687,-1.888062 -6.373067,0.849546 -9.873734,0.198865 -2.148997,-0.399442 -3.364136,-2.959277 -5.437917,-3.628728 -1.22301,-0.394808 -2.648498,-0.378222 -3.85296,-0.139038 z"
       style="fill:#668000;fill-opacity:1;stroke:#668000;stroke-width:0.26458300000000001px;stroke-linecap:butt;stroke-linejoin:miter;stroke-opacity:1" />
    <path
       sodipodi:nodetypes="sssaass"
       id="path939"
       d="M 14.231967,79.704485 C 11.2801,79.3326 11.24248,84.191929 11.73595,86.579495 c 0.52305,2.53068 5.741407,4.213182 4.729297,6.218161 -1.45771,2.8877 -0.62707,4.78238 1.05097,4.94826 2.609227,0.25794 3.517057,-4.635315 3.109067,-7.225331 -0.36216,-2.299115 -3.238757,-3.400914 -4.597937,-5.254786 -1.14916,-1.567416 0.75492,-5.24002 -1.79538,-5.561314 z"
       style="fill:#445500;stroke:#445500;stroke-width:0.26458300000000001px;stroke-linecap:butt;stroke-linejoin:miter;stroke-opacity:1;fill-opacity:1" />
    <path
       style="fill:#445500;stroke:#445500;stroke-width:0.26458300000000001px;stroke-linecap:butt;stroke-linejoin:miter;stroke-opacity:1;fill-opacity:1"
       d="m 37.653205,86.68471 c -2.951867,-0.371885 -2.989487,4.487444 -2.49602,6.875007 0.52305,2.530689 5.741407,4.213199 4.7293,6.218179 -1.45771,2.887714 -0.62707,4.782404 1.050967,4.948284 2.60923,0.25794 3.51706,-4.63535 3.10907,-7.225364 -0.36216,-2.29912 -3.23876,-3.400919 -4.597937,-5.254789 -1.14916,-1.567419 0.75492,-5.240023 -1.79538,-5.561317 z"
       id="path939-6"
       sodipodi:nodetypes="sssaass" />
    <path
       sodipodi:nodetypes="sssaass"
       id="path939-6-6"
       d="m 28.128271,103.61804 c -2.95187,-0.37188 -2.98949,4.48746 -2.49602,6.87502 0.52305,2.53069 5.741407,4.2132 4.729297,6.21818 -1.457707,2.88771 -0.62707,4.78239 1.05097,4.94827 2.60923,0.25794 3.517057,-4.63533 3.10907,-7.22535 -0.36216,-2.29912 -3.23876,-3.40092 -4.59794,-5.25479 -1.149157,-1.56742 0.75492,-5.24003 -1.795377,-5.56133 z"
       style="fill:#445500;stroke:#445500;stroke-width:0.26458300000000001px;stroke-linecap:butt;stroke-linejoin:miter;stroke-opacity:1;fill-opacity:1" />
    <path
       sodipodi:nodetypes="csasasascasssssacc"
       id="path986"
       d="m 124.01637,67.029604 c 0.008,-3.156286 -5.2419,-5.916498 -9.00487,-5.142885 -2.97847,0.612332 -3.68838,2.997761 -5.91418,3.622499 -3.07328,0.862615 -5.37781,-1.882079 -9.576157,-0.0219 -4.481857,1.985806 -3.61225,6.179936 -6.222697,8.547638 -2.37567,2.154755 -5.518827,0.84128 -8.292947,4.879341 -2.965577,4.316753 -0.31611,7.531939 -1.829727,10.885637 -1.20145,2.662042 -4.106437,2.723788 -5.518817,6.805312 -1.04059,3.007107 0.0148,8.042934 1.45157,9.435174 2.402957,-2.18549 2.351847,-4.97883 3.991797,-7.167104 1.37466,-1.83428 4.525357,-2.651 4.826887,-4.897923 0.46259,-3.447032 -1.26255,-6.409774 1.52371,-10.706398 1.707387,-2.632926 5.736007,-2.848332 8.238294,-4.643243 2.28359,-1.638038 1.63266,-5.870204 5.823757,-8.057956 4.44112,-2.318265 5.76664,0.437901 8.98157,-0.09072 2.713,-0.446091 4.46534,-3.572764 7.1671,-4.082526 1.44149,-0.271977 3.01114,0.398875 4.35471,0.635056 z"
       style="fill:#ffe070;stroke:#ffe070;stroke-width:0.26458300000000001px;stroke-linecap:butt;stroke-linejoin:miter;stroke-opacity:1;fill-opacity:1" />
    <path
       sodipodi:nodetypes="cssssssasssssscaasssasc"
       id="path988"
       d="m 124.01637,67.029606 c 0.58284,2.093024 0.32735,4.269063 1.81601,5.534704 1.74113,1.480292 4.1093,1.616498 5.35245,3.30515 3.0492,4.141924 0.1461,8.128691 0.093,12.214791 -0.0434,3.339342 3.72118,2.920633 2.9142,10.075655 -0.3794,3.363884 -4.77489,5.339434 -5.27554,8.687424 -0.58945,3.94187 1.1249,6.83133 -1.26589,10.59582 -1.62262,2.55494 -5.44451,2.86217 -7.56449,5.02232 -2.72082,2.77237 -1.19497,7.41965 -6.2624,9.82764 -6.02724,2.86408 -7.583,-1.18343 -10.5407,-1.17808 -2.77763,0.005 -4.921587,3.38296 -7.657507,3.28621 -6.401224,-0.22636 -6.270014,-3.31953 -8.608834,-9.05376 -1.1562,-2.83473 -6.034507,-0.26185 -8.411254,-4.61812 -3.72408,-6.82574 0.26685,-8.47035 1.054057,-12.3078 0.16371,-0.79806 -0.0163,-1.54733 -0.550927,-2.38114 2.359187,-2.00351 2.309967,-5.2023 4.085157,-7.384484 1.29019,-1.58599 3.793877,-2.14279 4.650297,-3.99926 1.10386,-2.39285 -0.53175,-5.331112 0.031,-7.905513 1.18903,-5.439438 6.134757,-5.468437 9.882764,-8.442262 3.009857,-2.388142 2.12768,-6.689257 6.594227,-8.290777 3.74752,-1.343707 5.35796,1.157544 7.95261,0.580994 2.80918,-0.624222 4.65691,-4.13606 7.53349,-4.216275 1.22512,-0.03416 3.19665,0.314468 4.17828,0.646763 z"
       style="fill:#ffb750;stroke:#ffb750;stroke-width:0.26458300000000001px;stroke-linecap:butt;stroke-linejoin:miter;stroke-opacity:1;fill-opacity:1" />
    <path
       sodipodi:nodetypes="caasssaaacsssssasaac"
       id="path992"
       d="m 131.68755,89.788309 c -1.99896,1.077973 -2.11449,4.468497 -3.55279,6.461777 -1.12783,1.56301 -3.19315,2.46018 -3.93049,4.240994 -1.22621,2.96155 1.05832,6.73594 -0.36238,9.60926 -2.45344,4.96199 -6.59365,5.6561 -8.05437,6.71957 -2.74818,2.0008 -1.54806,6.04168 -5.10413,9.07786 -1.39461,1.19072 -3.17001,2.17129 -4.99958,2.29541 -2.59024,0.17572 -4.86996,-2.53216 -7.452247,-2.26397 -1.95027,0.20255 -3.258477,2.33907 -5.156797,2.82996 -1.52379,0.39404 -3.386477,0.30296 -4.721687,0.0198 0.5834,2.26273 1.973677,4.52859 5.511717,5.53206 3.576627,1.01441 6.267984,-3.29101 9.638774,-3.10742 2.56844,0.13988 4.87604,2.71129 7.43346,2.03594 2.35428,-0.6217 4.52882,-1.41871 6.14579,-3.94859 1.2941,-2.02472 0.86452,-5.19177 2.77038,-6.65529 2.94124,-2.25859 6.39726,-2.89283 8.08823,-5.73182 1.26931,-2.13106 1.06972,-4.83442 0.89162,-7.38769 -0.0922,-1.32135 -0.0946,-2.50328 0.30249,-3.66191 0.99846,-2.91319 4.60706,-4.69013 5.04723,-7.738044 0.41421,-2.86814 -0.58093,-6.263197 -2.49522,-8.327897 z"
       style="fill:#ea8e50;stroke:#ea8e50;stroke-width:0.26458300000000001px;stroke-linecap:butt;stroke-linejoin:miter;stroke-opacity:1;fill-opacity:1" />
    <path
       sodipodi:nodetypes="ssaassaass"
       id="path994"
       d="m 97.949323,84.911579 c -1.1813,1.412185 0.56086,4.080073 -1.42102,6.039353 -1.597767,1.579549 -3.095407,2.417131 -3.481517,4.192024 -0.5581,2.56559 -0.36727,6.602644 2.06049,7.602474 0.961577,0.39601 2.564607,-0.53204 2.699947,-1.56313 0.2433,-1.853704 -1.70952,-3.303334 -0.63947,-4.973584 1.30597,-2.038513 3.760397,-2.861144 4.476237,-4.973579 0.671,-1.980153 1.02267,-4.816972 -0.49736,-6.252507 -0.77504,-0.731949 -2.513327,-0.888721 -3.197307,-0.07105 z"
       style="fill:#ba8050;stroke:#ba8050;stroke-width:0.26458300000000001px;stroke-linecap:butt;stroke-linejoin:miter;stroke-opacity:1;fill-opacity:1" />
    <path
       style="fill:#ba8050;stroke:#ba8050;stroke-width:0.26458300000000001px;stroke-linecap:butt;stroke-linejoin:miter;stroke-opacity:1;fill-opacity:1"
       d="m 119.45124,80.931472 c -1.1813,1.412185 0.56086,4.080073 -1.42102,6.039353 -1.59777,1.579549 -3.09541,2.417131 -3.48152,4.192024 -0.5581,2.56559 -0.36727,6.602647 2.06049,7.602477 0.96158,0.39601 2.56461,-0.53204 2.69995,-1.56313 0.2433,-1.85371 -1.70952,-3.303337 -0.63947,-4.973587 1.30597,-2.038513 3.7604,-2.861144 4.47623,-4.973579 0.671,-1.980153 1.02267,-4.816972 -0.49736,-6.252507 -0.77503,-0.731949 -2.51332,-0.888721 -3.1973,-0.07105 z"
       id="path994-8"
       sodipodi:nodetypes="ssaassaass" />
    <path
       sodipodi:nodetypes="ssaassaass"
       id="path994-8-0"
       d="m 105.69291,104.74399 c -1.18131,1.41218 0.56086,4.08007 -1.42103,6.03935 -1.59778,1.57955 -3.09542,2.41714 -3.48154,4.19203 -0.5581,2.56559 -0.36727,6.60265 2.0605,7.60248 0.96159,0.39601 2.56463,-0.53204 2.69997,-1.56313 0.2433,-1.85371 -1.70953,-3.30334 -0.63947,-4.97359 1.30597,-2.03851 3.7604,-2.86114 4.47623,-4.97358 0.671,-1.98015 1.02267,-4.81698 -0.49736,-6.25251 -0.77503,-0.73195 -2.51332,-0.88872 -3.1973,-0.071 z"
       style="fill:#ba8050;stroke:#ba8050;stroke-width:0.26458300000000001px;stroke-linecap:butt;stroke-linejoin:miter;stroke-opacity:1;fill-opacity:1" />
  </g>
</svg>
