<svg width="512" height="512" version="1.1" viewBox="0 0 135 135" xmlns="http://www.w3.org/2000/svg"><path d="m80.4 8.81c-1.01-0.62-2.57 0.0516-3.47-0.716-1.53-1.3-1.58-3.76-3.31-4.26-2.01-0.584-4.27 0.831-5.92 2.13-1.46 1.15-1.63 3.48-3.06 4.67-2.65 2.2-5.61-0.433-9.54 3.99-3.05 3.44-0.225 6.95-2.28 9.64-2.58 3.37-5.53 2.25-6.22 8.35-0.53 4.64 2.5 6.03 2.28 9.18-0.182 2.57-2.54 4.61-2.9 7.16-0.426 2.99 1.19 6.01 0.933 9.02-0.436 5.1-0.156 8.97 2.8 11.7 2.07 1.89 4.86 1.43 8.34 1.2 3.47-0.233 3.17 4.35 5.53 4.32 4.65-0.0594 4.99-5.15 8.28-6.14 3.33-0.997 7.05 0.612 10.1-2.25 3-2.8 1.13-8.13 2.67-11.8 1.21-2.92 4.88-4.49 5.46-7.54 0.685-3.57-2-7.16-2.68-10.6-0.482-2.41 2.14-5.29 2.23-8.08 0.0896-2.93-0.895-5.71-1.81-8.6-0.854-2.68 0.431-5.99-2.08-8.19-0.914-0.801-2.52-0.209-3.54-0.865-0.82-0.526-0.985-1.78-1.81-2.29z" style="fill:#c991ff;stroke-width:.265px;stroke:#c991ff"/><path d="m74 3.77c-1.13-2.05-4.44-3.32-6.91-2.93-3.36 0.535-5.64 3.02-7.69 6.7-0.983 1.76-5.61-1.07-9.72 4.52-1.72 2.34-1.02 5.88-1.77 8.5-0.932 3.26-5.13 1.74-6.51 8.62-0.761 3.81 1.97 6.96 2.2 10.3 0.191 2.77-2.86 2.81-2.87 7.83-0.0124 5.08 4.32 8.94 5.91 10.5 0.276-1.48-1.08-6.45-0.583-9.62 0.409-2.61 3.03-4.74 2.87-7.38-0.164-2.82-3.56-2.84-2.14-9.86 0.827-4.08 4.99-4.53 6.51-7.46 1.49-2.88-1.47-5.67 2.28-9.46 2.01-2.03 4.91-1.92 8.11-2.77 2.32-0.615 2.52-3.93 4.44-5.67 1.49-1.36 3.71-2.46 5.88-1.79z" style="fill:#d3b3ff;stroke-width:.265px;stroke:#d3b3ff"/><path d="m88.5 21.5c2.53 1.38 5.12 4.47 5.89 7.63 1.19 4.86-3.46 6.82-2.37 10.1 1.23 3.68 3.65 6.19 3 9.41-1.34 6.61-5.42 5.37-5.84 8.89-0.62 5.3 1.24 7.93-1.89 11-4.12 4.02-8.49 2.07-10.8 2.82-2.56 0.833-2.36 4.55-6.07 5.69-2.54 0.785-6.48 0.499-7.73-1.93 4.86 1.2 5.78-4.78 9.19-6.2 3.11-1.29 7.5 0.388 9.9-1.97 2.81-2.76 0.904-7.95 2.53-11.5 1.35-2.96 5.16-4.65 5.8-7.84 0.803-3.97-2.99-7.76-2.87-11.8 0.0877-2.86 2.41-5.34 2.53-8.2 0.0931-2.06-0.873-4.23-1.29-6.05z" style="fill:#b173ff;stroke-width:.265px;stroke:#b173ff"/><path d="m80.4 8.57c1.69-0.591 4.95 1.31 5.46 3.26-1.81-0.771-2.67-0.0605-3.69-0.686-0.858-0.527-0.613-1.8-1.77-2.57z" style="fill:#d3b3ff;stroke-width:.265px;stroke:#d3b3ff"/><path d="m60.8 17.1c-2.15 0.139-3.48 3.13-3.76 5.27-0.317 2.51 2.78 4.55 2.72 7.07-0.041 1.65-2.17 2.88-2 4.51 0.17 1.63 1.43 2.16 2.48 2 2.39-0.374 3.88-3.65 4-6.07 0.107-2.26-1.83-3.58-2.48-5.91-0.444-1.61 0.826-3.17 1.08-4.68 0.164-0.985-1.04-2.26-2.04-2.2z" style="fill:#b173ff;stroke-width:.265px;stroke:#b173ff"/><path d="m77.7 28c-2.15 0.139-3.48 3.13-3.76 5.27-0.317 2.51 2.78 4.55 2.72 7.07-0.041 1.65-2.17 2.88-2 4.51 0.17 1.63 1.43 2.16 2.48 2 2.39-0.374 3.88-3.65 4-6.07 0.107-2.26-1.83-3.58-2.48-5.91-0.444-1.61 0.826-3.17 1.08-4.68 0.164-0.985-1.04-2.26-2.04-2.2z" style="fill:#b173ff;stroke-width:.265px;stroke:#b173ff"/><path d="m66.6 44.9c-2.15 0.139-3.48 3.13-3.76 5.27-0.317 2.51 2.78 4.55 2.72 7.07-0.041 1.65-2.17 2.88-2 4.51 0.17 1.63 1.43 2.16 2.48 2 2.39-0.374 3.88-3.65 4-6.07 0.107-2.26-1.83-3.58-2.48-5.91-0.444-1.61 0.826-3.17 1.08-4.68 0.164-0.985-1.04-2.26-2.04-2.2z" style="fill:#b173ff;stroke-width:.265px;stroke:#b173ff"/><path d="m9.88 72.9c-3.76 1.24-5.84 3.66-6.91 6.68-1.08 3.06 1.57 6.42 1.18 9.67-0.314 2.61-3.15 3.16-3.09 7.53 0.0584 4.21 3.95 7.4 5.61 9.86 1.96 2.91-2.84 5.2 1.41 11.7 2.51 3.85 7.67 3.45 8.06 5.12 0.802 3.46 2.89 7.25 4.86 9.03 2.23 2.03 7.61 2.02 9.04-0.227-1.06-0.75-3.83-1.94-5.15-3.55-1.71-2.08-1.01-6.06-3.2-7.4-3.26-2-6.65-3.19-8.25-6.25-1.48-2.83 0.255-6.17-0.402-9.57-0.678-3.51-5.49-4.46-5.89-8.97-0.511-5.79 3.26-6.25 3.21-9.24-0.0825-4.79-2.62-8.06-0.469-14.4z" style="fill:#450;stroke-width:.265px;stroke:#450"/><path d="m11.9 66.4c1.57-3.02 4.69-4.23 7.58-4.22 2.75 0.0043 4.51 3.18 7.19 4.03 2.68 0.855 4.56-1.74 8.42-0.462 5 1.66 4.23 6.44 7.33 8.94 2.11 1.7 4.63 0.8 7.87 4.89 2.9 3.67 0.114 8.85 2.14 11.4 1.91 2.43 3.98 3.07 5 5.26 3.14 6.74-1.45 8.05-1.33 12.2 0.0976 3.36 2.97 5.32 2.11 9.55-0.608 2.97-3.5 6.57-6.37 6.5 1.15-2.15 1.13-4.24 0.844-6.37-0.29-2.14-2.95-3.85-2.53-5.98 0.664-3.37 3.32-6.29 2.73-9.55-0.65-3.58-5.06-5.43-6.5-8.77-1.49-3.47 1.21-7.06-1.95-11.2-2.26-2.93-5.62-1.87-7.79-3.77-2.59-2.26-2.7-6.93-5.72-8.57-3.22-1.76-5.98 0.099-9.22 0.065-3.53-0.037-3.96-4.77-9.81-4.03z" style="fill:#8a0;stroke-width:.265px;stroke:#8a0"/><path d="m11.8 66.6c-0.294 2.05-1.42 4.14-1.89 6.27-0.459 2.07-0.924 4.18-0.907 6.3 0.0237 2.97 1.75 5.85 1.41 8.8-0.333 2.86-3.53 2.76-3.29 7.99 0.222 4.81 4.59 5.34 5.71 8.6 1.17 3.42-0.932 7.64 0.806 10.8 1.84 3.36 7.22 4.69 9.21 6.89 1.16 6.17 2.62 7.57 7.21 9.99 4.24-2.14 6.6 3.66 11.9 2.46 3.45-1.1 5.22-4.65 6.36-8.4 0.337-1.11 2.29-1.86 3.53-1.83 1.35-1.78 1.3-4.43 0.927-6.63-0.329-1.91-2.88-3.24-2.69-5.17 0.391-3.85 3.45-6.72 2.78-10.2-0.672-3.46-5.04-5.17-6.4-8.42-1.45-3.46 0.568-8.09-1.61-11.1-1.93-2.71-6.51-2.22-8.86-4.57-1.4-1.4-2.28-6.67-5.03-8.19-3.42-1.89-6.37 0.85-9.87 0.199-2.15-0.399-3.36-2.96-5.44-3.63-1.22-0.395-2.65-0.378-3.85-0.139z" style="fill:#668000;stroke-width:.265px;stroke:#668000"/><path d="m14.2 79.7c-2.95-0.372-2.99 4.49-2.5 6.88 0.523 2.53 5.74 4.21 4.73 6.22-1.46 2.89-0.627 4.78 1.05 4.95 2.61 0.258 3.52-4.64 3.11-7.23-0.362-2.3-3.24-3.4-4.6-5.25-1.15-1.57 0.755-5.24-1.8-5.56z" style="fill:#450;stroke-width:.265px;stroke:#450"/><path d="m37.7 86.7c-2.95-0.372-2.99 4.49-2.5 6.88 0.523 2.53 5.74 4.21 4.73 6.22-1.46 2.89-0.627 4.78 1.05 4.95 2.61 0.258 3.52-4.64 3.11-7.23-0.362-2.3-3.24-3.4-4.6-5.25-1.15-1.57 0.755-5.24-1.8-5.56z" style="fill:#450;stroke-width:.265px;stroke:#450"/><path d="m28.1 104c-2.95-0.372-2.99 4.49-2.5 6.88 0.523 2.53 5.74 4.21 4.73 6.22-1.46 2.89-0.627 4.78 1.05 4.95 2.61 0.258 3.52-4.64 3.11-7.23-0.362-2.3-3.24-3.4-4.6-5.25-1.15-1.57 0.755-5.24-1.8-5.56z" style="fill:#450;stroke-width:.265px;stroke:#450"/><path d="m124 67c8e-3 -3.16-5.24-5.92-9-5.14-2.98 0.612-3.69 3-5.91 3.62-3.07 0.863-5.38-1.88-9.58-0.0219-4.48 1.99-3.61 6.18-6.22 8.55-2.38 2.15-5.52 0.841-8.29 4.88-2.97 4.32-0.316 7.53-1.83 10.9-1.2 2.66-4.11 2.72-5.52 6.81-1.04 3.01 0.0148 8.04 1.45 9.44 2.4-2.19 2.35-4.98 3.99-7.17 1.37-1.83 4.53-2.65 4.83-4.9 0.463-3.45-1.26-6.41 1.52-10.7 1.71-2.63 5.74-2.85 8.24-4.64 2.28-1.64 1.63-5.87 5.82-8.06 4.44-2.32 5.77 0.438 8.98-0.0907 2.71-0.446 4.47-3.57 7.17-4.08 1.44-0.272 3.01 0.399 4.35 0.635z" style="fill:#ffe070;stroke-width:.265px;stroke:#ffe070"/><path d="m124 67c0.583 2.09 0.327 4.27 1.82 5.53 1.74 1.48 4.11 1.62 5.35 3.31 3.05 4.14 0.146 8.13 0.093 12.2-0.0434 3.34 3.72 2.92 2.91 10.1-0.379 3.36-4.77 5.34-5.28 8.69-0.589 3.94 1.12 6.83-1.27 10.6-1.62 2.55-5.44 2.86-7.56 5.02-2.72 2.77-1.19 7.42-6.26 9.83-6.03 2.86-7.58-1.18-10.5-1.18-2.78 5e-3 -4.92 3.38-7.66 3.29-6.4-0.226-6.27-3.32-8.61-9.05-1.16-2.83-6.03-0.262-8.41-4.62-3.72-6.83 0.267-8.47 1.05-12.3 0.164-0.798-0.0163-1.55-0.551-2.38 2.36-2 2.31-5.2 4.09-7.38 1.29-1.59 3.79-2.14 4.65-4 1.1-2.39-0.532-5.33 0.031-7.91 1.19-5.44 6.13-5.47 9.88-8.44 3.01-2.39 2.13-6.69 6.59-8.29 3.75-1.34 5.36 1.16 7.95 0.581 2.81-0.624 4.66-4.14 7.53-4.22 1.23-0.0342 3.2 0.314 4.18 0.647z" style="fill:#ffb750;stroke-width:.265px;stroke:#ffb750"/><path d="m132 89.8c-2 1.08-2.11 4.47-3.55 6.46-1.13 1.56-3.19 2.46-3.93 4.24-1.23 2.96 1.06 6.74-0.362 9.61-2.45 4.96-6.59 5.66-8.05 6.72-2.75 2-1.55 6.04-5.1 9.08-1.39 1.19-3.17 2.17-5 2.3-2.59 0.176-4.87-2.53-7.45-2.26-1.95 0.203-3.26 2.34-5.16 2.83-1.52 0.394-3.39 0.303-4.72 0.0198 0.583 2.26 1.97 4.53 5.51 5.53 3.58 1.01 6.27-3.29 9.64-3.11 2.57 0.14 4.88 2.71 7.43 2.04 2.35-0.622 4.53-1.42 6.15-3.95 1.29-2.02 0.865-5.19 2.77-6.66 2.94-2.26 6.4-2.89 8.09-5.73 1.27-2.13 1.07-4.83 0.892-7.39-0.0922-1.32-0.0946-2.5 0.302-3.66 0.998-2.91 4.61-4.69 5.05-7.74 0.414-2.87-0.581-6.26-2.5-8.33z" style="fill:#ea8e50;stroke-width:.265px;stroke:#ea8e50"/><path d="m97.9 84.9c-1.18 1.41 0.561 4.08-1.42 6.04-1.6 1.58-3.1 2.42-3.48 4.19-0.558 2.57-0.367 6.6 2.06 7.6 0.962 0.396 2.56-0.532 2.7-1.56 0.243-1.85-1.71-3.3-0.639-4.97 1.31-2.04 3.76-2.86 4.48-4.97 0.671-1.98 1.02-4.82-0.497-6.25-0.775-0.732-2.51-0.889-3.2-0.071z" style="fill:#ba8050;stroke-width:.265px;stroke:#ba8050"/><path d="m119 80.9c-1.18 1.41 0.561 4.08-1.42 6.04-1.6 1.58-3.1 2.42-3.48 4.19-0.558 2.57-0.367 6.6 2.06 7.6 0.962 0.396 2.56-0.532 2.7-1.56 0.243-1.85-1.71-3.3-0.639-4.97 1.31-2.04 3.76-2.86 4.48-4.97 0.671-1.98 1.02-4.82-0.497-6.25-0.775-0.732-2.51-0.889-3.2-0.071z" style="fill:#ba8050;stroke-width:.265px;stroke:#ba8050"/><path d="m106 105c-1.18 1.41 0.561 4.08-1.42 6.04-1.6 1.58-3.1 2.42-3.48 4.19-0.558 2.57-0.367 6.6 2.06 7.6 0.962 0.396 2.56-0.532 2.7-1.56 0.243-1.85-1.71-3.3-0.639-4.97 1.31-2.04 3.76-2.86 4.48-4.97 0.671-1.98 1.02-4.82-0.497-6.25-0.775-0.732-2.51-0.889-3.2-0.071z" style="fill:#ba8050;stroke-width:.265px;stroke:#ba8050"/></svg>
