<svg width="512" height="512" version="1.1" xmlns="http://www.w3.org/2000/svg"><g><title>background</title><rect id="canvas_background" x="-1" y="-1" width="514" height="514" fill="none"/><g id="canvasGrid" x="0" y="0" width="100%" height="100%" display="none" overflow="visible"><rect width="100%" height="100%" fill="url(#gridpattern)" stroke-width="0"/></g></g><g><title>Layer 1</title><g stroke="null"><g transform="matrix(1.85 -.785 .785 1.85 -735 75.3)" stroke="null"><path d="m372 131c-1.67 6.97-9.13 11.8-9.14 11.8 0 0.062-5.64-7.2-3.81-14.9s10.1-11.7 10.1-11.7c-0.011 0.059 4.48 7.75 2.84 14.7z" fill="#f09418"/><path d="m365 147 1.46-7.51-5.54-0.875-1.28 7.6a193 193 0 0 0 6.88 85.7l5.17-1.62a188 188 0 0 1-6.69-83.3z" fill="#f09418"/><g fill="#ffd203"><path d="m374 147c-4.88 3.8-12.4 2.1-12.4 2.06-0.047 0.033 0.456-8.72 5.66-12.5 5.15-3.71 10.7-1.73 12.5-1.13-0.043 0.03-0.923 7.78-5.76 11.5z"/><path d="m373 161c-4.56 4.16-12.2 3.07-12.2 3.03-0.045 0.036-0.238-8.71 4.65-12.8 4.84-4.09 12.4-2.07 12.4-2.1 0.094 0.835-0.298 7.8-4.82 11.9z"/><path d="m372 175c-4.22 4.51-11.9 4.02-11.9 3.98-0.042 0.038-0.927-8.66 3.62-13.2 4.5-4.46 10.9-3.35 12.2-3.07-0.043 0.034 0.317 7.79-3.87 12.3z"/><path d="m373 189c-3.85 4.83-11.5 4.95-11.6 4.92-0.039 0.04-1.61-8.57 2.56-13.4 4.13-4.8 11.1-4.23 11.9-4.02-0.035 0.037 0.938 7.74-2.88 12.5z"/><path d="m374 203c-3.45 5.14-11.1 5.86-11.1 5.83-0.036 0.043-2.29-8.44 1.49-13.6 3.74-5.12 9.48-4.83 11.5-4.95-0.031 0.041 1.55 7.65-1.88 12.7z"/><path d="m350 143c3.49 5.64 11.3 5.66 11.3 5.7-0.034-0.041 1.93-8.29-1.22-13.9a12.2 12.2 0 0 0-10.8-6.56c-0.039-0.047-2.75 9.05 0.775 14.7z"/><path d="m349 159c3.93 5.34 11.7 4.74 11.7 4.78-0.036-0.038 1.26-8.4-2.32-13.7-3.62-5.36-9.98-5.65-11.3-5.66-0.041-0.042-2.02 9.21 1.95 14.6z"/><path d="m348 175c4.34 5.01 12 3.8 12 3.83-0.04-0.035 0.719-8.57-3.4-13.5-4.02-4.77-10.6-4.84-11.7-4.74-0.048-0.039-1.28 9.32 3.1 14.4z"/><path d="m349 191c4.72 4.65 12.3 2.84 12.3 2.87-0.042-0.034-0.079-8.5-4.46-13.2-4.42-4.72-12.1-3.83-12.1-3.8-0.115 0.757-0.54 9.39 4.23 14.1z"/><path d="m351 207c5.08 4.28 12.5 1.86 12.5 1.9-0.045-0.031-0.757-8.49-5.49-12.8-4.78-4.36-12.3-2.87-12.3-2.83-5e-3 0.713 0.205 9.41 5.34 13.7z"/></g></g><g transform="rotate(54.7 163 127) matrix(.915 -.329 .329 .915 -297 142)"><g transform="matrix(1.94 -.699 .699 1.94 -458 14.2)" stroke="null"><path d="m402 166c-1.67 6.97-9.13 11.8-9.14 11.8 0 0.062-5.64-7.2-3.81-14.9s10.1-11.7 10.1-11.7c-0.011 0.059 4.48 7.75 2.84 14.7z" fill="#f09418"/><path d="m395 181 1.46-7.51-5.54-0.875-1.28 7.6a193 193 0 0 0 6.88 85.7l5.17-1.62a188 188 0 0 1-6.69-83.3z" fill="#f09418"/><g fill="#ffd203"><path d="m404 181c-4.88 3.8-12.4 2.1-12.4 2.06-0.047 0.033 0.456-8.72 5.66-12.5 5.15-3.71 10.7-1.73 12.5-1.13-0.043 0.03-0.923 7.78-5.76 11.5z"/><path d="m403 196c-4.56 4.16-12.2 3.07-12.2 3.03-0.045 0.036-0.238-8.71 4.65-12.8 4.84-4.09 12.4-2.07 12.4-2.1 0.094 0.835-0.298 7.8-4.82 11.9z"/><path d="m402 210c-4.22 4.51-11.9 4.02-11.9 3.98-0.042 0.038-0.927-8.66 3.62-13.2 4.5-4.46 10.9-3.35 12.2-3.07-0.043 0.034 0.317 7.79-3.87 12.3z"/><path d="m403 224c-3.85 4.83-11.5 4.95-11.6 4.92-0.039 0.04-1.61-8.57 2.56-13.4 4.13-4.8 11.1-4.23 11.9-4.02-0.035 0.037 0.938 7.74-2.88 12.5z"/><path d="m405 238c-3.45 5.14-11.1 5.86-11.1 5.83-0.036 0.043-2.29-8.44 1.49-13.6 3.74-5.12 9.48-4.83 11.5-4.95-0.031 0.041 1.55 7.65-1.88 12.7z"/><path d="m381 178c3.49 5.64 11.3 5.66 11.3 5.7-0.034-0.041 1.93-8.29-1.22-13.9a12.2 12.2 0 0 0-10.8-6.56c-0.039-0.047-2.75 9.05 0.775 14.7z"/><path d="m379 194c3.93 5.34 11.7 4.74 11.7 4.78-0.036-0.038 1.26-8.4-2.32-13.7-3.62-5.36-9.98-5.65-11.3-5.66-0.041-0.042-2.02 9.21 1.95 14.6z"/><path d="m378 210c4.34 5.01 12 3.8 12 3.83-0.04-0.035 0.719-8.57-3.4-13.5-4.02-4.77-10.6-4.84-11.7-4.74-0.048-0.039-1.28 9.32 3.1 14.4z"/><path d="m379 226c4.72 4.65 12.3 2.84 12.3 2.87-0.042-0.034-0.079-8.5-4.46-13.2-4.42-4.72-12.1-3.83-12.1-3.8-0.115 0.757-0.54 9.39 4.23 14.1z"/><path d="m381 242c5.08 4.28 12.5 1.86 12.5 1.9-0.045-0.031-0.757-8.49-5.49-12.8-4.78-4.36-12.3-2.87-12.3-2.83-5e-3 0.713 0.205 9.41 5.34 13.7z"/></g></g></g></g><g stroke="null"><g transform="matrix(1.35 0 0 1.35 -239 -225)" stroke="null"><title transform="translate(52.1 148)">Layer 1</title><path d="m430 295c-33.5-0.169-50.5 16.9-50.6 38s16.7 38.3 50.2 38.5c23.5 0.118 61.4-18.4 82.1-29.6 6.57-3.53 6.61-12.9 0.0839-16.5-20.6-11.4-58.4-30.3-81.8-30.4z" fill="#A4E869"/><path d="m380 324c-0.73 2.86-1.1 5.85-1.12 8.93-0.106 21.1 16.7 38.3 50.2 38.5 23.5 0.118 61.4-18.4 82.1-29.6 6.56-3.53 6.61-12.9 0.0839-16.6-0.391-0.221-0.795-0.443-1.21-0.664-20.9 11.2-57.9 29-80.9 28.9-28.6-0.145-45.1-12.7-49.2-29.6h-1e-5z" fill="#54CE3E"/><path d="m231 299s5.79-5.65 16.6-11.8c11-6.3 27.2-13.1 47.9-15.1 40.8-3.87 53.6-48.6 78.2-46.7 24.5 1.92 21 17.5 58.3 29 28.6 8.8 50 16.5 61.4 30.2 3.47 4.17 6.03 8.88 7.6 14.3 6.68 23.4-185 84.3-270 0.0526z" fill="#F9E8D4"/><g transform="matrix(1.01 0 0 1.01 -3155 -2467)" fill="#af7136"><path d="m3349 2736s5.72-5.59 16.4-11.7c13.5 3.63 38.2 9.39 69.3 12.8 17.2 1.89 34.7 2.85 51.8 2.85 43.7 0 84.8-6.13 122-18.2 3.44 4.12 5.97 8.78 7.52 14.2 6.61 23.2-183 83.4-267 0.052z"/><path d="m3658 2965c-6.85 8.51-25.2 7.28-40.9-2.73-1.92-1.22-3.7-2.52-5.36-3.87-27.2 11.8-66.6 19-122 19-60.5 0-103-8.48-132-22-2.49 2.42-5.39 4.72-8.67 6.81-15.7 10-34 11.2-40.9 2.73-6.76-8.37 0.127-23.1 15.4-33.1-38.6-40-21.3-97-5.66-130 7.74-16.5 15.1-27.2 15.1-27.2l287-1.23s10.4 12.9 21.4 32.1c19.8 35 41.4 91 5.47 130 12.3 9.77 17.4 22.6 11.3 30.1v-1e-5z"/></g><path d="m526 369c-0.948 0.394-1.91 0.757-2.9 1.09-47.4 15.8-98.8 23.8-153 23.8-90.6 0-159-22.9-162-23.9-3.5-1.19-6.75-2.79-9.72-4.74 7.82-16.7 15.3-27.5 15.3-27.5l290-1.25c0.00102-0.00102 10.5 13 21.6 32.5v1e-5z" fill="#D8AD8F"/><path d="m420 458h-109c-6.9 0-12.6-5.3-13.2-12.2-1.71-19.9-0.424-40.7 1.25-56.4 1.6-15 3.55-25.2 3.55-25.2l126-2.44c2.08 8.15 3.4 18.1 4.2 28.4 1.56 20.1 1.19 41.8 0.694 55.1-0.263 7.11-6.11 12.7-13.2 12.7z" fill="#fceee0"/><path d="m433 390c-20.5 2.49-41.5 3.75-62.8 3.75-25.7 0-49.7-1.84-70.8-4.52 1.6-15 3.55-25.2 3.55-25.2l126-2.44c2.08 8.15 3.4 18.1 4.2 28.4z" fill="#d8ad8f"/><path d="m370 378c-87.4 0-152-21.6-156-23-14.7-5.01-22.7-21.6-18-36.9 4.78-15.4 20.6-23.8 35.2-18.8 0.338 0.113 34.4 11.5 84.9 17 45.9 5.04 115 6.16 185-17.1 14.7-4.9 30.5 3.64 35.1 19.1 4.68 15.4-3.48 31.9-18.2 36.8-51.7 17.2-103 22.9-148 22.9z" fill="#F9E8D4"/><g transform="matrix(1.01 0 0 1.01 -3155 -2467)" fill="#EFCDB1"><path d="m3535 2722c-4.27 0-7.73-3.46-7.73-7.73v-0.869c0-4.27 3.46-7.73 7.73-7.73s7.73 3.46 7.73 7.73v0.869c1e-3 4.27-3.46 7.73-7.73 7.73z"/><path d="m3509 2724c-4.27 0-7.73-3.46-7.73-7.73v-0.869c0-4.27 3.46-7.73 7.73-7.73s7.73 3.46 7.73 7.73v0.869c0 4.27-3.46 7.73-7.73 7.73z"/><path d="m3491 2702c-4.27 0-7.73-3.46-7.73-7.73v-0.869c0-4.27 3.46-7.73 7.73-7.73s7.73 3.46 7.73 7.73v0.869c0 4.27-3.46 7.73-7.73 7.73z"/><path d="m3469 2726c-4.27 0-7.73-3.46-7.73-7.73v-0.869c0-4.27 3.46-7.73 7.73-7.73s7.73 3.46 7.73 7.73v0.869c0 4.27-3.46 7.73-7.73 7.73z"/></g><g transform="matrix(.111 0 0 .111 -238 -74.5)" stroke="null"><path d="m5569 4450h-18.8c-8.28 0-15-6.72-15-15v-18.8c0-74.4 61.4-125 125-125h18.8c8.28 0 15 6.72 15 15v18.8c0 68.8-55.6 125-125 125z" fill="#ffbe00"/><path d="m5569 4450c69.1 0 125-55.9 125-125v-18.8c0-4.14-1.68-7.89-4.39-10.6l-150 150c2.71 2.71 6.46 4.39 10.6 4.39h18.8z" fill="#f08246"/><path d="m5689 4472-19.8-19.8c-21.2-21.1-49.3-32.8-79.2-32.8-9.9 0-19.6 1.28-28.9 3.76 2.48-9.32 3.76-19 3.76-28.9 0-29.9-11.6-58-32.8-79.2-10.5-10.5-19.8-19.8-19.8-19.8-5.86-5.86-15.4-5.86-21.2 0l-19.8 19.8c-21.1 21.1-32.8 49.3-32.8 79.2v137c0 8.28 6.72 15 15 15h137 8e-3c29.9 0 58-11.6 79.2-32.8l19.8-19.8c5.86-5.86 5.86-15.4-1e-3 -21.2v1e-5z" fill="#fcd956"/><path d="m5590 4546h8e-3c29.9 0 58-11.6 79.2-32.8l19.8-19.8c5.86-5.86 5.86-15.4 0-21.2l-19.8-19.8c-21.2-21.1-49.3-32.8-79.2-32.8-9.9 0-19.6 1.28-28.9 3.76l-118 118c2.71 2.71 6.46 4.39 10.6 4.39h137v1e-5z" fill="#ffbe00"/><path d="m5592 4569-19.8-19.8c-21.2-21.1-49.3-32.8-79.2-32.8-9.9 0-19.6 1.28-28.9 3.76 2.48-9.32 3.76-19 3.76-28.9 0-29.9-11.6-58-32.8-79.2-10.5-10.5-19.8-19.8-19.8-19.8-5.86-5.86-15.4-5.86-21.2 0l-19.8 19.8c-21.1 21.1-32.8 49.3-32.8 79.2v137c0 8.28 6.72 15 15 15h137 8e-3c29.9 0 58-11.6 79.2-32.8l19.8-19.8c5.86-5.86 5.86-15.4-1e-3 -21.2v1e-5z" fill="#ffbe00"/><path d="m5493 4642h8e-3c29.9 0 58-11.6 79.2-32.8l19.8-19.8c5.86-5.86 5.86-15.4 0-21.2l-19.8-19.8c-21.2-21.1-49.3-32.8-79.2-32.8-9.9 0-19.6 1.28-28.9 3.76l-118 118c2.71 2.71 6.46 4.39 10.6 4.39h137v1e-5z" fill="#f08246"/><path d="m5496 4665-19.8-19.8c-21.2-21.1-49.3-32.8-79.2-32.8-9.9 0-19.6 1.28-28.9 3.76 2.48-9.32 3.76-19 3.76-28.9 0-29.9-11.6-58-32.8-79.2l-19.8-19.8c-4.94-4.95-11.2-4.39-10.6-4.39-3.98 0-7.79 1.58-10.6 4.39l-19.8 19.8c-43.3 43.3-44.2 114-2e-3 158l39.6 39.6c44.2 44.2 115 43.3 158-2e-3l19.8-19.8c5.86-5.86 5.85-15.4-1e-3 -21.2z" fill="#fcd956"/></g></g></g></g></svg>
