<svg width="512" height="512" xmlns="http://www.w3.org/2000/svg">
 <!-- Created with Method Draw - http://github.com/duopixel/Method-Draw/ -->

 <g>
  <title>background</title>
  <rect fill="none" id="canvas_background" height="514" width="514" y="-1" x="-1"/>
  <g display="none" overflow="visible" y="0" x="0" height="100%" width="100%" id="canvasGrid">
   <rect fill="url(#gridpattern)" stroke-width="0" y="0" x="0" height="100%" width="100%"/>
  </g>
 </g>
 <g>
  <title>Layer 1</title>
  <g stroke="null" id="svg_196">
   <g stroke="null" id="svg_167">
    <g stroke="null" transform="matrix(1.84830140684344,-0.7850622710741899,0.7850622710741899,1.84830140684344,-735.21117567647,75.26244815829995) " id="svg_182">
     <path stroke="null" id="svg_183" fill="#f09418" d="m371.643022,131.384746c-1.667,6.972 -9.128,11.772 -9.145,11.825c0,0.062 -5.639,-7.2 -3.81,-14.9s10.139,-11.71 10.112,-11.653c-0.011,0.059 4.485,7.748 2.843,14.728z"/>
     <path stroke="null" id="svg_184" fill="#f09418" d="m364.693022,146.749746l1.46,-7.51l-5.542,-0.875l-1.278,7.605a192.955,192.955 0 0 0 6.884,85.687l5.166,-1.625a187.537,187.537 0 0 1 -6.69,-83.282z"/>
     <g stroke="null" id="svg_185" fill="#ffd203">
      <path stroke="null" id="svg_186" d="m374.116022,146.720746c-4.882,3.8 -12.379,2.1 -12.387,2.062c-0.047,0.033 0.456,-8.716 5.66,-12.473c5.152,-3.711 10.661,-1.733 12.488,-1.127c-0.043,0.03 -0.923,7.783 -5.761,11.538z"/>
      <path stroke="null" id="svg_187" d="m372.528022,160.772746c-4.564,4.164 -12.174,3.068 -12.184,3.03c-0.045,0.036 -0.238,-8.708 4.649,-12.85c4.839,-4.093 12.365,-2.066 12.358,-2.1c0.094,0.835 -0.298,7.804 -4.823,11.92z"/>
      <path stroke="null" id="svg_188" d="m372.058022,174.886746c-4.221,4.51 -11.892,4.02 -11.9,3.984c-0.042,0.038 -0.927,-8.659 3.617,-13.166c4.5,-4.457 10.923,-3.348 12.151,-3.07c-0.043,0.034 0.317,7.79 -3.868,12.252z"/>
      <path stroke="null" id="svg_189" d="m372.708022,188.994746c-3.851,4.834 -11.537,4.954 -11.553,4.919c-0.039,0.04 -1.61,-8.569 2.563,-13.419c4.132,-4.8 11.128,-4.226 11.87,-4.022c-0.035,0.037 0.938,7.737 -2.88,12.522z"/>
      <path stroke="null" id="svg_190" d="m374.476022,203.030746c-3.453,5.136 -11.105,5.864 -11.124,5.826c-0.036,0.043 -2.289,-8.436 1.486,-13.608c3.739,-5.115 9.482,-4.829 11.514,-4.953c-0.031,0.041 1.549,7.651 -1.876,12.735z"/>
      <path stroke="null" id="svg_191" d="m350.347022,143.072746c3.49,5.642 11.3,5.661 11.278,5.7c-0.034,-0.041 1.927,-8.292 -1.222,-13.89a12.191,12.191 0 0 0 -10.831,-6.557c-0.039,-0.047 -2.753,9.048 0.775,14.747z"/>
      <path stroke="null" id="svg_192" d="m348.544022,159.021746c3.927,5.335 11.71,4.735 11.694,4.776c-0.036,-0.038 1.264,-8.4 -2.322,-13.716c-3.619,-5.364 -9.977,-5.647 -11.32,-5.662c-0.041,-0.042 -2.021,9.209 1.948,14.602z"/>
      <path stroke="null" id="svg_193" d="m348.011022,175.039746c4.337,5.007 12.049,3.8 12.036,3.833c-0.04,-0.035 0.719,-8.574 -3.4,-13.476c-4.015,-4.774 -10.583,-4.84 -11.735,-4.74c-0.048,-0.039 -1.284,9.323 3.099,14.383z"/>
      <path stroke="null" id="svg_194" d="m348.748022,191.056746c4.721,4.653 12.312,2.835 12.3,2.873c-0.042,-0.034 -0.079,-8.5 -4.458,-13.173c-4.421,-4.717 -12.06,-3.832 -12.072,-3.8c-0.115,0.757 -0.54,9.393 4.23,14.1z"/>
      <path stroke="null" id="svg_195" d="m350.755022,206.981746c5.077,4.276 12.5,1.859 12.493,1.9c-0.045,-0.031 -0.757,-8.492 -5.493,-12.806c-4.781,-4.358 -12.326,-2.87 -12.335,-2.832c-0.005,0.713 0.205,9.413 5.335,13.738z"/>
     </g>
    </g>
   </g>
   <g stroke="null" transform="rotate(54.73468017578125 162.7925262451172,127.08375549316405) matrix(0.9154795503744184,-0.3292500627505514,0.3292500627505514,0.9154795503744184,-297.36764196604173,141.87349188121703) " id="svg_211">
    <g stroke="null" transform="matrix(1.9422876930627517,-0.6985391913549449,0.6985391913549449,1.9422876930627517,-457.9122553626946,14.166091699786278) " id="svg_210">
     <path stroke="null" id="svg_197" fill="#f09418" d="m401.907366,166.1198c-1.667,6.972 -9.128,11.772 -9.145,11.825c0,0.062 -5.639,-7.2 -3.81,-14.9s10.139,-11.71 10.112,-11.653c-0.011,0.059 4.485,7.748 2.843,14.728z"/>
     <path stroke="null" id="svg_198" fill="#f09418" d="m394.957366,181.4848l1.46,-7.51l-5.542,-0.875l-1.278,7.605a192.955,192.955 0 0 0 6.884,85.687l5.166,-1.625a187.537,187.537 0 0 1 -6.69,-83.282z"/>
     <g stroke="null" id="svg_209" fill="#ffd203">
      <path stroke="null" id="svg_199" d="m404.380366,181.4558c-4.882,3.8 -12.379,2.1 -12.387,2.062c-0.047,0.033 0.456,-8.716 5.66,-12.473c5.152,-3.711 10.661,-1.733 12.488,-1.127c-0.043,0.03 -0.923,7.783 -5.761,11.538z"/>
      <path stroke="null" id="svg_200" d="m402.792366,195.5078c-4.564,4.164 -12.174,3.068 -12.184,3.03c-0.045,0.036 -0.238,-8.708 4.649,-12.85c4.839,-4.093 12.365,-2.066 12.358,-2.1c0.094,0.835 -0.298,7.804 -4.823,11.92z"/>
      <path stroke="null" id="svg_201" d="m402.322366,209.6218c-4.221,4.51 -11.892,4.02 -11.9,3.984c-0.042,0.038 -0.927,-8.659 3.617,-13.166c4.5,-4.457 10.923,-3.348 12.151,-3.07c-0.043,0.034 0.317,7.79 -3.868,12.252z"/>
      <path stroke="null" id="svg_202" d="m402.972366,223.7298c-3.851,4.834 -11.537,4.954 -11.553,4.919c-0.039,0.04 -1.61,-8.569 2.563,-13.419c4.132,-4.8 11.128,-4.226 11.87,-4.022c-0.035,0.037 0.938,7.737 -2.88,12.522z"/>
      <path stroke="null" id="svg_203" d="m404.740366,237.7658c-3.453,5.136 -11.105,5.864 -11.124,5.826c-0.036,0.043 -2.289,-8.436 1.486,-13.608c3.739,-5.115 9.482,-4.829 11.514,-4.953c-0.031,0.041 1.549,7.651 -1.876,12.735z"/>
      <path stroke="null" id="svg_204" d="m380.611366,177.8078c3.49,5.642 11.3,5.661 11.278,5.7c-0.034,-0.041 1.927,-8.292 -1.222,-13.89a12.191,12.191 0 0 0 -10.831,-6.557c-0.039,-0.047 -2.753,9.048 0.775,14.747z"/>
      <path stroke="null" id="svg_205" d="m378.808366,193.7568c3.927,5.335 11.71,4.735 11.694,4.776c-0.036,-0.038 1.264,-8.4 -2.322,-13.716c-3.619,-5.364 -9.977,-5.647 -11.32,-5.662c-0.041,-0.042 -2.021,9.209 1.948,14.602z"/>
      <path stroke="null" id="svg_206" d="m378.275366,209.7748c4.337,5.007 12.049,3.8 12.036,3.833c-0.04,-0.035 0.719,-8.574 -3.4,-13.476c-4.015,-4.774 -10.583,-4.84 -11.735,-4.74c-0.048,-0.039 -1.284,9.323 3.099,14.383z"/>
      <path stroke="null" id="svg_207" d="m379.012366,225.7918c4.721,4.653 12.312,2.835 12.3,2.873c-0.042,-0.034 -0.079,-8.5 -4.458,-13.173c-4.421,-4.717 -12.06,-3.832 -12.072,-3.8c-0.115,0.757 -0.54,9.393 4.23,14.1z"/>
      <path stroke="null" id="svg_208" d="m381.019366,241.7168c5.077,4.276 12.5,1.859 12.493,1.9c-0.045,-0.031 -0.757,-8.492 -5.493,-12.806c-4.781,-4.358 -12.326,-2.87 -12.335,-2.832c-0.005,0.713 0.205,9.413 5.335,13.738z"/>
     </g>
    </g>
   </g>
  </g>
  <!-- Created with Method Draw - http://github.com/duopixel/Method-Draw/ -->
  <g stroke="null" id="svg_163">
   <g stroke="null" transform="matrix(1.3525277370618214,0,0,1.3525277370618214,-238.70810521316702,-225.1091262077125) " id="svg_162">
    <title stroke="null" transform="translate(0.9242025017738342,0) translate(-2.842170943040401e-14,0.9242025017738342) translate(-0.931180477142334,0) translate(-0.931180477142334,0) translate(0,-0.931180477142334) translate(0,-0.931180477142334) translate(0,-0.931180477142334) translate(-0.931180477142334,0) translate(-0.931180477142334,0) translate(-137.81471252441406,-33.52249526977539) translate(138.7458953857422,34.453678131103516) translate(59.595550537109375,42.83430099487305) translate(-58.664371490478516,-41.90312194824219) translate(-0.931180477142334,0) translate(-0.931180477142334,0) translate(0.931180477142334,0) translate(0.931180477142334,0) translate(0,-0.9396923780441284) translate(0,-0.9396923780441284) translate(-22.68054962158203,89.73609161376953) translate(-1979.9998779296875,-2051.999755859375) translate(2055.680908203125,0) translate(0,2112.0009765625) ">Layer 1</title>
    <g stroke="null" transform="rotate(-5.252845287322998 151.30203247070193,377.58306884765653) " id="svg_140"/>
    <g stroke="null" id="svg_92">
     <path stroke="null" d="m429.736083,294.903611c-33.51103,-0.16881 -50.49045,16.87227 -50.59659,37.99925c-0.10614,21.12698 16.70042,38.33789 50.21145,38.50772c23.45196,0.11827 61.44515,-18.42496 82.1415,-29.56868c6.56554,-3.53498 6.61305,-12.94205 0.0839,-16.54273c-20.58516,-11.35196 -58.38931,-30.27729 -81.84026,-30.39556z" fill="#A4E869" id="svg_122"/>
     <path stroke="null" d="m380.254463,323.972921c-0.72984,2.85871 -1.10284,5.84682 -1.11902,8.92893c-0.10614,21.12294 16.70548,38.33789 50.21449,38.5067c23.45499,0.11828 61.44414,-18.42495 82.13948,-29.56261c6.56251,-3.53396 6.61002,-12.94103 0.0839,-16.55283c-0.3912,-0.22138 -0.79453,-0.44276 -1.20899,-0.66414c-20.93795,11.19528 -57.91926,29.02686 -80.92442,28.91162c-28.62555,-0.14456 -45.06921,-12.72876 -49.18543,-29.56767l-0.00001,0z" fill="#54CE3E" id="svg_121"/>
     <path stroke="null" d="m230.826063,299.057241c0,0 5.78717,-5.64869 16.58417,-11.81999c11.01029,-6.29969 27.24269,-13.1422 47.86626,-15.09215c40.82157,-3.86856 53.64333,-48.64462 78.20016,-46.71489c24.54571,1.91862 20.97535,17.54348 58.31148,29.01169c28.61745,8.80359 49.98704,16.54172 61.42391,30.21664c3.47433,4.16677 6.03282,8.87839 7.59965,14.34613c6.68179,23.40445 -185.33821,84.34821 -269.98563,0.05257z" fill="#F9E8D4" id="svg_120"/>
     <g stroke="null" id="svg_117" transform="matrix(1.0108603451007923,0,0,1.0108603451007923,-3155.0215276588083,-2467.149561389529) ">
      <path stroke="null" d="m3349.47118,2736.487604c0,0 5.725,-5.58801 16.406,-11.69301c13.507,3.627 38.2,9.394 69.273,12.81101c17.218,1.887 34.657,2.847 51.823,2.847c43.704,0 84.761,-6.126 122.065,-18.209c3.437,4.122 5.968,8.783 7.518,14.192c6.61,23.153 -183.347,83.442 -267.085,0.052z" fill="#af7136" id="svg_119"/>
      <path stroke="null" d="m3657.92918,2965.350594c-6.853,8.509 -25.157,7.27501 -40.878,-2.731c-1.919,-1.223 -3.701,-2.52 -5.356,-3.869c-27.203,11.777 -66.585,19.031 -122.372,19.031c-60.511,0 -102.812,-8.477 -131.839,-21.973c-2.488,2.415 -5.388,4.724 -8.667,6.811c-15.721,10.006 -34.025,11.24 -40.878,2.731c-6.759,-8.37199 0.127,-23.07 15.373,-33.08599c-38.569,-40.045 -21.319,-97.013 -5.662,-130.342c7.739,-16.49 15.088,-27.192 15.088,-27.192l287.065,-1.234c0,0 10.428,12.864 21.362,32.137c19.843,34.953 41.374,90.993 5.472,129.583c12.336,9.774 17.407,22.553 11.292,30.134l0,-0.00001z" fill="#af7136" id="svg_118"/>
     </g>
     <path stroke="null" d="m525.686943,368.954191c-0.94818,0.39423 -1.90749,0.75713 -2.89914,1.08768c-47.40834,15.76336 -98.83384,23.75724 -152.82895,23.75724c-90.56298,0 -158.72327,-22.88285 -161.57996,-23.85327c-3.49555,-1.19383 -6.74648,-2.79301 -9.72043,-4.74296c7.82305,-16.66908 15.25186,-27.48731 15.25186,-27.48731l290.18262,-1.2474c0.00102,-0.00102 10.54126,13.00269 21.594,32.48601l0,0.00001z" fill="#D8AD8F" id="svg_116"/>
     <path stroke="null" d="m420.268363,457.833071l-109.14866,0c-6.89811,0 -12.60239,-5.29994 -13.19577,-12.17278c-1.71239,-19.85026 -0.42355,-40.71442 1.25347,-56.38074c1.59918,-14.99611 3.54913,-25.21692 3.54913,-25.21692l125.87435,-2.44123c2.07833,8.1536 3.39953,18.07621 4.19912,28.4254c1.5638,20.08984 1.18776,41.76167 0.69446,55.05347c-0.26283,7.11141 -6.10964,12.7328 -13.2261,12.7328z" fill="#fceee0" id="svg_115"/>
     <path stroke="null" d="m432.800003,390.046801c-20.48509,2.49379 -41.46044,3.7513 -62.84115,3.7513c-25.72942,0 -49.65649,-1.84381 -70.78145,-4.51956c1.59918,-14.99611 3.54913,-25.21692 3.54913,-25.21692l125.87435,-2.44123c2.07833,8.15461 3.40054,18.07722 4.19912,28.42641z" fill="#d8ad8f" id="svg_114"/>
     <path stroke="null" d="m369.955823,377.810331c-87.44043,0 -152.36799,-21.62028 -156.41851,-23.00212c-14.69892,-5.00983 -22.73627,-21.55054 -17.95086,-36.94189c4.78036,-15.37923 20.5508,-23.80172 35.24163,-18.81111l0,0c0.33763,0.11322 34.40463,11.48035 84.8597,17.02087c45.86981,5.03813 115.2209,6.16221 185.11987,-17.07444c14.73127,-4.89863 30.46935,3.6391 35.1466,19.06685c4.67725,15.42977 -3.47534,31.90679 -18.20863,36.80542c-51.73077,17.19777 -102.75092,22.93642 -147.7898,22.93642z" fill="#F9E8D4" id="svg_113"/>
     <g stroke="null" id="svg_108" transform="matrix(1.0108603451007923,0,0,1.0108603451007923,-3155.0215276588083,-2467.149561389529) ">
      <path stroke="null" d="m3534.92618,2721.868594c-4.267,0 -7.726,-3.45899 -7.726,-7.726l0,-0.869c0,-4.268 3.459,-7.726 7.726,-7.726s7.726,3.459 7.726,7.726l0,0.869c0.001,4.268 -3.458,7.726 -7.726,7.726z" fill="#EFCDB1" id="svg_112"/>
      <path stroke="null" d="m3509.24018,2723.872594c-4.267,0 -7.726,-3.45899 -7.726,-7.726l0,-0.869c0,-4.268 3.459,-7.726 7.726,-7.726s7.726,3.459 7.726,7.726l0,0.869c0,4.268 -3.459,7.726 -7.726,7.726z" fill="#EFCDB1" id="svg_111"/>
      <path stroke="null" d="m3490.58618,2701.975594c-4.267,0 -7.726,-3.45899 -7.726,-7.726l0,-0.869c0,-4.268 3.459,-7.726 7.726,-7.726s7.726,3.459 7.726,7.726l0,0.869c0,4.267 -3.459,7.726 -7.726,7.726z" fill="#EFCDB1" id="svg_110"/>
      <path stroke="null" d="m3469.20118,2725.746604c-4.267,0 -7.726,-3.459 -7.726,-7.726l0,-0.86901c0,-4.268 3.459,-7.726 7.726,-7.726s7.726,3.459 7.726,7.726l0,0.86901c0,4.26699 -3.459,7.726 -7.726,7.726z" fill="#EFCDB1" id="svg_109"/>
     </g>
     <g stroke="null" id="svg_107" transform="matrix(1.0108603451007923,0,0,1.0108603451007923,-3155.0215276588083,-2467.149561389529) "/>
     <g stroke="null" id="svg_106" transform="matrix(1.0108603451007923,0,0,1.0108603451007923,-3155.0215276588083,-2467.149561389529) "/>
     <g stroke="null" id="svg_105" transform="matrix(1.0108603451007923,0,0,1.0108603451007923,-3155.0215276588083,-2467.149561389529) "/>
     <g stroke="null" id="svg_104" transform="matrix(1.0108603451007923,0,0,1.0108603451007923,-3155.0215276588083,-2467.149561389529) "/>
     <g stroke="null" id="svg_103" transform="matrix(1.0108603451007923,0,0,1.0108603451007923,-3155.0215276588083,-2467.149561389529) "/>
     <g stroke="null" id="svg_102" transform="matrix(1.0108603451007923,0,0,1.0108603451007923,-3155.0215276588083,-2467.149561389529) "/>
     <g stroke="null" id="svg_101" transform="matrix(1.0108603451007923,0,0,1.0108603451007923,-3155.0215276588083,-2467.149561389529) "/>
     <g stroke="null" id="svg_100" transform="matrix(1.0108603451007923,0,0,1.0108603451007923,-3155.0215276588083,-2467.149561389529) "/>
     <g stroke="null" id="svg_99" transform="matrix(1.0108603451007923,0,0,1.0108603451007923,-3155.0215276588083,-2467.149561389529) "/>
     <g stroke="null" id="svg_98" transform="matrix(1.0108603451007923,0,0,1.0108603451007923,-3155.0215276588083,-2467.149561389529) "/>
     <g stroke="null" id="svg_97" transform="matrix(1.0108603451007923,0,0,1.0108603451007923,-3155.0215276588083,-2467.149561389529) "/>
     <g stroke="null" id="svg_96" transform="matrix(1.0108603451007923,0,0,1.0108603451007923,-3155.0215276588083,-2467.149561389529) "/>
     <g stroke="null" id="svg_95" transform="matrix(1.0108603451007923,0,0,1.0108603451007923,-3155.0215276588083,-2467.149561389529) "/>
     <g stroke="null" id="svg_94" transform="matrix(1.0108603451007923,0,0,1.0108603451007923,-3155.0215276588083,-2467.149561389529) "/>
     <g stroke="null" id="svg_93" transform="matrix(1.0108603451007923,0,0,1.0108603451007923,-3155.0215276588083,-2467.149561389529) "/>
    </g>
    <g stroke="null" id="svg_83">
     <g stroke="null" id="svg_84" transform="matrix(0.11066789484644814,0,0,0.11066789484644814,-237.70866095284453,-74.49734912361328) ">
      <path stroke="null" d="m5568.52784,4449.525746l-18.822,0c-8.284,0 -15,-6.71599 -15,-15l0,-18.82999c0,-74.444 61.377,-124.703 124.702,-124.703l18.831,0c8.284,0 15,6.71599 15,15l0,18.83c0,68.757 -55.587,124.70299 -124.711,124.70299z" fill="#ffbe00" id="svg_91"/>
      <path stroke="null" d="m5568.52784,4449.525746c69.124,0 124.711,-55.94599 124.711,-124.70299l0,-18.83c0,-4.142 -1.679,-7.892 -4.393,-10.607l-149.747,149.74699c2.714,2.714 6.464,4.393 10.607,4.393l18.822,0z" fill="#f08246" id="svg_90"/>
      <path stroke="null" d="m5688.84584,4472.119756l-19.804,-19.80401c-21.154,-21.145 -49.27,-32.789 -79.177,-32.789c-9.898,0 -19.598,1.284 -28.918,3.759c2.475,-9.321 3.76,-19.023 3.76,-28.925c0,-29.912 -11.649,-58.03 -32.795,-79.167c-10.454,-10.461 -19.798,-19.806 -19.798,-19.806c-5.857,-5.858 -15.355,-5.858 -21.213,0l-19.8,19.8c-21.147,21.138 -32.793,49.255 -32.793,79.17301l0,136.56599c0,8.284 6.716,15 15,15l136.558,0l0.008,0c29.899,0 58.016,-11.645 79.171,-32.791l19.802,-19.802c5.856,-5.859 5.856,-15.356 -0.001,-21.214l0,0.00001z" fill="#fcd956" id="svg_89"/>
      <path stroke="null" d="m5589.86384,4545.925756l0.008,0c29.899,0 58.016,-11.645 79.171,-32.79101l19.802,-19.802c5.858,-5.858 5.858,-15.355 0,-21.213l-19.804,-19.804c-21.154,-21.145 -49.27,-32.789 -79.177,-32.789c-9.897,0 -19.597,1.284 -28.916,3.758l-118.249,118.248c2.714,2.714 6.464,4.393 10.607,4.393l136.558,0l0,0.00001z" fill="#ffbe00" id="svg_88"/>
      <path stroke="null" d="m5592.44484,4568.519756l-19.804,-19.804c-21.154,-21.145 -49.27,-32.78901 -79.177,-32.78901c-9.898,0 -19.598,1.284 -28.918,3.759c2.475,-9.321 3.76,-19.023 3.76,-28.925c0,-29.912 -11.649,-58.03 -32.795,-79.167c-10.454,-10.461 -19.798,-19.806 -19.798,-19.806c-5.857,-5.858 -15.355,-5.858 -21.213,0l-19.8,19.8c-21.147,21.138 -32.793,49.255 -32.793,79.173l0,136.566c0,8.284 6.716,15 15,15l136.558,0l0.008,0c29.899,0 58.016,-11.645 79.171,-32.791l19.802,-19.802c5.857,-5.859 5.857,-15.356 -0.001,-21.214l0,0.00001z" fill="#ffbe00" id="svg_87"/>
      <path stroke="null" d="m5493.46384,4642.325756l0.008,0c29.899,0 58.016,-11.645 79.171,-32.791l19.802,-19.80201c5.858,-5.858 5.858,-15.355 0,-21.213l-19.804,-19.804c-21.154,-21.145 -49.27,-32.789 -79.177,-32.789c-9.897,0 -19.597,1.284 -28.916,3.758l-118.249,118.248c2.714,2.714 6.464,4.393 10.606,4.393l136.559,0l0,0.00001z" fill="#f08246" id="svg_86"/>
      <path stroke="null" d="m5496.04584,4664.919756l-19.805,-19.804c-21.153,-21.144 -49.269,-32.78901 -79.177,-32.78901c-9.898,0 -19.599,1.28401 -28.918,3.759c2.475,-9.32099 3.76,-19.02399 3.76,-28.92599c0,-29.91301 -11.649,-58.03001 -32.795,-79.167l-19.797,-19.806c-4.944,-4.94501 -11.214,-4.394 -10.607,-4.394c-3.978,0 -7.793,1.581 -10.606,4.394l-19.801,19.8c-43.278,43.259 -44.195,114.169 -0.002,158.344l39.599,39.607c44.201,44.181 115.039,43.287 158.347,-0.002l19.803,-19.803c5.857,-5.858 5.851,-15.361 -0.001,-21.213z" fill="#fcd956" id="svg_85"/>
     </g>
    </g>
    <g stroke="null" id="svg_81">
     <g stroke="null" id="svg_82" transform="matrix(1.9029251632208877,0,0,1.9029251632208877,99.21491724568295,-15.696320294822396) "/>
    </g>
   </g>
  </g>
 </g>
</svg>