<svg width="512" height="512" style="enable-background:new 0 0 511.978 511.978" version="1.1" viewBox="0 0 512 512" xml:space="preserve" xmlns="http://www.w3.org/2000/svg">

	
	
	
	
	
	
	
	
	
	
	
	
	
	
	
	
	
	
	
	
	
	
	
	
	
	
	
	
	<g transform="matrix(-.421 .756 -.433 -.241 600 219)"><path d="m253 32.6 3.3-11.3c-1.83 0-3.66 0.667-5.1 2l-4.12 3.82z" style="fill:#42a5f5"/><g style="fill:#fca"><path d="m273 490c-1.09 0.589-2.32 0.898-3.56 0.898h-26c-1.24 0-2.46-0.309-3.56-0.898l-38.2-20.6c-1.91-1.03-3.29-2.84-3.76-4.96l-71.6-320c-0.583-2.6 0.262-5.32 2.22-7.14l123-114c2.88-2.67 7.32-2.67 10.2 0l123 114c1.96 1.82 2.8 4.53 2.22 7.14l-71.6 320c-0.475 2.12-1.85 3.93-3.76 4.96zm34.7-27.2h0.01z" style="fill:#fca"/></g><path d="m256 21.3c-1.83 0-3.66 0.667-5.1 2l-123 114 73.8 69.2z" style="fill:#fca"/><polygon points="256 21.3 202 206 310 206" style="fill:#ffb380"/><path d="m384 137-73.8 69.2-41.1 284c1.24 0 2.46-0.309 3.56-0.898l38.2-20.6c1.91-1.03 3.29-2.84 3.76-4.96l71.6-320c0.582-2.6-0.263-5.32-2.22-7.14zm-76.7 325h0.01z" style="fill:#ffb380"/><path d="m128 137c-1.96 1.82-2.8 4.53-2.22 7.14l71.6 320c0.475 2.12 1.85 3.93 3.76 4.96l38.2 20.6-37.5-283z" style="fill:#ffb380"/><path d="m202 206 37.5 283c1.09 0.589 2.32 0.898 3.56 0.898h26l41.1-284z" style="fill:#fca"/><path d="m321 96c16.1 14.9 23.1 37.3 18.3 58.7l-6.86 30.7 51.5-48.2-123-114c-1.44-1.33-3.27-2-5.1-2l5.76 19.7z" style="fill:#ffb380"/><polygon points="256 21.3 253 32.6 262 41" style="fill:#f95"/><path d="m384 137-51.5 48.2-52.9 236c-0.355 1.59-0.795 3.14-1.28 4.68l-9.26 64.1c1.24 0 2.46-0.309 3.56-0.898l38.2-20.6c1.91-1.03 3.29-2.84 3.76-4.96l71.6-320c0.583-2.6-0.262-5.32-2.22-7.14z" style="fill:#f95"/><path d="m251 460-14.2 7.65 2.93 22.1c0.82 0.442 1.71 0.726 2.63 0.841 0.306 0.038 0.616 0.057 0.926 0.057h26l9.26-64.1c-4.48 14.2-14.3 26.3-27.6 33.4z" style="fill:#ffb380"/><path d="m236 468-3.93 2.12c-1.09 0.589-2.32 0.898-3.56 0.898h-25l35.4 19.1z" style="fill:#f95"/></g><g transform="matrix(-.652 -.0298 .0171 -.373 433 525)"><path d="m253 32.6 3.3-11.3c-1.83 0-3.66 0.667-5.1 2l-4.12 3.82z" style="fill:#42a5f5"/><g style="fill:#fca"><path d="m273 490c-1.09 0.589-2.32 0.898-3.56 0.898h-26c-1.24 0-2.46-0.309-3.56-0.898l-38.2-20.6c-1.91-1.03-3.29-2.84-3.76-4.96l-71.6-320c-0.583-2.6 0.262-5.32 2.22-7.14l123-114c2.88-2.67 7.32-2.67 10.2 0l123 114c1.96 1.82 2.8 4.53 2.22 7.14l-71.6 320c-0.475 2.12-1.85 3.93-3.76 4.96zm34.7-27.2h0.01z" style="fill:#fca"/></g><path d="m256 21.3c-1.83 0-3.66 0.667-5.1 2l-123 114 73.8 69.2z" style="fill:#fca"/><polygon points="310 206 256 21.3 202 206" style="fill:#ffb380"/><path d="m384 137-73.8 69.2-41.1 284c1.24 0 2.46-0.309 3.56-0.898l38.2-20.6c1.91-1.03 3.29-2.84 3.76-4.96l71.6-320c0.582-2.6-0.263-5.32-2.22-7.14zm-76.7 325h0.01z" style="fill:#ffb380"/><path d="m128 137c-1.96 1.82-2.8 4.53-2.22 7.14l71.6 320c0.475 2.12 1.85 3.93 3.76 4.96l38.2 20.6-37.5-283z" style="fill:#ffb380"/><path d="m202 206 37.5 283c1.09 0.589 2.32 0.898 3.56 0.898h26l41.1-284z" style="fill:#fca"/><path d="m321 96c16.1 14.9 23.1 37.3 18.3 58.7l-6.86 30.7 51.5-48.2-123-114c-1.44-1.33-3.27-2-5.1-2l5.76 19.7z" style="fill:#ffb380"/><polygon points="262 41 256 21.3 253 32.6" style="fill:#f95"/><path d="m384 137-51.5 48.2-52.9 236c-0.355 1.59-0.795 3.14-1.28 4.68l-9.26 64.1c1.24 0 2.46-0.309 3.56-0.898l38.2-20.6c1.91-1.03 3.29-2.84 3.76-4.96l71.6-320c0.583-2.6-0.262-5.32-2.22-7.14z" style="fill:#f95"/><path d="m251 460-14.2 7.65 2.93 22.1c0.82 0.442 1.71 0.726 2.63 0.841 0.306 0.038 0.616 0.057 0.926 0.057h26l9.26-64.1c-4.48 14.2-14.3 26.3-27.6 33.4z" style="fill:#ffb380"/><path d="m236 468-3.93 2.12c-1.09 0.589-2.32 0.898-3.56 0.898h-25l35.4 19.1z" style="fill:#f95"/></g><g transform="matrix(.226 -.695 .398 .13 -54.4 391)"><path d="m253 32.6 3.3-11.3c-1.83 0-3.66 0.667-5.1 2l-4.12 3.82z" style="fill:#42a5f5"/><g style="fill:#fca">
		<path d="m273 490c-1.09 0.589-2.32 0.898-3.56 0.898h-26c-1.24 0-2.46-0.309-3.56-0.898l-38.2-20.6c-1.91-1.03-3.29-2.84-3.76-4.96l-71.6-320c-0.583-2.6 0.262-5.32 2.22-7.14l123-114c2.88-2.67 7.32-2.67 10.2 0l123 114c1.96 1.82 2.8 4.53 2.22 7.14l-71.6 320c-0.475 2.12-1.85 3.93-3.76 4.96zm34.7-27.2h0.01z" style="fill:#fca"/>
	</g><path d="m256 21.3c-1.83 0-3.66 0.667-5.1 2l-123 114 73.8 69.2z" style="fill:#fca"/><polygon points="202 206 310 206 256 21.3" style="fill:#ffb380"/><path d="m384 137-73.8 69.2-41.1 284c1.24 0 2.46-0.309 3.56-0.898l38.2-20.6c1.91-1.03 3.29-2.84 3.76-4.96l71.6-320c0.582-2.6-0.263-5.32-2.22-7.14zm-76.7 325h0.01z" style="fill:#ffb380"/><path d="m128 137c-1.96 1.82-2.8 4.53-2.22 7.14l71.6 320c0.475 2.12 1.85 3.93 3.76 4.96l38.2 20.6-37.5-283z" style="fill:#ffb380"/><path d="m202 206 37.5 283c1.09 0.589 2.32 0.898 3.56 0.898h26l41.1-284z" style="fill:#fca"/><path d="m321 96c16.1 14.9 23.1 37.3 18.3 58.7l-6.86 30.7 51.5-48.2-123-114c-1.44-1.33-3.27-2-5.1-2l5.76 19.7z" style="fill:#ffb380"/><polygon points="253 32.6 262 41 256 21.3" style="fill:#f95"/><path d="m384 137-51.5 48.2-52.9 236c-0.355 1.59-0.795 3.14-1.28 4.68l-9.26 64.1c1.24 0 2.46-0.309 3.56-0.898l38.2-20.6c1.91-1.03 3.29-2.84 3.76-4.96l71.6-320c0.583-2.6-0.262-5.32-2.22-7.14z" style="fill:#f95"/><path d="m251 460-14.2 7.65 2.93 22.1c0.82 0.442 1.71 0.726 2.63 0.841 0.306 0.038 0.616 0.057 0.926 0.057h26l9.26-64.1c-4.48 14.2-14.3 26.3-27.6 33.4z" style="fill:#ffb380"/><path d="m236 468-3.93 2.12c-1.09 0.589-2.32 0.898-3.56 0.898h-25l35.4 19.1z" style="fill:#f95"/></g>
	
	
	
	
	
	
	
<g transform="matrix(.746 .0277 -.0159 .428 104 .442)"><path d="m253 32.6 3.3-11.3c-1.83 0-3.66 0.667-5.1 2l-4.12 3.82z" style="fill:#42a5f5"/><g style="fill:#fca"><path d="m273 490c-1.09 0.589-2.32 0.898-3.56 0.898h-26c-1.24 0-2.46-0.309-3.56-0.898l-38.2-20.6c-1.91-1.03-3.29-2.84-3.76-4.96l-71.6-320c-0.583-2.6 0.262-5.32 2.22-7.14l123-114c2.88-2.67 7.32-2.67 10.2 0l123 114c1.96 1.82 2.8 4.53 2.22 7.14l-71.6 320c-0.475 2.12-1.85 3.93-3.76 4.96zm34.7-27.2h0.01z" style="fill:#fca"/></g><path d="m256 21.3c-1.83 0-3.66 0.667-5.1 2l-123 114 73.8 69.2z" style="fill:#fca"/><polygon points="310 206 256 21.3 202 206" style="fill:#ffb380"/><path d="m384 137-73.8 69.2-41.1 284c1.24 0 2.46-0.309 3.56-0.898l38.2-20.6c1.91-1.03 3.29-2.84 3.76-4.96l71.6-320c0.582-2.6-0.263-5.32-2.22-7.14zm-76.7 325h0.01z" style="fill:#ffb380"/><path d="m128 137c-1.96 1.82-2.8 4.53-2.22 7.14l71.6 320c0.475 2.12 1.85 3.93 3.76 4.96l38.2 20.6-37.5-283z" style="fill:#ffb380"/><path d="m202 206 37.5 283c1.09 0.589 2.32 0.898 3.56 0.898h26l41.1-284z" style="fill:#fca"/><path d="m321 96c16.1 14.9 23.1 37.3 18.3 58.7l-6.86 30.7 51.5-48.2-123-114c-1.44-1.33-3.27-2-5.1-2l5.76 19.7z" style="fill:#ffb380"/><polygon points="262 41 256 21.3 253 32.6" style="fill:#f95"/><path d="m384 137-51.5 48.2-52.9 236c-0.355 1.59-0.795 3.14-1.28 4.68l-9.26 64.1c1.24 0 2.46-0.309 3.56-0.898l38.2-20.6c1.91-1.03 3.29-2.84 3.76-4.96l71.6-320c0.583-2.6-0.262-5.32-2.22-7.14z" style="fill:#f95"/><path d="m251 460-14.2 7.65 2.93 22.1c0.82 0.442 1.71 0.726 2.63 0.841 0.306 0.038 0.616 0.057 0.926 0.057h26l9.26-64.1c-4.48 14.2-14.3 26.3-27.6 33.4z" style="fill:#ffb380"/><path d="m236 468-3.93 2.12c-1.09 0.589-2.32 0.898-3.56 0.898h-25l35.4 19.1z" style="fill:#f95"/></g><g transform="matrix(-.542 -.49 .281 -.311 256 547)"><path d="m253 32.6 3.3-11.3c-1.83 0-3.66 0.667-5.1 2l-4.12 3.82z" style="fill:#42a5f5"/><g style="fill:#fca"><path d="m273 490c-1.09 0.589-2.32 0.898-3.56 0.898h-26c-1.24 0-2.46-0.309-3.56-0.898l-38.2-20.6c-1.91-1.03-3.29-2.84-3.76-4.96l-71.6-320c-0.583-2.6 0.262-5.32 2.22-7.14l123-114c2.88-2.67 7.32-2.67 10.2 0l123 114c1.96 1.82 2.8 4.53 2.22 7.14l-71.6 320c-0.475 2.12-1.85 3.93-3.76 4.96zm34.7-27.2h0.01z" style="fill:#fca"/></g><path d="m256 21.3c-1.83 0-3.66 0.667-5.1 2l-123 114 73.8 69.2z" style="fill:#fca"/><polygon points="310 206 256 21.3 202 206" style="fill:#ffb380"/><path d="m384 137-73.8 69.2-41.1 284c1.24 0 2.46-0.309 3.56-0.898l38.2-20.6c1.91-1.03 3.29-2.84 3.76-4.96l71.6-320c0.582-2.6-0.263-5.32-2.22-7.14zm-76.7 325h0.01z" style="fill:#ffb380"/><path d="m128 137c-1.96 1.82-2.8 4.53-2.22 7.14l71.6 320c0.475 2.12 1.85 3.93 3.76 4.96l38.2 20.6-37.5-283z" style="fill:#ffb380"/><path d="m202 206 37.5 283c1.09 0.589 2.32 0.898 3.56 0.898h26l41.1-284z" style="fill:#fca"/><path d="m321 96c16.1 14.9 23.1 37.3 18.3 58.7l-6.86 30.7 51.5-48.2-123-114c-1.44-1.33-3.27-2-5.1-2l5.76 19.7z" style="fill:#ffb380"/><polygon points="262 41 256 21.3 253 32.6" style="fill:#f95"/><path d="m384 137-51.5 48.2-52.9 236c-0.355 1.59-0.795 3.14-1.28 4.68l-9.26 64.1c1.24 0 2.46-0.309 3.56-0.898l38.2-20.6c1.91-1.03 3.29-2.84 3.76-4.96l71.6-320c0.583-2.6-0.262-5.32-2.22-7.14z" style="fill:#f95"/><path d="m251 460-14.2 7.65 2.93 22.1c0.82 0.442 1.71 0.726 2.63 0.841 0.306 0.038 0.616 0.057 0.926 0.057h26l9.26-64.1c-4.48 14.2-14.3 26.3-27.6 33.4z" style="fill:#ffb380"/><path d="m236 468-3.93 2.12c-1.09 0.589-2.32 0.898-3.56 0.898h-25l35.4 19.1z" style="fill:#f95"/></g><g transform="matrix(.279 .589 -.337 .16 391 19.9)"><path d="m253 32.6 3.3-11.3c-1.83 0-3.66 0.667-5.1 2l-4.12 3.82z" style="fill:#42a5f5"/><g style="fill:#fca"><path d="m273 490c-1.09 0.589-2.32 0.898-3.56 0.898h-26c-1.24 0-2.46-0.309-3.56-0.898l-38.2-20.6c-1.91-1.03-3.29-2.84-3.76-4.96l-71.6-320c-0.583-2.6 0.262-5.32 2.22-7.14l123-114c2.88-2.67 7.32-2.67 10.2 0l123 114c1.96 1.82 2.8 4.53 2.22 7.14l-71.6 320c-0.475 2.12-1.85 3.93-3.76 4.96zm34.7-27.2h0.01z" style="fill:#fca"/></g><path d="m256 21.3c-1.83 0-3.66 0.667-5.1 2l-123 114 73.8 69.2z" style="fill:#fca"/><polygon points="256 21.3 202 206 310 206" style="fill:#ffb380"/><path d="m384 137-73.8 69.2-41.1 284c1.24 0 2.46-0.309 3.56-0.898l38.2-20.6c1.91-1.03 3.29-2.84 3.76-4.96l71.6-320c0.582-2.6-0.263-5.32-2.22-7.14zm-76.7 325h0.01z" style="fill:#ffb380"/><path d="m128 137c-1.96 1.82-2.8 4.53-2.22 7.14l71.6 320c0.475 2.12 1.85 3.93 3.76 4.96l38.2 20.6-37.5-283z" style="fill:#ffb380"/><path d="m202 206 37.5 283c1.09 0.589 2.32 0.898 3.56 0.898h26l41.1-284z" style="fill:#fca"/><path d="m321 96c16.1 14.9 23.1 37.3 18.3 58.7l-6.86 30.7 51.5-48.2-123-114c-1.44-1.33-3.27-2-5.1-2l5.76 19.7z" style="fill:#ffb380"/><polygon points="256 21.3 253 32.6 262 41" style="fill:#f95"/><path d="m384 137-51.5 48.2-52.9 236c-0.355 1.59-0.795 3.14-1.28 4.68l-9.26 64.1c1.24 0 2.46-0.309 3.56-0.898l38.2-20.6c1.91-1.03 3.29-2.84 3.76-4.96l71.6-320c0.583-2.6-0.262-5.32-2.22-7.14z" style="fill:#f95"/><path d="m251 460-14.2 7.65 2.93 22.1c0.82 0.442 1.71 0.726 2.63 0.841 0.306 0.038 0.616 0.057 0.926 0.057h26l9.26-64.1c-4.48 14.2-14.3 26.3-27.6 33.4z" style="fill:#ffb380"/><path d="m236 468-3.93 2.12c-1.09 0.589-2.32 0.898-3.56 0.898h-25l35.4 19.1z" style="fill:#f95"/></g><g transform="matrix(.551 -.481 .276 .315 -76.5 143)"><path d="m253 32.6 3.3-11.3c-1.83 0-3.66 0.667-5.1 2l-4.12 3.82z" style="fill:#42a5f5"/><g style="fill:#fca"><path d="m273 490c-1.09 0.589-2.32 0.898-3.56 0.898h-26c-1.24 0-2.46-0.309-3.56-0.898l-38.2-20.6c-1.91-1.03-3.29-2.84-3.76-4.96l-71.6-320c-0.583-2.6 0.262-5.32 2.22-7.14l123-114c2.88-2.67 7.32-2.67 10.2 0l123 114c1.96 1.82 2.8 4.53 2.22 7.14l-71.6 320c-0.475 2.12-1.85 3.93-3.76 4.96zm34.7-27.2h0.01z" style="fill:#fca"/></g><path d="m256 21.3c-1.83 0-3.66 0.667-5.1 2l-123 114 73.8 69.2z" style="fill:#fca"/><polygon points="256 21.3 202 206 310 206" style="fill:#ffb380"/><path d="m384 137-73.8 69.2-41.1 284c1.24 0 2.46-0.309 3.56-0.898l38.2-20.6c1.91-1.03 3.29-2.84 3.76-4.96l71.6-320c0.582-2.6-0.263-5.32-2.22-7.14zm-76.7 325h0.01z" style="fill:#ffb380"/><path d="m128 137c-1.96 1.82-2.8 4.53-2.22 7.14l71.6 320c0.475 2.12 1.85 3.93 3.76 4.96l38.2 20.6-37.5-283z" style="fill:#ffb380"/><path d="m202 206 37.5 283c1.09 0.589 2.32 0.898 3.56 0.898h26l41.1-284z" style="fill:#fca"/><path d="m321 96c16.1 14.9 23.1 37.3 18.3 58.7l-6.86 30.7 51.5-48.2-123-114c-1.44-1.33-3.27-2-5.1-2l5.76 19.7z" style="fill:#ffb380"/><polygon points="256 21.3 253 32.6 262 41" style="fill:#f95"/><path d="m384 137-51.5 48.2-52.9 236c-0.355 1.59-0.795 3.14-1.28 4.68l-9.26 64.1c1.24 0 2.46-0.309 3.56-0.898l38.2-20.6c1.91-1.03 3.29-2.84 3.76-4.96l71.6-320c0.583-2.6-0.262-5.32-2.22-7.14z" style="fill:#f95"/><path d="m251 460-14.2 7.65 2.93 22.1c0.82 0.442 1.71 0.726 2.63 0.841 0.306 0.038 0.616 0.057 0.926 0.057h26l9.26-64.1c-4.48 14.2-14.3 26.3-27.6 33.4z" style="fill:#ffb380"/><path d="m236 468-3.93 2.12c-1.09 0.589-2.32 0.898-3.56 0.898h-25l35.4 19.1z" style="fill:#f95"/></g><g transform="matrix(.559 -.604 .346 .321 2.41 305)"><path d="m253 32.6 3.3-11.3c-1.83 0-3.66 0.667-5.1 2l-4.12 3.82z" style="fill:#42a5f5"/><g style="fill:#fca"><path d="m273 490c-1.09 0.589-2.32 0.898-3.56 0.898h-26c-1.24 0-2.46-0.309-3.56-0.898l-38.2-20.6c-1.91-1.03-3.29-2.84-3.76-4.96l-71.6-320c-0.583-2.6 0.262-5.32 2.22-7.14l123-114c2.88-2.67 7.32-2.67 10.2 0l123 114c1.96 1.82 2.8 4.53 2.22 7.14l-71.6 320c-0.475 2.12-1.85 3.93-3.76 4.96zm34.7-27.2h0.01z" style="fill:#fca"/></g><path d="m256 21.3c-1.83 0-3.66 0.667-5.1 2l-123 114 73.8 69.2z" style="fill:#fca"/><polygon points="256 21.3 202 206 310 206" style="fill:#ffb380"/><path d="m384 137-73.8 69.2-41.1 284c1.24 0 2.46-0.309 3.56-0.898l38.2-20.6c1.91-1.03 3.29-2.84 3.76-4.96l71.6-320c0.582-2.6-0.263-5.32-2.22-7.14zm-76.7 325h0.01z" style="fill:#ffb380"/><path d="m128 137c-1.96 1.82-2.8 4.53-2.22 7.14l71.6 320c0.475 2.12 1.85 3.93 3.76 4.96l38.2 20.6-37.5-283z" style="fill:#ffb380"/><path d="m202 206 37.5 283c1.09 0.589 2.32 0.898 3.56 0.898h26l41.1-284z" style="fill:#fca"/><path d="m321 96c16.1 14.9 23.1 37.3 18.3 58.7l-6.86 30.7 51.5-48.2-123-114c-1.44-1.33-3.27-2-5.1-2l5.76 19.7z" style="fill:#ffb380"/><polygon points="256 21.3 253 32.6 262 41" style="fill:#f95"/><path d="m384 137-51.5 48.2-52.9 236c-0.355 1.59-0.795 3.14-1.28 4.68l-9.26 64.1c1.24 0 2.46-0.309 3.56-0.898l38.2-20.6c1.91-1.03 3.29-2.84 3.76-4.96l71.6-320c0.583-2.6-0.262-5.32-2.22-7.14z" style="fill:#f95"/><path d="m251 460-14.2 7.65 2.93 22.1c0.82 0.442 1.71 0.726 2.63 0.841 0.306 0.038 0.616 0.057 0.926 0.057h26l9.26-64.1c-4.48 14.2-14.3 26.3-27.6 33.4z" style="fill:#ffb380"/><path d="m236 468-3.93 2.12c-1.09 0.589-2.32 0.898-3.56 0.898h-25l35.4 19.1z" style="fill:#f95"/></g>















</svg>
