<svg width="512" height="512" xmlns="http://www.w3.org/2000/svg">

 <g>
  <title>background</title>
  <rect fill="none" id="canvas_background" height="402" width="582" y="-1" x="-1"/>
 </g>
 <g>
  <title>Layer 1</title>
  <g stroke="null" id="svg_171">
   <path stroke="null" id="svg_140" fill="#FFAFC3" d="m210.090141,392.469442l-16.465639,46.652811c-0.47236,1.338811 0.060246,2.823418 1.269897,3.56693c1.427792,0.877879 2.995845,1.568396 4.087733,1.568396c5.138803,0 10.118619,-5.875018 14.963039,-11.591782c3.593592,-4.241855 7.668181,-9.047842 10.948711,-10.359976c0.894484,-0.357045 2.43519,-1.360281 2.717069,-4.074605c0.530548,-5.103457 -5.717092,-19.484013 -13.644996,-26.787181c-1.257766,-1.159072 -3.306833,-0.587675 -3.875813,1.025406z"/>
   <g stroke="null" transform="matrix(0.3463023745973002,0,0,0.3463023745973002,-540.9457358687883,-748.9824012111796) " id="svg_144">
    <path stroke="null" id="svg_141" fill="#FFA5B9" d="m1830.155617,3376.897258l-7.864,-13.102c-15.439,-25.731 -44.644,-39.621 -74.329,-35.427l-8.201,1.164c-2.742,0.392 -5.139,2.044 -6.48,4.462c-11.012,19.876 -6.127,37.323 -1.816,52.716c3.259,11.641 6.079,21.695 2.216,31.935c-0.97,2.574 -0.672,5.496 0.78,7.834c3.005,4.824 42.346,32.982 83.503,36.931c0.28,0.025 0.561,0.039 0.841,0.039c2.764,0 5.389,-1.298 7.062,-3.531c18.256,-24.343 19.938,-56.929 4.288,-83.021z"/>
    <path stroke="null" id="svg_142" fill="#FFA5B9" d="m1925.652617,3077.426258c-26.62,-21.555 -72.686,-18.978 -78.209,-17.097c-2.872,0.983 -5.127,3.424 -5.824,6.376c-1.961,8.303 -8.118,17.711 -14.068,26.808c-10.093,15.43 -20.527,31.383 -16.633,48.688c0.909,4.044 4.501,6.894 8.61,6.894c0.134,0 0.267,-0.004 0.396,-0.009l22.021,-0.983c38.044,-1.7 71.694,-25.192 86.401,-60.319l0,0c1.533,-3.66 0.389,-7.861 -2.694,-10.358z"/>
    <path stroke="null" id="svg_143" fill="#FFA5B9" d="m2211.225617,3243.364258c-14.072,-57.751 -79.049,-81.08 -81.808,-82.046c-4.6,-1.599 -9.632,0.81 -11.248,5.415c-0.699,1.992 -17.008,49.374 -7.808,95.363c9.106,45.528 41.152,89.845 42.511,91.712c1.685,2.307 4.35,3.626 7.136,3.626c0.595,0 1.199,-0.061 1.798,-0.185c3.397,-0.707 6.062,-3.337 6.821,-6.722c2.255,-10.106 16.789,-42.674 27.403,-66.456c16.238,-36.403 16.161,-36.727 15.195,-40.707z"/>
   </g>
   <g stroke="null" transform="matrix(0.3463023745973002,0,0,0.3463023745973002,-540.9457358687883,-748.9824012111796) " id="svg_148">
    <path stroke="null" id="svg_145" fill="#FF9BAF" d="m1854.281617,3131.260258c-1.565,-2.13 -4.005,-3.445 -6.644,-3.587c-37.788,-2.069 -104.106,60.213 -111.544,67.313c-1.022,0.979 -1.794,2.182 -2.25,3.519c-1.121,3.268 -27.109,80.554 0.392,132.649c10.899,20.652 28.606,34.478 52.621,41.096c0.771,0.215 1.561,0.319 2.345,0.319c1.543,0 3.074,-0.405 4.433,-1.194c2.052,-1.19 3.54,-3.156 4.121,-5.453l57.967,-227.249c0.655,-2.563 0.124,-5.283 -1.441,-7.413z"/>
    <path stroke="null" id="svg_146" fill="#FF9BAF" d="m2087.924617,3113.212258c-40.191,-23.178 -55.729,-57.829 -55.871,-58.156c-1.19,-2.746 -3.686,-4.704 -6.64,-5.204c-0.88,-0.151 -89,-14.158 -118.532,54.354c-1.733,4.023 -0.258,8.705 3.467,11.007l210.913,130.406c1.409,0.871 3.022,1.319 4.643,1.319c0.905,0 1.811,-0.138 2.691,-0.418c2.461,-0.789 4.453,-2.613 5.45,-4.992c13.294,-31.662 12.527,-94.501 -46.121,-128.316z"/>
    <path stroke="null" id="svg_147" fill="#FF9BAF" d="m2114.228617,3445.819258c-0.258,-4.467 -3.816,-8.032 -8.282,-8.303l-277.822,-16.857c-3.562,-0.194 -6.993,1.78 -8.528,5.066c-4.881,10.404 -7.502,27.843 -0.22,45.58c9.313,22.691 31.848,40.772 66.986,53.738c17.879,6.597 30.516,12.86 41.665,18.383c13.853,6.864 25.813,12.792 41.527,15.866c4.397,0.858 8.882,1.285 13.417,1.285c21.359,0 43.963,-9.42 64.934,-27.308c4.143,-3.535 10.106,-7.014 16.413,-10.696c22.188,-12.954 52.57,-30.687 49.91,-76.754z"/>
   </g>
   <path stroke="null" id="svg_149" fill="#FF91A5" d="m206.108009,399.544054c-1.592999,-4.840272 -3.24138,-9.845035 -3.878932,-14.796116c-1.110598,-8.637473 -4.501251,-15.097734 -10.078097,-19.204878c-8.499644,-6.264961 -18.880746,-4.535879 -19.318478,-4.458312c-1.001863,0.174547 -1.849947,0.836328 -2.265164,1.763025l-40.689842,91.004114c-0.533292,1.191284 -0.249324,2.590341 0.704736,3.481722c5.174788,4.837497 12.40558,8.283546 19.894724,8.283546c5.422397,0 10.984368,-1.809425 15.993621,-6.208146c6.061679,-5.321286 11.978607,-8.102794 17.701592,-10.793217c9.567304,-4.498818 18.603358,-8.746208 24.468008,-23.554096c3.205722,-8.093782 0.418336,-16.558112 -2.532169,-25.517643z"/>
   <path stroke="null" id="svg_150" fill="#FF879B" d="m174.528687,349.512362c-3.057836,-6.115345 -6.115345,-9.173197 -17.517691,-12.805908c-6.579754,-2.096184 -14.355625,-3.306848 -22.289407,-7.975692c-15.020182,-8.840397 -26.986659,-2.79501 -32.783064,1.592984c-9.855419,7.459364 -15.956233,20.822138 -13.601729,29.786159c0.344931,1.311105 1.509538,2.237801 2.863582,2.280054l79.193802,2.424821c0.031183,0.001372 0.062693,0.001372 0.094204,0.001372c0.559969,0 1.110598,-0.153748 1.589881,-0.446369c2.968497,-1.807008 5.924537,-7.909553 2.450423,-14.857422z"/>
   <path stroke="null" id="svg_151" fill="#FF7D91" d="m142.552514,445.42981l-32.763325,-88.75384c-0.21365,-0.581095 -0.600132,-1.082534 -1.105048,-1.439563c-4.577774,-3.232399 -11.245479,-2.632251 -18.295847,1.64389c-12.65492,7.675789 -25.44006,22.597277 -22.880886,41.555934c1.185734,8.777734 5.134624,13.321223 8.953996,17.713723c2.53839,2.918978 6.476538,8.705686 8.565441,13.240521c7.669553,16.653345 20.426301,27.970841 33.292127,29.53682c1.033015,0.126743 2.056004,0.188049 3.069624,0.188049c7.850321,0 15.106403,-3.732792 20.684636,-10.718409c0.668719,-0.838059 0.850516,-1.962502 0.479283,-2.967125z"/>
   <path stroke="null" id="svg_152" fill="#FF7387" d="m173.21621,361.231246c-6.551689,-6.209549 -13.641893,-8.319235 -19.96052,-5.945336c-0.404833,0.152033 -0.773307,0.388213 -1.080818,0.693993l-50.161897,49.867545c-0.228556,0.227184 -0.419723,0.489667 -0.56725,0.77641c-2.557443,5.007881 -2.018585,13.588211 1.339154,21.353356c2.506879,5.79745 8.79713,16.126258 22.760037,20.175574c3.323469,0.963071 6.775755,1.41984 10.279633,1.41984c20.901436,0 43.547873,-16.26825 50.455921,-38.21413c5.94808,-18.888698 -2.291826,-39.925531 -13.064259,-50.127253z"/>
   <path stroke="null" id="svg_153" fill="#FF6478" d="m141.478634,348.970401c-12.419083,-4.743309 -26.776438,-2.19625 -36.582682,6.473778c-6.802432,6.012145 -16.822341,19.882953 -16.549115,33.454543c0.137143,6.767787 2.954652,12.581858 8.150582,16.81297c6.484505,5.282151 12.989451,6.978693 18.672272,6.978693c7.572605,-0.001388 13.686921,-3.014554 16.345833,-4.571896c0.321013,-0.150973 0.621259,-0.361193 0.88237,-0.628868l28.587267,-29.239693c0.64619,-0.661111 0.960296,-1.57984 0.851218,-2.497899c-1.497423,-12.654577 -8.917637,-22.41615 -20.357745,-26.78163z"/>
   <path stroke="null" id="svg_154" fill="#FF5064" d="m161.203317,374.223472c-5.686969,-7.238432 -14.119429,-11.845627 -23.134716,-12.641433c-7.286205,-0.64619 -14.150971,1.385554 -18.831929,5.561613c-8.486485,7.575723 -11.593513,16.893672 -8.523889,25.567162c1.570485,4.441676 4.695521,8.241652 8.438697,10.642571l0,0c-5.051506,0.685324 -7.943823,6.196047 -5.557809,10.701086c3.378195,6.378545 8.978584,12.003179 16.070503,13.339901c1.758877,0.331429 3.514636,0.494188 5.258608,0.494188c9.165589,0 20.583167,-2.764888 27.374856,-11.105218c7.958027,-9.772675 12.714838,-24.988156 -1.094321,-42.559871z"/>
   <path stroke="null" id="svg_155" fill="#D24150" d="m145.456259,397.414302c-1.814274,-0.130563 -6.234823,3.983862 -11.324076,-1.385554c-2.625328,-2.77008 -3.101493,-7.121371 -1.436819,-10.556007c0.405176,-0.835626 0.902467,-1.565278 1.469702,-2.195548c1.094664,-1.216215 0.215069,-3.107028 -1.411171,-2.926603c-4.31632,0.47894 -8.411334,2.92626 -10.817804,7.224213c-2.756905,4.924077 -2.247842,11.246181 1.305913,15.630012c5.89234,7.268539 16.5259,6.98111 22.096868,0.140947c0.581438,-0.714418 1.062109,-1.471089 1.464151,-2.261345c0.708556,-1.393537 0.85365,-3.511518 -1.346763,-3.670115z"/>
   <g stroke="null" transform="matrix(0.3463023745973002,0,0,0.3463023745973002,-540.9457358687883,-748.9824012111796) " id="svg_156"/>
   <g stroke="null" transform="matrix(0.3463023745973002,0,0,0.3463023745973002,-540.9457358687883,-748.9824012111796) " id="svg_157"/>
   <g stroke="null" transform="matrix(0.3463023745973002,0,0,0.3463023745973002,-540.9457358687883,-748.9824012111796) " id="svg_158"/>
   <g stroke="null" transform="matrix(0.3463023745973002,0,0,0.3463023745973002,-540.9457358687883,-748.9824012111796) " id="svg_159"/>
   <g stroke="null" transform="matrix(0.3463023745973002,0,0,0.3463023745973002,-540.9457358687883,-748.9824012111796) " id="svg_160"/>
   <g stroke="null" transform="matrix(0.3463023745973002,0,0,0.3463023745973002,-540.9457358687883,-748.9824012111796) " id="svg_161"/>
   <g stroke="null" transform="matrix(0.3463023745973002,0,0,0.3463023745973002,-540.9457358687883,-748.9824012111796) " id="svg_162"/>
   <g stroke="null" transform="matrix(0.3463023745973002,0,0,0.3463023745973002,-540.9457358687883,-748.9824012111796) " id="svg_163"/>
   <g stroke="null" transform="matrix(0.3463023745973002,0,0,0.3463023745973002,-540.9457358687883,-748.9824012111796) " id="svg_164"/>
   <g stroke="null" transform="matrix(0.3463023745973002,0,0,0.3463023745973002,-540.9457358687883,-748.9824012111796) " id="svg_165"/>
   <g stroke="null" transform="matrix(0.3463023745973002,0,0,0.3463023745973002,-540.9457358687883,-748.9824012111796) " id="svg_166"/>
   <g stroke="null" transform="matrix(0.3463023745973002,0,0,0.3463023745973002,-540.9457358687883,-748.9824012111796) " id="svg_167"/>
   <g stroke="null" transform="matrix(0.3463023745973002,0,0,0.3463023745973002,-540.9457358687883,-748.9824012111796) " id="svg_168"/>
   <g stroke="null" transform="matrix(0.3463023745973002,0,0,0.3463023745973002,-540.9457358687883,-748.9824012111796) " id="svg_169"/>
   <g stroke="null" transform="matrix(0.3463023745973002,0,0,0.3463023745973002,-540.9457358687883,-748.9824012111796) " id="svg_170"/>
  </g>
  <path id="svg_1" fill="#60b7ff" d="m235.999,504.356c2.23,0 5.74,0.06 10,0.15c-12.16,0.23 -30.48,0.65 -42.67,0.4c13.4,-0.17 27.08,-0.55 32.67,-0.55z"/>
  <path id="svg_2" fill="#60b7ff" d="m288.669,504.906c-12.19,0.25 -30.5,-0.17 -42.67,-0.4c4.27,-0.09 7.78,-0.15 10,-0.15c5.59,0 19.26,0.38 32.67,0.55z"/>
  <path id="svg_3" fill="#c4e2ff" d="m298.165,72.39l-84.545,-0.098l0,-31.621l84.545,0.098l0,31.621z"/>
  <path id="svg_4" fill="#b3dafe" d="m213.62,42.068l84.544,0l0,14.609l-84.544,0l0,-14.609z"/>
  <path id="svg_5" fill="#fcd4d4" d="m340.281,382.687c-1.906,-25.057 -0.876,-50.348 4.385,-74.986c4.122,-19.306 5.288,-41.961 5.288,-61.64c-0.001,0 -93.955,0 -93.955,0c-0.014,0 -93.866,0 -93.867,0c0,19.679 1.078,42.334 5.2,61.64c5.261,24.638 6.292,49.929 4.385,74.986c-2.248,29.546 -11.08,58.079 -10.822,87.567c0.16,18.314 9.836,38.357 30.545,41.098c11.019,1.458 53.419,0 64.559,0s53.54,1.458 64.559,0c20.708,-2.741 30.384,-22.785 30.545,-41.098c0.258,-29.488 -8.575,-58.021 -10.822,-87.567z"/>
  <path id="svg_6" fill="#ffaaaa" d="m351.104,470.254c-0.164,18.312 -9.84,38.361 -30.547,41.096c-5.316,0.699 -17.911,0.73 -30.783,0.566c4.37,-0.093 7.958,-0.267 10.22,-0.566c20.707,-2.735 30.382,-22.784 30.547,-41.096c0.257,-29.488 -8.575,-58.019 -10.827,-87.569c-1.902,-25.056 -0.874,-50.349 4.39,-74.984c4.123,-19.309 5.285,-41.962 5.285,-61.641l20.563,0c0,19.679 -1.162,42.332 -5.285,61.641c-5.264,24.635 -6.292,49.928 -4.39,74.984c2.252,29.55 11.084,58.082 10.827,87.569z"/>
  <path id="svg_7" fill="#ff6666" d="m304.548,42.068l-97.098,0c-2.923,0 -5.293,-2.37 -5.293,-5.293l0,-31.482c0,-2.923 2.37,-5.293 5.293,-5.293l97.098,0c2.923,0 5.293,2.37 5.293,5.293l0,31.482c0,2.923 -2.37,5.293 -5.293,5.293z"/>
  <path id="svg_8" fill="#fcd4d4" d="m349.953,144.111l-51.778,-72.926l-84.526,0l-51.359,72.926l-0.001,0l-0.157,0.223l0,2.771l187.821,0l0,-2.994z"/>
  <path id="svg_9" fill="#ffaaaa" d="m349.953,144.111l-20.612,0l-51.709,-72.926l20.543,0l51.778,72.926z"/>
  <path id="svg_10" fill="#0593fc" d="m349.954,248.911l-187.822,0l0,-104.577l187.822,-0.225l0,104.802z"/>
  <path id="svg_11" fill="#0182fc" d="m329.341,144.109l20.612,0l0,104.802l-20.612,0l0,-104.802z"/>
  <g stroke="null" id="svg_68">
   <path stroke="null" id="svg_22" fill="#5EAC24" d="m285.513939,256.855506c-23.440938,-2.439673 -41.353248,-14.893521 -40.008356,-27.816369c1.344892,-12.923184 21.438036,-21.421585 44.878638,-18.982248c23.440938,2.439673 51.188149,17.680664 50.024545,28.858778c-1.163268,11.17845 -31.454225,20.379512 -54.894827,17.939839z"/>
   <path stroke="null" id="svg_23" fill="#4E901E" d="m290.384221,210.056889c-23.440938,-2.439673 -43.533746,6.059064 -44.878638,18.982248l25.943055,-4.780645c14.350663,-2.644462 29.156561,-1.184754 42.714926,4.211265l26.245538,10.44591c1.162932,-11.177778 -26.584279,-26.419105 -50.024881,-28.858778z"/>
   <path stroke="null" id="svg_24" fill="#47821C" d="m322.255745,240.103106l-74.818096,-7.786341c-1.680947,-0.17491 -2.901623,-1.679604 -2.726713,-3.360216s1.681283,-2.899273 3.360216,-2.726713l74.818096,7.786341c1.680947,0.17491 2.901623,1.679604 2.726713,3.360216c-0.163495,1.573181 -1.37645,2.896252 -3.360216,2.726713z"/>
   <path stroke="null" id="svg_25" fill="#6DC82A" d="m295.126258,231.747721c-19.708745,-12.922848 -41.461014,-14.590702 -48.585316,-3.725143s3.077204,30.149619 22.785613,43.072467s50.844708,18.645521 57.006838,9.247392c6.162466,-9.39813 -11.498726,-35.671532 -31.207135,-48.594716z"/>
   <path stroke="null" id="svg_26" fill="#5EAC24" d="m269.32622,271.095045c-19.708745,-12.922848 -29.909915,-32.207243 -22.785613,-43.072467l18.403132,23.585297c7.910893,10.138727 18.916111,17.416788 31.34243,20.727989l30.047225,8.006237c-6.162466,9.398465 -37.298429,3.675456 -57.007173,-9.247056z"/>
   <path stroke="null" id="svg_27" fill="#47821C" d="m313.015068,267.950361l-20.586315,-13.498607l9.13224,-1.738355c1.660133,-0.316248 2.749878,-1.917629 2.43363,-3.578098c-0.316248,-1.660133 -1.917294,-2.750885 -3.578098,-2.43363l-15.351778,2.921766l-11.030062,-7.232068l9.13224,-1.738355c1.660133,-0.316248 2.749878,-1.917629 2.43363,-3.578098s-1.917965,-2.750549 -3.578098,-2.43363l-15.351778,2.921766l-16.561375,-10.859516c-1.413379,-0.926921 -3.310194,-0.532115 -4.236779,0.880928c-0.926586,1.413043 -0.532115,3.310194 0.880928,4.236779l16.561711,10.859852l3.440453,15.243341c0.775176,3.024496 3.43206,2.362458 3.658335,2.311428c1.648718,-0.371977 2.683405,-2.009952 2.311428,-3.658335l-2.046881,-9.067782l11.030062,7.232068l3.440453,15.243341c0.776183,2.994282 3.431724,2.362458 3.658335,2.311428c1.648718,-0.371977 2.683405,-2.009952 2.311428,-3.658335l-2.046881,-9.067782l20.586315,13.498607c2.083139,1.155882 3.64927,0.014772 4.236779,-0.880928c0.927257,-1.41405 0.533122,-3.311201 -0.879921,-4.237786z"/>
   <path stroke="null" id="svg_28" fill="#91DC5A" d="m223.486082,256.855506c23.440938,-2.439673 41.353248,-14.893521 40.008356,-27.816369c-1.344892,-12.923184 -21.438036,-21.421585 -44.878638,-18.982248c-23.440938,2.439673 -51.187813,17.680999 -50.024881,28.859114s31.454225,20.379177 54.895163,17.939503z"/>
   <path stroke="null" id="svg_29" fill="#6DC82A" d="m218.6158,210.056889c23.440938,-2.439673 43.533746,6.059064 44.878638,18.982248l-29.142125,-6.385048c-13.821569,-3.028189 -28.257169,-1.401293 -41.058151,4.627557l-24.703243,11.634357c-1.162932,-11.178114 26.583943,-26.419441 50.024881,-28.859114z"/>
   <path stroke="null" id="svg_30" fill="#B6E892" d="m213.873763,231.747721c19.708745,-12.922848 41.461014,-14.590702 48.585316,-3.725143s-3.077204,30.149619 -22.785613,43.072467s-50.844708,18.645521 -57.006838,9.247392s11.49839,-35.671532 31.207135,-48.594716z"/>
   <path stroke="null" id="svg_31" fill="#91DC5A" d="m239.673465,271.095045c19.708745,-12.922848 29.909915,-32.207243 22.785613,-43.072467l-13.089365,18.141942c-9.717399,13.468056 -23.839772,23.113276 -39.920733,27.264111l-26.782689,6.91347c6.162466,9.398465 37.298764,3.675456 57.007173,-9.247056z"/>
   <g stroke="null" transform="matrix(0.33571942946611866,0,0,0.33571942946611866,-463.22145707114794,-552.3360523926461) " id="svg_32">
    <path stroke="null" id="svg_33" fill="#47821C" d="m1926.028419,2352.298842c-0.521,-5.007 3.115,-9.488 8.122,-10.009l222.859,-23.193c5.007,-0.521 9.488,3.115 10.009,8.122c0.521,5.007 -3.115,9.488 -8.122,10.009l-222.859,23.193c-7.254,0.46 -9.521,-3.435 -10.009,-8.122z"/>
    <path stroke="null" id="svg_34" fill="#47821C" d="m2163.557419,2323.132842c-2.76,-4.208 -8.41,-5.386 -12.62,-2.624l-49.331,32.347l-45.728,-8.703c-4.943,-0.943 -9.717,2.305 -10.658,7.249c-0.942,4.945 2.305,9.717 7.249,10.658l27.202,5.178l-32.855,21.542l-45.728,-8.703c-4.943,-0.942 -9.717,2.305 -10.658,7.249c-0.942,4.945 2.305,9.717 7.249,10.658l27.202,5.178l-61.32,40.208c-4.209,2.76 -5.385,8.41 -2.624,12.62c1.75,2.668 7.612,5.184 12.62,2.624l61.32,-40.208l-6.097,27.01c-1.108,4.911 1.974,9.789 6.885,10.897c0.676,0.152 8.587,1.858 10.897,-6.885l10.248,-45.405l32.855,-21.542l-6.097,27.01c-1.108,4.911 1.974,9.789 6.885,10.897c0.676,0.152 9.255,1.241 10.897,-6.885l10.248,-45.405l49.332,-32.348c4.213,-2.757 5.388,-8.408 2.627,-12.617z"/>
   </g>
   <path stroke="null" id="svg_35" fill="#C70024" d="m317.453278,160.877685c0,0 3.56534,-29.412715 -25.043662,-24.217457c-2.652855,0.481757 -5.349689,-0.498208 -7.138402,-2.516217c-6.154073,-6.940663 -21.907371,-19.266267 -39.065991,10.351909c-0.810091,0.219561 37.783879,28.55428 37.783879,28.55428l33.464177,-12.172515z"/>
   <g stroke="null" transform="matrix(0.33571942946611866,0,0,0.33571942946611866,-463.22145707114794,-552.3360523926461) " id="svg_36">
    <path stroke="null" id="svg_37" fill="#D80027" d="m1952.451419,2124.433842c0,0 -10.62,-87.611 74.597,-72.136c7.903,1.435 15.935,-1.484 21.263,-7.495c18.331,-20.674 65.255,-57.388 116.365,30.835c2.413,0.654 -112.546,85.054 -112.546,85.054l-99.679,-36.258z"/>
    <path stroke="null" id="svg_38" fill="#D80027" d="m2235.445419,2122.953842c0,0 53.807,-26.748 113.137,-5.545c9.341,3.338 13.542,14.185 8.871,22.935c-12.452,23.328 -33.625,71.073 -32.254,126.249c1.932,77.747 -100.817,155.489 -204.066,70.481c1.915,-2.782 114.312,-214.12 114.312,-214.12z"/>
   </g>
   <path stroke="null" id="svg_39" fill="#C70024" d="m297.002929,157.156571c-0.657674,7.011836 -0.563337,17.235836 3.985661,24.68075c7.601359,12.440755 16.753407,48.234153 -16.161869,62.529087l0,0c-10.850452,1.405322 -23.385208,-1.76152 -35.942794,-12.100335c0.643574,-0.932964 38.377431,-71.883573 38.377431,-71.883573s3.760729,-1.869286 9.741571,-3.225928z"/>
   <path stroke="null" id="svg_40" fill="#FF0C38" d="m221.738662,160.38082c0,0 -18.064055,-8.979823 -37.982289,-1.861564c-3.135955,1.120631 -4.546313,4.76218 -2.978167,7.699725c4.180378,7.831663 11.288566,23.860587 10.828294,42.384242c-0.64861,26.101178 33.846226,52.200678 68.509257,23.661841c-0.643238,-0.933971 -38.377095,-71.884244 -38.377095,-71.884244z"/>
   <path stroke="null" id="svg_41" fill="#D80027" d="m211.996756,157.156571c0.657674,7.011836 0.563337,17.235836 -3.985661,24.68075c-7.601359,12.440755 -16.753407,48.234153 16.161869,62.529087l0,0c10.850452,1.405322 23.385208,-1.76152 35.942794,-12.100335c-0.643574,-0.932964 -38.377431,-71.883573 -38.377431,-71.883573s-3.760729,-1.869286 -9.741571,-3.225928z"/>
   <path stroke="null" id="svg_42" fill="#FF0C38" d="m288.226552,147.988073c0,0 -21.541437,-27.343676 -49.207068,18.64015c0.211168,0.15611 19.133993,15.207419 19.133993,15.207419l30.073075,-33.847569z"/>
   <path stroke="null" id="svg_43" fill="#D80027" d="m239.081928,166.676567c1.184082,0.930614 19.071885,15.159075 19.071885,15.159075l30.073075,-33.847569c0,0 -0.988022,-1.253241 -2.810979,-2.7717l-0.001007,0c0,0 -23.565154,-5.794517 -46.332974,21.460193z"/>
   <path stroke="null" id="svg_44" fill="#FF3F62" d="m220.773133,147.988073c0,0 21.541437,-27.343676 49.207068,18.64015c-0.211168,0.15611 -19.133993,15.207419 -19.133993,15.207419l-30.073075,-33.847569z"/>
   <path stroke="null" id="svg_45" fill="#FF0C38" d="m223.27995,150.809795l27.566258,31.026183c0,0 18.922826,-15.051981 19.133993,-15.207419c-1.770249,-2.942581 -3.515318,-5.582678 -5.231516,-7.951179c-2.766664,-2.698848 -16.693649,-14.577273 -41.468735,-7.867585z"/>
   <path stroke="null" id="svg_46" fill="#FF3F62" d="m292.280364,187.045c-5.392661,-9.522682 -2.882823,-24.22115 -2.882823,-24.22115l-6.562643,-7.048765l-28.335056,26.710174l-28.335391,-26.710174l-6.562643,7.048765c0,0 2.509838,14.698468 -2.882823,24.22115c-6.176566,10.90786 -10.421738,45.923061 37.780857,45.923061s43.957423,-35.015201 37.780522,-45.923061z"/>
   <path stroke="null" id="svg_47" fill="#FF0C38" d="m264.772857,172.801432l-10.273015,9.683827l-28.335391,-26.710174l-6.562643,7.048765c0,0 2.509838,14.698468 -2.882823,24.22115c-6.176566,10.90786 -10.421738,45.923061 37.780857,45.923061c11.903268,0 20.603437,-2.137526 26.870983,-5.517885c-2.275506,-25.062127 -8.759256,-42.507116 -16.597969,-54.648744z"/>
   <path stroke="null" id="svg_48" fill="#FF728B" d="m292.804422,142.789794c-23.94586,6.081222 -36.250984,25.508634 -42.078402,39.045848l7.672868,10.423417c7.837034,-2.907666 14.250954,-6.813426 19.485156,-11.180128c2.989246,-2.493724 4.458354,-6.367926 3.925903,-10.224l-0.981979,-7.107516l4.700072,-0.000336c4.443918,-0.000336 8.502095,-2.586718 10.318672,-6.642209c1.305613,-2.91438 2.278192,-5.608193 2.995289,-7.91425c1.167632,-3.751329 -2.229848,-7.367699 -6.037578,-6.400827z"/>
   <path stroke="null" id="svg_49" fill="#FF3F62" d="m259.733373,165.894341c-3.991368,5.479948 -6.918842,11.088813 -9.007688,15.941301l7.672868,10.423417c4.943804,-1.834035 9.319907,-4.066234 13.192095,-6.559622c-3.483425,-8.110981 -7.568123,-14.605138 -11.857275,-19.805096z"/>
   <path stroke="null" id="svg_50" fill="#FF728B" d="m263.50283,195.694476l-7.34017,-14.777026l-1.663154,1.56781l-28.335391,-26.710174l-6.562643,7.048765c0,0 2.509838,14.698468 -2.882823,24.22115c-6.176902,10.90786 -10.42241,45.923061 37.780522,45.923061c4.493605,0 8.529959,-0.305169 12.153043,-0.86582c1.329785,-17.918353 -3.149384,-36.407765 -3.149384,-36.407765z"/>
   <path stroke="null" id="svg_51" fill="#FF3F62" d="m244.966082,232.448368c-9.509924,-9.278949 -14.538666,-25.28303 -10.2804,-43.017073c2.089853,-8.703862 1.938108,-17.256986 0.723811,-24.939254l-9.247392,-8.717291l-6.562643,7.048765c0,0 2.509838,14.698468 -2.882823,24.22115c-5.735095,10.129327 -9.796964,41.041365 28.249447,45.403703z"/>
   <path stroke="null" id="svg_52" fill="#FFA5B5" d="m210.77608,149.190956c0.717432,2.305721 1.689676,4.999534 2.995289,7.91425c1.816914,4.055491 5.875426,6.641873 10.318672,6.642209l4.700072,0.000336l-0.981979,7.107516c-0.532451,3.855738 0.936657,7.730611 3.925903,10.224c7.745047,6.461256 18.058348,11.920726 31.768458,14.61521c0,0 -8.694798,-43.25577 -46.688837,-52.904682c-3.80773,-0.966872 -7.204875,2.649498 -6.037578,6.401162z"/>
   <g stroke="null" transform="matrix(0.33571942946611866,0,0,0.33571942946611866,-463.22145707114794,-552.3360523926461) " id="svg_53"/>
   <g stroke="null" transform="matrix(0.33571942946611866,0,0,0.33571942946611866,-463.22145707114794,-552.3360523926461) " id="svg_54"/>
   <g stroke="null" transform="matrix(0.33571942946611866,0,0,0.33571942946611866,-463.22145707114794,-552.3360523926461) " id="svg_55"/>
   <g stroke="null" transform="matrix(0.33571942946611866,0,0,0.33571942946611866,-463.22145707114794,-552.3360523926461) " id="svg_56"/>
   <g stroke="null" transform="matrix(0.33571942946611866,0,0,0.33571942946611866,-463.22145707114794,-552.3360523926461) " id="svg_57"/>
   <g stroke="null" transform="matrix(0.33571942946611866,0,0,0.33571942946611866,-463.22145707114794,-552.3360523926461) " id="svg_58"/>
   <g stroke="null" transform="matrix(0.33571942946611866,0,0,0.33571942946611866,-463.22145707114794,-552.3360523926461) " id="svg_59"/>
   <g stroke="null" transform="matrix(0.33571942946611866,0,0,0.33571942946611866,-463.22145707114794,-552.3360523926461) " id="svg_60"/>
   <g stroke="null" transform="matrix(0.33571942946611866,0,0,0.33571942946611866,-463.22145707114794,-552.3360523926461) " id="svg_61"/>
   <g stroke="null" transform="matrix(0.33571942946611866,0,0,0.33571942946611866,-463.22145707114794,-552.3360523926461) " id="svg_62"/>
   <g stroke="null" transform="matrix(0.33571942946611866,0,0,0.33571942946611866,-463.22145707114794,-552.3360523926461) " id="svg_63"/>
   <g stroke="null" transform="matrix(0.33571942946611866,0,0,0.33571942946611866,-463.22145707114794,-552.3360523926461) " id="svg_64"/>
   <g stroke="null" transform="matrix(0.33571942946611866,0,0,0.33571942946611866,-463.22145707114794,-552.3360523926461) " id="svg_65"/>
   <g stroke="null" transform="matrix(0.33571942946611866,0,0,0.33571942946611866,-463.22145707114794,-552.3360523926461) " id="svg_66"/>
   <g stroke="null" transform="matrix(0.33571942946611866,0,0,0.33571942946611866,-463.22145707114794,-552.3360523926461) " id="svg_67"/>
  </g>
  <ellipse ry="19.5" rx="19.5" id="svg_69" cy="334.5" cx="216" stroke-opacity="null" stroke-width="null" stroke="null" fill="#ffffff"/>
  <ellipse ry="8.5" rx="8.5" id="svg_70" cy="380.5" cx="260" stroke-opacity="null" stroke-width="null" stroke="null" fill="#ffffff"/>
  <ellipse ry="6.5" rx="6.5" id="svg_71" cy="419.5" cx="297" stroke-opacity="null" stroke-width="null" stroke="null" fill="#ffffff"/>
  <g stroke="null" id="svg_107">
   <path stroke="null" id="svg_76" fill="#FFAFC3" d="m492.522593,414.372197l-17.594527,49.851346c-0.504741,1.430594 0.064388,3.016976 1.356955,3.811463c1.525695,0.938064 3.201259,1.675934 4.368011,1.675934c5.491097,0 10.812343,-6.277813 15.988902,-12.386515c3.839956,-4.532681 8.193905,-9.668164 11.699341,-11.070265c0.955826,-0.381516 2.602156,-1.453537 2.903373,-4.353949c0.566909,-5.453352 -6.109072,-20.819839 -14.580511,-28.623717c-1.344003,-1.23854 -3.533559,-0.627966 -4.141543,1.095703z"/>
   <g stroke="null" transform="matrix(0.3700449516659681,0,0,0.3700449516659681,-659.4840107131906,-871.7162622166456) " id="svg_77">
    <path stroke="null" id="svg_78" fill="#FFA5B9" d="m2774.580141,3556.276522l-7.864,-13.102c-15.439,-25.731 -44.644,-39.621 -74.329,-35.427l-8.201,1.164c-2.742,0.392 -5.139,2.044 -6.48,4.462c-11.012,19.876 -6.127,37.323 -1.816,52.716c3.259,11.641 6.079,21.695 2.216,31.935c-0.97,2.574 -0.672,5.496 0.78,7.834c3.005,4.824 42.346,32.982 83.503,36.931c0.28,0.025 0.561,0.039 0.841,0.039c2.764,0 5.389,-1.298 7.062,-3.531c18.256,-24.343 19.938,-56.929 4.288,-83.021z"/>
    <path stroke="null" id="svg_79" fill="#FFA5B9" d="m2870.077141,3256.805522c-26.62,-21.555 -72.686,-18.978 -78.209,-17.097c-2.872,0.983 -5.127,3.424 -5.824,6.376c-1.961,8.303 -8.118,17.711 -14.068,26.808c-10.093,15.43 -20.527,31.383 -16.633,48.688c0.909,4.044 4.501,6.894 8.61,6.894c0.134,0 0.267,-0.004 0.396,-0.009l22.021,-0.983c38.044,-1.7 71.694,-25.192 86.401,-60.319l0,0c1.533,-3.66 0.389,-7.861 -2.694,-10.358z"/>
    <path stroke="null" id="svg_80" fill="#FFA5B9" d="m3155.650141,3422.743522c-14.072,-57.751 -79.049,-81.08 -81.808,-82.046c-4.6,-1.599 -9.632,0.81 -11.248,5.415c-0.699,1.992 -17.008,49.374 -7.808,95.363c9.106,45.528 41.152,89.845 42.511,91.712c1.685,2.307 4.35,3.626 7.136,3.626c0.595,0 1.199,-0.061 1.798,-0.185c3.397,-0.707 6.062,-3.337 6.821,-6.722c2.255,-10.106 16.789,-42.674 27.403,-66.456c16.238,-36.403 16.161,-36.727 15.195,-40.707z"/>
   </g>
   <g stroke="null" transform="matrix(0.3700449516659681,0,0,0.3700449516659681,-659.4840107131906,-871.7162622166456) " id="svg_81">
    <path stroke="null" id="svg_82" fill="#FF9BAF" d="m2798.706141,3310.639522c-1.565,-2.13 -4.005,-3.445 -6.644,-3.587c-37.788,-2.069 -104.106,60.213 -111.544,67.313c-1.022,0.979 -1.794,2.182 -2.25,3.519c-1.121,3.268 -27.109,80.554 0.392,132.649c10.899,20.652 28.606,34.478 52.621,41.096c0.771,0.215 1.561,0.319 2.345,0.319c1.543,0 3.074,-0.405 4.433,-1.194c2.052,-1.19 3.54,-3.156 4.121,-5.453l57.967,-227.249c0.655,-2.563 0.124,-5.283 -1.441,-7.413z"/>
    <path stroke="null" id="svg_83" fill="#FF9BAF" d="m3032.349141,3292.591522c-40.191,-23.178 -55.729,-57.829 -55.871,-58.156c-1.19,-2.746 -3.686,-4.704 -6.64,-5.204c-0.88,-0.151 -89,-14.158 -118.532,54.354c-1.733,4.023 -0.258,8.705 3.467,11.007l210.913,130.406c1.409,0.871 3.022,1.319 4.643,1.319c0.905,0 1.811,-0.138 2.691,-0.418c2.461,-0.789 4.453,-2.613 5.45,-4.992c13.294,-31.662 12.527,-94.501 -46.121,-128.316z"/>
    <path stroke="null" id="svg_84" fill="#FF9BAF" d="m3058.653141,3625.198522c-0.258,-4.467 -3.816,-8.032 -8.282,-8.303l-277.822,-16.857c-3.562,-0.194 -6.993,1.78 -8.528,5.066c-4.881,10.404 -7.502,27.843 -0.22,45.58c9.313,22.691 31.848,40.772 66.986,53.738c17.879,6.597 30.516,12.86 41.665,18.383c13.853,6.864 25.813,12.792 41.527,15.866c4.397,0.858 8.882,1.285 13.417,1.285c21.359,0 43.963,-9.42 64.934,-27.308c4.143,-3.535 10.106,-7.014 16.413,-10.696c22.188,-12.954 52.57,-30.687 49.91,-76.754z"/>
   </g>
   <path stroke="null" id="svg_85" fill="#FF91A5" d="m488.267447,421.931845c-1.702207,-5.172118 -3.463621,-10.520008 -4.144874,-15.810541c-1.186734,-9.229661 -4.809844,-16.13285 -10.769048,-20.521583c-9.082383,-6.694483 -20.175221,-4.846849 -20.642958,-4.763959c-1.07054,0.186503 -1.97678,0.893659 -2.420464,1.883899l-43.479542,97.243373c-0.569869,1.272955 -0.266432,2.767936 0.753041,3.720432c5.529582,5.169158 13.25612,8.851475 21.258712,8.851475c5.794164,0 11.737456,-1.933485 17.090156,-6.633796c6.477267,-5.686111 12.799855,-8.658312 18.915218,-11.533191c10.223232,-4.807254 19.878815,-9.345855 26.145526,-25.168977c3.425506,-8.648691 0.447014,-17.693329 -2.705769,-27.267132z"/>
   <path stroke="null" id="svg_86" fill="#FF879B" d="m454.523047,368.469971c-3.267497,-6.534624 -6.534624,-9.802121 -18.718724,-13.683892c-7.030854,-2.239882 -15.339843,-3.533559 -23.817573,-8.522505c-16.04996,-9.446508 -28.836863,-2.986633 -35.030675,1.702207c-10.531109,7.970768 -17.050191,22.249693 -14.534256,31.828306c0.368565,1.40099 1.613026,2.39123 3.059902,2.436376l84.62336,2.591055c0.033304,0.00148 0.066978,0.00148 0.100652,0.00148c0.598363,0 1.186734,-0.1643 1.698876,-0.476988c3.172025,-1.930895 6.330729,-8.451827 2.618438,-15.876039z"/>
   <path stroke="null" id="svg_87" fill="#FF7D91" d="m420.354577,470.963541l-35.009583,-94.838821c-0.228318,-0.620935 -0.641288,-1.156761 -1.180813,-1.538277c-4.891624,-3.454 -12.01647,-2.812712 -19.550215,1.756603c-13.522553,8.202046 -27.184242,24.146543 -24.44961,44.405024c1.267034,9.379529 5.486656,14.234519 9.567882,18.928169c2.712429,3.119109 6.920581,9.30256 9.152692,14.148299c8.195386,17.795092 21.826731,29.888531 35.574641,31.561874c1.103844,0.135436 2.196957,0.200934 3.280078,0.200934c8.388549,0 16.142101,-3.988715 22.102785,-11.453261c0.714557,-0.895509 0.90883,-2.097045 0.512142,-3.170545z"/>
   <path stroke="null" id="svg_88" fill="#FF7387" d="m453.120577,380.992292c-7.00088,-6.635276 -14.577181,-8.88959 -21.329021,-6.352932c-0.432583,0.16245 -0.82631,0.41482 -1.15491,0.74157l-53.601011,53.286473c-0.24423,0.242749 -0.448494,0.523244 -0.606134,0.829641c-2.732782,5.35122 -2.156992,14.519824 1.430964,22.817342c2.678755,6.194923 9.400252,17.231883 24.320464,21.558819c3.551321,1.029095 7.2403,1.517184 10.984414,1.517184c22.334433,0 46.533523,-17.383602 53.915179,-40.83409c6.355892,-20.183732 -2.448957,-42.662853 -13.959946,-53.564007z"/>
   <path stroke="null" id="svg_89" fill="#FF6478" d="m419.207067,367.89085c-13.270552,-5.068506 -28.612246,-2.346825 -39.090809,6.91762c-7.268793,6.42435 -17.975674,21.246131 -17.683708,35.748193c0.146538,7.231788 3.157224,13.444473 8.709378,17.965682c6.929092,5.644296 13.880016,7.457146 19.952454,7.457146c8.091773,-0.00148 14.625287,-3.221241 17.466492,-4.885333c0.343032,-0.16134 0.663861,-0.385957 0.942875,-0.672002l30.547211,-31.244375c0.690504,-0.706416 1.026135,-1.688145 0.90957,-2.669134c-1.600074,-13.522183 -9.529028,-23.95301 -21.753463,-28.617796z"/>
   <path stroke="null" id="svg_90" fill="#FF5064" d="m440.284088,394.875268c-6.076878,-7.73468 -15.087473,-12.657758 -24.720853,-13.508121c-7.785746,-0.690504 -15.121147,1.48055 -20.123044,5.942922c-9.068322,8.095103 -12.388365,18.051903 -9.108286,27.320049c1.678154,4.746197 5.017439,8.8067 9.017255,11.372221l0,0c-5.397846,0.732319 -8.488461,6.620844 -5.938851,11.434759c3.609789,6.815858 9.594155,12.826128 17.172306,14.254502c1.879458,0.354133 3.755586,0.528054 5.619133,0.528054c9.79398,0 21.994362,-2.954439 29.251683,-11.866602c8.503633,-10.442669 13.58657,-26.701334 -1.169342,-45.477784z"/>
   <path stroke="null" id="svg_91" fill="#D24150" d="m423.457404,419.656069c-1.938666,-0.139507 -6.662289,4.256997 -12.10047,-1.48055c-2.805311,-2.95999 -3.314123,-7.609604 -1.535317,-11.27971c0.432953,-0.892918 0.964337,-1.672603 1.570471,-2.346085c1.169712,-1.299598 0.229798,-3.320043 -1.507933,-3.12725c-4.61224,0.511772 -8.988022,3.12688 -11.559464,7.719508c-2.945928,5.261669 -2.401962,12.01721 1.39544,16.701609c6.296315,7.766873 17.658915,7.459736 23.611828,0.150608c0.621305,-0.763403 1.134928,-1.571951 1.56455,-2.416394c0.757112,-1.489061 0.912161,-3.752256 -1.439105,-3.921736z"/>
   <g stroke="null" transform="matrix(0.3700449516659681,0,0,0.3700449516659681,-659.4840107131906,-871.7162622166456) " id="svg_92"/>
   <g stroke="null" transform="matrix(0.3700449516659681,0,0,0.3700449516659681,-659.4840107131906,-871.7162622166456) " id="svg_93"/>
   <g stroke="null" transform="matrix(0.3700449516659681,0,0,0.3700449516659681,-659.4840107131906,-871.7162622166456) " id="svg_94"/>
   <g stroke="null" transform="matrix(0.3700449516659681,0,0,0.3700449516659681,-659.4840107131906,-871.7162622166456) " id="svg_95"/>
   <g stroke="null" transform="matrix(0.3700449516659681,0,0,0.3700449516659681,-659.4840107131906,-871.7162622166456) " id="svg_96"/>
   <g stroke="null" transform="matrix(0.3700449516659681,0,0,0.3700449516659681,-659.4840107131906,-871.7162622166456) " id="svg_97"/>
   <g stroke="null" transform="matrix(0.3700449516659681,0,0,0.3700449516659681,-659.4840107131906,-871.7162622166456) " id="svg_98"/>
   <g stroke="null" transform="matrix(0.3700449516659681,0,0,0.3700449516659681,-659.4840107131906,-871.7162622166456) " id="svg_99"/>
   <g stroke="null" transform="matrix(0.3700449516659681,0,0,0.3700449516659681,-659.4840107131906,-871.7162622166456) " id="svg_100"/>
   <g stroke="null" transform="matrix(0.3700449516659681,0,0,0.3700449516659681,-659.4840107131906,-871.7162622166456) " id="svg_101"/>
   <g stroke="null" transform="matrix(0.3700449516659681,0,0,0.3700449516659681,-659.4840107131906,-871.7162622166456) " id="svg_102"/>
   <g stroke="null" transform="matrix(0.3700449516659681,0,0,0.3700449516659681,-659.4840107131906,-871.7162622166456) " id="svg_103"/>
   <g stroke="null" transform="matrix(0.3700449516659681,0,0,0.3700449516659681,-659.4840107131906,-871.7162622166456) " id="svg_104"/>
   <g stroke="null" transform="matrix(0.3700449516659681,0,0,0.3700449516659681,-659.4840107131906,-871.7162622166456) " id="svg_105"/>
   <g stroke="null" transform="matrix(0.3700449516659681,0,0,0.3700449516659681,-659.4840107131906,-871.7162622166456) " id="svg_106"/>
  </g>
  <g stroke="null" id="svg_139">
   <path stroke="null" id="svg_108" fill="#FFAFC3" d="m105.475941,454.404802l-10.560652,29.92195c-0.302956,0.858676 0.038645,1.810863 0.814478,2.287736c0.915757,0.563048 1.921468,1.005935 2.621778,1.005935c3.295893,0 6.489829,-3.768091 9.596918,-7.43468c2.304837,-2.720626 4.918177,-5.803063 7.022223,-6.644632c0.573708,-0.228999 1.561872,-0.872452 1.742669,-2.613347c0.340274,-3.273231 -3.666805,-12.49656 -8.751563,-17.180632c-0.806703,-0.743398 -2.120924,-0.376921 -2.48585,0.65767z"/>
   <g stroke="null" transform="matrix(0.22210970877779188,0,0,0.22210970877779188,-332.3452802665735,-318.52160095788406) " id="svg_112">
    <path stroke="null" id="svg_109" fill="#FFA5B9" d="m1632.62051,3560.71474l-7.864,-13.102c-15.439,-25.731 -44.644,-39.621 -74.329,-35.427l-8.201,1.164c-2.742,0.392 -5.139,2.044 -6.48,4.462c-11.012,19.876 -6.127,37.323 -1.816,52.716c3.259,11.641 6.079,21.695 2.216,31.935c-0.97,2.574 -0.672,5.496 0.78,7.834c3.005,4.824 42.346,32.982 83.503,36.931c0.28,0.025 0.561,0.039 0.841,0.039c2.764,0 5.389,-1.298 7.062,-3.531c18.256,-24.343 19.938,-56.929 4.288,-83.021z"/>
    <path stroke="null" id="svg_110" fill="#FFA5B9" d="m1728.11751,3261.24374c-26.62,-21.555 -72.686,-18.978 -78.209,-17.097c-2.872,0.983 -5.127,3.424 -5.824,6.376c-1.961,8.303 -8.118,17.711 -14.068,26.808c-10.093,15.43 -20.527,31.383 -16.633,48.688c0.909,4.044 4.501,6.894 8.61,6.894c0.134,0 0.267,-0.004 0.396,-0.009l22.021,-0.983c38.044,-1.7 71.694,-25.192 86.401,-60.319l0,0c1.533,-3.66 0.389,-7.861 -2.694,-10.358z"/>
    <path stroke="null" id="svg_111" fill="#FFA5B9" d="m2013.69051,3427.18174c-14.072,-57.751 -79.049,-81.08 -81.808,-82.046c-4.6,-1.599 -9.632,0.81 -11.248,5.415c-0.699,1.992 -17.008,49.374 -7.808,95.363c9.106,45.528 41.152,89.845 42.511,91.712c1.685,2.307 4.35,3.626 7.136,3.626c0.595,0 1.199,-0.061 1.798,-0.185c3.397,-0.707 6.062,-3.337 6.821,-6.722c2.255,-10.106 16.789,-42.674 27.403,-66.456c16.238,-36.403 16.161,-36.727 15.195,-40.707z"/>
   </g>
   <g stroke="null" transform="matrix(0.22210970877779188,0,0,0.22210970877779188,-332.3452802665735,-318.52160095788406) " id="svg_116">
    <path stroke="null" id="svg_113" fill="#FF9BAF" d="m1656.74651,3315.07774c-1.565,-2.13 -4.005,-3.445 -6.644,-3.587c-37.788,-2.069 -104.106,60.213 -111.544,67.313c-1.022,0.979 -1.794,2.182 -2.25,3.519c-1.121,3.268 -27.109,80.554 0.392,132.649c10.899,20.652 28.606,34.478 52.621,41.096c0.771,0.215 1.561,0.319 2.345,0.319c1.543,0 3.074,-0.405 4.433,-1.194c2.052,-1.19 3.54,-3.156 4.121,-5.453l57.967,-227.249c0.655,-2.563 0.124,-5.283 -1.441,-7.413z"/>
    <path stroke="null" id="svg_114" fill="#FF9BAF" d="m1890.38951,3297.02974c-40.191,-23.178 -55.729,-57.829 -55.871,-58.156c-1.19,-2.746 -3.686,-4.704 -6.64,-5.204c-0.88,-0.151 -89,-14.158 -118.532,54.354c-1.733,4.023 -0.258,8.705 3.467,11.007l210.913,130.406c1.409,0.871 3.022,1.319 4.643,1.319c0.905,0 1.811,-0.138 2.691,-0.418c2.461,-0.789 4.453,-2.613 5.45,-4.992c13.294,-31.662 12.527,-94.501 -46.121,-128.316z"/>
    <path stroke="null" id="svg_115" fill="#FF9BAF" d="m1916.69351,3629.63674c-0.258,-4.467 -3.816,-8.032 -8.282,-8.303l-277.822,-16.857c-3.562,-0.194 -6.993,1.78 -8.528,5.066c-4.881,10.404 -7.502,27.843 -0.22,45.58c9.313,22.691 31.848,40.772 66.986,53.738c17.879,6.597 30.516,12.86 41.665,18.383c13.853,6.864 25.813,12.792 41.527,15.866c4.397,0.858 8.882,1.285 13.417,1.285c21.359,0 43.963,-9.42 64.934,-27.308c4.143,-3.535 10.106,-7.014 16.413,-10.696c22.188,-12.954 52.57,-30.687 49.91,-76.754z"/>
   </g>
   <path stroke="null" id="svg_117" fill="#FF91A5" d="m102.921903,458.942278c-1.021709,-3.104428 -2.078947,-6.314354 -2.487856,-9.489855c-0.712305,-5.539863 -2.886984,-9.683317 -6.463834,-12.317537c-5.451459,-4.018187 -12.109643,-2.909199 -12.390391,-2.859446c-0.642567,0.111946 -1.186509,0.536398 -1.452818,1.130763l-26.097449,58.367763c-0.342048,0.764062 -0.159917,1.661383 0.451996,2.233094c3.31898,3.102654 7.956631,5.312862 12.759977,5.312862c3.477793,0 7.045102,-1.160522 10.257913,-3.981756c3.887813,-3.412938 7.682778,-5.196927 11.353363,-6.922495c6.136226,-2.885426 11.93173,-5.609601 15.693165,-15.107015c2.056069,-5.19115 0.268307,-10.619954 -1.624066,-16.366377z"/>
   <path stroke="null" id="svg_118" fill="#FF879B" d="m82.667713,426.853201c-1.961224,-3.922231 -3.922231,-5.883462 -11.235416,-8.213391c-4.220088,-1.344435 -9.207339,-2.120931 -14.295869,-5.115411c-9.633565,-5.670013 -17.308568,-1.792645 -21.026236,1.021702c-6.321026,4.784247 -10.233931,13.354796 -8.723809,19.104105c0.221223,0.840905 0.968177,1.43527 1.836627,1.462367l50.792936,1.555214c0.019993,0.000887 0.040203,0.000887 0.06042,0.000887c0.359149,0 0.712305,-0.098617 1.019704,-0.286295c1.90392,-1.158971 3.799848,-5.072987 1.571645,-9.529178z"/>
   <path stroke="null" id="svg_119" fill="#FF7D91" d="m62.158992,488.37226l-21.013578,-56.924495c-0.137039,-0.372702 -0.384912,-0.694317 -0.708749,-0.923308c-2.936073,-2.073177 -7.21257,-1.688257 -11.734503,1.054353c-8.116555,4.92306 -16.316625,14.493327 -14.675228,26.652938c0.760499,5.629818 3.293217,8.543899 5.742867,11.361138c1.628061,1.872163 4.153891,5.583614 5.493659,8.492142c4.919064,10.681037 13.100922,17.939803 21.352741,18.944181c0.662553,0.081293 1.318664,0.120608 1.968775,0.120608c5.035006,0 9.688871,-2.394121 13.266616,-6.874517c0.428895,-0.537508 0.5455,-1.258699 0.307399,-1.90304z"/>
   <path stroke="null" id="svg_120" fill="#FF7387" d="m81.825921,434.369398c-4.202092,-3.98265 -8.749573,-5.335748 -12.802185,-3.813184c-0.259645,0.097507 -0.495971,0.248985 -0.693206,0.445108l-32.172592,31.983803c-0.146588,0.145701 -0.269194,0.314056 -0.363816,0.497969c-1.640279,3.211924 -1.294675,8.71514 0.8589,13.695503c1.607852,3.718339 5.642252,10.342985 14.597714,12.940111c2.131591,0.61769 4.345803,0.91065 6.593105,0.91065c13.405659,0 27.93052,-10.434043 32.361164,-24.509583c3.814959,-12.114749 -1.469919,-25.607248 -8.379085,-32.150377z"/>
   <path stroke="null" id="svg_121" fill="#FF6478" d="m61.470229,426.505599c-7.965294,-3.042234 -17.173744,-1.408619 -23.463222,4.152124c-4.362904,3.856041 -10.789428,12.752425 -10.614184,21.456905c0.087957,4.340689 1.895041,8.069688 5.227581,10.783427c4.158997,3.387838 8.331107,4.475953 11.975929,4.475953c4.856877,-0.000887 8.778444,-1.933463 10.483803,-2.932293c0.205897,-0.096836 0.398465,-0.23166 0.565933,-0.403348l18.33516,-18.753611c0.414455,-0.424012 0.615909,-1.013263 0.545947,-1.602082c-0.960409,-8.116332 -5.719549,-14.377162 -13.056947,-17.177076z"/>
   <path stroke="null" id="svg_122" fill="#FF5064" d="m74.121152,442.702287c-3.647483,-4.642542 -9.055854,-7.597489 -14.838037,-8.107893c-4.673188,-0.414455 -9.076071,0.888659 -12.078326,3.567077c-5.44302,4.858875 -7.435791,10.835184 -5.467009,16.398141c1.007269,2.848779 3.011588,5.285988 5.412374,6.825876l0,0c-3.239916,0.439555 -5.094978,3.973988 -3.56464,6.86341c2.16668,4.091041 5.758634,7.698545 10.307218,8.555887c1.128101,0.212561 2.254198,0.316956 3.372742,0.316956c5.878572,0 13.20153,-1.773329 17.557545,-7.122615c5.10408,-6.267941 8.154984,-16.026774 -0.701868,-27.296839z"/>
   <path stroke="null" id="svg_123" fill="#D24150" d="m64.021382,457.576307c-1.16363,-0.083738 -3.998864,2.555149 -7.262986,-0.888659c-1.683814,-1.776662 -1.989216,-4.567466 -0.921534,-6.770354c0.259868,-0.535951 0.578815,-1.00393 0.942631,-1.408172c0.702092,-0.780052 0.137933,-1.992771 -0.905096,-1.877053c-2.768374,0.307183 -5.394818,1.87683 -6.938262,4.633432c-1.768216,3.158176 -1.44171,7.213017 0.83758,10.024702c3.779192,4.661857 10.599297,4.477511 14.172376,0.090395c0.372918,-0.458206 0.681211,-0.943518 0.939075,-1.450373c0.454441,-0.893773 0.547505,-2.252193 -0.863783,-2.353918z"/>
   <g stroke="null" transform="matrix(0.22210970877779188,0,0,0.22210970877779188,-332.3452802665735,-318.52160095788406) " id="svg_124"/>
   <g stroke="null" transform="matrix(0.22210970877779188,0,0,0.22210970877779188,-332.3452802665735,-318.52160095788406) " id="svg_125"/>
   <g stroke="null" transform="matrix(0.22210970877779188,0,0,0.22210970877779188,-332.3452802665735,-318.52160095788406) " id="svg_126"/>
   <g stroke="null" transform="matrix(0.22210970877779188,0,0,0.22210970877779188,-332.3452802665735,-318.52160095788406) " id="svg_127"/>
   <g stroke="null" transform="matrix(0.22210970877779188,0,0,0.22210970877779188,-332.3452802665735,-318.52160095788406) " id="svg_128"/>
   <g stroke="null" transform="matrix(0.22210970877779188,0,0,0.22210970877779188,-332.3452802665735,-318.52160095788406) " id="svg_129"/>
   <g stroke="null" transform="matrix(0.22210970877779188,0,0,0.22210970877779188,-332.3452802665735,-318.52160095788406) " id="svg_130"/>
   <g stroke="null" transform="matrix(0.22210970877779188,0,0,0.22210970877779188,-332.3452802665735,-318.52160095788406) " id="svg_131"/>
   <g stroke="null" transform="matrix(0.22210970877779188,0,0,0.22210970877779188,-332.3452802665735,-318.52160095788406) " id="svg_132"/>
   <g stroke="null" transform="matrix(0.22210970877779188,0,0,0.22210970877779188,-332.3452802665735,-318.52160095788406) " id="svg_133"/>
   <g stroke="null" transform="matrix(0.22210970877779188,0,0,0.22210970877779188,-332.3452802665735,-318.52160095788406) " id="svg_134"/>
   <g stroke="null" transform="matrix(0.22210970877779188,0,0,0.22210970877779188,-332.3452802665735,-318.52160095788406) " id="svg_135"/>
   <g stroke="null" transform="matrix(0.22210970877779188,0,0,0.22210970877779188,-332.3452802665735,-318.52160095788406) " id="svg_136"/>
   <g stroke="null" transform="matrix(0.22210970877779188,0,0,0.22210970877779188,-332.3452802665735,-318.52160095788406) " id="svg_137"/>
   <g stroke="null" transform="matrix(0.22210970877779188,0,0,0.22210970877779188,-332.3452802665735,-318.52160095788406) " id="svg_138"/>
  </g>
 </g>
</svg>