<svg width="512" height="512" xmlns="http://www.w3.org/2000/svg">
 <!-- Created with Method Draw - http://github.com/duopixel/Method-Draw/ -->

 <g>
  <title>background</title>
  <rect fill="none" id="canvas_background" height="514" width="514" y="-1" x="-1"/>
  <g display="none" overflow="visible" y="0" x="0" height="100%" width="100%" id="canvasGrid">
   <rect fill="url(#gridpattern)" stroke-width="0" y="0" x="0" height="100%" width="100%"/>
  </g>
 </g>
 <g>
  <title>Layer 1</title>
  <g stroke="null" id="svg_63">
   <g stroke="null" transform="matrix(1.613343144572248,0,0,1.613343144572248,-2743.5474884029236,-3711.46087015843) " id="svg_5">
    <g stroke="null" id="svg_6"/>
    <g stroke="null" id="svg_17">
     <path stroke="null" id="svg_18" fill="#9bd2f0" d="m1894.833055,2424.142018l0,-16l-160,0l0,16c-17.673,0 -32,14.327 -32,32l0,128c0,17.673 14.327,32 32,32l160,0c17.673,0 32,-14.327 32,-32l0,-128c0,-17.673 -14.327,-32 -32,-32z"/>
    </g>
    <g stroke="null" id="svg_19">
     <g stroke="null" id="svg_20">
      <path stroke="null" id="svg_21" fill="#50c3eb" d="m1814.833055,2408.142018l80,0l0,16l-80,0l0,-16z"/>
     </g>
     <g stroke="null" id="svg_22">
      <path stroke="null" id="svg_23" fill="#50c3eb" d="m1814.833055,2584.142018l-112,0c0,17.673 14.327,32 32,32l160,0c17.673,0 32,-14.327 32,-32l0,-128l-104,0c-4.418,0 -8,3.582 -8,8l0,120z"/>
     </g>
    </g>
    <g stroke="null" id="svg_24">
     <g stroke="null" id="svg_25">
      <path stroke="null" id="svg_26" fill="#f04b37" d="m1702.833055,2488.142018l0,96c0,17.673 14.327,32 32,32l160,0c17.673,0 32,-14.327 32,-32l0,-96l-224,0z"/>
     </g>
     <g stroke="null" id="svg_27">
      <g stroke="null" id="svg_28">
       <path stroke="null" id="svg_29" fill="#d7322d" d="m1814.833055,2488.142018l0,96l-112,0c0,17.673 14.327,32 32,32l160,0c17.673,0 32,-14.327 32,-32l0,-96l-112,0z"/>
      </g>
     </g>
    </g>
    <g stroke="null" id="svg_30">
     <path stroke="null" id="svg_31" fill="#d7322d" d="m1758.833055,2580.142018c-1.024,0 -2.047,-0.391 -2.829,-1.171l-24,-24c-1.562,-1.563 -1.562,-4.095 0,-5.657c1.563,-1.562 4.095,-1.562 5.657,0l24,24c1.562,1.563 1.562,4.095 0,5.657c-0.781,0.78 -1.804,1.171 -2.828,1.171z"/>
    </g>
    <g stroke="null" id="svg_32">
     <path stroke="null" id="svg_33" fill="#b9140f" d="m1902.833055,2548.142018c-1.024,0 -2.047,-0.391 -2.829,-1.171l-24,-24c-1.562,-1.563 -1.562,-4.095 0,-5.657c1.563,-1.562 4.095,-1.562 5.657,0l24,24c1.562,1.563 1.562,4.095 0,5.657c-0.781,0.78 -1.804,1.171 -2.828,1.171z"/>
    </g>
    <g stroke="null" id="svg_34">
     <path stroke="null" id="svg_35" fill="#b9140f" d="m1854.833055,2596.142018c-1.024,0 -2.047,-0.391 -2.829,-1.171c-1.562,-1.563 -1.562,-4.095 0,-5.657l24,-24c1.563,-1.562 4.095,-1.562 5.657,0c1.562,1.563 1.562,4.095 0,5.657l-24,24c-0.781,0.78 -1.804,1.171 -2.828,1.171z"/>
    </g>
    <g stroke="null" id="svg_36">
     <path stroke="null" id="svg_37" fill="#faa037" d="m1894.833055,2360.142018l-160,0c-4.418,0 -8,3.582 -8,8l0,32c0,4.418 3.582,8 8,8l160,0c4.418,0 8,-3.582 8,-8l0,-32c0,-4.418 -3.582,-8 -8,-8z"/>
    </g>
    <g stroke="null" id="svg_38">
     <path stroke="null" id="svg_39" fill="#f57828" d="m1814.833055,2408.142018l80,0c4.418,0 8,-3.582 8,-8l0,-32l-80,0c-4.418,0 -8,3.582 -8,8l0,32z"/>
    </g>
    <g stroke="null" id="svg_40">
     <path stroke="null" id="svg_41" fill="#d7e6e6" d="m1726.833055,2448.142018c-4.418,0 -8,3.582 -8,8l0,32l16,0l0,-32c0,-4.418 -3.582,-8 -8,-8z"/>
    </g>
    <g stroke="null" id="svg_42">
     <path stroke="null" id="svg_43" fill="#ff6955" d="m1718.833055,2488.142018l16,0l0,96l-16,0l0,-96z"/>
    </g>
    <g stroke="null" id="svg_44">
     <path stroke="null" id="svg_45" fill="#d7322d" d="m1758.833055,2532.142018c-1.024,0 -2.047,-0.391 -2.829,-1.171c-1.562,-1.563 -1.562,-4.095 0,-5.657l24,-24c1.563,-1.562 4.095,-1.562 5.657,0c1.562,1.563 1.562,4.095 0,5.657l-24,24c-0.781,0.78 -1.804,1.171 -2.828,1.171z"/>
    </g>
    <g stroke="null" id="svg_46">
     <path stroke="null" id="svg_47" fill="#d7322d" d="m1822.833055,2540.142018l-32,0c-2.209,0 -4,-1.791 -4,-4s1.791,-4 4,-4l32,0c2.209,0 4,1.791 4,4s-1.791,4 -4,4z"/>
    </g>
    <g stroke="null" id="svg_48"/>
   </g>
  </g>
  <g stroke="null" id="svg_111">
   <g stroke="null" transform="matrix(1.5771418260895171,0,0,1.5771418260895171,-3036.4220128501975,-3230.9767959323767) " id="svg_110">
    <g stroke="null" id="svg_64"/>
    <g stroke="null" id="svg_81">
     <path stroke="null" id="svg_80" fill="#b9140f" d="m2219.669653,2284.38312c-1.024,0 -2.047,-0.391 -2.829,-1.171l-24,-24c-1.562,-1.563 -1.562,-4.095 0,-5.657c1.563,-1.562 4.095,-1.562 5.657,0l24,24c1.562,1.563 1.562,4.095 0,5.657c-0.781,0.78 -1.804,1.171 -2.828,1.171z"/>
    </g>
    <g stroke="null" id="svg_83">
     <path stroke="null" id="svg_82" fill="#b9140f" d="m2187.669653,2351.38312c-1.024,0 -2.047,-0.391 -2.829,-1.171c-1.562,-1.563 -1.562,-4.095 0,-5.657l24,-24c1.563,-1.562 4.095,-1.562 5.657,0c1.562,1.563 1.562,4.095 0,5.657l-24,24c-0.781,0.78 -1.804,1.171 -2.828,1.171z"/>
    </g>
    <g stroke="null" id="svg_96"/>
    <g stroke="null" id="svg_109">
     <g stroke="null" id="svg_98">
      <path stroke="null" id="svg_97" fill="#9b5faa" d="m2232.095653,2149.67012c-2.457,-1.418 -5.74,-2.886 -9.553,-4.287c3.813,-1.401 7.096,-2.869 9.553,-4.287c15.305,-8.837 20.549,-28.407 11.713,-43.713s-28.407,-20.549 -43.713,-11.713c-2.457,1.418 -5.369,3.528 -8.489,6.129c0.692,-4.002 1.063,-7.579 1.063,-10.416c0,-17.673 -14.327,-32 -32,-32s-32,14.327 -32,32c0,2.837 0.371,6.414 1.064,10.417c-3.12,-2.601 -6.033,-4.711 -8.489,-6.129c-15.305,-8.836 -34.876,-3.593 -43.713,11.713s-3.593,34.876 11.713,43.713c2.457,1.418 5.74,2.886 9.553,4.287c-3.813,1.401 -7.096,2.869 -9.553,4.287c-15.305,8.837 -20.549,28.407 -11.713,43.713s28.407,20.549 43.713,11.713c2.457,-1.418 5.369,-3.528 8.489,-6.13c-0.693,4.002 -1.064,7.579 -1.064,10.416c0,17.673 14.327,32 32,32s32,-14.327 32,-32c0,-2.837 -0.371,-6.414 -1.064,-10.417c3.12,2.601 6.033,4.711 8.489,6.13c15.305,8.836 34.876,3.593 43.713,-11.713s3.593,-34.876 -11.712,-43.713z"/>
     </g>
     <g stroke="null" id="svg_100">
      <path stroke="null" id="svg_99" fill="#784687" d="m2208.286653,2148.24112c-1.638,-0.946 -3.83,-1.924 -6.372,-2.858c2.542,-0.935 4.734,-1.913 6.372,-2.858c10.204,-5.891 13.7,-18.938 7.808,-29.142c-5.891,-10.204 -18.938,-13.7 -29.142,-7.809c-1.638,0.946 -3.581,2.355 -5.661,4.09c0.462,-2.669 0.711,-5.056 0.711,-6.948c0,-11.782 -9.551,-21.333 -21.333,-21.333s-21.333,9.551 -21.333,21.333c0,1.891 0.249,4.279 0.711,6.948c-2.081,-1.735 -4.023,-3.144 -5.661,-4.09c-10.204,-5.891 -23.252,-2.395 -29.143,7.809s-2.395,23.251 7.809,29.142c1.638,0.946 3.83,1.924 6.372,2.858c-2.542,0.934 -4.734,1.912 -6.372,2.858c-10.204,5.891 -13.7,18.938 -7.809,29.142s18.938,13.7 29.142,7.809c1.638,-0.946 3.581,-2.355 5.661,-4.09c-0.462,2.669 -0.711,5.056 -0.711,6.948c0,11.782 9.551,21.333 21.333,21.333s21.333,-9.551 21.333,-21.333c0,-1.891 -0.249,-4.278 -0.711,-6.948c2.081,1.735 4.023,3.144 5.661,4.09c10.204,5.891 23.251,2.395 29.142,-7.809c5.893,-10.204 2.397,-23.251 -7.807,-29.142z"/>
     </g>
     <g stroke="null" id="svg_102">
      <path stroke="null" id="svg_101" fill="#d7322d" d="m2160.669653,2213.38312c-2.209,0 -4,-1.791 -4,-4l0,-64c0,-2.209 1.791,-4 4,-4s4,1.791 4,4l0,64c0,2.209 -1.791,4 -4,4z"/>
     </g>
     <g stroke="null" id="svg_104">
      <path stroke="null" id="svg_103" fill="#d7322d" d="m2160.673653,2149.38312c-1.383,0 -2.727,-0.717 -3.468,-2c-1.105,-1.913 -0.449,-4.359 1.464,-5.464l55.426,-32c1.915,-1.105 4.36,-0.449 5.464,1.464c1.105,1.913 0.449,4.359 -1.464,5.464l-55.426,32c-0.63,0.364 -1.318,0.536 -1.996,0.536z"/>
     </g>
     <g stroke="null" id="svg_106">
      <path stroke="null" id="svg_105" fill="#d7322d" d="m2160.665653,2149.38312c-0.679,0 -1.366,-0.173 -1.996,-0.537l-55.426,-32c-1.913,-1.104 -2.569,-3.551 -1.464,-5.464c1.104,-1.914 3.55,-2.569 5.464,-1.464l55.426,32c1.913,1.104 2.569,3.551 1.464,5.464c-0.741,1.284 -2.086,2.001 -3.468,2.001z"/>
     </g>
     <g stroke="null" id="svg_108">
      <path stroke="null" id="svg_107" fill="#fabe19" d="m2184.478653,2146.81212c-3.89,-2.246 -13.972,-4.859 -19.85,-3.715c3.93,-4.518 6.708,-14.556 6.708,-19.048c0,-5.89 -4.776,-10.666 -10.667,-10.666s-10.667,4.776 -10.667,10.667c0,4.492 2.778,14.53 6.708,19.048c-5.878,-1.145 -15.96,1.469 -19.85,3.715c-5.102,2.945 -6.85,9.469 -3.904,14.571s9.469,6.85 14.571,3.904c3.89,-2.246 11.194,-9.67 13.142,-15.333c1.948,5.663 9.252,13.087 13.142,15.333c5.102,2.946 11.625,1.198 14.571,-3.904c2.945,-5.103 1.197,-11.626 -3.904,-14.572z"/>
     </g>
    </g>
   </g>
  </g>
 </g>
</svg>