<svg width="512" height="512" version="1.1" xmlns="http://www.w3.org/2000/svg"><g><title>background</title><rect id="canvas_background" x="-1" y="-1" width="514" height="514" fill="none"/><g id="canvasGrid" x="0" y="0" width="100%" height="100%" display="none" overflow="visible"><rect width="100%" height="100%" fill="url(#gridpattern)" stroke-width="0"/></g></g><g><title>Layer 1</title><g stroke="null"><g transform="matrix(1.61 0 0 1.61 -2744 -3711)" stroke="null"><path d="m1895 2424v-16h-160v16c-17.7 0-32 14.3-32 32v128c0 17.7 14.3 32 32 32h160c17.7 0 32-14.3 32-32v-128c0-17.7-14.3-32-32-32z" fill="#9bd2f0" stroke="null"/><path d="m1815 2408h80v16h-80v-16z" fill="#50c3eb" stroke="null"/><path d="m1815 2584h-112c0 17.7 14.3 32 32 32h160c17.7 0 32-14.3 32-32v-128h-104c-4.42 0-8 3.58-8 8v120z" fill="#50c3eb" stroke="null"/><path d="m1703 2488v96c0 17.7 14.3 32 32 32h160c17.7 0 32-14.3 32-32v-96h-224z" fill="#f04b37" stroke="null"/><g stroke="null"><path d="m1815 2488v96h-112c0 17.7 14.3 32 32 32h160c17.7 0 32-14.3 32-32v-96h-112z" fill="#d7322d" stroke="null"/></g><path d="m1759 2580c-1.02 0-2.05-0.391-2.83-1.17l-24-24c-1.56-1.56-1.56-4.1 0-5.66 1.56-1.56 4.1-1.56 5.66 0l24 24c1.56 1.56 1.56 4.1 0 5.66-0.781 0.78-1.8 1.17-2.83 1.17z" fill="#d7322d" stroke="null"/><path d="m1903 2548c-1.02 0-2.05-0.391-2.83-1.17l-24-24c-1.56-1.56-1.56-4.1 0-5.66 1.56-1.56 4.1-1.56 5.66 0l24 24c1.56 1.56 1.56 4.1 0 5.66-0.781 0.78-1.8 1.17-2.83 1.17z" fill="#b9140f" stroke="null"/><path d="m1855 2596c-1.02 0-2.05-0.391-2.83-1.17-1.56-1.56-1.56-4.1 0-5.66l24-24c1.56-1.56 4.1-1.56 5.66 0 1.56 1.56 1.56 4.1 0 5.66l-24 24c-0.781 0.78-1.8 1.17-2.83 1.17z" fill="#b9140f" stroke="null"/><path d="m1895 2360h-160c-4.42 0-8 3.58-8 8v32c0 4.42 3.58 8 8 8h160c4.42 0 8-3.58 8-8v-32c0-4.42-3.58-8-8-8z" fill="#faa037" stroke="null"/><path d="m1815 2408h80c4.42 0 8-3.58 8-8v-32h-80c-4.42 0-8 3.58-8 8v32z" fill="#f57828" stroke="null"/><path d="m1727 2448c-4.42 0-8 3.58-8 8v32h16v-32c0-4.42-3.58-8-8-8z" fill="#d7e6e6" stroke="null"/><path d="m1719 2488h16v96h-16v-96z" fill="#ff6955" stroke="null"/><path d="m1759 2532c-1.02 0-2.05-0.391-2.83-1.17-1.56-1.56-1.56-4.1 0-5.66l24-24c1.56-1.56 4.1-1.56 5.66 0 1.56 1.56 1.56 4.1 0 5.66l-24 24c-0.781 0.78-1.8 1.17-2.83 1.17z" fill="#d7322d" stroke="null"/><path d="m1823 2540h-32c-2.21 0-4-1.79-4-4s1.79-4 4-4h32c2.21 0 4 1.79 4 4s-1.79 4-4 4z" fill="#d7322d" stroke="null"/></g></g><g stroke="null"><g transform="matrix(1.58 0 0 1.58 -3036 -3231)" stroke="null"><path d="m2220 2284c-1.02 0-2.05-0.391-2.83-1.17l-24-24c-1.56-1.56-1.56-4.1 0-5.66 1.56-1.56 4.1-1.56 5.66 0l24 24c1.56 1.56 1.56 4.1 0 5.66-0.781 0.78-1.8 1.17-2.83 1.17z" fill="#b9140f" stroke="null"/><path d="m2188 2351c-1.02 0-2.05-0.391-2.83-1.17-1.56-1.56-1.56-4.1 0-5.66l24-24c1.56-1.56 4.1-1.56 5.66 0 1.56 1.56 1.56 4.1 0 5.66l-24 24c-0.781 0.78-1.8 1.17-2.83 1.17z" fill="#b9140f" stroke="null"/><path d="m2232 2150c-2.46-1.42-5.74-2.89-9.55-4.29 3.81-1.4 7.1-2.87 9.55-4.29 15.3-8.84 20.5-28.4 11.7-43.7s-28.4-20.5-43.7-11.7c-2.46 1.42-5.37 3.53-8.49 6.13 0.692-4 1.06-7.58 1.06-10.4 0-17.7-14.3-32-32-32s-32 14.3-32 32c0 2.84 0.371 6.41 1.06 10.4-3.12-2.6-6.03-4.71-8.49-6.13-15.3-8.84-34.9-3.59-43.7 11.7s-3.59 34.9 11.7 43.7c2.46 1.42 5.74 2.89 9.55 4.29-3.81 1.4-7.1 2.87-9.55 4.29-15.3 8.84-20.5 28.4-11.7 43.7s28.4 20.5 43.7 11.7c2.46-1.42 5.37-3.53 8.49-6.13-0.693 4-1.06 7.58-1.06 10.4 0 17.7 14.3 32 32 32s32-14.3 32-32c0-2.84-0.371-6.41-1.06-10.4 3.12 2.6 6.03 4.71 8.49 6.13 15.3 8.84 34.9 3.59 43.7-11.7s3.59-34.9-11.7-43.7z" fill="#9b5faa" stroke="null"/><path d="m2208 2148c-1.64-0.946-3.83-1.92-6.37-2.86 2.54-0.935 4.73-1.91 6.37-2.86 10.2-5.89 13.7-18.9 7.81-29.1-5.89-10.2-18.9-13.7-29.1-7.81-1.64 0.946-3.58 2.36-5.66 4.09 0.462-2.67 0.711-5.06 0.711-6.95 0-11.8-9.55-21.3-21.3-21.3s-21.3 9.55-21.3 21.3c0 1.89 0.249 4.28 0.711 6.95-2.08-1.74-4.02-3.14-5.66-4.09-10.2-5.89-23.3-2.4-29.1 7.81s-2.4 23.3 7.81 29.1c1.64 0.946 3.83 1.92 6.37 2.86-2.54 0.934-4.73 1.91-6.37 2.86-10.2 5.89-13.7 18.9-7.81 29.1s18.9 13.7 29.1 7.81c1.64-0.946 3.58-2.36 5.66-4.09-0.462 2.67-0.711 5.06-0.711 6.95 0 11.8 9.55 21.3 21.3 21.3s21.3-9.55 21.3-21.3c0-1.89-0.249-4.28-0.711-6.95 2.08 1.74 4.02 3.14 5.66 4.09 10.2 5.89 23.3 2.4 29.1-7.81 5.89-10.2 2.4-23.3-7.81-29.1z" fill="#784687" stroke="null"/><path d="m2161 2213c-2.21 0-4-1.79-4-4v-64c0-2.21 1.79-4 4-4s4 1.79 4 4v64c0 2.21-1.79 4-4 4z" fill="#d7322d" stroke="null"/><path d="m2161 2149c-1.38 0-2.73-0.717-3.47-2-1.1-1.91-0.449-4.36 1.46-5.46l55.4-32c1.92-1.1 4.36-0.449 5.46 1.46 1.1 1.91 0.449 4.36-1.46 5.46l-55.4 32c-0.63 0.364-1.32 0.536-2 0.536z" fill="#d7322d" stroke="null"/><path d="m2161 2149c-0.679 0-1.37-0.173-2-0.537l-55.4-32c-1.91-1.1-2.57-3.55-1.46-5.46 1.1-1.91 3.55-2.57 5.46-1.46l55.4 32c1.91 1.1 2.57 3.55 1.46 5.46-0.741 1.28-2.09 2-3.47 2z" fill="#d7322d" stroke="null"/><path d="m2184 2147c-3.89-2.25-14-4.86-19.8-3.72 3.93-4.52 6.71-14.6 6.71-19 0-5.89-4.78-10.7-10.7-10.7s-10.7 4.78-10.7 10.7c0 4.49 2.78 14.5 6.71 19-5.88-1.14-16 1.47-19.8 3.72-5.1 2.94-6.85 9.47-3.9 14.6s9.47 6.85 14.6 3.9c3.89-2.25 11.2-9.67 13.1-15.3 1.95 5.66 9.25 13.1 13.1 15.3 5.1 2.95 11.6 1.2 14.6-3.9 2.94-5.1 1.2-11.6-3.9-14.6z" fill="#fabe19" stroke="null"/></g></g></g></svg>
