<?xml version="1.0" encoding="UTF-8" standalone="no"?>
<svg
   xmlns:dc="http://purl.org/dc/elements/1.1/"
   xmlns:cc="http://creativecommons.org/ns#"
   xmlns:rdf="http://www.w3.org/1999/02/22-rdf-syntax-ns#"
   xmlns:svg="http://www.w3.org/2000/svg"
   xmlns="http://www.w3.org/2000/svg"
   xmlns:sodipodi="http://sodipodi.sourceforge.net/DTD/sodipodi-0.dtd"
   xmlns:inkscape="http://www.inkscape.org/namespaces/inkscape"
   inkscape:version="1.0 (4035a4f, 2020-05-01)"
   sodipodi:docname="sesameoil.svg"
   id="svg6028"
   version="1.1"
   height="512"
   width="512">
  <metadata
     id="metadata6034">
    <rdf:RDF>
      <cc:Work
         rdf:about="">
        <dc:format>image/svg+xml</dc:format>
        <dc:type
           rdf:resource="http://purl.org/dc/dcmitype/StillImage" />
        <dc:title></dc:title>
      </cc:Work>
    </rdf:RDF>
  </metadata>
  <defs
     id="defs6032" />
  <sodipodi:namedview
     inkscape:current-layer="svg6028"
     inkscape:window-maximized="0"
     inkscape:window-y="0"
     inkscape:window-x="0"
     inkscape:cy="372.23326"
     inkscape:cx="214.10474"
     inkscape:zoom="0.57992367"
     showgrid="false"
     id="namedview6030"
     inkscape:window-height="768"
     inkscape:window-width="1366"
     inkscape:pageshadow="2"
     inkscape:pageopacity="0"
     guidetolerance="10"
     gridtolerance="10"
     objecttolerance="10"
     borderopacity="1"
     bordercolor="#666666"
     pagecolor="#ffffff" />
  <g
     id="g6628">
    <path
       id="path5938"
       fill="#e6e9ed"
       d="M 138.45,99.24 H 40.41 v 130.29 h 98.04 98.169 V 99.24 Z"
       style="stroke-width:1.29" />
    <path
       id="path5940"
       fill="#656d78"
       d="m 162.96,1.2 c 4.5021,0 8.1786,3.6765 8.1786,8.1786 v 16.383 c 0,4.5021 -3.6765,8.1786 -8.1786,8.1786 h -49.02 c -4.5021,0 -8.1786,-3.6765 -8.1786,-8.1786 V 9.3786 c 0,-4.5021 3.6765,-8.1786 8.1786,-8.1786 z"
       style="stroke-width:1.29" />
    <path
       id="path5942"
       fill="#ffce54"
       d="m 40.41,287.58 c 0,-13.545 10.965,-24.51 24.51,-24.51 -13.545,0 -24.51,-10.965 -24.51,-24.51 v -8.1786 h 98.04 98.169 v 8.1786 c 0,13.545 -10.965,24.51 -24.51,24.51 13.545,0 24.51,10.965 24.51,24.51 v 16.383 32.766 32.766 90.042 c 0,27.219 -21.93,49.02 -49.02,49.02 h -98.04 c -27.09,0 -49.02,-21.93 -49.02,-49.02 V 369.495 336.729 303.963 287.58 Z"
       style="stroke-width:1.29" />
    <path
       id="path5944"
       fill="#ffce54"
       d="m 236.49,99.24 h -98.169 -98.04 v -8.1786 c 0,-13.545 10.965,-24.51 24.51,-24.51 h 32.637 c 9.0687,0 16.383,-7.2756 16.383,-16.383 v -16.383 h 49.02 v 16.383 c 0,9.0042 7.3659,16.383 16.383,16.383 h 32.766 c 13.545,0 24.51,10.965 24.51,24.51 z"
       style="stroke-width:1.29" />
    <g
       id="g5958"
       fill="#f6bb42"
       transform="matrix(8.1786,0,0,8.1786,-156.831,-309.69)">
      <path
         id="path5946"
         d="m 48.1,77.1 v -2 c -0.001,0 -0.002,-10e-4 -0.003,-10e-4 h -1.99 c -0.553,0 -1,0.447 -1,1 0,0.553 0.447,1 1,1 h 1.99 c 10e-4,0 0.002,-0.001 0.003,-0.001 z" />
      <path
         id="path5948"
         d="m 48.1,81.1 v -2 c -0.001,0 -0.002,-10e-4 -0.003,-10e-4 h -1.99 c -0.553,0 -1,0.447 -1,1 0,0.553 0.447,1 1,1 h 1.99 c 10e-4,0 0.002,-0.001 0.003,-0.001 z" />
      <path
         id="path5950"
         d="m 48.1,85.1 v -2 c -0.001,0 -0.002,-10e-4 -0.003,-10e-4 h -1.99 c -0.553,0 -1,0.447 -1,1 0,0.553 0.447,1 1,1 h 1.99 c 10e-4,0 0.002,-0.001 0.003,-0.001 z" />
      <path
         id="path5952"
         d="m 24.1,83.1 v 2 c 10e-4,0 0.002,0.001 0.003,0.001 h 1.99 c 0.553,0 1,-0.447 1,-1 0,-0.553 -0.447,-1 -1,-1 h -1.99 c -0.001,0 -0.002,0.001 -0.003,0.001 z" />
      <path
         id="path5954"
         d="m 24.1,79.1 v 2 c 10e-4,0 0.002,0.001 0.003,0.001 h 1.99 c 0.553,0 1,-0.447 1,-1 0,-0.553 -0.447,-1 -1,-1 h -1.99 c -0.001,0 -0.002,0.001 -0.003,0.001 z" />
      <path
         id="path5956"
         d="m 24.1,75.1 v 2 c 10e-4,0 0.002,0.001 0.003,0.001 h 1.99 c 0.553,0 1,-0.447 1,-1 0,-0.553 -0.447,-1 -1,-1 h -1.99 c -0.001,0 -0.002,0.001 -0.003,0.001 z" />
    </g>
    <g
       id="g5978"
       stroke="null"
       transform="matrix(0.24381,0,0,0.24381,-934.83,-785.7)">
      <path
         id="path5960"
         fill="#5b5b68"
         d="m 4446,3954 c -18.1,21.2 -35.7,33.7 -35.7,33.7 0,0 -104,-23.2 -124,-103 -0.37,-1.45 -0.7,-2.93 -1,-4.42 -17,-83.6 6.5,-166 56.9,-227 70.2,36.5 124,103 141,187 9.46,46.6 -14.4,87.2 -37.3,114 z" />
      <path
         id="path5962"
         fill="#40404c"
         d="m 4343,3869 c 16.8,82.9 66.9,119 67.7,119 -1.66,-0.373 -108,-24.7 -125,-108 -17,-83.6 6.51,-166 56.9,-227 -15.6,53.9 -16.8,132 0.128,215 z" />
      <path
         id="path5964"
         fill="#40404c"
         d="m 4393,3908 c -3.49,0 -6.62,-2.45 -7.34,-6.01 l -35.6,-175 c -0.824,-4.06 1.8,-8.02 5.86,-8.84 4.06,-0.826 8.02,1.8 8.84,5.86 l 35.6,175 c 0.824,4.06 -1.8,8.02 -5.86,8.84 -0.502,0.103 -1,0.152 -1.5,0.152 z" />
      <path
         id="path5966"
         stroke="null"
         fill="#40404c"
         d="m 4446,3954 c -18.1,21.2 -35.7,33.7 -35.7,33.7 0,0 -104,-23.2 -124,-103 58.4,2.39 116,25.9 159,69.4 z" />
      <path
         id="path5968"
         fill="#5b5b68"
         d="m 4452,3858 c -59.2,61.3 -17.9,164 -17.9,164 0,0 104,37.7 163,-23.6 59.2,-61.3 83.7,-143 74,-222 -78.8,-6.98 -160,20.4 -219,81.7 z" />
      <path
         id="path5970"
         fill="#40404c"
         d="m 4494,3898 c -58.8,60.9 -59.8,122 -59.8,123 -0.635,-1.58 -40.8,-103 17.9,-164 59.2,-61.3 140,-88.7 219,-81.7 -53.3,17.7 -118,60.8 -177,122 z" />
      <path
         id="path5972"
         fill="#40404c"
         d="m 4489,3973 c -1.89,0 -3.78,-0.708 -5.23,-2.13 -2.97,-2.89 -3.03,-7.64 -0.136,-10.6 l 79.3,-81.4 26.8,-27.8 25.5,-27.2 c 2.83,-3.02 7.58,-3.17 10.6,-0.336 3.02,2.83 3.17,7.58 0.336,10.6 l -25.6,27.3 c -0.024,0.026 -0.049,0.052 -0.074,0.078 l -26.9,27.9 -79.3,81.4 c -1.47,1.51 -3.42,2.26 -5.37,2.26 z" />
      <path
         id="path5974"
         fill="#ffca5e"
         d="m 4313,4105 c 48,58.3 142,32.3 142,32.3 0,0 43.7,-87.6 -4.32,-146 -48,-58.3 -118,-88.2 -188,-87.6 -14.1,68.7 1.78,143 49.8,201 z" />
      <path
         id="path5976"
         fill="#e8a328"
         d="m 4353,4073 c 47.6,57.9 102,65 103,65.1 -1.46,0.399 -94.8,25.6 -142,-32.3 -48,-58.3 -63.9,-133 -49.8,-201 10.2,48.7 41.6,110 89.6,168 z" />
    </g>
    <path
       id="path5980"
       fill="#e6e9ed"
       d="m 362.91,99.24 h -98.04 v 130.29 h 98.04 98.169 V 99.24 Z"
       style="stroke-width:1.29" />
    <path
       id="path5982"
       fill="#656d78"
       d="m 387.42,1.2 c 4.5021,0 8.1786,3.6765 8.1786,8.1786 v 16.383 c 0,4.5021 -3.6765,8.1786 -8.1786,8.1786 H 338.4 c -4.5021,0 -8.1786,-3.6765 -8.1786,-8.1786 V 9.3786 C 330.2214,4.8765 333.8979,1.2 338.4,1.2 Z"
       style="stroke-width:1.29" />
    <path
       id="path5984"
       fill="#d89700"
       d="m 264.87,287.58 c 0,-13.545 10.965,-24.51 24.51,-24.51 -13.545,0 -24.51,-10.965 -24.51,-24.51 v -8.1786 h 98.04 98.169 v 8.1786 c 0,13.545 -10.965,24.51 -24.51,24.51 13.545,0 24.51,10.965 24.51,24.51 v 16.383 32.766 32.766 90.042 c 0,27.219 -21.93,49.02 -49.02,49.02 h -98.04 c -27.09,0 -49.02,-21.93 -49.02,-49.02 V 369.495 336.729 303.963 287.58 Z"
       style="stroke-width:1.29" />
    <path
       id="path5986"
       fill="#d89700"
       d="m 460.95,99.24 h -98.169 -98.04 v -8.1786 c 0,-13.545 10.965,-24.51 24.51,-24.51 h 32.637 c 9.0687,0 16.383,-7.2756 16.383,-16.383 v -16.383 h 49.02 v 16.383 c 0,9.0042 7.3659,16.383 16.383,16.383 h 32.766 c 13.545,0 24.51,10.965 24.51,24.51 z"
       style="stroke-width:1.29" />
    <g
       id="g6000"
       fill="#f6bb42"
       transform="matrix(8.1786,0,0,8.1786,-156.831,-309.69)">
      <path
         id="path5988"
         d="m 75.5,77.1 v -2 c -0.001,0 -0.002,-10e-4 -0.003,-10e-4 h -1.99 c -0.553,0 -1,0.447 -1,1 0,0.553 0.447,1 1,1 h 1.99 c 0.001,0 0.002,-0.001 0.003,-0.001 z" />
      <path
         id="path5990"
         d="m 75.5,81.1 v -2 c -0.001,0 -0.002,-10e-4 -0.003,-10e-4 h -1.99 c -0.553,0 -1,0.447 -1,1 0,0.553 0.447,1 1,1 h 1.99 c 0.001,0 0.002,-0.001 0.003,-0.001 z" />
      <path
         id="path5992"
         d="m 75.5,85.1 v -2 c -0.001,0 -0.002,-10e-4 -0.003,-10e-4 h -1.99 c -0.553,0 -1,0.447 -1,1 0,0.553 0.447,1 1,1 h 1.99 c 0.001,0 0.002,-0.001 0.003,-0.001 z" />
      <path
         id="path5994"
         d="m 51.5,83.1 v 2 c 10e-4,0 0.002,0.001 0.003,0.001 h 1.99 c 0.553,0 1,-0.447 1,-1 0,-0.553 -0.447,-1 -1,-1 h -1.99 c -10e-4,0 -0.002,0.001 -0.003,0.001 z" />
      <path
         id="path5996"
         d="m 51.5,79.1 v 2 c 10e-4,0 0.002,0.001 0.003,0.001 h 1.99 c 0.553,0 1,-0.447 1,-1 0,-0.553 -0.447,-1 -1,-1 h -1.99 c -10e-4,0 -0.002,0.001 -0.003,0.001 z" />
      <path
         id="path5998"
         d="m 51.5,75.1 v 2 c 10e-4,0 0.002,0.001 0.003,0.001 h 1.99 c 0.553,0 1,-0.447 1,-1 0,-0.553 -0.447,-1 -1,-1 h -1.99 c -10e-4,0 -0.002,0.001 -0.003,0.001 z" />
    </g>
    <g
       id="g6020"
       stroke="null"
       transform="matrix(0.24381,0,0,0.24381,-934.83,-785.7)">
      <path
         id="path6002"
         fill="#5b5b68"
         d="m 5362,3957 c -18.1,21.2 -35.7,33.7 -35.7,33.7 0,0 -104,-23.2 -124,-103 -0.37,-1.45 -0.7,-2.93 -1,-4.42 -17,-83.6 6.5,-166 56.9,-227 70.2,36.5 124,103 141,187 9.46,46.6 -14.4,87.2 -37.3,114 z" />
      <path
         id="path6004"
         fill="#40404c"
         d="m 5259,3872 c 16.8,82.9 66.9,119 67.7,119 -1.66,-0.373 -108,-24.7 -125,-108 -17,-83.6 6.51,-166 56.9,-227 -15.6,53.9 -16.8,132 0.128,215 z" />
      <path
         id="path6006"
         fill="#40404c"
         d="m 5309,3911 c -3.49,0 -6.62,-2.45 -7.34,-6.01 l -35.6,-175 c -0.824,-4.06 1.8,-8.02 5.86,-8.84 4.06,-0.826 8.02,1.8 8.84,5.86 l 35.6,175 c 0.824,4.06 -1.8,8.02 -5.86,8.84 -0.502,0.103 -1,0.152 -1.5,0.152 z" />
      <path
         id="path6008"
         stroke="null"
         fill="#40404c"
         d="m 5362,3957 c -18.1,21.2 -35.7,33.7 -35.7,33.7 0,0 -104,-23.2 -124,-103 58.4,2.39 116,25.9 159,69.4 z" />
      <path
         id="path6010"
         fill="#5b5b68"
         d="m 5368,3861 c -59.2,61.3 -17.9,164 -17.9,164 0,0 104,37.7 163,-23.6 59.2,-61.3 83.7,-143 74,-222 -78.8,-6.98 -160,20.4 -219,81.7 z" />
      <path
         id="path6012"
         fill="#40404c"
         d="m 5410,3901 c -58.8,60.9 -59.8,122 -59.8,123 -0.635,-1.58 -40.8,-103 17.9,-164 59.2,-61.3 140,-88.7 219,-81.7 -53.3,17.7 -118,60.8 -177,122 z" />
      <path
         id="path6014"
         fill="#40404c"
         d="m 5405,3975 c -1.89,0 -3.78,-0.708 -5.23,-2.13 -2.97,-2.89 -3.03,-7.64 -0.136,-10.6 l 79.3,-81.4 26.8,-27.8 25.5,-27.2 c 2.83,-3.02 7.58,-3.17 10.6,-0.336 3.02,2.83 3.17,7.58 0.336,10.6 l -25.6,27.3 c -0.024,0.026 -0.049,0.052 -0.074,0.078 l -26.9,27.9 -79.3,81.4 c -1.47,1.51 -3.42,2.26 -5.37,2.26 z" />
      <path
         id="path6016"
         fill="#ffca5e"
         d="m 5229,4108 c 48,58.3 142,32.3 142,32.3 0,0 43.7,-87.6 -4.32,-146 -48,-58.3 -118,-88.2 -188,-87.6 -14.1,68.7 1.78,143 49.8,201 z" />
      <path
         id="path6018"
         fill="#e8a328"
         d="m 5269,4075 c 47.6,57.9 102,65 103,65.1 -1.46,0.399 -94.8,25.6 -142,-32.3 -48,-58.3 -63.9,-133 -49.8,-201 10.2,48.7 41.6,110 89.6,168 z" />
    </g>
  </g>
</svg>
