<svg width="512" height="512" xmlns="http://www.w3.org/2000/svg">
 <!-- Created with Method Draw - http://github.com/duopixel/Method-Draw/ -->

 <g>
  <title>background</title>
  <rect fill="none" id="canvas_background" height="514" width="514" y="-1" x="-1"/>
  <g display="none" overflow="visible" y="0" x="0" height="100%" width="100%" id="canvasGrid">
   <rect fill="url(#gridpattern)" stroke-width="0" y="0" x="0" height="100%" width="100%"/>
  </g>
 </g>
 <g>
  <title>Layer 1</title>
  <!-- Created with Method Draw - http://github.com/duopixel/Method-Draw/ -->
  <g stroke="null" id="svg_119">
   <g stroke="null" transform="matrix(1.2923441651488348,0,0,1.2923441651488348,-35.69488714448434,-101.63329029799036) " id="svg_116">
    <title stroke="null" transform="translate(0,-1.1904425621032715) translate(15.547771453857422,0) translate(-10.576887130737305,-1.322110891342163) translate(-79.9216079711914,-14.609325408935547) translate(-2006.9998779296875,-2015.9998779296875) translate(2047.9998779296875,0) translate(0,2102.7255859375) ">background</title>
    <rect stroke="null" x="-34.950724" y="68.603829" width="514" height="402" id="svg_114" fill="none"/>
    <g stroke="null" id="svg_113" display="none">
     <rect stroke="null" id="svg_117" width="512" height="512" x="-33.950724" y="69.603829" stroke-width="0" fill="url(#gridpattern)"/>
    </g>
   </g>
   <g stroke="null" transform="matrix(1.2923441651488348,0,0,1.2923441651488348,-35.69488714448434,-101.63329029799036) " id="svg_118">
    <title stroke="null" transform="translate(0,-1.1904425621032715) translate(15.547771453857422,0) translate(-10.576887130737305,-1.322110891342163) translate(-79.9216079711914,-14.609325408935547) translate(-2006.9998779296875,-2015.9998779296875) translate(2047.9998779296875,0) translate(0,2102.7255859375) ">Layer 1</title>
    <g stroke="null" id="svg_101">
     <path stroke="null" d="m135.017556,156.096869l-76.02992,0l0,101.45778l76.02992,0l76.09333,0l0,-101.45778l-76.09333,0z" fill="#e6e9ed" id="svg_112"/>
     <path stroke="null" d="m154.040886,80.003549c3.48762,0 6.34112,2.8535 6.34112,6.34111l0,12.68222c0,3.48761 -2.8535,6.34111 -6.34112,6.34111l-38.04666,0c-3.48761,0 -6.34111,-2.8535 -6.34111,-6.34111l0,-12.68222c0,-3.48761 2.8535,-6.34111 6.34111,-6.34111l38.04666,0z" fill="#656d78" id="svg_111"/>
     <path stroke="null" d="m58.987636,301.942429c0,-10.52625 8.49709,-19.02334 19.02334,-19.02334c-10.52625,0 -19.02334,-8.49709 -19.02334,-19.02333l0,-6.34111l76.02992,0l76.09333,0l0,6.34111c0,10.52624 -8.49709,19.02333 -19.02333,19.02333c10.52624,0 19.02333,8.49709 19.02333,19.02334l0,12.68222l0,25.36444l0,25.36444l0,69.75222c0,21.05249 -16.99417,38.04667 -38.04666,38.04667l-76.02992,0c-20.98908,0 -38.04667,-16.99418 -38.04667,-38.04667l0,-69.75222l0,-25.36444l0,-25.36444l0,-12.68222z" fill="#ffce54" id="svg_110"/>
     <path stroke="null" d="m211.110886,156.096869l-76.09333,0l-76.02992,0l0,-6.34111c0,-10.52624 8.49709,-19.02333 19.02334,-19.02333l25.30103,0c7.03229,0 12.68222,-5.64359 12.68222,-12.68222l0,-12.68222l38.04667,0l0,12.68222c0,6.97522 5.707,12.68222 12.68222,12.68222l25.36444,0c10.52624,0 19.02333,8.49709 19.02333,19.02333l0,6.34111z" fill="#ffce54" id="svg_109"/>
     <g stroke="null" fill="#f6bb42" id="svg_102" transform="matrix(6.341110859909493,0,0,6.341110859909493,-93.87802680656029,-161.29509350317744) ">
      <path stroke="null" d="m48.097069,77.053048l0,-1.998c-0.001,0 -0.002,-0.001 -0.003,-0.001l-1.994,0c-0.553,0 -1,0.447 -1,1s0.447,1 1,1l1.994,0c0.001,0 0.002,-0.001 0.003,-0.001z" id="svg_108"/>
      <path stroke="null" d="m48.097069,81.053048l0,-1.998c-0.001,0 -0.002,-0.001 -0.003,-0.001l-1.994,0c-0.553,0 -1,0.447 -1,1s0.447,1 1,1l1.994,0c0.001,0 0.002,-0.001 0.003,-0.001z" id="svg_107"/>
      <path stroke="null" d="m48.097069,85.053048l0,-1.998c-0.001,0 -0.002,-0.001 -0.003,-0.001l-1.994,0c-0.553,0 -1,0.447 -1,1s0.447,1 1,1l1.994,0c0.001,0 0.002,-0.001 0.003,-0.001z" id="svg_106"/>
      <path stroke="null" d="m24.107069,83.055048l0,1.998c0.001,0 0.002,0.001 0.003,0.001l1.994,0c0.553,0 1,-0.447 1,-1s-0.447,-1 -1,-1l-1.994,0c-0.001,0 -0.002,0.001 -0.003,0.001z" id="svg_105"/>
      <path stroke="null" d="m24.107069,79.055048l0,1.998c0.001,0 0.002,0.001 0.003,0.001l1.994,0c0.553,0 1,-0.447 1,-1s-0.447,-1 -1,-1l-1.994,0c-0.001,0 -0.002,0.001 -0.003,0.001z" id="svg_104"/>
      <path stroke="null" d="m24.107069,75.055048l0,1.998c0.001,0 0.002,0.001 0.003,0.001l1.994,0c0.553,0 1,-0.447 1,-1s-0.447,-1 -1,-1l-1.994,0c-0.001,0 -0.002,0.001 -0.003,0.001z" id="svg_103"/>
     </g>
    </g>
    <g stroke="null" id="svg_86">
     <g stroke="null" id="svg_87" transform="matrix(0.1888981694588178,0,0,0.1888981694588178,-697.1377272731115,-529.6357509899324) ">
      <g stroke="null" id="svg_95">
       <path stroke="null" d="m4446.346115,3954.19192c-18.14,21.2 -35.7,33.74 -35.7,33.74s-104.01,-23.21 -123.78,-103.19c-0.37,-1.45 -0.7,-2.93 -1,-4.42c-16.95,-83.56 6.5,-165.92 56.92,-226.87c70.18,36.48 123.88,103.19 140.83,186.75c9.46,46.62 -14.36,87.22 -37.27,113.99z" fill="#5B5B68" id="svg_100"/>
       <path stroke="null" d="m4342.919115,3868.73792c16.819,82.904 66.938,118.629 67.715,119.181c-1.662,-0.373 -107.95,-24.703 -124.769,-107.606c-16.952,-83.557 6.506,-165.912 56.926,-226.87c-15.63,53.9 -16.824,131.738 0.128,215.295z" fill="#40404C" id="svg_99"/>
       <path stroke="null" d="m4392.891115,3907.96592c-3.494,0 -6.621,-2.454 -7.342,-6.01l-35.594,-175.442c-0.824,-4.06 1.799,-8.018 5.859,-8.841c4.058,-0.826 8.018,1.799 8.841,5.859l35.593,175.441c0.824,4.06 -1.799,8.018 -5.859,8.841c-0.502,0.103 -1.004,0.152 -1.498,0.152z" fill="#40404C" id="svg_98"/>
       <g stroke="null" id="svg_96">
        <path stroke="null" d="m4446.346115,3954.19192c-18.14,21.2 -35.7,33.74 -35.7,33.74s-104.01,-23.21 -123.78,-103.19c58.4,2.39 115.71,25.93 159.48,69.45z" fill="#40404C" id="svg_97"/>
       </g>
      </g>
      <g stroke="null" id="svg_91">
       <path stroke="null" d="m4452.042115,3857.88892c-59.225,61.332 -17.915,163.794 -17.915,163.794s103.843,37.703 163.068,-23.629c59.224,-61.332 83.739,-143.384 74.007,-221.882c-78.791,-6.983 -159.936,20.385 -219.16,81.717z" fill="#5B5B68" id="svg_94"/>
       <path stroke="null" d="m4493.924115,3898.32492c-58.761,60.853 -59.78,122.392 -59.795,123.345c-0.635,-1.581 -40.845,-102.932 17.916,-163.785c59.224,-61.332 140.366,-88.693 219.166,-81.713c-53.263,17.679 -118.063,60.821 -177.287,122.153z" fill="#40404C" id="svg_93"/>
       <path stroke="null" d="m4488.686115,3972.68092c-1.888,0 -3.776,-0.708 -5.234,-2.129c-2.966,-2.891 -3.027,-7.64 -0.136,-10.605l79.297,-81.353l26.841,-27.796l25.549,-27.223c2.834,-3.02 7.581,-3.17 10.601,-0.336c3.021,2.834 3.171,7.581 0.336,10.601l-25.585,27.262c-0.024,0.026 -0.049,0.052 -0.074,0.078l-26.902,27.86l-79.322,81.377c-1.469,1.507 -3.419,2.264 -5.371,2.264z" fill="#40404C" id="svg_92"/>
      </g>
      <g stroke="null" id="svg_88">
       <path stroke="null" d="m4312.858115,4105.32892c48.017,58.349 142.413,32.334 142.413,32.334s43.697,-87.624 -4.32,-145.973c-48.016,-58.349 -117.787,-88.23 -187.89,-87.597c-14.114,68.67 1.781,142.887 49.797,201.236z" fill="#FFCA5E" id="svg_90"/>
       <path stroke="null" d="m4352.697115,4072.53892c47.641,57.893 101.725,65.011 102.563,65.121c-1.456,0.399 -94.764,25.559 -142.405,-32.334c-48.016,-58.349 -63.905,-132.563 -49.792,-201.242c10.181,48.687 41.618,110.106 89.634,168.455z" fill="#E8A328" id="svg_89"/>
      </g>
     </g>
    </g>
    <g stroke="null" id="svg_74">
     <path stroke="null" d="m308.769586,156.096879l-76.02992,0l0,101.45777l76.02992,0l76.09333,0l0,-101.45777l-76.09333,0z" fill="#e6e9ed" id="svg_85"/>
     <path stroke="null" d="m327.792916,80.003539c3.48762,0 6.34112,2.8535 6.34112,6.34112l0,12.68222c0,3.48761 -2.8535,6.34111 -6.34112,6.34111l-38.04666,0c-3.48761,0 -6.34111,-2.8535 -6.34111,-6.34111l0,-12.68222c0,-3.48762 2.8535,-6.34112 6.34111,-6.34112l38.04666,0z" fill="#656d78" id="svg_84"/>
     <path stroke="null" d="m232.739666,301.942429c0,-10.52625 8.49709,-19.02334 19.02334,-19.02334c-10.52625,0 -19.02334,-8.49709 -19.02334,-19.02333l0,-6.34111l76.02992,0l76.09333,0l0,6.34111c0,10.52624 -8.49709,19.02333 -19.02333,19.02333c10.52624,0 19.02333,8.49709 19.02333,19.02334l0,12.68222l0,25.36444l0,25.36444l0,69.75222c0,21.05249 -16.99417,38.04667 -38.04666,38.04667l-76.02992,0c-20.98908,0 -38.04667,-16.99418 -38.04667,-38.04667l0,-69.75222l0,-25.36444l0,-25.36444l0,-12.68222z" fill="#d89700" id="svg_83"/>
     <path stroke="null" d="m384.862916,156.096879l-76.09333,0l-76.02992,0l0,-6.34112c0,-10.52624 8.49709,-19.02333 19.02334,-19.02333l25.30103,0c7.03229,0 12.68222,-5.64359 12.68222,-12.68222l0,-12.68222l38.04666,0l0,12.68222c0,6.97522 5.707,12.68222 12.68223,12.68222l25.36444,0c10.52624,0 19.02333,8.49709 19.02333,19.02333l0,6.34112z" fill="#d89700" id="svg_82"/>
     <g stroke="null" fill="#f6bb42" id="svg_75" transform="matrix(6.341110859909493,0,0,6.341110859909493,-93.87802680656029,-161.29509350317744) ">
      <path stroke="null" d="m75.497949,77.053048l0,-1.998c-0.001,0 -0.002,-0.001 -0.003,-0.001l-1.994,0c-0.553,0 -1,0.447 -1,1s0.447,1 1,1l1.994,0c0.001,0 0.002,-0.001 0.003,-0.001z" id="svg_81"/>
      <path stroke="null" d="m75.497949,81.053048l0,-1.998c-0.001,0 -0.002,-0.001 -0.003,-0.001l-1.994,0c-0.553,0 -1,0.447 -1,1s0.447,1 1,1l1.994,0c0.001,0 0.002,-0.001 0.003,-0.001z" id="svg_80"/>
      <path stroke="null" d="m75.497949,85.053048l0,-1.998c-0.001,0 -0.002,-0.001 -0.003,-0.001l-1.994,0c-0.553,0 -1,0.447 -1,1s0.447,1 1,1l1.994,0c0.001,0 0.002,-0.001 0.003,-0.001z" id="svg_79"/>
      <path stroke="null" d="m51.507949,83.055048l0,1.998c0.001,0 0.002,0.001 0.003,0.001l1.994,0c0.553,0 1,-0.447 1,-1s-0.447,-1 -1,-1l-1.994,0c-0.001,0 -0.002,0.001 -0.003,0.001z" id="svg_78"/>
      <path stroke="null" d="m51.507949,79.055048l0,1.998c0.001,0 0.002,0.001 0.003,0.001l1.994,0c0.553,0 1,-0.447 1,-1s-0.447,-1 -1,-1l-1.994,0c-0.001,0 -0.002,0.001 -0.003,0.001z" id="svg_77"/>
      <path stroke="null" d="m51.507949,75.055048l0,1.998c0.001,0 0.002,0.001 0.003,0.001l1.994,0c0.553,0 1,-0.447 1,-1s-0.447,-1 -1,-1l-1.994,0c-0.001,0 -0.002,0.001 -0.003,0.001z" id="svg_76"/>
     </g>
    </g>
    <g stroke="null" id="svg_59">
     <g stroke="null" id="svg_60" transform="matrix(0.1888981694588178,0,0,0.1888981694588178,-697.1377272731115,-529.6357509899324) ">
      <g stroke="null" id="svg_68">
       <path stroke="null" d="m5362.354345,3956.99904c-18.14,21.2 -35.7,33.74 -35.7,33.74s-104.01,-23.21 -123.78,-103.19c-0.37,-1.45 -0.7,-2.93 -1,-4.42c-16.95,-83.56 6.5,-165.92 56.92,-226.87c70.18,36.48 123.88,103.19 140.83,186.75c9.46,46.62 -14.36,87.22 -37.27,113.99z" fill="#5B5B68" id="svg_73"/>
       <path stroke="null" d="m5258.927345,3871.54504c16.819,82.904 66.938,118.629 67.715,119.181c-1.662,-0.373 -107.95,-24.703 -124.769,-107.606c-16.952,-83.557 6.506,-165.912 56.926,-226.87c-15.63,53.9 -16.824,131.738 0.128,215.295z" fill="#40404C" id="svg_72"/>
       <path stroke="null" d="m5308.899345,3910.77304c-3.494,0 -6.621,-2.454 -7.342,-6.01l-35.594,-175.442c-0.824,-4.06 1.799,-8.018 5.859,-8.841c4.058,-0.826 8.018,1.799 8.841,5.859l35.593,175.441c0.824,4.06 -1.799,8.018 -5.859,8.841c-0.502,0.103 -1.004,0.152 -1.498,0.152z" fill="#40404C" id="svg_71"/>
       <g stroke="null" id="svg_69">
        <path stroke="null" d="m5362.354345,3956.99904c-18.14,21.2 -35.7,33.74 -35.7,33.74s-104.01,-23.21 -123.78,-103.19c58.4,2.39 115.71,25.93 159.48,69.45z" fill="#40404C" id="svg_70"/>
       </g>
      </g>
      <g stroke="null" id="svg_64">
       <path stroke="null" d="m5368.050345,3860.69604c-59.225,61.332 -17.915,163.794 -17.915,163.794s103.843,37.703 163.068,-23.629c59.224,-61.332 83.739,-143.384 74.007,-221.882c-78.791,-6.983 -159.936,20.385 -219.16,81.717z" fill="#5B5B68" id="svg_67"/>
       <path stroke="null" d="m5409.932345,3901.13204c-58.761,60.853 -59.78,122.392 -59.795,123.345c-0.635,-1.581 -40.845,-102.932 17.916,-163.785c59.224,-61.332 140.366,-88.693 219.166,-81.713c-53.263,17.679 -118.063,60.821 -177.287,122.153z" fill="#40404C" id="svg_66"/>
       <path stroke="null" d="m5404.694345,3975.48804c-1.888,0 -3.776,-0.708 -5.234,-2.129c-2.966,-2.891 -3.027,-7.64 -0.136,-10.605l79.297,-81.353l26.841,-27.796l25.549,-27.223c2.834,-3.02 7.581,-3.17 10.601,-0.336c3.021,2.834 3.171,7.581 0.336,10.601l-25.585,27.262c-0.024,0.026 -0.049,0.052 -0.074,0.078l-26.902,27.86l-79.322,81.377c-1.469,1.507 -3.419,2.264 -5.371,2.264z" fill="#40404C" id="svg_65"/>
      </g>
      <g stroke="null" id="svg_61">
       <path stroke="null" d="m5228.866345,4108.13604c48.017,58.349 142.413,32.334 142.413,32.334s43.697,-87.624 -4.32,-145.973c-48.016,-58.349 -117.787,-88.23 -187.89,-87.597c-14.114,68.67 1.781,142.887 49.797,201.236z" fill="#FFCA5E" id="svg_63"/>
       <path stroke="null" d="m5268.705345,4075.34604c47.641,57.893 101.725,65.011 102.563,65.121c-1.456,0.399 -94.764,25.559 -142.405,-32.334c-48.016,-58.349 -63.905,-132.563 -49.792,-201.242c10.181,48.687 41.618,110.106 89.634,168.455z" fill="#E8A328" id="svg_62"/>
      </g>
     </g>
    </g>
   </g>
  </g>
 </g>
</svg>