<svg width="512" height="512" version="1.1" xmlns="http://www.w3.org/2000/svg"><g><title>background</title><rect id="canvas_background" x="-1" y="-1" width="514" height="514" fill="none"/><g id="canvasGrid" x="0" y="0" width="100%" height="100%" display="none" overflow="visible"><rect width="100%" height="100%" fill="url(#gridpattern)" stroke-width="0"/></g></g><g><title>Layer 1</title><g stroke="null"><g transform="matrix(1.29 0 0 1.29 -35.7 -102)"><title transform="translate(-34 69.6)">background</title><rect x="-35" y="68.6" width="514" height="402" fill="none"/><g display="none"><rect x="-34" y="69.6" width="512" height="512" fill="url(#gridpattern)" stroke="null" stroke-width="0"/></g></g><g transform="matrix(1.29 0 0 1.29 -35.7 -102)"><title transform="translate(-34 69.6)">Layer 1</title><path d="m135 156h-76v101h76 76.1v-101h-76.1z" fill="#e6e9ed"/><path d="m154 80c3.49 0 6.34 2.85 6.34 6.34v12.7c0 3.49-2.85 6.34-6.34 6.34h-38c-3.49 0-6.34-2.85-6.34-6.34v-12.7c0-3.49 2.85-6.34 6.34-6.34h38z" fill="#656d78"/><path d="m59 302c0-10.5 8.5-19 19-19-10.5 0-19-8.5-19-19v-6.34h76 76.1v6.34c0 10.5-8.5 19-19 19 10.5 0 19 8.5 19 19v12.7 25.4 25.4 69.8c0 21.1-17 38-38 38h-76c-21 0-38-17-38-38v-69.8-25.4-25.4-12.7z" fill="#ffce54"/><path d="m211 156h-76.1-76v-6.34c0-10.5 8.5-19 19-19h25.3c7.03 0 12.7-5.64 12.7-12.7v-12.7h38v12.7c0 6.98 5.71 12.7 12.7 12.7h25.4c10.5 0 19 8.5 19 19v6.34z" fill="#ffce54"/><g transform="matrix(6.34 0 0 6.34 -93.9 -161)" fill="#f6bb42"><path d="m48.1 77.1v-2c-1e-3 0-2e-3 -1e-3 -3e-3 -1e-3h-1.99c-0.553 0-1 0.447-1 1s0.447 1 1 1h1.99c1e-3 0 2e-3 -1e-3 3e-3 -1e-3z"/><path d="m48.1 81.1v-2c-1e-3 0-2e-3 -1e-3 -3e-3 -1e-3h-1.99c-0.553 0-1 0.447-1 1s0.447 1 1 1h1.99c1e-3 0 2e-3 -1e-3 3e-3 -1e-3z"/><path d="m48.1 85.1v-2c-1e-3 0-2e-3 -1e-3 -3e-3 -1e-3h-1.99c-0.553 0-1 0.447-1 1s0.447 1 1 1h1.99c1e-3 0 2e-3 -1e-3 3e-3 -1e-3z"/><path d="m24.1 83.1v2c1e-3 0 2e-3 1e-3 3e-3 1e-3h1.99c0.553 0 1-0.447 1-1s-0.447-1-1-1h-1.99c-1e-3 0-2e-3 1e-3 -3e-3 1e-3z"/><path d="m24.1 79.1v2c1e-3 0 2e-3 1e-3 3e-3 1e-3h1.99c0.553 0 1-0.447 1-1s-0.447-1-1-1h-1.99c-1e-3 0-2e-3 1e-3 -3e-3 1e-3z"/><path d="m24.1 75.1v2c1e-3 0 2e-3 1e-3 3e-3 1e-3h1.99c0.553 0 1-0.447 1-1s-0.447-1-1-1h-1.99c-1e-3 0-2e-3 1e-3 -3e-3 1e-3z"/></g><g transform="matrix(.189 0 0 .189 -697 -530)" stroke="null"><path d="m4446 3954c-18.1 21.2-35.7 33.7-35.7 33.7s-104-23.2-124-103c-0.37-1.45-0.7-2.93-1-4.42-17-83.6 6.5-166 56.9-227 70.2 36.5 124 103 141 187 9.46 46.6-14.4 87.2-37.3 114z" fill="#5B5B68"/><path d="m4343 3869c16.8 82.9 66.9 119 67.7 119-1.66-0.373-108-24.7-125-108-17-83.6 6.51-166 56.9-227-15.6 53.9-16.8 132 0.128 215z" fill="#40404C"/><path d="m4393 3908c-3.49 0-6.62-2.45-7.34-6.01l-35.6-175c-0.824-4.06 1.8-8.02 5.86-8.84 4.06-0.826 8.02 1.8 8.84 5.86l35.6 175c0.824 4.06-1.8 8.02-5.86 8.84-0.502 0.103-1 0.152-1.5 0.152z" fill="#40404C"/><path d="m4446 3954c-18.1 21.2-35.7 33.7-35.7 33.7s-104-23.2-124-103c58.4 2.39 116 25.9 159 69.4z" fill="#40404C" stroke="null"/><path d="m4452 3858c-59.2 61.3-17.9 164-17.9 164s104 37.7 163-23.6c59.2-61.3 83.7-143 74-222-78.8-6.98-160 20.4-219 81.7z" fill="#5B5B68"/><path d="m4494 3898c-58.8 60.9-59.8 122-59.8 123-0.635-1.58-40.8-103 17.9-164 59.2-61.3 140-88.7 219-81.7-53.3 17.7-118 60.8-177 122z" fill="#40404C"/><path d="m4489 3973c-1.89 0-3.78-0.708-5.23-2.13-2.97-2.89-3.03-7.64-0.136-10.6l79.3-81.4 26.8-27.8 25.5-27.2c2.83-3.02 7.58-3.17 10.6-0.336 3.02 2.83 3.17 7.58 0.336 10.6l-25.6 27.3c-0.024 0.026-0.049 0.052-0.074 0.078l-26.9 27.9-79.3 81.4c-1.47 1.51-3.42 2.26-5.37 2.26z" fill="#40404C"/><path d="m4313 4105c48 58.3 142 32.3 142 32.3s43.7-87.6-4.32-146c-48-58.3-118-88.2-188-87.6-14.1 68.7 1.78 143 49.8 201z" fill="#FFCA5E"/><path d="m4353 4073c47.6 57.9 102 65 103 65.1-1.46 0.399-94.8 25.6-142-32.3-48-58.3-63.9-133-49.8-201 10.2 48.7 41.6 110 89.6 168z" fill="#E8A328"/></g><path d="m309 156h-76v101h76 76.1v-101h-76.1z" fill="#e6e9ed"/><path d="m328 80c3.49 0 6.34 2.85 6.34 6.34v12.7c0 3.49-2.85 6.34-6.34 6.34h-38c-3.49 0-6.34-2.85-6.34-6.34v-12.7c0-3.49 2.85-6.34 6.34-6.34h38z" fill="#656d78"/><path d="m233 302c0-10.5 8.5-19 19-19-10.5 0-19-8.5-19-19v-6.34h76 76.1v6.34c0 10.5-8.5 19-19 19 10.5 0 19 8.5 19 19v12.7 25.4 25.4 69.8c0 21.1-17 38-38 38h-76c-21 0-38-17-38-38v-69.8-25.4-25.4-12.7z" fill="#d89700"/><path d="m385 156h-76.1-76v-6.34c0-10.5 8.5-19 19-19h25.3c7.03 0 12.7-5.64 12.7-12.7v-12.7h38v12.7c0 6.98 5.71 12.7 12.7 12.7h25.4c10.5 0 19 8.5 19 19v6.34z" fill="#d89700"/><g transform="matrix(6.34 0 0 6.34 -93.9 -161)" fill="#f6bb42"><path d="m75.5 77.1v-2c-1e-3 0-2e-3 -1e-3 -3e-3 -1e-3h-1.99c-0.553 0-1 0.447-1 1s0.447 1 1 1h1.99c1e-3 0 2e-3 -1e-3 3e-3 -1e-3z"/><path d="m75.5 81.1v-2c-1e-3 0-2e-3 -1e-3 -3e-3 -1e-3h-1.99c-0.553 0-1 0.447-1 1s0.447 1 1 1h1.99c1e-3 0 2e-3 -1e-3 3e-3 -1e-3z"/><path d="m75.5 85.1v-2c-1e-3 0-2e-3 -1e-3 -3e-3 -1e-3h-1.99c-0.553 0-1 0.447-1 1s0.447 1 1 1h1.99c1e-3 0 2e-3 -1e-3 3e-3 -1e-3z"/><path d="m51.5 83.1v2c1e-3 0 2e-3 1e-3 3e-3 1e-3h1.99c0.553 0 1-0.447 1-1s-0.447-1-1-1h-1.99c-1e-3 0-2e-3 1e-3 -3e-3 1e-3z"/><path d="m51.5 79.1v2c1e-3 0 2e-3 1e-3 3e-3 1e-3h1.99c0.553 0 1-0.447 1-1s-0.447-1-1-1h-1.99c-1e-3 0-2e-3 1e-3 -3e-3 1e-3z"/><path d="m51.5 75.1v2c1e-3 0 2e-3 1e-3 3e-3 1e-3h1.99c0.553 0 1-0.447 1-1s-0.447-1-1-1h-1.99c-1e-3 0-2e-3 1e-3 -3e-3 1e-3z"/></g><g transform="matrix(.189 0 0 .189 -697 -530)" stroke="null"><path d="m5362 3957c-18.1 21.2-35.7 33.7-35.7 33.7s-104-23.2-124-103c-0.37-1.45-0.7-2.93-1-4.42-17-83.6 6.5-166 56.9-227 70.2 36.5 124 103 141 187 9.46 46.6-14.4 87.2-37.3 114z" fill="#5B5B68"/><path d="m5259 3872c16.8 82.9 66.9 119 67.7 119-1.66-0.373-108-24.7-125-108-17-83.6 6.51-166 56.9-227-15.6 53.9-16.8 132 0.128 215z" fill="#40404C"/><path d="m5309 3911c-3.49 0-6.62-2.45-7.34-6.01l-35.6-175c-0.824-4.06 1.8-8.02 5.86-8.84 4.06-0.826 8.02 1.8 8.84 5.86l35.6 175c0.824 4.06-1.8 8.02-5.86 8.84-0.502 0.103-1 0.152-1.5 0.152z" fill="#40404C"/><path d="m5362 3957c-18.1 21.2-35.7 33.7-35.7 33.7s-104-23.2-124-103c58.4 2.39 116 25.9 159 69.4z" fill="#40404C" stroke="null"/><path d="m5368 3861c-59.2 61.3-17.9 164-17.9 164s104 37.7 163-23.6c59.2-61.3 83.7-143 74-222-78.8-6.98-160 20.4-219 81.7z" fill="#5B5B68"/><path d="m5410 3901c-58.8 60.9-59.8 122-59.8 123-0.635-1.58-40.8-103 17.9-164 59.2-61.3 140-88.7 219-81.7-53.3 17.7-118 60.8-177 122z" fill="#40404C"/><path d="m5405 3975c-1.89 0-3.78-0.708-5.23-2.13-2.97-2.89-3.03-7.64-0.136-10.6l79.3-81.4 26.8-27.8 25.5-27.2c2.83-3.02 7.58-3.17 10.6-0.336 3.02 2.83 3.17 7.58 0.336 10.6l-25.6 27.3c-0.024 0.026-0.049 0.052-0.074 0.078l-26.9 27.9-79.3 81.4c-1.47 1.51-3.42 2.26-5.37 2.26z" fill="#40404C"/><path d="m5229 4108c48 58.3 142 32.3 142 32.3s43.7-87.6-4.32-146c-48-58.3-118-88.2-188-87.6-14.1 68.7 1.78 143 49.8 201z" fill="#FFCA5E"/><path d="m5269 4075c47.6 57.9 102 65 103 65.1-1.46 0.399-94.8 25.6-142-32.3-48-58.3-63.9-133-49.8-201 10.2 48.7 41.6 110 89.6 168z" fill="#E8A328"/></g></g></g></g></svg>
