<?xml version="1.0" encoding="iso-8859-1"?>
<!-- Generator: Adobe Illustrator 21.0.0, SVG Export Plug-In . SVG Version: 6.00 Build 0)  -->
<svg version="1.1" id="Capa_1" xmlns="http://www.w3.org/2000/svg" xmlns:xlink="http://www.w3.org/1999/xlink" x="0px" y="0px"
	 viewBox="0 0 512 512" style="enable-background:new 0 0 512 512;" xml:space="preserve">
<path style="fill:#FF6529;" d="M403.831,55.115H239.517c-4.268,0-7.726,3.459-7.726,7.726s3.458,7.726,7.726,7.726h164.314
	c21.302,0,38.632,17.33,38.632,38.632v46.358h15.453v-46.358C457.915,79.376,433.653,55.115,403.831,55.115z"/>
<path style="fill:#FF4A26;" d="M481.095,101.473H239.517c-4.268,0-7.726,3.459-7.726,7.726c0,4.267,3.458,7.726,7.726,7.726h241.577
	c8.521,0,15.453,6.932,15.453,15.453s-6.932,15.453-15.453,15.453l-25.239,15.453h25.239c17.041,0,30.905-13.864,30.905-30.905
	S498.136,101.473,481.095,101.473z"/>
<g>
	<path style="fill:#FF2E23;" d="M301.328,256v61.811c0,12.781-10.399,23.179-23.179,23.179c-4.268,0-7.726,3.459-7.726,7.726
		c0,4.267,3.458,7.726,7.726,7.726c21.302,0,38.632-17.33,38.632-38.632V256H301.328z"/>
	<path style="fill:#FF2E23;" d="M239.517,256v61.811c0,12.781-10.399,23.179-23.179,23.179c-4.268,0-7.726,3.459-7.726,7.726
		c0,4.267,3.458,7.726,7.726,7.726c21.302,0,38.632-17.33,38.632-38.632V256H239.517z"/>
	<path style="fill:#FF2E23;" d="M208.612,256v61.811c0,4.267,3.458,7.726,7.726,7.726c4.268,0,7.726-3.459,7.726-7.726V256H208.612z
		"/>
	<path style="fill:#FF2E23;" d="M270.423,256v61.811c0,4.267,3.458,7.726,7.726,7.726c4.268,0,7.726-3.459,7.726-7.726V256H270.423z
		"/>
	<path style="fill:#FF2E23;" d="M247.243,379.622l-92.716,61.811l92.716-30.905c16.998,0,30.905-13.907,30.905-30.905H247.243z"/>
</g>
<g>
	<path style="fill:#FF4A26;" d="M123.622,379.622h123.622c0,16.998-13.907,30.905-30.905,30.905l-92.716,15.453V379.622z"/>
	<path style="fill:#FF4A26;" d="M278.149,410.527l-46.358,46.358h30.905c25.497,0,46.358-20.861,46.358-46.358H278.149z"/>
</g>
<path style="fill:#FF6529;" d="M247.243,410.527h30.905c0,25.497-20.861,46.358-46.358,46.358h-77.264l-30.905-46.358h92.716
	H247.243z"/>
<path style="fill:#FF2E23;" d="M388.378,147.831l-92.716,154.527h30.905c50.994,0,92.716-41.722,92.716-92.716
	c33.996,0,61.811-27.815,61.811-61.811H388.378z"/>
<path style="fill:#FF4A26;" d="M247.243,147.831h141.135v61.811c0,50.994-41.722,92.716-92.716,92.716h-48.419l-46.358-77.264
	L247.243,147.831z"/>
<polygon style="fill:#FF6529;" points="247.243,147.831 247.243,302.358 216.338,302.358 185.433,225.095 216.338,147.831 "/>
<polygon style="fill:#FF812D;" points="216.338,147.831 216.338,302.358 154.527,302.358 123.622,225.095 154.527,147.831 "/>
<path style="fill:#FF6529;" d="M154.527,147.831v154.527L45.534,239.723v-46.358l-0.268-0.268
	C73.225,165.128,111.857,147.831,154.527,147.831z"/>
<path style="fill:#FF812D;" d="M154.527,302.358l-77.264,30.905L0,302.358c0-42.67,17.297-81.302,45.266-109.261l0.268,0.268
	L154.527,302.358z"/>
<path style="fill:#FF6529;" d="M154.527,302.358l-47.182,108.993H45.534l-0.268,0.268C17.297,383.66,0,345.028,0,302.358H154.527z"
	/>
<path style="fill:#FF812D;" d="M45.266,411.619c27.959,27.969,66.591,45.266,109.261,45.266V302.358L45.266,411.619z"/>
<path style="fill:#2D2D2D;" d="M360.504,147.831l-15.455,30.907l15.455,30.908c17.07,0,30.908-13.837,30.908-30.908
	S377.574,147.831,360.504,147.831z"/>
<path style="fill:#424242;" d="M329.596,178.738c0,17.07,13.837,30.908,30.908,30.908v-61.815
	C343.434,147.831,329.596,161.669,329.596,178.738z"/>
<g>
</g>
<g>
</g>
<g>
</g>
<g>
</g>
<g>
</g>
<g>
</g>
<g>
</g>
<g>
</g>
<g>
</g>
<g>
</g>
<g>
</g>
<g>
</g>
<g>
</g>
<g>
</g>
<g>
</g>
</svg>
