<svg style="enable-background:new 0 0 512 512" version="1.1" viewBox="0 0 512 512" xml:space="preserve" xmlns="http://www.w3.org/2000/svg">
<path d="m404 55.1h-164c-4.27 0-7.73 3.46-7.73 7.73s3.46 7.73 7.73 7.73h164c21.3 0 38.6 17.3 38.6 38.6v46.4h15.5v-46.4c-1e-3 -29.8-24.3-54.1-54.1-54.1z" style="fill:#FF6529"/>
<path d="m481 101h-242c-4.27 0-7.73 3.46-7.73 7.73s3.46 7.73 7.73 7.73h242c8.52 0 15.5 6.93 15.5 15.5s-6.93 15.5-15.5 15.5l-25.2 15.5h25.2c17 0 30.9-13.9 30.9-30.9s-13.9-30.9-30.9-30.9z" style="fill:#FF4A26"/>

	<path d="m301 256v61.8c0 12.8-10.4 23.2-23.2 23.2-4.27 0-7.73 3.46-7.73 7.73s3.46 7.73 7.73 7.73c21.3 0 38.6-17.3 38.6-38.6v-61.8h-15.5z" style="fill:#FF2E23"/>
	<path d="m240 256v61.8c0 12.8-10.4 23.2-23.2 23.2-4.27 0-7.73 3.46-7.73 7.73s3.46 7.73 7.73 7.73c21.3 0 38.6-17.3 38.6-38.6v-61.8h-15.5z" style="fill:#FF2E23"/>
	<path d="m209 256v61.8c0 4.27 3.46 7.73 7.73 7.73s7.73-3.46 7.73-7.73v-61.8h-15.5z" style="fill:#FF2E23"/>
	<path d="m270 256v61.8c0 4.27 3.46 7.73 7.73 7.73s7.73-3.46 7.73-7.73v-61.8h-15.5z" style="fill:#FF2E23"/>
	<path d="m247 380-92.7 61.8 92.7-30.9c17 0 30.9-13.9 30.9-30.9h-30.9z" style="fill:#FF2E23"/>


	<path d="m124 380h124c0 17-13.9 30.9-30.9 30.9l-92.7 15.5v-46.4z" style="fill:#FF4A26"/>
	<path d="m278 411-46.4 46.4h30.9c25.5 0 46.4-20.9 46.4-46.4h-30.9z" style="fill:#FF4A26"/>

<path d="m247 411h30.9c0 25.5-20.9 46.4-46.4 46.4h-77.3l-30.9-46.4h124z" style="fill:#FF6529"/>
<path d="m388 148-92.7 155h30.9c51 0 92.7-41.7 92.7-92.7 34 0 61.8-27.8 61.8-61.8h-92.7z" style="fill:#FF2E23"/>
<path d="m247 148h141v61.8c0 51-41.7 92.7-92.7 92.7h-48.4l-46.4-77.3 46.4-77.3z" style="fill:#FF4A26"/>
<polygon points="247 148 247 302 216 302 185 225 216 148" style="fill:#FF6529"/>
<polygon points="216 148 216 302 155 302 124 225 155 148" style="fill:#FF812D"/>
<path d="m155 148v155l-109-62.6v-46.4l-0.268-0.268c28-28 66.6-45.3 109-45.3z" style="fill:#FF6529"/>
<path d="m155 302-77.3 30.9-77.3-30.9c0-42.7 17.3-81.3 45.3-109l109 109z" style="fill:#FF812D"/>
<path d="m155 302-47.2 109h-61.8l-0.268 0.268c-28-28-45.3-66.6-45.3-109h155z" style="fill:#FF6529"/>
<path d="m45.3 412c28 28 66.6 45.3 109 45.3v-155l-109 109z" style="fill:#FF812D"/>
<path d="m361 148-15.5 30.9 15.5 30.9c17.1 0 30.9-13.8 30.9-30.9s-13.8-30.9-30.9-30.9z" style="fill:#2D2D2D"/>
<path d="m330 179c0 17.1 13.8 30.9 30.9 30.9v-61.8c-17.1 0-30.9 13.8-30.9 30.9z" style="fill:#424242"/>















</svg>
