<svg width="512" height="512" version="1.1" xmlns="http://www.w3.org/2000/svg"><g><title>background</title><rect id="canvas_background" x="-1" y="-1" width="514" height="514" fill="none"/><g id="canvasGrid" x="0" y="0" width="100%" height="100%" display="none" overflow="visible"><rect width="100%" height="100%" fill="url(#gridpattern)" stroke-width="0"/></g></g><g><title>Layer 1</title><g stroke="null"><g transform="matrix(1 0 0 1 -67.6 -75.6)"><title transform="translate(71.4 71.1)">background</title><rect x="70.4" y="70.1" width="514" height="514" fill="none"/><g display="none"><rect x="71.4" y="71.1" width="512" height="512" fill="url(#gridpattern)" stroke="null" stroke-width="0"/></g></g><g transform="matrix(1 0 0 1 -67.6 -75.6)"><title transform="translate(71.4 71.1)">Layer 1</title><path d="m567 487c-0.111-11.5-1.28-19.7-3.79-26.7l-1.92-5.34-31 16.5v-0.00384l-22 11.7v-0.00383l-43.5 23.2c-0.629 0.337-1.29 0.682-1.96 1.04l-4.9 2.59-0.288-0.127-1.79 0.587c-2.31 0.751-4.38 1.12-6.33 1.12-0.64 0-1.22-0.0307-1.77-0.0997-3.79-0.464-7.25-2.5-9.84-4.22l-0.372-0.249-5.75-4.07c-11.6-8.25-24-15.6-36.7-22l-1.15-0.571 0.0345-0.046-2-0.928-1.02-0.506-0.0153 0.023-2.2-1.02c-11.8-5.5-24.2-10.2-36.7-13.9l-5.99-1.79-0.318 6.24c-0.176 3.43 0.0192 7.09 0.261 10.5l1.15 16.4v0.00384l1.66 23.8 2.35 1.29c4.4 2.42 8.9 4.74 13.4 6.9l2.85 1.38v0.00767l0.41 0.192 2.03 0.981 0.0153-0.046 1.13 0.518c15.9 7.26 32.5 13.2 49.4 17.7l1.43 0.38-0.046 0.123 5.51 1.25 0.587 0.142c5.06 1.21 11 2.49 17.1 2.49 2.02 0 3.96-0.146 5.78-0.433 6.22-0.985 12.1-3.78 17.3-6.25l3.64-1.73v0.00383l45.9-21.7 3.13-1.48 0.514-0.253 42.1-19.9 3.54-0.744 0.142-3.83c0.0115-0.334 0.023-0.64 0.023-0.97l0.0153-0.736 0.218-6.39-0.165 0.0383-0.0153-1z" fill="#71d60c"/><path d="m450 549c-1.73 0.268-3.48 0.395-5.36 0.395-5.7 0-11.4-1.24-16.4-2.41-25-5.96-49.3-15.1-72.1-27.2l-7.79-4.12 0.736 10.8c0.564 8.05 1.3 14.6 5.18 20.1 4.21 5.92 11.1 8.87 19.1 11.9 19.7 7.42 44.1 16.6 68.3 16.6h0.00384c6 0 11.8-0.575 17.3-1.71 10.7-2.21 20.8-6.65 30.6-10.9l47-20.6c8.18-3.59 17.5-7.66 23.1-15.4 5.13-7.01 6.32-15.8 6.78-22.7l0.567-8.35-101 47.6c-5.27 2.49-10.7 5.06-16.4 5.98v-1e-5z" fill="#ef8a35"/><path d="m432 507 0.541 0.406c4.31 3.11 9.18 6.63 14.9 7.32 0.705 0.0843 1.43 0.127 2.15 0.127 5.7 0 11.1-2.63 16.6-5.57l96.4-51.3-2.64-4.42c-1.45-2.42-3.12-4.61-4.99-6.53-0.548-0.56-1.08-1.06-1.61-1.52l-5.16-4.5-2.38 5.82-81.7 38.6c-4.13 1.95-8.82 4.16-13.6 4.16-0.249 0-0.506-0.00766-0.694-0.0153-6.02-0.284-11.3-4.14-16.4-7.87l-1.38-1c-22.4-16.2-50-26-77.7-27.6l-2.59-0.15-1.58 2.05c-0.284 0.364-0.548 0.744-0.82 1.17-0.863 1.36-1.58 2.89-2.13 4.54l-1.62 4.82 4.88 1.45c29.4 8.69 56.8 22.2 81.6 40.1h1e-5 1e-5z" fill="#f7c446"/><path d="m423 110c-32.9-17.5-70.5-26.7-109-26.7-23.3 0-46.3 3.38-68.4 10-36.2 10.9-70.1 31.1-97.9 58.4-28 27.5-48.7 61-59.7 96.9-22.8 74.1-4.39 159 46.9 215 39.7 43.9 99.5 70 160 70 17 0 33.6-2.08 49.6-6.17l3.95-1.02-1.76-25.3-5.56 1.23c-12.7 2.81-25.8 4.24-39 4.24-44.3 0-88.9-16-122-44-21.9-18.4-39.8-42.5-51.8-69.6-12-27-17.8-56.5-16.8-85.2 1.91-58.3 30.8-115 77.3-151 35.8-27.9 81.2-43.3 128-43.3 12.6 0 25.2 1.16 37.5 3.44 42.8 7.98 80.6 29.1 107 59.5 27.2 31.8 42.2 74.6 42.2 121 0.0575 42.8-9.47 82.7-28.3 119l-2.98 5.67 6.24 1.4c5.28 1.19 10.6 2.26 15.8 3.29l0.981 0.196c0.261 0.0575 0.544 0.107 0.801 0.138l4.44 0.452 0.893-4.38c17.5-24 29.8-52.8 35.4-83.1 5.6-30.1 4.63-61.4-2.82-90.5-14.9-58.2-56.1-110-110-139z" fill="#ccd3eb"/><path d="m527 433c-10.6-3.04-21.5-5.21-32.1-7.33-7.59-1.52-15.4-3.08-23-4.96l1.82-3.37c15.7-29.1 24.9-59.4 28.2-92.8l0.184 0.176 0.636-10.5c0.337-5.58 0.506-11.3 0.506-17v-10.8l-0.265 0.23c-1.72-35.6-12.4-68.8-31-96.2l-1.38-2.03 0.0345-0.0268-0.644-0.87-1.05-1.55-0.0613 0.0537-1.01-1.37c-2.2-2.98-4.52-5.89-6.88-8.67-19.6-22.9-46-40.7-76.6-51.5l0.173-0.157-8.23-2.5c-7.22-2.2-14.6-4.01-21.9-5.38-12.2-2.28-24.8-3.44-37.4-3.44-8.66 0-17.4 0.548-26.1 1.63l-10.3 1.29 0.238 0.219c-33.9 5.88-65.6 19.7-91.7 40.1-0.261 0.196-0.518 0.403-0.774 0.613l-0.395 0.314-1.99 1.56-0.0192-0.0153-0.464 0.399-1.86 1.46 0.0652 0.0652-1.21 1.03c-30.4 25.9-53 61.4-63.7 100l-0.13-0.107-1.81 7.63c-2.97 12.6-4.68 25.4-5.11 38.1-0.56 17.2 1.3 34.7 5.54 52l1.97 8.05 0.13-0.119c2.49 8.62 5.58 17.1 9.2 25.3 10.1 22.8 24.6 43.8 42.1 60.7l1.33 1.29-0.0498 0.0498 1.35 1.22 0.809 0.79 0.0307-0.0307 1.68 1.51c1.79 1.61 3.27 2.9 4.65 4.05 21.6 18.1 47.9 31.3 76.1 38.3l-0.238 0.207 9.89 1.92c12 2.34 24.3 3.53 36.4 3.53 13.8 0 27.5-1.54 40.6-4.57l4.08-0.943-1.51-21.7c-0.479-6.84-1.14-16.2 3.35-23.2l0.18-0.272 0.303-0.468 11.5 1.27c24.6 2.71 49.1 12.1 69 26.4l1.41 1.02c5.2 3.79 11.1 8.08 18 8.4 0.284 0.0153 0.567 0.023 0.851 0.023 5.41 0 10.6-2.46 14.8-4.45l89.8-42.4-8-4.7c-6.28-3.69-13.5-5.93-19.8-7.74zm-162 11.7c-0.176 0.0728-0.353 0.142-0.533 0.219 0.18-0.0767 0.357-0.146 0.533-0.219zm-1.58 0.671c-0.399 0.176-0.794 0.353-1.19 0.537 0.399-0.184 0.794-0.36 1.19-0.537zm-1.91 0.878c-0.51 0.245-1.01 0.495-1.51 0.755 0.498-0.261 1-0.51 1.51-0.755zm24.9-9.5c-0.326 0.115-0.652 0.234-0.981 0.349 0.33-0.115 0.656-0.234 0.981-0.349zm34.1-10.7c-0.119 0.0345-0.234 0.069-0.353 0.104 0.119-0.0345 0.234-0.069 0.353-0.104zm24.3-6.52c0.00766 0 0.0153-0.00384 0.0192-0.00384-0.00383 0-0.0115 0.00384-0.0192 0.00384zm24.6 0.475c-0.709-0.18-1.43-0.364-2.14-0.552 0.395 0.104 0.805 0.211 1.25 0.322l0.889 0.23zm-12.4-2.41c-3.22 0-6.44 0.544-9.63 1.29 3.42-0.801 6.5-1.3 9.62-1.3 2.42 0 4.66 0.303 6.84 0.92 0.092 0.0307 0.192 0.0575 0.284 0.0843-0.0843-0.0268-0.172-0.0498-0.257-0.0728-2.18-0.621-4.42-0.924-6.86-0.924zm-11.4 1.72c0.422-0.104 0.832-0.207 1.24-0.303-0.414 0.0997-0.828 0.199-1.24 0.303z" fill="#ef8a35"/><path d="m558 443c-8.18-8.36-19.2-12-29.8-15.1-7.29-2.09-14.7-3.78-22.1-5.31 35.6-49.9 47.6-115 32.1-176-15.3-59.5-57.4-113-113-142-54.6-29-120-35.2-181-17-37 11.1-71.5 31.7-99.9 59.6-28.6 28.1-49.7 62.3-60.9 98.9-23.3 75.8-4.47 162 47.9 220 41.3 45.6 103 71.6 164 71.6 16.5 0 33-1.94 49-5.9 0.598 5.77 1.85 12.1 5.64 17.4 5.42 7.63 14.6 11.1 21.3 13.6 20.5 7.74 45 17 70 17 6.11-0.00384 12.2-0.556 18.3-1.82 11.2-2.32 21.6-6.87 31.6-11.3l46.9-20.6c8.33-3.65 18.7-8.19 25.2-17.1 7.59-10.4 7.87-24.2 8.07-34.2 0.376-19-0.349-38.6-13.4-52zm-194 76.6c0.606-0.165 1.2-0.334 1.8-0.506 7.16-2.09 14.7-4.47 21.6-8.7 0.529-0.326 1.05-0.663 1.56-1 3.62 3.82 5.11 8.93 5.72 12.7 0.564 3.45 0.621 7.07 0.464 10.7-10.6-3.83-21-8.19-31.1-13.1h1e-5zm189-67.5c1.69 2.15 3.06 4.53 4.17 7.03-21.3 12.9-43.4 25.1-65.6 36.4-9.48 4.81-18.1 8.89-27.3 10.1-19.1 2.53-37.8-7.69-55.9-17.6l-0.506-0.28c-12.3-6.75-25.7-13.8-40-19.5-4.86-1.96-10.3-3.96-16.2-4.44 0.0422-0.169 0.0767-0.334 0.127-0.502 0.441-1.59 1.17-3.07 2.09-4.44 28.6 1.3 55 16.9 77.2 32 4.35 2.97 9.28 6.35 15.3 7.12 0.901 0.115 1.8 0.169 2.69 0.169 4.28 0 8.36-1.22 11.9-2.4 20.8-6.88 40.3-17 59.3-26.8l32.8-16.9zm8.24 23.9c0.475 4.87 0.893 9.86 1.17 14.7 0.00767 0.111 0.00767 0.23 0.0153 0.341-0.38-0.153-0.778-0.28-1.2-0.334-5.36-0.698-10.9-1.42-15.6-3.56-3.79-1.73-6.2-3.44-7.56-5.43 7.44-4.22 14.8-8.54 22.1-12.9 0.491 2.39 0.836 4.81 1.07 7.19zm-179 26.1c-5.8 3.58-12.6 5.73-19.2 7.62-3.71 1.08-7.09 1.94-10.1 1.73-0.947-11-1.97-22-2.74-33-0.119-1.69-0.169-3.3-0.15-4.89 4.73 0.291 9.56 2.07 13.8 3.79 10.1 4.06 19.8 8.82 29 13.7-2.07 4.18-5.75 8.03-10.6 11v1e-5zm-32.9-54.5c-2.36 2.06-4.4 4.45-5.92 7.26-3.04 5.62-3.53 12.2-3.34 18.6-6.85-6.77-13.7-13.6-20.5-20.4 26.4-23.2 53.1-46.2 80.1-68.7 11.7 11 24.1 21.9 37.2 31.7-0.774 0.207-1.55 0.406-2.32 0.602-10.8 2.71-21.6 5.8-32.2 9.13-12.3 3.84-24.6 8.11-36.6 12.7-5.72 2.19-11.7 4.99-16.5 9.13zm-21.1-149c-20.9-21.3-41.8-42.7-62.6-64.2l71.8-64.3c20.5 19.4 39.8 40.7 58.5 61.4 1.7 1.88 3.4 3.76 5.11 5.65-24.2 20.4-48.5 40.9-72.7 61.5zm79.3-54.2c21 23 42.7 46.1 66.8 66.4-24.9 19.8-49.6 39.9-74.2 60.3-8.08-7.81-15.8-15.6-23.2-23.1-13.9-14.1-27.9-28.2-41.8-42.4 24.1-20.5 48.3-40.9 72.4-61.3zm-86.8 60.6c-26.4 22.5-52.8 45-79.1 67.5-19.8-21.1-39.5-42.4-58.8-63.9l75.4-67.6c20.8 21.4 41.6 42.8 62.5 64zm6.9 7.02c14.1 14.4 28.3 28.7 42.4 43 7.2 7.27 14.7 14.9 22.6 22.5-26.9 22.5-53.6 45.4-79.9 68.6-21.7-21.8-43.1-44-64.3-66.4 26.3-22.6 52.8-45.1 79.2-67.6zm122 101c-0.107-0.092-0.199-0.192-0.318-0.276-14.8-10.4-28.7-22.5-41.8-34.8 24.7-20.6 49.7-40.8 74.7-60.8 4.58 3.68 9.25 7.25 14 10.7-3.58 30.3-12.5 59.8-27.1 86.8-1.51-0.395-3.02-0.801-4.52-1.23-5.04-1.43-10-1.27-15-0.433zm47.7-96.5c-2.43-1.83-4.84-3.68-7.22-5.57 2.6-2.06 5.21-4.1 7.81-6.15-0.111 3.91-0.307 7.82-0.59 11.7zm1.12-24.6c-5.39 4.22-10.8 8.46-16.1 12.7-24.1-20.2-46-43.3-67.1-66.5 17.6-14.9 35.3-29.7 52.9-44.4 8.36 12.5 15 26.2 19.8 40.4 4.39 12.9 7.74 26.3 9.41 39.9 0.728 5.9 1.27 12 1.12 17.9zm-89.9-61.1c-1.78-1.97-3.57-3.94-5.34-5.91-18.7-20.6-37.9-41.9-58.4-61.4l37.7-33.8c0.0805-0.0728 0.142-0.157 0.215-0.234 28.5 10 54.3 26.1 74.3 49.5 1.86 2.17 3.65 4.41 5.38 6.68-17.9 15-35.9 30.1-53.8 45.2zm-71-74c-0.732-0.671-1.46-1.34-2.2-2.01-3.01-2.71-6.09-5.42-9.07-8.05-10-8.82-20.4-17.9-29-28.1 18.7-1.77 37.6-1.01 56 2.42 6 1.12 11.6 2.92 17.4 4.58 0.422 0.119 0.836 0.257 1.26 0.38l-34.4 30.8zm-51.8-36.8c9.9 12.9 22.1 23.7 34 34.1 2.96 2.61 6.02 5.3 8.98 7.97 0.479 0.433 0.951 0.874 1.43 1.31l-71.4 64c-22.2-22.9-44.3-45.9-66.2-68.8 7-4.97 14.5-9.64 21.8-13.9 12.6-7.21 26-13 39.8-17.4 10.3-3.25 20.9-5.68 31.6-7.3v-1e-5zm-101 44.5c22.1 23.1 44.4 46.3 66.8 69.4l-75.1 67.4c-15.7-17.5-31.2-35.2-46.5-52.9-0.468-0.541-1.03-0.947-1.64-1.23 8.18-22.1 20.3-42.8 35.7-60.7 6.53-7.6 13-15.5 20.7-21.9zm-60 92.9c14.6 16.9 29.4 33.7 44.3 50.4l-48.8 43.7c-3.07-14.7-4.5-29.7-4.03-44.3 0.552-16.9 3.45-33.7 8.43-49.8zm-1.63 105 52.5-47.1c19.3 21.4 38.9 42.7 58.6 63.7-23.5 20.2-46.9 40.3-70.2 60.5-4.07-4.61-7.91-9.38-11.4-14.2-7.84-10.9-14.5-22.5-20-34.8-3.94-8.91-7.23-18.3-9.81-28 0.0613-0.0498 0.127-0.0882 0.188-0.138zm118 23.8c21.2 22.5 42.7 44.6 64.4 66.5-15.9 14.1-31.7 28.2-47.3 42.5-0.184 0.169-0.334 0.357-0.487 0.544-4.51-1.11-9-2.38-13.5-3.84-7.38-2.41-14.6-5.27-21.7-8.57-14.1-6.61-27.3-15-39.3-25-4.26-3.58-8.46-7.49-12.5-11.6 23.3-20.2 46.7-40.3 70.3-60.5h1e-5zm71.3 73.5c9.56 9.59 19.2 19.1 28.8 28.6 0.299 4.27 0.59 8.44 0.59 8.44 0.0843 1.25-22.7 3.67-24.9 3.84-8.63 0.702-17.3 0.774-26 0.238-7.31-0.452-14.5-1.33-21.5-2.59 14.2-12.9 28.5-25.8 43-38.5zm92.1 60.9c-0.817-5.01-2.88-11.9-7.96-17.5 2.08-2.29 3.8-4.76 5.11-7.35 0.452 0.249 0.916 0.498 1.37 0.744l0.51 0.28c8.23 4.5 17 9.28 26.1 12.9-2.68 10.9-1.79 22.5 2.54 32.9 0.123 0.288 0.284 0.61 0.464 0.947-3.72-0.59-7.36-1.51-10.6-2.38-5.73-1.53-11.4-3.22-17.1-5.06 0.345-5.04 0.441-10.3-0.418-15.5h1e-5zm41.7 23.3c-0.242-0.119-0.491-0.226-0.755-0.299-1.12-0.533-3.65-3.35-4.21-4.7-3.41-8.16-4.19-17.3-2.28-25.9 6.28 1.85 12.7 2.98 19.3 2.98 2.39 0 4.8-0.15 7.23-0.468 10.7-1.42 20.5-6.05 30.4-11.1 4.01 4.65 5.82 11.2 4.65 17.2-0.119 0.613-0.104 1.22 0 1.8-13.1 6.7-26.6 13.3-40.6 17.5-5.06 1.5-9.55 2.46-13.7 2.94zm58.6-44c8.25-4.29 16.5-8.71 24.6-13.2 2.96 4.83 7.83 7.61 12.1 9.55 2.69 1.23 5.49 2.07 8.28 2.7-13.1 6.29-26.2 12.8-39.1 19.4 0.0537-6.54-2.05-13.1-5.91-18.4zm20.7-62.3c6.52 1.87 13.6 3.97 19.6 7.7l-29.4 15.2c-18.6 9.6-37.8 19.5-57.9 26.2-3.45 1.14-7.08 2.22-10.3 1.81-3.7-0.475-7.26-2.91-11.1-5.53-20.7-14.2-45.1-28.7-72.1-32.7 1.77-0.939 3.56-1.74 5.26-2.39 11.8-4.52 23.9-8.73 36-12.5 10.7-3.33 21.5-6.4 32.4-9.14 1.45-0.368 2.9-0.763 4.35-1.16 4.93-1.35 9.66-2.64 14.2-2.64 1.86 0 3.7 0.215 5.5 0.732 10.5 3 21.4 5.17 31.9 7.26 10.5 2.09 21.3 4.25 31.6 7.21v-1e-5zm-386 22.2c-50.1-55.3-68.1-138-45.8-210 10.8-35.1 31-67.9 58.4-94.8 27.3-26.8 60.4-46.5 95.9-57.2 57.9-17.4 121-11.5 173 16.3 52.9 28.1 93.2 78.9 108 136 7.27 28.4 8.23 58.9 2.75 88.4-5.51 29.7-17.5 57.7-34.6 81.1-0.441 0.602-0.705 1.27-0.84 1.95-0.092-0.0192-0.184-0.0383-0.276-0.0537-5.52-1.1-11.1-2.23-16.7-3.48 19.2-36.6 28.9-77.2 28.9-121-0.0728-47-15.5-91-43.4-124-26.7-31.3-65.5-53-109-61.2-59.1-11-122 4.21-169 40.8-47.7 37.2-77.3 95-79.2 155-0.962 29.5 5.01 59.7 17.3 87.4 12.3 27.8 30.7 52.5 53.2 71.4 34.8 29.2 80.3 45.1 125 45.1 13.5 0 27-1.44 40.1-4.35l1.08 15.5c-71.8 18.5-154-6.57-205-62.4zm416 63.8c-4.92 6.73-13.6 10.5-21.2 13.9l-46.9 20.6c-9.57 4.19-19.5 8.53-29.7 10.6-28.3 5.86-58.6-5.57-82.9-14.7-7.15-2.7-13.4-5.32-16.8-10.1-3.53-4.98-4.18-11.7-4.35-18.4 14.1 7.18 28.7 13.4 43.7 18.5 0.564 0.33 1.19 0.552 1.88 0.636 6.71 2.25 13.5 4.3 20.3 6.13 5.21 1.39 11.3 2.9 17.7 3.27 1.03 0.0575 2.07 0.0843 3.12 0.0843 6.72 0 13.9-1.2 22.4-3.71 16.4-4.87 31.8-12.8 46.6-20.4l3.19-1.64c16.3-8.34 32.9-16.5 49.4-24.4-0.847 7.25-2.81 14.6-6.49 19.7h1e-5z"/><g fill="#71d60c" stroke-opacity="null" stroke-width="null"><ellipse cx="376" cy="304" rx="14.3" ry="6.19"/><ellipse cx="411" cy="293" rx="6.67" ry="12.4"/><ellipse cx="224" cy="428" rx="14.3" ry="5.71"/><ellipse cx="302" cy="381" rx="7.14" ry="14.6"/><ellipse cx="257" cy="449" rx="13.3" ry="6.19"/><ellipse transform="rotate(-29.6 194 371)" cx="194" cy="371" rx="14.3" ry="5.71"/><ellipse cx="158" cy="366" rx="6.67" ry="13.3"/><ellipse cx="255" cy="280" rx="12.4" ry="4.76"/><ellipse cx="234" cy="165" rx="6.67" ry="17.1"/><ellipse transform="rotate(26.4 269 154)" cx="269" cy="154" rx="16.7" ry="7.14"/></g><ellipse cx="396" cy="173" rx="16.7" ry="7.14" fill="#fff" stroke-opacity="null" stroke-width="null"/><g fill="#71d60c" stroke-opacity="null" stroke-width="null"><ellipse transform="rotate(40.3 386 147)" cx="386" cy="147" rx="4.29" ry="9.52"/><ellipse transform="rotate(260 431 185)" cx="431" cy="185" rx="6.67" ry="11"/><ellipse cx="407" cy="203" rx="6.19" ry="10"/><ellipse cx="449" cy="230" rx="13.3" ry="6.67"/><ellipse cx="478" cy="273" rx="6.67" ry="12.4"/><ellipse cx="466" cy="216" rx="5.71" ry="11.4"/><ellipse cx="475" cy="347" rx="11.9" ry="5.71"/><ellipse transform="rotate(-33.1 450 379)" cx="450" cy="379" rx="8.1" ry="14.8"/><ellipse cx="135" cy="302" rx="5.71" ry="16.2"/><ellipse cx="390" cy="414" rx="15.7" ry="6.67"/><ellipse cx="308" cy="487" rx="14.8" ry="6.67"/></g><g fill="#fff" stroke-opacity="null" stroke-width="null"><ellipse cx="191" cy="209" rx="5.71" ry="16.2"/><ellipse transform="rotate(-28.1 225 306)" cx="225" cy="306" rx="18.7" ry="5.48"/><ellipse cx="268" cy="320" rx="7.1" ry="18.1"/><ellipse cx="309" cy="229" rx="17.1" ry="6.13"/><ellipse cx="348" cy="215" rx="9.03" ry="26.1"/><ellipse cx="325" cy="354" rx="19" ry="5.81"/><ellipse cx="330" cy="407" rx="17.7" ry="6.45"/><ellipse cx="221" cy="454" rx="12.6" ry="5.16"/><ellipse cx="250" cy="418" rx="4.52" ry="10.3"/><ellipse cx="165" cy="404" rx="15.2" ry="4.52"/><ellipse cx="259" cy="190" rx="18.7" ry="5.48"/><ellipse cx="471" cy="247" rx="11.6" ry="5.48"/><ellipse cx="472" cy="376" rx="6.13" ry="13.5"/><ellipse transform="rotate(41.2 421 326)" cx="421" cy="326" rx="9.03" ry="26.1"/></g><ellipse cx="333" cy="254" rx="16.7" ry="7.14" fill="#71d60c" stroke-opacity="null" stroke-width="null"/></g></g></g></svg>
