<svg width="512" height="512" xmlns="http://www.w3.org/2000/svg">
 <!-- Created with Method Draw - http://github.com/duopixel/Method-Draw/ -->

 <g>
  <title>background</title>
  <rect fill="none" id="canvas_background" height="514" width="514" y="-1" x="-1"/>
  <g display="none" overflow="visible" y="0" x="0" height="100%" width="100%" id="canvasGrid">
   <rect fill="url(#gridpattern)" stroke-width="0" y="0" x="0" height="100%" width="100%"/>
  </g>
 </g>
 <g>
  <title>Layer 1</title>
  <!-- Created with Method Draw - http://github.com/duopixel/Method-Draw/ -->
  <g stroke="null" id="svg_99">
   <g stroke="null" transform="matrix(1.0041072892299328,0,0,1.0041072892299328,-67.61177846047887,-75.56343687913149) " id="svg_96">
    <title stroke="null" transform="translate(2.655758857727051,-3.983638048171997) translate(-8.222172737121582,-10.962897300720215) translate(-233.99998474121094,-314.9999694824219) translate(-1736.9998779296875,-1646.9998779296875) translate(2047.9998779296875,0) translate(0,2047.9998779296875) ">background</title>
    <rect stroke="null" x="70.433601" y="70.053495" width="514" height="514" id="svg_94" fill="none"/>
    <g stroke="null" id="svg_93" display="none">
     <rect stroke="null" id="svg_97" width="512" height="512" x="71.433601" y="71.053495" stroke-width="0" fill="url(#gridpattern)"/>
    </g>
   </g>
   <g stroke="null" transform="matrix(1.0041072892299328,0,0,1.0041072892299328,-67.61177846047887,-75.56343687913149) " id="svg_98">
    <title stroke="null" transform="translate(2.655758857727051,-3.983638048171997) translate(-8.222172737121582,-10.962897300720215) translate(-233.99998474121094,-314.9999694824219) translate(-1736.9998779296875,-1646.9998779296875) translate(2047.9998779296875,0) translate(0,2047.9998779296875) ">Layer 1</title>
    <g stroke="null" id="svg_86">
     <path stroke="null" d="m566.568881,487.242655c-0.11116,-11.49267 -1.28421,-19.7269 -3.79127,-26.70377l-1.91673,-5.33998l-31.00489,16.51447l0,-0.00384l-22.04613,11.73801l0,-0.00383l-43.47508,23.15783c-0.62869,0.33734 -1.28804,0.68235 -1.96272,1.04269l-4.90298,2.59142l-0.28751,-0.12651l-1.79021,0.58652c-2.31157,0.75135 -4.38163,1.11936 -6.32902,1.11936c-0.64019,0 -1.2152,-0.03067 -1.77105,-0.09967c-3.79128,-0.46385 -7.25288,-2.49941 -9.84045,-4.22062l-0.37185,-0.24918l-5.75017,-4.07494c-11.63066,-8.24574 -23.98968,-15.63279 -36.73972,-21.95414l-1.15386,-0.57118l0.0345,-0.046l-2.00105,-0.92769l-1.01971,-0.50602l-0.01533,0.02301l-2.2004,-1.0197c-11.84917,-5.50099 -24.19285,-10.18546 -36.69371,-13.91924l-5.98785,-1.79022l-0.31817,6.24085c-0.17634,3.43477 0.01917,7.08804 0.26067,10.5228l1.1462,16.37647l0,0.00384l1.65989,23.77119l2.34606,1.28803c4.40463,2.41506 8.90126,4.73813 13.37105,6.90403l2.84825,1.38004l0,0.00767l0.41018,0.19167l2.02789,0.98136l0.01533,-0.046l1.12704,0.51752c15.85896,7.25671 32.48077,13.21004 49.40542,17.6875l1.42604,0.37951l-0.046,0.12267l5.51249,1.24971l0.58652,0.14183c5.06397,1.20754 10.97898,2.49174 17.05498,2.49174c2.0164,0 3.96378,-0.14567 5.78084,-0.43317c6.21784,-0.9852 12.12519,-3.78361 17.33867,-6.25236l3.64176,-1.72504l0,0.00383l45.92082,-21.74329l3.13193,-1.47971l0.51368,-0.25301l42.09505,-19.91857l3.54209,-0.74368l0.14184,-3.82962c0.0115,-0.33351 0.023,-0.64018 0.023,-0.96986l0.01534,-0.73602l0.2185,-6.38652l-0.16484,0.03834l-0.01533,-1.00053z" fill="#71d60c" id="svg_92"/>
     <path stroke="null" d="m449.72935,549.3291c-1.72504,0.26835 -3.47692,0.39486 -5.35914,0.39486c-5.70417,0 -11.439,-1.24204 -16.36115,-2.40741c-25.03238,-5.96101 -49.30575,-15.10376 -72.14157,-27.17911l-7.78572,-4.11712l0.73602,10.82947c0.56352,8.05024 1.30337,14.64376 5.17515,20.10642c4.21296,5.92267 11.10932,8.87442 19.05605,11.87217c19.66556,7.41772 44.13443,16.64865 68.31962,16.64865l0.00384,0c6.00318,0 11.81467,-0.57502 17.27349,-1.70589c10.67615,-2.21189 20.80794,-6.65102 30.62156,-10.94448l46.98268,-20.59709c8.18056,-3.59194 17.45366,-7.65922 23.1425,-15.44878c5.12531,-7.00753 6.31751,-15.80911 6.78135,-22.69398l0.56736,-8.3454l-100.57039,47.61136c-5.26716,2.49174 -10.71448,5.06398 -16.44165,5.97634l0,-0.00001zm0,0" fill="#ef8a35" id="svg_91"/>
     <path stroke="null" d="m431.532011,506.908215l0.54051,0.40634c4.30878,3.1051 9.18493,6.62803 14.86992,7.32188c0.70536,0.08434 1.42988,0.12651 2.1544,0.12651c5.70033,0 11.12081,-2.62974 16.64097,-5.56616l96.37278,-51.32214l-2.64125,-4.42379c-1.4452,-2.41891 -3.12425,-4.61163 -4.99497,-6.53219c-0.54818,-0.55969 -1.0772,-1.05803 -1.61388,-1.52189l-5.16365,-4.49662l-2.3844,5.81917l-81.72902,38.56444c-4.13245,1.94739 -8.81691,4.15545 -13.57806,4.15545c-0.24917,0 -0.50601,-0.00766 -0.69385,-0.01533c-6.0185,-0.28368 -11.29332,-4.13629 -16.4033,-7.87007l-1.37621,-1.00052c-22.42565,-16.20013 -50.03794,-25.99842 -77.74224,-27.59313l-2.5914,-0.1495l-1.57939,2.05472c-0.28367,0.36418 -0.54817,0.74369 -0.82035,1.16921c-0.86252,1.36087 -1.57938,2.89041 -2.1314,4.53879l-1.62154,4.82247l4.87997,1.44522c29.35652,8.68658 56.8308,22.18412 81.60634,40.06714l0.00001,0l0.00001,0zm0,0" fill="#f7c446" id="svg_90"/>
     <path stroke="null" d="m423.198101,109.537295c-32.87179,-17.46134 -70.46636,-26.69227 -108.71646,-26.69227c-23.2575,0 -46.2735,3.37727 -68.40397,10.03979c-36.21838,10.88698 -70.07918,31.08539 -97.92148,58.40635c-28.03397,27.50113 -48.6694,60.99775 -59.68288,96.87112c-22.78599,74.14646 -4.39313,158.61256 46.85234,215.19035c39.72598,43.86226 99.51237,70.04852 159.93894,70.04468c16.97065,0 33.64613,-2.07773 49.55492,-6.17184l3.95228,-1.01971l-1.75572,-25.29305l-5.56233,1.23437c-12.69636,2.81375 -25.82974,4.23978 -39.03595,4.23978c-44.34528,0 -88.89372,-16.03146 -122.22552,-43.98493c-21.91962,-18.38902 -39.84481,-42.45155 -51.84732,-69.59233c-11.95651,-27.01811 -17.7795,-56.48962 -16.84415,-85.22511c1.90523,-58.34502 30.82089,-114.83464 77.3474,-151.09901c35.78903,-27.89598 81.21917,-43.26042 127.922,-43.26042c12.63887,0 25.24323,1.1577 37.46808,3.4386c42.76589,7.9774 80.60965,29.11884 106.55057,59.52955c27.15611,31.81375 42.15254,74.61031 42.22921,120.50046c0.0575,42.8119 -9.46861,82.69505 -28.31765,118.54541l-2.97859,5.66582l6.24468,1.40305c5.27866,1.18837 10.60331,2.25789 15.75162,3.29293l0.98136,0.1955c0.26068,0.0575 0.54435,0.10734 0.8012,0.138l4.44295,0.45235l0.8932,-4.38162c17.53417,-24.01269 29.77819,-52.76352 35.41718,-83.1359c5.6045,-30.1462 4.6308,-61.43092 -2.82141,-90.47693c-14.92743,-58.19934 -56.13695,-110.108 -110.2345,-138.85499zm0,0" fill="#ccd3eb" id="svg_89"/>
     <path stroke="null" d="m526.78541,433.1336c-10.5918,-3.03992 -21.47112,-5.21348 -32.05526,-7.32954c-7.59021,-1.52188 -15.37211,-3.08209 -23.03899,-4.95664l1.81705,-3.36577c15.68645,-29.08434 24.90205,-59.44137 28.17197,-92.75017l0.18401,0.17634l0.63635,-10.46913c0.33734,-5.57766 0.50602,-11.30866 0.50602,-17.03199l0,-10.75281l-0.26451,0.23001c-1.71738,-35.57435 -12.38969,-68.81415 -30.95889,-96.23094l-1.3762,-2.03172l0.03449,-0.02683l-0.64402,-0.87019l-1.04652,-1.54872l-0.06134,0.05367l-1.01202,-1.36854c-2.20424,-2.97859 -4.51964,-5.892 -6.88487,-8.66741c-19.5659,-22.924 -46.03199,-40.71884 -76.55387,-51.48699l0.17251,-0.15716l-8.23041,-2.50324c-7.2222,-2.2004 -14.60925,-4.00978 -21.94646,-5.38216c-12.19802,-2.2809 -24.78705,-3.43859 -37.41825,-3.43859c-8.66358,0 -17.44983,0.54818 -26.11341,1.62538l-10.34647,1.29186l0.23768,0.21851c-33.87998,5.87667 -65.57872,19.73074 -91.69981,40.09782c-0.26067,0.1955 -0.51751,0.40251 -0.77435,0.61335l-0.39484,0.31435l-1.98573,1.56404l-0.01916,-0.01534l-0.46385,0.39868l-1.85538,1.45672l0.06516,0.06516l-1.20754,1.03119c-30.36854,25.87191 -52.99352,61.40794 -63.71949,100.06821l-0.13034,-0.10733l-1.80555,7.62856c-2.96709,12.55069 -4.68447,25.37355 -5.10615,38.11592c-0.55968,17.20066 1.30337,34.68116 5.53549,51.95467l1.97423,8.04638l0.13033,-0.11883c2.48791,8.62142 5.5815,17.147 9.20411,25.34673c10.07428,22.76299 24.61453,43.75492 42.06053,60.71025l1.33405,1.29186l-0.04984,0.04984l1.34937,1.2152l0.80885,0.78969l0.03067,-0.03067l1.67522,1.51038c1.79405,1.61388 3.27376,2.90192 4.64613,4.04811c21.58612,18.10919 47.87204,31.33841 76.07086,38.31911l-0.23768,0.20701l9.88646,1.92055c12.04851,2.34224 24.30786,3.5306 36.42921,3.5306c13.80423,0 27.45512,-1.53721 40.577,-4.56563l4.08261,-0.94303l-1.51037,-21.65129c-0.47918,-6.83886 -1.13854,-16.20779 3.3466,-23.24216l0.18016,-0.27218l0.30284,-0.46768l11.50801,1.26504c24.63754,2.71024 49.13324,12.09834 68.96364,26.43543l1.40688,1.02352c5.20198,3.78745 11.09399,8.0809 17.95968,8.40291c0.28367,0.01534 0.56735,0.023 0.85103,0.023c5.40899,0 10.63396,-2.46491 14.84309,-4.45062l89.77158,-42.36339l-8.00039,-4.70363c-6.28302,-3.69161 -13.53589,-5.93034 -19.84191,-7.73973zm-162.47284,11.73417c-0.17634,0.07284 -0.35267,0.14184 -0.53285,0.21851c0.18018,-0.07667 0.35651,-0.14567 0.53285,-0.21851zm-1.57555,0.67086c-0.39868,0.17633 -0.79352,0.35267 -1.19219,0.53668c0.39867,-0.18401 0.79351,-0.36035 1.19219,-0.53668zm-1.90905,0.87786c-0.50985,0.24534 -1.01203,0.49451 -1.51037,0.75518c0.49834,-0.26067 1.00052,-0.50984 1.51037,-0.75518zm24.94038,-9.49544c-0.32584,0.115 -0.65168,0.23384 -0.98136,0.34883c0.32968,-0.11499 0.65552,-0.23383 0.98136,-0.34883zm34.12148,-10.74514c-0.11883,0.03449 -0.23384,0.069 -0.35267,0.1035c0.11883,-0.0345 0.23384,-0.06901 0.35267,-0.1035zm24.34621,-6.52069c0.00766,0 0.01533,-0.00384 0.01916,-0.00384c-0.00383,0 -0.0115,0.00384 -0.01916,0.00384zm24.61836,0.47534c-0.70918,-0.18017 -1.42603,-0.36417 -2.13522,-0.55201c0.39485,0.1035 0.80503,0.21083 1.24587,0.32201l0.88935,0.23zm-12.38201,-2.4074c-3.22009,0 -6.44019,0.54435 -9.62961,1.28804c3.4156,-0.80119 6.49768,-1.29571 9.61811,-1.29571c2.4189,0 4.66146,0.30285 6.84269,0.92003c0.092,0.03066 0.19168,0.0575 0.28368,0.08433c-0.08434,-0.02683 -0.1725,-0.04983 -0.25684,-0.07283c-2.1774,-0.62102 -4.41997,-0.92386 -6.85803,-0.92386zm-11.416,1.72121c0.42168,-0.1035 0.83186,-0.207 1.24204,-0.30283c-0.41402,0.09966 -0.82803,0.19933 -1.24204,0.30283z" fill="#ef8a35" id="svg_88"/>
     <path stroke="null" d="m557.978131,443.491565c-8.18057,-8.35691 -19.22855,-12.02934 -29.84335,-15.07693c-7.29121,-2.08923 -14.71276,-3.77595 -22.06914,-5.30933c35.60119,-49.89226 47.62287,-115.47482 32.1166,-175.93206c-15.26478,-59.5142 -57.39049,-112.58823 -112.68792,-141.96774c-54.55756,-28.9885 -120.46596,-35.19102 -180.83503,-17.02049c-36.98506,11.12848 -71.54739,31.74091 -99.9417,59.60621c-28.60899,28.07231 -49.68143,62.28197 -60.94025,98.92969c-23.27667,75.76417 -4.47363,162.08948 47.90654,219.92465c41.33986,45.64481 102.87429,71.64705 163.6957,71.64322c16.51448,0 32.98296,-1.93972 48.97225,-5.9035c0.59801,5.7655 1.84772,12.06001 5.63899,17.40383c5.41666,7.62855 14.59392,11.09016 21.29478,13.62023c20.50509,7.73588 45.03146,16.98982 70.00251,16.98982c6.10668,-0.00384 12.24019,-0.55585 18.34686,-1.82089c11.18599,-2.31539 21.56312,-6.86569 31.59908,-11.26265l46.94819,-20.57793c8.32623,-3.64944 18.69186,-8.19207 25.17038,-17.05882c7.59022,-10.38863 7.86623,-24.15452 8.06556,-34.20199c0.37569,-18.97171 -0.34884,-38.61427 -13.44005,-51.98532zm-193.76139,76.55386c0.60567,-0.16483 1.2037,-0.3335 1.80171,-0.50601c7.1647,-2.08539 14.73192,-4.47363 21.57845,-8.70191c0.52902,-0.32585 1.04653,-0.66319 1.55638,-1.00437c3.62261,3.81812 5.10998,8.92809 5.7195,12.65037c0.56352,3.45393 0.62102,7.06503 0.46385,10.65313c-10.58797,-3.82577 -20.98427,-8.19206 -31.1199,-13.09121l0.00001,0zm188.70508,-67.53377c1.68672,2.1544 3.0591,4.52729 4.16695,7.03054c-21.33695,12.89187 -43.41758,25.14739 -65.64005,36.42537c-9.47627,4.80714 -18.06701,8.88976 -27.27112,10.1088c-19.13271,2.52623 -37.81308,-7.68989 -55.88011,-17.57634l-0.50601,-0.27985c-12.33985,-6.75068 -25.73391,-13.79273 -40.04798,-19.54673c-4.86081,-1.95505 -10.34264,-3.96377 -16.20014,-4.43912c0.04217,-0.16867 0.07668,-0.33351 0.12651,-0.50218c0.44085,-1.59088 1.1692,-3.07059 2.08539,-4.44297c28.63966,1.30338 55.02525,16.85183 77.17106,32.00543c4.35095,2.97476 9.27692,6.34819 15.32993,7.12254c0.90086,0.11501 1.79789,0.16867 2.68725,0.16867c4.28195,0 8.36073,-1.2152 11.93735,-2.39974c20.75809,-6.88486 40.33165,-16.98598 59.26119,-26.75743l32.77978,-16.91699zm8.23807,23.85935c0.47535,4.87231 0.89319,9.85578 1.1692,14.71276c0.00767,0.11117 0.00767,0.23001 0.01534,0.34118c-0.37951,-0.15334 -0.77819,-0.27985 -1.2037,-0.33352c-5.363,-0.69768 -10.90232,-1.41837 -15.59062,-3.55743c-3.79127,-1.72889 -6.19868,-3.44243 -7.55955,-5.43199c7.43688,-4.22062 14.80859,-8.53708 22.10363,-12.9187c0.49068,2.39207 0.83569,4.80713 1.0657,7.1877zm-178.71896,26.12109c-5.80001,3.58043 -12.64654,5.72716 -19.16339,7.62471c-3.71461,1.08103 -7.09187,1.94356 -10.14329,1.73272c-0.94687,-10.98665 -1.97422,-21.96563 -2.74475,-32.96761c-0.11883,-1.69055 -0.16867,-3.30443 -0.1495,-4.89148c4.7343,0.29135 9.55677,2.06623 13.84257,3.78745c10.09728,4.06344 19.78823,8.82458 28.98083,13.67005c-2.06623,4.18229 -5.75017,8.03107 -10.62247,11.04415l0,0.00001zm-32.89095,-54.45407c-2.35757,2.05856 -4.39697,4.45063 -5.915,7.26054c-3.03609,5.61599 -3.52677,12.19419 -3.3351,18.58454c-6.84653,-6.76603 -13.68156,-13.55123 -20.48976,-20.38242c26.38176,-23.21917 53.11236,-46.15466 80.11131,-68.74131c11.6805,11.02498 24.07785,21.8928 37.21124,31.70641c-0.77437,0.207 -1.54872,0.40635 -2.32307,0.60185c-10.82182,2.71408 -21.55163,5.80383 -32.1971,9.13126c-12.28235,3.83728 -24.59154,8.11157 -36.58639,12.70786c-5.72333,2.19274 -11.74567,4.99499 -16.47613,9.13127zm-21.13377,-148.95228c-20.91911,-21.31778 -41.81905,-42.73906 -62.64231,-64.20251l71.75057,-64.34051c20.52425,19.41638 39.78347,40.71116 58.48301,61.38493c1.69821,1.87838 3.4041,3.76443 5.10998,5.64665c-24.2427,20.43226 -48.48156,40.94118 -72.70125,61.51144zm79.30244,-54.23939c20.98044,23.04283 42.73906,46.08949 66.80542,66.42975c-24.89055,19.78056 -49.62393,39.90997 -74.1503,60.33455c-8.07706,-7.81255 -15.82062,-15.62127 -23.21534,-23.08499c-13.93839,-14.07257 -27.89213,-28.22564 -41.84586,-42.42472c24.12002,-20.48209 48.26305,-40.90668 72.40608,-61.25459zm-86.80066,60.60674c-26.42393,22.46015 -52.80186,44.97013 -79.08395,67.50694c-19.8419,-21.08778 -39.46146,-42.39022 -58.79735,-63.88433l75.423,-67.63345c20.76193,21.39829 41.60053,42.75823 62.4583,64.01084zm6.89636,7.01904c14.12625,14.37541 28.25631,28.70865 42.37488,42.9614c7.20305,7.27203 14.73959,14.87376 22.60199,22.49464c-26.92994,22.53682 -53.58771,45.42631 -79.90429,68.59181c-21.6628,-21.84297 -43.12241,-43.9926 -64.31753,-66.41058c26.3396,-22.57898 52.76736,-45.13496 79.24495,-67.63727zm121.8345,101.0189c-0.10733,-0.092 -0.19933,-0.19168 -0.31818,-0.276c-14.79326,-10.43464 -28.72781,-22.48699 -41.80753,-34.7885c24.71421,-20.5741 49.65076,-40.84535 74.73682,-60.76392c4.5848,3.67627 9.25009,7.25287 14.0189,10.70297c-3.58044,30.2727 -12.51619,59.76722 -27.09478,86.78917c-1.51421,-0.39485 -3.02459,-0.8012 -4.52346,-1.23054c-5.03715,-1.43371 -10.04363,-1.26504 -15.01177,-0.43318zm47.73405,-96.52611c-2.43042,-1.82855 -4.84165,-3.68011 -7.22222,-5.56999c2.59908,-2.05856 5.20582,-4.09795 7.81256,-6.14885c-0.11117,3.91395 -0.30667,7.82023 -0.59034,11.71884zm1.12319,-24.6222c-5.38982,4.21678 -10.77197,8.45657 -16.14647,12.70786c-24.13152,-20.19458 -46.01665,-43.34858 -67.12742,-66.52941c17.64917,-14.86226 35.29835,-29.68619 52.92069,-44.44111c8.36073,12.50852 14.98492,26.17475 19.8189,40.42749c4.38929,12.94554 7.73972,26.31275 9.41111,39.89081c0.72834,5.90351 1.26503,11.96801 1.12319,17.94436zm-89.87892,-61.08976c-1.78255,-1.9704 -3.5651,-3.94078 -5.33999,-5.90733c-18.65736,-20.62393 -37.86674,-41.85738 -58.437,-61.37727l37.72874,-33.83014c0.08051,-0.07284 0.14184,-0.15718 0.21468,-0.23384c28.52465,10.02062 54.3084,26.08658 74.2653,49.47826c1.85922,2.17356 3.64944,4.40846 5.37832,6.68168c-17.91751,15.00027 -35.86187,30.07337 -53.81005,45.18864zm-70.99153,-73.99313c-0.7322,-0.67085 -1.46054,-1.34171 -2.19656,-2.00873c-3.00542,-2.71023 -6.09135,-5.42432 -9.07377,-8.05022c-10.03212,-8.82459 -20.35559,-17.91369 -29.01533,-28.13365c18.68036,-1.76721 37.59841,-1.01203 55.9836,2.4189c6.00318,1.12321 11.62684,2.92492 17.41151,4.58097c0.42168,0.11884 0.83569,0.25684 1.25737,0.37951l-34.36682,30.81322zm-51.75532,-36.77423c9.89794,12.87271 22.14963,23.65619 34.00263,34.08315c2.95943,2.60674 6.02235,5.30166 8.98177,7.96974c0.47918,0.43317 0.95069,0.87402 1.42987,1.3072l-71.36338,63.98783c-22.21097,-22.92016 -44.31845,-45.88247 -66.24574,-68.79497c6.99986,-4.97198 14.45208,-9.64111 21.81996,-13.85789c12.5852,-7.21455 25.96774,-13.03371 39.7988,-17.40001c10.29281,-3.25076 20.86927,-5.68117 31.57609,-7.29504l0,-0.00001zm-101.07641,44.51012c22.11514,23.11567 44.41427,46.2735 66.81692,69.39683l-75.13166,67.36893c-15.69412,-17.53416 -31.21573,-35.17568 -46.52267,-52.92068c-0.46768,-0.54052 -1.0312,-0.94686 -1.63688,-1.23053c8.1844,-22.10364 20.32491,-42.7659 35.7392,-60.69876c6.53218,-7.59787 13.00304,-15.47943 20.73509,-21.91579zm-59.96656,92.91117c14.60159,16.89782 29.39485,33.70363 44.34527,50.40595l-48.75372,43.72043c-3.0706,-14.66293 -4.50047,-29.68619 -4.02513,-44.28394c0.55202,-16.93616 3.45393,-33.70364 8.43358,-49.84244zm-1.63305,104.82168l52.52585,-47.10152c19.28989,21.44045 38.85578,42.69306 58.64402,63.731c-23.49135,20.15625 -46.90219,40.32015 -70.20186,60.46491c-4.07111,-4.61164 -7.91223,-9.38427 -11.38532,-14.19525c-7.84323,-10.86014 -14.53642,-22.54831 -19.95691,-34.79617c-3.94078,-8.91275 -7.22604,-18.31619 -9.81362,-27.96496c0.06134,-0.04984 0.12651,-0.08818 0.18784,-0.13801zm117.90523,23.77885c21.22578,22.45248 42.71606,44.63662 64.40568,66.51791c-15.89345,14.06108 -31.66424,28.21798 -47.28169,42.46305c-0.18401,0.16868 -0.33351,0.35651 -0.48685,0.54435c-4.50813,-1.11169 -8.99709,-2.37673 -13.48605,-3.83728c-7.38322,-2.40739 -14.62459,-5.26714 -21.65513,-8.56773c-14.08023,-6.60887 -27.34011,-14.98494 -39.25829,-24.98256c-4.26279,-3.57661 -8.46041,-7.49055 -12.49703,-11.61917c23.315,-20.16391 46.74885,-40.34699 70.25935,-60.51857l0.00001,0zm71.33271,73.49861c9.55678,9.59128 19.15572,19.12505 28.78917,28.58983c0.29901,4.26662 0.59034,8.44124 0.59034,8.44124c0.08434,1.25353 -22.70165,3.6686 -24.87138,3.84494c-8.63291,0.70152 -17.32333,0.77436 -25.96775,0.23767c-7.3142,-0.45234 -14.45208,-1.32637 -21.49795,-2.58757c14.19908,-12.91871 28.52466,-25.76457 42.95757,-38.52611zm92.11382,60.89809c-0.81653,-5.01032 -2.87508,-11.91051 -7.96207,-17.46901c2.07773,-2.28856 3.79512,-4.7573 5.11382,-7.34871c0.45235,0.24917 0.91619,0.49835 1.36854,0.74369l0.50985,0.27985c8.23424,4.50429 16.95532,9.27692 26.06358,12.93403c-2.67575,10.90615 -1.79405,22.51765 2.54157,32.89478c0.12267,0.2875 0.28368,0.60952 0.46385,0.94686c-3.72227,-0.59035 -7.36021,-1.50655 -10.62631,-2.38057c-5.73099,-1.52571 -11.41599,-3.22009 -17.05499,-5.06014c0.34502,-5.04098 0.44085,-10.28513 -0.41785,-15.54078l0.00001,0zm41.65803,23.25366c-0.24151,-0.11883 -0.49068,-0.22617 -0.75519,-0.299c-1.11936,-0.53285 -3.6456,-3.35044 -4.20912,-4.70364c-3.40793,-8.15756 -4.19379,-17.2505 -2.28474,-25.86041c6.27919,1.84772 12.71171,2.97859 19.27456,2.97859c2.39207,0 4.80331,-0.1495 7.22604,-0.46768c10.72214,-1.42221 20.50893,-6.05301 30.42221,-11.08633c4.00979,4.64997 5.823,11.15533 4.64997,17.20067c-0.11884,0.61335 -0.10351,1.21903 0,1.79789c-13.09888,6.70469 -26.60793,13.34804 -40.62684,17.49966c-5.05631,1.49888 -9.54527,2.45725 -13.69689,2.94025zm58.55585,-44.00409c8.25341,-4.28962 16.47614,-8.70959 24.6337,-13.23688c2.95943,4.83397 7.8279,7.60938 12.07535,9.54527c2.69108,1.2267 5.4895,2.06623 8.28408,2.69874c-13.09504,6.29452 -26.18242,12.77687 -39.08196,19.36657c0.05367,-6.54369 -2.05472,-13.09122 -5.91117,-18.3737zm20.65842,-62.3088c6.52069,1.87072 13.6164,3.96762 19.59657,7.69756l-29.38334,15.16893c-18.59604,9.59512 -37.82076,19.5199 -57.8505,26.15942c-3.44626,1.14238 -7.07654,2.22341 -10.29279,1.81323c-3.70311,-0.47536 -7.26438,-2.90958 -11.09783,-5.53166c-20.68909,-14.15691 -45.06979,-28.68949 -72.12241,-32.69545c1.77106,-0.93919 3.55744,-1.73655 5.25949,-2.38823c11.80317,-4.51963 23.91303,-8.72875 35.99987,-12.50469c10.65314,-3.32743 21.54012,-6.40185 32.36193,-9.1351c1.45287,-0.36801 2.90192,-0.76285 4.35096,-1.1577c4.92597,-1.34553 9.65644,-2.63741 14.21824,-2.63741c1.85922,0 3.69544,0.21468 5.50483,0.7322c10.51897,2.99774 21.36761,5.16747 31.85591,7.26437c10.45763,2.08923 21.26795,4.25129 31.59907,7.21454l0,-0.00001zm-386.47244,22.21481c-50.10311,-55.32042 -68.08195,-137.93113 -45.79815,-210.45604c10.78348,-35.09135 30.98573,-67.87496 58.43318,-94.80873c27.26729,-26.75361 60.42657,-46.54184 95.89743,-57.21415c57.90799,-17.43067 121.11381,-11.49266 173.40581,16.29214c52.89769,28.10681 93.19102,78.8501 107.78493,135.7384c7.27205,28.35598 8.22657,58.91236 2.75242,88.36471c-5.50866,29.66702 -17.46134,57.72399 -34.55849,81.13483c-0.44085,0.60185 -0.70535,1.26887 -0.83953,1.95122c-0.092,-0.01916 -0.184,-0.03833 -0.276,-0.05367c-5.51633,-1.10403 -11.1285,-2.23107 -16.71382,-3.48076c19.22856,-36.58256 28.94633,-77.21322 28.87733,-120.84164c-0.07284,-47.04019 -15.48328,-90.96379 -43.39842,-123.67456c-26.66926,-31.2579 -65.52121,-52.98202 -109.3873,-61.17026c-59.10787,-11.03648 -122.39419,4.20912 -169.30021,40.77634c-47.66503,37.15757 -77.28605,95.03107 -79.23727,154.80978c-0.96219,29.46002 5.00648,59.67139 17.26199,87.37185c12.30919,27.82697 30.69822,52.50668 53.18137,71.36338c34.84216,29.22618 80.25314,45.13113 125.37276,45.12731c13.48606,0 26.95295,-1.44138 40.09783,-4.3548l1.08486,15.54078c-71.83873,18.49637 -154.06227,-6.57052 -204.64072,-62.41613zm416.47681,63.83067c-4.91831,6.73152 -13.56272,10.51897 -21.18744,13.86173l-46.94819,20.57793c-9.5721,4.19379 -19.47006,8.53324 -29.65168,10.64164c-28.28698,5.86133 -58.56352,-5.56617 -82.89439,-14.74343c-7.1532,-2.69874 -13.35188,-5.32465 -16.75598,-10.11645c-3.5306,-4.97965 -4.17845,-11.72651 -4.34713,-18.3622c14.09175,7.1762 28.69333,13.35572 43.65526,18.4772c0.56352,0.32967 1.1922,0.55202 1.87839,0.63635c6.70853,2.25023 13.48222,4.30113 20.31726,6.12584c5.21348,1.3877 11.30482,2.90192 17.67217,3.2661c1.03119,0.0575 2.07005,0.08433 3.12042,0.08433c6.7162,0 13.9269,-1.19986 22.41031,-3.7146c16.4378,-4.86848 31.78308,-12.75388 46.62234,-20.38242l3.19325,-1.64072c16.26531,-8.34157 32.87179,-16.52597 49.40926,-24.37304c-0.84719,7.24522 -2.80991,14.62076 -6.49386,19.66174l0.00001,0zm0,0" id="svg_87"/>
    </g>
    <ellipse stroke="null" fill="#71d60c" stroke-width="null" stroke-opacity="null" cx="375.528399" cy="303.720373" id="svg_85" rx="14.285584" ry="6.19042"/>
    <ellipse stroke="null" fill="#71d60c" stroke-width="null" stroke-opacity="null" cx="410.766172" cy="292.768093" id="svg_84" rx="6.666606" ry="12.380839"/>
    <ellipse stroke="null" fill="#71d60c" stroke-width="null" stroke-opacity="null" cx="224.101213" cy="428.00495" id="svg_83" rx="14.285584" ry="5.714233"/>
    <ellipse stroke="null" fill="#71d60c" stroke-width="null" stroke-opacity="null" cx="302.056411" cy="381.365988" id="svg_82" rx="7.142792" ry="14.593748"/>
    <ellipse stroke="null" fill="#71d60c" stroke-width="null" stroke-opacity="null" cx="257.406257" cy="449.377352" id="svg_81" rx="13.305225" ry="6.19042"/>
    <ellipse stroke="null" fill="#71d60c" stroke-width="null" stroke-opacity="null" cx="194.01773" cy="371.255045" id="svg_80" rx="14.285584" ry="5.714233" transform="rotate(-29.58106803894043 194.01771545410165,371.2550354003906) "/>
    <ellipse stroke="null" fill="#71d60c" stroke-width="null" stroke-opacity="null" cx="157.71523" cy="366.436802" id="svg_79" rx="6.666606" ry="13.333211"/>
    <ellipse stroke="null" fill="#71d60c" stroke-width="null" stroke-opacity="null" cx="254.96996" cy="280.218316" id="svg_78" rx="12.380839" ry="4.761861"/>
    <ellipse stroke="null" fill="#71d60c" stroke-width="null" stroke-opacity="null" cx="233.624936" cy="165.150213" id="svg_77" rx="6.666606" ry="17.1427"/>
    <ellipse stroke="null" fill="#71d60c" stroke-width="null" stroke-opacity="null" cx="268.778747" cy="154.47821" id="svg_76" rx="16.666514" ry="7.142792" transform="rotate(26.382869720458984 268.7787170410157,154.4781799316406) "/>
    <ellipse stroke="null" fill="#ffffff" stroke-width="null" stroke-opacity="null" cx="396.004402" cy="173.245377" id="svg_75" rx="16.666514" ry="7.142792"/>
    <ellipse stroke="null" fill="#71d60c" stroke-width="null" stroke-opacity="null" cx="385.528307" cy="147.05514" id="svg_74" rx="4.285675" ry="9.523722" transform="rotate(40.32460021972656 385.52819824218744,147.05508422851562) "/>
    <ellipse stroke="null" fill="#71d60c" stroke-width="null" stroke-opacity="null" cx="430.765989" cy="184.673844" id="svg_73" rx="6.666606" ry="10.952281" transform="rotate(-100.14981842041016 430.76599121093744,184.67373657226562) "/>
    <ellipse stroke="null" fill="#71d60c" stroke-width="null" stroke-opacity="null" cx="407.432869" cy="202.768916" id="svg_72" rx="6.19042" ry="9.999908"/>
    <ellipse stroke="null" fill="#71d60c" stroke-width="null" stroke-opacity="null" cx="448.861061" cy="229.911525" id="svg_71" rx="13.333211" ry="6.666606"/>
    <ellipse stroke="null" fill="#71d60c" stroke-width="null" stroke-opacity="null" cx="477.992579" cy="273.328626" id="svg_70" rx="6.666606" ry="12.380839"/>
    <ellipse stroke="null" fill="#71d60c" stroke-width="null" stroke-opacity="null" cx="466.003762" cy="215.625941" id="svg_69" rx="5.714233" ry="11.428467"/>
    <ellipse stroke="null" fill="#71d60c" stroke-width="null" stroke-opacity="null" cx="475.107475" cy="346.661085" id="svg_68" rx="11.904653" ry="5.714233"/>
    <ellipse stroke="null" fill="#71d60c" stroke-width="null" stroke-opacity="null" cx="450.28962" cy="379.293827" id="svg_67" rx="8.095164" ry="14.76177" transform="rotate(-33.1166877746582 450.2897033691408,379.29385375976557) "/>
    <ellipse stroke="null" fill="#71d60c" stroke-width="null" stroke-opacity="null" cx="134.578223" cy="302.291815" id="svg_66" rx="5.714233" ry="16.190328"/>
    <ellipse stroke="null" fill="#71d60c" stroke-width="null" stroke-opacity="null" cx="390.290169" cy="413.719367" id="svg_65" rx="15.714142" ry="6.666606"/>
    <ellipse stroke="null" fill="#71d60c" stroke-width="null" stroke-opacity="null" cx="308.386156" cy="487.052029" id="svg_64" rx="14.76177" ry="6.666606"/>
    <ellipse stroke="null" fill="#ffffff" stroke-width="null" stroke-opacity="null" cx="190.706614" cy="208.744498" id="svg_63" rx="5.714233" ry="16.190328"/>
    <ellipse stroke="null" fill="#ffffff" stroke-width="null" stroke-opacity="null" cx="224.531561" cy="305.566944" id="svg_62" rx="18.709464" ry="5.483808" transform="rotate(-28.116413116455078 224.53163146972676,305.5670471191407) "/>
    <ellipse stroke="null" fill="#ffffff" stroke-width="null" stroke-opacity="null" cx="268.402027" cy="320.082907" id="svg_61" rx="7.096693" ry="18.06431"/>
    <ellipse stroke="null" fill="#ffffff" stroke-width="null" stroke-opacity="null" cx="309.217603" cy="228.64168" id="svg_60" rx="17.096579" ry="6.128962"/>
    <ellipse stroke="null" fill="#ffffff" stroke-width="null" stroke-opacity="null" cx="347.869795" cy="215.32112" id="svg_59" rx="9.032155" ry="26.128734"/>
    <ellipse stroke="null" fill="#ffffff" stroke-width="null" stroke-opacity="null" cx="324.852995" cy="353.630911" id="svg_58" rx="19.032041" ry="5.806385"/>
    <ellipse stroke="null" fill="#ffffff" stroke-width="null" stroke-opacity="null" cx="330.014227" cy="406.533532" id="svg_57" rx="17.741733" ry="6.451539"/>
    <ellipse stroke="null" fill="#ffffff" stroke-width="null" stroke-opacity="null" cx="220.755792" cy="454.123224" id="svg_56" rx="12.580501" ry="5.161231"/>
    <ellipse stroke="null" fill="#ffffff" stroke-width="null" stroke-opacity="null" cx="249.768538" cy="418.146302" id="svg_55" rx="4.516077" ry="10.322463"/>
    <ellipse stroke="null" fill="#ffffff" stroke-width="null" stroke-opacity="null" cx="164.854824" cy="403.952916" id="svg_54" rx="15.161117" ry="4.516077"/>
    <ellipse stroke="null" fill="#ffffff" stroke-width="null" stroke-opacity="null" cx="258.724719" cy="190.084393" id="svg_53" rx="18.709464" ry="5.483808"/>
    <ellipse stroke="null" fill="#ffffff" stroke-width="null" stroke-opacity="null" cx="470.980357" cy="246.857937" id="svg_52" rx="11.612771" ry="5.483808"/>
    <ellipse stroke="null" fill="#ffffff" stroke-width="null" stroke-opacity="null" cx="471.948088" cy="375.566144" id="svg_51" rx="6.128962" ry="13.548232"/>
    <ellipse stroke="null" fill="#ffffff" stroke-width="null" stroke-opacity="null" cx="420.811046" cy="325.909469" id="svg_50" rx="9.032155" ry="26.128734" transform="rotate(41.233402252197266 420.8111572265625,325.9095764160156) "/>
    <ellipse stroke="null" fill="#71d60c" stroke-width="null" stroke-opacity="null" cx="333.484695" cy="254.478315" id="svg_49" rx="16.666514" ry="7.142792"/>
   </g>
  </g>
 </g>
</svg>