<svg width="512" height="512" xmlns="http://www.w3.org/2000/svg">
 <g>
  <rect fill="none" id="canvas_background" height="514" width="514" y="-1" x="-1"/>
  <g display="none" overflow="visible" y="0" x="0" height="100%" width="100%" id="canvasGrid">
   <rect fill="url(#gridpattern)" stroke-width="0" y="0" x="0" height="100%" width="100%"/>
  </g>
 </g>
 <g>
  <g stroke="null" id="svg_29">
   <g stroke="null" transform="matrix(1.3192823932989228,0,0,1.3192823932989228,-118.72335339517653,-152.5938320211359) " id="svg_26">
    <title stroke="null" transform="translate(1.4210854715202004e-14,-0.7579878568649292) translate(3.7899391651153564,0) translate(-6.8827900886535645,-2.2942633628845215) translate(7.739668846130371,-3.095867395401001) translate(-104.29596710205078,-25.599918365478516) translate(-1925.9998779296875,-1970.9998779296875) translate(2047.9998779296875,0) translate(0,2103.999755859375) ">background</title>
    <rect stroke="null" x="21.350851" y="100.251841" width="514" height="402" id="svg_24" fill="none"/>
    <g stroke="null" id="svg_23" display="none">
     <rect stroke="null" id="svg_27" width="512" height="512" x="22.350851" y="101.251841" stroke-width="0" fill="url(#gridpattern)"/>
    </g>
   </g>
   <g stroke="null" transform="matrix(1.3192823932989228,0,0,1.3192823932989228,-118.72335339517653,-152.5938320211359) " id="svg_28">
    <title stroke="null" transform="translate(1.4210854715202004e-14,-0.7579878568649292) translate(3.7899391651153564,0) translate(-6.8827900886535645,-2.2942633628845215) translate(7.739668846130371,-3.095867395401001) translate(-104.29596710205078,-25.599918365478516) translate(-1925.9998779296875,-1970.9998779296875) translate(2047.9998779296875,0) translate(0,2103.999755859375) ">Layer 1</title>
    <g stroke="null" id="svg_16">
     <path stroke="null" d="m401.220841,501.250171l-230.74005,0c-25.92987,0 -46.9547,-21.0202 -46.9547,-46.95469l0,-227.17024c0,-25.92987 21.02483,-46.9547 46.9547,-46.9547l230.74005,0c25.92987,0 46.9547,21.02483 46.9547,46.9547l0,227.17024c0,25.93449 -21.02483,46.95469 -46.9547,46.95469zm0,0" fill="#ffe4c2" id="svg_22"/>
     <path stroke="null" d="m401.220841,180.170541l-115.85218,0l0,321.07963l115.85218,0c25.92987,0 46.9547,-21.0202 46.9547,-46.95469l0,-227.17024c0,-25.9345 -21.02483,-46.9547 -46.9547,-46.9547zm0,0" fill="#f2bb88" id="svg_21"/>
     <path stroke="null" d="m142.242141,118.102071l287.21736,0l0,62.06847l-287.21736,0l0,-62.06847zm0,0" fill="#ffd400" id="svg_20"/>
     <path stroke="null" d="m285.368661,118.102071l144.09084,0l0,62.06847l-144.09084,0l0,-62.06847zm0,0" fill="#fcaf03" id="svg_19"/>
     <path stroke="null" d="m123.526091,265.920351l324.64945,0l0,140.04813l-324.64945,0l0,-140.04813zm0,0" fill="#b46e5a" id="svg_18"/>
     <path stroke="null" d="m285.368661,265.920351l162.80688,0l0,140.04813l-162.80688,0l0,-140.04813zm0,0" fill="#915041" id="svg_17"/>
    </g>
   <defs><style>@font-face {font-family: "ISW";src: url("https://cdn.jsdelivr.net/gh/aminabedi68/Estedad/Font/FD%20(Farsi%20digits)/instances/Estedad-FD-Medium.woff2");}</style></defs>
    <text xml:space="preserve" text-anchor="start" font-family="ISW" font-size="82" id="svg_30" y="365" x="124.5" stroke-width="0" stroke="#000" fill="#f4c89c">ارده کنجد</text>
   </g>
  </g>
 </g>
</svg>