<svg width="512" height="512" version="1.1" xmlns="http://www.w3.org/2000/svg"><g transform="matrix(1.32 0 0 1.32 -119 -153)" stroke="null"><path d="m401 501h-231c-25.9 0-47-21-47-47v-227c0-25.9 21-47 47-47h231c25.9 0 47 21 47 47v227c0 25.9-21 47-47 47z" fill="#ffe4c2"/><path d="m401 180h-116v321h116c25.9 0 47-21 47-47v-227c0-25.9-21-47-47-47z" fill="#f2bb88"/><path d="m142 118h287v62.1h-287z" fill="#ffd400"/><path d="m285 118h144v62.1h-144z" fill="#fcaf03"/><path d="m124 266h325v140h-325z" fill="#b46e5a"/><path d="m285 266h163v140h-163z" fill="#915041"/></g><text x="61.214111" y="332.14746" fill="#f4c89c" font-family="ISW" font-size="149px" stroke="#000000" stroke-width="0" style="font-family:Aviny" xml:space="preserve">ارده کنجد</text></svg>
