<svg width="512" height="512" version="1.1" xmlns="http://www.w3.org/2000/svg"><rect id="canvas_background" x="-1" y="-1" width="514" height="514" fill="none"/><g id="canvasGrid" x="0" y="0" width="100%" height="100%" display="none" overflow="visible"><rect width="100%" height="100%" fill="url(#gridpattern)" stroke-width="0"/></g><g stroke="null"><g transform="matrix(1.32 0 0 1.32 -119 -153)"><title transform="translate(22.4 101)">background</title><rect x="21.4" y="100" width="514" height="402" fill="none"/><g display="none"><rect x="22.4" y="101" width="512" height="512" fill="url(#gridpattern)" stroke="null" stroke-width="0"/></g></g><g transform="matrix(1.32 0 0 1.32 -119 -153)"><title transform="translate(22.4 101)" stroke="null">Layer 1</title><g stroke="null"><path d="m401 501h-231c-25.9 0-47-21-47-47v-227c0-25.9 21-47 47-47h231c25.9 0 47 21 47 47v227c0 25.9-21 47-47 47z" fill="#ffe4c2"/><path d="m401 180h-116v321h116c25.9 0 47-21 47-47v-227c0-25.9-21-47-47-47z" fill="#f2bb88"/><path d="m142 118h287v62.1h-287v-62.1z" fill="#ffd400"/><path d="m285 118h144v62.1h-144v-62.1z" fill="#fcaf03"/><path d="m124 266h325v140h-325v-140z" fill="#b46e5a"/><path d="m285 266h163v140h-163v-140z" fill="#915041"/></g><defs><style>@font-face {font-family: "ISW";src: url("https://cdn.jsdelivr.net/gh/aminabedi68/Estedad/Font/FD%20(Farsi%20digits)/instances/Estedad-FD-Medium.woff2");}</style></defs><text x="124.5" y="365" fill="#f4c89c" font-family="ISW" font-size="82" stroke="#000" stroke-width="0" xml:space="preserve">ارده کنجد</text></g></g></svg>
