<?xml version="1.0" encoding="UTF-8" standalone="no"?>
<svg
   xmlns:dc="http://purl.org/dc/elements/1.1/"
   xmlns:cc="http://creativecommons.org/ns#"
   xmlns:rdf="http://www.w3.org/1999/02/22-rdf-syntax-ns#"
   xmlns:svg="http://www.w3.org/2000/svg"
   xmlns="http://www.w3.org/2000/svg"
   xmlns:sodipodi="http://sodipodi.sourceforge.net/DTD/sodipodi-0.dtd"
   xmlns:inkscape="http://www.inkscape.org/namespaces/inkscape"
   inkscape:version="1.0 (4035a4f, 2020-05-01)"
   sodipodi:docname="tahini.svg"
   id="svg16583"
   version="1.1"
   height="512"
   width="512">
  <metadata
     id="metadata16589">
    <rdf:RDF>
      <cc:Work
         rdf:about="">
        <dc:format>image/svg+xml</dc:format>
        <dc:type
           rdf:resource="http://purl.org/dc/dcmitype/StillImage" />
        <dc:title></dc:title>
      </cc:Work>
    </rdf:RDF>
  </metadata>
  <defs
     id="defs16587" />
  <sodipodi:namedview
     inkscape:current-layer="svg16583"
     inkscape:window-maximized="0"
     inkscape:window-y="0"
     inkscape:window-x="0"
     inkscape:cy="263.16683"
     inkscape:cx="276.72161"
     inkscape:zoom="0.95311671"
     showgrid="false"
     id="namedview16585"
     inkscape:window-height="768"
     inkscape:window-width="1366"
     inkscape:pageshadow="2"
     inkscape:pageopacity="0"
     guidetolerance="10"
     gridtolerance="10"
     objecttolerance="10"
     borderopacity="1"
     bordercolor="#666666"
     pagecolor="#ffffff" />
  <g
     id="g17185">
    <g
       transform="matrix(1.32 0 0 1.32 -119 -153)"
       stroke="null"
       id="g16579">
      <path
         d="m401 501h-231c-25.9 0-47-21-47-47v-227c0-25.9 21-47 47-47h231c25.9 0 47 21 47 47v227c0 25.9-21 47-47 47z"
         fill="#ffe4c2"
         id="path16567" />
      <path
         d="m401 180h-116v321h116c25.9 0 47-21 47-47v-227c0-25.9-21-47-47-47z"
         fill="#f2bb88"
         id="path16569" />
      <path
         d="m142 118h287v62.1h-287z"
         fill="#ffd400"
         id="path16571" />
      <path
         d="m285 118h144v62.1h-144z"
         fill="#fcaf03"
         id="path16573" />
      <path
         d="m124 266h325v140h-325z"
         fill="#b46e5a"
         id="path16575" />
      <path
         d="m285 266h163v140h-163z"
         fill="#915041"
         id="path16577" />
    </g>
    <g
       aria-label="ارده کنجد"
       id="text16581"
       style="font-size:149px;font-family:Aviny;fill:#f4c89c;stroke:#000000;stroke-width:0">
      <path
         d="m 450.56063,266.00442 v 0 q 0.25913,10.30043 -0.32392,26.49608 -0.58304,16.13087 -1.94348,26.1074 -1.23086,7.64434 -3.56304,11.46652 -2.26739,3.82217 -4.34043,1.94348 -2.00826,-1.94348 -2.52653,-11.53131 l -1.03652,-49.94739 q 0.19435,-7.38522 3.43348,-9.84696 3.30391,-2.46174 6.60783,-0.90695 3.30391,1.55478 3.69261,6.21913 z"
         style="font-size:149px;font-family:Aviny;fill:#f4c89c;stroke:#000000;stroke-width:0"
         id="path17152" />
      <path
         d="m 425.12687,301.18137 v 0 q 1.36044,8.42174 0.25913,16.97305 -1.03652,8.5513 -5.24739,15.74217 -4.14608,7.19087 -12.17913,11.53131 -3.56304,1.87869 -7.70913,2.85043 -4.0813,1.03652 -8.16261,0.45348 -1.61956,-0.19435 -3.69261,-1.10131 -2.13782,-0.90695 -2.52652,-2.65608 -0.12956,-1.55479 1.42522,-2.78565 1.55478,-1.16609 3.56304,-2.00827 1.94348,-0.77739 3.04479,-1.03652 6.47826,-1.94348 10.49478,-6.54304 4.0813,-4.53478 6.28391,-10.8187 1.74913,-5.70087 0.97174,-11.66087 -0.19435,-2.33217 -0.51826,-4.66434 -0.3887,-2.78566 -0.58304,-5.63609 -0.19435,-1.61957 -0.0648,-3.49826 0.19435,-1.8787 1.10131,-3.30391 0.90695,-1.23087 2.33217,-1.74914 1.42522,-0.51826 2.91522,-0.64782 1.49,-0.12957 2.98,0.12956 1.55478,0.25913 2.65609,1.42522 1.16608,1.36044 1.68434,3.62783 0.51826,2.26739 0.7774,4.34043 0.0648,0.51826 0.19434,1.03652 z"
         style="font-size:149px;font-family:Aviny;fill:#f4c89c;stroke:#000000;stroke-width:0"
         id="path17154" />
      <path
         d="m 382.90886,306.23442 v 0 q -1.68435,-5.50652 -10.55957,-10.49479 -4.79391,-2.5913 -7.38522,-5.11782 -2.52652,-3.10957 -1.87869,-6.3487 0.71261,-3.23913 3.69261,-4.79391 3.04478,-1.61957 7.70913,0.32391 5.11782,2.46174 13.15087,9.19913 7.64434,6.86696 9.00478,16.32522 l 0.0648,-0.0648 q 0.0648,0.77739 0.0648,1.55478 v 0 q 0,6.54304 -2.72086,11.59609 -3.95174,6.86695 -11.46653,10.49478 -7.45,3.56304 -16.0013,3.95174 -8.22739,0.19435 -11.79044,-2.5913 -3.49826,-2.78566 -3.36869,-6.21914 0.19435,-3.49826 2.98,-5.24739 2.13782,-0.90695 7.77391,-0.64782 3.3687,0.0648 7.06131,-0.12957 9.06956,-0.51826 12.04956,-3.62782 2.98,-3.10957 1.61957,-8.16261 z"
         style="font-size:149px;font-family:Aviny;fill:#f4c89c;stroke:#000000;stroke-width:0"
         id="path17156" />
      <path
         d="m 292.73804,314.52659 v 0 q -1.29565,-8.29217 2.98,-14.57609 4.27566,-6.34869 11.59609,-10.0413 7.38522,-3.69261 15.41826,-3.95174 8.03305,-0.32391 14.18739,3.62783 6.15435,3.88695 8.03305,12.69739 1.81391,11.92 -4.34044,19.69391 -6.15435,7.70913 -15.87174,9.58783 -6.21913,1.1013 -12.17913,0.19435 -5.89521,-0.97174 -9.32869,-3.3687 -3.17435,-2.33217 -6.3487,-6.02478 -3.17435,-3.69261 -4.14609,-7.8387 z m 38.35131,-2.85043 v 0 q 2.72087,-4.27566 0.71261,-8.35696 -1.94348,-4.0813 -6.41348,-6.28391 -4.40522,-2.26739 -9.26391,-0.84218 -4.79392,1.36044 -7.8387,8.03305 -2.39696,6.02478 -0.25913,9.32869 2.13783,3.23913 6.60783,4.01652 4.47,0.7774 9.13434,-0.7126 4.66435,-1.55479 7.32044,-5.18261 z"
         style="font-size:149px;font-family:Aviny;fill:#f4c89c;stroke:#000000;stroke-width:0"
         id="path17158" />
      <path
         d="m 260.46163,251.94659 v 0 q 0.90695,-0.25913 7.96826,-4.21087 7.12609,-4.01652 16.39,-9.32869 9.26391,-5.37696 16.84348,-9.78218 7.38521,-4.27565 9.39348,-5.37695 6.60782,-3.23913 8.29217,-2.00827 1.74913,1.23087 -0.12957,4.79392 -1.87869,3.49826 -6.15434,7.12608 -5.96,5.05305 -17.88,13.53957 -11.85522,8.48652 -24.03435,15.15913 -12.17913,6.67261 -18.91652,6.28391 -6.21913,-1.1013 -2.65609,-6.67261 2.72087,-4.40521 10.88348,-9.52304 z m -17.94478,65.49522 h 1.1013 q 6.47826,-0.12957 9.97652,-2.20261 3.49826,-2.07304 4.08131,-5.37696 0.64782,-4.53478 -1.55479,-11.07782 -2.13782,-6.54305 -4.85869,-12.95652 -1.29565,-3.10957 -2.39696,-5.83044 -0.71261,-4.59956 1.81391,-7.12609 2.52653,-2.52652 7.06131,-1.29565 3.62782,1.29565 5.05304,5.24739 1.16609,3.04479 2.59131,6.28392 2.46174,5.70087 4.40521,11.5313 1.94348,5.83044 2.13783,11.27217 -0.3887,11.92 -8.94,19.17566 -8.48652,7.25565 -20.4713,7.0613 -1.8787,0 -3.62783,-0.97174 -1.74913,-0.97174 -2.72087,-2.72087 -0.97174,-1.74913 -0.97174,-3.69261 0,-1.87869 0.97174,-3.62782 0.97174,-1.81392 2.72087,-2.72087 1.74913,-0.97174 3.62783,-0.97174 z"
         style="font-size:149px;font-family:Aviny;fill:#f4c89c;stroke:#000000;stroke-width:0"
         id="path17160" />
      <path
         d="m 242.26986,317.44181 v 0 14.70565 q -2.26739,0.0648 -4.47,0 -6.86695,0.12957 -13.53956,-2.46174 -6.67261,-2.65609 -10.23566,-8.74565 v 0 q -2.00826,5.05304 -6.34869,8.09783 -4.27565,3.04478 -9.52304,3.10956 v -14.70565 q 4.85869,0.0648 7.12608,-1.29565 2.33218,-1.42522 3.30392,-3.43348 0.90695,-1.8787 1.03652,-4.21087 0.19435,-2.33218 0.0648,-4.98826 -0.19435,-3.69261 0.25913,-7.51478 0.64783,-3.69261 3.17435,-5.05305 2.5913,-1.36043 5.11782,0.58305 2.52653,1.94347 3.17435,8.09782 0.12957,1.29565 0.3887,2.52652 0.25913,1.74913 0.45348,3.3687 v 0 q 0.64782,3.04478 2.78565,5.76565 2.20261,2.65609 6.28391,4.40522 4.14609,1.74913 10.94826,1.74913 z m 0,0 q 1.8787,0 3.62783,0.97174 1.74913,0.90695 2.72087,2.72087 1.03652,1.74913 1.03652,3.62782 0,1.94348 -0.97174,3.69261 -0.97174,1.74913 -2.72087,2.72087 -1.74913,0.97174 -3.69261,0.97174 -1.87869,0 -3.69261,-0.97174 -1.74913,-0.97174 -2.72087,-2.72087 -0.90695,-1.74913 -0.90695,-3.69261 0,-1.87869 0.97174,-3.62782 0.97174,-1.81392 2.72087,-2.72087 1.74913,-0.97174 3.62782,-0.97174 z m -43.92261,0 q 1.8787,0 3.62783,0.97174 1.74913,0.90695 2.72087,2.72087 1.03652,1.74913 1.03652,3.62782 0,1.94348 -0.97174,3.69261 -0.97174,1.74913 -2.72087,2.72087 -1.74913,0.97174 -3.69261,0.97174 -1.87869,0 -3.62782,-0.97174 -1.74913,-0.97174 -2.72087,-2.72087 -0.97174,-1.74913 -0.97174,-3.69261 0,-1.87869 0.97174,-3.62782 0.97174,-1.81392 2.78565,-2.72087 1.74913,-0.97174 3.56304,-0.97174 z m 9.26392,-53.76957 v 0 q 4.79391,-1.29565 8.81043,0.77739 4.01652,2.00827 5.18261,5.96 0.97174,4.79392 -1.81391,7.96827 -2.72087,3.17434 -6.08957,4.01652 -6.67261,1.29565 -10.55956,-2.46174 -3.82218,-3.82218 -3.17435,-8.81044 0.71261,-4.98826 7.64435,-7.45 z"
         style="font-size:149px;font-family:Aviny;fill:#f4c89c;stroke:#000000;stroke-width:0"
         id="path17162" />
      <path
         d="m 115.86027,332.14746 q -1.94348,0 -3.69261,-0.97174 -1.74913,-0.97174 -2.65609,-2.72087 -0.97174,-1.74913 -0.97174,-3.69261 0,-1.87869 0.97174,-3.62782 0.97174,-1.81392 2.72087,-2.72087 1.74913,-0.97174 3.62783,-0.97174 h 3.62782 q 5.96,0.0648 12.63261,-0.51826 6.67261,-0.58305 13.02131,-3.04478 6.41347,-2.46174 11.46652,-8.03305 -2.59131,-1.42522 -5.24739,-3.23913 -4.59957,-3.30391 -9.52305,-5.05304 -4.66435,-1.23087 -6.60782,-0.0648 -1.8787,1.16608 -2.72087,3.36869 -2.20261,4.08131 -4.40522,4.59957 -2.13783,0.45347 -3.62783,-1.49 -1.49,-2.00826 -1.61956,-5.2474 -0.0648,-4.47 3.56304,-8.48652 3.69261,-4.0813 10.88348,-5.05304 7.19087,-1.03652 17.75043,3.82217 l 3.10957,1.49 q 4.72913,2.59131 9.39348,3.95174 4.72913,1.29565 12.82695,0.77739 2.2674,-0.19434 4.66435,-0.84217 2.33218,-0.64783 4.66435,-0.90696 2.39696,-0.25913 4.66435,0.77739 2.65608,1.36044 3.82217,4.27566 1.23087,2.91521 -0.71261,6.08956 -2.78565,3.82218 -6.47826,4.8587 -3.69261,0.97174 -7.70913,1.03652 -0.90695,0 -1.81391,0.0648 0.64782,2.52652 2.85043,4.59957 2.26739,2.07304 6.60783,2.26739 h 7.57956 q 1.74914,0.0648 3.43348,0.90696 1.74913,0.97173 2.72087,2.78565 1.03652,1.74913 1.03652,3.62782 0,1.94348 -0.97173,3.69261 -0.97174,1.74913 -2.72087,2.72087 -1.74913,0.97174 -3.69261,0.97174 h -8.29218 q -1.16608,0 -2.33217,0 -1.16609,-0.0648 -2.00826,-0.12956 -5.70087,-0.51827 -10.23565,-3.23913 -4.47,-2.78566 -7.77392,-8.61609 0,-0.0648 -0.32391,-0.77739 -0.32391,-0.71261 -0.84217,-1.81392 -0.25913,-0.51826 -0.51826,-1.1013 -2.07305,1.16609 -4.14609,2.26739 -4.47,2.59131 -9.00478,4.98826 -7.19087,3.88696 -14.64087,6.15435 -7.45,2.26739 -15.48305,2.26739 z m 36.27826,6.80217 v 0 q 4.79391,-1.29565 8.81043,0.7774 4.01652,2.07304 5.18261,5.96 0.97174,4.85869 -1.81391,8.03304 -2.72087,3.17435 -6.08957,4.01652 -6.67261,1.23087 -10.55956,-2.52652 -3.82218,-3.75739 -3.17435,-8.74565 0.71261,-4.98826 7.64435,-7.51479 z"
         style="font-size:149px;font-family:Aviny;fill:#f4c89c;stroke:#000000;stroke-width:0"
         id="path17164" />
      <path
         d="m 115.89063,317.50659 v 0 14.64087 q -6.47826,0 -10.30043,-3.10956 -3.82218,-3.10957 -6.15435,-8.74566 -4.146086,6.73739 -10.559565,9.65261 -6.413478,2.85044 -14.057826,3.10957 -8.227391,0.12956 -11.725652,-2.65609 -3.498261,-2.78565 -3.368696,-6.21913 0.129566,-3.43348 2.915218,-5.24739 2.137826,-0.90696 7.838695,-0.64783 3.368696,0.12957 7.061305,-0.0648 8.551304,-0.51826 11.660869,-3.30391 3.109566,-2.85044 2.202609,-7.45 -0.906957,-4.66435 -4.405217,-10.49479 -2.850435,-4.66434 -3.822174,-8.22739 -0.647826,-3.88695 1.554782,-6.34869 2.202609,-2.52652 5.571305,-2.33218 3.433478,0.12957 6.543043,4.08131 2.202609,3.49826 4.988264,10.43 0.84217,2.00826 1.74913,4.14608 1.1013,2.72087 1.94348,5.83044 1.1013,4.79391 3.23913,8.5513 2.13782,3.7574 7.12608,4.40522 z"
         style="font-size:149px;font-family:Aviny;fill:#f4c89c;stroke:#000000;stroke-width:0"
         id="path17166" />
    </g>
  </g>
</svg>
