<svg width="512" height="512" version="1.1" xmlns="http://www.w3.org/2000/svg"><g><title>background</title><rect id="canvas_background" x="-1" y="-1" width="514" height="514" fill="none"/><g id="canvasGrid" x="0" y="0" width="100%" height="100%" display="none" overflow="visible"><rect width="100%" height="100%" fill="url(#gridpattern)" stroke-width="0"/></g></g><g><title>Layer 1</title><g stroke="null"><path d="m183 150-172 172c-13.1 13.1-13.1 34.4 0 47.6l131 131c13.1 13.1 34.4 13.1 47.6 0l172-172-179-179z" fill="#ff5f7f"/><path d="m143 501c13.1 13.1 34.4 13.1 47.6 0l172-172-20.5-20.5-172 172c-13.1 13.1-34.4 13.1-47.6 0l20.5 20.5z" fill="#f4375c"/><path d="m452 230c9-2.67 16-9.71 18.7-18.7 2.67-9 9.71-16 18.7-18.7 9-2.67 16-9.71 18.7-18.7v-0.00776c2.81-9.46 3.15-19.5 1.01-29.1l-0.21-0.932c-2.39-10.7-9.53-19.8-19.4-24.6-7.24-3.53-13.1-9.38-16.6-16.6l-2.17-4.45c-3.53-7.23-9.38-13.1-16.6-16.6l-4.45-2.17c-7.23-3.53-13.1-9.38-16.6-16.6l-2.17-4.45c-3.53-7.24-9.38-13.1-16.6-16.6l-4.45-2.17c-7.23-3.53-13.1-9.38-16.6-16.6-4.81-9.87-13.9-17-24.6-19.4l-0.928-0.206c-9.64-2.15-19.7-1.81-29.1 1-9 2.67-16 9.71-18.7 18.7-2.67 9-9.71 16-18.7 18.7-9 2.67-16 9.71-18.7 18.7-2.67 9-9.71 16-18.7 18.7s-16 9.71-18.7 18.7l-4.28 14.4 45.1 114 114 45.1 14.4-4.28c9-2.67 16-9.71 18.7-18.7 2.67-9 9.71-16 18.7-18.7z" fill="#e1966d"/><path d="m509 144-0.206-0.932c-2.39-10.7-9.53-19.8-19.4-24.6-0.978-0.474-1.92-1-2.85-1.56 0.738 1.82 1.34 3.71 1.77 5.66l0.206 0.928c2.15 9.63 1.81 19.7-1 29.1l-0.00388 0.00776c-2.67 9-9.71 16-18.7 18.7s-16 9.71-18.7 18.7c-2.67 9-9.71 16-18.7 18.7-9 2.67-16 9.71-18.7 18.7-2.67 9-9.71 16-18.7 18.7l-14.4 4.28-99.7-39.3 5.79 14.7 114 45.1 14.4-4.28c9-2.67 16-9.71 18.7-18.7s9.71-16 18.7-18.7c9-2.68 16-9.71 18.7-18.7 2.67-9 9.71-16 18.7-18.7 9-2.67 16-9.71 18.7-18.7v-0.00388c2.81-9.46 3.15-19.5 1-29.1z" fill="#d77c40"/><path d="m400 271-159-159c-7.4-7.4-19.4-7.4-26.8 0l-42.6 42.6c-7.97 7.97-4.82 21.5 5.85 25.2 14.6 4.98 26.1 16.4 31 31 4.98 14.6 16.4 26.1 31 31 14.6 4.98 26.1 16.4 31 31 4.98 14.6 16.4 26.1 31 31 14.6 4.98 26.1 16.4 31 31 3.64 10.7 17.2 13.8 25.2 5.85l42.6-42.6c7.4-7.4 7.4-19.4 0.00389-26.8z" fill="#e9e9e9"/><path d="m400 271-20.5-20.5c7.4 7.4 7.4 19.4 0 26.8l-42.6 42.6c-2.73 2.73-6.12 4.15-9.55 4.42 1.98 3.18 3.61 6.59 4.84 10.2 3.64 10.7 17.2 13.8 25.2 5.85l42.6-42.6c7.4-7.4 7.4-19.4 0.00389-26.8z" fill="#d3d2d8"/><g transform="matrix(.994 0 0 .994 -1573 -1596)" fill="#f3c13b"><path d="m1718 1913c-8.89 8.1-12.8 20.9-8.9 33.1 3.88 12.2 14.5 20.4 26.4 21.9 8.89-8.1 12.8-20.9 8.89-33.1-3.88-12.2-14.5-20.4-26.4-21.9z"/><path d="m1791 1986c-8.09 8.89-20.9 12.8-33.1 8.89-12.2-3.88-20.4-14.5-21.9-26.4 8.09-8.89 20.9-12.8 33.1-8.9 12.2 3.88 20.4 14.5 21.9 26.4z"/><path d="m1677 1955c-8.89 8.1-12.8 20.9-8.9 33.1 3.88 12.2 14.5 20.4 26.4 21.9 8.89-8.09 12.8-20.9 8.89-33.1-3.88-12.2-14.5-20.4-26.4-21.9z"/><path d="m1749 2027c-8.09 8.89-20.9 12.8-33.1 8.89-12.2-3.88-20.4-14.5-21.9-26.4 8.1-8.89 20.9-12.8 33.1-8.89 12.2 3.88 20.4 14.5 21.9 26.4z"/></g><path d="m111 409c-1.96 0-3.93-0.753-5.43-2.25-3-3-3-7.86 0-10.9l86.8-86.8c3-3 7.86-3 10.9 0 3 3 3 7.86 0 10.9l-86.8 86.8c-1.5 1.5-3.47 2.25-5.43 2.25z" fill="#f3e64d"/><path d="m228 284c-11.2-4.15-24.3-1.73-33.3 7.28-9 9-11.4 22.1-7.28 33.3 11.2 4.15 24.3 1.73 33.3-7.28 9-9 11.4-22.1 7.28-33.3z" fill="#f3c13b"/></g></g></svg>
