<svg width="512" height="512" xmlns="http://www.w3.org/2000/svg">
 <!-- Created with Method Draw - http://github.com/duopixel/Method-Draw/ -->

 <g>
  <title>background</title>
  <rect fill="none" id="canvas_background" height="514" width="514" y="-1" x="-1"/>
  <g display="none" overflow="visible" y="0" x="0" height="100%" width="100%" id="canvasGrid">
   <rect fill="url(#gridpattern)" stroke-width="0" y="0" x="0" height="100%" width="100%"/>
  </g>
 </g>
 <g>
  <title>Layer 1</title>
  <g stroke="null" id="svg_20">
   <path stroke="null" id="svg_4" fill="#ff5f7f" d="m183.345652,149.587197l-171.933235,171.933245c-13.142313,13.142303 -13.142313,34.449539 0,47.591851l131.47356,131.47356c13.142313,13.142313 34.445662,13.142313 47.587975,0l171.937121,-171.937121l-179.065422,-179.061535zm0,0"/>
   <path stroke="null" id="svg_5" fill="#f4375c" d="m142.885978,500.585854c13.142313,13.142313 34.445662,13.142313 47.587975,0l171.937121,-171.937121l-20.480261,-20.476375l-171.933235,171.933235c-13.142313,13.142313 -34.449548,13.142313 -47.591861,0l20.480261,20.480261zm0,0"/>
   <path stroke="null" id="svg_6" fill="#e1966d" d="m451.899138,229.648512c9.003546,-2.671169 16.042542,-9.714052 18.717598,-18.717598c2.671169,-9.003546 9.710166,-16.042542 18.713711,-18.717598c9.003556,-2.671169 16.046428,-9.710166 18.717598,-18.713721l0,-0.007763c2.810945,-9.461685 3.152606,-19.482452 1.005572,-29.114972l-0.209648,-0.931803c-2.391628,-10.715738 -9.531578,-19.761993 -19.40093,-24.57631c-7.237006,-3.53309 -13.084069,-9.380153 -16.613273,-16.613273l-2.174208,-4.453245c-3.529204,-7.233129 -9.376267,-13.080193 -16.609396,-16.613283l-4.453245,-2.170321c-7.233119,-3.529204 -13.084069,-9.376267 -16.613273,-16.613273l-2.170321,-4.449368c-3.53309,-7.237006 -9.380153,-13.084069 -16.613283,-16.613273l-4.453245,-2.174208c-7.233119,-3.529204 -13.080183,-9.376267 -16.613273,-16.613273c-4.814317,-9.869353 -13.860572,-17.009292 -24.57631,-19.40092l-0.927927,-0.205782c-9.636397,-2.15091 -19.66105,-1.805363 -29.126611,1.001696c-8.999669,2.671169 -16.042552,9.714042 -18.713721,18.717598c-2.671169,9.003546 -9.714052,16.042542 -18.717598,18.717598c-9.003546,2.671169 -16.042542,9.710166 -18.717598,18.713711c-2.671169,9.003556 -9.710166,16.046438 -18.713721,18.717608s-16.046428,9.714042 -18.717598,18.717598l-4.282409,14.431302l45.056571,114.343915l114.343915,45.056571l14.435189,-4.282419c8.999659,-2.671169 16.042542,-9.714042 18.713711,-18.717598c2.671169,-9.003546 9.710166,-16.046428 18.713721,-18.717598zm0,0"/>
   <path stroke="null" id="svg_7" fill="#d77c40" d="m509.049741,144.380747l-0.205772,-0.931803c-2.391628,-10.715738 -9.531578,-19.761993 -19.40093,-24.580196c-0.978389,-0.473664 -1.921841,-1.001686 -2.845881,-1.556892c0.73768,1.820908 1.335585,3.711688 1.770426,5.660713l0.205772,0.927917c2.15092,9.63252 1.805373,19.653287 -1.001686,29.114972l-0.003876,0.007763c-2.671169,8.999669 -9.710176,16.042552 -18.713721,18.713721s-16.046428,9.714042 -18.717598,18.717598c-2.671169,8.999669 -9.714052,16.042542 -18.717598,18.713711c-8.999669,2.671169 -16.042552,9.714052 -18.713721,18.717598c-2.671169,8.999669 -9.714052,16.042552 -18.717598,18.713721l-14.431302,4.282409l-99.656369,-39.263856l5.788829,14.687546l114.343915,45.056571l14.435189,-4.282409c8.999669,-2.671169 16.042542,-9.714052 18.713711,-18.717598s9.714052,-16.042552 18.717608,-18.713721c9.003546,-2.675046 16.042542,-9.714052 18.717598,-18.717598c2.671169,-9.003546 9.710166,-16.042542 18.713711,-18.713711c9.003556,-2.671169 16.046428,-9.714052 18.717598,-18.717608l0,-0.003876c2.807059,-9.461685 3.152606,-19.482452 1.001696,-29.114972zm0,0"/>
   <path stroke="null" id="svg_11" fill="#e9e9e9" d="m400.036516,271.36224l-159.404372,-159.400486c-7.396183,-7.400069 -19.393158,-7.400069 -26.78934,0l-42.62612,42.622234c-7.9708,7.974686 -4.818203,21.544068 5.85095,25.181987c14.590489,4.981266 26.05167,16.442447 31.032926,31.032936c4.981266,14.590479 16.438571,26.05166 31.032936,31.032926c14.590489,4.981266 26.05167,16.442447 31.02905,31.032936c4.981266,14.590489 16.442447,26.05167 31.032936,31.02905c14.590479,4.981266 26.05166,16.442447 31.032926,31.032936c3.641805,10.669143 17.211187,13.821749 25.181987,5.85095l42.622234,-42.62612c7.400079,-7.396192 7.400079,-19.389281 0.003886,-26.78935zm0,0"/>
   <path stroke="null" id="svg_12" fill="#d3d2d8" d="m400.036516,271.36224l-20.480261,-20.476375c7.400069,7.396183 7.400069,19.393158 0,26.793226l-42.622234,42.622234c-2.73329,2.73329 -6.122728,4.154292 -9.547103,4.422184c1.976198,3.175894 3.606849,6.592506 4.841491,10.207127c3.641795,10.669153 17.211187,13.821749 25.181987,5.847073l42.622234,-42.622244c7.400069,-7.400069 7.400069,-19.393158 0.003886,-26.793226zm0,0"/>
   <g stroke="null" transform="matrix(0.9939235274851196,0,0,0.9939235274851196,-1573.3504426574252,-1596.0843144663886) " id="svg_13" fill="#f3c13b">
    <path stroke="null" id="svg_14" d="m1718.392988,1913.058739c-8.89063,8.09766 -12.77735,20.91016 -8.89844,33.1211c3.88281,12.20703 14.45703,20.42187 26.39062,21.89844c8.88672,-8.09766 12.77735,-20.91016 8.89453,-33.1211c-3.88281,-12.20703 -14.45703,-20.42187 -26.38671,-21.89844zm0,0"/>
    <path stroke="null" id="svg_15" d="m1790.900798,1985.570459c-8.09375,8.88672 -20.91016,12.77735 -33.11719,8.89453c-12.21094,-3.8789 -20.42187,-14.45703 -21.89844,-26.38671c8.09375,-8.89063 20.91016,-12.77735 33.11719,-8.89844c12.21094,3.88281 20.42188,14.45703 21.89844,26.39062zm0,0"/>
    <path stroke="null" id="svg_16" d="m1676.881268,1954.570459c-8.89063,8.09766 -12.77735,20.91016 -8.89844,33.11719c3.88281,12.21094 14.45703,20.42578 26.39062,21.89844c8.88672,-8.09375 12.77735,-20.90625 8.89454,-33.11719c-3.88282,-12.20703 -14.45704,-20.42187 -26.38672,-21.89844zm0,0"/>
    <path stroke="null" id="svg_17" d="m1749.389078,2027.082179c-8.09375,8.88672 -20.91016,12.77735 -33.11719,8.89453c-12.20703,-3.88281 -20.42187,-14.45703 -21.89844,-26.39062c8.09766,-8.88672 20.91016,-12.77735 33.11719,-8.89453c12.21094,3.88281 20.42188,14.45703 21.89844,26.39062zm0,0"/>
   </g>
   <path stroke="null" id="svg_18" fill="#f3e64d" d="m110.715476,408.962415c-1.964559,0 -3.929109,-0.753205 -5.427757,-2.251863c-3.001182,-2.997296 -3.001182,-7.862084 0,-10.85939l86.820771,-86.820771c2.997306,-3.001182 7.862094,-3.001182 10.85939,0c2.997306,2.997296 2.997306,7.858208 0,10.85939l-86.820771,86.820771c-1.498648,1.498658 -3.467084,2.251863 -5.431633,2.251863zm0,0"/>
   <path stroke="null" id="svg_19" fill="#f3c13b" d="m227.874212,284.124069c-11.208823,-4.14653 -24.296779,-1.727727 -33.300324,7.275828c-9.003546,9.003546 -11.422358,22.091501 -7.275828,33.296438c11.208814,4.150406 24.296769,1.727717 33.300314,-7.275828c9.003556,-9.003556 11.422358,-22.087625 7.275838,-33.296438zm0,0"/>
  </g>
 </g>
</svg>