<svg width="512" height="512" version="1.1" xmlns="http://www.w3.org/2000/svg" xmlns:xlink="http://www.w3.org/1999/xlink"><g id="canvasGrid" x="0" y="0" width="100%" height="100%" display="none" overflow="visible"><rect width="100%" height="100%" fill="url(#gridpattern)" stroke-width="0"/></g><g stroke="null"><g transform="matrix(1.25 0 0 1.25 -2038 -2322)" stroke="null"><path d="m2e3 2204c0 29.4-74.6 53.2-167 53.2s-167-23.8-167-53.2 333-29.4 333 0z" fill="url(#b)"/><path d="m1666 2204c0 29.4 74.6 53.2 167 53.2s167-23.8 167-53.2c0 29.4-333 29.4-333 0z" fill="url(#c)"/><path d="m1833 2257c50.8 0 96.3-7.26 127-18.7l-17.4-17.4c-95.3 10.2-276 4.54-276-17.1-1e-3 29.4 74.6 53.2 167 53.2z" fill="url(#d)"/></g><linearGradient id="a"><stop stop-color="#8a7889" offset="0"/><stop stop-color="#6e566e" offset="1"/></linearGradient><linearGradient id="b" x1=".5" x2=".5" y1=".0869" y2=".529" xlink:href="#a"/><linearGradient id="c" x1=".5" x2=".5" y1=".146" y2=".817" xlink:href="#a"/><linearGradient id="d" x1=".656" x2=".604" y1="1.9" y2="1.39"><stop stop-color="#6e566e" stop-opacity="0" offset="0"/><stop stop-color="#6e566e" offset="1"/></linearGradient><g transform="matrix(1.03 0 0 1.03 -1568 -1509)" stroke="null"><path d="m1793 1635h-30v-27.7c0-22.3 18.1-40.4 40.4-40.4h67.8c5.74 0 10.4-4.67 10.4-10.4v-24.1h30v24.1c0 22.3-18.1 40.4-40.4 40.4h-67.8c-5.74 0-10.4 4.67-10.4 10.4v27.7z" fill="#e5e5e5"/><path d="m1734 1573h-30v-27.7c0-22.3 18.1-40.4 40.4-40.4h67.8c5.74 0 10.4-4.67 10.4-10.4v-24.1h30v24.1c0 22.3-18.1 40.4-40.4 40.4h-67.8c-5.74 0-10.4 4.67-10.4 10.4v27.7z" fill="#e5e5e5"/><path d="m1882 1532v24.1c0 5.75-4.68 10.4-10.4 10.4h-67.8c-9.62 0-18.5 3.39-25.4 9.02v59.1h15v-27.7c0-5.75 4.68-10.4 10.4-10.4h67.8c22.3 0 40.4-18.1 40.4-40.4v-24.1h-30z" fill="#ccc"/><path d="m1852 1494v-24.1h-30v24.1c0 5.75-4.68 10.4-10.4 10.4h-33.9v30h33.9c22.3 0 40.4-18.1 40.4-40.4z" fill="#ccc"/><path d="m1962 1864h-47.9v-30h47.9c3.53 0 6.4-2.87 6.4-6.39v-83.4c0-3.53-2.87-6.39-6.4-6.39h-47.9v-30h47.9c20.1 0 36.4 16.3 36.4 36.4v83.4c0 20.1-16.3 36.4-36.4 36.4z" fill="#b5dbff"/><path d="m1877 1924h-197c-28.7 0-52.1-23.4-52.1-52.1v-210h301v210c0 28.7-23.4 52.1-52.1 52.1z" fill="#edf5ff"/><path d="m1778 1662v262h99.5c28.7 0 52.1-23.4 52.1-52.1v-210h-152z" fill="#d5e8fe"/><path d="m1628 1741v131c0 28.7 23.4 52.1 52.1 52.1h197c28.7 0 52.1-23.4 52.1-52.1v-131h-301z" fill="#db0000"/><path d="m1778 1741v183h99.5c28.7 0 52.1-23.4 52.1-52.1v-131h-152z" fill="#bf0000"/></g><g transform="rotate(259 129 421)"><path d="m184 367s32.1 123-96.4 96.4l0.093-0.093c-27.8-127 96.4-96.4 96.4-96.4l-0.11 0.11z" fill="#39B54A"/><g transform="matrix(.386 0 0 .386 -549 -709)" fill="#009245"><path d="m1650 3038c0.027 0.123 0.05 0.243 0.077 0.366l-0.241 0.241c333 68.3 250-250 250-250l-250 249z"/><polygon points="1870 2847 1842 2818 1795 2866 1795 2825 1755 2825 1755 2906 1708 2953 1708 2934 1668 2934 1668 2993 1609 3052 1637 3080 1739 2978 1817 2978 1817 2938 1779 2938"/></g><polygon points="167 383 76.7 473 82.3 479 122 440 152 440 152 424 137 424 172 389" fill="#006837"/></g><g transform="rotate(-14 226 389)"><path d="m290 325s38 145-114 114l0.11-0.11c-32.9-151 114-114 114-114l-0.13 0.13z" fill="#39B54A"/><g transform="matrix(.457 0 0 .457 -675 -932)" fill="#009245"><path d="m1862 3e3c0.027 0.123 0.05 0.243 0.077 0.366l-0.241 0.241c333 68.3 250-250 250-250l-250 249z"/><polygon points="2082 2809 2054 2781 2006 2828 2006 2788 1966 2788 1966 2868 1919 2915 1919 2897 1879 2897 1879 2955 1820 3014 1849 3043 1951 2941 2029 2941 2029 2901 1991 2901"/></g><polygon points="270 345 163 451 170 458 217 412 252 412 252 393 235 393 276 352" fill="#006837"/></g><path d="m389 435-28.3 22.4-28.3-22.4 28.3-10.6 28.3 10.6z" fill="#fff"/><path d="m361 446-28.3-10.6v34.7l28.3 10.6v-34.7z" fill="#e6e6e6"/><path d="m361 446 28.3-10.6v34.7l-28.3 10.6v-34.7z" fill="#f2f2f2"/><path d="m445 435-28.3 22.4-28.3-22.4 28.3-10.6 28.3 10.6z" fill="#fff"/><path d="m417 446-28.3-10.6v34.7l28.3 10.6v-34.7z" fill="#e6e6e6"/><path d="m417 446 28.3-10.6v34.7l-28.3 10.6v-34.7z" fill="#f2f2f2"/><path d="m417 390-28.3 22.4-28.3-22.4 28.3-10.6 28.3 10.6z" fill="#fff"/><path d="m389 400-28.3-10.6v34.7l28.3 10.6v-34.7z" fill="#e6e6e6"/><path d="m389 400 28.3-10.6v34.7l-28.3 10.6v-34.7z" fill="#f2f2f2"/><g transform="matrix(.386 0 0 .386 -630 -811)" fill="#e6e6e6"><path d="m2587 3271c0 3.95-3.2 7.15-7.15 7.15s-7.15-3.2-7.15-7.15 3.2-7.15 7.15-7.15 7.15 3.2 7.15 7.15z"/><path d="m2601 3290c0 3.95-3.2 7.15-7.15 7.15s-7.15-3.2-7.15-7.15 3.2-7.15 7.15-7.15 7.15 3.2 7.15 7.15z"/><path d="m2581 3295c0 3.95-3.2 7.15-7.15 7.15s-7.15-3.2-7.15-7.15 3.2-7.15 7.15-7.15 7.15 3.2 7.15 7.15z"/><path d="m2662 3146c0 3.95-3.2 7.15-7.15 7.15s-7.15-3.2-7.15-7.15 3.2-7.15 7.15-7.15 7.15 3.2 7.15 7.15z"/><path d="m2701 3184c0 3.95-3.2 7.15-7.15 7.15s-7.15-3.2-7.15-7.15 3.2-7.15 7.15-7.15 7.15 3.2 7.15 7.15z"/><path d="m2683 3191c0 3.95-3.2 7.15-7.15 7.15s-7.15-3.2-7.15-7.15 3.2-7.15 7.15-7.15 7.15 3.2 7.15 7.15z"/><path d="m2731 3263c0 3.95-3.2 7.15-7.15 7.15s-7.15-3.2-7.15-7.15 3.2-7.15 7.15-7.15 7.15 3.2 7.15 7.15z"/></g></g></svg>
