<svg width="512" height="512" style="clip-rule:evenodd;fill-rule:evenodd;image-rendering:optimizeQuality;shape-rendering:geometricPrecision;text-rendering:geometricPrecision" version="1.1" viewBox="0 0 5333 5333" xml:space="preserve" xmlns="http://www.w3.org/2000/svg">
 <defs>
  <style type="text/css">
   <![CDATA[
    .fil59 {fill:#131417;fill-rule:nonzero}
    .fil48 {fill:#1B1C20;fill-rule:nonzero}
    .fil188 {fill:#45440B;fill-rule:nonzero}
    .fil175 {fill:#4E1802;fill-rule:nonzero}
    .fil129 {fill:#4E2808;fill-rule:nonzero}
    .fil206 {fill:#572706;fill-rule:nonzero}
    .fil189 {fill:#585A0B;fill-rule:nonzero}
    .fil174 {fill:#5B2205;fill-rule:nonzero}
    .fil207 {fill:#5C2002;fill-rule:nonzero}
    .fil126 {fill:#5E2F00;fill-rule:nonzero}
    .fil125 {fill:#632F04;fill-rule:nonzero}
    .fil128 {fill:#63320A;fill-rule:nonzero}
    .fil185 {fill:#646F1A;fill-rule:nonzero}
    .fil124 {fill:#662A00;fill-rule:nonzero}
    .fil170 {fill:#677F1C;fill-rule:nonzero}
    .fil187 {fill:#692E00;fill-rule:nonzero}
    .fil58 {fill:#6A4900;fill-rule:nonzero}
    .fil121 {fill:#6B4B15;fill-rule:nonzero}
    .fil133 {fill:#6C2E05;fill-rule:nonzero}
    .fil132 {fill:#6C2E0D;fill-rule:nonzero}
    .fil192 {fill:#6E2500;fill-rule:nonzero}
    .fil208 {fill:#6E5B2D;fill-rule:nonzero}
    .fil39 {fill:#6F2600;fill-rule:nonzero}
    .fil213 {fill:#6F2A00;fill-rule:nonzero}
    .fil217 {fill:#6F531F;fill-rule:nonzero}
    .fil105 {fill:#704112;fill-rule:nonzero}
    .fil120 {fill:#70531F;fill-rule:nonzero}
    .fil75 {fill:#727B42;fill-rule:nonzero}
    .fil123 {fill:#75430A;fill-rule:nonzero}
    .fil141 {fill:#75430B;fill-rule:nonzero}
    .fil142 {fill:#75451A;fill-rule:nonzero}
    .fil134 {fill:#77370F;fill-rule:nonzero}
    .fil140 {fill:#773B00;fill-rule:nonzero}
    .fil122 {fill:#773C00;fill-rule:nonzero}
    .fil70 {fill:#777A7E;fill-rule:nonzero}
    .fil186 {fill:#784910;fill-rule:nonzero}
    .fil215 {fill:#793A09;fill-rule:nonzero}
    .fil108 {fill:#7A3A09;fill-rule:nonzero}
    .fil118 {fill:#7E3C05;fill-rule:nonzero}
    .fil127 {fill:#7E400E;fill-rule:nonzero}
    .fil191 {fill:#7F3B05;fill-rule:nonzero}
    .fil204 {fill:#7F5E23;fill-rule:nonzero}
    .fil212 {fill:#804408;fill-rule:nonzero}
    .fil209 {fill:#806B34;fill-rule:nonzero}
    .fil201 {fill:#807250;fill-rule:nonzero}
    .fil38 {fill:#812C00;fill-rule:nonzero}
    .fil119 {fill:#813500;fill-rule:nonzero}
    .fil211 {fill:#823C00;fill-rule:nonzero}
    .fil113 {fill:#827552;fill-rule:nonzero}
    .fil65 {fill:#83964E;fill-rule:nonzero}
    .fil173 {fill:#843404;fill-rule:nonzero}
    .fil138 {fill:#845612;fill-rule:nonzero}
    .fil198 {fill:#85511E;fill-rule:nonzero}
    .fil16 {fill:#866036;fill-rule:nonzero}
    .fil139 {fill:#885E1C;fill-rule:nonzero}
    .fil116 {fill:#885F1C;fill-rule:nonzero}
    .fil7 {fill:#885F26;fill-rule:nonzero}
    .fil76 {fill:#899072;fill-rule:nonzero}
    .fil104 {fill:#8E5218;fill-rule:nonzero}
    .fil72 {fill:#8E9850;fill-rule:nonzero}
    .fil135 {fill:#8F5218;fill-rule:nonzero}
    .fil45 {fill:#8F6200;fill-rule:nonzero}
    .fil101 {fill:#934400;fill-rule:nonzero}
    .fil117 {fill:#94540E;fill-rule:nonzero}
    .fil62 {fill:#94969A;fill-rule:nonzero}
    .fil30 {fill:#953300;fill-rule:nonzero}
    .fil130 {fill:#955723;fill-rule:nonzero}
    .fil210 {fill:#955F15;fill-rule:nonzero}
    .fil202 {fill:#95855D;fill-rule:nonzero}
    .fil61 {fill:#96969A;fill-rule:nonzero}
    .fil115 {fill:#974B00;fill-rule:nonzero}
    .fil205 {fill:#976F29;fill-rule:nonzero}
    .fil34 {fill:#979FA5;fill-rule:nonzero}
    .fil33 {fill:#996900;fill-rule:nonzero}
    .fil77 {fill:#9A637D;fill-rule:nonzero}
    .fil99 {fill:#9A7A31;fill-rule:nonzero}
    .fil214 {fill:#9B490C;fill-rule:nonzero}
    .fil103 {fill:#9B4A0C;fill-rule:nonzero}
    .fil109 {fill:#9B4B1E;fill-rule:nonzero}
    .fil197 {fill:#9B7351;fill-rule:nonzero}
    .fil43 {fill:#9B9991;fill-rule:nonzero}
    .fil11 {fill:#9C6D2C;fill-rule:nonzero}
    .fil57 {fill:#9E854E;fill-rule:nonzero}
    .fil200 {fill:#9F9469;fill-rule:nonzero}
    .fil172 {fill:#A18648;fill-rule:nonzero}
    .fil193 {fill:#A2693D;fill-rule:nonzero}
    .fil131 {fill:#A56828;fill-rule:nonzero}
    .fil171 {fill:#A6B400;fill-rule:nonzero}
    .fil97 {fill:#A86D18;fill-rule:nonzero}
    .fil40 {fill:#A88C4E;fill-rule:nonzero}
    .fil136 {fill:#A9703E;fill-rule:nonzero}
    .fil195 {fill:#AA6933;fill-rule:nonzero}
    .fil95 {fill:#AA6D18;fill-rule:nonzero}
    .fil13 {fill:#AA7B44;fill-rule:nonzero}
    .fil73 {fill:#ABB18B;fill-rule:nonzero}
    .fil110 {fill:#AC5A22;fill-rule:nonzero}
    .fil100 {fill:#AC6100;fill-rule:nonzero}
    .fil28 {fill:#AD3A00;fill-rule:nonzero}
    .fil114 {fill:#AD7725;fill-rule:nonzero}
    .fil35 {fill:#AE4300;fill-rule:nonzero}
    .fil44 {fill:#AEB8BD;fill-rule:nonzero}
    .fil36 {fill:#B19688;fill-rule:nonzero}
    .fil203 {fill:#B19D6D;fill-rule:nonzero}
    .fil46 {fill:#B1B2B5;fill-rule:nonzero}
    .fil64 {fill:#B1BB61;fill-rule:nonzero}
    .fil180 {fill:#B2793D;fill-rule:nonzero}
    .fil47 {fill:#B37C32;fill-rule:nonzero}
    .fil22 {fill:#B4B0A6;fill-rule:nonzero}
    .fil102 {fill:#B56820;fill-rule:nonzero}
    .fil49 {fill:#B5B9BC;fill-rule:nonzero}
    .fil98 {fill:#B6610C;fill-rule:nonzero}
    .fil5 {fill:#B67E32;fill-rule:nonzero}
    .fil216 {fill:#B7641F;fill-rule:nonzero}
    .fil194 {fill:#B7783D;fill-rule:nonzero}
    .fil196 {fill:#B79852;fill-rule:nonzero}
    .fil1 {fill:#B8B9BC;fill-rule:nonzero}
    .fil37 {fill:#B99A88;fill-rule:nonzero}
    .fil96 {fill:#BA5600;fill-rule:nonzero}
    .fil24 {fill:#BA996D;fill-rule:nonzero}
    .fil137 {fill:#BB8646;fill-rule:nonzero}
    .fil111 {fill:#BC6200;fill-rule:nonzero}
    .fil89 {fill:#BCBEC0;fill-rule:nonzero}
    .fil66 {fill:#BCC69F;fill-rule:nonzero}
    .fil6 {fill:#BDB4A9;fill-rule:nonzero}
    .fil8 {fill:#BEC0C3;fill-rule:nonzero}
    .fil74 {fill:#BF7A99;fill-rule:nonzero}
    .fil155 {fill:#BF905C;fill-rule:nonzero}
    .fil219 {fill:#C1903A;fill-rule:nonzero}
    .fil154 {fill:#C1AC7A;fill-rule:nonzero}
    .fil184 {fill:#C29959;fill-rule:nonzero}
    .fil93 {fill:#C49A41;fill-rule:nonzero}
    .fil21 {fill:#C4BBAB;fill-rule:nonzero}
    .fil86 {fill:#C5C6C8;fill-rule:nonzero}
    .fil92 {fill:#C79B41;fill-rule:nonzero}
    .fil23 {fill:#C84400;fill-rule:nonzero}
    .fil78 {fill:#C8ABB9;fill-rule:nonzero}
    .fil20 {fill:#CBD3D8;fill-rule:nonzero}
    .fil183 {fill:#CC813D;fill-rule:nonzero}
    .fil145 {fill:#CC8500;fill-rule:nonzero}
    .fil152 {fill:#CC9D5C;fill-rule:nonzero}
    .fil179 {fill:#CD8A3D;fill-rule:nonzero}
    .fil71 {fill:#CDCFD1;fill-rule:nonzero}
    .fil29 {fill:#CE8C00;fill-rule:nonzero}
    .fil176 {fill:#CEA57F;fill-rule:nonzero}
    .fil63 {fill:#CFDC70;fill-rule:nonzero}
    .fil10 {fill:#D19039;fill-rule:nonzero}
    .fil94 {fill:#D58920;fill-rule:nonzero}
    .fil19 {fill:#D5AF7C;fill-rule:nonzero}
    .fil162 {fill:#D5B685;fill-rule:nonzero}
    .fil68 {fill:#D5DAA9;fill-rule:nonzero}
    .fil144 {fill:#D68700;fill-rule:nonzero}
    .fil106 {fill:#D68D52;fill-rule:nonzero}
    .fil149 {fill:#D69E5C;fill-rule:nonzero}
    .fil54 {fill:#D6D6D7;fill-rule:nonzero}
    .fil60 {fill:#D6D8DA;fill-rule:nonzero}
    .fil112 {fill:#D79B30;fill-rule:nonzero}
    .fil218 {fill:#D79E3D;fill-rule:nonzero}
    .fil18 {fill:#D8CEC0;fill-rule:nonzero}
    .fil85 {fill:#D9D9DB;fill-rule:nonzero}
    .fil91 {fill:#DA7A00;fill-rule:nonzero}
    .fil190 {fill:#DAB460;fill-rule:nonzero}
    .fil177 {fill:#DBB07F;fill-rule:nonzero}
    .fil160 {fill:#DBB389;fill-rule:nonzero}
    .fil151 {fill:#DBC084;fill-rule:nonzero}
    .fil79 {fill:#DCB7C8;fill-rule:nonzero}
    .fil199 {fill:#DCCC8F;fill-rule:nonzero}
    .fil165 {fill:#DEB179;fill-rule:nonzero}
    .fil182 {fill:#E0A755;fill-rule:nonzero}
    .fil81 {fill:#E1D2D9;fill-rule:nonzero}
    .fil32 {fill:#E2BA66;fill-rule:nonzero}
    .fil41 {fill:#E3BE6E;fill-rule:nonzero}
    .fil178 {fill:#E49C3D;fill-rule:nonzero}
    .fil3 {fill:#E4A459;fill-rule:nonzero}
    .fil161 {fill:#E4CC99;fill-rule:nonzero}
    .fil67 {fill:#E5ECB2;fill-rule:nonzero}
    .fil147 {fill:#E6E6E1;fill-rule:nonzero}
    .fil153 {fill:#E7C179;fill-rule:nonzero}
    .fil143 {fill:#E8A800;fill-rule:nonzero}
    .fil146 {fill:#E8AC5C;fill-rule:nonzero}
    .fil25 {fill:#E95900;fill-rule:nonzero}
    .fil157 {fill:#EAC489;fill-rule:nonzero}
    .fil17 {fill:#EAE2D8;fill-rule:nonzero}
    .fil158 {fill:#EBC6A1;fill-rule:nonzero}
    .fil164 {fill:#EBCC90;fill-rule:nonzero}
    .fil167 {fill:#EBCEA6;fill-rule:nonzero}
    .fil82 {fill:#ECD8E1;fill-rule:nonzero}
    .fil56 {fill:#ECDAD1;fill-rule:nonzero}
    .fil88 {fill:#ECEDEE;fill-rule:nonzero}
    .fil69 {fill:#ED96BB;fill-rule:nonzero}
    .fil107 {fill:#EDA95D;fill-rule:nonzero}
    .fil163 {fill:#EDBC79;fill-rule:nonzero}
    .fil27 {fill:#EEC7B2;fill-rule:nonzero}
    .fil83 {fill:#EFA921;fill-rule:nonzero}
    .fil42 {fill:#EFDAAD;fill-rule:nonzero}
    .fil150 {fill:#F1C95C;fill-rule:nonzero}
    .fil53 {fill:#F1F1EF;fill-rule:nonzero}
    .fil9 {fill:#F2E8DA;fill-rule:nonzero}
    .fil2 {fill:#F4A741;fill-rule:nonzero}
    .fil168 {fill:#F4D379;fill-rule:nonzero}
    .fil166 {fill:#F4D5A6;fill-rule:nonzero}
    .fil31 {fill:#F4E6C7;fill-rule:nonzero}
    .fil52 {fill:#F4F3F0;fill-rule:nonzero}
    .fil80 {fill:#F5C6DA;fill-rule:nonzero}
    .fil55 {fill:#F5DDD1;fill-rule:nonzero}
    .fil84 {fill:#F6D087;fill-rule:nonzero}
    .fil159 {fill:#F6D3A6;fill-rule:nonzero}
    .fil26 {fill:#F8CDB2;fill-rule:nonzero}
    .fil169 {fill:#F8E3A6;fill-rule:nonzero}
    .fil90 {fill:#F9C256;fill-rule:nonzero}
    .fil12 {fill:#F9CB8F;fill-rule:nonzero}
    .fil15 {fill:#FAD7A9;fill-rule:nonzero}
    .fil87 {fill:#FAE6BE;fill-rule:nonzero}
    .fil14 {fill:#FAEFE1;fill-rule:nonzero}
    .fil181 {fill:#FBD17D;fill-rule:nonzero}
    .fil148 {fill:#FBD991;fill-rule:nonzero}
    .fil50 {fill:#FBE1D1;fill-rule:nonzero}
    .fil156 {fill:#FCE0A3;fill-rule:nonzero}
    .fil4 {fill:#FDEFDD;fill-rule:nonzero}
    .fil51 {fill:#FEF6F1;fill-rule:nonzero}
    .fil0 {fill:white;fill-rule:nonzero}
   ]]>
  </style>
 
  
  
  
  
  
  
  
  
  
  
  
  
  
  
  
  
  
  
  
  
  
  
  
  
  
  
  
  
  
  
  
  
  
  
  
  
  
  
  
  
  
  
  
  
  
  
  
  
  
  
  
  
  
  
  
  
  
  
  
  
  
  
  
  
  
  
  
  
  
  
  
  
  
  
  
  
  
  
  
  
  
  
  
  
  
  
  
  
  
  
  
  
  
  
  
  
  
  
  
  
  
  
  
  
  
  
  
  
  
  
  
  
  
  
  
  
  
  
  
  
  
  
  
  
  
  
  
  
  
  
  
  
  
  
  
  
  
  
  
  
  
  
  
  
  
  
  
  
  
  
  
  
  
  
  
  
  
  
  
  
  
  
  
  
  
  
  
  
  
  
  
  
  
  
  
  
  
  
  
  
  
  
  
  
  
  
  
  
  
  
  
  
  
  
  
  
  
  
  
  
  
  
  
  
  
  
  
  
  
  
  
  
  
  
  
  
  
  
  
  
  
  
  
  
  
  
  
  
  
  
  
  
  
  
  
  
  
  
  
  
  
  
  
  
  
  
  
  
  
  
  
  
  
  
  
  
  
  
  
  
  
  
  
  
  
  
  
  
  
  
  
  
  
  
  
  
  
  
  
  
  
  
  
  
  
  
  
  
  
  
  
  
  
  
  
  
  
  
  
  
  
  
  
  
  
  
  
  
  
  
  
  
  
  
  
  
  
  
  
  
  
  
  
  
  
  
  
  
  
  
  
  
  
  
  
  
  
  
  
  
  
  
  
  
  
  
  
  
  
  
  
  
  
  
  
  
  
  
  
  
  
  
  
  
  
  
  
  
  
  
  
  
  
  
  
  
  
  
  
  
  
  
  
  
  
  
  
  
  
  
  
  
  
  
  
  
  
  
  
  
  
  
  
  
  
  
  
  
  
  
  
  
  
  
  
  
  
  
  
  
  
  
  
  
  
  
  
  
  
  
  
  
  
  
  
  
  
  
  
  
  
  
  
  
  
  
  
  
  
  
  
  
  
  
  
  
  
  
  
  
  
  
  
  
  
  
  
  
  
  
  
  
  
  
  
  
  
  
  
  
  
  
  
  
  
  
  
  
  
  
  
  
  
  
  
  
  
  
  
  
  
  
  
  
  
  
  
  
  
  
  
  
  
  
  
  
  
  
  
  
  
  
  
  
  
  
  
  
  
  
  
  
  
  
  
  
  
  
  
  
  
  
  
  
  
  
  
  
  
  
  
  
  
  
  
  
  
  
  
  
  
  
  
  
  
  
  
  
  
  
  
  
  
  
  
  
  
  
  
  
  
  
  
  
  
  
  
  
  
  
  
  
  
  
  
  
  
  
  
  
  
  
  
  
  
  
  
  
  
  
  
  
  
  
  
  
  
  
  
  
  
  
  
  
  
  
  
  
  
  
  
  
  
  
  
  
  
  
  
  
  
  
  
  
  
  
  
  
  
  
  
  
  
  
  
  
  
  
  
  
  
  
  
  
  
  
  
  
  
  
  
  
  
  
  
  
  
  
  
  
  
  
  
  
  
  
  
  
  
  
  
  
  
  
  
  
  
  
  
  
  
  
  
  
  
  
  
  
  
  
  
  
  
  
  
  
  
  
  
  
  
  
  
  
  
  
  
  
  
  
  
  
  
  
  
  
  
  
  
  
  
  
  
  
  
  
  
  
  
  
  
  
  
  
  
  
  
  
  
  
  
  
  
  
  
  
  
  
  
  
  
  
  
  
  
  
  
  
  
  
  
  
  
  
  
  
  
  
  
  
  
  
  
  
  
  
  
  
  
  
  
  
  
  
  
  
  
  
  
  
  
  
  
  
  
  
  
  
  
  
  
  
  
  
  
  
  
  
  
  
  
  
  
  
  
  
  
  
  
  
  
  
  
  
  
  
  
  
  
  
  
  
  
  
  
  
  
  
  
  
  
  
  
  
  
  
  
  
  
  
  
  
  
  
  
  
  
  
  
  
  
  
  
  
  
  
  
  
  
  
  
  
  
  
  
  
  
  
  
  
  
  
  
  
  
  
  
  
  
  
  
  
  
  
  
  
  
  
  
  
  
  
  
  
  
  
  
  
  
  
  
  
  
  
  
  
  
  
  
  
  
  
  
  
  
  
  
  
  
  
  
  
  
  
  
  
  
  
  
  
  
  
  
  
  
  
  
  
  
  
  
  
  
  
  
  
  
  
  
  
  
  
  
  
  
  
  
  
  
  
  
  
  
  
  
  
  
  
  
  
  
  
  
  
  
  
  
  
  
  
  
  
  
  
  
  
  
  
  
  
  
  
  
  
  
  
  
  
  
  
  
  
  
  
  
  
  
  
  
  
  
  
  
  
  
  
  
  
  
  
  
  
  
  
  
  
  
  
  
  
  
  
  
  
  
  
  
  
  
  
  
  
  
  
  
  
  
  
  
  
  
  
  
  
  
  
  
  
  
  
  
  
  
  
  
  
  
  
  
  
  
  
  
  
  
  
  
  
  
  
  
  
  
  
  
  
  
  
  
  
  
  
  
  
  
  
  
  
  
  
  
  
  
  
  
  
  
  
  
  
  
  
  
  
  
  
  
  
  
  
  
  
  
  
  
  
  
  
  
  
  
  
  
  
  
  
  
  
  
  
  
  
  
  
  
  
  
  
  
  
  
  
  
  
  
  
  
  
  
  
  
  
  
  
  
  
  
  
  
  
  
  
  
  
  
  
  
  
  
  
  
  
  
  
  
  
  
  
  
  
  
  
  
  
  
  
  
  
  
  
  
  
  
  
  
  
  
  
  
  
  
  
  
  
  
  
  
  
  
  
  
  
  
  
  
  
  
  
  
  
  
  
  
  
  
  
  
  
  
  
  
  
  
  
  
  
  
  
  
  
  
  
  
  
  
  
  
  
  
  
  
  
  
  
  
  
  
  
  
  
  
  
  
  
  
  
  
  
  
  
  
  
  
  
  
  
  
  
  
  
  
  
  
  
  
  
  
  
  
  
  
  
  
  
  
  
  
  
  
  
  
  
  
  
  
  
  
  
  
  
  
  
  
  
  
  
  
  
  
  
  
  
  
  
  
  
  
  
  
  
  
  
  
  
  
  
  
  
  
  
  
  
  
  
  
  
  
  
  
  
  
  
  
  
  
  
  
  
  
  
  
  
  
  
  
  
  
  
  
  
  
  
  
  
  
  
  
  
  
  
  
  
  
  
  
  
  
  
  
  
  
  
  
  
  
  
  
  
  
  
  
  
  
  
  
  
  
  
  
  
  
  
  
  
  
  
  
  
  
  
  
  
  
  
  
  
  
  
  
  
  
  
  
  
  
  
  
  
  
  
  
  
  
  
  
  
  
  
  
  
  
  
  
  
  
  
  
  
  
  
  
  
  
  
  
  
  
  
  
  
  
  
  
  
  
  
  
  
  
  
  
  
  
  
  
  
  
  
  
  
  
  
  
  
  
  
  
  
  
  
  
  
  
  
  
  
  
  
  
  
  
  
  
  
  
  
  
  
  
  
  
  
  
  
  
  
  
  
  
  
  
  
  
  
  
  
  
  
  
  
  
  
  
  
  
  
  
  
  
  
  
  
  
  
  
  
  
  
  
  
  
  
  
  
  
  
  
  
  
  
  
  
  
  
  
  
  
  
  
  
  
  
  
  
  
  
  
  
  
  
  
  
  
  
  
  
  
  
  
  
  
  
  
  
  
  
  
  
  
  
  
  
  
  
  
  
  
  
  
  
  
  
  
  
  
  
  
  
  
  
  
  
  
  
  
  
  
  
  
  
  
  
  
  
  
  
  
  
  
  
  
  
  
  
  
  
  
  
  
  
  
  
  
  
  
  
  
  
  
  
  
  
  
  
  
  
  
  
  
  
  
  
  
  
  
  
  
  
  
  
  
  
  
  
  
  
  
  
  
  
  
  
  
  
  
  
  
  
  
  
  
  
  
  
  
  
  
  
  
  
  
  
  
  
  
  
  
  
  
  
  
  
  
  
  
  
  
  
  
  
  
  
  
  
  
  
  
  
  
  
  
  
  
  
  
  
  
  
  
  
  
  
  
  
  
  
  
  
  
  
  
  
  
  
  
  
  
  
  
  
  
  
  
  
  
  
  
  
  
  
  
  
  
  
  
  
  
  
  
  
  
  
  
  
  
  
  
  
  
  
  
  
  
  
  
  
  
  
  
  
  
  
  
  
  
  
  
  
  
  
  
  
  
  
  
  
  
  
  
  
  
  
  
  
  
  
  
  
  
  
  
  
  
  
  
  
  
  
  
  
  
  
  
  
  
  
  
  
  
  
  
  
  
  
  
  
  
  
  
  
  
  
  
  
  
  
  
  
  
  
  
  
  
  
  
  
  
  
  
  
  
  
  
  
  
  
  
  
  
  
  
  
  
  
  
  
  
  
  
  
  
  
  
  
  
  
  
  
  
  
  
  
  
  
  
  
  
  
  
  
  
  
  
  
  
  
  
  
  
  
  
  
  
  
  
  
  
  
  
  
  
  
  
  
  
  
  
  
  
  
  
  
  
  
  
  
  
  
  
  
  
  
  
  
  
  
  
  
  
  
  
  
  
  
  
  
  
  
  
  
  
  
  
  
  
  
  
  
  
  
  
  
  
  
  
  
  
  
  
  
  
  
  
  
  
  
  
  
  
  
  
  
  
  
  
  
  
  
  
  
  
  
  
  
  
  
  
  
  
  
  
  
  
  
  
  
  
  
  
  
  
  
  
  
  
  
  
  
  
  
  
  
  
  
  
  
  
  
  
  
  
  
  
  
  
  
  
  
  
  
  
  
  
  
  
  
  
  
  
  
  
  
  
  
  
  
  
  
  
  
  
  
  
  
  
  
  
  
  
  
  
  
  
  
  
  
  
  
  
  
  
  
  
  
  
  
  
  
  
  
  
  
  
  
  
  
  
  
  
  
  
  
  
  
  
  
  
  
  
  
  
  
  
  
  
  
  
  
  
  
  
  
  
  
  
  
  
  
  
  
  
  
  
  
  
  
  
  
  
  
  
  
  
  
  
  
  
  
  
  
  
  
  
  
  
  
  
  
  
  
  
  
  
  
  
  
  
  
  
  
  
  
  
  
  
  
  
  
  
  
  
  
  
  
  
  
  
  
  
  
  
  
  
  
  
  
  
  
  
  
  
  
  
  
  
  
  
  
  
  
  
  
  
  
  
  
  
  
  
  
  
  
  
  
  
  
  
  
  
  
  
  
  
  
  
  
  
  
  
  
  
  
  
  
  
  
  
  
  
  
  
  
  
  
  
  
  
  
  
  
  
  
  
  
  
  
  
  
  
  
  
  
  
  
  
  
  
  
  
  
  
  
  
  
  
  
  
  
  
  
  
  
  
  
  
  
  
  
  
  
  
  
  
  
  
  
  
  
  
  
  
  
  
  
  
  
  
  
  
  
  
  
  
  
  
  
  
  
  
  
  
  
  
  
  
  
  
  
  
  
  
  
  
  
  
  
  
  
  
  
  
  
  
  
  
  
  
  
  
  
  
  
  
  
  
  
  
  
  
  
  
  
  
  
  
  
  
  
  
  
  
  
  
  
  
  
  
  
  
  
  
  
  
  
  
  
  
  
  
  
  
  
  
  
  
  
  
  
  
  
  
  
  
  
  
  
  
  
  
  
  
  
  
  
  
  
  
  
  
  
  
  
  
  
  
  
  
  
  
  
  
  
  
  
  
  
  
  
  
  
  
  
  
  
  
  
  
  
  
  
  
  
  
  
  
  
  
  
  
  
  
  
  
  
  
  
  
  
  
  
  
  
  
  
  
  
  
  
  
  
  
  
  
  
  
  
  
  
  
  
  
  
  
  
  
  
  
  
  
  
  
  
  
  
  
  
  
  
  
  
  
  
  
  
  
  
  
  
  
  
  
  
  
  
  
  
  
  
  
  
  
  
  
  
  
  
  
  
  
  
  
  
  
  
  
  
  
  
  
  
  
  
  
  
  
  
  
  
  
  
  
  
  
  
  
  
  
  
  
  
  
  
  
  
  
  
  
  
  
  
  
  
  
  
  
  
  
  
  
  
  
  
  
  
  
  
  
  
  
  
  
  
  
  
  
  
  
  
  
  
  
  
  
  
  
  
  
  
  
  
  
  
  
  
  
  
  
  
  
  
  
  
  
  
  
  
  
  
  
  
  
  
  
  
  
  
  
  
  
  
  
  
  
  
  
  
  
  
  
  
  
  
  
  
  
  
  
  
  
  
  
  
  
  
  
  
  
  
  
  
  
  
  
  
  
  
  
  
  
  
  
  
  
  
  
  
  
  
  
  
  
  
  
  
  
  
  
  
  
  
  
  
  
  
  
  
  
  
  
  
  
  
  
  
  
  
  
  
  
  
  
  
  
  
  
  
  
  
  
  
  
  
  
  
  
  
  
  
  
  
  
  
  
  
  
  
  
  
  
  
  
  
  
  
  
  
  
  
  
  
  
  
  
  
  
  
  
  
  
  
  
  
  
  
  
  
  
  
  
  
  
  
  
  
  
  
  
  
  
  
  
  
  
  
  
  
  
  
  
  
  
  
  
  
  
  
  
  
  
  
  
  
  
  
  
  
  
  
  
  
  
  
  
  
  
  
  
  
  
  
  
  
  
  
  
  
  
  
  
  
  
  
  
  
  
  
  
  
  
  
  
  
  
  
  
  
  
  
  
  
  
  
  
  
  
  
  
  
  
  
  
  
  
  
  
  
  
  
  
  
  
  
  
  
  
  
  
  
  
  
  
  
  
  
  
  
  
  
  
  
  
  
  
  
  
  
  
  
  
  
  
  
  
  
  
  
  
  
  
  
  
  
  
  
  
  
  
  
  
  
  
  
  
  
  
  
  
  
  
  
  
  
  
  
  
  
  
  
  
  
  
  
  
  
  
  
  
  
  
  
  
  
  
  
  
  
  
  
  
  
  
  
  
  
  
  
  
  
  
  
  
  
  
  
  
  
  
  
  
  
  
  
  
  
  
  
  
  
  
  
  
  
  
  
  
  
  
  
  
  
  
  
  
  
  
  
  
  
  
  
  
  
  
  
  
  
  
  
  
  
  
  
  
  
  
  
  
  
  
  
  
  
  
  
  
  
  
  
  
  
  
  
  
  
  
  
  
  
  
  
  
  
  
  
  
  
  
  
  
  
  
  
  
  
  
  
  
  
  
  
  
  
  
  
  
  
  
  
  
  
  
  
  
  
  
  
  
  
  
  
  
  
  
  
  
  
  
  
  
  
  
  
  
  
  
  
  
  
  
  
  
  
  
  
  
  
  
  
  
  
  
  
  
  
  
  
  
  
  
  
  
  
  
  
  
  
  
  
  
  
  
  
  
  
  
  
  
  
  
  
  
  
  
  
  
  
  
  
  
  
  
  
  
  
  
  
  
  
  
  
  
  
  
  
  
  
  
  
  
  
  
  
  
  
  
  
  
  
  
  
  
  
  
  
  
  
  
  
  
  
  
  
  
  
  
  
  
  
  
  
  
  
  
  
  
  
  
  
  
  
  
  
  
  
  
  
  
  
  
  
  
  
  
  
  
  
  
  
  
  
  
  
  
  
  
  
  
  
  
  
  
  
  
  
  
  
  
  
  
  
  
  
  
  
  
  
  
  
  
  
  
  
  
  
  
  
  
  
  
  
  
  
  
  
  
  
  
  
  
  
  
  
  
  
  
  
  
  
  
  
  
  
  
  
  
  
  
  
  
  
  
  
  
  
  
  
  
  
  
  
  
  
  
  
  
  
  
  
  
  
  
  
  
  
  
  
  
  
  
  
  
  
  
  
  
  
  
  
  
  
  
  
  
  
  
  
  
  
  
  
  
  
  
  
  
  
  
  
  
  
  
  
  
  
  
  
  
  
  
  
  
  
  
  
  
  
  
  
  
  
  
  
  
  
  
  
  
  
  
  
  
  
  
  
  
  
  
  
  
  
  
  
  
  
  
  
  
  
  
  
  
  
  
  
  
  
  
  
  
  
  
  
  
  
  
  
  
  
  
  
  
  
  
  
  
  
  
  
  
  
  
  
  
  
  
  
  
  
  
  
  
  
  
  
  
  
  
  
  
  
  
  
  
  
  
  
  
  
  
  
  
  
  
  
  
  
  
  
  
  
  
  
  
  
  
  
  
  
  
  
  
  
  
  
  
  
  
  
  
  
  
  
  
  
  
  
  
  
  
  
  
  
  
  
  
  
  
  
  
  
  
  
  
  
  
  
  
  
  
  
  
  
  
  
  
  
  
  
  
  
  
  
  
  
  
  
  
  
  
  
  
  
  
  
  
  
  
  
  
  
  
  
  
  
  
  
  
  
  
  
  
  
  
  
  
  
  
  
  
  
  
  
  
  
  
  
  
  
  
  
  
  
  
  
  
  
  
  
  
  
  
  
  
  
  
  
  
  
  
  
  
  
  
  
  
  
  
  
  
  
  
  
  
  
  
  
  
  
  
  
  
  
  
  
  
  
  
  
  
  
  
  
  
  
  
  
  
  
  
  
  
  
  
  
  
  
  
  
  
  
  
  
  
  
  
  
  
  
  
  
  
  
  
  
  
  
  
  
  
  
  
  
  
  
  
  
  
  
  
  
  
  
  
  
  
  
  
  
  
  
  
  
  
  
  
  
  
  
  
  
  
  
  
  
  
  
  
  
  
  
  
  
  
  
  
  
  
  
  
  
  
  
  
  
  
  
  
  
  
  
  
  
  
  
  
  
  
  
  
  
  
  
  
  
  
  
  
  
  
  
  
  
  
  
  
  
  
  
  
  
  
  
  
  
  
  
  
  
  
  
  
  
  
  
  
  
  
  
  
  
  
  
  
  
  
  
  
  
  
  
  
  
  
  
  
  
  
  
  
  
  
  
  
  
  
  
  
  
  
  
  
  
  
  
  
  
  
  
  
  
  
  
  
  
  
  
  
  
  
  
  
  
  
  
  
  
  
  
  
  
  
  
  
  
  
  
  
  
  
  
  
  
  
  
  
  
  
  
  
  
  
  
  
  
  
  
  
  
  
  
  
  
  
  
  
  
  
  
  
  
  
  
  
  
  
  
  
  
  
  
  
  
  
  
  
  
  
  
  
  
  
  
  
  
  
  
  
  
  
  
  
  
  
  
  
  
  
  
  
  
  
  
  
  
  
  
  
  
  
  
  
  
  
  
  
  
  
  
  
  
  
  
  
  
  
  
  
  
  
  
  
  
  
  
  
  
  
  
  
  
  
  
  
  
  
  
  
  
  
  
  
  
  
  
  
  
  
  
  
  
  
  
  
  
  
  
  
  
  
  
  
  
  
  
  
  
  
  
  
  
  
  
  
  
  
  
  
  
  
  
  
  
  
  
  
  
  
  
  
  
  
  
  
  
  
  
  
  
  
  
  
  
  
  
  
  
  
  
  
  
  
  
  
  
  
  
  
  
  
  
  
  
  
  
  
  
  
  
  
  
  
  
  
  
  
  
  
  
  
  
  
  
  
  
  
  
  
  
  
  
  
  
  
  
  
  
  
  
  
  
  
  
  
  
  
  
  
  
  
  
  
  
  
  
  
  
  
  
  
  
  
  
  
  
  
  
  
  
  
  
  
  
  
  
  
  
  
  
  
  
  
  
  
  
  
  
  
  
  
  
  
  
  
  
  
  
  
  
  
  
  
  
  
  
  
  
  
  
  
  
  
  
  
  
  
  
  
  
  
  
  
  
  
  
  
  
  
  
  
  
  
  
  
  
  
  
  
  
  
  
  
  
  
  
  
  
  
  
  
  
  
  
  
  
  
  
  
  
  
  
  
  
  
  
  
  
  
  
  
  
  
  
  
  
  
  
  
  
  
  
  
  
  
  
 <filter id="filter2072" x="-.0206" y="-.0331" width="1.04" height="1.07" style="color-interpolation-filters:sRGB"><feGaussianBlur stdDeviation="9.1648961"/></filter><filter id="filter2076" x="-.0699" y="-.0722" width="1.14" height="1.14" style="color-interpolation-filters:sRGB"><feGaussianBlur stdDeviation="9.1648961"/></filter></defs>
 <path class="fil0" d="m14536 23050s49-26 140-75c43-23 108-54 181-82 74-28 162-55 263-74s216-30 341-28c63 2 128 6 195 17 34 4 68 12 102 18 32 7 64 13 96 20 261 54 555 116 874 187 320 70 667 145 1032 230 366 84 752 171 1149 267 398 96 810 191 1226 296 417 104 840 210 1264 315 422 110 845 219 1261 327 416 106 823 221 1219 326 395 105 776 213 1137 315 362 100 702 199 1017 291 629 182 1151 343 1516 457 183 56 325 104 423 135 98 32 150 48 150 48 38 12 59 53 46 91-11 35-47 55-82 49 0 0-54-10-154-29-101-19-249-45-436-83-375-74-911-182-1551-322-320-69-667-145-1032-229-366-83-752-170-1150-266s-810-189-1227-295c-417-103-841-209-1264-314-423-109-845-218-1261-326-416-106-824-220-1219-325-396-105-776-213-1138-313s-702-198-1017-290c-315-90-602-177-857-253-32-10-63-19-94-28-28-8-56-16-83-22-55-13-109-23-161-30-104-13-202-14-290-6-88 7-166 22-233 38-68 17-120 34-170 53-94 37-145 56-145 56-42 16-89-4-105-46-15-39 2-82 37-101z"/><path class="fil0" d="m5e3 28165s126-98 350-263c113-82 248-183 407-295 158-112 336-240 533-374 198-134 410-282 639-431s470-308 723-467 516-320 786-481c271-159 546-321 827-474 279-156 564-303 847-445 282-138 564-269 835-391 272-123 536-239 787-345 251-107 489-209 710-297 221-90 424-172 605-241 180-71 339-130 470-178 261-97 413-147 413-147 38-13 79 8 92 46 11 33-3 68-31 85 0 0-137 83-379 219-121 69-269 151-439 244-169 94-362 196-573 308-210 113-440 230-682 355-242 126-498 256-763 389-264 133-537 271-814 411-274 141-552 288-829 439-553 302-1103 613-1619 905-258 146-508 288-745 422-235 136-462 260-668 377-206 118-399 222-567 317-169 95-318 174-440 241-245 132-386 205-386 205-40 21-89 5-110-35-18-36-8-78 23-102z"/><path class="fil0" d="m10397 26676c-40.9-3.08-80.5-6.51-146 6.16-4.09 17.5-26.4 6.51-35.5 25 31.8-3.42-28.7 3.08-90.5 12.7-61.9 9.25-125 22.3-101 23.3l16.4-9.93-18.6 20.5c-28.7-1.37-68.2-10.6-89.6 2.74-2.27-2.74 61.4-12 125-18.8 63.2-7.19 126-12 122-14 8.64 9.25-80 21.2-171 36-45.5 7.19-91.9 15.4-127 22.3-35.9 7.19-60.9 13.4-61.4 15.8l-11.4-8.9c-45.5 19.5-47.8 35.6-62.3 45.9l-36.8-5.48c36.8-3.08 24.6-9.59 47.8-19.5-48.2 12-73.2 9.59-111 20.9 18.6 3.42 33.2 2.74 38.2 2.74 5 0 0.455 1.37-10.5 8.22-37.7 0.685-41.4-15.1-84.1-1.71-74.1 14.4 4.55 17.1-30 28.4l55.5-6.85c-14.1 4.11-26.8 11-83.7 15.8 12.3-2.74 20.5-6.85 19.6-11 0.455-4.11-5.46-8.56-30.5-10.3-11.4 6.51-83.7 19.5-104 26-9.55-1.03-18.6-2.4-27.3-4.11-65 7.19-19.6 11-90.5 20.9 0 0.684-0.455 1.03 0.455 1.37 3.18 0 6.37 0.343 9.1 0.343 5.91 0 10.9 0 15.5-0.343 9.1-0.342 16.8-1.03 23.6-2.05 6.37-0.685 13.2-1.71 23.2-2.4 4.09-0.343 7.73-0.685 10.5-0.685 3.18 0 5.91 0 9.55 0.342-15.5 1.37 1.82 11.6 50.9 12.3 46.4-4.79 27.3-6.16 4.55-8.22-11.4-1.03-23.2-2.4-27.3-3.77-1.36-0.685-3.18-1.37 3.18-2.4 10-1.37 22.7-2.74 38.2-4.11l-15 3.08 4.09 1.71 8.64 3.77c63.7-1.03 52.8-3.77 35-6.16-3.18-0.685-11.4-1.03-10.5-2.06 4.09-1.03 8.64-2.4 14.1-3.08 10.5-2.06 23.6-3.08 43.7-2.74 11.4 0.343 17.7 1.03 20 1.71-0.455 0.342 4.09 0.342 5.91 0.685 2.27 0.342 3.18 0.342 3.64 0.684 1.36 1.03-8.64 2.74-16.4 4.8-16.8 3.42-22.3 7.53 62.3 3.42 14.6-4.79-12.3-11.3 38.7-13-37.3 4.79 58.2 1.03 80 1.71-13.2 2.4-24.6 5.14-34.1 7.88 39.1-2.06 32.3-3.42 49.6-6.51-20 5.14 0 8.56 18.6 12 19.1 3.77 31.4 6.51 40.5 17.8 16.4 1.03 20-1.03 23.2-4.11s6.37-6.85 15-9.59c-5 15.1 23.2 7.53 50.9 12 10 2.74 12.7-11.6 12.3-18.1 1.36 2.74-45.5-1.03-44.6 1.71 4.09-7.53 8.19-20.2 7.73-19.2-9.55 13.7-11.4 8.22-8.19 4.11 2.73-4.45 13.2-6.85-20.9 4.8l30-11c-6.37 1.71-11.4 3.77-28.2 4.11l-5.46 1.37c7.28-1.37-2.73-0.685-15.5-0.685-12.3 0-27.7-0.685-17.7-3.42 22.3-1.37 9.55 4.79 65-5.14 15.9-1.71 10.5-0.343 7.28 1.37-0.91 0.342-1.36 1.03-1.82 1.37l-3.18 1.03c-1.36 0.342-0.91 0.684 1.36-0.343 6.37-2.74 13.2-5.14 20.5-7.53 7.28-5.48-6.82-5.48-13.6-2.74-1.82 0.685-3.64 1.37-4.55 2.06l24.6 6.16c3.18 0.685 10 2.05 10.5 2.4l-1.36 0.684c-0.91 0.343-1.36 0.343-1.82 0 1.82 4.8 2.73 9.25 1.82 13.7 0.91 3.08 4.55 8.22 8.64 11 4.09 2.74 9.1 3.77 5.91-2.4-5.46-0.684-7.73-8.56-13.6-15.4-3.18-3.77-4.09-3.42-2.73-2.05 2.73 1.37 14.1 4.11 11.4 1.37 0 0 7.73 4.11 14.1 7.19-2.73-3.08-7.28-6.16-13.6-9.59 34.1 12.7 54.1 20.2 87.3 32.9-3.64-2.4 6.82-0.343-31.4-14-5-1.37-9.55-3.08-7.28-2.06-27.3-11.3-22.7-9.59-12.7-6.16 9.1 3.08 23.6 7.88 6.37 1.03 26.4 9.93 46.8 17.5 70 25.3s49.1 16.1 79.1 26.7c-0.455-3.08-29.6-13-59.6-22.9-29.6-9.93-59.6-19.9-75-25.3 51.4 14 117 34.9 158 35.3-47.3-13-49.1-6.51-101-22.6 17.3 3.42 18.6 1.37 1.82-3.77-15.9-3.08-31.4-6.16-45.9-9.93 34.1 8.22 61.9 11.6 76.9 9.59 7.28-1.03 11.4-3.08 10.9-6.51-0.455-1.71-1.36-3.42-4.09-5.48-2.73-2.06-5.46-4.79-14.1-5.48l-26.8-3.77-5.46-1.37 104 14.7c-31.4-4.79 43.7 4.79-35.5-6.16l-4.09-0.342-37.3-5.48c33.7 4.79 66.9 9.24 101 14 11.8 1.37-35.5-5.48-80-11.6-29.1-3.77-58.2-7.53-87.3-11.6 77.8 10.3 122 16.4 220 29.4 15 1.71 17.7 1.37-25.9-4.11-35.9-4.79-30-3.77-24.1-2.74-49.6-6.85-50.9-6.85-60.5-7.88-9.1-1.03-25-2.4-76.9-9.25l-23.6-3.77c-11.4-1.37 10 1.71 22.3 3.77 12.7 2.05 18.2 3.42-11.4-0.685l113 14.7c-38.7-4.45-60.9-6.51-81-8.22-19.6-1.71-37.3-2.74-58.2-5.14-18.2-3.42-13.2-3.42-3.18-2.4 10 1.03 25.5 2.74 20.5 2.05l-38.7-5.48c2.27 1.71 5 2.74 8.64 4.11 2.73 1.03 5.91 2.05-4.09 4.45l-18.6-4.79c9.1 3.77-8.64 2.4-17.3 1.37l-3.18-0.342-0.455-1.71c-0.455-1.03 0-1.71 0.455-1.71 1.36-0.343 5.46 0.685 14.1 5.48-0.91 0.685-2.73 2.06-3.18 2.06 0.455-0.685 0.455-1.03 0.91-1.71l15 6.16c-6.82 1.03-6.37-3.08-7.73-6.51-1.36-3.08-1.36-6.51-1.82-9.59l-0.455-2.4 0.91-5.14 2.73-10.6c1.82-7.19 5.46-13.4 8.19-20.2 5.46 9.25 29.6-24 35.9-9.25 3.18-8.9 7.28-18.1 12.3-26.4 15 1.37 7.28 13 1.36 25.7-6.82 12.7-10.5 27.4-2.73 30.5 9.55 2.06 15.5-6.51 17.7-11.3-1.82 13.7-12.3 19.2-23.2 27.4-12.3 9.25-21.8 16.4-21.4 27.4 7.73 3.08 18.6 3.77 29.1 5.48l-21.4-7.53c7.73 0.685 18.2 1.71 29.1 3.42 5.46 1.03 10.9 1.71 15.9 2.4 3.18 0.685 3.18 0.342 9.1 1.71 5.91 1.37 11.4 2.74 15.9 3.77-4.09-2.06-10.5-4.11-10.5-4.79 0.455-0.343 1.36-1.03 2.27-1.37 1.82-0.685 5-1.03 8.64-1.37 7.73-0.343 18.6 0 32.3 1.03 18.6 0.343 90.5 8.56 86 4.79-5.46-0.342-12.7-1.03-19.6-1.71-5.46-0.685-8.64-1.03-12.3-1.71-5-1.03-5.46-1.37-5-2.06 1.36-1.03 6.82-1.71-3.18-2.74 9.1 0.685 50.9 5.14 88.2 8.9 15.9 1.71 30.5 3.08 42.8 4.45 10.9 1.03 8.64 0.685-7.28-1.37-22.3-3.08-73.7-9.25-62.3-8.22 40.9 5.14 60.9 7.88 101 12.7 70 8.9 107 15.4 157 26.4l-77.3-11.6c-7.28-0.685-5.91 0.342 2.27 1.71l16.8 3.08c5 2.05 8.19 5.82 13.6 8.56 10.5 6.16 24.1 13 39.1 19.9 7.73 3.42 15.5 6.85 22.7 9.93 0 1.71 0.455 3.42 0.455 5.14-4.09 0.686-5.91 1.37-6.82 1.71l-1.36-0.343c-3.64-1.03-9.1-2.74-18.2-5.48-70.9-1.37-44.1 9.93-22.3 25.3-5.91 7.53-11.8 17.1-47.3 17.8 29.1 8.56 57.3 5.48 66.4-4.11l19.6 8.9c25-8.56 49.6-24.3 63.2-45.9 3.18-5.14 5.91-11 8.19-16.8l1.36-4.45v-0.343l-45-6.51h-0.454l-4.09-1.03-10.5-2.4c-13.2-2.74-26.4-5.48-38.2-7.88l21.8 4.45c-40.5-8.22-29.6-6.16-67.8-12.7-28.7-4.8 20.9 3.42-0.909 0-8.64-1.37-15.9-2.4-29.1-4.45 32.3 4.8 65 10.6 98.7 17.8l28.2 6.16 1.36 0.343h0.455l80.5 11.6-0.455 0.685-2.27 5.14-5.46 10.3c-7.28 13.7-17.3 25.3-28.7 34.9-23.2 19.9-49.6 30.8-71.9 37-22.7 6.16-42.3 8.56-65.5 11.6 5.46 3.08 13.2 3.42 20.5 4.11 4.09 6.16-13.2 11.3-61.9 11.3-24.6-0.342-57.3-2.05-101-8.22-21.4-3.08-45-7.19-69.1-11.6-25.5-4.79-50.9-9.25-76-14-47.3-8.56-94.1-17.1-138-25-20.9-3.42-40.5-6.85-59.6-9.93-14.6-2.4-28.2-4.45-41.4-6.51-4.55-0.685-9.55-1.03-13.6-1.71-5.91-0.685-11.4-1.37-16.8-1.71-14.1-1.37-26.4-2.4-37.7-2.74-22.7-1.03-40 0-49.6 3.77-3.64-6.85 43.2-6.51-7.28-13.7-8.64 1.71-28.7 2.74-25.5 9.59-25.5-9.93-54.1-17.1-86.9-23.6-16.4-3.08-33.7-6.16-51.8-8.9-17.7-2.74-39.1-5.48-53.2-8.22-61.4-10.6-132-21.9-155-34.6-25.9 2.74-67.3-1.03-89.1 0 7.73-3.08 5.46-5.82-2.73-8.22-4.09-1.37-9.55-2.4-15.9-3.77l-10-1.71c-3.18-0.342-0.91-0.685 0.91-1.37l5-1.71c26.8-8.56 51.4-17.5 87.8-23.3l-40.9 3.42 135-37.3c-3.64-2.05-22.3 3.08-35.9 5.82 20-9.25 49.6-8.22 70-6.85 3.64-6.51 9.1-14 16.8-21.9 117-16.8 198-39.4 301-65.4 25.5-6.16 51.4-13 77.8-18.5 17.7-4.11 34.6-7.88 52.3-11 34.6-6.16 69.1-9.93 103-9.24 22.7-16.8 41.8-24.7 76.9-29.8l-16.4-2.74c38.2-15.4 0.455 7.19 31.8-1.71 22.7-11 11.4-22.3-18.6-11.6-16.4-3.42-4.55-9.25 9.1-14 112-9.25 215-4.45 292 19.5z" style="clip-rule:evenodd;fill-rule:nonzero;fill:#fff;image-rendering:optimizeQuality;shape-rendering:geometricPrecision;stroke-width:.395"/>
<ellipse cx="2756" cy="1249" rx="1126" ry="276" style="fill:#fff;paint-order:markers fill stroke"/><path d="m1636 1347c14.7 188 24.7 382 49.7 558 0 0 436-205 1046-203 896 2.93 1023 222 1023 222l48.1-540s-402 174-1071 173c-495-0.523-1095-210-1095-210z" style="fill:#cbd3d8"/><path class="fil23" d="m1708 1953s211-195 1055-223c844-28 1055 279 1055 279l-17.6 567s-299 260-605 288c-306 28-686 92.8-1118-46.4-433-139-380-334-380-334z" style="stroke-width:.311"/><path class="fil25" d="m3759 1971c0 119-485 215-1033 215-548 0-993-96.3-993-215 0-119 444-215 993-215 548 0 1033 96.3 1033 215z" style="stroke-width:.311"/><path class="fil60" d="m4344 4885c0 230-658 418-1470 418-812 0-1470-187-1470-418 0-231 658-418 1470-418 812 0 1470 187 1470 418z" style="clip-rule:evenodd;fill-rule:nonzero;fill:#d6d8da;image-rendering:optimizeQuality;shape-rendering:geometricPrecision;stroke-width:.237"/><path class="fil1" d="m4309 4354c0 274-737 496-1645 496-909 0-1645-222-1645-496 0-274 737-496 1645-496 909 0 1645 222 1645 496z" style="clip-rule:evenodd;fill-rule:nonzero;fill:#b8b9bc;image-rendering:optimizeQuality;shape-rendering:geometricPrecision;stroke-width:.237"/><path class="fil48" d="m4390 4341c-3.3-27.9-13.2-54.9-28-79.5-29.1-49.6-74.7-89.3-123-123-49.2-33.4-103-61.7-158-86.3-111-49-228-85.4-347-115s-241-52.7-364-70.7l-11.3 44.5c0.55 2.05 0.55 4.3 0.824 6.56 4.12 15.4 7.69 30.9 10.7 46.5 109 15.6 216 34.8 321 59.6 112 26.6 222 59.4 323 102 50.3 21.1 97.6 45.1 140 72.3 42 27 77.8 58 101 91.4 22.8 33.6 30.2 69 20.6 105-8.24 35.9-34.6 70.5-69 102-70.1 62.5-170 110-274 149-105 38.5-217 68.2-331 92.6-229 47.7-468 74-707 84.2-239 10-481 5.53-719-17-119-11.5-237-26.6-353-48.1-116-21.1-230-48.4-340-83.4-108-35.9-214-79.1-297-139-41.2-29.9-76.1-64.3-97.3-102-20.3-38.3-23.9-80.3-9.89-120 13.7-40 45.6-76.4 83.8-108 38.5-32.2 84.9-59.6 134-84.2 48.9-24.6 101-46.3 155-65.2 53.6-19.5 110-35.9 166-51.2l48.1-51.2c-118 28.1-235 61.3-344 108-54.7 22.9-107 49.6-155 81.5-47.8 31.8-91.5 68.8-121 114-30.2 44.5-44 97.7-30.5 148 11.5 50.8 45.6 96.1 87.4 133 84.6 75.2 195 126 307 168 227 81.7 470 126 715 155 245 27.5 494 36.9 742 30.3 248-7.17 496-29.5 738-75.8 60.5-11.7 121-24.8 180-40 59.4-15 118-32.2 176-52 115-39.7 228-88.3 320-162 45.1-37.3 84.1-82.6 103-135 7.97-26.8 13.2-54.1 9.62-82.2z" style="clip-rule:evenodd;fill-rule:nonzero;fill:#1b1c20;image-rendering:optimizeQuality;shape-rendering:geometricPrecision;stroke-width:.237"/><path class="fil0" d="m4213 4363c-0.275 23.8-6.32 44.1-19 66.2-0.55 1.02-5.22 8.4-2.2 3.89-1.92 2.87-3.85 5.74-6.05 8.61-4.12 5.74-8.79 11.3-13.5 16.8-1.65 1.84-0.55 0.615 0.55-0.41 0.824-1.02 1.92-2.05 0.275-0.41-1.1 1.23-2.2 2.46-3.57 3.69-2.75 2.87-5.5 5.53-8.24 8.2-2.47 2.46-5.22 4.92-7.7 7.38 7.97-7.58-2.75 2.25-4.95 4.1-3.02 2.46-5.77 4.71-8.79 7.17-3.57 2.66-10.4 7.79-2.47 2.05-7.42 5.33-15.1 10.7-22.8 15.8-5.77 3.89-4.4 3.07-3.02 2.05 1.1-0.82 2.47-1.64-1.92 1.02-4.12 2.66-8.52 5.12-12.9 7.58-8.79 5.12-17.9 10.2-27.2 15.2 7.97-4.3-4.12 2.05-6.32 3.07-4.4 2.25-8.79 4.3-13.2 6.56-10.2 4.92-20.6 9.63-31.1 14.3-9.89 4.51-19.2 8.4-25.8 11.1-11.5 4.71-23.1 9.22-34.9 13.5-227 85.4-485 126-735 150-315 30.5-636 31.6-952 5.12-259-21.7-524-60.6-762-143-84.1-29.1-167-64.3-235-111-49.7-34.4-94.8-77.7-109-128-5.77-21.7-6.05-47.1 0-67 3.57-11.7 8.79-22.9 15.1-34 0.824-1.23 1.65-2.66 2.2-3.89 1.1-1.64 0.55-0.82 0 0-0.55 0.82-1.1 1.64 0 0 1.92-2.87 3.85-5.74 6.05-8.61 4.12-5.74 8.79-11.3 13.7-16.8-4.95 5.53 1.1-1.23 3.02-2.87 2.47-2.46 4.95-4.92 7.42-7.38 1.37-1.43 10.4-9.63 6.05-5.74-3.85 3.48 4.95-4.3 6.6-5.74 3.3-2.66 6.6-5.33 10.2-7.99 1.65-1.23 3.02-2.46 4.67-3.48 2.2-1.84 0.55-0.614-1.37 0.614-1.65 1.23-3.3 2.46-0.824 0.82 8.24-5.33 16.2-11.1 24.2-16.6 1.92-1.23 7.42-4.51-1.92 1.02 1.92-1.23 3.57-2.25 5.5-3.48 3.85-2.25 7.69-4.51 11.3-6.76 8.79-5.12 17.9-10.2 27.2-15.2-7.97 4.3 3.85-2.05 6.32-3.07 4.95-2.46 9.89-4.92 14.8-7.38 10.2-4.92 20.6-9.63 31.1-14.3 86.3-38.1 193-70.1 293-94 129-30.7 261-52.7 394-68.6 311-37.5 629-44.1 943-25 272 16.6 548 51.8 803 127 92.3 27.5 183 61.1 263 106 58.5 33.2 113 74.4 142 126 11.5 20.7 17.3 43.2 17.6 65.6 0 12.9 34.1-4.71 37.9-6.97 12.9-7.38 37.4-22.3 37.4-36.3-1.1-124-164-208-295-259-232-90.8-497-134-755-160-324-32-655-33.2-980-5.33-266 22.7-538 64.1-782 151-92.3 33-182 73.6-256 127-58.5 42-113 93.2-129 154-32.2 120 103 212 227 269 95.4 43.6 200 75.8 306 102 131 32.4 266 55.3 402 72.1 321 39.7 651 46.7 975 26.2 279-17.6 561-54.9 821-135 98.1-30.1 194-67.4 278-117 69.5-41 135-91.4 169-153 12.4-22.5 19-46.9 19.2-71.3 0-12.9-34.1 4.71-37.9 6.97-13.2 7.58-37.1 22.1-37.4 36.3z" style="clip-rule:evenodd;fill-rule:nonzero;fill:#fff;image-rendering:optimizeQuality;shape-rendering:geometricPrecision;stroke-width:.237"/><path class="fil62" d="m1428 4425c-2.47 0-4.95 0-7.15-0.205l-2.47-0.205c-44.8-3.69-73.7-37.1-59.6-69 3.57-8.4 7.97-16.4 12.6-24.2 16.5-26.4 37.9-49.8 61.8-70.1 47.5-40.8 102-71.9 158-99.2 10.2-4.92 20.6-9.63 31.1-14.3 1.37 59.2 6.87 121 9.89 150 0.275 3.89 0.824 7.79 1.37 11.9 0 7.99 0 16-0.275 23.8-61.6 18.8-117 42-151 72.1-13.5 12.1-33.3 19.3-54.1 19.3zm2547-40.8c-15.1 0-30.2-3.69-43.1-10.7-64.6-35.4-153-58.2-240-76.4-49.2-10-99.8-18.4-151-25.6-4.67-42-10.2-76.4-14.3-85.2-11-24.8 0-82.6-11-124-1.1-4.51-3.57-8.4-6.87-11.9 93.2 22.7 185 51 273 87.9 56.9 24.2 112 51.2 164 85.8 33 22.3 65.4 48.1 90.7 78.7 21.7 26.2 9.34 60.6-27.2 75l-1.37 0.615c-10.2 3.89-21.4 5.94-32.4 5.94zm-553-353c-14-0.41-29.1-0.41-44-0.615l-0.824-8.4c14.8 2.87 30 5.74 44.8 8.81z" style="clip-rule:evenodd;fill-rule:nonzero;fill:#94969a;image-rendering:optimizeQuality;shape-rendering:geometricPrecision;stroke-width:.237"/><path class="fil29" d="m1689 2385s237 413 1136 352c718-48.1 1009-336 1009-336s18.2 79.9-34.4 175l-56.3 1449s164 201 118 305c-45.4 104-318 392-1045 440-727 48.1-1191-280-1254-568l90.7-192 36.4-1626z" style="stroke-width:.311"/><path class="fil48" d="m1694 2565c-15.2-31.8-21.2-56.3-22.5-72.1-1.66-15.8 0-22.5 3.97-21.3 9.27 2.04 21.9 38.2 55.3 95.4 34.1 61.3 100 122 189 168 89.1 47.3 201 77.9 321 99.2 120 21 248 29.8 377 34.1 129 4.38 258 1.75 380-11.7 122-12.5 237-35.9 339-65.9 101-30.1 188-68.3 254-107 212-120 281-221 262-339-2.32-110 61.9 9.63 37.8 131 4.97 27.4-2.32 65.9-24.8 100-0.993 1.46-16.2 27.1-51.7 63.9-35.1 36.8-92.1 82.3-170 124-77.2 42-175 79.9-285 109-111 28.6-234 49-363 58.1-129 9.92-263 7.29-395-1.17-132-9.05-264-23.6-388-49.9-124-26.3-239-65.7-331-121-47-26.3-85.1-59.8-118-92.2-30.1-34.4-55.3-68.6-70.5-103z" style="stroke-width:.311"/><path class="fil48" d="m3805 1344-68.6 744-12.6 201-2.98 47.6c-0.33 12.8-3.31 22.8-7.29 34.4-8.28 22.5-24.8 45.2-45.4 66.5-41.7 42.9-101 78.2-163 108-62.9 29.8-130 54-200 73.8-280 78.2-584 95.7-878 63.9-147-16.9-292-46.7-425-98.9-65.9-26.3-129-58.6-180-99.5-50.7-40.6-86.1-91.6-86.8-144v-3.21l-110-1100-55.6 53.4 81.8 1052v-2.63c-0.331 40 12.6 79.1 32.8 113 20.5 34.1 47.7 63 77.5 88.1 60.3 50.2 129 87 201 117 144 59.2 296 93.1 450 114 308 38.2 625 26.3 928-52.2 236-58.1 407-217 387-217 19.9 0 1.66 292 1.66 292 29.1-28.9 51.7-134 67.9-174 7.95-20.1 54-73.8 54-73.8l91.7-1289-139 87z" style="stroke-width:.311"/><path class="fil48" d="m3891 1157c-98.4-93.4-240-160-469-190-221-27.7-132 43.9-4.42 63.9 229 39.4 464 112 416 214-45.7 96.9-253 139-353 162-220 51.6-450 72.1-677 77.9-145 3.79-1286-19-1143-275 84.1-99.2 250-137 380-165 225-48.4 458-65.1 689-66.5 111 6.81 490 16.4 688 51.8 261 46.6 252-26.8 4.42-63.9-124-18.1-470-52.7-561-56.7-274-10.5-553 0.584-822 47.9-159 28-375 66.2-478 188-1.33 1.46-1.99 3.21-2.32 4.96-104 200 323 309 468 340 467 98.9 989 95.7 1457 4.96 148-28.6 622-136 407-339z" style="stroke-width:.311"/><path class="fil41" d="m2506 4717c-14.6 0-28.8-0.292-43.4-0.875-112-5.84-222-30.9-324-68-102-36.8-198-85.8-286-143-87.8-58.1-169-123-237-204-11.3-13.4-8.61-33 5.96-43.2 5.96-4.38 13.2-6.42 20.5-6.42 4.31 0 8.94 0.875 12.9 2.33l1.66 0.584c95.7 37.6 188 78.5 280 117 91.4 38.5 182 76.2 273 109 91.1 33 182 61.9 276 82.9 46.7 10.2 93.7 19.3 142 25.4 48 6.42 96.7 8.75 148 11.1h1.66c18.5 0.876 32.8 15.5 31.8 32.7-0.662 11.1-7.62 20.7-17.6 25.7-49.7 24.8-104 39.4-160 49.6-41.4 7-83.5 9.63-125 9.63zm-713-361c-1.99 0-4.31 0.584-5.96 1.75-4.97 2.92-5.96 8.75-2.65 13.1 25.2 31.8 55.6 58.4 89.1 82.3 33.1 24.2 69.9 44.4 109 62.1 38.7 17.2 80.1 30.3 123 38.5 26.8 5.25 54 8.17 81.5 8.17 16.2 0 32.8-0.875 48.7-2.92 3.97-0.584 7.62-2.92 8.94-6.71 1.66-4.96-1.66-10.2-7.29-11.7l-0.662-0.292c-40.1-10.5-78.5-19.5-116-32.4-37.1-13.1-74.2-26-109-42.9-71.5-31.5-140-69.4-211-108l-0.662-0.291c-1.66-0.876-3.64-1.46-5.63-1.46z" style="stroke-width:.311"/><path d="m1767 2428s356-188 895-176c414 9.3 1e3 188 1e3 188s-210 265-993 260c-758-4.98-907-272-907-272z" style="fill:#953300"/><path class="fil48" d="m3738 2606-61.9 1504 9.6-27.4c-44.4 61.3-113 116-189 159-76.5 43.8-161 78.8-248 107-87.8 27.4-179 47.6-272 60.7-92.7 12.8-187 18.4-281 18.1-94.1 0.291-188-8.46-281-22.5-92.7-14.3-184-34.7-272-63.6-87.8-28.6-173-64.5-250-109-76.8-44.1-146-100-187-165l5.3 19.5-4.97-1699-60.3 60.4-24.5 1638v0.583c0 6.13 1.66 11.7 4.64 16.6 52.3 84.6 131 147 214 197 83.8 50.5 175 89.9 268 122 93.4 32.1 190 55.1 288 71.8 98 16 198 26.8 298 28 200 4.08 401-19.3 592-76.4 95.7-28.6 189-65.4 276-114 87.1-48.1 169-108 231-191 5.63-7.59 8.61-15.8 9.27-24.2v-2.33l87.8-1606-152 96.6z" style="stroke-width:.311"/><path class="fil48" d="m1562 2674c36.4 24.5 66.2 37.6 85.1 47 18.9 9.05 27.2 14.6 23.2 18.1-3.64 3.21-19.9 4.96-47-0.875-26.8-5.54-64.9-19-105-47-56-38.8-107-95.4-143-163-37.4-68.3-60.6-147-73.5-230-13.2-82.6-16.9-169-13.6-258l0.332-8.17v-2.04l27.8 1.17h0.994c1.32 0 1.66-0.292 1.66-0.292s-0.663 0.292-1.66 0.876l-0.994 0.584-0.33 0.292c14.9-12.5 9.27-7.88 4.31-2.92-2.65 2.63-5.63 5.25-4.64 5.25-4.31 5.25-8.28 10.8-11.6 16.6-2.65 5.54 1.32 2.92 1.66 4.67 2.32 1.46 4.97 2.63 7.95 3.21 2.65 0.875 5.3 1.17 7.95 1.46h1.32-43.1c-24.5 0.291-49.3 0.291-73.9 0.584-49.7 0.584-99.4 1.17-149 1.75l-56 0.876h-16.9c0-56.3 0.331-47.6 0.994-38.5 0.331 4.96 0.993 9.92 1.66 3.79 3.64 6.71 13.9 11.4 25.5 9.92 10.6-0.875 25.8-8.17 22.5-12.8v2.04l-0.331 2.92-0.331 7.59-0.662 15.8-0.994 32.4c-0.663 43.5-1.32 86.4-2.32 129-0.994 85.2-1.99 168-2.65 247-0.994 158-2.32 299-2.98 408l-67.2-1.46c5.63 0.291 4.64-4.08 12.3-10.8 2.65-3.21 5.3-6.42 7.29-9.92 2.32-3.5 2.98-6.42 7.29-12.3l9.94-15.8 0.331-0.584 0.662 0.292 7.95 2.63c6.96 2.04 13.6 4.08 20.2 6.13 14.2 4.08 28.8 7.88 42.7 11.7l9.6 2.33 9.27 2.04c7.95 1.75 15.6 3.21 23.2 4.96 15.2 3.79 30.1 7.29 45 11.1 58.6 15.8 112 34.1 159 55.1 94.4 41.4 164 89.9 215 132 51 42.3 82.1 79.4 103 104 20.5 24.8 29.1 38.8 30.5 40 14.2 19.3 23.5 39.7 30.1 58.6 6.96 19 10.6 36.8 9.94 52.5 0 31.5-10.6 53.1-30.5 59.2-41.1 11.7-96-38.5-141-103-0.663-0.876-5.3-7.88-16.9-24.5-6.62-7.88-14.9-18.1-25.5-31.2-10.6-12.8-25.5-27.1-42.4-44.6-35.8-33.3-86.8-76.4-167-117-40.1-20.4-87.1-40.3-143-57.2-27.8-8.46-57.6-16.3-89.8-23.3-9.27-2.04-11.3-2.92-16.6-4.08l-13.6-3.79c-8.94-2.63-17.9-5.25-27.2-7.88-9.6-2.92-18.9-6.13-28.8-9.05-5.3-1.75-9.94-3.5-16.6-5.84-2.65-0.875-6.62-2.63-11.3-4.67l-3.64-1.75-6.96-4.08-3.31-2.04-1.66-1.17c-0.663-0.584-0.332 0-4.31-3.21-12.3-9.92-21.2-27.4-21.9-41.4v-4.38c10.6-117 27.5-455 53.3-831l1.99-19.5 0.662-3.21c0.993-5.54 4.64-14.3 12.6-21 7.95-6.71 17.9-9.63 24.5-10.2l2.98-0.292h0.331 5.63l9.94 0.292 40.4 0.875c26.8 0.584 54 1.17 80.8 2.04 54 1.46 109 2.92 163 4.38l41.4 1.75h1.32c1.99 0 5.3 0.584 7.95 1.17 5.63 1.17 10.9 3.5 15.2 6.42 6.29 4.38 6.96 6.71 9.94 11.1 2.32 4.08 3.97 8.75 4.64 13.1 0.662 4.08 0.332 9.63 0.332 9.92l-1.32 17.5c-1.99 23.3-2.98 46.4-3.97 69.4-1.32 46.1-0.662 91.6 2.65 136 6.96 89 25.2 174 59.6 246 34.1 72.1 84.5 132 141 169z" style="stroke-width:.311"/><path class="fil33" d="m3366 4622c-19.9 0-39.4-1.46-58.6-3.21-30.1-4.38-59.6-11.4-88.4-22.5-21.2-8.17-30.8-29.8-21.5-48.1 2.65-5.54 6.96-10.2 11.9-13.7l3.97-2.63c23.8-16.9 47-28.3 69.2-39.7 21.5-12.8 43.7-21.3 63.9-32.7 41.7-19.5 79.2-39.4 117-57.5 37.1-19.3 73.5-38.2 111-59.2 37.8-20.4 78.2-44.9 123-68.9l9.94-5.25c6.29-3.21 13.2-4.96 19.9-4.96 13.2 0 26.2 5.84 33.8 16.6 3.31 4.96 5.3 10.8 5.63 16 2.32 47.9-10.9 89.9-32.8 128-52.7 57.5-131 113-228 159-23.5 11.4-48 22.2-73.2 32.4-11.9 1.75-23.5 3.21-35.4 4.08-10.6 1.17-21.5 1.75-32.1 1.75z" style="stroke-width:.311"/><path class="fil29" d="m1655 3858s-84.1-384-293-584c0 0-364-192-454-208-90.7-16-36.4 7.88-36.4 7.88l-109-96-54.6-1e3s45.4-144 254-152c209-7.88 436 16 436 16s127 48.1 127 136c0 88.1-9.27 448 54.6 481l63.6 32.1 18.2 240s-263-92.5-309-296c-27.2-120-36.4-408-36.4-408l-354 8.17 18.2 841s264 32.1 454 208c191 176 227 192 227 192l-6.62 584z" style="stroke-width:.311"/><path class="fil42" d="m2186 4562c-27.2 0-54.6-2.63-81.5-8.17-42.7-8.17-84.1-21.3-123-38.5-38.4-17.5-75.2-37.9-109-62.1-33.4-23.9-63.9-50.5-89.1-82.3-3.31-4.38-2.32-10.2 2.65-13.1 1.99-1.17 3.97-1.75 5.96-1.75 1.99 0 3.97 0.584 5.63 1.46l0.662 0.292c70.5 38.5 139 76.4 211 108 35.4 16.6 72.2 29.8 109 42.9 37.4 12.8 75.8 21.9 116 32.4l0.662 0.292c5.63 1.46 8.94 6.71 7.29 11.7-1.32 3.79-4.64 6.13-8.94 6.71-15.9 1.75-32.5 2.92-48.7 2.92z" style="stroke-width:.311"/><path class="fil48" d="m1649 3868c6.62 56.9 3.97 98.9-2.98 125-6.62 25.7-15.9 34.4-17.9 31.2-1.32-6.13 0.663-20.7 0-50.8-0.332-29.5-4.64-72.4-14.6-128-10.6-58.1-27.8-121-50.3-188-22.9-67.1-47.4-140-87.1-207-40.1-68-96.7-132-168-187-72.2-53.7-158-98.9-252-131-47-16.3-95.4-29.2-146-39.7-59.9-12.5-115-45.2-151-90.2-18.2-22.5-31.8-48.1-39.7-75.3-4.31-13.4-6.29-27.4-7.62-41.4l-2.65-36.2c-3.31-47.9-6.29-95.7-9.6-144-12.9-192-25.8-385-38.1-570-1.66-23.1-2.98-46.1-4.64-69.2-1.66-20.7-3.64-51.6 2.65-77.9 10.9-54 43.7-103 90.4-138 46.4-34.7 105-54.6 164-56.6 49-0.292 96.7-0.876 144-1.17 93.1-0.584 182-1.17 265-1.75 103 1.17 193 55.4 235 124 21.5 33.8 32.8 70.6 35.1 106 0.662 8.75 0.331 17.8 0 26-0.332 6.71-0.663 13.1-0.993 19.8-0.332 12.8-0.663 25.4-0.994 37.6-0.663 48.7 1.66 90.5 4.97 125 6.96 68.6 18.5 105 18.9 108 12.9 51.9 25.8 94.5 38.1 127 10.9 32.1 19.9 54.3 9.27 64.8-10.3 10.2-44.4 2.63-79.2-29.2-35.1-30.6-66.9-85.8-80.5-146-0.331-2.63-12.3-46.4-17.9-122-2.98-37.6-3.97-83.2-1.99-135 0.332-24.8 4.64-57.5 3.31-75.9-1.66-21.6-8.94-44.6-22.5-65.7-26.8-42-82.8-75.9-151-75.6-83.5-0.876-173-1.75-266-2.63-23.5-0.292-47-0.584-70.9-0.876-11.9 0-23.8-0.292-36.1-0.292h-17.6c-4.97 0-9.6 0-14.6 0.584-38.7 2.63-77.8 17.2-108 41.4-29.8 24.2-51 58.6-56.6 95.7-1.32 9.34-1.99 18.4-1.66 28.3l1.32 34.4c0.993 23.1 1.99 46.4 2.98 69.7 8.28 187 16.6 381 25.2 575 1.99 48.4 4.31 96.9 6.29 145 0.662 12.5 0.994 23.1 2.65 33.3 1.66 10.5 4.64 20.7 8.61 30.6 7.95 19.8 19.9 38.5 35.4 54.6 15.6 16 34.1 29.8 55 40 10.3 5.25 21.2 9.34 32.5 12.8 10.6 2.92 23.8 6.13 37.4 9.05 53 12.5 104 28.9 153 48.1 97.7 38.8 187 89.9 260 152 72.9 62.1 129 135 167 209 36.4 75.6 58 149 79.2 218 19.9 69.2 34.4 135 41.7 195z" style="stroke-width:.311"/><path class="fil41" d="m771 2644h-1.66c-0.663 0-1.32-0.291-1.66-0.291-1.99-41.7-3.64-83.7-5.63-125 0.332-14.3 0.663-28.6 0.993-42.9 1.99-53.1 4.64-106 7.62-159 3.64-53.1 6.62-106 10.9-159 4.31-53.1 8.28-106 13.6-159v-1.17c0.662-5.25 2.98-9.92 6.62-13.7 35.4-35.9 74.8-64.8 126-83.7 21.2-7.59 45-12.5 69.2-12.5 4.64 0 9.61 0.292 14.6 0.584 24.8 2.33 46 4.08 70.2 4.67 45.4 1.17 91.1 1.75 137 1.75 49.7 0 99.7-0.584 150-0.584 5.96 0 10.6 4.08 10.6 9.34 0 4.67-3.97 8.46-8.94 9.34-47.7 7.29-95.7 12-144 16.9-48 4.38-96.4 7.88-145 9.04-6.62 0.292-13.2 0.292-19.9 0.292-18.2 0-37.1-0.584-54-1.17h-4.31c-17.6 0-35.4 3.79-52.7 10.8-34.4 13.7-67.9 37.9-94.1 63.9-3.97 49.9-8.61 99.8-13.2 150-4.64 52.8-10.9 106-16.9 158-6.29 52.8-12.9 106-20.2 158-7.95 52.8-15.2 105-24.8 158-0.662 4.67-5.3 7.88-10.6 7.88z" style="stroke-width:.311"/><path class="fil48" d="m3775 2e3c-2.98-15.2-11.3-22.2-18.9-22.5-7.95-0.292-15.6 5.25-23.8 11.7-8.61 6.42-19.2 13.7-33.1 21.9-27.5 16.6-74.8 36.8-132 57.8-2.98 1.17-43.4 17.8-121 37.9-77.2 20.1-191 42.6-334 57.8-142 15.5-313 24.5-501 21-187-4.08-394-19-598-64.5-50.7-11.7-101-25.7-149-43.8-47-17.8-94.1-40.8-120-69.2-12.9-14.3-16.2-26.3-13.9-38.2 2.98-12.3 14.2-27.7 31.8-41.4 35.1-27.4 84.1-48.7 133-66.2 100-34.7 209-56.3 316-72.7 108-16 216-26 322-31.8 170-9.04 321-11.6 482-3.15 112 5.91 224 14.2 334 37.6 92.6 19.8 185 46.3 270 86.5 48.8 22.9 107 62.4 136 87.2 7.99 6.8 18.2-34.4 24.2-43.3 6.6-9.83-88.9-64.7-139-87.4-103-47-213-79.5-325-98.3-250-42.1-593-35.2-759-30.5-108 3.21-219 10.5-331 24.2-112 14-224 33-334 66.5-55 17.2-110 37.3-160 69.4-24.8 16.3-49.7 36.8-65.9 66.8-17.6 29.5-13.6 70.9 4.97 98.3 18.2 27.7 42.7 47 67.6 63.3 25.2 16 51 29.2 77.5 40.3 52.7 22.5 107 38.8 160 53.1 107 27.7 215 44.9 319 57.8 104 12.5 206 19.8 303 23.6 194 7.59 371 1.46 520-12 149-13.1 270-34.7 355-54.9 84.5-20.1 132-38.5 135-39.4 65.9-23.9 124-60.7 153-104 13.9-21.6 19.5-43.8 15.9-58.9z" style="stroke-width:.311"/><path class="fil48" d="m1106 4527c-24.5-40.4-35.7-71.1-39.8-91-4.12-19.9-3.3-28.5 1.65-26.8 10.7 3.28 28.3 49.6 81.9 124 56.9 78.7 151 163 278 236 126 74 285 137 460 183 175 46.5 367 76.6 561 88.9 97 6.15 195 8.4 291 5.53 48.4-1.02 96.5-2.05 144-5.74 23.9-1.43 47.5-2.87 71.2-4.3 23.6-1.84 46.7-4.51 70.1-6.76 186-18.2 361-51.4 513-96.5 152-44.9 279-102 375-159 50-27.2 88.2-58 124-82.8 16.2-13.7 31.3-26.6 45.3-38.5 13.7-12.1 27.5-22.3 37.1-33.4 20.6-21.3 36.8-38.1 47.8-49.6 11.3-11.7 15.4-19.3 16.8-20.1 14.3-17.8 29.7-34.2 45.1-48.6 14.8-14.5 27.2-28.3 40.7-38.5 26.1-21.1 50.8-32.2 66.5-26.8 15.9 5.33 19.8 26.6 12.6 57.8-4.12 15.4-8.52 33.8-20.1 52.2-11 18.4-24.7 38.1-40.9 58-1.1 0.615-6.05 8.81-19.2 21.3-12.9 12.7-31.3 30.9-55 54.3-11.3 12.1-27.2 23.2-42.6 36.3-16.2 12.9-32.7 27.2-52.2 41.6-40.7 27.2-84.9 59.6-140 88.7-108 60.6-249 119-412 164-164 44.7-350 75.4-544 90.2-48.6 4.71-98.1 5.94-148 8.2-49.7 2.87-99.8 1.84-150 2.46-101 0.41-202-4.3-303-13.1-201-17.8-399-54.1-578-107-179-53.1-340-124-467-206-127-81.1-219-173-270-258z" style="clip-rule:evenodd;fill-rule:nonzero;fill:#1b1c20;image-rendering:optimizeQuality;shape-rendering:geometricPrecision;stroke-width:.237"/><path class="fil49" d="m2795 39.4c-21.5 75.6-18.9 142-4.31 203 6.62 30.6 19.9 60.1 32.5 89 8.94 14.3 13.2 28.9 23.8 42.9 4.31 7 8.28 14.3 12.6 21.3l15.6 28c22.5 39.1 32.5 82.3 35.8 125-0.332 42.6-7.29 85.2-26.8 124-38.4 77.6-109 144-205 180 30.8-73.8 48.7-141 51.7-203 1.66-31.2-2.32-60.7-7.95-89.6-5.63-14.3-6.29-28.6-13.9-42.3l-7.95-21c-2.98-7-7.62-13.7-11.3-20.4l-10.9-22.2-14.9-28.6c-9.94-19-15.9-39.4-22.5-59.2-9.61-40.6-14.6-82.3-6.29-124 14.9-81.4 68.6-161 160-203z" style="stroke-width:.311"/><path class="fil45" d="m1578 2560c-3.31 0-6.29-0.876-8.94-2.33-49.3-28.9-90.1-70.6-118-118-27.5-47.3-45-98.6-53.7-150-7.95-51.6-7.29-104-0.331-155 7.62-50.8 20.9-100 46-148 2.65-5.25 8.61-8.17 14.6-8.17 2.32 0 4.64 0.584 6.96 1.46 5.63 2.33 9.27 7.3 9.27 12.5v0.876c1.66 75.6 2.65 149 9.6 221 0.332 5.54 0.663 11.1 0.994 16.3 5.63 75.3 17.6 119 17.9 122 7.95 34.1 21.5 66.5 38.1 94 14.2 30.3 31.5 59.8 51 90.5l0.662 0.875c4.31 6.71 1.66 15.5-5.96 19.3-2.32 1.17-5.3 1.75-7.95 1.75z" style="stroke-width:.311"/><path class="fil45" d="m1568 3439c-4.97 0-9.27-2.04-12.3-5.25l-0.663-0.875c-21.2-23.1-39.7-46.7-58.3-70l-58.3-67.4c-21.5-20.7-38.7-44.4-61.6-63.3l-31.5-30.6-33.8-28.3c-45-37.3-94.1-70.6-147-98.3-53-27.1-111-50.2-171-63.3l-2.32-0.584c-8.61-1.75-13.6-9.34-11.6-16.9 1.66-5.54 6.96-9.63 12.9-10.5 15.9-2.04 32.1-3.21 47.7-3.21 48.7 0 96 9.63 141 24.2 35.1 12.8 66.2 26.8 93.7 40.8 7.29 3.79 14.6 7.59 21.5 11.4 28.2 16.6 54.6 35.6 79.5 55.4 51.7 42 93.4 91.6 129 143 17.6 26 31.5 53.7 46.4 80.8 11.6 28.3 23.2 56.3 32.1 85.2 2.32 7.59-2.65 15.2-11.3 17.2-1.32 0.292-2.65 0.584-4.31 0.584z" style="stroke-width:.311"/><g fill="#f4e8d7"><path transform="matrix(.858 0 0 .858 380 524)" d="m2777 3317c-35.3-45.1 206-180 287-178 80.1 2.09 237 620 30.6 653-88.4 14.3-560 24.6-911-43.5-73.4-14.2-69.5-192-21.4-258 64.6-88.7 202-55.8 294-17.6 206 85.3 341 151 400 68.4 46.4-64.7-44-179-79.3-224z" style="fill:#e2bc69;filter:url(#filter2072);opacity:.698;stroke-width:1.6"/><path id="be" d="m2706 3334c-30.3-38.7 177-154 246-153 68.7 1.79 203 532 26.3 560-75.8 12.3-480 21.1-781-37.4-63-12.2-59.6-165-18.3-222 55.4-76.1 173-47.9 252-15.1 177 73.2 292 130 343 58.6 39.8-55.5-37.7-153-68-192z" style="fill:#8f6200;opacity:.871;stroke-width:1.37"/><ellipse transform="matrix(.857 .0363 -.0363 .857 380 524)" cx="2889" cy="3908" rx="157" ry="152" style="fill:#e2bc69;filter:url(#filter2076);opacity:.698;stroke-width:1.6"/><ellipse id="noq" transform="rotate(2.42)" cx="2822" cy="3826" rx="135" ry="131" style="fill:#8f6200;opacity:.871;stroke-width:1.37"/></g><ellipse cx="2743" cy="1226" rx="942" ry="176" style="fill:#cbd3d8;paint-order:markers fill stroke"/><path d="m2204 2980c-6.29 0-12.6 0.576-18.9 1.16-32.5 2.63-63.6 15.8-89.1 33-24.8 18.1-45.4 39.4-61 62.7-9.27 14.3-17.2 28-24.2 42.9-28.2 1.46-57.3 7.31-83.8 19-15.1 6.37-29.2 14.5-41.7 23.7v-0.081c-18.9 14-34.8 30.9-47.3 48.2-20.5 29.5-33.1 61-39.4 92.2-6.29 31.8-7.94 62.4-1.97 94.2 0.994 4.96 4.96 9.34 10.9 11.1 1.66 0.584 3.31 0.875 4.96 0.875l0.326-0.285c6.62 0 12.9-3.52 15.2-9.64l0.346-1.16c17.5-46.3 37.6-91.9 65.7-127l0.57 0.244c4.31-5.54 8.95-10.8 13.6-15.7 17.2-18.7 37.4-32.4 59.6-40.9 21.9-9.04 47.3-12 74.5-12.3h2.99c21.2-0.292 40.1-13.1 44.7-32.1 4.31-16.9 11.9-38.8 21.5-56.6 9.6-18.4 20.8-35.6 35.4-49.6 13.9-14.3 30.8-25.4 51-32.7 19.5-7 42.4-9.91 66.9-9.91h3.3c5.96 0 11.9-3.21 14.6-8.46 3.64-7.29-4e-4 -15.5-8.28-18.7-21.2-8.17-45.4-13.7-70.6-13.7zm967 47c-23.2 0-46 2.61-68.9 8.16-6.29 1.75-10.9 6.43-11.6 12.6-0.662 7.88 5.96 14.6 14.6 15.2h1.67c31.5 2.04 64.3 8.17 92.7 17.8 29.1 9.63 54.3 23.6 74.8 40.9 36.7 30.9 56.2 73.9 65.6 121l2.95-160c-6.29-4.96-13.2-9.93-20.2-14.3-32.8-21-71.2-33.6-109-38.5-14.2-2.04-28.5-2.91-42.7-2.91zm169 215-0.02 1.06 0.326 0.305c-0.09-0.459-0.214-0.904-0.305-1.36zm0.305 1.36c0.994 5.25 1.98 10.2 2.64 15.5 2.32 14.9 14.3 28.3 31.5 33.3l2.64 0.875c10.3 2.92 26.2 9.63 38.1 16.1 12.9 6.42 24.8 14 35.1 22.7 19.9 17.5 35.4 37.6 42.7 62.4 8.28 24.2 8.28 52.5 4.64 82-3.97 29.8-13.2 59.8-22.5 91v0.285c-1.32 5.25 0.337 10.8 5.64 14.6 2.98 2.33 6.29 3.21 9.93 3.21l0.346 0.285c4.64 0 9.26-1.75 12.6-5.25 23.8-26.6 43.7-56.3 57.6-89.9 13.6-33.6 21.2-71.2 14.9-111-6.96-39.1-27.8-78.2-60.3-106-15.9-14.3-33.4-26.6-52.3-36.5-10.9-5.84-21.5-10.5-33.1-14.9-5.96-24.8-15.6-49.6-29.5-72.9-13.9-24.8-33.8-47.9-57.6-66.8zm-1476 495c-5.96 0-11.9 3.2-14.6 8.16-14.6 27.7-22.9 56-27.2 86.1-3.64 30.1-3.31 61.9 6.96 93.7 7.62 24.2 21.2 49 41.1 69.7 3.04-21.3 5.73-42.5 8.24-63.7-2.49 21.4-5.17 42.8-8.24 64.3 5.96 5.84 12.3 11.7 18.9 16.9 20.5 16.9 44.4 28.9 69.2 37.6 0 0.584 0.326 1.17 0.326 1.75 1.99 9.92 4.98 19.8 8.95 29.2 7.29 19 17.6 36.5 29.5 53.1 24.2 33 57.6 59.2 93.1 79.1 68.9 37.1 146 51.9 220 51.9h10.3c6.29 0 12.3-3.51 14.6-9.05 2.98-7.29-0.998-15.5-9.28-18.4h-0.326c-34.8-12.3-68.9-23.3-101-37.4-31.5-13.7-61.3-29.2-86.8-47.6-26.2-17.8-46.7-39.4-62.6-62.2-7.62-11.7-14.2-23.6-18.5-36.2-1.99-6.13-3.98-12.5-5.64-18.7-1.32-5.25-2.31-13.7-2.64-15.5l-0.346-4.37c-1.32-17.2-15.2-32.4-35.1-36.8-24.8-5.54-47.7-14-66.2-26.3-18.5-12.3-33.1-29.2-44-49.9-6.96-14-12.2-29.8-16.2-46.4-1.15 11.5-2.45 23-3.66 34.5 1.22-11.7 2.57-23.4 3.66-35.1-1.99-7.59-3.32-15.8-4.31-23.9-3.31-25.4-3.64-52.8-2.32-78.8v-1.18c0.331-5.54-3.32-11.1-9.28-13.4-1.99-0.876-4.29-1.44-6.61-1.44zm1604 14.6c-6.29 0-12.2 3.49-14.9 9.03l-0.326 0.59c-20.9 47-43.1 94-71.9 132-14.2 19-30.5 35-47 44.9-1.88 1.1-3.76 2.18-5.64 3.03v-0.102c-11.9 5.84-23.2 8.46-35.8 8.46-2.98 0-5.97-0.013-8.95-0.305-1.32-0.292-2.97-0.285-4.29-0.285h-0.671c-25.8 0-46.7 18.4-47 41.1v2.93c0 10.2-1.67 26.5-3.99 39.7-2.32 13.7-6.29 27.4-11.9 40.3-10.6 26-26.2 49.9-47.7 69.7-21.2 20.1-48.3 36.8-79.1 49.6-30.8 13.4-65.3 22.5-101 30.6h-0.326c-6.29 1.17-10.9 5.84-11.9 11.7-1.33 7.88 4.63 14.9 13.6 16 14.6 1.75 29.5 2.62 44.4 2.62l0.326-0.285c25.2 0 50.7-2.63 76.2-7.59 40.4-8.17 80.5-24.5 115-49.6 34.1-24.8 60.6-58.1 77.5-93.7 8.28-17.8 14.6-36.5 18.5-55.1 1.66-6.13 2.65-12.3 3.64-18.4 0.864-0.253 1.52-0.292 2.32-0.488v0.488c23.2-4.96 45-14.3 61.6-27.4 30.1-21.9 49-48.4 62.3-74.7 13.9-26.3 21.5-53.4 27.5-80.2 5.3-27.1 7.94-53.7 6.29-81.4-0.33-5.54-3.99-10.5-9.95-12.6-1.99-0.584-3.97-0.875-5.96-0.875z" style="clip-rule:evenodd;fill-rule:nonzero;fill:#8f6200;image-rendering:optimizeQuality;shape-rendering:geometricPrecision;stroke-width:.311"/><path d="m2267 2980c-6.29 0-12.6 0.576-18.9 1.16-32.5 2.63-63.6 15.8-89.1 33-24.8 18.1-45.4 39.4-61 62.7-9.27 14.3-17.2 28-24.2 42.9-28.2 1.46-57.3 7.31-83.8 19-15.1 6.37-29.2 14.5-41.7 23.7v-0.081c-18.9 14-34.8 30.9-47.3 48.2-20.5 29.5-33.1 61-39.4 92.2-6.29 31.8-7.94 62.4-1.97 94.2 0.994 4.96 4.96 9.34 10.9 11.1 1.66 0.584 3.31 0.875 4.96 0.875l0.326-0.285c6.62 0 12.9-3.52 15.2-9.64l0.346-1.16c17.5-46.3 37.6-91.9 65.7-127l0.57 0.244c4.31-5.54 8.95-10.8 13.6-15.7 17.2-18.7 37.4-32.4 59.6-40.9 21.9-9.04 47.3-12 74.5-12.3h2.99c21.2-0.292 40.1-13.1 44.7-32.1 4.31-16.9 11.9-38.8 21.5-56.6 9.6-18.4 20.8-35.6 35.4-49.6 13.9-14.3 30.8-25.4 51-32.7 19.5-7 42.4-9.91 66.9-9.91h3.3c5.96 0 11.9-3.21 14.6-8.46 3.64-7.29-4e-4 -15.5-8.28-18.7-21.2-8.17-45.4-13.7-70.6-13.7zm967 47c-23.2 0-46 2.61-68.9 8.16-6.29 1.75-10.9 6.43-11.6 12.6-0.662 7.88 5.96 14.6 14.6 15.2h1.67c31.5 2.04 64.3 8.17 92.7 17.8 29.1 9.63 54.3 23.6 74.8 40.9 36.7 30.9 56.2 73.9 65.6 121l2.95-160c-6.29-4.96-13.2-9.93-20.2-14.3-32.8-21-71.2-33.6-109-38.5-14.2-2.04-28.5-2.91-42.7-2.91zm169 215-0.02 1.06 0.326 0.305c-0.09-0.459-0.214-0.904-0.305-1.36zm0.305 1.36c0.994 5.25 1.98 10.2 2.64 15.5 2.32 14.9 14.3 28.3 31.5 33.3l2.64 0.875c10.3 2.92 26.2 9.63 38.1 16.1 12.9 6.42 24.8 14 35.1 22.7 19.9 17.5 35.4 37.6 42.7 62.4 8.28 24.2 8.28 52.5 4.64 82-3.97 29.8-13.2 59.8-22.5 91v0.285c-1.32 5.25 0.337 10.8 5.64 14.6 2.98 2.33 6.29 3.21 9.93 3.21l0.346 0.285c4.64 0 9.26-1.75 12.6-5.25 23.8-26.6 43.7-56.3 57.6-89.9 13.6-33.6 21.2-71.2 14.9-111-6.96-39.1-27.8-78.2-60.3-106-15.9-14.3-33.4-26.6-52.3-36.5-10.9-5.84-21.5-10.5-33.1-14.9-5.96-24.8-15.6-49.6-29.5-72.9-13.9-24.8-33.8-47.9-57.6-66.8zm-1476 495c-5.96 0-11.9 3.2-14.6 8.16-14.6 27.7-22.9 56-27.2 86.1-3.64 30.1-3.31 61.9 6.96 93.7 7.62 24.2 21.2 49 41.1 69.7 3.04-21.3 5.73-42.5 8.24-63.7-2.49 21.4-5.17 42.8-8.24 64.3 5.96 5.84 12.3 11.7 18.9 16.9 20.5 16.9 44.4 28.9 69.2 37.6 0 0.584 0.326 1.17 0.326 1.75 1.99 9.92 4.98 19.8 8.95 29.2 7.29 19 17.6 36.5 29.5 53.1 24.2 33 57.6 59.2 93.1 79.1 68.9 37.1 146 51.9 220 51.9h10.3c6.29 0 12.3-3.51 14.6-9.05 2.98-7.29-0.998-15.5-9.28-18.4h-0.326c-34.8-12.3-68.9-23.3-101-37.4-31.5-13.7-61.3-29.2-86.8-47.6-26.2-17.8-46.7-39.4-62.6-62.2-7.62-11.7-14.2-23.6-18.5-36.2-1.99-6.13-3.98-12.5-5.64-18.7-1.32-5.25-2.31-13.7-2.64-15.5l-0.346-4.37c-1.32-17.2-15.2-32.4-35.1-36.8-24.8-5.54-47.7-14-66.2-26.3-18.5-12.3-33.1-29.2-44-49.9-6.96-14-12.2-29.8-16.2-46.4-1.15 11.5-2.45 23-3.66 34.5 1.22-11.7 2.57-23.4 3.66-35.1-1.99-7.59-3.32-15.8-4.31-23.9-3.31-25.4-3.64-52.8-2.32-78.8v-1.18c0.331-5.54-3.32-11.1-9.28-13.4-1.99-0.876-4.29-1.44-6.61-1.44zm1604 14.6c-6.29 0-12.2 3.49-14.9 9.03l-0.326 0.59c-20.9 47-43.1 94-71.9 132-14.2 19-30.5 35-47 44.9-1.88 1.1-3.76 2.18-5.64 3.03v-0.102c-11.9 5.84-23.2 8.46-35.8 8.46-2.98 0-5.97-0.013-8.95-0.305-1.32-0.292-2.97-0.285-4.29-0.285h-0.671c-25.8 0-46.7 18.4-47 41.1v2.93c0 10.2-1.67 26.5-3.99 39.7-2.32 13.7-6.29 27.4-11.9 40.3-10.6 26-26.2 49.9-47.7 69.7-21.2 20.1-48.3 36.8-79.1 49.6-30.8 13.4-65.3 22.5-101 30.6h-0.326c-6.29 1.17-10.9 5.84-11.9 11.7-1.33 7.88 4.63 14.9 13.6 16 14.6 1.75 29.5 2.62 44.4 2.62l0.326-0.285c25.2 0 50.7-2.63 76.2-7.59 40.4-8.17 80.5-24.5 115-49.6 34.1-24.8 60.6-58.1 77.5-93.7 8.28-17.8 14.6-36.5 18.5-55.1 1.66-6.13 2.65-12.3 3.64-18.4 0.864-0.253 1.52-0.292 2.32-0.488v0.488c23.2-4.96 45-14.3 61.6-27.4 30.1-21.9 49-48.4 62.3-74.7 13.9-26.3 21.5-53.4 27.5-80.2 5.3-27.1 7.94-53.7 6.29-81.4-0.33-5.54-3.99-10.5-9.95-12.6-1.99-0.584-3.97-0.875-5.96-0.875z" style="clip-rule:evenodd;fill-rule:nonzero;fill:#dbad47;image-rendering:optimizeQuality;shape-rendering:geometricPrecision;stroke-width:.311"/></svg>
