<svg width="512pt" height="512pt" version="1.1" viewBox="-24 0 512 512" xmlns="http://www.w3.org/2000/svg"><path d="m443 161-48.2-59.9h-337l-39.9 59.9c-16.4 24.6-21.9 55-15.1 83.8l57.2 242c3.51 14.8 16.7 25.3 32 25.3h277c15.2 0 28.5-10.5 32-25.3l57.2-242c6.83-28.8 1.37-59.2-15.1-83.8z" fill="#f9eac7" style="fill:#e6e6e6;stroke-width:.995"/><path d="m443 161-48.2-59.9h-337l-39.9 59.9c-16.4 24.6-21.9 55-15.1 83.8l57.2 242c3.51 14.8 16.7 25.3 32 25.3h50.4l-33.8-267c-2.18-17.2-2-35 0.365-51.7 0.96-6.81 4.89-12.8 10.7-16.4 0.0272-0.0194 0.0544-0.035 0.0816-0.0506 9.21-5.72 15.9-9.85 31-9.85 15.2 0 21.8 4.13 31 9.85 10.6 6.59 23.8 14.8 48.4 14.8 24.5 0 37.7-8.2 48.4-14.8 9.21-5.72 15.9-9.85 31-9.85 15.2 0 21.8 4.13 31.1 9.85 10.6 6.59 23.8 14.8 48.4 14.8 24.5 0 37.8-8.2 48.4-14.8 3.87-2.4 7.27-4.43 11-6.06-1.72-3.28-3.61-6.48-5.68-9.58z" fill="#f4dbb3" style="fill:#ccc;stroke-width:.995"/><path d="m88.2 479h284c7.61 0 14.2-5.23 16-12.6l53.3-225c5.7-24.1 1.2-49.7-12.4-70.4l-42.7-53.2h-320l-35.1 52.6c-13.9 20.9-18.5 46.5-12.7 70.9l53.3 225c1.76 7.41 8.37 12.6 16 12.6z" fill="#ffc269" style="fill:#c03a2b;stroke-width:.995"/><path d="m434 179c-1.41-2.73-2.96-5.4-4.66-7.98l-42.7-53.2h-320l-35.1 52.6c-13.9 20.9-18.5 46.5-12.7 70.9l53.3 225c1.76 7.41 8.37 12.6 16 12.6h50.2l-29.6-234c-2.18-17.2-2-35 0.365-51.7 0.96-6.81 4.89-12.8 10.7-16.4 0.0272-0.0156 0.0544-0.031 0.0816-0.0506 9.21-5.72 15.9-9.85 31-9.85 15.2 0 21.8 4.13 31 9.85 10.6 6.59 23.8 14.8 48.4 14.8 24.5 0 37.7-8.2 48.4-14.8 9.21-5.72 15.9-9.85 31-9.85 15.2 0 21.8 4.13 31.1 9.85 10.6 6.59 23.8 14.8 48.4 14.8 22.1 0 35-6.62 45-12.7z" fill="#ffa95f" style="fill:#c03a2b;stroke-width:.995"/><path d="m403 2.77h-345c-9.07 0-16.4 7.35-16.4 16.4v32.9c0 9.07 7.35 16.4 16.4 16.4h345c9.07 0 16.4-7.35 16.4-16.4v-32.9c-0.00401-9.07-7.35-16.4-16.4-16.4z" fill="#ff8b5a" style="fill:#4fba6f;stroke-width:.995"/><path d="m456 138c4.62 4.62 2.2 12.4-4.18 13.8-24.4 5.56-29.7 22.9-63.1 22.9-39.7 0-39.7-24.6-79.4-24.6-39.7 0-39.7 24.6-79.4 24.6-39.7 0-39.7-24.6-79.4-24.6-39.7 0-39.7 24.6-79.4 24.6-33.3 0-38.7-17.4-63-22.9-6.38-1.45-8.8-9.22-4.17-13.8l29.9-29.9c4.62-4.62 10.9-7.21 17.4-7.21h357c6.53 0 12.8 2.6 17.4 7.21z" fill="#ff8b5a" style="fill:#4fba6f;stroke-width:.995"/><path d="m301 93.1h-18l12.2 27c1.37 3.03 4.36 4.83 7.49 4.83 1.12 0 2.28-0.233 3.37-0.73 4.14-1.86 5.98-6.73 4.11-10.9z" fill="#ff7350" style="fill:#4c8056;stroke-width:.995"/><path d="m158 101h-107c-6.53 0-12.8 2.6-17.4 7.21l-29.9 29.9c-4.62 4.62-2.2 12.4 4.17 13.8 24.4 5.56 29.7 23 63 23 35.3 0 39.3-19.4 67.5-23.7z" fill="#ff7350" style="fill:#4c8056;stroke-width:.995"/><path d="m109 93.1-21.2 34.7c-2.36 3.87-1.13 8.93 2.75 11.3 1.33 0.816 2.81 1.2 4.26 1.2 2.77 0 5.48-1.41 7.02-3.94l26.3-43.3z" fill="#ff8b5a" style="fill:#4fba6f;stroke-width:.995"/><path d="m132 27.4v-24.6h-73.9c-9.07 0-16.4 7.35-16.4 16.4v32.9c0 9.08 7.35 16.4 16.4 16.4h345c9.07 0 16.4-7.35 16.4-16.4h-263c-13.6 0-24.6-11-24.6-24.6z" fill="#ff7350" style="fill:#4c8056;stroke-width:.995"/><path d="m395 101h-329c-9.07 0-16.4-7.35-16.4-16.4s7.35-16.4 16.4-16.4h329c9.07 0 16.4 7.35 16.4 16.4-4e-3 9.07-7.36 16.4-16.4 16.4z" fill="#9f6e50" style="fill:#f3b600;stroke-width:.995"/><path d="m395 68.5h-263c-4.53 0-8.21 3.68-8.21 8.21 0 4.53 3.68 8.21 8.21 8.21h279c0-9.07-7.35-16.4-16.4-16.4z" fill="#b57f5f" style="fill:#f3d55b;stroke-width:.995"/><ellipse cx="236" cy="329" rx="142" ry="138" style="fill:#f3d55b;opacity:.923;stroke-linecap:round;stroke-linejoin:round;stroke-width:10.2"/><g id="015---Tomato" transform="matrix(3.86 0 0 3.86 122 212)" style="fill:none"><path id="Shape" d="m45.2 37c0.414-1.64 0.685-3.31 0.81-5 0.373-5.45-1.56-10.8-5.33-14.8 0.211-0.0981 0.311-0.342 0.23-0.56-0.35-1.26-1.7-2.54-4.79-3.67-0.49-0.18-0.96-0.34-1.41-0.48 2.02-1.79 3.68-3.94 4.89-6.35 0.0894-0.188 0.056-0.412-0.0846-0.565-0.141-0.154-0.36-0.207-0.555-0.135-2.69 1.06-9.5 3.44-14.2 2.46 0.159-1.49 0.537-2.96 1.12-4.34 0.02-0.05 0.05-0.11 0.07-0.16 0.0483-0.138 0.072-0.284 0.07-0.43 0-1.1-1.34-2-3-2-1.17-0.107-2.3 0.474-2.9 1.49-0.0177 0.0349-0.0311 0.0719-0.04 0.11-0.797 1.75-1.24 3.64-1.3 5.56-4.35-0.04-9.39-1.81-11.6-2.69-0.195-0.0717-0.413-0.0176-0.552 0.137-0.139 0.154-0.17 0.377-0.0778 0.563 1.21 2.41 2.87 4.57 4.9 6.35-0.45 0.14-0.92 0.3-1.42 0.48-3.09 1.13-4.44 2.41-4.79 3.67-0.0781 0.199 0.00302 0.426 0.19 0.53-3.78 3.97-5.71 9.34-5.34 14.8 0.94 12.2 8.08 19.1 20.6 19.9z" fill="#e64c3c"/><path d="m58 41.2c-0.89 11.6-7.99 17.8-20.4 17.8h-0.06c-7.75-0.01-13.4-2.44-16.8-7.08-2.18-3.17-3.42-6.88-3.59-10.7-0.0614-0.769-0.0681-1.54-0.02-2.31 0.0609-1.06 0.938-1.89 2-1.89h36.9c1.07 0.0022 1.94 0.836 2 1.9 0.0431 0.766 0.0364 1.53-0.02 2.3z" fill="#e64c3c"/><path d="m48.2 41c1.58 0.0025 3.05 0.815 3.89 2.15s0.936 3.01 0.254 4.44c-2.39 4.96-7.28 7.4-14.8 7.41h-0.06c-7.49-0.015-12.4-2.45-14.8-7.41-0.683-1.42-0.588-3.1 0.252-4.44 0.84-1.34 2.31-2.15 3.89-2.15 1.56 0.035 3.01 0.831 3.88 2.13 1.21 1.7 3.79 2.87 6.79 2.87s5.58-1.17 6.79-2.87c0.866-1.3 2.31-2.1 3.88-2.13z" fill="#fb7b76"/><path d="m13.8 47.5c-0.122 1.17e-4 -0.242-0.0223-0.356-0.066-5.24-2-8.56-6.02-9.85-11.9-0.0859-0.525 0.254-1.02 0.773-1.14 0.519-0.114 1.04 0.199 1.18 0.712 1.16 5.3 3.97 8.73 8.61 10.5 0.452 0.171 0.716 0.641 0.629 1.12-0.0874 0.475-0.502 0.82-0.985 0.819z" fill="#fff"/><path d="m37.2 26.2c0.0209 0.218-0.102 0.424-0.304 0.509-0.202 0.0848-0.435 0.0286-0.576-0.139-2.31-2.81-4.6-3.28-9.57-5.76-0.991-0.478-1.92-1.08-2.75-1.8-0.652-0.566-1.03-1.39-1.03-2.25-0.0026-1.45 1-2.71 2.42-3.03h0.01c0.217-0.049 0.438-0.0725 0.66-0.07h0.09c1.83 0.05 4.25 0.93 6.88 4.03 0.3 0.33 0.58 0.69 0.87 1.07 1.74 2.14 2.88 4.71 3.3 7.44z" fill="#4fba6f"/><path d="m19.1 12c-1.05-0.65-3.21-0.88-7.64 0.56-2.03-1.78-3.69-3.94-4.9-6.35-0.0918-0.186-0.0609-0.409 0.0778-0.563s0.357-0.208 0.552-0.137c2.22 0.88 7.26 2.65 11.6 2.69-0.0497 1.27 0.051 2.55 0.3 3.8z" fill="#4fba6f"/><path d="m40.7 17.2c-0.107 0.0451-0.225 0.059-0.34 0.04-2.43-0.298-4.9-0.138-7.27 0.47-2.63-3.1-5.05-3.98-6.88-4.03h-0.09c-0.01-0.96 0.6-3.79 8.6-1.19h0.01c0.45 0.14 0.92 0.3 1.41 0.48 3.09 1.13 4.44 2.41 4.79 3.67 0.0812 0.218-0.019 0.462-0.23 0.56z" fill="#4c8056"/><path d="m39.6 6.17c-1.21 2.41-2.87 4.56-4.89 6.35h-0.01c-8-2.6-8.61 0.23-8.6 1.19-0.222-0.0025-0.443 0.021-0.66 0.07h-0.01c-0.688-1.87-0.921-3.87-0.68-5.85 4.71 0.98 11.5-1.4 14.2-2.46 0.195-0.0722 0.415-0.019 0.555 0.135 0.141 0.154 0.174 0.377 0.0846 0.565z" fill="#4fba6f"/><path d="m26 3c2e-3 0.146-0.0217 0.292-0.07 0.43-0.02 0.05-0.05 0.11-0.07 0.16-0.617 0.965-1.72 1.51-2.86 1.41-1.66 0-3-0.9-3-2-4.16e-4 -0.136 0.0198-0.27 0.06-0.4 0.0089-0.0381 0.0223-0.0751 0.04-0.11 0.597-1.02 1.73-1.6 2.9-1.49 1.66 0 3 0.9 3 2z" fill="#4c8056"/><path d="m23 16.8c-0.0028 0.863-0.378 1.68-1.03 2.25-0.837 0.719-1.76 1.32-2.76 1.8-4.96 2.48-7.25 2.95-9.57 5.76-0.141 0.167-0.374 0.223-0.576 0.139-0.202-0.0848-0.325-0.291-0.304-0.509 0.427-2.73 1.57-5.3 3.31-7.44 0.3-0.39 0.59-0.76 0.89-1.1 2.63-3.07 5.03-3.95 6.86-4 0.0668-0.0019 0.134 0.0014 0.2 0.01 1.67 0.0499 2.99 1.42 2.98 3.09z" fill="#4fba6f"/><path d="m20 13.7c-0.0663-0.0086-0.133-0.0119-0.2-0.01-1.83 0.05-4.23 0.93-6.86 4-2.35-0.587-4.78-0.736-7.18-0.44-0.131 0.0207-0.265-4e-3 -0.38-0.07-0.187-0.104-0.268-0.331-0.19-0.53 0.35-1.26 1.7-2.54 4.79-3.67 0.5-0.18 0.97-0.34 1.42-0.48 4.43-1.44 6.59-1.21 7.64-0.56 0.615 0.369 0.983 1.04 0.96 1.76z" fill="#4c8056"/><path d="m25.4 13.8c-1.42 0.319-2.42 1.58-2.42 3.03 0.0105-1.67-1.31-3.04-2.98-3.09 0.0228-0.717-0.345-1.39-0.96-1.76-0.249-1.25-0.35-2.53-0.3-3.8 0.0611-1.92 0.503-3.81 1.3-5.56-0.0402 0.13-0.0604 0.264-0.06 0.4 0 1.1 1.34 2 3 2 1.14 0.098 2.24-0.445 2.86-1.41-0.583 1.38-0.961 2.85-1.12 4.34-0.241 1.98-0.0079 3.98 0.68 5.85z" fill="#24ae5f"/><circle id="Oval" cx="4" cy="32" r="1" fill="#fff"/><g fill="#f3d55b"><path d="m26 48c-0.404-8.6e-5 -0.769-0.244-0.924-0.617s-0.0692-0.804 0.217-1.09l2-2c0.392-0.379 1.02-0.374 1.4 0.0122 0.386 0.386 0.391 1.01 0.0122 1.4l-2 2c-0.187 0.188-0.442 0.293-0.707 0.293z"/><path d="m30 51c-0.346-1.85e-4 -0.668-0.18-0.85-0.474-0.182-0.295-0.199-0.663-0.0438-0.973l1-2c0.247-0.494 0.848-0.695 1.34-0.448s0.695 0.848 0.448 1.34l-1 2c-0.17 0.339-0.517 0.554-0.896 0.553z"/><path d="m49 48c-0.265-5.7e-5 -0.52-0.105-0.707-0.293l-2-2c-0.379-0.392-0.374-1.02 0.0122-1.4 0.386-0.386 1.01-0.391 1.4-0.0122l2 2c0.286 0.286 0.371 0.716 0.217 1.09-0.155 0.374-0.519 0.617-0.924 0.617z"/><path d="m45 51c-0.381 0.0021-0.73-0.212-0.9-0.553l-1-2c-0.247-0.494-0.0463-1.1 0.448-1.34 0.494-0.247 1.1-0.0463 1.34 0.448l1 2c0.155 0.309 0.138 0.676-0.0428 0.971-0.181 0.294-0.502 0.475-0.847 0.476z"/><path d="m35 52c-0.552 0-1-0.448-1-1v-2c0-0.552 0.448-1 1-1s1 0.448 1 1v2c0 0.552-0.448 1-1 1z"/><path d="m40 52c-0.552 0-1-0.448-1-1v-2c0-0.552 0.448-1 1-1s1 0.448 1 1v2c0 0.552-0.448 1-1 1z"/></g><path d="m17 38.9c-0.0481 0.77-0.0414 1.54 0.02 2.31 0.17 3.84 1.41 7.55 3.59 10.7-0.88-0.06-1.74-0.14-2.56-0.26-1.79-3.15-2.82-6.68-3.02-10.3-0.0694-0.868-0.0794-1.74-0.03-2.61 0.136-2.11 1.89-3.75 4-3.75h26.6c-0.12 0.69-0.26 1.35-0.43 2h-26.2c-1.06 9e-4 -1.94 0.83-2 1.89z" fill="#c03a2b"/></g><ellipse transform="rotate(-52.2)" cx="84" cy="448" rx="14.4" ry="22" style="fill:#fff;opacity:.923;stroke-linecap:round;stroke-linejoin:round;stroke-width:8.5"/><ellipse transform="rotate(-52.2)" cx="50.2" cy="459" rx="9.72" ry="14.8" style="fill:#fff;opacity:.923;stroke-linecap:round;stroke-linejoin:round;stroke-width:5.73"/></svg>
