<?xml version="1.0" encoding="UTF-8" standalone="no"?>
<svg
   xmlns:dc="http://purl.org/dc/elements/1.1/"
   xmlns:cc="http://creativecommons.org/ns#"
   xmlns:rdf="http://www.w3.org/1999/02/22-rdf-syntax-ns#"
   xmlns:svg="http://www.w3.org/2000/svg"
   xmlns="http://www.w3.org/2000/svg"
   xmlns:sodipodi="http://sodipodi.sourceforge.net/DTD/sodipodi-0.dtd"
   xmlns:inkscape="http://www.inkscape.org/namespaces/inkscape"
   inkscape:version="1.0 (4035a4f, 2020-05-01)"
   sodipodi:docname="jar (1).svg"
   id="svg34"
   version="1.1"
   width="512pt"
   viewBox="-24 0 512 512"
   height="512pt">
  <metadata
     id="metadata40">
    <rdf:RDF>
      <cc:Work
         rdf:about="">
        <dc:format>image/svg+xml</dc:format>
        <dc:type
           rdf:resource="http://purl.org/dc/dcmitype/StillImage" />
        <dc:title></dc:title>
      </cc:Work>
    </rdf:RDF>
  </metadata>
  <defs
     id="defs38" />
  <sodipodi:namedview
     inkscape:current-layer="svg34"
     inkscape:window-maximized="0"
     inkscape:window-y="0"
     inkscape:window-x="0"
     inkscape:cy="149.39211"
     inkscape:cx="250.56731"
     inkscape:zoom="0.24055781"
     showgrid="false"
     id="namedview36"
     inkscape:window-height="768"
     inkscape:window-width="1366"
     inkscape:pageshadow="2"
     inkscape:pageopacity="0"
     guidetolerance="10"
     gridtolerance="10"
     objecttolerance="10"
     borderopacity="1"
     bordercolor="#666666"
     pagecolor="#ffffff" />
  <path
     style="fill:#e6e6e6;stroke-width:0.994595"
     id="path10"
     fill="#f9eac7"
     d="M 442.78868,161.24625 394.63246,101.32971 H 57.880724 L 17.933781,161.24625 C 1.5035505,185.89354 -3.951177,216.25974 2.8750024,245.08355 L 60.103022,486.71944 C 63.615182,501.53734 76.847947,512 92.073787,512 H 368.64868 c 15.22584,0 28.45861,-10.46266 31.97077,-25.28056 l 57.22801,-241.63589 c 6.82618,-28.82381 1.37145,-59.19001 -15.05878,-83.8373 z m 0,0" />
  <path
     style="fill:#cccccc;stroke-width:0.994595"
     id="path12"
     fill="#f4dbb3"
     d="M 442.78868,161.24625 394.63246,101.32971 H 57.880724 L 17.933781,161.24625 C 1.5035505,185.89354 -3.951177,216.25974 2.8750024,245.08355 L 60.106906,486.71944 C 63.615182,501.53734 76.847947,512 92.073787,512 H 142.50671 L 108.69827,245.08355 c -2.17956,-17.20726 -1.99695,-34.95066 0.3652,-51.70724 0.95963,-6.81065 4.89139,-12.81317 10.73463,-16.438 0.0272,-0.0194 0.0544,-0.035 0.0816,-0.0506 9.21165,-5.7189 15.863,-9.85269 31.02279,-9.85269 15.16757,0 21.82668,4.13379 31.03834,9.85269 10.61806,6.58919 23.83139,14.79071 48.36603,14.79071 24.52683,0 37.74018,-8.20152 48.35437,-14.79071 9.20777,-5.7189 15.86299,-9.85269 31.02279,-9.85269 15.17533,0 21.83834,4.13379 31.05776,9.85269 10.61806,6.58919 23.83528,14.79071 48.37768,14.79071 24.5385,0 37.75572,-8.20152 48.3738,-14.79071 3.86571,-2.39713 7.26909,-4.42905 10.97939,-6.05692 -1.72112,-3.27517 -3.61318,-6.47652 -5.68396,-9.58463 z m 0,0" />
  <path
     style="fill:#c03a2b;fill-opacity:1;stroke-width:0.994595"
     id="path14"
     fill="#ffc269"
     d="M 88.184766,479.14731 H 372.5377 c 7.61486,0 14.23124,-5.23327 15.98732,-12.64223 l 53.339,-225.20953 c 5.6995,-24.07229 1.19662,-49.67144 -12.35861,-70.352 L 386.75729,117.75606 H 66.672782 l -35.0711,52.60471 c -13.904895,20.85152 -18.516548,46.54779 -12.743239,70.93478 l 53.338999,225.20953 c 1.75608,7.40896 8.372463,12.64223 15.987324,12.64223 z m 0,0" />
  <path
     style="fill:#c03a2b;fill-opacity:1;stroke-width:0.994595"
     id="path16"
     fill="#ffa95f"
     d="m 434.16757,178.92749 c -1.4103,-2.73125 -2.96435,-5.39644 -4.66216,-7.98394 L 386.75729,117.75606 H 66.672782 l -35.0711,52.60471 c -13.904895,20.8554 -18.516548,46.54779 -12.743239,70.93478 l 53.338999,225.20953 c 1.75608,7.40896 8.372463,12.64223 15.987324,12.64223 H 138.34574 L 108.69827,245.08355 c -2.17956,-17.20726 -1.99695,-34.95066 0.3652,-51.70724 0.95963,-6.81065 4.89139,-12.81317 10.73463,-16.44189 0.0272,-0.0156 0.0544,-0.031 0.0816,-0.0506 9.21165,-5.71502 15.863,-9.84881 31.02279,-9.84881 15.16757,0 21.82668,4.13379 31.03834,9.85269 10.61806,6.58919 23.83139,14.78682 48.36603,14.78682 24.52683,0 37.74018,-8.20151 48.35437,-14.7907 9.20777,-5.71502 15.86299,-9.84881 31.02279,-9.84881 15.17533,0 21.83834,4.13379 31.05776,9.85269 10.61806,6.58919 23.83528,14.78682 48.37768,14.78682 22.06367,0 34.95066,-6.62026 45.04812,-12.74712 z m 0,0" />
  <path
     style="fill:#4fba6f;fill-opacity:1;stroke-width:0.994595"
     id="path18"
     fill="#ff8b5a"
     d="M 402.84174,2.7677593 H 57.880724 c -9.071786,0 -16.426344,7.3545657 -16.426344,16.4263527 v 32.852681 c 0,9.071788 7.354558,16.426353 16.426344,16.426353 H 402.84562 c 9.07178,0 16.42635,-7.354565 16.42635,-16.426353 V 19.194112 C 419.26796,10.122325 411.9174,2.7677593 402.84174,2.7677593 Z m 0,0" />
  <path
     style="fill:#4fba6f;fill-opacity:1;stroke-width:0.994595"
     id="path20"
     fill="#ff8b5a"
     d="m 456.39831,138.45605 c 4.6233,4.62332 2.20286,12.3897 -4.17652,13.84274 -24.40253,5.55962 -29.73681,22.94949 -63.10234,22.94949 -39.71772,0 -39.71772,-24.63954 -79.43544,-24.63954 -39.69053,0 -39.69053,24.63954 -79.37716,24.63954 -39.70219,0 -39.70219,-24.63954 -79.40437,-24.63954 -39.68664,0 -39.68664,24.63954 -79.377167,24.63954 -33.326676,0 -38.660964,-17.38598 -63.0324079,-22.94949 -6.375504,-1.45304 -8.79594245,-9.21553 -4.172633,-13.83885 L 34.235801,108.54441 c 4.619423,-4.61942 10.886146,-7.2147 17.42094,-7.2147 H 409.06183 c 6.5348,0 12.80152,2.59528 17.42484,7.2147 z m 0,0" />
  <path
     style="fill:#4c8056;fill-opacity:1;stroke-width:0.994595"
     id="path22"
     fill="#ff7350"
     d="m 300.57337,93.11655 h -18.01925 l 12.19155,26.9939 c 1.37145,3.03429 4.35524,4.83311 7.49053,4.83311 1.12281,0 2.27669,-0.2331 3.36842,-0.7304 4.13766,-1.86486 5.97533,-6.72906 4.10658,-10.86283 z m 0,0" />
  <path
     style="fill:#4c8056;fill-opacity:1;stroke-width:0.994595"
     id="path24"
     fill="#ff7350"
     d="M 158.33474,101.32971 H 51.660625 c -6.534794,0 -12.801515,2.59528 -17.424824,7.2147 L 4.3202721,138.45994 c -4.62330945,4.62332 -2.202871,12.38581 4.172633,13.83885 24.3714439,5.56351 29.7057319,22.95337 63.0362939,22.95337 35.253701,0 39.251511,-19.40625 67.508081,-23.74983 z m 0,0" />
  <path
     style="fill:#4fba6f;fill-opacity:1;stroke-width:0.994595"
     id="path26"
     fill="#ff8b5a"
     d="m 108.97023,93.11655 -21.150666,34.74086 c -2.358277,3.87347 -1.130573,8.92803 2.75456,11.28631 1.328716,0.81588 2.805066,1.2005 4.258106,1.2005 2.773987,0 5.47804,-1.4064 7.02433,-3.9434 l 26.34898,-43.28427 z m 0,0" />
  <path
     style="fill:#4c8056;fill-opacity:1;stroke-width:0.994595"
     id="path28"
     fill="#ff7350"
     d="M 131.79928,27.407277 V 2.7677593 H 57.880724 c -9.071786,0 -16.426344,7.3545657 -16.426344,16.4263527 v 32.852681 c 0,9.075675 7.354558,16.426353 16.426344,16.426353 H 402.84562 c 9.07178,0 16.42635,-7.354565 16.42635,-16.426353 H 156.43879 c -13.60574,0 -24.63951,-11.029892 -24.63951,-24.639516 z m 0,0" />
  <path
     style="fill:#f3b600;fill-opacity:1;stroke-width:0.994595"
     id="path30"
     fill="#9f6e50"
     d="M 394.62857,101.32971 H 66.093897 c -9.071788,0 -16.426346,-7.354549 -16.426346,-16.426336 0,-9.071787 7.354558,-16.42634 16.426346,-16.42634 H 394.63246 c 9.07178,0 16.42634,7.354553 16.42634,16.42634 -0.004,9.071787 -7.35845,16.426336 -16.43023,16.426336 z m 0,0" />
  <path
     style="fill:#f3d55b;fill-opacity:1;stroke-width:0.994595"
     id="path32"
     fill="#b57f5f"
     d="M 394.62857,68.477034 H 131.79928 c -4.53396,0 -8.21318,3.675326 -8.21318,8.213163 0,4.53395 3.67922,8.213177 8.21318,8.213177 H 411.0549 c 0,-9.071787 -7.35455,-16.42634 -16.42633,-16.42634 z m 0,0" />
  <ellipse
     ry="137.90822"
     rx="141.80394"
     cy="328.78311"
     cx="235.80357"
     id="path959"
     style="opacity:0.923;fill:#f3d55b;fill-opacity:1;stroke-width:10.2486;stroke-linecap:round;stroke-linejoin:round" />
  <g
     style="fill:none"
     transform="matrix(3.8615536,0,0,3.8615536,121.7665,212.40605)"
     fill-rule="nonzero"
     id="015---Tomato">
    <path
       fill="#e64c3c"
       d="M 45.19,37 C 45.604426,35.359964 45.875447,33.686995 46,32 46.372547,26.547156 44.438747,21.188389 40.67,17.23 40.881015,17.131916 40.98116,16.888085 40.9,16.67 40.55,15.41 39.2,14.13 36.11,13 35.62,12.82 35.15,12.66 34.7,12.52 36.716913,10.73163 38.376249,8.5768685 39.59,6.17 39.67939,5.9819167 39.645958,5.7584305 39.505441,5.6047399 39.364924,5.4510492 39.14532,5.3977773 38.95,5.47 36.26,6.53 29.45,8.91 24.74,7.93 24.899328,6.4363902 25.27667,4.9741897 25.86,3.59 25.88,3.54 25.91,3.48 25.93,3.43 25.978304,3.2918641 26.001996,3.1463243 26,3 26,1.9 24.66,1 23,1 21.826366,0.8932142 20.696592,1.4736839 20.1,2.49 20.082293,2.5249252 20.068863,2.5618586 20.06,2.6 19.262937,4.3490221 18.821061,6.2388909 18.76,8.16 14.41,8.12 9.37,6.35 7.15,5.47 6.9553436,5.3982716 6.7366273,5.4523673 6.5978496,5.6065647 6.459072,5.7607621 6.4282344,5.9839485 6.52,6.17 7.7274494,8.5835439 9.3915024,10.740021 11.42,12.52 10.97,12.66 10.5,12.82 10,13 6.91,14.13 5.56,15.41 5.21,16.67 5.1318639,16.869322 5.2130247,17.095718 5.4,17.2 1.6228693,21.165931 -0.31472226,26.536035 0.06,32 1,44.23 8.14,51.14 20.64,51.92 Z"
       id="Shape" />
    <path
       fill="#e64c3c"
       d="M 57.95,41.2 C 57.06,52.75 49.96,58.98 37.53,59 H 37.47 C 29.72,58.99 24.04,56.56 20.64,51.92 18.463914,48.752937 17.220108,45.038841 17.05,41.2 c -0.06142,-0.768552 -0.0681,-1.540499 -0.02,-2.31 0.06091,-1.060254 0.937998,-1.8891 2,-1.89 h 36.94 c 1.065255,0.0022 1.94321,0.836258 2,1.9 0.04309,0.766292 0.03641,1.534573 -0.02,2.3 z"
       id="path43" />
    <path
       fill="#fb7b76"
       d="m 48.168,41 c 1.579272,0.0025 3.046862,0.814943 3.887303,2.152017 0.840441,1.337074 0.93622,3.01181 0.253697,4.435983 -2.393,4.96 -7.279,7.4 -14.779,7.412 H 37.47 C 29.978,54.985 25.089,52.549 22.694,47.59 22.010623,46.165807 22.105818,44.490582 22.946137,43.152974 23.786455,41.815366 25.254341,41.002498 26.834,41 c 1.562126,0.03505 3.008742,0.830591 3.875,2.131 C 31.915,44.826 34.5,46 37.5,46 c 3,0 5.585,-1.174 6.786,-2.869 0.866258,-1.300409 2.312874,-2.095954 3.875,-2.131 z"
       id="path45" />
    <path
       fill="#ffffff"
       d="M 13.8,47.534 C 13.678281,47.534117 13.557588,47.51174 13.444,47.468 8.199,45.468 4.885,41.452 3.591,35.527 3.5050589,35.002334 3.8446825,34.502145 4.3640472,34.388476 4.8834119,34.274806 5.400923,34.587401 5.542,35.1 c 1.157,5.3 3.973,8.731 8.611,10.5 0.451613,0.171297 0.716245,0.640908 0.628848,1.115943 -0.0874,0.475036 -0.50184,0.819711 -0.984848,0.819057 z"
       id="path47" />
    <path
       fill="#4fba6f"
       d="m 37.23,26.25 c 0.02088,0.21778 -0.102245,0.423847 -0.303923,0.508644 C 36.724399,26.84344 36.491013,26.787271 36.35,26.62 34.04,23.81 31.75,23.34 26.78,20.86 25.789152,20.381797 24.864728,19.776719 24.03,19.06 23.37829,18.493607 23.002833,17.673434 23,16.81 c -0.0026,-1.452141 1.003223,-2.711468 2.42,-3.03 h 0.01 c 0.216511,-0.04903 0.438021,-0.07252 0.66,-0.07 h 0.09 c 1.83,0.05 4.25,0.93 6.88,4.03 0.3,0.33 0.58,0.69 0.87,1.07 1.742691,2.142018 2.881916,4.710455 3.3,7.44 z"
       id="path49" />
    <path
       fill="#4fba6f"
       d="M 19.06,11.96 C 18.01,11.31 15.85,11.08 11.42,12.52 9.3915024,10.740021 7.7274494,8.5835439 6.52,6.17 6.4282344,5.9839485 6.4590719,5.7607621 6.5978496,5.6065647 6.7366273,5.4523673 6.9553436,5.3982716 7.15,5.47 c 2.22,0.88 7.26,2.65 11.61,2.69 -0.04972,1.2740556 0.05097,2.54953 0.3,3.8 z"
       id="path51" />
    <path
       fill="#4c8056"
       d="m 40.67,17.23 c -0.107291,0.04514 -0.225163,0.059 -0.34,0.04 -2.43145,-0.297686 -4.89712,-0.138283 -7.27,0.47 -2.63,-3.1 -5.05,-3.98 -6.88,-4.03 h -0.09 c -0.01,-0.96 0.6,-3.79 8.6,-1.19 h 0.01 c 0.45,0.14 0.92,0.3 1.41,0.48 3.09,1.13 4.44,2.41 4.79,3.67 0.08116,0.218084 -0.01899,0.461916 -0.23,0.56 z"
       id="path53" />
    <path
       fill="#4fba6f"
       d="m 39.59,6.17 c -1.213751,2.4068685 -2.873087,4.56163 -4.89,6.35 h -0.01 c -8,-2.6 -8.61,0.23 -8.6,1.19 -0.221979,-0.0025 -0.443489,0.02097 -0.66,0.07 H 25.42 C 24.73211,11.91164 24.499014,9.9063318 24.74,7.93 29.45,8.91 36.26,6.53 38.95,5.47 39.14532,5.3977773 39.364924,5.4510492 39.505441,5.6047399 39.645958,5.7584305 39.67939,5.9819167 39.59,6.17 Z"
       id="path55" />
    <path
       fill="#4c8056"
       d="M 26,3 C 26.002,3.1463243 25.9783,3.2918641 25.93,3.43 25.91,3.48 25.88,3.54 25.86,3.59 25.24277,4.5549665 24.141284,5.0980069 23,5 21.34,5 20,4.1 20,3 19.999584,2.8643943 20.01982,2.7295156 20.06,2.6 20.0689,2.561859 20.08229,2.524925 20.1,2.49 20.696592,1.4736839 21.826366,0.8932142 23,1 c 1.66,0 3,0.9 3,2 z"
       id="path57" />
    <path
       fill="#4fba6f"
       d="m 23,16.81 c -0.0028,0.863434 -0.37829,1.683607 -1.03,2.25 -0.836815,0.718796 -1.764826,1.324021 -2.76,1.8 -4.96,2.48 -7.25,2.95 -9.57,5.76 C 9.4989868,26.787271 9.2656005,26.84344 9.0639226,26.758644 8.8622446,26.673847 8.7391164,26.46778 8.76,26.25 c 0.427176,-2.728722 1.569204,-5.295698 3.31,-7.44 0.3,-0.39 0.59,-0.76 0.89,-1.1 2.63,-3.07 5.03,-3.95 6.86,-4 0.06683,-0.0019 0.133699,0.0014 0.2,0.01 1.667597,0.04993 2.990523,1.421688 2.98,3.09 z"
       id="path59" />
    <path
       fill="#4c8056"
       d="m 20.02,13.72 c -0.0663,-0.0086 -0.133174,-0.01192 -0.2,-0.01 -1.83,0.05 -4.23,0.93 -6.86,4 C 10.614043,17.123343 8.1800362,16.974184 5.78,17.27 5.6490568,17.290703 5.514971,17.266003 5.4,17.2 5.2130247,17.095718 5.1318639,16.869322 5.21,16.67 5.56,15.41 6.91,14.13 10,13 c 0.5,-0.18 0.97,-0.34 1.42,-0.48 4.43,-1.44 6.59,-1.21 7.64,-0.56 0.615467,0.369188 0.982815,1.042659 0.96,1.76 z"
       id="path61" />
    <path
       fill="#24ae5f"
       d="M 25.42,13.78 C 24.003223,14.098532 22.997424,15.357859 23,16.81 23.01052,15.141688 21.687597,13.76993 20.02,13.72 20.04282,13.002659 19.675467,12.329188 19.06,11.96 18.810974,10.70953 18.710278,9.4340556 18.76,8.16 18.82106,6.2388909 19.262936,4.3490221 20.06,2.6 20.01982,2.7295156 19.99958,2.8643943 20,3 c 0,1.1 1.34,2 3,2 1.141284,0.098007 2.24277,-0.4450335 2.86,-1.41 -0.58333,1.3841897 -0.960672,2.8463902 -1.12,4.34 -0.240986,1.9763318 -0.0079,3.98164 0.68,5.85 z"
       id="path63" />
    <circle
       r="1"
       fill="#ffffff"
       cy="32"
       cx="4"
       id="Oval" />
    <g
       id="g78"
       fill="#f3d55b">
      <path
         d="M 26,48 C 25.595604,47.999914 25.231066,47.756273 25.076322,47.382655 24.921578,47.009037 25.007092,46.578994 25.293,46.293 l 2,-2 c 0.392379,-0.378972 1.016085,-0.373552 1.401819,0.01218 0.385733,0.385734 0.391153,1.00944 0.01218,1.401819 l -2,2 C 26.519507,47.894549 26.265195,47.999943 26,48 Z"
         id="path66" />
      <path
         d="M 30,51 C 29.65356,50.999815 29.331896,50.820332 29.149805,50.525606 28.967715,50.230879 28.951141,49.862902 29.106,49.553 l 1,-2 c 0.246871,-0.494295 0.847705,-0.694871 1.342,-0.448 0.494295,0.246871 0.694871,0.847705 0.448,1.342 l -1,2 C 30.726415,50.786374 30.379386,51.000556 30,51 Z"
         id="path68" />
      <path
         d="m 49,48 c -0.265195,-5.7e-5 -0.519507,-0.105451 -0.707,-0.293 l -2,-2 c -0.378972,-0.392379 -0.373552,-1.016085 0.01218,-1.401819 0.385734,-0.385733 1.00944,-0.391153 1.401819,-0.01218 l 2,2 c 0.285908,0.285994 0.371422,0.716037 0.216678,1.089655 C 49.768934,47.756273 49.404396,47.999914 49,48 Z"
         id="path70" />
      <path
         d="m 45,51 c -0.380826,0.0021 -0.729774,-0.212331 -0.9,-0.553 l -1,-2 c -0.246871,-0.494295 -0.0463,-1.095129 0.448,-1.342 0.494295,-0.246871 1.095129,-0.04629 1.342,0.448 l 1,2 c 0.154545,0.309267 0.13838,0.676424 -0.04275,0.970911 C 45.666122,50.818398 45.345728,50.998434 45,51 Z"
         id="path72" />
      <path
         d="m 35,52 c -0.552285,0 -1,-0.447715 -1,-1 v -2 c 0,-0.552285 0.447715,-1 1,-1 0.552285,0 1,0.447715 1,1 v 2 c 0,0.552285 -0.447715,1 -1,1 z"
         id="path74" />
      <path
         d="m 40,52 c -0.552285,0 -1,-0.447715 -1,-1 v -2 c 0,-0.552285 0.447715,-1 1,-1 0.552285,0 1,0.447715 1,1 v 2 c 0,0.552285 -0.447715,1 -1,1 z"
         id="path76" />
    </g>
    <path
       fill="#c03a2b"
       d="m 17.03,38.89 c -0.0481,0.769501 -0.04142,1.541448 0.02,2.31 0.170108,3.838841 1.413914,7.552937 3.59,10.72 -0.88,-0.06 -1.74,-0.14 -2.56,-0.26 -1.788915,-3.153901 -2.822621,-6.679455 -3.02,-10.3 -0.06936,-0.868305 -0.07939,-1.740331 -0.03,-2.61 0.135568,-2.109356 1.886292,-3.750659 4,-3.75 h 26.59 c -0.12,0.69 -0.26,1.35 -0.43,2 H 19.03 c -1.062002,9e-4 -1.939087,0.829746 -2,1.89 z"
       id="path80" />
  </g>
  <ellipse
     transform="rotate(-52.171322)"
     ry="22.004883"
     rx="14.416992"
     cy="447.89258"
     cx="83.95726"
     id="path961"
     style="opacity:0.923;fill:#ffffff;fill-opacity:1;stroke-width:8.50395;stroke-linecap:round;stroke-linejoin:round" />
  <ellipse
     style="opacity:0.923;fill:#ffffff;fill-opacity:1;stroke-width:5.7339;stroke-linecap:round;stroke-linejoin:round"
     id="path961-3"
     cx="50.212364"
     cy="458.7175"
     rx="9.7208529"
     ry="14.837091"
     transform="rotate(-52.171322)" />
</svg>
