<svg width="512" height="512" xmlns="http://www.w3.org/2000/svg">
 <!-- Created with Method Draw - http://github.com/duopixel/Method-Draw/ -->

 <g>
  <title>background</title>
  <rect fill="none" id="canvas_background" height="514" width="514" y="-1" x="-1"/>
  <g display="none" overflow="visible" y="0" x="0" height="100%" width="100%" id="canvasGrid">
   <rect fill="url(#gridpattern)" stroke-width="0" y="0" x="0" height="100%" width="100%"/>
  </g>
 </g>
 <g>
  <title>Layer 1</title>
  <g stroke="null" id="svg_32">
   <g stroke="null" transform="matrix(8.415459180799651,0,0,8.415459180799651,-4.48369060593609,-1.0394000149727276) " id="svg_5">
    <path stroke="null" id="svg_6" fill="#ace54b" d="m16.85897,13.036216l2.138,0.855c1.103,0.441 2.279,0.668 3.466,0.668c1.449,0 2.877,-0.337 4.173,-0.985l0.059,-0.03c1.296,-0.648 2.725,-0.985 4.174,-0.985l0.594,0c1.449,0 2.877,0.337 4.173,0.985l0.059,0.03c1.296,0.648 2.725,0.985 4.174,0.985l0.283,0c1.003,0 1.999,-0.162 2.951,-0.479l3.337,-1.112l-0.001,0c0.767,1.567 2.068,2.854 3.727,3.591c2.736,1.216 4.5,3.93 4.5,6.924l0,31.076c0,3.314 -2.686,6 -6,6l-34,0c-3.314,0 -6,-2.686 -6,-6l0,-31.076c0,-2.995 1.764,-5.708 4.5,-6.924c1.634,-0.726 2.922,-1.987 3.693,-3.523z"/>
    <path stroke="null" id="svg_7" fill="#d0f669" d="m33.50397,12.790216c-0.668,-0.149 -1.352,-0.231 -2.041,-0.231l-0.594,0c-1.449,0 -2.877,0.337 -4.173,0.985l-0.059,0.03c-1.296,0.648 -2.725,0.985 -4.174,0.985c-1.187,0 -2.363,-0.227 -3.466,-0.667l-2.138,-0.855c-0.771,1.535 -2.059,2.796 -3.693,3.522c-2.736,1.216 -4.5,3.93 -4.5,6.924l0,17.339c12.655,-4.042 22.316,-14.77 24.838,-28.032z"/>
    <path stroke="null" id="svg_8" fill="#c7e2fc" d="m46.43897,12.968216l-3.337,1.112c-0.951,0.317 -1.947,0.479 -2.95,0.479l-0.283,0c-1.449,0 -2.877,-0.337 -4.173,-0.985l-0.059,-0.03c-1.296,-0.648 -2.725,-0.985 -4.174,-0.985l-0.594,0c-1.449,0 -2.877,0.337 -4.173,0.985l-0.059,0.03c-1.296,0.648 -2.725,0.985 -4.174,0.985c-1.187,0 -2.363,-0.227 -3.466,-0.667l-2.138,-0.855c0.521,-1.036 0.807,-2.196 0.807,-3.402l0,-1.076l28,0l0,1.076c0,1.179 0.274,2.315 0.773,3.333z"/>
    <path stroke="null" id="svg_9" fill="#50761e" d="m34.48997,53.375216c5.822,-4.06 10.287,-9.8 12.807,-16.466l2.806,-7.42c0.706,-1.868 0.749,-3.924 0.122,-5.821c-0.622,-1.88 -1.96,-3.435 -3.72,-4.321c-1.952,-0.983 -4.234,-1.051 -6.24,-0.185c-2.335,1.008 -4.201,2.874 -5.219,5.218l-0.383,0.881c-3.184,7.331 -7.868,13.902 -13.745,19.285c-1.144,1.047 -1.904,2.452 -2.158,3.988c-0.363,2.195 0.348,4.432 1.911,6.006c1.493,1.504 3.591,2.229 5.686,1.965c2.921,-0.367 5.711,-1.441 8.133,-3.13z"/>
    <path stroke="null" id="svg_10" fill="#6ea22a" d="m19.70297,53.315216c0.853,0.235 1.753,0.304 2.653,0.191c2.922,-0.368 5.713,-1.442 8.134,-3.131c5.822,-4.06 10.287,-9.8 12.807,-16.466l2.806,-7.42c0.706,-1.868 0.749,-3.924 0.122,-5.821c-0.21,-0.636 -0.503,-1.234 -0.865,-1.782c-1.632,-0.503 -3.399,-0.428 -4.998,0.236c0.48,1.767 0.392,3.647 -0.258,5.367l-2.806,7.42c-2.521,6.665 -6.986,12.406 -12.807,16.466c-1.736,1.21 -3.661,2.105 -5.689,2.65l-0.009,-0.04c0.158,0.824 0.466,1.614 0.91,2.33z"/>
    <path stroke="null" id="svg_11" fill="#50761e" d="m28.84197,53.375216c-5.822,-4.06 -10.287,-9.8 -12.807,-16.466l-2.806,-7.42c-0.706,-1.868 -0.749,-3.924 -0.122,-5.821c0.622,-1.88 1.96,-3.435 3.72,-4.321c1.952,-0.983 4.234,-1.051 6.24,-0.185c2.335,1.008 4.201,2.874 5.219,5.218l0.383,0.881c3.184,7.331 7.868,13.902 13.745,19.285c1.144,1.047 1.904,2.452 2.158,3.988c0.363,2.195 -0.348,4.432 -1.911,6.006c-1.493,1.504 -3.591,2.229 -5.686,1.965c-2.921,-0.367 -5.711,-1.441 -8.133,-3.13z"/>
    <path stroke="null" id="svg_12" fill="#6ea22a" d="m43.62897,53.315216c-0.853,0.235 -1.753,0.304 -2.653,0.191c-2.922,-0.368 -5.713,-1.442 -8.134,-3.131c-5.822,-4.06 -10.287,-9.8 -12.807,-16.466l-2.806,-7.42c-0.706,-1.868 -0.749,-3.924 -0.122,-5.821c0.21,-0.636 0.503,-1.234 0.865,-1.782c1.632,-0.503 3.399,-0.428 4.998,0.236c-0.48,1.767 -0.392,3.647 0.258,5.367l2.806,7.42c2.521,6.665 6.986,12.406 12.807,16.466c1.736,1.21 3.661,2.105 5.689,2.65l0.009,-0.04c-0.158,0.824 -0.466,1.614 -0.91,2.33z"/>
    <path stroke="null" id="svg_13" fill="#758190" d="m45.66597,8.559216l-28,0c-1.105,0 -2,-0.895 -2,-2l0,-4c0,-1.105 0.895,-2 2,-2l28,0c1.105,0 2,0.895 2,2l0,4c0,1.105 -0.895,2 -2,2z"/>
    <path stroke="null" id="svg_14" fill="#8892a0" d="m45.66597,3.559216l-28,0c-1.105,0 -2,0.895 -2,2l0,1c0,1.105 0.895,2 2,2l28,0c1.105,0 2,-0.895 2,-2l0,-1c0,-1.105 -0.895,-2 -2,-2z"/>
    <g stroke="null" id="svg_15">
     <path stroke="null" id="svg_16" fill="#a8b0bc" d="m18.66597,3.558216l2,0l0,4.999l-2,0l0,-4.999z"/>
    </g>
    <g stroke="null" id="svg_17">
     <path stroke="null" id="svg_18" fill="#a8b0bc" d="m22.66597,3.558216l2,0l0,4.999l-2,0l0,-4.999z"/>
    </g>
    <g stroke="null" id="svg_19">
     <path stroke="null" id="svg_20" fill="#a8b0bc" d="m26.66597,3.558216l2,0l0,4.999l-2,0l0,-4.999z"/>
    </g>
    <g stroke="null" id="svg_21">
     <path stroke="null" id="svg_22" fill="#a8b0bc" d="m30.66597,3.558216l2,0l0,4.999l-2,0l0,-4.999z"/>
    </g>
    <g stroke="null" id="svg_23">
     <path stroke="null" id="svg_24" fill="#a8b0bc" d="m34.66597,3.558216l2,0l0,4.999l-2,0l0,-4.999z"/>
    </g>
    <g stroke="null" id="svg_25">
     <path stroke="null" id="svg_26" fill="#a8b0bc" d="m38.66597,3.558216l2,0l0,4.999l-2,0l0,-4.999z"/>
    </g>
    <g stroke="null" id="svg_27">
     <path stroke="null" id="svg_28" fill="#a8b0bc" d="m42.66597,3.558216l2,0l0,4.999l-2,0l0,-4.999z"/>
    </g>
    <g stroke="null" id="svg_29" fill="#ebf7fe">
     <path stroke="null" id="svg_30" d="m16.85997,13.036216l-0.001,0l0.001,0z"/>
     <path stroke="null" id="svg_31" d="m17.66597,8.559216l0,1.076c0,1.206 -0.286,2.366 -0.806,3.402l2.138,0.855c1.102,0.44 2.278,0.667 3.465,0.667c1.449,0 2.877,-0.337 4.173,-0.985l0.059,-0.03c1.296,-0.648 2.725,-0.985 4.174,-0.985l0.594,0c0.689,0 1.373,0.082 2.041,0.231c0.263,-1.384 0.446,-2.797 0.549,-4.231c-7.955,0 -16.387,0 -16.387,0z"/>
    </g>
   </g>
  </g>
  <ellipse stroke="null" ry="16.10001" rx="9.899998" id="svg_163" cy="302.469697" cx="417.762123" stroke-opacity="null" stroke-width="null" fill="#8cc736"/>
  <ellipse transform="rotate(-42.2511100769043 410.8045959472656,334.29992675781244) " stroke="null" ry="16.10001" rx="9.899998" id="svg_164" cy="334.299887" cx="410.804592" stroke-opacity="null" stroke-width="null" fill="#8cc736"/>
  <ellipse transform="rotate(38.03884506225586 426.3439331054686,333.69387817382824) " stroke="null" ry="16.10001" rx="9.899998" id="svg_165" cy="333.693827" cx="426.343918" stroke-opacity="null" stroke-width="null" fill="#8cc736"/>
  <ellipse transform="rotate(-42.2511100769043 411.41064453125006,365.8150634765624) " stroke="null" ry="16.10001" rx="9.899998" id="svg_166" cy="365.815039" cx="411.410652" stroke-opacity="null" stroke-width="null" fill="#8cc736"/>
  <ellipse transform="rotate(38.03884506225586 426.9499816894529,365.2090454101563) " stroke="null" ry="16.10001" rx="9.899998" id="svg_167" cy="365.208979" cx="426.949979" stroke-opacity="null" stroke-width="null" fill="#8cc736"/>
  <ellipse transform="rotate(-42.2511100769043 411.41064453125006,396.1181335449218) " stroke="null" ry="16.10001" rx="9.899998" id="svg_168" cy="396.118069" cx="411.410652" stroke-opacity="null" stroke-width="null" fill="#8cc736"/>
  <ellipse transform="rotate(38.03884506225586 426.94998168945307,395.5121154785157) " stroke="null" ry="16.10001" rx="9.899998" id="svg_169" cy="395.512008" cx="426.949979" stroke-opacity="null" stroke-width="null" fill="#8cc736"/>
  <ellipse transform="rotate(37.735172271728516 411.09548950195307,464.8939514160156) " stroke="null" ry="16.10001" rx="9.899998" id="svg_173" cy="464.893942" cx="411.095457" stroke-opacity="null" stroke-width="null" fill="#8cc736"/>
  <ellipse stroke="null" ry="16.10001" rx="9.899998" id="svg_174" cy="430.954545" cx="420.792426" stroke-opacity="null" stroke-width="null" fill="#8cc736"/>
  <ellipse transform="rotate(-32.20085144042969 425.640899658203,465.4999999999999) " stroke="null" ry="16.10001" rx="9.899998" id="svg_175" cy="465.500002" cx="425.640912" stroke-opacity="null" stroke-width="null" fill="#8cc736"/>
  <ellipse stroke="null" ry="16.10001" rx="9.899998" id="svg_176" cy="137.707788" cx="260.619255" stroke-opacity="null" stroke-width="null" fill="#8cc736"/>
  <ellipse transform="rotate(-42.2511100769043 253.6617279052734,169.5380096435547) " stroke="null" ry="16.10001" rx="9.899998" id="svg_177" cy="169.537978" cx="253.661724" stroke-opacity="null" stroke-width="null" fill="#8cc736"/>
  <ellipse transform="rotate(38.03884506225586 269.2010498046875,168.9319610595703) " stroke="null" ry="16.10001" rx="9.899998" id="svg_178" cy="168.931917" cx="269.20105" stroke-opacity="null" stroke-width="null" fill="#8cc736"/>
  <ellipse transform="rotate(-42.2511100769043 254.26777648925778,201.05314636230466) " stroke="null" ry="16.10001" rx="9.899998" id="svg_179" cy="201.05313" cx="254.267784" stroke-opacity="null" stroke-width="null" fill="#8cc736"/>
  <ellipse transform="rotate(38.03884506225586 269.8070983886718,200.4471282958984) " stroke="null" ry="16.10001" rx="9.899998" id="svg_180" cy="200.447069" cx="269.807111" stroke-opacity="null" stroke-width="null" fill="#8cc736"/>
  <ellipse stroke="null" ry="16.10001" rx="9.899998" id="svg_186" cy="364.468816" cx="112.766457" stroke-opacity="null" stroke-width="null" fill="#8cc736"/>
  <ellipse transform="rotate(-42.2511100769043 105.80892944335932,396.29901123046875) " stroke="null" ry="16.10001" rx="9.899998" id="svg_187" cy="396.299007" cx="105.808925" stroke-opacity="null" stroke-width="null" fill="#8cc736"/>
  <ellipse transform="rotate(38.03884506225586 121.34826660156244,395.69296264648443) " stroke="null" ry="16.10001" rx="9.899998" id="svg_188" cy="395.692946" cx="121.348252" stroke-opacity="null" stroke-width="null" fill="#8cc736"/>
  <ellipse transform="rotate(-42.2511100769043 106.41497802734374,427.81414794921875) " stroke="null" ry="16.10001" rx="9.899998" id="svg_189" cy="427.814159" cx="106.414986" stroke-opacity="null" stroke-width="null" fill="#8cc736"/>
  <ellipse transform="rotate(38.03884506225586 121.95431518554676,427.20812988281256) " stroke="null" ry="16.10001" rx="9.899998" id="svg_190" cy="427.208098" cx="121.954313" stroke-opacity="null" stroke-width="null" fill="#8cc736"/>
  <ellipse transform="rotate(-42.2511100769043 106.41497802734374,458.1172180175781) " stroke="null" ry="16.10001" rx="9.899998" id="svg_191" cy="458.117188" cx="106.414986" stroke-opacity="null" stroke-width="null" fill="#8cc736"/>
  <ellipse transform="rotate(38.03884506225586 121.95431518554676,457.511199951172) " stroke="null" ry="16.10001" rx="9.899998" id="svg_192" cy="457.511127" cx="121.954313" stroke-opacity="null" stroke-width="null" fill="#8cc736"/>
  <ellipse stroke="null" transform="rotate(-33.7293586730957 180.80329895019548,219.7398529052735) " ry="13.00991" rx="10.036216" id="svg_193" cy="219.739848" cx="180.803286" stroke-opacity="null" stroke-width="null" fill="#ffffff"/>
  <ellipse stroke="null" transform="rotate(-33.7293586730957 230.5942840576173,267.98107910156256) " ry="26.124353" rx="20.153072" id="svg_194" cy="267.981035" cx="230.594276" stroke-opacity="null" stroke-width="null" fill="#ffffff"/>
  <ellipse stroke="null" transform="rotate(21.278499603271484 368.9983825683592,227.5003967285156) " ry="19.240591" rx="25.20238" id="svg_195" cy="227.500386" cx="368.998393" stroke-opacity="null" stroke-width="null" fill="#ffffff"/>
  <ellipse stroke="null" transform="rotate(21.278499603271484 336.550079345703,251.47050476074213) " ry="9.203935" rx="12.017547" id="svg_197" cy="251.47052" cx="336.55009" stroke-opacity="null" stroke-width="null" fill="#ffffff"/>
  <ellipse stroke="null" transform="rotate(-38.31421661376953 93.78694152832026,273.8561096191406) " ry="11.724551" rx="9.044654" id="svg_198" cy="273.85611" cx="93.786942" stroke-opacity="null" stroke-width="null" fill="#ffffff"/>
  <ellipse stroke="null" transform="rotate(-39.10255432128906 96.55027008056629,317.57812499999994) " ry="19.094374" rx="13.686002" id="svg_199" cy="317.578085" cx="96.550258" stroke-opacity="null" stroke-width="null" fill="#ffffff"/>
  <ellipse stroke="null" transform="rotate(-38.31421661376953 385.9083862304689,415.83786010742193) " ry="6.610771" rx="5.099738" id="svg_200" cy="415.837846" cx="385.908379" stroke-opacity="null" stroke-width="null" fill="#ffffff"/>
  <ellipse stroke="null" transform="rotate(-38.31421661376953 391.0388183593753,444.54003906249994) " ry="10.79805" rx="8.329925" id="svg_201" cy="444.540027" cx="391.038855" stroke-opacity="null" stroke-width="null" fill="#ffffff"/>
 </g>
</svg>