<svg width="512" height="512" version="1.1" viewBox="0 0 135 135" xmlns="http://www.w3.org/2000/svg"><defs><clipPath id="d"><rect x="220" y="-22.3" width="20.5" height="15.5" ry="0" style="fill:#0f0;opacity:.287;paint-order:markers fill stroke"/></clipPath><clipPath id="c"><rect x="-60.2" y="9.09" width="48.8" height="146" style="fill:#0f0;opacity:.178;paint-order:markers fill stroke"/></clipPath><clipPath id="b"><rect x="-153" y="58.7" width="144" height="85.5" style="fill:#0f0;opacity:.178;paint-order:markers fill stroke"/></clipPath><clipPath id="a"><rect x="-70.8" y="58.9" width="70.7" height="77.7" style="fill:#f00;opacity:.178;paint-order:markers fill stroke"/></clipPath></defs><g transform="matrix(1.16 0 0 1.16 -5.03 -11.8)"><path d="m78.2 31.7s11.7-0.475 17.4 0.119c5.69 0.591 10.3 2.46 13.2 6.41 3.29 4.48 3.77 9.2 2.48 16.5-2.91 12.8-4.98 22.3-7.86 34.7-3.77-5.07-7.42-7.34-11.4-12.2 0 0 4.56-18.6 6.37-27.7 0.16-0.806 0.0975-2.14-0.469-2.97-0.462-0.675-1.31-1.15-2.12-1.24-4-0.444-17.6 0-17.6 0 0.0375-4.55-0.0908-9.09-0.0533-13.6z" style="fill:#c9c6ce"/><g transform="translate(-159 15.9)"><path d="m206 9.02-3.13-9.78c-0.34-1.06 0.0821-2.01 0.537-2.64 0.569-0.643 0.992-0.92 2.2-1.24 0.768-0.201 18.6-0.0858 27.8-0.0157 0.835 0.0064 2.13 0.259 2.74 1.17s0.703 2.01 0.383 3.03c-1.01 3.2-3.03 9.6-3.03 9.6z" style="fill:#cd5800"/><path transform="translate(0 15.9)" d="m206-6.86-3.13-9.78c-0.34-1.06 0.0821-2.01 0.537-2.64 0.569-0.643 0.992-0.92 2.2-1.24 0.768-0.201 18.6-0.0858 27.8-0.0157 0.835 0.0064 2.13 0.259 2.74 1.17s0.703 2.01 0.383 3.03c-1.01 3.2-3.03 9.6-3.03 9.6z" clip-path="url(#d)" style="fill:#a44500"/></g><path d="m44.3 42.5s-3.88-7.48-6.23-12.4c-0.279-0.586-0.673-2.6 6e-3 -3.69 0.7-1.12 1.96-1.54 2.77-1.57 9.57-0.323 24.6-0.203 34 0.0144 0.78 0.0182 1.89 0.15 2.58 0.925 0.85 0.957 0.883 1.87 0.871 2.49-0.0942 4.74-0.454 20.7 2.6 30.6 4.56 14.8 14.8 21.5 18.8 25.3 2.8 3.07 6.58 8.96 6.05 14-0.843 8.01-9.79 15.5-14 19.7 0 0 0.0896 4.05-0.0164 6.05-0.033 0.619-0.373 1.32-0.838 1.79-0.537 0.541-1.41 0.977-2.07 0.983-10.9 0.0988-46.1-0.0349-55-0.0121-0.609 2e-3 -1.5-0.218-2.13-0.915-0.593-0.655-0.841-1.45-0.878-1.87-0.0943-1.06-0.12-6.34-0.12-6.34-5.65-5.54-13.3-11.3-13.4-19.5 0.0177-8.24 3.69-12.2 7.91-15.4 4.02-3.01 7.45-7.12 10.4-11.3 2.54-3.66 4.72-7.67 6.09-11.9 1.76-5.42 2.86-9.86 2.62-16.9z" style="fill:#e5e5e5;opacity:.981"/><path transform="translate(122)" d="m-77.4 42.5s-3.88-7.48-6.23-12.4c-0.279-0.586-0.673-2.6 6e-3 -3.69 0.7-1.12 1.96-1.54 2.77-1.57 9.57-0.323 24.6-0.203 34 0.0144 0.78 0.0182 1.89 0.15 2.58 0.925 0.85 0.957 0.883 1.87 0.871 2.49-0.0942 4.74-0.454 20.7 2.6 30.6 4.56 14.8 14.8 21.5 18.8 25.3 2.8 3.07 6.58 8.96 6.05 14-0.843 8.01-9.79 15.5-14 19.7 0 0 0.0896 4.05-0.0164 6.05-0.033 0.619-0.373 1.32-0.838 1.79-0.537 0.541-1.41 0.977-2.07 0.983-10.9 0.0988-46.1-0.0349-55-0.0121-0.609 2e-3 -1.5-0.218-2.13-0.915-0.593-0.655-0.841-1.45-0.878-1.87-0.0943-1.06-0.12-6.34-0.12-6.34-5.65-5.54-13.3-11.3-13.4-19.5 0.0177-8.24 3.69-12.2 7.91-15.4 4.02-3.01 7.45-7.12 10.4-11.3 2.54-3.66 4.72-7.67 6.09-11.9 1.76-5.42 2.86-9.86 2.62-16.9z" clip-path="url(#c)" style="fill:#d9d9d9;opacity:.981"/><path transform="translate(132)" d="m-88 42.5s-3.88-7.48-6.23-12.4c-0.279-0.586-0.673-2.6 6e-3 -3.69 0.7-1.12 1.96-1.54 2.77-1.57 9.57-0.323 24.6-0.203 34 0.0144 0.78 0.0182 1.89 0.15 2.58 0.925 0.85 0.957 0.883 1.87 0.871 2.49-0.0942 4.74-0.454 20.7 2.6 30.6 4.56 14.8 14.8 21.5 18.8 25.3 2.8 3.07 6.58 8.96 6.05 14-0.843 8.01-9.79 15.5-14 19.7 0 0 0.0896 4.05-0.0164 6.05-0.033 0.619-0.373 1.32-0.838 1.79-0.537 0.541-1.41 0.977-2.07 0.983-10.9 0.0988-46.1-0.0349-55-0.0121-0.609 2e-3 -1.5-0.218-2.13-0.915-0.593-0.655-0.841-1.45-0.878-1.87-0.0943-1.06-0.12-6.34-0.12-6.34-5.65-5.54-13.3-11.3-13.4-19.5 0.0177-8.24 3.69-12.2 7.91-15.4 4.02-3.01 7.45-7.12 10.4-11.3 2.54-3.66 4.72-7.67 6.09-11.9 1.76-5.42 2.86-9.86 2.62-16.9z" clip-path="url(#b)" style="fill:#ff5023;opacity:.981"/><path transform="translate(132)" d="m-88 42.5s-3.88-7.48-6.23-12.4c-0.279-0.586-0.673-2.6 6e-3 -3.69 0.7-1.12 1.96-1.54 2.77-1.57 9.57-0.323 24.6-0.203 34 0.0144 0.78 0.0182 1.89 0.15 2.58 0.925 0.85 0.957 0.883 1.87 0.871 2.49-0.0942 4.74-0.454 20.7 2.6 30.6 4.56 14.8 14.8 21.5 18.8 25.3 2.8 3.07 6.58 8.96 6.05 14-0.843 8.01-9.79 15.5-14 19.7 0 0 0.0896 4.05-0.0164 6.05-0.033 0.619-0.373 1.32-0.838 1.79-0.537 0.541-1.41 0.977-2.07 0.983-10.9 0.0988-46.1-0.0349-55-0.0121-0.609 2e-3 -1.5-0.218-2.13-0.915-0.593-0.655-0.841-1.45-0.878-1.87-0.0943-1.06-0.12-6.34-0.12-6.34-5.65-5.54-13.3-11.3-13.4-19.5 0.0177-8.24 3.69-12.2 7.91-15.4 4.02-3.01 7.45-7.12 10.4-11.3 2.54-3.66 4.72-7.67 6.09-11.9 1.76-5.42 2.86-9.86 2.62-16.9z" clip-path="url(#a)" style="fill:#bd3c1a"/><circle cx="75.1" cy="96" r="10.3" style="fill:#ff7d15;paint-order:markers fill stroke"/><circle cx="68.2" cy="75.9" r="3.48" style="fill:#ff7d15;paint-order:markers fill stroke"/><circle cx="54.5" cy="110" r="3.48" style="fill:#ffa400;paint-order:markers fill stroke"/><circle cx="40.7" cy="96" r="3.48" style="fill:#ffa400;paint-order:markers fill stroke"/></g></svg>
