<svg width="512" height="512" xmlns="http://www.w3.org/2000/svg">
 <!-- Created with Method Draw - http://github.com/duopixel/Method-Draw/ -->

 <g>
  <title>background</title>
  <rect fill="none" id="canvas_background" height="514" width="514" y="-1" x="-1"/>
  <g display="none" overflow="visible" y="0" x="0" height="100%" width="100%" id="canvasGrid">
   <rect fill="url(#gridpattern)" stroke-width="0" y="0" x="0" height="100%" width="100%"/>
  </g>
 </g>
 <g>
  <title>Layer 1</title>
  <!-- Created with Method Draw - http://github.com/duopixel/Method-Draw/ -->
  <g stroke="null" id="svg_99">
   <g stroke="null" transform="matrix(1.0440986172170745,0,0,1.0603187101921845,-75.51818029061457,-135.57647365013406) " id="svg_96">
    <title stroke="null" transform="translate(1.2770293951034546,0) translate(-1.2770293951034546,0) translate(1.2770293951034546,0) translate(-1.4210854715202004e-14,-45.26979064941406) translate(1.2650196552276611,-2.842170943040401e-14) translate(1.2650196552276611,-2.842170943040401e-14) translate(1.2650196552276611,-2.842170943040401e-14) translate(1.2650196552276611,-2.842170943040401e-14) translate(-1.2650196552276611,-2.842170943040401e-14) translate(-1.2650196552276611,-2.842170943040401e-14) translate(-1.2650196552276611,-2.842170943040401e-14) translate(-23.89388656616211,90.19210052490234) translate(-1952.9998779296875,-1970.9998779296875) translate(2035.9710693359375,0) translate(0,2093.02099609375) ">background</title>
    <rect stroke="null" x="60.619354" y="165.943428" width="514" height="402" id="svg_94" fill="none"/>
    <g stroke="null" id="svg_93" display="none">
     <rect stroke="null" id="svg_97" width="512" height="512" x="61.619354" y="166.943428" stroke-width="0" fill="url(#gridpattern)"/>
    </g>
   </g>
   <g stroke="null" transform="matrix(1.0440986172170745,0,0,1.0603187101921845,-75.51818029061457,-135.57647365013406) " id="svg_98">
    <title stroke="null" transform="translate(1.2770293951034546,0) translate(-1.2770293951034546,0) translate(1.2770293951034546,0) translate(-1.4210854715202004e-14,-45.26979064941406) translate(1.2650196552276611,-2.842170943040401e-14) translate(1.2650196552276611,-2.842170943040401e-14) translate(1.2650196552276611,-2.842170943040401e-14) translate(1.2650196552276611,-2.842170943040401e-14) translate(-1.2650196552276611,-2.842170943040401e-14) translate(-1.2650196552276611,-2.842170943040401e-14) translate(-1.2650196552276611,-2.842170943040401e-14) translate(-23.89388656616211,90.19210052490234) translate(-1952.9998779296875,-1970.9998779296875) translate(2035.9710693359375,0) translate(0,2093.02099609375) ">Layer 1</title>
    <g stroke="null" id="svg_74">
     <path stroke="null" d="m322.974424,381.497608c-103.23582,68.59659 -216.95443,24.84486 -247.62306,-95.23586c103.23581,-68.58028 216.95443,-24.84812 247.62306,95.23586zm0,0" fill="#5f9548" id="svg_92"/>
     <path stroke="null" d="m318.856994,372.753788l-79.83304,-30.70451l-27.49737,-61.85927l-12.21525,5.42574l22.07163,49.65054l-21.11568,-8.12392l-22.72415,-51.12199l-12.21524,5.42574l17.30167,38.91327l-21.10915,-8.1174l-15.56922,-35.03402l-12.21525,5.43227l10.13696,22.81223l-31.44513,-12.09453l-4.80257,12.48278l31.44512,12.08801l-22.81224,10.14349l5.43227,12.21198l35.02422,-15.56922l21.10915,8.12067l-38.90674,17.29188l5.43227,12.22177l51.12199,-22.72415l21.10914,8.1174l-49.64728,22.06183l5.43226,12.21525l61.85274,-27.49409l79.83631,30.70125l4.80258,-12.473zm0,0" fill="#68a34f" id="svg_91"/>
     <path stroke="null" d="m308.762444,415.905208c-121.49017,-24.50228 -170.97432,-135.83592 -107.75128,-242.43876c121.49344,24.50228 170.97433,135.84244 107.75128,242.43876zm0,0" fill="#7eb457" id="svg_90"/>
     <path stroke="null" d="m277.297744,328.652958l24.29999,-63.17737l-12.473,-4.80584l-19.50394,50.70438l-9.18753,-20.6687l20.08469,-52.21822l-12.47626,-4.79606l-15.28864,39.73545l-9.18101,-20.65891l13.75847,-35.77463l-12.473,-4.80583l-8.96242,23.29837l-13.68343,-30.78282l-12.21525,5.42573l13.68669,30.78934l-23.30815,-8.95915l-4.79605,12.47626l35.78115,13.76499l9.18754,20.66544l-39.75176,-15.29516l-4.80258,12.48278l52.23128,20.09121l9.18101,20.65565l-50.7011,-19.49742l-4.80585,12.473l63.1839,24.30325l34.74038,78.15606l12.21198,-5.42574l-34.73711,-78.15606zm0,0" fill="#88c25e" id="svg_89"/>
     <path stroke="null" d="m361.058974,178.145038l-4.67532,-4.67859l-4.67861,4.64271c-10.70791,10.38818 -23.25595,18.69155 -37.00463,24.4827c-42.07474,18.53494 -71.90814,64.22793 -71.90814,117.87519c0,70.1137 50.85446,126.95506 113.59138,126.95506c62.73691,0 113.59137,-56.84136 113.59137,-126.95506c0,-53.64726 -29.8334,-99.34025 -71.94403,-117.87519c-13.73237,-5.78463 -26.27062,-14.07495 -36.97202,-24.44682zm0,0" fill="#95573a" id="svg_88"/>
     <path stroke="null" d="m441.743574,237.015758c-36.72405,98.53764 -117.47389,143.5879 -173.43435,163.58123c20.10426,28.88072 52.88707,46.30963 88.07442,46.82512c62.73692,0 113.59138,-56.84136 113.59138,-126.95506c0.21206,-30.19554 -9.72914,-59.58522 -28.23145,-83.45129zm0,0" fill="#8f4d2e" id="svg_87"/>
     <path stroke="null" d="m262.837814,340.512578c-6.14026,0.00979 -12.27072,0.41762 -18.35551,1.22349c9.09946,59.97022 55.66683,105.68604 111.90135,105.68604c11.119,-0.01304 22.16623,-1.83685 32.70123,-5.39963c-6.75036,-57.05017 -60.67167,-101.5099 -126.24707,-101.5099zm0,0" fill="#8f4d2e" id="svg_86"/>
     <g stroke="null" fill="#7a3b1d" id="svg_77" transform="matrix(0.8352306746648958,0,0,0.8352306746648958,-2052.3082173426806,-1551.5839202441698) ">
      <path stroke="null" d="m2875.86397,2105.358047l16,0l0,112l-16,0l0,-112zm0,0" id="svg_85"/>
      <path stroke="null" d="m2875.86397,2233.358047l16,0l0,32l-16,0l0,-32zm0,0" id="svg_84"/>
      <path stroke="null" d="m2875.86397,2281.358047l16,0l0,80l-16,0l0,-80zm0,0" id="svg_83"/>
      <path stroke="null" d="m2844.14522,2119.236957c-21.57032,79.98437 -21.57032,164.25781 0,244.24219l15.4375,-4.24219c-20.83203,-77.20703 -20.83203,-158.55469 0,-235.75781l-15.4375,-4.24219zm0,0" id="svg_82"/>
      <path stroke="null" d="m2779.54365,2241.190077l16,0.33594c0.80079,-37.69531 12,-69.03125 22.71875,-83.36719l-12.80078,-9.60156c-14.99219,20 -25.16015,56.35156 -25.91797,92.63281zm0,0" id="svg_81"/>
      <path stroke="null" d="m2908.14522,2123.479147c20.82812,77.20312 20.82812,158.55078 0,235.75781l15.4375,4.24219c21.57031,-79.98438 21.57031,-164.25782 0,-244.24219l-15.4375,4.24219zm0,0" id="svg_80"/>
      <path stroke="null" d="m2982.77412,2199.463517l-15.54297,3.78906c9.83204,41.57813 3.26172,85.34375 -18.34375,122.20313l13.95313,7.80469c23.60937,-40.3711 30.75,-88.29297 19.93359,-133.79688zm0,0" id="svg_79"/>
      <path stroke="null" d="m2977.85615,2182.748677c-4,-11.52344 -9.02343,-22.66797 -15.01562,-33.29297l-13.95313,7.80469c5.51563,9.80468 10.14844,20.08203 13.83985,30.70703l15.1289,-5.21875zm0,0" id="svg_78"/>
     </g>
     <path stroke="null" d="m80.421474,442.779408l-4.67533,4.6427l4.6427,4.6786c10.38818,10.70465 18.69155,23.25595 24.4827,37.00137c18.53495,42.07801 64.22467,71.9114 117.8752,71.9114c70.11043,0 126.95506,-50.85445 126.95506,-113.59137s-56.84463,-113.59137 -126.95506,-113.59137c-53.65053,0 -99.34025,29.83339 -117.8752,71.94403c-5.78136,13.74542 -14.07168,26.29345 -24.45007,37.00464zm0,0" fill="#a36548" id="svg_76"/>
     <path stroke="null" d="m326.100004,381.618338c-44.83491,80.79224 -147.21919,109.96334 -213.81905,121.31072c24.44355,37.00464 66.12678,58.92292 110.46579,58.08442c70.11043,0 126.95506,-50.85445 126.95506,-113.59137c-0.12725,-23.98351 -8.45345,-47.20358 -23.6018,-65.80377zm0,0" fill="#95573a" id="svg_75"/>
    </g>
    <g stroke="null" id="svg_61" transform="rotate(89.69627380371094 224.17756652832026,448.1026306152344) ">
     <g stroke="null" id="svg_62" transform="matrix(0.6361448978875195,0,0,0.6361448978875195,-1895.9651063682104,-1634.5375585312665) ">
      <g stroke="null" id="svg_73"/>
      <path stroke="null" d="m3332.798273,3155.539293c0,-28.822 -23.365,-52.187 -52.187,-52.187c-37.692,0 -62.677,38.661 -47.935,72.836c-37.013,17.987 -50.266,63.764 -29.358,98.562c-13.478,10.613 -22.142,27.064 -22.142,45.549c0,29.072 21.406,53.14 49.316,57.313c-9.689,33.444 15.449,66.726 50.118,66.726c28.822,0 52.187,-23.365 52.187,-52.187l0,-236.612l0.001,0z" fill="#ffa912" id="svg_72"/>
      <g stroke="null" fill="#fbf1cf" id="svg_68">
       <path stroke="null" d="m3264.364273,3358.346293c-4.143,0 -7.5,-3.357 -7.5,-7.5c0,-17.057 13.877,-30.934 30.934,-30.934c4.143,0 7.5,3.357 7.5,7.5s-3.357,7.5 -7.5,7.5c-8.786,0 -15.934,7.148 -15.934,15.934c0,4.142 -3.357,7.5 -7.5,7.5z" id="svg_71"/>
       <path stroke="null" d="m3272.933273,3283.652293c-4.143,0 -7.5,-3.357 -7.5,-7.5c0,-8.786 -7.147,-15.934 -15.934,-15.934c-4.143,0 -7.5,-3.357 -7.5,-7.5s3.357,-7.5 7.5,-7.5c17.057,0 30.934,13.877 30.934,30.934c0,4.142 -3.358,7.5 -7.5,7.5z" id="svg_70"/>
       <path stroke="null" d="m3282.944273,3214.416293c-1.919,0 -3.839,-0.732 -5.304,-2.196c-12.061,-12.061 -12.061,-31.687 0,-43.748c2.93,-2.928 7.678,-2.928 10.607,0c2.929,2.93 2.929,7.678 0,10.607c-6.213,6.212 -6.213,16.321 0,22.533c2.929,2.93 2.929,7.678 0,10.607c-1.464,1.465 -3.384,2.197 -5.303,2.197z" id="svg_69"/>
      </g>
      <path stroke="null" d="m3332.798273,3155.539293c0,-28.822 23.365,-52.187 52.187,-52.187c37.692,0 62.677,38.661 47.935,72.836c37.013,17.987 50.266,63.764 29.358,98.562c13.478,10.611 22.142,27.063 22.142,45.548c0,29.072 -21.406,53.14 -49.316,57.313c9.688,33.445 -15.45,66.727 -50.119,66.727c-28.822,0 -52.187,-23.365 -52.187,-52.187l0,-236.612z" fill="#ffb432" id="svg_67"/>
      <g stroke="null" fill="#f5e2a2" id="svg_63">
       <path stroke="null" d="m3401.230273,3358.346293c-4.142,0 -7.5,-3.357 -7.5,-7.5c0,-8.786 -7.147,-15.934 -15.933,-15.934c-4.143,0 -7.5,-3.357 -7.5,-7.5s3.357,-7.5 7.5,-7.5c17.057,0 30.933,13.877 30.933,30.934c0,4.142 -3.357,7.5 -7.5,7.5z" id="svg_66"/>
       <path stroke="null" d="m3392.662273,3283.652293c-4.143,0 -7.5,-3.357 -7.5,-7.5c0,-17.057 13.877,-30.934 30.934,-30.934c4.143,0 7.5,3.357 7.5,7.5s-3.357,7.5 -7.5,7.5c-8.786,0 -15.934,7.147 -15.934,15.934c0,4.142 -3.357,7.5 -7.5,7.5z" id="svg_65"/>
       <path stroke="null" d="m3382.650273,3214.416293c-1.919,0 -3.839,-0.732 -5.304,-2.196c-2.929,-2.93 -2.929,-7.678 0,-10.607c3.01,-3.009 4.667,-7.011 4.667,-11.267s-1.657,-8.258 -4.667,-11.267c-2.929,-2.93 -2.929,-7.678 0,-10.607c2.93,-2.928 7.678,-2.928 10.607,0c12.06,12.061 12.06,31.687 0,43.748c-1.464,1.464 -3.384,2.196 -5.303,2.196z" id="svg_64"/>
      </g>
     </g>
    </g>
    <g stroke="null" id="svg_49" transform="rotate(29.92963981628418 458.79135131835955,445.53158569335943) ">
     <g stroke="null" id="svg_50" transform="matrix(0.6462224717350914,0,0,0.6462224717350914,-2079.3585775678334,-1491.9593721287945) ">
      <path stroke="null" d="m3927.67185,2879.873349c0,-28.822 -23.365,-52.187 -52.187,-52.187c-37.692,0 -62.677,38.661 -47.935,72.836c-37.013,17.987 -50.266,63.764 -29.358,98.562c-13.478,10.613 -22.142,27.064 -22.142,45.549c0,29.072 21.406,53.14 49.316,57.313c-9.689,33.444 15.449,66.726 50.118,66.726c28.822,0 52.187,-23.365 52.187,-52.187l0,-236.612l0.001,0z" fill="#ffa912" id="svg_60"/>
      <g stroke="null" fill="#fbf1cf" id="svg_56">
       <path stroke="null" d="m3859.23785,3082.680349c-4.143,0 -7.5,-3.357 -7.5,-7.5c0,-17.057 13.877,-30.934 30.934,-30.934c4.143,0 7.5,3.357 7.5,7.5s-3.357,7.5 -7.5,7.5c-8.786,0 -15.934,7.148 -15.934,15.934c0,4.142 -3.357,7.5 -7.5,7.5z" id="svg_59"/>
       <path stroke="null" d="m3867.80685,3007.986349c-4.143,0 -7.5,-3.357 -7.5,-7.5c0,-8.786 -7.147,-15.934 -15.934,-15.934c-4.143,0 -7.5,-3.357 -7.5,-7.5s3.357,-7.5 7.5,-7.5c17.057,0 30.934,13.877 30.934,30.934c0,4.142 -3.358,7.5 -7.5,7.5z" id="svg_58"/>
       <path stroke="null" d="m3877.81785,2938.750349c-1.919,0 -3.839,-0.732 -5.304,-2.196c-12.061,-12.061 -12.061,-31.687 0,-43.748c2.93,-2.928 7.678,-2.928 10.607,0c2.929,2.93 2.929,7.678 0,10.607c-6.213,6.212 -6.213,16.321 0,22.533c2.929,2.93 2.929,7.678 0,10.607c-1.464,1.465 -3.384,2.197 -5.303,2.197z" id="svg_57"/>
      </g>
      <path stroke="null" d="m3927.67185,2879.873349c0,-28.822 23.365,-52.187 52.187,-52.187c37.692,0 62.677,38.661 47.935,72.836c37.013,17.987 50.266,63.764 29.358,98.562c13.478,10.611 22.142,27.063 22.142,45.548c0,29.072 -21.406,53.14 -49.316,57.313c9.688,33.445 -15.45,66.727 -50.119,66.727c-28.822,0 -52.187,-23.365 -52.187,-52.187l0,-236.612z" fill="#ffb432" id="svg_55"/>
      <g stroke="null" fill="#f5e2a2" id="svg_51">
       <path stroke="null" d="m3996.10385,3082.680349c-4.142,0 -7.5,-3.357 -7.5,-7.5c0,-8.786 -7.147,-15.934 -15.933,-15.934c-4.143,0 -7.5,-3.357 -7.5,-7.5s3.357,-7.5 7.5,-7.5c17.057,0 30.933,13.877 30.933,30.934c0,4.142 -3.357,7.5 -7.5,7.5z" id="svg_54"/>
       <path stroke="null" d="m3987.53585,3007.986349c-4.143,0 -7.5,-3.357 -7.5,-7.5c0,-17.057 13.877,-30.934 30.934,-30.934c4.143,0 7.5,3.357 7.5,7.5s-3.357,7.5 -7.5,7.5c-8.786,0 -15.934,7.147 -15.934,15.934c0,4.142 -3.357,7.5 -7.5,7.5z" id="svg_53"/>
       <path stroke="null" d="m3977.52385,2938.750349c-1.919,0 -3.839,-0.732 -5.304,-2.196c-2.929,-2.93 -2.929,-7.678 0,-10.607c3.01,-3.009 4.667,-7.011 4.667,-11.267s-1.657,-8.258 -4.667,-11.267c-2.929,-2.93 -2.929,-7.678 0,-10.607c2.93,-2.928 7.678,-2.928 10.607,0c12.06,12.061 12.06,31.687 0,43.748c-1.464,1.464 -3.384,2.196 -5.303,2.196z" id="svg_52"/>
      </g>
     </g>
    </g>
   </g>
  </g>
 </g>
</svg>