<svg width="512" height="512" version="1.1" xmlns="http://www.w3.org/2000/svg"><g transform="matrix(1.04 0 0 1.06 -75.5 -136)" stroke="null"><path d="m323 381c-103 68.6-217 24.8-248-95.2 103-68.6 217-24.8 248 95.2z" fill="#5f9548"/><path d="m319 373-79.8-30.7-27.5-61.9-12.2 5.43 22.1 49.7-21.1-8.12-22.7-51.1-12.2 5.43 17.3 38.9-21.1-8.12-15.6-35-12.2 5.43 10.1 22.8-31.4-12.1-4.8 12.5 31.4 12.1-22.8 10.1 5.43 12.2 35-15.6 21.1 8.12-38.9 17.3 5.43 12.2 51.1-22.7 21.1 8.12-49.6 22.1 5.43 12.2 61.9-27.5 79.8 30.7 4.8-12.5z" fill="#68a34f"/><path d="m309 416c-121-24.5-171-136-108-242 121 24.5 171 136 108 242z" fill="#7eb457"/><path d="m277 329 24.3-63.2-12.5-4.81-19.5 50.7-9.19-20.7 20.1-52.2-12.5-4.8-15.3 39.7-9.18-20.7 13.8-35.8-12.5-4.81-8.96 23.3-13.7-30.8-12.2 5.43 13.7 30.8-23.3-8.96-4.8 12.5 35.8 13.8 9.19 20.7-39.8-15.3-4.8 12.5 52.2 20.1 9.18 20.7-50.7-19.5-4.81 12.5 63.2 24.3 34.7 78.2 12.2-5.43-34.7-78.2z" fill="#88c25e"/><path d="m361 178-4.68-4.68-4.68 4.64c-10.7 10.4-23.3 18.7-37 24.5-42.1 18.5-71.9 64.2-71.9 118 0 70.1 50.9 127 114 127 62.7 0 114-56.8 114-127 0-53.6-29.8-99.3-71.9-118-13.7-5.78-26.3-14.1-37-24.4z" fill="#95573a"/><path d="m442 237c-36.7 98.5-117 144-173 164 20.1 28.9 52.9 46.3 88.1 46.8 62.7 0 114-56.8 114-127 0.212-30.2-9.73-59.6-28.2-83.5z" fill="#8f4d2e"/><path d="m263 341c-6.14 0.00979-12.3 0.418-18.4 1.22 9.1 60 55.7 106 112 106 11.1-0.013 22.2-1.84 32.7-5.4-6.75-57.1-60.7-102-126-102z" fill="#8f4d2e"/><g transform="matrix(.835 0 0 .835 -2052 -1552)" fill="#7a3b1d"><path d="m2876 2105h16v112h-16v-112z"/><path d="m2876 2233h16v32h-16v-32z"/><path d="m2876 2281h16v80h-16v-80z"/><path d="m2844 2119c-21.6 80-21.6 164 0 244l15.4-4.24c-20.8-77.2-20.8-159 0-236l-15.4-4.24z"/><path d="m2780 2241 16 0.336c0.801-37.7 12-69 22.7-83.4l-12.8-9.6c-15 20-25.2 56.4-25.9 92.6z"/><path d="m2908 2123c20.8 77.2 20.8 159 0 236l15.4 4.24c21.6-80 21.6-164 0-244l-15.4 4.24z"/><path d="m2983 2199-15.5 3.79c9.83 41.6 3.26 85.3-18.3 122l14 7.8c23.6-40.4 30.8-88.3 19.9-134z"/><path d="m2978 2183c-4-11.5-9.02-22.7-15-33.3l-14 7.8c5.52 9.8 10.1 20.1 13.8 30.7l15.1-5.22z"/></g><path d="m80.4 443-4.68 4.64 4.64 4.68c10.4 10.7 18.7 23.3 24.5 37 18.5 42.1 64.2 71.9 118 71.9 70.1 0 127-50.9 127-114s-56.8-114-127-114c-53.7 0-99.3 29.8-118 71.9-5.78 13.7-14.1 26.3-24.5 37z" fill="#a36548"/><path d="m326 382c-44.8 80.8-147 110-214 121 24.4 37 66.1 58.9 110 58.1 70.1 0 127-50.9 127-114-0.127-24-8.45-47.2-23.6-65.8z" fill="#95573a"/><g transform="rotate(89.7 224 448)"><g transform="matrix(.636 0 0 .636 -1896 -1635)" stroke="null"><path d="m3333 3156c0-28.8-23.4-52.2-52.2-52.2-37.7 0-62.7 38.7-47.9 72.8-37 18-50.3 63.8-29.4 98.6-13.5 10.6-22.1 27.1-22.1 45.5 0 29.1 21.4 53.1 49.3 57.3-9.69 33.4 15.4 66.7 50.1 66.7 28.8 0 52.2-23.4 52.2-52.2v-237h1e-3z" fill="#ffa912"/><g fill="#fbf1cf"><path d="m3264 3358c-4.14 0-7.5-3.36-7.5-7.5 0-17.1 13.9-30.9 30.9-30.9 4.14 0 7.5 3.36 7.5 7.5s-3.36 7.5-7.5 7.5c-8.79 0-15.9 7.15-15.9 15.9 0 4.14-3.36 7.5-7.5 7.5z"/><path d="m3273 3284c-4.14 0-7.5-3.36-7.5-7.5 0-8.79-7.15-15.9-15.9-15.9-4.14 0-7.5-3.36-7.5-7.5s3.36-7.5 7.5-7.5c17.1 0 30.9 13.9 30.9 30.9 0 4.14-3.36 7.5-7.5 7.5z"/><path d="m3283 3214c-1.92 0-3.84-0.732-5.3-2.2-12.1-12.1-12.1-31.7 0-43.7 2.93-2.93 7.68-2.93 10.6 0 2.93 2.93 2.93 7.68 0 10.6-6.21 6.21-6.21 16.3 0 22.5 2.93 2.93 2.93 7.68 0 10.6-1.46 1.46-3.38 2.2-5.3 2.2z"/></g><path d="m3333 3156c0-28.8 23.4-52.2 52.2-52.2 37.7 0 62.7 38.7 47.9 72.8 37 18 50.3 63.8 29.4 98.6 13.5 10.6 22.1 27.1 22.1 45.5 0 29.1-21.4 53.1-49.3 57.3 9.69 33.4-15.4 66.7-50.1 66.7-28.8 0-52.2-23.4-52.2-52.2v-237z" fill="#ffb432"/><g fill="#f5e2a2"><path d="m3401 3358c-4.14 0-7.5-3.36-7.5-7.5 0-8.79-7.15-15.9-15.9-15.9-4.14 0-7.5-3.36-7.5-7.5s3.36-7.5 7.5-7.5c17.1 0 30.9 13.9 30.9 30.9 0 4.14-3.36 7.5-7.5 7.5z"/><path d="m3393 3284c-4.14 0-7.5-3.36-7.5-7.5 0-17.1 13.9-30.9 30.9-30.9 4.14 0 7.5 3.36 7.5 7.5s-3.36 7.5-7.5 7.5c-8.79 0-15.9 7.15-15.9 15.9 0 4.14-3.36 7.5-7.5 7.5z"/><path d="m3383 3214c-1.92 0-3.84-0.732-5.3-2.2-2.93-2.93-2.93-7.68 0-10.6 3.01-3.01 4.67-7.01 4.67-11.3s-1.66-8.26-4.67-11.3c-2.93-2.93-2.93-7.68 0-10.6 2.93-2.93 7.68-2.93 10.6 0 12.1 12.1 12.1 31.7 0 43.7-1.46 1.46-3.38 2.2-5.3 2.2z"/></g></g></g><g transform="rotate(29.9 459 446)"><g transform="matrix(.646 0 0 .646 -2079 -1492)" stroke="null"><path d="m3928 2880c0-28.8-23.4-52.2-52.2-52.2-37.7 0-62.7 38.7-47.9 72.8-37 18-50.3 63.8-29.4 98.6-13.5 10.6-22.1 27.1-22.1 45.5 0 29.1 21.4 53.1 49.3 57.3-9.69 33.4 15.4 66.7 50.1 66.7 28.8 0 52.2-23.4 52.2-52.2v-237h1e-3z" fill="#ffa912"/><g fill="#fbf1cf"><path d="m3859 3083c-4.14 0-7.5-3.36-7.5-7.5 0-17.1 13.9-30.9 30.9-30.9 4.14 0 7.5 3.36 7.5 7.5s-3.36 7.5-7.5 7.5c-8.79 0-15.9 7.15-15.9 15.9 0 4.14-3.36 7.5-7.5 7.5z"/><path d="m3868 3008c-4.14 0-7.5-3.36-7.5-7.5 0-8.79-7.15-15.9-15.9-15.9-4.14 0-7.5-3.36-7.5-7.5s3.36-7.5 7.5-7.5c17.1 0 30.9 13.9 30.9 30.9 0 4.14-3.36 7.5-7.5 7.5z"/><path d="m3878 2939c-1.92 0-3.84-0.732-5.3-2.2-12.1-12.1-12.1-31.7 0-43.7 2.93-2.93 7.68-2.93 10.6 0 2.93 2.93 2.93 7.68 0 10.6-6.21 6.21-6.21 16.3 0 22.5 2.93 2.93 2.93 7.68 0 10.6-1.46 1.46-3.38 2.2-5.3 2.2z"/></g><path d="m3928 2880c0-28.8 23.4-52.2 52.2-52.2 37.7 0 62.7 38.7 47.9 72.8 37 18 50.3 63.8 29.4 98.6 13.5 10.6 22.1 27.1 22.1 45.5 0 29.1-21.4 53.1-49.3 57.3 9.69 33.4-15.4 66.7-50.1 66.7-28.8 0-52.2-23.4-52.2-52.2v-237z" fill="#ffb432"/><g fill="#f5e2a2"><path d="m4e3 3083c-4.14 0-7.5-3.36-7.5-7.5 0-8.79-7.15-15.9-15.9-15.9-4.14 0-7.5-3.36-7.5-7.5s3.36-7.5 7.5-7.5c17.1 0 30.9 13.9 30.9 30.9 0 4.14-3.36 7.5-7.5 7.5z"/><path d="m3988 3008c-4.14 0-7.5-3.36-7.5-7.5 0-17.1 13.9-30.9 30.9-30.9 4.14 0 7.5 3.36 7.5 7.5s-3.36 7.5-7.5 7.5c-8.79 0-15.9 7.15-15.9 15.9 0 4.14-3.36 7.5-7.5 7.5z"/><path d="m3978 2939c-1.92 0-3.84-0.732-5.3-2.2-2.93-2.93-2.93-7.68 0-10.6 3.01-3.01 4.67-7.01 4.67-11.3s-1.66-8.26-4.67-11.3c-2.93-2.93-2.93-7.68 0-10.6 2.93-2.93 7.68-2.93 10.6 0 12.1 12.1 12.1 31.7 0 43.7-1.46 1.46-3.38 2.2-5.3 2.2z"/></g></g></g></g></svg>
