<svg width="128" height="128" version="1.1" viewBox="0 0 128 128" xml:space="preserve" xmlns="http://www.w3.org/2000/svg">
<linearGradient id="SVGID_1_" x1="249" x2="599" y1="186" y2="186" gradientTransform="matrix(.251 0 0 -.251 -.632 129)" gradientUnits="userSpaceOnUse">
	<stop style="stop-color:#A7F3CE" offset="0"/>
	<stop style="stop-color:#61DB99" offset="1"/>
</linearGradient>
<path d="m97 128h-67.4c-4.91 0-9.07-3.64-9.72-8.51l-9.52-71.5c-0.782-5.88 3.79-11.1 9.72-11.1h86.5c5.93 0 10.5 5.22 9.72 11.1l-9.52 71.5c-0.648 4.87-4.8 8.51-9.72 8.51z" style="fill:url(#SVGID_1_);stroke-width:.25"/>
<linearGradient id="SVGID_2_" x1="255" x2="255" y1="93.7" y2="410" gradientTransform="matrix(.251 0 0 -.251 -.632 129)" gradientUnits="userSpaceOnUse">
	<stop style="stop-color:#61DB99;stop-opacity:0" offset="0"/>
	<stop style="stop-color:#009E74" offset="1"/>
</linearGradient>
<path d="m97 128c4.91 0 9.07-3.64 9.72-8.51l9.52-71.5c0.782-5.88-3.79-11.1-9.72-11.1h-86.5c-5.93 0-10.5 5.22-9.72 11.1l2.24 16.9 0.0702 0.0207 63.2 63.2z" style="fill:url(#SVGID_2_);stroke-width:.25"/>
<linearGradient id="SVGID_3_" x1="255" x2="255" y1="50.4" y2="-4.2" gradientTransform="matrix(.251 0 0 -.251 -.632 129)" gradientUnits="userSpaceOnUse">
	<stop style="stop-color:#61DB99;stop-opacity:0" offset="0"/>
	<stop style="stop-color:#009E74" offset="1"/>
</linearGradient>
<path d="m19.1 114 0.685 5.15c0.648 4.87 4.8 8.51 9.72 8.51h67.4c4.91 0 9.07-3.64 9.72-8.51l0.685-5.15h-88.2z" style="fill:url(#SVGID_3_);stroke-width:.25"/>
<linearGradient id="SVGID_4_" x1="255" x2="255" y1="243" y2="51.5" gradientTransform="matrix(.251 0 0 -.251 -.632 129)" gradientUnits="userSpaceOnUse">
	<stop style="stop-color:#FF4C54" offset=".035"/>
	<stop style="stop-color:#F59500" offset="1"/>
</linearGradient>
<rect x="55.2" y="36.8" width="16.2" height="91.1" style="fill:url(#SVGID_4_);stroke-width:.25"/>
<linearGradient id="SVGID_5_" x1="401" x2="280" y1="108" y2="424" gradientTransform="matrix(.251 0 0 -.251 -.632 129)" gradientUnits="userSpaceOnUse">
	<stop style="stop-color:#61DB99;stop-opacity:0" offset="0"/>
	<stop style="stop-color:#009E74" offset="1"/>
</linearGradient>
<path d="m116 47.9-9.52 71.5c-0.647 4.87-4.8 8.51-9.72 8.51h-25.6v-91.1h35.1c5.93 0 10.5 5.22 9.72 11.1z" style="fill:url(#SVGID_5_);stroke-width:.25"/>
<linearGradient id="SVGID_6_" x1="255" x2="255" y1="40.3" y2="11.6" gradientTransform="matrix(.251 0 0 -.251 -.632 129)" gradientUnits="userSpaceOnUse">
	<stop style="stop-color:#BE3F45;stop-opacity:0" offset="0"/>
	<stop style="stop-color:#BE3F45" offset="1"/>
</linearGradient>
<rect x="55.2" y="114" width="16.2" height="13.7" style="fill:url(#SVGID_6_);stroke-width:.25"/>
<linearGradient id="SVGID_7_" x1="214" x2="492" y1="368" y2="91.1" gradientTransform="matrix(.251 0 0 -.251 -.632 129)" gradientUnits="userSpaceOnUse">
	<stop style="stop-color:#A7F3CE" offset="0"/>
	<stop style="stop-color:#61DB99" offset="1"/>
</linearGradient>
<path d="m112 65h-97.4c-4.4 0-7.97-3.57-7.97-7.97v-20.3c0-4.4 3.57-7.97 7.97-7.97h97.4c4.4 0 7.97 3.57 7.97 7.97v20.3c2.4e-4 4.4-3.57 7.97-7.97 7.97z" style="fill:url(#SVGID_7_);stroke-width:.25"/>
<linearGradient id="SVGID_8_" x1="240" x2="343" y1="343" y2="239" gradientTransform="matrix(.251 0 0 -.251 -.632 129)" gradientUnits="userSpaceOnUse">
	<stop style="stop-color:#FF4C54" offset=".035"/>
	<stop style="stop-color:#F59500" offset="1"/>
</linearGradient>
<rect x="55.2" y="28.8" width="16.2" height="36.3" style="fill:url(#SVGID_8_);stroke-width:.25"/>
<linearGradient id="SVGID_9_" x1="445" x2="344" y1="122" y2="439" gradientTransform="matrix(.251 0 0 -.251 -.632 129)" gradientUnits="userSpaceOnUse">
	<stop style="stop-color:#61DB99;stop-opacity:0" offset="0"/>
	<stop style="stop-color:#009E74" offset="1"/>
</linearGradient>
<path d="m120 36.7v20.3c0 4.4-3.57 7.97-7.97 7.97h-40.6v-36.3h40.6c4.4 0 7.97 3.57 7.97 7.97z" style="fill:url(#SVGID_9_);stroke-width:.25"/>
<linearGradient id="SVGID_10_" x1="303" x2="284" y1="278" y2="456" gradientTransform="matrix(.251 0 0 -.251 -.632 129)" gradientUnits="userSpaceOnUse">
	<stop style="stop-color:#61DB99;stop-opacity:0" offset="0"/>
	<stop style="stop-color:#009E74" offset="1"/>
</linearGradient>
<path d="m100 28.8h-73.5c0.222 1.26 0.489 2.53 0.805 3.79 0.48 1.92 1.52 3.53 2.89 4.72l27.8 27.8h54c4.4 0 7.97-3.57 7.97-7.97v-8.41z" style="fill:url(#SVGID_10_);stroke-width:.25"/>
<linearGradient id="SVGID_11_" x1="195" x2="85.7" y1="404" y2="494" gradientTransform="matrix(.251 0 0 -.251 -.632 129)" gradientUnits="userSpaceOnUse">
	<stop style="stop-color:#FF4C54" offset=".035"/>
	<stop style="stop-color:#F59500" offset="1"/>
</linearGradient>
<path d="m27.3 7.09c1.39-5.57 7.5-8.55 12.8-6.23 3.76 1.66 7.38 3.84 10.7 5.66 3.11 1.71 5.35 3.44 7.4 5.15 5.08 4.24 5.08 12.1 0 16.3-2.05 1.71-4.29 3.44-7.4 5.15-3.31 1.82-6.93 4-10.7 5.66-5.26 2.32-11.4-0.658-12.8-6.23-2.13-8.51-2.13-16.9 0-25.5z" style="fill:url(#SVGID_11_);stroke-width:.25"/>
<linearGradient id="SVGID_12_" x1="190" x2="187" y1="374" y2="433" gradientTransform="matrix(.251 0 0 -.251 -.632 129)" gradientUnits="userSpaceOnUse">
	<stop style="stop-color:#BE3F45;stop-opacity:0" offset="0"/>
	<stop style="stop-color:#BE3F45" offset="1"/>
</linearGradient>
<path d="m58.2 28c1.62-1.35 2.72-3.07 3.31-4.91-9.37 0.839-24 4.01-29.5 15.4 2.42 1.29 5.39 1.53 8.13 0.315 3.76-1.66 7.38-3.84 10.7-5.66 3.11-1.71 5.35-3.44 7.4-5.15z" style="fill:url(#SVGID_12_);stroke-width:.25"/>
<linearGradient id="SVGID_13_" x1="185" x2="285" y1="425" y2="505" gradientTransform="matrix(.251 0 0 -.251 -.632 129)" gradientUnits="userSpaceOnUse">
	<stop style="stop-color:#BE3F45;stop-opacity:0" offset="0"/>
	<stop style="stop-color:#BE3F45" offset="1"/>
</linearGradient>
<path d="m34.6 19.1c0 3.75 0.444 14.1 10.8 17.1 1.88-1.02 3.7-2.07 5.43-3.03 3.11-1.71 5.35-3.44 7.4-5.15 2.85-2.38 4.1-5.88 3.76-9.24 0 0-5.41-2.92-7.82-4.09-13-6.29-19.5-0.832-19.5 4.44z" style="fill:url(#SVGID_13_);stroke-width:.25"/>
<linearGradient id="SVGID_14_" x1="315" x2="424" y1="404" y2="494" gradientTransform="matrix(.251 0 0 -.251 -.632 129)" gradientUnits="userSpaceOnUse">
	<stop style="stop-color:#FF4C54" offset=".035"/>
	<stop style="stop-color:#F59500" offset="1"/>
</linearGradient>
<path d="m99.2 7.09c-1.39-5.57-7.5-8.55-12.8-6.23-3.76 1.66-7.38 3.84-10.7 5.66-3.11 1.71-5.35 3.44-7.4 5.15-5.08 4.24-5.08 12.1 0 16.3 2.05 1.71 4.29 3.44 7.4 5.15 3.31 1.82 6.93 4 10.7 5.66 5.26 2.32 11.4-0.658 12.8-6.23 2.13-8.51 2.13-16.9 0-25.5z" style="fill:url(#SVGID_14_);stroke-width:.25"/>
<linearGradient id="SVGID_15_" x1="320" x2="323" y1="374" y2="433" gradientTransform="matrix(.251 0 0 -.251 -.632 129)" gradientUnits="userSpaceOnUse">
	<stop style="stop-color:#FF5D00;stop-opacity:0" offset="0"/>
	<stop style="stop-color:#D54003" offset="1"/>
</linearGradient>
<path d="m68.3 28c-1.62-1.35-2.72-3.07-3.31-4.91 9.37 0.839 24 4.01 29.5 15.4-2.42 1.29-5.39 1.53-8.13 0.315-3.76-1.66-7.38-3.84-10.7-5.66-3.11-1.71-5.35-3.44-7.4-5.15z" style="fill:url(#SVGID_15_);stroke-width:.25"/>
<linearGradient id="SVGID_16_" x1="325" x2="224" y1="425" y2="505" gradientTransform="matrix(.251 0 0 -.251 -.632 129)" gradientUnits="userSpaceOnUse">
	<stop style="stop-color:#BE3F45;stop-opacity:0" offset="0"/>
	<stop style="stop-color:#BE3F45" offset="1"/>
</linearGradient>
<path d="m91.9 19.1c0 3.75-0.444 14.1-10.8 17.1-1.88-1.02-3.7-2.07-5.43-3.03-3.11-1.71-5.35-3.44-7.4-5.15-2.85-2.38-4.1-5.88-3.76-9.24 0 0 5.41-2.92 7.82-4.09 13-6.29 19.5-0.832 19.5 4.44z" style="fill:url(#SVGID_16_);stroke-width:.25"/>
<linearGradient id="SVGID_17_" x1="341" x2="204" y1="416" y2="435" gradientTransform="matrix(.251 0 0 -.251 -.632 129)" gradientUnits="userSpaceOnUse">
	<stop style="stop-color:#BE3F45;stop-opacity:0" offset="0"/>
	<stop style="stop-color:#BE3F45" offset="1"/>
</linearGradient>
<path d="m68.3 28c2.05 1.71 4.29 3.44 7.4 5.15 3.31 1.82 6.93 4 10.7 5.66 4.43 1.96 9.47 0.146 11.8-3.81l-24.3-24.3c-0.601-0.65-1.26-1.24-1.97-1.77-1.32 0.929-2.49 1.86-3.59 2.78-5.08 4.24-5.08 12.1 0 16.3z" style="fill:url(#SVGID_17_);stroke-width:.25"/>
<linearGradient id="SVGID_18_" x1="200" x2="287" y1="488" y2="401" gradientTransform="matrix(.251 0 0 -.251 -.632 129)" gradientUnits="userSpaceOnUse">
	<stop style="stop-color:#F59500" offset="0"/>
	<stop style="stop-color:#FF4C54" offset=".966"/>
</linearGradient>
<circle cx="63.3" cy="20.5" r="14.5" style="fill:url(#SVGID_18_);stroke-width:.25"/>















</svg>
