<?xml version="1.0" encoding="UTF-8" standalone="no"?>
<svg
   xmlns:dc="http://purl.org/dc/elements/1.1/"
   xmlns:cc="http://creativecommons.org/ns#"
   xmlns:rdf="http://www.w3.org/1999/02/22-rdf-syntax-ns#"
   xmlns:svg="http://www.w3.org/2000/svg"
   xmlns="http://www.w3.org/2000/svg"
   xmlns:xlink="http://www.w3.org/1999/xlink"
   xmlns:sodipodi="http://sodipodi.sourceforge.net/DTD/sodipodi-0.dtd"
   xmlns:inkscape="http://www.inkscape.org/namespaces/inkscape"
   inkscape:version="1.0 (4035a4f, 2020-05-01)"
   sodipodi:docname="method-draw-image (68).svg"
   id="svg36274"
   version="1.1"
   height="1080"
   width="1080">
  <metadata
     id="metadata36280">
    <rdf:RDF>
      <cc:Work
         rdf:about="">
        <dc:format>image/svg+xml</dc:format>
        <dc:type
           rdf:resource="http://purl.org/dc/dcmitype/StillImage" />
      </cc:Work>
    </rdf:RDF>
  </metadata>
  <defs
     id="defs36278">
    <linearGradient
       id="linearGradient36847"
       inkscape:collect="always">
      <stop
         id="stop36843"
         offset="0"
         style="stop-color:#9a4121;stop-opacity:1;" />
      <stop
         id="stop36845"
         offset="1"
         style="stop-color:#7e3a1a;stop-opacity:1" />
    </linearGradient>
    <linearGradient
       gradientUnits="userSpaceOnUse"
       y2="5733.9648"
       x2="5520.8134"
       y1="5733.9648"
       x1="5213.8614"
       id="linearGradient36849"
       xlink:href="#linearGradient36847"
       inkscape:collect="always" />
  </defs>
  <sodipodi:namedview
     inkscape:current-layer="svg_267"
     inkscape:window-maximized="0"
     inkscape:window-y="0"
     inkscape:window-x="0"
     inkscape:cy="816.91289"
     inkscape:cx="1105.302"
     inkscape:zoom="0.32420648"
     showgrid="false"
     id="namedview36276"
     inkscape:window-height="768"
     inkscape:window-width="1366"
     inkscape:pageshadow="2"
     inkscape:pageopacity="0"
     guidetolerance="10"
     gridtolerance="10"
     objecttolerance="10"
     borderopacity="1"
     bordercolor="#666666"
     pagecolor="#ffffff" />
  <g
     id="g36204"
     stroke="null">
    <title
       id="title36201">background</title>
    <rect
       stroke="null"
       fill="none"
       id="canvas_background"
       height="1082"
       width="1082"
       y="-1"
       x="-1" />
  </g>
  <g
     id="g36272"
     stroke="null">
    <title
       id="title36206">Layer 1</title>
    <g
       id="svg_278"
       stroke="null">
      <g
         transform="matrix(2.0948245609155745,0,0,2.0948245609155745,-10692.450710950909,-11470.876507005169) "
         id="svg_267"
         stroke="null">
        <path
           id="svg_268"
           fill="#617881"
           d="m5551.716439,5733.964766c0,66.513 -1.99,133.672 -5.933,200.587c-1.566,26.58 -22.549,47.865 -49.085,50.06c-86.163,7.129 -172.746,7.139 -258.737,0.018c-26.532,-2.197 -47.511,-23.482 -49.077,-50.058c-3.937,-66.814 -5.928,-134.087 -5.928,-200.607s1.991,-133.793 5.928,-200.608c1.566,-26.576 22.546,-47.861 49.077,-50.058c85.991,-7.121 172.573,-7.111 258.737,0.018c26.535,2.195 47.518,23.481 49.085,50.06c3.942,66.916 5.933,134.075 5.933,200.588z"
           stroke="null" />
        <path
           id="svg_269"
           fill="#404a4a"
           d="m5213.161439,5527.300766c-3.4,68.837 -5.12,138.137 -5.12,206.664s1.72,137.828 5.12,206.664c0.917,18.533 9.529,34.583 22.108,43.711c-25.25,-3.369 -44.864,-24.096 -46.379,-49.768c-3.946,-66.817 -5.934,-134.088 -5.934,-200.607s1.988,-133.79 5.934,-200.607c1.514,-25.672 21.129,-46.399 46.379,-49.768c-12.579,9.127 -21.191,25.177 -22.108,43.711z"
           stroke="null" />
        <path
           style="fill-opacity:1;fill:url(#linearGradient36849)"
           id="svg_270"
           fill="#9a4121"
           d="m5520.813439,5733.964766c0,57.123 -1.978,115.298 -5.882,172.885c-0.649,9.642 -9.591,17.533 -20.779,18.337c-42.093,3.029 -84.825,4.564 -127.021,4.564c-42.114,0 -84.722,-1.535 -126.619,-4.554c-11.188,-0.803 -20.119,-8.684 -20.779,-18.327c-3.894,-57.535 -5.872,-115.71 -5.872,-172.905s1.978,-115.37 5.872,-172.906c0.659,-9.642 9.591,-17.523 20.779,-18.327c7.314,-0.526 14.639,-1.01 21.994,-1.442c34.758,-2.06 69.857,-3.111 104.625,-3.111c34.872,0 70.104,1.051 105.037,3.121c7.345,0.433 14.68,0.917 21.984,1.442c11.188,0.804 20.13,8.695 20.779,18.337c3.904,57.588 5.882,115.762 5.882,172.886z"
           stroke="null" />
        <path
           id="svg_272"
           fill="#404a4a"
           d="m5414.659439,5517.273766l-94.646,0c-4.267,0 -7.726,-3.459 -7.726,-7.726s3.459,-7.726 7.726,-7.726l94.646,0c4.267,0 7.726,3.459 7.726,7.726s-3.459,7.726 -7.726,7.726z"
           stroke="null" />
        <path
           id="svg_273"
           fill="#404a4a"
           d="m5439.366439,5517.275766c-7.004,0 -10.361,-9.008 -5.044,-13.579c2.711,-2.331 6.765,-2.48 9.642,-0.358c2.397,1.768 3.58,4.882 2.961,7.795c-0.749,3.523 -3.944,6.142 -7.559,6.142z"
           stroke="null" />
        <g
           transform="matrix(0.47736694,0,0,0.47736694,5354.3187,6039.4691)"
           id="g37833">
          <path
             fill="#f4e8d7"
             d="m 30.51136,-997.5096 c -7.89839,-9.25 42.20848,-40.0468 59.22954,-40.3216 17.02072,-0.2751 55.81201,129.3967 12.36734,138.32172 -18.62879,3.82814 -118.54465,10.23492 -193.70443,-1.06432 -15.7078,-2.36169 -16.47023,-40.20342 -6.8568,-54.65938 12.90734,-19.41432 42.34773,-13.65279 62.2538,-6.37555 44.4604498,16.25386 73.65393,29.06544 85.54516,10.91686 9.27482,-14.15576 -10.93555,-37.56733 -18.83461,-46.81773 z"
             id="be"
             style="stroke-width:0.339612" />
          <ellipse
             fill="#f4e8d7"
             id="noq"
             cx="24.990356"
             cy="-846.40961"
             rx="33.410366"
             ry="32.366295"
             style="stroke-width:0.339612" />
        </g>
      </g>
    </g>
    <!-- Created with Method Draw - http://github.com/duopixel/Method-Draw/ -->
    <g
       stroke="null"
       id="svg_262">
      <g
         stroke="null"
         transform="rotate(-1.6158860921859741 -3581.3806152344055,-3967.802246093756) matrix(2.180715652093915,0,0,2.180715652093915,-3581.4825194896534,-3967.710529379755) "
         id="svg_260">
        <title
           id="title36215">background</title>
        <g
           stroke="null"
           display="none"
           id="svg_256">
          <rect
             stroke="null"
             fill="url(#gridpattern)"
             stroke-width="0"
             y="1858.254685"
             x="1565.418385"
             height="512"
             width="512"
             id="svg_257" />
        </g>
      </g>
    </g>
    <!-- Created with Method Draw - http://github.com/duopixel/Method-Draw/ -->
    <!-- Created with Method Draw - http://github.com/duopixel/Method-Draw/ -->
    <g
       id="svg_39"
       stroke="null">
      <path
         d="m846.052921,526.350631l-589.320751,0c-8.136016,0 -14.733094,6.597078 -14.733094,14.733106l0,176.795555c0,8.136016 6.597078,14.733106 14.733094,14.733106l589.320751,0c8.136028,0 14.733106,-6.59709 14.733106,-14.733106l0,-176.795555c0,-8.136028 -6.59543,-14.733106 -14.733106,-14.733106z"
         fill="#FFFFFF"
         id="svg_12"
         stroke="null" />
      <g
         id="svg_13"
         transform="matrix(1.652990185449095,0,0,1.652990185449095,-18844.32770186309,-19772.378686397562) "
         stroke="null">
        <path
           d="m11608.93634,12369.134551c-4.922,0 -8.913,-3.991 -8.913,-8.913l0,-35.651c0,-4.922 3.991,-8.913 8.913,-8.913c4.922,0 8.913,3.991 8.913,8.913l0,35.652c0,4.922 -3.99,8.912 -8.913,8.912z"
           fill="#88898E"
           id="svg_14"
           stroke="null" />
        <path
           d="m11698.06634,12369.134551c-4.922,0 -8.913,-3.991 -8.913,-8.913l0,-35.651c0,-4.922 3.991,-8.913 8.913,-8.913c4.922,0 8.913,3.991 8.913,8.913l0,35.652c0,4.922 -3.99,8.912 -8.913,8.912z"
           fill="#88898E"
           id="svg_15"
           stroke="null" />
        <path
           d="m11733.71834,12369.134551c-4.922,0 -8.913,-3.991 -8.913,-8.913l0,-35.651c0,-4.922 3.991,-8.913 8.913,-8.913s8.913,3.991 8.913,8.913l0,35.652c0,4.922 -3.991,8.912 -8.913,8.912z"
           fill="#88898E"
           id="svg_16"
           stroke="null" />
        <path
           d="m11769.37034,12369.134551c-4.922,0 -8.913,-3.991 -8.913,-8.913l0,-35.651c0,-4.922 3.991,-8.913 8.913,-8.913s8.913,3.991 8.913,8.913l0,35.652c0,4.922 -3.991,8.912 -8.913,8.912z"
           fill="#88898E"
           id="svg_17"
           stroke="null" />
        <path
           d="m11858.49834,12369.134551c-4.922,0 -8.913,-3.991 -8.913,-8.913l0,-35.651c0,-4.922 3.991,-8.913 8.913,-8.913s8.913,3.991 8.913,8.913l0,35.652c0,4.922 -3.989,8.912 -8.913,8.912z"
           fill="#88898E"
           id="svg_18"
           stroke="null" />
      </g>
      <path
         d="m809.437539,894.243436c-3.770465,0 -7.540943,-1.438101 -10.418793,-4.314314l-83.34211,-83.34211c-5.755711,-5.752402 -5.755711,-15.081874 0,-20.834288c5.752402,-5.752402 15.081874,-5.752402 20.834288,0l83.34211,83.34211c5.755711,5.752414 5.755711,15.081886 0,20.834288c-2.872904,2.874553 -6.64337,4.314314 -10.415496,4.314314z"
         fill="#4C4E55"
         id="svg_19"
         stroke="null" />
      <path
         d="m963.229025,960.292073l-149.250939,-146.564255c-6.770959,-6.652933 -18.104549,-6.652933 -24.87352,0l-49.748992,48.853467c-6.871602,6.744013 -6.871602,17.681732 0,24.425758l149.250939,146.564243c20.340465,19.974315 54.285987,19.976255 74.624488,0c20.338489,-19.972376 20.336525,-53.304897 -0.001976,-73.279212z"
         fill="#80c904"
         id="svg_20"
         stroke="null" />
      <path
         d="m904.301387,1008.653049l-150.153458,-146.451321c-2.90265,-2.831073 -4.570389,-6.403815 -5.034964,-10.090813l-10.883937,10.613655c-6.913154,6.738825 -6.913154,17.668108 0,24.406933l150.153458,146.451321c20.463472,19.958933 54.614257,19.960873 75.075741,0c6.637176,-6.475465 11.086448,-14.362605 13.417298,-22.731909c-20.650092,17.679732 -52.912772,16.98067 -72.574138,-2.197866z"
         fill="#6faf00"
         id="svg_21"
         stroke="null" />
      <path
         d="m551.3942,379.019616c-138.327171,0 -250.461075,112.135552 -250.461075,250.461075s112.135552,250.461075 250.461075,250.461075s250.461075,-112.135552 250.461075,-250.461075s-112.135552,-250.461075 -250.461075,-250.461075zm0,397.792089c-81.36844,0 -147.331015,-65.960926 -147.331015,-147.331015s65.960926,-147.331015 147.331015,-147.331015s147.331015,65.960914 147.331015,147.331015s-65.964223,147.331015 -147.331015,147.331015z"
         fill="#74757B"
         id="svg_22"
         stroke="null" />
      <path
         d="m551.3942,437.952017c-105.779798,0 -191.528661,85.750524 -191.528661,191.528673s85.750512,191.528661 191.528661,191.528661s191.528673,-85.750512 191.528673,-191.528661s-85.750524,-191.528673 -191.528673,-191.528673zm0,338.859688c-81.36844,0 -147.331015,-65.960926 -147.331015,-147.331015s65.960926,-147.331015 147.331015,-147.331015s147.331015,65.960914 147.331015,147.331015c-0.001649,81.370089 -65.964223,147.331015 -147.331015,147.331015z"
         fill="#606268"
         id="svg_23"
         stroke="null" />
      <g
         id="svg_24"
         transform="matrix(1.652990185449095,0,0,1.652990185449095,-18844.32770186309,-19772.378686397562) "
         stroke="null" />
      <g
         id="svg_25"
         transform="matrix(1.652990185449095,0,0,1.652990185449095,-18844.32770186309,-19772.378686397562) "
         stroke="null" />
      <g
         id="svg_26"
         transform="matrix(1.652990185449095,0,0,1.652990185449095,-18844.32770186309,-19772.378686397562) "
         stroke="null" />
      <g
         id="svg_27"
         transform="matrix(1.652990185449095,0,0,1.652990185449095,-18844.32770186309,-19772.378686397562) "
         stroke="null" />
      <g
         id="svg_28"
         transform="matrix(1.652990185449095,0,0,1.652990185449095,-18844.32770186309,-19772.378686397562) "
         stroke="null" />
      <g
         id="svg_29"
         transform="matrix(1.652990185449095,0,0,1.652990185449095,-18844.32770186309,-19772.378686397562) "
         stroke="null" />
      <g
         id="svg_30"
         transform="matrix(1.652990185449095,0,0,1.652990185449095,-18844.32770186309,-19772.378686397562) "
         stroke="null" />
      <g
         id="svg_31"
         transform="matrix(1.652990185449095,0,0,1.652990185449095,-18844.32770186309,-19772.378686397562) "
         stroke="null" />
      <g
         id="svg_32"
         transform="matrix(1.652990185449095,0,0,1.652990185449095,-18844.32770186309,-19772.378686397562) "
         stroke="null" />
      <g
         id="svg_33"
         transform="matrix(1.652990185449095,0,0,1.652990185449095,-18844.32770186309,-19772.378686397562) "
         stroke="null" />
      <g
         id="svg_34"
         transform="matrix(1.652990185449095,0,0,1.652990185449095,-18844.32770186309,-19772.378686397562) "
         stroke="null" />
      <g
         id="svg_35"
         transform="matrix(1.652990185449095,0,0,1.652990185449095,-18844.32770186309,-19772.378686397562) "
         stroke="null" />
      <g
         id="svg_36"
         transform="matrix(1.652990185449095,0,0,1.652990185449095,-18844.32770186309,-19772.378686397562) "
         stroke="null" />
      <g
         id="svg_37"
         transform="matrix(1.652990185449095,0,0,1.652990185449095,-18844.32770186309,-19772.378686397562) "
         stroke="null" />
      <g
         id="svg_38"
         transform="matrix(1.652990185449095,0,0,1.652990185449095,-18844.32770186309,-19772.378686397562) "
         stroke="null" />
    </g>
  </g>
</svg>
