<?xml version="1.0" encoding="UTF-8" standalone="no"?>
<svg
   xmlns:dc="http://purl.org/dc/elements/1.1/"
   xmlns:cc="http://creativecommons.org/ns#"
   xmlns:rdf="http://www.w3.org/1999/02/22-rdf-syntax-ns#"
   xmlns:svg="http://www.w3.org/2000/svg"
   xmlns="http://www.w3.org/2000/svg"
   xmlns:xlink="http://www.w3.org/1999/xlink"
   xmlns:sodipodi="http://sodipodi.sourceforge.net/DTD/sodipodi-0.dtd"
   xmlns:inkscape="http://www.inkscape.org/namespaces/inkscape"
   width="1080"
   height="1080"
   version="1.1"
   id="svg32950"
   sodipodi:docname="method-draw-image (63).svg"
   inkscape:version="1.0 (4035a4f, 2020-05-01)">
  <metadata
     id="metadata32956">
    <rdf:RDF>
      <cc:Work
         rdf:about="">
        <dc:format>image/svg+xml</dc:format>
        <dc:type
           rdf:resource="http://purl.org/dc/dcmitype/StillImage" />
      </cc:Work>
    </rdf:RDF>
  </metadata>
  <defs
     id="defs32954">
    <linearGradient
       inkscape:collect="always"
       id="linearGradient33523">
      <stop
         style="stop-color:#80c904;stop-opacity:1"
         offset="0"
         id="stop33519" />
      <stop
         style="stop-color:#fedb41;stop-opacity:1"
         offset="1"
         id="stop33521" />
    </linearGradient>
    <linearGradient
       gradientTransform="translate(-48.513607)"
       inkscape:collect="always"
       xlink:href="#linearGradient33523"
       id="linearGradient33525"
       x1="17796.464"
       y1="18326.726"
       x2="18070.744"
       y2="18135.369"
       gradientUnits="userSpaceOnUse" />
  </defs>
  <sodipodi:namedview
     inkscape:document-rotation="0"
     pagecolor="#ffffff"
     bordercolor="#666666"
     borderopacity="1"
     objecttolerance="10"
     gridtolerance="10"
     guidetolerance="10"
     inkscape:pageopacity="0"
     inkscape:pageshadow="2"
     inkscape:window-width="1366"
     inkscape:window-height="768"
     id="namedview32952"
     showgrid="false"
     inkscape:zoom="0.36037021"
     inkscape:cx="440.0188"
     inkscape:cy="493.83394"
     inkscape:window-x="0"
     inkscape:window-y="0"
     inkscape:window-maximized="0"
     inkscape:current-layer="g1414" />
  <!-- Created with Method Draw - http://github.com/duopixel/Method-Draw/ -->
  <g
     transform="translate(-102)"
     id="g32834">
    <title
       id="title32828">background</title>
    <rect
       fill="none"
       id="canvas_background"
       height="1082"
       width="1082"
       y="-1"
       x="-1" />
    <g
       display="none"
       overflow="visible"
       y="0"
       x="0"
       height="100%"
       width="100%"
       id="canvasGrid">
      <rect
         fill="url(#gridpattern)"
         stroke-width="0"
         y="0"
         x="0"
         height="100%"
         width="100%"
         id="rect32831" />
    </g>
  </g>
  <g
     id="g32948">
    <title
       id="title32836">Layer 1</title>
    <g
       stroke="null"
       id="svg_204">
      <g
         stroke="null"
         transform="matrix(1.1882554,0,0,1.1882554,-26646.556,-26479.509)"
         id="svg_202">
        <title
           stroke="null"
           transform="translate(21.039247512817383,3.637978807091713e-12) translate(21.039247512817383,3.637978807091713e-12) translate(0,-2.113196849822998) translate(-1091.64306640625,-1096.84130859375) translate(23425.73828125,0) translate(0,23371.736328125) "
           id="title32838">background</title>
        <rect
           stroke="null"
           x="22375.174"
           y="22271.781"
           width="851"
           height="959"
           id="svg_200"
           fill="none" />
      </g>
      <g
         stroke="null"
         transform="matrix(1.1882554231171176,0,0,1.1882554231171176,-26544.555668534027,-26479.508524680394) "
         id="svg_203">
        <title
           stroke="null"
           transform="translate(21.039247512817383,3.637978807091713e-12) translate(21.039247512817383,3.637978807091713e-12) translate(0,-2.113196849822998) translate(-1091.64306640625,-1096.84130859375) translate(23425.73828125,0) translate(0,23371.736328125) "
           id="title32842">Layer 1</title>
        <g
           stroke="null"
           id="svg_193">
          <g
             stroke="null"
             id="svg_194"
             transform="matrix(1.7694031262520815,0,0,1.7694031262520815,-8996.976267698452,-9688.229646640742) ">
            <path
               stroke="null"
               d="m 18085.81,18326.726 c 0,66.513 -1.99,133.672 -5.933,200.587 -1.566,26.58 -22.549,47.865 -49.085,50.06 -86.163,7.129 -172.746,7.139 -258.737,0.02 -26.532,-2.197 -47.511,-23.482 -49.077,-50.058 -3.937,-66.814 -5.928,-134.087 -5.928,-200.607 0,-66.52 1.991,-133.793 5.928,-200.608 1.566,-26.576 22.546,-47.861 49.077,-50.058 85.991,-7.121 172.573,-7.111 258.737,0.02 26.535,2.195 47.518,23.481 49.085,50.06 3.942,66.916 5.933,134.075 5.933,200.588 z"
               fill="#617881"
               id="svg_199" />
            <path
               stroke="null"
               d="m 17747.255,18120.062 c -3.4,68.837 -5.12,138.137 -5.12,206.664 0,68.527 1.72,137.828 5.12,206.664 0.917,18.533 9.529,34.583 22.108,43.711 -25.25,-3.369 -44.864,-24.096 -46.379,-49.768 -3.946,-66.817 -5.934,-134.088 -5.934,-200.607 0,-66.519 1.988,-133.79 5.934,-200.607 1.514,-25.672 21.129,-46.399 46.379,-49.768 -12.579,9.127 -21.191,25.177 -22.108,43.711 z"
               fill="#404a4a"
               id="svg_198" />
            <path
               stroke="null"
               d="m 18054.907,18326.726 c 0,57.123 -1.978,115.298 -5.882,172.885 -0.649,9.642 -9.591,17.533 -20.779,18.337 -42.093,3.029 -84.825,4.564 -127.021,4.564 -42.114,0 -84.722,-1.535 -126.619,-4.554 -11.188,-0.803 -20.119,-8.684 -20.779,-18.327 -3.894,-57.535 -5.872,-115.71 -5.872,-172.905 0,-57.195 1.978,-115.37 5.872,-172.906 0.659,-9.642 9.591,-17.523 20.779,-18.327 7.314,-0.526 14.639,-1.01 21.994,-1.442 34.758,-2.06 69.857,-3.111 104.625,-3.111 34.872,0 70.104,1.051 105.037,3.121 7.345,0.433 14.68,0.917 21.984,1.442 11.188,0.804 20.13,8.695 20.779,18.337 3.904,57.588 5.882,115.762 5.882,172.886 z"
               fill="#f4e8d7"
               id="svg_197"
               style="fill:url(#linearGradient33525);fill-opacity:1" />
            <path
               stroke="null"
               d="m 17948.753,18110.035 h -94.646 c -4.267,0 -7.726,-3.459 -7.726,-7.726 0,-4.267 3.459,-7.726 7.726,-7.726 h 94.646 c 4.267,0 7.726,3.459 7.726,7.726 0,4.267 -3.459,7.726 -7.726,7.726 z"
               fill="#404a4a"
               id="svg_196" />
            <path
               stroke="null"
               d="m 17973.46,18110.037 c -7.004,0 -10.361,-9.008 -5.044,-13.579 2.711,-2.331 6.765,-2.48 9.642,-0.358 2.397,1.768 3.58,4.882 2.961,7.795 -0.749,3.523 -3.944,6.142 -7.559,6.142 z"
               fill="#404a4a"
               id="svg_195" />
            <g
               transform="matrix(0.20069397,0,0,0.20069397,18080.579,18213.897)"
               id="g1414">
              <title
                 id="title1387">Layer 1</title>
              <!-- Created with Method Draw - http://github.com/duopixel/Method-Draw/ -->
              <!-- Created with Method Draw - http://github.com/duopixel/Method-Draw/ -->
              <g
                 transform="matrix(-1,0,0,1,933.15047,37.918319)"
                 stroke="null"
                 id="svg_625">
                <g
                   stroke="null"
                   id="svg_607"
                   transform="matrix(-2.1715065,0,0,1.8961258,9164.3968,-8845.5193)">
                  <path
                     stroke="null"
                     d="m 4093.4719,4843.5708 c -1.316,12.002 -11.038,21.379 -23.085,22.222 -0.996,0.07 -1.987,0.141 -2.977,0.204 -7.346,0.498 -13.056,6.598 -13.056,13.963 v 27.837 c 0,9.364 -10.718,14.679 -18.166,9.007 -13.593,-10.354 -31.676,-25.755 -42.771,-41.724 -2.625,-3.782 -6.962,-5.985 -11.568,-5.96 -34.161,0.172 -68.322,-0.926 -102.483,-3.328 -9.524,-0.664 -17.611,-6.649 -21.213,-15.068 -0.958,-2.21 -1.597,-4.599 -1.872,-7.097 -5.059,-46.214 -5.059,-92.435 0,-138.655 1.316,-11.99 11.044,-21.322 23.072,-22.165 50.89,-3.571 101.773,-4.286 152.657,-2.146 12.788,0.53 25.582,1.246 38.37,2.146 12.034,0.843 21.769,10.175 23.085,22.165 5.06,46.202 5.06,92.397 0.01,138.599 z"
                     fill="#ffc431"
                     id="svg_610" />
                  <path
                     stroke="null"
                     d="m 3889.0619,4866.4418 c -3.235,-0.206 -6.459,-0.422 -9.694,-0.649 -9.519,-0.659 -17.606,-6.645 -21.211,-15.061 -0.958,-2.215 -1.597,-4.605 -1.875,-7.098 -5.058,-46.213 -5.058,-92.437 0,-138.661 1.319,-11.981 11.043,-21.314 23.076,-22.159 4.543,-0.319 9.096,-0.618 13.639,-0.886 -6.706,4.213 -11.404,11.332 -12.321,19.656 -5.408,49.407 -5.408,98.824 0,148.221 0.299,2.668 0.979,5.223 1.998,7.592 1.484,3.451 3.668,6.531 6.388,9.045 z"
                     fill="#fcb431"
                     id="svg_611" />
                </g>
              </g>
              <!-- Created with Method Draw - http://github.com/duopixel/Method-Draw/ -->
              <g
                 stroke="null"
                 id="svg_654"
                 transform="matrix(1.0693948,0.27136166,-0.27136166,1.0693948,288.86265,-21.683461)">
                <g
                   stroke="null"
                   id="svg_651"
                   transform="matrix(1.2505995,0,0,1.2505995,-12231.119,-10619.318)">
                  <title
                     stroke="null"
                     transform="translate(0.69612717628479,1.1623423099517822) translate(-18.07204818725586,0) translate(4.137662887573242,6.910165786743164) translate(-20.070980072021484,0) translate(0,20.070980072021484) translate(0,20.070980072021484) translate(-20.070980072021484,0) translate(-20.070980072021484,0) translate(-2.0070979595184326,0) translate(-2.0070979595184326,0) translate(9.814167022705078,16.391950607299805) translate(-26.279314041137695,0) translate(-26.279314041137695,0) translate(-26.279314041137695,0) translate(-26.279314041137695,0) translate(-26.279314041137695,0) translate(-26.279314041137695,0) translate(-26.279314041137695,0) translate(-26.279314041137695,0) translate(-26.279314041137695,0) translate(-26.279314041137695,0) translate(-26.279314041137695,0) translate(-26.279314041137695,0) translate(-26.279314041137695,0) translate(-26.279314041137695,0) translate(-26.279314041137695,0) translate(-26.279314041137695,0) translate(-26.279314041137695,0) translate(-26.279314041137695,0) translate(-26.279314041137695,0) translate(-26.279314041137695,0) translate(-26.279314041137695,0) translate(-26.279314041137695,0) translate(-26.279314041137695,0) translate(-26.279314041137695,0) translate(-26.279314041137695,0) translate(-26.279314041137695,0) translate(-26.279314041137695,0) translate(-26.279314041137695,0) translate(-26.279314041137695,0) translate(-26.279314041137695,0) translate(-26.279314041137695,0) translate(-26.279314041137695,0) translate(-26.279314041137695,0) translate(-26.279314041137695,0) translate(-26.279314041137695,0) "
                     id="title1393">background</title>
                  <rect
                     stroke="null"
                     fill="none"
                     id="svg_649"
                     height="402"
                     width="514"
                     y="8865.249"
                     x="9760.874" />
                  <g
                     stroke="null"
                     display="none"
                     id="svg_648">
                    <rect
                       stroke="null"
                       fill="url(#gridpattern)"
                       stroke-width="0"
                       y="8866.249"
                       x="9761.874"
                       height="1080"
                       width="1301"
                       id="svg_652" />
                  </g>
                </g>
                <g
                   stroke="null"
                   id="svg_653"
                   transform="matrix(1.2505995,0,0,1.2505995,-12231.119,-10619.318)">
                  <title
                     stroke="null"
                     transform="translate(0.69612717628479,1.1623423099517822) translate(-18.07204818725586,0) translate(4.137662887573242,6.910165786743164) translate(-20.070980072021484,0) translate(0,20.070980072021484) translate(0,20.070980072021484) translate(-20.070980072021484,0) translate(-20.070980072021484,0) translate(-2.0070979595184326,0) translate(-2.0070979595184326,0) translate(9.814167022705078,16.391950607299805) translate(-26.279314041137695,0) translate(-26.279314041137695,0) translate(-26.279314041137695,0) translate(-26.279314041137695,0) translate(-26.279314041137695,0) translate(-26.279314041137695,0) translate(-26.279314041137695,0) translate(-26.279314041137695,0) translate(-26.279314041137695,0) translate(-26.279314041137695,0) translate(-26.279314041137695,0) translate(-26.279314041137695,0) translate(-26.279314041137695,0) translate(-26.279314041137695,0) translate(-26.279314041137695,0) translate(-26.279314041137695,0) translate(-26.279314041137695,0) translate(-26.279314041137695,0) translate(-26.279314041137695,0) translate(-26.279314041137695,0) translate(-26.279314041137695,0) translate(-26.279314041137695,0) translate(-26.279314041137695,0) translate(-26.279314041137695,0) translate(-26.279314041137695,0) translate(-26.279314041137695,0) translate(-26.279314041137695,0) translate(-26.279314041137695,0) translate(-26.279314041137695,0) translate(-26.279314041137695,0) translate(-26.279314041137695,0) translate(-26.279314041137695,0) translate(-26.279314041137695,0) translate(-26.279314041137695,0) translate(-26.279314041137695,0) "
                     id="title1399">Layer 1</title>
                  <g
                     stroke="null"
                     id="svg_641">
                    <path
                       stroke="null"
                       id="svg_647"
                       fill="#ffe4c2"
                       d="m 10140.744,9266.2471 h -230.7404 c -25.9298,0 -46.9547,-21.0202 -46.9547,-46.9547 v -227.1703 c 0,-25.9298 21.0249,-46.9547 46.9547,-46.9547 h 230.7404 c 25.93,0 46.954,21.0249 46.954,46.9547 v 227.1703 c 0,25.9345 -21.024,46.9547 -46.954,46.9547 z m 0,0" />
                    <path
                       stroke="null"
                       id="svg_646"
                       fill="#f2bb88"
                       d="m 10140.744,8945.1674 h -115.853 v 321.0797 h 115.853 c 25.93,0 46.954,-21.0202 46.954,-46.9547 v -227.1703 c 0,-25.9345 -21.024,-46.9547 -46.954,-46.9547 z m 0,0" />
                    <path
                       stroke="null"
                       id="svg_645"
                       fill="#ffd400"
                       d="m 9881.765,8883.099 h 287.217 v 62.0684 h -287.217 z m 0,0" />
                    <path
                       stroke="null"
                       id="svg_644"
                       fill="#fcaf03"
                       d="m 10024.891,8883.099 h 144.091 v 62.0684 h -144.091 z m 0,0" />
                    <path
                       stroke="null"
                       id="svg_643"
                       fill="#b46e5a"
                       d="m 9863.0489,9030.9172 h 324.6491 v 140.0482 h -324.6491 z m 0,0" />
                    <path
                       stroke="null"
                       id="svg_642"
                       fill="#915041"
                       d="m 10024.891,9030.9172 h 162.807 v 140.0482 h -162.807 z m 0,0" />
                  </g>
                  <text
                     stroke="null"
                     xml:space="preserve"
                     text-anchor="start"
                     font-family="Helvetica, Arial, sans-serif"
                     font-size="24px"
                     id="svg_640"
                     y="9070.7021"
                     x="9941.374"
                     fill-opacity="null"
                     stroke-opacity="null"
                     stroke-width="0"
                     fill="#000000" />
                  <text
                     style="font-style:normal;font-variant:normal;font-weight:normal;font-stretch:normal;font-size:82.4448px;font-family:IRANSans;-inkscape-font-specification:IRANSans"
                     stroke="null"
                     xml:space="preserve"
                     text-anchor="start"
                     font-family="Oswald, sans-serif"
                     font-size="92px"
                     id="svg_639"
                     y="9128.6826"
                     x="9867.1895"
                     stroke-opacity="null"
                     stroke-width="0"
                     fill="#f4c89c">ارده کنجد</text>
                </g>
              </g>
              <text
                 style="font-style:normal;font-variant:normal;font-weight:normal;font-stretch:normal;font-family:IRANSans;-inkscape-font-specification:IRANSans"
                 font-weight="normal"
                 fill="#7e3a1a"
                 stroke="null"
                 stroke-width="0"
                 stroke-opacity="null"
                 x="438.67572"
                 y="166.78273"
                 id="svg_655"
                 font-size="130px"
                 font-family="Oswald, sans-serif"
                 text-anchor="start"
                 xml:space="preserve">یزد</text>
              <text
                 style="font-style:normal;font-variant:normal;font-weight:bold;font-stretch:normal;font-family:IRANSans;-inkscape-font-specification:'IRANSans Bold'"
                 font-weight="bold"
                 fill="#7e3a1a"
                 stroke="null"
                 stroke-width="0"
                 stroke-opacity="null"
                 x="230.23119"
                 y="351.92581"
                 id="svg_656"
                 font-size="146px"
                 font-family="Oswald, sans-serif"
                 text-anchor="start"
                 xml:space="preserve">اردکان</text>
            </g>
          </g>
        </g>
        <!-- Created with Method Draw - http://github.com/duopixel/Method-Draw/ -->
        <g
           transform="translate(-85.840131)"
           stroke="null"
           id="svg_179">
          <g
             stroke="null"
             id="svg_180"
             transform="scale(1.8992882)">
            <circle
               stroke="null"
               cx="12145.177"
               cy="11794.179"
               fill="#fedb41"
               r="39.247002"
               id="svg_192" />
            <g
               stroke="null"
               fill="#fea832"
               id="svg_181">
              <path
                 stroke="null"
                 d="m 12176.424,11795.929 a 1.749,1.749 0 0 1 -1.747,-1.747 29.53,29.53 0 0 0 -29.5,-29.5 1.75,1.75 0 0 1 0,-3.5 33.035,33.035 0 0 1 33,33 1.749,1.749 0 0 1 -1.753,1.747 z"
                 id="svg_191" />
              <g
                 stroke="null"
                 id="svg_182">
                <path
                   stroke="null"
                   d="m 12145.177,11746.932 a 47.252,47.252 0 0 1 8.5,0.781 c 0.04,-0.545 0.06,-1.1 0.06,-1.658 0,-7.801 -8.563,-14.126 -8.563,-14.126 0,0 -8.563,6.325 -8.563,14.126 0,0.562 0.03,1.113 0.06,1.658 a 47.243,47.243 0 0 1 8.499,-0.781 z"
                   id="svg_190" />
                <path
                   stroke="null"
                   d="m 12145.177,11841.426 a 47.343,47.343 0 0 0 8.5,-0.78 c 0.04,0.544 0.06,1.095 0.06,1.657 0,7.8 -8.562,14.126 -8.562,14.126 0,0 -8.563,-6.324 -8.563,-14.126 0,-0.562 0.03,-1.113 0.06,-1.657 a 47.335,47.335 0 0 0 8.498,0.78 z"
                   id="svg_189" />
                <path
                   stroke="null"
                   d="m 12178.586,11760.77 a 47.349,47.349 0 0 1 5.457,6.562 c 0.413,-0.358 0.82,-0.73 1.217,-1.127 5.517,-5.517 3.934,-16.043 3.934,-16.043 0,0 -10.526,-1.58 -16.043,3.934 -0.4,0.4 -0.769,0.8 -1.127,1.217 a 47.349,47.349 0 0 1 6.562,5.457 z"
                   id="svg_188" />
                <path
                   stroke="null"
                   d="m 12111.768,11827.588 a 47.232,47.232 0 0 0 6.562,5.457 c -0.358,0.413 -0.73,0.82 -1.127,1.217 -5.517,5.517 -16.043,3.934 -16.043,3.934 0,0 -1.583,-10.526 3.934,-16.043 0.4,-0.4 0.8,-0.769 1.217,-1.127 a 47.291,47.291 0 0 0 5.457,6.562 z"
                   id="svg_187" />
                <path
                   stroke="null"
                   d="m 12192.424,11794.182 a 47.335,47.335 0 0 1 -0.78,8.5 c 0.544,0.04 1.095,0.06 1.657,0.06 7.8,0 14.126,-8.563 14.126,-8.563 0,0 -6.325,-8.562 -14.126,-8.562 -0.562,0 -1.113,0.03 -1.657,0.06 a 47.343,47.343 0 0 1 0.78,8.498 z"
                   id="svg_186" />
                <path
                   stroke="null"
                   d="m 12097.93,11794.182 a 47.335,47.335 0 0 0 0.78,8.5 c -0.544,0.04 -1.1,0.06 -1.657,0.06 -7.801,0 -14.126,-8.564 -14.126,-8.564 0,0 6.325,-8.562 14.126,-8.562 0.562,0 1.113,0.02 1.657,0.06 a 47.343,47.343 0 0 0 -0.78,8.499 z"
                   id="svg_185" />
                <path
                   stroke="null"
                   d="m 12178.586,11827.588 a 47.349,47.349 0 0 1 -6.562,5.457 c 0.358,0.413 0.73,0.82 1.127,1.217 5.517,5.517 16.043,3.934 16.043,3.934 0,0 1.583,-10.526 -3.934,-16.043 -0.4,-0.4 -0.8,-0.769 -1.217,-1.127 a 47.291,47.291 0 0 1 -5.457,6.562 z"
                   id="svg_184" />
                <path
                   stroke="null"
                   d="m 12111.768,11760.77 a 47.349,47.349 0 0 0 -5.457,6.562 c -0.413,-0.358 -0.82,-0.73 -1.217,-1.127 -5.517,-5.517 -3.934,-16.043 -3.934,-16.043 0,0 10.526,-1.58 16.043,3.934 0.4,0.4 0.769,0.8 1.127,1.217 a 47.291,47.291 0 0 0 -6.562,5.457 z"
                   id="svg_183" />
              </g>
            </g>
          </g>
        </g>
        <g
           transform="translate(-85.840131)"
           stroke="null"
           id="svg_160">
          <path
             stroke="null"
             d="m 22794.568,22537.23 c 0,44.348 -35.1,58.408 -78.394,58.408 -43.295,0 -78.394,-14.06 -78.394,-58.408 0,-40.844 66.493,-74.566 77.003,-79.64 0.882,-0.424 1.899,-0.424 2.781,0 10.511,5.074 77.004,38.796 77.004,79.64 z m 0,0"
             fill="#fdd835"
             id="svg_178" />
          <path
             stroke="null"
             d="m 22714.783,22457.59 c -1.974,0.954 -5.919,2.915 -11.025,5.743 22.104,12.24 65.979,40.717 65.979,73.897 0,40.017 -28.582,55.374 -65.979,57.988 4.046,0.282 8.191,0.42 12.416,0.42 43.297,0 78.394,-14.06 78.394,-58.408 0,-40.844 -66.49,-74.566 -77.001,-79.64 -0.885,-0.424 -1.902,-0.424 -2.784,0 z m 0,0"
             fill="#fbc02d"
             id="svg_177" />
          <path
             stroke="null"
             d="m 22543.603,22592.318 h 345.142 v 202.678 h -345.142 z m 0,0"
             fill="#ffb875"
             id="svg_176" />
          <path
             stroke="null"
             d="m 22845.947,22592.318 h 24.831 v 202.678 h -24.831 z m 0,0"
             fill="#f6a86b"
             id="svg_175" />
          <path
             stroke="null"
             d="m 22522.911,22463.612 h 38.659 v 331.384 h -38.659 z m 0,0"
             fill="#f6a86b"
             id="svg_174" />
          <path
             stroke="null"
             d="m 22870.778,22463.612 h 38.658 v 331.384 h -38.658 z m 0,0"
             fill="#e89656"
             id="svg_173" />
          <path
             stroke="null"
             d="m 22622.646,22638.022 h 190.366 v 156.974 h -190.366 z m 0,0"
             fill="#fdd835"
             id="svg_172" />
          <path
             stroke="null"
             d="m 22788.181,22638.022 h 24.831 v 156.974 h -24.831 z m 0,0"
             fill="#fbc02d"
             id="svg_171" />
          <path
             stroke="null"
             d="m 22647.477,22659.069 h 140.704 v 135.927 h -140.704 z m 0,0"
             fill="#de8a47"
             id="svg_170" />
          <path
             stroke="null"
             d="m 22788.181,22801.022 c -3.327,0 -6.026,-2.696 -6.026,-6.026 v -129.902 h -128.652 v 129.902 c 0,3.33 -2.699,6.026 -6.026,6.026 -3.33,0 -6.025,-2.696 -6.025,-6.026 v -135.927 c 0,-3.33 2.695,-6.026 6.025,-6.026 h 140.704 c 3.33,0 6.026,2.696 6.026,6.026 v 135.927 c 0,3.327 -2.696,6.026 -6.026,6.026 z m 0,0"
             fill="#f9a825"
             id="svg_169" />
          <path
             stroke="null"
             d="m 22572.865,22455.86 c 0,17.017 -13.712,22.412 -30.625,22.412 -16.912,0 -30.624,-5.395 -30.624,-22.412 0,-15.099 24.122,-27.665 29.551,-30.301 0.681,-0.329 1.469,-0.329 2.15,0 5.426,2.636 29.548,15.199 29.548,30.301 z m 0,0"
             fill="#ffb875"
             id="svg_168" />
          <path
             stroke="null"
             d="m 22543.317,22425.559 c -0.684,-0.329 -1.469,-0.329 -2.153,0 -1.98,0.964 -6.456,3.255 -11.339,6.503 8.489,5.652 18.209,14.211 18.209,23.798 0,12.57 -7.485,18.793 -18.209,21.191 3.794,0.847 7.993,1.221 12.415,1.221 16.913,0 30.625,-5.395 30.625,-22.412 0,-15.102 -24.122,-27.665 -29.548,-30.301 z m 0,0"
             fill="#f6a86b"
             id="svg_167" />
          <path
             stroke="null"
             d="m 22919.373,22455.86 c 0,17.017 -13.712,22.412 -30.625,22.412 -16.916,0 -30.624,-5.395 -30.624,-22.412 0,-15.099 24.118,-27.665 29.548,-30.301 0.684,-0.329 1.468,-0.329 2.153,0 5.426,2.636 29.548,15.199 29.548,30.301 z m 0,0"
             fill="#ffb875"
             id="svg_166" />
          <path
             stroke="null"
             d="m 22889.825,22425.559 c -0.685,-0.329 -1.469,-0.329 -2.153,0 -1.984,0.964 -6.456,3.255 -11.339,6.503 8.486,5.652 18.209,14.211 18.209,23.798 0,12.57 -7.486,18.793 -18.209,21.191 3.794,0.847 7.993,1.221 12.415,1.221 16.913,0 30.625,-5.395 30.625,-22.412 0,-15.102 -24.122,-27.665 -29.548,-30.301 z m 0,0"
             fill="#f6a86b"
             id="svg_165" />
          <path
             stroke="null"
             d="m 22561.57,22638.022 h 24.831 v 156.974 h -24.831 z m 0,0"
             fill="#de8a47"
             id="svg_164" />
          <path
             stroke="null"
             d="m 22845.708,22638.022 h 24.831 v 156.974 h -24.831 z m 0,0"
             fill="#de8a47"
             id="svg_163" />
          <path
             stroke="null"
             d="m 22918.638,22811.761 h -404.929 c -1.776,0 -3.213,-1.44 -3.213,-3.214 v -27.103 c 0,-1.776 1.437,-3.214 3.213,-3.214 h 404.929 c 1.776,0 3.214,1.438 3.214,3.214 v 27.103 c 0,1.774 -1.438,3.214 -3.214,3.214 z m 0,0"
             fill="#546e7a"
             id="svg_162" />
          <path
             stroke="null"
             d="m 22897.021,22778.23 v 33.531 h 21.617 c 1.777,0 3.214,-1.44 3.214,-3.214 v -27.103 c 0,-1.776 -1.437,-3.214 -3.214,-3.214 z m 0,0"
             fill="#455a64"
             id="svg_161" />
        </g>
        <g
           transform="translate(-85.840131)"
           stroke="null"
           id="svg_102">
          <g
             stroke="null"
             id="svg_158"
             transform="matrix(1.1560584,0,0,1.1560584,-3747.3287,-4266.7015)">
            <title
               stroke="null"
               transform="translate(18.199121475219727,3.183231456205249e-12) translate(18.199121475219727,3.183231456205249e-12) translate(-4.547473508864641e-13,-1.827932596206665) translate(-944.2802124023438,-948.7767333984375) translate(20263.455078125,0) translate(-4.547473508864641e-13,20216.744140625) "
               id="title32884">background</title>
            <rect
               stroke="null"
               fill="none"
               id="svg_159"
               height="477"
               width="453"
               y="23204.918"
               x="22835.881" />
          </g>
          <g
             stroke="null"
             id="svg_103"
             transform="matrix(1.1560584,0,0,1.1560584,-3747.3287,-4266.7015)">
            <title
               stroke="null"
               transform="translate(18.199121475219727,3.183231456205249e-12) translate(18.199121475219727,3.183231456205249e-12) translate(-4.547473508864641e-13,-1.827932596206665) translate(-944.2802124023438,-948.7767333984375) translate(20263.455078125,0) translate(-4.547473508864641e-13,20216.744140625) "
               id="title32888">Layer 1</title>
            <g
               stroke="null"
               id="svg_144">
              <g
                 stroke="null"
                 id="svg_145">
                <path
                   stroke="null"
                   id="svg_157"
                   fill="#f1b986"
                   d="m 23252.116,23508.379 c -15.947,14.371 -40.208,13.99 -40.208,13.99 l -3.152,-3.08 -9.9,-9.653 11.425,-8.427 c 6.037,-6.037 26.228,-4.461 38.704,-2.802 2.617,0.35 4.389,2.277 4.873,4.502 0.422,1.885 -0.07,3.966 -1.742,5.47 z" />
                <path
                   stroke="null"
                   id="svg_156"
                   fill="#e8a874"
                   d="m 23252.116,23508.379 c -15.947,14.371 -40.208,13.99 -40.208,13.99 l -3.152,-3.08 2.534,-4.976 c 0,0 30.905,0.258 42.567,-11.404 0.423,1.885 -0.07,3.966 -1.741,5.47 z" />
                <path
                   stroke="null"
                   id="svg_155"
                   fill="#f1b986"
                   d="m 23003.42,23584.592 -8.231,45.431 c 0,0 -4.687,1.401 -10.57,2.215 -7.18,0.989 -16.143,1.113 -20.501,-3.255 -7.943,-7.932 0,-28.299 0,-28.299 l 10.467,-4.286 z" />
                <path
                   stroke="null"
                   id="svg_154"
                   fill="#e8a874"
                   d="m 22984.619,23632.238 c -7.18,0.989 -16.143,1.113 -20.501,-3.255 -7.943,-7.932 0,-28.299 0,-28.299 l 10.467,-4.286 7.819,4.275 c 0,0 -10.518,18.038 2.215,31.565 z" />
                <path
                   stroke="null"
                   id="svg_153"
                   fill="#80c904"
                   d="m 23211.908,23522.369 c -9.539,5.728 -25.147,8.252 -40.826,9.189 -25.548,1.504 -51.282,-1.216 -51.282,-1.216 l 0.01,0.02 c 0.443,0.701 14.577,23.622 17.668,54.239 l 1.288,16.081 c 0,0 2.215,25.26 -1.113,53.992 -18.43,1.246 -36.973,2.205 -55.537,2.874 -0.814,-15.35 -4.512,-31.771 -14.927,-42.186 -10.611,10.611 -14.237,27.434 -14.968,43.01 -11.311,0.216 -22.612,0.33 -33.872,0.33 -7.036,0 -14.083,-0.04 -21.139,-0.134 -4.018,-30.298 -1.597,-57.886 -1.597,-57.886 h -31.503 c 0,-88.081 35.758,-117.163 41.959,-121.551 h 122.241 c 14.938,5.13 30.256,9.529 43.546,13.011 21.994,5.779 38.426,9.066 38.426,9.066 l 1.01,13.104 0.616,8.056 z" />
                <path
                   stroke="null"
                   id="svg_152"
                   fill="#69a501"
                   d="m 23000.509,23600.677 c 0,-5.51 -4.374,-10.991 -3.611,-16.08 2.212,-14.729 6.528,-26.239 6.528,-26.239 0,0 0.49,22.36 16.625,26.244 16.135,3.883 -19.441,19.993 -19.441,19.993 z" />
                <path
                   stroke="null"
                   id="svg_151"
                   fill="#9a4121"
                   d="m 23137.657,23654.675 c -18.43,1.246 -36.973,2.205 -55.537,2.874 -0.814,-15.35 -4.512,-31.771 -14.927,-42.196 -10.621,10.621 -14.247,27.444 -14.969,43.02 -11.311,0.216 -22.612,0.33 -33.872,0.33 -7.036,0 -14.083,-0.04 -21.139,-0.134 -4.018,-30.308 -1.597,-57.896 -1.597,-57.896 0,-5.501 0.515,-10.982 1.288,-16.071 h 140.589 l 1.277,16.071 c 0,0 2.215,25.27 -1.113,54.002 z" />
                <path
                   stroke="null"
                   id="svg_150"
                   fill="#69a501"
                   d="m 23022.773,23479.133 c -14.553,19.642 -47.956,48.194 -40.371,121.544 h -18.292 c 0,-88.072 35.761,-117.159 41.956,-121.544 z" />
                <path
                   stroke="null"
                   id="svg_149"
                   fill="#7e3a1a"
                   d="m 23015.086,23658.693 c -5.954,0 -11.909,-0.04 -17.874,-0.124 h -0.01 c -4.018,-30.308 -1.597,-57.896 -1.597,-57.896 0,-5.501 0.515,-10.982 1.277,-16.071 h 23.169 c -3.697,13.846 -8.066,38.93 -4.965,74.091 z" />
                <path
                   stroke="null"
                   id="svg_148"
                   fill="#7e3a1a"
                   d="m 23096.574,23656.972 c -4.811,0.206 -9.632,0.402 -14.453,0.577 h -0.01 c -0.814,-15.35 -4.512,-31.771 -14.927,-42.196 16.203,0 27.247,18.244 29.39,41.619 z" />
                <path
                   stroke="null"
                   id="svg_147"
                   fill="#e8a874"
                   d="m 23116.806,23481.955 c 0,19.295 -22.211,34.944 -49.614,34.944 -27.403,0 -49.624,-15.648 -49.624,-34.944 0,-0.948 0.05,-1.885 0.165,-2.823 h 98.908 c 0.114,0.937 0.165,1.875 0.165,2.823 z" />
                <path
                   stroke="null"
                   id="svg_146"
                   fill="#69a501"
                   d="m 23211.908,23522.369 c -9.539,5.728 -25.147,8.252 -40.826,9.189 -25.548,1.504 -51.282,-1.216 -51.282,-1.216 l -5.439,-7.974 c 0,0 62.202,4.358 96.93,-8.056 z" />
              </g>
            </g>
            <g
               stroke="null"
               id="svg_139">
              <g
                 stroke="null"
                 transform="matrix(0.79421053,0,0,0.79421053,-1380.7601,-1721.2124)"
                 id="svg_140">
                <g
                   stroke="null"
                   id="svg_141">
                  <path
                     stroke="null"
                     id="svg_143"
                     fill="#dd636e"
                     d="m 30778.832,31723.746 c -11.779,0 -22.654,-6.878 -27.706,-17.521 -1.83,-3.855 -0.188,-8.463 3.667,-10.293 3.855,-1.829 8.464,-0.188 10.293,3.667 2.507,5.282 7.903,8.694 13.746,8.694 5.844,0 11.239,-3.413 13.745,-8.694 1.829,-3.855 6.438,-5.498 10.293,-3.668 3.855,1.829 5.497,6.438 3.668,10.293 -5.051,10.644 -15.926,17.522 -27.706,17.522 z" />
                  <g
                     stroke="null"
                     id="svg_142"
                     fill="#404a4a" />
                </g>
              </g>
            </g>
            <!-- Created with Method Draw - http://github.com/duopixel/Method-Draw/ -->
            <!-- Created with Method Draw - http://github.com/duopixel/Method-Draw/ -->
            <rect
               stroke="null"
               fill="#7e3a1a"
               stroke-width="null"
               stroke-opacity="null"
               x="23010.914"
               y="23480.301"
               width="13.895303"
               height="105.30866"
               id="svg_138" />
            <rect
               stroke="null"
               fill="#7e3a1a"
               stroke-width="null"
               stroke-opacity="null"
               x="23103.227"
               y="23479.855"
               width="13.895303"
               height="105.30866"
               id="svg_137" />
            <g
               stroke="null"
               id="svg_107">
              <path
                 stroke="null"
                 id="svg_136"
                 fill="#c6bd8b"
                 d="m 23215.131,23403.262 c 0,62.625 -68.939,80.203 -153.973,80.203 -85.033,0 -153.972,-17.578 -153.972,-80.203 0,-62.635 68.939,-113.408 153.972,-113.408 85.034,0 153.973,50.773 153.973,113.408 z" />
              <path
                 stroke="null"
                 id="svg_135"
                 fill="#c98d61"
                 d="m 23215.131,23403.262 c 0,62.625 -68.939,80.203 -153.973,80.203 -85.033,0 -153.972,-17.578 -153.972,-80.203 0,-62.635 68.939,-97.662 153.972,-97.662 85.034,0 153.973,35.027 153.973,97.662 z" />
              <path
                 stroke="null"
                 id="svg_134"
                 fill="#e8a874"
                 d="m 23215.131,23403.262 c 0,62.625 -68.939,80.203 -153.973,80.203 -85.033,0 -153.972,-17.578 -153.972,-80.203 0,-62.635 68.939,-28.587 153.972,-28.587 85.034,0 153.973,-34.048 153.973,28.587 z" />
              <g
                 stroke="null"
                 transform="matrix(0.66082782,0,0,0.66082782,-987.65824,-1224.8982)"
                 id="svg_131">
                <circle
                   stroke="null"
                   id="svg_133"
                   fill="#082856"
                   r="20.929001"
                   cy="37294.477"
                   cx="36299.875" />
                <circle
                   stroke="null"
                   id="svg_132"
                   fill="#082856"
                   r="20.929001"
                   cy="37294.477"
                   cx="36484.051" />
              </g>
              <path
                 stroke="null"
                 id="svg_130"
                 d="m 23014.139,23420.33 c 0,7.646 -6.189,13.836 -13.825,13.836 -7.646,0 -13.836,-6.19 -13.836,-13.836" />
              <path
                 stroke="null"
                 id="svg_129"
                 d="m 23135.844,23420.33 c 0,7.646 -6.189,13.836 -13.825,13.836 -7.647,0 -13.836,-6.19 -13.836,-13.836" />
              <path
                 stroke="null"
                 id="svg_128"
                 fill="#eaa918"
                 d="m 22962.93,23310.207 c 0,0 26.349,0.447 30.794,-54.229 2.499,-30.487 27.448,-68.288 64.275,-34.813 36.812,33.48 28.119,-8.703 50.871,3.347 22.774,12.056 17.417,77.663 41.523,87.699 24.105,10.045 -111.81,24.105 -111.81,24.105 l -67.627,-22.763 z" />
              <path
                 stroke="null"
                 id="svg_127"
                 fill="#c98909"
                 d="m 23108.87,23243.595 c -22.752,-12.045 -14.06,30.134 -50.871,-3.347 -36.822,-33.48 -61.771,4.32 -64.275,34.813 -1.728,21.258 -6.772,34.157 -12.289,42.017 l 57.149,19.234 c 0,0 71.115,-7.361 101.331,-15.231 -12.602,-21.743 -12.379,-67.602 -31.045,-77.486 z" />
              <path
                 stroke="null"
                 id="svg_126"
                 fill="#723e14"
                 d="m 23160.657,23318.452 c 0,11.467 -9.281,20.759 -20.769,20.759 h -159.318 c -11.468,0 -20.759,-9.292 -20.759,-20.759 v 0 c 0,-11.457 9.291,-20.748 20.759,-20.748 h 159.318 c 11.489,0 20.769,9.291 20.769,20.748 z" />
              <path
                 stroke="null"
                 id="svg_125"
                 fill="#49290a"
                 d="m 23112.123,23318.452 c 0,11.467 -4.82,20.759 -10.733,20.759 h -82.311 c -5.929,0 -10.728,-9.292 -10.728,-20.759 v 0 c 0,-11.457 4.8,-20.748 10.728,-20.748 h 82.306 c 5.918,0 10.738,9.291 10.738,20.748 z" />
              <path
                 stroke="null"
                 id="svg_124"
                 fill="#eaa918"
                 d="m 23221.06,23309.291 c 0,31.091 -73.718,56.274 -164.669,56.274 -90.973,0 -164.691,-25.183 -164.691,-56.274 0,-31.081 73.718,9.942 164.691,9.942 90.951,0 164.669,-41.023 164.669,-9.942 z" />
              <path
                 stroke="null"
                 id="svg_123"
                 fill="#c98909"
                 d="m 23056.391,23319.233 c -74.358,0 -137.129,-27.359 -157.601,-20.405 20.477,23.138 83.243,39.966 157.601,39.966 74.336,0 137.117,-16.823 157.6,-39.966 -20.483,-6.954 -83.264,20.405 -157.6,20.405 z" />
              <g
                 stroke="null"
                 transform="matrix(0.66082782,0,0,0.66082782,-987.65824,-1224.8982)"
                 id="svg_122" />
              <g
                 stroke="null"
                 transform="matrix(0.66082782,0,0,0.66082782,-987.65824,-1224.8982)"
                 id="svg_121" />
              <g
                 stroke="null"
                 transform="matrix(0.66082782,0,0,0.66082782,-987.65824,-1224.8982)"
                 id="svg_120" />
              <g
                 stroke="null"
                 transform="matrix(0.66082782,0,0,0.66082782,-987.65824,-1224.8982)"
                 id="svg_119" />
              <g
                 stroke="null"
                 transform="matrix(0.66082782,0,0,0.66082782,-987.65824,-1224.8982)"
                 id="svg_118" />
              <g
                 stroke="null"
                 transform="matrix(0.66082782,0,0,0.66082782,-987.65824,-1224.8982)"
                 id="svg_117" />
              <g
                 stroke="null"
                 transform="matrix(0.66082782,0,0,0.66082782,-987.65824,-1224.8982)"
                 id="svg_116" />
              <g
                 stroke="null"
                 transform="matrix(0.66082782,0,0,0.66082782,-987.65824,-1224.8982)"
                 id="svg_115" />
              <g
                 stroke="null"
                 transform="matrix(0.66082782,0,0,0.66082782,-987.65824,-1224.8982)"
                 id="svg_114" />
              <g
                 stroke="null"
                 transform="matrix(0.66082782,0,0,0.66082782,-987.65824,-1224.8982)"
                 id="svg_113" />
              <g
                 stroke="null"
                 transform="matrix(0.66082782,0,0,0.66082782,-987.65824,-1224.8982)"
                 id="svg_112" />
              <g
                 stroke="null"
                 transform="matrix(0.66082782,0,0,0.66082782,-987.65824,-1224.8982)"
                 id="svg_111" />
              <g
                 stroke="null"
                 transform="matrix(0.66082782,0,0,0.66082782,-987.65824,-1224.8982)"
                 id="svg_110" />
              <g
                 stroke="null"
                 transform="matrix(0.66082782,0,0,0.66082782,-987.65824,-1224.8982)"
                 id="svg_109" />
              <g
                 stroke="null"
                 transform="matrix(0.66082782,0,0,0.66082782,-987.65824,-1224.8982)"
                 id="svg_108" />
            </g>
            <g
               stroke="null"
               id="svg_104">
              <g
                 stroke="null"
                 id="svg_105"
                 transform="matrix(0.5739452,0,0,0.5739452,-854.49214,-1072.0043)">
                <path
                   stroke="null"
                   d="m 41621.521,42719.018 c 0,26.447 21.439,47.886 47.886,47.886 26.447,0 47.886,-21.439 47.886,-47.886 z"
                   fill="#dd636e"
                   id="svg_106" />
              </g>
            </g>
          </g>
        </g>
        <!-- Created with Method Draw - http://github.com/duopixel/Method-Draw/ -->
        <!-- Created with Method Draw - http://github.com/duopixel/Method-Draw/ -->
      </g>
    </g>
  </g>
</svg>
