<?xml version="1.0" encoding="UTF-8" standalone="no"?>
<svg
   xmlns:dc="http://purl.org/dc/elements/1.1/"
   xmlns:cc="http://creativecommons.org/ns#"
   xmlns:rdf="http://www.w3.org/1999/02/22-rdf-syntax-ns#"
   xmlns:svg="http://www.w3.org/2000/svg"
   xmlns="http://www.w3.org/2000/svg"
   xmlns:xlink="http://www.w3.org/1999/xlink"
   xmlns:sodipodi="http://sodipodi.sourceforge.net/DTD/sodipodi-0.dtd"
   xmlns:inkscape="http://www.inkscape.org/namespaces/inkscape"
   inkscape:version="1.0 (4035a4f, 2020-05-01)"
   sodipodi:docname="4.svg"
   id="svg34354"
   version="1.1"
   height="1080"
   width="1080">
  <metadata
     id="metadata34360">
    <rdf:RDF>
      <cc:Work
         rdf:about="">
        <dc:format>image/svg+xml</dc:format>
        <dc:type
           rdf:resource="http://purl.org/dc/dcmitype/StillImage" />
      </cc:Work>
    </rdf:RDF>
  </metadata>
  <defs
     id="defs34358">
    <linearGradient
       id="linearGradient35457"
       inkscape:collect="always">
      <stop
         id="stop35453"
         offset="0"
         style="stop-color:#008000;stop-opacity:1" />
      <stop
         style="stop-color:#52af02;stop-opacity:1;"
         offset="0.29751185"
         id="stop35473" />
      <stop
         style="stop-color:#80c904;stop-opacity:1"
         offset="0.46088192"
         id="stop35463" />
      <stop
         id="stop35475"
         offset="0.68841952"
         style="stop-color:#80c904;stop-opacity:1" />
      <stop
         id="stop35455"
         offset="1"
         style="stop-color:#008000;stop-opacity:1" />
    </linearGradient>
    <linearGradient
       gradientUnits="userSpaceOnUse"
       y2="544.42657"
       x2="961.19977"
       y1="544.4266"
       x1="142.42331"
       id="linearGradient35459"
       xlink:href="#linearGradient35457"
       inkscape:collect="always" />
    <rect
       x="589.70807"
       y="815.96759"
       width="515.24447"
       height="227.77989"
       id="rect941" />
    <rect
       x="589.70807"
       y="815.96759"
       width="133.57182"
       height="96.168633"
       id="rect1075" />
  </defs>
  <sodipodi:namedview
     inkscape:current-layer="g34352"
     inkscape:window-maximized="0"
     inkscape:window-y="23"
     inkscape:window-x="0"
     inkscape:cy="489.58605"
     inkscape:cx="168.94466"
     inkscape:zoom="0.43914426"
     showgrid="false"
     id="namedview34356"
     inkscape:window-height="723"
     inkscape:window-width="1366"
     inkscape:pageshadow="2"
     inkscape:pageopacity="0"
     guidetolerance="10"
     gridtolerance="10"
     objecttolerance="10"
     borderopacity="1"
     bordercolor="#666666"
     pagecolor="#ffffff"
     inkscape:document-rotation="0" />
  <g
     id="g34218">
    <title
       id="title34215">background</title>
    <rect
       fill="none"
       id="canvas_background"
       height="1082"
       width="1082"
       y="-1"
       x="-1" />
  </g>
  <g
     id="g34352">
    <title
       id="title34220">Layer 1</title>
    <!-- Created with Method Draw - http://github.com/duopixel/Method-Draw/ -->
    <!-- Created with Method Draw - http://github.com/duopixel/Method-Draw/ -->
    <!-- Created with Method Draw - http://github.com/duopixel/Method-Draw/ -->
    <!-- Created with Method Draw - http://github.com/duopixel/Method-Draw/ -->
    <!-- Created with Method Draw - http://github.com/duopixel/Method-Draw/ -->
    <!-- Created with Method Draw - http://github.com/duopixel/Method-Draw/ -->
    <!-- Created with Method Draw - http://github.com/duopixel/Method-Draw/ -->
    <!-- Created with Method Draw - http://github.com/duopixel/Method-Draw/ -->
    <!-- Created with Method Draw - http://github.com/duopixel/Method-Draw/ -->
    <g
       id="svg_1887"
       transform="matrix(4.5141151,0,0,4.3846856,-17884.447,-16327.422)"
       stroke="null">
      <title
         stroke="#404a4a"
         id="title34222">background</title>
      <g
         id="svg_1883"
         display="none"
         stroke="null">
        <rect
           id="svg_1884"
           width="1080"
           height="1080"
           x="3814.8628"
           y="3652.03"
           stroke-width="0"
           fill="#333333"
           stroke="#404a4a" />
      </g>
    </g>
    <g
       transform="matrix(1.8240918,0,0,1.7717911,-49678.737,-47382.021)"
       stroke="null"
       id="svg_1876"
       style="stroke-opacity:0" />
    <path
       id="svg_1875"
       fill="#404a4a"
       d="m 261.07136,110.54 c 10.16202,8.71899 25.43149,8.67292 35.54061,-0.1063 L 397.54262,22.777874 c 10.13647,-8.823519 25.48438,-8.823519 35.62086,0 l 100.82485,87.577866 c 10.15654,8.79871 25.49351,8.79871 35.6464,0 L 670.45958,22.777874 c 10.13648,-8.823519 25.48439,-8.823519 35.62087,0 L 807.01109,110.4337 c 10.10912,8.77568 25.37859,8.82174 35.54061,0.1063 l 74.23506,-63.796879 c 11.0613,-9.489713 27.95056,-8.472705 37.71857,2.269664 4.31033,4.741313 6.6926,10.845133 6.69442,17.170428 V 1022.674 c 0,14.3356 -11.97699,25.9514 -26.73571,25.9426 -6.51201,0 -12.79783,-2.3158 -17.67728,-6.5025 L 842.5517,978.31367 c -10.16202,-8.71898 -25.43149,-8.67114 -35.54061,0.10631 L 706.08045,1066.074 c -10.13648,8.8253 -25.48439,8.8253 -35.62087,0 L 569.63473,978.49794 c -10.15654,-8.79871 -25.48986,-8.79871 -35.6464,0 L 433.16348,1066.074 c -10.13648,8.8253 -25.48439,8.8253 -35.62086,0 L 296.61197,978.41998 c -10.10912,-8.77568 -25.37859,-8.82352 -35.54061,-0.10631 l -74.23506,63.80043 c -11.06129,9.4897 -27.94874,8.4727 -37.71857,-2.2714 -4.31033,-4.7396 -6.69259,-10.8434 -6.69442,-17.1687 V 66.181441 c 0,-14.335562 11.97699,-25.951424 26.73572,-25.944337 6.512,0 12.79782,2.315731 17.67727,6.502473 z"
       stroke-width="28.764"
       stroke="#404a4a"
       style="fill:url(#linearGradient35459);fill-opacity:1;stroke:none;stroke-opacity:0" />
    <g
       transform="matrix(2.2703973,0,0,2.2053,-49541.183,-53945.41)"
       id="svg_1874"
       stroke="null"
       style="stroke-opacity:0" />
    <g
       transform="matrix(2.2703973,0,0,2.2053,-49541.183,-53945.41)"
       id="svg_1873"
       stroke="null"
       style="stroke-opacity:0" />
    <g
       transform="matrix(2.2703973,0,0,2.2053,-49541.183,-53945.41)"
       id="svg_1872"
       stroke="null"
       style="stroke-opacity:0" />
    <g
       transform="matrix(2.2703973,0,0,2.2053,-49541.183,-53945.41)"
       id="svg_1871"
       stroke="null"
       style="stroke-opacity:0" />
    <g
       transform="matrix(2.2703973,0,0,2.2053,-49541.183,-53945.41)"
       id="svg_1870"
       stroke="null"
       style="stroke-opacity:0" />
    <g
       transform="matrix(2.2703973,0,0,2.2053,-49541.183,-53945.41)"
       id="svg_1869"
       stroke="null"
       style="stroke-opacity:0" />
    <g
       transform="matrix(2.2703973,0,0,2.2053,-49541.183,-53945.41)"
       id="svg_1868"
       stroke="null"
       style="stroke-opacity:0" />
    <g
       transform="matrix(2.2703973,0,0,2.2053,-49541.183,-53945.41)"
       id="svg_1867"
       stroke="null"
       style="stroke-opacity:0" />
    <g
       transform="matrix(2.2703973,0,0,2.2053,-49541.183,-53945.41)"
       id="svg_1866"
       stroke="null"
       style="stroke-opacity:0" />
    <g
       transform="matrix(2.2703973,0,0,2.2053,-49541.183,-53945.41)"
       id="svg_1865"
       stroke="null"
       style="stroke-opacity:0" />
    <g
       transform="matrix(2.2703973,0,0,2.2053,-49541.183,-53945.41)"
       id="svg_1864"
       stroke="null"
       style="stroke-opacity:0" />
    <g
       transform="matrix(2.2703973,0,0,2.2053,-49541.183,-53945.41)"
       id="svg_1863"
       stroke="null"
       style="stroke-opacity:0" />
    <g
       transform="matrix(2.2703973,0,0,2.2053,-49541.183,-53945.41)"
       id="svg_1862"
       stroke="null"
       style="stroke-opacity:0" />
    <g
       transform="matrix(2.2703973,0,0,2.2053,-49541.183,-53945.41)"
       id="svg_1861"
       stroke="null"
       style="stroke-opacity:0" />
    <g
       transform="matrix(2.2703973,0,0,2.2053,-49541.183,-53945.41)"
       id="svg_1860"
       stroke="null"
       style="stroke-opacity:0" />
    <g
       transform="matrix(2.2703973,0,0,2.2053,-49541.183,-53945.41)"
       id="svg_1859"
       stroke="null"
       style="stroke-opacity:0" />
    <g
       transform="matrix(1.8240918,0,0,1.7717911,-49678.737,-47382.021)"
       stroke="null"
       id="svg_1849"
       style="stroke-opacity:0" />
    <path
       d="m 679.86708,141.41581 h 235.20886 c 3.93574,0 7.12726,2.92156 7.12726,6.52604 v 215.3514 c 0,3.60449 -3.19152,6.52604 -7.12726,6.52604 L 793.90747,383.66138 679.8671,369.81848 c -3.93658,0 -7.12727,-2.92156 -7.12727,-6.52604 V 147.94185 c -8.3e-4,-3.60448 3.19069,-6.52604 7.12727,-6.52604 z"
       fill="#FDDD85"
       id="svg_1930"
       stroke="null"
       style="fill:#9a4121;fill-opacity:1" />
    <path
       d="m 530.18873,369.81929 h 35.63798 v -76.13477 c 0,-19.08174 15.98685,-34.60686 35.63798,-34.60686 h 64.14788 c 3.93657,0 7.12726,3.09919 7.12726,6.92105 v 103.81977 h 242.33612 c 3.93573,8.1e-4 7.12725,3.09918 7.12725,6.92185 v 96.89872 c 0,3.82186 -3.19152,6.92105 -7.12725,6.92105 H 679.86709 572.95398 501.67885 c -3.93658,0 -7.12727,-3.09919 -7.12727,-6.92105 v -69.21291 c -8.3e-4,-19.08256 15.98602,-34.60685 35.63715,-34.60685 z"
       fill="#e5563c"
       id="svg_1931"
       stroke="null" />
    <ellipse
       style="stroke-width:0.823087"
       ry="48.448952"
       rx="49.892509"
       cx="-572.95398"
       cy="459.79608"
       fill="#74757b"
       id="svg_1932"
       transform="scale(-1,1)"
       stroke="null" />
    <ellipse
       style="stroke-width:0.823087"
       ry="27.684999"
       rx="28.509884"
       cx="-572.95398"
       cy="459.79608"
       fill="#afb0b4"
       id="svg_1933"
       transform="scale(-1,1)"
       stroke="null" />
    <ellipse
       style="stroke-width:0.823087"
       ry="20.763952"
       rx="21.382624"
       cx="-572.95398"
       cy="459.79608"
       fill="#d7d8d9"
       id="svg_1934"
       transform="scale(-1,1)"
       stroke="null" />
    <ellipse
       style="stroke-width:0.823087"
       ry="48.448952"
       rx="49.892509"
       cx="-843.80011"
       cy="459.79608"
       fill="#74757b"
       id="svg_1935"
       transform="scale(-1,1)"
       stroke="null" />
    <ellipse
       style="stroke-width:0.823087"
       ry="27.684999"
       rx="28.509884"
       cx="-843.80011"
       cy="459.79608"
       fill="#afb0b4"
       id="svg_1936"
       transform="scale(-1,1)"
       stroke="null" />
    <ellipse
       style="stroke-width:0.823087"
       ry="20.763952"
       rx="21.382624"
       cx="-843.80011"
       cy="459.79608"
       fill="#d7d8d9"
       id="svg_1937"
       transform="scale(-1,1)"
       stroke="null" />
    <path
       d="m 644.2291,404.42534 h 14.25537 c 3.93658,0 7.12726,-3.09919 7.12726,-6.92105 0,-3.82268 -3.19152,-6.92105 -7.12726,-6.92105 H 644.2291 c -3.93656,0 -7.12725,3.09919 -7.12725,6.92105 0,3.82268 3.19069,6.92105 7.12725,6.92105 z"
       fill="#b83c26"
       id="svg_1938"
       stroke="null" />
    <path
       d="m 601.46386,272.92057 h 49.89251 c 3.93658,0 7.12726,3.09919 7.12726,6.92105 v 69.21291 c 0,3.82268 -3.19152,6.92104 -7.12726,6.92104 H 587.2085 c -3.93657,0 -7.12726,-3.09918 -7.12726,-6.92104 v -55.37001 c 0,-11.44936 9.59295,-20.76395 21.38262,-20.76395 z"
       fill="#d7d8d9"
       id="svg_1939"
       stroke="null" />
    <g
       id="svg_1940"
       transform="matrix(-0.8352587,0,0,0.81109189,3708.9128,-2538.5126)"
       stroke="null">
      <path
         d="m 3660.61,3466.2326 c -4.713,0 -8.533,3.821 -8.533,8.533 v 43.378 l 51.911,-51.911 z"
         fill="#88898e"
         id="svg_1941"
         stroke="null" />
      <path
         d="m 3724.301,3466.5406 -72.225,72.225 v 21.333 c 0,4.713 3.821,8.533 8.533,8.533 h 7.822 l 77.493,-77.493 c -0.333,-12.458 -9.604,-22.724 -21.623,-24.598 z"
         fill="#88898e"
         id="svg_1942"
         stroke="null" />
      <path
         d="m 3708.965,3568.6326 h 28.445 c 4.713,0 8.533,-3.821 8.533,-8.533 v -28.445 z"
         fill="#88898e"
         id="svg_1943"
         stroke="null" />
    </g>
    <path
       d="m 907.94785,363.29325 v -215.3514 c 0,-3.60448 -3.19152,-6.52604 -7.12727,-6.52604 h 14.25537 c 3.93573,0 7.12725,2.92156 7.12725,6.52604 v 215.3514 c 0,3.60449 -3.19152,6.52604 -7.12725,6.52604 h -14.25537 c 3.93658,0 7.12727,-2.92155 7.12727,-6.52604 z"
       fill="#FDD042"
       id="svg_1944"
       stroke="null"
       style="fill:#7e3a1a;fill-opacity:1" />
    <path
       style="stroke-width:0.894353"
       d="m 751.14223,141.41581 h 85.53049 v 77.33939 c 0,4.26499 -5.96208,7.16628 -10.79489,4.91376 l -31.97036,-14.89891 -31.97037,14.89891 c -4.82529,2.24861 -10.79487,-0.63773 -10.79487,-4.89559 z"
       fill="#f2c127"
       id="svg_1945"
       stroke="null" />
    <path
       style="stroke-width:0.894353"
       d="m 822.41735,218.75455 v -77.33874 h 14.25537 v 77.3394 c 0,4.26498 -5.96208,7.16627 -10.79489,4.91375 l -4.4419,-2.06957 c 0.61725,-0.82911 0.98142,-1.79513 0.98142,-2.84484 z"
       fill="#e1a527"
       id="svg_1946"
       stroke="null" />
    <g
       id="svg_1958"
       transform="matrix(-0.8352587,0,0,0.81109189,3708.9128,-2538.5126)"
       stroke="null" />
    <g
       id="svg_1959"
       transform="matrix(-0.8352587,0,0,0.81109189,3708.9128,-2538.5126)"
       stroke="null" />
    <g
       id="svg_1960"
       transform="matrix(-0.8352587,0,0,0.81109189,3708.9128,-2538.5126)"
       stroke="null" />
    <g
       id="svg_1961"
       transform="matrix(-0.8352587,0,0,0.81109189,3708.9128,-2538.5126)"
       stroke="null" />
    <g
       id="svg_1962"
       transform="matrix(-0.8352587,0,0,0.81109189,3708.9128,-2538.5126)"
       stroke="null" />
    <g
       id="svg_1963"
       transform="matrix(-0.8352587,0,0,0.81109189,3708.9128,-2538.5126)"
       stroke="null" />
    <g
       id="svg_1964"
       transform="matrix(-0.8352587,0,0,0.81109189,3708.9128,-2538.5126)"
       stroke="null" />
    <g
       id="svg_1965"
       transform="matrix(-0.8352587,0,0,0.81109189,3708.9128,-2538.5126)"
       stroke="null" />
    <g
       id="svg_1966"
       transform="matrix(-0.8352587,0,0,0.81109189,3708.9128,-2538.5126)"
       stroke="null" />
    <g
       id="svg_1967"
       transform="matrix(-0.8352587,0,0,0.81109189,3708.9128,-2538.5126)"
       stroke="null" />
    <g
       id="svg_1968"
       transform="matrix(-0.8352587,0,0,0.81109189,3708.9128,-2538.5126)"
       stroke="null" />
    <g
       id="svg_1969"
       transform="matrix(-0.8352587,0,0,0.81109189,3708.9128,-2538.5126)"
       stroke="null" />
    <g
       id="svg_1970"
       transform="matrix(-0.8352587,0,0,0.81109189,3708.9128,-2538.5126)"
       stroke="null" />
    <g
       id="svg_1971"
       transform="matrix(-0.8352587,0,0,0.81109189,3708.9128,-2538.5126)"
       stroke="null" />
    <g
       id="svg_1972"
       transform="matrix(-0.8352587,0,0,0.81109189,3708.9128,-2538.5126)"
       stroke="null" />
    <!-- Created with Method Draw - http://github.com/duopixel/Method-Draw/ -->
    <!-- Created with Method Draw - http://github.com/duopixel/Method-Draw/ -->
    <!-- Created with Method Draw - http://github.com/duopixel/Method-Draw/ -->
    <g
       stroke="null"
       transform="rotate(0.3038823902606964 185.00086975097676,451.86779785156347) "
       id="svg_2175">
      <g
         stroke="null"
         transform="matrix(0.9369482124865629,0,0,0.9369482124865629,-9965.56436364851,-10707.73216861611) "
         id="svg_2159">
        <g
           stroke="null"
           id="svg_2160">
          <path
             stroke="null"
             id="svg_2161"
             fill="#ff0059"
             d="m10833.64501,12166.59172c-105.869,0 -192,-86.121 -192,-191.978c0,-80.543 39.356,-158.715 62.817,-198.143c32.491,-54.608 73.152,-101.388 101.181,-116.407c12.5,-6.698 23.088,-7.27 31.467,-1.698c5.664,3.767 12.078,11.803 10.468,28.702c-5.36,56.277 8.619,100.982 36.482,116.668c22.868,12.872 55.05,5.37 90.625,-21.123c4.213,-3.136 9.759,-3.842 14.623,-1.86c4.864,1.983 8.336,6.365 9.154,11.552c2.282,14.467 5.525,31.697 8.958,49.939c8.542,45.387 18.225,96.829 18.225,132.37c0.001,105.857 -86.131,191.978 -192,191.978z" />
        </g>
        <g
           stroke="null"
           id="svg_2163">
          <path
             stroke="null"
             id="svg_2164"
             fill="#fdbf00"
             d="m10833.64601,12085.12272c-60.947,0 -110.531,-49.584 -110.531,-110.531s49.584,-110.531 110.531,-110.531s110.531,49.584 110.531,110.531s-49.584,110.531 -110.531,110.531z" />
        </g>
        <path
           stroke="null"
           id="svg_2165"
           fill="#ff8856"
           d="m10833.64601,11864.05972c-0.013,0 -0.027,0 -0.04,0l0,221.062l0.04,0c60.947,0 110.531,-49.584 110.531,-110.531s-49.584,-110.531 -110.531,-110.531z" />
        <g
           stroke="null"
           id="svg_2166">
          <g
             stroke="null"
             id="svg_2167">
            <path
               stroke="null"
               id="svg_2168"
               fill="#ff8859"
               d="m10792.69301,12030.54372c-3.839,0 -7.678,-1.464 -10.606,-4.394c-5.858,-5.858 -5.858,-15.355 0,-21.213l81.904,-81.904c5.857,-5.858 15.355,-5.858 21.213,0s5.858,15.355 0,21.213l-81.904,81.904c-2.929,2.93 -6.768,4.394 -10.607,4.394z" />
          </g>
        </g>
        <g
           stroke="null"
           id="svg_2169">
          <g
             stroke="null"
             id="svg_2170">
            <circle
               stroke="null"
               id="svg_2171"
               r="15"
               fill-rule="evenodd"
               fill="#ff8859"
               cy="11935.591725"
               cx="10806.645013"
               clip-rule="evenodd" />
          </g>
        </g>
        <g
           stroke="null"
           id="svg_2172">
          <circle
             stroke="null"
             id="svg_2173"
             r="15"
             fill-rule="evenodd"
             fill="#ff415b"
             cy="12011.591725"
             cx="10869.645013"
             clip-rule="evenodd" />
        </g>
        <path
           stroke="null"
           id="svg_2174"
           fill="#ff415b"
           d="m10885.20401,11923.03272c-5.857,-5.858 -15.355,-5.858 -21.213,0l-30.385,30.385l0,42.426l51.598,-51.598c5.858,-5.858 5.858,-15.355 0,-21.213z" />
      </g>
    </g>
    <g
       stroke="null"
       transform="rotate(0.04779169335961342 531.6386108397741,760.1102905273427) "
       id="svg_2192">
      <g
         stroke="null"
         transform="matrix(0.6528015208753511,0,0,0.6528015208753511,-2472.689228433824,-1965.9166153192477) "
         id="svg_2181">
        <title
           id="title34316">background</title>
        <rect
           stroke="null"
           x="4345.207289"
           y="3974.88911"
           width="514"
           height="402"
           id="svg_2178"
           fill="none" />
        <g
           stroke="null"
           id="svg_2180"
           display="none">
          <rect
             stroke="null"
             id="svg_2179"
             width="1080"
             height="1080"
             x="4346.207289"
             y="3975.88911"
             stroke-width="0"
             fill="url(#gridpattern)" />
        </g>
      </g>
      <g
         stroke="null"
         transform="matrix(0.6528015208753511,0,0,0.6528015208753511,-2472.689228433824,-1965.9166153192477) "
         id="svg_2191">
        <title
           id="title34322">Layer 1</title>
        <g
           stroke="null"
           id="svg_2189">
          <path
             stroke="null"
             d="m4725.07728,4375.88744l-230.74005,0c-25.92987,0 -46.9547,-21.0202 -46.9547,-46.9547l0,-227.17024c0,-25.92986 21.02483,-46.95469 46.9547,-46.95469l230.74005,0c25.92987,0 46.9547,21.02483 46.9547,46.95469l0,227.17024c0,25.93449 -21.02483,46.9547 -46.9547,46.9547zm0,0"
             fill="#ffe4c2"
             id="svg_2183" />
          <path
             stroke="null"
             d="m4725.07728,4054.80781l-115.85218,0l0,321.07963l115.85218,0c25.92987,0 46.9547,-21.0202 46.9547,-46.9547l0,-227.17024c0,-25.93449 -21.02483,-46.95469 -46.9547,-46.95469zm0,0"
             fill="#f2bb88"
             id="svg_2184" />
          <path
             stroke="null"
             d="m4466.09857,3992.73934l287.21736,0l0,62.06847l-287.21736,0l0,-62.06847zm0,0"
             fill="#ffd400"
             id="svg_2185" />
          <path
             stroke="null"
             d="m4609.2251,3992.73934l144.09083,0l0,62.06847l-144.09083,0l0,-62.06847zm0,0"
             fill="#fcaf03"
             id="svg_2186" />
          <path
             stroke="null"
             d="m4447.38253,4140.55762l324.64945,0l0,140.04813l-324.64945,0l0,-140.04813zm0,0"
             fill="#b46e5a"
             id="svg_2187" />
          <path
             stroke="null"
             d="m4609.2251,4140.55762l162.80688,0l0,140.04813l-162.80688,0l0,-140.04813zm0,0"
             fill="#915041"
             id="svg_2188" />
        </g>
        <text
           stroke="null"
           fill="#000000"
           stroke-width="0"
           stroke-opacity="null"
           fill-opacity="null"
           x="4525.707289"
           y="4180.342235"
           id="svg_2190"
           font-size="24"
           font-family="Helvetica, Arial, sans-serif"
           text-anchor="start"
           xml:space="preserve" />
      </g>
    </g>
    <g
       stroke="null"
       transform="rotate(0.04779169335961342 767.4514770510733,736.8106079100925) "
       id="svg_2002">
      <g
         stroke="null"
         transform="matrix(0.9378909435608407,0,0,0.9378909435608407,-3828.032617169304,-3177.3850878084945) "
         id="svg_1999">
        <title
           id="title34334">background</title>
        <rect
           stroke="null"
           x="4642.806987"
           y="3972.402082"
           width="514"
           height="402"
           id="svg_1997"
           fill="none" />
        <g
           stroke="null"
           id="svg_1996"
           display="none">
          <rect
             stroke="null"
             id="svg_2000"
             width="1080"
             height="1080"
             x="4643.806987"
             y="3973.402082"
             stroke-width="0"
             fill="url(#gridpattern)" />
        </g>
      </g>
      <g
         stroke="null"
         transform="matrix(0.9378909435608407,0,0,0.9378909435608407,-3828.032617169304,-3177.3850878084945) "
         id="svg_2001">
        <title
           id="title34340">Layer 1</title>
        <g
           stroke="null"
           id="svg_1989">
          <path
             stroke="null"
             d="m5022.67698,4373.40042l-230.74006,0c-25.92986,0 -46.95469,-21.02021 -46.95469,-46.9547l0,-227.17024c0,-25.92987 21.02483,-46.9547 46.95469,-46.9547l230.74006,0c25.92986,0 46.9547,21.02483 46.9547,46.9547l0,227.17024c0,25.93449 -21.02484,46.9547 -46.9547,46.9547zm0,0"
             fill="#ffe4c2"
             id="svg_1995" />
          <path
             stroke="null"
             d="m5022.67698,4052.32078l-115.85219,0l0,321.07964l115.85219,0c25.92986,0 46.9547,-21.02021 46.9547,-46.9547l0,-227.17024c0,-25.93449 -21.02484,-46.9547 -46.9547,-46.9547zm0,0"
             fill="#f2bb88"
             id="svg_1994" />
          <path
             stroke="null"
             d="m4763.69827,3990.25231l287.21736,0l0,62.06847l-287.21736,0l0,-62.06847zm0,0"
             fill="#ffd400"
             id="svg_1993" />
          <path
             stroke="null"
             d="m4906.82479,3990.25231l144.09084,0l0,62.06847l-144.09084,0l0,-62.06847zm0,0"
             fill="#fcaf03"
             id="svg_1992" />
          <path
             stroke="null"
             d="m4744.98223,4138.07059l324.64945,0l0,140.04814l-324.64945,0l0,-140.04814zm0,0"
             fill="#b46e5a"
             id="svg_1991" />
          <path
             stroke="null"
             d="m4906.82479,4138.07059l162.80689,0l0,140.04814l-162.80689,0l0,-140.04814zm0,0"
             fill="#915041"
             id="svg_1990" />
        </g>
        <text
           stroke="null"
           fill="#000000"
           stroke-width="0"
           stroke-opacity="null"
           fill-opacity="null"
           x="4823.306987"
           y="4177.855207"
           id="svg_1988"
           font-size="24"
           font-family="Helvetica, Arial, sans-serif"
           text-anchor="start"
           xml:space="preserve" />
      </g>
    </g>
    <path
       style="clip-rule:evenodd;fill:#f4e8d7;fill-opacity:1;fill-rule:evenodd;stroke:none;stroke-width:0.450032px;stroke-linecap:butt;stroke-linejoin:miter;stroke-opacity:1;image-rendering:optimizeQuality;shape-rendering:geometricPrecision;text-rendering:geometricPrecision"
       d="m 803.32432,258.66316 c -4.54011,-4.83622 21.96478,-22.89799 31.22984,-23.48437 9.26526,-0.58636 33.72302,69.05547 10.28633,75.03227 -10.04993,2.56291 -64.31352,8.61698 -105.5457,4.38989 -8.61785,-0.8835 -10.00381,-21.47756 -5.13832,-29.59938 6.53366,-10.90659 22.71814,-8.5233 33.74891,-5.06983 24.63669,7.71319 40.86798,13.94315 46.87995,3.75188 4.68946,-7.94922 -6.92086,-20.18425 -11.46101,-25.02046 z"
       id="path973-0-8"
       sodipodi:nodetypes="zzssassz" />
    <ellipse
       style="clip-rule:evenodd;fill:#f4e8d7;fill-opacity:1;fill-rule:evenodd;stroke:none;stroke-width:65.2567;stroke-linecap:round;stroke-linejoin:round;stroke-opacity:0;image-rendering:optimizeQuality;shape-rendering:geometricPrecision;text-rendering:geometricPrecision"
       id="path1798-3-0"
       cx="800.32745"
       cy="342.39795"
       rx="18.220146"
       ry="17.650764" />
  </g>
</svg>
