<?xml version="1.0" encoding="UTF-8" standalone="no"?>
<svg
   xmlns:dc="http://purl.org/dc/elements/1.1/"
   xmlns:cc="http://creativecommons.org/ns#"
   xmlns:rdf="http://www.w3.org/1999/02/22-rdf-syntax-ns#"
   xmlns:svg="http://www.w3.org/2000/svg"
   xmlns="http://www.w3.org/2000/svg"
   xmlns:sodipodi="http://sodipodi.sourceforge.net/DTD/sodipodi-0.dtd"
   xmlns:inkscape="http://www.inkscape.org/namespaces/inkscape"
   inkscape:version="1.0 (4035a4f, 2020-05-01)"
   sodipodi:docname="8.svg"
   id="svg38017"
   version="1.1"
   height="1080"
   width="1080">
  <metadata
     id="metadata38023">
    <rdf:RDF>
      <cc:Work
         rdf:about="">
        <dc:format>image/svg+xml</dc:format>
        <dc:type
           rdf:resource="http://purl.org/dc/dcmitype/StillImage" />
      </cc:Work>
    </rdf:RDF>
  </metadata>
  <defs
     id="defs38021">
    <rect
       id="rect941"
       height="227.77989"
       width="515.24445"
       y="815.96759"
       x="589.70807" />
    <rect
       id="rect1241"
       height="227.77989"
       width="515.24445"
       y="815.96759"
       x="589.70807" />
  </defs>
  <sodipodi:namedview
     inkscape:current-layer="svg38017"
     inkscape:window-maximized="0"
     inkscape:window-y="23"
     inkscape:window-x="0"
     inkscape:cy="444.92537"
     inkscape:cx="768.1464"
     inkscape:zoom="0.39029713"
     showgrid="false"
     id="namedview38019"
     inkscape:window-height="723"
     inkscape:window-width="1366"
     inkscape:pageshadow="2"
     inkscape:pageopacity="0"
     guidetolerance="10"
     gridtolerance="10"
     objecttolerance="10"
     borderopacity="1"
     bordercolor="#666666"
     pagecolor="#ffffff"
     inkscape:document-rotation="0" />
  <!-- Created with Method Draw - http://github.com/duopixel/Method-Draw/ -->
  <g
     id="g37859">
    <title
       id="title37853">background</title>
    <rect
       x="-1"
       y="-1"
       width="1082"
       height="1082"
       id="canvas_background"
       fill="none" />
    <g
       id="canvasGrid"
       width="100%"
       height="100%"
       x="0"
       y="0"
       overflow="visible"
       display="none">
      <rect
         id="rect37856"
         width="100%"
         height="100%"
         x="0"
         y="0"
         stroke-width="0"
         fill="url(#gridpattern)" />
    </g>
  </g>
  <g
     id="g38015">
    <title
       id="title37861">Layer 1</title>
    <!-- Created with Method Draw - http://github.com/duopixel/Method-Draw/ -->
    <g
       id="svg_248"
       stroke="null">
      <g
         id="svg_246"
         transform="matrix(2.023115527408192,0,0,2.023115527408192,-33608.00136213954,-33557.457270945364) "
         stroke="null">
        <title
           id="title37863"
           transform="translate(-1.9771485328674316,0) translate(1.9771485328674316,0) translate(1.9771485328674316,0) translate(1.9771485328674316,0) translate(1.9771485328674316,0) translate(-47.719051361083984,-19.52142906188965) translate(-559.515625,-594.8004150390625) translate(17220.267578125,0) translate(0,17226.39453125) "
           stroke="null">background</title>
        <rect
           fill="none"
           id="svg_244"
           height="514"
           width="514"
           y="16611.072687"
           x="16617.964347"
           stroke="null" />
        <g
           display="none"
           id="svg_242"
           stroke="null">
          <rect
             fill="url(#gridpattern)"
             stroke-width="0"
             y="16612.072687"
             x="16618.964347"
             height="1080"
             width="1080"
             id="svg_243"
             stroke="null" />
        </g>
      </g>
      <g
         id="svg_247"
         transform="matrix(2.023115527408192,0,0,2.023115527408192,-33608.00136213954,-33557.457270945364) "
         stroke="null">
        <title
           id="title37869"
           transform="translate(-1.9771485328674316,0) translate(1.9771485328674316,0) translate(1.9771485328674316,0) translate(1.9771485328674316,0) translate(1.9771485328674316,0) translate(-47.719051361083984,-19.52142906188965) translate(-559.515625,-594.8004150390625) translate(17220.267578125,0) translate(0,17226.39453125) "
           stroke="null">Layer 1</title>
        <g
           id="svg_159"
           stroke="null">
          <path
             id="svg_241"
             fill="#9a4121"
             d="m16936.223547,16920.532397c-1.11134,0.55565 -2.33184,0.81933 -3.54241,0.81933c-1.92501,0 -3.83017,-0.68429 -5.25905,-1.99723l-51.53862,-47.38904c-1.40903,-1.2956 -2.183,-3.0474 -2.183,-4.84574c0,1.79834 -0.77397,3.55014 -2.183,4.84574l-51.53863,47.38904c-1.42887,1.31294 -3.33403,1.99723 -5.25904,1.99723c-1.21057,0 -2.43107,-0.26368 -3.54241,-0.81933l-128.48836,-64.03573l0,129.274c-0.00099,0.23723 0.0119,0.47263 0.0377,0.70529c0.01092,0.09945 0.03176,0.19616 0.04664,0.29379c0.01885,0.11952 0.03374,0.23905 0.05954,0.35675c0.03175,0.14963 0.07541,0.29379 0.11708,0.43795c0.01985,0.06752 0.03473,0.13503 0.05656,0.20164c0.04863,0.14781 0.10717,0.29014 0.16571,0.43339c0.0258,0.06387 0.04763,0.12865 0.07641,0.19251c0.05755,0.12865 0.12403,0.25274 0.18952,0.37774c0.04069,0.07664 0.0774,0.15328 0.12106,0.22992c0.05954,0.10128 0.12503,0.19982 0.18952,0.29744c0.06152,0.09398 0.12007,0.18887 0.18556,0.28193c0.05457,0.07664 0.11609,0.14781 0.17464,0.2208c0.08434,0.10858 0.16769,0.21533 0.25898,0.31934c0.05061,0.05748 0.10717,0.1104 0.15976,0.16606c0.10518,0.11222 0.21036,0.22262 0.32348,0.32755c0.05953,0.05566 0.12304,0.10493 0.18456,0.15693c0.11312,0.09854 0.22426,0.19617 0.34432,0.28741c0.1161,0.08941 0.23914,0.16879 0.3602,0.25091c0.07144,0.04835 0.13792,0.09945 0.21135,0.14598c0.21334,0.1323 0.43461,0.25456 0.66284,0.36861l183.54657,91.22701c1.10539,0.54926 2.32192,0.82298 3.53944,0.82298c1.21752,0 2.43503,-0.27463 3.53844,-0.82298l183.54658,-91.22701c0.22822,-0.11405 0.4495,-0.23722 0.66283,-0.36861c0.07343,-0.04653 0.14091,-0.09763 0.21136,-0.14598c0.12205,-0.08212 0.24509,-0.16241 0.36019,-0.25091c0.12007,-0.09124 0.2312,-0.18887 0.34432,-0.28741c0.06053,-0.05201 0.12503,-0.10127 0.18357,-0.15693c0.11312,-0.10493 0.2183,-0.21533 0.32348,-0.32755c0.05259,-0.05566 0.10915,-0.10858 0.15976,-0.16606c0.09129,-0.1031 0.17464,-0.20985 0.25898,-0.31934c0.05855,-0.07299 0.12007,-0.14416 0.17464,-0.2208c0.06549,-0.09306 0.12404,-0.18704 0.18556,-0.28193c0.0645,-0.09854 0.13098,-0.19616 0.18952,-0.29744c0.04366,-0.07664 0.08038,-0.15328 0.12106,-0.22992c0.06549,-0.125 0.13197,-0.24909 0.18952,-0.37774c0.02878,-0.06386 0.05061,-0.12864 0.07641,-0.19251c0.05854,-0.14234 0.11709,-0.28558 0.16571,-0.43339c0.02183,-0.06569 0.03671,-0.13412 0.05656,-0.20164c0.04167,-0.14416 0.08533,-0.28832 0.11708,-0.43795c0.0258,-0.1177 0.04069,-0.23722 0.05954,-0.35675c0.01488,-0.09763 0.03671,-0.19434 0.04664,-0.29379c0.0258,-0.23358 0.0387,-0.46897 0.0377,-0.70529l0,-129.274l-128.48637,64.03573z"
             stroke="null" />
          <path
             id="svg_240"
             fill="#ffc431"
             d="m16869.800837,16676.984217c2.06392,-1.02097 3.48287,-2.8923 3.82025,-5.02731c0.04961,-0.32755 0.07938,-0.65602 0.07938,-0.98539c0,0.32937 0.02977,0.65784 0.07938,0.97626c0.33737,2.13501 1.75632,3.99722 3.82025,5.02732l183.57039,91.23978c1.12127,0.55748 2.33184,0.82116 3.54241,0.82116c-1.21057,0 -2.42114,0.27463 -3.54241,0.83028l-183.57039,91.23979c-2.06393,1.0228 -3.48288,2.8923 -3.82025,5.02731c-0.04961,0.32937 -0.07938,0.65784 -0.07938,0.98539c0,-0.32755 -0.02977,-0.65602 -0.07938,-0.98539c-0.33738,-2.13501 -1.75633,-4.00451 -3.82025,-5.02731l-183.57039,-91.23979c-0.98235,-0.48266 -2.03416,-0.75729 -3.08597,-0.82116c1.05181,-0.06386 2.10362,-0.33667 3.08597,-0.82115l183.57039,-91.23979z"
             stroke="null" />
          <path
             id="svg_239"
             fill="#9a4121"
             d="m17123.118047,16713.810417c0.33738,2.13501 -0.42667,4.28736 -2.08377,5.82019l-51.04249,47.38264c-1.42887,1.33119 -3.34396,2.02461 -5.27889,2.02461c-1.21057,0 -2.42115,-0.26368 -3.54241,-0.82116l-183.57039,-91.23978c-2.06393,-1.0301 -3.48288,-2.8923 -3.82025,-5.02731c-0.04961,-0.31934 -0.07938,-0.64689 -0.07938,-0.97627c0,-0.00912 0,-0.00912 0,-0.01825c0,-1.79651 0.77397,-3.55014 2.183,-4.83479l51.53862,-47.39086c2.32192,-2.14414 5.90402,-2.61767 8.80146,-1.17608l183.07425,91.23978c2.06393,1.02007 3.47296,2.88227 3.82025,5.01728z"
             stroke="null" />
          <path
             id="svg_238"
             fill="#9a4121"
             d="m17121.034277,16818.452417c1.6571,1.53282 2.42115,3.687 2.08377,5.82201c-0.34729,2.12589 -1.75632,3.98626 -3.82025,5.01819l-183.07425,91.23978c-1.11135,0.55565 -2.33184,0.81933 -3.54241,0.81933c-1.92501,0 -3.83017,-0.68429 -5.25905,-1.99723l-51.53862,-47.38904c-1.40903,-1.2956 -2.183,-3.0474 -2.183,-4.84574c0,-0.32755 0.02976,-0.65602 0.07938,-0.98539c0.33737,-2.13501 1.75632,-4.00451 3.82025,-5.02731l183.57039,-91.23979c1.12127,-0.55565 2.33184,-0.83028 3.54241,-0.83028c1.93493,0 3.85002,0.70255 5.27889,2.02644l51.04249,47.38903z"
             stroke="null" />
          <g
             transform="matrix(0.9922723778802572,0,0,0.9123978576422797,-2117.493419662407,-1868.5549166331814) "
             id="svg_235"
             stroke="null">
            <path
               id="svg_237"
               fill="#7e3a1a"
               d="m19388.352893,20481.204316l-51.44,-51.939c-1.44,-1.451 -3.37,-2.221 -5.32,-2.221c-1.22,0 -2.44,0.301 -3.57,0.91l-19.532,10.564c1.13,-0.609 2.35,-0.91 3.57,-0.91c1.95,0 3.88,0.77 5.32,2.221l51.44,51.939c1.67,1.68 2.441,4.041 2.1,6.381c-0.35,2.33 -1.77,4.369 -3.85,5.5l19.532,-10.564c2.08,-1.131 3.5,-3.17 3.85,-5.5c0.34,-2.34 -0.43,-4.701 -2.1,-6.381z"
               stroke="null" />
            <path
               id="svg_236"
               fill="#9a4121"
               d="m19139.092893,20319.544316c0,0.01 0,0.01 0,0.02c0,0.361 -0.03,0.721 -0.08,1.08c-0.34,2.34 -1.77,4.391 -3.85,5.51l-185,100c-0.99,0.531 -2.05,0.83 -3.11,0.9c-0.21,-0.01 -0.43,-0.01 -0.64,0c-1.89,-0.039 -3.74,-0.799 -5.14,-2.209l-51.44,-51.942c-1.67,-1.68 -2.44,-4.039 -2.1,-6.379c0.35,-2.33 1.77,-4.371 3.85,-5.5l184.5,-100c2.92,-1.58 6.53,-1.051 8.87,1.289l51.94,51.941c1.42,1.421 2.19,3.331 2.2,5.29z"
               stroke="null" />
          </g>
          <path
             id="svg_234"
             fill="#9a4121"
             d="m16873.621077,16866.134327c0.04962,0.32938 0.07939,0.65784 0.07939,0.98539c0,1.79834 -0.77397,3.55014 -2.183,4.84574l-51.53863,47.38904c-1.42887,1.31294 -3.33403,1.99723 -5.25904,1.99723c-1.21057,0 -2.43107,-0.26368 -3.54241,-0.81933l-183.07426,-91.23978c-2.06393,-1.03193 -3.47295,-2.8923 -3.82025,-5.01819c-0.33737,-2.13501 0.42668,-4.28918 2.08377,-5.82201l51.0425,-47.38903c1.38918,-1.28649 3.22488,-1.97991 5.10028,-2.01732c0.05953,0.00913 0.11907,0.00913 0.1786,0.00913c0.14885,0 0.29769,0 0.45645,-0.00913c1.05181,0.06387 2.10362,0.3385 3.08597,0.82116l183.57039,91.23979c2.06392,1.0228 3.48287,2.8923 3.82025,5.02731l-0.00001,0z"
             stroke="null" />
          <path
             id="svg_233"
             fill="#E2AE83"
             d="m16683.144477,16769.046067c-0.15876,0.00913 -0.3076,0.00913 -0.45644,0.00913c-0.05954,0 -0.11908,0 -0.17861,-0.00913c0.20837,-0.00912 0.42667,-0.00912 0.63505,0z"
             stroke="null" />
          <path
             id="svg_232"
             fill="#7e3a1a"
             d="m17062.562647,16857.567827c-0.09725,0.17153 -0.19747,0.2354 -0.29967,0.14963l-0.00099,0l-27.32123,13.61662l0,129.26397c0,0.23722 -0.01191,0.47262 -0.03771,0.70528c-0.01091,0.09946 -0.03175,0.19617 -0.04663,0.2938c-0.01886,0.11952 -0.03374,0.23905 -0.05954,0.35674c-0.03175,0.14964 -0.07541,0.2938 -0.11709,0.43796c-0.01984,0.06751 -0.03473,0.13503 -0.05656,0.20164c-0.04862,0.1478 -0.10716,0.29014 -0.16571,0.43338c-0.02579,0.06387 -0.04762,0.12865 -0.0764,0.19252c-0.05755,0.12865 -0.12404,0.25273 -0.18953,0.37773c-0.03969,0.07664 -0.07739,0.15329 -0.12105,0.22993c-0.05954,0.10127 -0.12503,0.19981 -0.18953,0.29744c-0.06053,0.09489 -0.12006,0.18887 -0.18555,0.28193c-0.05458,0.07664 -0.1161,0.14781 -0.17464,0.2208c-0.08434,0.10858 -0.1677,0.21533 -0.25898,0.31934c-0.05061,0.05748 -0.10717,0.1104 -0.15976,0.16606c-0.10617,0.11222 -0.21036,0.22262 -0.32348,0.32755c-0.05954,0.05565 -0.12304,0.10492 -0.18357,0.15693c-0.11312,0.09763 -0.22426,0.19616 -0.34432,0.28649c-0.1161,0.08942 -0.23914,0.16971 -0.3602,0.25091c-0.07144,0.04836 -0.13792,0.09945 -0.21135,0.14598c-0.04862,0.0292 -0.10121,0.05475 -0.14983,0.08395l29.25814,-14.54271c0.22822,-0.11405 0.4495,-0.23723 0.66284,-0.36861c0.07343,-0.04653 0.1409,-0.09763 0.21135,-0.14599c0.12205,-0.08211 0.24509,-0.1624 0.3602,-0.25091c0.12006,-0.09124 0.2312,-0.18886 0.34432,-0.2874c0.06053,-0.05201 0.12502,-0.10128 0.18357,-0.15693c0.11312,-0.10493 0.2183,-0.21533 0.32348,-0.32755c0.05259,-0.05566 0.10915,-0.10858 0.15975,-0.16606c0.09129,-0.1031 0.17464,-0.20985 0.25899,-0.31934c0.05854,-0.07299 0.12006,-0.14416 0.17464,-0.2208c0.06549,-0.09306 0.12403,-0.18704 0.18555,-0.28193c0.0645,-0.09854 0.13098,-0.19617 0.18953,-0.29744c0.04366,-0.07664 0.08037,-0.15328 0.12105,-0.22993c0.06549,-0.12499 0.13198,-0.24908 0.18953,-0.37773c0.02877,-0.06387 0.0506,-0.12865 0.0764,-0.19251c0.05855,-0.14234 0.11709,-0.28559 0.16571,-0.43339c0.02183,-0.0657 0.03672,-0.13413 0.05656,-0.20164c0.04168,-0.14416 0.08534,-0.28832 0.11709,-0.43795c0.0258,-0.1177 0.04068,-0.23723 0.05954,-0.35675c0.01488,-0.09763 0.03671,-0.19434 0.04663,-0.29379c0.0258,-0.23358 0.0387,-0.46898 0.03771,-0.70529l0,-129.27309l-2.14926,1.07116z"
             stroke="null" />
          <path
             id="svg_231"
             fill="#ad573a"
             d="m16871.517467,16871.965447l-51.53863,47.38905c-1.42888,1.31293 -3.33404,1.99723 -5.25905,1.99723c-1.21057,0 -2.43106,-0.26368 -3.54241,-0.81933l-128.48835,-64.03573l0,129.274c-0.001,0.23723 0.0119,0.47262 0.0377,0.70528c0.01091,0.09945 0.03176,0.19617 0.04664,0.29379c0.01885,0.11953 0.03374,0.23905 0.05953,0.35675c0.03176,0.14964 0.07542,0.29379 0.1171,0.43795c0.01984,0.06753 0.03472,0.13505 0.05656,0.20165c0.04861,0.1478 0.10715,0.29014 0.16571,0.43338c0.0258,0.06387 0.04762,0.12865 0.07639,0.19252c0.05756,0.12865 0.12404,0.25272 0.18953,0.37774c0.04069,0.07664 0.07739,0.15328 0.12106,0.22992c0.05954,0.10127 0.12502,0.19981 0.18953,0.29744c0.06152,0.09398 0.12006,0.18887 0.18554,0.28193c0.05458,0.07664 0.1161,0.1478 0.17464,0.2208c0.08435,0.10857 0.16771,0.21532 0.25899,0.31934c0.05061,0.05747 0.10717,0.11041 0.15975,0.16606c0.10519,0.11221 0.21036,0.22262 0.32349,0.32755c0.05953,0.05564 0.12305,0.10493 0.18457,0.15694c0.11311,0.09853 0.22425,0.19616 0.34431,0.28739c0.1161,0.08941 0.23914,0.16879 0.3602,0.25092c0.07143,0.04835 0.13792,0.09945 0.21135,0.14598c0.21334,0.1323 0.43461,0.25456 0.66284,0.36861l183.54657,91.22701c1.1054,0.54927 2.32192,0.82297 3.53943,0.82297l0,-216.75287c0,1.79833 -0.77396,3.55013 -2.18299,4.84573z"
             stroke="null" />
          <g
             transform="matrix(0.9922723778802572,0,0,0.9123978576422797,-2117.493419662407,-1868.5549166331814) "
             id="svg_230"
             stroke="null" />
          <g
             transform="matrix(0.9922723778802572,0,0,0.9123978576422797,-2117.493419662407,-1868.5549166331814) "
             id="svg_229"
             stroke="null" />
          <g
             transform="matrix(0.9922723778802572,0,0,0.9123978576422797,-2117.493419662407,-1868.5549166331814) "
             id="svg_228"
             stroke="null" />
          <g
             transform="matrix(0.9922723778802572,0,0,0.9123978576422797,-2117.493419662407,-1868.5549166331814) "
             id="svg_227"
             stroke="null" />
          <g
             transform="matrix(0.9922723778802572,0,0,0.9123978576422797,-2117.493419662407,-1868.5549166331814) "
             id="svg_226"
             stroke="null" />
          <g
             transform="matrix(0.9922723778802572,0,0,0.9123978576422797,-2117.493419662407,-1868.5549166331814) "
             id="svg_225"
             stroke="null" />
          <g
             transform="matrix(0.9922723778802572,0,0,0.9123978576422797,-2117.493419662407,-1868.5549166331814) "
             id="svg_224"
             stroke="null" />
          <g
             transform="matrix(0.9922723778802572,0,0,0.9123978576422797,-2117.493419662407,-1868.5549166331814) "
             id="svg_223"
             stroke="null" />
          <g
             transform="matrix(0.9922723778802572,0,0,0.9123978576422797,-2117.493419662407,-1868.5549166331814) "
             id="svg_222"
             stroke="null" />
          <g
             transform="matrix(0.9922723778802572,0,0,0.9123978576422797,-2117.493419662407,-1868.5549166331814) "
             id="svg_221"
             stroke="null" />
          <g
             transform="matrix(0.9922723778802572,0,0,0.9123978576422797,-2117.493419662407,-1868.5549166331814) "
             id="svg_220"
             stroke="null" />
          <g
             transform="matrix(0.9922723778802572,0,0,0.9123978576422797,-2117.493419662407,-1868.5549166331814) "
             id="svg_219"
             stroke="null" />
          <g
             transform="matrix(0.9922723778802572,0,0,0.9123978576422797,-2117.493419662407,-1868.5549166331814) "
             id="svg_218"
             stroke="null" />
          <g
             transform="matrix(0.9922723778802572,0,0,0.9123978576422797,-2117.493419662407,-1868.5549166331814) "
             id="svg_217"
             stroke="null" />
          <g
             transform="matrix(0.9922723778802572,0,0,0.9123978576422797,-2117.493419662407,-1868.5549166331814) "
             id="svg_216"
             stroke="null" />
          <!-- Created with Method Draw - http://github.com/duopixel/Method-Draw/ -->
          <g
             id="svg_202"
             transform="rotate(-63.963016510009766 16738.962890625004,16727.4140625) "
             stroke="null">
            <g
               id="svg_212"
               transform="matrix(0.4029398111430975,0,0,0.4029398111430975,-1174.9963702872383,-1173.3860348778076) "
               stroke="null">
              <title
                 id="title37897"
                 transform="translate(-4.906808376312256,-4.547473508864641e-13) translate(4.906808376312256,-4.547473508864641e-13) translate(4.906808376312256,-4.547473508864641e-13) translate(4.906808376312256,-4.547473508864641e-13) translate(4.906808376312256,-4.547473508864641e-13) translate(-118.42724609375,-48.447505950927734) translate(-1388.5836181640625,-1476.1519775390625) translate(42736.57421875,-4.547473508864641e-13) translate(0,42751.78125) "
                 stroke="null">background</title>
              <rect
                 fill="none"
                 id="svg_215"
                 height="402"
                 width="514"
                 y="44224.496953"
                 x="44201.154241"
                 stroke="null" />
              <g
                 display="none"
                 id="svg_213"
                 stroke="null">
                <rect
                   fill="url(#gridpattern)"
                   stroke-width="0"
                   y="44225.496953"
                   x="44202.154241"
                   height="512"
                   width="512"
                   id="svg_214"
                   stroke="null" />
              </g>
            </g>
            <g
               id="svg_203"
               transform="matrix(0.4029398111430975,0,0,0.4029398111430975,-1174.9963702872383,-1173.3860348778076) "
               stroke="null">
              <title
                 id="title37903"
                 transform="translate(-4.906808376312256,-4.547473508864641e-13) translate(4.906808376312256,-4.547473508864641e-13) translate(4.906808376312256,-4.547473508864641e-13) translate(4.906808376312256,-4.547473508864641e-13) translate(4.906808376312256,-4.547473508864641e-13) translate(-118.42724609375,-48.447505950927734) translate(-1388.5836181640625,-1476.1519775390625) translate(42736.57421875,-4.547473508864641e-13) translate(0,42751.78125) "
                 stroke="null">Layer 1</title>
              <g
                 id="svg_205"
                 stroke="null">
                <path
                   id="svg_211"
                   fill="#ffe4c2"
                   d="m44581.02424,44625.495277l-230.74005,0c-25.92987,0 -46.9547,-21.0202 -46.9547,-46.95469l0,-227.17024c0,-25.92987 21.02483,-46.9547 46.9547,-46.9547l230.74005,0c25.92987,0 46.9547,21.02483 46.9547,46.9547l0,227.17024c0,25.93449 -21.02483,46.95469 -46.9547,46.95469zm0,0"
                   stroke="null" />
                <path
                   id="svg_210"
                   fill="#f2bb88"
                   d="m44581.02424,44304.415647l-115.85218,0l0,321.07963l115.85218,0c25.92987,0 46.9547,-21.0202 46.9547,-46.95469l0,-227.17024c0,-25.9345 -21.02483,-46.9547 -46.9547,-46.9547zm0,0"
                   stroke="null" />
                <path
                   id="svg_209"
                   fill="#ffd400"
                   d="m44322.04553,44242.347177l287.21737,0l0,62.06847l-287.21737,0l0,-62.06847zm0,0"
                   stroke="null" />
                <path
                   id="svg_208"
                   fill="#fcaf03"
                   d="m44465.17205,44242.347177l144.09084,0l0,62.06847l-144.09084,0l0,-62.06847zm0,0"
                   stroke="null" />
                <path
                   id="svg_207"
                   fill="#b46e5a"
                   d="m44303.32948,44390.165457l324.64945,0l0,140.04813l-324.64945,0l0,-140.04813zm0,0"
                   stroke="null" />
                <path
                   id="svg_206"
                   fill="#915041"
                   d="m44465.17205,44390.165457l162.80688,0l0,140.04813l-162.80688,0l0,-140.04813zm0,0"
                   stroke="null" />
              </g>
              <text
                 xml:space="preserve"
                 text-anchor="start"
                 font-family="Helvetica, Arial, sans-serif"
                 font-size="24"
                 id="svg_204"
                 y="44429.950078"
                 x="44381.654241"
                 fill-opacity="null"
                 stroke-opacity="null"
                 stroke-width="0"
                 fill="#000000"
                 stroke="null" />
            </g>
          </g>
          <g
             id="svg_188"
             transform="rotate(9.299079895019531 16893.96289062497,16702.414062500004) "
             stroke="null">
            <g
               id="svg_198"
               transform="matrix(0.4029398111430975,0,0,0.4029398111430975,-1174.9963702872383,-1173.3860348778076) "
               stroke="null">
              <title
                 id="title37915"
                 transform="translate(-4.906808376312256,-4.547473508864641e-13) translate(4.906808376312256,-4.547473508864641e-13) translate(4.906808376312256,-4.547473508864641e-13) translate(4.906808376312256,-4.547473508864641e-13) translate(4.906808376312256,-4.547473508864641e-13) translate(-118.42724609375,-48.447505950927734) translate(-1388.5836181640625,-1476.1519775390625) translate(42736.57421875,-4.547473508864641e-13) translate(0,42751.78125) "
                 stroke="null">background</title>
              <rect
                 fill="none"
                 id="svg_201"
                 height="402"
                 width="514"
                 y="44162.452946"
                 x="44585.827096"
                 stroke="null" />
              <g
                 display="none"
                 id="svg_199"
                 stroke="null">
                <rect
                   fill="url(#gridpattern)"
                   stroke-width="0"
                   y="44163.452946"
                   x="44586.827096"
                   height="512"
                   width="512"
                   id="svg_200"
                   stroke="null" />
              </g>
            </g>
            <g
               id="svg_189"
               transform="matrix(0.4029398111430975,0,0,0.4029398111430975,-1174.9963702872383,-1173.3860348778076) "
               stroke="null">
              <title
                 id="title37921"
                 transform="translate(-4.906808376312256,-4.547473508864641e-13) translate(4.906808376312256,-4.547473508864641e-13) translate(4.906808376312256,-4.547473508864641e-13) translate(4.906808376312256,-4.547473508864641e-13) translate(4.906808376312256,-4.547473508864641e-13) translate(-118.42724609375,-48.447505950927734) translate(-1388.5836181640625,-1476.1519775390625) translate(42736.57421875,-4.547473508864641e-13) translate(0,42751.78125) "
                 stroke="null">Layer 1</title>
              <g
                 id="svg_191"
                 stroke="null">
                <path
                   id="svg_197"
                   fill="#ffe4c2"
                   d="m44965.69709,44563.451267l-230.74005,0c-25.92987,0 -46.9547,-21.0202 -46.9547,-46.95469l0,-227.17024c0,-25.92987 21.02483,-46.9547 46.9547,-46.9547l230.74005,0c25.92987,0 46.9547,21.02483 46.9547,46.9547l0,227.17024c0,25.93449 -21.02483,46.95469 -46.9547,46.95469zm0,0"
                   stroke="null" />
                <path
                   id="svg_196"
                   fill="#f2bb88"
                   d="m44965.69709,44242.371637l-115.85218,0l0,321.07963l115.85218,0c25.92987,0 46.9547,-21.0202 46.9547,-46.95469l0,-227.17024c0,-25.9345 -21.02483,-46.9547 -46.9547,-46.9547zm0,0"
                   stroke="null" />
                <path
                   id="svg_195"
                   fill="#ffd400"
                   d="m44706.71839,44180.303167l287.21736,0l0,62.06847l-287.21736,0l0,-62.06847zm0,0"
                   stroke="null" />
                <path
                   id="svg_194"
                   fill="#fcaf03"
                   d="m44849.84491,44180.303167l144.09084,0l0,62.06847l-144.09084,0l0,-62.06847zm0,0"
                   stroke="null" />
                <path
                   id="svg_193"
                   fill="#b46e5a"
                   d="m44688.00234,44328.121447l324.64945,0l0,140.04813l-324.64945,0l0,-140.04813zm0,0"
                   stroke="null" />
                <path
                   id="svg_192"
                   fill="#915041"
                   d="m44849.84491,44328.121447l162.80688,0l0,140.04813l-162.80688,0l0,-140.04813zm0,0"
                   stroke="null" />
              </g>
              <text
                 xml:space="preserve"
                 text-anchor="start"
                 font-family="Helvetica, Arial, sans-serif"
                 font-size="24"
                 id="svg_190"
                 y="44367.906071"
                 x="44766.327096"
                 fill-opacity="null"
                 stroke-opacity="null"
                 stroke-width="0"
                 fill="#000000"
                 stroke="null" />
            </g>
          </g>
          <g
             id="svg_174"
             transform="rotate(63.690189361572266 16971.962890625,16749.4140625) "
             stroke="null">
            <g
               id="svg_184"
               transform="matrix(0.4029398111430975,0,0,0.4029398111430975,-1174.9963702872383,-1173.3860348778076) "
               stroke="null">
              <title
                 id="title37933"
                 transform="translate(-4.906808376312256,-4.547473508864641e-13) translate(4.906808376312256,-4.547473508864641e-13) translate(4.906808376312256,-4.547473508864641e-13) translate(4.906808376312256,-4.547473508864641e-13) translate(4.906808376312256,-4.547473508864641e-13) translate(-118.42724609375,-48.447505950927734) translate(-1388.5836181640625,-1476.1519775390625) translate(42736.57421875,-4.547473508864641e-13) translate(0,42751.78125) "
                 stroke="null">background</title>
              <rect
                 fill="none"
                 id="svg_187"
                 height="402"
                 width="514"
                 y="44279.095673"
                 x="44779.404401"
                 stroke="null" />
              <g
                 display="none"
                 id="svg_185"
                 stroke="null">
                <rect
                   fill="url(#gridpattern)"
                   stroke-width="0"
                   y="44280.095673"
                   x="44780.404401"
                   height="512"
                   width="512"
                   id="svg_186"
                   stroke="null" />
              </g>
            </g>
            <g
               id="svg_175"
               transform="matrix(0.4029398111430975,0,0,0.4029398111430975,-1174.9963702872383,-1173.3860348778076) "
               stroke="null">
              <title
                 id="title37939"
                 transform="translate(-4.906808376312256,-4.547473508864641e-13) translate(4.906808376312256,-4.547473508864641e-13) translate(4.906808376312256,-4.547473508864641e-13) translate(4.906808376312256,-4.547473508864641e-13) translate(4.906808376312256,-4.547473508864641e-13) translate(-118.42724609375,-48.447505950927734) translate(-1388.5836181640625,-1476.1519775390625) translate(42736.57421875,-4.547473508864641e-13) translate(0,42751.78125) "
                 stroke="null">Layer 1</title>
              <g
                 id="svg_177"
                 stroke="null">
                <path
                   id="svg_183"
                   fill="#ffe4c2"
                   d="m45159.2744,44680.093997l-230.74005,0c-25.92987,0 -46.9547,-21.0202 -46.9547,-46.95469l0,-227.17024c0,-25.92987 21.02482,-46.9547 46.9547,-46.9547l230.74005,0c25.92987,0 46.95469,21.02483 46.95469,46.9547l0,227.17024c0,25.93449 -21.02482,46.95469 -46.9547,46.95469l0.00001,0zm0,0"
                   stroke="null" />
                <path
                   id="svg_182"
                   fill="#f2bb88"
                   d="m45159.2744,44359.014367l-115.85218,0l0,321.07963l115.85218,0c25.92987,0 46.95469,-21.0202 46.95469,-46.95469l0,-227.17024c0,-25.9345 -21.02482,-46.9547 -46.9547,-46.9547l0.00001,0zm0,0"
                   stroke="null" />
                <path
                   id="svg_181"
                   fill="#ffd400"
                   d="m44900.2957,44296.945897l287.21736,0l0,62.06847l-287.21736,0l0,-62.06847zm0,0"
                   stroke="null" />
                <path
                   id="svg_180"
                   fill="#fcaf03"
                   d="m45043.42221,44296.945897l144.09084,0l0,62.06847l-144.09084,0l0,-62.06847zm0,0"
                   stroke="null" />
                <path
                   id="svg_179"
                   fill="#b46e5a"
                   d="m44881.57965,44444.764177l324.64944,0l0,140.04813l-324.64944,0l0,-140.04813zm0,0"
                   stroke="null" />
                <path
                   id="svg_178"
                   fill="#915041"
                   d="m45043.42221,44444.764177l162.80688,0l0,140.04813l-162.80688,0l0,-140.04813zm0,0"
                   stroke="null" />
              </g>
              <text
                 xml:space="preserve"
                 text-anchor="start"
                 font-family="Helvetica, Arial, sans-serif"
                 font-size="24"
                 id="svg_176"
                 y="44484.548798"
                 x="44959.904401"
                 fill-opacity="null"
                 stroke-opacity="null"
                 stroke-width="0"
                 fill="#000000"
                 stroke="null" />
            </g>
          </g>
          <g
             id="svg_160"
             transform="rotate(-0.667198657989502 16847.962890625273,16793.41406249994) "
             stroke="null">
            <g
               id="svg_170"
               transform="matrix(0.4029398111430975,0,0,0.4029398111430975,-1174.9963702872383,-1173.3860348778076) "
               stroke="null">
              <title
                 id="title37951"
                 transform="translate(-4.906808376312256,-4.547473508864641e-13) translate(4.906808376312256,-4.547473508864641e-13) translate(4.906808376312256,-4.547473508864641e-13) translate(4.906808376312256,-4.547473508864641e-13) translate(4.906808376312256,-4.547473508864641e-13) translate(-118.42724609375,-48.447505950927734) translate(-1388.5836181640625,-1476.1519775390625) translate(42736.57421875,-4.547473508864641e-13) translate(0,42751.78125) "
                 stroke="null">background</title>
              <rect
                 fill="none"
                 id="svg_173"
                 height="402"
                 width="514"
                 y="44388.293126"
                 x="44471.66612"
                 stroke="null" />
              <g
                 display="none"
                 id="svg_171"
                 stroke="null">
                <rect
                   fill="url(#gridpattern)"
                   stroke-width="0"
                   y="44389.293126"
                   x="44472.66612"
                   height="512"
                   width="512"
                   id="svg_172"
                   stroke="null" />
              </g>
            </g>
            <g
               id="svg_161"
               transform="matrix(0.4029398111430975,0,0,0.4029398111430975,-1174.9963702872383,-1173.3860348778076) "
               stroke="null">
              <title
                 id="title37957"
                 transform="translate(-4.906808376312256,-4.547473508864641e-13) translate(4.906808376312256,-4.547473508864641e-13) translate(4.906808376312256,-4.547473508864641e-13) translate(4.906808376312256,-4.547473508864641e-13) translate(4.906808376312256,-4.547473508864641e-13) translate(-118.42724609375,-48.447505950927734) translate(-1388.5836181640625,-1476.1519775390625) translate(42736.57421875,-4.547473508864641e-13) translate(0,42751.78125) "
                 stroke="null">Layer 1</title>
              <g
                 id="svg_163"
                 stroke="null">
                <path
                   id="svg_169"
                   fill="#ffe4c2"
                   d="m44851.53611,44789.291447l-230.74005,0c-25.92987,0 -46.9547,-21.0202 -46.9547,-46.95469l0,-227.17024c0,-25.92987 21.02483,-46.9547 46.9547,-46.9547l230.74005,0c25.92987,0 46.9547,21.02483 46.9547,46.9547l0,227.17024c0,25.93449 -21.02483,46.95469 -46.9547,46.95469zm0,0"
                   stroke="null" />
                <path
                   id="svg_168"
                   fill="#f2bb88"
                   d="m44851.53611,44468.211817l-115.85218,0l0,321.07963l115.85218,0c25.92987,0 46.9547,-21.0202 46.9547,-46.95469l0,-227.17024c0,-25.9345 -21.02483,-46.9547 -46.9547,-46.9547zm0,0"
                   stroke="null" />
                <path
                   id="svg_167"
                   fill="#ffd400"
                   d="m44592.55741,44406.143347l287.21736,0l0,62.06847l-287.21736,0l0,-62.06847zm0,0"
                   stroke="null" />
                <path
                   id="svg_166"
                   fill="#fcaf03"
                   d="m44735.68393,44406.143347l144.09084,0l0,62.06847l-144.09084,0l0,-62.06847zm0,0"
                   stroke="null" />
                <path
                   id="svg_165"
                   fill="#b46e5a"
                   d="m44573.84136,44553.961627l324.64945,0l0,140.04813l-324.64945,0l0,-140.04813zm0,0"
                   stroke="null" />
                <path
                   id="svg_164"
                   fill="#915041"
                   d="m44735.68393,44553.961627l162.80688,0l0,140.04813l-162.80688,0l0,-140.04813zm0,0"
                   stroke="null" />
              </g>
              <text
                 xml:space="preserve"
                 text-anchor="start"
                 font-family="Helvetica, Arial, sans-serif"
                 font-size="24"
                 id="svg_162"
                 y="44593.746251"
                 x="44652.16612"
                 fill-opacity="null"
                 stroke-opacity="null"
                 stroke-width="0"
                 fill="#000000"
                 stroke="null" />
            </g>
          </g>
        </g>
        <!-- Created with Method Draw - http://github.com/duopixel/Method-Draw/ -->
        <g
           id="svg_144"
           fill="rgb(29.019608%,41.176471%,43.529412%)"
           stroke="null">
          <g
             id="svg_145"
             transform="matrix(0.6082107122205929,0,0,0.6082107122205929,-721.376582008537,-1139.3388206122347) "
             stroke="null">
            <path
               d="m29278.928126,29938.295781l-90,0c-24.90234,0 -45,20.09766 -45,45l0,30c0,8.39844 6.59766,15 15,15l150,0c8.40235,0 15,-6.60156 15,-15l0,-30c0,-24.90234 -20.09765,-45 -45,-45z"
               fill="rgb(29.019608%,41.176471%,43.529412%)"
               fill-rule="nonzero"
               id="svg_146"
               stroke="null" />
          </g>
        </g>
        <!-- Created with Method Draw - http://github.com/duopixel/Method-Draw/ -->
        <g
           id="svg_129"
           stroke="null">
          <g
             transform="matrix(0.5391264333487515,0,0,0.5391264333487515,-903.2861628432549,-1084.188842976932) "
             id="svg_140"
             stroke="null">
            <title
               id="title37989"
               transform="translate(-3.667318820953369,2.2737367544323206e-13) translate(3.667318820953369,2.2737367544323206e-13) translate(3.667318820953369,2.2737367544323206e-13) translate(3.667318820953369,2.2737367544323206e-13) translate(3.667318820953369,2.2737367544323206e-13) translate(-88.51180267333984,-36.20936965942383) translate(-1037.8189697265625,-1103.2669677734375) translate(31941.056640625,2.2737367544323206e-13) translate(0,31952.419921875) "
               stroke="null">background</title>
            <rect
               x="32902.663052"
               y="33150.292746"
               width="514"
               height="402"
               id="svg_143"
               fill="none"
               stroke="null" />
            <g
               id="svg_141"
               display="none"
               stroke="null">
              <rect
                 id="svg_142"
                 width="512"
                 height="512"
                 x="32903.663052"
                 y="33151.292746"
                 stroke-width="0"
                 fill="url(#gridpattern)"
                 stroke="null" />
            </g>
          </g>
          <g
             transform="matrix(0.5391264333487515,0,0,0.5391264333487515,-903.2861628432549,-1084.188842976932) "
             id="svg_130"
             stroke="null">
            <title
               id="title37995"
               transform="translate(-3.667318820953369,2.2737367544323206e-13) translate(3.667318820953369,2.2737367544323206e-13) translate(3.667318820953369,2.2737367544323206e-13) translate(3.667318820953369,2.2737367544323206e-13) translate(3.667318820953369,2.2737367544323206e-13) translate(-88.51180267333984,-36.20936965942383) translate(-1037.8189697265625,-1103.2669677734375) translate(31941.056640625,2.2737367544323206e-13) translate(0,31952.419921875) "
               stroke="null">Layer 1</title>
            <g
               id="svg_133"
               stroke="null">
              <path
                 d="m33282.533045,33551.291074l-230.74005,0c-25.92987,0 -46.9547,-21.0202 -46.9547,-46.95469l0,-227.17024c0,-25.92987 21.02483,-46.9547 46.9547,-46.9547l230.74005,0c25.92987,0 46.9547,21.02483 46.9547,46.9547l0,227.17024c0,25.93449 -21.02483,46.95469 -46.9547,46.95469zm0,0"
                 fill="#ffe4c2"
                 id="svg_139"
                 stroke="null" />
              <path
                 d="m33282.533045,33230.211444l-115.85218,0l0,321.07963l115.85218,0c25.92987,0 46.9547,-21.0202 46.9547,-46.95469l0,-227.17024c0,-25.9345 -21.02483,-46.9547 -46.9547,-46.9547zm0,0"
                 fill="#f2bb88"
                 id="svg_138"
                 stroke="null" />
              <path
                 d="m33023.554345,33168.142974l287.21736,0l0,62.06847l-287.21736,0l0,-62.06847zm0,0"
                 fill="#ffd400"
                 id="svg_137"
                 stroke="null" />
              <path
                 d="m33166.680865,33168.142974l144.09084,0l0,62.06847l-144.09084,0l0,-62.06847zm0,0"
                 fill="#fcaf03"
                 id="svg_136"
                 stroke="null" />
              <path
                 d="m33004.838295,33315.961254l324.64945,0l0,140.04813l-324.64945,0l0,-140.04813zm0,0"
                 fill="#b46e5a"
                 id="svg_135"
                 stroke="null" />
              <path
                 d="m33166.680865,33315.961254l162.80688,0l0,140.04813l-162.80688,0l0,-140.04813zm0,0"
                 fill="#915041"
                 id="svg_134"
                 stroke="null" />
            </g>
            <text
               fill="#000000"
               stroke-width="0"
               stroke-opacity="null"
               fill-opacity="null"
               x="33083.163052"
               y="33355.745871"
               id="svg_132"
               font-size="24"
               font-family="Helvetica, Arial, sans-serif"
               text-anchor="start"
               xml:space="preserve"
               stroke="null" />
          </g>
        </g>
        <g
           id="svg_124"
           stroke="null">
          <path
             d="m16992.933897,17003.939207l27.20228,68.0057l45.33714,0l0,-68.0057l-72.53942,0z"
             fill="#fe99a0"
             id="svg_128"
             stroke="null" />
          <path
             d="m17114.114447,16983.180537l-16.90513,88.76438l-40.80343,0l-4.53371,-4.53372a44.87944,44.87944 0 0 1 0,-63.47199l-30.6366,-30.64228a19.20644,19.20644 0 0 1 -5.63311,-13.59547l0,-0.37399a18.86021,18.86021 0 0 1 18.86025,-18.86025l0.37398,0a19.24345,19.24345 0 0 1 13.60114,5.6331l17.03548,17.03547l0,-81.60685a25.15968,25.15968 0 0 1 23.87007,17.20536l23.92668,71.78012a25.16277,25.16277 0 0 1 0.84438,12.66612z"
             fill="#ffc7cc"
             id="svg_127"
             stroke="null" />
          <path
             d="m17051.872177,16949.534637l27.20228,27.20229"
             fill="#ffc7cc"
             id="svg_126"
             stroke="null" />
          <path
             d="m17085.484027,16976.736927a4.53574,4.53574 0 0 1 -6.40957,0l-13.60114,-13.60114l0,-12.81915l20.01071,20.01072a4.5254,4.5254 0 0 1 0,6.40957z"
             fill="#fe99a0"
             id="svg_125"
             stroke="null" />
        </g>
      </g>
    </g>
  </g>
  <path
     style="stroke-width:0.384039"
     id="be"
     d="m 391.32601,697.83631 c -4.51721,-12.99155 60.92852,-24.83216 78.97185,-18.12344 18.04309,6.70827 5.59219,159.25632 -43.84288,150.79589 -21.19789,-3.62657 -129.08554,-37.95788 -203.61478,-80.76263 -15.57592,-8.9461 -0.82048,-49.12287 15.25008,-60.39853 21.57905,-15.14462 50.22333,3.0291 68.20078,18.87946 40.15282,35.40206 65.63838,60.90093 85.62664,46.67188 15.59043,-11.09864 3.92604,-44.07036 -0.59169,-57.06263 z"
     fill="#f4e8d7" />
  <ellipse
     transform="rotate(21.320654)"
     style="stroke-width:0.384039"
     ry="36.600258"
     rx="37.780907"
     cy="678.66144"
     cx="612.02435"
     id="noq"
     fill="#f4e8d7" />
</svg>
